<?xml version="1.0" encoding="utf-8"?>
<!-- Generator: Adobe Illustrator 23.0.0, SVG Export Plug-In . SVG Version: 6.00 Build 0)  -->
<svg version="1.1" id="Слой_1" xmlns="http://www.w3.org/2000/svg" xmlns:xlink="http://www.w3.org/1999/xlink" x="0px" y="0px" width="32px" height="13px"
	 viewBox="0 0 32 13" enable-background="new 0 0 32 13" xml:space="preserve">
<g>
	<path fill="#2D2D2D" d="M0.86438,12.99689c-0.02129,0-0.04257,0-0.06386,0c-0.33183-0.05126-0.56626-0.23332-0.72469-0.52323
		c-0.04681-0.08566-0.04517-0.18058-0.07358-0.26911c0-2.20796,0-4.41593,0-6.6239c0.03484-0.02885,0.07491-0.03615,0.11867-0.0287
		c0.30471,0.10753,0.41072,0.26299,0.41096,0.61574c0.00116,1.65234,0.00038,3.30467,0.00055,4.95701
		c0.00003,0.25339-0.00339,0.50683,0.00116,0.76017c0.0063,0.35067,0.20489,0.54537,0.55886,0.55347
		c0.06912,0.00158,0.13828,0.00062,0.20742,0.00062c5.03139,0.00002,10.06278,0.00001,15.09417,0.00004
		c0.07446,0,0.14894-0.00118,0.22337,0.00091c0.30537,0.00858,0.46824,0.1301,0.56346,0.41944
		c0.00416,0.04391-0.00023,0.08515-0.03737,0.11586c-0.06345,0.01024-0.12743,0.00507-0.19116,0.00508
		c-5.29465,0.00028-10.58931,0.00018-15.88396,0.00114C1.00052,12.98146,0.93019,12.9644,0.86438,12.99689z"/>
	<path fill="#262727" d="M31.99691,6.78501c-0.06809,0.03773-0.04715,0.11021-0.0594,0.16591
		c-0.39912,1.81492-1.17801,3.443-2.43218,4.8313c-0.4517,0.50001-0.98541,0.89516-1.64168,1.10545
		c-0.12238,0.03921-0.25887,0.03076-0.36898,0.10923c-0.05322,0-0.10644,0-0.15965,0
		c-0.06033-0.03172-0.1254-0.01548-0.18795-0.0155c-3.31336-0.00108-6.62672-0.00052-9.94008-0.00103
		c-0.02224,0.00184-0.04137-0.00496-0.05738-0.02037c-0.00017-0.02996-0.00034-0.05991-0.00051-0.08987
		c0.08267-0.06982,0.18268-0.04486,0.27569-0.04491c2.59014-0.0014,5.18027-0.00111,7.77041-0.00111
		c0.64355,0,1.2872-0.00727,1.9306,0.00236c0.49167,0.00736,0.93093-0.14304,1.34224-0.3928
		c0.301-0.18277,0.55404-0.4214,0.80717-0.66499c0.73802-0.71021,1.25873-1.56714,1.6928-2.47521
		c0.38063-0.7963,0.69538-1.62145,0.83759-2.5003c0.01682-0.10392,0.00055-0.21207,0.04271-0.31225
		c0.0232-0.0356,0.0571-0.0408,0.09553-0.03289c0.04341,0.0116,0.02779,0.06034,0.05309,0.08344
		C31.99691,6.61598,31.99691,6.7005,31.99691,6.78501z"/>
	<path fill="#1A1A1A" d="M31.96232,6.46722c-0.03099,0.00035-0.06199,0.0007-0.09298,0.00106
		c-0.04772,0.02091-0.07377,0.0121-0.06416-0.04599c0.06061-0.1573,0.01527-0.31387-0.01158-0.46757
		c-0.12272-0.70242-0.36961-1.36663-0.66622-2.01134c-0.40354-0.87713-0.89063-1.70878-1.52856-2.439
		c-0.39678-0.45418-0.846-0.86123-1.39323-1.14126c-0.38106-0.195-0.78998-0.27983-1.21652-0.28014
		c-1.76632-0.00125-3.53264-0.00052-5.29897-0.00052c-5.45857,0-10.91714-0.00002-16.37572,0.00013
		c-0.11167,0-0.22393-0.00668-0.33359,0.02279C4.95084,0.11189,4.92434,0.10824,4.90674,0.07972
		c-0.0107-0.02808-0.00696-0.05389,0.01285-0.07707c7.5676,0,15.1352,0,22.7028,0c0.54715,0.15623,1.03099,0.42407,1.46042,0.79592
		c0.58683,0.50815,1.05573,1.11143,1.46033,1.76595c0.62528,1.0115,1.10948,2.08302,1.37422,3.24574
		c0.02359,0.10358,0.01355,0.21626,0.07955,0.30919c0,0.06339,0,0.12677,0,0.19016
		C31.95632,6.35586,32.00553,6.42153,31.96232,6.46722z"/>
	<path fill="#262626" d="M4.91959,0.00265C4.91951,0.02372,4.91944,0.0448,4.91936,0.06587
		C4.83819,0.13806,4.73795,0.11499,4.64489,0.11512c-1.21268,0.00174-2.4254,0.00573-3.63803-0.00217
		C0.70704,0.11101,0.4881,0.22953,0.30566,0.4512c-0.12587,0.15293-0.15847,0.32662-0.1582,0.51742
		C0.14954,2.41513,0.14915,3.86164,0.1475,5.30815C0.1474,5.40052,0.17057,5.49998,0.09806,5.58065
		C0.06612,5.58065,0.03418,5.58066,0.00225,5.58067c0-1.61636,0-3.23271,0-4.84907c0.05855-0.37618,0.26539-0.62436,0.63862-0.72895
		C2.06711,0.00265,3.49335,0.00265,4.91959,0.00265z"/>
	<path fill="#697681" d="M17.1496,12.95999c0.00971,0.00373,0.01962,0.00684,0.02972,0.00935
		c0.01135,0.00546,0.01536,0.01135,0.0121,0.0177c-0.00336,0.00656-0.00681,0.00985-0.0104,0.00985
		c-5.43888,0-10.87776,0-16.31664,0c0.04293-0.06313,0.1075-0.03101,0.16095-0.03103
		c5.32693-0.00157,10.65386-0.00146,15.98078-0.00165C17.05394,12.96421,17.10177,12.96146,17.1496,12.95999z"/>
	<path fill="#535F69" d="M17.18102,12.99689c-0.00011-0.00922-0.00067-0.01842-0.00169-0.02757
		c0.05315-0.00135,0.1063-0.00391,0.15946-0.00392c3.28301-0.00031,6.56602-0.00052,9.84904,0.0004
		c0.04974,0.00001,0.10786-0.02364,0.14719,0.03109C23.95035,12.99689,20.56568,12.99689,17.18102,12.99689z"/>
	<path fill="#404C56" d="M31.96232,6.46722c0.01474-0.05184-0.02379-0.1152,0.03459-0.1576c0,0.07395,0,0.1479,0,0.22185
		C31.96879,6.51885,31.96571,6.49295,31.96232,6.46722z"/>
	<path fill="#202020" d="M0.09806,5.58065C0.09805,4.01743,0.10982,2.45406,0.08924,0.89111
		C0.08445,0.52774,0.56309,0.05118,0.92898,0.05727c1.3298,0.02213,2.66021,0.00865,3.99038,0.0086
		c0.01066,0.01066,0.02132,0.02132,0.03199,0.03198c0.04366,0.02486,0.0649,0.06882,0.09224,0.10741
		c0.08564,0.12087,0.2045,0.18094,0.35126,0.19C5.4799,0.40051,5.56508,0.39828,5.6502,0.39828
		c7.02902,0.00009,14.05806,0.00473,21.08705-0.00879c0.55949-0.00108,1.03711,0.1602,1.51205,0.41332
		c0.69131,0.36843,1.18742,0.92961,1.63129,1.55255c0.4435,0.62242,0.72927,1.32302,1.03921,2.01193
		c0.17585,0.39087,0.33205,0.78996,0.43041,1.20823c0.07686,0.32684,0.1607,0.64821,0.45495,0.86107
		c0.01393,0.02544,0.0379,0.03087,0.06417,0.03169c0.00679,0.4485-0.11965,0.87264-0.25237,1.29329
		C31.47009,8.22714,31.28036,8.6759,31.0855,9.1251c-0.31538,0.72701-0.72503,1.39095-1.19183,2.02606
		c-0.20607,0.28037-0.46843,0.50803-0.70507,0.75982c-0.29875,0.31787-0.64621,0.55719-1.03588,0.74066
		c-0.29409,0.13847-0.60365,0.22004-0.93493,0.21982c-3.35623-0.00217-6.71246-0.00134-10.06869-0.00135
		c-0.10197-0.29204-0.31434-0.38412-0.61641-0.38384c-5.14297,0.0049-10.28595,0.00073-15.4289,0.00972
		c-0.34752,0.00061-0.63121-0.28368-0.6289-0.61815C0.48794,9.9828,0.47759,8.08761,0.48491,6.1925
		C0.48607,5.8926,0.39224,5.6819,0.09806,5.58065z"/>
	<path fill="#131313" d="M31.80517,6.43658c-0.22489-0.05813-0.3148-0.23908-0.38186-0.43071
		c-0.12856-0.36732-0.19735-0.7517-0.34122-1.11654c-0.1529-0.38775-0.32437-0.76677-0.49199-1.14767
		c-0.26204-0.59546-0.58978-1.15121-0.98067-1.67578c-0.54525-0.73173-1.2497-1.23284-2.10033-1.54995
		c-0.14279-0.05323-0.28385-0.07107-0.43435-0.07104C19.86969,0.44658,12.66463,0.44637,5.45958,0.44632
		c-0.29313,0-0.45802-0.11334-0.50823-0.34847c0.00568-0.04424,0.03182-0.06363,0.07582-0.06307
		c0.04254,0.00054,0.0851-0.00036,0.12766-0.00036c7.30342-0.00002,14.60683-0.00124,21.91025,0.00247
		c0.54106,0.00027,1.03348,0.16839,1.48521,0.47661c0.17302,0.11805,0.33561,0.24957,0.50583,0.37034
		c0.13077,0.09278,0.21323,0.25094,0.3406,0.35049c0.23318,0.18226,0.41112,0.41171,0.5741,0.64782
		c0.25721,0.37263,0.50624,0.75076,0.73422,1.14418c0.39927,0.68901,0.70755,1.41264,0.95337,2.16584
		c0.121,0.37076,0.18998,0.7521,0.24065,1.13741C31.90853,6.40144,31.88472,6.44263,31.80517,6.43658z"/>
	<path fill="#262626" d="M14.05873,12.10944c-4.26233,0-8.52466,0-12.78699-0.00001c-0.36977,0-0.40731-0.03724-0.40731-0.40412
		c-0.00002-3.49119-0.00002-6.98238,0-10.47357c0-0.36739,0.03776-0.40502,0.40642-0.40502
		C9.80082,0.8267,18.3308,0.82764,26.86078,0.82484c0.64872-0.00021,1.18635,0.23169,1.66889,0.65534
		c0.35566,0.31225,0.66614,0.66281,0.9319,1.04287c0.38526,0.55093,0.71821,1.13529,0.98448,1.75811
		c0.13582,0.31769,0.27561,0.63356,0.38787,0.95956c0.21511,0.62465,0.32904,1.25335,0.13551,1.91495
		c-0.13281,0.45403-0.27027,0.90829-0.45724,1.33899c-0.17035,0.39242-0.35235,0.78496-0.57497,1.15583
		c-0.11258,0.18754-0.21098,0.38484-0.33269,0.56682c-0.24479,0.36599-0.51256,0.72202-0.82421,1.02814
		c-0.3742,0.36756-0.78654,0.71289-1.33576,0.80824c-0.1917,0.03328-0.38843,0.05336-0.58289,0.0535
		C22.59403,12.11014,18.32638,12.10944,14.05873,12.10944z"/>
	<path fill="#283B38" d="M27.84516,1.11145c0.38157,0.17084,0.67715,0.44637,0.96404,0.74279
		c0.4184,0.4323,0.74676,0.92555,1.05251,1.43611c0.3421,0.57125,0.61113,1.17697,0.83736,1.8019
		c0.01676,0.04631,0.02121,0.09175,0.02008,0.13928c-0.0288,0.1173-0.0547,0.23544-0.08636,0.35188
		c-0.12044,0.44291-0.54854,0.78326-0.97854,0.78249c-0.55667-0.10544-1.01712-0.37093-1.40937-0.78001
		c-0.46293-0.4828-0.99784-0.87935-1.64348-1.08775c-0.83524-0.2696-1.68748-0.47429-2.56123-0.58661
		c-0.82701-0.10631-1.65681-0.04952-2.48532-0.05852c-0.41026-0.00446-0.71408-0.15404-0.91308-0.51839
		c-0.13017-0.23833-0.35124-0.35655-0.61775-0.40227c-0.27496-0.04717-0.55151-0.029-0.82761-0.03319
		c-0.25518-0.00387-0.5105,0.0075-0.76539-0.00597c-0.14672-0.03259-0.21629-0.16283-0.31903-0.25113
		c-0.04808-0.04132-0.09456-0.08573-0.13506-0.13421c-0.08881-0.10631-0.17491-0.10395-0.26397-0.00287
		c-0.13504,0.14021-0.23969,0.31407-0.43531,0.38742c-0.12836,0.00156-0.2594,0.03585-0.38207-0.03062
		c-0.0467-0.08228,0.01951-0.127,0.06453-0.17291c0.13961-0.14235,0.27881-0.2853,0.42692-0.41913
		c0.07953-0.10628,0.00272-0.15-0.07829-0.18965c-0.34702-0.16987-0.7179-0.26116-1.10044-0.28465
		c-0.46584-0.0286-0.93166-0.01754-1.38539,0.11931c-0.12202,0.0368-0.23898,0.08448-0.3561,0.13249
		c-0.13676,0.06697-0.27452,0.13247-0.39105,0.23305c-0.09773,0.07911-0.20723,0.14165-0.30665,0.21938
		c-0.09366,0.07324-0.16272,0.1441-0.13249,0.2729c0.00824,0.03509-0.00479,0.07271-0.03662,0.09852
		c-0.05426,0.02978-0.11196,0.02357-0.16983,0.01686c-0.05164-0.00887-0.10232,0.00166-0.15341,0.00772
		c-0.335,0.01429-0.67015,0.01311-1.00472,0.00325c-0.25695-0.00757-0.47824-0.12196-0.63764-0.31713
		c-0.52275-0.64004-0.5498-0.53138-1.17838-0.53303C8.72818,2.04424,7.00031,2.0476,5.27245,2.04696
		C4.79946,2.04679,4.50082,1.8384,4.33991,1.40081c-0.01016-0.0644-0.0363-0.12597-0.03696-0.19232
		C4.29842,1.17055,4.30087,1.13253,4.30115,1.09441c0.00397-0.0588-0.00571-0.12319,0.06403-0.15517
		c0.96847-0.00269,1.93686-0.00102,2.90524-0.00105c6.60847-0.0002,13.21694-0.00004,19.82541-0.00091
		c0.06807-0.00001,0.13822,0.01569,0.20456-0.01418c0.03614-0.00118,0.07358-0.00691,0.09945,0.02795
		c0.02201,0.03894,0.07136,0.00224,0.09591,0.03415l-0.0013-0.00091c0.06269,0.02594,0.13253,0.03071,0.19269,0.06414
		l-0.00081-0.00066C27.73576,1.07762,27.79413,1.08553,27.84516,1.11145z"/>
	<path fill="#405958" d="M0.98941,9.8294C0.98063,9.77517,0.97185,9.72093,0.96307,9.66669
		c0.02333-0.04495,0.01308-0.0934,0.01309-0.14023c0.00054-2.0597,0.00053-4.1194,0.00003-6.1791
		c-0.00001-0.04693,0.0095-0.09524-0.01206-0.14058c-0.00103-0.0105-0.002-0.021-0.00291-0.0315
		c0.05279-0.19457,0.14319-0.37051,0.28092-0.51821c0.09627-0.10323,0.19939-0.20371,0.35851-0.20151
		c0.11142,0.03518,0.19848,0.10507,0.27555,0.18977c0.11549,0.1351,0.12334,0.29745,0.12328,0.4634
		C1.99888,4.75046,1.99908,6.39219,1.99911,8.03392c0,0.1003-0.00072,0.2006,0.00021,0.30089
		c0.00542,0.58393,0.38356,0.96393,0.96976,0.96776C3.53814,9.30628,4.10723,9.30239,4.6763,9.3038
		c0.43242,0.00107,0.66962,0.18768,0.77359,0.60464c0.09841,0.3947,0.41818,0.66032,0.83279,0.6911
		c0.07431,0.00552,0.14885,0.00328,0.2233,0.00328c2.11142,0.0001,4.22283-0.00044,6.33425,0.00041
		c0.51394,0.00021,0.78317,0.27253,0.7815,0.78527c-0.0001,0.03165,0.0006,0.06333-0.00282,0.09474
		c-0.00102,0.05454,0.00173,0.10929-0.00237,0.16381c-0.00056,0.03436,0.00081,0.06885-0.00128,0.1032
		c0.00021,0.02498-0.00017,0.05003-0.00061,0.07505c0.00004,0.04135-0.00001,0.08274-0.00663,0.12381
		c-0.00523,0.02523-0.01884,0.04578-0.03664,0.06394c-3.51928,0.00045-7.03856,0.00084-10.55784,0.00186
		c-0.05931,0.00002-0.1166-0.00332-0.17001-0.03132c-0.13748-0.00324-0.22043-0.09835-0.29891-0.18834
		c-0.15789-0.18103-0.24023-0.39536-0.25283-0.63572c-0.01337-0.25502-0.05331-0.29302-0.31668-0.30893
		c-0.43574-0.02632-0.92073-0.44446-0.98822-0.85079C0.97734,9.94236,0.96647,9.88591,0.98941,9.8294z"/>
	<path fill="#293B38" d="M30.65627,7.83044c-0.04612,0.27288-0.17351,0.51805-0.28029,0.76809
		c-0.25269,0.5917-0.5534,1.16012-0.9259,1.6873c-0.35896,0.50802-0.74298,0.99362-1.26805,1.35073
		c-0.33936,0.2308-0.69488,0.39965-1.11901,0.37855c-0.10067-0.00501-0.20179-0.00103-0.30271-0.00119
		c0.18188-0.38169,0.32543-0.78039,0.82792-0.88888c0.50609-0.10928,0.86026-0.4662,1.18114-0.84556
		c0.6675-0.78917,1.12169-1.69754,1.48247-2.65623c0.02974-0.07903,0.06158-0.15723,0.09167-0.23611
		c0.01823-0.04778,0.02957-0.1049,0.098-0.11041C30.62755,7.41756,30.6848,7.60763,30.65627,7.83044z"/>
	<path fill="#2B3E3B" d="M30.43307,7.29196c-0.11633,0.28667-0.22765,0.57546-0.34997,0.85958
		c-0.3238,0.75213-0.71056,1.46794-1.24167,2.10006c-0.28395,0.33796-0.58487,0.65492-1.0033,0.83021
		c-0.15066,0.06311-0.30735,0.11235-0.4623,0.16498c-0.1837,0.06239-0.30524,0.19452-0.37479,0.36353
		c-0.06107,0.1484-0.13349,0.28486-0.24074,0.40362c-4.3963-0.00029-8.7926-0.00058-13.18892-0.00088
		c0.00078-0.02063,0.00158-0.04124,0.00238-0.06185c0.08349-0.06758,0.18319-0.04431,0.27666-0.04436
		c2.33514-0.00124,4.67029-0.00097,7.00544-0.00097c1.72875,0,3.45751-0.00101,5.18625,0.00151
		c0.17791,0.00026,0.34903-0.04067,0.51266-0.09057c0.1363-0.04156,0.21111-0.18086,0.27929-0.30651
		c0.12471-0.22986,0.29334-0.40719,0.55743-0.48037c0.37854-0.1049,0.68999-0.30445,0.97829-0.57989
		c0.62585-0.59795,1.04182-1.32579,1.40471-2.09021c0.16629-0.35029,0.31168-0.71176,0.42779-1.08317
		c0.01388-0.04438,0.02657-0.09277,0.07631-0.11528C30.37969,7.14694,30.43037,7.1915,30.43307,7.29196z"/>
	<path fill="#202020" d="M1.59837,2.47312C1.3005,2.55723,1.16313,2.79491,1.04129,3.04722
		C1.01924,3.09287,1.01789,3.151,0.96122,3.17525C0.96088,2.92432,0.96089,2.67335,0.9599,2.42238
		C0.95967,2.36452,0.95789,2.30704,0.99254,2.25624c0.0014-0.02295,0.01056-0.04265,0.02527-0.06009
		C1.11605,2.107,1.22825,2.03814,1.34505,1.97585c0.03501-0.01392,0.07081-0.02551,0.10676-0.03681
		c0.08754-0.02753,0.1799-0.03479,0.267-0.06361c0.07936-0.02705,0.08197-0.09911,0.09783-0.16351
		C1.85631,1.55079,1.90382,1.3924,1.98343,1.2453c0.03318-0.0485,0.06681-0.09676,0.10301-0.14314
		C2.13528,1.05156,2.1846,1.00129,2.2357,0.95283c0.01026-0.0094,0.02011-0.01924,0.02936-0.02967
		C2.661,0.9229,3.05694,0.92264,3.45287,0.92238C3.46364,0.93572,3.46819,0.9509,3.46662,0.96791
		C3.43434,1.05661,3.35737,1.07798,3.27623,1.08524C3.20149,1.09193,3.12917,1.10435,3.06,1.13286
		C2.99063,1.15943,2.92219,1.18802,2.86177,1.23239C2.79068,1.28726,2.71375,1.33508,2.65521,1.40492
		c-0.22409,0.16978-0.30524,0.40246-0.31366,0.6733C2.33402,2.32043,2.24142,2.40391,1.9855,2.42242
		C1.85202,2.40571,1.73138,2.48647,1.59837,2.47312z"/>
	<path fill="#202020" d="M30.43307,7.29196c-0.03078-0.05416-0.07393-0.0962-0.12743-0.12809
		c-0.03657-0.00345-0.06017-0.0287-0.08622-0.04996c-0.0256-0.02197-0.05377-0.0404-0.08241-0.05824
		c-0.02884-0.01965-0.05705-0.04014-0.08857-0.05571c-0.05416-0.02848-0.11156-0.04797-0.17084-0.0632
		c-0.13714-0.04264-0.27552-0.07242-0.42011-0.08032c-0.14839-0.00812-0.23886-0.10568-0.24188-0.24074
		c-0.0031-0.13873,0.11026-0.27384,0.24763-0.28023c0.06632-0.00308,0.13508-0.01553,0.20165,0.00515
		c0.53539-0.10809,0.88199-0.36192,0.96149-0.91864c0.00995-0.06967,0.01522-0.14958,0.09278-0.19045
		c0.09784,0.23459,0.2019,0.46757,0.19242,0.73003c0.03699,0.13667-0.05516,0.22612-0.12763,0.31629
		c-0.08534,0.10618-0.18829,0.19743-0.30614,0.26976c-0.08259,0.05068-0.07998,0.09756,0.00149,0.15065
		c0.12344,0.08045,0.2447,0.16479,0.32464,0.29333c0.02697,0.04337,0.06906,0.08213,0.04383,0.14144
		c0.0044,0.25093-0.09626,0.47344-0.1915,0.69741C30.61903,7.63577,30.58389,7.44025,30.43307,7.29196z"/>
	<path fill="#202020" d="M0.98941,9.8294c0.02831,0.49011,0.52935,0.97033,1.02233,0.97986
		c0.24177,0.00467,0.31684,0.07643,0.32165,0.30723c0.00797,0.38296,0.17597,0.67319,0.51015,0.86709
		c-0.24386,0.05253-0.48763,0.04883-0.73133-0.00112c-0.11393-0.03918-0.14645-0.14444-0.1914-0.23748
		c-0.03207-0.06637-0.05501-0.13923-0.06011-0.21174c-0.01171-0.16652-0.10223-0.23511-0.26226-0.25638
		c-0.17513-0.02328-0.33433-0.09809-0.48019-0.19798c-0.05229-0.03581-0.10629-0.07036-0.13143-0.13289
		c-0.00929-0.01619-0.00724-0.03081,0.00607-0.04387c-0.04579-0.06617-0.03584-0.14191-0.03169-0.21419
		C0.97757,10.40194,0.92207,10.11363,0.98941,9.8294z"/>
	<path fill="#405958" d="M0.9959,10.93139c0.19661,0.18124,0.42984,0.28768,0.69427,0.32174
		c0.12502,0.0161,0.18367,0.07705,0.19641,0.19987c0.02056,0.19819,0.09627,0.37569,0.2256,0.52947
		c-0.03085,0.04033-0.07578,0.03168-0.11722,0.03163c-0.33464-0.00043-0.66929-0.00161-1.00393-0.00256
		C0.97,11.65139,0.96134,11.29129,0.9959,10.93139z"/>
	<path fill="#535F69" d="M3.45275,0.95196C3.45161,0.94209,3.45164,0.93223,3.45286,0.92237
		c7.94921,0.00024,15.8984,0.00047,23.84756,0.00071c-0.07002,0.05894-0.15342,0.0288-0.22964,0.02881
		C19.57545,0.95356,12.08013,0.95344,4.5848,0.95354c-0.07978,0-0.15956,0.00144-0.23934,0.0022
		C4.30764,0.98827,4.26207,0.99996,4.21374,1.00113C4.00305,1.00626,3.79231,1.00716,3.58165,1.00051
		C3.53421,0.99901,3.48654,0.99205,3.45275,0.95196z"/>
	<path fill="#293B38" d="M30.84777,7.13304c-0.08843-0.18775-0.23885-0.31804-0.41334-0.41987
		c-0.12278-0.07165-0.10214-0.11854,0.00245-0.18559c0.21659-0.13885,0.40448-0.30472,0.4747-0.56602
		c0.11012,0.06356,0.07203,0.18292,0.08661,0.27179c0.04857,0.29589-0.03875,0.58324-0.099,0.87069
		C30.89655,7.1167,30.86556,7.1235,30.84777,7.13304z"/>
	<path fill="#535F69" d="M0.96414,3.20678c0.0483,0.04881,0.02697,0.11028,0.027,0.16584
		c0.00114,2.0429,0.00114,4.08581,0.00001,6.12871C0.99112,9.55685,1.01252,9.6185,0.96305,9.66672
		C0.96342,7.51339,0.96378,5.36009,0.96414,3.20678z"/>
	<path fill="#535F69" d="M2.26506,0.92316c0.00129,0.00891,0.00172,0.01786,0.0013,0.02685
		C2.10651,1.04443,1.93185,0.98935,1.76364,0.99936C1.64549,0.9971,1.52728,1.0079,1.40919,0.99939
		C1.38272,0.99921,1.35621,1.00143,1.3297,1.00157c-0.2923,0.00152-0.28637-0.02638-0.28993,0.29971
		C1.03672,1.58003,1.059,1.85932,1.02574,2.13773c-0.01219,0.027-0.0237,0.05498-0.06214,0.04923
		C0.96246,1.81254,0.96483,1.43805,0.95799,1.06373c-0.002-0.10959,0.03059-0.14616,0.14344-0.14428
		C1.48922,0.92593,1.87717,0.92269,2.26506,0.92316z"/>
	<path fill="#535F69" d="M0.9959,10.93139c-0.00162,0.36006-0.00324,0.72013-0.00487,1.08017
		c-0.03291-0.01952-0.03059-0.05215-0.03061-0.08323c-0.00025-0.30902-0.00032-0.61804-0.00004-0.92705
		c0.00003-0.03615-0.00434-0.07449,0.0325-0.09913C0.99381,10.91188,0.99481,10.92164,0.9959,10.93139z"/>
	<path fill="#3E4A4E" d="M27.68714,1.04841c-0.07048-0.00285-0.1376-0.01568-0.19268-0.06413
		C27.56676,0.98174,27.63619,0.98773,27.68714,1.04841z"/>
	<path fill="#384447" d="M27.84516,1.11145c-0.0626,0.00249-0.11817-0.01229-0.15883-0.06369
		C27.74864,1.04597,27.80391,1.0615,27.84516,1.11145z"/>
	<path fill="#414D57" d="M0.9636,2.18697C0.9737,2.17681,0.98379,2.16665,0.99389,2.15649
		c0.05103,0.00269,0.05307,0.02796,0.03028,0.06469C1.01362,2.23284,1.00308,2.2445,0.99253,2.2562
		C0.96405,2.2409,0.9602,2.21543,0.9636,2.18697z"/>
	<path fill="#465057" d="M27.49575,0.98519c-0.0356-0.00015-0.07506,0.00945-0.10597-0.00257
		c-0.05689-0.02214-0.00245-0.02314,0.01005-0.03155C27.43458,0.95475,27.47322,0.94771,27.49575,0.98519z"/>
	<path fill="#39544E" d="M29.66489,6.34062c-0.06636,0.01654-0.13224,0.02959-0.20171,0.03472
		c-0.13943,0.0103-0.20085,0.10872-0.20952,0.2343c-0.00875,0.12675,0.08098,0.20719,0.22207,0.20578
		c0.15683-0.00157,0.30327,0.03607,0.44549,0.09675c0.02564,0.0528,0.00771,0.10398-0.00858,0.15379
		c-0.34094,1.04258-0.80889,2.02104-1.50836,2.87699c-0.2954,0.36148-0.64306,0.65281-1.12221,0.76582
		c-0.33144,0.07818-0.574,0.30034-0.72952,0.59779c-0.09294,0.17776-0.21618,0.25039-0.41647,0.25025
		c-4.1168-0.00288-8.2336-0.00212-12.35041-0.0027c-0.07381-0.00001-0.15039,0.00732-0.21265-0.04674
		c-0.00546-0.19275,0.02563-0.38794-0.10044-0.56426c-0.13678-0.19129-0.31123-0.29203-0.54817-0.29196
		c-2.19144,0.0007-4.38289-0.00232-6.57431,0.0027c-0.44324,0.00101-0.89857-0.33497-0.95829-0.78018
		C5.34962,9.55916,5.07344,9.35251,4.74791,9.35229C4.15217,9.35187,3.55644,9.35223,2.96071,9.35215
		C2.35943,9.35206,1.95008,8.94691,1.95006,8.35163c-0.00008-1.76862-0.00102-3.53724,0.0017-5.30586
		C1.95199,2.8912,1.91622,2.75506,1.82229,2.6332c0.03033-0.09795-0.00818-0.23879,0.15903-0.25146
		c0.24844-0.01069,0.31808-0.07911,0.32021-0.3223c0.00253-0.28862,0.09611-0.5308,0.34883-0.69501
		c0.07074-0.04218,0.14848-0.05062,0.22919-0.05055C3.30817,1.31424,3.73679,1.3134,4.1654,1.31461
		c0.07383,0.00021,0.14952-0.003,0.21057,0.05103c0.10829,0.41804,0.52684,0.64031,0.88029,0.6384
		c1.857-0.01007,3.71409-0.00109,5.57111-0.00845c0.29331-0.00116,0.49408,0.13035,0.6629,0.34065
		c0.14219,0.17713,0.27683,0.35885,0.49978,0.44851c0.10472,0.04211,0.20754,0.07295,0.32275,0.07174
		c0.33517-0.00352,0.67042-0.00032,1.00564,0.00025c0.00776,0.06449-0.05934,0.08283-0.08042,0.1297
		c-0.32902,0.44992-0.52277,0.9579-0.65291,1.49332C12.57755,4.5109,12.56664,4.5402,12.5358,4.55713
		c-0.04957,0.02345-0.10365,0.02083-0.15609,0.02769c-0.42594,0.05571-0.68855,0.39295-0.63502,0.8153
		c0.02683,0.21174,0.01768,0.2243-0.1982,0.22571c-0.38785,0.00252-0.77586-0.00638-1.16353,0.00272
		c-0.568,0.01334-0.91262,0.55896-0.67624,1.06476c0.12942,0.27692,0.36293,0.41823,0.66002,0.42157
		c0.89779,0.01012,1.79576,0.00771,2.69365,0.00153c0.05226-0.00036,0.10595-0.01808,0.15542,0.01286
		c0.02577,0.15055-0.08754,0.22397-0.17785,0.30746c-0.05409,0.05001-0.12488,0.08084-0.17622,0.13515
		c-0.10576,0.11188-0.11126,0.28066,0.01325,0.3619c0.24185,0.1578,0.47346,0.33519,0.77342,0.38973
		c0.52827,0.09607,0.91009,0.51736,0.94835,1.04831c0.01116,0.1549,0.06369,0.27294,0.17318,0.37374
		c0.16632,0.01723,0.14922-0.12821,0.18446-0.21621c0.02865-0.07152,0.00609-0.15629,0.01428-0.23487
		c0.00888-0.08517,0.04868-0.1375,0.14167-0.13539c0.09459,0.00214,0.12883,0.0598,0.13251,0.14387
		c0.00459,0.10513,0.01071,0.21133-0.00016,0.3153c-0.01328,0.12697,0.03573,0.19957,0.1563,0.23096
		c0.03987,0.06211,0.07494,0.12529,0.16655,0.12586c0.15433,0.00095,0.19615,0.09979,0.19172,0.23316
		c-0.00373,0.11213-0.00992,0.22554,0.12124,0.28038c0.02452,0.08813-0.03817,0.09851-0.09845,0.10244
		c-0.07651,0.005-0.13505-0.02713-0.16007-0.10314c-0.02528-0.07678-0.02141-0.15731-0.01705-0.23572
		c0.00641-0.11542-0.05862-0.134-0.15069-0.12247c-0.14773,0.0185-0.20229,0.07813-0.20704,0.22281
		c-0.00172,0.05254,0.00322,0.10593-0.0201,0.15568c-0.14362,0.08411-0.25558,0.04514-0.24811-0.10807
		c0.01074-0.22007-0.05289-0.33912-0.27464-0.42885c-0.19816-0.08019-0.33712-0.26716-0.37314-0.49993
		c-0.01124-0.07266-0.02488-0.14494-0.03559-0.21779c-0.03491-0.2376-0.1628-0.41804-0.35698-0.55505
		c-0.09703-0.06846-0.19245-0.08975-0.27599,0.02174c-0.05077,0.0509-0.04425,0.11639-0.04442,0.17898
		c-0.00092,0.32736,0.00076,0.65474-0.001,0.98209c-0.00069,0.12724,0.03227,0.24242,0.11772,0.33609
		c0.31394,0.34413,0.61272,0.70167,0.937,1.03673c0.123,0.12709,0.26611,0.18166,0.44172,0.18004
		c0.4149-0.00384,0.82988-0.0038,1.24477,0.00001c0.1707,0.00157,0.30709-0.05632,0.42682-0.17688
		c0.26156-0.26335,0.49241-0.55374,0.74637-0.82371c0.06539-0.0695,0.12562-0.14322,0.2032-0.20014
		c0.15507-0.15097,0.23357-0.33394,0.23409-0.54968c0.00068-0.2845,0.00088-0.56901-0.00032-0.85351
		c-0.00024-0.05648,0.01877-0.13109-0.03853-0.16021c-0.06386-0.03245-0.11761,0.02336-0.16554,0.06506
		c-0.02865,0.03147-0.06599,0.05161-0.09995,0.07628c-0.21638,0.15724-0.371,0.34367-0.3854,0.63144
		c-0.01137,0.22722-0.07052,0.4489-0.30631,0.56604c-0.10399,0.03158-0.18797,0.12547-0.31072,0.09943
		c-0.02405-0.04286-0.02038-0.09198,0.01838-0.11366c0.1232-0.06889,0.11452-0.17763,0.10295-0.29023
		c0.00205-0.02504,0.01294-0.04616,0.02859-0.06525c0.1188-0.12188,0.14624-0.27977,0.16138-0.43701
		c0.01345-0.13965,0.05462-0.26809,0.11061-0.39419c0.17079-0.27648,0.42857-0.43246,0.74035-0.49268
		c0.34103-0.06587,0.60315-0.26039,0.85853-0.47257c0.17774-0.18749,0.16629-0.31454-0.04483-0.46044
		c-0.07411-0.05121-0.14466-0.106-0.20102-0.17592c-0.06595-0.08183-0.12931-0.07761-0.195-0.00183
		c-0.0348,0.05521-0.07733,0.10188-0.13961,0.12734c-0.28149,0.14157-0.56181,0.12567-0.84318-0.00229
		c-0.16884-0.07679-0.3425-0.14169-0.51802-0.20262c-0.34325-0.11915-0.56668-0.34464-0.61202-0.71549
		c-0.02365-0.19351,0.03692-0.37454,0.09842-0.55399c0.0123-0.03588,0.04136-0.0609,0.08356-0.06294
		c0.05941,0.05043,0.02118,0.10751,0.00694,0.15966c-0.03063,0.11218-0.05324,0.22413-0.05278,0.34157
		c0.00138,0.34679,0.14731,0.56424,0.46757,0.69621c0.07652,0.03153,0.14213,0.03818,0.19971-0.03072
		c0.13172-0.03372,0.23375,0.04661,0.34098,0.09459c0.23331,0.10439,0.44792,0.10697,0.64132-0.08014
		c0.21288-0.2015,0.21778-0.46333,0.20775-0.72625c-0.0037-0.09706-0.07784-0.15548-0.16-0.19937
		c-0.31417-0.12993-0.65-0.17953-0.97725-0.26034C16.92554,5.77549,16.8695,5.8022,16.8152,5.8243
		c-0.04799,0.01954-0.09644,0.04846-0.14941,0.01161c0.05784-0.1326,0.17943-0.20019,0.36378-0.16208
		c0.31631,0.06538,0.63598,0.12149,0.93972,0.23736c0.01485,0.00567,0.02924,0.01251,0.04385,0.01879
		c0.10435,0.04483,0.22822,0.09504,0.31722,0.02272c0.07331-0.05957,0.01201-0.1783,0.0026-0.27045
		c-0.00478-0.04686-0.02267-0.09222-0.01799-0.14066c0.00382-0.01941,0.01526-0.03177,0.03428-0.03739
		c0.09261,0.00568,0.1113,0.07769,0.11499,0.14499c0.00925,0.16836,0.0507,0.33419,0.03984,0.50364
		c0.00084,0.04649-0.01029,0.09346,0.02167,0.14654c0.19769-0.39103,0.3468-0.79825,0.39862-1.23798
		c-0.00257-0.03144-0.00743-0.06291,0.00391-0.09369c0.1199-0.353,0.03495-0.69641-0.05294-1.0383
		c-0.09024-0.35104-0.25256-0.66827-0.47533-0.95523c-0.01225-0.03889-0.02805-0.07773-0.00607-0.11834
		c0.4523-0.00025,0.90486-0.01002,1.3568,0.00253c0.3101,0.00861,0.61341,0.06171,0.83521,0.31616
		c0.03866,0.04434,0.07455,0.08842,0.10042,0.14122c0.1663,0.33942,0.44549,0.49168,0.82002,0.49056
		c0.55872-0.00167,1.11744,0.00033,1.67616-0.00066c0.52609-0.00093,1.04263,0.08146,1.55851,0.17141
		c0.60061,0.10473,1.18718,0.26748,1.7697,0.44104c0.5246,0.1563,0.97915,0.44501,1.39825,0.79374
		c0.22881,0.1904,0.42577,0.4124,0.64834,0.60803c0.29366,0.25812,0.64714,0.39604,1.0225,0.4866
		C29.61037,6.31381,29.64445,6.30962,29.66489,6.34062z"/>
	<path fill="#FEFEFE" d="M18.7107,7.86147c-0.24629,0.2261-0.51427,0.41752-0.85038,0.48571
		c-0.30902,0.06269-0.56656,0.19943-0.74271,0.46706c-0.11581,0.16515-0.15407,0.35595-0.17849,0.54966
		c-0.01409,0.11172-0.0353,0.21738-0.11892,0.30046c-0.00937,0.01121-0.01874,0.02242-0.02811,0.03362
		c-0.01951,0.08404-0.0826,0.11233-0.15956,0.12311c-0.09478-0.01098-0.09798-0.08324-0.10077-0.15279
		c-0.00444-0.1107-0.00239-0.22157-0.00159-0.33234c0.00059-0.08196-0.02787-0.1269-0.11924-0.13064
		c-0.09574-0.00392-0.137,0.0348-0.13879,0.12722c-0.00153,0.07914-0.00102,0.15825-0.00188,0.23737
		c-0.00306,0.28136-0.06723,0.33333-0.3487,0.28233c-0.01735-0.00865-0.03065-0.02144-0.04029-0.03809
		c-0.04374-0.15023-0.01622-0.30403-0.02078-0.45613c-0.00276-0.09215-0.02244-0.1509-0.13283-0.15242
		c-0.10598-0.00146-0.12231,0.05982-0.12536,0.14109c-0.00435,0.11598,0.00385,0.23228-0.00812,0.34804
		C15.58362,9.79676,15.54144,9.8639,15.42276,9.856c-0.18661-0.01242-0.20347-0.02511-0.20479-0.18175
		c-0.00103-0.12136-0.00044-0.24274-0.00012-0.36411c0.00019-0.06853,0.01496-0.141-0.09822-0.13457
		c-0.08987,0.00511-0.17127,0.00256-0.18403,0.12198c-0.01395,0.13051,0.0042,0.26188-0.03265,0.39272
		c-0.04121,0.14633-0.03918,0.15177-0.17638,0.06426C14.60998,9.6502,14.56461,9.5235,14.5541,9.36466
		c-0.03478-0.52544-0.44968-0.93779-0.99134-1.0257c-0.29728-0.04824-0.52881-0.23764-0.75602-0.41447
		c-0.13001-0.10118-0.10055-0.29381,0.04339-0.39792c0.14296-0.1034,0.27135-0.21693,0.37144-0.36152
		c0.01475-0.01025,0.02973-0.01059,0.04499-0.00121c0.32621,0.38781,0.7077,0.36143,1.06202,0.21075
		c0.07322-0.03114,0.14323-0.06888,0.21599-0.10071c0.17783-0.0705,0.3594-0.13302,0.52217-0.23636
		c0.01159-0.00877,0.02388-0.01653,0.0363-0.02403c0.06269-0.02968,0.09602-0.08538,0.12768-0.14269
		c0.21088-0.35636,0.14637-0.7097-0.05895-1.03003c-0.15844-0.24719-0.42408-0.3262-0.71566-0.25847
		c-0.32536,0.07558-0.65149,0.14935-0.97105,0.24778c-0.03037,0.00935-0.06052,0.02034-0.09327,0.01203
		c-0.06248-0.0432-0.05355-0.11024-0.05336-0.1713c0.00024-0.0818-0.03883-0.10983-0.117-0.11031
		c-0.07798-0.00048-0.1344,0.01501-0.14115,0.10614c-0.01467,0.19803-0.03045,0.39605-0.06941,0.5913
		c-0.00986,0.04942-0.00463,0.10873-0.0754,0.1213C12.87677,6.3421,12.8621,6.2789,12.84071,6.22024
		c-0.11323-0.31053-0.23651-0.61931-0.306-0.94206c-0.05257-0.24414-0.06292-0.49664,0.01219-0.74313
		c0.09423-0.50364,0.25635-0.98087,0.55383-1.40569c0.04162-0.05943,0.08062-0.12066,0.12083-0.18106
		c0.09636-0.03261,0.10367,0.0472,0.12067,0.10149c0.0346,0.11046,0.05607,0.22563,0.06402,0.34021
		c0.01211,0.17451,0.09802,0.27452,0.2613,0.33461c0.17208,0.06334,0.1742,0.086,0.1029,0.25731
		c-0.02451,0.0459-0.04814,0.09273-0.07535,0.13714c-0.05659,0.09237-0.07435,0.16302,0.04985,0.22501
		c0.1338,0.06678,0.15022-0.03071,0.18886-0.10749c0.05687-0.08015,0.06206-0.18533,0.12788-0.26116
		c0.03072-0.02309,0.06824-0.04247,0.10337-0.02884c0.22442,0.0871,0.47137,0.1392,0.59305,0.3856
		c0.07461,0.1511,0.1746,0.28837,0.25815,0.4344c0.06435,0.11247,0.1306,0.12397,0.22431,0.04492
		c0.02987-0.02132,0.06979-0.03812,0.03769-0.08664c-0.02657-0.03982-0.05261-0.07955-0.07514-0.12118
		c-0.07554-0.13957-0.06348-0.17634,0.08204-0.25916c0.11891-0.04302,0.23519-0.09292,0.35345-0.13784
		c0.04864-0.01847,0.10962-0.03335,0.06229-0.10807c-0.06919-0.17069-0.06931-0.17099-0.24098-0.10394
		c-0.10889,0.04253-0.21796,0.08475-0.32605,0.12917c-0.09756,0.0401-0.17918,0.02716-0.23492-0.06491
		c-0.06689-0.11049-0.16776-0.16982-0.28448-0.21691c-0.23644-0.09538-0.46389-0.21286-0.70366-0.2995
		c-0.17645-0.06376-0.27185-0.17608-0.27779-0.36114c-0.0035-0.10903-0.0682-0.21342-0.02449-0.32577
		c-0.10218-0.32974,0.18669-0.4032,0.36559-0.54826c0.02419-0.01962,0.05316-0.03343,0.07992-0.04993
		c0.22254-0.14866,0.47122-0.24058,0.72213-0.32818c0.62803-0.14647,1.25638-0.15182,1.88458-0.00303
		c0.11849,0.02807,0.23336,0.06834,0.34177,0.12448c0.05853,0.03348,0.1182,0.06452,0.18624,0.07541
		c0.06525,0.02066,0.12787,0.04813,0.18236,0.08896c0.03089,0.02315,0.07443,0.0507,0.02685,0.0984
		c-0.17799,0.1595-0.34909,0.32581-0.50734,0.50485c-0.00921,0.02383-0.0122,0.04998-0.02673,0.0718
		c-0.06115,0.06428-0.08527,0.14128-0.08512,0.22903c0.00043,0.23538-0.00053,0.47076,0.00051,0.70613
		c0.00034,0.07632,0.00394,0.15007,0.11047,0.15454c0.11656,0.0049,0.12229-0.06929,0.12134-0.15486
		c-0.00063-0.05678-0.00308-0.11689,0.05167-0.15693c0.01546-0.0067,0.03167-0.00928,0.04848-0.00806
		c0.16131,0.05494,0.30574,0.14268,0.45095,0.22932c0.08167,0.04873,0.10777,0.11167,0.06323,0.1984
		c-0.03569,0.06898-0.06932,0.13938-0.10786,0.20685c-0.04854,0.08497-0.05538,0.14777,0.04785,0.20234
		c0.10576,0.05591,0.16599,0.03132,0.20235-0.07584c0.03371-0.06571,0.06773-0.13115,0.09777-0.19852
		c0.02496-0.05598,0.05572-0.10346,0.12936-0.09109c0.06946,0.0234,0.12948,0.06581,0.19078,0.10337
		c0.09518,0.05832,0.15392,0.04011,0.18745-0.06442c0.05403-0.09814-0.00647-0.14108-0.08313-0.18457
		c-0.35929-0.20387-0.7246-0.39693-1.08529-0.59824c-0.23745-0.13253-0.24651-0.22633-0.04997-0.42077
		c0.04589-0.0454,0.09907-0.07828,0.15228-0.11246c0.13967-0.11602,0.26369-0.24757,0.38468-0.38213
		c0.07785-0.01559,0.12652,0.03384,0.17765,0.07809c0.12385,0.12603,0.25138,0.24849,0.37544,0.37439
		c0.01533,0.01562,0.0289,0.03267,0.04119,0.05066c0.02526,0.04227,0.05752,0.07952,0.08798,0.11804
		c0.0155,0.02229,0.02892,0.04596,0.04423,0.06841c0.02936,0.04446,0.05977,0.08823,0.09064,0.13177
		c0.01452,0.02327,0.02728,0.04747,0.03998,0.07177c0.03964,0.08249,0.08134,0.16391,0.12436,0.24474
		c0.01387,0.0262,0.02656,0.05288,0.03792,0.08026c0.05278,0.12023,0.0833,0.24778,0.12567,0.37151
		c0.01288,0.04702,0.02398,0.09442,0.03696,0.14147c0.0133,0.10222,0.04896,0.20132,0.04345,0.30614
		c0.01088,0.18464,0.01016,0.36921-0.00077,0.55372c-0.03602,0.45694-0.19903,0.87436-0.38932,1.2973
		c-0.08322-0.05727-0.02869-0.13393-0.06686-0.18169c-0.01521-0.19058-0.02883-0.3813-0.04679-0.57163
		c-0.00442-0.0468,0.00151-0.11401-0.08413-0.09488c-0.01717,0.02112-0.03939,0.03984-0.06581,0.03947
		C18.1431,5.55008,18.11238,5.619,18.11583,5.72308c0.00156,0.047-0.00669,0.09496-0.05464,0.12287
		c-0.32633-0.08257-0.65461-0.15837-0.97905-0.24766c-0.27901-0.0768-0.5212-0.0251-0.73882,0.15885
		c-0.03176,0.01875-0.07127,0.03132-0.08746,0.06613c-0.13689,0.2944-0.21752,0.59787-0.09877,0.91685
		c0.06781,0.18215,0.21106,0.30185,0.38802,0.37841c0.19974,0.08641,0.40021,0.17116,0.59895,0.25983
		c0.33848,0.151,0.66113,0.12293,0.9681-0.08387c0.04614-0.0278,0.07483-0.06943,0.09489-0.11791
		c0.04256-0.05166,0.07926-0.01207,0.09839,0.01702c0.08256,0.12555,0.20612,0.20402,0.31996,0.29546
		C18.75601,7.59398,18.77509,7.70109,18.7107,7.86147z"/>
	<path fill="#3A544F" d="M14.08327,3.99314c-0.03653,0.08806-0.05598,0.18388-0.11965,0.25962
		C13.8854,4.3385,13.8113,4.28999,13.74025,4.24314c-0.07888-0.052-0.0739-0.11842-0.02399-0.18847
		c0.01407-0.02202,0.02802-0.04421,0.03982-0.0677c0.12123-0.24149,0.11859-0.25355-0.13389-0.36923
		c-0.08912-0.04083-0.14957-0.09877-0.15953-0.19702c-0.01914-0.18872-0.10941-0.37167-0.04781-0.56705
		c0.06456,0.00065,0.12912,0.0013,0.19368,0.00196c0.0283,0.14445,0.06501,0.28794,0.08184,0.43369
		c0.01072,0.09281,0.05261,0.1385,0.13443,0.17221c0.28406,0.11705,0.56426,0.24346,0.84967,0.35705
		c0.11365,0.04523,0.20966,0.10019,0.25706,0.21593c0.03565,0.08704,0.08568,0.10122,0.17264,0.06107
		c0.1344-0.06206,0.27887-0.10299,0.41201-0.16729c0.1327-0.06409,0.19912-0.04411,0.20123,0.11132
		c0.00025,0.01835,0.01682,0.03649,0.02583,0.05472c0.03815,0.09595-0.04941,0.09627-0.0973,0.11745
		c-0.11779,0.05208-0.24677,0.08018-0.34878,0.16519c-0.10624,0.03633-0.13423,0.09521-0.06214,0.19119
		c0.03632,0.04835,0.06336,0.10357,0.0946,0.15568c0.01585,0.05754-0.03777,0.0576-0.06602,0.07869
		c-0.10138,0.02307-0.12428-0.07641-0.18534-0.11647c-0.1263-0.15573-0.19639-0.3449-0.308-0.50987
		C14.62589,3.96279,14.29524,3.87165,14.08327,3.99314z"/>
	<path fill="#3A544F" d="M17.30702,2.85434c-0.06458,0.06883-0.13065,0.13636-0.19337,0.20681
		c-0.08923,0.10024-0.07502,0.18739,0.04358,0.25337c0.40121,0.22318,0.80093,0.44919,1.20669,0.66394
		c0.12508,0.0662,0.1211,0.12378,0.03269,0.20876c-0.04027,0.03429-0.08531,0.01994-0.11758-0.00384
		c-0.08985-0.06621-0.18116-0.06179-0.27741-0.02235c-0.07107-0.02011-0.08014,0.03156-0.10172,0.079
		c-0.0315,0.06922-0.07324,0.13386-0.11061,0.20045c-0.10398,0.05736-0.18128-0.00344-0.24639-0.0674
		c-0.07413-0.07282-0.00333-0.14128,0.0277-0.20824c0.16801-0.28461,0.15974-0.27157-0.10459-0.43684
		c-0.12064-0.07543-0.22999-0.04285-0.3459-0.05069l-0.00204-0.00145c-0.12773-0.01462-0.07366,0.08343-0.07882,0.13538
		c-0.00633,0.06369-0.01188,0.11587-0.09159,0.11927c-0.06968,0.00297-0.1202-0.03217-0.1219-0.09713
		c-0.0086-0.32909-0.05697-0.65994,0.03212-0.98596c0.01091-0.0097,0.02182-0.0194,0.03273-0.02909
		C17.02356,2.89715,17.16879,2.83589,17.30702,2.85434z"/>
	<path fill="#4C5E5E" d="M17.0215,2.09405c-0.73807-0.2903-1.49321-0.27031-2.2554-0.12231
		c-0.11471-0.00412-0.20984,0.09942-0.33109,0.0593c0.24617-0.15778,0.52904-0.21028,0.80907-0.24863
		c0.54828-0.07509,1.09636-0.06565,1.63394,0.08852c0.16774,0.0481,0.33133,0.1074,0.48689,0.18762
		c0.17522,0.09036,0.17699,0.09837,0.03305,0.25493c-0.03102-0.10863-0.14383-0.10491-0.21701-0.15562
		C17.13109,2.12849,17.07218,2.1214,17.0215,2.09405z"/>
	<path fill="#36504B" d="M4.37597,1.36564c-0.57519-0.0004-1.15037-0.0008-1.72558-0.0012
		c0.0444-0.07742,0.12622-0.10912,0.19479-0.15701c0.07881-0.03202,0.16068-0.0478,0.24595-0.04775
		c0.35833,0.00018,0.71667-0.00009,1.075,0.00016c0.06372,0.00004,0.12732,0,0.17823,0.04733
		C4.35489,1.25999,4.36543,1.31281,4.37597,1.36564z"/>
	<path fill="#546867" d="M13.41485,2.85367c0.03049,0.18479,0.06981,0.36872,0.08797,0.5547
		c0.01002,0.10262,0.05583,0.14982,0.1465,0.17565c0.04021,0.01146,0.07687,0.03477,0.11677,0.04779
		c0.13769,0.04491,0.15211,0.12645,0.07755,0.23919c-0.04016,0.06072-0.05319,0.13747-0.1114,0.18782
		c-0.01841-0.02214-0.01644-0.04481-0.00181-0.06782c0.09164-0.14269,0.02869-0.21541-0.1159-0.24866
		c-0.16801-0.03864-0.24401-0.13893-0.24885-0.31312c-0.00348-0.12532-0.0386-0.24994-0.06166-0.37449
		c-0.0089-0.04804-0.00062-0.11263-0.08246-0.10642c0.01235-0.05131,0.07214-0.05318,0.09688-0.09157
		C13.35025,2.84544,13.38109,2.80453,13.41485,2.85367z"/>
	<path fill="#2E4441" d="M3.45275,0.95196c0.29757,0.00125,0.59513,0.00249,0.89271,0.00376
		C4.34519,1.00784,4.34493,1.05994,4.34466,1.11203c-0.04655,0.04269-0.10413,0.0469-0.16331,0.04696
		C3.85323,1.15931,3.52511,1.15958,3.19699,1.15874c-0.05834-0.00015-0.11751,0.0004-0.16211-0.04721
		c0.06408-0.05074,0.13924-0.0634,0.21837-0.06316C3.33549,1.04862,3.40721,1.02683,3.45275,0.95196z"/>
	<path fill="#334B46" d="M3.03488,1.11153c0.43659,0.00017,0.87319,0.00033,1.30978,0.0005
		c-0.0001,0.03171-0.0002,0.06342-0.00031,0.09513C3.84462,1.20724,3.34488,1.20733,2.84516,1.20742
		C2.89756,1.15431,2.96268,1.12602,3.03488,1.11153z"/>
	<path fill="#4E6060" d="M17.85022,2.57032c-0.05284-0.0327-0.10568-0.0654-0.15852-0.0981
		c0.11076-0.13339,0.20626-0.11369,0.31712,0.01105c0.11824,0.13306,0.25594,0.24907,0.38514,0.37254
		c0.01076,0.03144,0.02152,0.06287,0.03229,0.09431c-0.08579,0.01207-0.14333-0.06782-0.22539-0.06804
		C18.06721,2.79674,17.98425,2.65526,17.85022,2.57032z"/>
	<path fill="#576766" d="M14.43501,2.03104c0.11452,0.00325,0.21201-0.08707,0.33104-0.05931
		c-0.24392,0.079-0.47988,0.17766-0.71201,0.2857C14.1567,2.14165,14.29656,2.08751,14.43501,2.03104z"/>
	<path fill="#36504B" d="M13.57303,11.50739c4.18602-0.00002,8.37205-0.00116,12.55807,0.00351
		c0.19022,0.00021,0.29543-0.05593,0.38254-0.23004c0.16255-0.32492,0.43254-0.55195,0.79359-0.63043
		c0.45623-0.09916,0.76882-0.39565,1.05334-0.72385c0.382-0.44063,0.67491-0.94387,0.9343-1.46248
		c0.23571-0.47128,0.43834-0.95839,0.59248-1.46354c0.00918-0.03009,0.02249-0.05894,0.03388-0.08836
		c0.06073,0.00314,0.10705,0.04043,0.1584,0.06582c0.0232,0.05895,0.00355,0.1142-0.01499,0.16949
		c-0.32095,0.95683-0.74751,1.86183-1.35422,2.67524c-0.15756,0.21124-0.32354,0.41848-0.52414,0.59427
		c-0.23528,0.20616-0.50483,0.34818-0.8062,0.43231c-0.3147,0.08785-0.54421,0.2833-0.69429,0.56565
		c-0.11249,0.21162-0.27973,0.29883-0.51679,0.29871c-4.12773-0.00195-8.25546-0.00138-12.38319-0.00176
		c-0.07385-0.00001-0.15037,0.00821-0.2127-0.04603C13.57308,11.61306,13.57306,11.56022,13.57303,11.50739z"/>
	<path fill="#2D423F" d="M30.24114,7.1012c0.02149,0.0209,0.04298,0.0418,0.06448,0.06269
		c-0.09164,0.13089-0.10956,0.29157-0.17335,0.43502c-0.09153,0.20584-0.16776,0.41982-0.25536,0.62914
		c-0.13595,0.32486-0.28942,0.64012-0.47243,0.93922c-0.19768,0.32308-0.40218,0.64037-0.64616,0.93662
		c-0.1568,0.1904-0.3498,0.3387-0.50863,0.52522c-0.21486,0.25231-0.54149,0.36352-0.86004,0.45106
		c-0.24164,0.0664-0.38146,0.23117-0.50456,0.4289c-0.11966,0.19221-0.22308,0.35777-0.51347,0.39127
		c-0.9747,0.11244-1.94881,0.02629-2.92245,0.04627c-0.9781,0.02008-1.95693,0.0044-2.93544,0.00442
		c-2.31333,0.00005-4.62666,0.00012-6.93998,0.00019c-0.00002-0.04228-0.00006-0.08455-0.00009-0.12683
		c0.08357-0.06823,0.18341-0.04288,0.27663-0.04291c4.04705-0.00123,8.09409-0.00106,12.14114-0.00106
		c0.04255,0,0.08592-0.00543,0.1275,0.00086c0.32385,0.04906,0.52994-0.08019,0.66938-0.37688
		c0.11104-0.23626,0.32029-0.39085,0.57741-0.46602c0.29763-0.08701,0.58201-0.20326,0.81989-0.40407
		c0.23048-0.19457,0.41332-0.43377,0.59711-0.6714c0.38046-0.49194,0.67103-1.03704,0.93506-1.59428
		c0.1485-0.31342,0.27654-0.63891,0.38455-0.97033C30.12784,7.22001,30.14148,7.12969,30.24114,7.1012z"/>
	<path fill="#334B46" d="M13.5731,11.66589c4.19868-0.00004,8.39735-0.00095,12.59603,0.00227
		c0.22822,0.00018,0.37626-0.08012,0.48286-0.28514c0.14629-0.28135,0.37536-0.48467,0.69042-0.5695
		c0.36797-0.09908,0.68786-0.27952,0.94508-0.55585c0.40116-0.43097,0.72897-0.91473,1.0057-1.4331
		c0.31649-0.59286,0.57426-1.21012,0.78645-1.84659c0.03138,0.00924,0.05251,0.02989,0.06631,0.0587
		c0.04238,0.0575,0.00891,0.11263-0.00902,0.16558c-0.34056,1.00544-0.79508,1.95211-1.4519,2.79658
		c-0.34544,0.44413-0.74948,0.79698-1.31354,0.94395c-0.27398,0.07139-0.48029,0.24981-0.60364,0.50471
		c-0.12255,0.25324-0.30637,0.35048-0.59565,0.34996c-4.12226-0.0074-8.24453-0.00492-12.3668-0.00604
		c-0.0777-0.00002-0.16046,0.0221-0.23204-0.03038C13.57328,11.72933,13.57319,11.69761,13.5731,11.66589z"/>
	<path fill="#2F4642" d="M13.57337,11.76105c4.19705-0.00006,8.3941-0.00229,12.59114,0.00472
		c0.27746,0.00046,0.45272-0.09938,0.5707-0.33534c0.13771-0.27543,0.36322-0.4573,0.65732-0.53518
		c0.5247-0.13895,0.90738-0.46654,1.23007-0.87667c0.70391-0.89466,1.18674-1.90174,1.52335-2.98188
		c0.04452,0.00291,0.07669,0.02378,0.09519,0.0645c-0.14386,0.27635-0.22461,0.57763-0.34691,0.86289
		c-0.32609,0.76064-0.71649,1.48096-1.23957,2.1301c-0.22252,0.27614-0.46643,0.51748-0.77406,0.69289
		c-0.15233,0.08686-0.32125,0.13666-0.48883,0.187c-0.27996,0.08409-0.48203,0.25914-0.60723,0.51931
		c-0.1117,0.23212-0.27633,0.33637-0.55128,0.3359c-4.21986-0.0072-8.43974-0.00496-12.6596-0.00492
		C13.57356,11.80327,13.57346,11.78216,13.57337,11.76105z"/>
	<path fill="#202020" d="M3.33275,9.60595c0.23858-0.00337,0.43589,0.18863,0.43714,0.42536
		c0.00125,0.2374-0.19338,0.43086-0.43255,0.42993c-0.23193-0.00089-0.42367-0.18746-0.4291-0.41751
		C2.90264,9.80668,3.09401,9.60932,3.33275,9.60595z"/>
	<path fill="#354E49" d="M1.98132,2.38174c-0.05744,0.0339-0.11205,0.06665-0.09669,0.15019
		c0.00842,0.0458,0.00312,0.09479-0.06234,0.10127C1.74765,2.57985,1.67301,2.5265,1.59837,2.47313
		C1.71688,2.40493,1.84536,2.3779,1.98132,2.38174z"/>
	<path fill="#293B38" d="M1.02417,2.22118C1.02332,2.19535,1.01868,2.17126,0.99387,2.1565
		c-0.00057-0.35061,0.00289-0.70129-0.0041-1.05177c-0.00226-0.1133,0.02525-0.16611,0.14851-0.15297
		c0.08867,0.00946,0.17904,0.00329,0.26865,0.00409c0.00853,0.01321,0.02214,0.02745,0.01706,0.04265
		C1.32114,1.30617,1.36995,1.62428,1.35706,1.93809C1.35619,1.95915,1.34921,1.9794,1.34389,1.99978
		C1.23731,2.07358,1.13074,2.14738,1.02417,2.22118z"/>
	<path fill="#2E4441" d="M1.75795,0.95543c0.16948-0.00179,0.33897-0.00357,0.50843-0.00539
		c-0.0323,0.07203-0.09169,0.11879-0.15416,0.16267C2.05703,1.14999,1.99307,1.15119,1.92992,1.15979
		C1.82971,1.17344,1.73736,1.21851,1.70942,1.31722C1.6565,1.50424,1.64117,1.69579,1.71704,1.88346
		c0.00344,0.00732,0.00674,0.01469,0.01004,0.02207C1.6348,1.94311,1.53971,1.96789,1.43914,1.96766
		C1.29513,1.64706,1.46519,1.10712,1.75795,0.95543z"/>
	<path fill="#2A3E3A" d="M1.75795,0.95543c-0.02029,0.10225-0.14368,0.09295-0.18826,0.1771
		c-0.08971,0.16933-0.11394,0.35153-0.12908,0.5361C1.43248,1.76769,1.43915,1.86794,1.43914,1.96766
		C1.41629,2.00439,1.37879,1.9983,1.34388,1.99978C1.27816,1.91504,1.31449,1.81717,1.31355,1.72628
		c-0.0027-0.26025-0.03553-0.5255,0.09338-0.77045C1.52394,0.95571,1.64094,0.95557,1.75795,0.95543z"/>
	<path fill="#364F4A" d="M2.0157,1.2407C1.94979,1.42662,1.86878,1.60766,1.8388,1.80502
		C1.82983,1.8641,1.80543,1.91719,1.72708,1.90552c0.00001,0.00002-0.00051-0.00208-0.00051-0.00208
		c-0.08184-0.17657-0.0589-0.35891-0.01818-0.53771C1.72748,1.2819,1.79638,1.2203,1.88048,1.19181
		C1.93174,1.17444,1.99783,1.15143,2.0157,1.2407z"/>
	<path fill="#324B46" d="M2.0157,1.2407C1.8768,1.19198,1.73355,1.29834,1.72769,1.46149
		C1.7224,1.60864,1.72657,1.75612,1.72657,1.90345C1.66063,1.90865,1.6288,1.88216,1.63016,1.81282
		c0.00268-0.13693-0.0063-0.27444,0.00302-0.4108c0.01079-0.1578,0.14271-0.27779,0.30387-0.28915
		C1.99514,1.10878,2.05378,1.11253,2.1122,1.1127C2.08376,1.15813,2.06914,1.21384,2.0157,1.2407z"/>
	<path fill="#314944" d="M13.41311,5.83399c0.1222-0.09551,0.27522-0.10416,0.41697-0.14218
		c0.21966-0.05892,0.44036-0.11548,0.66305-0.16141c0.32951-0.06797,0.67155,0.10255,0.79174,0.41331
		c0.12552,0.32456,0.20683,0.65863-0.04417,0.9716c-0.0437,0.04295-0.08387,0.08954-0.1329,0.12699l0.00105-0.00073
		c-0.109,0.04966-0.2123,0.11358-0.33399,0.13183c-0.16694,0.05969-0.33908,0.03807-0.5097,0.02947
		c-0.04423-0.00223-0.09778-0.01399-0.08538-0.08266c0.05954-0.10545,0.17355-0.12917,0.27201-0.17454
		c0.18527-0.08539,0.3872-0.13994,0.53517-0.29227c0.18679-0.20261,0.20269-0.54279,0.03262-0.75046
		c-0.08037-0.09815-0.19294-0.13943-0.3125-0.11805c-0.33233,0.05943-0.66353,0.12687-0.97853,0.25319
		c-0.03282,0.02052-0.05977,0.04742-0.08415,0.07717c-0.29046,0.19629-0.19576,0.5802-0.07548,0.86672
		c0.01604,0.0382,0.05045,0.06766,0.06645,0.10745c0.02818,0.12503-0.06186,0.10696-0.13464,0.11001
		c-0.08159-0.04159-0.1659-0.06108-0.25615-0.02832L13.2322,7.17135l-0.01063-0.0063
		c-0.07594-0.04103-0.15164,0.00354-0.22766,0.00315c-0.8663-0.0045-1.73262-0.0025-2.59894-0.00301
		C9.93583,7.16491,9.58115,6.81812,9.58149,6.3715c0.00033-0.44471,0.35672-0.79022,0.8165-0.79073
		c0.40924-0.00046,0.81849-0.00106,1.22773,0.00077c0.07492,0.00033,0.11603-0.00083,0.09189-0.10137
		c-0.12328-0.51329,0.22141-0.9438,0.74957-0.94535c0.02657-0.00008,0.05315,0.00014,0.07972,0.00022
		c0.00084,0.00519,0.00286,0.0105,0.00235,0.01556c-0.06367,0.62335,0.1591,1.18663,0.37241,1.75196
		c0.00731,0.01938,0.01067,0.04024,0.01586,0.06041c0.0216,0.02421,0.03483,0.01179,0.04066-0.01152
		c0.05711-0.22828,0.11959-0.45536,0.13735-0.69162c0.00418-0.05563,0.00911-0.1151,0.09014-0.12728
		c0.12647-0.01902,0.15102,0.00392,0.16201,0.13462C13.37232,5.72249,13.31559,5.80173,13.41311,5.83399z"/>
	<path fill="#FEFEFE" d="M16.95403,9.98541c0.17263-0.10846,0.26678-0.26863,0.27274-0.46653
		c0.011-0.36528,0.18321-0.62359,0.49796-0.79821c0.16106-0.07316,0.20133-0.05507,0.20474,0.11341
		c0.00713,0.35246,0.00868,0.70519-0.00093,1.0576c-0.00403,0.14773-0.08161,0.26907-0.18098,0.37596
		c-0.28083,0.30991-0.56797,0.61448-0.84012,0.93173c-0.16369,0.19081-0.34739,0.28836-0.60742,0.27848
		c-0.40906-0.01554-0.8192-0.00758-1.2288-0.00249c-0.18425,0.00229-0.32949-0.06456-0.44916-0.19862
		c-0.29987-0.33591-0.59971-0.67186-0.90094-1.00657c-0.10793-0.11992-0.15995-0.25622-0.15805-0.41845
		c0.00403-0.3432,0.00031-0.68648,0.00206-1.02971c0.00026-0.05162-0.02931-0.12423,0.06587-0.13171
		c0.23704-0.02588,0.57858,0.33462,0.61543,0.65601c0.00904,0.0788,0.02064,0.15702,0.03724,0.2345
		c0.05593,0.26101,0.21813,0.42543,0.47025,0.50762c0.12921,0.01559,0.18252,0.08936,0.17274,0.2159
		c-0.00403,0.05215,0.00205,0.1051-0.00072,0.15744c-0.00503,0.09499,0.02527,0.15183,0.13382,0.14584
		c0.09909-0.00546,0.16227-0.04056,0.15837-0.15089c-0.00223-0.06293,0.00175-0.1261-0.00092-0.189
		c-0.00283-0.06687,0.01264-0.0985,0.09282-0.11043c0.25387-0.03778,0.28488-0.01716,0.28913,0.24065
		c0.00313,0.18953,0.03325,0.22066,0.18608,0.20697c0.08298-0.00744,0.11589-0.04537,0.09347-0.1241
		c-0.0266-0.09344-0.02571-0.18606-0.00289-0.27954c0.00739-0.01689,0.01869-0.03071,0.03348-0.04174
		c0.04813-0.02791,0.10164-0.02625,0.15449-0.02586c0.16016,0.00117,0.19507,0.03467,0.20222,0.19345
		c0.00213,0.04726,0.00327,0.09476,0.00068,0.1419c-0.00557,0.10118,0.04022,0.14147,0.14211,0.13991
		c0.10253-0.00157,0.12553-0.05686,0.1218-0.14255c-0.00183-0.04196,0.0003-0.0841,0.00017-0.12615
		c-0.00037-0.11868,0.01524-0.21049,0.17215-0.22834C16.79037,10.10194,16.88376,10.05415,16.95403,9.98541z"/>
	<path fill="#FEFEFE" d="M17.93764,7.00312c-0.18684,0.20336-0.40742,0.20805-0.64642,0.10925
		c-0.12064-0.04987-0.24218-0.09757-0.36332-0.14626c-0.23438-0.03608-0.4576-0.11186-0.53597-0.35458
		c-0.08454-0.26184-0.01706-0.50783,0.18141-0.71c0.18542-0.10032,0.37488-0.07788,0.56757-0.02285
		c0.07573,0.02163,0.15503,0.03134,0.23179,0.05089c0.11618,0.03452,0.23474,0.05993,0.35175,0.09106
		c0.24727,0.06578,0.36836,0.22598,0.36202,0.48227C18.08204,6.68208,18.04735,6.85402,17.93764,7.00312z"/>
	<path fill="#324A45" d="M16.66991,9.79526c0.04073-0.03242,0.08145-0.06485,0.12218-0.09727
		c0.04043,0.11769,0.11956,0.24316-0.07777,0.30383c-0.04565,0.01403-0.0442,0.06582-0.04525,0.10794
		c-0.08517,0.02721-0.12034,0.08064-0.11349,0.17317c0.006,0.08114,0.01329,0.16455-0.00743,0.24584
		c-0.16776,0.06082-0.22701,0.0273-0.24065-0.13712c-0.00344-0.04144-0.00163-0.08313-0.00247-0.1247
		c-0.00377-0.18834-0.07803-0.22412-0.25709-0.12392c-0.04169,0.03578-0.10244-0.00471-0.1431,0.0353l0.00134-0.00111
		c-0.05245,0.10041,0.01419,0.21454-0.03687,0.31511c-0.12456,0.02044-0.17678-0.03024-0.15779-0.15508
		c0.00467-0.03068,0.00072-0.06265,0.00069-0.09403c-0.00019-0.21127-0.00005-0.21898-0.21027-0.22287
		c-0.1306-0.00241-0.10753-0.08269-0.10834-0.15888c0.15781-0.03431,0.20658-0.10418,0.23438-0.33918
		c0.00863-0.07293,0.00233-0.14659,0.00865-0.21981c0.00753-0.08731,0.04531-0.12948,0.14151-0.12657
		c0.07931,0.0024,0.11432,0.02173,0.11079,0.10706c-0.00584,0.14125-0.00329,0.28294-0.00047,0.42437
		c0.00077,0.03872-0.02095,0.08453,0.02287,0.11581l-0.00366-0.0033c0.0774,0.04977,0.16293,0.01787,0.24442,0.02144
		c0.05578,0.00244,0.0703-0.0433,0.09031-0.09143c0.05847-0.14062,0.06421-0.28624,0.06416-0.43384
		c-0.00004-0.10781,0.05235-0.14752,0.16063-0.13997c0.06871,0.00479,0.09309,0.02675,0.09166,0.09418
		c-0.00313,0.14769,0.0001,0.29552-0.00137,0.44326C16.55665,9.7956,16.58011,9.83883,16.66991,9.79526z"/>
	<path fill="#324944" d="M16.57974,5.94075c-0.13719,0.14183-0.16903,0.32589-0.18038,0.50719
		c-0.01092,0.17446,0.07472,0.31244,0.24298,0.38827c0.09534,0.04297,0.19038,0.08659,0.28556,0.12991
		c0.05021,0.11508-0.02939,0.11015-0.10072,0.10236c-0.29477-0.03218-0.5921-0.36812-0.60621-0.66468
		c-0.00996-0.2093,0.03494-0.40604,0.09744-0.60182c-0.01933-0.02216-0.01717-0.04514-0.00266-0.0686
		c0.19512-0.1959,0.42911-0.25674,0.69639-0.19297c0.28256,0.06742,0.56459,0.13711,0.84624,0.20818
		c0.06633,0.01674,0.13253,0.03818,0.18479,0.0866c0.08958,0.00174,0.04053-0.06627,0.04654-0.10039
		c0.02468-0.14002,0.10032-0.20253,0.23906-0.18712c0.09067,0.12256,0.04407,0.27431,0.08735,0.4074
		c0.01496,0.04601-0.01799,0.06918-0.0619,0.06766c-0.09442-0.00328-0.19447,0.02628-0.28225-0.0187
		c-0.31972-0.16384-0.67832-0.19044-1.01686-0.28715c-0.1404-0.04011-0.28442-0.01129-0.38443,0.11815
		C16.68139,5.90504,16.5879,5.88673,16.57974,5.94075z"/>
	<path fill="#202020" d="M3.50166,3.48873c-0.2394,0.0016-0.43445-0.19111-0.43389-0.42867
		c0.00056-0.23709,0.19696-0.42934,0.43587-0.42668c0.23254,0.00259,0.42218,0.18995,0.42588,0.42077
		C3.93332,3.2907,3.73991,3.48714,3.50166,3.48873z"/>
	<path fill="#202020" d="M27.63312,6.24642c0.23893-0.0028,0.43541,0.18931,0.43615,0.42643
		c0.00074,0.23747-0.19432,0.4304-0.43365,0.42892c-0.23195-0.00144-0.4232-0.18842-0.42808-0.41853
		C27.2025,6.44606,27.39428,6.24922,27.63312,6.24642z"/>
	<path fill="#314944" d="M19.48088,5.30827c-0.00314,0.33675-0.28844,0.65521-0.63161,0.71061
		c-0.08586,0.01386-0.08998-0.02009-0.06897-0.08453c0.05855-0.1796,0.13435-0.35342,0.17246-0.5399
		c0.04467-0.21862,0.09945-0.43521,0.14339-0.65396c0.02684-0.13362,0.09839-0.05093,0.13061-0.02158
		C19.39931,4.87605,19.48319,5.07498,19.48088,5.30827z"/>
	<path fill="#516564" d="M14.7122,10.11652c-0.27033-0.08933-0.43457-0.27563-0.47415-0.55263
		c-0.03625-0.25365-0.07541-0.49801-0.283-0.68103c-0.09704-0.08555-0.20716-0.14313-0.32404-0.19257
		c0.12081-0.12405,0.19616-0.13552,0.34537-0.02125c0.20383,0.15611,0.34955,0.35277,0.36271,0.62077
		c0.01786,0.36373,0.25223,0.6654,0.56979,0.72603c0.08246,0.01574,0.10301,0.06056,0.10129,0.13232
		c-0.00152,0.06325,0.00542,0.12717-0.00135,0.18973c-0.0156,0.14409,0.03722,0.21228,0.18897,0.18324
		c0.03612,0.06711,0.02642,0.11069-0.06005,0.11362c-0.04224,0.00143-0.0851-0.00396-0.12669,0.00137
		c-0.09594,0.01231-0.11959-0.03512-0.11347-0.11911c0.00456-0.0626,0.00089-0.1258,0.00087-0.18873
		C14.8984,10.13933,14.89841,10.13933,14.7122,10.11652z"/>
	<path fill="#4F6362" d="M16.31574,5.73339c0.00089,0.02287,0.00178,0.04574,0.00267,0.0686
		c-0.25404,0.40428-0.20959,0.95563,0.22157,1.17992c0.30758,0.16,0.64085,0.27538,0.97052,0.388
		c0.20259,0.06921,0.40713-0.00025,0.60168-0.07541c-0.25561,0.26006-0.5638,0.26495-0.88044,0.15765
		c-0.2299-0.07791-0.44953-0.1859-0.67314-0.28185c-0.39798-0.17077-0.57339-0.49594-0.484-0.91746
		C16.11469,6.06379,16.15615,5.87016,16.31574,5.73339z"/>
	<path fill="#516463" d="M18.2028,2.85504c0.09821-0.02327,0.15474,0.04999,0.22344,0.09507
		c0.36538,0.42871,0.5122,0.94517,0.59852,1.48402c0.02745,0.17135-0.01192,0.34262-0.03456,0.51279
		c-0.00172,0.01292-0.03206,0.02209-0.0491,0.03301c-0.02315-0.13834-0.00966-0.27833-0.01915-0.41714
		c-0.04793-0.12022-0.01019-0.26193-0.09479-0.37309c-0.03356-0.03614-0.02659-0.07901-0.02052-0.12174
		c-0.03982-0.13067-0.0379-0.27616-0.13886-0.38511c-0.02277-0.01399-0.02457-0.03537-0.02098-0.05865
		c-0.03284-0.093-0.05679-0.19066-0.13766-0.25845c-0.02376-0.01066-0.0278-0.02988-0.02325-0.05282
		c-0.02145-0.05406-0.03535-0.1134-0.09829-0.13844c-0.02807-0.00738-0.03149-0.0284-0.02948-0.05244
		C18.34042,3.06288,18.30156,3.02,18.25163,2.98564c-0.00671-0.00889-0.01343-0.01778-0.02014-0.02667
		C18.2259,2.92324,18.18302,2.89766,18.2028,2.85504z"/>
	<path fill="#596C6B" d="M15.91131,9.82316c-0.08812-0.1282-0.01245-0.2733-0.04299-0.40603
		c-0.01759-0.07647,0.07781-0.21482-0.08685-0.2188C15.60328,9.19403,15.675,9.35017,15.6867,9.42011
		c0.02668,0.15954-0.07871,0.26695-0.12129,0.39697c-0.0229,0.06992-0.11219,0.03383-0.17181,0.04438
		c-0.15493,0.02153-0.20841-0.04757-0.19577-0.19761c0.01054-0.12509,0.00033-0.25179,0.00258-0.37772
		c0.00122-0.06816-0.02965-0.09229-0.09574-0.0919c-0.06618,0.00039-0.09544,0.02577-0.09576,0.0932
		c-0.00074,0.15751,0.01502,0.31173-0.08741,0.45924c-0.06805,0.09801-0.09605,0.11714-0.19493,0.00787
		c0.11782,0.07362,0.16802,0.04923,0.15806-0.09598c-0.00864-0.12593,0.00384-0.25317-0.00143-0.37948
		c-0.00762-0.18277,0.13053-0.10443,0.21308-0.11972c0.09527-0.01765,0.14997,0.01268,0.14258,0.12557
		c-0.00859,0.13128,0.0047,0.26398-0.00411,0.39523c-0.0076,0.11311,0.03484,0.14713,0.14532,0.14179
		c0.10292-0.00497,0.18897,0.00142,0.17627-0.14559C15.54457,9.5403,15.55435,9.40238,15.555,9.26528
		c0.00081-0.16843,0.13234-0.09181,0.21083-0.10657c0.08157-0.01533,0.14281-0.00015,0.13949,0.11137
		C15.89984,9.45422,15.90857,9.63878,15.91131,9.82316z"/>
	<path fill="#586B6A" d="M17.74757,10.26763c0.12095-0.15862,0.15121-0.33819,0.14518-0.53393
		c-0.00907-0.29409-0.01149-0.58906,0.00146-0.88287c0.00657-0.14921-0.04772-0.17036-0.16947-0.13017
		c0.01789-0.05922,0.07438-0.07169,0.12047-0.09372c0.1364-0.0652,0.16491-0.04716,0.16547,0.10607
		c0.00124,0.33614,0.00845,0.67254-0.00261,1.00832C18.00121,9.94929,17.91986,10.1339,17.74757,10.26763z"/>
	<path fill="#586A6A" d="M14.7122,10.11652c0.15222-0.0292,0.23115,0.01616,0.20424,0.18587
		c-0.01049,0.06616-0.00072,0.13536-0.0019,0.20315c-0.00109,0.06241,0.00556,0.12537,0.08851,0.11131
		c0.07164-0.01214,0.19697,0.06803,0.19477-0.09569c0.00073-0.05274-0.00286-0.10596,0.00331-0.15803
		c0.0083-0.07009-0.04108-0.17152,0.03506-0.20386c0.10646-0.04523,0.21669-0.10698,0.34584-0.07799
		c0.06623,0.01487,0.06571,0.05792,0.06604,0.1061c0.00057,0.08435,0.00053,0.16871,0.0007,0.25307
		c0.0001,0.05082,0.01087,0.10191,0.0689,0.10845c0.05583,0.00629,0.13285,0.04415,0.15167-0.05656
		c0.02036-0.10411-0.0349-0.21693,0.03684-0.31511c-0.00135,0.12656-0.00247,0.25311-0.0041,0.37966
		c-0.00211,0.16379-0.1282,0.08256-0.20119,0.09451c-0.07081,0.0116-0.15729,0.02053-0.14876-0.1002
		c0.00445-0.06298,0.00094-0.12653,0.00091-0.18982c-0.00012-0.20348-0.00002-0.19838-0.20079-0.19369
		c-0.09139,0.00214-0.12429,0.03314-0.11624,0.12118c0.00526,0.05754-0.00516,0.1167,0.00207,0.17381
		c0.0187,0.14768-0.03318,0.20413-0.19105,0.19595c-0.11967-0.0062-0.18217-0.02737-0.15991-0.15836
		c0.0061-0.0359-0.0023-0.07402,0.00153-0.11054C14.90314,10.25123,14.89563,10.1284,14.7122,10.11652z"/>
	<path fill="#516564" d="M17.93764,7.00312c0.05783-0.15796,0.09289-0.32168,0.11158-0.48783
		c0.02528-0.22483-0.08883-0.3854-0.30761-0.44653c-0.12583-0.03516-0.25195-0.06928-0.37794-0.10386
		c0.03907-0.04621,0.09333-0.04933,0.1436-0.03616c0.15586,0.04082,0.31847,0.04752,0.47268,0.09532
		c0.16298,0.04899,0.20226,0.17358,0.1901,0.32135C18.15041,6.5839,18.15256,6.83186,17.93764,7.00312z"/>
	<path fill="#546766" d="M18.7107,7.86147c0.03952-0.17621-0.02552-0.30229-0.18038-0.39354
		c-0.10452-0.06159-0.19721-0.14015-0.25027-0.25338c-0.01603-0.03421-0.03673-0.04781-0.07298-0.03796
		c0.089-0.08274,0.1705-0.15135,0.26011,0.00804c0.04543,0.0808,0.13405,0.12972,0.21273,0.18234
		C18.89517,7.51094,18.90518,7.68054,18.7107,7.86147z"/>
	<path fill="#506362" d="M17.97994,6.02405c-0.21085,0.03605-0.40845-0.06391-0.61626-0.05916
		c-0.12207,0.00022-0.23698-0.04053-0.35028-0.07478c-0.15657-0.04732-0.29721-0.0351-0.43366,0.05063
		c0.0005-0.0605,0.06552-0.06633,0.09095-0.10571c0.31023-0.19767,0.60022-0.00156,0.89535,0.05139
		C17.70784,5.91186,17.86078,5.9234,17.97994,6.02405z"/>
	<path fill="#516463" d="M18.46022,6.17879c0.01133,0.04489,0.02266,0.08977,0.04406,0.17455
		c0.17895-0.43395,0.33715-0.83704,0.37369-1.27725c0.02303-0.03018,0.04917-0.05237,0.09078-0.03479
		c-0.00743,0.23279-0.07627,0.45191-0.15645,0.66745c-0.07574,0.20358-0.09551,0.4294-0.24262,0.60525
		c-0.02398,0.02866-0.01196,0.096-0.07379,0.0815c-0.0545-0.01278-0.03761-0.06768-0.03976-0.10701
		C18.45414,6.25212,18.4586,6.21538,18.46022,6.17879z"/>
	<path fill="#526765" d="M16.53704,10.5171c0.00081-0.08711,0.00555-0.17441,0.00137-0.26128
		c-0.00455-0.09472,0.02988-0.14773,0.13066-0.14603c0.08931-0.05429,0.18437-0.09558,0.28496-0.12438
		c-0.06059,0.11712-0.17958,0.13948-0.29028,0.16294c-0.0746,0.01581-0.09545,0.0472-0.09277,0.11612
		c0.00348,0.08925-0.00467,0.17901-0.00005,0.26815c0.00938,0.18118-0.12676,0.10616-0.21061,0.12004
		c-0.09767,0.01616-0.1551-0.01609-0.13784-0.12681c0.0032-0.02055,0.00049-0.04201,0.00048-0.06305
		c-0.00004-0.31052-0.00004-0.31052-0.31814-0.28446c0.02502-0.05577,0.07779-0.02995,0.11847-0.03968
		c0.19698-0.07183,0.26786-0.02858,0.27712,0.16948c0.00171,0.03649-0.00182,0.07331,0.00184,0.10952
		c0.0054,0.05349-0.02372,0.12745,0.05216,0.14736C16.41797,10.58168,16.49236,10.59266,16.53704,10.5171z"/>
	<path fill="#5E716F" d="M16.82019,9.66436c0.0579-0.09077,0.0701-0.19151,0.07929-0.29684
		c0.01778-0.20392,0.0715-0.39764,0.21812-0.55328c-0.08091,0.18461-0.10054,0.38217-0.13447,0.57797
		C16.96548,9.49413,16.9338,9.60904,16.82019,9.66436z"/>
	<path fill="#909C9C" d="M18.96875,5.04132c-0.03026,0.01159-0.06052,0.02319-0.09078,0.03479
		c-0.00052-0.19138-0.00103-0.38276-0.00155-0.57413c0.04092-0.01323,0.06769,0.00786,0.09114,0.03702
		c-0.00347,0.14729,0.021,0.29624-0.02649,0.44093C18.95031,5.00039,18.95953,5.02085,18.96875,5.04132z"/>
	<path fill="#546766" d="M18.32877,5.54769c-0.14784,0.00275-0.1751,0.12309-0.21831,0.22481
		c-0.0144,0.03391,0.01791,0.10659-0.06729,0.06271c0.04026-0.02299,0.02971-0.06094,0.02963-0.09645
		c-0.00052-0.23501-0.00036-0.23501,0.25651-0.22646C18.32913,5.52409,18.32895,5.53589,18.32877,5.54769z"/>
	<path fill="#324A45" d="M15.78491,6.81351c0.16885,0.22168,0.34864,0.43612,0.50375,0.66689
		c0.18666,0.27773,0.13321,0.63096-0.10283,0.82473c-0.269,0.18157-0.64966,0.12906-0.81954-0.11285
		c-0.00645-0.07335-0.04647-0.16184,0.07899-0.17733c0.03157,0.00531,0.05951,0.02036,0.08787,0.03467
		c0.22225,0.11217,0.29384,0.09937,0.47128-0.08421c0.1686-0.18529,0.17537-0.27983,0.03437-0.48398
		c-0.02082-0.03015-0.04364-0.05881-0.06607-0.08777c-0.11686-0.15089-0.16468-0.14901-0.29593,0.01227
		c-0.07897,0.10179-0.11407,0.24462-0.2647,0.27958c-0.07048-0.0383-0.06083-0.10715-0.05844-0.1679
		c0.01138-0.29046,0.17258-0.51111,0.35104-0.72211C15.73575,6.75878,15.7592,6.80192,15.78491,6.81351z"/>
	<path fill="#536665" d="M14.08327,3.99314c0.09389-0.08121,0.18038-0.13336,0.32641-0.09588
		c0.32398,0.08317,0.45633,0.33561,0.58896,0.59283c0.03141,0.06092,0.0584,0.12185,0.10635,0.17158
		c0.04563,0.04687,0.04503,0.13633,0.13403,0.14324c0.01519,0.00001,0.02544,0.00731,0.03148,0.02087
		c-0.17955,0.13628-0.17966,0.13635-0.29285-0.04877c-0.07114-0.11635-0.1608-0.22576-0.20897-0.35087
		c-0.10685-0.27757-0.35658-0.34992-0.59521-0.44255C14.14849,3.97389,14.11358,3.98936,14.08327,3.99314z"/>
	<path fill="#506463" d="M15.39274,8.17966c0.17498,0.20362,0.40226,0.21574,0.64362,0.17074
		c0.05088-0.00949,0.0997-0.02989,0.14946-0.04526c-0.14141,0.22157-0.59167,0.26022-0.83795,0.08484
		c-0.28285-0.20142-0.37523-0.57413-0.20674-0.87253c0.02284-0.04045,0.05741-0.07438,0.08655-0.11134
		c0.03615,0.02695,0.03477,0.06664,0.02395,0.10084C15.17218,7.75796,15.26682,7.97179,15.39274,8.17966z"/>
	<path fill="#3C5651" d="M15.39274,8.17966c-0.18124-0.15836-0.24864-0.35308-0.19431-0.5887
		c0.01398-0.06064,0.01973-0.12316,0.02925-0.18484c0.14581-0.19883,0.29184-0.39748,0.43729-0.59655
		c0.04279-0.05856,0.083-0.08956,0.11994,0.00394c-0.1607,0.01847-0.2045,0.16717-0.26161,0.271
		c-0.08175,0.14862-0.14678,0.31647-0.13086,0.49788c0.00328,0.0374,0.00502,0.07301,0.04245,0.0941
		c0.02416,0.12266,0.03044,0.24689,0.03318,0.37143C15.33258,8.02966,15.41811,8.13589,15.39274,8.17966z"/>
	<path fill="#536766" d="M16.85789,2.84742c0.00117,0.30011,0.00078,0.60024,0.00481,0.90032
		c0.00081,0.06023-0.03406,0.15121,0.08129,0.15109c0.10413-0.00011,0.06961-0.08293,0.07808-0.13962
		c0.0081-0.05424-0.0221-0.15343,0.09601-0.08334c-0.11209,0.05043-0.0517,0.14989-0.04836,0.21905
		c0.00814,0.16891-0.10268,0.13003-0.19786,0.13852c-0.10806,0.00964-0.14872-0.02445-0.14511-0.13875
		c0.00826-0.26175,0.00753-0.52408,0.00033-0.78589C16.72389,2.99254,16.75309,2.9045,16.85789,2.84742z"/>
	<path fill="#526665" d="M13.24459,7.17109c0.07436-0.13025,0.15292-0.07903,0.23202-0.00531
		c0.2988,0.21014,0.61647,0.23598,0.95183,0.09756c0.04365-0.01801,0.08969-0.03677,0.13745-0.00856
		c0.01137,0.01533,0.01148,0.03075,0.00038,0.04624c-0.24848,0.13494-0.50329,0.24583-0.79756,0.2046
		C13.54244,7.47391,13.35721,7.37843,13.24459,7.17109z"/>
	<path fill="#566868" d="M16.66991,9.79526c-0.08376,0.06851-0.12613,0.04002-0.12843-0.0588
		c-0.00331-0.14227-0.00167-0.28468-0.00081-0.42702c0.00037-0.06181,0.00004-0.11443-0.08789-0.11615
		c-0.09102-0.00178-0.09872,0.04664-0.1044,0.11905c-0.01138,0.14504,0.04081,0.2928-0.08064,0.43156
		c-0.09823,0.11223-0.19349,0.15775-0.36007,0.07598c0.31546-0.00287,0.31546-0.00287,0.31551-0.32083
		c0.00001-0.0581,0.00695-0.11721-0.00141-0.1741c-0.01978-0.13461,0.0393-0.16822,0.16793-0.17138
		c0.13993-0.00344,0.20767,0.02397,0.18957,0.18053C16.5648,9.45922,16.57993,9.58743,16.575,9.71401
		C16.5721,9.78849,16.60483,9.80667,16.66991,9.79526z"/>
	<path fill="#546867" d="M17.12012,3.67732c0.03033-0.00342,0.07159,0.00666,0.08385-0.02818
		c0.03565-0.10124,0.09489-0.05403,0.14863-0.02602c0.09271,0.04834,0.17992,0.10872,0.27593,0.14873
		c0.11294,0.04706,0.14596,0.10493,0.07101,0.21045c-0.03882,0.05465-0.06874,0.11552-0.10269,0.17359
		c-0.01922-0.02158-0.019-0.04347-0.00106-0.06564c0.05261-0.08768,0.01822-0.13674-0.06687-0.18051
		C17.38963,3.83805,17.25609,3.75536,17.12012,3.67732z"/>
	<path fill="#536665" d="M13.41311,5.83399c-0.04833,0.04763-0.063,0.01385-0.0654-0.02982
		c-0.00315-0.05737-0.0012-0.11511,0.00069-0.17263c0.00206-0.06277-0.03315-0.0811-0.08915-0.08122
		c-0.05064-0.00011-0.09493,0.00219-0.10092,0.06879c-0.00885,0.09832-0.03775,0.1977-0.02928,0.29413
		c0.01595,0.18142-0.13933,0.30311-0.15066,0.47285c-0.00092,0.01379-0.03473,0.0006-0.04088-0.02312
		c0.07918-0.22628,0.07899-0.46448,0.09428-0.69843c0.00975-0.14909,0.07619-0.16494,0.20193-0.15859
		c0.13348,0.00674,0.17756,0.05621,0.15301,0.18519C13.37813,5.73631,13.35108,5.79664,13.41311,5.83399z"/>
	<path fill="#5B6E6D" d="M17.59579,4.09024c0.00035,0.02187,0.0007,0.04374,0.00106,0.06563
		c-0.0957,0.1936-0.0628,0.24225,0.19244,0.28461c-0.02494,0.05906-0.02357,0.16036-0.11041,0.14482
		c-0.08943-0.016-0.17867-0.06469-0.24762-0.1317c-0.02658-0.02584-0.00047-0.05948,0.01422-0.0868
		C17.49517,4.27438,17.54563,4.18239,17.59579,4.09024z"/>
	<path fill="#5B6E6D" d="M13.73043,3.99098c0.00061,0.02261,0.00121,0.04522,0.00181,0.06783
		c-0.04287,0.14839,0.04882,0.22524,0.23138,0.19395c-0.07368,0.17991-0.22002,0.20086-0.35392,0.05409
		c-0.0342-0.03749-0.01815-0.06704-0.00135-0.09841C13.64758,4.13519,13.68956,4.06338,13.73043,3.99098z"/>
	<path fill="#586B6A" d="M18.00162,4.16103c0.06521-0.10018,0.13784-0.12405,0.23911-0.03908
		c0.04111,0.0345,0.10329,0.04426,0.15589,0.06528c-0.02973,0.15147-0.10478,0.17192-0.22512,0.08072
		C18.1184,4.22771,18.05845,4.19639,18.00162,4.16103z"/>
	<path fill="#556B68" d="M15.29715,4.37697c0.06574-0.12948,0.21083-0.12591,0.31844-0.18473
		c0.04886-0.02671,0.11628-0.02446,0.12765-0.09792c0.07021,0.06678,0.03711,0.10194-0.03753,0.12912
		C15.56901,4.27322,15.43329,4.32565,15.29715,4.37697z"/>
	<path fill="#586B69" d="M14.56627,7.30102c-0.00118-0.01348-0.00236-0.02696-0.00354-0.04044
		c0.04482-0.09505,0.16622-0.05503,0.2249-0.12563c0.10707-0.03113,0.21414-0.06226,0.32122-0.09339
		C14.9546,7.18286,14.75384,7.22836,14.56627,7.30102z"/>
	<path fill="#526665" d="M18.2028,2.85504c0.00957,0.03463,0.01913,0.06926,0.02869,0.10391
		c-0.12709-0.12954-0.25418-0.25909-0.38128-0.38863C18.00929,2.61454,18.06812,2.78106,18.2028,2.85504z"/>
	<path fill="#526665" d="M18.96757,4.53898c-0.03038-0.01234-0.06076-0.02468-0.09114-0.03702
		c-0.01641-0.10409-0.03282-0.20818-0.04925-0.31227c0.05817,0.02035,0.08147,0.07241,0.07446,0.12147
		C18.8889,4.40032,18.94327,4.46407,18.96757,4.53898z"/>
	<path fill="#526665" d="M18.66777,3.68284c0.14104,0.09468,0.11769,0.24778,0.13887,0.38508
		C18.76034,3.93958,18.71406,3.81121,18.66777,3.68284z"/>
	<path fill="#526665" d="M18.50912,3.36574c0.10963,0.05269,0.13247,0.15093,0.13767,0.25844
		C18.6009,3.53804,18.55501,3.45189,18.50912,3.36574z"/>
	<path fill="#586B69" d="M15.10781,7.04229c0.02636-0.06083,0.06944-0.10442,0.1329-0.12699
		C15.21558,6.9774,15.17491,7.02347,15.10781,7.04229z"/>
	<path fill="#526665" d="M18.25163,2.98564c0.07149,0.01775,0.11129,0.05988,0.10646,0.13638
		C18.32261,3.07657,18.28712,3.0311,18.25163,2.98564z"/>
	<path fill="#BFC6C6" d="M17.0215,2.09405c0.06365-0.00459,0.11469,0.02188,0.15945,0.06381
		C17.11718,2.16273,17.06427,2.14086,17.0215,2.09405z"/>
	<path fill="#536665" d="M15.26349,4.78813c0.02204-0.02143,0.04408-0.04285,0.06613-0.06428
		c0.0719,0.08632-0.0166,0.08099-0.05911,0.10194c-0.00393-0.00421-0.00787-0.00842-0.01182-0.01261
		c-0.00629-0.00696-0.00767-0.01298-0.00416-0.01809C15.25771,4.79045,15.2607,4.78813,15.26349,4.78813z"/>
	<path fill="#526665" d="M18.38758,3.17448c0.08899,0.00677,0.09547,0.07128,0.09829,0.1384
		C18.45311,3.26678,18.42034,3.22063,18.38758,3.17448z"/>
	<path fill="#3D544F" d="M15.26349,4.78813c0.00044,0.00875-0.00113,0.01714-0.00476,0.0251
		c-0.12039,0.01853-0.13128-0.07228-0.15373-0.15155C15.17499,4.68263,15.1717,4.79408,15.26349,4.78813z"/>
	<path fill="#FEFEFE" d="M13.60756,7.09426c-0.1854-0.20847-0.20433-0.46527-0.19635-0.72246
		c0.0042-0.13557,0.11405-0.21816,0.22501-0.2862c0.13019-0.09853,0.29412-0.10054,0.44075-0.15219
		c0.04818-0.01632,0.09764-0.0278,0.14711-0.03953c0.08731-0.01499,0.17429-0.03221,0.26031-0.05225
		c0.14474-0.03371,0.27936-0.01919,0.40467,0.06298c0.21711,0.21995,0.26541,0.54761,0.11576,0.78342
		c-0.1278,0.1547-0.32112,0.19433-0.49106,0.27477c-0.09999,0.04733-0.20144,0.09165-0.30223,0.13732
		C14.01832,7.25668,13.78082,7.25438,13.60756,7.09426z"/>
	<path fill="#3C5650" d="M13.60756,7.09426c0.20016,0.1198,0.40185,0.08423,0.60396,0.00586
		c-0.01744,0.04427-0.00931,0.06858,0.04569,0.06574c0.17687-0.00914,0.35608,0.02217,0.53039-0.03091
		c-0.04841,0.0887-0.15243,0.07933-0.22488,0.12564c-0.21061,0.08203-0.42244,0.15707-0.65529,0.12669
		c-0.17079-0.02228-0.32901-0.06757-0.43083-0.2215C13.51743,7.13683,13.62542,7.22907,13.60756,7.09426z"/>
	<path fill="#4F6261" d="M14.2105,5.93315c-0.03237,0.02925-0.06896,0.04361-0.11303,0.03155
		c-0.13615-0.00213-0.25811,0.09026-0.39865,0.05895c0.01378-0.01565,0.02488-0.04084,0.04175-0.04553
		c0.33471-0.09306,0.66595-0.20546,1.01407-0.2363c0.1687-0.01494,0.30168,0.06899,0.35544,0.23376
		c0.10262,0.3145,0.13812,0.49329-0.10527,0.71243c0.10251-0.27335,0.04205-0.51975-0.12561-0.74843
		c-0.08063-0.09865-0.19318-0.09931-0.30365-0.08839C14.45124,5.8635,14.32562,5.87728,14.2105,5.93315z"/>
	<path fill="#506362" d="M13.69883,6.02365c0.1352-0.00395,0.25888-0.08458,0.39858-0.05895
		c-0.14881,0.05865-0.30595,0.08623-0.4612,0.1209C13.6367,6.04465,13.65957,6.02599,13.69883,6.02365z"/>
	<path fill="#506463" d="M16.53704,10.5171c0.01465,0.15487-0.10422,0.09043-0.17355,0.1014
		c-0.08215,0.01299-0.11482-0.02997-0.10871-0.1096c0.00319-0.04158,0.00045-0.0836,0.00044-0.12543
		c-0.00006-0.23195-0.00006-0.23195-0.23186-0.24478c0.04186-0.16544,0.17344-0.07742,0.26356-0.08273
		c0.08686-0.00511,0.05898,0.08165,0.06288,0.1344c0.00387,0.05244,0.00694,0.10621-0.00029,0.15794
		C16.32846,10.49904,16.38806,10.55545,16.53704,10.5171z"/>
	<path fill="#FDFDFD" d="M15.46806,8.04791c-0.06961-0.11866-0.08162-0.24238-0.03318-0.37143
		c0.07125-0.09625,0.14249-0.1925,0.21374-0.28876c0.06133-0.10161,0.12607-0.09922,0.19611-0.00791
		c0.0612,0.07979,0.12464,0.15794,0.17935,0.24241c0.07829,0.12088,0.10215,0.24276,0.00425,0.36584
		C15.84572,8.20269,15.69442,8.21885,15.46806,8.04791z"/>
	<path fill="#516464" d="M16.02833,7.98808c0.0415-0.19909-0.1007-0.5378-0.26555-0.64591
		c-0.06827-0.04477-0.07312,0.0388-0.11415,0.04556c0.09187-0.17958,0.21822-0.19566,0.33157-0.04255
		c0.04061,0.05485,0.08569,0.10674,0.12287,0.16375C16.22664,7.69836,16.20619,7.82261,16.02833,7.98808z"/>
	<path fill="#506362" d="M14.2105,5.93315c0.19623-0.1378,0.55367-0.13437,0.6687,0.00644
		c-0.15417-0.10135-0.31704-0.09168-0.48414-0.039C14.33529,5.91943,14.27573,5.94315,14.2105,5.93315z"/>
</g>
</svg>
