<?xml version="1.0" encoding="utf-8"?>
<!-- Generator: Adobe Illustrator 23.0.0, SVG Export Plug-In . SVG Version: 6.00 Build 0)  -->
<svg version="1.1" id="Слой_1" xmlns="http://www.w3.org/2000/svg" xmlns:xlink="http://www.w3.org/1999/xlink" x="0px" y="0px" width="32px" height="13px"
	 viewBox="0 0 32 13" enable-background="new 0 0 32 13" xml:space="preserve">
<g>
	<path fill="#55708A" d="M0.83034,13.03171c-0.01065,0-0.02129,0-0.03194,0c-0.0595-0.05011-0.13609-0.04332-0.20563-0.06042
		c-0.33223-0.11884-0.50359-0.36471-0.56084-0.70055c0-2.21951,0-4.43902,0-6.65854C0.0499,5.59946,0.06944,5.59627,0.09063,5.6026
		c0.0172,0.01269,0.02963,0.02894,0.03761,0.04866c0.02849,0.093,0.01857,0.18877,0.01861,0.28346
		c0.00064,1.95513,0.00069,3.91026-0.00002,5.8654c-0.00005,0.13786,0.00338,0.27518,0.03585,0.40956
		c0.08206,0.33961,0.29462,0.5534,0.63588,0.63884c0.14572,0.03649,0.29485,0.03733,0.44422,0.03732
		c5.19454-0.00046,10.38908-0.00054,15.58362,0.00064c0.10982,0.00002,0.22451-0.02318,0.32748,0.03976
		c0.02429,0.02766,0.02707,0.05561,0.00101,0.08388c-0.06351,0.01017-0.12749,0.005-0.19123,0.005
		C11.66724,13.0154,6.35081,13.0153,1.03438,13.01626C0.9665,13.01627,0.89616,12.99919,0.83034,13.03171z"/>
	<path fill="#224053" d="M27.62475,0.03171c0.32391,0.1007,0.64829,0.20032,0.93027,0.39771
		c0.096,0.08984,0.21698,0.14662,0.31498,0.23312c0.04213,0.03719,0.10726,0.09232-0.02023,0.10379
		c-0.14835-0.06273-0.26847-0.17023-0.4066-0.24957c-0.42822-0.24595-0.87995-0.37469-1.38184-0.37432
		C19.82866,0.1477,12.59601,0.14603,5.36335,0.14608c-0.11703,0-0.23434-0.00442-0.34993,0.0198
		c-0.04757,0.01095-0.0767-0.00776-0.08818-0.05444C4.92106,0.08111,4.93093,0.05498,4.9501,0.03171
		C12.50832,0.03171,20.06653,0.03171,27.62475,0.03171z"/>
	<path fill="#40586D" d="M17.18249,12.99935c-0.00084-0.02077-0.00167-0.04154-0.0025-0.06231
		c0.00674-0.00644,0.01349-0.01289,0.02016-0.01943c0.09113-0.04218,0.18839-0.02633,0.28312-0.02636
		c3.13308-0.00086,6.26616-0.00517,9.39922,0.0021c0.90315,0.0021,1.65119-0.32783,2.29379-0.9419
		c0.89022-0.85069,1.5037-1.88073,1.99278-2.99265c0.30295-0.68874,0.55186-1.39494,0.67323-2.14085
		c0.01757-0.10797-0.00973-0.22404,0.05477-0.32423C31.94362,6.46208,31.98848,6.46667,32.03194,6.5c0,0.02114,0,0.04228,0,0.06341
		c-0.0167,0.01776-0.02211,0.04059-0.02862,0.06298c-0.03206,0.40686-0.13441,0.79991-0.25629,1.18643
		c-0.37045,1.17487-0.89778,2.27444-1.62623,3.27492c-0.17402,0.239-0.36888,0.46142-0.55357,0.69235
		c-0.34118,0.35851-0.71791,0.67551-1.15465,0.91041c-0.37159,0.19987-0.76977,0.3255-1.20071,0.32536
		c-3.32451-0.00102-6.64902-0.00026-9.97353-0.00065C17.21778,13.01664,17.19917,13.01134,17.18249,12.99935z"/>
	<path fill="#3B556C" d="M4.9501,0.03171C4.94991,0.05266,4.94971,0.07362,4.94952,0.09458
		C4.86732,0.1631,4.76789,0.14435,4.67402,0.14445C3.46708,0.14573,2.26014,0.14594,1.0532,0.14458
		c-0.21933-0.00025-0.42183,0.03998-0.59344,0.187c-0.19925,0.17069-0.28221,0.38832-0.28187,0.6455
		c0.00105,0.78126,0.00046,1.56253,0.00035,2.34379C0.17815,3.99656,0.17869,4.67225,0.17768,5.34794
		c-0.00012,0.0837,0.01088,0.16962-0.03044,0.24879c-0.01285,0.01988-0.03039,0.02545-0.0525,0.0168
		C0.08448,5.613,0.07423,5.61232,0.06399,5.61149C0.03437,5.55675,0.04917,5.49755,0.04913,5.44066
		C0.04819,3.94818,0.04859,2.4557,0.04762,0.96322C0.04759,0.90643,0.06293,0.8471,0.03194,0.79268c0-0.01057,0-0.02114,0-0.03171
		C0.07173,0.49496,0.2006,0.28631,0.42689,0.13404C0.51251,0.07642,0.6086,0.05997,0.70259,0.03171
		C2.11843,0.03171,3.53426,0.03171,4.9501,0.03171z"/>
	<path fill="#264356" d="M32.03194,6.5c-0.04214,0.00037-0.08428,0.00074-0.12642,0.00111
		c-0.04101,0.02634-0.07784,0.03099-0.10399-0.01971c0.09462-0.13429,0.06847-0.28215,0.04319-0.42726
		c-0.11865-0.68087-0.34426-1.32834-0.62251-1.95966c-0.32328-0.73347-0.71694-1.42773-1.18779-2.07686
		c-0.29256-0.40333-0.61989-0.77871-1.00678-1.09874c-0.0524-0.04335-0.11105-0.08409-0.12536-0.15821
		c-0.02511-0.11019-0.13668-0.1316-0.20485-0.19757c-0.04681-0.0453-0.12972-0.05285-0.14241-0.13369
		c0.48611,0.27866,0.88586,0.6587,1.23745,1.0846c1.04995,1.27183,1.76917,2.70992,2.15898,4.30952
		c0.02662,0.10924,0.01726,0.22738,0.08048,0.32767C32.03194,6.26748,32.03194,6.38374,32.03194,6.5z"/>
	<path fill="#697682" d="M17.18249,12.99935c0.01008,0.00055,0.02016,0.001,0.03025,0.00134
		c0.01094,0.00661,0.0147,0.0134,0.01132,0.02039c-0.00343,0.00708-0.00691,0.01062-0.01048,0.01062
		c-5.46108,0-10.92216,0-16.38323,0c0.05804-0.05782,0.13147-0.03039,0.19725-0.03041
		C6.41255,12.99967,11.79752,12.99957,17.18249,12.99935z"/>
	<path fill="#535F69" d="M17.21357,13.03171c-0.00003-0.01035-0.00031-0.0207-0.00083-0.03103
		c3.27805-0.00022,6.55611-0.00246,9.83417,0.00137c0.52321,0.00061,1.00608-0.12014,1.45322-0.38806
		c0.40214-0.24095,0.76415-0.52954,1.07271-0.88241c0.01667-0.01328,0.03168-0.01163,0.04502,0.00496
		c-0.55974,0.62245-1.19939,1.11715-2.0545,1.26828c-0.01268,0.00224-0.023,0.01763-0.03442,0.02689
		C24.09048,13.03171,20.65203,13.03171,17.21357,13.03171z"/>
	<path fill="#445B6E" d="M29.61787,11.73655c-0.01501-0.00165-0.03002-0.0033-0.04502-0.00495
		c0.58505-0.67729,1.07809-1.41505,1.46806-2.21907c0.38677-0.79743,0.70511-1.61948,0.88573-2.48967
		c0.02945-0.14187,0.01913-0.29023,0.07315-0.42777c0.02255,0.01524,0.01037,0.04783,0.03214,0.06345c0,0.05285,0,0.10569,0,0.15854
		c-0.09525,0.24982-0.11543,0.51766-0.19086,0.7728c-0.42278,1.43002-1.06189,2.7498-2.00979,3.91341
		C29.76486,11.58483,29.68922,11.65897,29.61787,11.73655z"/>
	<path fill="#40596F" d="M0.03194,0.79268C0.08735,0.84483,0.0627,0.91233,0.06275,0.97263
		c0.00146,1.54629,0.0012,3.09258,0.00124,4.63887C0.05331,5.61173,0.04262,5.61196,0.03194,5.6122
		C0.03194,4.00569,0.03194,2.39919,0.03194,0.79268z"/>
	<path fill="#697682" d="M0.76647,13.03171c-0.03858-0.05978-0.12383-0.03772-0.16509-0.09281
		c0.07592,0.00948,0.16387-0.0062,0.19702,0.09281C0.78776,13.03171,0.77711,13.03171,0.76647,13.03171z"/>
	<path fill="#767F87" d="M32.03194,6.65854c-0.02835-0.01235-0.03057-0.03774-0.03214-0.06345
		c0.01071-0.01056,0.02143-0.02111,0.03214-0.03167C32.03194,6.59512,32.03194,6.62683,32.03194,6.65854z"/>
	<path fill="#44637F" d="M0.09474,5.61353C0.10581,5.61302,0.11688,5.6125,0.12795,5.61199
		C0.32877,5.60485,0.50119,5.7581,0.54784,5.98654c0.01918,0.09392,0.01422,0.18941,0.01423,0.2844
		c0.00023,1.83825,0.00013,3.6765,0.00024,5.51474c0,0.07393-0.00312,0.14806,0.0047,0.22171
		c0.02509,0.23644,0.21908,0.43184,0.45705,0.4599c0.09002,0.01062,0.18071,0.00607,0.27111,0.00607
		c5.06506,0.00015,10.13012,0.00009,15.19518,0.00034c0.10627,0,0.21324-0.00696,0.31828,0.01487
		c0.24138,0.05018,0.40576,0.24741,0.37463,0.44749c0,0-0.00323,0.00095-0.00325,0.00096
		c-5.35151-0.00019-10.703,0.00003-16.0545-0.00167c-0.29253-0.00009-0.55709-0.06509-0.77511-0.29281
		c-0.19688-0.20564-0.2518-0.44742-0.2523-0.70714C0.09416,9.89679,0.09592,7.85814,0.09586,5.8195
		C0.09586,5.75084,0.09513,5.68219,0.09474,5.61353z"/>
	<path fill="#2D4961" d="M17.18326,12.93608c-0.09491-0.31042-0.23035-0.41164-0.55227-0.41165
		c-5.16563-0.00008-10.33126-0.00299-15.49687,0.00655c-0.33511,0.00062-0.63239-0.29451-0.63-0.62167
		c0.01396-1.91191,0.00686-3.82397,0.00683-5.73597c-0.00001-0.32171-0.07918-0.43761-0.383-0.56135
		C0.12787,4.05322,0.12749,2.49445,0.12789,0.93568C0.12802,0.45729,0.49232,0.0955,0.97393,0.09526
		c1.3252-0.00066,2.6504-0.0005,3.97559-0.00068C4.95084,0.12063,4.95617,0.1447,4.98176,0.15873
		c0.04719,0.01833,0.07455,0.05842,0.10459,0.09513C5.17978,0.36804,5.3018,0.42196,5.44832,0.42599
		c0.07983,0.0022,0.15967,0.00155,0.2395,0.00155C12.71376,0.42759,19.7397,0.43236,26.76561,0.4185
		c0.55968-0.0011,1.03796,0.15822,1.51334,0.41088c0.69698,0.37043,1.19617,0.93649,1.64236,1.56491
		c0.43953,0.61902,0.72304,1.31529,1.03179,1.99939c0.20496,0.45412,0.37792,0.92059,0.4809,1.40881
		c0.05556,0.26344,0.19678,0.47334,0.37423,0.66616c0.02349,0.0372,0.06204,0.0299,0.09728,0.03246
		c0.01048,0.3999-0.0951,0.78139-0.20643,1.15815c-0.26053,0.88167-0.62964,1.71965-1.0894,2.51658
		c-0.26585,0.46082-0.56649,0.89847-0.91953,1.30075c-0.27627,0.31479-0.5646,0.61583-0.90516,0.86078
		c-0.44427,0.31953-0.9265,0.53779-1.48918,0.57494c-0.26542,0.01752-0.52966,0.02253-0.79424,0.02271
		C23.39545,12.9371,20.28935,12.9362,17.18326,12.93608z"/>
	<path fill="#123247" d="M31.80823,6.46865c-0.26317-0.11915-0.35277-0.36275-0.40742-0.60999
		c-0.16987-0.76855-0.50247-1.47404-0.82315-2.18561c-0.25042-0.55567-0.56488-1.06953-0.92468-1.56345
		c-0.57662-0.79157-1.34589-1.30055-2.25978-1.6175c-0.06257-0.0217-0.1363-0.01588-0.20483-0.01588
		C19.95571,0.47558,12.72305,0.47536,5.49039,0.47674C5.24849,0.47679,5.06826,0.39575,4.98177,0.15873
		c0.00577-0.04411,0.03166-0.06378,0.0758-0.06327c0.04789,0.00056,0.09579-0.00035,0.14369-0.00035
		c7.31249-0.00002,14.62499,0.0016,21.93748-0.00302c0.60322-0.00038,1.11297,0.22562,1.59514,0.5502
		c0.05692,0.03832,0.1123,0.07888,0.1684,0.11839c0.65299,0.51306,1.15188,1.1575,1.58514,1.85431
		c0.47801,0.76879,0.86962,1.58033,1.14848,2.4413c0.13397,0.41364,0.26271,0.83153,0.26827,1.27324
		C31.90502,6.39752,31.91915,6.47599,31.80823,6.46865z"/>
	<path fill="#3B556B" d="M27.84838,11.95374c-0.1831,0.1649-0.41955,0.15421-0.64125,0.1882
		c-0.07798,0.01195-0.15937,0.00196-0.2392,0.00196c-8.58473,0-17.16947,0-25.7542-0.00001
		c-0.29371,0-0.31949-0.02541-0.3195-0.31454c-0.00001-3.55619-0.00001-7.11238,0-10.66856
		c0-0.27252,0.03132-0.30465,0.2975-0.30465c8.6486-0.00001,17.2972-0.00048,25.9458,0.00218
		c0.27473,0.00008,0.54475,0.04854,0.77479,0.21966c-0.06156,0.04945-0.12177,0.01768-0.18023-0.00538
		c-0.21063-0.08309-0.42772-0.1104-0.65495-0.11033C18.49731,0.9648,9.91746,0.96442,1.33761,0.96433
		c-0.36483,0-0.33416-0.01915-0.33421,0.33746c-0.00024,1.654-0.00025,3.308,0.00026,4.96201
		C1.00369,6.35322,0.99419,6.44378,1.02474,6.531c0.01567,0.08902,0.01016,0.17895,0.01018,0.26854
		c0.00038,1.65205,0.00004,3.3041,0.00101,4.95614c0.00004,0.07193-0.01942,0.14939,0.03943,0.21074
		c0.10692,0.06285,0.22407,0.02467,0.33603,0.03365c0.06719,0.00539,0.13508,0.00207,0.2018,0.0163
		c0.07256,0.02301,0.14733,0.01915,0.2217,0.01915c8.46559,0.0001,16.93117-0.00005,25.39676,0.00128
		c0.15183,0.00002,0.29518-0.02823,0.43638-0.07808C27.72733,11.93777,27.78686,11.9043,27.84838,11.95374z"/>
	<path fill="#3D566C" d="M27.84838,11.95374c-0.51139,0.2076-1.04837,0.12322-1.57468,0.12352
		c-8.15884,0.00463-16.31769,0.00329-24.47654,0.00216c-0.06685-0.00001-0.1389,0.02279-0.20049-0.0253
		c0.07137-0.07482,0.16517-0.04839,0.25113-0.05272c0.09888-0.00498,0.19824,0.0016,0.29703-0.00986
		c0.24838,0.01203,0.49691,0.0108,0.74556,0.00679c3.52844-0.00284,7.05677-0.00068,10.5851-0.00175
		c0.04265-0.00001,0.08508,0.00243,0.1275,0.00574c3.32348,0.00386,6.64696,0.00087,9.97044,0.00125
		c1.03156,0.00012,2.06312,0.00431,3.09423-0.00425c0.37193,0.01635,0.74388,0.03948,1.09848-0.11857
		c0.2754-0.12276,0.51583-0.29543,0.73744-0.49439c0.59138-0.53094,1.03543-1.17339,1.41741-1.86208
		c0.29572-0.53317,0.54706-1.08575,0.74153-1.66334c0.08529-0.23122,0.1542-0.46714,0.20595-0.70807
		c0.06871-0.15995,0.08443-0.33165,0.1125-0.50062c0.03793-0.21792,0.01743-0.4315-0.04734-0.64177
		c-0.03726-0.25455-0.1231-0.496-0.20386-0.7388c-0.0737-0.29354-0.196-0.56947-0.31831-0.84462
		c-0.34288-0.77135-0.76029-1.50003-1.29315-2.15882c-0.36555-0.45193-0.77201-0.85799-1.31395-1.10729
		c-0.16159-0.07434-0.33448-0.10397-0.50084-0.15955c-0.06948-0.00858-0.13873-0.00509-0.20781-0.00509
		C19.19607,0.99624,11.29643,0.99594,3.39686,0.99648C3.07312,0.99505,2.74931,0.99601,2.4255,0.99596
		C2.3618,0.99595,2.29791,0.9944,2.23667,1.01666C2.01551,1.03577,1.79366,1.02606,1.57224,1.03138
		C1.46082,1.02881,1.34903,1.03743,1.23783,1.0306C1.11329,1.02296,1.06869,1.07717,1.06969,1.19782
		c0.0027,0.32694,0.00282,0.65393,0.0019,0.98095c-0.05265,0.09847-0.03575,0.20549-0.0369,0.30987
		C1.03273,2.66776,1.03482,2.8469,1.03365,3.02604C1.03339,3.06722,1.01722,3.11505,1.07399,3.13662
		C1.07121,4.20589,1.07497,5.27483,1.0717,6.34377c-0.00013,0.04216-0.00321,0.08427-0.01719,0.1248
		C1.04279,6.4996,1.02294,6.52251,0.98978,6.53193C0.93793,6.48491,0.959,6.42287,0.95897,6.36734
		C0.95788,4.61841,0.958,2.86948,0.95818,1.12055C0.9582,0.92012,0.95886,0.91958,1.16526,0.91958
		c8.69599-0.00009,17.39197,0.00009,26.08796-0.00119c0.18035-0.00003,0.34315,0.05987,0.50764,0.11803
		c0.04983,0.01762,0.09532,0.04764,0.15147,0.04154c0.22224,0.07114,0.39555,0.22198,0.5696,0.36399
		c0.61391,0.5009,1.05179,1.14266,1.45745,1.81158c0.38388,0.633,0.68599,1.30169,0.92051,2.00059
		c0.12512,0.37289,0.24834,0.74998,0.25764,1.14801c0.00562,0.24076-0.03858,0.47871-0.09704,0.71277
		c-0.17918,0.71742-0.46339,1.3964-0.77251,2.06581c-0.04359,0.09441-0.1088,0.17898-0.164,0.2681
		c-0.06253,0.09002-0.09501,0.19661-0.15976,0.28541l0.00001-0.00004C29.891,9.78628,29.86822,9.8446,29.82842,9.89278
		l0.00003-0.00005c-0.03328,0.05207-0.05603,0.11041-0.09584,0.15859l0.00007-0.00005
		c-0.10904,0.20265-0.2508,0.38365-0.38338,0.57072l0.00008-0.00003c-0.28939,0.38305-0.62225,0.72522-0.99322,1.03034
		c-0.09695,0.07975-0.20727,0.14281-0.31624,0.20623c-0.02121,0.01061-0.04243,0.02122-0.06364,0.03182
		c-0.03605,0.03426-0.08712,0.03865-0.12795,0.0634L27.84838,11.95374z"/>
	<path fill="#3B556B" d="M28.03992,11.85854c0.33338-0.23931,0.64191-0.50626,0.92383-0.80436
		c0.13288-0.14051,0.22969-0.31237,0.38563-0.43222c-0.03478,0.15416-0.16525,0.24139-0.25998,0.35005
		c-0.28431,0.32614-0.59226,0.62942-0.95809,0.86776C28.10713,11.85553,28.07067,11.85271,28.03992,11.85854z"/>
	<path fill="#3B556B" d="M29.3493,10.62199c0.10246-0.20702,0.24133-0.38992,0.38338-0.57072
		C29.66145,10.27897,29.51166,10.45464,29.3493,10.62199z"/>
	<path fill="#3B556B" d="M29.92423,9.73423c0.0339-0.10581,0.06701-0.21206,0.15976-0.28541
		C30.06011,9.56017,30.02039,9.66277,29.92423,9.73423z"/>
	<path fill="#3B556B" d="M29.82842,9.89278c0.01094-0.06537,0.03131-0.12512,0.09581-0.15858
		C29.93178,9.81056,29.89338,9.85958,29.82842,9.89278z"/>
	<path fill="#3B556B" d="M29.73261,10.05132c0.01094-0.06538,0.03131-0.12514,0.09584-0.15859
		C29.83595,9.96909,29.79758,10.01813,29.73261,10.05132z"/>
	<path fill="#3B556B" d="M27.84833,11.95376c0.03246-0.0414,0.07713-0.05851,0.12795-0.0634
		C27.95188,11.94779,27.9031,11.95674,27.84833,11.95376z"/>
	<path fill="#9386BA" d="M2.14356,12.01723c-0.17826,0.07129-0.36564,0.00918-0.54688,0.03686
		c-0.19143-0.00179-0.38286-0.0036-0.57428-0.00542c-0.03605-0.3442-0.00599-0.68942-0.01616-1.03371
		c0.00985-0.09297,0.06924-0.0483,0.09963-0.02618c0.20572,0.14973,0.43722,0.23208,0.68581,0.27601
		c0.05912,0.01045,0.11788,0.04167,0.12971,0.10354C1.96482,11.59546,2.06338,11.80307,2.14356,12.01723z"/>
	<path fill="#43505B" d="M1.02198,10.96987c0.00014,0.3596,0.00027,0.71921,0.00041,1.07881
		c-0.05567-0.05203-0.03105-0.11959-0.0311-0.17989c-0.00151-1.77895-0.00138-3.55791-0.00151-5.33686
		c0.00816-0.0106,0.01631-0.0212,0.02447-0.0318c0.08209,0.07555,0.05799,0.17594,0.05818,0.26753
		c0.002,0.93732,0.00161,1.87465,0.00076,2.81198c-0.00014,0.15274,0.00375,0.30525,0.01155,0.45773
		c-0.03176,0.2356-0.00215,0.47236-0.01302,0.70834C1.06818,10.82289,1.08521,10.90541,1.02198,10.96987z"/>
	<path fill="#5C5990" d="M27.36955,0.98277c0.69856,0.14396,1.1934,0.58559,1.64235,1.09926
		c0.46552,0.53263,0.83611,1.12737,1.16101,1.7499c0.21955,0.42068,0.41065,0.85605,0.56456,1.30586
		c0.01323,0.03867,0.01085,0.08261,0.01572,0.1241c-0.02237,0.10847-0.05472,0.21454-0.07719,0.32305
		c-0.11782,0.56892-0.61903,0.7786-1.06775,0.85027c-0.02108,0.00337-0.04177-0.00573-0.06137-0.01434
		c-0.03854-0.0281-0.07694-0.05509-0.1254-0.06635c-0.44701-0.10385-0.79688-0.36513-1.10924-0.68334
		c-0.30231-0.30797-0.63666-0.5749-1.00226-0.80515c-0.42534-0.26787-0.90638-0.3864-1.3826-0.51944
		c-0.80613-0.22521-1.62609-0.37336-2.461-0.43931c-0.03205-0.00253-0.06329-0.00835-0.09091-0.0263
		c-0.09069-0.13155-0.12603-0.28891-0.20338-0.42731c-0.42182-0.75486-1.0513-1.20574-1.92089-1.32499
		c-0.57895-0.07939-1.10415,0.0609-1.60254,0.33975c-0.05987,0.0335-0.12057,0.06711-0.16419,0.1227
		c-0.17752,0.12617-0.31401,0.31167-0.53988,0.36884C18.87035,2.9711,18.7959,2.96829,18.72164,2.9683
		c-1.87431,0.00028-3.74862,0.00026-5.62293,0c-0.07954-0.00001-0.15939,0.00366-0.23795-0.01109
		c-0.07716-0.01531-0.12806-0.07015-0.17979-0.12246c-0.3431-0.34698-0.75478-0.56834-1.23276-0.6728
		c-0.1047-0.02288-0.20924-0.02655-0.31515-0.02913c-0.12663-0.01967-0.2538-0.02275-0.38147-0.02272
		C8.9406,2.11055,7.1296,2.11121,5.31861,2.10995C4.8136,2.10959,4.49225,1.87128,4.338,1.39059
		C4.32937,1.33284,4.32697,1.27473,4.33109,1.21639c-0.0001-0.03887-0.00018-0.07776,0.00617-0.11641
		c0.01451-0.05963,0.02772-0.1204,0.10399-0.13213c7.59065-0.00068,15.18122-0.00013,22.77179,0.00032
		C27.26521,0.96817,27.3196,0.95512,27.36955,0.98277z"/>
	<path fill="#9386BA" d="M1.04728,10.05409C1.0081,9.89337,1.02122,9.72955,1.0207,9.56696
		C1.01744,8.54469,1.01622,7.52241,1.01429,6.50013c0.00213-1.0429,0.00488-2.0858,0.00546-3.1287
		C1.0198,3.28133,1.02684,3.19365,1.05128,3.1072C1.04221,3.0935,1.03912,3.07859,1.04176,3.06242
		c0.10961-0.24041,0.23216-0.46938,0.50967-0.55964c0.09718-0.0092,0.17535,0.03149,0.24638,0.09165
		c0.18311,0.14481,0.23267,0.33889,0.23227,0.56302C2.02696,4.89606,2.0294,6.63467,2.02739,8.37329
		C2.02698,8.72506,2.14344,9.01432,2.44368,9.21628c0.1691,0.11374,0.35941,0.15306,0.56079,0.15297
		c0.57485-0.00027,1.1497-0.00148,1.72455,0.00041c0.40162,0.00132,0.64732,0.19468,0.74526,0.58107
		c0.1132,0.44658,0.44527,0.71261,0.91045,0.71701c0.55884,0.00529,1.11775,0.00102,1.67663,0.00158
		c0.0691,0.00007,0.13845-0.00314,0.20684,0.00893c0.05638,0.0099,0.08954,0.04941,0.12364,0.0913
		c0.26647,0.32729,0.67953,0.33314,0.95577,0.01343c0.04213-0.04875,0.08213-0.09693,0.1513-0.10716
		c0.51613-0.02074,1.0322-0.00713,1.54815-0.0084c0.34569-0.00085,0.69156-0.01116,1.03684,0.00675
		c0.06169,0.00822,0.10095,0.0471,0.13896,0.09351c0.25169,0.30726,0.61007,0.33502,0.91225,0.07227
		c0.03913-0.03402,0.07099-0.07929,0.1315-0.0776c0.24555,0.09473,0.35016,0.29081,0.37823,0.53446
		c0.01376,0.11941,0.00448,0.241,0.00332,0.36155c-0.00011,0.04226,0.00094,0.0846-0.00089,0.12687
		c-0.00012,0.03306,0.00054,0.06618-0.00085,0.09925c0,0.03303-0.00065,0.06604-0.00664,0.09871
		c-0.00537,0.02512-0.01877,0.04562-0.03726,0.06313c-0.76614,0.00093-1.53229,0.00262-2.29843,0.00264
		c-2.80927,0.00007-5.61854-0.00042-8.42781-0.00069c-0.36122-0.16781-0.51956-0.46881-0.55219-0.84564
		c-0.0233-0.26912-0.05015-0.31192-0.32481-0.3165c-0.48434-0.00808-0.73989-0.35668-0.93621-0.70993
		C1.04435,10.14249,1.02896,10.0977,1.04728,10.05409z"/>
	<path fill="#635E92" d="M30.69199,7.86208c-0.06047,0.30819-0.2042,0.58632-0.32946,0.86958
		c-0.3124,0.70642-0.69429,1.37496-1.17432,1.9833c-0.3385,0.42898-0.71893,0.81962-1.19631,1.09925
		c-0.25804,0.15115-0.53909,0.24511-0.84666,0.23537c-0.13815-0.00438-0.27652-0.00164-0.41479-0.00213
		c-0.03544-0.04404-0.01071-0.0831,0.01833-0.11249c0.10283-0.10406,0.16144-0.23439,0.22567-0.3614
		c0.09329-0.18447,0.23982-0.32419,0.43526-0.37154c0.7952-0.19268,1.27915-0.76208,1.71401-1.38383
		c0.49964-0.71437,0.86968-1.49642,1.16248-2.31519c0.03122-0.08729,0.03699-0.18879,0.12213-0.25112
		C30.59426,7.32885,30.72561,7.61153,30.69199,7.86208z"/>
	<path fill="#646098" d="M30.40502,7.25668c-0.33592,1.05664-0.81742,2.04161-1.49703,2.9228
		c-0.2443,0.31676-0.52588,0.60388-0.87432,0.81833c-0.15683,0.09652-0.32941,0.14422-0.50076,0.19574
		c-0.27045,0.08131-0.47678,0.23281-0.57299,0.5007c-0.04981,0.1387-0.18202,0.21743-0.22948,0.35322
		c-4.37596-0.00038-8.75192-0.00075-13.1279-0.00114c0.00148-0.02026,0.00298-0.0405,0.00447-0.06075
		c0.07771-0.06566,0.17188-0.04581,0.26043-0.04585c2.25132-0.00098,4.50263-0.00076,6.75395-0.00076
		c1.7936,0,3.58721-0.00085,5.38081,0.00151c0.15501,0.00021,0.30722-0.01639,0.46003-0.03464
		c0.11251-0.01344,0.1973-0.07327,0.26485-0.15951c0.03915-0.04999,0.07429-0.10309,0.10239-0.16015
		c0.14217-0.28872,0.37616-0.47049,0.68345-0.55229c0.46938-0.12495,0.81546-0.42036,1.11858-0.77632
		c0.73218-0.85983,1.20484-1.85941,1.58139-2.9102c0.01952-0.05445,0.03146-0.1123,0.06558-0.16104
		C30.36372,7.13313,30.39524,7.17563,30.40502,7.25668z"/>
	<path fill="#2D4961" d="M30.40502,7.25668c-0.02278-0.04088-0.05501-0.0723-0.09617-0.09481
		c-0.03512-0.00085-0.05775-0.02573-0.08456-0.0428c-0.02267-0.01426-0.04627-0.02693-0.06913-0.04104
		c-0.05459-0.03833-0.11391-0.06673-0.17794-0.08623c-0.16609-0.0594-0.33573-0.09412-0.5126-0.10718
		c-0.14957-0.01104-0.23954-0.15251-0.20808-0.29708c0.0323-0.14845,0.14391-0.22159,0.2835-0.18578
		c0.57698-0.07539,1.03989-0.32386,1.12179-0.95014c0.00901-0.06893,0.0138-0.1491,0.09136-0.18972
		c0.09711,0.23569,0.20521,0.46853,0.19405,0.73251c0.03463,0.12814-0.04896,0.21503-0.11584,0.30244
		c-0.06272,0.08196-0.14062,0.15256-0.22117,0.21864c-0.02109,0.01569-0.04449,0.02804-0.06631,0.04277
		c-0.12605,0.08508-0.12485,0.08848-0.00303,0.18181c0.1084,0.08304,0.2213,0.16195,0.29573,0.28092
		c0.02764,0.04418,0.06648,0.0836,0.04686,0.14263c-0.00682,0.24824-0.09472,0.47457-0.19151,0.69847
		C30.64728,7.63647,30.60248,7.41092,30.40502,7.25668z"/>
	<path fill="#2D4961" d="M1.04728,10.05409c0.08971,0.23772,0.25146,0.42499,0.42731,0.60256
		c0.15463,0.15614,0.35559,0.17584,0.55856,0.18452c0.26556,0.01135,0.32006,0.06575,0.33174,0.33132
		c0.01476,0.33556,0.14246,0.6118,0.4376,0.79659c0.03144,0.01968,0.06309,0.04004,0.07379,0.07918
		c-0.24397-0.01686-0.49099,0.03712-0.73274-0.03104c-0.13404-0.15613-0.20658-0.33811-0.2298-0.54062
		c-0.0108-0.09421-0.03898-0.16912-0.15293-0.18207c-0.27964-0.03178-0.52448-0.14483-0.73883-0.32468
		c-0.00001-0.25542-0.00088-0.51084,0.0007-0.76624C1.02298,10.15324,1.00622,10.09849,1.04728,10.05409z"/>
	<path fill="#535F69" d="M27.36955,0.98277c-7.57454,0.00005-15.14907,0.0001-22.7236,0.00022
		c-0.07978,0-0.15956,0.00087-0.23934,0.00134C4.3441,1.03716,4.2679,1.02968,4.19422,1.03051
		c-0.2333,0.00262-0.46668-0.0039-0.69989,0.00651C3.45562,1.0367,3.42056,1.02594,3.39111,1.0001
		C3.37669,0.98549,3.37463,0.9692,3.38493,0.95137c7.93429-0.00007,15.86859-0.00019,23.80288,0.00086
		C27.24874,0.95224,27.31668,0.92853,27.36955,0.98277z"/>
	<path fill="#635E93" d="M1.05057,2.1887C0.99763,2.07823,1.02464,1.96064,1.0226,1.84636
		C1.01847,1.61495,1.03065,1.38292,1.018,1.15212C1.01002,1.00645,1.06384,0.9682,1.19937,0.98018
		c0.12095,0.0107,0.24355,0.00295,0.36542,0.00335c0.01527,0.0317,0.0093,0.06382-0.00794,0.0905
		c-0.18549,0.28705-0.09751,0.5985-0.08329,0.90323C1.47793,1.99253,1.48354,2.0149,1.47213,2.02198
		C1.33583,2.10647,1.22015,2.22796,1.05197,2.2559C1.03588,2.23384,1.03442,2.21145,1.05057,2.1887z"/>
	<path fill="#625E92" d="M30.88348,7.16362c-0.08578-0.17399-0.22538-0.29971-0.38231-0.40612
		c-0.16138-0.10942-0.16427-0.10893,0.00691-0.21929c0.02573-0.01658,0.05566-0.02674,0.08365-0.03987
		c0.11918-0.06076,0.24029-0.01807,0.35818,0.00048c0.09602,0.01511,0.08455,0.0903,0.06074,0.16072
		C30.99711,6.83475,30.99817,7.01358,30.88348,7.16362z"/>
	<path fill="#646097" d="M1.47054,1.99823C1.39333,1.98786,1.40565,1.92872,1.40547,1.87802
		C1.40481,1.68995,1.41246,1.5015,1.40289,1.3139c-0.00741-0.14511,0.12197-0.21398,0.1619-0.33038
		C1.7891,0.98228,2.01341,0.98103,2.23772,0.97979c0.02491-0.01371,0.04837-0.01612,0.06837,0.00862
		C2.30282,1.01744,2.28352,1.03273,2.25864,1.04329C2.13286,1.06011,2.00655,1.07364,1.88082,1.09189
		C1.71039,1.11662,1.6025,1.22079,1.57926,1.38823C1.56046,1.52366,1.5366,1.65842,1.54402,1.7966
		c0.00347,0.06466,0.01244,0.12451,0.05397,0.17643C1.56831,2.04516,1.52127,2.03098,1.47054,1.99823z"/>
	<path fill="#5B5990" d="M31.01065,6.65955c0.00989-0.09067-0.0216-0.13229-0.12275-0.13059
		c-0.0985,0.00166-0.1974-0.01946-0.29615-0.0306c0.13723-0.15496,0.30862-0.28617,0.35547-0.50396
		c0.10272,0.04733,0.05984,0.14893,0.07497,0.22328C31.05176,6.36299,31.07164,6.51394,31.01065,6.65955z"/>
	<path fill="#414F5A" d="M1.05057,2.1887C1.052,2.20852,1.05343,2.22833,1.05485,2.24815
		c0.03446,0.02971,0.04515,0.07088,0.04549,0.11231c0.00198,0.24284,0.03339,0.48761-0.04361,0.72579
		C1.0583,3.09409,1.05649,3.10108,1.0513,3.1072C1.02777,3.11156,0.99219,3.13213,0.99197,3.08836
		c-0.00143-0.28459-0.00023-0.56921,0.00215-0.8538C0.99437,2.20475,1.02285,2.19338,1.05057,2.1887z"/>
	<path fill="#424F5A" d="M2.29884,0.98325C2.27845,0.98211,2.25805,0.98098,2.23769,0.97981
		c0.04844-0.04826,0.10996-0.02726,0.16559-0.02759c0.32721-0.00194,0.65444-0.00089,0.98165-0.00085
		c0.00026,0.01033,0.00052,0.02067,0.00078,0.031C3.37371,0.9925,3.36425,1.00819,3.34788,1.01001
		C3.01087,1.04749,2.67374,1.04987,2.33666,1.01083C2.32012,1.00892,2.31081,0.99338,2.29884,0.98325z"/>
	<path fill="#726DAB" d="M29.54004,6.40177c-0.1527,0.0172-0.24931,0.10473-0.2535,0.22967
		c-0.00422,0.12604,0.08141,0.215,0.21576,0.21612c0.18336,0.00152,0.35661,0.03913,0.51783,0.12723
		c0.07237,0.04429,0.05125,0.10608,0.03297,0.16834c-0.13285,0.45226-0.29962,0.89091-0.52906,1.30454
		c-0.13083,0.23586-0.2343,0.48508-0.36581,0.7211c-0.20735,0.37212-0.46907,0.70418-0.74031,1.02965
		c-0.27909,0.33488-0.62981,0.55867-1.05618,0.67228c-0.26581,0.07083-0.47188,0.23616-0.62243,0.46658
		c-0.03186,0.04877-0.06901,0.09397-0.10058,0.14276c-0.11029,0.17048-0.26159,0.23854-0.4696,0.23835
		c-4.10619-0.00378-8.21238-0.00274-12.31857-0.00346c-0.08364-0.00001-0.17191,0.01492-0.24451-0.04639
		c-0.00042-0.07924-0.00541-0.15876-0.00044-0.23766c0.01842-0.29257-0.09716-0.51072-0.3579-0.65114
		c-0.01039-0.22742,0.0744-0.35926,0.27483-0.42738c0.23931-0.08133,0.41113-0.29584,0.42054-0.52499
		c0.00987-0.24034-0.1442-0.47265-0.37932-0.57196C13.34819,9.16435,13.0754,9.21942,12.91011,9.407
		c-0.09292,0.10545-0.19094,0.11744-0.29453,0.05051c-0.18149-0.11726-0.34977-0.08279-0.52465,0.00948
		c-0.24728,0.13047-0.51303,0.22284-0.77914,0.35639c0.22906,0.11546,0.4489,0.20598,0.66571,0.30199
		c0.11279,0.04994,0.18189,0.10875,0.14133,0.23825c-0.03773,0.12044,0.06846,0.23316,0.01638,0.3535
		c-0.89486-0.00009-1.78971-0.00018-2.68457-0.00027c-0.01943-0.16101,0.03554-0.31832,0.02019-0.48142
		c-0.00648-0.06884,0.09113-0.09538,0.15331-0.12222c0.48308-0.20851,0.96296-0.42417,1.44505-0.63488
		c0.92033-0.40226,1.83653-0.81379,2.75696-1.21587c0.22066-0.0964,0.2142-0.09649,0.3982,0.06478
		c0.17726,0.15537,0.3833,0.19838,0.60933,0.11184c0.22567-0.0864,0.35851-0.25721,0.37942-0.48766
		c0.02076-0.22876-0.06088-0.45137-0.28136-0.54345c-0.22536-0.09413-0.36331-0.22054-0.455-0.45072
		c-0.09293-0.23332-0.40639-0.33459-0.63883-0.26206c-0.292,0.09111-0.47467,0.32601-0.43521,0.60152
		c0.0229,0.15992-0.03816,0.23299-0.172,0.29044c-0.76181,0.32703-1.51907,0.66431-2.27587,1.00258
		c-0.10958,0.04898-0.2136,0.04792-0.32294-0.00071C9.87441,8.25212,9.11726,7.91442,8.35592,7.5862
		C8.22097,7.52802,8.16615,7.45256,8.18528,7.29445c0.0345-0.28513-0.19361-0.55409-0.48942-0.61389
		C7.43704,6.62824,7.13423,6.7939,7.05325,7.05782C7.00464,7.21628,6.92208,7.2995,6.76375,7.3519
		C6.49579,7.4406,6.34544,7.68358,6.36908,7.93668C6.39397,8.20311,6.5856,8.41985,6.85845,8.47201
		c0.2094,0.04003,0.39428-0.03259,0.53535-0.18263c0.09911-0.10541,0.1907-0.10899,0.3115-0.05479
		C8.2919,8.49781,8.87944,8.75898,9.46771,9.01853C9.51979,9.04151,9.58777,9.06,9.59009,9.12886
		c0.00239,0.07082-0.06605,0.09054-0.11805,0.1128c-0.16125,0.06903-0.3218,0.13981-0.48118,0.21272
		C8.86502,9.51194,8.7699,9.50704,8.66484,9.39868C8.51327,9.24236,8.31907,9.1712,8.09719,9.23021
		c-0.23652,0.0629-0.38495,0.21316-0.43944,0.45384c-0.06581,0.29065,0.11505,0.56937,0.44859,0.68522
		c0.17677,0.0614,0.22911,0.15404,0.19654,0.34785c-0.63289-0.00001-1.26601-0.01019-1.89861,0.00338
		c-0.45213,0.0097-0.92434-0.33059-0.98445-0.79024C5.37933,9.62063,5.10219,9.41764,4.78523,9.41728
		C4.18425,9.41659,3.58327,9.41733,2.98228,9.417c-0.59013-0.00032-1.0021-0.40879-1.00217-0.99397
		C1.97991,6.69636,1.97694,4.96968,1.98351,3.24303c0.00095-0.24887-0.02584-0.47202-0.22762-0.64248
		C1.74783,2.54083,1.74221,2.48147,1.78234,2.42899c0.06893-0.06273,0.15543-0.05775,0.24005-0.06261
		c0.18992-0.0109,0.25733-0.07214,0.26382-0.26248c0.0098-0.28758,0.09342-0.53724,0.33147-0.72009
		C2.66849,1.34479,2.71511,1.30178,2.7846,1.30106C3.23396,1.32776,3.68353,1.30619,4.1328,1.3138
		c0.08356,0.00141,0.17096-0.01132,0.24258,0.04957c0.14565,0.46247,0.47611,0.70267,0.95179,0.70065
		c1.79737-0.00763,3.59479-0.00315,5.3922-0.00319c0.15351,0,0.30764-0.00886,0.45827,0.03192
		c0.0436,0.02752,0.10186,0.02448,0.13972,0.06114c0.03242,0.0314,0.0996,0.05972,0.02875,0.1181
		c-0.091,0.01931-0.18074-0.0027-0.26918-0.01473C9.81616,2.0857,8.50131,2.99631,8.3178,4.37076
		C8.24553,4.91205,8.28949,5.45722,8.29253,6.00057c0.00113,0.20256,0.11412,0.35859,0.28072,0.47395
		C8.726,6.5803,8.8785,6.68736,9.03847,6.78128c0.15641,0.09182,0.22283,0.216,0.20597,0.39344
		c-0.00746,0.07844-0.00207,0.1583,0.00018,0.23753c0.0022,0.0773,0.04117,0.11581,0.11854,0.11869
		C9.38432,7.53173,9.3579,7.52955,9.37909,7.53161c0.40007,0.03882,0.40844,0.03135,0.41182-0.36709
		c0.00206-0.24279,0.02201-0.26342,0.26237-0.26544c0.09574-0.00081,0.1915,0.00008,0.28726,0.00115
		c0.11752,0.00131,0.1759,0.05678,0.17826,0.17431c0.00213,0.10564,0.0025,0.21129,0.00195,0.31688
		c-0.00053,0.10031,0.0464,0.14182,0.1461,0.14159c0.46765-0.0011,0.3955,0.03673,0.40133-0.36319
		c0.00362-0.24802,0.02385-0.26939,0.27544-0.27073c0.10105-0.00054,0.20212-0.0024,0.30317,0.00306
		c0.09653,0.00522,0.14417,0.05504,0.14838,0.15026c0.00467,0.10562,0.0061,0.21144,0.00168,0.31681
		c-0.00465,0.11094,0.03267,0.16567,0.15372,0.16468c0.46732-0.00383,0.39445,0.03471,0.39203-0.36871
		c-0.00103-0.17159,0.05306-0.2909,0.20249-0.38008c0.16392-0.09783,0.32098-0.20739,0.47847-0.31563
		c0.16908-0.11622,0.27054-0.28202,0.27242-0.47971c0.005-0.52746,0.04094-1.0561-0.02332-1.58248
		c-0.06062-0.49656-0.25916-0.93293-0.58897-1.31126c-0.04613-0.05292-0.11759-0.10189-0.06745-0.19068
		C12.6827,2.86257,12.74539,2.8806,12.807,2.91661c1.99458,0.00016,3.98915,0.00024,5.98373,0.00076
		c0.07435,0.00002,0.1487,0.00433,0.22305,0.00663c0.00756,0.08406-0.04958,0.13573-0.09822,0.19095
		c-0.39566,0.44913-0.57792,0.98137-0.59887,1.56856c-0.01412,0.39581,0.00102,0.79256-0.00397,1.18879
		c-0.0035,0.27776,0.10242,0.48977,0.34112,0.63838c0.13971,0.08697,0.2711,0.18748,0.41306,0.27052
		c0.14859,0.08693,0.22226,0.20391,0.20632,0.37755c-0.00721,0.07855-0.0001,0.15842-0.00084,0.23765
		c-0.00087,0.09287,0.04454,0.12798,0.13598,0.13579c0.39914,0.03407,0.40523,0.03035,0.40961-0.37095
		c0.0026-0.23851,0.02482-0.26089,0.26658-0.26306c0.09578-0.00086,0.19156-0.00036,0.28736,0.00148
		c0.11862,0.00228,0.17319,0.06196,0.17576,0.17777c0.00235,0.10567,0.00154,0.21134,0.00249,0.317
		c0.00081,0.09051,0.03987,0.13637,0.1342,0.13687c0.48991,0.00263,0.40362,0.03456,0.41093-0.37009
		c0.00428-0.23684,0.02774-0.26111,0.26839-0.26308c0.09578-0.00078,0.19157,0.0003,0.28736,0.00116
		c0.11993,0.00108,0.17291,0.06115,0.17445,0.17715c0.0014,0.10567,0.00183,0.21136,0.00169,0.31701
		c-0.00012,0.09075,0.03919,0.13022,0.13277,0.13871c0.39803,0.03611,0.41516,0.02814,0.41008-0.36896
		c-0.0022-0.17184,0.05494-0.29149,0.20407-0.37999c0.1597-0.09477,0.31156-0.20262,0.46556-0.30669
		c0.17494-0.11822,0.28175-0.28583,0.28321-0.49051c0.00384-0.54341,0.04005-1.08763-0.02707-1.63045
		c-0.02057-0.16638-0.10521-0.32211-0.07959-0.49535c0.05591-0.03766,0.10968-0.03188,0.16183,0.00757
		c0.57878,0.01249,1.14725,0.11139,1.71023,0.22998c0.60057,0.12651,1.19753,0.27468,1.7719,0.49675
		c0.39022,0.15087,0.73228,0.38226,1.04685,0.65132c0.27311,0.2336,0.52769,0.48851,0.79965,0.72352
		c0.20358,0.17591,0.45583,0.26347,0.71013,0.34398C29.46045,6.32715,29.55767,6.29444,29.54004,6.40177z"/>
	<path fill="#FEFEFE" d="M23.22382,3.86799c0.12442,0.35863,0.15985,0.72863,0.15252,1.10585
		c-0.00615,0.31667-0.00174,0.63355-0.00113,0.95034c0.0005,0.25772-0.10605,0.45693-0.3241,0.59829
		c-0.18237,0.11822-0.36156,0.24132-0.5453,0.35736C22.43985,6.92148,22.4125,6.97009,22.41546,7.048
		c0.00541,0.14235-0.00153,0.28514,0.00269,0.42757c0.00218,0.07354-0.02032,0.10411-0.09862,0.10161
		c-0.14874-0.00475-0.29782-0.00403-0.44663-0.00025c-0.07032,0.00178-0.09275-0.02526-0.09124-0.09259
		c0.00332-0.14776-0.00212-0.29573,0.00206-0.44344c0.00213-0.07532-0.02484-0.10243-0.10085-0.10026
		c-0.14878,0.00424-0.29787,0.00456-0.44662-0.00007c-0.07953-0.00248-0.09971,0.03135-0.09772,0.10333
		c0.00381,0.13717-0.00551,0.27493,0.00315,0.41166c0.00643,0.10147-0.03214,0.12774-0.12746,0.1221
		c-0.12188-0.00722-0.24499-0.00836-0.36669,0.00024c-0.10781,0.00761-0.15418-0.02084-0.14471-0.13714
		c0.01025-0.12589-0.00176-0.25342,0.00372-0.3799c0.00366-0.08462-0.01659-0.12607-0.11302-0.12069
		c-0.16911,0.00943-0.38389-0.05224-0.4954,0.02929c-0.10904,0.07972-0.03298,0.30536-0.03267,0.46631
		c0.00021,0.10801-0.02493,0.15124-0.14057,0.14229c-0.15801-0.01223-0.3648,0.04925-0.46285-0.02915
		c-0.10352-0.08277-0.03292-0.29655-0.03088-0.4523c0.00148-0.11332-0.03166-0.18368-0.13111-0.24314
		c-0.18185-0.10873-0.35415-0.23311-0.53204-0.3485c-0.17151-0.11125-0.28576-0.27036-0.29-0.46779
		c-0.01132-0.52724-0.03608-1.05591,0.01274-1.5822c0.0513-0.55308,0.27334-1.03533,0.65461-1.44386
		c0.02511-0.02691,0.04571-0.05797,0.06841-0.0871c0.14605-0.11607,0.29209-0.23215,0.43813-0.34823
		c0.84093-0.55431,1.71085-0.56351,2.59237-0.11473c0.52797,0.26879,0.90935,0.68587,1.1462,1.22888
		C23.21504,3.74627,23.25939,3.80007,23.22382,3.86799z"/>
	<path fill="#6C68A4" d="M23.22382,3.86799c-0.32366-0.8034-0.8861-1.35118-1.73601-1.5833
		C20.79805,2.0963,20.143,2.19168,19.52419,2.54491c-0.02259,0.01289-0.04813,0.02068-0.0723,0.03085
		c0.22874-0.2265,0.52322-0.32886,0.82152-0.41764c0.59442-0.17692,1.18309-0.12364,1.73452,0.13618
		c0.68048,0.32062,1.16193,0.83574,1.37008,1.57349C23.32662,3.86785,23.27522,3.86792,23.22382,3.86799z"/>
	<path fill="#6C68A4" d="M12.807,2.91661c-0.06802,0.00208-0.13605,0.00416-0.20407,0.00624
		c-0.07008,0.02679-0.1075-0.02627-0.14882-0.06318c-0.27501-0.2456-0.59019-0.41893-0.94403-0.5247
		c-0.05348-0.01599-0.11815-0.01767-0.14069-0.08548c-0.04457-0.07557-0.13922-0.09075-0.19175-0.15673
		c0.46986,0.01757,0.87946,0.19638,1.25211,0.46811C12.56992,2.66307,12.70282,2.7755,12.807,2.91661z"/>
	<path fill="#6E69A5" d="M4.37538,1.36337C3.92069,1.36338,3.466,1.36228,3.01131,1.36434
		C2.92079,1.36476,2.83259,1.3587,2.74624,1.33162c0.02878-0.12299,0.13398-0.141,0.23325-0.16762
		c0.41095-0.01336,0.82189-0.00337,1.23278-0.00603c0.05893-0.00038,0.11615,0.00479,0.16251,0.04707
		C4.37498,1.25781,4.37518,1.31059,4.37538,1.36337z"/>
	<path fill="#6B66A0" d="M4.37477,1.20504C3.89552,1.20486,3.41627,1.20468,2.93702,1.2045
		c0.03832-0.13243,0.15372-0.12397,0.2567-0.13868c0.31813-0.00403,0.63617-0.00961,0.95425-0.00594
		c0.07879,0.00091,0.16066-0.0079,0.22716,0.04994C4.37501,1.14155,4.37489,1.1733,4.37477,1.20504z"/>
	<path fill="#67629B" d="M4.37512,1.10981c-0.40499-0.00025-0.80997-0.0005-1.21496-0.00075
		c0.06611-0.12455,0.19511-0.05856,0.29047-0.0945C3.5812,0.95233,3.71991,0.98935,3.85465,0.98473
		c0.18377-0.0063,0.36795-0.00085,0.55195-0.00043C4.39611,1.02615,4.38562,1.06798,4.37512,1.10981z"/>
	<path fill="#FEFEFE" d="M8.30288,10.71712c-0.00031-0.00527-0.0001-0.01064-0.00101-0.0158
		c-0.03031-0.17178-0.09669-0.28164-0.29895-0.33012c-0.25606-0.06138-0.40868-0.3364-0.39974-0.60259
		C7.61152,9.52049,7.78393,9.29007,8.0245,9.20552c0.24704-0.08682,0.53086-0.01811,0.69085,0.1871
		C8.7833,9.47977,8.83712,9.48043,8.92627,9.43876c0.21464-0.10035,0.43332-0.19218,0.64898-0.28683
		c-0.01314-0.06589-0.06213-0.06939-0.09766-0.0852c-0.61051-0.27155-1.22238-0.5401-1.8318-0.81402
		C7.55326,8.21111,7.50314,8.21953,7.43694,8.30407C7.2738,8.51241,6.97915,8.57828,6.7298,8.48105
		c-0.2516-0.09811-0.41716-0.35363-0.40402-0.62352C6.33814,7.604,6.51935,7.365,6.77187,7.30039
		c0.12857-0.0329,0.19337-0.08087,0.22826-0.22084c0.07723-0.30978,0.42158-0.50696,0.71333-0.4376
		c0.35696,0.08487,0.57019,0.38494,0.50512,0.7248C8.20362,7.44486,8.21871,7.48109,8.28982,7.51224
		c0.80638,0.35321,1.6121,0.7079,2.41699,1.06442c0.07145,0.03165,0.13101,0.01929,0.19738-0.01011
		c0.79031-0.35,1.58082-0.69958,2.37282-1.04576c0.0809-0.03536,0.10833-0.06838,0.09026-0.16354
		c-0.06548-0.34488,0.16361-0.64996,0.52855-0.72196c0.29185-0.05757,0.62778,0.15972,0.69497,0.46868
		c0.0254,0.11678,0.07818,0.16028,0.18697,0.18776c0.28962,0.07317,0.47013,0.3022,0.48421,0.59368
		c0.01161,0.24048-0.16427,0.49944-0.40266,0.59287c-0.26909,0.10546-0.54111,0.03941-0.72547-0.19776
		c-0.0743-0.09559-0.13168-0.05081-0.20224-0.01971c-0.90738,0.39982-1.81469,0.7998-2.72211,1.19952
		c-0.53383,0.23516-1.06702,0.47181-1.60257,0.70306c-0.09041,0.03904-0.13787,0.07306-0.10261,0.1838
		c0.04018,0.12617-0.01657,0.24884-0.05368,0.36964c-0.26658,0.40989-0.67513,0.4122-0.95222,0.22297
		C8.41165,10.88055,8.36742,10.79169,8.30288,10.71712z"/>
	<path fill="#FEFEFE" d="M12.13521,10.71712c-0.04306-0.14145-0.0891-0.28197-0.03899-0.43252
		c0.02527-0.07591-0.04216-0.08445-0.08793-0.10483c-0.25181-0.11214-0.50409-0.22324-0.75588-0.33545
		c-0.00856-0.00381-0.01351-0.01559-0.02652-0.0314c0.36314-0.16194,0.7224-0.32575,1.08504-0.48184
		c0.11909-0.05126,0.21326,0.04368,0.30921,0.08957c0.11425,0.05463,0.18394,0.06469,0.27423-0.05512
		c0.14204-0.18849,0.4543-0.24281,0.68538-0.15283c0.23916,0.09313,0.40273,0.33255,0.40513,0.59302
		c0.00216,0.23389-0.15456,0.49494-0.39261,0.56172c-0.17989,0.05047-0.27891,0.13054-0.30342,0.31012
		c-0.00481,0.03526-0.02698,0.06818-0.04115,0.10218c-0.28471,0.31512-0.59244,0.36688-0.91511,0.1606
		C12.24316,10.88315,12.20004,10.79218,12.13521,10.71712z"/>
	<path fill="#6E69A5" d="M13.60605,11.66854c4.15459-0.00008,8.3092-0.00446,12.46375,0.00828
		c0.31715,0.00097,0.4897-0.12457,0.63352-0.36556c0.14317-0.23989,0.35188-0.40765,0.62369-0.47682
		c0.51889-0.13205,0.89396-0.4499,1.21748-0.85812c0.24893-0.31409,0.48991-0.63516,0.66322-0.99204
		c0.27456-0.5654,0.60639-1.1088,0.75245-1.72938c0.0218-0.09261,0.11878-0.17064,0.05999-0.28009
		c0.06519,0.0113,0.12225,0.03668,0.16187,0.09224c0.02315,0.17745-0.0686,0.32817-0.12569,0.48327
		c-0.27836,0.75631-0.63159,1.4775-1.08843,2.14397c-0.23596,0.34423-0.49134,0.67531-0.82722,0.93591
		c-0.18729,0.14531-0.39114,0.25682-0.61847,0.31839c-0.35442,0.09599-0.61525,0.29568-0.77957,0.62549
		c-0.09011,0.18084-0.24779,0.26999-0.45426,0.26721c-0.04787-0.00064-0.09579,0.00032-0.14369,0.00032
		c-4.08723,0.00002-8.17445,0.00016-12.26168-0.00086c-0.09362-0.00002-0.19329,0.02258-0.27656-0.04538
		C13.60631,11.75308,13.60618,11.71081,13.60605,11.66854z"/>
	<path fill="#67629B" d="M30.2431,7.10326c0.02191,0.01956,0.04382,0.03912,0.06574,0.05865
		c-0.08369,0.35513-0.2297,0.68849-0.37302,1.0217C29.6894,8.7565,29.39657,9.30601,29.035,9.81622
		c-0.27199,0.38381-0.56763,0.74762-0.96427,1.01681c-0.20912,0.14193-0.44763,0.21364-0.68238,0.29516
		c-0.22118,0.07681-0.39447,0.21791-0.48521,0.42772c-0.13675,0.31618-0.38295,0.42742-0.70502,0.42938
		c-0.04255,0.00026-0.08511,0.00007-0.12767,0.00007c-4.15449,0.00008-8.30898,0.00015-12.46345,0.00022
		c-0.00009-0.0317-0.00021-0.0634-0.00032-0.0951c0.07767-0.06556,0.17176-0.04588,0.2603-0.04592
		c2.29267-0.00096,4.58534-0.00074,6.87801-0.00075c1.76604,0,3.53209,0,5.29814-0.00001c0.07979,0,0.15958,0.0002,0.23936-0.00153
		c0.22213-0.00482,0.37974-0.1002,0.4778-0.3054c0.13696-0.28663,0.36405-0.48405,0.67375-0.56299
		c0.5465-0.1393,0.92646-0.49548,1.25817-0.91888c0.65641-0.83787,1.11041-1.78044,1.45332-2.78019
		C30.16692,7.21242,30.16837,7.13664,30.2431,7.10326z"/>
	<path fill="#6B66A0" d="M30.2431,7.10326c-0.17785,0.53002-0.37709,1.051-0.63243,1.55032
		c-0.27405,0.5359-0.57547,1.0528-0.96709,1.51502c-0.13373,0.15785-0.2739,0.3076-0.42838,0.44454
		c-0.21784,0.19312-0.47406,0.31042-0.75412,0.38809c-0.30014,0.08324-0.54029,0.2613-0.66334,0.5462
		c-0.12019,0.27828-0.34156,0.33802-0.60225,0.34155c-0.36691,0.00496-0.73394,0.00125-1.10091,0.00126
		c-3.82932,0.00008-7.65864,0.00016-11.48794,0.00024c-0.00007-0.03171-0.00016-0.06343-0.00023-0.09514
		c4.20786-0.00007,8.41571-0.00157,12.62355,0.00331c0.25195,0.00029,0.40705-0.09626,0.51577-0.31373
		c0.11963-0.23931,0.30405-0.44106,0.56468-0.50526c0.71686-0.17658,1.17373-0.6655,1.56851-1.23291
		c0.54957-0.78989,0.95619-1.6509,1.25857-2.5615c0.01325-0.0399,0.02958-0.0788,0.04449-0.11819
		C30.20238,7.07911,30.22274,7.09118,30.2431,7.10326z"/>
	<path fill="#2D4961" d="M3.45064,1.01457c-0.07328,0.1028-0.20549,0.02708-0.29046,0.0945
		C3.07315,1.11174,3.00082,1.14827,2.93703,1.2045C2.8656,1.23529,2.80164,1.27713,2.74624,1.33162
		C2.46204,1.52124,2.3214,1.78154,2.32983,2.12591c0.00495,0.20206-0.08337,0.27991-0.292,0.28314
		C1.95281,2.41037,1.86955,2.41569,1.78878,2.44337C1.71908,2.517,1.61755,2.50382,1.53263,2.53595
		c-0.24652,0.10844-0.3503,0.3386-0.4759,0.55022C1.0561,2.8069,1.05547,2.52755,1.05485,2.24818
		c0.13856-0.08334,0.27711-0.16665,0.41568-0.24995c0.04431-0.00357,0.09304,0.01068,0.12782-0.03125
		c0.00498-0.00549,0.00996-0.01099,0.01488-0.01657c0.04519-0.02648,0.10093-0.02112,0.14578-0.04832
		C1.82195,1.86785,1.8319,1.80594,1.84711,1.74456c0.04382-0.17679,0.09105-0.35271,0.19327-0.50778
		c0.0345-0.0469,0.06573-0.09642,0.10731-0.13794c0.03329-0.03941,0.08064-0.05812,0.12407-0.08266
		C2.28079,1.0052,2.28982,0.99422,2.29885,0.98324c0.36228-0.00028,0.72457-0.00057,1.08686-0.00086
		C3.41221,0.98345,3.43641,0.9891,3.45064,1.01457z"/>
	<path fill="#2D4961" d="M3.11198,10.62164C2.87264,10.62071,2.6778,10.422,2.6831,10.18424
		c0.00515-0.231,0.19964-0.41902,0.43246-0.41807c0.23932,0.00097,0.43421,0.19976,0.4289,0.43747
		C3.5393,10.4346,3.34484,10.62255,3.11198,10.62164z"/>
	<path fill="#6B67A1" d="M1.53263,2.53595c0.08075-0.04349,0.15904-0.09369,0.25614-0.0926
		c-0.00816,0.05298,0.0208,0.11361-0.03288,0.1572C1.68608,2.5633,1.6164,2.52562,1.53263,2.53595z"/>
	<path fill="#67629B" d="M2.27176,1.01618C2.24909,1.05678,2.21803,1.08915,2.17693,1.1117
		C2.09056,1.15709,1.99478,1.16774,1.90077,1.18346c-0.13094,0.02189-0.2038,0.09666-0.22988,0.22547
		C1.64661,1.52884,1.63995,1.64913,1.6412,1.7708c0.0007,0.06809,0.0068,0.13867-0.04393,0.19597
		c0,0,0.00104,0.00019,0.00106,0.0002c-0.06258,0.0018-0.09437-0.02024-0.09876-0.09041
		c-0.01157-0.1846,0.01207-0.36695,0.04291-0.54643c0.02607-0.15169,0.13635-0.25705,0.28973-0.27661
		C1.97729,1.03502,2.12252,0.99395,2.27176,1.01618z"/>
	<path fill="#FEFEFE" d="M11.36939,2.24949c0.47089,0.11664,0.87364,0.35632,1.23355,0.67335
		c0.24868,0.29076,0.46949,0.59693,0.59524,0.96421c0.09513,0.27787,0.14552,0.56138,0.148,0.85318
		c0.00336,0.39619,0.00095,0.79242,0.00092,1.18864c-0.00002,0.25128-0.10322,0.44791-0.31508,0.58742
		c-0.17719,0.11668-0.35121,0.23844-0.53207,0.34919c-0.08227,0.05038-0.1189,0.10676-0.11292,0.20404
		c0.00809,0.13158-0.00144,0.26414,0.00327,0.39605c0.00278,0.07797-0.0158,0.11631-0.10475,0.11179
		c-0.16929-0.0086-0.38453,0.05287-0.49561-0.02881c-0.10794-0.07936-0.03269-0.30561-0.03195-0.46671
		c0.00049-0.10913-0.02719-0.15074-0.14183-0.14233c-0.1323,0.00971-0.26609,0.00676-0.39883,0.00075
		c-0.08659-0.00392-0.10991,0.03052-0.10702,0.11068c0.00495,0.13718-0.00391,0.27492,0.0031,0.41192
		c0.00472,0.09229-0.02966,0.1189-0.11858,0.11466c-0.13272-0.00633-0.26645-0.00858-0.39884,0.00056
		c-0.10593,0.00731-0.12465-0.03838-0.12036-0.12915c0.00624-0.13178-0.00171-0.26418,0.00277-0.3961
		c0.00264-0.07773-0.01624-0.11637-0.10498-0.11261C10.23,6.9463,10.086,6.94569,9.94254,6.94035
		C9.85957,6.93726,9.82936,6.9644,9.83268,7.0483C9.83832,7.19071,9.83103,7.3336,9.83535,7.47611
		C9.8376,7.55038,9.81368,7.57959,9.73605,7.57716c-0.14884-0.00467-0.298-0.0041-0.44689-0.00021
		c-0.07145,0.00187-0.09176-0.0274-0.09027-0.09361c0.00319-0.14257-0.0035-0.28544,0.00253-0.42782
		C9.205,6.97137,9.17506,6.92021,9.10346,6.87531c-0.1932-0.12115-0.38172-0.24969-0.57178-0.37577
		c-0.17005-0.1128-0.2811-0.27458-0.28294-0.47255C8.24373,5.48887,8.20379,4.9487,8.26909,4.41258
		C8.3998,3.33964,9.17237,2.50038,10.2309,2.2533C10.6118,2.16439,10.9897,2.18718,11.36939,2.24949z"/>
	<path fill="#FEFEFE" d="M19.64831,9.13259c-0.28276-0.12703-0.52236-0.23572-0.76284-0.34246
		c-0.40737-0.18081-0.8159-0.35906-1.22247-0.54164c-0.07724-0.03468-0.12455-0.03819-0.18585,0.03955
		c-0.17708,0.22453-0.45586,0.29362-0.71581,0.19464c-0.25237-0.0961-0.41912-0.35037-0.40763-0.62159
		c0.01147-0.27062,0.19349-0.49691,0.47415-0.56649c0.10768-0.0267,0.1615-0.06621,0.18918-0.18205
		c0.07636-0.31967,0.41212-0.53672,0.70675-0.47647c0.36769,0.0752,0.58109,0.37574,0.51897,0.74391
		c-0.01275,0.0756,0.01285,0.10444,0.07331,0.13099c0.80641,0.35414,1.61265,0.70867,2.41791,1.06536
		c0.07134,0.0316,0.13091,0.02002,0.19747-0.00946c0.79066-0.3502,1.58153-0.69994,2.37393-1.04621
		c0.0814-0.03557,0.10764-0.06919,0.08967-0.16392c-0.0654-0.34474,0.16466-0.65038,0.52972-0.7216
		c0.29238-0.05704,0.62299,0.16123,0.69609,0.46991c0.02391,0.10098,0.05732,0.15726,0.17082,0.18397
		c0.30281,0.07127,0.48524,0.30225,0.49827,0.59837c0.01064,0.24179-0.16558,0.49946-0.4048,0.59189
		c-0.26978,0.10424-0.53786,0.03804-0.72508-0.20083c-0.07585-0.09678-0.1338-0.04653-0.20292-0.0161
		c-0.98075,0.43175-1.96122,0.86412-2.9419,1.29601c-0.45644,0.20102-0.91249,0.40292-1.3704,0.60059
		c-0.0916,0.03954-0.13718,0.07181-0.11398,0.19327c0.0617,0.32308-0.17007,0.61866-0.52301,0.69881
		c-0.2956,0.06713-0.62416-0.13253-0.70528-0.44901c-0.0314-0.12251-0.08458-0.17549-0.20556-0.20529
		c-0.27629-0.06804-0.45145-0.29502-0.46532-0.57406c-0.01306-0.26263,0.14837-0.50807,0.40031-0.60865
		c0.25501-0.1018,0.54216-0.03269,0.71783,0.18628c0.05762,0.07183,0.10233,0.08549,0.18458,0.04728
		C19.15514,9.34505,19.37958,9.25043,19.64831,9.13259z"/>
	<path fill="#FEFEFE" d="M21.22942,9.82255c0.37711-0.16726,0.7279-0.31675,1.07264-0.4789
		c0.12815-0.06028,0.21614,0.0146,0.31085,0.05977c0.1278,0.06095,0.21545,0.0905,0.32737-0.05384
		c0.14957-0.19289,0.47586-0.22843,0.70269-0.12082c0.23446,0.11123,0.38737,0.36589,0.36891,0.61436
		c-0.01883,0.2533-0.20658,0.49116-0.45471,0.55065c-0.11735,0.02814-0.18277,0.06545-0.21402,0.19755
		c-0.07519,0.31781-0.41712,0.52747-0.71306,0.46198c-0.36382-0.08052-0.57609-0.37602-0.51133-0.73374
		c0.01757-0.09707-0.02439-0.11499-0.09323-0.14456C21.76851,10.06456,21.51375,9.94897,21.22942,9.82255z"/>
	<path fill="#2D4961" d="M3.11317,2.66364C3.35175,2.6633,3.54648,2.8579,3.54464,3.09483
		C3.5428,3.33172,3.34514,3.52314,3.10644,3.5192C2.87425,3.51537,2.68537,3.32664,2.68293,3.09601
		C2.68043,2.85954,2.87502,2.66399,3.11317,2.66364z"/>
	<path fill="#2D4961" d="M28.29512,6.61566c-0.00254,0.23691-0.20077,0.42769-0.43952,0.42304
		c-0.23839-0.00465-0.42892-0.20338-0.42208-0.44025c0.00664-0.23014,0.19944-0.4157,0.43148-0.41529
		C28.10314,6.18357,28.29766,6.37918,28.29512,6.61566z"/>
	<path fill="#726DAB" d="M19.54743,4.72225c0.35828,0.00093,0.63862,0.2859,0.63829,0.64883
		c-0.00031,0.34256-0.29136,0.62322-0.64684,0.62374c-0.36152,0.00053-0.63606-0.2799-0.63489-0.64852
		C18.90509,4.99722,19.18956,4.72132,19.54743,4.72225z"/>
	<path fill="#726DAB" d="M22.0733,5.99472c-0.34982-0.00861-0.6226-0.30079-0.61417-0.65784
		c0.00822-0.34798,0.29953-0.62023,0.65766-0.61463c0.35602,0.00557,0.63348,0.3019,0.62375,0.66617
		C22.73142,5.72946,22.42985,6.00349,22.0733,5.99472z"/>
	<path fill="#726DAC" d="M20.82735,6.31189c-0.04757,0.00006-0.09513,0.0001-0.1427,0.00005
		c-0.20023-0.00023-0.20966-0.01073-0.17132-0.20173c0.02489-0.124,0.05619-0.24595,0.14219-0.3452
		c0.1045-0.12059,0.23527-0.12034,0.33524,0.0041c0.10673,0.13285,0.13266,0.29356,0.15177,0.45624
		c0.00867,0.07375-0.02943,0.0897-0.09324,0.08716C20.97542,6.30957,20.90134,6.31183,20.82735,6.31189z"/>
	<path fill="#6E69A5" d="M2.07496,1.23551c-0.0905,0.1817-0.16427,0.36845-0.19818,0.57031
		C1.86676,1.86549,1.86265,1.95023,1.75939,1.9357c-0.09059,0.0338-0.101-0.03676-0.10654-0.09098
		c-0.01551-0.15196-0.01805-0.30556,0.0198-0.45465c0.03368-0.13269,0.17851-0.22891,0.31383-0.21895
		C2.02792,1.17417,2.07499,1.17421,2.07496,1.23551z"/>
	<path fill="#6A659F" d="M2.07496,1.23551C1.9089,1.17736,1.74412,1.24671,1.70658,1.41096
		C1.67056,1.56855,1.69101,1.73278,1.6991,1.89402c0.0014,0.02793,0.03376,0.03647,0.06027,0.04167
		c-0.04706,0.0462-0.10715,0.0254-0.1621,0.03107c0.00001-0.13169-0.01202-0.2647,0.00231-0.39485
		c0.04006-0.36398,0.10034-0.41654,0.46594-0.4612C2.10203,1.10624,2.1397,1.11112,2.17688,1.11168
		C2.14294,1.15297,2.10895,1.19424,2.07496,1.23551z"/>
	<path fill="#726DAB" d="M8.87605,5.34983c0.0001-0.35033,0.28247-0.62727,0.63989-0.62758
		c0.35914-0.00031,0.64033,0.28241,0.64182,0.6453c0.00141,0.34285-0.28822,0.62527-0.64328,0.62727
		C9.1524,5.99685,8.87595,5.71756,8.87605,5.34983z"/>
	<path fill="#726DAB" d="M12.0555,5.99479c-0.35175-0.00459-0.62831-0.29152-0.62443-0.64783
		c0.00381-0.34989,0.29055-0.62649,0.64762-0.62471c0.35792,0.00178,0.63818,0.29181,0.63396,0.65609
		C12.70868,5.72156,12.41244,5.99945,12.0555,5.99479z"/>
	<path fill="#726DAC" d="M10.79087,6.31195c-0.01586,0-0.03171,0-0.04757,0c-0.30819,0-0.31697-0.01201-0.23237-0.31751
		c0.05261-0.18997,0.17079-0.32209,0.28598-0.31969c0.11357,0.00237,0.2313,0.13933,0.28056,0.3264
		C11.15931,6.31195,11.1593,6.31195,10.79087,6.31195z"/>
</g>
</svg>
