<?xml version="1.0" encoding="utf-8"?>
<!-- Generator: Adobe Illustrator 23.0.0, SVG Export Plug-In . SVG Version: 6.00 Build 0)  -->
<svg version="1.1" id="Слой_1" xmlns="http://www.w3.org/2000/svg" xmlns:xlink="http://www.w3.org/1999/xlink" x="0px" y="0px" width="32px" height="13px"
	 viewBox="0 0 32 13" enable-background="new 0 0 32 13" xml:space="preserve">
<g>
	<path fill="#2D2D2D" d="M0.86438,12.99689c-0.02129,0-0.04257,0-0.06386,0c-0.33183-0.05126-0.56626-0.23332-0.72469-0.52323
		c-0.04681-0.08566-0.04517-0.18058-0.07358-0.26911c0-2.20796,0-4.41593,0-6.6239c0.03484-0.02885,0.07491-0.03615,0.11867-0.0287
		c0.30471,0.10753,0.41072,0.26299,0.41096,0.61574c0.00116,1.65234,0.00038,3.30467,0.00055,4.95701
		c0.00003,0.25339-0.00339,0.50683,0.00116,0.76017c0.0063,0.35067,0.20489,0.54537,0.55886,0.55347
		c0.06912,0.00158,0.13828,0.00062,0.20742,0.00062c5.03139,0.00002,10.06278,0.00001,15.09417,0.00004
		c0.07446,0,0.14894-0.00118,0.22337,0.00091c0.30537,0.00858,0.46824,0.1301,0.56346,0.41944
		c0.00416,0.04391-0.00023,0.08515-0.03737,0.11586c-0.06345,0.01024-0.12743,0.00507-0.19116,0.00508
		c-5.29465,0.00028-10.58931,0.00018-15.88396,0.00114C1.00052,12.98146,0.93019,12.9644,0.86438,12.99689z"/>
	<path fill="#262727" d="M31.99691,6.78501c-0.06809,0.03773-0.04715,0.11021-0.0594,0.16591
		c-0.39912,1.81492-1.17801,3.443-2.43218,4.8313c-0.4517,0.50001-0.98541,0.89516-1.64168,1.10545
		c-0.12238,0.03921-0.25887,0.03076-0.36898,0.10923c-0.05322,0-0.10644,0-0.15965,0
		c-0.06033-0.03172-0.1254-0.01548-0.18795-0.0155c-3.31336-0.00108-6.62672-0.00052-9.94008-0.00103
		c-0.02224,0.00184-0.04137-0.00496-0.05738-0.02037c-0.00017-0.02996-0.00034-0.05991-0.00051-0.08987
		c0.08267-0.06982,0.18268-0.04486,0.27569-0.04491c2.59014-0.0014,5.18027-0.00111,7.77041-0.00111
		c0.64355,0,1.2872-0.00727,1.9306,0.00236c0.49167,0.00736,0.93093-0.14304,1.34224-0.3928
		c0.301-0.18277,0.55404-0.4214,0.80717-0.66499c0.73802-0.71021,1.25873-1.56714,1.6928-2.47521
		c0.38063-0.7963,0.69538-1.62145,0.83759-2.5003c0.01682-0.10392,0.00055-0.21207,0.04271-0.31225
		c0.0232-0.0356,0.0571-0.0408,0.09553-0.03289c0.04341,0.0116,0.02779,0.06034,0.05309,0.08344
		C31.99691,6.61598,31.99691,6.7005,31.99691,6.78501z"/>
	<path fill="#1A1A1A" d="M31.96234,6.46723c-0.031,0.00035-0.062,0.0007-0.09299,0.00104
		c-0.04768,0.02092-0.07374,0.01214-0.06417-0.04593c0.06069-0.15727,0.01531-0.31383-0.01153-0.4675
		c-0.12363-0.70764-0.3736-1.37623-0.67246-2.02565c-0.39923-0.86754-0.87418-1.69429-1.5115-2.41274
		c-0.40353-0.4549-0.84485-0.87703-1.40298-1.15401c-0.37872-0.18794-0.78015-0.2781-1.20081-0.279
		c-1.30331-0.00278-2.60663-0.00102-3.90994-0.00102C17.16452,0.08241,11.23311,0.08235,5.3017,0.0829
		C5.19102,0.08291,5.07693,0.0664,4.97479,0.12906C4.9251,0.14924,4.90504,0.12154,4.8939,0.07953
		C4.89063,0.05006,4.90097,0.02499,4.91959,0.00265c7.5676,0,15.1352,0,22.7028,0c0.54759,0.15526,1.0308,0.4242,1.46031,0.79567
		c0.5872,0.50784,1.05577,1.11147,1.46041,1.76601c0.62535,1.01153,1.10948,2.08313,1.37427,3.24589
		c0.02359,0.10359,0.01348,0.2163,0.07953,0.30924c0,0.06339,0,0.12677,0,0.19016
		C31.95632,6.35587,32.00552,6.42153,31.96234,6.46723z"/>
	<path fill="#262626" d="M4.91959,0.00265C4.91953,0.02372,4.91946,0.04479,4.9194,0.06586
		C4.83698,0.13386,4.7376,0.11535,4.64366,0.11545C3.43113,0.11669,2.21857,0.12083,1.00609,0.11297
		C0.70621,0.11102,0.48755,0.23008,0.30525,0.45172C0.17943,0.6047,0.14719,0.77848,0.14746,0.96921
		C0.14953,2.41554,0.14915,3.86187,0.1475,5.30819C0.1474,5.40055,0.17056,5.5,0.09806,5.58065
		C0.06612,5.58065,0.03419,5.58066,0.00225,5.58067c0-1.61636,0-3.23271,0-4.84907c0.05855-0.37618,0.26539-0.62436,0.63862-0.72895
		C2.06711,0.00265,3.49335,0.00265,4.91959,0.00265z"/>
	<path fill="#697681" d="M17.1496,12.95999c0.00971,0.00373,0.01962,0.00684,0.02972,0.00935
		c0.01135,0.00546,0.01536,0.01135,0.0121,0.0177c-0.00336,0.00656-0.00681,0.00985-0.0104,0.00985
		c-5.43888,0-10.87776,0-16.31664,0c0.04293-0.06313,0.1075-0.03101,0.16095-0.03103
		c5.32693-0.00157,10.65386-0.00146,15.98078-0.00165C17.05394,12.96421,17.10177,12.96146,17.1496,12.95999z"/>
	<path fill="#535F69" d="M17.18102,12.99689c-0.00011-0.00922-0.00067-0.01842-0.00169-0.02757
		c0.05315-0.00135,0.1063-0.00391,0.15946-0.00392c3.28301-0.00031,6.56602-0.00052,9.84904,0.0004
		c0.04974,0.00001,0.10786-0.02364,0.14719,0.03109C23.95035,12.99689,20.56568,12.99689,17.18102,12.99689z"/>
	<path fill="#404C56" d="M31.96234,6.46723c0.01474-0.05184-0.02378-0.1152,0.03457-0.15762c0,0.07395,0,0.1479,0,0.22185
		C31.96879,6.51885,31.9657,6.49297,31.96234,6.46723z"/>
	<path fill="#202020" d="M0.09806,5.58065C0.09805,4.01743,0.10982,2.45405,0.08924,0.8911
		C0.08445,0.52774,0.56309,0.05118,0.929,0.05727c1.32981,0.02213,2.66022,0.00865,3.9904,0.0086
		c0.00082,0.0261,0.00637,0.04985,0.03205,0.06362c0.04709,0.01845,0.07438,0.05854,0.10439,0.09523
		c0.09335,0.11412,0.21531,0.16798,0.36174,0.17204c0.07979,0.00221,0.15958,0.00156,0.23937,0.00156
		c7.02742,0.00005,14.05485,0.00472,21.08224-0.00885c0.55955-0.00108,1.03671,0.16136,1.51142,0.41422
		c0.69125,0.36822,1.18681,0.92978,1.63055,1.55255c0.44339,0.62228,0.72894,1.3228,1.03885,2.01153
		c0.17583,0.39077,0.33193,0.7898,0.43026,1.20797c0.07684,0.32678,0.16073,0.64804,0.4549,0.86085
		c0.01393,0.02544,0.0379,0.03087,0.06417,0.03169c0.00679,0.4485-0.11965,0.87264-0.25237,1.29329
		C31.47009,8.22714,31.28036,8.6759,31.0855,9.1251c-0.31538,0.72701-0.72503,1.39095-1.19183,2.02606
		c-0.20607,0.28037-0.46843,0.50803-0.70507,0.75982c-0.29875,0.31787-0.64621,0.55719-1.03588,0.74066
		c-0.29409,0.13847-0.60365,0.22004-0.93493,0.21982c-3.35623-0.00217-6.71246-0.00134-10.06869-0.00135
		c-0.10196-0.29204-0.31434-0.38412-0.61641-0.38384c-5.14297,0.0049-10.28595,0.00073-15.42891,0.00972
		c-0.34751,0.00061-0.6312-0.28367-0.62889-0.61816C0.48795,9.98279,0.47759,8.0876,0.48491,6.1925
		C0.48607,5.8926,0.39224,5.6819,0.09806,5.58065z"/>
	<path fill="#131313" d="M31.80517,6.43658c-0.22489-0.05813-0.3148-0.23909-0.38186-0.43072
		c-0.12856-0.36732-0.19736-0.75171-0.34122-1.11655c-0.1529-0.38775-0.32439-0.76677-0.49199-1.14769
		c-0.26201-0.59548-0.5898-1.15122-0.98069-1.67579c-0.54525-0.73173-1.24973-1.23284-2.10038-1.54994
		c-0.1428-0.05323-0.28386-0.07104-0.43437-0.071C19.86952,0.44657,12.66438,0.44611,5.45924,0.44746
		c-0.24171,0.00005-0.42205-0.08049-0.5078-0.31798c-0.00063-0.0524,0.00931-0.09576,0.07663-0.09463
		c0.04787,0.0008,0.09578-0.00043,0.14367-0.00043c7.2745-0.00003,14.54901-0.00003,21.82351-0.00001
		c0.56069,0,1.07189,0.15545,1.53923,0.46554c0.26429,0.17536,0.50902,0.36582,0.7284,0.59852
		c0.23091,0.24492,0.48029,0.47097,0.6816,0.74412c0.61088,0.82887,1.10445,1.72031,1.47853,2.67769
		c0.19014,0.48661,0.34237,0.98383,0.43793,1.49731c0.0201,0.10803,0.00456,0.21988,0.03675,0.32844
		C31.91769,6.41346,31.87008,6.44028,31.80517,6.43658z"/>
	<path fill="#262626" d="M14.94569,12.10944c-5.14541,0-9.41306,0.00001-13.68071-0.00002
		c-0.36179,0-0.40054-0.03819-0.40054-0.39499c-0.00003-3.49647-0.00003-6.99295,0-10.48942
		c0-0.35956,0.03861-0.3983,0.39721-0.3983c8.52999-0.00002,17.05997,0.00098,25.58996-0.002
		c0.65427-0.00023,1.19603,0.2321,1.68331,0.65971c0.35605,0.31245,0.6656,0.6639,0.93079,1.04387
		c0.38464,0.55113,0.71996,1.13466,0.98262,1.75925c0.12768,0.30362,0.25879,0.60543,0.37204,0.91483
		c0.24783,0.6771,0.35163,1.3601,0.11777,2.06606c-0.16303,0.49216-0.31792,0.98454-0.54243,1.4564
		c-0.13081,0.27493-0.2519,0.55875-0.39567,0.82541c-0.19767,0.36663-0.41939,0.72197-0.67884,1.05524
		c-0.32755,0.42075-0.67826,0.81639-1.11558,1.12041c-0.28086,0.19526-0.59654,0.34526-0.95576,0.35168
		C22.85604,12.15608,18.46186,12.07874,14.94569,12.10944z"/>
	<path fill="#620200" d="M27.62095,1.0463c0.51622,0.15858,0.90151,0.50571,1.25181,0.88845
		c0.62957,0.68787,1.09368,1.48455,1.48232,2.32519c0.12802,0.27692,0.23371,0.56408,0.34655,0.84776
		c0.01492,0.03751,0.01162,0.08216,0.01676,0.1235c-0.04852,0.17196-0.07117,0.35077-0.14313,0.51658
		c-0.17209,0.39653-0.50599,0.55758-0.90922,0.61947c-0.57409-0.10673-1.04208-0.38787-1.44558-0.80788
		c-0.45922-0.47801-0.99389-0.86524-1.63495-1.06963c-0.75427-0.24049-1.5218-0.43391-2.30766-0.54875
		c-0.19348-0.02827-0.39218-0.02684-0.57961-0.09281c-0.06588-0.09039-0.05676-0.20023-0.07707-0.30207
		c-0.08345-0.41842-0.25094-0.7939-0.56678-1.09222c-0.14284-0.13492-0.26804-0.12816-0.41495,0.0113
		c-0.27086,0.2462-0.52076,0.51351-0.78482,0.76648c-0.07532,0.07215-0.10003,0.15425-0.101,0.2552
		c-0.00105,0.10886,0.0277,0.22223-0.03116,0.32609c-0.11295,0.04012-0.21744,0.07162-0.30164-0.06271
		c-0.05474-0.08733-0.08721,0.02953-0.1354,0.03438C21.07883,3.82926,20.9502,3.69133,20.81,3.58307
		c-0.03747-0.02894-0.06754-0.06923-0.08735-0.1119c-0.21151-0.45552-0.60811-0.56833-1.06516-0.56857
		c-1.19425-0.00063-2.3885-0.00006-3.58275-0.00048c-0.08474-0.00003-0.16997,0.0058-0.25364-0.01211
		c-0.07315-0.01891-0.10876-0.07905-0.14885-0.13476c-0.07401-0.10284-0.14542-0.2079-0.23907-0.295
		c-0.15155-0.14096-0.27488-0.13921-0.42741,0.00571c-0.11557,0.10145-0.22375,0.21041-0.33286,0.31842
		c-0.05313,0.05259-0.10847,0.10201-0.18824,0.11104c-0.74492,0.01603-1.48976,0.01335-2.23429,0.00153
		c-0.24899-0.00395-0.46435-0.12682-0.62046-0.31872c-0.51513-0.63324-0.54543-0.52767-1.16498-0.52915
		C8.73059,2.04493,6.99623,2.04814,5.26187,2.0473C4.80034,2.04707,4.50268,1.83773,4.34124,1.40571
		C4.33043,1.34283,4.30665,1.28222,4.30452,1.21752C4.30231,1.1814,4.30083,1.14522,4.30234,1.10892
		C4.3021,1.08068,4.30282,1.05253,4.30608,1.02433C4.31526,0.98493,4.32396,0.9451,4.37474,0.9385
		c7.59529-0.00096,15.19045-0.00016,22.78561,0.00007c0.04706,0,0.09598-0.01083,0.14094,0.01368
		c0.06401,0.01133,0.12803,0.02266,0.19204,0.034C27.53715,1.00359,27.59399,0.99367,27.62095,1.0463z"/>
	<path fill="#8C1B0A" d="M0.98835,9.8295c0.00003-0.04373,0.00006-0.08747,0.00009-0.1312
		C0.96612,9.64217,0.97719,9.58354,0.97717,9.5262C0.97653,7.42873,0.97659,5.33125,0.97662,3.23416
		c0.0293-0.37622,0.30544-0.72697,0.61864-0.78561c0.13258,0.03981,0.22378,0.13359,0.31017,0.23421
		c0.09255,0.1345,0.09407,0.28743,0.09403,0.44169c-0.00044,1.73152,0.00047,3.46304-0.001,5.19455
		C1.99816,8.6713,2.12168,8.95761,2.42294,9.15642c0.1651,0.10896,0.35071,0.14674,0.54619,0.14686
		c0.56909,0.00035,1.13818-0.00093,1.70726,0.00049c0.43353,0.00108,0.66669,0.18462,0.77325,0.60481
		c0.10058,0.39659,0.41768,0.65973,0.83324,0.69079c0.07962,0.00595,0.15949,0.00341,0.23926,0.00341
		c2.11679,0.00019,4.23359-0.00092,6.35038,0.00082c0.47141,0.00039,0.74792,0.28218,0.74918,0.75359
		c0.00011,0.04221,0.0016,0.08449-0.00282,0.12647c-0.00092,0.05462,0.00194,0.10945-0.00225,0.16404
		c-0.00054,0.03432,0.00097,0.06878-0.00131,0.10309c-0.00031,0.03304,0.00012,0.06619-0.00115,0.09928
		c0,0.03276-0.00071,0.06551-0.0064,0.09795c-0.00509,0.02486-0.01821,0.0453-0.03591,0.06314
		c-0.14883,0.00108-0.29765,0.0031-0.44648,0.00311c-3.3493,0.00018-6.6986,0.00016-10.0479,0.00003
		c-0.07924,0-0.15992,0.00954-0.23425-0.02953c-0.13656-0.00554-0.22033-0.09933-0.29885-0.18967
		c-0.15751-0.18121-0.24002-0.39537-0.25259-0.63566c-0.01334-0.2549-0.05339-0.293-0.31659-0.30885
		c-0.43558-0.02622-0.92041-0.44408-0.98826-0.8503C0.97731,9.94272,0.96762,9.88629,0.98835,9.8295z"/>
	<path fill="#600202" d="M30.65766,7.83003c-0.07583,0.33046-0.22474,0.63416-0.36579,0.93855
		c-0.31953,0.68954-0.68579,1.35418-1.17,1.94622c-0.42052,0.51417-0.87605,0.98841-1.52774,1.22027
		c-0.22999,0.08183-0.46637,0.08732-0.70552,0.07663c0.08045-0.35044,0.20605-0.69088,0.59612-0.78292
		c0.75376-0.17785,1.2167-0.70668,1.63485-1.28503c0.54235-0.75013,0.94-1.57749,1.24132-2.45064
		c0.02314-0.06705,0.02827-0.14911,0.11411-0.17834C30.63399,7.45227,30.68699,7.62678,30.65766,7.83003z"/>
	<path fill="#640200" d="M30.46423,7.32379c-0.19655,0.60235-0.45177,1.18004-0.74909,1.73941
		c-0.35343,0.66494-0.77777,1.2789-1.34813,1.78139c-0.20869,0.18387-0.45552,0.31082-0.72797,0.3733
		c-0.31481,0.0722-0.53735,0.23421-0.63256,0.55226c-0.02534,0.08465-0.07786,0.16127-0.1179,0.24156
		c-0.06908,0.00088-0.13816,0.00257-0.20725,0.00257c-4.30075,0.00012-8.6015,0.00013-12.90225-0.00002
		c-0.06908,0-0.13815-0.002-0.20723-0.00309c0.00068-0.01998,0.00137-0.03994,0.00206-0.0599
		c0.07677-0.06807,0.17114-0.04681,0.25946-0.04683c3.78476-0.0009,7.56952-0.00076,11.35428-0.00077
		c0.29768,0,0.59536,0.00047,0.89303-0.00041c0.05776-0.00017,0.11747,0.01018,0.17134-0.02087
		c0.0478-0.02557,0.09908-0.03419,0.15285-0.02836c0.11796-0.00735,0.23491-0.01695,0.30176-0.13592
		c0.00476-0.01281,0.01186-0.02442,0.02025-0.03515c0.03079-0.02695,0.04579-0.06403,0.06319-0.09976
		c0.15954-0.32552,0.41499-0.53199,0.77117-0.61458c0.26895-0.06236,0.48222-0.22867,0.70561-0.37564
		c0.12014-0.09152,0.22559-0.1976,0.31831-0.31634c0.6347-0.77346,1.09818-1.64344,1.46348-2.56771
		c0.0558-0.14117,0.11047-0.2836,0.15681-0.42861c0.01761-0.0551,0.03074-0.11432,0.10188-0.12786
		C30.39596,7.17679,30.46666,7.21735,30.46423,7.32379z"/>
	<path fill="#202020" d="M1.59628,2.47289C1.32416,2.5497,1.18467,2.75974,1.06881,2.99243
		C1.03875,3.0528,1.01488,3.11621,0.98817,3.17823c0,0-0.01247,0.00937-0.01247,0.00937L0.96274,3.1789
		C0.96188,2.92171,0.96156,2.66451,0.95974,2.40733c-0.00038-0.05336,0.00228-0.10488,0.0328-0.15107
		c0.00137-0.02265,0.01042-0.04207,0.02494-0.05927c0.07823-0.07671,0.17539-0.12773,0.26368-0.19107
		C1.33459,1.97671,1.3924,1.95859,1.44983,1.93935c0.08802-0.02751,0.18075-0.03516,0.26839-0.06377
		c0.07963-0.02665,0.08249-0.09867,0.09832-0.16314c0.03958-0.16122,0.08715-0.31965,0.16673-0.46682
		C2.01648,1.19708,2.05018,1.1488,2.08645,1.10237c0.05213-0.05958,0.11108-0.11108,0.18168-0.14851
		C2.32538,0.91903,2.3889,0.92133,2.45267,0.92148c0.3334,0.00079,0.6668,0.00069,1.0002,0.00089
		C3.4636,0.93525,3.46831,0.95002,3.46706,0.96671c-0.01718,0.06154-0.06752,0.0861-0.12098,0.10729
		C3.24966,1.09472,3.1473,1.08725,3.05624,1.13378c-0.068,0.02679-0.13529,0.05498-0.19464,0.0987
		c-0.07087,0.05477-0.14763,0.1024-0.20606,0.172c-0.22504,0.17024-0.30636,0.40368-0.3142,0.67551
		C2.33468,2.31091,2.24984,2.39277,2.0135,2.42206C1.87038,2.4062,1.73814,2.47883,1.59628,2.47289z"/>
	<path fill="#202020" d="M30.46423,7.32379c-0.03867-0.06721-0.0942-0.11839-0.15699-0.16266
		c-0.07437-0.00717-0.12312-0.05759-0.17558-0.1019c-0.02518-0.02384-0.05254-0.04466-0.08407-0.05994
		c-0.054-0.0282-0.11117-0.04748-0.17016-0.06264c-0.13699-0.04254-0.27521-0.07216-0.41961-0.08024
		c-0.15388-0.00861-0.24715-0.11471-0.24199-0.2557c0.00511-0.13952,0.12262-0.26622,0.26185-0.266
		c0.06156,0.0001,0.12496-0.01548,0.18634,0.00473c0.5902-0.12461,0.87246-0.38449,0.96098-0.90223
		c0.01286-0.0752,0.01128-0.16024,0.09338-0.206c0.115,0.23042,0.17027,0.47906,0.22518,0.72781
		c-0.05246,0.25412-0.23068,0.41452-0.42534,0.56287c-0.12949,0.09868-0.12844,0.0979-0.00367,0.19173
		c0.15207,0.11436,0.29974,0.23318,0.36498,0.42186c-0.06188,0.23533-0.11168,0.47446-0.2219,0.69455
		C30.6249,7.64934,30.58547,7.47117,30.46423,7.32379z"/>
	<path fill="#202020" d="M0.98835,9.8295c0.04376,0.41251,0.30151,0.68543,0.62408,0.90275
		c0.12622,0.08504,0.29385,0.07294,0.44758,0.07808c0.18185,0.00608,0.27087,0.08452,0.27104,0.2587
		c0.0004,0.40142,0.16073,0.71004,0.51218,0.91573c-0.24311,0.04944-0.48608,0.0482-0.7289-0.00203
		c-0.15288-0.0699-0.21042-0.214-0.22697-0.35606c-0.02769-0.23771-0.14449-0.33837-0.37886-0.37571
		c-0.20233-0.03223-0.39277-0.12507-0.52099-0.30296c-0.00993-0.01589-0.00833-0.03053,0.00472-0.04394
		c-0.05291-0.08787-0.03459-0.18533-0.03028-0.27791C0.97434,10.36067,0.92422,10.09311,0.98835,9.8295z"/>
	<path fill="#8C1B0A" d="M0.99554,10.9322c0.2025,0.18298,0.44073,0.29007,0.71151,0.3237
		c0.11198,0.01391,0.16604,0.07302,0.17733,0.18205c0.02113,0.20415,0.0935,0.38803,0.22992,0.54477
		c-0.03607,0.04508-0.08729,0.03107-0.13327,0.03111c-0.32957,0.00028-0.65915-0.00101-0.98872-0.0018
		C0.96857,11.65201,0.96218,11.29205,0.99554,10.9322z"/>
	<path fill="#535F69" d="M3.4521,0.95132C3.45137,0.94165,3.45161,0.93199,3.45285,0.92237
		c7.89416-0.0002,15.78831-0.00045,23.68246,0.0004c0.05573,0.00001,0.11817-0.0209,0.16599,0.02949
		c-3.74097,0.00039-7.48192,0.00095-11.22287,0.00114c-3.84206,0.0002-7.68413,0.00002-11.5262,0.00025
		c-0.0691,0-0.1382,0.00308-0.2073,0.00472c-0.03849,0.0318-0.08397,0.04126-0.13258,0.04158
		c-0.20525,0.00133-0.4105,0.00137-0.61574-0.0001C3.54363,0.99947,3.49072,0.99547,3.4521,0.95132z"/>
	<path fill="#600202" d="M30.87954,7.13549c-0.14937-0.16867-0.28236-0.35394-0.49438-0.45712
		c-0.05993-0.02917-0.0535-0.07449,0.0015-0.1079c0.24626-0.14963,0.4278-0.35688,0.55691-0.61142
		C31.05895,6.35851,30.99503,6.74838,30.87954,7.13549z"/>
	<path fill="#6E0500" d="M1.72806,1.90789C1.63539,1.94492,1.53902,1.96465,1.43928,1.96853
		C1.28782,1.62969,1.46613,1.09437,1.78255,0.93844c0.14006,0.00584,0.2807-0.01401,0.42004,0.0118
		c0.02185,0.0012,0.0437,0.00241,0.06555,0.00362C2.23334,1.02215,2.1763,1.06958,2.11591,1.11387
		C2.06447,1.14281,2.00813,1.15114,1.95018,1.15849C1.77066,1.18125,1.67543,1.27828,1.6779,1.45975
		c0.00193,0.14197-0.04435,0.29088,0.04062,0.42568C1.7218,1.89287,1.72493,1.90038,1.72806,1.90789z"/>
	<path fill="#535F69" d="M0.96274,3.1789c0.00844-0.00202,0.01693-0.00228,0.02546-0.00072
		c0.00129,0.92847,0.00371,1.85689,0.00364,2.78531C0.99173,7.20843,0.98969,8.45337,0.98846,9.6983
		C0.94852,9.66622,0.96064,9.62108,0.96064,9.58046C0.96097,7.4466,0.96188,5.31275,0.96274,3.1789z"/>
	<path fill="#535F69" d="M2.20259,0.95024C2.05447,0.95298,1.90634,0.95572,1.75822,0.95845
		C1.61688,1.03248,1.46503,0.99464,1.31729,0.99956C1.04095,1.00592,1.04409,1.00597,1.03982,1.28368
		c-0.00437,0.28478,0.01861,0.57006-0.01429,0.8545c-0.0122,0.02683-0.02369,0.05466-0.06197,0.04863
		C0.96244,1.80789,0.96218,1.42896,0.95947,1.05005C0.95893,0.97358,0.96459,0.91905,1.06691,0.92028
		C1.42214,0.92454,1.77745,0.9219,2.13273,0.92197C2.15976,0.92197,2.1855,0.92575,2.20259,0.95024z"/>
	<path fill="#535F69" d="M0.99554,10.9322c-0.00108,0.35996-0.00215,0.71991-0.00323,1.07985
		c-0.03994-0.02329-0.03176-0.06272-0.03182-0.09812c-0.00054-0.30363-0.00047-0.60726-0.00008-0.91088
		c0.00005-0.03586-0.00582-0.07458,0.03182-0.09898C0.99265,10.91351,0.99375,10.92289,0.99554,10.9322z"/>
	<path fill="#4C3E43" d="M27.62095,1.0463c-0.04253-0.02002-0.08505-0.04005-0.1276-0.06006
		C27.55429,0.96771,27.60578,0.96899,27.62095,1.0463z"/>
	<path fill="#414D57" d="M0.96356,2.18681c0.01107-0.01195,0.02214-0.0239,0.0332-0.03585
		c0.04223,0.00778,0.04977,0.031,0.03,0.06638c-0.01141,0.01295-0.02281,0.0259-0.03422,0.03888
		C0.96401,2.24087,0.96021,2.21531,0.96356,2.18681z"/>
	<path fill="#8A0003" d="M29.66403,6.33944c-0.06741,0.01101-0.13473,0.02267-0.20226,0.03288
		c-0.13728,0.02074-0.2011,0.11054-0.20796,0.23736c-0.0068,0.12561,0.08344,0.20538,0.22259,0.20573
		c0.15594,0.0004,0.30352,0.03297,0.44461,0.09742c0.02564,0.05278,0.00775,0.104-0.00854,0.15379
		c-0.34098,1.04251-0.80897,2.0209-1.5085,2.87674c-0.29543,0.36144-0.64315,0.6526-1.1223,0.76556
		c-0.33142,0.07814-0.57387,0.30053-0.72932,0.59796c-0.09298,0.1779-0.21646,0.25008-0.41662,0.24994
		c-4.1166-0.00287-8.2332-0.00211-12.3498-0.0027c-0.07379-0.00001-0.15042,0.00747-0.21263-0.04676
		c-0.00586-0.19275,0.02519-0.38809-0.10078-0.56437c-0.13678-0.19142-0.31158-0.29186-0.54846-0.29178
		c-2.17582,0.00068-4.35168-0.00574-6.52744,0.00542c-0.45184,0.00232-0.94649-0.31595-1.00966-0.80006
		c-0.0403-0.30884-0.32041-0.50407-0.64113-0.50428C4.15002,9.3519,3.55419,9.35224,2.95837,9.35215
		c-0.60011-0.0001-1.0083-0.4062-1.00832-1.00331C1.94998,6.5905,1.949,4.83217,1.9519,3.07384
		c0.00024-0.14703-0.02449-0.28214-0.09773-0.4089c-0.0016-0.0255-0.00886-0.05012-0.01142-0.07554
		c-0.01258-0.12505,0.0247-0.20915,0.16977-0.20598C2.23664,2.35877,2.3001,2.29556,2.3015,2.07663
		c0.00188-0.29365,0.08717-0.54436,0.34706-0.71285c0.07146-0.03997,0.14887-0.0501,0.22978-0.05001
		c0.42892,0.00049,0.85784-0.00042,1.28676,0.0008c0.07387,0.00021,0.14964-0.0031,0.21069,0.05109
		c0.10892,0.4187,0.52728,0.64026,0.88025,0.63835c1.85669-0.01003,3.71348-0.0012,5.5702-0.00824
		c0.2993-0.00113,0.50008,0.13517,0.67196,0.35239c0.1373,0.17353,0.27223,0.34947,0.49055,0.43612
		c0.1048,0.04159,0.20742,0.07255,0.3226,0.07211c0.7395-0.0028,1.47901-0.0016,2.21851-0.00171
		c0.02149,0.07101-0.03683,0.10353-0.07415,0.14296c-0.08649,0.09137-0.17663,0.17943-0.26749,0.26655
		c-0.05972,0.05726-0.10049,0.12043-0.09312,0.20659c-0.01186,0.20549-0.02769,0.21897-0.25912,0.22157
		c-0.03799-0.0001-0.07594,0.00538-0.11394,0.00088c-0.52648,0.00395-1.05295,0.00069-1.57941,0.0021
		c-0.44827,0.0012-0.69228,0.19207-0.78606,0.62708c-0.02566,0.11905-0.0824,0.16193-0.19904,0.14185
		c-0.05763-0.00992-0.11659-0.00834-0.17512-0.00834C8.78604,4.45582,6.58968,4.45526,4.39333,4.4564
		C3.92969,4.45665,3.59265,4.70636,3.46609,5.13434c-0.02274,0.07692-0.03075,0.155-0.03081,0.23456
		C3.43512,5.58005,3.4332,5.79121,3.43569,6.00232c0.00625,0.5302,0.39662,0.92001,0.92934,0.92415
		c0.46265,0.0036,0.92533,0.0007,1.388,0.00086c0.05318,0.00002,0.10645-0.00171,0.15951,0.00172
		c0.16352,0.01057,0.18497,0.04079,0.14031,0.198C5.93629,7.53732,5.96622,7.95798,6.01293,8.36832
		c0.05054,0.44397,0.44258,0.74013,0.89754,0.74502c0.335,0.0036,0.67007,0.00003,1.0051,0.00131
		C7.98943,9.11493,8.0653,9.10731,8.13301,9.14771c0.07036,0.10037-0.02665,0.15477-0.06823,0.21805
		C7.94634,9.54601,7.92584,9.72962,8.03046,9.91895c0.10615,0.1921,0.26326,0.31791,0.4931,0.32611
		c0.2058,0.00734,0.36709-0.09075,0.50751-0.22903C9.2877,9.76331,9.5423,9.50856,9.79846,9.25536
		c0.06026-0.05956,0.11882-0.12252,0.21087-0.13382c0.24472-0.01621,0.48937-0.00514,0.73391-0.00707
		c0.11767-0.00093,0.1923,0.05223,0.2212,0.16469c0.0929,0.36149,0.41659,0.56883,0.83808,0.56588
		c1.17002-0.00818,2.34014-0.00311,3.51022-0.0024c0.0951,0.00006,0.19216-0.0102,0.28238,0.03269
		c0.03732,0.02018,0.06769,0.0493,0.09137,0.08362c0.10919,0.15825,0.25413,0.25831,0.44923,0.28258
		c0.04655,0.00579,0.09127,0.02298,0.13082,0.05065c0.05263,0.04115,0.07294,0.10276,0.10264,0.15838
		c0.17569,0.32908,0.45541,0.49962,0.82626,0.50019c2.42474,0.00375,4.84948,0.00351,7.27422,0.00068
		c0.60063-0.0007,1.00022-0.47994,0.92483-1.09397c-0.0271-0.22073-0.01782-0.23397,0.20697-0.23507
		c0.49451-0.00243,0.98904,0.00053,1.48355-0.00116c0.58307-0.00198,0.96576-0.38445,0.9683-0.96563
		c0.00076-0.17417-0.00838-0.34883,0.00191-0.5224c0.02175-0.36692-0.01556-0.71685-0.2491-1.02086
		c-0.01493-0.0701,0.04075-0.10136,0.08001-0.14185c0.15259-0.15739,0.18054-0.33438,0.07899-0.49936
		c-0.08772-0.1425-0.26436-0.21222-0.42535-0.16789c-0.18171,0.05003-0.28224,0.19122-0.28785,0.4026
		c-0.00132,0.04966,0.02156,0.1076-0.04308,0.13863c-0.05627,0.02098-0.11501,0.01928-0.17327,0.01934
		c-0.56258,0.00064-1.12516,0.0014-1.68774-0.00025c-0.23116-0.00068-0.24066-0.01336-0.2338-0.2427
		c0.00409-0.13692,0.00401-0.27396,0.00095-0.41086c-0.01118-0.49989-0.40225-0.88896-0.9046-0.89781
		c-0.25469-0.00449-0.50951,0.00066-0.76424-0.00192c-0.07273-0.00074-0.15087,0.01034-0.2072-0.05461
		c-0.00744-0.01664-0.00976-0.03423-0.00714-0.05228c0.27774-0.38565,0.41511-0.81727,0.42643-1.29005
		c0.0005-0.02107,0.00907-0.04067,0.01916-0.05927c0.00608-0.00581,0.01225-0.01156,0.01841-0.0173
		c0.64504,0.04413,1.27702,0.16675,1.90021,0.33051c0.44934,0.11808,0.90353,0.22119,1.33114,0.41406
		c0.36077,0.16272,0.67571,0.38815,0.98194,0.63196c0.23283,0.18536,0.42564,0.41152,0.64839,0.60642
		c0.29788,0.26063,0.65514,0.401,1.03662,0.48944C29.61846,6.31481,29.64077,6.32915,29.66403,6.33944z"/>
	<path fill="#FE6053" d="M21.71069,3.80494c0.00149-0.01037,0.00609-0.02139,0.00403-0.03101
		c-0.07493-0.34989,0.08613-0.59297,0.34749-0.80532c0.19524-0.15863,0.3473-0.36549,0.54954-0.51888
		c0.14721-0.06986,0.23597-0.05717,0.36835,0.0673c0.29364,0.2761,0.47379,0.6165,0.56329,1.00569
		c0.0224,0.09741,0.04119,0.1957,0.06102,0.29382c0.03731,0.50084-0.04857,0.97053-0.35608,1.38396l-0.00069-0.00016
		c-0.05965,0.20102-0.21273,0.33817-0.35218,0.47812c-0.45207,0.45368-0.93449,0.87702-1.37646,1.34091
		c-0.20049,0.21044-0.40316,0.42013-0.56531,0.66347c-0.22771,0.31978-0.32653,0.67569-0.31292,1.06588
		c0.00713,0.20432,0.00347,0.40886-0.07687,0.60299c-0.15995,0.22665-0.3662,0.3227-0.56269,0.26241
		c-0.26543-0.08145-0.39857-0.26435-0.40284-0.55782c-0.00231-0.15815,0.00122-0.31638-0.00082-0.47452
		c-0.00149-0.11509,0.04258-0.20155,0.13636-0.26956c0.66276-0.48066,1.10439-1.1266,1.42277-1.86726
		c0.16767-0.39007,0.28505-0.79382,0.37127-1.20794c0.08724-0.41291,0.12851-0.83066,0.14013-1.2517
		C21.66982,3.92227,21.6673,3.85827,21.71069,3.80494z"/>
	<path fill="#FE6053" d="M14.05452,3.42005c-0.00551-0.07012,0.03637-0.11462,0.08199-0.16053
		c0.13263-0.13346,0.26243-0.26968,0.39334-0.40482c0.16171-0.12323,0.279-0.29445,0.44859-0.40917
		c0.12907-0.0807,0.24166-0.03589,0.34469,0.04967c0.1179,0.09791,0.20695,0.22065,0.28819,0.34911
		c0.1669,0.24979,0.26113,0.528,0.32439,0.81844c0.1129,0.54423-0.0181,1.04417-0.2799,1.52026
		c-0.10766,0.17079-0.23957,0.321-0.38419,0.46286c-0.45783,0.44911-0.9117,0.90222-1.36635,1.35452
		c-0.24045,0.23921-0.4755,0.48311-0.64811,0.77834c-0.21362,0.30619-0.25892,0.65736-0.27881,1.0159
		c-0.00978,0.17632,0.0328,0.35717-0.04422,0.52805c-0.06002,0.10869-0.13888,0.2012-0.25108,0.25829
		c-0.29747,0.15134-0.67761-0.05976-0.71092-0.40288c-0.01983-0.20423-0.00689-0.41104-0.03469-0.61581
		c-0.01134-0.08349,0.02553-0.15362,0.09628-0.20518c1.12175-0.81745,1.63141-1.98053,1.88343-3.28869
		c0.08209-0.42609,0.10959-0.85748,0.12371-1.29007C14.04476,3.65888,14.09714,3.54125,14.05452,3.42005z"/>
	<path fill="#8A0003" d="M15.77643,2.85458c1.31634,0.00015,2.6327-0.0029,3.94901,0.00326
		c0.25299,0.00119,0.50838,0.03287,0.72163,0.19303c0.10144,0.07618,0.19585,0.16117,0.24755,0.28246
		c0.08823,0.20702,0.25588,0.32747,0.45597,0.41567c0.05568,0.02454,0.10075,0.02219,0.14945-0.00641
		c0.0097,0.01141,0.01435,0.02457,0.01401,0.03949c-0.02419,0.06958-0.11612,0.05545-0.14655,0.11744
		c-0.42989,0.45245-0.88175,0.88313-1.3235,1.32376c-0.04197,0.04186-0.09119,0.0723-0.15231,0.08012
		c-0.19592,0.00806-0.37299,0.0707-0.54128,0.16878c-0.14507,0.08455-0.18947,0.0607-0.1938-0.10523
		c-0.00784-0.30027-0.00095-0.60077-0.00297-0.90116c-0.00322-0.4781-0.29344-0.76865-0.77556-0.77083
		c-0.62123-0.00281-1.24247-0.00042-1.8637-0.00102c-0.07946-0.00008-0.1594,0.00568-0.23792-0.0115
		c-0.01714-0.00455-0.033-0.01233-0.04739-0.02263c-0.09212-0.25908-0.1691-0.52349-0.26227-0.7826
		C15.76993,2.86965,15.77318,2.86212,15.77643,2.85458z"/>
	<path fill="#8B0003" d="M21.30025,3.77433c-0.00008-0.01058-0.00015-0.02117-0.00023-0.03175
		c0.03082-0.03417,0.05962-0.07048,0.09317-0.10178c0.0225-0.02099,0.06048-0.01527,0.05902,0.01453
		c-0.01073,0.21922,0.15224,0.13491,0.25848,0.14961c0.0084,0.49271-0.02895,0.98069-0.15302,1.45972
		c-0.10068,0.06526-0.20474,0.0577-0.31045,0.0145c-0.0662-0.06414-0.03384-0.1385-0.01727-0.20819
		c0.06979-0.29349,0.11075-0.59165,0.14376-0.89064C21.38913,4.04069,21.41296,3.89373,21.30025,3.77433z"/>
	<path fill="#8B020D" d="M23.56475,3.80598c-0.06662-0.31409-0.13908-0.62547-0.32056-0.90009
		c-0.07291-0.11033-0.15409-0.21281-0.23913-0.31385c-0.10564-0.12551-0.23121-0.17916-0.3933-0.14233
		c0.12188-0.16527,0.29614-0.18896,0.44451-0.05313c0.33848,0.30989,0.52192,0.703,0.6047,1.14567
		c0.01806,0.09658,0.04831,0.19355,0.03482,0.29453c0.00001-0.00001-0.00136,0.00104-0.00136,0.00104
		C23.63836,3.87872,23.60266,3.83794,23.56475,3.80598z"/>
	<path fill="#840001" d="M4.37579,1.36567C3.80006,1.36505,3.22434,1.36443,2.64859,1.3638
		C2.6969,1.28982,2.77463,1.25258,2.84636,1.20786c0.07408-0.03187,0.15172-0.04769,0.23223-0.04782
		C3.44579,1.15946,3.813,1.15951,4.1802,1.15992C4.23967,1.15999,4.29764,1.16398,4.34432,1.2072
		C4.35481,1.26003,4.3653,1.31285,4.37579,1.36567z"/>
	<path fill="#87020C" d="M15.58339,2.85545c-0.06926-0.08398-0.14076-0.16626-0.20727-0.25233
		c-0.10182-0.13176-0.23118-0.18943-0.39769-0.1576c0.13659-0.16856,0.30236-0.18342,0.45812-0.03772
		c0.13854,0.12959,0.24981,0.28045,0.33986,0.44679c0-0.00001-0.00079,0.00113-0.00079,0.00113
		C15.71148,2.91137,15.64741,2.90081,15.58339,2.85545z"/>
	<path fill="#7B0200" d="M4.34432,1.2072C3.84499,1.20742,3.34566,1.20763,2.84635,1.20786
		c0.05184-0.05311,0.11634-0.08187,0.18823-0.09643c0.40665-0.07141,0.81664-0.03999,1.22561-0.03838
		C4.2923,1.07317,4.32017,1.09097,4.34455,1.11202C4.34448,1.14375,4.3444,1.17547,4.34432,1.2072z"/>
	<path fill="#6D0500" d="M3.4521,0.95132C3.74972,0.95366,4.04733,0.956,4.34494,0.95836
		C4.34486,0.98845,4.34479,1.01853,4.34471,1.04861C4.30011,1.08572,4.24608,1.0796,4.194,1.07977
		C3.96274,1.0805,3.73147,1.08089,3.50022,1.07946C3.44899,1.07915,3.39366,1.09041,3.35138,1.04688
		C3.38496,1.01503,3.41853,0.98318,3.4521,0.95132z"/>
	<path fill="#740800" d="M3.35138,1.04688C3.68249,1.04746,4.0136,1.04803,4.34471,1.04861
		c-0.00005,0.02114-0.0001,0.04227-0.00015,0.06341C3.9079,1.11182,3.47125,1.11163,3.03458,1.11144
		C3.12929,1.03728,3.24202,1.05022,3.35138,1.04688z"/>
	<path fill="#840001" d="M13.57331,11.50735c4.18581-0.00001,8.37163-0.00113,12.55744,0.00353
		c0.19004,0.00021,0.29563-0.0554,0.38274-0.22969c0.16242-0.32498,0.43231-0.55222,0.79334-0.63062
		c0.45629-0.09908,0.76884-0.39551,1.05344-0.72362c0.38211-0.44053,0.67487-0.94381,0.93434-1.46235
		c0.23579-0.47122,0.43826-0.95836,0.59257-1.46342c0.00919-0.03009,0.02247-0.05894,0.03384-0.08837
		c0.0614,0.00369,0.10864,0.03972,0.15904,0.06854c0.03737,0.0568,0.01249,0.11229-0.0054,0.16676
		c-0.34702,1.05696-0.82702,2.04669-1.5379,2.91237c-0.29432,0.35841-0.63386,0.66717-1.11045,0.78583
		c-0.33631,0.08374-0.58535,0.29115-0.74461,0.59826c-0.10124,0.19523-0.25431,0.27096-0.47811,0.27073
		c-4.12854-0.00414-8.2571-0.00297-12.38564-0.0036c-0.0837-0.00001-0.17195,0.01568-0.24463-0.04586
		C13.57332,11.61302,13.57331,11.56018,13.57331,11.50735z"/>
	<path fill="#6D0500" d="M30.14697,7.03427c0.05341,0.04231,0.10681,0.08462,0.16024,0.1269
		c-0.09054,0.22029-0.18458,0.43928-0.27095,0.66121c-0.17108,0.43953-0.37658,0.86179-0.60629,1.27442
		c-0.17018,0.30569-0.36357,0.59526-0.56091,0.88283c-0.07765,0.11315-0.17074,0.21585-0.25681,0.3233
		c-0.11968,0.09253-0.22609,0.19824-0.31939,0.31697c-0.26595,0.19621-0.54827,0.35459-0.87512,0.43624
		c-0.26505,0.06622-0.43303,0.2637-0.5688,0.48855c-0.01435,0.02375-0.00691,0.06831-0.05667,0.05774
		c-0.01468,0.03608-0.02229,0.07685-0.06393,0.09508h0.00007c-0.01574,0.07285-0.05693,0.11455-0.13556,0.1214
		c-0.05708,0.00497-0.10606,0.0353-0.15189,0.06878c-0.05319-0.00001-0.10638-0.00002-0.15958-0.00003
		c-0.05579,0.02607-0.11528,0.01517-0.17311,0.01517c-4.0969,0.00041-8.1938,0.00057-12.29071-0.00016
		c-0.08347-0.00002-0.17218,0.01787-0.24384-0.04674c0.00003-0.03159,0.00006-0.06318,0.00009-0.09476
		c0.07775-0.06534,0.17181-0.04601,0.26045-0.04605c2.30424-0.00092,4.60848-0.00068,6.91272-0.00073
		c1.81998-0.00003,3.63996-0.0023,5.45992,0.003c0.22822,0.00067,0.38274-0.06547,0.48111-0.28038
		c0.1293-0.28248,0.35308-0.48804,0.65422-0.56423c0.64436-0.16302,1.05716-0.607,1.4238-1.10938
		c0.56614-0.77575,0.97543-1.63131,1.28104-2.5377C30.07006,7.15753,30.07451,7.07782,30.14697,7.03427z"/>
	<path fill="#7B0300" d="M30.14697,7.03427c-0.31059,1.00948-0.75683,1.95484-1.38693,2.80678
		c-0.28216,0.38149-0.59054,0.74742-1.04931,0.9403c-0.19974,0.08398-0.41598,0.1252-0.6043,0.24036
		c-0.19829,0.12126-0.34001,0.29666-0.42217,0.50087c-0.07305,0.18156-0.20422,0.21779-0.36349,0.23722
		c-0.04716,0.00575-0.09561,0.00113-0.14347,0.00113c-4.20117,0.00009-8.40235,0.00017-12.60351,0.00025
		c-0.00015-0.03177-0.00032-0.06354-0.00047-0.09532c4.21994-0.00002,8.43987-0.00118,12.65979,0.00349
		c0.19763,0.00022,0.32114-0.07239,0.4055-0.23828c0.15592-0.30659,0.39683-0.53106,0.73005-0.61214
		c0.56083-0.13645,0.93277-0.51387,1.25877-0.93967c0.66813-0.87267,1.13305-1.85065,1.45263-2.89794
		C30.10235,6.99899,30.12466,7.01663,30.14697,7.03427z"/>
	<path fill="#6D0500" d="M13.57372,11.85594c4.1581,0,8.31621-0.00005,12.47431,0.00035
		c0.07885,0.00001,0.16033-0.01371,0.23335,0.03138c0.00357,0.02323,0.0259,0.0558-0.0173,0.06092
		c-0.04723,0.0056-0.09557,0.00237-0.14342,0.00238c-4.18225,0.00014-8.3645,0.00023-12.54674,0.00032
		C13.57386,11.9195,13.57379,11.88772,13.57372,11.85594z"/>
	<path fill="#202020" d="M3.33172,10.46112c-0.24006-0.00396-0.4317-0.20436-0.42334-0.4427
		C2.91652,9.7868,3.1126,9.60216,3.34633,9.60603c0.23999,0.00398,0.4317,0.2045,0.42331,0.44276
		C3.76149,10.28049,3.56555,10.46497,3.33172,10.46112z"/>
	<path fill="#830101" d="M2.01253,2.38342C1.92196,2.41186,1.86049,2.45816,1.8849,2.56746
		c0.00765,0.03425,0.00354,0.0725-0.03072,0.09748c-0.08596-0.064-0.17191-0.12801-0.25788-0.19203
		C1.72561,2.3999,1.86504,2.37321,2.01253,2.38342z"/>
	<path fill="#6D0500" d="M26.44095,11.8877c0.00676-0.07923,0.08067-0.08126,0.1272-0.08597
		c0.07773-0.00787,0.1164-0.0555,0.16025-0.10422c0.03466,0.05332,0.00263,0.09243-0.0379,0.11378
		C26.6132,11.85201,26.53572,11.90008,26.44095,11.8877z"/>
	<path fill="#6A0007" d="M28.29286,10.6199c0.06797-0.14387,0.17439-0.24957,0.31939-0.31697
		C28.51887,10.42158,28.41245,10.52728,28.29286,10.6199z"/>
	<path fill="#6D0500" d="M26.72833,11.69751c0.02131-0.03169,0.04262-0.06339,0.06393-0.09508
		C26.82735,11.67148,26.79085,11.69311,26.72833,11.69751z"/>
	<path fill="#600202" d="M1.02676,2.21734C1.01674,2.19524,1.00672,2.17314,0.99673,2.151
		c-0.00152-0.33779,0.00609-0.67592-0.00865-1.0131c-0.00696-0.15915,0.0467-0.20898,0.19594-0.18522
		C1.22568,0.95932,1.26883,0.95665,1.3113,0.95825c0.01353,0.01683,0.02538,0.03684,0.02147,0.05737
		C1.26858,1.35273,1.3154,1.6951,1.28279,2.03362C1.21194,2.11475,1.11217,2.15619,1.02676,2.21734z"/>
	<path fill="#650200" d="M1.28279,2.03362C1.27195,2.01648,1.25161,1.99933,1.25165,1.98222
		C1.25246,1.63985,1.2155,1.29512,1.3113,0.95824c0.14897,0.00007,0.29795,0.00013,0.44692,0.0002
		C1.73157,1.06006,1.60434,1.05294,1.56123,1.14802c-0.08066,0.17792-0.1249,0.35963-0.12228,0.55383
		c0.0012,0.08887,0.00028,0.17778,0.00032,0.26667C1.39499,2.00889,1.33654,2.01568,1.28279,2.03362z"/>
	<path fill="#820101" d="M2.01733,1.24293C1.94523,1.42685,1.86974,1.60958,1.8388,1.80654
		c-0.0095,0.06045-0.03346,0.1111-0.11075,0.10132c0.00001,0.00004-0.00162-0.00526-0.00162-0.00526
		C1.6411,1.71769,1.66002,1.52351,1.70942,1.34021C1.75413,1.17432,1.92488,1.13291,2.01733,1.24293z"/>
	<path fill="#7B0300" d="M2.01733,1.24293C1.87017,1.18206,1.73364,1.26608,1.7278,1.42807
		c-0.00569,0.158-0.00132,0.31636-0.00137,0.47454C1.64645,1.91152,1.62808,1.86765,1.62999,1.79859
		C1.63288,1.69437,1.63021,1.59,1.63076,1.48569c0.00136-0.25395,0.12069-0.37286,0.37472-0.37371
		c0.03677-0.00012,0.07354,0.00121,0.11036,0.00188C2.08305,1.15689,2.05019,1.19991,2.01733,1.24293z"/>
	<path fill="#980E0A" d="M21.23631,5.26366c0.10712,0.00033,0.21424,0.00067,0.32136,0.00101
		c-0.07921,0.49803-0.24813,0.96806-0.46378,1.42143c-0.31983,0.67236-0.7526,1.25677-1.37495,1.68736
		c-0.06245,0.04321-0.08797,0.09711-0.08512,0.17388c0.00585,0.15799,0.00242,0.3163,0.00494,0.47444
		c0.00477,0.30023,0.10428,0.46294,0.34274,0.54444c0.2413,0.08247,0.40353-0.04755,0.54835-0.21486
		c0.10267-0.14106,0.14662-0.30042,0.1505-0.47258c0.00403-0.17885-0.00932-0.358,0.00938-0.53658
		c0.02685-0.25637,0.13119-0.4849,0.25781-0.70537c0.13291-0.2314,0.32521-0.41534,0.50943-0.60241
		c0.37799-0.38385,0.76841-0.75568,1.15531-1.13084c0.22752-0.2206,0.45146-0.44401,0.6354-0.70323
		c0.01575,0.08782,0.08639,0.06203,0.13953,0.06245c0.26027,0.00206,0.52081,0.00824,0.78079-0.00057
		c0.55231-0.01872,1.02094,0.43556,0.99661,0.99715c-0.00615,0.1421,0.01904,0.28855-0.00745,0.42592
		c-0.02638,0.13675,0.03263,0.13294,0.12992,0.13262c0.64804-0.00214,1.2961-0.00083,1.94415-0.00064
		c0.04437,0.01182,0.06566,0.04947,0.09135,0.08161c0.09554,0.11958,0.2194,0.17133,0.37235,0.15687
		c0.04049-0.00383,0.0835-0.01899,0.11878,0.0166c0.20712,0.23702,0.30852,0.50649,0.29066,0.82578
		c-0.01471,0.26306-0.00854,0.52771-0.00185,0.79141c0.01392,0.54766-0.43978,0.98924-0.98267,0.98123
		c-0.52626-0.00776-1.05275,0.00103-1.57908-0.00381c-0.11497-0.00106-0.13224,0.01566-0.10804,0.13799
		c0.12119,0.61247-0.27778,1.19121-0.93449,1.19285c-2.4245,0.00605-4.84903,0.00268-7.27354,0.00215
		c-0.44322-0.0001-0.7596-0.19734-0.93325-0.60626c-0.01748-0.04115-0.03328-0.07651-0.07574-0.09466
		c0.00197-0.03996,0.03205-0.05418,0.06351-0.05864c0.17383-0.02468,0.29474-0.13175,0.41251-0.24912
		c0.66561-0.66337,1.33391-1.32407,1.99965-1.98729c0.25716-0.24654,0.23563-0.20637,0.00028-0.44302
		c-0.14905-0.14987-0.29957-0.2983-0.44999-0.44683c-0.14737-0.14552-0.19811-0.14109-0.32074,0.02685
		c-0.01553,0.02126-0.02118,0.04831-0.03887,0.06861c-0.07224,0.04464-0.13659,0.09825-0.19689,0.15824
		c-0.60261,0.59957-1.20593,1.19842-1.8099,1.79663c-0.08324,0.08245-0.1568,0.17118-0.2105,0.27522
		c-0.05967,0.11559-0.09534,0.23365-0.04438,0.36362c0.01491,0.03803,0.03006,0.08061-0.00391,0.11916
		c-0.06779-0.04175-0.14341-0.03136-0.21717-0.03137c-1.22661-0.00022-2.45323-0.00006-3.67985-0.00021
		c-0.3877-0.00005-0.67407-0.19758-0.78699-0.56276c-0.03895-0.12596-0.09111-0.17618-0.22932-0.16979
		c-0.24892,0.01151-0.49888,0.00081-0.7484-0.00062c0.00245-0.08528,0.07351-0.1246,0.12353-0.17606
		c0.31731-0.32649,0.65545-0.63266,0.96061-0.97102c0.24037-0.19572,0.23643-0.19208,0.03106-0.4112
		c-0.14439-0.15406-0.27931-0.31689-0.43546-0.45996c-0.18026-0.16516-0.20601-0.16357-0.36352,0.02002
		c-0.01374,0.01602-0.0258,0.03345-0.04035,0.0489c-0.18855,0.15398-0.35124,0.33451-0.52386,0.50472
		c-0.46192,0.4555-0.92073,0.9141-1.38265,1.3696C8.27413,9.13202,8.23562,9.20565,8.1462,9.19747
		C8.10138,9.1415,8.03824,9.16324,7.98261,9.16294c-0.34564-0.00186-0.69165-0.0109-1.03686,0.00133
		C6.38779,9.18405,5.91106,8.72776,5.94068,8.15736C5.9456,8.06261,5.94138,7.96739,5.94138,7.87238
		c0-0.15307,0.00588-0.30642-0.00164-0.45912C5.93219,7.26014,6.01753,7.132,6.04782,6.97517
		c-0.5594,0-1.1114-0.00418-1.66328,0.00201c-0.2279,0.00256-0.42953-0.06082-0.61-0.19111
		C3.52726,6.60755,3.40126,6.35888,3.38878,6.05885C3.37936,5.83228,3.3905,5.60494,3.3862,5.37806
		C3.37597,4.83851,3.82289,4.40549,4.36223,4.40642c2.21214,0.00382,4.4243,0.00137,6.63645,0.00236
		c0.09409,0.00004,0.20856,0.04553,0.2757,0.0062c0.05192-0.03041,0.03703-0.16302,0.06487-0.24589
		c0.10987-0.32708,0.38677-0.5216,0.73401-0.52167c0.55304-0.00012,1.10607,0.00007,1.65911,0.00014
		c0.00558,0.11304-0.10627,0.15173-0.14983,0.23374c-0.0628,0.0489-0.1207,0.10308-0.17715,0.15913
		c-0.88686,0.88077-1.77408,1.76119-2.66115,2.64176c-0.15136,0.15026-0.15128,0.1505,0.0051,0.30579
		c0.28938,0.28734,0.58223,0.57137,0.86638,0.86372c0.0928,0.09547,0.16387,0.10708,0.26795,0.01969
		c0.22833-0.19172,0.43139-0.40616,0.61682-0.63789c0.03994-0.04991,0.07789-0.1005,0.13786-0.12881
		c0.30388-0.32167,0.48865-0.71354,0.66029-1.11146c0.29014-0.67265,0.42289-1.3801,0.45688-2.10818
		c0.00395-0.08453,0.01284-0.16917,0.07275-0.23758c0.21789-0.00046,0.21789-0.00046,0.22622-0.2274
		c0.04922,0.10044,0.02462,0.20766,0.02444,0.31132c-0.00192,1.07362-0.19749,2.10687-0.683,3.07336
		c-0.31235,0.62179-0.7312,1.16197-1.31184,1.56348c-0.08172,0.05651-0.10872,0.11729-0.10249,0.21005
		c0.01165,0.17337,0.01755,0.34717,0.02323,0.52087c0.00735,0.22485,0.13641,0.40799,0.33472,0.47036
		c0.19105,0.06009,0.36894-0.00474,0.51501-0.18767c0.01629-0.0204,0.03262-0.04078,0.04893-0.06117
		c0.09562-0.11786,0.11602-0.25689,0.11277-0.40174c-0.00665-0.29623,0.0211-0.5878,0.09688-0.87574
		c0.03013-0.11447,0.09643-0.21012,0.13648-0.3184c0.14327-0.26864,0.35943-0.47937,0.57017-0.69227
		c0.38996-0.39397,0.78782-0.78022,1.18214-1.16994c0.21358-0.21109,0.43636-0.41397,0.60668-0.66403
		c0.27064-0.36912,0.37914-0.79119,0.41186-1.23842c0.00762-0.10418-0.02179-0.20952,0.01115-0.31268
		c0.72316-0.00003,1.44631-0.00023,2.16947-0.00003c0.47877,0.00013,0.79952,0.31663,0.79986,0.78898
		C19.0012,4.78452,19.001,5.13263,19.001,5.51104c0.23564-0.15651,0.46696-0.27797,0.74401-0.24325
		c-0.00169,0.08558-0.07237,0.12556-0.12304,0.17616c-0.41978,0.41922-0.84187,0.83617-1.26222,1.25483
		c-0.11697,0.11649-0.12332,0.15753-0.00636,0.25767c0.30629,0.26223,0.57154,0.56405,0.8534,0.84991
		c0.17815,0.18068,0.17726,0.16651,0.37361,0.01954c0.24136-0.18067,0.40375-0.43213,0.61924-0.63475
		c0.23546-0.19826,0.38153-0.46074,0.52056-0.72596C20.8961,6.1296,21.0584,5.78752,21.14983,5.4172
		c0.01253-0.05073,0.02843-0.10152,0.06635-0.14132C21.22283,5.27174,21.22957,5.2677,21.23631,5.26366z"/>
	<path fill="#FEFEFE" d="M18.70367,8.02519c-0.02085,0.05739-0.07132,0.09031-0.11194,0.13069
		c-0.61407,0.61058-1.2312,1.21818-1.84176,1.83219c-0.15274,0.1536-0.31215,0.28162-0.53428,0.31097
		c-0.27085-0.01404-0.46655-0.14588-0.59921-0.37656c-0.12805-0.28862-0.02797-0.51746,0.18249-0.72523
		c0.64464-0.63643,1.28552-1.27661,1.92968-1.91352c0.03999-0.03954,0.0673-0.11858,0.15219-0.0788
		c0.02194-0.00085,0.04282,0.00502,0.05828,0.01954c0.25601,0.24056,0.50605,0.48708,0.74711,0.74245
		C18.70082,7.98235,18.70601,8.00335,18.70367,8.02519z"/>
	<path fill="#FEFEFE" d="M8.1462,9.19747c0.51099-0.50329,1.02213-1.00643,1.53286-1.50999
		c0.14284-0.14083,0.28393-0.28341,0.42705-0.42395c0.03245-0.03186,0.05661-0.07991,0.1151-0.072
		c0.08426,0.02895,0.13073,0.10305,0.19102,0.15993c0.17164,0.16193,0.3294,0.33792,0.51612,0.48481
		c0.05802,0.04564,0.13343,0.09086,0.1287,0.18468c-0.01022,0.06406-0.06608,0.09366-0.10595,0.13398
		c-0.33128,0.33508-0.66403,0.66873-0.99634,1.0028c-0.32145,0.3147-0.64283,0.62948-0.96437,0.94409
		c-0.17896,0.1751-0.3932,0.23096-0.62976,0.15542c-0.23727-0.07577-0.3755-0.25247-0.42643-0.4912
		C7.88497,9.53535,8.00015,9.35939,8.1462,9.19747z"/>
	<path fill="#9A0510" d="M13.82828,3.64749c-0.04889,0.68952-0.12806,1.37451-0.35769,2.03186
		c-0.15961,0.45691-0.37858,0.88664-0.64896,1.28928c-0.04297,0.06399-0.10532,0.11517-0.15926,0.17176
		c-0.00109,0.00115-0.00971-0.00319-0.0134-0.00651c-0.00377-0.0034-0.00579-0.00871-0.00858-0.01319
		c-0.02694-0.06365,0.0106-0.11234,0.04064-0.16092c0.46242-0.74804,0.68559-1.57193,0.7884-2.43484
		c0.01562-0.13109,0.02705-0.26174,0.03142-0.39368c0.00294-0.08866,0.01066-0.17973,0.06888-0.2554
		c0.00858-0.10812,0.12395-0.14129,0.16264-0.22828C13.76434,3.64753,13.79631,3.64751,13.82828,3.64749z"/>
	<path fill="#202020" d="M27.81369,7.07236c-0.2912,0.06892-0.45018-0.00071-0.58243-0.25509
		c-0.05619-0.23787,0.01946-0.42663,0.20996-0.52397c0.17303-0.08842,0.40087-0.04563,0.52259,0.09816
		c0.13777,0.16274,0.13992,0.38135,0.0097,0.55294C27.93022,7.00144,27.86607,7.02874,27.81369,7.07236z"/>
	<path fill="#202020" d="M3.92946,3.0648c-0.002,0.23815-0.20244,0.43007-0.44251,0.42371
		C3.25409,3.48234,3.0659,3.28871,3.0679,3.05735C3.06996,2.81912,3.27037,2.6272,3.5104,2.63359
		C3.7432,2.63978,3.9314,2.83344,3.92946,3.0648z"/>
	<path fill="#95010D" d="M23.56475,3.80598c0.04323,0.01061,0.08647,0.02123,0.12969,0.03184
		c0.01186,0.45025-0.09268,0.86901-0.34017,1.25002c-0.02904,0.0447-0.05558,0.08895-0.10592,0.11266
		C23.49825,4.76795,23.59894,4.30204,23.56475,3.80598z"/>
	<path fill="#9B0610" d="M20.94753,7.63682c-0.03713,0.19629-0.16171,0.36071-0.19291,0.56279
		c-0.03742,0.24228-0.02028,0.48354-0.02994,0.72512c-0.00669,0.16724-0.04325,0.32343-0.19482,0.42664
		c0.07395-0.21248,0.06277-0.43324,0.06158-0.65243c-0.00196-0.36063,0.09261-0.69196,0.29484-0.99206
		C20.90345,7.68137,20.92696,7.66007,20.94753,7.63682z"/>
	<path fill="#9B0711" d="M13.24963,7.72481c-0.06679,0.25075-0.14669,0.497-0.17207,0.75898
		c-0.01677,0.17314-0.00864,0.34465-0.01457,0.51675c-0.00457,0.13257-0.03513,0.2483-0.15948,0.32014
		c0.05658-0.19019,0.02483-0.38548,0.03389-0.57841c0.01589-0.33871,0.07463-0.66599,0.26028-0.95911
		C13.21141,7.76148,13.23214,7.74416,13.24963,7.72481z"/>
	<path fill="#9B0610" d="M16.03162,3.64747c0.06404,0.20086,0.03122,0.40151,0.00021,0.60259
		c-0.04911,0.31845-0.16243,0.61251-0.33716,0.88339c-0.01989,0.03083-0.04721,0.05659-0.08601,0.06513
		c0.19004-0.36327,0.32726-0.74186,0.3229-1.15766c-0.00137-0.13097-0.02032-0.26176-0.03123-0.39263
		c0.04345-0.04047,0.08725-0.03317,0.13123-0.00093L16.03162,3.64747z"/>
	<path fill="#96010F" d="M16.03155,3.64735c-0.04373,0.00031-0.08747,0.00062-0.13121,0.00093
		c-0.07401-0.27674-0.17441-0.54308-0.31694-0.79283c0.06408,0.00008,0.12817,0.00017,0.19225,0.00026
		C15.89998,3.10716,16.00289,3.36543,16.03155,3.64735z"/>
	<path fill="#FEFEFE" d="M20.20437,7.22571c-0.21813,0.25816-0.43638,0.51544-0.71184,0.71866
		c-0.07631,0.05629-0.12415,0.06718-0.19709-0.0068c-0.34158-0.34649-0.68581-0.69057-1.03619-1.02825
		c-0.08397-0.08092-0.03881-0.11637,0.01738-0.17188c0.45165-0.44619,0.90198-0.89369,1.35212-1.34137
		c0.04087-0.04065,0.07759-0.08542,0.11624-0.12828c0.47783-0.45188,0.94309-0.91622,1.39838-1.39044
		c0.0887,0.00756,0.11062,0.02451,0.10231,0.12987c-0.01283,0.16266-0.01767,0.3262-0.0367,0.48794
		c-0.02522,0.21435-0.05478,0.42854-0.09464,0.64079c-0.08636,0.34145-0.16546,0.68609-0.29872,1.01322
		C20.65912,6.53334,20.50033,6.91854,20.20437,7.22571z"/>
	<path fill="#96010F" d="M21.07253,5.15309c0.05055-0.3813,0.11362-0.76147,0.12001-1.147
		c0.00068-0.04125,0.05907-0.122-0.04917-0.12874c0.01264-0.09383,0.11833-0.04807,0.15688-0.10302
		c0.11127-0.00805,0.12936,0.05817,0.12845,0.1494c-0.00421,0.42381-0.07917,0.83734-0.17751,1.24779
		c-0.00723,0.03018-0.01003,0.0614-0.01488,0.09213c0,0-0.00015,0.00021-0.00015,0.00021
		C21.08554,5.31525,21.06611,5.30209,21.07253,5.15309z"/>
	<path fill="#FEFEFE" d="M13.56973,3.87583c-0.04072,0.68048-0.1276,1.35236-0.34353,2.00413
		c-0.1451,0.43799-0.34963,0.84619-0.58582,1.24072c-0.23826,0.29727-0.47784,0.59201-0.78786,0.82328
		c-0.08875,0.06621-0.13573,0.05768-0.20829-0.01583c-0.33867-0.34311-0.68058-0.68315-1.02598-1.01957
		c-0.06597-0.06425-0.0601-0.09635,0.00244-0.15819c0.9459-0.93535,1.88889-1.87359,2.83348-2.81024
		C13.48526,3.9093,13.50772,3.85518,13.56973,3.87583z"/>
	<path fill="#9A0510" d="M11.05704,8.02094c-0.27861-0.27647-0.55722-0.55294-0.83583-0.82941
		c0.01958-0.10361,0.11597-0.14579,0.17699-0.21603c0.03842-0.04422,0.07132-0.01294,0.1086,0.01326
		c0.29835,0.20968,0.49861,0.51591,0.76242,0.75936c0.03205,0.02957,0.04062,0.06506,0.00495,0.09552
		C11.20315,7.90429,11.15976,7.99866,11.05704,8.02094z"/>
	<path fill="#990410" d="M18.70367,8.02519c-0.27427-0.27342-0.54855-0.54684-0.82283-0.82026
		c-0.02214-0.1409,0.10165-0.18755,0.18231-0.24563c0.07159-0.05155,0.11796,0.04498,0.16373,0.08935
		c0.20172,0.19556,0.39352,0.40165,0.60162,0.59011c0.1206,0.10922,0.13043,0.19145-0.00231,0.28716
		C18.78361,7.95662,18.74442,7.99196,18.70367,8.02519z"/>
	<path fill="#9A0611" d="M21.07253,5.15309c-0.00786,0.12773,0.08297,0.11184,0.16362,0.11077
		c-0.12271,0.50882-0.33235,0.98369-0.59899,1.43137c-0.11592,0.19463-0.2197,0.40944-0.43279,0.53047
		c0.42358-0.61893,0.69441-1.30057,0.84705-2.03088C21.05449,5.1801,21.06532,5.16697,21.07253,5.15309z"/>
	<path fill="#9A0612" d="M17.7259,8.49641c-0.01908,0.15841-0.11301,0.23845-0.2692,0.25334
		c-0.15784,0.01505-0.26428-0.05696-0.32234-0.19768c-0.05778-0.14004-0.00846-0.2652,0.13799-0.3744
		c0.0889-0.0346,0.15096-0.01699,0.17761,0.08334C17.4872,8.40119,17.6244,8.42881,17.7259,8.49641z"/>
	<path fill="#9A0611" d="M16.89415,9.32047c-0.04701,0.18997-0.13646,0.26221-0.31728,0.25623
		c-0.15291-0.00505-0.26928-0.10805-0.29165-0.25814c-0.02427-0.16286,0.05351-0.28102,0.22588-0.34316
		c0.01375,0.00748,0.03513,0.01351,0.03831,0.02542C16.59715,9.17948,16.72165,9.27515,16.89415,9.32047z"/>
	<path fill="#99100C" d="M16.89415,9.32047c-0.24139-0.00081-0.26983-0.02643-0.38305-0.34507
		C16.76657,8.92881,16.91392,9.06155,16.89415,9.32047z"/>
	<path fill="#9A120F" d="M17.7259,8.49641c-0.1717-0.0012-0.28767-0.07777-0.32099-0.24944
		c-0.01708-0.08797-0.08134-0.06013-0.13256-0.0693c0.11354-0.08054,0.22963-0.06477,0.33491,0.00774
		C17.71381,8.2588,17.76343,8.36381,17.7259,8.49641z"/>
	<path fill="#9A0511" d="M10.06318,8.56645c-0.05206,0.16062-0.17839,0.19602-0.32623,0.18186
		C9.59931,8.73513,9.51556,8.64727,9.48586,8.51972C9.45191,8.37394,9.48973,8.24912,9.63569,8.17571
		c0.07164-0.0286,0.12135-0.00542,0.15451,0.06214c0.04574,0.09319,0.11389,0.16097,0.21697,0.19235
		C10.07794,8.45174,10.09036,8.50242,10.06318,8.56645z"/>
	<path fill="#96020F" d="M9.25676,9.32035C9.19065,9.53927,9.03239,9.63192,8.8389,9.56496
		c-0.15716-0.05438-0.24468-0.25641-0.17884-0.4213c0.03741-0.09369,0.09562-0.16414,0.21352-0.14287
		c0.09006-0.0004,0.06488,0.07697,0.08531,0.12357C8.98296,9.2204,9.04975,9.2666,9.14419,9.27995
		C9.18469,9.28568,9.22637,9.28728,9.25676,9.32035z"/>
	<path fill="#9A120F" d="M10.06318,8.56645c-0.00583-0.03936,0.00378-0.09397-0.0536-0.09745
		C9.8597,8.45991,9.7918,8.35893,9.7458,8.2395c-0.02271-0.05896-0.06368-0.05944-0.1101-0.06379
		c0.13023-0.08506,0.25443-0.05969,0.36122,0.03613C10.10517,8.30899,10.13413,8.43112,10.06318,8.56645z"/>
	<path fill="#9A110D" d="M8.9111,9.16197C8.90305,9.10722,8.93333,9.04368,8.87358,9.00079
		c0.14406-0.08401,0.27966-0.02441,0.36234,0.15925C9.12812,9.23916,9.01973,9.21958,8.9111,9.16197z"/>
	<path fill="#8C0206" d="M8.9111,9.16197c0.10827-0.00064,0.21655-0.00129,0.32482-0.00193
		c0.04143,0.04902,0.03074,0.10472,0.02084,0.16032C9.1077,9.34031,8.98525,9.30308,8.9111,9.16197z"/>
</g>
</svg>
