<?xml version="1.0" encoding="utf-8"?>
<!-- Generator: Adobe Illustrator 23.0.0, SVG Export Plug-In . SVG Version: 6.00 Build 0)  -->
<svg version="1.1" id="Слой_1" xmlns="http://www.w3.org/2000/svg" xmlns:xlink="http://www.w3.org/1999/xlink" x="0px" y="0px" width="32px" height="13px"
	 viewBox="0 0 32 13" enable-background="new 0 0 32 13" xml:space="preserve">
<g>
	<path fill="#2D2D2D" d="M0.86438,12.99689c-0.02129,0-0.04257,0-0.06386,0c-0.33183-0.05126-0.56626-0.23332-0.72469-0.52323
		c-0.04681-0.08566-0.04517-0.18058-0.07358-0.26911c0-2.20796,0-4.41593,0-6.6239c0.03484-0.02885,0.07491-0.03615,0.11867-0.0287
		c0.30471,0.10753,0.41072,0.26299,0.41096,0.61574c0.00116,1.65234,0.00038,3.30467,0.00055,4.95701
		c0.00003,0.25339-0.00339,0.50683,0.00116,0.76017c0.0063,0.35067,0.20489,0.54537,0.55886,0.55347
		c0.06912,0.00158,0.13828,0.00062,0.20742,0.00062c5.03139,0.00002,10.06278,0.00001,15.09417,0.00004
		c0.07446,0,0.14894-0.00118,0.22337,0.00091c0.30537,0.00858,0.46824,0.1301,0.56346,0.41944
		c0.00416,0.04391-0.00023,0.08515-0.03737,0.11586c-0.06345,0.01024-0.12743,0.00507-0.19116,0.00508
		c-5.29465,0.00028-10.58931,0.00018-15.88396,0.00114C1.00052,12.98146,0.93019,12.9644,0.86438,12.99689z"/>
	<path fill="#262727" d="M31.99691,6.78501c-0.06809,0.03773-0.04715,0.11021-0.0594,0.16591
		c-0.39912,1.81492-1.17801,3.443-2.43218,4.8313c-0.4517,0.50001-0.98541,0.89516-1.64168,1.10545
		c-0.12238,0.03921-0.25887,0.03076-0.36898,0.10923c-0.05322,0-0.10644,0-0.15965,0
		c-0.06033-0.03172-0.1254-0.01548-0.18795-0.0155c-3.31336-0.00108-6.62672-0.00052-9.94008-0.00103
		c-0.02224,0.00184-0.04137-0.00496-0.05738-0.02037c-0.00017-0.02996-0.00034-0.05991-0.00051-0.08987
		c0.08267-0.06982,0.18268-0.04486,0.27569-0.04491c2.59014-0.0014,5.18027-0.00111,7.77041-0.00111
		c0.64355,0,1.2872-0.00727,1.9306,0.00236c0.49167,0.00736,0.93093-0.14304,1.34224-0.3928
		c0.301-0.18277,0.55404-0.4214,0.80717-0.66499c0.73802-0.71021,1.25873-1.56714,1.6928-2.47521
		c0.38063-0.7963,0.69538-1.62145,0.83759-2.5003c0.01682-0.10392,0.00055-0.21207,0.04271-0.31225
		c0.0232-0.0356,0.0571-0.0408,0.09553-0.03289c0.04341,0.0116,0.02779,0.06034,0.05309,0.08344
		C31.99691,6.61598,31.99691,6.7005,31.99691,6.78501z"/>
	<path fill="#1A1A1A" d="M31.96234,6.46723c-0.031,0.00035-0.062,0.0007-0.09299,0.00104
		c-0.04768,0.02092-0.07374,0.01214-0.06417-0.04593c0.06069-0.15727,0.01531-0.31383-0.01153-0.4675
		c-0.12363-0.70764-0.3736-1.37623-0.67246-2.02565c-0.39923-0.86754-0.87418-1.69429-1.5115-2.41274
		c-0.40353-0.4549-0.84485-0.87703-1.40298-1.15401c-0.37872-0.18794-0.78015-0.2781-1.20081-0.279
		c-1.30331-0.00278-2.60663-0.00102-3.90994-0.00102C17.16452,0.08241,11.23311,0.08235,5.3017,0.0829
		C5.19102,0.08291,5.07693,0.0664,4.97479,0.12906C4.9251,0.14924,4.90504,0.12154,4.8939,0.07953
		C4.89063,0.05006,4.90097,0.02499,4.91959,0.00265c7.5676,0,15.1352,0,22.7028,0c0.54759,0.15526,1.0308,0.4242,1.46031,0.79567
		c0.5872,0.50784,1.05577,1.11147,1.46041,1.76601c0.62535,1.01153,1.10948,2.08313,1.37427,3.24589
		c0.02359,0.10359,0.01348,0.2163,0.07953,0.30924c0,0.06339,0,0.12677,0,0.19016
		C31.95632,6.35587,32.00552,6.42153,31.96234,6.46723z"/>
	<path fill="#262626" d="M4.91959,0.00265C4.91953,0.02372,4.91946,0.04479,4.9194,0.06586
		C4.83698,0.13386,4.7376,0.11535,4.64366,0.11545C3.43113,0.11669,2.21857,0.12083,1.00609,0.11297
		C0.70621,0.11102,0.48755,0.23008,0.30525,0.45172C0.17943,0.6047,0.14719,0.77848,0.14746,0.96921
		C0.14953,2.41554,0.14915,3.86187,0.1475,5.30819C0.1474,5.40055,0.17056,5.5,0.09806,5.58065
		C0.06612,5.58065,0.03419,5.58066,0.00225,5.58067c0-1.61636,0-3.23271,0-4.84907c0.05855-0.37618,0.26539-0.62436,0.63862-0.72895
		C2.06711,0.00265,3.49335,0.00265,4.91959,0.00265z"/>
	<path fill="#697681" d="M17.1496,12.95999c0.00971,0.00373,0.01962,0.00684,0.02972,0.00935
		c0.01135,0.00546,0.01536,0.01135,0.0121,0.0177c-0.00336,0.00656-0.00681,0.00985-0.0104,0.00985
		c-5.43888,0-10.87776,0-16.31664,0c0.04293-0.06313,0.1075-0.03101,0.16095-0.03103
		c5.32693-0.00157,10.65386-0.00146,15.98078-0.00165C17.05394,12.96421,17.10177,12.96146,17.1496,12.95999z"/>
	<path fill="#535F69" d="M17.18102,12.99689c-0.00011-0.00922-0.00067-0.01842-0.00169-0.02757
		c0.05315-0.00135,0.1063-0.00391,0.15946-0.00392c3.28301-0.00031,6.56602-0.00052,9.84904,0.0004
		c0.04974,0.00001,0.10786-0.02364,0.14719,0.03109C23.95035,12.99689,20.56568,12.99689,17.18102,12.99689z"/>
	<path fill="#404C56" d="M31.96234,6.46723c0.01474-0.05184-0.02378-0.1152,0.03457-0.15762c0,0.07395,0,0.1479,0,0.22185
		C31.96879,6.51885,31.9657,6.49297,31.96234,6.46723z"/>
	<path fill="#202020" d="M0.09806,5.58065C0.09805,4.01743,0.10982,2.45405,0.08924,0.8911
		C0.08445,0.52774,0.56309,0.05118,0.929,0.05727c1.32981,0.02213,2.66022,0.00865,3.9904,0.0086
		c0.00082,0.0261,0.00637,0.04985,0.03205,0.06362c0.04709,0.01845,0.07438,0.05854,0.10439,0.09523
		c0.09335,0.11412,0.21531,0.16798,0.36174,0.17204c0.07979,0.00221,0.15958,0.00156,0.23937,0.00156
		c7.02742,0.00005,14.05485,0.00472,21.08224-0.00885c0.55955-0.00108,1.03671,0.16136,1.51142,0.41422
		c0.69125,0.36822,1.18681,0.92978,1.63055,1.55255c0.44339,0.62228,0.72894,1.3228,1.03885,2.01153
		c0.17583,0.39077,0.33193,0.7898,0.43026,1.20797c0.07684,0.32678,0.16073,0.64804,0.4549,0.86085
		c0.01393,0.02544,0.0379,0.03087,0.06417,0.03169c0.00679,0.4485-0.11965,0.87264-0.25237,1.29329
		C31.47009,8.22714,31.28036,8.6759,31.0855,9.1251c-0.31538,0.72701-0.72503,1.39095-1.19183,2.02606
		c-0.20607,0.28037-0.46843,0.50803-0.70507,0.75982c-0.29875,0.31787-0.64621,0.55719-1.03588,0.74066
		c-0.29409,0.13847-0.60365,0.22004-0.93493,0.21982c-3.35623-0.00217-6.71246-0.00134-10.06869-0.00135
		c-0.10196-0.29204-0.31434-0.38412-0.61641-0.38384c-5.14297,0.0049-10.28595,0.00073-15.42891,0.00972
		c-0.34751,0.00061-0.6312-0.28367-0.62889-0.61816C0.48795,9.98279,0.47759,8.0876,0.48491,6.1925
		C0.48607,5.8926,0.39224,5.6819,0.09806,5.58065z"/>
	<path fill="#131313" d="M31.80517,6.43658c-0.22489-0.05813-0.3148-0.23909-0.38186-0.43072
		c-0.12856-0.36732-0.19736-0.75171-0.34122-1.11655c-0.1529-0.38775-0.32439-0.76677-0.49199-1.14769
		c-0.26201-0.59548-0.5898-1.15122-0.98069-1.67579c-0.54525-0.73173-1.24973-1.23284-2.10038-1.54994
		c-0.1428-0.05323-0.28386-0.07104-0.43437-0.071C19.86952,0.44657,12.66438,0.44611,5.45924,0.44746
		c-0.24171,0.00005-0.42205-0.08049-0.5078-0.31798c-0.00063-0.0524,0.00931-0.09576,0.07663-0.09463
		c0.04787,0.0008,0.09578-0.00043,0.14367-0.00043c7.2745-0.00003,14.54901-0.00003,21.82351-0.00001
		c0.56069,0,1.07189,0.15545,1.53923,0.46554c0.26429,0.17536,0.50902,0.36582,0.7284,0.59852
		c0.23091,0.24492,0.48029,0.47097,0.6816,0.74412c0.61088,0.82887,1.10445,1.72031,1.47853,2.67769
		c0.19014,0.48661,0.34237,0.98383,0.43793,1.49731c0.0201,0.10803,0.00456,0.21988,0.03675,0.32844
		C31.91769,6.41346,31.87008,6.44028,31.80517,6.43658z"/>
	<path fill="#262626" d="M14.06729,0.8267c4.25701,0,8.51402,0.00227,12.77102-0.00238
		c0.65999-0.00072,1.20755,0.22893,1.69847,0.66204c0.35503,0.31323,0.66577,0.66382,0.93065,1.04394
		c0.38423,0.55139,0.7165,1.13639,0.98287,1.75925c0.13999,0.32734,0.28699,0.65252,0.39913,0.98903
		c0.20148,0.60464,0.31037,1.2158,0.1263,1.85574c-0.13371,0.46487-0.27074,0.93114-0.46628,1.36928
		c-0.2834,0.635-0.57927,1.27059-0.99251,1.83776c-0.22759,0.31237-0.45426,0.63392-0.73114,0.90034
		c-0.3826,0.36815-0.79636,0.71704-1.35007,0.81561c-0.17603,0.03134-0.35697,0.05-0.53567,0.05005
		c-8.55659,0.00238-17.11317,0.00208-25.66976,0.00206c-0.03193,0-0.06403,0.0018-0.09575-0.00084
		c-0.20115-0.01675-0.25378-0.06931-0.26925-0.27013c-0.00324-0.04202-0.00088-0.08447-0.00088-0.12672
		c-0.00002-3.49647-0.00003-6.99294,0-10.48941c0-0.35748,0.03853-0.39559,0.39995-0.39559
		C5.53201,0.82669,9.79965,0.8267,14.06729,0.8267z"/>
	<path fill="#620200" d="M27.62095,1.0463c0.51621,0.15858,0.90151,0.50571,1.25181,0.88845
		c0.62957,0.68787,1.09368,1.48456,1.48232,2.32519c0.12803,0.27692,0.23371,0.56408,0.34655,0.84776
		c0.01492,0.03751,0.01162,0.08216,0.01676,0.1235c-0.04998,0.18185-0.07733,0.36955-0.15375,0.54459
		c-0.13621,0.31199-0.56094,0.58981-0.90933,0.5902c-0.55615-0.10583-1.01698-0.37011-1.4092-0.77917
		c-0.46267-0.48254-0.99683-0.87908-1.6425-1.08775c-0.8349-0.26982-1.68663-0.47476-2.55991-0.58751
		c-0.83192-0.10741-1.66677-0.04867-2.50026-0.05918c-0.40392-0.0051-0.70317-0.15549-0.89858-0.51402
		C20.51495,3.1,20.29649,2.97575,20.02946,2.93364c-0.16299-0.02571-0.32662-0.0375-0.49212-0.03607
		c-0.22315,0.00193-0.4465,0.00825-0.66942-0.00423c-0.01623-0.00209-0.03204-0.00665-0.04715-0.01287
		c-0.12458-0.09337-0.18917-0.23898-0.30394-0.34269c-0.17103-0.15455-0.27954-0.16049-0.4565-0.00837
		c-0.10823,0.08332-0.21128,0.17212-0.30636,0.27011c-0.04815,0.04962-0.10334,0.08917-0.17611,0.09659
		c-0.07438,0.01-0.14891,0.00791-0.22333,0.00792c-1.64326,0.00018-3.28654-0.00321-4.92978,0.00273
		c-0.35747,0.00129-0.63967-0.12314-0.85885-0.39963c-0.04926-0.06215-0.10105-0.12251-0.15275-0.1828
		c-0.16079-0.18751-0.35726-0.27937-0.61335-0.27867C8.95449,2.05077,7.10913,2.04897,5.26379,2.04806
		C4.80174,2.04784,4.5038,1.83924,4.3417,1.40866C4.33051,1.34516,4.30678,1.28384,4.3045,1.21848
		C4.30228,1.18217,4.30067,1.14578,4.3023,1.10929C4.30207,1.08098,4.30279,1.05277,4.30604,1.0245
		c0.00917-0.03942,0.0178-0.07934,0.06863-0.08599c7.59531-0.00098,15.1905-0.00017,22.78568,0.00007
		c0.04706,0,0.09598-0.01083,0.14094,0.01368c0.06401,0.01133,0.12803,0.02266,0.19204,0.034
		C27.53715,1.00359,27.59399,0.99367,27.62095,1.0463z"/>
	<path fill="#8C1B0A" d="M13.57186,12.01116c-0.14883,0.00108-0.29765,0.0031-0.44648,0.00311
		c-3.3493,0.00018-6.6986,0.00016-10.0479,0.00003c-0.07924,0-0.15992,0.00954-0.23425-0.02953
		c-0.13656-0.00554-0.22033-0.09933-0.29885-0.18967c-0.15751-0.18121-0.24002-0.39537-0.25259-0.63566
		c-0.01334-0.2549-0.05339-0.293-0.31659-0.30885c-0.43558-0.02622-0.92041-0.44408-0.98826-0.8503
		c-0.00962-0.05758-0.01931-0.114,0.00142-0.1708c0.00003-0.04373,0.00006-0.08747,0.00009-0.1312
		C0.96612,9.64217,0.97719,9.58354,0.97717,9.5262C0.97653,7.42873,0.97659,5.33126,0.97662,3.23416
		C1.0059,2.85808,1.28185,2.50745,1.59507,2.44852c0.13234,0.03954,0.2233,0.13319,0.30967,0.23335
		C1.99387,2.81131,1.99931,2.9583,1.99926,3.10769C1.99876,4.84502,1.99982,6.58235,1.9981,8.31968
		c-0.00034,0.3462,0.11951,0.62873,0.41195,0.8285c0.1683,0.11497,0.35821,0.15551,0.55961,0.1555
		c0.5799-0.00003,1.15981-0.00177,1.73971,0.00065C5.09788,9.30594,5.34855,9.50491,5.4426,9.87952
		c0.11409,0.45445,0.44611,0.71658,0.9215,0.72271c0.28725,0.00371,0.57457,0.0008,0.86187,0.00082
		c0.86719,0.00007,1.73439-0.00017,2.60158,0.00032c0.0849,0.00005,0.17039-0.00637,0.25401,0.01365
		c0.07774,0.02347,0.09304,0.09241,0.11603,0.15683c0.18742,0.52499,0.73338,0.64722,1.13487,0.25411
		c0.113-0.11065,0.22373-0.22359,0.33737-0.33358c0.0491-0.04752,0.09744-0.0988,0.1762-0.0921
		c0.33443,0.00582,0.66864,0.00137,1.00283,0.00276c0.49456,0.00206,0.7696,0.27313,0.77075,0.75993
		c0.0001,0.0421,0.00175,0.08425-0.00193,0.1262c-0.00008,0.05305,0.00164,0.10622-0.00145,0.15926
		c-0.00035,0.0338,0.00089,0.06769-0.00109,0.10147c-0.00023,0.03282,0.00014,0.06571-0.00104,0.09856
		c0.00004,0.03267-0.00071,0.06532-0.00637,0.09767C13.60264,11.97295,13.58954,11.99335,13.57186,12.01116z"/>
	<path fill="#600202" d="M30.65766,7.83003c-0.07583,0.33046-0.22474,0.63416-0.36579,0.93855
		c-0.31953,0.68954-0.68579,1.35418-1.17,1.94622c-0.42052,0.51417-0.87605,0.98841-1.52774,1.22027
		c-0.22999,0.08183-0.46637,0.08732-0.70552,0.07663c0.08045-0.35044,0.20605-0.69088,0.59612-0.78292
		c0.75376-0.17785,1.2167-0.70668,1.63485-1.28503c0.54235-0.75013,0.94-1.57749,1.24132-2.45064
		c0.02314-0.06705,0.02827-0.14911,0.11411-0.17834C30.63399,7.45227,30.68699,7.62678,30.65766,7.83003z"/>
	<path fill="#640200" d="M30.46423,7.32379c-0.19655,0.60235-0.45177,1.18004-0.74909,1.73941
		c-0.35343,0.66494-0.77777,1.2789-1.34813,1.78139c-0.20869,0.18387-0.45552,0.31082-0.72797,0.3733
		c-0.31481,0.0722-0.53735,0.23421-0.63256,0.55226c-0.02534,0.08465-0.07786,0.16127-0.1179,0.24156
		c-0.06908,0.00088-0.13816,0.00257-0.20725,0.00257c-4.30075,0.00012-8.6015,0.00013-12.90225-0.00002
		c-0.06908,0-0.13815-0.002-0.20723-0.00309c0.00068-0.01998,0.00137-0.03994,0.00206-0.0599
		c0.07677-0.06807,0.17114-0.04681,0.25946-0.04683c3.78476-0.0009,7.56952-0.00076,11.35428-0.00077
		c0.29768,0,0.59536,0.00047,0.89303-0.00041c0.05776-0.00017,0.11747,0.01018,0.17134-0.02087
		c0.0478-0.02557,0.09908-0.03419,0.15285-0.02836c0.11796-0.00735,0.23491-0.01695,0.30176-0.13592
		c0.00476-0.01281,0.01186-0.02442,0.02025-0.03515c0.03079-0.02695,0.04579-0.06403,0.06319-0.09976
		c0.15954-0.32552,0.41499-0.53199,0.77117-0.61458c0.26895-0.06236,0.48222-0.22867,0.70561-0.37564
		c0.12014-0.09152,0.22559-0.1976,0.31831-0.31634c0.6347-0.77346,1.09818-1.64344,1.46348-2.56771
		c0.0558-0.14117,0.11047-0.2836,0.15681-0.42861c0.01761-0.0551,0.03074-0.11432,0.10188-0.12786
		C30.39596,7.17679,30.46666,7.21735,30.46423,7.32379z"/>
	<path fill="#202020" d="M1.59628,2.47289C1.32416,2.5497,1.18467,2.75974,1.06881,2.99243
		C1.03875,3.0528,1.01488,3.11621,0.98817,3.17823c0,0-0.01247,0.00937-0.01247,0.00937L0.96274,3.1789
		C0.96188,2.92171,0.96156,2.66451,0.95974,2.40733c-0.00038-0.05336,0.00228-0.10488,0.0328-0.15107
		c0.00137-0.02265,0.01042-0.04207,0.02494-0.05927c0.07823-0.07671,0.17539-0.12773,0.26368-0.19107
		C1.33459,1.97671,1.3924,1.95859,1.44983,1.93935c0.08802-0.02751,0.18075-0.03516,0.26839-0.06377
		c0.07963-0.02665,0.08249-0.09867,0.09832-0.16314c0.03958-0.16122,0.08715-0.31965,0.16673-0.46682
		c0.03322-0.04854,0.06691-0.09683,0.10319-0.14325c0.05213-0.05958,0.11108-0.11108,0.18168-0.14851
		C2.32538,0.91903,2.3889,0.92133,2.45267,0.92148c0.3334,0.00079,0.6668,0.00069,1.0002,0.00089
		C3.4636,0.93525,3.46831,0.95002,3.46706,0.96671c-0.01718,0.06154-0.06752,0.0861-0.12098,0.10729
		C3.24966,1.09472,3.1473,1.08725,3.05624,1.13378C2.98824,1.16057,2.92095,1.18877,2.8616,1.23248
		c-0.07087,0.05477-0.14763,0.1024-0.20606,0.172c-0.22504,0.17024-0.30636,0.40368-0.3142,0.67551
		C2.33468,2.31091,2.24984,2.39277,2.0135,2.42206C1.87038,2.4062,1.73814,2.47883,1.59628,2.47289z"/>
	<path fill="#202020" d="M30.46423,7.32379c-0.03867-0.06721-0.0942-0.11839-0.15699-0.16266
		c-0.07437-0.00717-0.12312-0.05759-0.17558-0.1019c-0.02518-0.02384-0.05254-0.04466-0.08407-0.05994
		c-0.054-0.0282-0.11117-0.04748-0.17016-0.06264c-0.13699-0.04254-0.27521-0.07216-0.41961-0.08024
		c-0.15388-0.00861-0.24715-0.11472-0.24199-0.2557c0.00511-0.13952,0.12262-0.26622,0.26186-0.266
		c0.06156,0.0001,0.12496-0.01548,0.18634,0.00473c0.59019-0.1246,0.87246-0.38449,0.96099-0.90222
		c0.01286-0.0752,0.01128-0.16024,0.09337-0.206c0.115,0.23042,0.17027,0.47906,0.22518,0.72781
		c-0.05246,0.25412-0.23068,0.41452-0.42534,0.56287c-0.12949,0.09868-0.12844,0.0979-0.00367,0.19173
		c0.15207,0.11436,0.29974,0.23318,0.36498,0.42186c-0.06188,0.23533-0.11168,0.47446-0.2219,0.69455
		C30.6249,7.64934,30.58547,7.47117,30.46423,7.32379z"/>
	<path fill="#202020" d="M0.98835,9.8295c0.04376,0.41251,0.30151,0.68543,0.62408,0.90275
		c0.12622,0.08504,0.29385,0.07294,0.44758,0.07808c0.18185,0.00608,0.27087,0.08452,0.27104,0.2587
		c0.0004,0.40142,0.16073,0.71004,0.51218,0.91573c-0.24311,0.04944-0.48608,0.0482-0.7289-0.00203
		c-0.15288-0.0699-0.21042-0.214-0.22697-0.35606c-0.02769-0.23771-0.14449-0.33837-0.37886-0.37571
		c-0.20233-0.03223-0.39277-0.12507-0.52099-0.30296c-0.00993-0.01589-0.00833-0.03053,0.00472-0.04394
		c-0.05291-0.08787-0.03459-0.18533-0.03028-0.27791C0.97434,10.36067,0.92422,10.09311,0.98835,9.8295z"/>
	<path fill="#8C1B0A" d="M0.99554,10.9322c0.2025,0.18298,0.44073,0.29007,0.71151,0.3237
		c0.11198,0.01391,0.16604,0.07302,0.17733,0.18205c0.02113,0.20415,0.0935,0.38803,0.22992,0.54477
		c-0.03607,0.04508-0.08729,0.03107-0.13327,0.03111c-0.32957,0.00028-0.65915-0.00101-0.98872-0.0018
		C0.96857,11.65201,0.96218,11.29205,0.99554,10.9322z"/>
	<path fill="#535F69" d="M3.4521,0.95132C3.45137,0.94165,3.45161,0.93199,3.45285,0.92237
		c7.89416-0.0002,15.78831-0.00045,23.68246,0.0004c0.05573,0.00001,0.11817-0.0209,0.16599,0.02949
		c-3.74097,0.00039-7.48192,0.00095-11.22287,0.00114c-3.84206,0.0002-7.68413,0.00002-11.5262,0.00025
		c-0.0691,0-0.1382,0.00308-0.2073,0.00472c-0.03849,0.0318-0.08397,0.04126-0.13258,0.04158
		c-0.20525,0.00133-0.4105,0.00137-0.61574-0.0001C3.54363,0.99947,3.49072,0.99547,3.4521,0.95132z"/>
	<path fill="#600202" d="M30.87954,7.13549c-0.14937-0.16867-0.28236-0.35394-0.49438-0.45712
		c-0.05993-0.02917-0.0535-0.07449,0.0015-0.1079c0.24626-0.14963,0.4278-0.35688,0.55691-0.61142
		C31.05895,6.35851,30.99503,6.74838,30.87954,7.13549z"/>
	<path fill="#6E0500" d="M2.26813,0.95386C2.23334,1.02215,2.1763,1.06958,2.11591,1.11387
		C2.06447,1.14281,2.00813,1.15114,1.95018,1.15849C1.77066,1.18125,1.67543,1.27828,1.6779,1.45975
		c0.00193,0.14197-0.04435,0.29088,0.04062,0.42568C1.7218,1.89287,1.72493,1.90038,1.72806,1.90789
		C1.63539,1.94492,1.53902,1.96465,1.43928,1.96853C1.28782,1.62969,1.46613,1.09437,1.78255,0.93844
		c0.14006,0.00584,0.2807-0.01401,0.42004,0.0118C2.22444,0.95145,2.24628,0.95266,2.26813,0.95386z"/>
	<path fill="#535F69" d="M0.96274,3.1789c0.00844-0.00202,0.01693-0.00228,0.02546-0.00072
		c0.00129,0.92847,0.00371,1.85689,0.00364,2.78531C0.99173,7.20843,0.98969,8.45337,0.98846,9.6983
		C0.94852,9.66622,0.96064,9.62108,0.96064,9.58046C0.96097,7.4466,0.96188,5.31275,0.96274,3.1789z"/>
	<path fill="#535F69" d="M2.20259,0.95024C2.05447,0.95298,1.90634,0.95572,1.75822,0.95845
		C1.61688,1.03248,1.46503,0.99464,1.31729,0.99956C1.04095,1.00592,1.04409,1.00597,1.03982,1.28368
		c-0.00437,0.28478,0.01861,0.57006-0.01429,0.8545c-0.0122,0.02683-0.02369,0.05466-0.06197,0.04863
		C0.96244,1.80789,0.96218,1.42896,0.95947,1.05005C0.95893,0.97358,0.96459,0.91905,1.06691,0.92028
		C1.42214,0.92454,1.77745,0.9219,2.13273,0.92197C2.15976,0.92197,2.1855,0.92575,2.20259,0.95024z"/>
	<path fill="#535F69" d="M0.99554,10.9322c-0.00108,0.35996-0.00215,0.71991-0.00323,1.07985
		c-0.03994-0.02329-0.03176-0.06272-0.03182-0.09812c-0.00054-0.30363-0.00047-0.60726-0.00008-0.91088
		c0.00005-0.03586-0.00582-0.07458,0.03182-0.09898C0.99265,10.91351,0.99375,10.92289,0.99554,10.9322z"/>
	<path fill="#4C3E43" d="M27.62095,1.0463c-0.04253-0.02002-0.08505-0.04005-0.1276-0.06006
		C27.55429,0.96771,27.60578,0.96899,27.62095,1.0463z"/>
	<path fill="#414D57" d="M0.96356,2.18681c0.01107-0.01195,0.02214-0.0239,0.0332-0.03585
		c0.04223,0.00778,0.04977,0.031,0.03,0.06638c-0.01141,0.01295-0.02281,0.0259-0.03422,0.03888
		C0.96401,2.24087,0.96021,2.21531,0.96356,2.18681z"/>
	<path fill="#8A0003" d="M2.01253,2.38342C2.23664,2.35877,2.3001,2.29556,2.3015,2.07663
		c0.00188-0.29365,0.08717-0.54436,0.34706-0.71285c0.07146-0.03997,0.14887-0.0501,0.22978-0.05001
		c0.42892,0.00049,0.85784-0.00042,1.28676,0.0008c0.07387,0.00021,0.14964-0.0031,0.21069,0.05109
		c0.10893,0.4188,0.52742,0.64024,0.87994,0.63834c1.85621-0.01001,3.71251-0.00095,5.56874-0.00854
		c0.29297-0.0012,0.49143,0.13087,0.66506,0.33721c0.09131,0.10853,0.17188,0.23127,0.28087,0.31863
		c0.17611,0.14116,0.38056,0.20833,0.6185,0.20736c1.67539-0.00684,3.35083-0.0037,5.02625-0.00339
		c0.07438,0.00001,0.14877,0.00354,0.22315,0.00543c-0.00575,0.08969-0.08189,0.13044-0.13445,0.18619
		c-0.17973,0.19063-0.37268,0.36997-0.50647,0.59933c-0.08837,0.06988-0.19324,0.0488-0.29221,0.04889
		c-1.50581,0.00137-3.01162,0.00083-4.51743,0.001c-0.50204,0.00005-0.70934,0.1587-0.83501,0.64673
		c-0.02426,0.09423-0.07146,0.12624-0.16823,0.12521C8.90733,4.44388,6.63007,4.46058,4.35284,4.45849
		C3.83786,4.45802,3.44485,4.85415,3.43677,5.3636C3.43334,5.58009,3.43344,5.7967,3.43674,6.01319
		c0.00793,0.51998,0.39952,0.9077,0.92552,0.9123c0.47353,0.00414,0.94711,0.00075,1.42067,0.00109
		c0.0585,0.00004,0.11697-0.00012,0.17544,0.00478C6.06268,6.94012,6.09868,6.9912,6.06472,7.09099
		c-0.1369,0.40232-0.08275,0.81827-0.06065,1.22555c0.0251,0.46256,0.43162,0.7934,0.91891,0.79564
		C7.74771,9.11597,8.57246,9.11317,9.3972,9.1133c0.40439,0.00006,0.80878-0.0003,1.21316,0.00012
		c0.30378,0.00031,0.32083,0.0142,0.39622,0.31358c0.01659,0.09174-0.04487,0.14652-0.10067,0.20269
		c-0.15293,0.15393-0.30343,0.31062-0.4629,0.45766c-0.1449,0.13361-0.25445,0.282-0.27942,0.48197
		c-0.00389,0.03114-0.01282,0.06235-0.04189,0.08208c-1.26002,0.00007-2.52005,0.00043-3.78007,0.00005
		c-0.47864-0.00015-0.85526-0.30821-0.94457-0.77053C5.33629,9.56635,5.07833,9.3527,4.75612,9.35235
		C4.15534,9.35171,3.55457,9.35226,2.9538,9.35214c-0.5901-0.00012-1.00368-0.4083-1.00373-0.99101
		C1.94994,6.59861,1.949,4.83609,1.9519,3.07357c0.00024-0.14695-0.02457-0.28195-0.09773-0.40864
		c-0.0016-0.0255-0.00886-0.05012-0.01142-0.07554C1.83017,2.46434,1.86746,2.38025,2.01253,2.38342z"/>
	<path fill="#8A0003" d="M29.66403,6.33944c-0.06741,0.01101-0.13473,0.02268-0.20226,0.03288
		c-0.13728,0.02074-0.2011,0.11053-0.20796,0.23736c-0.0068,0.12561,0.08344,0.20538,0.22259,0.20573
		c0.15594,0.0004,0.30352,0.03297,0.44461,0.09742c0.02564,0.05278,0.00775,0.104-0.00853,0.15379
		c-0.34099,1.04251-0.80897,2.0209-1.5085,2.87673c-0.29543,0.36144-0.64315,0.6526-1.1223,0.76556
		c-0.33142,0.07814-0.57387,0.30053-0.72932,0.59796c-0.09298,0.1779-0.21646,0.25008-0.41661,0.24994
		c-4.1166-0.00287-8.2332-0.00211-12.3498-0.0027c-0.07379-0.00001-0.15042,0.00747-0.21263-0.04676
		c-0.00345-0.20284,0.02424-0.40794-0.11752-0.58815c-0.13256-0.16852-0.2938-0.2666-0.51027-0.26732
		c-0.32306-0.00108-0.64613,0.00066-0.96918-0.00119c-0.05538-0.00032-0.11844,0.02115-0.16226-0.03579
		c-0.00971-0.06151,0.035-0.09559,0.07093-0.13177c0.17712-0.17838,0.35585-0.35518,0.53496-0.53159
		c0.05317-0.05237,0.11093-0.09643,0.18987-0.10278c0.63395-0.01624,1.26766-0.0056,1.90134-0.00581
		c0.05292-0.00002,0.10559,0.00632,0.15272,0.03335c0.04991,0.03184,0.06041,0.08363,0.06744,0.13661
		c0.03136,0.23643,0.1664,0.38714,0.39662,0.44037c0.2228,0.05151,0.39339-0.04017,0.51659-0.22625
		c0.01166-0.01761,0.02765-0.03198,0.04326-0.04644c0.06227-0.04433,0.10517-0.09993,0.12288-0.17667
		c0.01286-0.05573,0.03193-0.11244,0.09224-0.14009c0.04578-0.01761,0.09365-0.01911,0.14157-0.01924
		c0.17756-0.00048,0.21385,0.03306,0.22602,0.20796c0.03839,0.55177,0.41111,0.89936,0.97121,0.89959
		c2.3929,0.00098,4.7858,0.00102,7.17871,0.00002c0.65094-0.00027,1.05684-0.46558,0.97247-1.1094
		c-0.02605-0.19879-0.01216-0.21859,0.19174-0.22003c0.49983-0.00353,0.9997,0.00026,1.49954-0.00162
		c0.58362-0.00219,0.96629-0.38414,0.96902-0.96503c0.00082-0.17417-0.0083-0.34883,0.00191-0.52242
		c0.02156-0.36687-0.0152-0.71696-0.2489-1.02099c-0.01519-0.0704,0.04077-0.10176,0.08012-0.14243
		c0.14892-0.15389,0.17881-0.32434,0.08563-0.48763c-0.08315-0.14571-0.25886-0.22178-0.42115-0.18233
		c-0.18881,0.0459-0.29226,0.18884-0.29836,0.41218c-0.00138,0.05048,0.01784,0.10859-0.05056,0.13479
		c-0.12078,0.03136-0.24377,0.01711-0.36563,0.01752c-0.48949,0.00164-0.97899,0.00158-1.46848,0.0003
		c-0.25429-0.00066-0.26183-0.0101-0.25478-0.25539c0.00364-0.1267,0.00303-0.2535,0.001-0.38021
		c-0.00838-0.52229-0.39581-0.91206-0.92197-0.91545c-0.81402-0.00525-1.62809-0.00137-2.44213-0.00149
		c-0.67039-0.0001-1.3408,0.00235-2.01117-0.00145c-0.20342-0.00116-0.38797,0.04799-0.56254,0.14861
		c-0.17922,0.1033-0.21987,0.07904-0.22032-0.12413c-0.00008-0.03694,0.00038-0.07394,0.00252-0.11069
		c0.05541-0.22958,0.1535-0.44627,0.19064-0.68292c0.08351-0.53208-0.02962-1.02507-0.26707-1.49859
		C18.8525,2.98467,18.79452,2.9311,18.8412,2.85573c0.38691,0.0123,0.7746-0.02705,1.16112,0.02935
		c0.30826,0.04498,0.54908,0.17904,0.69749,0.4592c0.16359,0.30881,0.42615,0.45943,0.77434,0.46091
		c0.56925,0.00241,1.13853,0.0016,1.70779,0.00038c0.52607-0.00112,1.04255,0.08139,1.55836,0.17126
		c0.60051,0.10464,1.18705,0.2673,1.76946,0.44092c0.52451,0.15636,0.97939,0.44447,1.39836,0.79332
		c0.22871,0.19043,0.42563,0.4125,0.64833,0.60789c0.29786,0.26132,0.65567,0.40165,1.03756,0.4902
		C29.6184,6.31481,29.64074,6.32914,29.66403,6.33944z"/>
	<path fill="#FE6053" d="M15.70599,10.20605c-0.24953,0.43485-0.71982,0.35196-0.91264,0.08639
		c-0.08123-0.11187-0.10254-0.23793-0.10715-0.37016C14.61,9.7008,14.65236,9.4742,14.65885,9.24948
		c0.00162-0.0562,0.04775-0.09216,0.09129-0.12384c1.15429-0.83973,1.72228-2.02911,2.03315-3.36921
		c0.14356-0.61888,0.19961-1.24837,0.19253-1.88288c-0.00111-0.09938,0.02843-0.19566,0.01651-0.29469
		c0.06015-0.1712,0.22285-0.25767,0.33026-0.39016c0.09516-0.11737,0.20967-0.21928,0.31567-0.328
		c0.1413-0.11169,0.24873-0.26119,0.40444-0.35676c0.12897-0.06892,0.24209-0.03332,0.34579,0.0538
		c0.10018,0.08415,0.18308,0.1842,0.26197,0.28773c0.54779,0.78409,0.62641,1.61682,0.26219,2.49527
		c-0.16173,0.31135-0.36896,0.58577-0.62423,0.83179c-0.56001,0.53971-1.10849,1.09129-1.6573,1.64231
		c-0.17136,0.17204-0.33525,0.35248-0.46544,0.55957c-0.26894,0.3671-0.36806,0.78547-0.37701,1.23057
		c-0.00275,0.13653-0.00024,0.27317-0.00232,0.40983C15.78516,10.08916,15.75302,10.15071,15.70599,10.20605z"/>
	<path fill="#95000E" d="M18.86821,5.35151c0.11173-0.3109,0.22-0.62354,0.22432-0.95818
		c0.00727-0.56252-0.1544-1.07512-0.47778-1.5373c0.06471-0.06077,0.13008-0.03833,0.19558-0.00155
		c0.01031,0.00001,0.0206,0.00042,0.03087,0.00124c0.12361,0.24797,0.24082,0.49683,0.30942,0.76839
		c0.12778,0.50587,0.08105,0.99401-0.11365,1.47321c-0.01369,0.03371-0.02406,0.06876-0.03598,0.10318
		c-0.04608,0.06042-0.00926,0.17477-0.12517,0.18929c-0.00319,0.0004-0.00845-0.0062-0.01081-0.01056
		C18.86083,5.37145,18.8626,5.36183,18.86821,5.35151z"/>
	<path fill="#840001" d="M4.37579,1.36567C3.80006,1.36505,3.22434,1.36443,2.64859,1.3638
		C2.6969,1.28982,2.77463,1.25258,2.84636,1.20786c0.07408-0.03187,0.15172-0.04769,0.23223-0.04782
		C3.44579,1.15946,3.813,1.15951,4.1802,1.15992C4.23967,1.15999,4.29764,1.16398,4.34432,1.2072
		C4.35481,1.26003,4.3653,1.31285,4.37579,1.36567z"/>
	<path fill="#7B0200" d="M4.34432,1.2072C3.84499,1.20742,3.34566,1.20763,2.84635,1.20786
		c0.05184-0.05311,0.11634-0.08187,0.18823-0.09643c0.40665-0.07141,0.81664-0.03999,1.22561-0.03838
		C4.2923,1.07317,4.32017,1.09097,4.34455,1.11202C4.34448,1.14375,4.3444,1.17547,4.34432,1.2072z"/>
	<path fill="#8A010D" d="M18.81033,2.85448c-0.06519,0.00051-0.13037,0.00103-0.19557,0.00155
		c-0.04517-0.05074-0.09376-0.0989-0.13483-0.15273c-0.11046-0.14478-0.25139-0.21949-0.43723-0.19935
		c0.14894-0.16545,0.30652-0.17553,0.46411-0.02839C18.62638,2.5872,18.73331,2.70911,18.81033,2.85448z"/>
	<path fill="#6D0500" d="M3.4521,0.95132C3.74972,0.95366,4.04733,0.956,4.34494,0.95836
		C4.34486,0.98845,4.34479,1.01853,4.34471,1.04861C4.30011,1.08572,4.24608,1.0796,4.194,1.07977
		C3.96274,1.0805,3.73147,1.08089,3.50022,1.07946C3.44899,1.07915,3.39366,1.09041,3.35138,1.04688
		C3.38496,1.01503,3.41853,0.98318,3.4521,0.95132z"/>
	<path fill="#740800" d="M3.35138,1.04688C3.68249,1.04746,4.0136,1.04803,4.34471,1.04861
		c-0.00005,0.02114-0.0001,0.04227-0.00015,0.06341C3.9079,1.11182,3.47125,1.11163,3.03458,1.11144
		C3.12929,1.03728,3.24202,1.05022,3.35138,1.04688z"/>
	<path fill="#FEFEFE" d="M12.54636,9.88897c-0.25417,0.23196-0.49694,0.47524-0.73229,0.72592
		c-0.13672,0.13198-0.28041,0.25766-0.40859,0.39735c-0.20991,0.22877-0.45708,0.34976-0.76664,0.2613
		c-0.30812-0.08805-0.45888-0.32117-0.51715-0.62214c0.00293-0.22827,0.09803-0.4113,0.26279-0.56917
		c0.20536-0.19676,0.40092-0.40359,0.60071-0.60607c0.02231-0.06223,0.07147-0.10386,0.11641-0.1485
		c0.46981-0.46663,0.93958-0.9333,1.41021-1.39912c0.04813-0.04764,0.0901-0.10619,0.1657-0.11641
		c0.02742,0.00126,0.05324,0.01003,0.07231,0.02861c0.30566,0.29792,0.62092,0.58647,0.90241,0.90816
		c0.01749,0.06713-0.02529,0.1096-0.06606,0.15049c-0.30148,0.30241-0.60575,0.60205-0.9082,0.9035
		C12.63956,9.84117,12.59326,9.86486,12.54636,9.88897z"/>
	<path fill="#840001" d="M13.57331,11.50735c4.18582-0.00001,8.37163-0.00113,12.55744,0.00353
		c0.19005,0.00021,0.29562-0.05541,0.38273-0.2297c0.16242-0.32498,0.43231-0.55222,0.79334-0.63061
		c0.4563-0.09908,0.76884-0.39551,1.05344-0.72363c0.38211-0.44053,0.67488-0.94381,0.93434-1.46235
		c0.23579-0.47122,0.43826-0.95836,0.59257-1.46342c0.00919-0.03008,0.02247-0.05894,0.03384-0.08836
		c0.0614,0.00368,0.10864,0.03972,0.15904,0.06854c0.03737,0.0568,0.01249,0.11229-0.0054,0.16676
		c-0.34702,1.05696-0.82702,2.04669-1.5379,2.91237c-0.29432,0.35841-0.63386,0.66717-1.11045,0.78583
		c-0.33631,0.08374-0.58535,0.29115-0.74461,0.59826c-0.10124,0.19523-0.25431,0.27096-0.47811,0.27073
		c-4.12854-0.00414-8.2571-0.00297-12.38564-0.0036c-0.0837-0.00001-0.17195,0.01568-0.24463-0.04586
		C13.57332,11.61302,13.57331,11.56018,13.57331,11.50735z"/>
	<path fill="#6D0500" d="M30.14697,7.03427c0.05341,0.04231,0.10681,0.08462,0.16024,0.1269
		c-0.09054,0.22029-0.18458,0.43928-0.27095,0.66121c-0.17108,0.43953-0.37658,0.86179-0.60629,1.27442
		c-0.17018,0.30569-0.36357,0.59526-0.56091,0.88283c-0.07765,0.11315-0.17074,0.21585-0.25681,0.3233
		c-0.11968,0.09253-0.22609,0.19824-0.31939,0.31697c-0.26595,0.19621-0.54827,0.35459-0.87512,0.43624
		c-0.26505,0.06622-0.43303,0.2637-0.5688,0.48855c-0.01435,0.02375-0.00691,0.06831-0.05667,0.05774
		c-0.01468,0.03608-0.02229,0.07685-0.06393,0.09508h0.00007c-0.01574,0.07285-0.05693,0.11455-0.13556,0.1214
		c-0.05708,0.00497-0.10606,0.0353-0.15189,0.06878c-0.05319-0.00001-0.10638-0.00002-0.15958-0.00003
		c-0.05579,0.02607-0.11528,0.01517-0.17311,0.01517c-4.0969,0.00041-8.1938,0.00057-12.29071-0.00016
		c-0.08347-0.00002-0.17218,0.01787-0.24384-0.04674c0.00003-0.03159,0.00006-0.06318,0.00009-0.09476
		c0.07775-0.06534,0.17181-0.04601,0.26045-0.04605c2.30424-0.00092,4.60848-0.00068,6.91272-0.00073
		c1.81998-0.00003,3.63996-0.0023,5.45992,0.003c0.22822,0.00067,0.38274-0.06547,0.48111-0.28038
		c0.1293-0.28248,0.35308-0.48804,0.65422-0.56423c0.64436-0.16302,1.05716-0.607,1.4238-1.10938
		c0.56614-0.77575,0.97543-1.63131,1.28104-2.5377C30.07006,7.15753,30.07451,7.07782,30.14697,7.03427z"/>
	<path fill="#7B0300" d="M30.14697,7.03427c-0.31059,1.00948-0.75683,1.95484-1.38693,2.80678
		c-0.28216,0.38149-0.59054,0.74742-1.04931,0.9403c-0.19974,0.08398-0.41598,0.1252-0.6043,0.24036
		c-0.19829,0.12126-0.34001,0.29666-0.42217,0.50087c-0.07305,0.18156-0.20422,0.21779-0.36349,0.23722
		c-0.04716,0.00575-0.09561,0.00113-0.14347,0.00113c-4.20117,0.00009-8.40235,0.00017-12.60351,0.00025
		c-0.00015-0.03177-0.00032-0.06354-0.00047-0.09532c4.21994-0.00002,8.43987-0.00118,12.65979,0.00349
		c0.19763,0.00022,0.32114-0.07239,0.4055-0.23828c0.15592-0.30659,0.39683-0.53106,0.73005-0.61214
		c0.56083-0.13645,0.93277-0.51387,1.25877-0.93967c0.66813-0.87267,1.13305-1.85065,1.45263-2.89794
		C30.10235,6.99899,30.12466,7.01663,30.14697,7.03427z"/>
	<path fill="#6D0500" d="M13.57372,11.85594c4.1581,0,8.31621-0.00005,12.47431,0.00035
		c0.07885,0.00001,0.16033-0.01371,0.23335,0.03138c0.00357,0.02323,0.0259,0.0558-0.0173,0.06092
		c-0.04723,0.0056-0.09557,0.00237-0.14342,0.00238c-4.18225,0.00014-8.3645,0.00023-12.54674,0.00032
		C13.57386,11.9195,13.57379,11.88772,13.57372,11.85594z"/>
	<path fill="#202020" d="M3.76975,10.02601c0.00418,0.23886-0.19049,0.4354-0.43108,0.43519
		c-0.23397-0.0002-0.42631-0.18793-0.43038-0.42006c-0.00419-0.23884,0.1905-0.4354,0.43105-0.43521
		C3.57331,9.60613,3.76568,9.79388,3.76975,10.02601z"/>
	<path fill="#830101" d="M2.01253,2.38342C1.92196,2.41186,1.86049,2.45816,1.8849,2.56746
		c0.00765,0.03425,0.00354,0.0725-0.03072,0.09748c-0.08596-0.064-0.17191-0.12801-0.25788-0.19203
		C1.72561,2.39991,1.86504,2.37321,2.01253,2.38342z"/>
	<path fill="#6D0500" d="M26.44095,11.8877c0.00676-0.07923,0.08067-0.08126,0.1272-0.08597
		c0.07773-0.00787,0.1164-0.0555,0.16025-0.10422c0.03466,0.05332,0.00263,0.09243-0.0379,0.11378
		C26.6132,11.85201,26.53572,11.90008,26.44095,11.8877z"/>
	<path fill="#6A0007" d="M28.29286,10.6199c0.06797-0.14387,0.17439-0.24957,0.31939-0.31697
		C28.51887,10.42158,28.41245,10.52728,28.29286,10.6199z"/>
	<path fill="#6D0500" d="M26.72833,11.69751c0.02131-0.03169,0.04262-0.06339,0.06393-0.09508
		C26.82735,11.67148,26.79085,11.69311,26.72833,11.69751z"/>
	<path fill="#600202" d="M1.02676,2.21734C1.01674,2.19524,1.00672,2.17314,0.99673,2.151
		c-0.00152-0.33779,0.00609-0.67592-0.00865-1.0131c-0.00696-0.15915,0.0467-0.20898,0.19594-0.18522
		C1.22568,0.95932,1.26883,0.95665,1.3113,0.95825c0.01353,0.01683,0.02538,0.03684,0.02147,0.05737
		C1.26858,1.35273,1.3154,1.6951,1.28279,2.03362C1.21194,2.11475,1.11217,2.15619,1.02676,2.21734z"/>
	<path fill="#650200" d="M1.28279,2.03362C1.27195,2.01648,1.25161,1.99933,1.25165,1.98222
		C1.25246,1.63985,1.2155,1.29512,1.3113,0.95824c0.14897,0.00007,0.29795,0.00013,0.44692,0.0002
		C1.73157,1.06006,1.60434,1.05294,1.56123,1.14802c-0.08066,0.17792-0.1249,0.35963-0.12228,0.55383
		c0.0012,0.08887,0.00028,0.17778,0.00032,0.26667C1.39499,2.00889,1.33654,2.01568,1.28279,2.03362z"/>
	<path fill="#820101" d="M2.01733,1.24293C1.94523,1.42685,1.86974,1.60958,1.8388,1.80654
		c-0.0095,0.06045-0.03346,0.1111-0.11075,0.10132c0.00001,0.00004-0.00162-0.00526-0.00162-0.00526
		C1.6411,1.71769,1.66002,1.52351,1.70942,1.34021C1.75413,1.17432,1.92488,1.13291,2.01733,1.24293z"/>
	<path fill="#7B0300" d="M2.01733,1.24293C1.87017,1.18206,1.73364,1.26608,1.7278,1.42807
		c-0.00569,0.158-0.00132,0.31636-0.00137,0.47454C1.64645,1.91152,1.62808,1.86765,1.62999,1.79859
		C1.63288,1.69437,1.63021,1.59,1.63076,1.48569c0.00136-0.25395,0.12069-0.37286,0.37472-0.37371
		c0.03677-0.00012,0.07354,0.00121,0.11036,0.00188C2.08305,1.15689,2.05019,1.19991,2.01733,1.24293z"/>
	<path fill="#980E0A" d="M12.54636,9.88897c0.33163-0.3332,0.66397-0.66571,0.99394-1.00052
		c0.03791-0.03846,0.10354-0.06327,0.09124-0.13652c0.21549-0.23171,0.21549-0.23172-0.01757-0.46303
		c-0.187-0.1856-0.37338-0.37183-0.56122-0.55659c-0.12867-0.12657-0.14024-0.12578-0.26718-0.00186
		c-0.0338,0.033-0.06281,0.07142-0.10671,0.09301c-0.2105,0.1679-0.38647,0.37114-0.57837,0.55803
		c-0.37319,0.36345-0.74368,0.72962-1.1153,1.09467c-0.12409-0.31414-0.12409-0.31414-0.47484-0.31414
		c-1.20272,0-2.40543,0.00015-3.60815-0.00007c-0.53211-0.0001-0.96037-0.42559-0.96083-0.95381
		c-0.00011-0.12677-0.001-0.25355,0.00018-0.38031c0.00263-0.28273-0.03576-0.57037,0.12572-0.85264c-0.07792,0-0.12948,0-0.18103,0
		c-0.50557,0-1.01123-0.0063-1.51667,0.00171c-0.54399,0.00862-0.99884-0.4339-0.98361-0.9815
		C3.39171,5.78953,3.39025,5.58333,3.38626,5.3774C3.37585,4.83994,3.82178,4.4053,4.36409,4.40631
		c2.20852,0.0041,4.41705,0.00145,6.62558,0.00259c0.09439,0.00005,0.20528,0.04666,0.27879,0.0111
		c0.08305-0.04017,0.03432-0.17081,0.06828-0.25955c0.12315-0.32179,0.39189-0.51302,0.74464-0.51304
		c1.57524-0.00007,3.15048,0.00051,4.72571-0.00196c0.06462-0.0001,0.15672,0.0449,0.18522-0.06656
		c0.0543,0.25518,0.03322,0.51399,0.02055,0.76968c-0.02996,0.60467-0.1109,1.20293-0.27542,1.7884
		c-0.26013,0.92579-0.66977,1.7719-1.33168,2.48468c-0.1839,0.19803-0.38892,0.37379-0.61396,0.52425
		c-0.07908,0.05287-0.1118,0.11147-0.10794,0.20726c0.00763,0.18944,0.00231,0.37939,0.00233,0.56912
		c-0.06186-0.04176-0.13221-0.03104-0.20045-0.03115C13.83929,9.89017,13.19283,9.88963,12.54636,9.88897z"/>
	<path fill="#202020" d="M3.92942,3.06775C3.92579,3.30567,3.72384,3.49641,3.48397,3.48847
		C3.25082,3.48076,3.06436,3.2862,3.06795,3.05439c0.00369-0.238,0.20558-0.42872,0.44542-0.42076
		C3.74642,2.64136,3.93295,2.83599,3.92942,3.06775z"/>
	<path fill="#980E0A" d="M18.86821,5.35151c0.09306-0.00806,0.06798-0.11847,0.13278-0.15101c0,0.09465,0,0.18929,0,0.28655
		c0.06553,0.00419,0.10082-0.03937,0.14361-0.06525c0.16608-0.10047,0.34128-0.15984,0.54019-0.1595
		c1.50418,0.00259,3.00837,0.00132,4.51256,0.00147c0.54238,0.00005,0.96625,0.42226,0.96626,0.96231
		c0,0.15824,0.01625,0.31916-0.00768,0.47387c-0.01846,0.11938,0.02933,0.11803,0.114,0.11757
		c0.3561-0.00196,0.71222-0.0009,1.06834-0.0008c0.29765,0.00008,0.59529,0.00036,0.89294,0.00055
		c0.04437,0.01182,0.06566,0.04947,0.09135,0.08161c0.09554,0.11959,0.2194,0.17132,0.37235,0.15687
		c0.04049-0.00383,0.0835-0.01899,0.11878,0.0166c0.20729,0.23715,0.30854,0.50684,0.29067,0.82627
		c-0.01473,0.2632-0.00847,0.52799-0.00187,0.79184c0.01366,0.54578-0.43895,0.98893-0.98445,0.98036
		C26.60215,9.66274,26.08603,9.6691,25.57,9.6691c-0.05204,0-0.10407,0-0.16594,0c0.09317,0.34774,0.06536,0.66358-0.1437,0.94772
		c-0.17686,0.24039-0.42298,0.37935-0.71801,0.38005c-2.46839,0.00586-4.93679,0.00397-7.4052,0.00276
		c-0.45423-0.00022-0.89863-0.42816-0.91399-0.87245C16.215,9.89097,16.215,9.89097,15.98365,9.89095
		c-0.03724,0-0.07448,0.00002-0.11172,0.00004c-0.00637-0.00663-0.01275-0.01326-0.01923-0.01982
		c-0.05926-0.27797-0.01703-0.55313,0.01822-0.82959c0.03354-0.26301,0.16091-0.48607,0.28537-0.71162
		c0.10162-0.19445,0.25731-0.34792,0.4083-0.50062c0.53585-0.5419,1.07586-1.07994,1.6235-1.61007
		C18.45627,5.95967,18.69463,5.68184,18.86821,5.35151z"/>
	<path fill="#202020" d="M27.81369,7.07236c-0.2912,0.06892-0.45018-0.00071-0.58243-0.25508
		c-0.05619-0.23788,0.01946-0.42662,0.20996-0.52397c0.17303-0.08842,0.40087-0.04562,0.52259,0.09816
		c0.13777,0.16274,0.13992,0.38135,0.0097,0.55294C27.93022,7.00144,27.86607,7.02874,27.81369,7.07236z"/>
	<path fill="#95010D" d="M15.70598,10.20605c0.01378-0.06313,0.02757-0.12625,0.04135-0.18937
		c0.03671-0.04666-0.03062-0.19465,0.12452-0.12596c0,0,0.00008,0.00027,0.00008,0.00027
		C15.85054,10.01362,15.84969,10.1469,15.70598,10.20605z"/>
	<path fill="#9B0610" d="M15.87186,9.89072c-0.10752-0.0223-0.08035,0.08659-0.12453,0.12597
		c-0.00753-0.36242-0.01516-0.72477,0.09039-1.07791c0.06676-0.22335,0.16334-0.43112,0.31859-0.60878
		c0.00865,0.09337-0.06596,0.15246-0.09941,0.22799C15.86744,8.98584,15.86708,9.43751,15.87186,9.89072z"/>
	<path fill="#990410" d="M12.67887,7.82344c0.02321-0.10151,0.11634-0.14635,0.17953-0.21489
		c0.04661-0.05056,0.09495-0.02802,0.13764,0.01441c0.28176,0.28006,0.56325,0.5604,0.84642,0.83906
		c0.04839,0.04762,0.05303,0.08853-0.0005,0.13119c-0.0687,0.05474-0.10823,0.14775-0.21042,0.15871
		C13.31399,8.44243,12.99643,8.13294,12.67887,7.82344z"/>
	<path fill="#9A0511" d="M12.51953,9.38448c-0.09535,0.17418-0.23508,0.23607-0.41693,0.18466
		c-0.13267-0.03751-0.24078-0.18738-0.24176-0.33517c-0.00109-0.16319,0.10316-0.2896,0.27334-0.33145
		c0.02767,0.02026,0.03761,0.05044,0.03991,0.0816c0.01197,0.16226,0.10157,0.25392,0.25745,0.29336
		C12.48133,9.29007,12.55727,9.29503,12.51953,9.38448z"/>
	<path fill="#96010F" d="M11.59457,10.27123c-0.05728,0.18234-0.16465,0.24919-0.36955,0.23008
		c-0.15049-0.01403-0.27503-0.14086-0.29645-0.30188c-0.02176-0.16359,0.07131-0.30094,0.24961-0.36838
		c0.02789,0.02674,0.03623,0.06174,0.04201,0.09784c0.02468,0.15411,0.10729,0.25361,0.26692,0.28346
		C11.5282,10.22003,11.56633,10.238,11.59457,10.27123z"/>
	<path fill="#8B0205" d="M11.59457,10.27123c-0.33452-0.05048-0.41564-0.13623-0.41639-0.44018
		c0.14076-0.04733,0.26425-0.01527,0.35961,0.09402C11.6255,10.02559,11.66946,10.14077,11.59457,10.27123z"/>
	<path fill="#99100C" d="M12.51953,9.38448c-0.00468-0.03393-0.02007-0.05359-0.05718-0.06345
		c-0.29288-0.07782-0.32285-0.11719-0.32817-0.41852c0.14374-0.05443,0.25812-0.00054,0.34738,0.10657
		C12.5758,9.12219,12.59464,9.25062,12.51953,9.38448z"/>
	<path fill="#FEFEFE" d="M15.35772,7.82343c-0.25733,0.31533-0.51904,0.62564-0.8529,0.86791
		c-0.07422,0.05386-0.11689,0.05927-0.18455-0.00895c-0.39526-0.39846-0.79284-0.79474-1.19547-1.18583
		c-0.08269-0.08032-0.02124-0.11136,0.02483-0.15709c0.72163-0.71643,1.4435-1.43262,2.16507-2.14912
		c0.33447-0.33212,0.66806-0.66509,1.00304-0.9967c0.0367-0.03633,0.06561-0.0851,0.12436-0.09338
		c0.03973,0.02861,0.04318,0.07111,0.04098,0.11368c-0.05926,1.14566-0.27853,2.24991-0.86428,3.2576
		C15.54546,7.5977,15.47261,7.72657,15.35772,7.82343z"/>
	<path fill="#9A0410" d="M15.35772,7.82343c0.5693-0.85418,0.87888-1.80181,1.01267-2.80949
		c0.04016-0.30243,0.04868-0.609,0.0717-0.91368c0.0086-0.02453,0.01035-0.05591,0.02704-0.07235
		c0.05753-0.05666,0.10676-0.16606,0.19651-0.12717c0.08009,0.03471,0.01045,0.13023,0.01065,0.19937
		c0.00095,0.34198-0.04109,0.6793-0.10308,1.01424c-0.07912,0.4275-0.18434,0.84723-0.34421,1.25462
		c-0.13632,0.34739-0.30678,0.6754-0.48935,0.99935c-0.09623,0.17075-0.22802,0.31399-0.34546,0.46838
		C15.39192,7.8397,15.37031,7.82818,15.35772,7.82343z"/>
</g>
</svg>
