<?xml version="1.0" encoding="utf-8"?>
<!-- Generator: Adobe Illustrator 23.0.0, SVG Export Plug-In . SVG Version: 6.00 Build 0)  -->
<svg version="1.1" id="Слой_1" xmlns="http://www.w3.org/2000/svg" xmlns:xlink="http://www.w3.org/1999/xlink" x="0px" y="0px" width="32px" height="13px"
	 viewBox="0 0 32 13" enable-background="new 0 0 32 13" xml:space="preserve">
<g>
	<path fill="#3A4750" d="M30.27271,2.15781c0.08512,0.12823,0.17023,0.25646,0.25534,0.38469
		c0.02157,0.05892,0.0543,0.11046,0.10201,0.15211c0.44219,0.68979,0.77291,1.43213,1.04213,2.20204
		c0.13507,0.38627,0.25172,0.77873,0.29943,1.18758c0.00146,0.01254,0.01654,0.02352,0.02528,0.03523c0,0.12677,0,0.25355,0,0.38032
		c-0.02226,0.01812-0.04638,0.03231-0.07581,0.03556c-0.05289-0.00715-0.12304,0.00941-0.11561-0.08187
		c0.07536-0.14699,0.04751-0.29873,0.01883-0.44956c-0.18543-0.97496-0.55899-1.88142-1.02835-2.75131
		c-0.34752-0.64406-0.74901-1.25343-1.23894-1.80119c-0.43519-0.48656-0.92718-0.9019-1.54222-1.15051
		c-0.26291-0.10627-0.53755-0.15671-0.82475-0.15663c-7.30927,0.00205-14.61853,0.00166-21.9278,0.00126
		c-0.08511,0-0.17019,0.00592-0.25541,0.00122C4.97398,0.1461,4.94798,0.13453,4.935,0.10224
		c-0.00463-0.02047-0.00301-0.0404,0.00479-0.05992c0.01412-0.01716,0.03226-0.02486,0.0545-0.02321
		c7.46327-0.00027,14.92647-0.0001,22.38917-0.00012c0.01823-0.00024,0.03696-0.00011,0.05525,0.00032
		c0.51435,0.05282,0.95436,0.28162,1.36754,0.57326c0.02159,0.01524,0.04193,0.03185,0.06815,0.03869l-0.00302-0.00245
		c0.30871,0.2554,0.58259,0.54686,0.86831,0.82606l-0.0024-0.00289C29.90901,1.69231,30.10199,1.91674,30.27271,2.15781z"/>
	<path fill="#535F69" d="M31.9337,6.50028c0.02107-0.00017,0.04214-0.00034,0.06321-0.0005c0,0.09508,0,0.19016,0,0.28524
		c-0.0746,0.29755-0.13584,0.59915-0.22605,0.89196c-0.46085,1.49585-1.14158,2.87706-2.20261,4.05045
		c-0.48821,0.53991-1.05089,0.98132-1.7712,1.18426c-0.11065,0.03117-0.22284,0.05694-0.33432,0.08521
		c-3.42724,0-6.85448,0-10.28172,0c-0.02129-0.02745-0.01418-0.0519,0.00793-0.07482
		c0.08842-0.05231,0.18646-0.03376,0.2807-0.03379c3.16935-0.00099,6.33872-0.00582,9.50805,0.00257
		c0.83239,0.0022,1.51449-0.31761,2.1126-0.86158c0.69873-0.63548,1.22961-1.39463,1.67026-2.22149
		c0.452-0.84817,0.81185-1.73085,1.02773-2.66836c0.03319-0.14415,0.06134-0.28916,0.0686-0.4374
		C31.86057,6.62674,31.87456,6.55494,31.9337,6.50028z"/>
	<path fill="#697681" d="M17.18149,12.93313c-0.00016,0.02126-0.00032,0.04251-0.00048,0.06377c-0.05322,0-0.10643,0-0.15965,0
		c-0.05489-0.03082-0.11472-0.01557-0.172-0.01558c-5.19649-0.00081-10.39299-0.00081-15.58948,0
		c-0.05728,0.00001-0.11711-0.01524-0.172,0.01558c-0.10644,0-0.21287,0-0.31931,0
		c-0.35515-0.05002-0.58597-0.25274-0.71869-0.57608c-0.00122-0.05512-0.00955-0.10956-0.02062-0.1636
		c-0.00725-0.01841-0.01218-0.03803-0.02703-0.05265c0-0.02113,0-0.04226,0-0.06339c0.032-0.05977,0.01557-0.12426,0.01561-0.18624
		C0.01928,9.8519,0.01781,7.74886,0.01932,5.64582c0.00245-0.0434,0.03123-0.04858,0.06612-0.04492
		C0.1048,5.61103,0.11884,5.62607,0.12778,5.64586C0.1599,5.73819,0.14893,5.8341,0.14896,5.92865
		c0.00073,1.97549,0.00027,3.95097,0.00075,5.92646c0.00007,0.28101,0.04492,0.54475,0.25722,0.75866
		c0.17603,0.17736,0.39116,0.24685,0.63128,0.2649c0.09028,0.00679,0.18086,0.0037,0.27132,0.0037
		c5.17795,0.00009,10.3559-0.00003,15.53386,0.00084c0.10529,0.00002,0.21331-0.01719,0.31487,0.02866
		C17.16605,12.91887,17.17377,12.926,17.18149,12.93313z"/>
	<path fill="#3B4852" d="M27.46357,0.03379C19.95975,0.03399,12.45592,0.03418,4.9521,0.03437
		c-0.008-0.00691-0.01075-0.01391-0.00827-0.02101c0.0025-0.00714,0.00506-0.01072,0.00768-0.01072c7.50374,0,15.00748,0,22.51122,0
		c0.00778,0.00672,0.01049,0.01357,0.00816,0.02056C27.46852,0.03027,27.46609,0.03379,27.46357,0.03379z"/>
	<path fill="#697681" d="M1.08788,12.99689C1.135,12.945,1.19753,12.9661,1.25335,12.96609
		c5.20084-0.00095,10.40168-0.00095,15.60253,0c0.05583,0.00001,0.11835-0.02109,0.16548,0.03081
		C11.7102,12.99689,6.39904,12.99689,1.08788,12.99689z"/>
	<path fill="#545F68" d="M0.09774,5.6127C0.07816,5.61268,0.05858,5.61267,0.03901,5.61265
		c-0.0392-0.05228-0.01926-0.11242-0.01931-0.16842C0.01841,3.97248,0.01888,2.50071,0.01791,1.02895
		C0.01788,0.97214,0.03322,0.91281,0.00223,0.85837c0-0.03169,0-0.06339,0-0.09508C0.03067,0.53974,0.13637,0.35765,0.301,0.20524
		c0.11538-0.10682,0.24827-0.17603,0.40371-0.20259c0.08515,0,0.1703,0,0.25545,0c-0.00825,0.08672-0.081,0.06467-0.13176,0.07372
		C0.71255,0.09704,0.6023,0.12618,0.52364,0.22248c-0.27922,0.2118-0.38746,0.48886-0.38502,0.83905
		C0.1486,2.49794,0.14323,3.93446,0.14171,5.37093C0.14162,5.45277,0.16489,5.54168,0.09774,5.6127z"/>
	<path fill="#CB2631" d="M0.00223,0.85837C0.06032,0.90953,0.03264,0.9774,0.03271,1.03689
		c0.00175,1.462,0.00131,2.92399,0.00157,4.38599C0.0343,5.48614,0.03735,5.5494,0.03899,5.61265
		C0.03739,5.9768,0.03448,6.34094,0.03438,6.70508C0.03389,8.45229,0.03454,10.1995,0.03267,11.9467
		c-0.00007,0.06465,0.02946,0.13762-0.03044,0.19447C0.00223,8.38024,0.00223,4.6193,0.00223,0.85837z"/>
	<path fill="#535F69" d="M0.51322,0.16137c0.12235-0.12678,0.29966-0.10109,0.44694-0.15873c1.33045,0,2.6609,0,3.99135,0
		C4.9517,0.01322,4.95189,0.0238,4.95209,0.03437C4.95125,0.04471,4.95065,0.05505,4.9503,0.06541
		C4.87792,0.12859,4.78917,0.1099,4.70599,0.10999C3.49928,0.11117,2.29256,0.11113,1.08584,0.1103
		C0.93668,0.1102,0.78831,0.10607,0.64833,0.17148C0.60385,0.19226,0.55576,0.19706,0.51322,0.16137z"/>
	<path fill="#6D6F70" d="M27.46357,0.03379c-0.0007-0.01037-0.00097-0.02075-0.00084-0.03114c0.05322,0,0.10644,0,0.15965,0
		c0.00477,0.00845,0.00703,0.01751,0.00677,0.02719c-0.05474,0.03184-0.11032,0.02635-0.16631,0.00376L27.46357,0.03379z"/>
	<path fill="#3B4850" d="M27.46285,0.0336c0.05543-0.00125,0.11086-0.0025,0.1663-0.00376
		c0.46983,0.08879,0.87943,0.30045,1.24523,0.60143C28.7823,0.63112,28.7152,0.56895,28.6505,0.5223
		c-0.34579-0.24934-0.72107-0.41911-1.14997-0.46179C27.4872,0.05919,27.47537,0.04291,27.46285,0.0336z"/>
	<path fill="#3B4850" d="M29.73969,1.45488c-0.10353-0.03845-0.16411-0.12844-0.23323-0.20361
		c-0.201-0.21858-0.44641-0.39197-0.63508-0.62243C29.20499,0.85843,29.48769,1.14075,29.73969,1.45488z"/>
	<path fill="#3B4850" d="M30.27271,2.15781c-0.17545-0.14113-0.26955-0.34739-0.41418-0.51375
		c-0.04775-0.05493-0.13726-0.09399-0.12126-0.19205C29.9408,1.66854,30.13243,1.89399,30.27271,2.15781z"/>
	<path fill="#3B4850" d="M30.63007,2.69461c-0.07082-0.02638-0.10718-0.07552-0.10201-0.15211
		C30.58469,2.57825,30.60925,2.63519,30.63007,2.69461z"/>
	<path fill="#424F5A" d="M31.9337,6.50028c-0.10656,1.00702-0.46352,1.93549-0.88873,2.84579
		c-0.32947,0.70535-0.72865,1.36769-1.21534,1.97337c-0.41051,0.51089-0.8784,0.96992-1.46286,1.29003
		c-0.37669,0.20631-0.78492,0.32152-1.21534,0.32196c-3.32332,0.00342-6.64664,0.00178-9.96995,0.0017
		c0,0-0.00091,0.0007-0.00091,0.0007c-0.01482-0.01517-0.03674-0.02654-0.04513-0.04428
		c-0.13181-0.27868-0.36867-0.32082-0.65061-0.32057C11.424,12.57351,6.36316,12.57229,1.30231,12.57221
		c-0.08513,0-0.17038,0.00278-0.25537-0.00299c-0.30968-0.02101-0.55768-0.26522-0.58142-0.57249
		c-0.00611-0.07905-0.0035-0.15839-0.0035-0.23761C0.46194,9.94739,0.45873,8.13564,0.46534,6.32394
		C0.46637,6.0417,0.43242,5.79642,0.15056,5.65479c-0.01427-0.00717-0.0192-0.02488-0.02751-0.03832
		C0.10778,5.56468,0.11482,5.51153,0.1148,5.45902c-0.00042-1.4521-0.00039-2.90421-0.00022-4.35631
		c0.00001-0.12117,0.00276-0.2433,0.03585-0.36013c0.12909-0.45583,0.42904-0.65933,0.97356-0.65984
		C2.3529,0.08156,3.58181,0.08222,4.81071,0.08292c0.04691,0.00003,0.09602-0.01194,0.1405,0.01458
		c0.01051,0.01072,0.02102,0.02144,0.03154,0.03216c0.04393,0.02453,0.06521,0.06849,0.09254,0.10706
		C5.1609,0.35755,5.27964,0.41779,5.4264,0.42692C5.51143,0.43221,5.5966,0.42997,5.6817,0.42997
		c7.02804,0.00009,14.0561,0.00484,21.08411-0.009c0.55959-0.0011,1.03732,0.15907,1.51236,0.41168
		c0.69653,0.3704,1.19527,0.93627,1.64113,1.56428c0.4392,0.61864,0.72254,1.31442,1.03112,1.99804
		c0.20485,0.45381,0.37769,0.91994,0.48063,1.4078c0.05554,0.26326,0.19676,0.47297,0.37411,0.66566
		C31.83909,6.51448,31.8895,6.49503,31.9337,6.50028z"/>
	<path fill="#283740" d="M31.80517,6.46842c-0.26312-0.1191-0.35269-0.36258-0.40734-0.60971
		c-0.16987-0.76818-0.50332-1.47295-0.82269-2.18474c-0.25171-0.561-0.56837-1.07978-0.93422-1.57536
		c-0.54561-0.73908-1.25753-1.24024-2.11513-1.55618c-0.13318-0.04906-0.26401-0.0655-0.40344-0.06548
		c-7.2101,0.00127-14.42021,0.00113-21.63031,0.00107c-0.29307,0-0.45697-0.11246-0.50927-0.34837
		c0.04703-0.05205,0.1096-0.03118,0.1655-0.03119c7.40233-0.00088,14.80466-0.00235,22.20697,0.00329
		c0.4217,0.00032,0.80478,0.17117,1.15921,0.39433c0.66939,0.42146,1.18569,0.99114,1.63647,1.6322
		c0.35985,0.51174,0.67536,1.04657,0.94751,1.60721c0.36498,0.75187,0.64383,1.53373,0.79572,2.35658
		c0.01795,0.09726,0.00464,0.20014,0.00652,0.3004C31.90194,6.45954,31.8576,6.46865,31.80517,6.46842z"/>
	<path fill="#4A5661" d="M4.95122,0.0975c-1.25567,0.0001-2.51134,0.0003-3.76701,0.00016
		C1.02403,0.09764,0.8701,0.13149,0.71594,0.17132C0.37851,0.2585,0.22927,0.50363,0.16579,0.81589
		c-0.03027,0.1489-0.03787,0.30127-0.03754,0.45485c0.00304,1.447,0.00191,2.89402,0.00198,4.34103
		c-0.0104,0.01179-0.02142,0.01181-0.03297,0.00172c0,0,0.00049-0.0008,0.00049-0.0008
		c0.00006-1.53811,0.0028-3.07624-0.00196-4.61434c-0.001-0.32288,0.10355-0.58329,0.36878-0.77567
		C0.48494,0.2079,0.49719,0.18206,0.51322,0.16137c0.38706-0.15704,0.79334-0.08996,1.19174-0.09282
		C2.7867,0.06078,3.86853,0.0656,4.95032,0.06542C4.95061,0.0761,4.95091,0.0868,4.95122,0.0975z"/>
	<path fill="#5A6875" d="M0.09725,5.61349c0.01099-0.00057,0.02198-0.00114,0.03297-0.00171
		C0.43904,5.73879,0.5131,5.85037,0.5131,6.18894c0.00001,1.90594,0.00714,3.81194-0.00686,5.71779
		c-0.0024,0.32625,0.29429,0.62198,0.62994,0.62136c5.16492-0.00953,10.32987-0.00663,15.49481-0.00656
		c0.3215,0,0.46357,0.10683,0.5496,0.41229C11.82497,12.93369,6.46935,12.9336,1.11373,12.9333
		c-0.47312-0.00003-0.80101-0.20766-0.95533-0.61467C0.11012,12.1913,0.09768,12.05395,0.0977,11.9164
		C0.09801,9.81543,0.09754,7.71446,0.09725,5.61349z"/>
	<path fill="#CC5861" d="M0.06876,12.39443c-0.02401-0.05257-0.05062-0.10458-0.03692-0.16551
		C0.06625,12.27919,0.10848,12.32781,0.06876,12.39443z"/>
	<path fill="#666666" d="M3.38579,0.9526c0.04797-0.04991,0.11018-0.03007,0.16632-0.03008
		c7.90207-0.00084,15.80414-0.00151,23.70621,0.00154c0.36238,0.00014,0.68202,0.15792,0.96575,0.36618
		c0.59543,0.43705,1.05557,0.99766,1.45362,1.61367c0.31788,0.49197,0.59618,1.0055,0.82531,1.54155
		c0.11344,0.26541,0.2699,0.51588,0.34876,0.78898c0.07345,0.25438,0.14541,0.51382,0.187,0.77888
		c0.05888,0.37525,0.0305,0.74279-0.06082,1.10878c-0.01301,0.05216-0.02296,0.10267-0.06625,0.13924
		c-0.05049-0.05618-0.02285-0.11981-0.01498-0.1801c0.019-0.14547,0.04891-0.28929,0.06849-0.4348
		c0.0127-0.09436-0.01922-0.13804-0.11835-0.13449c-0.07899,0.00283-0.15835,0.00274-0.2375-0.00148
		c-0.05038-0.00188-0.0995-0.01099-0.14762-0.02537c-0.04045-0.0047-0.08106-0.00773-0.12189-0.00891
		c-0.01672,0.00009-0.03321-0.00151-0.04971-0.00386c-0.05842-0.00992-0.11593-0.02545-0.17595-0.02544
		c-0.25382-0.03308-0.50253-0.08884-0.74758-0.16136c-0.39165-0.11591-0.72321-0.32783-1.00531-0.61899
		c-0.35588-0.3673-0.74633-0.69068-1.19838-0.93727c-0.19659-0.10724-0.40071-0.19741-0.61431-0.26291
		c-0.97299-0.29835-1.96154-0.52934-2.97905-0.60593c-0.45552-0.03429-0.91452-0.00609-1.37194-0.00827
		C21.9689,3.85107,21.74,3.85758,21.51147,3.85047c-0.35438-0.01102-0.63756-0.15117-0.81129-0.47096
		c-0.0806-0.14836-0.19241-0.26564-0.34114-0.34564c-0.11732-0.0631-0.15257-0.04293-0.1609,0.08483
		c-0.00343,0.05264-0.00103,0.10557-0.00103,0.15836c-0.00004,2.20164-0.00019,4.40327,0.00038,6.60491
		c0.00004,0.1595-0.00533,0.31882-0.07407,0.46519c-0.02481,0.05282-0.04269,0.15304-0.14855,0.08994
		c0.15951-0.61328,0.08591-1.23862,0.08911-1.85854c0.00922-1.78449,0.00317-3.56906,0.00345-5.3536
		c0.00002-0.09494-0.00436-0.19013,0.00906-0.2843c0.05721-0.24611,0.04614-0.4933-0.01198-0.73624
		c-0.10995-0.45954-0.70452-0.63591-1.05897-0.31902c-0.02867,0.02564-0.04995,0.05425-0.05526,0.09301
		c-0.00983,0.03229-0.03343,0.05402-0.06106,0.06957c-0.22491,0.12659-0.3308,0.3304-0.37882,0.57243
		c-0.00674,0.0316-0.00531,0.06349-0.00827,0.09498c-0.01439,0.15328-0.045,0.1843-0.21455,0.18741
		c-0.31384,0.00576-0.6278,0.00271-0.9417,0.00134c-0.11652-0.00051-0.23428,0.01349-0.34903-0.01819
		c-0.08612-0.0383-0.08059-0.11766-0.07991-0.19027c0.00148-0.15894-0.0054-0.31675-0.03999-0.47239
		c-0.10476-0.47134-0.70139-0.66093-1.06339-0.33837c-0.02874,0.0256-0.05013,0.05427-0.05595,0.09291
		c-0.00981,0.03229-0.03326,0.05421-0.06094,0.06978c-0.22511,0.12663-0.33133,0.33049-0.37934,0.57278
		c-0.00674,0.03159-0.00531,0.06349-0.00827,0.09498c-0.01439,0.15329-0.045,0.18431-0.21453,0.18742
		c-0.31384,0.00576-0.6278,0.00271-0.9417,0.00134c-0.11653-0.00051-0.23427,0.01348-0.34903-0.01818
		c-0.08609-0.03824-0.08034-0.11754-0.07998-0.19014c0.00075-0.15345-0.00413-0.30601-0.0368-0.45662
		c-0.0528-0.24345-0.20453-0.40335-0.43623-0.48325c-0.23161-0.07987-0.43918-0.00891-0.62917,0.12871
		c-0.03112,0.02254-0.05087,0.0535-0.05677,0.09216c-0.00932,0.03206-0.03225,0.05398-0.05963,0.06948
		c-0.22136,0.12536-0.33214,0.32334-0.37821,0.5645c-0.0382,0.22404-0.09116,0.24559-0.2876,0.1253
		c-0.13986-0.08564-0.23456-0.21483-0.33001-0.33982c-0.19168-0.25098-0.43137-0.35596-0.75454-0.35418
		C8.95357,2.05204,7.1522,2.04665,5.35087,2.04732c-0.14983,0.00006-0.2962-0.01029-0.43813-0.06539
		c-0.31388-0.12186-0.48747-0.35976-0.5758-0.6711c-0.0093-0.06589-0.00846-0.1322-0.0076-0.19837
		C4.32179,1.00967,4.24566,1.00353,4.16861,1.00237C3.97244,0.99943,3.77622,1.00325,3.58007,1.0003
		C3.51242,0.99929,3.44042,1.00883,3.38579,0.9526z"/>
	<path fill="#8A8A8A" d="M3.19462,12.0487c-0.67004-0.00022-1.34013-0.00492-2.01008,0.00278
		c-0.1491,0.00171-0.1982-0.0312-0.19794-0.18854c0.00484-2.8767,0.00017-5.75342,0.00943-8.6301
		c0.00081-0.25046,0.02413-0.50352,0.03044-0.75568C1.0997,2.38284,1.20496,2.40152,1.3043,2.39922
		C1.36589,2.39886,1.42758,2.3977,1.48913,2.40296c0.06148,0.00627,0.11972,0.02463,0.17696,0.04713
		C1.7332,2.48034,1.79033,2.52455,1.84358,2.57454C2.00122,2.71321,2.03218,2.89471,2.032,3.09226
		C2.03038,4.78757,2.03095,6.48288,2.03107,8.17819c0.00005,0.79764,0.33042,1.12512,1.13479,1.12523
		c0.52145,0.00008,1.0429-0.00134,1.56435,0.0005C5.14114,9.30536,5.3743,9.4876,5.47499,9.88086
		c0.11366,0.44392,0.4263,0.69757,0.89313,0.71953c0.17535,0.00825,0.35113,0.00241,0.52671,0.00233
		c1.74524-0.00076,3.49048,0.0021,5.23543-0.00171c0.07675-0.00629,0.10723,0.05262,0.14645,0.10141
		c0.24652,0.30674,0.62291,0.34873,0.93551,0.1054c0.04461-0.03473,0.08308-0.0835,0.15095-0.06852
		c0.18445,0.11532,0.26459,0.29067,0.2826,0.49752c0.00948,0.10888,0.00376,0.21883,0.00268,0.32829
		c0.00029,0.06077,0.00062,0.12156-0.00037,0.18244c0.00059,0.0178,0.00044,0.03551,0.00031,0.05331
		c0.00268,0.04599,0.00019,0.0918-0.0014,0.13781c-0.00563,0.04901-0.00466,0.1015-0.06479,0.12187
		c-3.42074,0.00216-6.84138,0.00034-10.26202,0.00059C3.27816,12.06113,3.2348,12.0692,3.19462,12.0487z"/>
	<path fill="#686868" d="M30.59195,6.4681c0.05791-0.00001,0.11583-0.00002,0.17374-0.00002
		c0.29122,0,0.29029-0.00017,0.23576,0.2884c-0.03174,0.16794-0.05997,0.33654-0.08978,0.50485
		C30.80126,7.71,30.6627,8.14884,30.46946,8.57041c-0.1884,0.41102-0.38066,0.82022-0.6133,1.20838
		c-0.25687,0.42857-0.53831,0.84089-0.87104,1.21676c-0.15387,0.17382-0.29804,0.35685-0.50089,0.48
		c-0.04473,0.02878-0.08352,0.06539-0.12751,0.09515c-0.10619,0.07403-0.21237,0.14805-0.31856,0.22208
		c-0.07991,0.05307-0.1688,0.08828-0.25607,0.1267l0.00009-0.00004c-0.04639,0.0382-0.11075,0.03166-0.15981,0.06321
		l-0.01555,0.00051L27.59125,11.983c-0.22993,0.09437-0.47224,0.07786-0.71264,0.07845
		c-0.06834,0.00017-0.13668-0.00026-0.20471,0.00024c-0.09977-0.02256-0.03658-0.07801-0.00784-0.09364
		c0.17829-0.09695,0.23916-0.27609,0.32649-0.43775c0.09696-0.17949,0.23771-0.3238,0.43653-0.37189
		c0.75274-0.18206,1.23101-0.70854,1.64996-1.29707c0.62834-0.88269,1.06989-1.85812,1.39101-2.88899
		C30.52172,6.80645,30.52241,6.62921,30.59195,6.4681z"/>
	<path fill="#67696A" d="M26.63243,12.04572c0.32124,0.0038,0.64277,0.01195,0.95881-0.06272
		c-0.09234,0.08928-0.21722,0.06827-0.32815,0.09292c-0.0456,0.01013-0.09536,0.00182-0.14323,0.00182
		c-7.9034,0.00001-15.8068,0.00009-23.71021-0.00125c-0.07162-0.00001-0.14945,0.02619-0.21505-0.02781
		c0.07445-0.00112,0.1489-0.00324,0.22335-0.00325c3.39457-0.00044,6.78915-0.00069,10.18372-0.00096
		c0.07796-0.06203,0.17114-0.04966,0.26051-0.0498c0.70219-0.00109,1.40438-0.00058,2.10656-0.00058
		c3.45243-0.00001,6.90485-0.00028,10.35728,0.00124C26.42944,11.99537,26.54058,11.96845,26.63243,12.04572z"/>
	<path fill="#6F6F6F" d="M1.66254,2.47606C1.60931,2.46484,1.55608,2.45363,1.50285,2.44241
		C1.4563,2.39123,1.45581,2.32757,1.45556,2.2646C1.45451,2.00264,1.4538,1.74068,1.45592,1.47872
		c0.0006-0.07374,0.01523-0.14557,0.02831-0.21786c0.03765-0.20822,0.17483-0.29953,0.37452-0.31967
		c0.11582,0.00104,0.23237-0.01814,0.3472,0.01186C2.59923,0.95291,2.99253,0.95277,3.3858,0.95261
		c0.27891,0.00034,0.55807,0.00747,0.83665-0.00197c0.13002-0.0044,0.17184,0.04248,0.15402,0.16145
		C4.3044,1.17319,4.21651,1.16066,4.13273,1.16082c-0.62667,0.0012-1.25334-0.00008-1.88001,0.00086
		C1.79801,1.16237,1.71404,1.24644,1.71262,1.69764C1.712,1.89268,1.71411,2.08773,1.71154,2.28274
		C1.71065,2.35024,1.71807,2.42148,1.66254,2.47606z"/>
	<path fill="#666768" d="M2.20594,0.95305C2.08872,0.95337,1.97149,0.95369,1.85427,0.95401
		C1.77356,0.98167,1.68718,0.99897,1.60533,0.99628C1.45099,0.99121,1.40278,1.07126,1.38418,1.20366
		c-0.04655,0.33126-0.01221,0.66388-0.02401,0.9956c-0.00296,0.0831,0.0135,0.17059-0.04901,0.24203
		c-0.09644-0.00004-0.19308-0.00168-0.2847,0.03586C0.94123,2.02319,0.96643,1.56409,0.95717,1.10627
		C0.95416,0.95748,1.00672,0.91479,1.15074,0.91904c0.30174,0.0089,0.60394,0.00199,0.90595,0.00339
		C2.10758,0.92267,2.1641,0.90547,2.20594,0.95305z"/>
	<path fill="#67696A" d="M27.78209,11.91948c0.07461-0.06363,0.16114-0.10352,0.25607-0.12671
		C27.97313,11.87549,27.88553,11.91326,27.78209,11.91948z"/>
	<path fill="#67696A" d="M27.62237,11.98265c0.04155-0.05026,0.09722-0.06536,0.15981-0.06321
		C27.74982,11.99261,27.68409,11.98263,27.62237,11.98265z"/>
	<path fill="#67696A" d="M28.35672,11.5707c0.02815-0.05067,0.06299-0.09251,0.12752-0.09514
		C28.45651,11.52678,28.42136,11.5682,28.35672,11.5707z"/>
	<path fill="#797979" d="M13.60549,11.57088c-0.00027-0.1091-0.00077-0.2182-0.00075-0.3273
		c0.00004-0.20966-0.12924-0.35371-0.25638-0.49891c-0.01481-0.0772,0.01319-0.13231,0.08591-0.16434
		c0.02148,0.00317,0.021,0.02627,0.03397,0.03724c0.03406-0.08043,0.12825-0.12411,0.13624-0.2206
		c0.02586-0.08921,0.07011-0.17095,0.10168-0.25803c0.02312-0.07811,0.01255-0.15781,0.01258-0.23648
		c0.00063-2.25284,0.00031-4.50568,0.00121-6.75852c0.00004-0.08878-0.01503-0.17979,0.02308-0.26573
		c0.00707-0.00775,0.01423-0.01545,0.02139-0.02314c0.42951-0.00001,0.85915-0.0061,1.28845,0.00318
		c0.1562,0.00338,0.24559-0.02498,0.2128-0.20192c-0.00575-0.03104,0.00111-0.06315,0.0266-0.08722
		c0.07856,0.07815,0.05289,0.17847,0.05303,0.27031c0.00186,1.24062,0.00122,2.48125,0.00124,3.72187
		c0.00001,1.20367-0.00006,2.40734,0.00009,3.61101c0.00001,0.10025-0.00304,0.20082,0.02508,0.29882
		c0.06806,0.23721,0.21734,0.4015,0.45953,0.45999c0.23955,0.05785,0.4529-0.00439,0.62445-0.18757
		c0.03989-0.0426,0.07269-0.09103,0.1128-0.13274c0.10901-0.03477,0.20443-0.08483,0.22808-0.21146
		c0.02598-0.08986,0.07047-0.17226,0.10242-0.25991c0.02346-0.07806,0.0128-0.15779,0.01283-0.23645
		c0.00063-2.25301,0.00031-4.50601,0.00121-6.75902c0.00003-0.08878-0.01502-0.1798,0.02306-0.26575
		c0.00707-0.00776,0.01423-0.01545,0.02139-0.02315c0.42951-0.00001,0.85916-0.0061,1.28847,0.00318
		c0.1562,0.00338,0.24558-0.02499,0.2128-0.20192c-0.00575-0.03104,0.00112-0.06315,0.02661-0.08722
		c0.0754,0.07271,0.05298,0.16746,0.0531,0.25426c0.0017,1.19211,0.0011,2.38422,0.00112,3.57632
		c0.00002,1.25013-0.00004,2.50026,0.00008,3.75039c0.00001,0.07383-0.00403,0.14805,0.00625,0.2213
		c0.03773,0.26906,0.1776,0.46653,0.44115,0.54861c0.26143,0.08142,0.49303,0.01277,0.67774-0.19401
		c0.03174-0.03553,0.05892-0.07482,0.09166-0.10906c0.08416-0.04223,0.1445-0.1209,0.2347-0.15489
		c0.15071-0.13327,0.15733-0.31618,0.15754-0.49303c0.00272-2.27572,0.00146-4.55144,0.00341-6.82715
		c0.00006-0.0699-0.04149-0.17115,0.03098-0.20424c0.07456-0.03405,0.16069,0.02445,0.23207,0.07074
		c0.13991,0.09074,0.25183,0.20308,0.32934,0.35518c0.15108,0.29645,0.41462,0.43257,0.73746,0.43954
		c0.48918,0.01057,0.97896,0.01156,1.46812,0.00079c0.82158-0.01808,1.62395,0.1108,2.41816,0.29812
		c0.52486,0.12379,1.0513,0.24521,1.5504,0.45869c0.36408,0.15573,0.68286,0.37793,0.99074,0.62133
		c0.28312,0.22382,0.5076,0.50964,0.79525,0.72769c0.3158,0.23939,0.6853,0.3495,1.06594,0.43044
		c0.12373,0.02631,0.24939,0.04366,0.37417,0.06511c0.03752,0.04946,0.01701,0.10122,0.00472,0.15179
		c-0.30079,1.23819-0.82539,2.3724-1.61701,3.37758c-0.30175,0.38315-0.65859,0.6969-1.15554,0.8279
		c-0.31247,0.08237-0.56095,0.27346-0.71834,0.56536c-0.11433,0.21204-0.2888,0.29384-0.53596,0.29354
		c-4.08549-0.00499-8.17099-0.00346-12.25648-0.00429C13.77742,11.6171,13.68349,11.63513,13.60549,11.57088z"/>
	<path fill="#797979" d="M12.16746,10.62101c-0.0533,0.05328-0.12103,0.02945-0.18195,0.02949
		c-1.85587,0.00134-3.71175-0.00282-5.56759,0.00381c-0.47,0.00168-0.9379-0.32935-0.9979-0.79328
		C5.3793,9.54622,5.10842,9.35267,4.78491,9.35234C4.17869,9.35174,3.57248,9.35338,2.96627,9.35176
		C2.52691,9.35058,2.15139,9.08655,2.0356,8.69644C2.00133,8.58097,1.98075,8.46263,1.98086,8.33991
		c0.00159-1.7365-0.00137-3.47301,0.0042-5.20949c0.00069-0.21635-0.03283-0.40675-0.19462-0.56067
		c0.02271-0.31539,0.00823-0.6313,0.01367-0.94693c0.00488-0.28335,0.08821-0.3688,0.37283-0.37009
		c0.66284-0.003,1.3257-0.00145,1.98855-0.00051c0.07384,0.00011,0.14988-0.00426,0.21131,0.04984
		c0.16074,0.48499,0.45065,0.69726,0.95236,0.69726c1.84115,0.00001,3.68231,0.00379,5.52342-0.0038
		c0.2992-0.00123,0.50005,0.1334,0.67568,0.34749c0.10953,0.13351,0.20373,0.28191,0.36026,0.37284
		c0.15519,0.09015,0.16468,0.08737,0.18544-0.09074c0.00226-0.01937,0.01655-0.03736,0.02526-0.05599
		c0.08184,0.08291,0.05554,0.18858,0.05562,0.2857c0.00168,1.90516,0.00119,3.81031,0.00123,5.71547
		c0.00001,0.54885,0.00461,1.09778-0.00327,1.64651C12.15084,10.35261,12.22157,10.48469,12.16746,10.62101z"/>
	<path fill="#FEFEFE" d="M16.63534,10.58266c-0.26186,0.43356-0.69484,0.55244-1.05701,0.28789
		c-0.1726-0.12608-0.26452-0.2991-0.27935-0.51082c-0.00552-0.07886-0.00444-0.15825-0.00442-0.2374
		c0.00035-2.47032,0.00097-4.94065,0.00135-7.41097c0.00001-0.04742-0.00236-0.09483-0.00362-0.14225
		c0.03579-0.28888,0.20847-0.47332,0.46177-0.59625c0.02881-0.03714,0.0695-0.0457,0.1134-0.04668
		c0.13281-0.00697,0.17954,0.06595,0.17658,0.1864c-0.00091,0.03684,0.00069,0.07379,0.00069,0.11069
		c-0.0002,2.45134,0.00059,4.90269-0.00016,7.35359c-0.05228,0.36554,0.27418,0.66828,0.59742,0.69841
		c0.01628,0.00605,0.03003,0.01562,0.04163,0.0284c0.03223,0.05552,0.02817,0.11421,0.01575,0.17373
		C16.68687,10.51772,16.6742,10.55809,16.63534,10.58266z"/>
	<path fill="#FEFEFE" d="M19.82872,10.58437c-0.22275,0.36064-0.53113,0.49966-0.86156,0.38839
		c-0.27883-0.09389-0.46692-0.33682-0.47464-0.62971c-0.00723-0.27427-0.00491-0.54881-0.00488-0.82323
		c0.00025-2.26949,0.00097-4.53898,0.00134-6.80847c0.00001-0.04741-0.00236-0.09482-0.00362-0.14223
		c0.03581-0.28887,0.20847-0.47332,0.46177-0.59625c0.02881-0.03714,0.0695-0.0457,0.1134-0.04668
		c0.13282-0.00697,0.17954,0.06596,0.17658,0.18641c-0.00091,0.03685,0.00069,0.07379,0.00068,0.11069
		c-0.0002,2.45146,0.00059,4.90292-0.00015,7.35394c-0.05117,0.33686,0.235,0.6549,0.60301,0.70054
		c0.01665,0.00719,0.02993,0.01819,0.04037,0.03287C19.91971,10.41248,19.90859,10.50493,19.82872,10.58437z"/>
	<path fill="#FEFEFE" d="M12.16746,10.62101c-0.06247-0.14956-0.06678-0.30674-0.0667-0.46564
		c0.00134-2.48661,0.00168-4.97322,0.00206-7.45982c0.00001-0.04214-0.00236-0.08429-0.00362-0.12643
		c0.0358-0.28887,0.20847-0.47332,0.46177-0.59625c0.02881-0.03714,0.0695-0.0457,0.1134-0.04668
		c0.13281-0.00697,0.17954,0.06595,0.17658,0.1864c-0.00091,0.03684,0.00069,0.07379,0.00069,0.11069
		c-0.0002,2.45134,0.0006,4.90269-0.00016,7.35359c-0.05229,0.36556,0.27421,0.66829,0.59742,0.69841
		c0.01628,0.00605,0.03003,0.01561,0.04163,0.0284c0.03223,0.05552,0.02816,0.11421,0.01574,0.17372
		c-0.01249,0.04031-0.02515,0.08069-0.06402,0.10526c-0.0313,0.05401-0.06259,0.10801-0.09389,0.16202
		c-0.33301,0.30179-0.6639,0.34357-0.96686,0.12431C12.28988,10.80267,12.22885,10.71212,12.16746,10.62101z"/>
	<path fill="#757575" d="M13.60549,11.57088c4.18539-0.00006,8.37078-0.00148,12.55617,0.00385
		c0.20885,0.00027,0.35035-0.07036,0.43975-0.245c0.17852-0.34873,0.47684-0.54813,0.84228-0.64166
		c0.4516-0.11558,0.75606-0.42252,1.03158-0.75655c0.70179-0.85081,1.15123-1.83629,1.49617-2.87207
		c0.07116-0.21368,0.11621-0.43593,0.17329-0.65422c0.05325,0.01043,0.10651,0.02086,0.15976,0.03129
		c0.066,0.16632-0.01029,0.3248-0.0525,0.47369c-0.1469,0.51821-0.33553,1.02276-0.588,1.50157
		c-0.155,0.29396-0.28415,0.60241-0.47087,0.87851c-0.19999,0.29574-0.37939,0.60801-0.62648,0.86905
		c-0.34432,0.36376-0.72419,0.67488-1.23097,0.79962c-0.26825,0.06603-0.45175,0.2496-0.55928,0.49864
		c-0.10039,0.2325-0.27791,0.33572-0.52257,0.34603c-0.04253,0.00179-0.08513,0.00102-0.1277,0.00102
		c-4.08656,0.00004-8.17312,0.00016-12.25968-0.00089c-0.08821-0.00002-0.18255,0.02249-0.26091-0.04275
		C13.60553,11.69765,13.60551,11.63426,13.60549,11.57088z"/>
	<path fill="#6B6B6B" d="M26.63243,12.04572c-4.34356-0.00041-8.68712-0.00081-13.03071-0.00123
		c0.00146-0.04165,0.00295-0.08328,0.00443-0.12492c0.07777-0.06497,0.17183-0.04629,0.26047-0.04638
		c1.10686-0.0012,2.21371-0.00077,3.32057-0.00078c2.95339-0.00001,5.90679,0.00002,8.86018-0.0001
		c0.10104,0,0.20199-0.00789,0.30272-0.01071c0.23092-0.00647,0.38051-0.13641,0.47759-0.31995
		c0.15331-0.28987,0.38339-0.47322,0.69476-0.56544c0.54565-0.16161,0.93899-0.52276,1.27165-0.96142
		c0.40784-0.53779,0.74715-1.11267,1.02089-1.73156c0.1865-0.42164,0.3483-0.84981,0.49803-1.28404
		c0.04328-0.12551,0.06226-0.25646,0.08936-0.38561c0.01291-0.06157,0.01578-0.12677,0.06177-0.17703
		c0.03987,0.02141,0.08132,0.03652,0.1278,0.03158c0.00275,0.41062-0.1632,0.78116-0.30091,1.15321
		c-0.29877,0.80722-0.68385,1.57446-1.18778,2.27732c-0.29841,0.41621-0.63511,0.79693-1.07998,1.07051
		c-0.16572,0.10191-0.35158,0.14575-0.5319,0.20455c-0.2249,0.07335-0.39422,0.20646-0.48548,0.42174
		C26.92559,11.7849,26.8116,11.94024,26.63243,12.04572z"/>
	<path fill="#6F6F6F" d="M30.46415,6.43652c-0.00956,0.22172-0.06047,0.43392-0.13014,0.6449
		c-0.11027,0.33392-0.21823,0.66922-0.3628,0.98948c-0.20549,0.45524-0.41697,0.90817-0.68828,1.33096
		c-0.21366,0.33296-0.44673,0.65104-0.70598,0.94969c-0.30211,0.34802-0.68983,0.56471-1.12664,0.70123
		c-0.25126,0.07853-0.43816,0.23334-0.5524,0.46803c-0.1336,0.27444-0.35195,0.40274-0.6559,0.39895
		c-0.19142-0.00239-0.3829-0.00044-0.57435-0.00043c-4.02051,0.00008-8.04102,0.00016-12.06152,0.00024
		c-0.00005-0.04229-0.00011-0.08459-0.00017-0.12689c0.06048-0.03103,0.12542-0.01462,0.18793-0.01464
		c4.12862-0.00094,8.25724-0.00255,12.38585,0.00288c0.28226,0.00037,0.4751-0.08365,0.59814-0.34537
		c0.11662-0.24806,0.31889-0.41452,0.58584-0.50064c0.252-0.08129,0.50838-0.1583,0.7139-0.33478
		c0.2445-0.20996,0.48231-0.42997,0.67558-0.68718c0.20814-0.27699,0.40456-0.56403,0.57134-0.86854
		c0.40641-0.74205,0.76529-1.50391,0.9674-2.32971c0.02241-0.09157,0.01365-0.18803,0.04456-0.27823
		C30.37906,6.43648,30.4216,6.4365,30.46415,6.43652z"/>
	<path fill="#616365" d="M19.82872,10.58437c0.0195-0.09283,0.05915-0.18325,0.03417-0.2814
		c-0.02174-0.0452-0.0131-0.09343-0.01309-0.14046c0.0007-2.34907-0.00027-4.69813,0.00062-7.0472
		c0.00003-0.07867-0.00993-0.15866,0.01849-0.23536c0.08529-0.07717,0.16778-0.04523,0.24971,0.00671
		c0.00001,2.24276-0.00075,4.48551,0.00097,6.72827c0.00022,0.28973-0.00091,0.57733-0.12844,0.8471
		C19.94237,10.50983,19.92485,10.59852,19.82872,10.58437z"/>
	<path fill="#717171" d="M30.33651,6.43646c0.01349,0.44056-0.18197,0.82892-0.3196,1.2301
		c-0.16223,0.47289-0.39866,0.91556-0.63762,1.35226c-0.32684,0.59728-0.73498,1.13997-1.25384,1.59262
		c-0.22236,0.19398-0.50239,0.26728-0.77146,0.36158c-0.27652,0.09692-0.45141,0.29894-0.59048,0.54025
		c-0.10082,0.17493-0.22633,0.28287-0.45192,0.28263c-4.23521-0.00453-8.47043-0.00328-12.70563-0.00323
		c-0.00079-0.01054-0.00093-0.02109-0.00041-0.03164c4.18107-0.00007,8.36214-0.0013,12.54319,0.00224
		c0.29673,0.00025,0.50402-0.08701,0.61754-0.38236c0.08008-0.20834,0.25186-0.36128,0.46655-0.43485
		c0.29831-0.10222,0.59-0.20976,0.85608-0.38488c0.08567-0.05638,0.12248-0.14149,0.19393-0.2031
		c0.42849-0.36952,0.72339-0.83892,1.00151-1.32218c0.38519-0.66931,0.70009-1.36839,0.92163-2.1072
		c0.04787-0.15962,0.06644-0.32789,0.09851-0.49217C30.31517,6.43651,30.32584,6.43648,30.33651,6.43646z"/>
	<path fill="#757575" d="M4.37679,1.30206c-0.74221,0-1.48442-0.00017-2.22662,0.00011
		c-0.23998,0.00009-0.29564,0.05662-0.29589,0.2989C1.85399,1.86943,1.85433,2.1378,1.85412,2.40616
		C1.85407,2.46861,1.86528,2.53581,1.79043,2.56975C1.7478,2.53851,1.70517,2.50727,1.66254,2.47604
		c0.00003-0.29985-0.00107-0.59973,0.0004-0.89959c0.00167-0.33958,0.12702-0.46369,0.47152-0.46418
		C2.8818,1.1112,3.62915,1.11203,4.37648,1.11209C4.37658,1.17542,4.37669,1.23874,4.37679,1.30206z"/>
	<path fill="#5C5D5F" d="M20.11862,2.88667c-0.07738-0.00059-0.15625,0.00948-0.22803-0.03133
		c-0.05246-0.05889-0.03407-0.13126-0.03879-0.19912c-0.00259-0.06158,0.01247-0.12526-0.02165-0.18326
		c-0.08939-0.2385-0.24426-0.40982-0.49858-0.47931c-0.09952-0.01944-0.1959-0.07-0.30108-0.02758
		c-0.02778,0.00226-0.05557,0.00453-0.08335,0.00679c-0.07845-0.01133-0.05219-0.0437-0.01605-0.07827
		c0.23667-0.22643,0.64417-0.31228,0.95145-0.05467c0.19716,0.16529,0.25398,0.38177,0.26366,0.61451
		C20.15214,2.59719,20.18626,2.74667,20.11862,2.88667z"/>
	<path fill="#5C5D5F" d="M12.64433,1.96607c-0.02779,0.00226-0.05558,0.00453-0.08336,0.00679
		c-0.0791-0.01152-0.05167-0.04417-0.0158-0.07849c0.23724-0.22703,0.6469-0.31231,0.95336-0.05228
		c0.20153,0.171,0.24838,0.39389,0.26434,0.63293c0.00842,0.12616,0.00154,0.25333,0.00156,0.38004
		c0,0,0.0003,0.00033,0.0003,0.00033c-0.01454,0.01174-0.0303,0.02154-0.04724,0.02959
		c-0.07459,0.0177-0.14786,0.02227-0.21589-0.02241c-0.04716-0.06225-0.03246-0.13526-0.03608-0.20499
		c-0.00267-0.06186,0.01262-0.12586-0.02141-0.18423c-0.0893-0.23871-0.24422-0.41014-0.49868-0.4797
		C12.84592,1.97422,12.74952,1.92365,12.64433,1.96607z"/>
	<path fill="#5C5D5F" d="M15.83741,1.96607c-0.02779,0.00226-0.05557,0.00453-0.08336,0.00679
		c-0.0791-0.01152-0.05167-0.04416-0.0158-0.07849c0.23724-0.22704,0.64691-0.31231,0.95336-0.05227
		c0.20152,0.171,0.24839,0.39387,0.26431,0.63293c0.0084,0.12616,0.00154,0.25333,0.00157,0.38004
		c0,0,0.00031,0.00033,0.00031,0.00033c-0.01454,0.01174-0.0303,0.02154-0.04723,0.02959
		c-0.07459,0.01769-0.14786,0.02227-0.21589-0.02241c-0.04715-0.06225-0.03246-0.13526-0.03608-0.20499
		c-0.00267-0.06186,0.01263-0.12585-0.02141-0.18423c-0.0893-0.2387-0.24422-0.41014-0.49868-0.4797
		C16.039,1.97422,15.9426,1.92365,15.83741,1.96607z"/>
	<path fill="#6A6A6A" d="M1.31115,2.44129c0.00008-0.29481,0.00016-0.58961,0.00024-0.88442c0.00001-0.02106,0-0.04212,0-0.06317
		C1.3114,0.95146,1.3114,0.95146,1.85427,0.954C1.53821,1.03586,1.49843,1.27674,1.50206,1.54759
		c0.004,0.29823,0.00084,0.59656,0.00079,0.89484C1.43895,2.44204,1.37505,2.44166,1.31115,2.44129z"/>
	<path fill="#616365" d="M13.50442,2.85534c0.07605-0.00008,0.15209-0.00015,0.22814-0.00023
		c0.02807,0.04948,0.01475,0.10344,0.01477,0.15516c0.00074,2.34743,0.00074,4.69486-0.00001,7.04228
		c-0.00002,0.0517,0.01348,0.1057-0.01503,0.15507c-0.04237,0.06958-0.07743,0.14227-0.0956,0.22211
		c-0.03128,0.04627-0.06425,0.09595-0.114,0.11906c-0.06269,0.02912-0.06794-0.00872-0.04663-0.05783
		c0.00022-0.06267,0.00044-0.12534,0.00066-0.18801c-0.0217-0.04521-0.01311-0.09343-0.0131-0.14047
		c0.00068-2.34911-0.00043-4.69822,0.00122-7.04733C13.4649,3.02775,13.44157,2.93435,13.50442,2.85534z"/>
	<path fill="#616365" d="M16.69751,2.85534c0.07605-0.00008,0.15209-0.00015,0.22814-0.00023
		c0.02807,0.04948,0.01475,0.10343,0.01476,0.15516c0.00074,2.34743,0.00074,4.69486-0.00001,7.04229
		c-0.00002,0.0517,0.01348,0.10569-0.01503,0.15506c-0.04237,0.06958-0.07744,0.14227-0.0956,0.22211
		c-0.03128,0.04627-0.06425,0.09595-0.114,0.11906c-0.06269,0.02911-0.06794-0.00871-0.04664-0.05782
		c0.00022-0.06267,0.00045-0.12533,0.00067-0.188c-0.0217-0.04521-0.01311-0.09343-0.0131-0.14047
		c0.00068-2.34911-0.00043-4.69823,0.00121-7.04734C16.65798,3.02775,16.63465,2.93435,16.69751,2.85534z"/>
	<path fill="#6A6B6C" d="M16.92537,10.20763c0.00009-2.45084,0.00018-4.90168,0.00027-7.35251
		c0.01072,0.00009,0.02144,0.00019,0.03216,0.00028c-0.00007,2.3855,0.0001,4.77099-0.00152,7.15648
		C16.95624,10.07719,16.9832,10.15001,16.92537,10.20763z"/>
	<path fill="#6A6B6C" d="M13.73229,10.20762c0.00009-2.45084,0.00018-4.90168,0.00027-7.35251
		C13.74328,2.8552,13.754,2.8553,13.76472,2.85539c-0.00007,2.3855,0.00011,4.77099-0.00152,7.15648
		C13.76316,10.07719,13.79012,10.15001,13.73229,10.20762z"/>
	<path fill="#6A6B6C" d="M13.47605,10.49097c0.00461,0.03629,0.01458,0.06159,0.05499,0.02735
		c0.03506-0.02971,0.07042-0.05907,0.10565-0.08858c-0.01063,0.09479-0.09175,0.13726-0.15236,0.19155
		c-0.03218,0.02882-0.03455-0.01742-0.04207-0.03863C13.45352,10.5521,13.46479,10.52153,13.47605,10.49097z"/>
	<path fill="#6A6B6C" d="M16.66913,10.49097c0.0046,0.0363,0.01458,0.06158,0.05499,0.02735
		c0.03506-0.0297,0.07042-0.05907,0.10565-0.08858c-0.01063,0.09479-0.09175,0.13726-0.15236,0.19155
		c-0.03218,0.02882-0.03455-0.01742-0.04206-0.03863C16.6466,10.5521,16.65787,10.52153,16.66913,10.49097z"/>
	<path fill="#DCDEE0" d="M16.16196,1.9666c0.26605,0.05722,0.40889,0.2435,0.50689,0.47674
		c0.02894,0.04786,0.01679,0.09762,0.00693,0.14735c-0.01013,0.07357-0.00554,0.1475-0.00554,0.22121
		c-0.00028,2.41473-0.00005,4.82945-0.00094,7.24418c-0.00003,0.08304,0.0176,0.16963-0.03104,0.24722
		c-0.35258-0.00808-0.63818-0.30603-0.63847-0.66607c0.03148-0.06002,0.01538-0.12459,0.0154-0.18675
		c0.00096-2.44512,0.00092-4.89023,0.00045-7.33535C16.01563,2.01573,16.00075,1.90717,16.16196,1.9666z"/>
	<path fill="#E4E3E2" d="M16.63826,10.30331c-0.00003-2.51736-0.00023-5.03473,0.00097-7.55209
		c0.00003-0.06066-0.02312-0.1276,0.02868-0.18124c0.02413,0.01886,0.01751,0.05015,0.03021,0.07364
		c-0.0002,0.07057-0.0004,0.14115-0.00061,0.21172c-0.0023,0.06311-0.00659,0.12621-0.0066,0.18932
		c-0.00034,2.35208-0.00017,4.70417-0.00091,7.05625c-0.00002,0.06756,0.01431,0.1375-0.0202,0.20206l-0.01577,0.00049
		L16.63826,10.30331z"/>
	<path fill="#D9DBDE" d="M16.16196,1.9666c-0.10936-0.01472-0.13446,0.04001-0.13223,0.13885
		c0.00546,0.24282,0.00177,0.48584,0.00177,0.72878c0,2.2023,0.00026,4.4046-0.00127,6.60689
		c-0.00005,0.06545,0.02681,0.13819-0.03043,0.19613c-0.00035-2.50003-0.00171-5.00005,0.00187-7.50007
		c0.00018-0.12825-0.03056-0.1883-0.16425-0.17111C15.94568,1.91361,16.05385,1.92485,16.16196,1.9666z"/>
	<path fill="#DCDEE0" d="M19.35504,1.9666c0.26605,0.05722,0.40889,0.24351,0.5069,0.47674
		c0.02893,0.04786,0.01678,0.09763,0.00693,0.14735c-0.01013,0.07357-0.00554,0.1475-0.00554,0.22121
		c-0.00028,2.41473-0.00005,4.82945-0.00093,7.24418c-0.00003,0.08304,0.0176,0.16963-0.03104,0.24722
		c-0.35257-0.00809-0.63817-0.30603-0.63847-0.66607c0.03148-0.06002,0.01538-0.12459,0.01541-0.18674
		c0.00096-2.44512,0.00092-4.89023,0.00045-7.33535C19.20871,2.01573,19.19383,1.90717,19.35504,1.9666z"/>
	<path fill="#E4E3E2" d="M19.83135,10.30331c-0.00003-2.51736-0.00023-5.03473,0.00097-7.55209
		c0.00003-0.06066-0.02312-0.1276,0.02868-0.18124c0.02413,0.01886,0.01751,0.05015,0.03021,0.07364
		c-0.0002,0.07057-0.0004,0.14115-0.00061,0.21172c-0.00231,0.06311-0.0066,0.12621-0.00661,0.18932
		c-0.00034,2.35208-0.00016,4.70417-0.00091,7.05625c-0.00002,0.06756,0.01432,0.1375-0.0202,0.20206
		c0,0-0.01577,0.00049-0.01577,0.00049L19.83135,10.30331z"/>
	<path fill="#D9DBDE" d="M19.35504,1.9666c-0.10935-0.01472-0.13446,0.04-0.13224,0.13885
		c0.00546,0.24282,0.00178,0.48584,0.00178,0.72878c0,2.2023,0.00026,4.4046-0.00127,6.6069
		c-0.00005,0.06545,0.02682,0.13819-0.03044,0.19612c-0.00035-2.50003-0.00171-5.00005,0.00188-7.50007
		c0.00018-0.12824-0.03057-0.1883-0.16426-0.17111C19.13876,1.91361,19.24693,1.92485,19.35504,1.9666z"/>
	<path fill="#DCDEE0" d="M12.96888,1.9666c0.26605,0.05722,0.40889,0.2435,0.50689,0.47674
		c0.02894,0.04786,0.01679,0.09762,0.00693,0.14735c-0.01013,0.07357-0.00554,0.1475-0.00555,0.22121
		c-0.00027,2.41472-0.00005,4.82945-0.00093,7.24417c-0.00003,0.08304,0.01758,0.16963-0.03103,0.24723
		c-0.35259-0.00808-0.6382-0.30602-0.63849-0.66607c0.03148-0.06002,0.01538-0.12459,0.0154-0.18675
		c0.00096-2.44512,0.00092-4.89023,0.00045-7.33535C12.82255,2.01573,12.80767,1.90717,12.96888,1.9666z"/>
	<path fill="#E4E3E2" d="M13.4452,10.30331c-0.00003-2.51736-0.00024-5.03473,0.00096-7.55209
		c0.00003-0.06067-0.02312-0.1276,0.02868-0.18124c0.02413,0.01886,0.01751,0.05016,0.03021,0.07364
		c-0.0002,0.07057-0.0004,0.14115-0.00061,0.21172c-0.0023,0.06311-0.0066,0.12621-0.00661,0.18932
		c-0.00034,2.35208-0.00016,4.70417-0.00091,7.05625c-0.00002,0.06756,0.01432,0.1375-0.0202,0.20206
		c0,0-0.01575,0.00049-0.01575,0.00049L13.4452,10.30331z"/>
	<path fill="#D9DBDE" d="M12.96888,1.9666c-0.10936-0.01472-0.13446,0.04001-0.13224,0.13886
		c0.00546,0.24282,0.00177,0.48584,0.00177,0.72878c0,2.2023,0.00026,4.4046-0.00127,6.60689
		c-0.00005,0.06545,0.02681,0.13819-0.03043,0.19613C12.80636,7.13722,12.805,4.6372,12.80859,2.13718
		c0.00018-0.12824-0.03056-0.1883-0.16425-0.17111C12.7526,1.91361,12.86077,1.92485,12.96888,1.9666z"/>
	<path fill="#616365" d="M19.89121,2.64362c-0.01007-0.02455-0.02014-0.04909-0.03021-0.07364
		c0.00031-0.04221,0.00063-0.08442,0.00094-0.12664C19.92324,2.50268,19.8868,2.57609,19.89121,2.64362z"/>
	<path fill="#616365" d="M13.50504,2.64362c-0.01007-0.02455-0.02014-0.04909-0.03021-0.07364
		c0.00031-0.04221,0.00063-0.08442,0.00094-0.12664C13.53709,2.50268,13.50063,2.57609,13.50504,2.64362z"/>
	<path fill="#616365" d="M16.69812,2.64362c-0.01007-0.02455-0.02014-0.04909-0.03021-0.07364
		c0.00031-0.04221,0.00063-0.08442,0.00094-0.12664C16.73016,2.50268,16.69372,2.57609,16.69812,2.64362z"/>
</g>
</svg>
