<?xml version="1.0" encoding="utf-8"?>
<!-- Generator: Adobe Illustrator 23.0.0, SVG Export Plug-In . SVG Version: 6.00 Build 0)  -->
<svg version="1.1" id="Слой_1" xmlns="http://www.w3.org/2000/svg" xmlns:xlink="http://www.w3.org/1999/xlink" x="0px" y="0px" width="32px" height="13px"
	 viewBox="0 0 32 13" enable-background="new 0 0 32 13" xml:space="preserve">
<g>
	<path fill="#2D2D2D" d="M0.86438,12.99689c-0.02129,0-0.04257,0-0.06386,0c-0.33183-0.05126-0.56626-0.23332-0.72469-0.52323
		c-0.04681-0.08566-0.04517-0.18058-0.07358-0.26911c0-2.20796,0-4.41593,0-6.6239c0.03484-0.02885,0.07491-0.03615,0.11867-0.0287
		c0.30471,0.10753,0.41072,0.26299,0.41096,0.61574c0.00116,1.65234,0.00038,3.30467,0.00055,4.95701
		c0.00003,0.25339-0.00339,0.50683,0.00116,0.76017c0.0063,0.35067,0.20489,0.54537,0.55886,0.55347
		c0.06912,0.00158,0.13828,0.00062,0.20742,0.00062c5.03139,0.00002,10.06278,0.00001,15.09417,0.00004
		c0.07446,0,0.14894-0.00118,0.22337,0.00091c0.30537,0.00858,0.46824,0.1301,0.56346,0.41944
		c0.00416,0.04391-0.00023,0.08515-0.03737,0.11586c-0.06345,0.01024-0.12743,0.00507-0.19116,0.00508
		c-5.29465,0.00028-10.58931,0.00018-15.88396,0.00114C1.00052,12.98146,0.93019,12.9644,0.86438,12.99689z"/>
	<path fill="#262727" d="M31.99691,6.78501c-0.06809,0.03773-0.04715,0.11021-0.0594,0.16591
		c-0.39912,1.81492-1.17801,3.443-2.43218,4.8313c-0.4517,0.50001-0.98541,0.89516-1.64168,1.10545
		c-0.12238,0.03921-0.25887,0.03076-0.36898,0.10923c-0.05322,0-0.10644,0-0.15965,0
		c-0.06033-0.03172-0.1254-0.01548-0.18795-0.0155c-3.31336-0.00108-6.62672-0.00052-9.94008-0.00103
		c-0.02224,0.00184-0.04137-0.00496-0.05738-0.02038c-0.00017-0.02995-0.00034-0.05991-0.00051-0.08987
		c0.08267-0.06982,0.18268-0.04486,0.27569-0.04491c2.59014-0.0014,5.18027-0.00111,7.77041-0.00111
		c0.64355,0,1.2872-0.00727,1.9306,0.00236c0.49167,0.00736,0.93093-0.14304,1.34224-0.3928
		c0.301-0.18277,0.55404-0.4214,0.80717-0.66499c0.73802-0.71021,1.25873-1.56714,1.6928-2.47521
		c0.38063-0.7963,0.69538-1.62145,0.83759-2.5003c0.01682-0.10392,0.00055-0.21207,0.04271-0.31225
		c0.0232-0.0356,0.0571-0.0408,0.09553-0.03289c0.04341,0.0116,0.02779,0.06034,0.05309,0.08344
		C31.99691,6.61598,31.99691,6.7005,31.99691,6.78501z"/>
	<path fill="#1A1A1A" d="M31.96232,6.46722c-0.03099,0.00035-0.06199,0.0007-0.09298,0.00106
		c-0.04772,0.02091-0.07377,0.0121-0.06416-0.04599c0.06061-0.1573,0.01527-0.31387-0.01158-0.46757
		c-0.12272-0.70242-0.36961-1.36663-0.66622-2.01134c-0.40354-0.87713-0.89063-1.70878-1.52856-2.439
		c-0.39678-0.45418-0.846-0.86123-1.39323-1.14126c-0.38106-0.195-0.78998-0.27983-1.21652-0.28014
		c-1.76632-0.00125-3.53264-0.00052-5.29897-0.00052c-5.45857,0-10.91714-0.00002-16.37572,0.00013
		c-0.11167,0-0.22393-0.00668-0.33359,0.02279C4.95084,0.11189,4.92434,0.10824,4.90674,0.07972
		c-0.0107-0.02808-0.00696-0.05389,0.01285-0.07707c7.5676,0,15.1352,0,22.7028,0c0.54725,0.15601,1.03093,0.42411,1.46038,0.79587
		c0.58692,0.50808,1.05576,1.11143,1.46037,1.76595c0.62529,1.01151,1.10947,2.08304,1.37422,3.24577
		c0.02358,0.10358,0.01354,0.21627,0.07955,0.3092c0,0.06339,0,0.12677,0,0.19016
		C31.95632,6.35586,32.00553,6.42153,31.96232,6.46722z"/>
	<path fill="#252525" d="M4.91959,0.00265C4.91953,0.02374,4.91948,0.04483,4.91942,0.06593
		c-0.08125,0.07212-0.18151,0.049-0.2746,0.04914C3.43704,0.11694,2.22925,0.11373,1.02148,0.11741
		c-0.52593,0.0016-0.86555,0.34356-0.87262,0.86541C0.14807,1.0409,0.14857,1.099,0.14857,1.15709
		c-0.00003,1.38363,0.00052,2.76726-0.00112,4.1509c-0.00011,0.09241,0.02312,0.1919-0.04936,0.27262
		C0.06614,5.58063,0.03419,5.58065,0.00225,5.58067c0-1.61636,0-3.23271,0-4.84907c0.05855-0.37618,0.26539-0.62436,0.63862-0.72895
		C2.06711,0.00265,3.49335,0.00265,4.91959,0.00265z"/>
	<path fill="#697681" d="M17.1496,12.95999c0.00971,0.00373,0.01962,0.00684,0.02972,0.00935
		c0.01135,0.00546,0.01536,0.01135,0.0121,0.0177c-0.00336,0.00656-0.00681,0.00985-0.0104,0.00985
		c-5.43888,0-10.87776,0-16.31664,0c0.04292-0.06314,0.1075-0.03102,0.16094-0.03103
		c5.32693-0.00157,10.65386-0.00146,15.98079-0.00165C17.05394,12.96421,17.10177,12.96145,17.1496,12.95999z"/>
	<path fill="#535F69" d="M17.18102,12.99689c-0.00011-0.00922-0.00067-0.01842-0.00169-0.02757
		c0.05315-0.00135,0.1063-0.00391,0.15946-0.00392c3.28301-0.00031,6.56602-0.00052,9.84904,0.0004
		c0.04974,0.00001,0.10786-0.02364,0.14719,0.03109C23.95035,12.99689,20.56568,12.99689,17.18102,12.99689z"/>
	<path fill="#404C56" d="M31.96232,6.46722c0.01474-0.05184-0.02379-0.1152,0.03459-0.1576c0,0.07395,0,0.1479,0,0.22185
		C31.96879,6.51885,31.96571,6.49295,31.96232,6.46722z"/>
	<path fill="#202020" d="M0.09808,5.58061c-0.00002-1.54011-0.00012-3.08022,0-4.62033
		c0.00004-0.51903,0.37744-0.89412,0.8997-0.8942C2.305,0.06589,3.61221,0.06596,4.91942,0.06593
		c0.01064,0.01064,0.02128,0.02128,0.03193,0.03192c0.04366,0.02486,0.0649,0.06882,0.09224,0.10741
		c0.08564,0.12087,0.2045,0.18094,0.35126,0.19C5.4799,0.40051,5.56508,0.39828,5.6502,0.39828
		c7.02903,0.00009,14.05806,0.00473,21.08706-0.00879c0.55949-0.00108,1.03711,0.1602,1.51205,0.41332
		c0.69131,0.36843,1.18741,0.92961,1.63128,1.55255c0.4435,0.62242,0.72927,1.32302,1.03921,2.01193
		c0.17585,0.39088,0.33203,0.78997,0.43041,1.20823c0.07687,0.32683,0.1607,0.64821,0.45495,0.86106
		c0.01393,0.02544,0.0379,0.03087,0.06417,0.03169c0.00679,0.4485-0.11965,0.87264-0.25237,1.29329
		C31.47009,8.22714,31.28036,8.6759,31.0855,9.1251c-0.31538,0.72701-0.72503,1.39095-1.19183,2.02606
		c-0.20607,0.28037-0.46843,0.50803-0.70507,0.75982c-0.29875,0.31787-0.64621,0.55719-1.03588,0.74066
		c-0.29409,0.13847-0.60365,0.22004-0.93493,0.21982c-3.35623-0.00217-6.71246-0.00134-10.06869-0.00135
		c-0.10196-0.29204-0.31434-0.38412-0.6164-0.38384c-5.14297,0.0049-10.28595,0.00073-15.4289,0.00971
		c-0.34754,0.00061-0.63121-0.28369-0.6289-0.61815C0.48795,9.9828,0.47759,8.08761,0.48492,6.19251
		C0.48608,5.89258,0.39217,5.68193,0.09808,5.58061z"/>
	<path fill="#131313" d="M31.80517,6.43658c-0.22489-0.05813-0.3148-0.23908-0.38186-0.43071
		c-0.12856-0.36732-0.19735-0.7517-0.34122-1.11654c-0.1529-0.38775-0.32437-0.76677-0.49199-1.14767
		c-0.26204-0.59546-0.58978-1.15121-0.98067-1.67578c-0.54525-0.73173-1.2497-1.23284-2.10033-1.54995
		c-0.14279-0.05323-0.28385-0.07107-0.43435-0.07104C19.86969,0.44658,12.66463,0.44637,5.45958,0.44632
		c-0.29313,0-0.45802-0.11334-0.50823-0.34847c0.00567-0.04424,0.03182-0.06363,0.07582-0.06307
		c0.04254,0.00054,0.0851-0.00036,0.12766-0.00036c7.30342-0.00002,14.60684-0.00124,21.91026,0.00247
		c0.54106,0.00027,1.03348,0.16839,1.48521,0.47661c0.17302,0.11805,0.33561,0.24957,0.50583,0.37034
		c0.13077,0.09278,0.21323,0.25094,0.3406,0.35049c0.23318,0.18226,0.41112,0.41171,0.5741,0.64783
		c0.25721,0.37263,0.50624,0.75076,0.73422,1.14418c0.39926,0.68901,0.70755,1.41264,0.95337,2.16585
		c0.121,0.37076,0.18998,0.7521,0.24065,1.13742C31.90852,6.40145,31.88471,6.44263,31.80517,6.43658z"/>
	<path fill="#262626" d="M14.08377,0.8267c4.25152,0,8.50304,0.00227,12.75455-0.00238
		c0.65996-0.00072,1.20754,0.22888,1.69841,0.662c0.35499,0.31323,0.66575,0.66378,0.93063,1.04388
		c0.38422,0.55136,0.71656,1.1363,0.98283,1.75918c0.13993,0.32734,0.28716,0.65241,0.39918,0.98896
		C31.05064,5.883,31.1599,6.49409,30.97578,7.134c-0.13375,0.46483-0.27048,0.93131-0.46708,1.36882
		c-0.23101,0.51406-0.48075,1.02267-0.77635,1.50863c-0.2723,0.44765-0.59606,0.85678-0.95145,1.22968
		c-0.36477,0.38274-0.79397,0.71846-1.34747,0.81703c-0.17603,0.03135-0.35706,0.04918-0.53581,0.04923
		c-8.55625,0.00234-17.11251,0.00204-25.66876,0.00202c-0.03192,0-0.06404,0.00184-0.09574-0.0009
		c-0.20097-0.01734-0.25283-0.06969-0.26785-0.2715c-0.00313-0.04203-0.00083-0.08447-0.00083-0.12672
		c-0.00002-3.49633-0.00003-6.99267,0-10.489c0-0.35631,0.0389-0.39458,0.40093-0.39458
		C5.53816,0.82669,9.81097,0.8267,14.08377,0.8267z"/>
	<path fill="#253D29" d="M27.84534,1.11157c0.23423,0.16581,0.49301,0.29228,0.70921,0.48946
		c0.26628,0.24287,0.50114,0.51107,0.71599,0.79526c0.37568,0.49693,0.69512,1.03021,0.9647,1.59119
		c0.16858,0.35079,0.32112,0.70895,0.45394,1.07498c0.01993,0.05493,0.03677,0.10985,0.03014,0.16918
		c-0.02915,0.11722-0.05486,0.23541-0.08654,0.35185c-0.12049,0.44289-0.54865,0.78324-0.97863,0.7824
		c-0.54842-0.10971-1.01278-0.36056-1.39805-0.77078c-0.63119-0.67206-1.41259-1.08189-2.31141-1.30185
		c-0.80231-0.19634-1.60683-0.36616-2.43057-0.43881C23.45037,3.84884,23.38651,3.85001,23.32267,3.85
		c-0.60135-0.00015-1.20271,0.00114-1.80406-0.00053C21.13727,3.84841,20.84191,3.7,20.65545,3.35621
		c-0.20188-0.37223-0.56109-0.44489-0.93968-0.45445c-0.40949-0.01034-0.81946-0.00376-1.22924-0.00115
		c-0.0798-0.00081-0.15983,0.00308-0.23904-0.01016c-0.12788-0.03582-0.21712-0.13074-0.31562-0.20948
		c-0.48341-0.38648-1.03097-0.645-1.64434-0.7171c-1.0339-0.12154-1.98922,0.08584-2.80396,0.77176
		c-0.0771,0.06491-0.15138,0.13372-0.25453,0.15741c-0.31879,0.01965-0.63808,0.01775-0.9563,0.00407
		c-0.2604-0.0112-0.48538-0.12424-0.6497-0.32698c-0.50137-0.61863-0.53854-0.52052-1.13506-0.5217
		C8.74987,2.045,7.01173,2.04811,5.2736,2.04665c-0.47471-0.0004-0.77342-0.21001-0.93368-0.64577
		C4.32975,1.33645,4.30361,1.27487,4.30294,1.2085C4.29842,1.17054,4.30086,1.13252,4.30115,1.09439
		c0.00398-0.0588-0.00572-0.12321,0.06407-0.15515c0.96299-0.00269,1.92589-0.00102,2.88879-0.00105
		C13.91458,0.938,20.57514,0.93807,27.23556,0.93807c0.08724,0.01197,0.17376,0.0287,0.25995,0.04717l-0.00134-0.00077
		c0.06292,0.02552,0.13276,0.03053,0.19292,0.06421l-0.00106-0.00073C27.73581,1.07736,27.79417,1.0856,27.84534,1.11157z"/>
	<path fill="#3D5C46" d="M0.98985,9.82918c-0.0083-0.03369-0.0166-0.06737-0.0249-0.10106
		c0.02022-0.0456,0.01126-0.0938,0.01127-0.14079c0.00047-2.08028,0.00048-4.16057-0.00005-6.24085
		C0.97615,3.29965,0.98622,3.25124,0.96333,3.20621C0.96254,3.19557,0.96176,3.18492,0.96097,3.17428
		c0.05252-0.19711,0.1439-0.37563,0.28571-0.52215C1.35193,2.5434,1.46093,2.42439,1.64225,2.46554
		c0.26545,0.12163,0.35889,0.33517,0.35836,0.61551C1.99736,4.81888,1.99933,6.55672,1.9984,8.29455
		C1.99828,8.51583,2.03068,8.72597,2.16802,8.90905c0.19826,0.26427,0.46137,0.39604,0.79486,0.39497
		C3.52699,9.3022,4.0911,9.30289,4.6552,9.30379c0.45787,0.00074,0.68767,0.179,0.79701,0.61597
		c0.09349,0.37365,0.42915,0.64934,0.82849,0.67974c0.07966,0.00606,0.15959,0.00344,0.2394,0.00345
		c2.11806,0.00019,4.23612-0.00095,6.35418,0.00084c0.46424,0.00039,0.74446,0.28171,0.74719,0.74033
		c0.00028,0.04749,0.00212,0.09507-0.00286,0.14236c-0.0003,0.05546,0.00274,0.11108-0.00154,0.16653
		c-0.00025,0.03568,0.00202,0.07144-0.00036,0.10712c0.00002,0.06155,0.00246,0.12325-0.00668,0.18456
		c-0.00493,0.02723-0.02036,0.04874-0.03833,0.06885c-3.51406,0.00028-7.02813,0.00052-10.54219,0.00117
		c-0.06415,0.00001-0.12768,0.00128-0.18586-0.03137c-0.1377-0.0027-0.22047-0.09813-0.29896-0.18803
		c-0.15802-0.18099-0.24032-0.39541-0.25292-0.63581c-0.01337-0.255-0.05329-0.29297-0.31681-0.30892
		c-0.43578-0.02637-0.92092-0.4448-0.98815-0.85119C0.97732,9.94204,0.96598,9.88555,0.98985,9.82918z"/>
	<path fill="#273D2B" d="M13.5717,12.01356c0.00074-0.02075,0.00147-0.0415,0.0022-0.06225
		c0.07796-0.06494,0.17208-0.04538,0.26062-0.04543c1.71337-0.00109,3.42674-0.0008,5.14012-0.0008
		c2.36786,0,4.73572,0.00001,7.10358-0.00005c0.06384,0,0.12776,0.00192,0.19151-0.00242
		c0.23846-0.01623,0.42594-0.10458,0.53653-0.3333c0.13679-0.28291,0.34736-0.47792,0.66704-0.56498
		c0.54114-0.14738,0.938-0.50333,1.2718-0.93471c0.43949-0.56797,0.80497-1.17897,1.08031-1.84241
		c0.13322-0.32102,0.29518-0.63069,0.38091-0.97011c0.01062-0.04204,0.03334-0.07769,0.07527-0.09712
		c0.0458-0.01741,0.08519,0.00091,0.1155,0.03071c0.17883,0.17589,0.29708,0.37702,0.25907,0.63987
		c-0.046,0.27329-0.17382,0.51867-0.2807,0.76905c-0.25085,0.58762-0.55553,1.14791-0.91677,1.67741
		c-0.21124,0.30963-0.43984,0.60848-0.70291,0.87236c-0.3891,0.39031-0.8152,0.74003-1.38527,0.84701
		c-0.05164,0.00969-0.10466,0.01727-0.15704,0.01728C22.66622,12.01417,18.11896,12.01383,13.5717,12.01356z"/>
	<path fill="#202020" d="M1.59852,2.47396C1.3,2.55683,1.16352,2.79515,1.04119,3.04682
		C1.01909,3.0923,1.01866,3.15093,0.96096,3.17426C0.9607,2.92358,0.96081,2.67289,0.95989,2.42219
		c-0.00021-0.0578-0.00196-0.11521,0.03264-0.16595C0.99401,2.23279,1.00333,2.21263,1.01836,2.1948
		C1.14333,2.08792,1.276,1.99346,1.43644,1.94479c0.04147-0.01191,0.08423-0.01888,0.12558-0.03147
		c0.0472-0.01343,0.09756-0.01138,0.14376-0.02969c0.01257-0.00642,0.02525-0.01238,0.0377-0.01888
		C1.81383,1.81701,1.80556,1.73684,1.8265,1.66873c0.04451-0.14481,0.08338-0.29174,0.15891-0.42519
		c0.03311-0.04751,0.06524-0.09579,0.10263-0.14029c0.01987-0.0211,0.04331-0.03796,0.06653-0.05503
		c0.03826-0.03153,0.07174-0.06886,0.11474-0.09474c0.04154-0.04841,0.09828-0.03084,0.14913-0.03101
		c0.34481-0.00117,0.68962-0.0003,1.03443-0.0001C3.46364,0.93572,3.46819,0.9509,3.46662,0.96791
		C3.43432,1.05664,3.35733,1.078,3.27617,1.08525C3.20141,1.09193,3.12908,1.10439,3.0599,1.13291
		C2.99041,1.15955,2.92185,1.18818,2.8614,1.23276C2.78993,1.28789,2.71271,1.3361,2.65408,1.40651
		C2.42209,1.58156,2.3492,1.82444,2.34086,2.101C2.3346,2.30867,2.22953,2.41543,2.02331,2.41787
		C1.8779,2.41959,1.74317,2.48021,1.59852,2.47396z"/>
	<path fill="#202020" d="M30.65615,7.83056c-0.0436-0.2601-0.11685-0.50483-0.35065-0.66632
		c-0.06846-0.01336-0.1056-0.07502-0.16384-0.10415c-0.02981-0.02041-0.05875-0.04212-0.09122-0.05861
		c-0.05436-0.02917-0.11215-0.04904-0.1719-0.06442c-0.13676-0.04259-0.2747-0.07269-0.41898-0.08052
		c-0.15445-0.00838-0.24774-0.11276-0.24385-0.25358c0.00403-0.14593,0.12841-0.2713,0.27503-0.2692
		c0.05762,0.00082,0.11568,0.00404,0.17352,0.00648c0.53184-0.1058,0.88281-0.35962,0.96208-0.91818
		c0.0099-0.06974,0.01541-0.1496,0.09299-0.19042c0.0975,0.23457,0.20175,0.4674,0.19223,0.72976
		c0.03714,0.13672-0.05507,0.22619-0.12754,0.31639c-0.08535,0.10622-0.18834,0.19749-0.30623,0.26984
		c-0.08271,0.05076-0.07981,0.09763,0.0016,0.15067c0.12349,0.08046,0.24476,0.16487,0.32469,0.29347
		c0.02695,0.04337,0.06917,0.08213,0.04364,0.14146C30.85213,7.38415,30.75152,7.60665,30.65615,7.83056z"/>
	<path fill="#202020" d="M0.98985,9.82918c-0.0049,0.23906,0.13541,0.41482,0.26741,0.59192
		c0.1984,0.2662,0.4596,0.40518,0.80209,0.39135c0.17779-0.00718,0.27208,0.08601,0.27203,0.25671
		c-0.00012,0.40118,0.15993,0.70969,0.51229,0.91419c-0.24404,0.0532-0.488,0.04886-0.73191-0.00086
		c-0.11345-0.03966-0.14618-0.14466-0.19103-0.23773c-0.03198-0.06637-0.05494-0.13918-0.06004-0.21164
		c-0.0117-0.16644-0.10218-0.23499-0.26212-0.25624c-0.17503-0.02326-0.33417-0.09798-0.47999-0.19777
		c-0.05227-0.03577-0.10624-0.0703-0.13159-0.13265c-0.00946-0.01612-0.0075-0.03072,0.00578-0.04383
		c-0.04524-0.06636-0.03583-0.14207-0.0316-0.21446C0.97788,10.40203,0.9215,10.1135,0.98985,9.82918z"/>
	<path fill="#3D5C46" d="M0.99599,10.93227c0.19723,0.17984,0.42977,0.28727,0.69425,0.32096
		c0.12489,0.01591,0.1838,0.07703,0.19644,0.19995c0.02037,0.1981,0.09671,0.3752,0.22506,0.52931
		c-0.03608,0.04479-0.08711,0.03138-0.1332,0.03139c-0.32927,0.00008-0.65855-0.00125-0.98782-0.00213
		C0.97033,11.65182,0.96118,11.29194,0.99599,10.93227z"/>
	<path fill="#535F69" d="M3.45265,0.95169c-0.00106-0.00978-0.001-0.01955,0.00021-0.02932
		c7.8963-0.00019,15.79258-0.00039,23.68886-0.00046c0.04255,0,0.0851,0.00178,0.12766,0.00272
		c0.01185,0.00572,0.01592,0.01168,0.01225,0.0179c-0.00372,0.00632-0.0075,0.00949-0.01138,0.00949
		c-1.64965,0.00047-3.29931,0.00131-4.94896,0.00136C16.4038,0.95355,10.48632,0.95344,4.56884,0.95357
		c-0.07448,0-0.14895,0.00179-0.22343,0.00275c-0.03795,0.03238-0.0836,0.04377-0.13191,0.0449
		C4.00282,1.00615,3.79209,1.00725,3.58144,1.00046C3.534,0.99893,3.48635,0.99186,3.45265,0.95169z"/>
	<path fill="#263D2A" d="M30.84771,7.13324c-0.08815-0.18795-0.23871-0.31805-0.41312-0.41995
		c-0.12259-0.07163-0.10223-0.11856,0.00239-0.1858c0.21636-0.13904,0.40476-0.3045,0.47458-0.56609
		c0.11015,0.06357,0.07323,0.1833,0.08646,0.2718c0.04415,0.29553-0.03884,0.5834-0.09884,0.87094
		C30.89652,7.11682,30.86551,7.12367,30.84771,7.13324z"/>
	<path fill="#535F69" d="M0.96333,3.20621c0.04951,0.04827,0.02776,0.10992,0.02779,0.16534
		c0.00116,2.06346,0.00116,4.12692,0.00004,6.19038C0.99113,9.61761,1.0116,9.67886,0.96492,9.72817
		C0.96335,9.17938,0.96033,8.63064,0.96043,8.0819C0.96073,6.45667,0.96227,4.83144,0.96333,3.20621z"/>
	<path fill="#2A442F" d="M1.567,1.93646C1.53303,1.9815,1.48324,1.96336,1.43915,1.96799
		C1.3689,1.887,1.40379,1.78868,1.39368,1.69771c-0.01947-0.175,0.03758-0.34078,0.06512-0.50962
		c0.02257-0.1384,0.12562-0.21074,0.25515-0.24923c0.16339,0.00672,0.32759-0.01792,0.49013,0.01419
		C2.22581,0.9532,2.24756,0.95334,2.26931,0.95348C2.24351,1.00021,2.23066,1.05672,2.17285,1.07925
		c-0.07412-0.00767-0.14611,0.0137-0.22025,0.01427C1.71341,1.09537,1.6155,1.19341,1.61107,1.42676
		c-0.00219,0.11552-0.0001,0.23108-0.00092,0.34661C1.60973,1.83136,1.61084,1.88978,1.567,1.93646z"/>
	<path fill="#535F69" d="M2.20407,0.95306C2.03387,0.95403,1.86368,0.95499,1.69349,0.95596
		C1.56365,1.0224,1.42324,1.0002,1.28624,1.00187C1.04231,1.00483,1.04519,1.00332,1.04076,1.25126
		c-0.00527,0.29495,0.01875,0.5904-0.0144,0.88503C1.0141,2.16373,1.00273,2.1924,0.9636,2.18695
		c-0.00113-0.3794-0.0022-0.7588-0.00346-1.13821C0.95993,0.98396,0.95339,0.92042,1.05255,0.92116
		c0.36632,0.00271,0.73266,0.00127,1.09899,0.00332C2.1691,0.92458,2.18656,0.94311,2.20407,0.95306z"/>
	<path fill="#535F69" d="M0.99599,10.93227c-0.00175,0.35984-0.0035,0.71968-0.00527,1.0795
		c-0.03855-0.02446-0.03017-0.06373-0.03024-0.09916c-0.00053-0.30365-0.00043-0.60729-0.0001-0.91094
		c0.00004-0.03607-0.00471-0.0745,0.03238-0.09902C0.99354,10.91254,0.99461,10.92242,0.99599,10.93227z"/>
	<path fill="#3F4B4D" d="M27.27024,0.95202c0.00039-0.00917,0.00011-0.01831-0.00086-0.02742
		c0.07977,0.00403,0.15782,0.01441,0.22612,0.06063C27.41894,0.98406,27.34025,0.99704,27.27024,0.95202z"/>
	<path fill="#3F4B4D" d="M27.68709,1.04868c-0.07034-0.00354-0.13758-0.01624-0.19291-0.06421
		C27.56661,0.9818,27.63621,0.98755,27.68709,1.04868z"/>
	<path fill="#394644" d="M27.84534,1.11157c-0.06266,0.00238-0.11819-0.01283-0.15931-0.0636
		C27.74856,1.04589,27.80393,1.06152,27.84534,1.11157z"/>
	<path fill="#414D57" d="M0.9636,2.18695c0.01024-0.01037,0.02049-0.02074,0.03073-0.03111
		c0.04995,0.0036,0.05276,0.02863,0.03011,0.06524C1.0138,2.23277,1.00317,2.24447,0.99253,2.2562
		C0.96405,2.2409,0.9602,2.21541,0.9636,2.18695z"/>
	<path fill="#355739" d="M29.66425,6.34025c-0.05638,0.03932-0.12111,0.03002-0.1844,0.03302
		c-0.12476,0.0059-0.22845,0.11468-0.22834,0.23581c0.00012,0.12773,0.08241,0.20802,0.22383,0.20635
		c0.15707-0.00185,0.30345,0.03651,0.44591,0.09673c0.02563,0.0528,0.00768,0.10398-0.0086,0.15379
		c-0.33913,1.03749-0.80449,2.01136-1.49831,2.86469c-0.29789,0.36637-0.64709,0.6638-1.13224,0.77813
		c-0.33145,0.07811-0.574,0.30033-0.72952,0.59778c-0.09294,0.17775-0.21616,0.25041-0.41646,0.25027
		c-4.1168-0.00288-8.2336-0.00211-12.3504-0.0027c-0.07381-0.00001-0.15039,0.00734-0.21264-0.04673
		c-0.00552-0.19277,0.02562-0.38804-0.10053-0.56432c-0.13684-0.19121-0.3113-0.29198-0.54831-0.2919
		c-2.1758,0.00073-4.35165-0.0076-6.52734,0.00696c-0.45509,0.00305-0.96131-0.35936-1.0111-0.80175
		c-0.03473-0.3086-0.31927-0.5039-0.64004-0.5041c-0.59582-0.00036-1.1919-0.01111-1.78737,0.00311
		C2.40361,9.36861,1.94235,8.90196,1.94593,8.34829c0.01116-1.72656-0.00187-3.45328,0.00959-5.17984
		c0.00206-0.31047-0.07502-0.54519-0.35701-0.69449c0.11592-0.06971,0.24411-0.09157,0.37691-0.09394
		c0.24809-0.00442,0.3242-0.07651,0.32596-0.31737C2.3035,1.77289,2.39704,1.52962,2.65081,1.36464
		c0.07053-0.0428,0.14837-0.0508,0.22902-0.05074C3.30838,1.31423,3.73694,1.31341,4.1655,1.31462
		C4.23933,1.31482,4.31498,1.31166,4.37606,1.3656C4.5192,1.78846,4.81158,1.99928,5.25559,1.9993
		c1.85489,0.00006,3.7098,0.00381,5.56466-0.00381c0.29882-0.00123,0.50132,0.1316,0.67478,0.34688
		c0.13168,0.16343,0.25339,0.33576,0.45862,0.42428c0.12365,0.05334,0.24713,0.08938,0.38259,0.08901
		c0.30822-0.00083,0.61645,0.00166,0.92467,0.0028c0.00433,0.07992-0.06384,0.11642-0.10443,0.16859
		c-0.13882,0.17842-0.29547,0.34303-0.41772,0.53435c-0.02854,0.04466-0.06468,0.08313-0.11531,0.10551
		c-0.16694,0.0506-0.33819,0.02446-0.50735,0.02669c-0.47787,0.00631-0.7605,0.28489-0.76225,0.76242
		c-0.00191,0.52243-0.00351,1.0449,0.0015,1.56728c0.00142,0.14841-0.04003,0.26057-0.1586,0.35796
		c-0.1773,0.14562-0.25871,0.34232-0.25854,0.57253c0.00053,0.70186-0.00301,1.40373,0.00138,2.10557
		c0.00295,0.47235,0.31695,0.78042,0.79577,0.78327c0.6433,0.00383,1.28663,0.00097,1.92995,0.00092
		c0.11266-0.00001,0.2249-0.00073,0.31387,0.08418c0.23996,0.20277,0.40872,0.4677,0.61421,0.70083
		c0.15181,0.17224,0.31815,0.32031,0.52308,0.42964c0.61687,0.32908,1.15927,0.1474,1.6144-0.25786
		c0.23338-0.2078,0.40643-0.47121,0.60701-0.70925c0.06167-0.07319,0.12384-0.14415,0.20742-0.19398
		c0.08967-0.06145,0.19236-0.05349,0.29282-0.05357c0.80739-0.00066,1.61478,0.00019,2.42217-0.00053
		c0.56965-0.00051,0.86336-0.29239,0.86381-0.85776c0.00052-0.65903,0.00106-1.31807-0.00019-1.9771
		c-0.00097-0.5097-0.29964-0.8054-0.80954-0.80983c-0.29194-0.00254-0.5841,0.01282-0.87572-0.00913
		c-0.018-0.00404-0.03476-0.01145-0.05013-0.02157c-0.04993-0.04933-0.02948-0.10782-0.01961-0.164
		c0.19542-1.1121-0.06938-2.10156-0.79997-2.968c-0.04287-0.05084-0.09725-0.10111-0.07838-0.18035
		c0.42032-0.00007,0.84095-0.00986,1.26087,0.00299c0.31012,0.00949,0.61331,0.06214,0.83498,0.31666
		c0.03864,0.04437,0.07495,0.08825,0.1002,0.14134c0.16053,0.33764,0.44123,0.48486,0.80506,0.48857
		c0.4256,0.00433,0.85149,0.00975,1.27687-0.00079c0.91762-0.02273,1.81506,0.10881,2.70132,0.33041
		c0.47207,0.11804,0.94599,0.22928,1.39755,0.41823c0.38607,0.16155,0.71931,0.39866,1.04091,0.6592
		c0.23141,0.18748,0.42577,0.4123,0.64861,0.60755c0.2981,0.26119,0.65758,0.39785,1.03784,0.48975
		C29.61904,6.31506,29.64115,6.32969,29.66425,6.34025z"/>
	<path fill="#FEFEFE" d="M17.5207,9.95061c-0.1742,0.20575-0.3518,0.40878-0.5217,0.61796
		c-0.19248,0.23698-0.40869,0.43627-0.69207,0.57016c-0.64389,0.30422-1.28664,0.01171-1.63958-0.37245
		c-0.19692-0.21433-0.37583-0.44493-0.56355-0.66762c-0.03378-0.04008-0.07094-0.07735-0.10654-0.11592
		c-0.37823-0.34294-0.66867-0.76122-0.99345-1.14953c-0.28281-0.33813-0.3835-0.73605-0.30122-1.17079
		c0.02442-0.12904-0.00031-0.23505-0.07148-0.34284c-0.29419-0.44556-0.45266-0.94737-0.52582-1.46489
		c-0.07843-0.55481,0.01484-1.1038,0.21956-1.6286c0.08393-0.21517,0.14965-0.4419,0.32609-0.6091
		c0.1815-0.27014,0.3893-0.51944,0.60998-0.75853c0.32043-0.27134,0.65278-0.53032,1.04876-0.68084
		c1.34676-0.51195,2.60272-0.37149,3.74229,0.54228c0.05756,0.04616,0.11471,0.09283,0.17206,0.13926
		c0.07372,0.02239,0.12795,0.06942,0.17883,0.12614c0.58113,0.64789,0.91943,1.39897,0.98668,2.26723
		c0.01846,0.23832-0.00323,0.47387-0.03598,0.70909c-0.01384,0.05073-0.02678,0.10186-0.03346,0.15423
		c-0.0025,0.01403-0.00644,0.02781-0.01091,0.04132c-0.01824,0.04579-0.01754,0.09523-0.02649,0.14295
		c-0.0026,0.01419-0.00638,0.02799-0.01075,0.0417c-0.03035,0.12897-0.07574,0.25323-0.11795,0.37851
		c-0.03471,0.07297-0.07256,0.1446-0.09656,0.22219c-0.04192,0.08541-0.08296,0.1713-0.12808,0.25517
		c-0.02379,0.03605-0.04937,0.07101-0.06873,0.10986c-0.05283,0.09217-0.13261,0.17679-0.08212,0.29727
		c0.0176,0.14571,0.06015,0.28932,0.03566,0.43816c-0.0019,0.01589-0.00555,0.03152-0.00997,0.04687
		c-0.02453,0.08928-0.03791,0.18128-0.06321,0.27049c-0.01681,0.05003-0.03385,0.10004-0.05567,0.14827
		c-0.03362,0.06651-0.06652,0.13346-0.10807,0.19572C18.24356,9.13516,17.90834,9.56479,17.5207,9.95061z"/>
	<path fill="#2B462F" d="M19.31641,5.98275c0.07411-0.51922,0.02318-1.02756-0.12004-1.53117
		c-0.16286-0.57264-0.47795-1.05357-0.87794-1.48667c-0.03206-0.03471-0.06296-0.07048-0.0944-0.10575
		c0.08884-0.00129,0.17769-0.00259,0.26653-0.00388c0.22266,0.29228,0.45591,0.57633,0.61918,0.90971
		c0.27634,0.56422,0.39168,1.16071,0.36635,1.78297c-0.00822,0.20193-0.06023,0.40209-0.09221,0.60307
		c0.01591,0.06556-0.01284,0.12488-0.0293,0.18503c-0.012,0.04388-0.03031,0.10966-0.0849,0.09292
		C19.21598,6.4125,19.2408,6.35151,19.255,6.30758l-0.0006,0.00138c0.04267-0.04711-0.00217-0.11151,0.03215-0.16027L19.286,6.15038
		C19.32831,6.10026,19.28673,6.03513,19.31641,5.98275z"/>
	<path fill="#335337" d="M4.37606,1.3656C3.80099,1.36528,3.22591,1.36497,2.65082,1.36465
		c0.04342-0.07828,0.12627-0.10866,0.19407-0.15733c0.07891-0.03169,0.16075-0.0477,0.24605-0.04765
		c0.3584,0.0002,0.71679-0.00008,1.07519,0.00016C4.22986,1.15987,4.29347,1.15984,4.3444,1.20714
		C4.35496,1.25996,4.36551,1.31278,4.37606,1.3656z"/>
	<path fill="#2B4730" d="M3.45265,0.95169c0.29759,0.00153,0.59517,0.00305,0.89276,0.0046
		C4.34517,1.00821,4.34493,1.06011,4.34469,1.11201C4.29814,1.15468,4.24057,1.15894,4.1814,1.15899
		C3.8533,1.15931,3.5252,1.15958,3.1971,1.15874c-0.05834-0.00015-0.1175,0.0004-0.16212-0.04717
		C3.099,1.06058,3.17419,1.0481,3.25338,1.04833C3.33557,1.04857,3.40755,1.02722,3.45265,0.95169z"/>
	<path fill="#304E34" d="M3.03498,1.11156c0.43657,0.00015,0.87314,0.0003,1.30971,0.00045
		C4.3446,1.14372,4.34451,1.17543,4.34441,1.20714C3.84456,1.20719,3.34472,1.20725,2.84488,1.20731
		C2.89748,1.15432,2.96266,1.12596,3.03498,1.11156z"/>
	<path fill="#2A442F" d="M30.14586,7.03699c0.07911,0.01041,0.11898,0.06932,0.15963,0.12726
		c-0.01507,0.02048-0.04168,0.04002-0.04349,0.06161c-0.02551,0.30431-0.18546,0.56698-0.29828,0.83652
		c-0.19823,0.47361-0.43294,0.93549-0.71279,1.37157c-0.22243,0.34661-0.45843,0.6841-0.74295,0.98126
		c-0.24564,0.25655-0.52224,0.47729-0.88083,0.57712c-0.3535,0.09841-0.65567,0.26776-0.80313,0.63533
		c-0.09491,0.23659-0.30399,0.31208-0.5435,0.32312c-0.03717,0.00171-0.07448,0.00024-0.11173,0.00025
		c-4.19831,0.0001-8.39661,0.00019-12.5949,0.00029c-0.00009-0.06336-0.0002-0.12672-0.0003-0.19009
		c0.07776-0.06529,0.1718-0.04605,0.26046-0.04608c2.28291-0.00092,4.56582-0.00069,6.84873-0.00072
		c1.83591-0.00002,3.67182-0.00242,5.50771,0.00318c0.22429,0.00068,0.38102-0.07876,0.4796-0.27078
		c0.16769-0.32664,0.43581-0.52325,0.78558-0.62331c0.49251-0.1409,0.84301-0.46576,1.14972-0.85811
		c0.64348-0.82316,1.08995-1.74562,1.42981-2.72456C30.06063,7.16757,30.06937,7.08367,30.14586,7.03699z"/>
	<path fill="#335337" d="M13.57307,11.50739c4.18602-0.00002,8.37204-0.00116,12.55805,0.00351
		c0.19023,0.00021,0.29542-0.05597,0.38252-0.23007c0.16256-0.32491,0.43255-0.55194,0.7936-0.63042
		c0.45623-0.09917,0.76881-0.39566,1.05334-0.72386c0.382-0.44064,0.67492-0.94387,0.9343-1.46249
		c0.23571-0.47128,0.43835-0.95839,0.59246-1.46355c0.00918-0.03009,0.02251-0.05893,0.03391-0.08835
		c0.06076,0.00288,0.10693,0.04073,0.15868,0.06521c0.02438,0.05917,0.00245,0.11452-0.01593,0.16932
		c-0.32093,0.95663-0.74611,1.86244-1.35381,2.67489c-0.16695,0.2232-0.34303,0.44157-0.5605,0.62447
		c-0.23243,0.19549-0.4961,0.32201-0.78445,0.40656c-0.30725,0.09009-0.53229,0.28319-0.67897,0.56062
		c-0.11184,0.21154-0.27805,0.30057-0.51565,0.30046c-4.12823-0.00196-8.25646-0.00139-12.3847-0.00177
		c-0.07388-0.00001-0.15044,0.00823-0.2128-0.04603C13.5731,11.61306,13.57309,11.56022,13.57307,11.50739z"/>
	<path fill="#304E34" d="M13.57312,11.66589c4.19883-0.00004,8.39767-0.00095,12.59651,0.00228
		c0.22838,0.00018,0.37604-0.08072,0.48263-0.28558c0.14637-0.28133,0.37556-0.48444,0.69069-0.56923
		c0.36801-0.09902,0.68778-0.27975,0.94497-0.55609c0.40115-0.43101,0.72882-0.9149,1.00558-1.43326
		c0.31654-0.59286,0.57409-1.21024,0.78646-1.84666c0.03127,0.00977,0.05216,0.03082,0.0659,0.05967
		c-0.31029,1.00968-0.7599,1.95282-1.38642,2.80739c-0.27617,0.3767-0.57888,0.73424-1.0268,0.92565
		c-0.17012,0.0727-0.34937,0.12442-0.51917,0.19774c-0.20601,0.08895-0.36541,0.2373-0.46342,0.43791
		c-0.12777,0.26153-0.31823,0.36165-0.62023,0.36103c-4.1854-0.00853-8.37082-0.00563-12.55622-0.00552
		C13.57343,11.72944,13.57328,11.69767,13.57312,11.66589z"/>
	<path fill="#202020" d="M3.76991,10.0368c-0.00175,0.23674-0.19949,0.4283-0.43811,0.42442
		c-0.23877-0.00388-0.4297-0.20165-0.4236-0.43876c0.00593-0.23032,0.19776-0.41614,0.43007-0.41659
		C3.57729,9.60541,3.77167,9.79947,3.76991,10.0368z"/>
	<path fill="#273D2B" d="M1.02444,2.22107C1.02336,2.19525,1.01891,2.17096,0.99431,2.15585
		c-0.00072-0.35387,0.00245-0.7078-0.00449-1.06154C0.98763,0.98273,1.02349,0.94634,1.13494,0.95138
		C1.32081,0.9598,1.50729,0.9551,1.6935,0.95594C1.45621,1.09367,1.47239,1.33921,1.44248,1.55958
		C1.42431,1.69343,1.43914,1.8317,1.43915,1.96798C1.29103,2.0364,1.15914,2.131,1.02444,2.22107z"/>
	<path fill="#335237" d="M2.01529,1.24024C1.95065,1.4266,1.86853,1.60734,1.83877,1.80482
		C1.82991,1.8636,1.80564,1.91741,1.72685,1.90486C1.64383,1.71281,1.65397,1.51718,1.73283,1.33125
		C1.79406,1.18689,1.92545,1.15484,2.01529,1.24024z"/>
	<path fill="#2F4E34" d="M2.01529,1.24024C1.86291,1.19845,1.73662,1.30082,1.72808,1.4825
		c-0.0066,0.1405-0.00127,0.28155-0.00123,0.42236c0,0.00001,0.00027,0.00009,0.00027,0.00009
		c-0.08077,0.03457-0.12369,0.0047-0.126-0.079C1.5969,1.67341,1.58744,1.51978,1.60383,1.36842
		c0.02516-0.23221,0.25421-0.34345,0.50779-0.25608C2.08397,1.15828,2.06957,1.21405,2.01529,1.24024z"/>
	<path fill="#2C4931" d="M2.11162,1.11234c-0.1641-0.00132-0.33854-0.02219-0.43155,0.15809
		C1.58266,1.45923,1.6418,1.66325,1.63764,1.86061C1.63667,1.9068,1.69105,1.90123,1.72711,1.90494
		C1.68182,1.95591,1.62096,1.92887,1.567,1.93646C1.56695,1.76409,1.56619,1.59171,1.56702,1.41934
		C1.56823,1.1671,1.6884,1.04721,1.94565,1.05024c0.07562,0.00089,0.15821-0.03017,0.2272,0.02902
		C2.15244,1.09028,2.13203,1.10131,2.11162,1.11234z"/>
	<path fill="#415F45" d="M12.65093,3.61699c-0.24737,0.4242-0.40574,0.88604-0.48954,1.36209
		c-0.05944,0.33768-0.06162,0.69143,0.02059,1.03627c0.07344,0.30807,0.12917,0.62349,0.28383,0.90305
		c0.18344,0.33159,0.33855,0.64576,0.26641,1.05791c-0.05284,0.30189,0.10602,0.59578,0.3081,0.8416
		c0.31911,0.38817,0.63797,0.77655,0.95693,1.16485c-0.102-0.09211-0.22529-0.09398-0.3545-0.09332
		c-0.64863,0.00332-1.29728,0.00213-1.94592,0.00132c-0.4564-0.00057-0.8055-0.34769-0.80598-0.80136
		c-0.00075-0.70714,0.00414-1.41433-0.00234-2.12141c-0.00259-0.28197,0.10877-0.50277,0.3263-0.66849
		c0.076-0.0579,0.09216-0.11577,0.09188-0.1992c-0.00187-0.56993-0.0014-1.13987-0.00083-1.70981
		c0.00042-0.4198,0.32348-0.73725,0.74402-0.74504C12.25019,3.64172,12.45335,3.68083,12.65093,3.61699z"/>
	<path fill="#415F45" d="M18.83349,7.288c0.0218-0.03442,0.04359-0.06884,0.06539-0.10326
		c0.05054,0.04417,0.04383-0.01451,0.05347-0.03214c0.16525-0.3023,0.31783-0.61031,0.41709-0.94139
		c0.00817-0.02725,0.02465-0.045,0.04665-0.06008c0.31929-0.00003,0.63859-0.00028,0.95788-0.00003
		c0.45543,0.00035,0.79811,0.33758,0.79831,0.7861c0.00031,0.71307,0.00038,1.42613-0.00002,2.1392
		C21.172,9.55191,20.8289,9.89069,20.34751,9.89086c-0.85677,0.00031-1.71354,0.00121-2.5703-0.00152
		c-0.09311-0.00029-0.17751,0.01379-0.2565,0.06126c0.34398-0.42266,0.68796-0.84531,1.03194-1.26797
		c0.09135-0.02389,0.1006-0.10938,0.13436-0.17676c0.18554-0.32901,0.20693-0.68181,0.15217-1.04461
		C18.83036,7.40292,18.84657,7.34528,18.83349,7.288z"/>
	<path fill="#202020" d="M28.06927,6.67938c-0.00289,0.23723-0.20111,0.42742-0.44021,0.42239
		c-0.23849-0.00501-0.42878-0.204-0.42157-0.44085c0.00703-0.23085,0.19928-0.41526,0.43221-0.41459
		C27.87806,6.24702,28.07216,6.44269,28.06927,6.67938z"/>
	<path fill="#202020" d="M3.92959,3.05604C3.93232,3.29287,3.73833,3.48818,3.49976,3.4888
		C3.26059,3.48941,3.06615,3.29561,3.06773,3.05818c0.00154-0.23064,0.18969-0.42009,0.4219-0.42482
		C3.72864,2.62849,3.92686,2.81893,3.92959,3.05604z"/>
	<path fill="#39533D" d="M19.4161,6.15113c-0.10798,0.3545-0.23104,0.70285-0.43482,1.01663
		c-0.01303,0.02007-0.02624,0.1589-0.08239,0.01698c0.02167-0.09077,0.07672-0.16532,0.12087-0.24517
		c0.05886-0.06505,0.07913-0.14767,0.10521-0.22764c0.04335-0.13478,0.0867-0.26956,0.13004-0.40434
		c0.00252,0.03109,0.00505,0.06218,0.00941,0.1159c0.08171-0.08685,0.0443-0.20596,0.11947-0.27247
		C19.39462,6.15105,19.40536,6.15109,19.4161,6.15113z"/>
	<path fill="#415F45" d="M16.34542,6.05333c0.34672-0.5334,0.84862-0.80802,1.47767-0.85772
		c0.42046-0.03322,0.42279-0.02618,0.42047,0.38929c-0.00186,0.33089,0.02787,0.66475-0.08267,0.98689
		c-0.1885,0.54936-0.52709,0.96556-1.07561,1.19582c-0.00458-0.0259-0.02178-0.03643-0.04448-0.02628
		c-0.22383,0.10011-0.46144,0.10731-0.70049,0.1025C16.14902,7.84,16.11768,7.81036,16.11441,7.62306
		C16.10509,7.08746,16.07502,6.5485,16.34542,6.05333z"/>
	<path fill="#415F45" d="M13.41001,6.75953c-0.11055-0.19244-0.15017-0.40464-0.15779-0.62095
		c-0.00984-0.27949-0.00349-0.5595-0.00766-0.83924c-0.0011-0.07403,0.00895-0.1166,0.10103-0.11871
		c0.53388-0.01225,1.02163,0.10843,1.43715,0.46075c0.47188,0.40012,0.683,0.91591,0.6947,1.52135
		c0.00428,0.22165-0.00011,0.44346,0.00346,0.66514c0.00105,0.06516-0.00032,0.11719-0.08597,0.11524
		c-0.17461-0.00396-0.35075,0.01083-0.52092-0.04436c0.1348-0.09936,0.28966-0.01723,0.41676-0.05325
		c-0.18021-0.00107-0.37253-0.02619-0.55996-0.08607c-0.19363-0.06186-0.3747-0.14742-0.54296-0.26094
		c-0.16877-0.11387-0.30836-0.25748-0.43561-0.41396c-0.1245-0.15309-0.22109-0.32221-0.28932-0.50694
		c-0.06995-0.18937-0.11328-0.38539-0.12313-0.58628c-0.00982-0.19999-0.00232-0.40061-0.00634-0.601
		c-0.00371,0.20497,0.0008,0.41012-0.00494,0.61499c-0.00601,0.21459,0.04617,0.41798,0.10159,0.62183
		C13.44255,6.67291,13.45282,6.72086,13.41001,6.75953z"/>
	<path fill="#2E4832" d="M13.41001,6.75953c-0.14035-0.43849-0.13336-0.89041-0.12426-1.34254
		c0.00053-0.02635-0.00198-0.05294,0.00068-0.07904c0.00391-0.03835-0.01384-0.09896,0.05034-0.09448
		c0.05918,0.00413,0.04324,0.06325,0.04365,0.10222c0.00172,0.16344,0.00397,0.32698,0.00005,0.49034
		c-0.00613,0.25558,0.03149,0.50567,0.13012,0.73958c0.27518,0.65266,0.7566,1.06188,1.46631,1.19541
		c0.11066,0.02082,0.21977,0.02898,0.33102,0.02853c0.05245-0.00021,0.10915-0.00674,0.12765,0.07989
		c-0.18821,0.03805-0.37682-0.00319-0.56154,0.01931c-0.63466-0.08955-1.08225-0.4418-1.39527-0.9813
		C13.45011,6.8681,13.43266,6.81233,13.41001,6.75953z"/>
	<path fill="#324C36" d="M16.34542,6.05333c0.04727,0.02838,0.02249,0.0615,0.00662,0.09444
		c-0.14645,0.30396-0.20796,0.62397-0.19407,0.96072c0.00736,0.17848,0.0097,0.35802-0.00148,0.5361
		c-0.00821,0.13083,0.04366,0.15726,0.16416,0.15751c0.28139,0.00059,0.55735-0.01924,0.84937-0.14467
		c-0.04098,0.05328-0.06286,0.08173-0.08474,0.11018c-0.30342,0.17077-0.63649,0.17528-0.97123,0.17103
		C16.06305,7.938,16.01418,7.9358,16.01763,7.8665c0.02114-0.42538-0.04952-0.85611,0.07042-1.27559
		C16.14319,6.39804,16.21269,6.21035,16.34542,6.05333z"/>
	<path fill="#446148" d="M14.94135,9.00838c-0.05266-0.14754-0.01224-0.29983-0.02224-0.44961
		c-0.00296-0.04429,0.0309-0.06347,0.07384-0.06355c0.02647-0.00005,0.05295,0.00105,0.07942,0.00129
		c0.44177,0.00388,0.47937,0.05345,0.38493,0.50763c-0.0068-0.00331-0.01359-0.00663-0.02045-0.0098
		c-0.04704-0.0446-0.09963-0.07055-0.16772-0.07656c-0.20987-0.01853-0.21778-0.02909-0.23864-0.23102
		c-0.00214-0.02066-0.00147-0.0421-0.02355-0.06728c-0.04321,0.11912,0.00348,0.24184-0.03477,0.3546
		C14.96519,8.9885,14.95504,9.00001,14.94135,9.00838z"/>
	<path fill="#415F45" d="M16.03588,8.52848c0.15578-0.07328,0.31983-0.01191,0.47924-0.02794
		c0.02748-0.00276,0.05393,0.01953,0.05242,0.04866c-0.00802,0.15466,0.03516,0.31176-0.02158,0.46407
		c-0.05652-0.07091-0.12989-0.09751-0.22078-0.0939c-0.13286,0.00528-0.20822-0.05691-0.20988-0.19492
		C16.1144,8.64931,16.09955,8.57895,16.03588,8.52848z"/>
	<path fill="#354E39" d="M18.83349,7.288c0.11388,0.36034,0.11548,0.71722-0.03361,1.06941
		c-0.02855,0.06744-0.07769,0.12621-0.0863,0.20204c-0.06082,0.01787-0.04298-0.03985-0.06129-0.06284
		c0.01628-0.04351,0.03256-0.08703,0.04885-0.13054c0.06902-0.0839,0.04918-0.19023,0.07316-0.28549l-0.00122,0.00269
		c0.05404-0.17218,0.00697-0.33829-0.03079-0.50495C18.66911,7.44948,18.78565,7.37937,18.83349,7.288z"/>
	<path fill="#374F3B" d="M16.03588,8.52848c0.08293-0.00802,0.12372,0.01617,0.12604,0.11197
		c0.00554,0.22904,0.01092,0.23518,0.24817,0.23366c0.10914-0.0007,0.14244,0.04281,0.13588,0.13916
		c-0.14835,0.05117-0.30112,0.0118-0.45159,0.02054c-0.05114,0.00297-0.07414-0.034-0.07175-0.08326
		C16.02942,8.80993,16.00675,8.66839,16.03588,8.52848z"/>
	<path fill="#415A45" d="M18.65229,8.49661c0.02043,0.02095,0.04086,0.0419,0.06129,0.06284
		c-0.03536,0.05078-0.0664,0.10537-0.10739,0.15119c-0.03614,0.04039-0.04909,0.00736-0.05354-0.028
		C18.58586,8.62063,18.61907,8.55862,18.65229,8.49661z"/>
	<path fill="#415A45" d="M18.74228,7.5783c0.0701,0.16472,0.1061,0.33149,0.0308,0.50495
		C18.76281,7.91494,18.75255,7.74662,18.74228,7.5783z"/>
	<path fill="#446148" d="M15.45732,9.00413c-0.17152,0.05721-0.34357,0.05107-0.51596,0.00424c0,0,0.01076-0.01099,0.01076-0.01099
		c0.16519-0.06636,0.33064-0.06357,0.49629-0.00177L15.45732,9.00413z"/>
	<path fill="#415A45" d="M18.77429,8.08057c0.00532,0.10266,0.02051,0.20781-0.07315,0.28549
		C18.72552,8.2709,18.74991,8.17574,18.77429,8.08057z"/>
	<path fill="#415F45" d="M19.12496,6.71192c0.0053,0.09426-0.02345,0.17301-0.1052,0.22764
		C19.05482,6.86369,19.08989,6.7878,19.12496,6.71192z"/>
	<path fill="#39533D" d="M19.28656,6.14869c-0.00199,0.05515,0.02638,0.1163-0.03215,0.16027
		C19.25607,6.25375,19.25157,6.19732,19.28656,6.14869z"/>
	<path fill="#39533D" d="M19.31641,5.98275c0.00052,0.05778,0.02845,0.12047-0.03041,0.16764
		C19.28284,6.09213,19.28653,6.0351,19.31641,5.98275z"/>
	<path fill="#FEFEFE" d="M17.56034,6.5913c-0.19609,0.32338-0.44168,0.58912-0.81518,0.71585
		c-0.11809,0.04007-0.16507,0.03712-0.16563-0.11052c-0.0022-0.57359,0.24673-1.0002,0.73457-1.29691
		c0.0133-0.06199,0.07489-0.0635,0.11564-0.09118c0.06396-0.01662,0.12667-0.03791,0.1917-0.05145
		c0.01582-0.00083,0.03088,0.00198,0.04547,0.00804c0.09268,0.07222,0.0598,0.17115,0.05746,0.26369
		c-0.00221,0.0153-0.00584,0.03037-0.00996,0.04524c-0.02447,0.07265-0.00662,0.15043-0.02639,0.22368
		c-0.01197,0.04222-0.02185,0.08507-0.03418,0.12726c-0.02289,0.05255-0.04234,0.10684-0.07504,0.1548
		C17.57271,6.5837,17.56652,6.5875,17.56034,6.5913z"/>
	<path fill="#37503B" d="M17.62334,6.42435c0.00249-0.04044-0.01036-0.08377,0.02266-0.11846
		c0.07418-0.0746-0.00128-0.17401,0.04268-0.25363l-0.00133,0.00258c0.04551-0.07092,0.01644-0.14877,0.01732-0.22298
		c0.00041-0.03415-0.01595-0.08196-0.07445-0.05467l0.00279-0.00195c-0.06741,0.01217-0.13437,0.02591-0.1963,0.05675
		c-0.04087,0.02258-0.08174,0.04516-0.12261,0.06774c-0.02993-0.00765-0.07667-0.01836-0.02532-0.05201
		c0.13212-0.08658,0.27251-0.15916,0.4282-0.19642c0.0641-0.01534,0.09773,0.00563,0.10333,0.07725
		c0.02388,0.30564-0.02088,0.59543-0.18888,0.85892c-0.0209,0.03278-0.04236,0.096-0.07108,0.00384
		c0,0-0.00084,0.00195-0.00084,0.00195C17.59641,6.54277,17.60757,6.4827,17.62334,6.42435z"/>
	<path fill="#FEFEFE" d="M14.87717,6.78628c0.01099,0.14637,0.0202,0.2929,0.03361,0.43905
		c0.00837,0.09126-0.01582,0.12481-0.11473,0.09424c-0.63497-0.19627-1.03016-0.77517-0.98878-1.46658
		c0.00421-0.07029,0.03571-0.07685,0.09279-0.05833c0.04965,0.01611,0.10086,0.02744,0.15139,0.04089
		C14.41626,5.89413,14.88405,6.40764,14.87717,6.78628z"/>
	<path fill="#2F4832" d="M14.87717,6.78628c-0.12944-0.44167-0.40989-0.75412-0.82573-0.95073
		c-0.02409-0.0199-0.04924-0.03868-0.07199-0.05998c-0.02641-0.02473-0.0624-0.0489-0.03687-0.09249
		c0.02483-0.0424,0.06058-0.02681,0.09787-0.01553c0.47754,0.14451,0.78753,0.45604,0.9424,0.92466
		c0.04516,0.13666,0.07325,0.27588,0.05693,0.41915c-0.00682,0.05984,0.04741,0.16664-0.04967,0.1686
		c-0.07554,0.00153-0.03785-0.10302-0.04258-0.16015C14.94057,6.93592,14.94561,6.85098,14.87717,6.78628z"/>
	<path fill="#39513D" d="M15.44841,8.99561c-0.16546,0.00062-0.33092,0.00124-0.49633,0.00182
		c-0.00148-0.12581-0.00354-0.25157-0.00423-0.37734c-0.00024-0.04328,0.00248-0.08825,0.06372-0.08665
		c0.06017,0.00158,0.06096,0.04649,0.06178,0.08965c0.0006,0.03145,0.00336,0.06326-0.00012,0.09432
		c-0.01415,0.12666,0.04685,0.16727,0.1676,0.16123C15.32946,8.87421,15.44454,8.84351,15.44841,8.99561z"/>
	<path fill="#415F45" d="M17.63021,5.77719c0.04801-0.05918,0.08156-0.01369,0.08439,0.02439
		c0.00629,0.08453,0.043,0.17585-0.02725,0.25326C17.649,5.9662,17.73787,5.85178,17.63021,5.77719z"/>
	<path fill="#415F45" d="M17.68867,6.05226c-0.00943,0.08533,0.04432,0.18114-0.04266,0.25363
		C17.66022,6.22134,17.67445,6.1368,17.68867,6.05226z"/>
	<path fill="#415F45" d="M17.43671,5.83199c0.05371-0.05882,0.12182-0.06857,0.19628-0.05677
		C17.57192,5.80895,17.50812,5.83345,17.43671,5.83199z"/>
	<path fill="#415F45" d="M17.62334,6.42435c0.00922,0.06765-0.00142,0.12791-0.06383,0.1689
		C17.56728,6.53192,17.58773,6.47531,17.62334,6.42435z"/>
</g>
</svg>
