<?xml version="1.0" encoding="utf-8"?>
<!-- Generator: Adobe Illustrator 23.0.0, SVG Export Plug-In . SVG Version: 6.00 Build 0)  -->
<svg version="1.1" id="Слой_1" xmlns="http://www.w3.org/2000/svg" xmlns:xlink="http://www.w3.org/1999/xlink" x="0px" y="0px" width="32px" height="13px"
	 viewBox="0 0 32 13" enable-background="new 0 0 32 13" xml:space="preserve">
<g>
	<path fill="#4F6C87" d="M0.00225,12.23626c0-0.02113,0-0.04226,0-0.06339c0.03199-0.05992,0.01558-0.12454,0.01561-0.18666
		c0.00101-2.0706,0.0008-4.1412,0.00102-6.2118c0.00001-0.05803-0.00367-0.11621,0.00378-0.1741
		c0.01191-0.02099,0.0293-0.0274,0.05215-0.01924c0.08537,0.05732,0.07248,0.14761,0.07341,0.22991
		c0.0034,0.30095,0.00133,0.60195,0.00136,0.90294c0.00013,1.74781,0.00104,3.49563-0.00086,5.24343
		c-0.00037,0.33584,0.13259,0.59144,0.42686,0.76062c0.10771,0.06192,0.22414,0.09597,0.34923,0.09933
		c0.07979,0.00214,0.15959,0.00161,0.23938,0.00161c5.21357,0.00006,10.42715-0.0002,15.64072,0.00156
		c0.11787,0.00004,0.24763-0.03463,0.34641,0.06952c0.01588,0.03095,0.01779,0.06028-0.01039,0.08598
		c-0.06356,0.00889-0.1275,0.00438-0.19125,0.00438c-5.3044,0.00024-10.60881,0.00015-15.91321,0.00111
		c-0.06788,0.00001-0.13821-0.01705-0.20402,0.01545c-0.02129,0-0.04257,0-0.06386,0
		C0.33447,12.92069,0.07903,12.66714,0.00225,12.23626z"/>
	<path fill="#224053" d="M4.91959,0.00265c7.47181,0,14.94361,0,22.41542,0c0.9268,0.09185,1.60524,0.62044,2.2067,1.26356
		c0.76324,0.8161,1.31045,1.77103,1.76018,2.7858c0.24603,0.55514,0.44916,1.12291,0.58041,1.71558
		c0.0375,0.16931,0.06082,0.34087,0.07951,0.51272c0.00711,0.06537,0.0216,0.13767-0.02619,0.19878
		c-0.02298,0.01621-0.0488,0.02266-0.07664,0.02323c-0.046-0.00851-0.09947-0.00938-0.0854-0.08059
		c0.05539-0.09813,0.04761-0.20248,0.03432-0.30872c-0.0715-0.57124-0.25691-1.11148-0.46776-1.6425
		c-0.37236-0.93781-0.84174-1.8258-1.46954-2.6214c-0.41423-0.52494-0.87061-1.01293-1.45674-1.35969
		c-0.42474-0.25128-0.87728-0.37933-1.37957-0.37895C19.79201,0.11586,12.54973,0.11416,5.30745,0.11422
		c-0.11154,0-0.22353-0.00548-0.33304,0.02339c-0.0475,0.00867-0.07134-0.01506-0.08074-0.05837
		C4.89056,0.04986,4.90098,0.02489,4.91959,0.00265z"/>
	<path fill="#40586D" d="M31.87027,6.46911c0.02087-0.00073,0.04174-0.00145,0.06261-0.00218
		c0.03349-0.0074,0.04266,0.00914,0.03866,0.03867c-0.03713,0.65996-0.24487,1.27902-0.47105,1.89183
		c-0.24116,0.65341-0.54059,1.28113-0.89859,1.87989c-0.30346,0.50754-0.64466,0.98869-1.04682,1.42521
		c-0.13764,0.2106-0.34271,0.35529-0.53062,0.51278c-0.36884,0.30913-0.77875,0.55107-1.24924,0.68465
		c-0.12494,0.03547-0.26428,0.0152-0.37635,0.09693c-0.01064,0-0.02129,0-0.03193,0c-0.06031-0.03173-0.12536-0.01548-0.1879-0.0155
		c-3.32309-0.00105-6.64618-0.0006-9.96927-0.00097c-0.02181,0.0015-0.0417-0.00392-0.05968-0.01625
		c-0.0007-0.02082-0.0014-0.04165-0.00209-0.06247c0.00681-0.00637,0.01361-0.01274,0.02035-0.01922
		c0.09121-0.04165,0.1884-0.02597,0.28311-0.026c3.14256-0.00084,6.28511-0.00361,9.42766,0.00118
		c0.87836,0.00134,1.60947-0.32247,2.23843-0.91673c0.90294-0.85312,1.51887-1.8928,2.01633-3.01194
		c0.25163-0.5661,0.45168-1.14958,0.60107-1.75033c0.04474-0.1799,0.0699-0.36257,0.08723-0.54654
		C31.82766,6.57423,31.82606,6.51531,31.87027,6.46911z"/>
	<path fill="#3B556C" d="M4.91959,0.00265C4.9194,0.0236,4.91921,0.04455,4.91901,0.0655
		C4.83683,0.13397,4.73744,0.11524,4.64359,0.11534c-1.20657,0.00128-2.41315,0.0015-3.61972,0.00012
		c-0.21924-0.00025-0.42176,0.03972-0.5934,0.18653C0.23119,0.47242,0.14784,0.6898,0.14819,0.94689
		c0.00103,0.75971,0.00044,1.51942,0.00034,2.27913c-0.00009,0.6964,0.00043,1.3928-0.00056,2.0892
		C0.14785,5.39889,0.15881,5.48472,0.11807,5.564c-0.0126,0.01994-0.03006,0.02576-0.05226,0.01755
		C0.05511,5.58161,0.0444,5.58166,0.0337,5.58172C0.02926,5.57231,0.02482,5.56291,0.02037,5.5535
		C0.01649,4.02417,0.01999,2.49483,0.01793,0.96549C0.01786,0.9087,0.0333,0.84939,0.00225,0.79498c0-0.02113,0-0.04226,0-0.06339
		c0.03979-0.2659,0.16864-0.47446,0.39489-0.62666C0.48274,0.04734,0.57882,0.0309,0.67279,0.00265
		C2.08839,0.00265,3.50399,0.00265,4.91959,0.00265z"/>
	<path fill="#697681" d="M17.1501,12.96417c0.01002,0.0008,0.02004,0.00138,0.03008,0.00172
		c0.01094,0.0066,0.0147,0.01339,0.01132,0.02038c-0.00343,0.00707-0.00691,0.01062-0.01048,0.01062
		c-5.44952,0-10.89905,0-16.34857,0c0.05777-0.05862,0.13129-0.03048,0.19694-0.0305
		C6.40296,12.96466,11.77653,12.96447,17.1501,12.96417z"/>
	<path fill="#274355" d="M31.96671,6.49822c-0.01127-0.01042-0.02255-0.02084-0.03383-0.03127
		c0.00119-0.42424-0.09857-0.83306-0.22214-1.23282c-0.33422-1.08118-0.82024-2.09219-1.46026-3.03014
		c-0.2858-0.41884-0.59899-0.81502-0.96538-1.16536c-0.48289-0.46173-1.02873-0.82381-1.69087-0.99019
		c-0.08657-0.02175-0.1832,0.02305-0.25921-0.04579c0.10644,0,0.21287,0,0.31931,0c0.16121,0.05941,0.32589,0.11099,0.48303,0.17957
		c0.71444,0.31181,1.26529,0.8282,1.73977,1.4244c0.97954,1.23082,1.66083,2.61003,2.03659,4.13618
		c0.03081,0.12514,0.02395,0.25814,0.0832,0.37665c0,0.12677,0,0.25355,0,0.38032
		C31.98625,6.51053,31.97616,6.51059,31.96671,6.49822z"/>
	<path fill="#535F69" d="M17.18102,12.99689c-0.00003-0.01034-0.00031-0.02068-0.00083-0.03101
		c3.34584-0.00025,6.69169-0.00058,10.03753-0.00005c0.0508,0.00001,0.10789-0.01845,0.14922,0.03106
		C23.97164,12.99689,20.57633,12.99689,17.18102,12.99689z"/>
	<path fill="#43596D" d="M31.96671,6.49822c0.01006,0.00054,0.02013,0.00106,0.0302,0.00155c0,0.09508,0,0.19016,0,0.28524
		c-0.06374,0.25704-0.11891,0.51653-0.19265,0.77071c-0.417,1.43744-1.06492,2.75902-2.01711,3.92582
		c-0.06321,0.07745-0.1358,0.14736-0.20403,0.22078c-0.01692,0.01549-0.03191,0.01382-0.04497-0.005
		c0.57455-0.66514,1.06172-1.38802,1.44666-2.17677c0.39099-0.80114,0.71767-1.62517,0.89931-2.50162
		C31.92001,6.84581,31.90248,6.66577,31.96671,6.49822z"/>
	<path fill="#55718A" d="M0.0337,5.58172c0.00016,2.14233,0.00049,4.28467-0.00042,6.42701
		c-0.00002,0.05537,0.02139,0.11744-0.03103,0.16414c0-2.1974,0-4.3948,0-6.5922c0.01046-0.01392,0.0212-0.01481,0.03227-0.0007
		L0.0337,5.58172z"/>
	<path fill="#40596F" d="M0.03451,5.57997C0.02376,5.5802,0.013,5.58043,0.00225,5.58067c0-1.59523,0-3.19046,0-4.78569
		C0.05748,0.84716,0.03301,0.9146,0.03307,0.9749C0.03459,2.50992,0.0344,4.04495,0.03451,5.57997z"/>
	<path fill="#535F69" d="M29.53816,11.69732c0.01498,0.00167,0.02997,0.00333,0.04496,0.005
		c-0.56569,0.6301-1.21423,1.1267-2.08054,1.27304c-0.0141,0.00238-0.0266,0.01416-0.03984,0.02154c-0.02129,0-0.04257,0-0.06386,0
		c0.00516-0.05693,0.04613-0.05787,0.09106-0.06424c0.60933-0.08632,1.11189-0.3876,1.56891-0.77654
		C29.22738,12.01269,29.40409,11.87665,29.53816,11.69732z"/>
	<path fill="#44637F" d="M0.06581,5.58155c0.01081-0.00037,0.02163-0.00073,0.03244-0.0011
		c0.20079-0.00712,0.37317,0.14606,0.41981,0.3744c0.01917,0.09388,0.01422,0.18933,0.01423,0.28428
		c0.00023,1.83743,0.00013,3.67486,0.00024,5.5123c0,0.0739-0.00312,0.14799,0.0047,0.22162
		c0.02509,0.23633,0.21904,0.43165,0.45697,0.4597c0.09,0.01061,0.18068,0.00607,0.27107,0.00607
		c5.06421,0.00015,10.12842,0.0001,15.19262,0.00034c0.10625,0,0.2132-0.00696,0.31823,0.01486
		c0.24135,0.05015,0.4057,0.24728,0.37459,0.4473c0,0-0.00268,0.00039-0.00269,0.00039
		c-0.07297-0.04569-0.15458-0.03117-0.23337-0.03118c-5.3081-0.00045-10.6162-0.0034-15.92428,0.00471
		c-0.478,0.00073-0.90011-0.41791-0.89743-0.88561C0.10476,9.92553,0.0981,7.86134,0.09781,5.79719
		C0.0978,5.724,0.10958,5.64857,0.06581,5.58155z"/>
	<path fill="#2D4961" d="M17.15071,12.90131c-0.09486-0.31028-0.23033-0.41147-0.55217-0.41147
		C11.43377,12.48976,6.269,12.48685,1.10425,12.49638C0.76924,12.497,0.47197,12.20202,0.47435,11.875
		c0.01396-1.91106,0.00686-3.82227,0.00683-5.73343C0.48118,5.82,0.40201,5.70413,0.09825,5.58046
		C0.09817,4.02238,0.09779,2.4643,0.09819,0.90622c0.00012-0.47817,0.36437-0.83981,0.8459-0.84004
		c1.32498-0.00066,2.64996-0.0005,3.97493-0.00067c0.00131,0.02603,0.00665,0.05009,0.03223,0.06411
		c0.04718,0.01833,0.07453,0.0584,0.10457,0.09509c0.09342,0.11413,0.21541,0.16802,0.36191,0.17205
		c0.07982,0.00219,0.15964,0.00155,0.23946,0.00155c7.02475,0.00005,14.04951,0.0048,21.07423-0.00901
		c0.55953-0.0011,1.03779,0.15803,1.5131,0.41062c0.69683,0.37032,1.19594,0.93612,1.64209,1.56422
		c0.43949,0.61873,0.72293,1.3147,1.03162,1.9985c0.20492,0.45392,0.3779,0.92017,0.48082,1.40818
		c0.05553,0.26333,0.19679,0.4731,0.37405,0.66594c0.02346,0.03718,0.062,0.02974,0.09715,0.03234
		c0.01466,0.4004-0.09464,0.78103-0.20605,1.15763c-0.2607,0.88123-0.63107,1.71803-1.08845,2.51595
		c-0.41667,0.7269-0.92093,1.38892-1.55001,1.94765c-0.44541,0.39561-0.96031,0.67208-1.558,0.77155
		c-0.14026,0.02334-0.28384,0.03806-0.42591,0.03815C23.7448,12.90201,20.44776,12.90142,17.15071,12.90131z"/>
	<path fill="#123247" d="M31.77311,6.43676c-0.26297-0.11926-0.35261-0.36268-0.40725-0.60984
		c-0.16983-0.76821-0.50241-1.47337-0.82304-2.18462c-0.25038-0.55542-0.56478-1.06906-0.92452-1.56275
		c-0.57653-0.79121-1.34569-1.29994-2.25942-1.61674c-0.06256-0.02169-0.13628-0.01584-0.20481-0.01584
		C19.92264,0.44633,12.69121,0.44611,5.45979,0.44749C5.21792,0.44753,5.03773,0.36653,4.95125,0.12961
		c0.00578-0.04409,0.03166-0.06375,0.07579-0.06324c0.04788,0.00056,0.09578-0.00035,0.14366-0.00035
		c7.31125-0.00002,14.6225,0.0016,21.93375-0.00302c0.60313-0.00038,1.12649,0.20738,1.59198,0.55376
		c0.82771,0.61591,1.44226,1.41585,1.94836,2.30581c0.4032,0.70901,0.74011,1.4452,0.98672,2.22137
		c0.11941,0.37583,0.22723,0.75514,0.23738,1.15354C31.87062,6.3654,31.88409,6.44399,31.77311,6.43676z"/>
	<path fill="#3C556C" d="M27.87784,1.04853c0.0138,0.02542,0.03764,0.03093,0.06386,0.03171
		c0.05245,0.03298,0.11128,0.05541,0.15974,0.09499l-0.00006-0.00005c0.0812,0.04357,0.1503,0.10393,0.22357,0.15852
		L28.3249,1.33365c0.05832,0.03596,0.10002,0.09255,0.15971,0.12682l-0.00005-0.00005
		c0.18261,0.15685,0.35303,0.32581,0.5109,0.50722c0.01063,0.01056,0.02127,0.02112,0.0319,0.03168
		c0.03468,0.05911,0.09157,0.10057,0.12783,0.15843l-0.00003-0.00006c0.03455,0.05921,0.09146,0.10068,0.12766,0.15858
		c0.01064,0.01058,0.02128,0.02116,0.03191,0.03173c0.15161,0.22014,0.31777,0.43064,0.44719,0.66546L29.76183,3.0134
		c0.02938,0.04379,0.05746,0.08902,0.07361,0.13885c0.01074,0.03315,0.00113,0.06276-0.04615,0.05462
		c-0.07303-0.03364-0.10388-0.10396-0.14371-0.1653c-0.32358-0.49831-0.67152-0.97739-1.11279-1.382
		c-0.36953-0.33883-0.77526-0.60969-1.29191-0.6723c-0.11685-0.01416-0.23333-0.01557-0.35027-0.01557
		C19.58699,0.97156,12.28335,0.97156,4.97972,0.9716c-0.53186,0-1.06369-0.00946-1.59559-0.00476
		C2.99382,0.9659,2.60353,0.9665,2.21333,0.96687C1.89604,0.96566,1.57869,0.9651,1.26135,0.97128
		c-0.22854,0.00445-0.24872,0.024-0.25107,0.25731C1.00715,1.53831,1.0152,1.84809,1.00649,2.15785
		C1.00328,2.42153,1.00613,2.68518,1.00487,2.94881C1.00459,3.00749,1.01257,3.06419,1.03042,3.11993
		c0.01692,0.08885,0.01362,0.17871,0.01363,0.26831c0.00023,1.98881,0.00022,3.97763,0,5.96644
		C1.04404,9.44427,1.0475,9.53415,1.03108,9.62296c-0.048,0.1638-0.0264,0.33189-0.02396,0.49762
		c0.00345,0.23377-0.0286,0.46908,0.02334,0.70133c0.02844,0.29497,0.00861,0.59065,0.01319,0.88597
		c0.00385,0.24862,0.00655,0.25459,0.26167,0.25462c3.132,0.00039,6.26401-0.00051,9.39601,0.00066
		c0.96772,0.00036,1.93547-0.00678,2.90319,0.00436c4.21777-0.00026,8.43553-0.00143,12.65308,0.00029
		c0.14289,0.00646,0.28601-0.00177,0.42885,0.00035c0.35622,0.01351,0.71164,0.02944,1.04971-0.12368
		c0.27925-0.12648,0.52302-0.30234,0.7477-0.50577c0.51567-0.46687,0.92184-1.01909,1.27057-1.61578
		c0.03182-0.05444,0.04843-0.13527,0.14372-0.11453c0.01971,0.03293,0.01251,0.06334-0.0086,0.09247V9.70081
		c-0.0206,0.05961-0.05813,0.10915-0.09579,0.15861c-0.165,0.35576-0.40167,0.666-0.64591,0.96835
		c-0.2591,0.32076-0.54847,0.61557-0.88876,0.85457c-0.37485,0.26327-0.78161,0.42879-1.25273,0.42867
		c-8.61405-0.00217-17.22811-0.00158-25.84216-0.0016c-0.26821,0-0.29977-0.03185-0.29976-0.30215
		c0.00009-1.83251,0.00022-3.66503,0.00034-5.49754c0.05208-0.06537,0.0306-0.14239,0.03065-0.21423
		C0.8967,4.44243,0.89632,2.78934,0.89649,1.13625c0.00003-0.2658,0.012-0.2777,0.27931-0.27771
		c8.63601-0.0001,17.27202,0.00006,25.90802-0.00087c0.22133-0.00002,0.43173,0.04201,0.6345,0.12734l-0.0001-0.00005
		C27.76825,1.01403,27.82666,1.02233,27.87784,1.04853z"/>
	<path fill="#3C556B" d="M27.71833,0.98502c-0.41758-0.14423-0.85063-0.09336-1.2782-0.09346
		C18.02981,0.88954,9.61949,0.89006,1.20918,0.89006c-0.04788,0-0.09591,0.00256-0.1436-0.0004
		C0.96043,0.88315,0.92084,0.9347,0.92789,1.03355C0.93051,1.07032,0.92824,1.10744,0.92824,1.1444
		c0,1.67905,0.00055,3.35811-0.00335,5.03716C0.9248,6.22164,0.98543,6.31554,0.86478,6.30974
		C0.86467,4.5672,0.86445,2.82466,0.86456,1.08211c0.00001-0.20354,0.05052-0.25522,0.25092-0.25523
		c8.66629-0.00019,17.33258-0.0006,25.99887,0.00251C27.32409,0.82947,27.53656,0.85874,27.71833,0.98502z"/>
	<path fill="#3C556B" d="M29.88955,9.70088c-0.00019-0.03211-0.00038-0.06423-0.00057-0.09634
		c-0.04987-0.10687,0.0326-0.17881,0.07448-0.25775c0.41401-0.78029,0.74148-1.59273,0.93718-2.45496
		c0.01981-0.08728,0.03111-0.17597,0.04521-0.26423c0.04572-0.20642,0.01509-0.4104-0.0278-0.61186
		c-0.12814-0.60195-0.34334-1.17464-0.59555-1.73527c-0.1433-0.31854-0.30811-0.62544-0.47836-0.92999
		c-0.02508-0.04487-0.05948-0.09123-0.019-0.14573c-0.02111-0.06379-0.04222-0.12757-0.06332-0.19136
		c0.11796,0.08398,0.15672,0.22257,0.22258,0.33848c0.38817,0.68311,0.70637,1.39617,0.93405,2.14999
		c0.08254,0.27328,0.14442,0.54922,0.17628,0.82872c0.0286,0.25085-0.04856,0.4999-0.10765,0.74401
		c-0.10481,0.43296-0.24202,0.85435-0.41715,1.26721c-0.19303,0.45507-0.40851,0.89715-0.64228,1.33167
		C29.92104,9.68583,29.90253,9.69189,29.88955,9.70088z"/>
	<path fill="#3C556B" d="M29.76191,3.01347C29.59884,2.80092,29.439,2.58623,29.31472,2.348
		C29.49507,2.54911,29.6677,2.75533,29.76191,3.01347z"/>
	<path fill="#3C556B" d="M28.99545,1.96764c-0.18346-0.15602-0.35385-0.32499-0.5109-0.50721
		C28.69333,1.59131,28.86379,1.76023,28.99545,1.96764z"/>
	<path fill="#3C556B" d="M28.32495,1.3337c-0.09449-0.02509-0.15907-0.09175-0.22357-0.15852
		C28.20319,1.19011,28.27289,1.24964,28.32495,1.3337z"/>
	<path fill="#3C556B" d="M29.15518,2.15775c-0.05954-0.03935-0.12-0.07797-0.12783-0.15843
		C29.08688,2.03868,29.14713,2.07747,29.15518,2.15775z"/>
	<path fill="#3C556B" d="M28.48461,1.46047c-0.08118-0.00761-0.12002-0.06774-0.15971-0.12682
		C28.40582,1.34158,28.44481,1.40153,28.48461,1.46047z"/>
	<path fill="#3C556B" d="M28.10144,1.17523c-0.06582-0.01083-0.12591-0.03115-0.15974-0.09499
		C28.01866,1.07262,28.06798,1.11079,28.10144,1.17523z"/>
	<path fill="#3C556B" d="M29.28281,2.31627c-0.05938-0.03951-0.12007-0.07799-0.12766-0.15857
		C29.21447,2.19725,29.275,2.23586,29.28281,2.31627z"/>
	<path fill="#3C556B" d="M29.79376,9.85942c0.00681-0.06781,0.05401-0.1116,0.09579-0.15861
		C29.8971,9.77717,29.85861,9.82614,29.79376,9.85942z"/>
	<path fill="#3C556B" d="M27.87784,1.04853c-0.06252,0.00186-0.11832-0.01288-0.1596-0.06356
		C27.78071,0.98321,27.83648,0.99805,27.87784,1.04853z"/>
	<path fill="#666666" d="M29.82515,3.20477c0.07854,0.15401,0.15402,0.30964,0.23611,0.46176
		c0.43658,0.80904,0.77835,1.65293,0.93756,2.56083c0.02248,0.12818,0.043,0.27045-0.02322,0.40025
		c-0.08008-0.16608-0.23468-0.10489-0.36501-0.11752c-0.03172-0.00086-0.06309-0.00426-0.09388-0.01178
		c-0.02255-0.00504-0.0448-0.01145-0.06715-0.01719c-0.03779-0.00529-0.07588-0.00609-0.11409-0.00655
		c-0.01589,0.00004-0.03156-0.00139-0.04727-0.00351c-0.05572-0.01003-0.1107-0.02429-0.16795-0.02475
		c-0.24806-0.03373-0.49192-0.08631-0.73209-0.15592c-0.39711-0.1151-0.73531-0.32548-1.02125-0.62097
		c-0.35159-0.36333-0.73881-0.68059-1.18226-0.93077c-0.39373-0.22214-0.8261-0.33093-1.2555-0.45124
		c-0.76418-0.2141-1.54237-0.35344-2.3322-0.43085c-0.06899-0.00676-0.13801-0.00641-0.20708-0.00643
		c-0.61665-0.00018-1.23331,0.00249-1.84994-0.00107c-0.37388-0.00216-0.66625-0.14915-0.84891-0.48749
		C20.48667,2.983,20.12349,2.91122,19.73949,2.9015c-0.38782-0.00982-0.77607-0.00182-1.16413-0.00254
		c-0.07421-0.00014-0.14902,0.00551-0.22207-0.01409c-0.04169-0.01352-0.07377-0.04073-0.10307-0.07171
		c-0.1735-0.23884-0.31572-0.49843-0.48746-0.73837c-0.11692-0.16334-0.2447-0.3173-0.4632-0.3583
		c-0.26873-0.05042-0.50468,0.04172-0.66115,0.26834c-0.05326,0.08057-0.14799,0.11245-0.21316,0.17866
		c-0.05509,0.05598-0.09835,0.12004-0.11257,0.19968c-0.01767,0.10801-0.0063,0.21665-0.01129,0.32469
		c-0.00305,0.0661,0.00379,0.13598-0.05544,0.18622c-0.04817,0.0276-0.10157,0.03049-0.15476,0.0306
		c-0.67535,0.0014-1.3507,0.00298-2.02605-0.00075c-0.0319-0.00018-0.06371-0.00346-0.09482-0.01053
		c-0.04673-0.01054-0.08423-0.03682-0.11755-0.06958c-0.17945-0.24042-0.32167-0.50571-0.49659-0.74924
		c-0.11705-0.16297-0.24461-0.31664-0.46249-0.35787c-0.26816-0.05074-0.50346,0.04076-0.66083,0.26673
		c-0.05945,0.09109-0.17164,0.12187-0.23803,0.20495c-0.0396,0.04955-0.07512,0.10158-0.08844,0.1653
		c-0.03585,0.10531,0.02728,0.23075-0.06708,0.32392c-0.09013,0.01579-0.13632-0.04757-0.18225-0.10434
		c-0.50605-0.62556-0.53188-0.52316-1.16573-0.52465C8.763,2.04458,7.03466,2.04826,5.30632,2.04661
		c-0.50069-0.00048-0.83054-0.25325-0.96903-0.7332C4.32819,1.24766,4.32804,1.18151,4.3298,1.11543
		C4.32553,1.01297,4.2526,1.00232,4.17357,1.00139c-0.19091-0.00224-0.38184,0.00036-0.57275-0.0014
		C3.53238,0.99936,3.46225,1.00612,3.39874,0.9702C3.38115,0.95758,3.37724,0.94163,3.38689,0.92241
		c7.86668-0.00003,15.73337,0.0004,23.60005-0.00111c0.5125-0.0001,0.95078,0.18497,1.3424,0.49713
		c0.59169,0.47163,1.02917,1.07108,1.42397,1.70506C29.77314,3.15531,29.78878,3.1884,29.82515,3.20477z"/>
	<path fill="#8A8A8A" d="M0.98581,9.64067C0.98741,9.2715,0.99029,8.90233,0.9904,8.53316
		C0.99089,6.7925,0.99067,5.05184,0.99043,3.31119C0.99042,3.24267,0.98762,3.17415,0.98612,3.10563
		c0.01724-0.20882-0.01194-0.4192,0.02114-0.62757C1.10468,2.37,1.23462,2.40335,1.35587,2.39884
		c0.0448,0.00048,0.08981-0.00106,0.13454,0.00434c0.06129,0.00678,0.11947,0.02513,0.17666,0.04755
		c0.06684,0.03014,0.1236,0.07436,0.17675,0.124c0.15745,0.13876,0.18834,0.3202,0.18815,0.51771
		C2.03033,4.79259,2.03092,6.49275,2.03102,8.19291c0.00005,0.77628,0.33617,1.11037,1.11707,1.11056
		C3.68005,9.30361,4.21201,9.30163,4.74396,9.3042c0.39695,0.00192,0.63466,0.19133,0.73009,0.5746
		c0.10203,0.40974,0.3752,0.65453,0.79593,0.71349c0.04751,0.00666,0.09521,0.01018,0.14314,0.01016
		c1.79801-0.0009,3.59601,0.00402,5.39369-0.00294c0.08051-0.00533,0.12072,0.05492,0.16822,0.10332
		c0.32395,0.33005,0.68349,0.3335,1.01322,0.00959c0.03349-0.0329,0.06124-0.07419,0.11547-0.07657
		c0.31148,0.05389,0.52396,0.2877,0.5424,0.60046c0.00645,0.10934,0.00302,0.2191,0.00217,0.32863
		c0.00027,0.0595,0.00021,0.11904-0.00055,0.17856c0.00059,0.01689,0.00033,0.03378,0.00001,0.05067
		c0.00051,0.04229-0.00007,0.08456-0.00321,0.12681c-0.00239,0.03556-0.0158,0.06627-0.04124,0.09159
		c-1.28693,0.00073-2.57385,0.00196-3.86078,0.0021c-2.85041,0.00032-5.70083-0.00116-8.55124,0.0035
		c-0.15659,0.00026-0.21185-0.03088-0.20512-0.19769c0.01359-0.33718,0.00177-0.67537,0.00043-1.01315
		C0.96952,10.41846,0.9712,10.02957,0.98581,9.64067z"/>
	<path fill="#686868" d="M30.59195,6.4681c0.0727-0.00001,0.14622,0.00684,0.21794-0.00152
		c0.12758-0.01487,0.18649,0.03016,0.16571,0.16101c0.00067,0.25075-0.0776,0.4874-0.14571,0.72324
		c-0.18737,0.64874-0.44865,1.2697-0.74911,1.87463c-0.063,0.12684-0.15982,0.23683-0.19179,0.37911
		c-0.16074,0.24583-0.31585,0.49553-0.4834,0.73671c-0.35387,0.50939-0.76302,0.9674-1.27604,1.32761
		c-0.34941,0.24533-0.73103,0.3745-1.16225,0.3464c-0.07936-0.00517-0.15931-0.00143-0.23899-0.0018
		c-0.02706-0.03109-0.01537-0.0629,0.00909-0.08371c0.11304-0.0962,0.16844-0.22849,0.23142-0.35589
		c0.10889-0.2203,0.27927-0.36917,0.51703-0.43749c0.29863-0.08582,0.58141-0.20262,0.81698-0.41011
		c0.39997-0.3523,0.73087-0.76102,1.01225-1.21214c0.48626-0.77959,0.85782-1.60962,1.13756-2.48237
		C30.5121,6.84623,30.51929,6.64945,30.59195,6.4681z"/>
	<path fill="#6B6B6B" d="M13.6033,12.01256c0.00094-0.03101,0.00189-0.06201,0.00283-0.09302
		c0.082-0.06897,0.18152-0.05035,0.2754-0.05047c1.00525-0.00135,2.0105-0.00082,3.01574-0.00082
		c2.97851-0.00001,5.95703,0,8.93554,0c0.05851,0,0.11702-0.00078,0.17552,0.00012c0.31301,0.00485,0.62127-0.00297,0.82596-0.29537
		c0.01756-0.00865,0.03616-0.01021,0.05514-0.00505c0.01727,0.20338-0.17834,0.39475-0.42373,0.41356
		c-0.06245,0.00479-0.12818-0.00977-0.18408,0.03195C22.05551,12.01316,17.82941,12.01286,13.6033,12.01256z"/>
	<path fill="#676768" d="M1.37507,2.44125C1.2582,2.44632,1.13905,2.42974,1.02662,2.4772
		c-0.08244-0.09436,0.0113-0.2244-0.06575-0.31984C0.96086,1.81052,0.96441,1.46365,0.95913,1.1169
		c-0.00216-0.14213,0.0542-0.19833,0.19751-0.19617C1.50599,0.92597,1.85547,0.92246,2.2049,0.92248
		c0.00992,0.02018,0.0054,0.03639-0.01348,0.04875c-0.11106,0.04771-0.22818,0.0235-0.34286,0.02861
		C1.47547,0.99146,1.4264,1.03787,1.42406,1.40881C1.42233,1.68286,1.42457,1.95692,1.4231,2.23097
		C1.42271,2.30405,1.43043,2.38005,1.37507,2.44125z"/>
	<path fill="#6B6B6B" d="M26.28162,12.01345c0.0202-0.04179,0.05371-0.06139,0.10034-0.06225
		c0.24671-0.00451,0.41464-0.12208,0.50603-0.34881c0.07292-0.2496,0.24115-0.41603,0.48159-0.49886
		c0.30055-0.10353,0.59798-0.20732,0.8512-0.40729c0.06687-0.05281,0.1342-0.10205,0.16794-0.1834
		c0.02692-0.05138,0.06659-0.08995,0.11831-0.11642c0.15222-0.07186,0.23038-0.21615,0.3266-0.33951
		c0.58771-0.75353,1.00282-1.60021,1.35061-2.483c0.14128-0.35862,0.25102-0.72526,0.31193-1.10585
		c0.03193,0.00001,0.06386,0.00002,0.09579,0.00004c0.00258,0.41086-0.16341,0.78163-0.30119,1.15396
		c-0.29892,0.80782-0.68473,1.57533-1.18889,2.2787c-0.29859,0.41657-0.63647,0.7968-1.08151,1.07043
		c-0.1703,0.10471-0.36276,0.14711-0.54748,0.20988c-0.21369,0.07261-0.37035,0.20248-0.46225,0.40403
		c-0.07214,0.15821-0.16419,0.30117-0.28232,0.42837C26.57942,12.01346,26.43052,12.01346,26.28162,12.01345z"/>
	<path fill="#424F5A" d="M0.96087,2.15735c0.09604,0.01881,0.05628,0.09527,0.06204,0.14996
		C1.02882,2.36344,1.02573,2.4205,1.0266,2.47718c-0.02127,0.20902,0.03594,0.423-0.04044,0.62848
		C0.9283,2.94348,0.96973,2.77618,0.9618,2.61148C0.95452,2.46043,0.96065,2.30875,0.96087,2.15735z"/>
	<path fill="#424F5A" d="M2.20606,0.95306c-0.0005-0.0102-0.00088-0.02039-0.00115-0.03059
		C2.5989,0.92245,2.9929,0.92242,3.38689,0.9224C3.38666,0.93248,3.38631,0.94255,3.38584,0.95262
		C3.34172,1.00005,3.28224,1.002,3.22432,1.0027C2.93882,1.00615,2.6533,1.0061,2.3678,1.00273
		C2.30986,1.00205,2.25042,1.00011,2.20606,0.95306z"/>
	<path fill="#424F5A" d="M0.98581,9.64067c0.00028,0.38891,0.00057,0.77782,0.00082,1.1667
		c-0.05294-0.07687-0.02704-0.16382-0.02425-0.24455C0.97301,10.25548,0.92728,9.94666,0.98581,9.64067z"/>
	<path fill="#797979" d="M13.6055,11.57088c-0.00922-0.14576,0.01751-0.29301-0.01511-0.43763
		c-0.06074-0.26926-0.25891-0.40126-0.50063-0.48861c-0.00039-0.02525,0.01481-0.04072,0.03389-0.05386
		c0.14907-0.08434,0.21746-0.2337,0.3019-0.37008c0.32565-0.53775,0.67439-1.061,1.01217-1.5911
		c0.44285-0.695,0.89006-1.38729,1.33257-2.0825c0.13946-0.2191,0.14299-0.45533,0.01262-0.67499
		c-0.23715-0.39961-0.4968-0.78579-0.7465-1.17793c-0.35753-0.56147-0.71915-1.12038-1.07539-1.68267
		c-0.02929-0.04623-0.07982-0.09159-0.03689-0.15635c0.77574-0.00022,1.55147-0.00044,2.32721-0.00066
		c0.13557,0.11627,0.20652,0.27895,0.30028,0.42372c0.61242,0.94564,1.20815,1.9021,1.8338,2.83901
		c0.16813,0.25176,0.15516,0.43444-0.00733,0.67918c-0.67,1.00915-1.31144,2.03682-1.9735,3.05121
		c-0.1543,0.2364-0.12808,0.48829-0.08928,0.73387c0.03481,0.22032,0.41307,0.40969,0.6601,0.36401
		c0.16738-0.03095,0.31089-0.10548,0.42192-0.23649c0.03409-0.04022,0.06346-0.08526,0.11154-0.11169
		c0.167-0.0744,0.2326-0.23486,0.32205-0.37505c0.32579-0.53784,0.67451-1.06126,1.01242-1.59145
		c0.44302-0.69511,0.89008-1.38769,1.33293-2.08291c0.1396-0.21915,0.14367-0.45537,0.01341-0.67512
		c-0.23699-0.39982-0.49685-0.786-0.74659-1.17822c-0.3576-0.5616-0.7193-1.12062-1.07562-1.68303
		c-0.0293-0.04624-0.07985-0.0916-0.0369-0.15639c0.47844-0.00004,0.95708-0.00832,1.43526,0.0028
		c0.31549,0.00734,0.62373,0.05774,0.85093,0.31521c0.0426,0.04828,0.07951,0.09769,0.10767,0.15507
		c0.16148,0.3291,0.43926,0.47284,0.79577,0.47643c0.47308,0.00476,0.94644,0.00985,1.41932-0.00074
		c0.8263-0.01852,1.63345,0.10967,2.43223,0.29913c0.52439,0.12438,1.0507,0.24485,1.54933,0.45841
		c0.36372,0.15577,0.68186,0.37864,0.98956,0.6218c0.28297,0.22362,0.507,0.50958,0.79473,0.72716
		c0.31579,0.2388,0.68499,0.34901,1.06542,0.42975c0.12366,0.02624,0.24922,0.04364,0.37391,0.06508
		c0.03752,0.04946,0.01701,0.10122,0.00472,0.15179c-0.30079,1.23819-0.82539,2.3724-1.61701,3.37758
		c-0.30175,0.38316-0.65859,0.6969-1.15554,0.8279c-0.31246,0.08237-0.56095,0.27346-0.71834,0.56536
		c-0.11433,0.21203-0.2888,0.29384-0.53595,0.29354c-4.08549-0.00499-8.17098-0.00346-12.25647-0.00429
		C13.77743,11.6171,13.6835,11.63513,13.6055,11.57088z"/>
	<path fill="#797979" d="M11.85446,10.61098c-0.04211,0.05941-0.10566,0.03985-0.16146,0.03988
		c-1.7719,0.00089-3.54379,0.00029-5.31569,0.00103c-0.44687,0.00019-0.89477-0.33151-0.95539-0.78469
		C5.37987,9.5528,5.11064,9.3528,4.79075,9.3524C4.17884,9.35162,3.56691,9.35402,2.95501,9.35152
		c-0.4279-0.00175-0.80218-0.26823-0.91801-0.65146C2.00054,8.57944,1.9806,8.45587,1.98073,8.32773
		C1.98256,6.59542,1.9795,4.8631,1.98507,3.13081c0.0007-0.21645-0.03268-0.40703-0.19462-0.56106
		c0.02271-0.31539,0.00823-0.6313,0.01367-0.94693C1.809,1.33948,1.89233,1.25402,2.17695,1.25273
		c0.66284-0.003,1.3257-0.00145,1.98855-0.00051c0.07384,0.00011,0.14988-0.00426,0.21131,0.04984
		C4.52213,1.77298,4.85392,2.00452,5.3427,2.00245c1.83768-0.00779,3.67543,0.00058,5.51311-0.00685
		c0.29893-0.00121,0.49484,0.1382,0.67479,0.34759c0.09679,0.11263,0.15708,0.2643,0.31314,0.32097
		c0.27035,0.73072,0.78876,1.31587,1.18161,1.97469c0.33307,0.55858,0.69842,1.09829,1.05049,1.64569
		c0.07584,0.11791,0.07494,0.21724-0.0002,0.33545c-0.43999,0.69219-0.88807,1.37924-1.32996,2.07021
		c-0.25088,0.3923-0.49983,0.78584-0.75594,1.1748c-0.07239,0.10994-0.10456,0.22499-0.10423,0.3577
		C11.88581,10.35186,11.92113,10.48635,11.85446,10.61098z"/>
	<path fill="#FEFEFE" d="M17.52069,10.61663c-0.10074,0.11339-0.18553,0.23941-0.33471,0.30579
		c-0.32295,0.1437-0.69361,0.04202-0.88114-0.25328c-0.0253-0.03983-0.04753-0.08111-0.04898-0.13138
		c-0.00837-0.28954,0.0055-0.55522,0.18426-0.82295c0.69143-1.03559,1.35181-2.09157,2.02793-3.13729
		c0.06138-0.09493,0.05804-0.16107-0.00248-0.25469c-0.70189-1.08561-1.39937-2.17403-2.09719-3.26224
		c-0.0426-0.06643-0.07817-0.1373-0.11701-0.2061c0.02424-0.17882-0.03334-0.36281,0.03458-0.53887
		c0.18733-0.12835,0.51429-0.09226,0.72384,0.08058c0.09921,0.08183,0.17435,0.18362,0.24457,0.29003
		c0.83856,1.27046,1.68753,2.53412,2.52336,3.80637c0.06382,0.09714,0.13521,0.18913,0.1965,0.28796
		c0.01972,0.07138-0.02734,0.12009-0.06123,0.17237c-0.71648,1.10515-1.42082,2.21798-2.13342,3.32557
		C17.69087,10.38935,17.64975,10.53623,17.52069,10.61663z"/>
	<path fill="#FEFEFE" d="M11.85446,10.61098c-0.00195-0.1636-0.00028-0.32736-0.00717-0.49075
		c-0.00439-0.10414,0.05158-0.1805,0.10246-0.25985c0.69848-1.08925,1.39611-2.17904,2.09937-3.26525
		c0.06712-0.10367,0.07404-0.17398,0.00457-0.28119c-0.70072-1.08154-1.3939-2.16788-2.09296-3.25048
		c-0.08064-0.12489-0.1283-0.25162-0.117-0.39929c0.02485-0.11487-0.0302-0.23782,0.03576-0.34853
		c0.18733-0.12835,0.51429-0.09226,0.72384,0.08058c0.09921,0.08183,0.17434,0.18362,0.24458,0.29002
		c0.84153,1.27483,1.69329,2.54298,2.53218,3.81954c0.06093,0.09272,0.12969,0.18011,0.18768,0.27479
		c0.01972,0.07138-0.02734,0.12009-0.06123,0.17237c-0.71648,1.10515-1.42082,2.21798-2.13342,3.32557
		c-0.0887,0.11084-0.12981,0.25773-0.25888,0.33813c-0.00815,0.00934-0.0163,0.01869-0.02446,0.02802
		C12.7944,11.08855,12.19779,11.13848,11.85446,10.61098z"/>
	<path fill="#757575" d="M13.6055,11.57088c4.18539-0.00006,8.37078-0.00148,12.55617,0.00385
		c0.20885,0.00027,0.35035-0.07036,0.43975-0.245c0.17852-0.34873,0.47684-0.54813,0.84228-0.64166
		c0.4516-0.11558,0.75606-0.42252,1.03158-0.75655c0.70179-0.85081,1.15123-1.83629,1.49617-2.87207
		c0.07116-0.21368,0.11621-0.43593,0.17329-0.65422c0.05326,0.01043,0.10651,0.02086,0.15976,0.03129
		c0.06601,0.16632-0.01029,0.3248-0.05249,0.47369c-0.1469,0.51821-0.33553,1.02276-0.588,1.50157
		c-0.155,0.29396-0.28415,0.60241-0.47087,0.87851c-0.19999,0.29573-0.37939,0.60802-0.62648,0.86905
		c-0.34432,0.36375-0.72419,0.67488-1.23097,0.79962c-0.26826,0.06603-0.45175,0.2496-0.55929,0.49864
		c-0.10039,0.2325-0.27791,0.33572-0.52257,0.34603c-0.04253,0.00179-0.08512,0.00102-0.12769,0.00102
		c-4.08656,0.00004-8.17312,0.00016-12.25967-0.00089c-0.08821-0.00002-0.18255,0.02249-0.26091-0.04275
		C13.60554,11.69765,13.60552,11.63426,13.6055,11.57088z"/>
	<path fill="#DCDEE0" d="M15.55731,6.7856c-0.15094-0.1089-0.22056-0.27921-0.31892-0.42612
		c-0.64221-0.95911-1.27944-1.92151-1.91775-2.88319C13.1399,3.204,12.96279,2.92933,12.78081,2.65787
		c-0.23339-0.34813-0.4924-0.44489-0.90131-0.34223c0.05002-0.16669,0.19673-0.24188,0.32305-0.33638
		c0.20573-0.14668,0.53784-0.11402,0.76115,0.07446c0.10663,0.09,0.18833,0.20048,0.258,0.31908
		c0.09098,0.15487,0.20022,0.29813,0.28855,0.45446c0.57421,0.89523,1.14712,1.79132,1.72457,2.68455
		c0.10918,0.16888,0.21568,0.33945,0.32624,0.50745c0.06803,0.10338,0.11254,0.21518,0.12687,0.33843
		c0.00436,0.06638,0.00532,0.13262-0.00382,0.19873C15.64971,6.63702,15.67765,6.75188,15.55731,6.7856z"/>
	<path fill="#DCDEE0" d="M19.96376,6.7856c-0.15095-0.1089-0.22055-0.27922-0.31892-0.42612
		c-0.64222-0.95911-1.27944-1.92151-1.91775-2.88319c-0.18073-0.27229-0.35785-0.54696-0.53983-0.81841
		c-0.2334-0.34814-0.49238-0.44489-0.90131-0.34223c0.05002-0.16669,0.19674-0.24189,0.32305-0.33639
		c0.20574-0.14667,0.53785-0.11401,0.76115,0.07447c0.10663,0.09,0.18833,0.20048,0.25799,0.31908
		c0.09098,0.15487,0.20023,0.29813,0.28854,0.45446c0.57421,0.89522,1.14712,1.79132,1.72457,2.68454
		c0.10918,0.16888,0.21568,0.33945,0.32624,0.50745c0.06804,0.10338,0.11254,0.21518,0.12687,0.33843
		c0.00436,0.06638,0.00531,0.13262-0.00382,0.19872C20.05616,6.63702,20.08411,6.75188,19.96376,6.7856z"/>
	<path fill="#6F6F6F" d="M28.51645,10.42974c-0.04308,0.02061-0.075,0.05231-0.09579,0.09504
		c-0.20039,0.22795-0.45897,0.36797-0.7377,0.47516c-0.143,0.05499-0.29526,0.08838-0.42933,0.16385
		c-0.16665,0.09382-0.27311,0.24519-0.36566,0.40686c-0.20436,0.3279-0.52564,0.3515-0.8711,0.35118
		c-4.13692-0.00382-8.27385-0.00237-12.41076-0.0023c-0.00004-0.04229-0.00009-0.08457-0.00014-0.12686
		c0.06048-0.03103,0.12542-0.01462,0.18793-0.01464c4.12861-0.00094,8.25723-0.00255,12.38584,0.00288
		c0.28226,0.00037,0.4751-0.08365,0.59814-0.34537c0.11662-0.24806,0.31889-0.41452,0.58584-0.50064
		c0.252-0.08129,0.50839-0.15829,0.7139-0.33477c0.2445-0.20996,0.48231-0.42998,0.67558-0.68719
		c0.20814-0.27699,0.40456-0.56403,0.57134-0.86854c0.40641-0.74205,0.76529-1.50391,0.9674-2.32971
		c0.02241-0.09157,0.01366-0.18803,0.04456-0.27824c0.04255,0.00001,0.0851,0.00002,0.12765,0.00003
		c0.05372,0.1823-0.01089,0.35419-0.06209,0.52132c-0.28705,0.93708-0.68671,1.8244-1.2256,2.64662
		C28.98307,9.89951,28.78166,10.19029,28.51645,10.42974z"/>
	<path fill="#606263" d="M15.65222,6.34059c-0.06954-0.28997-0.26674-0.51091-0.42052-0.75397
		c-0.57762-0.91299-1.16212-1.82168-1.74404-2.73199c0.11415-0.07953,0.25167-0.02291,0.37259-0.06299
		c0.03048,0.01207,0.05173,0.0333,0.0639,0.06352c0.11615,0.24846,0.28354,0.46607,0.42918,0.69656
		c0.48944,0.77458,0.98956,1.54256,1.47362,2.32041c0.13275,0.21332,0.12799,0.45556-0.01036,0.67246
		c-0.68533,1.07441-1.37528,2.14591-2.06372,3.21835c-0.10217,0.15917-0.205,0.31792-0.30752,0.47686
		c-0.03076,0.0158-0.03764,0.11456-0.09793,0.02777c0.28957-0.45869,0.57813-0.918,0.86895-1.37591
		c0.44617-0.70253,0.89388-1.40409,1.34094-2.10606c0.07614-0.05515,0.05025-0.15328,0.0948-0.22173
		C15.72115,6.48947,15.72107,6.41505,15.65222,6.34059z"/>
	<path fill="#606263" d="M19.96376,6.7856c0.07614-0.05515,0.05025-0.15328,0.0948-0.22173
		c0.06905-0.07439,0.06897-0.14882,0.00011-0.22328c-0.06952-0.28997-0.26674-0.51091-0.42051-0.75397
		c-0.57761-0.91299-1.16211-1.82168-1.74403-2.73199c0.11414-0.07952,0.25164-0.02291,0.37255-0.06299
		c0.0305,0.01206,0.05176,0.03329,0.06394,0.06352c0.11616,0.24846,0.28354,0.46607,0.42917,0.69656
		c0.48944,0.77458,0.98957,1.54256,1.47362,2.3204c0.13274,0.21331,0.12801,0.45555-0.01035,0.67246
		c-0.68534,1.0744-1.37528,2.14591-2.06373,3.21836c-0.10217,0.15917-0.205,0.31792-0.30752,0.47686
		c-0.03076,0.01578-0.03763,0.11458-0.09793,0.02777c0.28957-0.45869,0.57813-0.918,0.86894-1.37591
		C19.06898,8.18913,19.5167,7.48757,19.96376,6.7856z"/>
	<path fill="#717171" d="M30.33651,6.43646c0.01349,0.44056-0.18197,0.82892-0.3196,1.2301
		c-0.16223,0.47289-0.39865,0.91556-0.63762,1.35226c-0.32684,0.59728-0.73498,1.13998-1.25384,1.59262
		c-0.22236,0.19398-0.50239,0.26727-0.77146,0.36158c-0.27653,0.09692-0.45141,0.29895-0.59048,0.54025
		c-0.10082,0.17493-0.22632,0.28287-0.45192,0.28263c-4.23521-0.00453-8.47042-0.00328-12.70562-0.00323
		c-0.00079-0.01054-0.00093-0.02109-0.00041-0.03164c4.18107-0.00007,8.36213-0.0013,12.54318,0.00224
		c0.29673,0.00025,0.50403-0.087,0.61755-0.38236c0.08008-0.20835,0.25186-0.36129,0.46655-0.43485
		c0.2983-0.10222,0.59-0.20976,0.85608-0.38488c0.08567-0.05638,0.12248-0.14149,0.19393-0.2031
		c0.42849-0.36952,0.7234-0.83892,1.00151-1.32218c0.38518-0.66931,0.70009-1.36838,0.92163-2.1072
		c0.04786-0.15962,0.06645-0.32789,0.09851-0.49217C30.31517,6.43651,30.32584,6.43649,30.33651,6.43646z"/>
	<path fill="#757575" d="M4.37681,1.30206c-0.74221,0-1.48441-0.00017-2.22662,0.00011
		C1.9102,1.30226,1.85455,1.35879,1.85429,1.60107C1.854,1.86944,1.85435,2.1378,1.85413,2.40616
		C1.85409,2.46861,1.8653,2.53581,1.79045,2.56975C1.74773,2.53854,1.70502,2.50733,1.6623,2.47612
		C1.63798,2.44699,1.61968,2.41403,1.61885,2.37615C1.6119,2.06017,1.58931,1.74302,1.63132,1.42885
		C1.66067,1.20932,1.76229,1.12205,1.9829,1.0786c0.06812-0.01342,0.13698-0.01669,0.20611-0.01676
		c0.65333-0.00066,1.30665-0.0007,1.95998,0.00024C4.22788,1.0622,4.30997,1.05392,4.37649,1.11209
		C4.3766,1.17542,4.3767,1.23874,4.37681,1.30206z"/>
	<path fill="#6F6F6F" d="M4.37649,1.11209C3.63975,1.11204,2.90301,1.11198,2.16626,1.11192
		c-0.0159,0-0.0318-0.00019-0.0477,0.00004c-0.325,0.00466-0.45244,0.12817-0.45533,0.44874
		C1.66049,1.8658,1.66243,2.17095,1.66231,2.4761C1.60916,2.46488,1.55601,2.45365,1.50287,2.44241
		C1.45612,2.39093,1.45593,2.32694,1.4557,2.26369C1.45477,2.00051,1.45376,1.73733,1.45627,1.47416
		C1.45672,1.42671,1.4623,1.37969,1.47031,1.33288C1.515,1.07172,1.56631,1.02095,1.8543,0.95399
		C1.97155,0.95369,2.0888,0.95338,2.20605,0.95306c0.39327-0.00014,0.78654-0.00028,1.1798-0.00043
		c0.27891,0.00033,0.55806,0.00745,0.83664-0.00199C4.35251,0.94624,4.39432,0.99313,4.37649,1.11209z"/>
	<path fill="#5C5D5F" d="M18.26666,2.79164c-0.02468,0.10322-0.10889,0.05539-0.16843,0.06172
		c-0.06732,0.00716-0.13602,0.00141-0.20412,0.00127c-0.11453-0.17561-0.22975-0.35079-0.34345-0.52693
		c-0.24351-0.37724-0.51168-0.47685-0.94167-0.34847c0.14642-0.33635,0.6863-0.42257,0.96374-0.17932
		c0.12892,0.11303,0.22771,0.24884,0.32009,0.38885C18.02303,2.38608,18.14257,2.59034,18.26666,2.79164z"/>
	<path fill="#5C5D5F" d="M13.86025,2.79164c-0.02472,0.10317-0.1089,0.05541-0.16846,0.06173
		c-0.06732,0.00714-0.13603,0.0014-0.20413,0.00126c-0.11453-0.17561-0.22975-0.35079-0.34346-0.52693
		c-0.24351-0.37724-0.51171-0.47686-0.94167-0.34846c0.14641-0.33635,0.6863-0.42259,0.96376-0.17933
		c0.12892,0.11303,0.22771,0.24885,0.32009,0.38885C13.61659,2.38609,13.73615,2.59034,13.86025,2.79164z"/>
	<path fill="#6B6B6B" d="M28.51645,10.42974c0.4972-0.57703,0.92006-1.2032,1.23962-1.89357
		c0.28566-0.61715,0.55964-1.24003,0.69217-1.91229c0.01206-0.06115,0.01093-0.12487,0.01592-0.18739
		c0.01067,0.01052,0.02134,0.02104,0.03201,0.03157c0.04547,0.24399-0.05006,0.46608-0.1237,0.68645
		c-0.35448,1.06078-0.83728,2.05877-1.52367,2.95039C28.75605,10.22538,28.68532,10.38077,28.51645,10.42974z"/>
	<path fill="#6A6A6A" d="M1.8543,0.95399C1.53826,1.03585,1.49844,1.27671,1.50208,1.54757
		c0.00401,0.29824,0.00084,0.59657,0.00079,0.89485c-0.0426-0.00038-0.0852-0.00076-0.1278-0.00116
		C1.37514,2.08864,1.3752,1.73603,1.37527,1.38342c0-0.02631-0.0004-0.05264,0.00007-0.07894
		c0.00497-0.27585,0.08041-0.3511,0.35171-0.35095C1.76947,0.95355,1.81189,0.95383,1.8543,0.95399z"/>
	<path fill="#6B6B6B" d="M26.88798,11.57066c0.07624-0.24513,0.25281-0.40629,0.48296-0.48729
		c0.3805-0.13393,0.74306-0.29206,1.04972-0.55858c-0.00948,0.08919-0.07933,0.13594-0.14258,0.17848
		c-0.23015,0.15477-0.45538,0.31488-0.73857,0.37505c-0.30044,0.06384-0.50308,0.26503-0.65153,0.52409
		C26.88798,11.59181,26.88798,11.58123,26.88798,11.57066z"/>
	<path fill="#6F6B6C" d="M17.75387,10.26757c0.04831,0.04517,0.06216-0.02935,0.09792-0.02777
		c-0.08227,0.14993-0.13594,0.32461-0.3311,0.37684C17.59137,10.49564,17.66147,10.37427,17.75387,10.26757z"/>
	<path fill="#6F6B6C" d="M13.34742,10.26757c0.04831,0.04516,0.06216-0.02935,0.09793-0.02778
		c-0.08227,0.14993-0.13594,0.32462-0.33111,0.37684C13.18492,10.49565,13.25502,10.37427,13.34742,10.26757z"/>
	<path fill="#7A6265" d="M15.65222,6.34059c0.09154-0.00644,0.09179,0.05333,0.09297,0.11927
		c0.0012,0.06698-0.01651,0.10935-0.09308,0.104C15.65214,6.48944,15.65218,6.41501,15.65222,6.34059z"/>
	<path fill="#7A6265" d="M20.05866,6.34059c0.09153-0.00644,0.09179,0.05333,0.09297,0.11927
		c0.0012,0.06698-0.01651,0.10934-0.09307,0.10401C20.05859,6.48944,20.05862,6.41501,20.05866,6.34059z"/>
</g>
</svg>
