<?xml version="1.0" encoding="utf-8"?>
<!-- Generator: Adobe Illustrator 23.0.0, SVG Export Plug-In . SVG Version: 6.00 Build 0)  -->
<svg version="1.1" id="Слой_1" xmlns="http://www.w3.org/2000/svg" xmlns:xlink="http://www.w3.org/1999/xlink" x="0px" y="0px" width="32px" height="13px"
	 viewBox="0 0 32 13" enable-background="new 0 0 32 13" xml:space="preserve">
<g>
	<path fill="#55718A" d="M0.00225,12.23626c0-2.21853,0-4.43706,0-6.65559c0.01796-0.01273,0.03751-0.01592,0.0587-0.00959
		c0.01719,0.01269,0.02963,0.02894,0.0376,0.04866c0.02848,0.09291,0.01857,0.18858,0.0186,0.28318
		c0.00063,1.96907,0.00068,3.93815-0.00001,5.90722c-0.00005,0.14318,0.00694,0.28455,0.04746,0.42321
		c0.08766,0.29992,0.29026,0.4835,0.58561,0.5732c0.14958,0.04543,0.30414,0.04441,0.45869,0.04441
		c5.20157-0.00031,10.40314-0.00042,15.60472,0.00076c0.10982,0.00002,0.22446-0.02309,0.3275,0.03955
		c0.02446,0.02752,0.02726,0.05547,0.00152,0.08389c-0.05814,0.01013-0.11681,0.00516-0.17521,0.00517
		c-5.37945,0.00025-10.75889,0.00026-16.13795,0.00026c-0.41395-0.00269-0.73975-0.27844-0.80967-0.68639
		C0.01632,12.27382,0.01794,12.25269,0.00225,12.23626z"/>
	<path fill="#224053" d="M27.59046,0.00265c0.32386,0.10065,0.64818,0.20024,0.93011,0.39753
		c0.09598,0.08981,0.21694,0.14656,0.31492,0.23302c0.04213,0.03717,0.10724,0.09228-0.02023,0.10374
		c-0.14833-0.0627-0.26842-0.17015-0.40653-0.24946c-0.42814-0.24584-0.8798-0.37452-1.38161-0.37416
		c-7.23145,0.00526-14.4629,0.00359-21.69435,0.00364c-0.11701,0-0.23431-0.00442-0.34988,0.01979
		C4.93533,0.14771,4.90621,0.12901,4.89473,0.08234c-0.00418-0.03031,0.00569-0.05643,0.02486-0.0797
		C12.47655,0.00265,20.0335,0.00265,27.59046,0.00265z"/>
	<path fill="#40586D" d="M17.14971,12.96473c-0.00078-0.02081-0.00155-0.04162-0.00233-0.06244
		c0.00674-0.00644,0.01348-0.01289,0.02015-0.01944c0.09111-0.04219,0.18836-0.02634,0.28307-0.02636
		c3.13256-0.00086,6.26513-0.00517,9.39768,0.0021c0.90301,0.0021,1.65092-0.32767,2.29342-0.94147
		c0.89009-0.85031,1.50346-1.8799,1.99246-2.99133c0.3029-0.68844,0.55177-1.39433,0.67312-2.13991
		c0.01756-0.10793-0.00974-0.22395,0.05476-0.3241c0.04656-0.03162,0.09141-0.02704,0.13486,0.00628c0,0.02113,0,0.04226,0,0.06339
		c-0.01669,0.01775-0.02211,0.04057-0.02861,0.06296c-0.03206,0.40668-0.13439,0.79955-0.25624,1.18591
		c-0.37039,1.17436-0.89765,2.27344-1.62598,3.27347c-0.17399,0.2389-0.36881,0.46122-0.55347,0.69205
		c-0.34115,0.35837-0.7181,0.67472-1.15445,0.91021c-0.37137,0.20042-0.77016,0.32469-1.20012,0.32465
		c-3.32413-0.00035-6.64826,0.00011-9.97239-0.00028C17.18511,12.98181,17.16647,12.97658,17.14971,12.96473z"/>
	<path fill="#3B556C" d="M4.91959,0.00265C4.9194,0.0236,4.91921,0.04454,4.91901,0.06549
		c-0.08219,0.06849-0.1816,0.04975-0.27546,0.04985C3.43681,0.11662,2.23007,0.11683,1.02332,0.11547
		C0.80403,0.11522,0.60156,0.15544,0.42999,0.3024C0.23077,0.47302,0.14783,0.69055,0.14818,0.94762
		c0.00105,0.78092,0.00046,1.56184,0.00036,2.34277C0.14844,3.96578,0.14898,4.64117,0.14797,5.31657
		C0.14784,5.40023,0.15886,5.48612,0.11751,5.56525C0.10465,5.58511,0.08711,5.59067,0.065,5.58204
		c-0.01024-0.00052-0.02048-0.0012-0.0307-0.00203C0.00469,5.52527,0.01947,5.46609,0.01944,5.40921
		C0.01852,3.86955,0.01868,2.32989,0.01868,0.7906c0.00296-0.40397,0.23859-0.68793,0.65411-0.78795
		C2.08839,0.00265,3.50399,0.00265,4.91959,0.00265z"/>
	<path fill="#264356" d="M31.99691,6.46808c-0.04213,0.00037-0.08426,0.00074-0.12639,0.00111
		c-0.04101,0.02632-0.07783,0.03098-0.10398-0.0197c0.0946-0.13424,0.06846-0.28203,0.04318-0.42707
		c-0.11863-0.68057-0.3442-1.32775-0.62241-1.95879c-0.32323-0.73315-0.71682-1.4271-1.1876-2.07594
		c-0.29251-0.40316-0.61979-0.77837-1.00661-1.09825c-0.05239-0.04333-0.11103-0.08405-0.12534-0.15815
		c-0.02511-0.11014-0.13667-0.13154-0.20482-0.19748c-0.0468-0.04528-0.1297-0.05282-0.14237-0.13363
		c0.48604,0.27853,0.88571,0.65841,1.23725,1.08412c1.04977,1.27127,1.76887,2.70872,2.15862,4.30761
		c0.02662,0.10919,0.01725,0.22728,0.08046,0.32753C31.99691,6.23566,31.99691,6.35187,31.99691,6.46808z"/>
	<path fill="#697682" d="M17.14971,12.96473c0.01015,0.00041,0.02031,0.0008,0.03047,0.00115
		c0.00887,0.00666,0.01194,0.01347,0.00924,0.02044c-0.00273,0.00704-0.00552,0.01056-0.0084,0.01056
		c-5.47081,0-10.94162,0-16.41243,0c-0.00746-0.0057-0.01058-0.01202-0.00936-0.01895
		c0.00127-0.00724,0.00297-0.01085,0.00509-0.01085c0.36162-0.00063,0.72324-0.00179,1.08487-0.00181
		C6.94936,12.96501,12.04954,12.96489,17.14971,12.96473z"/>
	<path fill="#535F69" d="M17.18102,12.99689c-0.00003-0.01035-0.00031-0.02069-0.00083-0.03101
		c3.2775-0.00022,6.55502-0.00246,9.83252,0.00137c0.52312,0.00061,1.00592-0.12008,1.45299-0.38788
		c0.40208-0.24085,0.76403-0.52929,1.07253-0.88202c0.01667-0.01328,0.03168-0.01163,0.04502,0.00495
		c-0.56603,0.62973-1.21441,1.12673-2.08086,1.27287c-0.01405,0.00237-0.02647,0.01427-0.03965,0.02172
		C24.0355,12.99689,20.60826,12.99689,17.18102,12.99689z"/>
	<path fill="#445B6E" d="M29.58325,11.7023c-0.01501-0.00165-0.03001-0.0033-0.04502-0.00495
		c0.58495-0.67699,1.07791-1.41443,1.46782-2.21809c0.38671-0.79707,0.705-1.61876,0.88559-2.48857
		c0.02944-0.14181,0.01912-0.2901,0.07314-0.42758c0.02255,0.01523,0.01037,0.0478,0.03214,0.06343c0,0.05282,0,0.10564,0,0.15847
		c-0.09524,0.24971-0.11541,0.51743-0.19083,0.77246c-0.42271,1.42939-1.06171,2.74858-2.00945,3.91168
		C29.73021,11.55065,29.65459,11.62476,29.58325,11.7023z"/>
	<path fill="#40596F" d="M0.00225,0.73159c0.01041,0.00062,0.02033-0.00127,0.02977-0.00567
		C0.03278,2.34396,0.03354,3.96199,0.0343,5.58002C0.02361,5.58023,0.01293,5.58045,0.00225,5.58067
		C0.00225,3.96431,0.00225,2.34795,0.00225,0.73159z"/>
	<path fill="#767F87" d="M31.99691,6.62654c-0.02834-0.01234-0.03056-0.03772-0.03214-0.06342
		c0.01071-0.01055,0.02143-0.0211,0.03214-0.03166C31.99691,6.56316,31.99691,6.59485,31.99691,6.62654z"/>
	<path fill="#44637F" d="M0.065,5.58204c0.01108-0.00053,0.02217-0.00106,0.03325-0.00158
		c0.20078-0.00713,0.37317,0.14605,0.41981,0.37439c0.01918,0.09388,0.01422,0.18933,0.01423,0.28428
		c0.00023,1.83743,0.00013,3.67487,0.00024,5.5123c0,0.0739-0.00312,0.14799,0.0047,0.22161
		c0.02509,0.23633,0.21905,0.43165,0.45697,0.4597c0.09,0.01061,0.18068,0.00607,0.27107,0.00607
		c5.06421,0.00015,10.12843,0.0001,15.19265,0.00034c0.10625,0.00001,0.2132-0.00696,0.31823,0.01487
		c0.24135,0.05016,0.40569,0.2473,0.37457,0.44729c0,0-0.00328,0.00098-0.0033,0.00098
		C11.78515,12.9021,6.42292,12.9018,1.06068,12.90197c-0.3438,0.00001-0.63502-0.11457-0.8338-0.39993
		c-0.11955-0.17161-0.16114-0.37379-0.16111-0.58389C0.06608,9.80612,0.0654,7.69408,0.065,5.58204z"/>
	<path fill="#2D4961" d="M17.15071,12.90131c-0.09489-0.31029-0.23031-0.41146-0.55219-0.41147
		c-5.16477-0.00008-10.32954-0.00299-15.49429,0.00654c-0.33505,0.00062-0.63228-0.29437-0.62989-0.62139
		c0.01396-1.91106,0.00686-3.82227,0.00683-5.73344c-0.00001-0.32156-0.07917-0.43742-0.38294-0.5611
		C0.09817,4.02238,0.09779,2.4643,0.09819,0.90622c0.00012-0.47818,0.36436-0.83981,0.8459-0.84005
		c1.32498-0.00066,2.64996-0.0005,3.97493-0.00068c0.00131,0.02604,0.00665,0.05009,0.03223,0.06412
		c0.04718,0.01833,0.07453,0.0584,0.10457,0.09509c0.09342,0.11413,0.21542,0.16802,0.36191,0.17205
		C5.49755,0.39895,5.57737,0.3983,5.65719,0.3983c7.02476,0.00005,14.04954,0.00482,21.07427-0.00904
		c0.55959-0.0011,1.03779,0.15816,1.51309,0.41069c0.69687,0.37025,1.19595,0.9361,1.64209,1.56422
		c0.43947,0.61874,0.72292,1.31471,1.03162,1.9985c0.20493,0.45392,0.37786,0.92019,0.48082,1.40819
		c0.05556,0.26332,0.19675,0.47313,0.37416,0.66587c0.02349,0.03718,0.06204,0.02988,0.09727,0.03244
		c0.01047,0.39972-0.09508,0.78104-0.2064,1.15764c-0.26049,0.88128-0.62953,1.71888-1.08921,2.51546
		c-0.26581,0.46062-0.56644,0.89803-0.91937,1.30019c-0.27618,0.31471-0.56461,0.61548-0.90504,0.86037
		c-0.44413,0.31948-0.92633,0.53758-1.48892,0.57471c-0.26537,0.01752-0.52957,0.02252-0.79411,0.0227
		C23.36187,12.90233,20.25629,12.90143,17.15071,12.90131z"/>
	<path fill="#123247" d="M31.77324,6.43674c-0.26312-0.1191-0.35271-0.36259-0.40735-0.60972
		c-0.16984-0.76821-0.50239-1.47338-0.82302-2.18464c-0.25038-0.55542-0.56479-1.06906-0.92452-1.56276
		c-0.57652-0.79122-1.34566-1.29998-2.2594-1.61679c-0.06256-0.02169-0.13628-0.01587-0.2048-0.01588
		C19.9227,0.44633,12.69125,0.44611,5.4598,0.44748C5.21793,0.44753,5.03774,0.36653,4.95125,0.12961
		c0.00577-0.04409,0.03165-0.06375,0.07578-0.06324C5.07492,0.06693,5.12281,0.06602,5.1707,0.06602
		c7.31127-0.00002,14.62255,0.0016,21.93382-0.00302c0.60312-0.00038,1.11278,0.22552,1.59488,0.54996
		c0.05691,0.0383,0.11229,0.07884,0.16838,0.11834c0.65288,0.51284,1.15169,1.15698,1.58487,1.85349
		c0.47792,0.76845,0.86948,1.57963,1.14829,2.44023c0.13395,0.41346,0.26266,0.83117,0.26823,1.27268
		C31.87001,6.36564,31.88414,6.44409,31.77324,6.43674z"/>
	<path fill="#3B556B" d="M27.81408,11.9194c-0.18306,0.1648-0.41986,0.15144-0.64096,0.18915
		c-0.03618,0.00617-0.07434,0.00089-0.11159,0.00089c-8.62529,0-17.25058,0-25.87587,0c-0.29593,0-0.32125-0.02461-0.32125-0.31255
		C0.8644,8.23724,0.86439,4.67758,0.86442,1.11792c0-0.25607,0.03558-0.29121,0.29484-0.29121
		C9.80584,0.8267,18.45242,0.82635,27.09899,0.82833c0.27732,0.00006,0.54354,0.06248,0.77903,0.22011
		c-0.06151,0.04943-0.12168,0.0177-0.18011-0.00536c-0.21048-0.0831-0.42745-0.11036-0.65455-0.11029
		C18.46324,0.93532,9.88312,0.93496,1.303,0.93483C0.94713,0.93482,0.97348,0.91762,0.97347,1.2606
		C0.97343,2.90789,0.97332,4.55519,0.97378,6.20248C0.9738,6.29181,0.96472,6.38223,0.99533,6.4693
		C1.00664,6.52671,1.00505,6.5849,1.00507,6.64289c0.00042,1.24546,0.00043,2.49092,0,3.73638
		c-0.00002,0.058,0.00133,0.11617-0.00914,0.17369c-0.04437,0.17191-0.01786,0.34697-0.02126,0.52046
		c-0.00476,0.24284-0.0024,0.48585-0.00074,0.72877c0.00121,0.17777,0.02067,0.19551,0.20512,0.19874
		c0.05851,0.00103,0.11705,0.0003,0.17558,0.0003c8.57169,0,17.14338-0.0002,25.71507,0.00124
		c0.20387,0.00003,0.40341-0.00832,0.59402-0.0891C27.71287,11.89252,27.76564,11.87794,27.81408,11.9194z"/>
	<path fill="#3C566C" d="M27.81408,11.9194c-0.51116,0.20746-1.04791,0.12318-1.57399,0.12347
		c-8.35214,0.00458-16.70429,0.00322-25.05643,0.00322c-0.25537,0-0.2554-0.00004-0.25542-0.24799
		c-0.00003-0.35906-0.00092-0.71812,0.00095-1.07717c0.00029-0.05549-0.02125-0.11749,0.03077-0.16442
		c0.06987,0.07021,0.02474,0.16882,0.06254,0.24704c0.01384,0.05268,0.02872,0.10522,0.02096,0.16064
		c-0.00596,0.27806,0.00195,0.55615-0.0037,0.83407c-0.00243,0.11969,0.04216,0.17152,0.16583,0.16863
		c0.3011-0.00703,0.60248,0.00716,0.90363-0.00898c0.2533,0.00902,0.50654,0.01857,0.75989-0.00181
		c0.14357,0.006,0.28709,0.0067,0.43065,0.00669c3.36029-0.00021,6.72059-0.00011,10.08088-0.00023
		c0.0638,0,0.12761-0.00113,0.1912,0.00545c2.63155,0.00372,5.2631,0.00153,7.89465,0.00107
		c1.73306-0.0003,3.46614,0.00544,5.19875-0.00409c0.36721,0.01952,0.7333,0.03425,1.08121-0.12461
		c0.27398-0.1251,0.51294-0.29949,0.73425-0.49887c0.58233-0.52463,1.01997-1.15845,1.39813-1.83657
		c0.29946-0.53698,0.55261-1.09435,0.74893-1.6767c0.08523-0.23109,0.15413-0.46686,0.20586-0.70763
		c0.06873-0.15997,0.08442-0.33168,0.11252-0.50066c0.03758-0.21919,0.01769-0.43398-0.049-0.64525
		c-0.04053-0.26759-0.1315-0.5212-0.21918-0.77599c-0.46224-1.30514-1.10455-2.50416-2.09891-3.4929
		c-0.29625-0.29457-0.63875-0.52476-1.04403-0.65123c-0.14906-0.04651-0.30249-0.05291-0.45764-0.0529
		C19.57585,1.00242,12.0743,1.00231,4.57275,1.00227c-0.06386,0-0.12778,0.00218-0.19154-0.00268
		c-0.31244,0.00615-0.62501-0.00259-0.9375,0.00718C3.41393,1.00501,3.38619,0.99575,3.35916,0.98417
		C2.9756,0.95462,2.59212,0.95331,2.2087,0.98603C2.12145,1.00384,2.03319,1.0024,1.94486,1.00015
		C1.79764,0.99106,1.65038,1.00528,1.50321,0.99968c-0.09487,0.00567-0.1902,0.00687-0.28478,0.00158
		c-0.12841-0.00718-0.18056,0.0445-0.1783,0.17358C1.0447,1.43667,1.04202,1.69865,1.04112,1.96057
		C1.0409,2.02343,1.04057,2.08634,1.02819,2.14844c-0.0551,0.30281-0.0035,0.60893-0.02911,0.91258
		c-0.00272,0.0323,0.04593,0.00799,0.04286,0.03983c0.0064,0.34265,0.00004,0.68512,0.00079,1.02759
		C1.04422,4.80342,1.04349,5.4784,1.0428,6.15338c-0.00009,0.08406,0.00728,0.169-0.01813,0.25151
		C1.01295,6.43592,0.99311,6.45884,0.95992,6.46823c-0.05187-0.047-0.03076-0.10902-0.03079-0.16452
		C0.92804,4.56613,0.92816,2.82854,0.92834,1.09095c0.00002-0.20029,0.00068-0.20082,0.20711-0.20082
		c8.69452-0.00009,17.38905,0.00008,26.08356-0.00119c0.18032-0.00003,0.34308,0.05985,0.50755,0.11799
		c0.04982,0.01761,0.09531,0.04761,0.15145,0.04151c0.28976,0.11572,0.53009,0.30673,0.75373,0.51429
		c0.61454,0.57034,1.06117,1.26535,1.4648,1.98972c0.41515,0.74506,0.71606,1.53513,0.93119,2.35828
		c0.10378,0.39709,0.05576,0.78755-0.04341,1.17835c-0.18073,0.71222-0.45151,1.39194-0.77121,2.05087
		c-0.16418,0.33837-0.33995,0.67565-0.57885,0.97291c-0.03704,0.09459-0.10953,0.16715-0.15989,0.25346
		c-0.01063,0.01058-0.02126,0.02115-0.03188,0.03173c-0.04259,0.0634-0.07897,0.13091-0.12777,0.1902l0.00008-0.00003
		c-0.28934,0.38288-0.62215,0.7249-0.99305,1.02989c-0.09693,0.07971-0.20723,0.14275-0.31619,0.20614
		c-0.02121,0.0106-0.04242,0.02121-0.06363,0.03181c-0.03605,0.03424-0.08711,0.03862-0.12793,0.06338L27.81408,11.9194z"/>
	<path fill="#3B556B" d="M28.00556,11.82424c0.33332-0.23921,0.64181-0.50603,0.92367-0.804
		c0.13285-0.14045,0.22966-0.31223,0.38557-0.43203c-0.03479,0.15408-0.16523,0.24127-0.25995,0.34989
		c-0.28427,0.32599-0.59215,0.62914-0.95792,0.86737C28.07275,11.82123,28.0363,11.81842,28.00556,11.82424z"/>
	<path fill="#3B556B" d="M29.47438,10.36631c0.01202-0.11014,0.09805-0.17428,0.15988-0.25346
		C29.62518,10.22482,29.56455,10.30474,29.47438,10.36631z"/>
	<path fill="#3B556B" d="M29.31472,10.58824c0.02043-0.07807,0.06009-0.1434,0.12777-0.1902
		C29.42948,10.48102,29.39131,10.54735,29.31472,10.58824z"/>
	<path fill="#3B556B" d="M27.814,11.91943c0.03246-0.04138,0.07712-0.05849,0.12793-0.06338
		C27.91753,11.91345,27.86875,11.92239,27.814,11.91943z"/>
	<path fill="#43505B" d="M0.95992,6.46823C0.96802,6.45763,0.97611,6.44702,0.9842,6.43641
		C1.06657,6.51179,1.0424,6.61218,1.04258,6.7037C1.04456,7.68273,1.044,8.66178,1.04349,9.64082
		c-0.00006,0.1211,0.00358,0.24204,0.00778,0.363c-0.0264,0.19885-0.00001,0.39862-0.0097,0.59776
		c-0.00352,0.0723,0.00941,0.14891-0.04922,0.2086c-0.06444-0.07781-0.01785-0.16958-0.03238-0.25366
		C0.95995,9.19375,0.95994,7.83099,0.95992,6.46823z"/>
	<path fill="#5E898C" d="M4.37642,0.95486c0.07447-0.00074,0.14895-0.00214,0.22342-0.00214
		c7.47026-0.0001,14.94052,0.00242,22.41078-0.00543c0.52883-0.00056,0.95952,0.19082,1.35226,0.50549
		c0.68559,0.54932,1.16312,1.26432,1.59231,2.01369c0.28109,0.49077,0.51483,1.00471,0.71084,1.53506
		c0.02728,0.07381,0.06425,0.14572,0.05153,0.22852c-0.02676,0.12308-0.05872,0.24493-0.0878,0.36746
		c-0.12864,0.54191-0.63755,0.73701-1.04819,0.80599c-0.02609,0.00438-0.05237-0.00471-0.07666-0.0164
		c-0.04744-0.0363-0.10372-0.05257-0.15978-0.06901c-0.39704-0.11643-0.731-0.33258-1.01885-0.62554
		c-0.35398-0.36027-0.73896-0.68157-1.1844-0.92853c-0.37572-0.20829-0.78606-0.318-1.19522-0.43264
		c-0.78466-0.21986-1.58283-0.37197-2.39488-0.44196c-0.3439-0.02964-0.69075-0.00619-1.03625-0.00791
		c-0.35087-0.00175-0.70189,0.00595-1.05259-0.00247C21.15335,3.87163,20.87361,3.7627,20.72347,3.487
		c-0.19641-0.36069-0.49088-0.52753-0.88582-0.54756c-0.39828-0.02021-0.79707-0.00904-1.19565-0.00515
		c-0.02708,0.00026-0.05173,0.01093-0.07494,0.02417c-0.10059,0.05252-0.13258-0.07663-0.21297-0.07907
		c-1.58879-0.82058-3.17158-0.80079-4.74892,0.03192c-0.03564,0.01418-0.07304,0.0173-0.11083,0.01864
		c-0.37727,0.00952-0.75454,0.00423-1.13177,0.00409c-0.31109-0.00012-0.58343-0.10832-0.76021-0.36248
		c-0.26458-0.38039-0.60338-0.50904-1.07154-0.5024C8.7936,2.0938,7.05582,2.0787,5.31826,2.07949
		C5.1629,2.07957,5.01204,2.06675,4.86539,2.00801C4.56387,1.88725,4.39969,1.65405,4.30769,1.358
		C4.29957,1.30327,4.29835,1.24815,4.30155,1.19297c0.00062-0.03485,0.00151-0.0698,0.0084-0.10419
		C4.31965,1.03816,4.33918,0.99215,4.37642,0.95486z"/>
	<path fill="#8AABB6" d="M1.01704,10.02057C0.97366,9.86541,0.99168,9.7064,0.9913,9.54928
		C0.98893,8.57476,0.99021,7.60024,0.98985,6.62572c-0.00002-0.0631-0.00364-0.1262-0.00562-0.18931
		c0.00219-1.03183,0.00498-2.06366,0.0056-3.09548c0.00005-0.09003,0.0072-0.17766,0.03113-0.26415
		C1.0123,3.06297,1.00907,3.0481,1.01186,3.03197c0.10937-0.23972,0.23185-0.46786,0.50786-0.55902
		c0.11989-0.01148,0.20582,0.0515,0.28592,0.12786C1.97119,2.74155,2.00031,2.9287,2.0001,3.13165
		C1.99834,4.85354,1.99905,6.57544,1.99903,8.29733c0,0.20835,0.01971,0.41348,0.134,0.59492
		c0.19559,0.3105,0.49008,0.44093,0.84969,0.44226c0.55875,0.00207,1.11751-0.00013,1.67626,0.00087
		c0.46445,0.00084,0.67823,0.17023,0.79362,0.6164c0.09049,0.34989,0.32467,0.55925,0.67144,0.65036
		c0.12457,0.03273,0.25257,0.03278,0.38058,0.03275c2.08602-0.00041,4.17203-0.00031,6.25805-0.00024
		c0.07449,0,0.14909-0.00232,0.22343,0.0032c0.34442,0.02559,0.60566,0.28252,0.63198,0.62426
		c0.00811,0.10526,0.00627,0.2111,0.00077,0.31655c-0.00093,0.05455,0.00182,0.10931-0.0023,0.16386
		c-0.00055,0.03449,0.00089,0.06912-0.00146,0.10361c-0.00047,0.03372-0.0006,0.06754-0.00686,0.10093
		c-0.00537,0.02545-0.01883,0.04633-0.03742,0.06426c-0.05844,0.00115-0.11687,0.0033-0.17531,0.0033
		c-3.43945,0.00016-6.8789,0.00013-10.31835,0.00019c-0.07937,0-0.15964,0.00748-0.23387-0.03073
		c-0.13663-0.00431-0.21979-0.09852-0.29806-0.18835c-0.16112-0.18493-0.24309-0.40372-0.25387-0.64924
		c-0.0103-0.2345-0.06067-0.29309-0.29537-0.29329c-0.49393-0.00043-0.74231-0.32489-0.95768-0.69605
		C1.01617,10.11902,1.00018,10.0697,1.01704,10.02057z"/>
	<path fill="#628B8E" d="M30.65797,7.82908c-0.06211,0.30755-0.20457,0.58604-0.32999,0.86921
		c-0.31272,0.70604-0.69428,1.37443-1.17425,1.98267c-0.33514,0.42469-0.71457,0.80598-1.18143,1.09265
		c-0.38468,0.23621-0.80886,0.26476-1.24414,0.23862c-0.0351-0.04268-0.01209-0.08321,0.01309-0.11523
		c0.09247-0.11754,0.15381-0.25211,0.22301-0.38269c0.09691-0.18288,0.25443-0.31415,0.44754-0.35905
		c0.65019-0.1512,1.08455-0.58662,1.46959-1.07978C29.2959,9.5446,29.63686,8.968,29.89843,8.34515
		c0.13298-0.31665,0.26703-0.63232,0.38067-0.95635c0.02295-0.06544,0.04773-0.13147,0.13218-0.14162
		C30.57996,7.34145,30.68752,7.59533,30.65797,7.82908z"/>
	<path fill="#649093" d="M30.40255,7.25522c-0.1306,0.14845-0.14573,0.34599-0.21943,0.51852
		c-0.16119,0.37735-0.30003,0.76486-0.49804,1.12535c-0.37119,0.67576-0.78189,1.3235-1.36927,1.84245
		c-0.22737,0.20089-0.48975,0.33052-0.77957,0.40993c-0.2943,0.08064-0.51041,0.24596-0.61326,0.5394
		c-0.04232,0.12075-0.16554,0.19299-0.19482,0.32138c-0.70703,0.00082-1.41406,0.00234-2.12109,0.00239
		c-3.60967,0.00025-7.21934,0.00013-10.82901-0.00003c-0.06907,0-0.13815-0.00212-0.20723-0.00326
		c0.00127-0.02005,0.00254-0.04008,0.00382-0.06012c0.07772-0.06542,0.1718-0.04579,0.26033-0.04583
		c2.19685-0.00097,4.39371-0.00075,6.59056-0.00075c1.80323,0,3.60646-0.00004,5.40969,0.00009
		c0.12762,0.00001,0.25514,0.00489,0.38269,0.00831c0.26144,0.00701,0.47966-0.06625,0.59637-0.3297
		c0.09752-0.22012,0.26575-0.37973,0.47931-0.49133c0.09929-0.05189,0.20991-0.07922,0.31591-0.1076
		c0.34074-0.09122,0.58471-0.32033,0.82144-0.55401c0.46033-0.45439,0.80369-0.9944,1.10496-1.56073
		c0.26583-0.49971,0.48824-1.01855,0.65799-1.55873c0.01605-0.05106,0.03667-0.09904,0.07708-0.13629
		C30.35665,7.13402,30.39258,7.17374,30.40255,7.25522z"/>
	<path fill="#2D4961" d="M30.40255,7.25522c-0.03156-0.03192-0.06313-0.06384-0.09469-0.09577
		c-0.05245-0.00072-0.07843-0.0449-0.11654-0.0693c-0.02256-0.01529-0.04641-0.02845-0.06963-0.04282
		c-0.05435-0.04049-0.11664-0.06202-0.18237-0.07621c-0.16165-0.07378-0.3313-0.10553-0.50853-0.11847
		c-0.14985-0.01093-0.24007-0.15162-0.20905-0.29628c0.03166-0.14768,0.14176-0.22059,0.28376-0.18791
		c0.57643-0.07079,1.03871-0.32463,1.12168-0.94658c0.00927-0.06947,0.01194-0.15058,0.0904-0.19181
		c0.09856,0.2356,0.20583,0.46895,0.19491,0.73325c0.03398,0.12788-0.04926,0.21469-0.11617,0.30195
		c-0.06271,0.08179-0.14046,0.15233-0.22095,0.2183C30.55428,6.49925,30.53091,6.5116,30.5091,6.5263
		c-0.12621,0.08509-0.12499,0.08846-0.00344,0.18148c0.10833,0.0829,0.22121,0.16163,0.29562,0.28045
		c0.02764,0.04413,0.06643,0.08345,0.04751,0.14241c-0.00686,0.24811-0.09506,0.47432-0.19084,0.69846
		C30.6147,7.61943,30.57624,7.40767,30.40255,7.25522z"/>
	<path fill="#2D4961" d="M1.50387,2.50676C1.25491,2.61297,1.15222,2.84388,1.02812,3.05653
		C0.97715,3.01149,0.99341,2.95073,0.99308,2.8957C0.99182,2.68818,0.9904,2.48064,0.99368,2.2734
		c0.07262-0.19482,0.2584-0.24459,0.42148-0.32352C1.45823,1.93602,1.50378,1.93175,1.547,1.91803
		c0.0137-0.00476,0.02779-0.00827,0.04196-0.01125c0.04858-0.0089,0.09935-0.00911,0.1434-0.03596
		c0.06192-0.0361,0.0701-0.09899,0.08551-0.16019C1.86248,1.53345,1.91002,1.35699,2.01345,1.2018
		c0.03648-0.05137,0.07146-0.10387,0.11596-0.14925c0.058-0.05035,0.1077-0.11474,0.19582-0.11458
		C2.67924,0.94798,3.03362,0.91823,3.387,0.95373c0.01052,0.01025,0.02105,0.02051,0.03157,0.03076
		c-0.04006,0.14622-0.17592,0.0815-0.26521,0.11919C3.07153,1.1217,2.99514,1.15279,2.92542,1.1995
		c-0.07,0.04454-0.14145,0.08696-0.20389,0.1423C2.45791,1.5387,2.33618,1.79906,2.33685,2.12777
		C2.33723,2.3097,2.23719,2.38941,2.03037,2.41972c-0.06102,0.0017-0.1227-0.00639-0.18276,0.01139
		c-0.01436,0.00457-0.02905,0.00779-0.0438,0.0107C1.70287,2.459,1.60225,2.47775,1.50387,2.50676z"/>
	<path fill="#2D4961" d="M1.01704,10.02057c0.09002,0.23655,0.25063,0.42373,0.42572,0.60101
		c0.15388,0.1558,0.354,0.17648,0.55642,0.18549c0.26872,0.01195,0.32625,0.06526,0.33495,0.32559
		c0.01259,0.37648,0.17955,0.66182,0.50915,0.85143c-0.24325,0.05048-0.48636,0.04903-0.72934-0.00195
		c-0.15384-0.06963-0.21136-0.21437-0.22723-0.35677c-0.02671-0.23973-0.1442-0.34795-0.38075-0.37209
		c-0.14262-0.01455-0.27007-0.09284-0.38813-0.17526c-0.04908-0.03427-0.11496-0.06376-0.09276-0.14533
		c-0.02458-0.03724-0.03723-0.07762-0.03273-0.12252C1.00734,10.54718,0.96004,10.28227,1.01704,10.02057z"/>
	<path fill="#8AABB6" d="M1.02508,10.93269c0.16308,0.20408,0.39915,0.27192,0.63883,0.31545
		c0.14025,0.02547,0.21171,0.07541,0.22514,0.22197c0.01763,0.19231,0.0958,0.36475,0.22489,0.51203
		c-0.05662,0.06034-0.13002,0.03018-0.1951,0.03107c-0.27024,0.00371-0.54057,0.00136-0.81086,0.00163
		c-0.06027,0.00006-0.11807,0.00388-0.1174-0.08461c0.00239-0.31559,0.00131-0.6312,0.00372-0.94679
		C0.99442,10.96645,1.01436,10.9496,1.02508,10.93269z"/>
	<path fill="#628B8F" d="M1.44176,1.96893C1.29155,2.03276,1.16343,2.13309,1.02548,2.21719
		C1.0003,2.20384,0.9942,2.18107,0.99443,2.15518C0.99338,1.79916,0.99518,1.4431,0.98944,1.08716
		C0.98782,0.98639,1.0176,0.94449,1.1235,0.95096c0.12615,0.00771,0.25307,0.00299,0.37966,0.00365
		c0.03599,0.04365,0.02406,0.08895,0.00241,0.1329C1.36497,1.37293,1.42342,1.67232,1.44176,1.96893z"/>
	<path fill="#618A8E" d="M30.84879,7.13064c-0.0869-0.17281-0.22568-0.29876-0.38272-0.40494
		c-0.16218-0.10966-0.16472-0.10674,0.00586-0.21847c0.02565-0.0168,0.0551-0.0279,0.08278-0.04164
		c0.12202-0.05839,0.24534-0.01888,0.36537,0.00295c0.0938,0.01706,0.0776,0.0921,0.05583,0.15969
		C30.96182,6.80275,30.96328,6.98115,30.84879,7.13064z"/>
	<path fill="#679397" d="M2.26815,0.954c-0.02397,0.05733-0.06958,0.0949-0.1193,0.12871
		C2.09101,1.1114,2.02971,1.12237,1.9652,1.12754C1.72327,1.14696,1.61953,1.25993,1.61343,1.50515
		C1.61121,1.59459,1.61326,1.68407,1.61188,1.77352c-0.0009,0.05824-0.0024,0.11638-0.04439,0.16367l0.00084-0.00004
		C1.47615,1.97706,1.43524,1.92855,1.43269,1.84724c-0.00539-0.17213-0.02908-0.3448,0.0076-0.51669
		C1.49376,1.07987,1.57117,1.00908,1.82666,0.9744C1.86753,0.96885,1.9121,0.98184,1.94955,0.95474
		c0.08618-0.00193,0.17235-0.00387,0.25853-0.0058C2.2293,0.93656,2.2496,0.93507,2.26815,0.954z"/>
	<path fill="#679396" d="M3.12909,1.07921c0.08488-0.06654,0.21708,0.0094,0.28948-0.09472
		c0.11999-0.061,0.24865-0.02688,0.37312-0.03029c0.19475-0.00534,0.3898-0.00012,0.58472,0.00064
		C4.38182,1.00064,4.3661,1.04116,4.34474,1.08028C4.29813,1.123,4.24049,1.12725,4.18124,1.12731
		C3.88452,1.12759,3.5878,1.12792,3.29109,1.12703C3.23268,1.12686,3.17341,1.12739,3.12909,1.07921z"/>
	<path fill="#649093" d="M1.94955,0.95474c-0.07783,0.049-0.17433,0.03845-0.25288,0.07152
		C1.60703,1.064,1.5326,1.13384,1.50241,1.23922C1.44491,1.44,1.47854,1.64398,1.47078,1.84647
		C1.46806,1.91733,1.5057,1.93884,1.56832,1.93715C1.5337,1.9775,1.48572,1.96536,1.44174,1.96891
		C1.39959,1.96285,1.37573,1.94068,1.3759,1.89642c0.00077-0.20349-0.00186-0.40707,0.00319-0.61045
		C1.38212,1.16336,1.49607,1.07795,1.50317,0.9546C1.65196,0.95465,1.80076,0.9547,1.94955,0.95474z"/>
	<path fill="#5D898C" d="M30.97592,6.62824c0.0097-0.09091-0.0216-0.13296-0.12343-0.13126
		c-0.09902,0.00164-0.19843-0.01995-0.29772-0.03136c0.14278-0.15091,0.30821-0.28594,0.3577-0.5023
		c0.10251,0.04729,0.05987,0.14869,0.07494,0.22295C31.0169,6.33163,31.03626,6.48256,30.97592,6.62824z"/>
	<path fill="#414F5A" d="M0.99443,2.15518C1.01906,2.16884,1.0241,2.19214,1.02547,2.21723
		c0.00088,0.2797,0.00175,0.55944,0.00263,0.83924c0.00069,0.00787-0.00169,0.01463-0.00713,0.02032
		C0.99748,3.08131,0.96154,3.10132,0.96216,3.05786c0.00417-0.29324-0.01829-0.58685,0.01172-0.87965
		C0.97473,2.16993,0.98732,2.16283,0.99443,2.15518z"/>
	<path fill="#424F5A" d="M2.26815,0.954c-0.02004-0.00166-0.04009-0.00333-0.0601-0.00502
		c0.06637-0.0521,0.14378-0.0248,0.21557-0.02575c0.27126-0.00358,0.54259-0.00226,0.81389-0.00071
		c0.051,0.00029,0.10791-0.01747,0.14949,0.03121C3.01405,0.95382,2.6411,0.95391,2.26815,0.954z"/>
	<path fill="#72A2A6" d="M2.01256,2.3838c0.22605-0.02597,0.29198-0.08635,0.28807-0.30599
		C2.29459,1.73943,2.4375,1.4866,2.71618,1.30195c0.49853-0.03922,0.99777-0.01197,1.49668-0.01526
		c0.04875-0.00032,0.09453,0.0135,0.13212,0.04703c0.16037,0.4847,0.4502,0.69729,0.95086,0.69729
		c1.84427,0.00002,3.68855,0.00362,5.53279-0.00369c0.29302-0.00116,0.4916,0.13222,0.66233,0.34046
		c0.1331,0.16234,0.25227,0.33657,0.45587,0.42727c0.128,0.05702,0.25674,0.0932,0.39784,0.09243
		c0.38798-0.0021,0.77597-0.00061,1.16396-0.00054c0.01923,0.06948-0.04048,0.08935-0.07985,0.11694
		c-0.1155,0.08093-0.22618,0.1679-0.33673,0.25508c-0.05634,0.03238-0.09815,0.08272-0.14979,0.12096
		c-0.05871,0.03947-0.12217,0.0748-0.13281,0.15521c-0.16934,0.18194-0.36006,0.34168-0.52095,0.53325
		c-0.51688,0.61545-0.7961,1.327-0.9076,2.1131c-0.10087,0.71113,0.06526,1.35741,0.49691,1.92596
		c0.31467,0.41447,0.72079,0.73055,1.20108,0.94558c0.20852,0.09336,0.41485,0.19296,0.63704,0.25154
		c0.11161,0.02943,0.16156,0.10229,0.15202,0.20969c-0.05139,0.57851,0.60171,0.97574,1.15421,0.75206
		c0.08588-0.03477,0.16173-0.02256,0.24421,0.01677c0.29417,0.14029,0.59195,0.15685,0.89037,0.00848
		c0.05747-0.02858,0.11586-0.05323,0.18313-0.02873c0.44415,0.16171,0.8004,0.02928,1.0902-0.32276
		c0.18167-0.14905,0.34369-0.30887,0.31784-0.57185c0.01899-0.04595,0.06363-0.05218,0.10342-0.06401
		c0.68674-0.20405,1.27474-0.56266,1.74926-1.09934c0.01049-0.01186,0.02361-0.02104,0.03715-0.02902
		c0.08294-0.01273,0.11279-0.08659,0.16097-0.13934c0.02323-0.03434,0.0501-0.06571,0.07815-0.09609
		c0.04688-0.04944,0.08087-0.10794,0.11673-0.16519c0.00712-0.01205,0.01544-0.02316,0.02422-0.03401
		c0.05641-0.0565,0.09106-0.1261,0.12135-0.19851c0.21772-0.43234,0.36004-0.88775,0.31527-1.37262
		c-0.07103-0.7693-0.31035-1.48374-0.77379-2.11695c-0.27847-0.38049-0.61717-0.69564-0.99869-0.96952
		c-0.05081-0.03647-0.11279-0.06319-0.12816-0.13352c-0.02096-0.04951-0.0022-0.06528,0.04899-0.06393
		c0.48794,0.01284,0.9788-0.03939,1.46329,0.03813c0.27767,0.04443,0.5018,0.19032,0.63454,0.45213
		c0.15627,0.30821,0.42236,0.45182,0.75921,0.45885c0.43603,0.00911,0.87266,0.01184,1.30856,0.00024
		c0.91792-0.02442,1.81493,0.10998,2.70126,0.33056c0.47218,0.11751,0.946,0.22918,1.39754,0.41809
		c0.38605,0.16151,0.7264,0.39034,1.0387,0.66182c0.25919,0.22531,0.50449,0.46642,0.76468,0.69053
		c0.22523,0.19399,0.50681,0.28174,0.78547,0.36931c0.03652,0.01148,0.07978,0.00467,0.04943,0.06266
		c-0.2066,0.02549-0.30974,0.18572-0.22295,0.34594c0.03475,0.06415,0.08111,0.10608,0.16153,0.10205
		c0.19289-0.00966,0.37262,0.03775,0.54074,0.13075c0.04086,0.05613,0.0148,0.1126-0.00325,0.16623
		c-0.34943,1.03844-0.81078,2.01967-1.50615,2.87962c-0.30554,0.37785-0.66395,0.67892-1.15259,0.80536
		c-0.31873,0.08247-0.55513,0.28521-0.71106,0.57277c-0.10719,0.19769-0.26267,0.28109-0.4915,0.2809
		c-4.10606-0.00339-8.21211-0.00241-12.31817-0.00302c-0.07868-0.00001-0.16114,0.01125-0.22853-0.0465
		c-0.00197-0.13711,0.01323-0.27708-0.00937-0.41075c-0.05208-0.30794-0.31256-0.50834-0.63726-0.50839
		c-2.18027-0.00032-4.36055-0.00356-6.54081,0.00252c-0.47063,0.00131-0.93796-0.32945-0.99797-0.79316
		C5.34741,9.57804,5.07652,9.38435,4.75311,9.38403C4.14689,9.38344,3.54066,9.38508,2.93445,9.38345
		C2.49498,9.38226,2.11954,9.11829,2.00375,8.72818c-0.03427-0.11546-0.05493-0.23378-0.05481-0.3565
		c0.0016-1.73652-0.00137-3.47305,0.00421-5.20956c0.00069-0.21636-0.03287-0.40674-0.19461-0.56068
		c0.00135-0.07036,0.01756-0.13601,0.06206-0.19268L1.82046,2.40978C1.88105,2.37608,1.95163,2.41506,2.01256,2.3838z"/>
	<path fill="#5F797B" d="M18.55381,2.95011c0.62898,0.40047,1.13075,0.92053,1.47461,1.58039
		c0.24049,0.46148,0.37701,0.95539,0.44804,1.47229c0.07571,0.55096-0.05404,1.05351-0.29414,1.53994
		c-0.00664,0.01346-0.02083,0.02324-0.0315,0.03474c-0.04259,0.06342-0.07972,0.13044-0.1275,0.19044l0.00006-0.00005
		c-0.03607,0.04719-0.06575,0.04815-0.08717-0.01178C19.92916,7.68375,19.96533,7.62252,19.992,7.5603
		c0.23794-0.55524,0.25472-1.12256,0.12213-1.70646c-0.29395-1.29451-1.05141-2.22602-2.2246-2.83923
		c-0.12604-0.06588-0.12601-0.06594-0.10705-0.15339c0.20352-0.04955,0.40775-0.01016,0.61164-0.0059
		C18.45791,2.86938,18.47135,2.96702,18.55381,2.95011z"/>
	<path fill="#5A7374" d="M18.39412,2.85532c-0.14365,0.06629-0.29555,0.01747-0.44307,0.03061
		c-0.06721,0.00599-0.13521,0.0032-0.20285,0.00439c-0.07187,0.03826-0.13446-0.00214-0.1974-0.02559
		c-1.0844-0.40409-2.18256-0.41853-3.28917-0.10642c-0.27066,0.07634-0.52446,0.20266-0.78662,0.30439
		c-0.07131-0.00448-0.08903-0.03513-0.03152-0.08237c0.04754-0.03905,0.10123-0.07232,0.16065-0.09357
		c0.19653-0.16758,0.43842-0.25059,0.67267-0.34279c0.70324-0.27678,1.44146-0.33528,2.18558-0.28522
		c0.60507,0.04071,1.18748,0.19593,1.72867,0.47979C18.26017,2.77479,18.3265,2.81627,18.39412,2.85532z"/>
	<path fill="#6E9DA1" d="M4.34497,1.33372c-0.47614,0.00001-0.95228,0-1.42842,0.00007
		C2.84802,1.3338,2.77841,1.34086,2.71618,1.30195c0.05534-0.0543,0.11837-0.09729,0.19021-0.12731
		c0.09486-0.03561,0.19288-0.04786,0.29425-0.04728c0.31649,0.00183,0.633,0.00044,0.9495,0.00081
		c0.06853,0.00008,0.13841-0.00452,0.19424,0.04731C4.34458,1.22823,4.34478,1.28097,4.34497,1.33372z"/>
	<path fill="#6A989C" d="M4.34438,1.17548C3.86506,1.1752,3.38573,1.17492,2.9064,1.17464
		c0.06409-0.05515,0.13623-0.09179,0.22271-0.09542c0.4052,0.00035,0.81041,0.0007,1.21563,0.00106
		C4.34462,1.11201,4.3445,1.14375,4.34438,1.17548z"/>
	<path fill="#698789" d="M13.60415,2.88676c-0.03651,0.06722-0.15551,0.05772-0.15257,0.16162
		c-0.07746,0.13916-0.21606,0.18756-0.35495,0.2357c-0.02475-0.00692-0.04338-0.01823-0.03472-0.04866
		c0.14891-0.11616,0.29782-0.23233,0.44673-0.34849C13.54047,2.88688,13.57231,2.88682,13.60415,2.88676z"/>
	<path fill="#6E9DA1" d="M13.57357,11.60259c4.18752-0.00007,8.37504-0.00139,12.56255,0.00336
		c0.21721,0.00025,0.34594-0.08214,0.43969-0.26723c0.13128-0.2592,0.33581-0.47576,0.61448-0.54188
		c0.78852-0.18707,1.24169-0.75583,1.64758-1.37457c0.50342-0.76743,0.87939-1.59764,1.14696-2.47505
		c0.06837,0.00286,0.12062,0.03562,0.16304,0.08662c0.02487,0.05919,0.00213,0.11335-0.01659,0.16865
		c-0.34959,1.03246-0.81802,2.00379-1.49935,2.86497c-0.32856,0.41529-0.71655,0.74646-1.24759,0.88547
		c-0.29298,0.07669-0.50452,0.26726-0.64109,0.53307c-0.11688,0.22749-0.29335,0.32398-0.55216,0.32376
		c-4.1295-0.00342-8.259-0.00237-12.38851-0.00288c-0.07872-0.00001-0.16125,0.0124-0.22871-0.04578
		C13.57377,11.70826,13.57367,11.65543,13.57357,11.60259z"/>
	<path fill="#679397" d="M30.20852,7.0712c0.04393,0.01744,0.07421,0.05001,0.0993,0.08829
		c-0.11185,0.24196-0.1836,0.49915-0.28,0.74714c-0.1511,0.38872-0.32796,0.7639-0.5261,1.12832
		c-0.21584,0.39701-0.46068,0.77966-0.756,1.12399c-0.23904,0.2787-0.49527,0.54335-0.81211,0.74148
		c-0.14549,0.09098-0.31059,0.13933-0.46917,0.18213c-0.26169,0.07063-0.44408,0.22549-0.56687,0.44492
		c-0.21954,0.39234-0.31879,0.45718-0.764,0.4242c-0.03175-0.00235-0.06381-0.00064-0.09572-0.00064
		c-4.15442,0.00006-8.30883,0.00013-12.46323,0.0002c-0.00014-0.03167-0.00029-0.06335-0.00044-0.09503
		c0.07773-0.06538,0.17179-0.04592,0.26038-0.04596c2.27701-0.00094,4.55403-0.00071,6.83105-0.00074
		c1.84076-0.00002,3.68154-0.00301,5.52228,0.0034c0.266,0.00093,0.43855-0.0923,0.55805-0.3295
		c0.12455-0.24723,0.31604-0.44503,0.59541-0.51455c0.62091-0.15449,1.03818-0.56806,1.40749-1.05091
		c0.30976-0.40499,0.55938-0.8447,0.78928-1.29785c0.23455-0.46232,0.43512-0.93748,0.59884-1.42854
		C30.15167,7.1474,30.1647,7.09955,30.20852,7.0712z"/>
	<path fill="#6B989C" d="M30.20852,7.0712c-0.07896,0.35092-0.22425,0.67854-0.36779,1.00573
		c-0.11763,0.26813-0.24568,0.53232-0.3812,0.79204c-0.25147,0.48194-0.54071,0.93986-0.90405,1.34888
		c-0.16834,0.1895-0.34641,0.36726-0.55492,0.51356c-0.19737,0.13848-0.42676,0.20297-0.6517,0.27584
		c-0.26856,0.087-0.45667,0.2693-0.57286,0.51095c-0.11908,0.24767-0.29895,0.34017-0.56654,0.33997
		c-4.21177-0.0031-8.42353-0.00206-12.63529-0.00197c-0.0001-0.0317-0.00021-0.06341-0.00031-0.09511
		c4.20755-0.00008,8.41508-0.00158,12.62261,0.00329c0.25212,0.00029,0.40675-0.09678,0.51545-0.31412
		c0.11963-0.23917,0.30418-0.44051,0.56491-0.50474c0.71678-0.17658,1.17336-0.66564,1.5681-1.23286
		c0.54953-0.78964,0.95577-1.65051,1.2583-2.5607c0.01326-0.03989,0.02966-0.07874,0.04462-0.11811
		C30.16808,7.0463,30.1883,7.05875,30.20852,7.0712z"/>
	<path fill="#2D4961" d="M3.07613,9.73293c0.23894-0.00406,0.43851,0.19085,0.43821,0.42797
		c-0.00029,0.23118-0.19046,0.42295-0.42331,0.42689c-0.23914,0.00405-0.43851-0.19065-0.43822-0.42795
		C2.65309,9.92884,2.84343,9.73689,3.07613,9.73293z"/>
	<path fill="#6E9CA1" d="M1.82059,2.40875c0.00558,0.07256,0.00045,0.14173-0.06206,0.19268
		C1.68152,2.54898,1.60634,2.4917,1.50387,2.50676C1.6007,2.44624,1.70251,2.40158,1.82059,2.40875z"/>
	<path fill="#6E9DA1" d="M2.04482,1.20572C1.95429,1.38747,1.88066,1.57434,1.84646,1.77613
		c-0.01005,0.05929-0.0113,0.14531-0.11585,0.13019C1.64063,1.93968,1.62812,1.87064,1.62298,1.81543
		c-0.0127-0.13647-0.01929-0.27462,0.00469-0.41022c0.02362-0.1335,0.14049-0.24728,0.26536-0.26328
		C1.9519,1.13439,2.02399,1.11547,2.04482,1.20572z"/>
	<path fill="#6A979B" d="M2.04482,1.20572C1.87828,1.14793,1.71343,1.21755,1.67646,1.38191
		C1.64099,1.53961,1.66025,1.70386,1.6697,1.86512C1.67133,1.89295,1.70426,1.90086,1.73058,1.9063
		c-0.04797,0.04353-0.10769,0.02598-0.1631,0.03088C1.56729,1.78483,1.56422,1.63241,1.56754,1.48013
		c0.00559-0.25632,0.1467-0.39361,0.40657-0.39957c0.05816-0.00134,0.11641,0.00131,0.17467,0.00214
		C2.11417,1.12371,2.07949,1.16472,2.04482,1.20572z"/>
	<path fill="#6E9CA1" d="M2.01256,2.3838C1.95424,2.43407,1.88484,2.40357,1.82046,2.40978
		C1.87905,2.36152,1.94749,2.38492,2.01256,2.3838z"/>
	<path fill="#FEFEFE" d="M13.1003,3.27054c0.11708-0.07406,0.23417-0.14811,0.35126-0.22217
		c0.97538-0.50809,2.01115-0.64127,3.09318-0.49431c0.41732,0.05668,0.81226,0.18912,1.20346,0.33625
		c0.51781,0.25456,0.98354,0.57913,1.38213,0.99752c0.56375,0.59175,0.89044,1.29672,1.05145,2.0898
		c0.12651,0.62317,0.04017,1.21266-0.22671,1.78302c-0.00597,0.06391-0.03403,0.11868-0.07099,0.16981
		c-0.02433,0.03338-0.04747,0.06764-0.07265,0.10044c-0.04414,0.05181-0.07316,0.11787-0.1409,0.14748
		c-0.50131,0.59896-1.14384,0.97533-1.89308,1.18378c-0.00951,0.00265-0.01718,0.01182-0.02571,0.01795
		c-0.11394,0.06533-0.16167,0.16703-0.16723,0.29384c-0.00472,0.10774-0.04465,0.20178-0.12077,0.27981
		c-0.23307,0.33622-0.66169,0.54526-1.14482,0.33767c-0.04968-0.02135-0.08119-0.00057-0.11727,0.01929
		c-0.33038,0.18191-0.65965,0.17155-0.98494-0.01015c-0.05836-0.0326-0.10114-0.03018-0.16117-0.00281
		c-0.52609,0.23993-1.26894-0.11475-1.2233-0.77108c0.00828-0.11906-0.04011-0.1576-0.1497-0.19261
		c-0.77569-0.24779-1.4584-0.63685-1.92562-1.32475c-0.4369-0.64326-0.52653-1.34873-0.37509-2.10168
		c0.19097-0.94945,0.6375-1.74512,1.38788-2.36867c0.01591-0.01322,0.02771-0.0313,0.04143-0.04711
		c0.01819-0.05866,0.06753-0.08485,0.11709-0.11084C12.98116,3.33741,13.02714,3.28309,13.1003,3.27054z"/>
	<path fill="#2D4961" d="M27.8278,6.15145c0.23964-0.00118,0.43604,0.19548,0.43283,0.4334
		c-0.00312,0.23171-0.19505,0.42058-0.42856,0.42172c-0.23972,0.00118-0.43598-0.19531-0.43283-0.43333
		C27.40231,6.34159,27.59434,6.1526,27.8278,6.15145z"/>
	<path fill="#2D4961" d="M3.07626,3.48854C2.83683,3.48461,2.64472,3.2837,2.65303,3.0459
		c0.00807-0.23116,0.20457-0.4162,0.43787-0.41233C3.3303,2.63754,3.52247,2.83856,3.51411,3.07629
		C3.50599,3.3075,3.30964,3.49237,3.07626,3.48854z"/>
	<path fill="#627D7F" d="M17.46375,9.95376c0.05658-0.14299,0.09539-0.28952,0.09351-0.44478
		c-0.00171-0.1407,0.11835-0.10262,0.19448-0.12887c0.09942,0.0605,0.0321,0.14007,0.01164,0.20106
		C17.71045,9.73892,17.60784,9.86458,17.46375,9.95376z"/>
	<path fill="#698486" d="M19.86025,7.92009c0.01887-0.06061,0.05032-0.11384,0.09483-0.15943
		c0.01885,0.03903,0.04471,0.0125,0.06831,0.0072c-0.02094,0.07776-0.06134,0.14261-0.12801,0.19001
		C19.86427,7.96304,19.84561,7.95681,19.86025,7.92009z"/>
	<path fill="#6D9092" d="M19.67054,8.17838c0.0415-0.05521,0.08301-0.11041,0.12451-0.16562
		c0.02119,0.00519,0.02485,0.02603,0.03623,0.03998C19.7841,8.10269,19.76309,8.18562,19.67054,8.17838z"/>
	<path fill="#6F9092" d="M13.1003,3.27054c-0.04778,0.0507-0.10396,0.08988-0.16678,0.11998
		c-0.00811-0.00641-0.01069-0.01266-0.00777-0.01878c0.00288-0.00603,0.00572-0.00906,0.00853-0.00906
		c0.02955-0.05526,0.07303-0.09675,0.12763-0.12727C13.07471,3.24713,13.0875,3.25884,13.1003,3.27054z"/>
	<path fill="#698486" d="M20.02332,7.76791c0.01952-0.07863,0.05963-0.14369,0.1275-0.19044
		C20.13747,7.66018,20.099,7.72632,20.02332,7.76791z"/>
	<path fill="#6C9396" d="M12.93428,3.36269c-0.00008,0.00928-0.00034,0.01856-0.00076,0.02784
		c-0.04079,0.03377-0.08158,0.06755-0.12237,0.10133C12.79906,3.39891,12.86758,3.38165,12.93428,3.36269z"/>
	<path fill="#6A888A" d="M19.83127,8.05274c-0.01207-0.01332-0.02415-0.02665-0.03622-0.03998
		c0.02173-0.03089,0.04347-0.06178,0.0652-0.09267c0.0117,0.01259,0.02341,0.02518,0.03512,0.03778
		C19.87401,7.98949,19.85264,8.02112,19.83127,8.05274z"/>
	<path fill="#72A2A6" d="M13.05906,5.16552c0.43202-0.46825,1.12628-0.4686,1.6003-0.02742
		c0.59085,0.54992,0.58506,1.61649,0.00083,2.15494c-1.03661,0.45794-1.75974-0.44007-1.80073-1.22737
		C12.84285,5.74692,12.9148,5.44859,13.05906,5.16552z"/>
	<path fill="#72A2A6" d="M16.82454,5.10125c0.3663-0.35814,0.97602-0.39212,1.39816-0.0779
		c0.66737,0.49674,0.75974,1.59927,0.18496,2.2077c-0.05782,0.0166-0.09982,0.05836-0.14736,0.09146
		c-0.39725,0.17748-0.8887,0.07769-1.21385-0.20864c-0.51839-0.45651-0.58321-1.2314-0.38625-1.73086
		C16.7062,5.28426,16.77449,5.19801,16.82454,5.10125z"/>
	<path fill="#5F797B" d="M13.05906,5.16552c0.06231,0.05451,0.00034,0.09654-0.01875,0.13754
		c-0.2732,0.58687-0.15106,1.29936,0.3086,1.74946c0.31831,0.31169,0.69644,0.39069,1.12302,0.26797
		c0.06019-0.01732,0.11637-0.08281,0.18825-0.02744c-0.42747,0.43628-1.10407,0.45172-1.54477,0.03524
		C12.50997,6.75612,12.4835,5.73997,13.05906,5.16552z"/>
	<path fill="#5F797B" d="M16.70227,5.35909c-0.12811,0.39126-0.15326,0.7865-0.00146,1.1741
		c0.19437,0.49633,0.55258,0.80525,1.10131,0.84484c0.15409,0.01112,0.31423-0.03104,0.4641-0.08633
		c0.02648-0.01834,0.05214-0.01968,0.07661,0.00362c-0.36811,0.39819-0.99918,0.44592-1.44414,0.10922
		c-0.65378-0.49472-0.7522-1.56464-0.20004-2.1745C16.78792,5.27062,16.69754,5.31617,16.70227,5.35909z"/>
	<path fill="#72A2A6" d="M15.54828,7.82649c0.10456-0.10833,0.22757-0.12849,0.35664-0.05623
		c0.19965,0.11177,0.36838,0.52323,0.31843,0.75756c-0.20428,0.0918-0.5077,0.04706-0.65202-0.10685
		c-0.1367-0.14578-0.10812-0.32083-0.06407-0.49309C15.51613,7.8932,15.54795,7.8658,15.54828,7.82649z"/>
	<path fill="#5F797B" d="M15.54828,7.82649c0.05502,0.10472-0.03189,0.19391-0.03567,0.29556
		c-0.00874,0.23471,0.10232,0.35201,0.39246,0.40333c0.10297,0.01821,0.21202,0.00261,0.31829,0.00243
		c-0.00576,0.13213-0.09471,0.19287-0.20622,0.22894c-0.14464,0.04679-0.2948,0.04795-0.43989,0.01242
		c-0.27779-0.06803-0.38628-0.26765-0.29815-0.54176C15.32973,8.06992,15.41639,7.93223,15.54828,7.82649z"/>
	<path fill="#678486" d="M16.70227,5.35909c-0.01668-0.04259,0.03568-0.08708-0.00363-0.12904
		c0.02938-0.05505,0.07461-0.09482,0.12589-0.12879C16.82131,5.20473,16.75712,5.27973,16.70227,5.35909z"/>
	<path fill="#658789" d="M18.34283,7.29532c-0.02554-0.0012-0.05107-0.00241-0.07661-0.00362
		c0.0368-0.04391,0.08464-0.06249,0.1414-0.06064C18.38605,7.25248,18.36444,7.2739,18.34283,7.29532z"/>
</g>
</svg>
