<?xml version="1.0" encoding="utf-8"?>
<!-- Generator: Adobe Illustrator 23.0.0, SVG Export Plug-In . SVG Version: 6.00 Build 0)  -->
<svg version="1.1" id="Слой_1" xmlns="http://www.w3.org/2000/svg" xmlns:xlink="http://www.w3.org/1999/xlink" x="0px" y="0px" width="32px" height="13px"
	 viewBox="0 0 32 13" enable-background="new 0 0 32 13" xml:space="preserve">
<g>
	<path fill="#2D2D2D" d="M0.00225,12.20456c0-2.20796,0-4.41593,0-6.6239c0.03484-0.02885,0.07491-0.03615,0.11867-0.0287
		c0.30471,0.10753,0.41072,0.26299,0.41096,0.61574c0.00116,1.65234,0.00038,3.30467,0.00055,4.95701
		c0.00003,0.25339-0.00339,0.50683,0.00116,0.76017c0.0063,0.35067,0.20489,0.54537,0.55886,0.55347
		c0.06912,0.00158,0.13828,0.00062,0.20742,0.00062c5.03139,0.00002,10.06278,0.00001,15.09417,0.00004
		c0.07446,0,0.14894-0.00118,0.22337,0.00091c0.30537,0.00858,0.46824,0.1301,0.56346,0.41944
		c0.00416,0.04391-0.00023,0.08515-0.03737,0.11586c-0.06345,0.01024-0.12743,0.00507-0.19116,0.00508
		c-5.29465,0.00028-10.58931,0.00018-15.88396,0.00114c-0.06787,0.00001-0.13821-0.01705-0.20401,0.01545
		c-0.02129,0-0.04257,0-0.06386,0c-0.33183-0.05126-0.56626-0.23332-0.72469-0.52323
		C0.02903,12.38801,0.03066,12.29308,0.00225,12.20456z"/>
	<path fill="#262727" d="M31.99691,6.78501c-0.06809,0.03773-0.04715,0.11021-0.0594,0.16591
		c-0.39912,1.81492-1.17801,3.443-2.43218,4.8313c-0.4517,0.50001-0.98541,0.89516-1.64168,1.10545
		c-0.12238,0.03921-0.25887,0.03076-0.36898,0.10923c-0.05322,0-0.10644,0-0.15965,0
		c-0.06033-0.03172-0.1254-0.01548-0.18795-0.0155c-3.31336-0.00108-6.62672-0.00052-9.94008-0.00103
		c-0.02224,0.00184-0.04137-0.00496-0.05738-0.02038c-0.00017-0.02995-0.00034-0.05991-0.00051-0.08987
		c0.08267-0.06982,0.18268-0.04486,0.27569-0.04491c2.59014-0.0014,5.18027-0.00111,7.77041-0.00111
		c0.64355,0,1.2872-0.00727,1.9306,0.00236c0.49167,0.00736,0.93093-0.14304,1.34224-0.3928
		c0.301-0.18277,0.55404-0.4214,0.80717-0.66499c0.73802-0.71021,1.25873-1.56714,1.6928-2.47521
		c0.38063-0.7963,0.69538-1.62145,0.83759-2.5003c0.01682-0.10392,0.00055-0.21207,0.04271-0.31225
		c0.0232-0.0356,0.0571-0.0408,0.09553-0.03289c0.04341,0.0116,0.02779,0.06034,0.05309,0.08344
		C31.99691,6.61598,31.99691,6.7005,31.99691,6.78501z"/>
	<path fill="#1A1A1A" d="M31.96232,6.46722c-0.03099,0.00035-0.06199,0.0007-0.09298,0.00106
		c-0.04772,0.02091-0.07377,0.0121-0.06416-0.04599c0.06061-0.1573,0.01527-0.31387-0.01158-0.46757
		c-0.12272-0.70242-0.36961-1.36663-0.66622-2.01134c-0.40354-0.87713-0.89063-1.70878-1.52856-2.439
		c-0.39678-0.45418-0.846-0.86123-1.39323-1.14126c-0.38106-0.195-0.78998-0.27983-1.21652-0.28014
		c-1.76632-0.00125-3.53264-0.00052-5.29897-0.00052c-5.45857,0-10.91714-0.00002-16.37572,0.00013
		c-0.11167,0-0.22393-0.00668-0.33359,0.02279C4.95084,0.11189,4.92434,0.10824,4.90674,0.07972
		c-0.0107-0.02808-0.00696-0.05389,0.01285-0.07707c7.5676,0,15.1352,0,22.7028,0c0.54725,0.15601,1.03093,0.42411,1.46038,0.79587
		c0.58692,0.50808,1.05576,1.11143,1.46037,1.76595c0.62529,1.01151,1.10947,2.08304,1.37422,3.24577
		c0.02358,0.10358,0.01354,0.21627,0.07955,0.3092c0,0.06339,0,0.12677,0,0.19016
		C31.95632,6.35586,32.00553,6.42153,31.96232,6.46722z"/>
	<path fill="#252525" d="M4.91959,0.00265C4.91953,0.02374,4.91948,0.04483,4.91942,0.06593
		c-0.08125,0.07212-0.18151,0.049-0.2746,0.04914C3.43704,0.11694,2.22925,0.11373,1.02148,0.11741
		c-0.52593,0.0016-0.86555,0.34356-0.87262,0.86541C0.14807,1.0409,0.14857,1.099,0.14857,1.15709
		c-0.00003,1.38363,0.00052,2.76726-0.00112,4.1509c-0.00011,0.09241,0.02312,0.1919-0.04936,0.27262
		C0.06614,5.58063,0.03419,5.58065,0.00225,5.58067c0-1.61636,0-3.23271,0-4.84907c0.05855-0.37618,0.26539-0.62436,0.63862-0.72895
		C2.06711,0.00265,3.49335,0.00265,4.91959,0.00265z"/>
	<path fill="#697681" d="M17.1496,12.95999c0.00971,0.00373,0.01962,0.00684,0.02972,0.00935
		c0.01135,0.00546,0.01536,0.01135,0.0121,0.0177c-0.00336,0.00656-0.00681,0.00985-0.0104,0.00985
		c-5.43888,0-10.87776,0-16.31664,0c0.04292-0.06314,0.1075-0.03102,0.16094-0.03103
		c5.32693-0.00157,10.65386-0.00146,15.98079-0.00165C17.05394,12.96421,17.10177,12.96145,17.1496,12.95999z"/>
	<path fill="#535F69" d="M17.18102,12.99689c-0.00011-0.00922-0.00067-0.01842-0.00169-0.02757
		c0.05315-0.00135,0.1063-0.00391,0.15946-0.00392c3.28301-0.00031,6.56602-0.00052,9.84904,0.0004
		c0.04974,0.00001,0.10786-0.02364,0.14719,0.03109C23.95035,12.99689,20.56568,12.99689,17.18102,12.99689z"/>
	<path fill="#404C56" d="M31.96232,6.46722c0.01474-0.05184-0.02379-0.1152,0.03459-0.1576c0,0.07395,0,0.1479,0,0.22185
		C31.96879,6.51885,31.96571,6.49295,31.96232,6.46722z"/>
	<path fill="#202020" d="M0.09808,5.58061c-0.00002-1.54011-0.00012-3.08022,0-4.62033
		c0.00004-0.51903,0.37744-0.89412,0.8997-0.8942C2.305,0.06589,3.61221,0.06596,4.91942,0.06593
		c0.01064,0.01064,0.02128,0.02128,0.03193,0.03192c0.04366,0.02486,0.0649,0.06882,0.09224,0.10741
		c0.08564,0.12087,0.2045,0.18094,0.35126,0.19C5.4799,0.40051,5.56508,0.39828,5.6502,0.39828
		c7.02903,0.00009,14.05806,0.00473,21.08706-0.00879c0.55949-0.00108,1.03711,0.1602,1.51205,0.41332
		c0.69131,0.36843,1.18741,0.92961,1.63128,1.55255c0.4435,0.62242,0.72927,1.32302,1.03921,2.01193
		c0.17585,0.39088,0.33203,0.78997,0.43041,1.20823c0.07687,0.32683,0.1607,0.64821,0.45495,0.86106
		c0.01393,0.02544,0.0379,0.03087,0.06417,0.03169c0.00679,0.4485-0.11965,0.87264-0.25237,1.29329
		C31.47009,8.22714,31.28036,8.6759,31.0855,9.1251c-0.31538,0.72701-0.72503,1.39095-1.19183,2.02606
		c-0.20607,0.28037-0.46843,0.50803-0.70507,0.75982c-0.29875,0.31787-0.64621,0.55719-1.03588,0.74066
		c-0.29409,0.13847-0.60365,0.22004-0.93493,0.21982c-3.35623-0.00217-6.71246-0.00134-10.06869-0.00135
		c-0.10196-0.29204-0.31434-0.38412-0.6164-0.38384c-5.14297,0.0049-10.28595,0.00073-15.4289,0.00971
		c-0.34754,0.00061-0.63121-0.28369-0.6289-0.61815C0.48795,9.9828,0.47759,8.08761,0.48492,6.19251
		C0.48608,5.89258,0.39217,5.68193,0.09808,5.58061z"/>
	<path fill="#131313" d="M31.80517,6.43658c-0.22489-0.05813-0.3148-0.23908-0.38186-0.43071
		c-0.12856-0.36732-0.19735-0.7517-0.34122-1.11654c-0.1529-0.38775-0.32437-0.76677-0.49199-1.14767
		c-0.26204-0.59546-0.58978-1.15121-0.98067-1.67578c-0.54525-0.73173-1.2497-1.23284-2.10033-1.54995
		c-0.14279-0.05323-0.28385-0.07107-0.43435-0.07104C19.86969,0.44658,12.66463,0.44637,5.45958,0.44632
		c-0.29313,0-0.45802-0.11334-0.50823-0.34847c0.00567-0.04424,0.03182-0.06363,0.07582-0.06307
		c0.04254,0.00054,0.0851-0.00036,0.12766-0.00036c7.30342-0.00002,14.60684-0.00124,21.91026,0.00247
		c0.54106,0.00027,1.03348,0.16839,1.48521,0.47661c0.17302,0.11805,0.33561,0.24957,0.50583,0.37034
		c0.13077,0.09278,0.21323,0.25094,0.3406,0.35049c0.23318,0.18226,0.41112,0.41171,0.5741,0.64783
		c0.25721,0.37263,0.50624,0.75076,0.73422,1.14418c0.39926,0.68901,0.70755,1.41264,0.95337,2.16585
		c0.121,0.37076,0.18998,0.7521,0.24065,1.13742C31.90852,6.40145,31.88471,6.44263,31.80517,6.43658z"/>
	<path fill="#262626" d="M14.05603,12.10944c-4.26217,0-8.52433,0.00001-12.7865-0.00001c-0.36794,0-0.40512-0.0373-0.40512-0.40627
		c-0.00002-3.49105-0.00002-6.98211,0-10.47316c0-0.36585,0.0379-0.40328,0.40815-0.40328
		c8.52965-0.00001,17.0593,0.00088,25.58895-0.00177c0.64847-0.0002,1.18601,0.23179,1.66879,0.65551
		c0.35582,0.31229,0.66598,0.66302,0.9316,1.04309c0.38507,0.55099,0.71862,1.13502,0.9843,1.75813
		c0.13549,0.31776,0.27606,0.63335,0.38795,0.95948c0.21432,0.62471,0.32904,1.25328,0.13519,1.91487
		c-0.133,0.45394-0.27004,0.90838-0.45734,1.33888c-0.17067,0.39228-0.34631,0.78839-0.57724,1.15454
		c-0.11683,0.18523-0.21026,0.38525-0.33063,0.56797c-0.24283,0.36862-0.5159,0.72202-0.82661,1.02993
		c-0.37236,0.369-0.78723,0.71176-1.33596,0.80744c-0.19167,0.03342-0.38855,0.05233-0.58307,0.05246
		C22.59101,12.11013,18.32352,12.10944,14.05603,12.10944z"/>
	<path fill="#253D29" d="M27.84534,1.11157c0.23423,0.16581,0.49302,0.29228,0.70921,0.48946
		c0.26628,0.24287,0.50114,0.51106,0.71599,0.79526c0.37567,0.49693,0.69512,1.03021,0.9647,1.59119
		c0.16858,0.35079,0.32112,0.70895,0.45394,1.07498c0.01993,0.05493,0.03677,0.10985,0.03014,0.16918
		c-0.02911,0.11704-0.05483,0.23504-0.08641,0.35132c-0.12009,0.44227-0.54472,0.78099-0.9762,0.78322
		c-0.54707-0.11117-1.01316-0.35811-1.398-0.76911c-0.63784-0.6812-1.4307-1.08964-2.33988-1.31059
		c-0.79183-0.19243-1.58543-0.3605-2.39795-0.431c-0.21192-0.01839-0.42527-0.00504-0.63795-0.00569
		c-0.39888-0.00121-0.79777-0.00043-1.19669,0.0001c-0.09923,0.00308-0.19526-0.00629-0.27685-0.07087
		c-0.10735-0.08846-0.17811-0.20873-0.27152-0.30939c-0.49024-0.52827-1.08197-0.89384-1.79868-1.00846
		c-0.69238-0.11073-1.37752-0.0674-2.02031,0.25875c-0.1316,0.06677-0.25609,0.15236-0.40721,0.17688
		c-0.36149,0.02012-0.72297,0.00897-1.08426,0.00867c-0.89285-0.00074-1.78573,0.00777-2.6784-0.00433
		c-0.10464,0.00683-0.20921-0.00078-0.31367-0.00419c-0.04837-0.00215-0.09271-0.01846-0.13409-0.04234
		c-0.34449-0.19876-0.70847-0.34635-1.10231-0.41658c-0.0363-0.00647-0.07075-0.02063-0.10222-0.04088
		c-0.05233-0.04756-0.09684-0.10267-0.14911-0.15052c-0.16064-0.14873-0.34986-0.20134-0.56905-0.20086
		C8.9709,2.04972,7.16322,2.04809,5.35554,2.04787c-0.09562-0.00001-0.192,0.00618-0.28636-0.01284
		c-0.3631-0.0732-0.61484-0.27415-0.72884-0.63129C4.32999,1.3387,4.30365,1.2765,4.30292,1.2095
		c-0.00441-0.03814-0.0022-0.07636-0.0018-0.11468c0.00391-0.05892-0.00579-0.1234,0.06397-0.15557
		C5.1472,0.93652,5.92923,0.9382,6.71126,0.93818c6.84148-0.00017,13.68296-0.00012,20.5243-0.00012
		c0.08724,0.01197,0.17376,0.0287,0.25995,0.04717l-0.00134-0.00077c0.06292,0.02552,0.13276,0.03053,0.19292,0.06421
		l-0.00106-0.00073C27.73581,1.07736,27.79417,1.0856,27.84534,1.11157z"/>
	<path fill="#3D5C46" d="M13.5717,12.01356c-3.51406,0.00028-7.02813,0.00052-10.54219,0.00117
		c-0.06415,0.00001-0.12768,0.00128-0.18586-0.03137c-0.1377-0.0027-0.22047-0.09813-0.29896-0.18803
		c-0.15802-0.18099-0.24032-0.39541-0.25292-0.63581c-0.01337-0.255-0.05329-0.29297-0.31681-0.30892
		c-0.43578-0.02637-0.92092-0.4448-0.98815-0.85119C0.97732,9.94204,0.96598,9.88555,0.98985,9.82918
		c-0.0083-0.03369-0.0166-0.06737-0.0249-0.10106c0.02022-0.0456,0.01126-0.0938,0.01127-0.14079
		c0.00047-2.08028,0.00048-4.16057-0.00005-6.24085C0.97615,3.29965,0.98622,3.25124,0.96333,3.20621
		C0.96254,3.19557,0.96176,3.18492,0.96097,3.17428c0.0525-0.19675,0.14365-0.37501,0.28508-0.52146
		c0.105-0.10873,0.21376-0.22731,0.3946-0.1878c0.26559,0.121,0.36015,0.33388,0.35963,0.6145
		C1.99706,4.81718,1.99908,6.55486,1.99804,8.29253c-0.00015,0.25002,0.04611,0.48055,0.21778,0.6772
		c0.19787,0.22666,0.44441,0.33487,0.74444,0.3344c0.56405-0.00089,1.12811-0.00075,1.69216-0.00005
		c0.45927,0.00056,0.68769,0.1765,0.79898,0.61355c0.10268,0.40323,0.45255,0.67726,0.89012,0.68381
		c0.47351,0.00709,0.94717,0.0029,1.42075,0.00159c0.77684-0.00214,1.55371,0.00707,2.33026-0.00515
		c0.0761-0.01617,0.13186,0.02382,0.18698,0.06689c0.20605,0.16099,0.4514,0.25794,0.70051,0.27929
		c0.29358,0.02517,0.5689-0.09576,0.81604-0.26053c0.05222-0.03481,0.09683-0.08424,0.16748-0.08255
		c0.2967,0.00944,0.5933,0.00238,0.88986,0.00408c0.49133,0.00282,0.76488,0.27465,0.76607,0.76281
		c0.0001,0.04204,0.00184,0.08413-0.00179,0.12604c-0.00002,0.05392,0.00233,0.10794-0.00095,0.16186
		c0.00001,0.03517,0.00182,0.0704-0.00018,0.10557c0.00017,0.06124,0.00246,0.12259-0.00659,0.18357
		C13.60503,11.97208,13.58963,11.99352,13.5717,12.01356z"/>
	<path fill="#273D2B" d="M13.5717,12.01356c0.00074-0.02075,0.00147-0.0415,0.0022-0.06225
		c0.07796-0.06494,0.17208-0.04538,0.26062-0.04543c1.71337-0.00109,3.42674-0.0008,5.14012-0.0008
		c2.36786,0,4.73572,0.00001,7.10358-0.00005c0.06384,0,0.12776,0.00192,0.19151-0.00242
		c0.23846-0.01623,0.42594-0.10458,0.53653-0.3333c0.13679-0.28291,0.34736-0.47792,0.66704-0.56498
		c0.54114-0.14738,0.938-0.50333,1.2718-0.93471c0.43949-0.56797,0.80497-1.17897,1.08031-1.84241
		c0.13322-0.32102,0.29518-0.63069,0.38091-0.97011c0.01062-0.04204,0.03334-0.07769,0.07527-0.09712
		c0.0458-0.01741,0.08519,0.00091,0.1155,0.03071c0.17883,0.17589,0.29708,0.37702,0.25907,0.63987
		c-0.046,0.27329-0.17382,0.51867-0.2807,0.76905c-0.25085,0.58762-0.55553,1.14791-0.91677,1.67741
		c-0.21124,0.30963-0.43984,0.60848-0.70291,0.87236c-0.3891,0.39031-0.8152,0.74003-1.38527,0.84701
		c-0.05164,0.00969-0.10466,0.01727-0.15704,0.01728C22.66622,12.01417,18.11896,12.01383,13.5717,12.01356z"/>
	<path fill="#202020" d="M1.59853,2.47396C1.3,2.55683,1.16352,2.79515,1.04119,3.04682
		C1.01909,3.0923,1.01866,3.15093,0.96096,3.17426C0.9607,2.92358,0.96081,2.67289,0.95989,2.42219
		c-0.00021-0.0578-0.00196-0.11521,0.03264-0.16595C0.99401,2.23279,1.00333,2.21263,1.01836,2.1948
		C1.14333,2.08792,1.276,1.99346,1.43644,1.94479c0.04147-0.01191,0.08423-0.01888,0.12558-0.03147
		c0.0472-0.01343,0.09756-0.01138,0.14376-0.02969c0.01257-0.00642,0.02525-0.01238,0.0377-0.01888
		C1.81383,1.81701,1.80556,1.73684,1.8265,1.66873c0.04451-0.14481,0.08338-0.29174,0.15891-0.42519
		c0.03311-0.04751,0.06524-0.09579,0.10263-0.14029c0.01987-0.0211,0.04331-0.03796,0.06653-0.05503
		c0.03826-0.03153,0.07174-0.06886,0.11474-0.09474c0.04154-0.04841,0.09828-0.03084,0.14913-0.03101
		c0.34481-0.00117,0.68962-0.0003,1.03443-0.0001C3.46364,0.93572,3.46819,0.9509,3.46662,0.96791
		c-0.0323,0.08873-0.10929,0.11008-0.19045,0.11733C3.20141,1.09193,3.12908,1.10439,3.0599,1.13291
		C2.99041,1.15955,2.92185,1.18818,2.8614,1.23276C2.78993,1.28789,2.71271,1.3361,2.65408,1.40651
		C2.42209,1.58156,2.3492,1.82443,2.34086,2.101C2.3346,2.30867,2.22953,2.41543,2.02331,2.41787
		C1.87791,2.41959,1.74317,2.48021,1.59853,2.47396z"/>
	<path fill="#202020" d="M30.65615,7.83056c-0.0436-0.2601-0.11685-0.50483-0.35065-0.66632
		c-0.06846-0.01336-0.1056-0.07502-0.16384-0.10415c-0.02981-0.02041-0.05875-0.04212-0.09122-0.05861
		c-0.05436-0.02917-0.11215-0.04904-0.1719-0.06442c-0.13676-0.04259-0.2747-0.07269-0.41898-0.08052
		c-0.15445-0.00838-0.24774-0.11276-0.24385-0.25358c0.00403-0.14593,0.12841-0.2713,0.27503-0.2692
		c0.05762,0.00082,0.11568,0.00404,0.17352,0.00648c0.53184-0.1058,0.88281-0.35962,0.96208-0.91818
		c0.0099-0.06974,0.01541-0.1496,0.09299-0.19042c0.0975,0.23457,0.20175,0.4674,0.19223,0.72976
		c0.03714,0.13672-0.05507,0.22619-0.12754,0.31639c-0.08535,0.10622-0.18834,0.19749-0.30623,0.26984
		c-0.08271,0.05076-0.07981,0.09763,0.0016,0.15067c0.12349,0.08046,0.24476,0.16487,0.32469,0.29347
		c0.02695,0.04337,0.06917,0.08213,0.04364,0.14146C30.85213,7.38415,30.75152,7.60665,30.65615,7.83056z"/>
	<path fill="#202020" d="M0.98985,9.82918C0.98495,10.06824,1.12526,10.244,1.25726,10.4211
		c0.1984,0.2662,0.4596,0.40518,0.80209,0.39135c0.17779-0.00718,0.27208,0.08601,0.27203,0.25671
		c-0.00012,0.40118,0.15993,0.70969,0.51229,0.91419c-0.24404,0.0532-0.488,0.04886-0.73191-0.00086
		c-0.11345-0.03966-0.14618-0.14466-0.19103-0.23773c-0.03198-0.06637-0.05494-0.13918-0.06004-0.21164
		c-0.0117-0.16644-0.10218-0.23499-0.26212-0.25624c-0.17503-0.02326-0.33417-0.09798-0.47999-0.19777
		c-0.05227-0.03577-0.10624-0.0703-0.13159-0.13265c-0.00946-0.01612-0.0075-0.03072,0.00578-0.04383
		c-0.04524-0.06636-0.03583-0.14207-0.0316-0.21446C0.97788,10.40203,0.9215,10.1135,0.98985,9.82918z"/>
	<path fill="#3D5C46" d="M0.99599,10.93227c0.19723,0.17984,0.42977,0.28727,0.69425,0.32096
		c0.12489,0.01591,0.1838,0.07703,0.19644,0.19995c0.02037,0.1981,0.09671,0.3752,0.22506,0.52931
		c-0.03608,0.04479-0.08711,0.03138-0.1332,0.03139c-0.32927,0.00008-0.65855-0.00125-0.98782-0.00213
		C0.97033,11.65182,0.96118,11.29194,0.99599,10.93227z"/>
	<path fill="#535F69" d="M3.45265,0.95169c-0.00106-0.00978-0.001-0.01955,0.00021-0.02932
		c7.8963-0.00019,15.79258-0.00039,23.68886-0.00046c0.04255,0,0.0851,0.00178,0.12766,0.00272
		c0.01185,0.00572,0.01592,0.01168,0.01225,0.0179c-0.00372,0.00632-0.0075,0.00949-0.01138,0.00949
		c-1.64965,0.00047-3.29931,0.00131-4.94896,0.00136C16.4038,0.95355,10.48632,0.95344,4.56884,0.95357
		c-0.07448,0-0.14895,0.00179-0.22343,0.00275c-0.03795,0.03238-0.0836,0.04377-0.13191,0.0449
		C4.00282,1.00615,3.79209,1.00725,3.58144,1.00046C3.534,0.99893,3.48635,0.99186,3.45265,0.95169z"/>
	<path fill="#263D2A" d="M30.84771,7.13324c-0.08815-0.18795-0.23871-0.31805-0.41312-0.41995
		c-0.12259-0.07163-0.10223-0.11856,0.00239-0.1858c0.21636-0.13904,0.40476-0.3045,0.47458-0.56609
		c0.11015,0.06357,0.07323,0.1833,0.08646,0.2718c0.04415,0.29553-0.03884,0.5834-0.09884,0.87094
		C30.89652,7.11682,30.86551,7.12367,30.84771,7.13324z"/>
	<path fill="#535F69" d="M0.96333,3.20621c0.04951,0.04827,0.02776,0.10992,0.02779,0.16534
		c0.00116,2.06346,0.00116,4.12692,0.00004,6.19038C0.99113,9.61761,1.0116,9.67886,0.96492,9.72817
		C0.96335,9.17938,0.96033,8.63064,0.96043,8.0819C0.96073,6.45667,0.96227,4.83144,0.96333,3.20621z"/>
	<path fill="#2A442F" d="M1.567,1.93646C1.53303,1.9815,1.48324,1.96336,1.43915,1.96799
		C1.3689,1.887,1.40379,1.78868,1.39368,1.69771c-0.01947-0.175,0.03758-0.34078,0.06512-0.50962
		c0.02257-0.1384,0.12562-0.21074,0.25515-0.24923c0.16339,0.00672,0.32759-0.01792,0.49013,0.01419
		C2.22581,0.9532,2.24756,0.95334,2.26931,0.95348C2.24351,1.00021,2.23066,1.05672,2.17285,1.07925
		c-0.07412-0.00767-0.14611,0.0137-0.22025,0.01427C1.71341,1.09537,1.6155,1.19341,1.61107,1.42676
		c-0.00219,0.11552-0.0001,0.23108-0.00092,0.34661C1.60973,1.83136,1.61084,1.88978,1.567,1.93646z"/>
	<path fill="#535F69" d="M2.20407,0.95306C2.03387,0.95403,1.86368,0.95499,1.69349,0.95596
		C1.56365,1.0224,1.42324,1.0002,1.28624,1.00187C1.04231,1.00483,1.04519,1.00332,1.04076,1.25126
		c-0.00527,0.29495,0.01875,0.5904-0.0144,0.88503C1.0141,2.16373,1.00273,2.1924,0.9636,2.18695
		c-0.00113-0.3794-0.0022-0.7588-0.00346-1.13821C0.95993,0.98396,0.95339,0.92042,1.05255,0.92116
		c0.36632,0.00271,0.73266,0.00127,1.09899,0.00332C2.1691,0.92458,2.18656,0.94311,2.20407,0.95306z"/>
	<path fill="#535F69" d="M0.99599,10.93227c-0.00175,0.35984-0.0035,0.71968-0.00527,1.0795
		c-0.03855-0.02446-0.03017-0.06373-0.03024-0.09916c-0.00053-0.30365-0.00043-0.60729-0.0001-0.91094
		c0.00004-0.03607-0.00471-0.0745,0.03238-0.09902C0.99354,10.91254,0.99461,10.92242,0.99599,10.93227z"/>
	<path fill="#3F4B4D" d="M27.27024,0.95202c0.00039-0.00917,0.00011-0.01831-0.00086-0.02742
		c0.07977,0.00403,0.15782,0.01441,0.22612,0.06063C27.41894,0.98406,27.34025,0.99704,27.27024,0.95202z"/>
	<path fill="#3F4B4D" d="M27.68709,1.04868c-0.07034-0.00354-0.13758-0.01624-0.19291-0.06421
		C27.56661,0.9818,27.63621,0.98755,27.68709,1.04868z"/>
	<path fill="#394644" d="M27.84534,1.11157c-0.06266,0.00238-0.11819-0.01283-0.15931-0.0636
		C27.74856,1.04589,27.80393,1.06152,27.84534,1.11157z"/>
	<path fill="#414D57" d="M0.9636,2.18695c0.01024-0.01037,0.02049-0.02074,0.03073-0.03111
		c0.04995,0.0036,0.05276,0.02863,0.03011,0.06524C1.0138,2.23277,1.00317,2.24447,0.99253,2.2562
		C0.96405,2.2409,0.9602,2.21541,0.9636,2.18695z"/>
	<path fill="#355739" d="M29.66425,6.34025c-0.05638,0.03932-0.12111,0.03002-0.1844,0.03302
		c-0.12476,0.0059-0.22845,0.11468-0.22834,0.23581c0.00012,0.12773,0.08241,0.20802,0.22383,0.20635
		c0.15707-0.00185,0.30345,0.03651,0.44591,0.09673c0.02563,0.0528,0.00768,0.10398-0.0086,0.15379
		c-0.33913,1.03749-0.80449,2.01136-1.49831,2.86469c-0.29789,0.36637-0.64709,0.6638-1.13224,0.77813
		c-0.33145,0.07811-0.574,0.30033-0.72952,0.59778c-0.09294,0.17775-0.21616,0.25041-0.41646,0.25027
		c-4.1168-0.00288-8.2336-0.00211-12.3504-0.0027c-0.07381-0.00001-0.15039,0.00734-0.21264-0.04673
		c-0.00282-0.20339,0.02415-0.40865-0.11799-0.58934c-0.12923-0.16428-0.28644-0.26278-0.49631-0.26552
		c-0.2866-0.00373-0.57328-0.00027-0.85992-0.00155c-0.05175-0.00023-0.10689,0.01421-0.15379-0.02228
		c0.13526-0.25738,0.34916-0.45523,0.52448-0.68228c0.04363-0.0565,0.10031-0.09186,0.17373-0.09813
		c0.07445-0.01037,0.14901-0.00819,0.22343-0.00821c1.34037-0.00021,2.68074-0.00027,4.02111,0.00013
		c0.09549,0.00003,0.19177-0.00609,0.28487,0.02164c0.07757,0.0274,0.13458,0.08149,0.18513,0.14409
		c0.11958,0.14808,0.24648,0.29014,0.36551,0.43867c0.24611,0.30709,0.5871,0.47347,0.96077,0.50247
		c0.33728,0.02617,0.64968-0.12594,0.91002-0.35464c0.19249-0.1691,0.33042-0.38455,0.49775-0.57501
		c0.05595-0.06368,0.10583-0.13299,0.19318-0.15845c0.07748-0.01647,0.1574-0.00774,0.23515-0.02623
		c0.37724-0.08969,0.60275-0.36836,0.60947-0.75633c0.00145-0.08363-0.00278-0.16735,0.00379-0.25091
		c0.03306-0.12944,0.11274-0.2274,0.21389-0.31084c0.16132-0.16417,0.23998-0.36504,0.25991-0.58963
		c0.00835-0.09408,0.0136-0.19088-0.00121-0.28345c-0.02442-0.15276-0.02567-0.30186,0.01643-0.45089
		c0.04584-0.14981,0.08385-0.30363,0.20725-0.41533c0.05451-0.00728,0.05785-0.05474,0.07226-0.09268
		c0.32725-0.86138,0.29779-1.70872-0.09702-2.54374c-0.05025-0.10628-0.14178-0.20024-0.12126-0.33279
		c0.36177-0.00009,0.72375,0.00751,1.08528-0.00179c0.91749-0.02362,1.81494,0.10843,2.70115,0.33016
		c0.47204,0.1181,0.94589,0.22947,1.39744,0.4183c0.38609,0.16145,0.71924,0.39868,1.04083,0.65919
		c0.2314,0.18745,0.42576,0.41226,0.64857,0.60752c0.29808,0.26122,0.65761,0.39771,1.03779,0.4897
		C29.61904,6.31507,29.64115,6.32969,29.66425,6.34025z"/>
	<path fill="#355739" d="M1.59853,2.47396c0.11592-0.0697,0.24412-0.09156,0.37691-0.09393
		c0.24809-0.00442,0.3242-0.07651,0.32595-0.31737C2.3035,1.77289,2.39704,1.52962,2.6508,1.36464
		c0.07053-0.0428,0.14837-0.0508,0.22902-0.05074C3.30838,1.31423,3.73694,1.31341,4.1655,1.31462
		C4.23933,1.31482,4.31498,1.31166,4.37606,1.3656c0.14309,0.42277,0.4355,0.63369,0.87923,0.6337
		c1.87569,0.00006,3.75139,0.00061,5.62708-0.00076c0.21786-0.00016,0.38791,0.08533,0.51905,0.2543
		c-0.08793,0.07172-0.19341,0.04587-0.28987,0.04128C10.70185,2.27464,10.3133,2.35775,9.93728,2.5122
		c-0.0377,0.01549-0.08581,0.01758-0.09094,0.07316c-0.09333,0.11777-0.2419,0.14617-0.36395,0.21572
		c-0.96695,0.551-1.52543,1.38287-1.66613,2.46794C7.72104,6.00332,7.86842,6.7092,8.2825,7.34267
		C8.343,7.43522,8.37881,7.52574,8.35105,7.63933c-0.10053,0.41137,0.01546,0.7751,0.27539,1.09428
		c0.46084,0.56589,0.92795,1.12678,1.39873,1.68461c0.04729,0.05603,0.10374,0.10774,0.10444,0.18938
		c-0.03949,0.0631-0.10365,0.04321-0.15922,0.04325c-1.21813,0.00096-2.43625,0.0017-3.65438,0.00023
		c-0.44889-0.00054-0.83706-0.32671-0.91855-0.76512C5.33773,9.56466,5.07891,9.35247,4.7449,9.35227
		C4.14914,9.3519,3.55311,9.34128,2.95769,9.35534C2.40362,9.36842,1.94229,8.90203,1.9459,8.34775
		c0.01125-1.72641-0.00184-3.45298,0.00962-5.17938C1.95759,2.85791,1.88044,2.62326,1.59853,2.47396z"/>
	<path fill="#FEFEFE" d="M21.36125,8.52192c-0.06453,0.0933-0.12906,0.18659-0.19359,0.27988
		c-0.12163,0.23619-0.31502,0.41862-0.48131,0.62031c-0.13237,0.16055-0.24183,0.34447-0.42151,0.46355
		c-0.16676,0.19779-0.33267,0.3963-0.50052,0.59318c-0.19069,0.22366-0.42836,0.37222-0.7144,0.45037
		c-0.55681,0.15212-0.98571-0.06739-1.35259-0.45671c-0.16641-0.17659-0.31628-0.36855-0.47365-0.55354
		c-0.31166-0.2678-0.53131-0.61545-0.80556-0.91579c-0.05696-0.06238-0.1043-0.13391-0.16051-0.19701
		c-0.29205-0.3279-0.3792-0.71369-0.32004-1.13607c0.01734-0.1238-0.00548-0.22457-0.06868-0.32976
		c-0.37595-0.62577-0.56496-1.30761-0.47575-2.02949c0.07421-0.60049,0.28301-1.16965,0.66787-1.65768
		c0.21365-0.2532,0.42767-0.50563,0.70866-0.69202c0.06221-0.04127,0.12572-0.07558,0.19413-0.10313
		c0.37178-0.20676,0.7552-0.38651,1.18185-0.44666c1.19695-0.16874,2.22483,0.15017,3.0449,1.05517
		c0.0812,0.08961,0.15665,0.18436,0.23477,0.27672c0.38164,0.40909,0.52194,0.91961,0.61503,1.44893
		c0.08004,0.4551,0.03382,0.90328-0.09098,1.34481c-0.02366,0.08372-0.03206,0.17825-0.11215,0.23724
		c-0.0651,0.13957-0.13019,0.27915-0.19529,0.41872c0.00865,0.08052-0.04873,0.13704-0.08198,0.19928
		c-0.04511,0.08445-0.06425,0.16461-0.03188,0.25527c0.01103,0.16846,0.0136,0.33674-0.00078,0.50499
		C21.48859,8.28289,21.47389,8.42415,21.36125,8.52192z"/>
	<path fill="#FEFEFE" d="M10.1296,10.60761C9.61856,9.99306,9.10717,9.37878,8.59659,8.76385
		C8.31071,8.41953,8.21293,8.02876,8.31632,7.59358C8.333,7.52337,8.31817,7.47303,8.28122,7.4172
		C7.28845,5.91749,7.73358,3.85709,9.2832,2.86972c0.17927-0.11422,0.3744-0.19713,0.56135-0.29611
		c0.01731-0.03582,0.04952-0.0506,0.0847-0.06538c0.47745-0.20065,0.97908-0.19073,1.48206-0.16908
		c0.03239,0.00139,0.06039,0.01794,0.08616,0.0371c0.46764,0.0752,0.90051,0.24401,1.30886,0.47887
		c0.22928,0.08256,0.39589,0.2539,0.56764,0.41217c0.08703,0.0802,0.16506,0.17524,0.24293,0.26722
		c0.03026,0.049,0.06601,0.09367,0.10871,0.1328c0.104,0.11529,0.17072,0.25466,0.25262,0.38432
		c0.02292,0.04686,0.04611,0.09356,0.07199,0.139c0.06381,0.1266,0.11157,0.25974,0.16396,0.39118
		c0.06601,0.19722,0.12262,0.39642,0.13702,0.60516c0.00255,0.30447,0.01778,0.60884,0.00021,0.9131
		c-0.00471,0.14124-0.04496,0.27624-0.07446,0.41308c-0.07476,0.22151-0.14745,0.44403-0.25891,0.65134
		c-0.03483,0.06264-0.07564,0.12184-0.10846,0.18575c-0.06823,0.09407-0.09791,0.1924-0.06998,0.31184
		c0.07308,0.31259,0.00288,0.60634-0.13672,0.88818c-0.30747,0.44797-0.68763,0.83816-1.0226,1.2644
		c-0.02737,0.03483-0.06473,0.05295-0.10035,0.07506c-0.21162,0.24633-0.42323,0.49265-0.63485,0.73898
		c-0.22124,0.20057-0.49677,0.31133-0.77842,0.35292c-0.33851,0.04999-0.64626-0.09613-0.92381-0.28961
		C10.20423,10.66509,10.16731,10.6358,10.1296,10.60761z"/>
	<path fill="#355739" d="M16.96382,2.85802c-0.3203,0.22832-0.61077,0.48853-0.86002,0.79278
		c-0.07471,0.0535-0.16137,0.04627-0.24604,0.04637c-0.53702,0.00065-1.07404,0.00042-1.61106,0.00016
		c-0.09047-0.00004-0.18078,0.00059-0.26979,0.01524c-0.01536,0.00749-0.03189,0.01311-0.0485,0.01722
		c-0.09673,0.02204-0.08616-0.06902-0.11953-0.11342c-0.17706-0.23562-0.35981-0.46545-0.6029-0.6403
		c-0.03905-0.02808-0.09764-0.05177-0.0795-0.1206C14.4056,2.85632,15.68471,2.85717,16.96382,2.85802z"/>
	<path fill="#2B462F" d="M21.83722,6.77423c0.04103-0.1513,0.08954-0.30104,0.12185-0.45415
		c0.18707-0.88672,0.01818-1.7077-0.47162-2.46773c-0.02264-0.03513-0.0415-0.07267-0.06212-0.10909
		c0.07538,0.06446,0.16541,0.06962,0.25838,0.06288c0.18562,0.34907,0.36047,0.70183,0.4263,1.09722
		c0.10828,0.6504,0.06905,1.28411-0.20867,1.89212c-0.00981,0.02147-0.02603,0.04005-0.04794,0.07306
		C21.84598,6.82525,21.8416,6.79974,21.83722,6.77423z"/>
	<path fill="#2B462F" d="M13.12648,2.85547c0.18711,0.17341,0.39782,0.32026,0.55445,0.52828
		c0.07914,0.1051,0.13929,0.21916,0.21113,0.32714c0.04266,0.03838,0.0859,0.0762,0.1188,0.12389
		c0.04926,0.07339,0.09507,0.14872,0.13087,0.22973c0.04791,0.1288,0.10959,0.25181,0.16125,0.37917
		c0.01538,0.03937,0.02968,0.07897,0.04153,0.11958c0.07442,0.32122,0.13644,0.64418,0.13309,0.97547
		c-0.00065,0.0641,0.01729,0.14032-0.06716,0.1749c-0.05184-0.03808-0.03688-0.09857-0.05107-0.14926
		c0.00217-0.11958-0.02223-0.23719-0.02869-0.35617c-0.00492-0.0162-0.00718-0.03279-0.00685-0.0497
		c-0.02576-0.20289-0.04822-0.40667-0.15504-0.58856c-0.05062-0.12533-0.10123-0.25065-0.15185-0.37598
		c-0.01957-0.04692-0.01647-0.10703-0.07691-0.13016c-0.08091-0.12536-0.16183-0.25071-0.24274-0.37607
		c-0.02123-0.05389-0.05872-0.09537-0.10237-0.13214c-0.23172-0.26804-0.50099-0.49443-0.78861-0.70047
		C12.91305,2.85523,13.01977,2.85535,13.12648,2.85547z"/>
	<path fill="#335337" d="M4.37606,1.3656C3.80099,1.36528,3.22591,1.36497,2.65082,1.36465
		c0.04342-0.07828,0.12627-0.10866,0.19407-0.15733c0.07891-0.03169,0.16075-0.0477,0.24605-0.04765
		c0.3584,0.0002,0.71679-0.00008,1.07519,0.00016C4.22986,1.15987,4.29347,1.15984,4.3444,1.20714
		C4.35496,1.25996,4.36551,1.31278,4.37606,1.3656z"/>
	<path fill="#2A462E" d="M11.49747,2.37624c-0.14298,0.00133-0.28664,0.01224-0.4288,0.00219
		c-0.42431-0.03-0.82729,0.0611-1.22412,0.19518C9.81912,2.56987,9.79369,2.56613,9.74671,2.55922
		c0.53178-0.28852,1.08633-0.33412,1.65472-0.30638C11.45162,2.28003,11.49332,2.31374,11.49747,2.37624z"/>
	<path fill="#2B4730" d="M3.45265,0.95169c0.29759,0.00153,0.59517,0.00305,0.89276,0.0046
		C4.34517,1.00821,4.34493,1.06011,4.34469,1.11201C4.29814,1.15468,4.24057,1.15894,4.1814,1.15899
		C3.8533,1.15931,3.5252,1.15958,3.1971,1.15874c-0.05834-0.00015-0.1175,0.0004-0.16212-0.04717
		C3.099,1.06058,3.17419,1.0481,3.25338,1.04833C3.33557,1.04857,3.40755,1.02722,3.45265,0.95169z"/>
	<path fill="#304E34" d="M3.03498,1.11156c0.43657,0.00015,0.87314,0.0003,1.30971,0.00045
		C4.3446,1.14372,4.34451,1.17543,4.34441,1.20714C3.84456,1.20719,3.34472,1.20725,2.84488,1.20731
		C2.89748,1.15432,2.96266,1.12596,3.03498,1.11156z"/>
	<path fill="#2A442F" d="M30.14586,7.03699c0.07911,0.01041,0.11898,0.06932,0.15963,0.12726
		c-0.01507,0.02048-0.04168,0.04002-0.04349,0.06161c-0.02551,0.30431-0.18546,0.56698-0.29828,0.83652
		c-0.19823,0.47361-0.43294,0.93549-0.71279,1.37157c-0.22243,0.34661-0.45843,0.6841-0.74295,0.98126
		c-0.24564,0.25655-0.52224,0.47729-0.88083,0.57712c-0.3535,0.09841-0.65567,0.26776-0.80313,0.63533
		c-0.09491,0.23659-0.30399,0.31208-0.5435,0.32312c-0.03717,0.00171-0.07448,0.00024-0.11173,0.00025
		c-4.19831,0.0001-8.39661,0.00019-12.5949,0.00029c-0.00009-0.06336-0.0002-0.12672-0.0003-0.19009
		c0.07776-0.06529,0.1718-0.04605,0.26046-0.04608c2.28291-0.00092,4.56582-0.00069,6.84873-0.00072
		c1.83591-0.00002,3.67182-0.00242,5.50771,0.00318c0.22429,0.00068,0.38102-0.07876,0.4796-0.27078
		c0.16769-0.32664,0.43581-0.52325,0.78558-0.62331c0.49251-0.1409,0.84301-0.46576,1.14972-0.85811
		c0.64348-0.82316,1.08995-1.74562,1.42981-2.72456C30.06063,7.16757,30.06937,7.08367,30.14586,7.03699z"/>
	<path fill="#335337" d="M13.57307,11.50739c4.18602-0.00002,8.37204-0.00116,12.55805,0.00351
		c0.19023,0.00021,0.29542-0.05597,0.38252-0.23007c0.16256-0.32491,0.43255-0.55194,0.7936-0.63042
		c0.45623-0.09917,0.76881-0.39566,1.05334-0.72386c0.382-0.44064,0.67492-0.94387,0.9343-1.46249
		c0.23571-0.47128,0.43835-0.95839,0.59246-1.46355c0.00918-0.03009,0.02251-0.05893,0.03391-0.08835
		c0.06076,0.00288,0.10693,0.04073,0.15868,0.06521c0.02438,0.05917,0.00245,0.11452-0.01593,0.16932
		c-0.32093,0.95663-0.74611,1.86244-1.35381,2.67489c-0.16695,0.2232-0.34303,0.44157-0.5605,0.62447
		c-0.23243,0.19549-0.4961,0.32201-0.78445,0.40656c-0.30725,0.09009-0.53229,0.28319-0.67897,0.56062
		c-0.11184,0.21154-0.27805,0.30057-0.51565,0.30046c-4.12823-0.00196-8.25646-0.00139-12.3847-0.00177
		c-0.07388-0.00001-0.15044,0.00823-0.2128-0.04603C13.5731,11.61306,13.57309,11.56022,13.57307,11.50739z"/>
	<path fill="#304E34" d="M13.57312,11.66589c4.19883-0.00004,8.39767-0.00095,12.59651,0.00228
		c0.22838,0.00018,0.37604-0.08072,0.48263-0.28558c0.14637-0.28133,0.37556-0.48444,0.69069-0.56923
		c0.36801-0.09902,0.68778-0.27975,0.94497-0.55609c0.40115-0.43101,0.72882-0.9149,1.00558-1.43326
		c0.31654-0.59286,0.57409-1.21024,0.78646-1.84666c0.03127,0.00977,0.05216,0.03082,0.0659,0.05967
		c-0.31029,1.00968-0.7599,1.95282-1.38642,2.80739c-0.27617,0.3767-0.57888,0.73424-1.0268,0.92565
		c-0.17012,0.0727-0.34937,0.12442-0.51917,0.19774c-0.20601,0.08895-0.36541,0.2373-0.46342,0.43791
		c-0.12777,0.26153-0.31823,0.36165-0.62023,0.36103c-4.1854-0.00853-8.37082-0.00563-12.55622-0.00552
		C13.57343,11.72944,13.57328,11.69767,13.57312,11.66589z"/>
	<path fill="#202020" d="M3.33837,10.46128c-0.23849-0.00037-0.43272-0.19553-0.43023-0.43229
		c0.0025-0.23726,0.20029-0.42766,0.43948-0.42305c0.23204,0.00447,0.42051,0.19386,0.42229,0.42435
		C3.77174,10.26756,3.57739,10.46166,3.33837,10.46128z"/>
	<path fill="#273D2B" d="M1.02444,2.22107C1.02336,2.19525,1.01891,2.17096,0.99431,2.15585
		c-0.00072-0.35387,0.00245-0.7078-0.00449-1.06154C0.98763,0.98273,1.02349,0.94634,1.13494,0.95138
		C1.32081,0.9598,1.50729,0.9551,1.6935,0.95594C1.45621,1.09367,1.47239,1.33921,1.44248,1.55958
		C1.42431,1.69343,1.43914,1.8317,1.43915,1.96798C1.29103,2.0364,1.15914,2.131,1.02444,2.22107z"/>
	<path fill="#335237" d="M2.01529,1.24024C1.95065,1.4266,1.86853,1.60734,1.83877,1.80482
		C1.82991,1.8636,1.80564,1.91741,1.72685,1.90486C1.64383,1.71281,1.65397,1.51718,1.73283,1.33125
		C1.79406,1.18689,1.92545,1.15484,2.01529,1.24024z"/>
	<path fill="#2F4E34" d="M2.01529,1.24024C1.86291,1.19845,1.73662,1.30082,1.72808,1.4825
		c-0.0066,0.1405-0.00127,0.28155-0.00123,0.42236c0,0.00001,0.00027,0.00009,0.00027,0.00009
		c-0.08077,0.03457-0.12369,0.0047-0.126-0.079C1.5969,1.67341,1.58744,1.51978,1.60383,1.36842
		c0.02516-0.23221,0.25421-0.34345,0.50779-0.25608C2.08397,1.15828,2.06957,1.21405,2.01529,1.24024z"/>
	<path fill="#2C4931" d="M2.11162,1.11234c-0.1641-0.00132-0.33854-0.02219-0.43155,0.15809
		C1.58266,1.45923,1.6418,1.66325,1.63764,1.86061C1.63667,1.9068,1.69105,1.90123,1.72711,1.90494
		C1.68182,1.95591,1.62096,1.92887,1.567,1.93646C1.56695,1.76409,1.56619,1.59171,1.56702,1.41934
		C1.56823,1.1671,1.6884,1.04721,1.94565,1.05024c0.07562,0.00089,0.15821-0.03017,0.2272,0.02902
		C2.15244,1.09028,2.13203,1.10131,2.11162,1.11234z"/>
	<path fill="#415F45" d="M14.30722,4.5349c-0.03718-0.02297-0.03031-0.06047-0.0319-0.09519
		c-0.04421-0.13045-0.10191-0.25531-0.15969-0.38013c-0.05234-0.06849-0.10348-0.13767-0.1278-0.22205
		c-0.01485-0.04543-0.08181-0.06499-0.06386-0.12671c0.01129-0.07837,0.07292-0.06304,0.12342-0.063
		c0.68547,0.0005,1.37094,0.00184,2.05641,0.00298c-0.34954,0.46507-0.55598,0.99599-0.65619,1.5582
		c-0.05539,0.31073-0.05243,0.63656,0.02103,0.95618c0.08417,0.3662,0.1741,0.73011,0.37531,1.05118
		c0.11333,0.18084,0.16647,0.34734,0.12896,0.57002c-0.05943,0.35275,0.05976,0.67656,0.28775,0.95592
		c0.32046,0.39267,0.64197,0.78449,0.96304,1.17667c-0.07563-0.031-0.1551-0.02829-0.23475-0.0283
		c-1.46967-0.00002-2.93934-0.00054-4.409-0.00095c0.24363-0.29766,0.48813-0.59462,0.73051-0.89327
		c0.11939-0.14711,0.23488-0.29733,0.35213-0.44615c0.16539-0.19105,0.22433-0.42234,0.24955-0.66449
		c0.0197-0.18913-0.02453-0.3764-0.02613-0.56516c0.03232-0.05501,0.06463-0.11003,0.09695-0.16504
		c0.00907,0.00595,0.02669,0.01279,0.0286,0.00887c0.10017-0.20566,0.22054-0.40326,0.2611-0.63342
		c0.09868-0.27974,0.13973-0.57245,0.18679-0.86219c0.0409-0.25186-0.01814-0.50375-0.05965-0.75285
		C14.37834,4.78735,14.34856,4.65942,14.30722,4.5349z"/>
	<path fill="#202020" d="M27.63523,7.10182c-0.23812-0.00168-0.43164-0.19836-0.42779-0.43478
		c0.00386-0.23681,0.20332-0.42663,0.44199-0.42063c0.23241,0.00585,0.4194,0.19595,0.41988,0.42685
		C28.0698,6.91079,27.8746,7.10351,27.63523,7.10182z"/>
	<path fill="#415F45" d="M20.26485,9.88567c0.28991-0.37034,0.58921-0.73296,0.90282-1.08385
		c0.00821,0.20954,0.02112,0.4181-0.06355,0.61991C20.98642,9.70221,20.64895,9.93327,20.26485,9.88567z"/>
	<path fill="#334D37" d="M21.48388,7.6114c-0.07577-0.10873,0.01519-0.18353,0.05782-0.26617
		c0.02768-0.05367,0.06644-0.10172,0.10024-0.15228c0.00443,0.00288,0.01312,0.00679,0.0127,0.0085
		c-0.07225,0.29471,0.05252,0.59505-0.0295,0.89108c-0.04433,0.15998-0.13486,0.29581-0.203,0.44316
		c-0.02629,0.05684-0.05209,0.04196-0.06089-0.01375c0.03936-0.1152,0.07872-0.23039,0.11808-0.34559
		C21.52909,7.98841,21.52172,7.80002,21.48388,7.6114z"/>
	<path fill="#202020" d="M3.50477,3.48876C3.26598,3.49205,3.0689,3.30014,3.06773,3.06317
		C3.06655,2.82553,3.2611,2.63229,3.50051,2.63331c0.23208,0.00098,0.4237,0.18755,0.42905,0.41773
		C3.93507,3.28836,3.74379,3.48547,3.50477,3.48876z"/>
	<path fill="#415F45" d="M16.47426,6.41229c-0.06855-0.31754-0.01814-0.63907-0.03137-0.95849
		c-0.0029-0.07007,0.05774-0.05957,0.10476-0.06162c1.07499-0.0468,1.90012,0.70256,1.93665,1.76275
		c0.00761,0.22099-0.00082,0.44249,0.00525,0.66357c0.00226,0.08223-0.02157,0.11605-0.10651,0.11002
		c-0.12597-0.00893-0.25458,0.01516-0.37744-0.03133c0.09194-0.07922,0.20359-0.03139,0.33251-0.05402
		c-0.59834-0.04358-1.07921-0.26415-1.43638-0.72378c-0.35804-0.46076-0.40415-0.99409-0.37062-1.54759
		c-0.0116,0.10635-0.00764,0.21163-0.00839,0.31683c-0.00079,0.11063,0.00214,0.22133-0.00112,0.33188
		C16.51964,6.28697,16.53565,6.35959,16.47426,6.41229z"/>
	<path fill="#415F45" d="M21.01139,6.27806c-0.00449,0.5803-0.46992,1.26456-0.98825,1.45289
		c-0.18136,0.02489-0.35286,0.1004-0.53939,0.10094c-0.05236,0.00015-0.10493,0.0126-0.15802,0.01206
		c-0.18287-0.00183-0.24222-0.05129-0.2411-0.23327c0.00196-0.31986-0.02752-0.64083,0.02766-0.9594
		c0.01992-0.11499,0.05305-0.22412,0.11979-0.32145c0.06823-0.18506,0.20241-0.25109,0.39564-0.22675
		c0.10924,0.01376,0.22181-0.01138,0.33046,0.01957c0.09358,0.08379-0.00266,0.13071-0.04455,0.17323
		c-0.12034,0.12217-0.21853,0.25667-0.28316,0.41502c-0.06481,0.1588-0.08106,0.32428-0.08022,0.49462
		c0.00058,0.11934,0.05145,0.11689,0.13801,0.08008c0.26692-0.1135,0.47926-0.28585,0.61631-0.54444
		c0.03084-0.05818,0.0453-0.13245,0.12292-0.15424c0.01483-0.0171,0.0205,0.06239,0.04337,0.00307
		c0.04973-0.12899,0.05686-0.27421,0.14867-0.38728c0.08409-0.04359,0.15582-0.00672,0.21782,0.04335
		C20.89275,6.2908,20.94902,6.29111,21.01139,6.27806z"/>
	<path fill="#355739" d="M19.99652,6.15361c-0.12161-0.00086-0.24465,0.00963-0.36449-0.00526
		c-0.17564-0.02183-0.30609,0.02147-0.37543,0.19304c-0.02578-0.01367-0.01365-0.04462-0.02915-0.06298
		c0.29999-0.57356,1.03527-0.95315,1.7067-0.88587c0.07077,0.00709,0.08946,0.03291,0.0882,0.0969
		c-0.00517,0.26285-0.00755,0.52575-0.01095,0.78863c-0.03591,0.05605-0.05928,0.1239-0.14337,0.03664
		c-0.05991-0.06217-0.1376-0.11753-0.23848-0.10027c-0.03062-0.08692,0.00128-0.17568-0.00776-0.26351
		c-0.00609-0.05921-0.02224-0.11184-0.09314-0.09216c-0.14055,0.039-0.27976,0.08528-0.36756,0.2153
		C20.12181,6.13243,20.0803,6.18631,19.99652,6.15361z"/>
	<path fill="#2E4732" d="M16.47426,6.41229c0.00159-0.28995,0.00209-0.57992,0.00598-0.86985
		c0.00055-0.0407-0.02458-0.11096,0.05197-0.10673c0.05881,0.00325,0.04031,0.06471,0.0414,0.10335
		c0.00858,0.30408-0.02307,0.60963,0.05319,0.91072c0.18245,0.72039,0.76766,1.23383,1.50791,1.3199
		c0.07841,0.00912,0.15411,0.03649,0.23527,0.03072c0.03547-0.00252,0.08254-0.00271,0.0769,0.05264
		c-0.00425,0.04165-0.04382,0.03882-0.07497,0.03937c-0.12209,0.00216-0.2442,0.00328-0.36631,0.00478
		C17.27525,7.87156,16.50639,7.12602,16.47426,6.41229z"/>
	<path fill="#334C36" d="M19.22744,6.2784c0.02396,0.0145,0.02864,0.03779,0.02915,0.06298
		c-0.10332,0.16834-0.11501,0.36004-0.12466,0.5471c-0.01277,0.24733,0.00292,0.49601-0.00562,0.74371
		c-0.00472,0.13699,0.0529,0.18083,0.17972,0.16697c0.21464-0.02347,0.43312-0.02184,0.6385-0.10369
		c0.031-0.01235,0.09468-0.06703,0.0786,0.03548c-0.29453,0.19201-0.62693,0.19915-0.96189,0.19484
		c-0.04955-0.00064-0.0821-0.01511-0.08117-0.07122c0.00797-0.48261-0.05145-0.97252,0.15333-1.43388
		C19.15613,6.36949,19.19569,6.32565,19.22744,6.2784z"/>
	<path fill="#446148" d="M18.00456,8.91565c-0.06583-0.13491-0.06146-0.29594-0.01743-0.41195
		c0.05864-0.15448,0.24093-0.03522,0.36595-0.06299c0.04921-0.01093,0.13306-0.02352,0.12862,0.06843
		c-0.00647,0.13392,0.03302,0.27056-0.02113,0.40184C18.45429,8.90693,18.448,8.90288,18.4416,8.899
		c-0.0323-0.04447-0.07332-0.07796-0.13101-0.07307c-0.1699,0.01441-0.22498-0.07587-0.21799-0.22737
		c0.00062-0.01334-0.00159-0.02988-0.02414-0.03743c-0.03525,0.10511,0.00571,0.21781-0.03176,0.32184
		C18.02939,8.89727,18.0188,8.90825,18.00456,8.91565z"/>
	<path fill="#436047" d="M19.00028,8.46447c0.14031-0.05894,0.28659-0.01549,0.42987-0.02285
		c0.0577-0.00297,0.05779,0.04893,0.05713,0.09178c-0.00179,0.11452-0.00389,0.22904-0.00587,0.34356
		c-0.08699-0.0102-0.16348-0.05778-0.25451-0.06069c-0.09388-0.003-0.13539-0.07365-0.13759-0.16012
		C19.0873,8.57729,19.0521,8.51819,19.00028,8.46447z"/>
	<path fill="#3A523E" d="M19.00028,8.46447c0.10877-0.0144,0.14206,0.04046,0.12872,0.13816
		c-0.01868,0.13674,0.03986,0.2012,0.17867,0.17779c0.0884-0.0149,0.13576,0.02914,0.17374,0.09654
		c-0.0087,0.0866-0.07681,0.05443-0.12207,0.05567c-0.38059,0.01038-0.38098,0.0095-0.37581-0.36367
		C18.984,8.53394,18.96955,8.49521,19.00028,8.46447z"/>
	<path fill="#355739" d="M21.48388,7.6114c0.06342,0.18882,0.07272,0.37722-0.00454,0.56493
		C21.51921,7.98833,21.50041,7.79986,21.48388,7.6114z"/>
	<path fill="#446148" d="M18.46058,8.91099c-0.15159,0.04119-0.30368,0.03487-0.45601,0.00466
		c0.00387-0.00411,0.00777-0.00819,0.01169-0.01225c0.14476-0.06585,0.28981-0.06383,0.43511-0.00184L18.46058,8.91099z"/>
	<path fill="#415F45" d="M11.58432,6.20968c0.39371-0.6017,0.96823-0.83779,1.67129-0.81595
		c0.05877,0.00183,0.08885,0.02062,0.0866,0.08281c-0.01444,0.39876,0.0452,0.80229-0.08052,1.1938
		c-0.13596,0.42341-0.39318,0.75422-0.76951,0.99373c-0.02964,0.01886-0.05843,0.04835-0.10068,0.03652
		c-0.18062,0.03305-0.34631,0.11573-0.53304,0.13602c-0.42219,0.04586-0.47134,0.01064-0.4705-0.41074
		c0.00057-0.28907-0.01509-0.57862,0.06333-0.86326C11.48506,6.44,11.56222,6.33538,11.58432,6.20968z"/>
	<path fill="#355739" d="M8.78071,6.34645C8.72853,6.05321,8.76819,5.75741,8.75592,5.46305
		C8.75301,5.39328,8.80323,5.39589,8.85345,5.39246c1.02328-0.07006,1.8774,0.66456,1.93983,1.67919
		c0.01617,0.26271,0.00233,0.52724,0.00228,0.79094c-0.5503-0.03298-1.05514-0.1716-1.44462-0.59368
		c-0.27831-0.30159-0.44167-0.64984-0.48832-1.058C8.83824,5.99759,8.83657,5.78474,8.83157,5.57124
		C8.8259,5.76539,8.82935,5.95947,8.82632,6.15347C8.82527,6.22016,8.83976,6.29244,8.78071,6.34645z"/>
	<path fill="#2A452E" d="M8.78071,6.34645C8.78208,6.0775,8.78267,5.80855,8.78566,5.53963
		c0.00043-0.03829-0.01881-0.1004,0.03986-0.10387c0.07574-0.00448,0.05221,0.06577,0.05241,0.10676
		c0.0018,0.36247-0.01291,0.7279,0.123,1.07356c0.25752,0.65494,0.72349,1.05397,1.43835,1.15829
		c0.11736,0.01713,0.25962-0.0244,0.35627,0.08823c0.00993,0.06813-0.03987,0.05891-0.08104,0.0624
		c-0.90583,0.0768-1.7331-0.53461-1.92178-1.42221C8.78196,6.45209,8.78442,6.39862,8.78071,6.34645z"/>
	<path fill="#304933" d="M11.58432,6.20968c0.03507,0.0199,0.03609,0.04635,0.01861,0.07959
		c-0.23348,0.44409-0.15662,0.92532-0.16888,1.39588c-0.00241,0.09248,0.05386,0.11371,0.13441,0.1144
		c0.26157,0.00223,0.51794-0.02191,0.76173-0.12621c0.01859-0.00795,0.09095-0.08909,0.06131,0.02726
		c-0.30753,0.20668-0.65461,0.23675-1.01167,0.22507c-0.05177-0.00169-0.08043-0.01663-0.07808-0.07229
		c0.01637-0.38811-0.04855-0.78115,0.06227-1.16329C11.41324,6.52035,11.46177,6.34754,11.58432,6.20968z"/>
	<path fill="#344D37" d="M13.88599,7.32065c0.15012,0.41571,0.07189,0.91419-0.17354,1.23705
		c-0.01651,0.02173-0.03593,0.0133-0.04988-0.0074c0.14034-0.32191,0.21542-0.64926,0.11422-1.00055
		C13.75016,7.45735,13.83692,7.39168,13.88599,7.32065z"/>
	<path fill="#456148" d="M11.31298,8.46543c0.14576-0.06221,0.29768-0.01483,0.44646-0.02362
		c0.02964-0.00175,0.04922,0.02634,0.04694,0.05314c-0.01175,0.138,0.03631,0.27906-0.02125,0.41455
		c-0.05778-0.06012-0.12759-0.08786-0.21218-0.08709c-0.09594,0.00087-0.15006-0.05086-0.14795-0.14613
		C11.42706,8.58284,11.38929,8.51532,11.31298,8.46543z"/>
	<path fill="#354E39" d="M11.31298,8.46543c0.11473-0.01637,0.17392,0.02449,0.15215,0.14687
		c-0.02598,0.14603,0.0448,0.18945,0.17894,0.16959c0.09812-0.01452,0.15506,0.01864,0.14106,0.12761
		c-0.13709,0.05123-0.27891,0.01486-0.41839,0.02072c-0.05479,0.0023-0.06506-0.04211-0.06367-0.08858
		C11.30681,8.71625,11.30973,8.59083,11.31298,8.46543z"/>
	<path fill="#38593C" d="M10.31136,8.46339c0.1413-0.05752,0.28818-0.01215,0.43209-0.02231
		c0.0286-0.00202,0.0549,0.01979,0.05265,0.04736c-0.01159,0.14187,0.03836,0.28768-0.02678,0.42603
		c-0.05284-0.05037-0.10543-0.09378-0.18804-0.09296c-0.11461,0.00114-0.17933-0.05792-0.15633-0.1772
		C10.44425,8.54419,10.37288,8.50886,10.31136,8.46339z"/>
	<path fill="#38513B" d="M10.31136,8.46339c0.14884-0.02307,0.19477,0.05582,0.15836,0.18025
		c-0.0393,0.13435,0.03432,0.1441,0.12936,0.13705c0.10143-0.00753,0.18007,0.00548,0.17022,0.13377
		c0,0-0.0008-0.00143-0.0008-0.00143c-0.15082,0.0139-0.30159,0.024-0.45196-0.00474
		C10.27514,8.76045,10.2824,8.61204,10.31136,8.46339z"/>
	<path fill="#37503B" d="M14.3071,6.56311c-0.03926,0.22485-0.16393,0.41405-0.26368,0.61312
		c-0.03395,0.06775-0.05056,0.01743-0.06049-0.02062c0.08516-0.20932,0.17033-0.41863,0.25549-0.62795
		c0.00577,0.00284,0.01155,0.00569,0.0174,0.00831C14.27024,6.54991,14.28994,6.55417,14.3071,6.56311z"/>
	<path fill="#B9C1BA" d="M14.33487,5.18082C14.33,5.188,14.33093,5.19435,14.33765,5.19987
		c0.02363,0.11824,0.03181,0.23917,0.06286,0.35612c0.00072,0.05052,0.00144,0.10105,0.00216,0.15157
		c0.03642,0.13981-0.02682,0.26807-0.0471,0.40138c-0.01178,0.0161-0.02707,0.02057-0.04578,0.01349
		c-0.00059-0.31827-0.00119-0.63654-0.00178-0.95482C14.32428,5.15734,14.33287,5.16247,14.33487,5.18082z"/>
	<path fill="#2E4832" d="M14.33487,5.18082c-0.00854-0.00523-0.01749-0.00963-0.02686-0.0132
		c-0.01993-0.2053-0.08282-0.40074-0.13921-0.59768C14.31522,4.74918,14.31421,4.9679,14.33487,5.18082z"/>
	<path fill="#37503B" d="M14.30979,6.12243c0.00844-0.00365,0.01669-0.00768,0.02474-0.01211
		c0.07568,0.16238-0.00393,0.29324-0.08724,0.42334l-0.00887-0.00602C14.26221,6.39258,14.286,6.25751,14.30979,6.12243z"/>
	<path fill="#38593C" d="M10.31655,8.90829c0.15064,0.00157,0.30128,0.00314,0.45194,0.00472
		C10.6175,8.94485,10.46675,8.95234,10.31655,8.90829z"/>
	<path fill="#2E4832" d="M13.59494,3.55558c0.06506,0.02043,0.1052,0.05989,0.10238,0.13214
		C13.66319,3.64368,13.62906,3.59963,13.59494,3.55558z"/>
	<path fill="#2E4832" d="M13.94005,4.0638c0.07897,0.01234,0.08217,0.06879,0.07691,0.13016
		C13.99132,4.15057,13.96568,4.10718,13.94005,4.0638z"/>
	<path fill="#2E4832" d="M13.92396,3.71082c0.01805,0.04384,0.06876,0.07147,0.06386,0.12671
		c-0.05115-0.02789-0.09314-0.06259-0.09575-0.12663C13.9027,3.71082,13.91333,3.7108,13.92396,3.71082z"/>
	<path fill="#2E4832" d="M14.24729,6.53367c0.06898-0.133,0.09106-0.27552,0.08726-0.42332
		c-0.00452-0.13882,0.02631-0.27172,0.06812-0.40279c0.06289-0.14652,0.02575-0.29592,0.01714-0.44564
		c-0.01416-0.24632-0.08567-0.48314-0.1126-0.72703c0.10416,0.1979,0.11616,0.41861,0.15985,0.63165
		c0.07438,0.36269,0.00513,0.71649-0.06555,1.06975c-0.02219,0.11091-0.09448,0.20873-0.09441,0.32681
		c-0.01568,0.0124-0.03629,0.03824-0.04611,0.03469C14.23085,6.58688,14.24962,6.55625,14.24729,6.53367z"/>
	<path fill="#2E4832" d="M14.11562,4.05958c0.0886,0.11207,0.14368,0.23802,0.15969,0.38013
		C14.20029,4.32202,14.13936,4.19849,14.11562,4.05958z"/>
	<path fill="#2E4832" d="M14.40051,5.55599c-0.05731-0.11238-0.06458-0.23347-0.06285-0.35612
		C14.38419,5.31413,14.40751,5.43243,14.40051,5.55599z"/>
	<path fill="#FEFEFE" d="M17.97686,7.22876c0.00782,0.13176-0.04341,0.15228-0.16733,0.11125
		c-0.53111-0.17586-0.89889-0.74072-0.85311-1.31407c0.01252-0.15678,0.10638-0.03812,0.15854-0.05756
		c0.03693-0.01166,0.07252-0.00686,0.10855,0.00584c0.41508,0.14628,0.82405,0.77259,0.78374,1.2012
		C18.00519,7.19733,17.99289,7.21428,17.97686,7.22876z"/>
	<path fill="#2F4933" d="M17.97686,7.22876c-0.01575-0.41214-0.14908-0.76934-0.47959-1.04014
		c-0.11626-0.09525-0.25258-0.15089-0.38231-0.22025c-0.01121-0.04877-0.05837-0.10272-0.00871-0.14592
		c0.05032-0.04378,0.09694,0.01342,0.14388,0.02965c0.59657,0.20627,0.85629,0.72929,0.85633,1.26307
		C18.10647,7.19937,18.10664,7.28834,17.97686,7.22876z"/>
	<path fill="#FEFEFE" d="M19.99652,6.15361c0.05902-0.02059,0.11204-0.05052,0.15415-0.09746
		c0.09811-0.08147,0.21075-0.18313,0.33519-0.12304c0.11308,0.0546,0.05878,0.1994,0.05753,0.30413
		c-0.00148,0.1241-0.01284,0.25197-0.10954,0.34978c-0.15709,0.34322-0.39227,0.60932-0.7556,0.74584
		c-0.17312,0.06505-0.17081,0.06159-0.17628-0.11624C19.48852,6.77953,19.67909,6.43799,19.99652,6.15361z"/>
	<path fill="#324D36" d="M20.43384,6.58702c0.03046-0.17314,0.0737-0.3431,0.07549-0.52208
		c0.00126-0.1262-0.04976-0.12716-0.1392-0.09421c-0.07365,0.02714-0.14635,0.05684-0.21947,0.08541
		c-0.02444-0.00517-0.06687-0.01826-0.02856-0.04182c0.12946-0.0796,0.25478-0.17061,0.40734-0.20514
		c0.07854-0.01778,0.13982-0.006,0.13182,0.09608c-0.00809,0.10331,0.02367,0.21065-0.03173,0.30918
		C20.57247,6.36417,20.5534,6.52892,20.4501,6.6819C20.44232,6.63649,20.43808,6.61176,20.43384,6.58702z"/>
	<path fill="#38513C" d="M18.45137,8.90156c-0.14506,0.00064-0.29012,0.00128-0.43515,0.00188
		c-0.0015-0.11552-0.00356-0.231-0.00428-0.34649c-0.00027-0.04368,0.00335-0.08797,0.06431-0.08655
		c0.06028,0.0014,0.06803,0.04712,0.06117,0.0892c-0.02891,0.17729,0.036,0.25402,0.22177,0.22352
		C18.45047,8.76813,18.46577,8.82727,18.45137,8.90156z"/>
	<path fill="#FEFEFE" d="M12.67705,6.7494c-0.18239,0.27521-0.40658,0.49835-0.73339,0.60259
		c-0.09974,0.03182-0.12433,0.01386-0.12769-0.09289c-0.01578-0.50159,0.19776-0.88295,0.59932-1.17188
		c0.07667-0.1211,0.20742-0.14553,0.33164-0.17531c0.05822-0.01396,0.09899,0.02366,0.10902,0.08556
		c-0.01418,0.1292,0.00464,0.25988-0.01644,0.38886C12.79778,6.51274,12.79503,6.65655,12.67705,6.7494z"/>
	<path fill="#3B533E" d="M12.8347,5.98016c-0.16689-0.06887-0.28586,0.04721-0.4194,0.10706
		c-0.0758-0.02683-0.01789-0.05811,0.00378-0.06962c0.13445-0.07145,0.26928-0.14311,0.40882-0.20373
		c0.05656-0.02457,0.13003-0.03268,0.13777,0.06781c0.02451,0.31827-0.03318,0.61521-0.22584,0.87865
		c-0.03263,0.04461-0.05231,0.05224-0.06278-0.01094c0.03933-0.11597,0.07866-0.23194,0.11799-0.34791
		C12.86412,6.26623,12.79136,6.11781,12.8347,5.98016z"/>
	<path fill="#FDFEFD" d="M10.28135,6.97506c0.00084,0.09431-0.00512,0.1893,0.0043,0.28277
		c0.01117,0.1108-0.0295,0.12007-0.12552,0.0929C9.66524,7.21068,9.30123,6.72566,9.27556,6.16322
		c-0.0012-0.02623,0.00329-0.05328-0.0016-0.07868C9.24883,5.954,9.31013,5.92926,9.42136,5.96285
		c0.27482,0.02852,0.46488,0.19999,0.61847,0.40044C10.17452,6.53907,10.30854,6.7297,10.28135,6.97506z"/>
	<path fill="#2A452E" d="M10.28135,6.97506c-0.07919-0.32514-0.22794-0.60615-0.502-0.8151
		C9.66868,6.07558,9.53856,6.03212,9.42136,5.96285c-0.01548-0.043-0.05098-0.08553-0.00662-0.13087
		c0.0459-0.04692,0.09223-0.00614,0.13245,0.00742c0.54244,0.18294,0.88377,0.68261,0.86383,1.26146
		c-0.00149,0.04328,0.02113,0.11361-0.04481,0.11621c-0.06993,0.00275-0.04383-0.0688-0.04973-0.11131
		C10.31021,7.06054,10.32949,7.00908,10.28135,6.97506z"/>
	<path fill="#415F45" d="M12.8347,5.98016c-0.01141,0.14061,0.04998,0.28796-0.03965,0.42132
		C12.80826,6.26105,12.82148,6.1206,12.8347,5.98016z"/>
</g>
</svg>
