<?xml version="1.0" encoding="utf-8"?>
<!-- Generator: Adobe Illustrator 23.0.0, SVG Export Plug-In . SVG Version: 6.00 Build 0)  -->
<svg version="1.1" id="Слой_1" xmlns="http://www.w3.org/2000/svg" xmlns:xlink="http://www.w3.org/1999/xlink" x="0px" y="0px" width="32px" height="13px"
	 viewBox="0 0 32 13" enable-background="new 0 0 32 13" xml:space="preserve">
<g>
	<path fill="#55718A" d="M0.00225,12.23625c0-2.21853,0-4.43706,0-6.65559c0.01796-0.01273,0.0375-0.01592,0.05868-0.0096
		C0.07813,5.58375,0.09056,5.6,0.09853,5.61971C0.12702,5.71267,0.1171,5.8084,0.11713,5.90305
		c0.00064,1.95427,0.00069,3.90853-0.00002,5.8628c-0.00005,0.1378,0.00338,0.27506,0.03584,0.40938
		c0.08204,0.33946,0.29457,0.55315,0.63578,0.63856c0.1457,0.03647,0.2948,0.03731,0.44415,0.0373
		c5.19367-0.00046,10.38734-0.00054,15.58101,0.00064c0.1098,0.00003,0.22447-0.02317,0.32743,0.03974
		c0.02429,0.02764,0.02707,0.05558,0.00102,0.08384c-0.0635,0.01017-0.12747,0.005-0.19119,0.005
		c-5.31554,0.00028-10.63107,0.00018-15.94661,0.00114c-0.06788,0.00001-0.13821-0.01705-0.20402,0.01545
		c-0.01064,0-0.02129,0-0.03193,0C0.33447,12.92069,0.07903,12.66714,0.00225,12.23625z"/>
	<path fill="#224053" d="M27.59046,0.00265c0.32386,0.10065,0.64818,0.20023,0.93011,0.39754
		c0.09599,0.0898,0.21695,0.14655,0.31493,0.23302c0.04213,0.03717,0.10724,0.09228-0.02023,0.10375
		c-0.14833-0.0627-0.26842-0.17015-0.40653-0.24946c-0.42814-0.24584-0.8798-0.37452-1.38161-0.37416
		c-7.23145,0.00526-14.4629,0.00359-21.69435,0.00364c-0.11701,0-0.23431-0.00442-0.34987,0.01979
		C4.93533,0.14771,4.90621,0.12901,4.89473,0.08234c-0.00418-0.03031,0.00569-0.05643,0.02486-0.0797
		C12.47655,0.00265,20.0335,0.00265,27.59046,0.00265z"/>
	<path fill="#40586D" d="M17.14992,12.96456c-0.00084-0.02076-0.00168-0.04152-0.00251-0.06228
		c0.00674-0.00644,0.01348-0.01288,0.02015-0.01943c0.09112-0.04218,0.18836-0.02633,0.28307-0.02636
		c3.13256-0.00086,6.26512-0.00517,9.39766,0.0021c0.90301,0.0021,1.65092-0.32768,2.29342-0.94147
		c0.89009-0.85031,1.50346-1.8799,1.99246-2.99132c0.3029-0.68844,0.55179-1.39432,0.67312-2.13991
		c0.01756-0.10792-0.00973-0.22394,0.05475-0.3241c0.04657-0.03163,0.09142-0.02704,0.13487,0.00628c0,0.02113,0,0.04226,0,0.06339
		c-0.01669,0.01775-0.02211,0.04057-0.02861,0.06296c-0.03206,0.40668-0.13439,0.79955-0.25625,1.1859
		c-0.37038,1.17435-0.89763,2.27343-1.62596,3.27347c-0.17399,0.2389-0.36882,0.46122-0.55348,0.69204
		c-0.34113,0.35835-0.71779,0.67521-1.15446,0.91001c-0.37153,0.19978-0.76965,0.32535-1.20051,0.32522
		c-3.32396-0.00102-6.64791-0.00026-9.97188-0.00065C17.18521,12.98183,17.1666,12.97654,17.14992,12.96456z"/>
	<path fill="#3B556C" d="M4.91959,0.00265C4.9194,0.0236,4.91921,0.04454,4.91901,0.06549
		c-0.08219,0.06849-0.1816,0.04975-0.27546,0.04985C3.43681,0.11662,2.23007,0.11683,1.02333,0.11547
		C0.80404,0.11522,0.60157,0.15544,0.42999,0.30239C0.23078,0.47301,0.14783,0.69054,0.14818,0.94762
		c0.00105,0.78092,0.00046,1.56184,0.00035,2.34276C0.14844,3.96577,0.14898,4.64117,0.14797,5.31656
		C0.14784,5.40022,0.15885,5.4861,0.11752,5.56523c-0.01286,0.01986-0.03039,0.02543-0.0525,0.0168
		C0.05477,5.58151,0.04453,5.58083,0.0343,5.58C0.00469,5.52527,0.01947,5.46608,0.01944,5.40921
		C0.01852,3.86955,0.01868,2.32989,0.01868,0.7906c0.00296-0.40397,0.23859-0.68793,0.65411-0.78795
		C2.08839,0.00265,3.50399,0.00265,4.91959,0.00265z"/>
	<path fill="#264356" d="M31.99691,6.46808c-0.04213,0.00037-0.08426,0.00074-0.12639,0.00111
		c-0.04101,0.02633-0.07783,0.03098-0.10397-0.0197c0.09461-0.13423,0.06846-0.28203,0.04318-0.42707
		c-0.11863-0.68057-0.3442-1.32775-0.62241-1.95879c-0.32323-0.73315-0.71682-1.4271-1.1876-2.07594
		c-0.29251-0.40315-0.61979-0.77837-1.00661-1.09825c-0.05239-0.04333-0.11103-0.08406-0.12534-0.15814
		c-0.02511-0.11014-0.13666-0.13155-0.20481-0.19748c-0.0468-0.04528-0.1297-0.05282-0.14238-0.13363
		c0.48603,0.27854,0.88571,0.65841,1.23725,1.08412c1.04977,1.27127,1.76888,2.70872,2.15862,4.30762
		c0.02662,0.10919,0.01726,0.22727,0.08047,0.32753C31.99691,6.23566,31.99691,6.35187,31.99691,6.46808z"/>
	<path fill="#697681" d="M17.14992,12.96456c0.01008,0.00054,0.02017,0.00099,0.03026,0.00133
		c0.01094,0.0066,0.0147,0.01339,0.01131,0.02038c-0.00342,0.00707-0.0069,0.01062-0.01048,0.01062c-5.46017,0-10.92033,0-16.3805,0
		c0.058-0.05794,0.13142-0.03039,0.19718-0.03041C6.38177,12.96487,11.76585,12.96477,17.14992,12.96456z"/>
	<path fill="#535F69" d="M17.18102,12.99689c-0.00004-0.01035-0.00031-0.02069-0.00083-0.03101
		c3.2775-0.00022,6.55501-0.00246,9.83251,0.00137c0.52312,0.00061,1.00593-0.12006,1.453-0.38788
		c0.40207-0.24085,0.76404-0.52928,1.07252-0.88202c0.01667-0.01328,0.03168-0.01163,0.04502,0.00495
		c-0.55962,0.62223-1.19935,1.11641-2.05417,1.26771c-0.01268,0.00224-0.02299,0.01763-0.03441,0.02688
		C24.05678,12.99689,20.6189,12.99689,17.18102,12.99689z"/>
	<path fill="#445B6E" d="M29.58325,11.70231c-0.01501-0.00165-0.03001-0.0033-0.04502-0.00495
		c0.58495-0.67699,1.07792-1.41443,1.46782-2.21808c0.38671-0.79708,0.705-1.61876,0.88559-2.48857
		c0.02944-0.14181,0.01912-0.2901,0.07314-0.42758c0.02254,0.01524,0.01037,0.0478,0.03214,0.06343c0,0.05282,0,0.10564,0,0.15847
		c-0.09524,0.24971-0.11495,0.51755-0.19092,0.77244c-0.4443,1.49064-1.11186,2.86475-2.13389,4.05547
		C29.64483,11.64469,29.61297,11.6726,29.58325,11.70231z"/>
	<path fill="#40596F" d="M0.00225,0.73159c0.01041,0.00062,0.02033-0.00128,0.02976-0.00569
		c0.00076,1.61803,0.00152,3.23607,0.00229,4.8541C0.02362,5.58022,0.01293,5.58044,0.00225,5.58067
		C0.00225,3.96431,0.00225,2.34795,0.00225,0.73159z"/>
	<path fill="#767F87" d="M31.99691,6.62654c-0.02835-0.01234-0.03056-0.03772-0.03214-0.06343
		c0.01071-0.01055,0.02142-0.0211,0.03214-0.03165C31.99691,6.56316,31.99691,6.59485,31.99691,6.62654z"/>
	<path fill="#44637F" d="M0.06501,5.58203c0.01108-0.00052,0.02215-0.00105,0.03323-0.00157
		C0.29903,5.57332,0.47142,5.7265,0.51806,5.95484c0.01918,0.09388,0.01422,0.18933,0.01423,0.28428
		c0.00023,1.83743,0.00013,3.67487,0.00024,5.5123c0,0.0739-0.00312,0.14799,0.0047,0.22161
		c0.02509,0.23633,0.21904,0.43165,0.45697,0.4597c0.09,0.01061,0.18068,0.00607,0.27107,0.00607
		c5.06421,0.00015,10.12843,0.0001,15.19264,0.00034c0.10625,0,0.2132-0.00696,0.31823,0.01487
		c0.24135,0.05015,0.4057,0.24731,0.37457,0.44729c0,0-0.00326,0.00097-0.00328,0.00097
		c-5.35061-0.00019-10.7012,0.00002-16.05179-0.00167c-0.29248-0.00009-0.557-0.06506-0.77498-0.29268
		c-0.19685-0.20555-0.25176-0.44722-0.25226-0.70683C0.06445,9.86338,0.06622,7.82564,0.06616,5.7879
		C0.06615,5.71928,0.06541,5.65065,0.06501,5.58203z"/>
	<path fill="#2D4961" d="M17.15071,12.90131c-0.09488-0.31028-0.23031-0.41146-0.55219-0.41146
		c-5.16477-0.00008-10.32954-0.00299-15.49428,0.00654c-0.33501,0.00062-0.63228-0.29433-0.62989-0.6214
		c0.01396-1.91106,0.00686-3.82227,0.00683-5.73343c-0.00001-0.32157-0.07916-0.43741-0.38294-0.5611
		C0.09817,4.02238,0.09779,2.4643,0.09819,0.90622c0.00012-0.47818,0.36436-0.83981,0.8459-0.84005
		c1.32498-0.00066,2.64996-0.0005,3.97493-0.00068c0.00131,0.02604,0.00665,0.05009,0.03223,0.06412
		c0.04718,0.01833,0.07453,0.0584,0.10457,0.09509c0.09342,0.11413,0.21541,0.16802,0.36191,0.17205
		C5.49755,0.39895,5.57737,0.3983,5.65719,0.3983c7.02476,0.00005,14.04953,0.00481,21.07427-0.00903
		c0.55958-0.0011,1.03779,0.15814,1.51309,0.41069c0.69686,0.37027,1.19596,0.93609,1.64209,1.56422
		c0.43946,0.61874,0.72291,1.31471,1.03162,1.99851c0.20493,0.45392,0.37786,0.92019,0.48082,1.40819
		c0.05556,0.26333,0.19676,0.47313,0.37417,0.66587c0.02349,0.03718,0.06203,0.02988,0.09726,0.03244
		c0.01048,0.39972-0.09508,0.78104-0.2064,1.15764c-0.26049,0.88128-0.62953,1.71888-1.08922,2.51546
		c-0.26581,0.46062-0.56639,0.89807-0.91938,1.30018c-0.27622,0.31465-0.56451,0.61556-0.90502,0.8604
		c-0.44419,0.3194-0.92635,0.53756-1.48893,0.57469c-0.26537,0.01752-0.52958,0.02252-0.79411,0.0227
		C23.36187,12.90233,20.25629,12.90143,17.15071,12.90131z"/>
	<path fill="#123247" d="M31.77324,6.43674c-0.26313-0.1191-0.35271-0.36259-0.40735-0.60972
		c-0.16984-0.76821-0.50239-1.47338-0.82302-2.18464c-0.25038-0.55542-0.56479-1.06906-0.92452-1.56276
		c-0.57652-0.79122-1.34566-1.29998-2.2594-1.61678c-0.06256-0.02169-0.13627-0.01587-0.2048-0.01588
		C19.9227,0.44633,12.69125,0.44611,5.4598,0.44748C5.21793,0.44753,5.03774,0.36653,4.95125,0.12961
		c0.00577-0.04409,0.03165-0.06375,0.07578-0.06324C5.07492,0.06693,5.12281,0.06602,5.1707,0.06602
		c7.31127-0.00002,14.62255,0.0016,21.93382-0.00302c0.60312-0.00038,1.11278,0.22552,1.59488,0.54996
		c0.05691,0.0383,0.11229,0.07884,0.16838,0.11834c0.65288,0.51284,1.15169,1.15698,1.58487,1.85349
		c0.47793,0.76845,0.86947,1.57963,1.14829,2.44022c0.13395,0.41345,0.26266,0.83116,0.26823,1.27268
		C31.87001,6.36564,31.88414,6.44408,31.77324,6.43674z"/>
	<path fill="#3B556B" d="M27.81405,11.9194c-0.18305,0.16484-0.41986,0.15144-0.64095,0.18915
		c-0.03618,0.00617-0.07434,0.0009-0.11159,0.0009c-8.62529,0-17.25057,0-25.87586,0c-0.29593,0-0.32124-0.02461-0.32124-0.31255
		C0.8644,8.23723,0.86439,4.67758,0.86442,1.11792c0-0.25607,0.03558-0.29121,0.29484-0.29121
		C9.80583,0.8267,18.45241,0.82635,27.09898,0.82833c0.27732,0.00006,0.54353,0.06248,0.77902,0.22012
		c-0.06152,0.04942-0.12169,0.01769-0.18011-0.00538c-0.21048-0.0831-0.42745-0.11035-0.65455-0.11028
		c-8.5801,0.00253-17.1602,0.00218-25.7403,0.00204C0.94717,0.93482,0.97347,0.91764,0.97347,1.26058
		C0.97343,2.90787,0.97332,4.55516,0.97378,6.20245c0.00003,0.08931-0.00907,0.17972,0.02154,0.26678
		c0.01132,0.05741,0.00973,0.11559,0.00975,0.17359c0.00042,1.24548,0.00043,2.49097,0,3.73645
		c-0.00002,0.058,0.00133,0.11617-0.00914,0.17369c-0.04437,0.17191-0.01786,0.34696-0.02126,0.52046
		c-0.00476,0.24284-0.0024,0.48585-0.00074,0.72877c0.00121,0.17778,0.02067,0.19551,0.20511,0.19874
		c0.05851,0.00102,0.11705,0.0003,0.17558,0.0003c8.57168,0,17.14336-0.0002,25.71505,0.00124
		c0.20387,0.00003,0.40341-0.00831,0.59402-0.08908C27.71285,11.89255,27.7656,11.87794,27.81405,11.9194z"/>
	<path fill="#3C566C" d="M27.81405,11.9194c-0.51116,0.20747-1.04791,0.12318-1.57399,0.12347
		c-8.35214,0.00459-16.70428,0.00323-25.05642,0.00322c-0.25536,0-0.25539-0.00004-0.25541-0.248
		c-0.00003-0.35906-0.00092-0.71812,0.00095-1.07717c0.00029-0.05548-0.02125-0.11749,0.03078-0.1644
		c0.06986,0.07021,0.02474,0.16882,0.06253,0.24704c0.01384,0.05268,0.02872,0.10521,0.02096,0.16064
		c-0.00596,0.27806,0.00195,0.55615-0.0037,0.83407c-0.00243,0.11969,0.04216,0.17152,0.16583,0.16863
		c0.3011-0.00703,0.60248,0.00716,0.90363-0.00898c0.2533,0.00902,0.50654,0.01857,0.75989-0.00181
		c0.14357,0.006,0.28709,0.0067,0.43065,0.00669c3.36029-0.00021,6.72059-0.00011,10.08088-0.00023
		c0.0638,0,0.12761-0.00113,0.1912,0.00545c3.13132,0.00373,6.26264,0.00103,9.39396,0.00116
		c1.2227,0.00005,2.44542,0.00467,3.66768-0.00421c0.318,0.01047,0.63562,0.03401,0.94795-0.06779
		c0.33663-0.10972,0.61814-0.30513,0.87638-0.53519c0.41399-0.36884,0.75975-0.79639,1.05968-1.2606
		c0.46117-0.71376,0.83593-1.46928,1.11023-2.273c0.08526-0.2311,0.15416-0.46689,0.20589-0.70768
		c0.06871-0.15984,0.08442-0.33144,0.11249-0.5003c0.03728-0.21861,0.01855-0.43295-0.04878-0.64364
		c-0.04468-0.26704-0.12885-0.52317-0.21931-0.77781c-0.46206-1.30531-1.10528-2.50411-2.09931-3.49273
		c-0.29574-0.29413-0.63881-0.52489-1.04399-0.65169c-0.14902-0.04664-0.3025-0.05284-0.45764-0.05283
		C19.57028,1.00242,12.06348,1.0023,4.55669,1.00225c-0.05852,0-0.11712,0.0027-0.17553-0.00279
		C4.06859,1.00552,3.75589,0.99725,3.44325,1.00675c-0.0299-0.00183-0.05772-0.0112-0.08486-0.02282
		c-0.38677-0.02807-0.7734-0.0334-1.15987,0.0048c-0.21966,0.0145-0.43959,0.01121-0.6594,0.01102
		C1.43872,1.0029,1.3382,1.00163,1.23771,1.00287C1.05489,1.00512,1.04333,1.01612,1.04199,1.2033
		C1.04018,1.45536,1.04196,1.70743,1.04124,1.9595C1.04106,2.02251,1.04074,2.08558,1.02836,2.14783
		C0.97307,2.45083,1.02462,2.75716,0.99915,3.06101c-0.00271,0.03236,0.0459,0.00796,0.04277,0.03979
		c0.00622,0.3321,0.00017,0.66403,0.00084,0.99596C1.04414,4.78229,1.04348,5.46784,1.0428,6.15338
		C1.04272,6.23743,1.05008,6.32238,1.02467,6.40489C1.01295,6.43592,0.99311,6.45884,0.95993,6.46825
		c-0.05187-0.047-0.03077-0.10901-0.03081-0.16451C0.92803,4.56615,0.92816,2.82856,0.92834,1.09097
		c0.00002-0.20031,0.00068-0.20084,0.20709-0.20084c8.69452-0.00009,17.38904,0.00009,26.08356-0.00119
		c0.18032-0.00003,0.34309,0.05984,0.50756,0.11798c0.04982,0.01761,0.0953,0.04762,0.15145,0.04153
		c0.2265,0.07508,0.40225,0.23035,0.58216,0.37474c0.61599,0.49433,1.04236,1.13885,1.44636,1.80314
		c0.38788,0.63778,0.68971,1.31316,0.92676,2.0172c0.12388,0.36792,0.24591,0.74228,0.25808,1.13266
		c0.00726,0.23299-0.04317,0.46833-0.10167,0.69765c-0.18419,0.722-0.45702,1.41256-0.78337,2.08028
		c-0.16282,0.33314-0.33559,0.66619-0.57205,0.95875c-0.03704,0.09459-0.10953,0.16715-0.15989,0.25346
		c-0.01064,0.01058-0.02129,0.02115-0.03193,0.03173c-0.04251,0.06345-0.07895,0.1309-0.12773,0.1902l0.00008-0.00003
		c-0.28934,0.38288-0.62215,0.7249-0.99305,1.02989c-0.09694,0.07971-0.20723,0.14275-0.31619,0.20614
		c-0.02121,0.0106-0.04242,0.02121-0.06363,0.03181c-0.03605,0.03424-0.08711,0.03863-0.12794,0.06338L27.81405,11.9194z"/>
	<path fill="#3B556B" d="M28.00556,11.82424c0.33332-0.23922,0.64181-0.50603,0.92367-0.804
		c0.13285-0.14045,0.22965-0.31223,0.38557-0.43203c-0.03478,0.15409-0.16523,0.24128-0.25995,0.34989
		c-0.28427,0.32599-0.59215,0.62915-0.95792,0.86737C28.07275,11.82123,28.0363,11.81842,28.00556,11.82424z"/>
	<path fill="#3B556B" d="M29.47438,10.36631c0.01201-0.11014,0.09805-0.17428,0.15988-0.25346
		C29.62518,10.22481,29.56455,10.30474,29.47438,10.36631z"/>
	<path fill="#3B556B" d="M29.31472,10.58824c0.0204-0.07807,0.06011-0.14337,0.12773-0.1902
		C29.42952,10.48106,29.39129,10.54733,29.31472,10.58824z"/>
	<path fill="#3B556B" d="M27.814,11.91943c0.03246-0.04138,0.07712-0.05849,0.12793-0.06338
		C27.91752,11.91344,27.86876,11.92239,27.814,11.91943z"/>
	<path fill="#43505B" d="M0.99234,10.81015c-0.06442-0.07781-0.01784-0.16957-0.03236-0.25364
		C0.95996,9.19375,0.95995,7.831,0.95994,6.46824c0.00804-0.01062,0.01607-0.02123,0.02411-0.03185
		c0.0826,0.07524,0.05833,0.17564,0.05852,0.26712c0.00201,0.94721,0.0016,1.89443,0.00079,2.84164
		C1.04322,9.69779,1.04691,9.8502,1.05484,10.00257c-0.03279,0.1936-0.00252,0.38866-0.01303,0.58277
		C1.03762,10.66275,1.05453,10.74515,0.99234,10.81015z"/>
	<path fill="#805990" d="M4.37637,0.95497c0.07447-0.00085,0.14893-0.00244,0.2234-0.00244
		c7.46998-0.00011,14.93996,0.00257,22.40993-0.00578c0.52984-0.00059,0.95994,0.19297,1.35217,0.50611
		c0.63888,0.51007,1.09508,1.16911,1.50481,1.8634c0.31475,0.53334,0.57728,1.09107,0.79273,1.67084
		c0.02926,0.07875,0.07037,0.1545,0.05805,0.24295c-0.04805,0.18819-0.07857,0.38097-0.1587,0.56058
		c-0.14557,0.32632-0.68917,0.6404-1.04225,0.59979c-0.03783-0.02847-0.07443-0.05661-0.12354-0.06796
		c-0.43397-0.10029-0.7819-0.34322-1.08588-0.65513c-0.31143-0.31957-0.65527-0.59785-1.03418-0.83558
		c-0.42487-0.26656-0.9051-0.38237-1.3791-0.51818c-0.41854-0.11991-0.84547-0.20285-1.2704-0.29557
		c-0.02325-0.01015-0.04379-0.02432-0.06294-0.04067C24.162,3.56019,23.69665,3.24935,23.13413,3.0929
		c-0.65132-0.18115-1.28881-0.1288-1.91493,0.11259c-0.12416,0.03235-0.23644,0.089-0.34567,0.15541
		c-0.06561,0.03989-0.13845,0.08957-0.21661,0.01622c-0.22059-0.3414-0.56267-0.42993-0.93916-0.43975
		c-0.26594-0.00694-0.53214-0.00173-0.79823-0.00172C16.76958,2.93573,14.61963,2.9312,12.4697,2.9384
		c-0.37216,0.00125-0.67713-0.10738-0.90572-0.40551c-0.0385-0.05022-0.08373-0.09563-0.12349-0.14525
		c-0.16961-0.21167-0.38122-0.31231-0.663-0.31128C8.94152,2.08306,7.10552,2.08081,5.26953,2.07919
		C4.80307,2.07877,4.50496,1.87054,4.34271,1.44237C4.33274,1.38915,4.31712,1.33692,4.308,1.28339
		C4.30381,1.24946,4.30275,1.21527,4.30344,1.18108c-0.0004-0.03309,0.00039-0.06621,0.00429-0.0992
		C4.31244,1.02995,4.33673,0.98834,4.37637,0.95497z"/>
	<path fill="#B686BA" d="M1.01689,10.02066C0.97935,9.86517,0.9911,9.70668,0.99087,9.54938
		c-0.00142-0.97457-0.0006-1.94913-0.00098-2.9237C0.98987,6.56259,0.98611,6.49949,0.98407,6.4364
		c0.00218-1.03175,0.0047-2.06349,0.00599-3.09523C0.99017,3.25154,0.99181,3.16297,1.02048,3.077
		C1.00571,3.04524,1.0183,3.01612,1.02895,2.98669C1.143,2.76791,1.26045,2.55212,1.52232,2.4725
		c0.09796-0.0086,0.17672,0.03201,0.24734,0.09418C1.95391,2.71108,2.00108,2.90605,2.0007,3.12954
		C1.99772,4.86679,2.00027,6.60405,1.99794,8.3413c-0.00047,0.3521,0.11748,0.64,0.41711,0.84169
		c0.169,0.11376,0.35937,0.15248,0.56066,0.15236C3.54495,9.335,4.11419,9.33406,4.68343,9.33564
		C5.10738,9.33682,5.34462,9.52341,5.44738,9.932c0.1022,0.40635,0.42161,0.67184,0.8428,0.69987
		c0.07435,0.00495,0.14891,0.00273,0.22338,0.00273c2.09607,0.00007,4.19215-0.00003,6.28822,0.00023
		c0.11154,0.00001,0.22349-0.00471,0.33236,0.02929c0.27806,0.08683,0.47065,0.33245,0.48552,0.62354
		c0.00431,0.08435,0.00389,0.16893-0.00017,0.25325c-0.00273,0.0362,0.00066,0.07274-0.00293,0.10891
		c-0.00075,0.03411,0.00038,0.06839-0.00158,0.10253c-0.00019,0.03287,0.0001,0.06583-0.00099,0.09875
		c0.00013,0.03266-0.00073,0.06529-0.0065,0.09762c-0.00527,0.02481-0.01834,0.04513-0.03685,0.06225
		c-0.05843,0.00126-0.11685,0.00363-0.17528,0.00363c-3.4394,0.00017-6.8788,0.00014-10.3182,0.00024
		c-0.0794,0-0.15954,0.00691-0.23391-0.03053c-0.13649-0.00467-0.21977-0.09867-0.29806-0.18855
		c-0.16108-0.18495-0.24308-0.4037-0.25386-0.64922c-0.0103-0.23453-0.06067-0.29314-0.29531-0.29333
		c-0.4939-0.0004-0.74229-0.32483-0.95771-0.69594C1.01619,10.1191,1.00036,10.06979,1.01689,10.02066z"/>
	<path fill="#855E92" d="M30.65816,7.82907c-0.06841,0.29949-0.19861,0.57682-0.3233,0.85464
		c-0.35745,0.79649-0.78686,1.55381-1.36241,2.21549c-0.38533,0.443-0.80813,0.85219-1.39311,1.04319
		c-0.29057,0.09487-0.58694,0.06938-0.88305,0.06935c-0.03541-0.04434-0.0096-0.08303,0.01926-0.11221
		c0.10284-0.10398,0.16105-0.23445,0.22539-0.36127c0.09347-0.18425,0.24012-0.32323,0.43553-0.37078
		c0.8005-0.19479,1.28555-0.76974,1.72195-1.39624c0.49794-0.71485,0.86712-1.49666,1.15802-2.31552
		c0.02929-0.08244,0.03553-0.17814,0.11693-0.23606C30.55862,7.29591,30.68941,7.57589,30.65816,7.82907z"/>
	<path fill="#896098" d="M30.37131,7.22182c-0.33591,1.05643-0.81728,2.04132-1.49656,2.9226
		c-0.24418,0.31679-0.52574,0.60382-0.87405,0.81853c-0.15683,0.09668-0.32924,0.14469-0.50057,0.19615
		c-0.27038,0.08122-0.47729,0.2318-0.57387,0.49966c-0.04998,0.13862-0.18068,0.2183-0.22999,0.353
		c-0.15414,0.00096-0.30829,0.00279-0.46243,0.00279c-4.15199,0.00016-8.30398,0.00014-12.45598-0.00003
		c-0.06907,0-0.13814-0.00231-0.20721-0.00355c0.00144-0.01991,0.00288-0.03982,0.00432-0.05972
		c0.07768-0.06562,0.17182-0.04582,0.26036-0.04586c2.24537-0.00098,4.49073-0.00076,6.7361-0.00076
		c1.7931,0,3.5862-0.0007,5.3793,0.00119c0.16005,0.00017,0.31789-0.01303,0.47592-0.03389
		c0.17966-0.02371,0.27284-0.15016,0.352-0.29113c0.08863-0.15785,0.18545-0.30644,0.33879-0.41321
		c0.1109-0.07722,0.23207-0.13332,0.35974-0.16675c0.46984-0.12305,0.81569-0.41986,1.11884-0.77534
		c0.73609-0.86315,1.20872-1.86815,1.58709-2.92315c0.01778-0.04957,0.02896-0.10184,0.05948-0.14634
		C30.32635,7.09886,30.35785,7.14297,30.37131,7.22182z"/>
	<path fill="#2D4961" d="M30.37131,7.22182C30.33911,7.19055,30.3069,7.15927,30.27469,7.128
		c-0.03412,0.00048-0.05607-0.02314-0.0815-0.04001c-0.02086-0.01375-0.04283-0.02571-0.06407-0.03898
		c-0.03261-0.02264-0.06628-0.04333-0.10269-0.05973c-0.04712-0.02419-0.09734-0.03926-0.14853-0.05243
		c-0.14661-0.04894-0.29724-0.07009-0.45095-0.08437c-0.14826-0.01377-0.23682-0.15417-0.20477-0.29816
		c0.03286-0.14761,0.14245-0.2196,0.28358-0.18627c0.59598-0.07619,1.04041-0.33666,1.12156-0.9464
		c0.00922-0.06927,0.01135-0.15061,0.09017-0.19159c0.10318,0.23436,0.20031,0.47033,0.19498,0.73314
		c0.0341,0.12791-0.04917,0.21475-0.11608,0.30204c-0.06272,0.08181-0.1405,0.15237-0.221,0.21835
		c-0.02108,0.01567-0.04446,0.02802-0.06627,0.04272c-0.12617,0.08508-0.12495,0.08846-0.00335,0.18153
		c0.10835,0.08292,0.22123,0.16168,0.29564,0.28053c0.02763,0.04414,0.06644,0.08348,0.04733,0.14245
		c-0.00649,0.24811-0.09529,0.47408-0.19059,0.69828C30.61293,7.60321,30.56528,7.37847,30.37131,7.22182z"/>
	<path fill="#2D4961" d="M1.50351,2.50644C1.27501,2.60642,1.16487,2.81,1.05373,3.0127
		C0.9664,2.99642,0.99479,2.92527,0.99401,2.87547c-0.00319-0.20245-0.00392-0.405,0-0.60725
		c0.07677-0.18935,0.25912-0.24106,0.42184-0.31844c0.04292-0.01377,0.08828-0.01805,0.13132-0.03176
		c0.01366-0.0048,0.02774-0.00822,0.04188-0.01123c0.0485-0.00888,0.09917-0.00912,0.14318-0.03582
		C1.79392,1.83521,1.8024,1.77278,1.81769,1.71181c0.04422-0.17634,0.09135-0.35198,0.19383-0.5066
		c0.03573-0.04937,0.06899-0.10066,0.11239-0.14429c0.04099-0.04016,0.07998-0.08283,0.13555-0.10475
		C2.27735,0.95228,2.29478,0.94789,2.3123,0.94272c0.35845-0.0007,0.71686-0.02173,1.0747,0.01102
		C3.39754,0.9639,3.40808,0.97407,3.41863,0.98424c-0.03968,0.14649-0.1755,0.08183-0.26474,0.11929
		C3.07293,1.12029,2.99856,1.154,2.92645,1.19311C2.87358,1.21679,2.83123,1.25551,2.78631,1.29066
		c-0.03751,0.02495-0.07239,0.0529-0.10285,0.0863C2.43984,1.56521,2.34103,1.81541,2.3385,2.11798
		C2.33689,2.31055,2.22338,2.40803,2.02443,2.41989C1.95054,2.42429,1.87669,2.42592,1.80439,2.4432
		C1.70367,2.46212,1.60248,2.47906,1.50351,2.50644z"/>
	<path fill="#2D4961" d="M1.01689,10.02066c0.09051,0.23628,0.25036,0.42403,0.42586,0.60112
		c0.15419,0.15559,0.35426,0.17597,0.55676,0.18518c0.26983,0.01227,0.32588,0.06406,0.33463,0.32569
		c0.01261,0.37669,0.17942,0.66202,0.50914,0.85167c-0.24316,0.04993-0.48616,0.04891-0.72901-0.00212
		c-0.14884-0.06567-0.20818-0.20462-0.22339-0.34154c-0.0279-0.25117-0.15125-0.3673-0.40073-0.39178
		c-0.13694-0.01344-0.25941-0.09166-0.37292-0.17129c-0.04887-0.03428-0.11516-0.0636-0.09211-0.14533
		c-0.02485-0.03702-0.03723-0.07733-0.03279-0.12209C1.00725,10.54719,0.96019,10.28234,1.01689,10.02066z"/>
	<path fill="#B686BA" d="M1.02512,10.93225c0.16272,0.20503,0.39935,0.27209,0.6391,0.31588
		c0.14004,0.02558,0.21168,0.07502,0.22484,0.22189c0.01725,0.19251,0.09558,0.36505,0.22519,0.51217
		c-0.05653,0.06085-0.13005,0.03003-0.19505,0.03095c-0.27053,0.00383-0.54115,0.00142-0.81174,0.00168
		c-0.06009,0.00006-0.11796,0.00477-0.11722-0.08439c0.00262-0.31593,0.0014-0.63189,0.00382-0.94783
		C0.99418,10.96574,1.01431,10.94903,1.02512,10.93225z"/>
	<path fill="#855E93" d="M1.44171,1.96885C1.29159,2.03275,1.1636,2.13323,1.02543,2.2169
		C1.00046,2.20364,0.99429,2.18112,0.99469,2.15537C0.99347,1.79389,0.99407,1.4324,0.98973,1.07095
		C0.98869,0.98418,1.01685,0.94756,1.10757,0.95114c0.14231,0.0056,0.28495,0.00276,0.42745,0.00349
		c0.02348,0.0287,0.01958,0.06047,0.00144,0.08725C1.33827,1.33438,1.43209,1.65579,1.44171,1.96885z"/>
	<path fill="#855E92" d="M30.84873,7.13081c-0.08633-0.17336-0.22586-0.29864-0.38267-0.40509
		c-0.16145-0.10961-0.16399-0.10668,0.0059-0.21827c0.02565-0.01685,0.05503-0.02811,0.08268-0.04196
		c0.12211-0.05815,0.24549-0.01889,0.36559,0.00308c0.09392,0.01718,0.07712,0.09249,0.05591,0.16
		C30.96104,6.80282,30.96375,6.98153,30.84873,7.13081z"/>
	<path fill="#896097" d="M1.44171,1.96885C1.3651,1.95863,1.37559,1.90035,1.37546,1.84899
		C1.37503,1.6711,1.38393,1.49268,1.37272,1.31549c-0.00974-0.15395,0.11743-0.237,0.16231-0.36088
		C1.7594,0.9526,1.98378,0.95056,2.20816,0.94853c0.03448-0.01118,0.06732-0.01961,0.06167,0.03633
		C2.26124,0.98663,2.25257,0.98747,2.2438,0.98738c-0.10224,0.05337-0.2153,0.0455-0.32486,0.05455
		C1.68379,1.06136,1.54532,1.1997,1.52882,1.43489C1.52113,1.54456,1.51083,1.65391,1.51279,1.76418
		c0.00114,0.0645,0.00906,0.12452,0.05615,0.17326C1.53378,1.97685,1.48595,1.96567,1.44171,1.96885z"/>
	<path fill="#8C629B" d="M3.12893,1.07916C3.21399,1.01293,3.3462,1.0885,3.41863,0.98425
		c0.12003-0.06076,0.24864-0.0267,0.37311-0.03009c0.19473-0.00531,0.38974-0.00002,0.58464,0.00079
		C4.36581,0.99674,4.35526,1.03851,4.3447,1.08028C4.29809,1.12304,4.24044,1.12725,4.18118,1.12731
		C3.88443,1.12759,3.58768,1.12792,3.29092,1.12703C3.23251,1.12685,3.17323,1.12739,3.12893,1.07916z"/>
	<path fill="#7F5990" d="M30.97615,6.62856c0.00916-0.09044-0.02119-0.13342-0.12351-0.13162
		c-0.09908,0.00174-0.19858-0.01999-0.29795-0.03143c0.14326-0.15059,0.3082-0.28598,0.35775-0.50233
		c0.102,0.04757,0.05985,0.14872,0.07489,0.2231C31.01676,6.3318,31.03576,6.48272,30.97615,6.62856z"/>
	<path fill="#414F5A" d="M0.99469,2.15537c0.02466,0.01345,0.02947,0.03665,0.03073,0.06157
		C1.02497,2.43779,1.02386,2.65868,1.02457,2.87957C1.02471,2.9253,1.01094,2.97556,1.05374,3.0127
		C1.04266,3.03413,1.03159,3.05557,1.0205,3.07701C0.99688,3.08176,0.96135,3.10105,0.96202,3.05752
		c0.00451-0.29312-0.01833-0.58662,0.01195-0.8793C0.97482,2.16999,0.98752,2.16296,0.99469,2.15537z"/>
	<path fill="#424F5A" d="M2.26983,0.98486c-0.01161-0.02712-0.03741-0.03045-0.0617-0.03629
		c0.07212-0.05263,0.15459-0.02409,0.23169-0.02525c0.26586-0.00399,0.53182-0.00237,0.79773-0.0008
		C3.28854,0.92281,3.34543,0.90506,3.387,0.95373C3.07592,0.95364,2.76484,0.95378,2.45376,0.95324
		C2.39037,0.95313,2.32683,0.94956,2.26983,0.98486z"/>
	<path fill="#9B6DAB" d="M1.79033,2.41098c0.05804-0.0329,0.1222-0.02877,0.18549-0.03052
		c0.25532-0.00704,0.32512-0.06933,0.32586-0.3159c0.00093-0.31106,0.1135-0.55998,0.38124-0.73172
		C2.94762,1.3003,3.21335,1.32388,3.47855,1.31918c0.23373-0.00414,0.46759-0.00124,0.70139-0.00062
		C4.25577,1.31877,4.3304,1.32204,4.37587,1.397c0.14171,0.41699,0.44287,0.63395,0.88102,0.63398
		c1.86729,0.0001,3.73459,0.00163,5.60188-0.0022c0.20657-0.00042,0.37256,0.07073,0.51196,0.21123
		c0.10024,0.10103,0.19786,0.20588,0.28562,0.31756c0.18024,0.22936,0.41808,0.32899,0.7044,0.32902
		c2.45249,0.00024,4.90497-0.00198,7.35745,0.00268c0.32738,0.00062,0.64544,0.058,0.87821,0.3275
		c0.04595,0.0532,0.08782,0.10538,0.09798,0.17663c0.0169,0.02612,0.08094,0.00536,0.06493,0.06433
		c-0.09115,0.10595-0.21768,0.16665-0.32686,0.24942c-0.64469,0.48878-1.01258,1.14114-1.14907,1.92542
		c-0.03973,0.22828-0.01035,0.46327-0.01195,0.69516c-0.00228,0.33222,0.00264,0.66451-0.00219,0.99667
		c-0.00187,0.1287,0.046,0.17825,0.17702,0.17701c0.44625-0.00423,0.89258-0.00269,1.33888-0.0012
		c0.24921,0.00083,0.27222,0.02434,0.27348,0.27234c0.00126,0.24785-0.00416,0.49584,0.00276,0.7435
		c0.00238,0.08518-0.04998,0.19999,0.08168,0.2432c0.13641,0.04476,0.28682,0.00037,0.36703-0.10237
		c0.09717-0.04053,0.09061-0.1251,0.09699-0.20956c0.01038-0.13735-0.04115-0.28259,0.04852-0.41087
		c0.25259-0.07277,0.3269-0.02207,0.33137,0.22695c0.00198,0.1103-0.00322,0.22076,0.00216,0.33093
		c0.00752,0.15406,0.03597,0.16793,0.23285,0.17242c0.12649,0.00289,0.18691-0.03775,0.18018-0.17079
		c-0.00636-0.12571-0.00401-0.25214,0.00031-0.37814c0.00212-0.06164-0.00428-0.12853,0.0589-0.17015
		c0.07725,0.03149,0.06017,0.10213,0.06387,0.16103c0.00737,0.11734-0.00437,0.23572,0.01564,0.35274
		c0.0562-0.17165-0.01724-0.35238,0.04398-0.52309c0.05193-0.0331,0.1103-0.03004,0.16829-0.03086
		c0.12203-0.00173,0.18609,0.054,0.18893,0.17828c0.00275,0.12028-0.00232,0.24069,0.00347,0.36073
		c0.00355,0.07357-0.0311,0.17885,0.06959,0.20243c0.11283,0.02643,0.2396,0.05772,0.3416-0.04277
		c0.01475-0.01453,0.02457-0.03388,0.03846-0.04978c0.10437-0.0323,0.12613-0.1111,0.12528-0.2081
		c-0.0022-0.25103,0.00038-0.50208-0.00124-0.75313c-0.00036-0.05563-0.02021-0.11563,0.02573-0.16482
		c0.07286-0.04308,0.1539-0.03308,0.23257-0.03332c0.39719-0.00124,0.79438-0.00007,1.19157-0.00085
		c0.08472-0.00017,0.17174,0.00439,0.23107-0.07419c0.0855-0.04514,0.11104-0.12046,0.1093-0.21082
		c-0.01133-0.58906,0.04089-1.18032-0.06696-1.76598c-0.08627-0.46847-0.25539-0.90125-0.54552-1.28429
		c-0.03672-0.04848-0.09316-0.09095-0.07595-0.16509c0.32241,0.02864,0.63479,0.1093,0.94574,0.19119
		c0.44983,0.11845,0.90757,0.21626,1.33461,0.40548c0.48924,0.21678,0.90962,0.53547,1.29212,0.90496
		c0.24277,0.23452,0.4713,0.48691,0.78788,0.63002c0.13962,0.06311,0.2793,0.12532,0.43061,0.16046
		c0.02947,0.00685,0.12701-0.01725,0.09371,0.08018c-0.16009,0.02041-0.26468,0.11509-0.2518,0.24333
		c0.01193,0.11882,0.06263,0.21058,0.20847,0.2052c0.16062-0.00593,0.31392,0.02832,0.45934,0.0966
		c0.08779,0.05475,0.05052,0.1309,0.02848,0.19816c-0.20448,0.62403-0.46348,1.2248-0.78441,1.79899
		c-0.27953,0.50012-0.59025,0.97743-1.00402,1.38158c-0.20037,0.19571-0.42416,0.35289-0.69936,0.42451
		c-0.40643,0.10578-0.72201,0.32293-0.91499,0.70349c-0.06766,0.13343-0.18806,0.19665-0.3402,0.19656
		c-0.04789-0.00003-0.09578,0.00067-0.14367,0.00067c-4.07103,0.00003-8.14207,0.00016-12.2131-0.00084
		c-0.09366-0.00002-0.1933,0.02235-0.27658-0.0455c-0.01032-0.2024,0.03227-0.41005-0.10139-0.59621
		c-0.13706-0.19089-0.31159-0.29188-0.54879-0.29179c-2.17079,0.00078-4.34162-0.0066-6.51234,0.00606
		c-0.46769,0.00273-0.96163-0.31792-1.02523-0.80224C5.34546,9.577,5.06653,9.3842,4.74367,9.38398
		c-0.5959-0.00041-1.19181,0.00007-1.78771-0.00017c-0.5986-0.00024-1.00587-0.40769-1.0059-1.00628
		c-0.00009-1.7216-0.00314-3.44322,0.00342-5.16479C1.95443,2.96385,1.92785,2.74059,1.7256,2.57032
		C1.74109,2.51477,1.74782,2.45572,1.79033,2.41098z"/>
	<path fill="#7E6DAC" d="M24.62106,3.99578c0.34876,0.39976,0.56079,0.86745,0.65608,1.38186
		c0.0562,0.30333,0.09343,0.61166,0.0808,0.92454c-0.01297,0.32152-0.00439,0.64397-0.00194,0.96599
		c0.0007,0.0921-0.01723,0.15881-0.12952,0.15066c-0.05775-0.06111-0.04286-0.1381-0.04328-0.21003
		c-0.00189-0.32084,0.00619-0.64187-0.00232-0.96249c-0.01597-0.60162-0.13273-1.1789-0.44706-1.70471
		C24.65515,4.40999,24.5675,4.286,24.46857,4.16839c-0.05073-0.06031-0.12971-0.11531-0.09751-0.21564
		c0.07538-0.04757,0.14719-0.03088,0.21758,0.01165C24.59945,3.97486,24.61026,3.98532,24.62106,3.99578z"/>
	<path fill="#7668A4" d="M24.58864,3.9644c-0.07604,0.00055-0.15207,0.0011-0.22811,0.00166
		c-0.07492,0.0094-0.11394-0.04751-0.16016-0.08808c-0.42274-0.37107-0.90771-0.62063-1.46391-0.72037
		c-0.45442-0.08148-0.90749-0.05029-1.35579,0.05494C21.34466,3.221,21.31013,3.23569,21.27205,3.2341
		c-0.03475-0.00756-0.07319-0.01131-0.06775-0.06203c0.33808-0.13942,0.6875-0.21267,1.05599-0.22531
		c0.68432-0.02346,1.29134,0.17979,1.84154,0.57058C24.28258,3.64572,24.45247,3.7874,24.58864,3.9644z"/>
	<path fill="#986BA8" d="M4.37587,1.397C4.3185,1.36108,4.2544,1.36523,4.1906,1.36528
		C3.75505,1.36562,3.3195,1.36539,2.88395,1.36552C2.81508,1.36555,2.74528,1.3721,2.68294,1.33286
		c0.01901-0.03642,0.04834-0.05901,0.08947-0.06577c0.06808-0.03263,0.13927-0.04513,0.21543-0.04479
		C3.37496,1.22402,3.7621,1.22291,4.14923,1.22323C4.2181,1.22329,4.28839,1.2184,4.34461,1.27043
		C4.35503,1.31262,4.36545,1.35481,4.37587,1.397z"/>
	<path fill="#9569A4" d="M4.34461,1.27043C3.82058,1.26932,3.29655,1.26822,2.77246,1.2671
		c0.03512-0.04425,0.07335-0.08413,0.13368-0.09254c0.09493-0.03532,0.19293-0.0478,0.29434-0.04721
		C3.51701,1.1292,3.83357,1.1278,4.15011,1.12817C4.21866,1.12825,4.28855,1.12363,4.3444,1.17545
		C4.34447,1.20711,4.34454,1.23877,4.34461,1.27043z"/>
	<path fill="#9166A0" d="M4.3444,1.17545C3.86499,1.17515,3.38558,1.17486,2.90615,1.17456
		c0.06423-0.0549,0.13641-0.09151,0.2228-0.09539c0.40524,0.00037,0.8105,0.00074,1.21575,0.00111
		C4.3446,1.112,4.3445,1.14373,4.3444,1.17545z"/>
	<path fill="#7C68A2" d="M21.2043,3.17207c0.0147,0.02726,0.04099,0.03122,0.06815,0.03342
		c-0.1456,0.13068-0.31379,0.21027-0.51162,0.22277c-0.02657-0.00332-0.05259-0.00769-0.06646-0.03486
		C20.87791,3.35041,21.01089,3.19265,21.2043,3.17207z"/>
	<path fill="#9569A4" d="M30.0497,6.97394c0.04323,0.00285,0.07479,0.02467,0.0983,0.05957
		c0.02275,0.17736-0.06893,0.32805-0.12597,0.48314c-0.27806,0.75612-0.63127,1.47706-1.08793,2.14331
		c-0.23586,0.3441-0.49094,0.67533-0.82692,0.93578c-0.18731,0.1452-0.39092,0.25707-0.61825,0.31862
		c-0.35427,0.09592-0.61568,0.29492-0.78001,0.62464c-0.0901,0.18079-0.24717,0.27048-0.4537,0.26795
		c-0.04787-0.00059-0.09578,0.00034-0.14367,0.00034c-4.08685,0.00002-8.17371,0.00016-12.26056-0.00086
		c-0.09362-0.00002-0.19328,0.02256-0.27657-0.04532c-0.00012-0.03173-0.00025-0.06345-0.00037-0.09518
		c0.07779-0.06521,0.17182-0.04583,0.26042-0.04587c2.36737-0.00092,4.73475-0.00069,7.10212-0.00073
		c1.7343-0.00003,3.46861-0.0027,5.20289,0.00345c0.22108,0.00078,0.35889-0.08076,0.45733-0.27038
		c0.15986-0.30797,0.42127-0.50871,0.75333-0.59269c0.44709-0.11307,0.77607-0.38582,1.05722-0.72322
		c0.64778-0.77739,1.09231-1.66763,1.43703-2.61058c0.04166-0.11396,0.08745-0.22651,0.12435-0.34214
		C29.98349,7.03748,29.99833,6.99291,30.0497,6.97394z"/>
	<path fill="#8D629B" d="M30.20827,7.07137c0.02213,0.01891,0.04426,0.03781,0.06641,0.05667
		c-0.0834,0.35512-0.22943,0.6884-0.37283,1.02148c-0.24652,0.57263-0.53904,1.1221-0.90058,1.63215
		c-0.27197,0.38368-0.56751,0.7473-0.96384,1.01682c-0.20906,0.14217-0.44766,0.21353-0.68222,0.29526
		c-0.22115,0.07705-0.39465,0.21756-0.48566,0.42702c-0.137,0.3153-0.3817,0.42882-0.70443,0.43017
		c-0.04255,0.00018-0.08511,0.00007-0.12766,0.00007c-4.15417,0.00008-8.30835,0.00016-12.4625,0.00025
		c-0.0001-0.03169-0.00023-0.06339-0.00035-0.09509c0.07767-0.06549,0.17174-0.04586,0.26026-0.0459
		c2.29225-0.00095,4.58451-0.00074,6.87676-0.00074c1.76573,0,3.53146,0,5.29718-0.00001c0.07977,0,0.15956,0.0002,0.23932-0.00152
		c0.22204-0.00479,0.37981-0.09986,0.47786-0.30504c0.13692-0.28649,0.36386-0.48398,0.67349-0.5629
		c0.54637-0.13927,0.92641-0.49508,1.25808-0.91832c0.6563-0.83748,1.11024-1.77961,1.45314-2.77887
		C30.13211,7.1805,30.1336,7.10478,30.20827,7.07137z"/>
	<path fill="#986BA8" d="M30.0497,6.97394c-0.19624,0.60752-0.42763,1.20154-0.73174,1.76407
		c-0.32665,0.60423-0.68345,1.18879-1.19914,1.66049c-0.19161,0.17527-0.4097,0.30546-0.65729,0.37195
		c-0.37846,0.10164-0.672,0.29664-0.85194,0.65111c-0.08914,0.1756-0.2386,0.2468-0.44242,0.24665
		c-4.19771-0.00319-8.39543-0.00233-12.59313-0.00228c-0.00005-0.0317-0.00012-0.06341-0.00017-0.09511
		c4.18588-0.00004,8.37175-0.00131,12.55761,0.00346c0.20979,0.00024,0.33171-0.07185,0.4256-0.25604
		c0.14166-0.27789,0.36805-0.49381,0.67319-0.56732c0.63474-0.15291,1.03998-0.57871,1.39745-1.07615
		c0.56885-0.79159,0.97255-1.66373,1.28099-2.58235c0.01916-0.05705,0.06017-0.11599,0.01305-0.17925
		C29.97203,6.91762,30.01508,6.93702,30.0497,6.97394z"/>
	<path fill="#9166A0" d="M30.20827,7.07137c-0.17775,0.5298-0.377,1.05054-0.63232,1.54961
		c-0.27402,0.53564-0.57503,1.0526-0.96735,1.514c-0.15445,0.18164-0.31888,0.34946-0.50341,0.50175
		c-0.1758,0.14509-0.37245,0.24071-0.58836,0.29997c-0.33179,0.09106-0.61331,0.25693-0.7533,0.57685
		c-0.12144,0.27753-0.34175,0.33828-0.60232,0.34106c-0.44662,0.00477-0.89334,0.00131-1.34001,0.00132
		c-3.74888,0.00008-7.49775,0.00016-11.24661,0.00024c-0.00006-0.03168-0.00014-0.06337-0.00019-0.09505
		c4.20219-0.00009,8.40437-0.00172,12.60653,0.00351c0.25624,0.00032,0.41971-0.08872,0.53143-0.31461
		c0.11852-0.23963,0.30406-0.4404,0.56486-0.50461c0.71685-0.17651,1.17315-0.66594,1.5679-1.23306
		c0.5496-0.78959,0.95567-1.65054,1.25824-2.5607c0.01326-0.03989,0.02967-0.07874,0.04463-0.11811
		C30.16809,7.04613,30.18818,7.05875,30.20827,7.07137z"/>
	<path fill="#2D4961" d="M3.51433,10.16056c-0.00007,0.23707-0.19987,0.43154-0.43888,0.42719
		c-0.23247-0.00424-0.42273-0.19671-0.42263-0.42754c0.0001-0.23703,0.19999-0.43163,0.43887-0.42726
		C3.32415,9.7372,3.5144,9.92969,3.51433,10.16056z"/>
	<path fill="#9469A4" d="M1.79033,2.41098c-0.01337,0.05639,0.03829,0.1388-0.06473,0.15933
		C1.65614,2.53335,1.58692,2.49559,1.5035,2.50644C1.59265,2.45548,1.68206,2.40532,1.79033,2.41098z"/>
	<path fill="#9669A5" d="M2.0448,1.20569C1.95058,1.39177,1.87797,1.58477,1.84288,1.79141
		c-0.00985,0.05802-0.0188,0.13086-0.11217,0.11493c-0.07659,0.03241-0.0993-0.02247-0.10498-0.07527
		C1.60935,1.67891,1.5972,1.52395,1.63655,1.3748C1.6698,1.24879,1.76152,1.16614,1.89315,1.14239
		C1.95117,1.13193,2.02395,1.11543,2.0448,1.20569z"/>
	<path fill="#8D629B" d="M1.56894,1.93744C1.52749,1.93293,1.47248,1.93743,1.47475,1.87821
		c0.00887-0.23086-0.04668-0.47052,0.08461-0.68604c0.08006-0.13142,0.20294-0.18905,0.35453-0.1936
		c0.10995-0.0033,0.21987-0.00745,0.32986-0.0112C2.21227,1.01922,2.18074,1.05106,2.14921,1.0829
		C2.07328,1.12312,1.98906,1.12971,1.90626,1.14295C1.74217,1.16919,1.65809,1.25485,1.62942,1.4165
		C1.61014,1.52514,1.61321,1.63443,1.61146,1.74375C1.61038,1.81107,1.61731,1.8806,1.56749,1.93718L1.56894,1.93744z"/>
	<path fill="#9165A0" d="M1.56749,1.93718c0.00008-0.13612-0.0155-0.2744,0.00324-0.40793
		c0.05099-0.36326,0.11063-0.39538,0.46778-0.44797c0.03599-0.0053,0.07368,0.00079,0.11064,0.00161
		C2.11441,1.12383,2.07961,1.16477,2.04481,1.20569C1.8734,1.1463,1.69759,1.22611,1.67275,1.39683
		c-0.02158,0.14831-0.00724,0.3019-0.00666,0.45315c0.00015,0.03844,0.03233,0.04951,0.06458,0.05635
		C1.68261,1.94954,1.62297,1.93251,1.56749,1.93718z"/>
	<path fill="#FEFEFE" d="M20.76083,3.42827c0.17053-0.07426,0.34106-0.14852,0.51161-0.22278
		c1.14476-0.30617,2.16539-0.09866,3.0379,0.72275c0.01515,0.01426,0.0334,0.02528,0.0502,0.03782
		c0.46207,0.51353,0.74221,1.10334,0.82535,1.79473c0.04384,0.36464,0.0179,0.72616,0.03272,1.08877
		c0.00775,0.18955,0.00558,0.37951,0.00788,0.56928c0.01055,0.10941-0.05013,0.12591-0.14523,0.12551
		c-0.51511-0.00219-1.03025,0.00124-1.54538,0.00274c-0.06236,0.0655-0.08037,0.14452-0.07975,0.23265
		c0.00159,0.22689,0.00156,0.45382-0.0001,0.68072c-0.0005,0.0678,0.00905,0.13805-0.03148,0.20002
		c0.00681,0.1286-0.05363,0.16163-0.18074,0.15859c-0.35326-0.00844-0.35342-0.00198-0.35362-0.35781
		c-0.00002-0.03674-0.00002-0.07347,0.00001-0.11021c0.00032-0.31093,0.00032-0.31093-0.31177-0.29453
		c-0.03103,0.02751-0.06377,0.0252-0.09751,0.0055c-0.05721,0.19988-0.02247,0.4041-0.02125,0.60567
		c0.00073,0.12066-0.0333,0.1516-0.15118,0.15069c-0.36145-0.00279-0.36149,0.00189-0.36149-0.3549
		c0-0.04732,0.00004-0.09464-0.00001-0.14196c-0.00032-0.28189-0.00033-0.28189-0.29587-0.26427
		c-0.08709,0.05899-0.07455,0.15047-0.08165,0.23739c-0.00987,0.12094,0.03348,0.24818-0.04123,0.3618
		c0.01231,0.1289-0.04296,0.16619-0.17428,0.16289c-0.34531-0.00869-0.34546-0.00172-0.34549-0.33826
		c-0.00003-0.26933-0.00444-0.53876,0.00194-0.80794c0.00251-0.10594-0.03426-0.13373-0.13766-0.13272
		c-0.49476,0.00483-0.98969-0.00301-1.48436,0.00553c-0.13687,0.00236-0.16724-0.04029-0.16511-0.16885
		c0.00763-0.45932,0.00903-0.91894,0.00155-1.37827c-0.01086-0.66721,0.22173-1.24858,0.61622-1.77477
		C20.0891,3.8932,20.4111,3.64443,20.76083,3.42827z"/>
	<path fill="#FEFEFE" d="M17.94624,7.45043c0.00503,0.10972-0.0606,0.12324-0.15268,0.12297
		c-0.51272-0.00148-1.02546,0.00163-1.53819,0.00317c-0.03106,0.02672-0.06343,0.02699-0.09692,0.00474
		c-0.04812,0.04264-0.02493,0.099-0.02525,0.14859c-0.00212,0.32675-0.00486,0.6536,0.00164,0.98025
		c0.00206,0.10345-0.02806,0.13548-0.13338,0.13682c-0.39281,0.005-0.39276,0.00864-0.39293-0.38446
		c-0.00001-0.03162-0.00002-0.06324,0.00002-0.09487C15.609,8.07031,15.609,8.07031,15.29741,8.08488
		c-0.03114,0.02503-0.0634,0.02686-0.09682,0.00462c-0.0597,0.19965-0.02244,0.40396-0.02241,0.60553
		c0.00002,0.11809-0.02877,0.15365-0.14959,0.15253c-0.36304-0.00338-0.36309,0.00168-0.36309-0.3536
		c0-0.04736,0.00004-0.09472-0.00002-0.14208c-0.00033-0.2824-0.00034-0.2824-0.29442-0.26615
		c-0.08483,0.06054-0.07486,0.15156-0.08184,0.23931c-0.00964,0.12132,0.03458,0.24931-0.04259,0.3628
		C14.26087,8.82082,14.198,8.851,14.07042,8.84805c-0.34335-0.00796-0.34347-0.00162-0.34351-0.33982
		c-0.00003-0.24807-0.01307-0.49704,0.00418-0.74392c0.01195-0.17103-0.05206-0.19882-0.20579-0.1958
		c-0.47841,0.00939-0.95716,0.0005-1.4357,0.00569c-0.10786,0.00117-0.14734-0.02372-0.14614-0.13885
		c0.00582-0.55943-0.02696-1.12092,0.01062-1.67791c0.04186-0.62037,0.29965-1.17071,0.71682-1.6387
		c0.12967-0.14547,0.27961-0.27312,0.42027-0.40893c0.18747-0.17359,0.40515-0.30043,0.63667-0.40602
		c0.05776-0.02634,0.12031-0.04193,0.17439-0.07693c0.92111-0.30038,1.80591-0.22512,2.63081,0.28813
		c0.80887,0.50327,1.25451,1.24177,1.40279,2.17878c0.08423,0.53227,0.03502,1.06261,0.05523,1.59346
		C17.99327,7.3452,17.99113,7.40417,17.94624,7.45043z"/>
	<path fill="#FEFEFE" d="M10.82847,7.45013c0.01091,0.11172-0.05364,0.1238-0.14688,0.1235
		c-0.50509-0.00161-1.0102,0.00213-1.5153,0.00403C9.08702,7.63518,9.0894,7.72131,9.08856,7.80446
		C9.0862,8.03929,9.08878,8.27414,9.08714,8.50898C9.08664,8.58146,9.09354,8.65643,9.04145,8.71821
		C9.04214,8.802,9.02052,8.84587,8.91591,8.84779C8.49794,8.85544,8.49802,8.86005,8.49805,8.44654
		c0-0.03139,0.00004-0.06278,0.0001-0.09417c0.00056-0.28358,0.00056-0.28358-0.28996-0.26626
		C8.12332,8.14663,8.13362,8.23769,8.12654,8.32535C8.11675,8.44651,8.16164,8.57462,8.08285,8.68756
		c0.01269,0.11793-0.02791,0.16375-0.15917,0.1607C7.56801,8.83999,7.56784,8.84683,7.56784,8.48941
		c0-0.04752,0.00005-0.09504-0.00003-0.14256C7.56732,8.07031,7.56731,8.07031,7.28218,8.0856
		C7.24293,8.1307,7.18525,8.1083,7.13807,8.12437C7.13526,8.32476,7.12863,8.52519,7.13139,8.7255
		C7.1326,8.81308,7.10638,8.84328,7.01452,8.84684C6.61608,8.86228,6.61623,8.86531,6.61619,8.46777
		c-0.00003-0.24292-0.0072-0.48611,0.00259-0.72864c0.00519-0.12849-0.02798-0.17289-0.1652-0.17041
		C5.98554,7.57717,5.51698,7.56294,5.0492,7.57669C4.87854,7.58171,4.8494,7.52585,4.85275,7.37298
		c0.00997-0.45393,0.00655-0.90824,0.00297-1.36237C4.84764,4.98715,5.31519,4.2139,6.12568,3.61991
		c0.07671-0.05622,0.15839-0.10577,0.23776-0.15842C6.46696,3.33097,6.63171,3.31302,6.7694,3.24576
		c0.06052-0.02956,0.12891-0.04187,0.19104-0.06954c0.08517-0.02835,0.16943-0.05994,0.2595-0.07056
		c0.05777-0.00979,0.11729-0.00882,0.17337-0.0291c0.80092-0.08023,1.55134,0.05773,2.20443,0.54668
		c0.69757,0.52225,1.12348,1.21217,1.2372,2.08154c0.07086,0.54172,0.02304,1.08546,0.03417,1.62818
		C10.86998,7.37607,10.85777,7.41646,10.82847,7.45013z"/>
	<path fill="#FEFEFE" d="M23.82301,9.21979c0.05462-0.0708,0.02154-0.15183,0.02264-0.22721
		C23.85001,8.6931,23.84944,8.3935,23.84609,8.094c-0.00088-0.0783,0.00861-0.13605,0.10441-0.13447
		c0.0416-0.03863,0.09335-0.04845,0.14744-0.04938C24.26263,7.90734,24.42733,7.90609,24.592,7.911
		c0.11754,0.0035,0.1968,0.05619,0.20005,0.17889c0.00962,0.36365,0.0224,0.72808-0.00645,1.09081
		c-0.01347,0.16933-0.09612,0.32163-0.20623,0.45491c-0.28255,0.36752-0.66239,0.51216-1.121,0.50825
		c-0.88717-0.00756-1.77494,0.01571-2.66152-0.00824c-0.63586-0.01718-1.13278-0.45179-1.12823-1.10341
		c0.00217-0.31111,0.00497-0.62234-0.00208-0.93331c-0.00235-0.10348,0.03003-0.14681,0.13224-0.1386
		c0.05551-0.05158,0.12536-0.05203,0.19468-0.05301c0.1169-0.00165,0.23382-0.00174,0.35072-0.00032
		c0.2587,0.00315,0.30178,0.04615,0.30432,0.30895c0.0023,0.23733-0.00003,0.4747,0.00079,0.71204
		c0.00085,0.24291,0.00342,0.24595,0.24994,0.2461c0.88743,0.00054,1.77487-0.0003,2.6623,0.0009
		C23.65049,9.17508,23.74372,9.15999,23.82301,9.21979z"/>
	<path fill="#FEFEFE" d="M9.44968,9.16086C9.45166,8.81773,9.45706,8.47457,9.45346,8.1315
		C9.45243,8.03404,9.47366,7.97883,9.5816,7.98817c0.23571-0.09328,0.47801-0.04964,0.71777-0.02825
		c0.07508,0.0067,0.09231,0.08214,0.09378,0.14702c0.00861,0.37832,0.01518,0.75697-0.00352,1.13487
		c-0.0059,0.11921-0.05858,0.23325-0.14138,0.3272c-0.18884,0.33798-0.50549,0.49574-0.86052,0.59646
		c-0.04956,0.01406-0.10555,0.00759-0.15857,0.00761c-0.93517,0.00036-1.87091,0.01975-2.80533-0.00657
		c-0.62619-0.01764-1.12262-0.41439-1.14503-1.09363c-0.01043-0.3161,0.00176-0.63288-0.00395-0.94922
		C5.27314,8.02838,5.30525,7.9862,5.3989,7.98782c0.13165-0.08608,0.27951-0.04536,0.41982-0.04715
		C6.24774,7.93521,6.2476,7.93872,6.24797,8.36611C6.24816,8.59307,6.2491,8.82005,6.24788,9.047
		C6.24727,9.16087,6.29663,9.2068,6.41094,9.20665c0.95189-0.00124,1.90379,0.00213,2.85568-0.0031
		C9.32932,9.20321,9.39527,9.20271,9.44968,9.16086z"/>
	<path fill="#FEFEFE" d="M17.27052,9.69933c-0.28247,0.32803-0.63997,0.47904-1.0756,0.47592
		c-0.89328-0.00638-1.78719,0.01717-2.67977-0.00845c-0.62118-0.01783-1.13411-0.44727-1.12812-1.10696
		c0.00283-0.31137,0.00512-0.62289-0.002-0.93412c-0.0024-0.10491,0.03362-0.14487,0.13394-0.13734
		c0.23661-0.09466,0.48023-0.05194,0.7207-0.02827c0.0912,0.00898,0.09846,0.09809,0.09796,0.17532
		C13.33581,8.42047,13.33617,8.7055,13.337,8.99052c0.0006,0.20631,0.0087,0.21513,0.21441,0.21534
		c0.90935,0.00094,1.8187-0.0001,2.72804,0.00107c0.08913,0.00011,0.18212-0.0151,0.2631,0.04077
		c0.0542-0.09316,0.01918-0.19398,0.02124-0.29052c0.00583-0.27297,0.00718-0.54628-0.00051-0.81916
		c-0.00303-0.1074,0.02807-0.15781,0.13827-0.14948c0.04472-0.04753,0.10482-0.04624,0.16256-0.04764
		c0.143-0.00346,0.28615-0.00452,0.42909-0.00011c0.18251,0.00563,0.22093,0.04243,0.22379,0.22856
		c0.00469,0.30494,0.00404,0.60999-0.00009,0.91496c-0.00151,0.11153-0.02921,0.21812-0.07315,0.32032
		C17.40371,9.51291,17.35246,9.61501,17.27052,9.69933z"/>
	<path fill="#7D6DAB" d="M17.94624,7.45043c-0.00225-0.42687,0.00619-0.85411-0.009-1.28052
		c-0.03094-0.86842-0.2991-1.64488-0.95287-2.25382c-0.55528-0.51721-1.20926-0.80029-1.9807-0.81047
		c-0.38099-0.00503-0.74931,0.04204-1.10921,0.16251c-0.04038,0.01209-0.08665,0.04162-0.09789-0.03257
		c0.37747-0.16502,0.76911-0.24752,1.18474-0.25849c0.6033-0.01592,1.15271,0.13064,1.6598,0.44915
		c0.71303,0.44785,1.15652,1.08567,1.33309,1.90006c0.05742,0.26483,0.12292,0.53857,0.09333,0.80932
		c-0.02827,0.25868-0.01787,0.51522-0.02195,0.77255c-0.00215,0.13572,0.03841,0.26948,0.03136,0.40775
		C18.07231,7.40692,18.04399,7.4572,17.94624,7.45043z"/>
	<path fill="#7D6DAB" d="M7.21943,3.13683c-0.083,0.02326-0.166,0.04652-0.249,0.06978
		C6.92951,3.21429,6.8799,3.24749,6.86731,3.17201C7.92718,2.79886,8.9207,2.92504,9.80797,3.61479
		c0.51157,0.39768,0.87442,0.92219,1.03148,1.55903c0.06614,0.26819,0.11875,0.54308,0.11604,0.82422
		c-0.00418,0.43302-0.00207,0.86611-0.00033,1.29916c0.00036,0.08972-0.01185,0.16107-0.12669,0.15293
		c-0.00217-0.43746-0.00563-0.87491-0.00629-1.31237c-0.00221-1.46008-0.95591-2.64979-2.38929-2.98091
		c-0.34631-0.08-0.6973-0.03681-1.04637-0.04499C7.33381,3.13986,7.27186,3.10699,7.21943,3.13683z"/>
	<path fill="#7F6EAC" d="M16.54255,9.2477c-0.02595,0.00413-0.0519,0.01185-0.07786,0.01186
		c-1.01344,0.00068-2.02688-0.00118-3.0403,0.00331c-0.11254,0.0005-0.13173-0.04212-0.13049-0.13853
		c0.0042-0.32647-0.0079-0.65343,0.00612-0.97936c0.00595-0.13821-0.04475-0.15568-0.16071-0.15255
		c-0.20659,0.00557-0.41354-0.00197-0.62034-0.00403c-0.01243-0.09547,0.02769-0.13011,0.12582-0.1275
		c0.21744,0.00578,0.43523,0.00529,0.65272,0.00039c0.11097-0.0025,0.15011,0.04221,0.14877,0.14999
		C13.4423,8.33255,13.4511,8.6541,13.44186,8.97517c-0.00374,0.13002,0.04287,0.15807,0.16438,0.15751
		c0.92876-0.00427,1.85755-0.00184,2.78632-0.00316C16.47863,9.12941,16.55797,9.12621,16.54255,9.2477z"/>
	<path fill="#7F6DAC" d="M9.44968,9.16086c0.0258,0.13459-0.07647,0.09812-0.14078,0.09826
		C8.48532,9.26087,7.66173,9.26027,6.83813,9.26027c-0.17534,0-0.35082-0.00397-0.52598,0.0016
		c-0.09132,0.0029-0.11867-0.03011-0.11751-0.11865c0.0042-0.32166-0.00796-0.64381,0.00572-0.96494
		c0.00679-0.15935-0.04683-0.19574-0.19638-0.18715C5.80302,8.00267,5.60065,7.99006,5.3989,7.98782
		C5.39361,7.90195,5.43237,7.86154,5.52091,7.86225c0.2234,0.00179,0.44686,0.0031,0.67022-0.00053
		c0.1084-0.00176,0.13531,0.05251,0.13446,0.1481C6.32282,8.3213,6.33335,8.63317,6.32094,8.94419
		C6.31465,9.10196,6.37018,9.13474,6.51925,9.13366c0.90957-0.00662,1.81921-0.00339,2.72883-0.00315
		C9.31665,9.13053,9.38712,9.12048,9.44968,9.16086z"/>
	<path fill="#7F6DAC" d="M23.82301,9.21979c-0.0579,0.00403-0.11579,0.01153-0.17369,0.01158
		c-0.95072,0.00073-1.90144,0.00099-2.85215,0.00018c-0.2349-0.0002-0.20829,0.02402-0.20926-0.21493
		c-0.00124-0.30576-0.00405-0.61159,0.00173-0.91725c0.00199-0.10521-0.03507-0.1369-0.13803-0.13481
		c-0.21749,0.00442-0.43521-0.00219-0.65284-0.00427c-0.01029-0.09127,0.02089-0.13418,0.12322-0.13113
		c0.21237,0.00633,0.42523,0.00692,0.63756-0.00002c0.12401-0.00405,0.17012,0.03942,0.16764,0.16445
		c-0.00628,0.31635,0.0041,0.63308-0.00503,0.94928c-0.00373,0.12928,0.04147,0.15884,0.16401,0.15826
		c0.92462-0.00441,1.84927-0.00221,2.77391-0.00271C23.74661,9.09838,23.84173,9.0826,23.82301,9.21979z"/>
	<path fill="#2D4961" d="M28.26069,6.57671c0.00126,0.2377-0.19686,0.43284-0.43637,0.4298
		c-0.23318-0.00296-0.42385-0.19365-0.42513-0.42515c-0.00131-0.23761,0.1969-0.43286,0.43638-0.42985
		C28.06863,6.15443,28.25946,6.3453,28.26069,6.57671z"/>
	<path fill="#2D4961" d="M3.07612,2.63359c0.2394-0.00406,0.43856,0.19046,0.43824,0.42802
		C3.51404,3.29301,3.32408,3.48459,3.09102,3.48853C2.85155,3.49258,2.6525,3.29819,2.65278,3.06056
		C2.65306,2.82919,2.84308,2.63754,3.07612,2.63359z"/>
	<path fill="#816DAC" d="M24.57936,9.63561c0.13683-0.24078,0.17871-0.49977,0.16778-0.77406
		c-0.01003-0.25183-0.0076-0.50453,0.00031-0.7565c0.00358-0.11409-0.03852-0.1436-0.14633-0.14118
		c-0.21673,0.00486-0.43374-0.0022-0.65063-0.00434c-0.00674-0.09607,0.04162-0.13061,0.13458-0.12937
		c0.21762,0.0029,0.4353,0.0018,0.65295,0.0005c0.07838-0.00047,0.14047,0.01685,0.13729,0.11057
		c-0.01412,0.41479,0.04274,0.83238-0.03424,1.24406C24.80838,9.36014,24.72896,9.52126,24.57936,9.63561z"/>
	<path fill="#826EAC" d="M10.24826,9.569c0.16982-0.38157,0.09339-0.78532,0.10332-1.18034
		c0.00991-0.39412,0.00217-0.39376-0.38955-0.39424C9.83522,7.99426,9.70841,7.99036,9.5816,7.98817
		c-0.0068-0.098,0.04611-0.12751,0.13668-0.12638c0.21707,0.00271,0.43421,0.00236,0.6513,0.00018
		c0.0895-0.0009,0.15143,0.02812,0.13504,0.12612c-0.06112,0.36561-0.01616,0.73341-0.02754,1.09996
		c-0.00585,0.18832-0.10078,0.33809-0.19102,0.49154C10.2844,9.5824,10.26133,9.57281,10.24826,9.569z"/>
	<path fill="#7F6DAC" d="M17.40326,9.44473C17.51555,9,17.44168,8.54706,17.46456,8.09841
		c0.00443-0.0869-0.03413-0.10645-0.11244-0.1058c-0.21683,0.0018-0.4337-0.0023-0.65056-0.00406
		c-0.04314-0.07926-0.01546-0.12363,0.07127-0.12455c0.23924-0.00252,0.47853-0.001,0.71779-0.0003
		c0.06239,0.00018,0.10536,0.03056,0.10336,0.09464c-0.01282,0.41018,0.03779,0.8219-0.02913,1.23071
		c-0.01905,0.11637-0.07563,0.21846-0.12851,0.32178C17.37703,9.51259,17.38599,9.48071,17.40326,9.44473z"/>
	<path fill="#8777B1" d="M23.42455,8.66047c-0.00355-0.34176-0.00562-0.68355-0.01161-1.02527
		c-0.00168-0.09572,0.05055-0.10202,0.12293-0.08813c0.05592,0.10332,0.0279,0.21508,0.02986,0.32294
		c0.00417,0.22944,0.00173,0.45901,0.00095,0.68852C23.56637,8.65539,23.53811,8.71745,23.42455,8.66047z"/>
	<path fill="#816FAC" d="M9.04145,8.71821C9.03923,8.37353,9.04016,8.02878,9.03292,7.6842
		C9.03069,7.57777,9.07649,7.55724,9.16629,7.57766c0.00003,0.3379-0.00268,0.67584,0.00183,1.01368
		C9.16939,8.68652,9.14032,8.73145,9.04145,8.71821z"/>
	<path fill="#8575B0" d="M16.15845,7.58131c0.0323-0.00158,0.06461-0.00316,0.09691-0.00474
		c-0.00004,0.33784,0.0007,0.67569-0.00112,1.01352c-0.00023,0.04289,0.02201,0.11332-0.04501,0.11579
		c-0.07049,0.0026-0.04895-0.0688-0.04921-0.11105C16.158,8.257,16.15864,7.91915,16.15845,7.58131z"/>
	<path fill="#8875B0" d="M7.13807,8.12437c0.02978-0.07981,0.0936-0.03491,0.14411-0.03877
		C7.28212,8.25795,7.28228,8.4303,7.28187,8.60264C7.28175,8.65199,7.27415,8.70481,7.21405,8.70867
		c-0.07543,0.00484-0.05626-0.0594-0.05902-0.10204C7.14464,8.44607,7.17364,8.28412,7.13807,8.12437z"/>
	<path fill="#8370AD" d="M21.52825,8.65645c-0.00212-0.163,0.00052-0.32625-0.00809-0.48891
		c-0.00549-0.10393,0.0365-0.13291,0.13096-0.11029c0.00008,0.1743-0.00194,0.34863,0.00105,0.52287
		C21.6539,8.68067,21.61692,8.70672,21.52825,8.65645z"/>
	<path fill="#7D6DAB" d="M8.08285,8.68756C8.08086,8.52218,8.0833,8.35659,8.07528,8.1915
		C8.07014,8.08548,8.11994,8.06657,8.20819,8.08611c0.00005,0.17692-0.00187,0.35387,0.00089,0.53075
		C8.21075,8.72358,8.16311,8.73121,8.08285,8.68756z"/>
	<path fill="#826FAD" d="M14.24663,8.68783c-0.00208-0.16547,0.00034-0.33116-0.00786-0.49634
		c-0.00525-0.10564,0.04343-0.12573,0.13229-0.10577c0.00001,0.17681-0.00194,0.35364,0.00078,0.5304
		C14.37343,8.72071,14.32864,8.73325,14.24663,8.68783z"/>
	<path fill="#8673AF" d="M22.48093,8.06203c0.0325-0.00184,0.065-0.00368,0.09751-0.00551
		c0.06268,0.18024,0.01999,0.36578,0.02669,0.54879c0.00144,0.03916-0.02404,0.07346-0.06846,0.073
		c-0.0648-0.00068-0.05434-0.05359-0.05467-0.09336C22.48055,8.41065,22.4811,8.23633,22.48093,8.06203z"/>
	<path fill="#8574B0" d="M15.20059,8.0895c0.03227-0.00154,0.06454-0.00308,0.09682-0.00462
		c0.00863,0.16654-0.02037,0.33455,0.02764,0.49997c0.01455,0.05013,0.0065,0.1176-0.06208,0.12311
		c-0.08684,0.00698-0.05976-0.0697-0.06066-0.11503C15.19894,8.42517,15.20073,8.25732,15.20059,8.0895z"/>
	<path fill="#8E73AF" d="M13.79657,3.23556c0.02352,0.03783,0.06287,0.02877,0.09789,0.03257
		c-0.28406,0.11801-0.55134,0.2661-0.80328,0.44168c-0.00974-0.09078,0.0781-0.09799,0.1251-0.13265
		C13.39731,3.44366,13.57374,3.29996,13.79657,3.23556z"/>
	<path fill="#8872AF" d="M6.86731,3.17201c0.02496,0.03911,0.06677,0.0287,0.10308,0.03459
		C6.77196,3.30061,6.5521,3.34445,6.36343,3.46147c-0.0418-0.03809-0.00181-0.05094,0.02208-0.06628
		C6.53569,3.29875,6.69042,3.21175,6.86731,3.17201z"/>
	<path fill="#9077B1" d="M17.40326,9.44473c0.00296,0.02601,0.00689,0.05154,0.03307,0.0661
		c-0.05351,0.06435-0.07532,0.15618-0.1658,0.18851C17.31477,9.61447,17.35901,9.5296,17.40326,9.44473z"/>
	<path fill="#9B6DAB" d="M20.43437,5.19795c0.22432-0.28424,0.52332-0.36682,0.86499-0.29135
		c0.33772,0.0746,0.6011,0.36394,0.64072,0.68931c0.04165,0.34201-0.04586,0.63565-0.35469,0.83356
		c-0.18176,0.05982-0.36081,0.10634-0.55882,0.06201C20.55668,6.38628,20.11216,5.84812,20.43437,5.19795z"/>
	<path fill="#9B6DAB" d="M22.64338,5.20089c0.21884-0.27814,0.51496-0.37266,0.84794-0.29823
		c0.35377,0.07908,0.58827,0.31012,0.65971,0.67064c0.06264,0.3161-0.02295,0.59206-0.28127,0.80287
		c-0.32716,0.20584-0.6535,0.17128-0.95732-0.03519c-0.26863-0.18255-0.3805-0.45762-0.37723-0.77971
		C22.53655,5.4301,22.59996,5.3188,22.64338,5.20089z"/>
	<path fill="#806EAC" d="M22.64338,5.20089c0.03384,0.02656,0.01601,0.05357,0.0035,0.0834
		c-0.15245,0.36363-0.06816,0.6951,0.2036,0.95244c0.25794,0.24426,0.58318,0.30526,0.92758,0.15996
		c0.02833-0.01195,0.06095-0.0139,0.09164-0.02051c-0.32616,0.30213-0.83576,0.29304-1.16436-0.02079
		C22.37914,6.04385,22.35246,5.54683,22.64338,5.20089z"/>
	<path fill="#7F6EAC" d="M20.43437,5.19795c-0.02825,0.15979-0.06883,0.31508-0.06416,0.48246
		c0.01398,0.501,0.56748,0.90687,1.05346,0.76343c0.05031-0.01485,0.10303-0.06859,0.16171-0.01437
		c-0.39483,0.25177-0.82183,0.2129-1.1205-0.10202c-0.28347-0.29889-0.31558-0.75466-0.07581-1.08655
		C20.40103,5.22435,20.41913,5.21217,20.43437,5.19795z"/>
	<path fill="#9A6EAC" d="M21.9707,6.90957c0.15718-0.00208,0.31468,0.00112,0.47144-0.00807
		c0.1074-0.0063,0.14303,0.03744,0.1295,0.13596c-0.01177,0.08569,0.02577,0.17565-0.02274,0.25815
		c-0.11751-0.08949-0.25432-0.04352-0.38262-0.051C21.93988,7.23142,21.87343,7.1219,21.9707,6.90957z"/>
	<path fill="#8373AF" d="M21.9707,6.90957c-0.0006,0.31446-0.0233,0.28699,0.29495,0.28725
		c0.0638,0.00005,0.12771,0.0027,0.19135-0.00031c0.07326-0.00346,0.09038,0.03951,0.09187,0.0991
		c0.00002,0.00001-0.00112-0.00105-0.00112-0.00105c-0.23224,0.01917-0.46443,0.02462-0.69653-0.00208
		c-0.00376-0.09226-0.00432-0.18478-0.01211-0.2767C21.83032,6.91208,21.88094,6.88891,21.9707,6.90957z"/>
	<path fill="#9A6EAC" d="M21.85123,7.29248c0.23217,0.00069,0.46435,0.00137,0.69653,0.00207
		C22.31546,7.33377,22.08327,7.33702,21.85123,7.29248z"/>
	<path fill="#9B6DAB" d="M15.32779,5.26233c0.22842-0.30261,0.54111-0.41499,0.89991-0.32905
		c0.34518,0.08268,0.57813,0.31433,0.64244,0.67183c0.06065,0.33713-0.0393,0.62451-0.32533,0.83442
		c-0.28795,0.13896-0.5698,0.12975-0.84815-0.02938c-0.37121-0.21222-0.54002-0.66246-0.39331-1.05754
		C15.31429,5.32314,15.32959,5.29509,15.32779,5.26233z"/>
	<path fill="#9B6DAB" d="M13.12247,5.26125c0.2158-0.29884,0.51827-0.40397,0.86698-0.33256
		c0.34451,0.07055,0.58012,0.29197,0.65639,0.63839c0.07135,0.32408-0.00108,0.61767-0.27343,0.83915
		c-0.44073,0.20332-0.80826,0.15606-1.09596-0.1605C13.01258,5.9554,12.98754,5.61817,13.12247,5.26125z"/>
	<path fill="#806EAC" d="M13.12247,5.26125c0.0107,0.12875-0.02625,0.25345-0.03368,0.38143
		c-0.03645,0.6279,0.69537,1.01577,1.1258,0.80116c0.04343-0.02165,0.09391-0.07558,0.15781-0.03761
		c-0.3263,0.29644-0.82969,0.2896-1.15437-0.01568C12.89396,6.08582,12.85232,5.59378,13.12247,5.26125z"/>
	<path fill="#7F6EAC" d="M15.32779,5.26233c0.02687,0.13933-0.03572,0.26997-0.03583,0.40972
		c-0.0004,0.50822,0.54524,0.92625,1.02806,0.80472c0.07163-0.01803,0.14233-0.0735,0.22479-0.03725
		c-0.30285,0.24442-0.72405,0.24673-1.04606,0.00573c-0.30587-0.22891-0.42459-0.64635-0.2786-0.99336
		C15.24811,5.38543,15.29151,5.32536,15.32779,5.26233z"/>
	<path fill="#9E71AE" d="M14.57275,6.94341c0.2125-0.05107,0.42818-0.01319,0.6422-0.02207
		c0.04235-0.00176,0.0754,0.02099,0.07276,0.06487c-0.00678,0.11267,0.03295,0.22846-0.02153,0.338
		c-0.06815-0.08423-0.16322-0.08359-0.2592-0.08204c-0.06323,0.00103-0.1265-0.00042-0.18975-0.00131
		c-0.09839-0.0014-0.16042-0.04171-0.17073-0.14497C14.64059,7.03667,14.61473,6.98595,14.57275,6.94341z"/>
	<path fill="#8472AF" d="M14.57275,6.94341c0.0887-0.00979,0.1306,0.0275,0.11758,0.11729
		c-0.01699,0.11718,0.04346,0.14472,0.1482,0.1378c0.10034-0.00662,0.20188,0.00413,0.30216-0.00295
		c0.1005-0.0071,0.13526,0.03618,0.12549,0.12866c0.00001,0-0.00092,0.00051-0.00092,0.00051
		c-0.23123,0.02241-0.46243,0.02558-0.69359-0.00092C14.54852,7.19694,14.54985,7.07015,14.57275,6.94341z"/>
	<path fill="#9E71AE" d="M14.57166,7.3238c0.2312,0.0003,0.4624,0.0006,0.69359,0.00091
		C15.034,7.36262,14.80281,7.36414,14.57166,7.3238z"/>
	<path fill="#9B6DAB" d="M8.27804,5.20254c0.23153-0.26693,0.52936-0.34811,0.86149-0.2637
		c0.34307,0.0872,0.56634,0.32036,0.62534,0.6674c0.05503,0.3237-0.02469,0.6176-0.31341,0.82248
		C9.12869,6.59065,8.81757,6.57357,8.52198,6.36414C8.20673,6.14079,7.98521,5.66112,8.27804,5.20254z"/>
	<path fill="#9B6DAB" d="M6.04001,5.23291c0.2202-0.28828,0.52366-0.37719,0.86093-0.30137
		c0.36999,0.08317,0.59037,0.33583,0.66084,0.70832c0.05859,0.30969-0.09667,0.64865-0.37416,0.82852
		C6.96198,6.54692,6.74041,6.56897,6.50837,6.47466C6.07375,6.29801,5.77265,5.75,6.0175,5.29185
		C6.02738,5.27335,6.03384,5.25306,6.04001,5.23291z"/>
	<path fill="#7F6EAC" d="M6.04001,5.23291c0.01055,0.13255-0.06306,0.24852-0.06955,0.38054
		c-0.02714,0.5525,0.58524,1.0371,1.10309,0.8454c0.04026-0.01491,0.07964-0.03659,0.11406,0.00954
		C6.8373,6.71316,6.36096,6.66434,6.07482,6.35434C5.77793,6.0327,5.76321,5.55842,6.04001,5.23291z"/>
	<path fill="#806EAC" d="M8.27804,5.20254c0.00989,0.07703-0.04268,0.13591-0.06111,0.20499
		C8.12326,5.75854,8.22137,6.05268,8.49165,6.2867c0.25217,0.21833,0.5436,0.26453,0.8595,0.15301
		c0.03251-0.01148,0.06238-0.04777,0.10029-0.01098c-0.33307,0.2855-0.8346,0.25575-1.1525-0.06839
		C7.98019,6.03532,7.97129,5.54278,8.27804,5.20254z"/>
	<path fill="#9E71AE" d="M7.47474,6.94274C7.68659,6.8931,7.90149,6.92993,8.1148,6.92132
		c0.05785-0.00234,0.06403,0.04274,0.06309,0.08741C8.17635,7.08171,8.17437,7.15469,8.17257,7.22767
		c-0.15761,0.03552-0.31657,0.01265-0.4749,0.00924c-0.07113-0.00153-0.12217-0.039-0.13304-0.11248
		C7.55411,7.05337,7.51666,6.99745,7.47474,6.94274z"/>
	<path fill="#8573AF" d="M7.47474,6.94274c0.09257-0.00992,0.14074,0.02502,0.12697,0.12325
		C7.58713,7.17003,7.63587,7.19813,7.73679,7.19997c0.14518,0.00266,0.29425-0.03448,0.43578,0.0277
		C8.18845,7.30141,8.17782,7.3501,8.08271,7.34791C7.90769,7.34386,7.73247,7.34465,7.55741,7.34755
		C7.47482,7.34892,7.43771,7.31386,7.44763,7.2341C7.45967,7.1372,7.41803,7.0354,7.47474,6.94274z"/>
	<path fill="#8872AF" d="M7.21943,3.13683c0.04965-0.04798,0.11039-0.02289,0.16705-0.02498
		C7.33575,3.15266,7.27752,3.14431,7.21943,3.13683z"/>
	<path fill="#FEFEFE" d="M21.52334,5.86677c-0.20095,0.35555-0.54662,0.41689-0.77631,0.13775
		c-0.17476-0.21237-0.10669-0.4812,0.17121-0.67622c0.15982-0.10646,0.30377-0.09274,0.46984,0.04479
		C21.56593,5.52038,21.60959,5.67974,21.52334,5.86677z"/>
	<path fill="#806EAC" d="M21.52334,5.86677c0.00694-0.14748,0.01368-0.29313-0.10094-0.41337
		c-0.1426-0.1496-0.31004-0.1869-0.50416-0.12511c-0.00608-0.08965,0.07866-0.0966,0.1278-0.12081
		c0.16764-0.08259,0.4015-0.02501,0.51727,0.11484c0.11441,0.1382,0.12225,0.42047,0.01514,0.56006
		C21.54782,5.92231,21.53029,5.91167,21.52334,5.86677z"/>
	<path fill="#FEFEFE" d="M23.72623,5.89741c-0.19746,0.29514-0.46017,0.3639-0.69051,0.18523
		c-0.19905-0.1544-0.28549-0.51507,0.08537-0.75006c0.15308-0.151,0.4044-0.05064,0.52508,0.07056
		C23.79105,5.54865,23.8221,5.74675,23.72623,5.89741z"/>
	<path fill="#826EAC" d="M23.72623,5.89741c0.10879-0.43327-0.27353-0.69619-0.60513-0.56484
		c0.13578-0.21811,0.43793-0.19998,0.5983-0.06115c0.21107,0.18272,0.19623,0.444,0.05918,0.62093
		C23.76501,5.90986,23.74601,5.91985,23.72623,5.89741z"/>
	<path fill="#FEFEFE" d="M16.44423,5.92624c-0.18253,0.26251-0.36565,0.33886-0.59425,0.23905
		c-0.1504-0.06567-0.24281-0.18203-0.2615-0.34739c-0.0202-0.17872,0.05361-0.31615,0.19903-0.41733
		c0.03827-0.02663,0.08211-0.04537,0.1234-0.06774c0.10344-0.08787,0.21052-0.04037,0.31053,0.00053
		C16.45946,5.43069,16.56164,5.71089,16.44423,5.92624z"/>
	<path fill="#806EAC" d="M16.44423,5.92624c0.05316-0.41342-0.122-0.60834-0.53332-0.59343
		c-0.04999-0.07189,0.02544-0.07918,0.05745-0.09495c0.18239-0.08986,0.42199-0.02324,0.54999,0.14765
		c0.11389,0.15205,0.09801,0.40958-0.03551,0.54816C16.47793,5.93877,16.45745,5.92906,16.44423,5.92624z"/>
	<path fill="#FEFEFE" d="M14.24128,5.89532c-0.14592,0.24403-0.30881,0.34501-0.49863,0.3038
		c-0.17888-0.03884-0.31089-0.14041-0.35501-0.3197c-0.05372-0.2183,0.0323-0.38851,0.21908-0.51075
		c0.15421-0.11606,0.3418-0.10706,0.50624,0.02428C14.27955,5.52601,14.32806,5.71591,14.24128,5.89532z"/>
	<path fill="#816EAC" d="M14.24128,5.89532c0.01131-0.38575-0.16008-0.58445-0.48405-0.56767
		c-0.05551,0.00288-0.10037,0.02767-0.15051,0.04098c0.09993-0.14342,0.25037-0.20024,0.4236-0.15996
		c0.19291,0.04486,0.32485,0.17413,0.33828,0.34649c0.00638,0.08188,0.02193,0.16901-0.0168,0.24736
		C14.33014,5.84636,14.32333,5.9182,14.24128,5.89532z"/>
	<path fill="#FEFEFE" d="M9.35507,5.86172C9.20786,6.28154,8.78029,6.2884,8.57343,6.03088
		C8.41247,5.83051,8.46926,5.5672,8.72086,5.36634c0.1596-0.11438,0.32448-0.10433,0.49039,0.02987
		C9.37725,5.53048,9.43068,5.70343,9.35507,5.86172z"/>
	<path fill="#7F6FAD" d="M9.35507,5.86172c0.02359-0.40028-0.26567-0.62624-0.63421-0.4954
		c0.12769-0.17355,0.39639-0.22119,0.55939-0.09916c0.21362,0.15992,0.27439,0.44705,0.12956,0.61867
		C9.37016,5.93281,9.3631,5.89286,9.35507,5.86172z"/>
	<path fill="#FEFEFE" d="M7.12279,5.93006C6.89102,6.27589,6.5148,6.30118,6.32643,5.98359
		c-0.12776-0.2154-0.06074-0.43488,0.19-0.62222C6.68069,5.2531,6.87757,5.27512,7.03427,5.41931
		C7.18627,5.55916,7.21998,5.75367,7.12279,5.93006z"/>
	<path fill="#816EAC" d="M7.12279,5.93006C7.16368,5.59426,7.06874,5.41743,6.8131,5.34231
		C6.71005,5.31203,6.61411,5.33733,6.51643,5.36137C6.66682,5.16634,6.91581,5.1402,7.10966,5.29909
		c0.20158,0.16523,0.2314,0.44924,0.06537,0.62494C7.15998,5.93994,7.14299,5.95197,7.12279,5.93006z"/>
</g>
</svg>
