<?xml version="1.0" encoding="utf-8"?>
<!-- Generator: Adobe Illustrator 23.0.0, SVG Export Plug-In . SVG Version: 6.00 Build 0)  -->
<svg version="1.1" id="Слой_1" xmlns="http://www.w3.org/2000/svg" xmlns:xlink="http://www.w3.org/1999/xlink" x="0px" y="0px" width="32px" height="13px"
	 viewBox="0 0 32 13" enable-background="new 0 0 32 13" xml:space="preserve">
<g>
	<path fill="#55718A" d="M0.00225,12.23626c0-2.21853,0-4.43706,0-6.65559c0.01796-0.01273,0.03751-0.01592,0.0587-0.00959
		c0.01719,0.01269,0.02963,0.02894,0.0376,0.04866c0.02848,0.09291,0.01857,0.18858,0.0186,0.28318
		c0.00063,1.96907,0.00068,3.93815-0.00001,5.90722c-0.00005,0.14318,0.00694,0.28455,0.04746,0.42321
		c0.08766,0.29992,0.29026,0.4835,0.58561,0.5732c0.14958,0.04543,0.30414,0.04441,0.45869,0.04441
		c5.20157-0.00031,10.40314-0.00042,15.60472,0.00076c0.10982,0.00002,0.22446-0.02309,0.3275,0.03955
		c0.02446,0.02752,0.02726,0.05547,0.00152,0.08389c-0.05814,0.01013-0.11681,0.00516-0.17521,0.00517
		c-5.37945,0.00025-10.75889,0.00026-16.13795,0.00026c-0.41395-0.00269-0.73975-0.27844-0.80967-0.68639
		C0.01632,12.27382,0.01794,12.25269,0.00225,12.23626z"/>
	<path fill="#224053" d="M27.59046,0.00265c0.32386,0.10065,0.64818,0.20024,0.93011,0.39753
		c0.09598,0.08981,0.21694,0.14656,0.31492,0.23302c0.04213,0.03717,0.10724,0.09228-0.02023,0.10374
		c-0.14833-0.0627-0.26842-0.17015-0.40653-0.24946c-0.42814-0.24584-0.8798-0.37452-1.38161-0.37416
		c-7.23145,0.00526-14.4629,0.00359-21.69435,0.00364c-0.11701,0-0.23431-0.00442-0.34988,0.01979
		C4.93533,0.14771,4.90621,0.12901,4.89473,0.08234c-0.00418-0.03031,0.00569-0.05643,0.02486-0.0797
		C12.47655,0.00265,20.0335,0.00265,27.59046,0.00265z"/>
	<path fill="#40586D" d="M17.14971,12.96473c-0.00078-0.02081-0.00155-0.04162-0.00233-0.06244
		c0.00674-0.00644,0.01348-0.01289,0.02015-0.01944c0.09111-0.04219,0.18836-0.02634,0.28307-0.02636
		c3.13256-0.00086,6.26513-0.00517,9.39768,0.0021c0.90301,0.0021,1.65092-0.32767,2.29342-0.94147
		c0.89009-0.85031,1.50346-1.8799,1.99246-2.99133c0.3029-0.68844,0.55177-1.39433,0.67312-2.13991
		c0.01756-0.10793-0.00974-0.22395,0.05476-0.3241c0.04656-0.03162,0.09141-0.02704,0.13486,0.00628c0,0.02113,0,0.04226,0,0.06339
		c-0.01669,0.01775-0.02211,0.04057-0.02861,0.06296c-0.03206,0.40668-0.13439,0.79955-0.25624,1.18591
		c-0.37039,1.17436-0.89765,2.27344-1.62598,3.27347c-0.17399,0.2389-0.36881,0.46122-0.55347,0.69205
		c-0.34115,0.35837-0.7181,0.67472-1.15445,0.91021c-0.37137,0.20042-0.77016,0.32469-1.20012,0.32465
		c-3.32413-0.00035-6.64826,0.00011-9.97239-0.00028C17.18511,12.98181,17.16647,12.97658,17.14971,12.96473z"/>
	<path fill="#3B556C" d="M4.91959,0.00265C4.9194,0.0236,4.91921,0.04454,4.91901,0.06549
		c-0.08219,0.06849-0.1816,0.04975-0.27546,0.04985C3.43681,0.11662,2.23007,0.11683,1.02332,0.11547
		C0.80403,0.11522,0.60156,0.15544,0.42999,0.3024C0.23077,0.47302,0.14783,0.69055,0.14818,0.94762
		c0.00105,0.78092,0.00046,1.56184,0.00036,2.34277C0.14844,3.96578,0.14898,4.64117,0.14797,5.31657
		C0.14784,5.40023,0.15886,5.48612,0.11751,5.56525C0.10465,5.58511,0.08711,5.59067,0.065,5.58204
		c-0.01024-0.00052-0.02048-0.0012-0.0307-0.00203C0.00469,5.52527,0.01947,5.46609,0.01944,5.40921
		C0.01852,3.86955,0.01868,2.32989,0.01868,0.7906c0.00296-0.40397,0.23859-0.68793,0.65411-0.78795
		C2.08839,0.00265,3.50399,0.00265,4.91959,0.00265z"/>
	<path fill="#264356" d="M31.99691,6.46808c-0.04213,0.00037-0.08426,0.00074-0.12639,0.00111
		c-0.04101,0.02632-0.07783,0.03098-0.10398-0.0197c0.0946-0.13424,0.06846-0.28203,0.04318-0.42707
		c-0.11863-0.68057-0.3442-1.32775-0.62241-1.95879c-0.32323-0.73315-0.71682-1.4271-1.1876-2.07594
		c-0.29251-0.40316-0.61979-0.77837-1.00661-1.09825c-0.05239-0.04333-0.11103-0.08405-0.12534-0.15815
		c-0.02511-0.11014-0.13667-0.13154-0.20482-0.19748c-0.0468-0.04528-0.1297-0.05282-0.14237-0.13363
		c0.48604,0.27853,0.88571,0.65841,1.23725,1.08412c1.04977,1.27127,1.76887,2.70872,2.15862,4.30761
		c0.02662,0.10919,0.01725,0.22728,0.08046,0.32753C31.99691,6.23566,31.99691,6.35187,31.99691,6.46808z"/>
	<path fill="#697682" d="M17.14971,12.96473c0.01015,0.00041,0.02031,0.0008,0.03047,0.00115
		c0.00887,0.00666,0.01194,0.01347,0.00924,0.02044c-0.00273,0.00704-0.00552,0.01056-0.0084,0.01056
		c-5.47081,0-10.94162,0-16.41243,0c-0.00746-0.0057-0.01058-0.01202-0.00936-0.01895
		c0.00127-0.00724,0.00297-0.01085,0.00509-0.01085c0.36162-0.00063,0.72324-0.00179,1.08487-0.00181
		C6.94936,12.96501,12.04954,12.96489,17.14971,12.96473z"/>
	<path fill="#535F69" d="M17.18102,12.99689c-0.00003-0.01035-0.00031-0.02069-0.00083-0.03101
		c3.2775-0.00022,6.55502-0.00246,9.83252,0.00137c0.52312,0.00061,1.00592-0.12008,1.45299-0.38788
		c0.40208-0.24085,0.76403-0.52929,1.07253-0.88202c0.01667-0.01328,0.03168-0.01163,0.04502,0.00495
		c-0.56603,0.62973-1.21441,1.12673-2.08086,1.27287c-0.01405,0.00237-0.02647,0.01427-0.03965,0.02172
		C24.0355,12.99689,20.60826,12.99689,17.18102,12.99689z"/>
	<path fill="#445B6E" d="M29.58325,11.7023c-0.01501-0.00165-0.03001-0.0033-0.04502-0.00495
		c0.58495-0.67699,1.07791-1.41443,1.46782-2.21809c0.38671-0.79707,0.705-1.61876,0.88559-2.48857
		c0.02944-0.14181,0.01912-0.2901,0.07314-0.42758c0.02255,0.01523,0.01037,0.0478,0.03214,0.06343c0,0.05282,0,0.10564,0,0.15847
		c-0.09524,0.24971-0.11541,0.51743-0.19083,0.77246c-0.42271,1.42939-1.06171,2.74858-2.00945,3.91168
		C29.73021,11.55065,29.65459,11.62476,29.58325,11.7023z"/>
	<path fill="#40596F" d="M0.00225,0.73159c0.01041,0.00062,0.02033-0.00127,0.02977-0.00567
		C0.03278,2.34396,0.03354,3.96199,0.0343,5.58002C0.02361,5.58023,0.01293,5.58045,0.00225,5.58067
		C0.00225,3.96431,0.00225,2.34795,0.00225,0.73159z"/>
	<path fill="#767F87" d="M31.99691,6.62654c-0.02834-0.01234-0.03056-0.03772-0.03214-0.06342
		c0.01071-0.01055,0.02143-0.0211,0.03214-0.03166C31.99691,6.56316,31.99691,6.59485,31.99691,6.62654z"/>
	<path fill="#44637F" d="M0.065,5.58204c0.01108-0.00053,0.02217-0.00106,0.03325-0.00158
		c0.20078-0.00713,0.37317,0.14605,0.41981,0.37439c0.01918,0.09388,0.01422,0.18933,0.01423,0.28428
		c0.00023,1.83743,0.00013,3.67487,0.00024,5.5123c0,0.0739-0.00312,0.14799,0.0047,0.22161
		c0.02509,0.23633,0.21905,0.43165,0.45697,0.4597c0.09,0.01061,0.18068,0.00607,0.27107,0.00607
		c5.06421,0.00015,10.12843,0.0001,15.19265,0.00034c0.10625,0.00001,0.2132-0.00696,0.31823,0.01487
		c0.24135,0.05016,0.40569,0.2473,0.37457,0.44729c0,0-0.00328,0.00098-0.0033,0.00098
		C11.78515,12.9021,6.42292,12.9018,1.06068,12.90197c-0.3438,0.00001-0.63502-0.11457-0.8338-0.39993
		c-0.11955-0.17161-0.16114-0.37379-0.16111-0.58389C0.06608,9.80612,0.0654,7.69408,0.065,5.58204z"/>
	<path fill="#2D4961" d="M17.15071,12.90131c-0.09489-0.31029-0.23031-0.41146-0.55219-0.41147
		c-5.16477-0.00008-10.32954-0.00299-15.49429,0.00654c-0.33505,0.00062-0.63228-0.29437-0.62989-0.62139
		c0.01396-1.91106,0.00686-3.82227,0.00683-5.73344c-0.00001-0.32156-0.07917-0.43742-0.38294-0.5611
		C0.09817,4.02238,0.09779,2.4643,0.09819,0.90622c0.00012-0.47818,0.36436-0.83981,0.8459-0.84005
		c1.32498-0.00066,2.64996-0.0005,3.97493-0.00068c0.00131,0.02604,0.00665,0.05009,0.03223,0.06412
		c0.04718,0.01833,0.07453,0.0584,0.10457,0.09509c0.09342,0.11413,0.21542,0.16802,0.36191,0.17205
		C5.49755,0.39895,5.57737,0.3983,5.65719,0.3983c7.02476,0.00005,14.04954,0.00482,21.07427-0.00904
		c0.55959-0.0011,1.03779,0.15816,1.51309,0.41069c0.69687,0.37025,1.19595,0.9361,1.64209,1.56422
		c0.43947,0.61874,0.72292,1.31471,1.03162,1.9985c0.20493,0.45392,0.37786,0.92019,0.48082,1.40819
		c0.05556,0.26332,0.19675,0.47313,0.37416,0.66587c0.02349,0.03718,0.06204,0.02988,0.09727,0.03244
		c0.01047,0.39972-0.09508,0.78104-0.2064,1.15764c-0.26049,0.88128-0.62953,1.71888-1.08921,2.51546
		c-0.26581,0.46062-0.56644,0.89803-0.91937,1.30019c-0.27618,0.31471-0.56461,0.61548-0.90504,0.86037
		c-0.44413,0.31948-0.92633,0.53758-1.48892,0.57471c-0.26537,0.01752-0.52957,0.02252-0.79411,0.0227
		C23.36187,12.90233,20.25629,12.90143,17.15071,12.90131z"/>
	<path fill="#123247" d="M31.77324,6.43674c-0.26312-0.1191-0.35271-0.36259-0.40735-0.60972
		c-0.16984-0.76821-0.50239-1.47338-0.82302-2.18464c-0.25038-0.55542-0.56479-1.06906-0.92452-1.56276
		c-0.57652-0.79122-1.34566-1.29998-2.2594-1.61679c-0.06256-0.02169-0.13628-0.01587-0.2048-0.01588
		C19.9227,0.44633,12.69125,0.44611,5.4598,0.44748C5.21793,0.44753,5.03774,0.36653,4.95125,0.12961
		c0.00577-0.04409,0.03165-0.06375,0.07578-0.06324C5.07492,0.06693,5.12281,0.06602,5.1707,0.06602
		c7.31127-0.00002,14.62255,0.0016,21.93382-0.00302c0.60312-0.00038,1.11278,0.22552,1.59488,0.54996
		c0.05691,0.0383,0.11229,0.07884,0.16838,0.11834c0.65288,0.51284,1.15169,1.15698,1.58487,1.85349
		c0.47792,0.76845,0.86948,1.57963,1.14829,2.44023c0.13395,0.41346,0.26266,0.83117,0.26823,1.27268
		C31.87001,6.36564,31.88414,6.44409,31.77324,6.43674z"/>
	<path fill="#3B556B" d="M27.81408,11.9194c-0.18306,0.1648-0.41986,0.15144-0.64096,0.18915
		c-0.03618,0.00617-0.07434,0.00089-0.11159,0.00089c-8.62529,0-17.25058,0-25.87587,0c-0.29593,0-0.32125-0.02461-0.32125-0.31255
		C0.8644,8.23724,0.86439,4.67758,0.86442,1.11792c0-0.25607,0.03558-0.29121,0.29484-0.29121
		C9.80584,0.8267,18.45242,0.82635,27.09899,0.82833c0.27732,0.00006,0.54354,0.06248,0.77903,0.22011
		c-0.06151,0.04943-0.12168,0.0177-0.18011-0.00536c-0.21048-0.0831-0.42745-0.11036-0.65455-0.11029
		C18.46324,0.93532,9.88312,0.93496,1.303,0.93483C0.94713,0.93482,0.97348,0.91762,0.97347,1.2606
		C0.97343,2.90789,0.97332,4.55519,0.97378,6.20248C0.9738,6.29181,0.96472,6.38223,0.99533,6.4693
		C1.00664,6.52671,1.00505,6.5849,1.00507,6.64289c0.00042,1.24546,0.00043,2.49092,0,3.73638
		c-0.00002,0.058,0.00133,0.11617-0.00914,0.17369c-0.04437,0.17191-0.01786,0.34697-0.02126,0.52046
		c-0.00476,0.24284-0.0024,0.48585-0.00074,0.72877c0.00121,0.17777,0.02067,0.19551,0.20512,0.19874
		c0.05851,0.00103,0.11705,0.0003,0.17558,0.0003c8.57169,0,17.14338-0.0002,25.71507,0.00124
		c0.20387,0.00003,0.40341-0.00832,0.59402-0.0891C27.71287,11.89252,27.76564,11.87794,27.81408,11.9194z"/>
	<path fill="#3C566C" d="M0.95992,6.46823c-0.05187-0.047-0.03076-0.10902-0.03079-0.16452
		C0.92804,4.56613,0.92816,2.82854,0.92834,1.09095c0.00002-0.20029,0.00068-0.20082,0.20711-0.20082
		c8.69452-0.00009,17.38905,0.00008,26.08356-0.00119c0.18032-0.00003,0.34308,0.05985,0.50755,0.11799
		c0.04982,0.01761,0.09531,0.04761,0.15145,0.04151c0.28976,0.11572,0.53009,0.30673,0.75373,0.51429
		c0.61454,0.57034,1.06117,1.26535,1.4648,1.98972c0.41515,0.74506,0.71606,1.53513,0.93119,2.35828
		c0.10378,0.39709,0.05576,0.78755-0.04341,1.17835c-0.18073,0.71222-0.45151,1.39194-0.77121,2.05087
		c-0.16418,0.33837-0.33995,0.67565-0.57885,0.97291c-0.03704,0.09459-0.10953,0.16715-0.15989,0.25346
		c-0.01063,0.01058-0.02126,0.02115-0.03188,0.03173c-0.04259,0.0634-0.07897,0.13091-0.12777,0.1902l0.00008-0.00003
		c-0.28934,0.38288-0.62215,0.7249-0.99305,1.02989c-0.09693,0.07971-0.20723,0.14275-0.31619,0.20614
		c-0.02121,0.0106-0.04242,0.02121-0.06363,0.03181c-0.03605,0.03424-0.08711,0.03862-0.12793,0.06338
		c0,0,0.00008-0.00003,0.00008-0.00003c-0.51116,0.20746-1.04791,0.12318-1.57399,0.12347
		c-8.35214,0.00458-16.70429,0.00322-25.05643,0.00322c-0.25537,0-0.2554-0.00004-0.25542-0.24799
		c-0.00003-0.35906-0.00092-0.71812,0.00095-1.07717c0.00029-0.05549-0.02125-0.11749,0.03077-0.16442
		c0.06987,0.07021,0.02474,0.16882,0.06254,0.24704c0.01384,0.05268,0.02872,0.10522,0.02096,0.16064
		c-0.00596,0.27806,0.00195,0.55615-0.0037,0.83407c-0.00243,0.11969,0.04216,0.17152,0.16583,0.16863
		c0.3011-0.00703,0.60248,0.00716,0.90363-0.00898c0.2533,0.00902,0.50654,0.01857,0.75989-0.00181
		c0.14357,0.006,0.28709,0.0067,0.43065,0.00669c3.36029-0.00021,6.72059-0.00011,10.08088-0.00023
		c0.0638,0,0.12761-0.00113,0.1912,0.00545c2.63155,0.00372,5.2631,0.00153,7.89465,0.00107
		c1.73306-0.0003,3.46614,0.00544,5.19875-0.00409c0.36721,0.01952,0.7333,0.03425,1.08121-0.12461
		c0.27398-0.1251,0.51294-0.29949,0.73425-0.49887c0.58233-0.52463,1.01997-1.15845,1.39813-1.83657
		c0.29946-0.53698,0.55261-1.09435,0.74893-1.6767c0.08523-0.23109,0.15413-0.46686,0.20586-0.70763
		c0.06873-0.15997,0.08442-0.33168,0.11252-0.50066c0.03758-0.21919,0.01769-0.43398-0.049-0.64525
		c-0.04053-0.26759-0.1315-0.5212-0.21918-0.77599c-0.46224-1.30514-1.10455-2.50416-2.09891-3.4929
		c-0.29625-0.29457-0.63875-0.52476-1.04403-0.65123c-0.14906-0.04651-0.30249-0.05291-0.45764-0.0529
		C19.57585,1.00242,12.0743,1.00231,4.57275,1.00227c-0.06386,0-0.12778,0.00218-0.19154-0.00268
		c-0.31244,0.00615-0.62501-0.00259-0.9375,0.00718C3.41393,1.00501,3.38619,0.99575,3.35916,0.98417
		C2.9756,0.95462,2.59212,0.95331,2.2087,0.98603C2.12145,1.00384,2.03319,1.0024,1.94486,1.00015
		C1.79764,0.99106,1.65038,1.00528,1.50321,0.99968c-0.09487,0.00567-0.1902,0.00687-0.28478,0.00158
		c-0.12841-0.00718-0.18056,0.0445-0.1783,0.17358C1.0447,1.43667,1.04202,1.69865,1.04112,1.96057
		C1.0409,2.02343,1.04057,2.08634,1.02819,2.14844c-0.0551,0.30281-0.0035,0.60893-0.02911,0.91258
		c-0.00272,0.0323,0.04593,0.00799,0.04286,0.03983c0.0064,0.34265,0.00004,0.68512,0.00079,1.02759
		C1.04422,4.80342,1.04349,5.4784,1.0428,6.15338c-0.00009,0.08406,0.00728,0.169-0.01813,0.25151
		C1.01295,6.43592,0.99311,6.45884,0.95992,6.46823z"/>
	<path fill="#3B556B" d="M28.00556,11.82424c0.33332-0.23921,0.64181-0.50603,0.92367-0.804
		c0.13285-0.14045,0.22966-0.31223,0.38557-0.43203c-0.03479,0.15408-0.16523,0.24127-0.25995,0.34989
		c-0.28427,0.32599-0.59215,0.62914-0.95792,0.86737C28.07275,11.82123,28.0363,11.81842,28.00556,11.82424z"/>
	<path fill="#3B556B" d="M29.47438,10.36631c0.01202-0.11014,0.09805-0.17428,0.15988-0.25346
		C29.62518,10.22482,29.56455,10.30474,29.47438,10.36631z"/>
	<path fill="#3B556B" d="M29.31472,10.58824c0.02043-0.07807,0.06009-0.1434,0.12777-0.1902
		C29.42948,10.48102,29.39131,10.54735,29.31472,10.58824z"/>
	<path fill="#3B556B" d="M27.814,11.91943c0.03246-0.04138,0.07712-0.05849,0.12793-0.06338
		C27.91753,11.91345,27.86875,11.92239,27.814,11.91943z"/>
	<path fill="#43505B" d="M0.95992,6.46823C0.96802,6.45763,0.97611,6.44702,0.9842,6.43641
		C1.06657,6.51179,1.0424,6.61218,1.04258,6.7037C1.04456,7.68273,1.044,8.66178,1.04349,9.64082
		c-0.00006,0.1211,0.00357,0.24204,0.00778,0.363c-0.0264,0.19885-0.00001,0.39862-0.0097,0.59776
		c-0.00352,0.0723,0.00941,0.14891-0.04922,0.2086c-0.06444-0.07781-0.01785-0.16958-0.03238-0.25366
		C0.95995,9.19375,0.95994,7.83099,0.95992,6.46823z"/>
	<path fill="#5E898C" d="M4.37642,0.95486c0.07447-0.00074,0.14895-0.00214,0.22342-0.00214
		c7.47026-0.0001,14.94052,0.00242,22.41078-0.00543c0.52883-0.00056,0.95952,0.19082,1.35226,0.5055
		c0.68559,0.54932,1.16312,1.26432,1.59232,2.01369c0.28109,0.49077,0.51482,1.00471,0.71084,1.53506
		c0.02728,0.07381,0.06425,0.14572,0.05153,0.22852c-0.02688,0.12296-0.0545,0.24598-0.08859,0.36697
		c-0.13056,0.46336-0.65324,0.83641-1.10777,0.79491c-0.02938-0.04219-0.07519-0.05048-0.12177-0.06319
		c-0.40409-0.11025-0.75147-0.31523-1.04436-0.6138c-0.35758-0.36451-0.74336-0.69374-1.19374-0.94432
		c-0.34707-0.1931-0.72074-0.30944-1.11038-0.41155c-0.00603,0.09884,0.10626,0.17081,0.04692,0.2688
		c-0.14736-0.03167-0.16253-0.17156-0.19393-0.27302c-0.0552-0.17834-0.13902-0.34059-0.2203-0.50555
		c-0.03832-0.08695-0.08846-0.16636-0.1714-0.21689c-0.09837-0.05994-0.19353-0.04485-0.29582,0.00693
		c-0.10687,0.05409-0.00902,0.12216-0.02751,0.18002c-0.15961,0.02822-0.28068,0.13059-0.41343,0.21118
		c-0.22647,0.02201-0.44319-0.04461-0.66319-0.07536c-0.45989-0.06428-0.92121-0.07464-1.38425-0.06993
		c-0.40947,0.00417-0.81906,0.00486-1.22851-0.00045c-0.36741-0.00476-0.65715-0.15046-0.83891-0.4802
		c-0.14032-0.25457-0.36048-0.39388-0.64746-0.43611c-0.14758-0.02172-0.29517-0.03395-0.44469-0.03389
		c-2.36134,0.00107-4.72269-0.00281-7.08401,0.00424c-0.39774,0.00119-0.71674-0.11964-0.95295-0.44098
		c-0.0281-0.03822-0.06146-0.0728-0.09113-0.11008c-0.16905-0.21243-0.38143-0.31239-0.66244-0.31141
		C8.95911,2.08277,7.14023,2.07942,5.32136,2.08019c-0.1555,0.00007-0.30686-0.01239-0.45352-0.07083
		C4.56637,1.88923,4.39972,1.65735,4.30788,1.36042C4.29941,1.30521,4.29802,1.24959,4.30141,1.19389
		c0.00068-0.03503,0.00146-0.07017,0.00841-0.10474C4.31953,1.0384,4.33909,0.99226,4.37642,0.95486z"/>
	<path fill="#8AABB6" d="M1.01704,10.02057C0.97366,9.86541,0.99168,9.7064,0.9913,9.54928
		C0.98893,8.57476,0.99021,7.60024,0.98985,6.62572c-0.00002-0.0631-0.00365-0.1262-0.00562-0.18931
		c0.00219-1.03183,0.00498-2.06366,0.0056-3.09548c0.00005-0.09003,0.0072-0.17766,0.03113-0.26415
		C1.0123,3.06297,1.00907,3.0481,1.01186,3.03197c0.10937-0.23972,0.23185-0.46787,0.50786-0.55902
		c0.11989-0.01148,0.20582,0.0515,0.28592,0.12786C1.97119,2.74155,2.00031,2.9287,2.0001,3.13165
		C1.99834,4.85354,1.99905,6.57544,1.99903,8.29733c0,0.20835,0.01971,0.41348,0.134,0.59492
		c0.19559,0.3105,0.49008,0.44093,0.84969,0.44226c0.55875,0.00207,1.11751-0.00013,1.67626,0.00087
		c0.46445,0.00084,0.67823,0.17023,0.79362,0.6164c0.09049,0.34989,0.32467,0.55925,0.67144,0.65036
		c0.12457,0.03273,0.25257,0.03278,0.38058,0.03275c2.08602-0.00041,4.17203-0.00031,6.25805-0.00024
		c0.07449,0,0.14909-0.00232,0.22343,0.0032c0.34442,0.02559,0.60566,0.28252,0.63198,0.62426
		c0.00811,0.10526,0.00627,0.2111,0.00077,0.31655c-0.00093,0.05455,0.00182,0.10931-0.0023,0.16386
		c-0.00055,0.03449,0.00089,0.06912-0.00146,0.10361c-0.00047,0.03372-0.0006,0.06754-0.00686,0.10093
		c-0.00537,0.02545-0.01883,0.04633-0.03742,0.06426c-0.05844,0.00115-0.11687,0.0033-0.17531,0.0033
		c-3.43945,0.00016-6.8789,0.00013-10.31835,0.00019c-0.07937,0-0.15964,0.00748-0.23387-0.03073
		c-0.13663-0.00431-0.21979-0.09852-0.29806-0.18835c-0.16112-0.18493-0.24309-0.40372-0.25387-0.64924
		c-0.0103-0.2345-0.06067-0.29309-0.29537-0.29329c-0.49393-0.00043-0.74231-0.32489-0.95768-0.69605
		C1.01617,10.11902,1.00018,10.0697,1.01704,10.02057z"/>
	<path fill="#628B8E" d="M30.65797,7.82908c-0.06211,0.30755-0.20457,0.58604-0.32999,0.86921
		c-0.31272,0.70604-0.69428,1.37443-1.17425,1.98267c-0.33514,0.42469-0.71457,0.80598-1.18143,1.09265
		c-0.38468,0.23621-0.80886,0.26476-1.24414,0.23862c-0.0351-0.04268-0.01209-0.08321,0.01309-0.11523
		c0.09247-0.11754,0.15381-0.25211,0.22301-0.38269c0.09691-0.18288,0.25443-0.31415,0.44754-0.35905
		c0.65019-0.1512,1.08455-0.58662,1.46959-1.07978C29.2959,9.5446,29.63686,8.968,29.89843,8.34515
		c0.13298-0.31665,0.26703-0.63232,0.38067-0.95635c0.02295-0.06544,0.04773-0.13147,0.13218-0.14162
		C30.57996,7.34145,30.68752,7.59533,30.65797,7.82908z"/>
	<path fill="#649093" d="M30.40255,7.25522c-0.1306,0.14845-0.14573,0.34599-0.21943,0.51852
		c-0.16119,0.37735-0.30003,0.76486-0.49804,1.12535c-0.37119,0.67576-0.78189,1.3235-1.36927,1.84245
		c-0.22737,0.20089-0.48975,0.33052-0.77957,0.40993c-0.2943,0.08064-0.51041,0.24596-0.61326,0.5394
		c-0.04232,0.12075-0.16554,0.19299-0.19482,0.32138c-0.70703,0.00082-1.41406,0.00234-2.12109,0.00239
		c-3.60967,0.00025-7.21934,0.00013-10.82901-0.00003c-0.06907,0-0.13815-0.00212-0.20723-0.00326
		c0.00127-0.02005,0.00254-0.04008,0.00382-0.06012c0.07772-0.06542,0.1718-0.04579,0.26033-0.04583
		c2.19685-0.00097,4.39371-0.00075,6.59056-0.00075c1.80323,0,3.60646-0.00004,5.40969,0.00009
		c0.12762,0.00001,0.25514,0.00489,0.38269,0.00831c0.26144,0.00701,0.47966-0.06625,0.59637-0.3297
		c0.09752-0.22012,0.26575-0.37973,0.47931-0.49133c0.09929-0.05189,0.20991-0.07922,0.31591-0.1076
		c0.34074-0.09122,0.58471-0.32033,0.82144-0.55401c0.46033-0.45439,0.80369-0.9944,1.10496-1.56073
		c0.26583-0.49971,0.48824-1.01855,0.65799-1.55873c0.01605-0.05106,0.03667-0.09904,0.07708-0.13629
		C30.35665,7.13402,30.39258,7.17374,30.40255,7.25522z"/>
	<path fill="#2D4961" d="M30.40255,7.25522c-0.03156-0.03192-0.06313-0.06384-0.09469-0.09577
		c-0.0524-0.00072-0.07834-0.04485-0.11639-0.06928c-0.02259-0.01531-0.04643-0.02854-0.0697-0.04291
		c-0.05465-0.03988-0.11663-0.06367-0.18122-0.08242c-0.16368-0.06732-0.33364-0.09877-0.51034-0.11223
		c-0.14952-0.01139-0.23953-0.15203-0.20838-0.29652c0.03181-0.14755,0.14182-0.22032,0.28367-0.18763
		c0.57643-0.07079,1.03871-0.32464,1.12168-0.94658c0.00927-0.06947,0.01194-0.15057,0.0904-0.19181
		c0.09856,0.2356,0.20583,0.46895,0.19491,0.73325c0.03398,0.12788-0.04926,0.21469-0.11617,0.30195
		c-0.06271,0.08179-0.14046,0.15233-0.22095,0.2183C30.55428,6.49925,30.53091,6.5116,30.5091,6.5263
		c-0.12621,0.08509-0.12499,0.08846-0.00344,0.18148c0.10833,0.0829,0.22121,0.16163,0.29562,0.28045
		c0.02764,0.04413,0.06643,0.08345,0.04751,0.14241c-0.00686,0.24811-0.09506,0.47432-0.19084,0.69846
		C30.6147,7.61943,30.57624,7.40767,30.40255,7.25522z"/>
	<path fill="#2D4961" d="M1.50387,2.50676C1.25491,2.61297,1.15222,2.84388,1.02812,3.05653
		C0.97715,3.01149,0.99341,2.95073,0.99308,2.8957C0.99182,2.68818,0.9904,2.48064,0.99368,2.2734
		c0.07262-0.19482,0.2584-0.24459,0.42148-0.32352C1.45823,1.93602,1.50378,1.93175,1.547,1.91803
		c0.01369-0.0048,0.0278-0.00823,0.04196-0.01125c0.04858-0.0089,0.09935-0.00911,0.1434-0.03596
		c0.06192-0.0361,0.0701-0.09899,0.08551-0.16019C1.86248,1.53345,1.91002,1.35699,2.01345,1.2018
		c0.03648-0.05137,0.07146-0.10387,0.11596-0.14925c0.058-0.05035,0.1077-0.11474,0.19582-0.11458
		C2.67924,0.94798,3.03362,0.91823,3.387,0.95373c0.01052,0.01025,0.02105,0.02051,0.03157,0.03076
		c-0.04006,0.14622-0.17592,0.0815-0.26521,0.11919C3.07153,1.1217,2.99514,1.15279,2.92542,1.1995
		c-0.07,0.04454-0.14145,0.08696-0.20389,0.1423C2.45791,1.5387,2.33618,1.79906,2.33685,2.12777
		C2.33723,2.3097,2.23719,2.38941,2.03037,2.41972c-0.06102,0.0017-0.1227-0.00639-0.18276,0.01139
		c-0.01436,0.00457-0.02905,0.00779-0.0438,0.0107C1.70287,2.459,1.60225,2.47775,1.50387,2.50676z"/>
	<path fill="#2D4961" d="M1.01704,10.02057c0.09003,0.23655,0.25063,0.42374,0.42572,0.60101
		c0.15388,0.1558,0.354,0.17648,0.55642,0.18549c0.26872,0.01195,0.32625,0.06526,0.33495,0.32559
		c0.01258,0.37648,0.17955,0.66182,0.50915,0.85143c-0.24325,0.05048-0.48636,0.04903-0.72934-0.00195
		c-0.15384-0.06963-0.21136-0.21437-0.22723-0.35677c-0.02671-0.23973-0.1442-0.34795-0.38075-0.37209
		c-0.14262-0.01455-0.27007-0.09284-0.38813-0.17526c-0.04908-0.03427-0.11496-0.06376-0.09276-0.14533
		c-0.02458-0.03724-0.03723-0.07762-0.03273-0.12252C1.00734,10.54718,0.96004,10.28227,1.01704,10.02057z"/>
	<path fill="#8AABB6" d="M1.02508,10.93269c0.16308,0.20408,0.39915,0.27192,0.63883,0.31545
		c0.14025,0.02547,0.21171,0.07541,0.22514,0.22197c0.01763,0.19231,0.0958,0.36475,0.22489,0.51203
		c-0.05662,0.06034-0.13002,0.03018-0.1951,0.03107c-0.27024,0.00371-0.54057,0.00136-0.81086,0.00163
		c-0.06027,0.00006-0.11807,0.00388-0.1174-0.08461c0.00239-0.31559,0.00131-0.6312,0.00372-0.94679
		C0.99442,10.96645,1.01436,10.9496,1.02508,10.93269z"/>
	<path fill="#628B8F" d="M1.44176,1.96893C1.29155,2.03276,1.16343,2.13309,1.02548,2.21719
		C1.0003,2.20384,0.9942,2.18107,0.99443,2.15518C0.99338,1.79916,0.99518,1.4431,0.98944,1.08716
		C0.98782,0.98639,1.0176,0.94449,1.1235,0.95096c0.12615,0.00771,0.25307,0.00299,0.37966,0.00365
		c0.03599,0.04365,0.02406,0.08895,0.00241,0.1329C1.36497,1.37293,1.42342,1.67232,1.44176,1.96893z"/>
	<path fill="#618A8E" d="M30.84879,7.13064c-0.0869-0.17281-0.22568-0.29876-0.38272-0.40494
		c-0.16218-0.10966-0.16472-0.10674,0.00586-0.21847c0.02565-0.0168,0.0551-0.0279,0.08278-0.04164
		c0.12202-0.05839,0.24534-0.01888,0.36537,0.00295c0.0938,0.01706,0.0776,0.0921,0.05583,0.15969
		C30.96182,6.80275,30.96328,6.98115,30.84879,7.13064z"/>
	<path fill="#679397" d="M2.26815,0.954c-0.02397,0.05733-0.06958,0.0949-0.1193,0.12871
		C2.09101,1.1114,2.02971,1.12237,1.9652,1.12754C1.72327,1.14696,1.61953,1.25993,1.61343,1.50515
		C1.61121,1.59459,1.61326,1.68407,1.61188,1.77352c-0.0009,0.05824-0.0024,0.11638-0.04439,0.16367l0.00084-0.00004
		C1.47615,1.97706,1.43524,1.92855,1.43269,1.84724c-0.00539-0.17213-0.02908-0.3448,0.0076-0.51669
		C1.49376,1.07987,1.57117,1.00908,1.82666,0.9744C1.86753,0.96885,1.9121,0.98184,1.94955,0.95474
		c0.08618-0.00193,0.17235-0.00387,0.25853-0.0058C2.2293,0.93656,2.2496,0.93507,2.26815,0.954z"/>
	<path fill="#679396" d="M3.12909,1.07921c0.08488-0.06654,0.21708,0.0094,0.28948-0.09472
		c0.11999-0.061,0.24865-0.02688,0.37312-0.03029c0.19475-0.00534,0.3898-0.00012,0.58472,0.00064
		C4.38182,1.00064,4.3661,1.04116,4.34474,1.08028C4.29813,1.123,4.24049,1.12725,4.18124,1.12731
		C3.88452,1.12759,3.5878,1.12792,3.29109,1.12703C3.23268,1.12686,3.17341,1.12739,3.12909,1.07921z"/>
	<path fill="#649093" d="M1.94955,0.95474c-0.07783,0.049-0.17433,0.03845-0.25288,0.07152
		C1.60703,1.064,1.5326,1.13384,1.50241,1.23922C1.44491,1.44,1.47854,1.64398,1.47078,1.84647
		C1.46806,1.91733,1.5057,1.93884,1.56832,1.93715C1.5337,1.9775,1.48572,1.96536,1.44174,1.96891
		C1.39959,1.96285,1.37573,1.94068,1.3759,1.89642c0.00077-0.20349-0.00186-0.40707,0.00319-0.61045
		C1.38212,1.16336,1.49607,1.07795,1.50317,0.9546C1.65196,0.95465,1.80076,0.9547,1.94955,0.95474z"/>
	<path fill="#5D898C" d="M30.97592,6.62824c0.0097-0.09091-0.0216-0.13296-0.12343-0.13126
		c-0.09902,0.00164-0.19843-0.01995-0.29772-0.03136c0.14278-0.15091,0.30821-0.28594,0.3577-0.5023
		c0.10251,0.04729,0.05987,0.14869,0.07494,0.22295C31.0169,6.33163,31.03626,6.48256,30.97592,6.62824z"/>
	<path fill="#414F5A" d="M0.99443,2.15518C1.01906,2.16884,1.0241,2.19214,1.02547,2.21723
		c0.00088,0.2797,0.00175,0.55944,0.00263,0.83924c0.00069,0.00787-0.00169,0.01463-0.00713,0.02032
		C0.99748,3.08131,0.96154,3.10132,0.96216,3.05786c0.00417-0.29324-0.01829-0.58685,0.01172-0.87965
		C0.97473,2.16993,0.98732,2.16283,0.99443,2.15518z"/>
	<path fill="#424F5A" d="M2.26815,0.954c-0.02004-0.00166-0.04009-0.00333-0.0601-0.00502
		c0.06637-0.0521,0.14378-0.0248,0.21557-0.02575c0.27126-0.00358,0.54259-0.00226,0.81389-0.00071
		c0.051,0.00029,0.10791-0.01747,0.14949,0.03121C3.01405,0.95382,2.6411,0.95391,2.26815,0.954z"/>
	<path fill="#72A2A6" d="M2.01256,2.3838c0.22605-0.02597,0.29198-0.08635,0.28806-0.30599
		c-0.00604-0.33838,0.13689-0.5912,0.41555-0.77586C3.2147,1.26274,3.71395,1.28998,4.21286,1.28669
		c0.04875-0.00032,0.09454,0.0135,0.13212,0.04703c0.16046,0.48488,0.45028,0.69729,0.95159,0.69729
		c1.84,0.00002,3.68001,0.00399,5.51998-0.004c0.29882-0.0013,0.5017,0.13026,0.67725,0.3439
		c0.11634,0.14158,0.2162,0.29894,0.38634,0.38972c0.15232,0.08127,0.30955,0.12769,0.4854,0.12754
		c2.45156-0.00212,4.90312-0.00365,7.35467,0.00125c0.32108,0.00064,0.63502,0.05479,0.86618,0.31724
		c0.03891,0.04417,0.07481,0.08828,0.10015,0.14126c0.16425,0.34348,0.45056,0.48796,0.82067,0.48912
		c0.58496,0.00183,1.16994,0.00155,1.75491,0.00014c0.44617-0.00108,0.88361,0.0764,1.32195,0.14374
		c0.07458,0.01146,0.14744,0.01197,0.22135,0.01409c0.03522,0.04807,0.00352,0.09063-0.01407,0.13199
		c-0.15394,0.36206-0.34362,0.70776-0.49811,1.06964c-0.01639,0.03839-0.03803,0.07646-0.08978,0.0769
		c-0.19316-0.056-0.37801,0.02145-0.56594,0.03954c-0.21632,0.02082-0.42857,0.07556-0.64587,0.09538
		c-0.06929,0.00632-0.13386,0.03192-0.19232,0.07121c-0.05326,0.0358-0.06959,0.07743-0.02498,0.13134
		c-0.00624,0.07623-0.07214,0.06413-0.11902,0.07754c-0.21691,0.06204-0.29515,0.24795-0.18459,0.44428
		c0.03925,0.0697,0.09737,0.12444,0.15359,0.18032c0.27354,0.27188,0.54462,0.54628,0.82246,0.81374
		c0.11063,0.1065,0.15082,0.22457,0.11836,0.37027C23.485,7.85712,23.46025,8.2264,23.37906,8.58612
		c-0.01987,0.08186-0.03579,0.16462-0.0509,0.2475c-0.02381,0.13062,0.01313,0.23896,0.12092,0.32144
		c0.10638,0.0814,0.21769,0.07174,0.32905,0.01549c0.25055-0.12654,0.49151-0.27055,0.73874-0.40323
		c0.14931-0.08014,0.30264-0.15262,0.45067-0.23477c0.10315-0.05725,0.19695-0.05455,0.30005,0.00159
		c0.32536,0.17714,0.65711,0.34262,0.97921,0.5258c0.0322,0.01831,0.06345,0.03826,0.09613,0.05582
		c0.29074,0.15621,0.37622,0.13716,0.56902-0.12702c0.01258-0.01724,0.02826-0.03127,0.04559-0.04379
		c0.16421-0.09081,0.21918-0.22441,0.18588-0.40925c-0.08644-0.47981-0.15824-0.96213-0.2409-1.44254
		c-0.00514-0.0715,0.04163-0.11669,0.08671-0.16081c0.24121-0.23607,0.47299-0.48093,0.70484-0.72597
		c0.06749-0.07133,0.08559-0.1813,0.18598-0.22311c0.21472-0.08025,0.27088-0.30994,0.11296-0.46251
		c-0.06741-0.06513-0.14969-0.10234-0.24132-0.11243c-0.39637-0.04366-0.78592-0.13456-1.18315-0.16984
		c-0.18388-0.01633-0.31178-0.08702-0.35983-0.27465c-0.02934-0.11457-0.14062-0.20121-0.11877-0.33441
		c0.00596-0.11221-0.08553-0.19049-0.1126-0.31809c0.229,0.03257,0.43593,0.10196,0.64075,0.17215
		c0.61366,0.21031,1.13203,0.57402,1.58293,1.0273c0.36817,0.37011,0.76006,0.68722,1.28645,0.79915
		c0.04203,0.00894,0.02742,0.03442,0.01801,0.05859c-0.15447,0.01937-0.24981,0.10602-0.25342,0.23027
		c-0.00364,0.12574,0.08217,0.21463,0.21552,0.21662c0.18354,0.00273,0.3582,0.0361,0.51722,0.13185
		c0.04086,0.05613,0.0148,0.1126-0.00325,0.16623c-0.34944,1.03844-0.81078,2.01967-1.50616,2.87961
		c-0.30554,0.37785-0.66394,0.67892-1.15258,0.80536c-0.31873,0.08247-0.55513,0.2852-0.71106,0.57276
		c-0.10719,0.19768-0.26266,0.28109-0.49149,0.2809c-4.10605-0.00339-8.21211-0.00241-12.31817-0.00302
		c-0.07869-0.00001-0.16114,0.01125-0.22854-0.0465c-0.00197-0.13711,0.01324-0.27708-0.00937-0.41075
		c-0.05207-0.30794-0.31256-0.50834-0.63726-0.50839c-2.18027-0.00032-4.36055-0.00356-6.54081,0.00252
		c-0.47064,0.00131-0.93796-0.32945-0.99797-0.79316C5.34741,9.57804,5.07652,9.38435,4.75311,9.38403
		C4.14689,9.38344,3.54066,9.38508,2.93445,9.38344c-0.43947-0.00119-0.8149-0.26515-0.93069-0.65527
		C1.96948,8.61272,1.94883,8.4944,1.94894,8.37167c0.0016-1.73652-0.00137-3.47305,0.00421-5.20955
		c0.00069-0.21636-0.03287-0.40674-0.19461-0.56069c0.00135-0.07036,0.01756-0.13601,0.06206-0.19268L1.82045,2.40978
		C1.88105,2.37608,1.95163,2.41506,2.01256,2.3838z"/>
	<path fill="#FEFEFE" d="M24.20774,5.26213c0.19924-0.42238,0.39847-0.84475,0.5977-1.26712
		c0.09137-0.13886,0.21603-0.21279,0.38739-0.19565c0.20338,0.014,0.25596,0.17903,0.3294,0.32344
		c0.16426,0.3702,0.35709,0.72732,0.51368,1.10088c0.05455,0.13014,0.15367,0.17401,0.2851,0.18724
		c0.25803,0.02597,0.5152,0.06024,0.76927,0.11347c0.0513,0.01075,0.10571,0.01343,0.15033,0.04639
		c0.04502,0.08205-0.01724,0.13006-0.06398,0.17571C26.942,5.9757,26.73596,6.23143,26.49756,6.4574
		c-0.21799,0.20661-0.30709,0.45553-0.24615,0.7597c0.07037,0.35121,0.11373,0.70747,0.17429,1.06063
		c0.02725,0.15891-0.00666,0.2962-0.13832,0.39473c-0.14018,0.10491-0.29283,0.112-0.44928,0.03013
		c-0.27707-0.14497-0.55511-0.28948-0.82042-0.45388c-0.32488-0.20131-0.63159-0.20092-0.95312,0.00603
		c-0.18195,0.11711-0.37723,0.21529-0.5724,0.31107c-0.04494,0.02205-0.08829,0.0662-0.14505,0.02445
		c0.05661-0.35821,0.1068-0.71759,0.1729-1.07407c0.02747-0.14816,0.0064-0.25361-0.10979-0.36366
		c-0.30009-0.28422-0.5788-0.59066-0.87837-0.87546c-0.13635-0.12963-0.18333-0.27711-0.13509-0.44121
		c0.04579-0.1558,0.1916-0.19835,0.34433-0.20574c0.00906-0.00044,0.01764-0.01055,0.02644-0.01617
		c0.18294-0.09388,0.38915-0.08772,0.58382-0.1307c0.14948-0.03301,0.30332-0.05275,0.45617-0.06457
		C23.95993,5.40691,24.09937,5.37773,24.20774,5.26213z"/>
	<path fill="#5F6C6F" d="M27.23775,5.58569c-0.351-0.05355-0.70192-0.10762-1.05308-0.16008
		C26.13167,5.4177,26.0828,5.41652,26.05494,5.3557c-0.18855-0.41165-0.38003-0.82197-0.57056-1.23272
		c0.10527-0.01377,0.18693,0.09111,0.29724,0.063c0.0126-0.12767-0.15455-0.21214-0.0749-0.34874
		c0.15622,0.18413,0.18091,0.42702,0.28764,0.63312c0.02835,0.05475,0.04341,0.11817,0.0956,0.15906
		c0.06729,0.14319,0.1443,0.28284,0.1991,0.4306c0.05302,0.14298,0.18079,0.11841,0.27945,0.1343
		c0.39618,0.06382,0.79519,0.11015,1.19229,0.16873c0.16663,0.02458,0.31003,0.1023,0.36021,0.27193
		c0.05037,0.17027-0.05934,0.2881-0.17256,0.39822c-0.07711,0.075-0.06463-0.00136-0.07519-0.04096
		c-0.08797-0.22507-0.23795-0.36028-0.49681-0.34377C27.32226,5.65191,27.27578,5.62458,27.23775,5.58569z"/>
	<path fill="#5A6668" d="M25.70672,3.83723c-0.00253,0.11281,0.07644,0.19404,0.11437,0.29117
		c0.01292,0.03308,0.0504,0.06697,0.02499,0.10114c-0.02491,0.0335-0.06668,0.01443-0.10353,0.00671
		c-0.09451-0.01981-0.18342-0.05008-0.25818-0.11328c-0.06535-0.13609-0.13781-0.26587-0.29152-0.3236
		c-0.11562-0.0323-0.13969-0.07481-0.0362-0.16417C25.35682,3.46236,25.60906,3.55182,25.70672,3.83723z"/>
	<path fill="#6E9DA1" d="M4.34497,1.33372c-0.47614,0.00001-0.95229,0-1.42843,0.00007
		C2.84801,1.3338,2.7784,1.34085,2.71617,1.30195c0.05534-0.0543,0.11837-0.09729,0.19021-0.12731
		c0.09486-0.0356,0.19288-0.04786,0.29426-0.04727c0.31649,0.00183,0.633,0.00044,0.94951,0.00081
		c0.06853,0.00008,0.13841-0.00451,0.19424,0.04731C4.34458,1.22822,4.34478,1.28097,4.34497,1.33372z"/>
	<path fill="#6A989C" d="M4.34439,1.17548c-0.47933-0.00028-0.95866-0.00056-1.438-0.00084
		c0.0641-0.05514,0.13624-0.09179,0.22272-0.09542c0.4052,0.00035,0.81041,0.0007,1.21563,0.00106
		C4.34462,1.11201,4.3445,1.14374,4.34439,1.17548z"/>
	<path fill="#6E9DA1" d="M13.57357,11.60259c4.18751-0.00007,8.37503-0.00139,12.56254,0.00336
		c0.2172,0.00025,0.34595-0.08213,0.43969-0.26722c0.13127-0.2592,0.33581-0.47577,0.61448-0.54188
		c0.78852-0.18707,1.2417-0.75582,1.64759-1.37457c0.50342-0.76744,0.87939-1.59765,1.14696-2.47506
		c0.06837,0.00286,0.12062,0.03562,0.16304,0.08662c0.02487,0.05919,0.00213,0.11335-0.01659,0.16865
		c-0.34959,1.03246-0.81802,2.00379-1.49935,2.86497c-0.32856,0.41529-0.71655,0.74646-1.24759,0.88547
		c-0.29298,0.0767-0.50451,0.26726-0.64108,0.53307c-0.11688,0.22748-0.29336,0.32398-0.55217,0.32376
		c-4.1295-0.00342-8.259-0.00237-12.3885-0.00288c-0.07872-0.00001-0.16125,0.0124-0.22872-0.04578
		C13.57377,11.70826,13.57367,11.65543,13.57357,11.60259z"/>
	<path fill="#679397" d="M30.20852,7.0712c0.04393,0.01744,0.07421,0.05001,0.0993,0.08829
		c-0.11185,0.24196-0.1836,0.49915-0.28,0.74714c-0.1511,0.38872-0.32796,0.7639-0.5261,1.12832
		c-0.21584,0.39701-0.46068,0.77966-0.756,1.12399c-0.23904,0.2787-0.49527,0.54335-0.81211,0.74148
		c-0.14549,0.09098-0.31059,0.13933-0.46917,0.18213c-0.26169,0.07063-0.44408,0.22549-0.56687,0.44492
		c-0.21954,0.39234-0.31879,0.45718-0.764,0.4242c-0.03175-0.00235-0.06381-0.00064-0.09572-0.00064
		c-4.15442,0.00006-8.30883,0.00013-12.46323,0.0002c-0.00014-0.03167-0.00029-0.06335-0.00044-0.09503
		c0.07773-0.06538,0.17179-0.04592,0.26038-0.04596c2.27701-0.00094,4.55403-0.00071,6.83105-0.00074
		c1.84076-0.00002,3.68154-0.00301,5.52228,0.0034c0.266,0.00093,0.43855-0.0923,0.55805-0.3295
		c0.12455-0.24723,0.31604-0.44503,0.59541-0.51455c0.62091-0.15449,1.03818-0.56806,1.40749-1.05091
		c0.30976-0.40499,0.55938-0.8447,0.78928-1.29785c0.23455-0.46232,0.43512-0.93748,0.59884-1.42854
		C30.15167,7.1474,30.1647,7.09955,30.20852,7.0712z"/>
	<path fill="#6B989C" d="M30.20852,7.0712c-0.07896,0.35092-0.22425,0.67854-0.36779,1.00572
		c-0.11763,0.26813-0.24568,0.53232-0.3812,0.79204c-0.25147,0.48194-0.54071,0.93986-0.90405,1.34888
		c-0.16834,0.1895-0.34641,0.36726-0.55492,0.51356c-0.19737,0.13848-0.42676,0.20297-0.6517,0.27584
		c-0.26856,0.087-0.45667,0.2693-0.57286,0.51095c-0.11908,0.24767-0.29895,0.34017-0.56654,0.33997
		c-4.21177-0.0031-8.42353-0.00206-12.63529-0.00197c-0.0001-0.0317-0.00021-0.06341-0.00031-0.09511
		c4.20754-0.00008,8.41507-0.00158,12.6226,0.00329c0.25212,0.00029,0.40675-0.09678,0.51546-0.31411
		c0.11963-0.23917,0.30417-0.44052,0.56491-0.50474c0.71678-0.17658,1.17336-0.66563,1.5681-1.23285
		c0.54953-0.78964,0.95578-1.6505,1.2583-2.5607c0.01326-0.03989,0.02967-0.07875,0.04463-0.11812
		C30.16808,7.0463,30.1883,7.05875,30.20852,7.0712z"/>
	<path fill="#6E9CA1" d="M1.82059,2.40875c0.00558,0.07256,0.00045,0.14173-0.06206,0.19268
		C1.68152,2.54899,1.60634,2.4917,1.50387,2.50676C1.6007,2.44624,1.70251,2.40158,1.82059,2.40875z"/>
	<path fill="#6E9DA1" d="M2.04482,1.20572C1.95429,1.38747,1.88066,1.57434,1.84646,1.77613
		c-0.01005,0.05929-0.0113,0.14531-0.11585,0.13019C1.64063,1.93968,1.62812,1.87064,1.62298,1.81543
		c-0.0127-0.13647-0.01929-0.27462,0.00469-0.41022c0.02362-0.1335,0.14049-0.24728,0.26536-0.26328
		C1.9519,1.13439,2.02399,1.11547,2.04482,1.20572z"/>
	<path fill="#6A979B" d="M2.04482,1.20572C1.87828,1.14793,1.71343,1.21755,1.67646,1.38191
		C1.64099,1.53961,1.66025,1.70386,1.6697,1.86512C1.67133,1.89295,1.70426,1.90086,1.73058,1.9063
		c-0.04797,0.04353-0.10769,0.02598-0.1631,0.03088C1.56729,1.78483,1.56422,1.63241,1.56754,1.48013
		c0.00559-0.25632,0.1467-0.39361,0.40657-0.39957c0.05816-0.00134,0.11641,0.00131,0.17467,0.00214
		C2.11417,1.12371,2.07949,1.16472,2.04482,1.20572z"/>
	<path fill="#6E9CA1" d="M2.01256,2.3838C1.95424,2.43407,1.88484,2.40357,1.82046,2.40978
		C1.87905,2.36152,1.94749,2.38492,2.01256,2.3838z"/>
	<path fill="#FEFEFE" d="M4.24948,5.19977C4.41264,4.85789,4.57931,4.5176,4.73762,4.17353
		c0.09422-0.20478,0.19173-0.39538,0.4665-0.37326c0.19822,0.00508,0.25779,0.1631,0.32322,0.3024
		c0.17236,0.36694,0.3536,0.7298,0.52131,1.09869C6.115,5.34727,6.21309,5.39722,6.36479,5.41556
		C6.66318,5.45164,6.96637,5.46804,7.2532,5.57167c0.04257,0.08229-0.02029,0.12881-0.06598,0.17621
		C6.96691,5.97639,6.76027,6.21754,6.52955,6.43655C6.29889,6.65551,6.20078,6.91532,6.26999,7.23823
		c0.07404,0.34541,0.11566,0.69718,0.17463,1.04562c0.0265,0.1566-0.01579,0.28482-0.13625,0.38122
		C6.17789,8.76949,6.02833,8.79099,5.87499,8.71424C5.59979,8.57649,5.3268,8.43259,5.06657,8.26996
		c-0.32986-0.20615-0.6417-0.2398-0.98038-0.01784C3.90568,8.37042,3.70716,8.46461,3.51448,8.5655
		C3.47735,8.58495,3.43397,8.61672,3.39634,8.59083C3.35091,8.55957,3.36858,8.50757,3.38533,8.46267
		C3.43943,8.1103,3.48881,7.7571,3.55119,7.40618C3.56537,7.3264,3.54819,7.28112,3.49547,7.22792
		C3.17589,6.90551,2.86593,6.57337,2.53833,6.25931C2.40598,6.13244,2.36027,5.99358,2.4098,5.83587
		c0.04538-0.14446,0.17721-0.19962,0.32814-0.20172c0.01405-0.0002,0.02792-0.01278,0.04187-0.01961
		c0.1993-0.09627,0.4197-0.10102,0.63193-0.1357c0.18288-0.02988,0.36582-0.07094,0.55173-0.07529
		C4.11137,5.4001,4.15658,5.27045,4.24948,5.19977z"/>
	<path fill="#FEFEFE" d="M16.64176,8.59023c0.05661-0.3582,0.10679-0.71757,0.17292-1.07402
		c0.0275-0.14821,0.00639-0.25362-0.10982-0.36367c-0.3001-0.28422-0.57887-0.59059-0.87837-0.87548
		c-0.13622-0.12958-0.18357-0.27702-0.13514-0.44123c0.04593-0.15574,0.19169-0.19829,0.34441-0.20565
		C16.04481,5.62974,16.0534,5.61961,16.0622,5.614c0.18291-0.09394,0.38911-0.08777,0.58376-0.13075
		c0.14947-0.03301,0.3033-0.05277,0.45615-0.06456c0.1524-0.01175,0.29177-0.04108,0.40023-0.15647
		c0.17089-0.35973,0.34487-0.71807,0.51147-1.07974c0.09561-0.20756,0.19039-0.40695,0.47346-0.38066
		c0.16507-0.00841,0.23491,0.11458,0.28641,0.23127c0.15965,0.36172,0.35658,0.70649,0.50047,1.07462
		c0.07733,0.19785,0.19326,0.29672,0.41913,0.31475c0.28295,0.02258,0.57086,0.04748,0.84222,0.1485
		c0.04589,0.09057-0.02634,0.13846-0.07605,0.18743c-0.23413,0.2307-0.44308,0.48469-0.68034,0.71279
		c-0.2079,0.19988-0.29218,0.44261-0.23469,0.73506c0.06925,0.3523,0.11333,0.70921,0.17465,1.06307
		c0.02859,0.16502-0.00388,0.30713-0.14395,0.40811c-0.14304,0.10313-0.29569,0.10361-0.45119,0.02119
		c-0.2722-0.14428-0.54685-0.28546-0.80803-0.44778c-0.3248-0.20186-0.63228-0.20501-0.95515,0.00293
		c-0.18234,0.11743-0.37811,0.21575-0.57369,0.31181C16.74209,8.58768,16.69868,8.63205,16.64176,8.59023z"/>
	<path fill="#FEFEFE" d="M10.79695,5.26252c0.17089-0.35977,0.34465-0.71823,0.51156-1.07981
		c0.09563-0.20717,0.19017-0.40716,0.47331-0.38102c0.16498-0.00821,0.2349,0.11467,0.28641,0.23139
		c0.15963,0.36173,0.35658,0.70649,0.50047,1.07463c0.07733,0.19786,0.19327,0.2967,0.41914,0.31474
		c0.28294,0.02259,0.57086,0.04747,0.84222,0.14851c0.04427,0.0821-0.0178,0.13006-0.0646,0.17577
		c-0.23468,0.22922-0.44073,0.48499-0.67915,0.71098c-0.21806,0.20668-0.30789,0.45597-0.24547,0.75987
		c0.07103,0.34578,0.10705,0.69796,0.17567,1.04447c0.03253,0.16427-0.00467,0.30697-0.13964,0.4098
		c-0.13922,0.10607-0.29238,0.11248-0.44914,0.03108c-0.26816-0.13925-0.53787-0.2777-0.79263-0.4385
		c-0.33825-0.2135-0.65707-0.22427-0.99505-0.00213c-0.17616,0.11578-0.36781,0.21042-0.55853,0.30333
		c-0.045,0.02192-0.08826,0.06628-0.14505,0.02453C9.9931,8.23193,10.04337,7.87253,10.10939,7.516
		c0.02742-0.1481,0.00634-0.25354-0.10991-0.36359C9.69932,6.86827,9.42057,6.5619,9.12109,6.27702
		C8.98488,6.14746,8.93733,6.00005,8.98601,5.83583C9.0321,5.68033,9.1776,5.63734,9.33047,5.63026
		C9.33951,5.62984,9.3481,5.6197,9.3569,5.61409c0.18281-0.09413,0.38902-0.08784,0.58362-0.13084
		c0.14944-0.03302,0.30326-0.05276,0.45608-0.06455C10.54896,5.40695,10.68829,5.37755,10.79695,5.26252z"/>
	<path fill="#DCDEE0" d="M16.64176,8.59023c0.22948-0.12003,0.47193-0.22102,0.68553-0.36437
		c0.35539-0.2385,0.68669-0.21619,1.03759,0.003c0.25561,0.15966,0.52831,0.29216,0.7912,0.44058
		c0.14947,0.08438,0.29201,0.06358,0.41574-0.03609c0.10353-0.08341,0.13337-0.19804,0.10684-0.33918
		c-0.07359-0.3916-0.13921-0.78506-0.19296-1.17981c-0.03394-0.24925,0.06096-0.46579,0.23474-0.64679
		c0.24548-0.25568,0.49237-0.51002,0.73847-0.76511c0.03256-0.03375,0.07489-0.06181,0.07354-0.11677
		c0.37509-0.09718,0.70267,0.13472,0.66809,0.39236c-0.02536,0.04406-0.02616,0.09967-0.06459,0.13782
		c-0.30701,0.31758-0.61402,0.63517-0.92104,0.95275c0.00047,0.05015-0.01711,0.09583-0.05424,0.12696
		c-0.12234,0.10259-0.1268,0.22883-0.0952,0.37209c0.08832,0.40042,0.11984,0.81047,0.20289,1.21198
		c0.0138,0.06669,0.03148,0.13516-0.02327,0.19437c-0.11881,0.28748-0.28714,0.35287-0.56344,0.20744
		c-0.3843-0.20227-0.76632-0.40893-1.14635-0.61899c-0.08922-0.04931-0.16108-0.04913-0.2503,0.00005
		c-0.38953,0.21472-0.78298,0.42242-1.17398,0.63452c-0.1312,0.07117-0.25978,0.09064-0.38791-0.00213
		c-0.13666-0.09895-0.17387-0.23638-0.13581-0.39239C16.60456,8.7318,16.59437,8.65331,16.64176,8.59023z"/>
	<path fill="#DCDEE0" d="M27.23775,5.58569c0.09952,0.0118,0.19951,0.02059,0.29845,0.03603
		c0.21228,0.03313,0.319,0.15229,0.33708,0.37047c-0.06478,0.224-0.26512,0.34439-0.4045,0.50983
		c-0.16886,0.20043-0.36444,0.37868-0.54847,0.56652c-0.00581,0.04258-0.01772,0.08621-0.04937,0.11382
		c-0.13495,0.11774-0.12999,0.26174-0.09484,0.41824c0.08748,0.38944,0.11538,0.78894,0.19774,1.17942
		c0.01404,0.06653,0.03151,0.135-0.0234,0.19404c-0.1187,0.28744-0.28695,0.35276-0.56345,0.20737
		c-0.38906-0.20459-0.77561-0.41399-1.16088-0.62555c-0.07881-0.04328-0.1425-0.04307-0.22124,0.00006
		c-0.39476,0.21621-0.79267,0.42673-1.18844,0.64113c-0.13124,0.0711-0.25981,0.09054-0.38795-0.00214
		c-0.13674-0.0989-0.17385-0.23639-0.1358-0.39236c0.01725-0.07073,0.00707-0.14921,0.05444-0.21231
		c0.2295-0.12003,0.47197-0.221,0.68555-0.36437c0.35539-0.23856,0.68669-0.21623,1.03761,0.00292
		c0.25562,0.15963,0.52831,0.29215,0.7912,0.44059c0.14947,0.0844,0.29202,0.06362,0.41575-0.03602
		c0.10354-0.08338,0.13343-0.19801,0.1069-0.33917c-0.07359-0.3916-0.13921-0.78507-0.19296-1.17982
		c-0.03394-0.24925,0.0609-0.4658,0.2347-0.64681c0.24549-0.25567,0.49236-0.51004,0.73844-0.76515
		C27.19684,5.6687,27.23935,5.64075,27.23775,5.58569z"/>
	<path fill="#DCDEE0" d="M9.93648,8.59017c0.22949-0.12005,0.47194-0.22107,0.68555-0.36443
		c0.35548-0.23857,0.68666-0.21564,1.03769,0.00323c0.26025,0.16227,0.53687,0.29863,0.80569,0.44744
		c0.14467,0.08009,0.28463,0.05299,0.40097-0.04358c0.10593-0.08792,0.1381-0.20706,0.10944-0.35463
		c-0.07598-0.39122-0.14356-0.78461-0.1962-1.17953C12.74724,6.8558,12.84526,6.64413,13.0149,6.4676
		c0.24561-0.25559,0.49243-0.51003,0.73855-0.76514c0.03256-0.03375,0.0749-0.06182,0.07354-0.11678
		c0.24444-0.06954,0.49121,0.0061,0.61615,0.19276c0.04371,0.0653,0.08941,0.13515,0.01943,0.21284
		c-0.06391,0.22471-0.26493,0.34488-0.40431,0.5105c-0.16886,0.20064-0.3646,0.37899-0.5487,0.56698
		c-0.00601,0.04251-0.01784,0.08628-0.04958,0.1137c-0.14198,0.12265-0.12764,0.27386-0.09201,0.43359
		c0.08687,0.38946,0.11428,0.78891,0.19788,1.17905c0.01329,0.06202,0.02396,0.12509-0.02597,0.17873
		c-0.11907,0.28753-0.28742,0.35303-0.56323,0.20781c-0.38416-0.20226-0.76601-0.40895-1.14603-0.61876
		C11.74185,8.51389,11.67,8.51264,11.58036,8.56211c-0.38931,0.21483-0.78272,0.42232-1.17359,0.63439
		c-0.13099,0.07107-0.26004,0.0923-0.38778-0.00098C9.88348,9.09656,9.84651,8.95784,9.88217,8.80236
		C9.89839,8.73162,9.88879,8.65312,9.93648,8.59017z"/>
	<path fill="#DCDEE0" d="M3.38533,8.46267c0.00021,0.07482-0.00826,0.14227,0.10701,0.07368
		c0.23654-0.14075,0.4799-0.27033,0.72189-0.40189c0.3116-0.16941,0.59082-0.0674,0.86854,0.09657
		C5.3426,8.38445,5.61185,8.52206,5.87492,8.6702c0.14973,0.08432,0.29351,0.06321,0.41517-0.03827
		c0.10474-0.08738,0.14063-0.2018,0.11002-0.35345c-0.07986-0.39562-0.14693-0.7947-0.19591-1.19519
		C6.17305,6.82864,6.29265,6.61503,6.47094,6.43305c0.24065-0.24563,0.47794-0.49451,0.71684-0.74183
		C7.21715,5.6608,7.25129,5.6335,7.24932,5.58531c0.35753-0.07985,0.62564,0.07832,0.67772,0.34406
		c0.00184,0.04685-0.00126,0.09202-0.04481,0.12249C7.61995,6.39004,7.30562,6.68001,7.00669,6.98428
		C6.97035,7.02126,6.92181,7.04883,6.90563,7.10299c0.00589,0.0275,0.00172,0.05796-0.01784,0.07372
		C6.71986,7.31198,6.76327,7.485,6.79852,7.65597c0.07756,0.37624,0.12403,0.75755,0.18985,1.13569
		c0.0109,0.06261,0.0232,0.12538-0.02358,0.18057c-0.10616,0.27855-0.28811,0.35457-0.54789,0.2177
		C6.07463,9.00962,5.7291,8.83352,5.39947,8.63224C5.21317,8.51848,5.06472,8.51317,4.87678,8.62496
		C4.53542,8.82802,4.17887,9.00583,3.83022,9.19697C3.6917,9.2729,3.5583,9.28697,3.43081,9.18142
		C3.30886,9.08046,3.27065,8.95195,3.31083,8.79783C3.33969,8.68714,3.33066,8.56794,3.38533,8.46267z"/>
	<path fill="#5F6C6F" d="M14.46256,5.99129c-0.01838-0.21805-0.12479-0.33647-0.33741-0.3696
		c-0.09885-0.0154-0.19874-0.02421-0.29816-0.036c-0.35125-0.05358-0.70218-0.10934-1.054-0.1589
		c-0.071-0.01-0.11086-0.03354-0.14187-0.101c-0.19165-0.41701-0.39133-0.83038-0.58277-1.24748
		c-0.05777-0.12587-0.13476-0.22497-0.26648-0.27658c-0.13355-0.04035-0.12155-0.09664-0.02612-0.17551
		c0.17229-0.1424,0.40176-0.09194,0.5139,0.1341c0.19444,0.39191,0.39116,0.78391,0.55732,1.18788
		c0.06968,0.16942,0.1673,0.23114,0.33265,0.25171c0.39795,0.0495,0.79527,0.10456,1.19193,0.16342
		c0.16638,0.02469,0.30949,0.10304,0.3589,0.27282c0.04953,0.17017-0.06003,0.28798-0.17359,0.3975
		C14.45722,6.11043,14.47448,6.02739,14.46256,5.99129z"/>
	<path fill="#5F6C6F" d="M21.17127,5.99123c-0.02713-0.23-0.13139-0.33936-0.35642-0.37104
		c-0.09389-0.01322-0.18825-0.0231-0.2824-0.03449c-0.35124-0.05358-0.70216-0.10934-1.05398-0.1589
		c-0.07095-0.01-0.11106-0.03339-0.14207-0.10085c-0.19168-0.41697-0.39123-0.83038-0.58276-1.24741
		c-0.05774-0.12572-0.13405-0.22556-0.26632-0.27668c-0.1343-0.04067-0.12094-0.09736-0.02576-0.17594
		c0.17261-0.14252,0.40205-0.09113,0.51433,0.13577c0.19437,0.39281,0.3898,0.78609,0.55807,1.19014
		c0.06726,0.16151,0.16141,0.2261,0.32007,0.2466c0.39844,0.05147,0.79647,0.10623,1.1941,0.16358
		c0.11157,0.01609,0.21399,0.0563,0.29284,0.14568c0.11607,0.13157,0.11906,0.26605,0.00152,0.39579
		c-0.04604,0.05082-0.09241,0.10135-0.13864,0.15202C21.14468,6.05819,21.15368,6.02686,21.17127,5.99123z"/>
	<path fill="#5F6C6F" d="M7.89049,5.92908C7.84635,5.74076,7.72103,5.64449,7.53332,5.61994
		C7.43876,5.60756,7.34399,5.5968,7.24932,5.58531C6.89804,5.53174,6.5471,5.47577,6.1952,5.42655
		C6.12252,5.41639,6.08763,5.38857,6.05705,5.32208c-0.194-0.42186-0.39625-0.83999-0.59104-1.2615
		C5.40983,3.939,5.32871,3.85021,5.20417,3.80029c-0.1409-0.03994-0.11816-0.09767-0.02478-0.17483
		c0.17629-0.14567,0.40468-0.08752,0.5217,0.14976c0.19826,0.40204,0.39938,0.80351,0.57397,1.21579
		c0.06371,0.15044,0.16023,0.19387,0.29437,0.20495c0.37968,0.03135,0.75153,0.11412,1.12845,0.16299
		c0.08452,0.0241,0.17351,0.03167,0.25368,0.07211c0.1843,0.09296,0.24051,0.31555,0.1143,0.46135
		C8.01775,5.94798,7.9638,5.98705,7.89049,5.92908z"/>
	<path fill="#5F6C6F" d="M13.53986,8.97383c-0.06714-0.42923-0.13395-0.85851-0.20169-1.28764
		c-0.01304-0.08258-0.02693-0.16521-0.04525-0.24675c-0.04291-0.19091,0.1299-0.25558,0.21661-0.37066
		c0.08758,0.25202,0.1051,0.51808,0.15579,0.77742C13.71226,8.08642,13.74151,8.33,13.78527,8.5709
		C13.8224,8.77525,13.73274,8.9293,13.53986,8.97383z"/>
	<path fill="#5F6C6F" d="M20.2451,8.97403c-0.06711-0.42931-0.1339-0.85867-0.20162-1.28788
		c-0.01303-0.08259-0.02609-0.16546-0.04544-0.24672c-0.04601-0.19317,0.13555-0.25256,0.21686-0.37079
		c0.08766,0.25205,0.10505,0.51818,0.15583,0.77755c0.04704,0.24025,0.07626,0.48388,0.12003,0.72483
		C20.52785,8.77525,20.43816,8.92922,20.2451,8.97403z"/>
	<path fill="#5F6C6F" d="M26.95044,8.97407c-0.06714-0.42932-0.13395-0.85869-0.2017-1.28792
		c-0.01303-0.08259-0.02699-0.16521-0.04525-0.24678c-0.04273-0.1909,0.1301-0.25564,0.2168-0.37082
		c0.08724,0.24846,0.11268,0.51019,0.15244,0.76721c0.03851,0.2489,0.08295,0.4966,0.1264,0.74451
		C27.23206,8.76812,27.13176,8.93159,26.95044,8.97407z"/>
	<path fill="#5F6C6F" d="M6.96478,8.97222C6.89591,8.5382,6.82712,8.10415,6.75809,7.67015
		c-0.01314-0.0826-0.02322-0.16594-0.04169-0.24737C6.67845,7.25554,6.82992,7.20207,6.90559,7.103
		c0.08863,0.02424,0.07727,0.10439,0.08785,0.16636c0.07479,0.438,0.14432,0.87689,0.21877,1.31495
		C7.24554,8.78033,7.15371,8.92941,6.96478,8.97222z"/>
	<path fill="#606D70" d="M4.24948,5.19977C4.21533,5.38834,4.08489,5.43368,3.911,5.45356
		C3.53275,5.49681,3.15678,5.55968,2.77985,5.61454C2.7437,5.59819,2.68569,5.63477,2.66897,5.58017
		C2.65679,5.5404,2.70193,5.51857,2.72544,5.49167c0.07447-0.08519,0.1769-0.11435,0.28279-0.13044
		c0.34982-0.05315,0.69993-0.10449,1.0503-0.15392C4.12128,5.19845,4.18579,5.20197,4.24948,5.19977z"/>
	<path fill="#606D70" d="M10.79695,5.26252c-0.02487,0.10897-0.08868,0.16109-0.20553,0.17612
		c-0.41219,0.05304-0.82307,0.11614-1.23448,0.17544C9.32076,5.59847,9.26355,5.6343,9.24644,5.5804
		C9.2338,5.54059,9.27848,5.51877,9.30213,5.49233C9.3808,5.40441,9.4871,5.3763,9.59849,5.35986
		c0.34276-0.05058,0.68528-0.10277,1.02847-0.15029C10.68742,5.2012,10.7678,5.15943,10.79695,5.26252z"/>
	<path fill="#606D70" d="M17.50235,5.26222c-0.02514,0.10863-0.08832,0.16131-0.20548,0.17635
		c-0.41226,0.05293-0.82318,0.11611-1.23464,0.17542c-0.03616-0.01558-0.09338,0.02035-0.11041-0.03364
		c-0.01254-0.03975,0.03212-0.06161,0.05578-0.08804c0.07866-0.08788,0.18495-0.11598,0.29631-0.13242
		c0.34268-0.05057,0.68513-0.10274,1.02824-0.15025C17.39261,5.20127,17.47287,5.15937,17.50235,5.26222z"/>
	<path fill="#606D70" d="M24.20774,5.26213c-0.02513,0.10858-0.08811,0.16142-0.20536,0.17646
		c-0.41231,0.05289-0.82328,0.11608-1.2348,0.17536c-0.03613-0.0156-0.09338,0.02043-0.11033-0.03368
		c-0.01244-0.03972,0.0322-0.06157,0.05585-0.08802c0.07864-0.0879,0.18495-0.11597,0.29629-0.13241
		c0.34264-0.05058,0.68506-0.10272,1.02814-0.1502C24.09796,5.20128,24.17821,5.15928,24.20774,5.26213z"/>
	<path fill="#6D7975" d="M7.89049,5.92908c0.12615,0.01698,0.19257-0.05415,0.21607-0.16233
		c0.03086-0.14204-0.0351-0.24898-0.16019-0.31345c-0.0782-0.0403-0.16536-0.06349-0.2485-0.09435
		c0.31255,0.00673,0.47025,0.14699,0.44637,0.39701C8.13182,5.88606,8.00942,6.0243,7.88226,6.05185
		C7.88498,6.01093,7.88774,5.97001,7.89049,5.92908z"/>
	<path fill="#6E8485" d="M21.17127,5.99123c0.01086,0.02142,0.02173,0.04284,0.03259,0.06425
		c-0.0209,0.02203-0.005,0.08479-0.06788,0.0604C21.14916,6.07473,21.13701,6.0265,21.17127,5.99123z"/>
</g>
</svg>
