<?xml version="1.0" encoding="utf-8"?>
<!-- Generator: Adobe Illustrator 23.0.0, SVG Export Plug-In . SVG Version: 6.00 Build 0)  -->
<svg version="1.1" id="Слой_1" xmlns="http://www.w3.org/2000/svg" xmlns:xlink="http://www.w3.org/1999/xlink" x="0px" y="0px" width="32px" height="13px"
	 viewBox="0 0 32 13" enable-background="new 0 0 32 13" xml:space="preserve">
<g>
	<path fill="#2D2D2D" d="M0.89421,13.03171c-0.02129,0-0.04258,0-0.06387,0c-0.33189-0.05128-0.56636-0.23342-0.72481-0.52346
		c-0.04681-0.08569-0.04518-0.18066-0.0736-0.26923c0-2.20894,0-4.41789,0-6.62683c0.03485-0.02886,0.07492-0.03617,0.11869-0.02871
		C0.45539,5.69106,0.56141,5.84659,0.56166,6.1995c0.00116,1.65307,0.00038,3.30614,0.00055,4.95921
		c0.00003,0.2535-0.00339,0.50706,0.00116,0.7605c0.0063,0.35083,0.20493,0.54561,0.55895,0.55372
		c0.06913,0.00158,0.1383,0.00062,0.20745,0.00062c5.03223,0.00002,10.06446,0.00001,15.09669,0.00004
		c0.07447,0,0.14897-0.00118,0.22341,0.00091c0.30542,0.00859,0.46832,0.13015,0.56356,0.41963
		c0.00416,0.04393-0.00023,0.08519-0.03738,0.11591c-0.06346,0.01024-0.12746,0.00508-0.19119,0.00508
		C11.68933,13.0154,6.3938,13.01529,1.09826,13.01625C1.03037,13.01627,0.96003,12.9992,0.89421,13.03171z"/>
	<path fill="#262727" d="M32.03194,6.81707c-0.0681,0.03774-0.04716,0.11026-0.05941,0.16599
		c-0.39919,1.81572-1.17821,3.44453-2.43258,4.83344c-0.45178,0.50023-0.98558,0.89556-1.64196,1.10594
		c-0.1224,0.03923-0.25892,0.03078-0.36905,0.10927c-0.05323,0-0.10645,0-0.15968,0
		c-0.06034-0.03174-0.12542-0.01549-0.18798-0.01551c-3.31391-0.00108-6.62782-0.00052-9.94174-0.00103
		c-0.02224,0.00184-0.04137-0.00496-0.05739-0.02038c-0.00017-0.02997-0.00034-0.05994-0.00051-0.08991
		c0.08268-0.06985,0.18271-0.04488,0.27574-0.04493c2.59057-0.0014,5.18114-0.00111,7.7717-0.00111
		c0.64365,0,1.28742-0.00727,1.93092,0.00236c0.49175,0.00736,0.93109-0.1431,1.34246-0.39298
		c0.30105-0.18286,0.55412-0.42158,0.80731-0.66529c0.73815-0.71053,1.25894-1.56783,1.69308-2.47631
		c0.3807-0.79665,0.69549-1.62217,0.83772-2.5014c0.01682-0.10396,0.00055-0.21217,0.04272-0.31239
		c0.02321-0.03561,0.05711-0.04082,0.09554-0.0329c0.04341,0.0116,0.02779,0.06037,0.05309,0.08348
		C32.03194,6.64797,32.03194,6.73252,32.03194,6.81707z"/>
	<path fill="#1A1A1A" d="M31.99734,6.49914c-0.031,0.00035-0.062,0.0007-0.093,0.00106
		c-0.04773,0.02092-0.07379,0.0121-0.06417-0.04601c0.06062-0.15737,0.01527-0.31401-0.01159-0.46778
		c-0.12274-0.70273-0.36967-1.36724-0.66633-2.01223c-0.40361-0.87752-0.89078-1.70954-1.52881-2.44009
		C29.2366,1.0797,28.7873,0.67248,28.23998,0.39232c-0.38112-0.19509-0.79011-0.27996-1.21673-0.28026
		c-1.76662-0.00125-3.53323-0.00052-5.29985-0.00052c-5.45948,0-10.91896-0.00002-16.37845,0.00013
		c-0.11169,0-0.22397-0.00669-0.33365,0.0228C4.98135,0.14099,4.95484,0.13734,4.93725,0.10882
		C4.92654,0.08072,4.93029,0.0549,4.9501,0.03171c7.56886,0,15.13772,0,22.70659,0c0.5473,0.15615,1.03113,0.42422,1.46064,0.7962
		c0.58697,0.50835,1.05593,1.11193,1.4606,1.76675c0.62538,1.01197,1.10967,2.08397,1.37445,3.24722
		c0.02359,0.10363,0.01355,0.21636,0.07956,0.30934c0,0.06341,0,0.12683,0,0.19024
		C31.99134,6.38773,32.04055,6.45343,31.99734,6.49914z"/>
	<path fill="#262626" d="M4.9501,0.03171C4.95002,0.05279,4.94995,0.07387,4.94987,0.09496
		C4.86868,0.16717,4.76843,0.1441,4.67535,0.14423c-1.21289,0.00174-2.4258,0.00573-3.63864-0.00217
		C0.73684,0.14011,0.51787,0.25869,0.33539,0.48046c-0.12589,0.153-0.1585,0.32676-0.15822,0.51765
		c0.00208,1.44715,0.00169,2.8943,0.00004,4.34145C0.17711,5.43197,0.20028,5.53148,0.12776,5.61218
		C0.09582,5.61218,0.06388,5.61219,0.03194,5.6122c0-1.61707,0-3.23415,0-4.85122c0.05856-0.37635,0.26544-0.62464,0.63872-0.72927
		C2.09714,0.03171,3.52362,0.03171,4.9501,0.03171z"/>
	<path fill="#697681" d="M17.18215,12.99479c0.00971,0.00373,0.01962,0.00684,0.02973,0.00936
		c0.01135,0.00546,0.01537,0.01135,0.01211,0.01771c-0.00336,0.00656-0.00681,0.00985-0.01041,0.00985
		c-5.43979,0-10.87957,0-16.31936,0c0.04294-0.06316,0.10752-0.03103,0.16097-0.03104
		c5.32782-0.00157,10.65563-0.00146,15.98345-0.00165C17.08647,12.99901,17.13431,12.99626,17.18215,12.99479z"/>
	<path fill="#535F69" d="M17.21357,13.03171c-0.00011-0.00923-0.00067-0.01843-0.00169-0.02759
		c0.05316-0.00135,0.10632-0.00391,0.15948-0.00392c3.28356-0.00032,6.56712-0.00053,9.85068,0.0004
		c0.04975,0.00001,0.10788-0.02365,0.14722,0.03111C23.98403,13.03171,20.5988,13.03171,17.21357,13.03171z"/>
	<path fill="#404C56" d="M31.99734,6.49914c0.01474-0.05186-0.0238-0.11525,0.03459-0.15767c0,0.07398,0,0.14797,0,0.22195
		C32.00381,6.55079,32.00073,6.52489,31.99734,6.49914z"/>
	<path fill="#202020" d="M0.12776,5.61218C0.12775,4.04827,0.13953,2.48421,0.11894,0.92057
		c-0.00479-0.36354,0.47394-0.8403,0.83988-0.83421c1.33003,0.02214,2.66065,0.00866,3.99105,0.00861
		C4.96053,0.10562,4.9712,0.11629,4.98186,0.12695C5.02553,0.15182,5.04677,0.1958,5.07412,0.23441
		c0.08566,0.12092,0.20453,0.18102,0.35132,0.19009C5.5105,0.42974,5.59569,0.42751,5.68083,0.42751
		c7.0302,0.00009,14.06041,0.00474,21.09058-0.0088c0.55958-0.00108,1.03728,0.16028,1.51231,0.41351
		c0.69142,0.36859,1.18761,0.93002,1.63156,1.55324c0.44357,0.62269,0.7294,1.3236,1.03938,2.01282
		c0.17588,0.39105,0.33209,0.79032,0.43048,1.20877c0.07688,0.32698,0.16073,0.64849,0.45503,0.86144
		c0.01394,0.02545,0.0379,0.03088,0.06418,0.0317c0.00679,0.4487-0.11967,0.87303-0.25241,1.29387
		c-0.14691,0.46578-0.33667,0.91474-0.53156,1.36414c-0.31543,0.72733-0.72515,1.39157-1.19203,2.02696
		c-0.20611,0.2805-0.46851,0.50826-0.70519,0.76016c-0.2988,0.31801-0.64632,0.55744-1.03605,0.74099
		c-0.29414,0.13853-0.60375,0.22013-0.93509,0.21992c-3.35679-0.00217-6.71358-0.00134-10.07037-0.00135
		c-0.10198-0.29217-0.31439-0.38429-0.61651-0.38401C11.4213,12.52578,6.27746,12.5216,1.13364,12.53059
		c-0.34756,0.00061-0.6313-0.2838-0.629-0.61844c0.01307-1.89589,0.00272-3.79192,0.01004-5.68786
		C0.51584,5.92426,0.42199,5.71347,0.12776,5.61218z"/>
	<path fill="#131313" d="M31.84016,6.46849c-0.22492-0.05815-0.31485-0.23919-0.38193-0.4309
		c-0.12858-0.36748-0.19738-0.75203-0.34127-1.11704c-0.15292-0.38792-0.32442-0.76711-0.49207-1.14818
		c-0.26208-0.59572-0.58988-1.15172-0.98083-1.67652c-0.54534-0.73205-1.24991-1.23339-2.10069-1.55063
		c-0.14282-0.05325-0.2839-0.07111-0.43443-0.07107C19.90269,0.47583,12.69643,0.47563,5.49018,0.47557
		c-0.29318,0-0.45809-0.11339-0.50831-0.34863c0.00568-0.04426,0.03182-0.06366,0.07583-0.0631
		c0.04255,0.00054,0.08512-0.00036,0.12768-0.00036c7.30464-0.00002,14.60927-0.00124,21.91391,0.00247
		c0.54115,0.00027,1.03366,0.16846,1.48546,0.47682c0.17305,0.1181,0.33567,0.24968,0.50591,0.3705
		c0.13079,0.09282,0.21326,0.25105,0.34065,0.35065c0.23322,0.18234,0.41119,0.41189,0.5742,0.64811
		c0.25726,0.37279,0.50632,0.75109,0.73434,1.14469c0.39933,0.68932,0.70767,1.41327,0.95353,2.1668
		c0.12103,0.37093,0.19002,0.75244,0.2407,1.13792C31.94353,6.43334,31.91973,6.47454,31.84016,6.46849z"/>
	<path fill="#262626" d="M14.10027,12.14386c-4.2682,0-8.5364,0.00001-12.80459-0.00001c-0.36236,0-0.40141-0.03834-0.40142-0.39433
		C0.89423,8.24635,0.89422,4.74318,0.89428,1.24001c0.00001-0.33853,0.04477-0.38383,0.38001-0.38384
		c8.54704-0.00006,17.09408,0.00058,25.64112-0.00132c0.64306-0.00014,1.1735,0.23939,1.65206,0.65787
		c0.35665,0.31188,0.66591,0.66377,0.93134,1.0439c0.38492,0.55126,0.71841,1.13579,0.98377,1.75938
		c0.1353,0.31794,0.27659,0.63349,0.38793,0.95991c0.21326,0.62518,0.32735,1.25388,0.13275,1.91598
		c-0.13346,0.45404-0.27104,0.90838-0.4579,1.33934c-0.17025,0.39265-0.34677,0.78854-0.57785,1.15478
		c-0.11409,0.18082-0.20322,0.37748-0.32131,0.55542c-0.24704,0.37225-0.52239,0.73062-0.83679,1.0427
		c-0.37232,0.36958-0.78861,0.71035-1.33711,0.80647c-0.1865,0.03268-0.37816,0.05098-0.56748,0.0511
		C22.63664,12.14451,18.36845,12.14386,14.10027,12.14386z"/>
	<path fill="#45271D" d="M27.72101,1.07993c0.6812,0.30501,1.18117,0.81518,1.61552,1.40141
		c0.31756,0.4286,0.59393,0.88291,0.83855,1.35461c0.22286,0.42975,0.40912,0.8772,0.5733,1.33286
		c0.01023,0.0284,0.00412,0.06261,0.00561,0.09412c-0.02877,0.11707-0.0547,0.23496-0.0862,0.3512
		c-0.11982,0.44211-0.54229,0.7799-0.97494,0.78413c-0.15443-0.03997-0.30756-0.08379-0.45969-0.13212
		c-0.43314-0.13763-0.73671-0.44999-1.05124-0.75107c-0.48429-0.46359-1.02326-0.84299-1.67783-1.03601
		C25.79453,4.2698,25.07962,4.08328,24.34571,3.977c-0.41075-0.05948-0.82158-0.10624-1.23858-0.09922
		c-0.52136,0.00878-1.04299,0.00275-1.56451,0.00188c-0.37771-0.00063-0.66657-0.15489-0.84963-0.48945
		c-0.06193-0.11318-0.14329-0.20928-0.25212-0.28077c-0.10754-0.09105-0.24588-0.11405-0.37176-0.16475
		c-0.14365-0.08907-0.26607-0.20716-0.42139-0.28191c-0.59736-0.28751-1.15064-0.21007-1.67028,0.18355
		c-0.02518,0.01908-0.04412,0.04586-0.07396,0.05992c-0.20306,0.05601-0.41013,0.02241-0.61522,0.02646
		c-0.14256,0.00281-0.28541-0.00576-0.42817,0.00114c-0.38866,0.00222-0.77728-0.00254-1.16588-0.0023
		c-0.07071-0.00227-0.14147-0.0016-0.21221-0.00134c-0.34037,0.00047-0.68071,0.00868-1.02111,0.0048
		c-0.07948-0.00091-0.16006,0.00516-0.23555-0.02791c-0.2444-0.20257-0.51333-0.34932-0.83557-0.39736
		c-0.40711-0.0607-0.76668,0.04907-1.10199,0.26801c-0.06583,0.04299-0.12423,0.10216-0.21283,0.09625
		c-0.16884-0.04785-0.30563-0.14118-0.41827-0.27528c-0.49168-0.5853-0.49108-0.52133-1.13722-0.52166
		C8.78042,2.07616,7.04139,2.07762,5.30237,2.07619C4.82917,2.07581,4.52828,1.86345,4.36943,1.42684
		C4.35958,1.36242,4.33277,1.30099,4.33296,1.23457C4.32804,1.17747,4.32949,1.12047,4.33501,1.06337
		c0.00668-0.04057,0.01422-0.08058,0.06189-0.0947C5.72761,0.96608,7.05822,0.9677,8.38883,0.96765
		C14.68,0.96742,20.97116,0.96757,27.26208,0.96752C27.41888,0.98892,27.576,1.01003,27.72101,1.07993z"/>
	<path fill="#664532" d="M13.60356,12.0475c-3.51994,0.00043-7.03987,0.0008-10.55981,0.00178
		c-0.0593,0.00002-0.11666-0.00307-0.17003-0.03133c-0.13754-0.00318-0.22049-0.09837-0.29899-0.1884
		c-0.15794-0.18112-0.2403-0.39558-0.25289-0.63607C2.30849,10.93841,2.26853,10.9004,2.005,10.88446
		c-0.4358-0.02635-0.92098-0.44489-0.98831-0.85142C1.00718,9.97561,0.99605,9.91911,1.01951,9.86265
		C1.01062,9.8084,1.00173,9.75415,0.99284,9.6999c0.02651-0.06095,0.01292-0.12511,0.01294-0.18756
		c0.00085-2.08441,0.00067-4.16882,0.00069-6.25291c0.01692-0.30257,0.18006-0.52256,0.41058-0.70086
		C1.4881,2.50362,1.56931,2.45837,1.6683,2.48752C1.92643,2.61325,2.03126,2.8209,2.03068,3.10342
		c-0.00345,1.69619-0.00181,3.3924-0.00172,5.0886c0,0.06341-0.00103,0.12684,0.00072,0.19022
		c0.01546,0.55774,0.40098,0.94443,0.96409,0.95248c0.56938,0.00814,1.13894,0.00092,1.70842,0.00237
		C5.13993,9.33821,5.35489,9.5002,5.4787,9.9188c0.13999,0.47332,0.45969,0.71483,0.96582,0.7169
		c0.8888,0.00365,1.77763,0.00098,2.66644,0.00109c1.2667,0.00016,2.53339-0.00155,3.80008,0.00087
		c0.46962,0.0009,0.73973,0.2747,0.74239,0.74253c0.00027,0.04751,0.00222,0.0951-0.0029,0.14241
		c-0.00007,0.05551,0.00333,0.11117-0.00124,0.16666c-0.00016,0.05318,0.00171,0.10646-0.00111,0.15967
		c-0.0004,0.04365,0.00127,0.08746-0.00666,0.13079C13.63601,12.00623,13.62159,12.02787,13.60356,12.0475z"/>
	<path fill="#44281F" d="M30.6911,7.86302c-0.05937,0.30844-0.20577,0.58527-0.32855,0.86958
		c-0.30649,0.70974-0.69594,1.37383-1.1747,1.98239c-0.35765,0.45461-0.76222,0.86317-1.2795,1.14507
		c-0.33947,0.185-0.70682,0.20739-1.08191,0.18818c0.12916-0.26302,0.1836-0.57282,0.46327-0.74205
		c0.10026-0.06067,0.21183-0.09819,0.32503-0.12833c0.32155-0.08564,0.58717-0.25993,0.82752-0.48586
		c0.66004-0.62046,1.11547-1.37658,1.50006-2.18323c0.15954-0.33461,0.28665-0.6815,0.42494-1.02428
		c0.02522-0.0625,0.04004-0.13311,0.1084-0.16916C30.66837,7.45103,30.71698,7.64259,30.6911,7.86302z"/>
	<path fill="#472920" d="M30.46735,7.32368c-0.29499,0.83647-0.65367,1.64345-1.14517,2.38629
		c-0.30389,0.45929-0.66343,0.87152-1.09564,1.21896c-0.23344,0.18766-0.51818,0.25847-0.79225,0.3528
		c-0.16478,0.05672-0.2935,0.15272-0.35901,0.31116c-0.06683,0.16161-0.15352,0.31027-0.24884,0.45536
		c-4.40762-0.00025-8.81523-0.00049-13.22286-0.00074c0.00071-0.02066,0.00143-0.0413,0.00215-0.06194
		c0.0822-0.06848,0.18162-0.04984,0.27548-0.04993c1.29726-0.00123,2.59452-0.00081,3.89178-0.0008
		c2.76466,0,5.52932,0.0012,8.29397-0.00233c0.22059-0.00028,0.44257-0.02746,0.64085-0.14078
		c0.12226-0.21519,0.25652-0.4217,0.44253-0.59074c0.11437-0.10393,0.25998-0.14769,0.4005-0.18484
		c0.32969-0.08717,0.58504-0.27582,0.82578-0.50696c0.70491-0.67681,1.15598-1.51207,1.5484-2.38718
		c0.12079-0.26936,0.21719-0.54746,0.31938-0.8236c0.01879-0.05078,0.03433-0.10113,0.09709-0.11362
		C30.41745,7.20069,30.47507,7.23305,30.46735,7.32368z"/>
	<path fill="#202020" d="M1.62782,2.50405c-0.30396,0.08569-0.44032,0.33009-0.56273,0.5871
		C1.0473,3.1285,1.03562,3.16872,1.02111,3.20762c-0.00896,0.00943-0.0185,0.00957-0.02853,0.00173
		C0.99173,2.95204,0.9914,2.69474,0.98959,2.43744C0.98921,2.38405,0.99188,2.33252,1.02239,2.2863
		c0.00138-0.02283,0.01045-0.04244,0.02505-0.0598c0.09712-0.08857,0.20849-0.15646,0.32382-0.21872
		c0.03398-0.01345,0.06888-0.02426,0.10367-0.03552c0.04256-0.0117,0.08582-0.02062,0.12821-0.03309
		C1.65321,1.92669,1.70578,1.925,1.75362,1.90347C1.82579,1.8758,1.83083,1.80921,1.84541,1.74823
		c0.03934-0.16465,0.08828-0.32592,0.16939-0.47594c0.0511-0.07183,0.09706-0.14797,0.16771-0.20393
		C2.21964,1.03761,2.2598,1.01073,2.29934,0.983c0.04152-0.04848,0.09828-0.03089,0.14915-0.03107
		c0.34488-0.00117,0.68977-0.0003,1.03465-0.0001C3.49386,0.96462,3.49859,0.9793,3.49741,0.99592
		C3.48044,1.05741,3.4302,1.08186,3.37691,1.10304C3.20624,1.11823,3.04467,1.16126,2.90116,1.25859
		C2.82619,1.31294,2.74749,1.36264,2.68669,1.4342C2.45759,1.608,2.3788,1.84679,2.37135,2.12288
		C2.36552,2.33914,2.26153,2.44427,2.04901,2.44887C1.90546,2.45198,1.77052,2.50443,1.62782,2.50405z"/>
	<path fill="#202020" d="M30.46735,7.32368c-0.03056-0.05407-0.07372-0.09578-0.12701-0.12755
		c-0.04984-0.00653-0.07952-0.04758-0.12078-0.06897c-0.04657-0.02946-0.0853-0.06986-0.1357-0.09401
		c-0.05402-0.02895-0.11143-0.04856-0.17073-0.06388c-0.13723-0.04284-0.27571-0.0728-0.42044-0.08067
		c-0.14879-0.00809-0.23933-0.10538-0.24253-0.24058c-0.00329-0.13891,0.1101-0.27428,0.24765-0.28068
		c0.06637-0.00309,0.13521-0.01562,0.20183,0.00518c0.53577-0.10835,0.88198-0.36225,0.96155-0.9191
		c0.00996-0.06968,0.01516-0.14966,0.0928-0.19049c0.09781,0.2346,0.20183,0.46759,0.19235,0.73006
		c0.03713,0.1379-0.05506,0.22852-0.12912,0.31872c-0.11062,0.13471-0.24546,0.24538-0.41878,0.33118
		c0.10144,0.08353,0.20716,0.13617,0.29015,0.21519c0.08942,0.08515,0.20006,0.16106,0.19394,0.30723
		c0.00453,0.25106-0.09632,0.47362-0.19145,0.69772C30.65373,7.66802,30.61857,7.47212,30.46735,7.32368z"/>
	<path fill="#202020" d="M1.01951,9.86265c-0.00422,0.23894,0.1355,0.415,0.26765,0.59221
		c0.19859,0.26629,0.45971,0.40531,0.80233,0.39141c0.17814-0.00723,0.27192,0.08562,0.27193,0.25685
		c0.00001,0.40135,0.16009,0.71003,0.51232,0.91482c-0.24396,0.05264-0.48783,0.04879-0.73162-0.00106
		c-0.11869-0.04313-0.15222-0.15304-0.19693-0.25229c-0.03027-0.06719-0.05241-0.13983-0.05796-0.21244
		c-0.01174-0.15369-0.09562-0.21683-0.24301-0.2374c-0.18025-0.02515-0.34533-0.09824-0.49561-0.20153
		c-0.05221-0.03589-0.10628-0.07031-0.1317-0.13266c-0.00953-0.0161-0.00762-0.03071,0.00565-0.04385
		c-0.05036-0.07693-0.03515-0.16378-0.03113-0.24617C1.00491,10.41469,0.9541,10.13665,1.01951,9.86265z"/>
	<path fill="#664532" d="M1.02586,10.96621c0.1973,0.17994,0.42999,0.28738,0.69451,0.32105
		c0.12513,0.01593,0.18351,0.07737,0.19628,0.20013c0.02062,0.19815,0.09637,0.37561,0.22543,0.52949
		C2.106,12.0617,2.05494,12.04824,2.00886,12.04826c-0.32934,0.00012-0.65868-0.00118-0.98802-0.00204
		C0.99992,11.68612,0.99107,11.32606,1.02586,10.96621z"/>
	<path fill="#535F69" d="M3.48265,0.98107C3.48174,0.97131,3.48189,0.96156,3.48312,0.95184
		C11.38607,0.95167,19.289,0.9515,27.19193,0.95142c0.03724,0,0.07449,0.00144,0.11173,0.00221
		c0.01182,0.00587,0.01588,0.01199,0.01224,0.01838c-0.0037,0.0065-0.00745,0.00976-0.0113,0.00976
		c-4.8647,0.00038-9.72941,0.00084-14.59411,0.00113c-2.70912,0.00016-5.41824,0-8.12736,0.00017
		c-0.06916,0-0.13831,0.00218-0.20747,0.00334c-0.04276,0.03655-0.09428,0.0433-0.148,0.04342
		C4.02753,1.03029,3.82741,1.03105,3.62729,1.02935C3.57435,1.0289,3.52121,1.02559,3.48265,0.98107z"/>
	<path fill="#44281E" d="M30.88254,7.1653C30.78998,6.96718,30.6277,6.83483,30.4444,6.7297
		c-0.11344-0.06507-0.0833-0.10241,0.0027-0.15575c0.22765-0.1412,0.4248-0.30945,0.49925-0.58096
		c0.10968,0.05643,0.07112,0.17198,0.08374,0.2541c0.04587,0.29853-0.02491,0.59029-0.10117,0.87838
		C30.92462,7.14166,30.8985,7.15216,30.88254,7.1653z"/>
	<path fill="#535F69" d="M0.99258,3.20935C1.002,3.20718,1.01151,3.20657,1.02112,3.20757
		C1.02139,5.32206,1.02181,7.4365,1.02113,9.55094C1.02112,9.60122,1.04038,9.65758,0.99282,9.69993
		C0.99275,7.53639,0.99267,5.37287,0.99258,3.20935z"/>
	<path fill="#4D2D20" d="M1.5969,1.96625C1.56293,2.01123,1.51322,1.99341,1.46909,1.99782
		c-0.15134-0.33985,0.0276-0.87549,0.34424-1.02996C1.95346,0.9751,2.0945,0.95124,2.23367,0.98199
		C2.25556,0.98232,2.27745,0.98266,2.29934,0.983C2.2773,1.02377,2.26625,1.07516,2.20563,1.07867
		C2.14551,1.11749,2.07727,1.11991,2.0086,1.12578c-0.25838,0.0221-0.35212,0.12038-0.36447,0.3801
		c-0.00447,0.09403-0.00049,0.18827-0.00201,0.2824C1.64111,1.851,1.64353,1.91484,1.5969,1.96625z"/>
	<path fill="#535F69" d="M2.23367,0.98199C2.08514,0.98335,1.93662,0.98471,1.7881,0.98608
		C1.67857,1.05386,1.55692,1.0267,1.43925,1.03031c-0.39994,0.00838-0.3641-0.05297-0.36941,0.36378
		C1.06656,1.65192,1.08825,1.9103,1.05559,2.16776c-0.0122,0.02699-0.02369,0.055-0.06215,0.04919
		C0.99231,1.83749,0.99121,1.45803,0.99001,1.07857c-0.0002-0.06454-0.00729-0.12862,0.09203-0.12792
		c0.36627,0.00261,0.73257,0.00118,1.09885,0.00318C2.19854,0.95393,2.21608,0.97219,2.23367,0.98199z"/>
	<path fill="#535F69" d="M1.02586,10.96621c-0.00167,0.36002-0.00334,0.72004-0.00501,1.08004
		c-0.03877-0.02429-0.03045-0.0636-0.03052-0.09905c-0.00053-0.3038-0.00044-0.6076-0.0001-0.91141
		c0.00004-0.03605-0.00487-0.07455,0.03232-0.09906C1.02328,10.94659,1.02438,10.95642,1.02586,10.96621z"/>
	<path fill="#444447" d="M27.3046,0.98177c0.00044-0.00942,0.00014-0.01881-0.00093-0.02816
		c0.14378,0.02685,0.29756,0.02114,0.41733,0.12629C27.5822,1.04721,27.4434,1.01449,27.3046,0.98177z"/>
	<path fill="#414D57" d="M0.99344,2.21694C1.00386,2.20623,1.01429,2.19551,1.02471,2.1848
		c0.04834,0.00462,0.05225,0.02928,0.03005,0.06571C1.04397,2.26241,1.03318,2.27432,1.02239,2.28626
		C0.99389,2.27094,0.99005,2.24543,0.99344,2.21694z"/>
	<path fill="#623529" d="M29.69964,6.37252c-0.06643,0.01635-0.13181,0.03162-0.20191,0.03444
		c-0.12015,0.00482-0.22583,0.13195-0.20955,0.25016c0.01701,0.12344,0.07968,0.20208,0.22219,0.19243
		c0.15659-0.0106,0.30322,0.03434,0.44556,0.09473c0.02563,0.05282,0.00768,0.10402-0.0086,0.15386
		c-0.33918,1.03794-0.80462,2.01225-1.49855,2.86595c-0.29794,0.36653-0.64719,0.66409-1.13243,0.77847
		c-0.3315,0.07815-0.5741,0.30046-0.72965,0.59804c-0.09295,0.17783-0.21618,0.25053-0.41652,0.25039
		c-4.11748-0.00288-8.23496-0.00212-12.35244-0.0027c-0.07382-0.00001-0.15043,0.00737-0.21268-0.04679
		c-0.00344-0.12113,0.0109-0.24596-0.01375-0.36267c-0.06465-0.30609-0.3139-0.49328-0.63312-0.49332
		c-2.17096-0.00028-4.34192-0.00012-6.51288-0.00016c-0.53885-0.00001-0.88388-0.26662-1.02016-0.78804
		C5.3367,9.55892,5.10986,9.38548,4.75506,9.3854c-0.57467-0.00012-1.14933,0.00001-1.724-0.00004
		C2.39612,9.3853,1.98006,8.96943,1.98005,8.3348C1.98002,6.61259,1.97458,4.89035,1.98518,3.1682
		c0.00186-0.30286-0.08904-0.52165-0.35735-0.66414C1.74392,2.4345,1.87227,2.41274,2.0051,2.41021
		C2.25407,2.40547,2.3297,2.33421,2.33148,2.093c0.00214-0.28998,0.09516-0.53364,0.34918-0.6988
		c0.07066-0.04248,0.14846-0.05074,0.22916-0.05067c0.42867,0.00035,0.85735-0.00048,1.28602,0.00072
		c0.07385,0.00021,0.14953-0.00297,0.21063,0.051C4.54748,1.8114,4.85012,2.02923,5.28791,2.02924
		c1.86823,0.00006,3.73645,0.00158,5.60467-0.00217c0.20687-0.00041,0.37206,0.07263,0.51162,0.21304
		c0.08918,0.08972,0.1806,0.18057,0.25154,0.28407c0.11397,0.1663,0.28095,0.25132,0.45427,0.33239
		c0.00741,0.06769-0.04416,0.10331-0.08184,0.14556c-0.18687,0.2095-0.31286,0.44866-0.35952,0.7262
		c-0.01152,0.06852-0.02672,0.13426-0.0774,0.18643c-0.14496,0.16785-0.20985,0.36025-0.20763,0.58276
		c0.00517,0.51748-0.00118,1.03507,0.00346,1.55255c0.00132,0.14704-0.03284,0.26304-0.15466,0.35965
		c-0.18155,0.14397-0.25959,0.34527-0.26073,0.5726c-0.00356,0.71291-0.00691,1.42589,0.00091,2.13873
		c0.00488,0.445,0.32101,0.74938,0.77396,0.75423c0.52653,0.00564,1.05315,0.00125,1.57973,0.00149
		c0.08509,0.00004,0.17023-0.00115,0.25477,0.0096c0.07617,0.01468,0.13305,0.06474,0.19229,0.1085
		c0.57847,0.42731,1.23234,0.67157,1.94478,0.7328c0.94464,0.08119,1.81334-0.15491,2.59259-0.69878
		c0.08187-0.05714,0.15348-0.13306,0.26102-0.14539c0.57419-0.01323,1.14837-0.00316,1.7225-0.00577
		c0.57087-0.00259,0.86363-0.29216,0.86403-0.8589c0.00047-0.66509-0.00027-1.33018,0.00028-1.99527
		c0.00021-0.2575-0.08719-0.47192-0.2888-0.64146c-0.18301-0.15389-0.39459-0.16649-0.61678-0.14572
		c-0.05186,0.00485-0.08405,0.04199-0.12119,0.07116c-0.0824,0.01679-0.07394-0.04942-0.08299-0.09414
		c-0.01098-0.05433,0.0001-0.11159-0.01806-0.16541c-0.15045-0.80283-0.5272-1.48888-1.11106-2.05762
		c-0.53903-0.52507-1.18687-0.86219-1.9244-1.02834c-0.04946-0.01114-0.12464,0.01034-0.13239-0.07642
		c0.29938-0.00009,0.59876,0.00072,0.89812-0.00108c0.05504-0.00033,0.11771,0.01988,0.15988-0.03811
		c0.26418,0.0609,0.48474,0.20897,0.70059,0.35968c0.63672,0.44455,1.14838,0.99954,1.48917,1.70076
		c0.00687,0.01414,0.01474,0.02834,0.03666,0.03391c0.08396-0.04702,0.10277-0.15515,0.18276-0.20896
		c0.25226-0.29839,0.31015-0.65097,0.27579-1.02274c-0.01594-0.17247-0.05951-0.34271-0.1435-0.4991
		c-0.022-0.04096-0.04627-0.08462-0.02337-0.13467c0.13441,0.04576,0.21634,0.14929,0.27643,0.26697
		c0.17091,0.33473,0.44581,0.49364,0.81879,0.49413c0.52633,0.00069,1.05281,0.00792,1.57897-0.00176
		c0.68215-0.01255,1.3486,0.10124,2.01027,0.24003c0.58983,0.12372,1.17546,0.27076,1.73917,0.489
		c0.3896,0.15083,0.73131,0.38218,1.04534,0.65132c0.27261,0.23364,0.52575,0.48971,0.799,0.72256
		c0.26418,0.22512,0.59617,0.31227,0.92337,0.40352C29.65449,6.34782,29.67659,6.36187,29.69964,6.37252z"/>
	<path fill="#FEFEFE" d="M11.59377,3.86818c0.0605-0.39333,0.22676-0.73346,0.51624-1.01161
		c0.2578-0.19908,0.53528-0.34462,0.8686-0.38708c0.47214-0.06015,0.87464,0.07347,1.22874,0.37727
		c-0.01482,0.06625-0.07258,0.08673-0.12415,0.11163c-0.37884,0.18294-0.71387,0.42883-1.02878,0.70368
		c-0.17315,0.16123-0.33887,0.32936-0.48547,0.51531c-0.18494,0.23988-0.35845,0.48672-0.48062,0.76559
		c-0.04966,0.097-0.10781,0.14894-0.19563,0.03524c-0.21912-0.28368-0.32971-0.60552-0.34164-0.96166
		C11.54925,3.96313,11.56123,3.91244,11.59377,3.86818z"/>
	<path fill="#FEFEFE" d="M20.34261,4.75482c-0.06454,0.08886-0.12907,0.17773-0.20461,0.28174
		c-0.48292-1.00056-1.22847-1.71797-2.21712-2.19013c0.59523-0.52319,1.47203-0.52644,2.06674-0.00784
		c0.03142,0.0274,0.06403,0.05344,0.09609,0.08011c0.12671,0.05971,0.20219,0.16859,0.26673,0.28418
		c0.2571,0.46048,0.3127,0.93324,0.07979,1.42166C20.4073,4.67263,20.3807,4.71729,20.34261,4.75482z"/>
	<path fill="#4C2B20" d="M16.86288,2.88563c0.20184,0.05719,0.40668,0.1024,0.60541,0.17222
		c0.66821,0.23478,1.2338,0.61089,1.70124,1.14492c0.43473,0.49665,0.7229,1.05941,0.8707,1.697
		c0.00941,0.04057,0.01068,0.083,0.01573,0.12456c0.09091,0.49294,0.11978,0.98691,0.00499,1.47952
		c-0.01771,0.07603,0.01117,0.19211-0.11784,0.213c-0.06872-0.0418-0.0528-0.10765-0.0447-0.16829
		c0.01521-0.11382,0.03453-0.22711,0.05909-0.33933c0.0277-0.0765,0.02434-0.15587,0.02081-0.2352
		c-0.00025-0.06954,0.00049-0.1391,0.00025-0.2086c0.00296-0.06714,0.00634-0.13433-0.01566-0.19961
		c-0.08984-0.73608-0.32096-1.41767-0.78326-2.01098c-0.7007-0.89925-1.62547-1.41177-2.75925-1.52287
		c-0.69097-0.06771-1.36716,0.03779-2.00315,0.33654c-0.05205,0.02445-0.10324,0.05771-0.16594,0.0359
		c-0.01449-0.01043-0.02221-0.02456-0.02327-0.0423c0.00421-0.04129,0.0324-0.06585,0.06536-0.08333
		c0.31367-0.16643,0.63923-0.30105,0.99215-0.36119c0.05547-0.00258,0.11166,0.00564,0.16639-0.00987
		c0.01523-0.0039,0.03073-0.00594,0.04647-0.00589c0.06038-0.00836,0.12392,0.01767,0.182-0.01634
		C16.07457,2.88554,16.46872,2.88559,16.86288,2.88563z"/>
	<path fill="#623529" d="M15.29742,2.94881c-0.37051,0.08911-0.73018,0.20556-1.05414,0.41206
		c-0.08244,0.08272-0.18897,0.13193-0.28216,0.19972c-0.04631,0.03368-0.10147,0.05772-0.12307,0.11712
		c-0.03809,0.05939-0.08889,0.09148-0.16251,0.07511c-0.15448-0.05863-0.3158-0.01333-0.47246-0.0319
		c-0.0639-0.00758-0.15668,0.03226-0.1755-0.07926c0.34269-0.33895,0.75033-0.58288,1.17977-0.7949
		c0.04239,0.05806,0.10523,0.03751,0.16031,0.03778c0.37367,0.00179,0.74735,0.00123,1.12103,0.00143
		c0.01067,0.00681,0.01425,0.01367,0.01077,0.02058c-0.00349,0.00693-0.007,0.0104-0.01056,0.0104
		c-0.0106,0.00007-0.02119,0.00012-0.03179,0.00016C15.40929,2.95451,15.34488,2.90962,15.29742,2.94881z"/>
	<path fill="#5D3428" d="M4.40647,1.39525C3.83121,1.39491,3.25596,1.39456,2.68069,1.39421
		C2.72463,1.31634,2.807,1.2853,2.87517,1.23696C2.96935,1.19964,3.06724,1.1848,3.16849,1.18504
		C3.49542,1.1858,3.82235,1.18445,4.14928,1.1859c0.0784,0.00035,0.15982-0.00718,0.22557,0.05085
		C4.38539,1.28958,4.39593,1.34242,4.40647,1.39525z"/>
	<path fill="#4E2C21" d="M20.34261,4.75482c0.12653-0.2931,0.22209-0.59056,0.17986-0.91803
		c-0.04578-0.35508-0.20401-0.65376-0.43877-0.91808c0.12387,0.04005,0.2649,0.0417,0.35529,0.15661
		c0.25861,0.46035,0.29455,0.93476,0.09296,1.42496C20.48258,4.62033,20.41216,4.71833,20.34261,4.75482z"/>
	<path fill="#563124" d="M4.37485,1.23675c-0.4999,0.00007-0.9998,0.00013-1.49969,0.0002
		c0.14949-0.11679,0.31829-0.17279,0.50913-0.15946c0.33031-0.06833,0.66057-0.08243,0.99077,0.00072
		C4.37498,1.13106,4.37492,1.18391,4.37485,1.23675z"/>
	<path fill="#4E2D20" d="M4.37505,1.07821C4.0448,1.07797,3.71455,1.07774,3.38429,1.07749
		c0.03277-0.03214,0.06555-0.06427,0.09834-0.09641c0.29768,0.00175,0.59535,0.00351,0.89302,0.0053
		C4.37546,1.01701,4.37525,1.04761,4.37505,1.07821z"/>
	<path fill="#583025" d="M15.4889,2.91695c0.00004-0.01033-0.00003-0.02066-0.00021-0.03099
		c0.0639-0.00015,0.12781-0.00031,0.19171-0.00047C15.62437,2.94277,15.5528,2.90681,15.4889,2.91695z"/>
	<path fill="#5D3428" d="M13.60506,11.5415c4.18671-0.00001,8.37342-0.00113,12.56013,0.00355
		c0.19028,0.00021,0.29547-0.05602,0.38258-0.23018c0.16259-0.32506,0.43263-0.55217,0.79374-0.63069
		c0.45631-0.09921,0.76893-0.39585,1.0535-0.72419c0.38206-0.44084,0.67502-0.94429,0.93445-1.46313
		c0.23575-0.47149,0.43841-0.95881,0.59257-1.46419c0.00918-0.0301,0.02251-0.05896,0.03391-0.08839
		c0.06101,0.00311,0.10743,0.04103,0.15933,0.06586c0.03246,0.04548,0.01492,0.0914-0.0005,0.13616
		c-0.3548,1.03042-0.81,2.00845-1.49327,2.87158c-0.33463,0.42272-0.73082,0.74524-1.26469,0.88879
		c-0.28679,0.07711-0.48979,0.27684-0.62774,0.53059c-0.12038,0.22144-0.29302,0.31204-0.54296,0.31188
		c-4.11745-0.00267-8.2349-0.00183-12.35235-0.00244c-0.07875-0.00001-0.1612,0.01108-0.22866-0.04659
		C13.60509,11.64724,13.60508,11.59437,13.60506,11.5415z"/>
	<path fill="#583125" d="M13.60511,11.70012c4.19959-0.00004,8.39919-0.00095,12.59878,0.00228
		c0.22848,0.00018,0.37596-0.08103,0.48261-0.28589c0.14647-0.28136,0.37561-0.48498,0.69093-0.56927
		c0.37409-0.1,0.69625-0.28674,0.95629-0.56781c0.38535-0.41652,0.70431-0.88184,0.97263-1.38043
		c0.32593-0.60566,0.59212-1.23698,0.80894-1.88889c0.04254,0.03139,0.08509,0.06275,0.12764,0.09411
		c0.04412,0.05743,0.00884,0.11333-0.00941,0.16498c-0.35515,1.0048-0.80382,1.9624-1.46979,2.80591
		c-0.20624,0.26122-0.43426,0.50444-0.71469,0.69311c-0.16028,0.10783-0.33442,0.18308-0.52011,0.232
		c-0.31004,0.08168-0.53905,0.26269-0.68983,0.5426c-0.07604,0.14117-0.15578,0.2783-0.32638,0.32699
		c-0.14712,0.02517-0.29425,0.0412-0.44371,0.04117c-4.0468-0.00078-8.09359-0.00041-12.14039-0.00173
		c-0.10913-0.00004-0.22519,0.02629-0.32331-0.0505C13.60524,11.80586,13.60517,11.75299,13.60511,11.70012z"/>
	<path fill="#4D2D21" d="M13.6053,11.85874c3.97761-0.00008,7.95522,0.00054,11.93282-0.00147
		c0.34426-0.00017,0.68989,0.02674,1.03266-0.03047c0.0638-0.02143,0.11721-0.07382,0.1917-0.06338
		c-0.00577,0.15498-0.16374,0.1543-0.23363,0.15527c-0.1387,0.00192-0.25551,0.07073-0.39384,0.07057
		c-4.17643-0.00471-8.35286-0.00376-12.52929-0.00369C13.60559,11.94329,13.60544,11.90101,13.6053,11.85874z"/>
	<path fill="#202020" d="M3.36315,10.4949c-0.23888-0.00328-0.43025-0.20055-0.42476-0.43785
		C2.94386,9.8207,3.14516,9.63173,3.38337,9.63933c0.2323,0.0074,0.41804,0.19898,0.41684,0.42997
		C3.79899,10.30628,3.60193,10.49818,3.36315,10.4949z"/>
	<path fill="#4E2D21" d="M26.76248,11.76341c-0.05677,0.04238-0.11613,0.07702-0.1917,0.06338
		c0.11401-0.09688,0.18719-0.22114,0.25997-0.35024c0.13416-0.23799,0.33242-0.42201,0.60192-0.48452
		c0.59259-0.13744,0.98565-0.5347,1.33397-0.98508c0.67586-0.87391,1.1378-1.85814,1.47629-2.90275
		c0.045,0.01757,0.07486,0.05094,0.09741,0.09194c-0.11164,0.21639-0.1711,0.45338-0.26871,0.67504
		c-0.17356,0.39414-0.33978,0.7905-0.56367,1.16266c-0.15164,0.25206-0.28811,0.51311-0.46021,0.75306
		c-0.09427,0.13143-0.20773,0.2518-0.29706,0.3817c-0.12619,0.18351-0.29662,0.32178-0.44806,0.47053
		c-0.1975,0.19398-0.44294,0.34812-0.73104,0.41872c-0.16387,0.04015-0.32578,0.0886-0.45691,0.23199
		C26.97913,11.43805,26.87058,11.59886,26.76248,11.76341z"/>
	<path fill="#44281F" d="M1.05476,2.25051C1.04473,2.22862,1.03469,2.20674,1.02469,2.18482
		C1.0238,1.83092,1.0269,1.47697,1.01964,1.12322C1.01733,1.011,1.05401,0.9713,1.16496,0.98149
		c0.08974,0.00824,0.18069,0.00358,0.2711,0.00464c0.01628,0.17828-0.06527,0.34539-0.05229,0.52644
		C1.39603,1.68356,1.40446,1.85794,1.3738,2.02972C1.26745,2.10332,1.16111,2.17691,1.05476,2.25051z"/>
	<path fill="#482920" d="M1.3738,2.02972C1.30522,1.8851,1.35267,1.73212,1.34253,1.58333
		C1.32855,1.37818,1.33664,1.17458,1.43606,0.98611C1.5534,0.9861,1.67075,0.98607,1.7881,0.98606
		C1.76375,1.08971,1.63539,1.08191,1.59173,1.17625C1.50938,1.35416,1.46632,1.5363,1.46887,1.73079
		c0.00117,0.08899,0.00021,0.17802,0.00022,0.26703C1.44611,2.03432,1.40867,2.02824,1.3738,2.02972z"/>
	<path fill="#563124" d="M1.5969,1.96625c-0.00003-0.14655-0.00044-0.2931,0-0.43965
		c0.00095-0.31688,0.13218-0.44738,0.45053-0.44848c0.05271-0.00018,0.10543,0.00034,0.15817,0.00054
		C2.15234,1.14258,2.09906,1.20649,2.04577,1.27041c-0.2147,0.05455-0.23889,0.09064-0.24689,0.31424
		c-0.0042,0.11742,0.0345,0.24151-0.042,0.35085C1.71121,1.98505,1.65082,1.95904,1.5969,1.96625z"/>
	<path fill="#5C3428" d="M1.75688,1.9355C1.75676,1.77716,1.75246,1.61868,1.75769,1.46051
		c0.00545-0.16494,0.13632-0.2482,0.28806-0.19013C1.97949,1.4563,1.89884,1.63753,1.86877,1.83494
		C1.85976,1.89416,1.835,1.9469,1.75688,1.9355z"/>
	<path fill="#FEFEFE" d="M13.70578,3.74385c0.04811-0.02492,0.09809-0.04725,0.131-0.09322
		c0.12185-0.1066,0.24834-0.20551,0.41094-0.24462c0.45192-0.24339,0.94178-0.37126,1.44739-0.41695
		c0.64086-0.05792,1.26987,0.02245,1.8657,0.27943c1.23804,0.53396,2.02494,1.45149,2.34925,2.75363
		c0.04407,0.17692,0.05851,0.36112,0.08666,0.54195c0.02612,0.06628-0.00476,0.13913,0.02398,0.2051
		c-0.01593,0.06369-0.01521,0.12736,0.00018,0.19101c-0.03142,0.07656,0.00447,0.16011-0.02494,0.23688
		c-0.02293,0.1692-0.04586,0.33839-0.06879,0.50759c0.01216,0.25548-0.11508,0.47288-0.19668,0.70242
		c-0.02262,0.06364-0.05923,0.12244-0.08994,0.18314c-0.10089,0.18924-0.19212,0.38422-0.32615,0.55432
		c-0.17576,0.24435-0.38369,0.45978-0.60416,0.66419c-0.05056,0.04688-0.09872,0.09505-0.16935,0.11058
		c-0.39142,0.28141-0.79982,0.52994-1.26718,0.67148c-1.30892,0.3964-2.50931,0.18084-3.60725-0.62324
		c-0.02094-0.01533-0.04401-0.0278-0.06608-0.0416c-0.26861-0.13385-0.45255-0.36376-0.6352-0.58506
		c-0.49393-0.59842-0.7903-1.28936-0.86039-2.05999c-0.09999-1.0994,0.18414-2.08939,0.91358-2.94063
		c0.15569-0.18169,0.32134-0.35044,0.50779-0.50037C13.58084,3.79588,13.63582,3.75738,13.70578,3.74385z"/>
	<path fill="#653D32" d="M13.70578,3.74385c-0.45598,0.3618-0.8437,0.78196-1.12002,1.2965
		c-0.85242,1.58733-0.50264,3.53157,0.85132,4.73641c0.05507,0.04901,0.10888,0.09941,0.16327,0.14916
		c-0.61637-0.00051-1.23273-0.00099-1.8491-0.00155c-0.48992-0.00044-0.82887-0.33672-0.82904-0.82309
		c-0.00025-0.70164,0.00119-1.40328-0.0007-2.10491c-0.00073-0.27095,0.09974-0.49569,0.31537-0.65767
		c0.07978-0.05993,0.10233-0.11909,0.10187-0.21036c-0.0029-0.57501-0.00432-1.15007,0.00005-1.72506
		c0.00162-0.2137,0.07624-0.40077,0.25495-0.53509c-0.01196,0.43026,0.09754,0.81977,0.38795,1.14884
		c0.05492-0.01587,0.04054-0.08334,0.08521-0.10415c0.11195-0.07506,0.14271-0.2033,0.20113-0.31174
		c0.08396-0.15585,0.21098-0.28437,0.28038-0.44853c0.13549-0.19271,0.2973-0.36109,0.47915-0.51095
		c0.17602,0.08057,0.36161,0.01999,0.54223,0.034C13.62992,3.68031,13.67988,3.68218,13.70578,3.74385z"/>
	<path fill="#653D32" d="M18.54086,9.91928c0.27028-0.24448,0.52436-0.50396,0.74559-0.79384
		c0.15781-0.1404,0.25104-0.3222,0.33267-0.51172c0.18666-0.37783,0.3506-0.76427,0.43209-1.17908
		c0.05884-0.29953,0.08758-0.60198,0.05594-0.90834c-0.0073-0.07073-0.0199-0.14615,0.01253-0.21659
		c0.00376-0.05534-0.01329-0.11497,0.07719-0.12746c0.63719-0.08792,1.01298,0.32364,1.00981,0.82904
		c-0.00437,0.6968-0.0009,1.39366-0.00116,2.09049c-0.00018,0.4865-0.33931,0.82301-0.83043,0.82238
		C19.76369,9.92339,19.15227,9.92099,18.54086,9.91928z"/>
	<path fill="#202020" d="M3.52614,3.51935C3.28786,3.51783,3.09432,3.32137,3.098,3.08474
		C3.1017,2.84749,3.30064,2.65782,3.5397,2.66364C3.77205,2.6693,3.95923,2.85934,3.95995,3.09031
		C3.9607,3.32786,3.76553,3.52088,3.52614,3.51935z"/>
	<path fill="#202020" d="M28.10363,6.7022c0.00221,0.23703-0.19223,0.43183-0.43101,0.43181
		c-0.23883-0.00002-0.43311-0.19474-0.43093-0.43189c0.00213-0.23063,0.19083-0.4197,0.42304-0.42386
		C27.90348,6.27398,28.10142,6.46518,28.10363,6.7022z"/>
	<path fill="#4F2F24" d="M20.11968,6.30972c0.05794,0.50475,0.00344,0.99995-0.12732,1.48885
		c-0.0586,0.2191-0.14793,0.42559-0.25089,0.62733c-0.0379,0.07428-0.08886,0.14387-0.10105,0.22965
		c-0.05465,0.00049-0.05333-0.0267-0.03202-0.06379c0.12346-0.28961,0.2338-0.58387,0.31874-0.88712
		c0.12675-0.11121,0.09726-0.27273,0.12496-0.4119c0.08383-0.42106,0.01605-0.84536,0.00387-1.2684
		C20.13554,6.10662,20.04025,6.2274,20.11968,6.30972z"/>
	<path fill="#5D3B31" d="M12.54843,4.15261c0.03675,0.02421,0.02738,0.04969,0.00395,0.07788
		c-0.14599,0.17572-0.24731,0.3781-0.34832,0.58041c-0.02915,0.05838-0.05384,0.11764-0.13714,0.10198
		C12.18056,4.63019,12.3523,4.38379,12.54843,4.15261z"/>
	<path fill="#563328" d="M14.24772,3.40601c-0.13698,0.08154-0.27396,0.16308-0.41093,0.24462
		c-0.00538-0.01223-0.01711-0.03409-0.01524-0.03531c0.13773-0.08941,0.25835-0.20714,0.42174-0.25445
		C14.24476,3.37592,14.24624,3.39096,14.24772,3.40601z"/>
	<path fill="#4F2F24" d="M19.99593,7.19706c-0.00075-0.07983-0.00317-0.15984,0.02491-0.23679
		C20.0153,7.03942,20.05069,7.12292,19.99593,7.19706z"/>
	<path fill="#4F2F24" d="M20.0207,6.76916c-0.02821-0.06604-0.02403-0.13581-0.02398-0.2051
		C20.04784,6.62745,20.0167,6.70033,20.0207,6.76916z"/>
	<path fill="#583025" d="M15.29742,2.94881c0.0447-0.05292,0.10584-0.02422,0.15969-0.03171
		C15.41237,2.96984,15.35124,2.94118,15.29742,2.94881z"/>
	<path fill="#653D32" d="M14.23723,6.62354c0.45236-0.7802,1.26762-1.15669,2.12385-1.03634
		c0.91092,0.12803,1.59929,0.7824,1.75927,1.66101c0.14721,0.8085-0.08818,1.49557-0.75152,2.01916
		c-0.08156,0.06438-0.1529,0.13949-0.25194,0.17838c-0.05159-0.01118-0.09169,0.01899-0.13505,0.03717
		c-0.69292,0.2906-1.35495,0.20433-1.97338-0.19265c-0.6322-0.40581-0.91984-1.01674-0.96423-1.74689
		c-0.01651-0.27156,0.06152-0.53205,0.15891-0.78482C14.22002,6.71475,14.24943,6.67445,14.23723,6.62354z"/>
	<path fill="#4D2D23" d="M14.23723,6.62354c0.05851,0.03725,0.02635,0.07963,0.00948,0.1239
		c-0.29306,0.76925-0.17529,1.47383,0.34453,2.11148c0.44712,0.54846,1.04464,0.76629,1.73688,0.74367
		c0.22523-0.00736,0.45091-0.05631,0.6605-0.15269c0.04145-0.01906,0.08384-0.05551,0.12826-0.00415
		c-0.99221,0.60883-2.4333,0.24595-2.9686-0.94835C13.8638,7.8627,13.90324,7.23393,14.23723,6.62354z"/>
	<path fill="#674035" d="M17.50056,5.04486c0.39858-0.02475,0.39907-0.02476,0.40149,0.36004
		c0.00032,0.05164,0.01548,0.10531-0.01319,0.1548c-0.04968-0.03013-0.10174-0.05811-0.16113-0.0554
		c-0.26967,0.01229-0.28688-0.12642-0.26958-0.3609C17.46089,5.10623,17.4739,5.07239,17.50056,5.04486z"/>
	<path fill="#643C31" d="M14.37084,5.04488c0.39596-0.02727,0.39602-0.02727,0.38657,0.36276
		c-0.00038,0.01549-0.00381,0.0309-0.00583,0.04635c-0.09993,0.07401-0.21123,0.05246-0.32079,0.0351
		c-0.05145-0.00815-0.08747-0.04319-0.09492-0.09424C14.31849,5.27591,14.29256,5.15487,14.37084,5.04488z"/>
	<path fill="#4E2E23" d="M17.50056,5.04486c0.00017,0.03167,0.00046,0.06334,0.0005,0.095
		c0.00035,0.28592,0.00003,0.28992,0.28468,0.31121c0.08098,0.00606,0.09712,0.04593,0.10312,0.10861
		c-0.15015,0.04559-0.30396,0.00796-0.4556,0.0197c-0.06446,0.00499-0.063-0.03901-0.06284-0.08307
		c0.00044-0.11607,0.00781-0.23279-0.00207-0.34802C17.35861,5.03473,17.41459,5.02635,17.50056,5.04486z"/>
	<path fill="#4E2E23" d="M14.37084,5.04488c0.00002,0.0105,0.00004,0.021,0.00006,0.0315
		c0.0004,0.37627,0.0004,0.37627,0.38068,0.3776c0.02113,0.08797,0.00478,0.12824-0.10478,0.12924
		c-0.42232,0.00386-0.41846,0.00829-0.42024-0.41307C14.22608,5.05647,14.25877,5.01432,14.37084,5.04488z"/>
	<path fill="#5C392F" d="M19.6084,8.59176c0.00297,0.02508,0.00579,0.05024,0.03202,0.0638
		c-0.06317,0.17558-0.185,0.31487-0.29205,0.46315c-0.01472,0.02039-0.0373,0.0417-0.06192,0.00673
		C19.39377,8.94755,19.50109,8.76965,19.6084,8.59176z"/>
	<path fill="#FEFEFE" d="M17.42954,8.4322c-0.26074,0.38645-0.603,0.65173-1.07326,0.74765
		c-0.92138,0.18793-1.84394-0.54553-1.85572-1.47717c-0.00837-0.66176,0.30712-1.12757,0.86519-1.45408
		c0.22638-0.17227,0.4954-0.21529,0.76323-0.19679c0.59476,0.04108,1.07186,0.30692,1.35102,0.84139
		C17.74808,7.40642,17.77515,7.92992,17.42954,8.4322z"/>
	<path fill="#4E2E23" d="M17.42954,8.4322c0.22219-0.43842,0.27644-0.89,0.09159-1.35356
		c-0.30243-0.75845-1.12331-1.14746-1.9248-0.91463c-0.078,0.02266-0.16281,0.03231-0.23057,0.08459
		c-0.03994-0.08041,0.04353-0.07008,0.07261-0.08563c0.60297-0.32232,1.21874-0.25621,1.76175,0.17859
		c0.63317,0.507,0.72669,1.42766,0.30047,2.0319C17.48156,8.40045,17.46271,8.42385,17.42954,8.4322z"/>
	<path fill="#653D32" d="M15.32262,8.17709c0.20416-0.04734,0.35871-0.15841,0.45265-0.34734
		c0.04206-0.03597,0.05287-0.08862,0.07416-0.13583c0.05087-0.11276,0.03311-0.1951-0.08565-0.25993
		c-0.2168-0.11834-0.33344-0.31069-0.38813-0.54794c-0.02959-0.12834-0.0102-0.23706,0.07865-0.33384
		c0.29847-0.21711,0.95065-0.21537,1.23647,0.00293c0.13482,0.10297,0.18476,0.23896,0.16087,0.40383
		c-0.04065,0.28059-0.19387,0.48414-0.44415,0.61144c-0.07895,0.04016-0.09232,0.07967-0.07241,0.16011
		c0.05591,0.22597,0.18579,0.37475,0.41922,0.42291c0.07877,0.01625,0.12109,0.05043,0.10631,0.13718
		c-0.02215,0.13001,0.04021,0.26673-0.03053,0.39332c-0.04554-0.07511-0.11196-0.11789-0.19679-0.14417
		c-0.11561-0.03582-0.23011-0.083-0.31665-0.16947c-0.08176-0.08169-0.16196-0.08299-0.25372-0.02798
		c-0.06537,0.04852-0.10491,0.12936-0.19173,0.15103c-0.11004,0.01131-0.19868,0.08754-0.31144,0.09595
		c-0.13974,0.01043-0.19551-0.02576-0.20678-0.16549C15.34631,8.34092,15.34073,8.25838,15.32262,8.17709z"/>
	<path fill="#4F2F24" d="M15.4543,6.55221c-0.11561,0.35014,0.01606,0.66953,0.35942,0.86918
		c0.05805,0.03375,0.12987,0.05162,0.12035,0.14332c-0.01015,0.09765-0.08579,0.22905-0.1588,0.26503
		c0.04975-0.1469,0.01398-0.23397-0.13947-0.31304c-0.22907-0.11805-0.33665-0.34043-0.36192-0.59258
		C15.25841,6.76976,15.30843,6.63515,15.4543,6.55221z"/>
	<path fill="#4E2E24" d="M16.06293,8.34231c0.07148-0.12478,0.15417-0.12919,0.2504-0.02544
		c0.10852,0.11701,0.25519,0.16635,0.40209,0.20991c0.08477,0.02514,0.12788,0.06765,0.11467,0.15716
		C16.51505,8.70137,16.27637,8.54976,16.06293,8.34231z"/>
	<path fill="#523228" d="M15.32262,8.17709c0.11822,0.03134,0.06571,0.12753,0.06856,0.19555
		c0.00801,0.19105,0.0105,0.18549,0.19751,0.16644c0.09613-0.00979,0.18013-0.08745,0.28251-0.04574
		c-0.14779,0.11504-0.31343,0.18389-0.50224,0.1977c-0.0728,0.00532-0.10609-0.01419-0.10182-0.09422
		c0.00615-0.11527,0.0017-0.23109,0.00153-0.34668C15.2686,8.21237,15.26625,8.1735,15.32262,8.17709z"/>
	<path fill="#F4F2F2" d="M16.31014,6.94941c-0.09365,0.16193-0.19205,0.2087-0.32649,0.16015
		c-0.07344-0.02653-0.15359-0.07059-0.14559-0.14324c0.00666-0.06047,0.10461-0.04024,0.16189-0.05647
		C16.11346,6.84487,16.21733,6.8544,16.31014,6.94941z"/>
	<path fill="#4E2E23" d="M16.31014,6.94941c-0.09986-0.04055-0.2065-0.02868-0.31019-0.03956
		c-0.02009-0.03876-0.04016-0.07822,0.01963-0.10088c0.11164-0.04232,0.24115-0.05383,0.33656-0.00707
		C16.48094,6.86307,16.35806,6.90767,16.31014,6.94941z"/>
</g>
</svg>
