<?xml version="1.0" encoding="utf-8"?>
<!-- Generator: Adobe Illustrator 23.0.0, SVG Export Plug-In . SVG Version: 6.00 Build 0)  -->
<svg version="1.1" id="Слой_1" xmlns="http://www.w3.org/2000/svg" xmlns:xlink="http://www.w3.org/1999/xlink" x="0px" y="0px" width="32px" height="13px"
	 viewBox="0 0 32 13" enable-background="new 0 0 32 13" xml:space="preserve">
<g>
	<path fill="#39464F" d="M30.53948,2.56557c0.67595,1.08825,1.20421,2.23556,1.42523,3.50561
		c0.00373,0.02141,0.00651,0.0408,0.03065,0.04827c0,0.12677,0,0.25355,0,0.38032c-0.03004,0.02554-0.06441,0.03891-0.10446,0.03668
		c-0.04572-0.01017-0.10214-0.0095-0.08724-0.08269c0.05531-0.09813,0.04774-0.20246,0.03436-0.30871
		C31.76613,5.574,31.58268,5.03338,31.37024,4.5027c-0.37896-0.94665-0.85126-1.84506-1.4901-2.64663
		c-0.47436-0.59518-0.99704-1.14366-1.70597-1.47574c-0.32176-0.15072-0.65677-0.23617-1.01711-0.23606
		c-7.3027,0.00216-14.60541,0.00166-21.90811,0.00125C5.15309,0.14551,5.05724,0.15213,4.96122,0.14608
		C4.91017,0.13481,4.89805,0.10054,4.90619,0.0543C4.91437,0.03295,4.9299,0.02144,4.95285,0.01967
		c7.41195-0.00162,14.82383-0.00018,22.23571-0.00158c0.06792-0.00001,0.13831,0.01705,0.20416-0.01545
		c0.01065,0,0.02131,0,0.03196,0c0.05231,0.09253,0.15388,0.01718,0.21977,0.06339c0.04464,0.05871,0.11322,0.00566,0.16424,0.0346
		c0.35129,0.12453,0.68179,0.28904,0.98592,0.50424c0.05484,0.0428,0.10969,0.08561,0.16453,0.12841
		c0.05856,0.03345,0.09929,0.08865,0.15535,0.12514c0.03327,0.03102,0.06653,0.06203,0.0998,0.09305
		c0.12962,0.10609,0.24626,0.2251,0.35587,0.35112c0.04127,0.0437,0.08254,0.0874,0.12381,0.1311
		c0.03276,0.04132,0.06594,0.0823,0.10014,0.12246c0.0199,0.02214,0.0398,0.04428,0.0597,0.06642
		c0.03057,0.04212,0.06638,0.08023,0.09587,0.12318c0.06395,0.08428,0.1279,0.16856,0.19185,0.25284
		c0.0298,0.04481,0.06286,0.08702,0.10095,0.12526L30.24058,2.1216C30.32916,2.2769,30.42192,2.42944,30.53948,2.56557z"/>
	<path fill="#697682" d="M17.16467,12.99689c-5.423,0-10.84601,0-16.26901,0c-0.05098-0.03315-0.10789-0.0088-0.16155-0.01634
		c-0.37255-0.03038-0.68568-0.34045-0.71692-0.70979c-0.00757-0.05353,0.01697-0.11031-0.01648-0.16128
		c0-2.16571,0-4.33142,0-6.49712c0.02855-0.02081,0.0549-0.01725,0.07954,0.0071c0.0117,0.01696,0.01973,0.03538,0.02466,0.05531
		c0.01686,0.09439,0.01086,0.18968,0.01088,0.28459c0.00042,1.9489,0.00055,3.8978-0.00024,5.8467
		c-0.00006,0.13786,0.00292,0.27536,0.03786,0.40906c0.08631,0.33029,0.29778,0.54105,0.63009,0.62883
		c0.15046,0.03975,0.30552,0.03895,0.46036,0.03894c5.18798-0.00049,10.37596-0.00049,15.56394,0.00014
		c0.10596,0.00001,0.21311-0.0119,0.31764,0.01777c0.01999,0.00776,0.0363,0.02034,0.04903,0.03745
		C17.1808,12.95933,17.17752,12.9789,17.16467,12.99689z"/>
	<path fill="#515D67" d="M17.1652,12.96516c-0.00075-0.01017-0.00135-0.02034-0.0018-0.03052
		c-0.00943-0.01939-0.00546-0.03553,0.01183-0.04851c0.09012-0.04654,0.18782-0.02964,0.28247-0.02967
		c3.20567-0.00091,6.41138-0.00781,9.617,0.00482c0.69617,0.00274,1.27908-0.23977,1.80032-0.6609
		c0.71115-0.57456,1.25481-1.28941,1.70343-2.07696c0.4492-0.78856,0.81752-1.61272,1.07415-2.48347
		c0.09567-0.32459,0.17219-0.65369,0.20065-0.99191c0.00447-0.05318,0.00765-0.10571,0.0472-0.14735
		c0.03164-0.0003,0.06328-0.00061,0.09493-0.00091c0,0.09508,0,0.19016,0,0.28524c-0.07525,0.30354-0.13687,0.61118-0.22808,0.90993
		c-0.41635,1.36358-1.0335,2.62754-1.94072,3.74019c-0.49725,0.60984-1.06932,1.13198-1.82714,1.41381
		c-0.10888,0.04049-0.21731,0.08552-0.33656,0.08852c-0.05309,0.03124-0.12384-0.0182-0.1717,0.03695
		c0.00304,0.00793,0.0022,0.01542-0.00253,0.02249c-0.02131,0-0.04262,0-0.06392,0c-0.06038-0.03169-0.12549-0.01549-0.18809-0.0155
		c-3.29433-0.00093-6.58866-0.00072-9.88299-0.00161C17.29091,12.97976,17.22593,12.99526,17.1652,12.96516z"/>
	<path fill="#3B4852" d="M27.39273,0.00265c-0.05738,0.06004-0.13118,0.03022-0.19649,0.03024
		C19.77205,0.03446,12.34786,0.03439,4.92367,0.03442c-0.00835-0.00688-0.01123-0.01388-0.00867-0.021
		c0.00259-0.00718,0.00523-0.01077,0.00795-0.01077C12.41288,0.00265,19.90281,0.00265,27.39273,0.00265z"/>
	<path fill="#535F69" d="M4.92296,0.00265c0.00023,0.01059,0.00046,0.02118,0.00071,0.03178
		C4.92294,0.04477,4.92255,0.05512,4.9225,0.06549C4.84023,0.13387,4.74077,0.11516,4.64684,0.11526
		C3.46596,0.11657,2.28507,0.11531,1.10418,0.11659C0.82536,0.1169,0.57301,0.17404,0.36534,0.38786
		C0.17116,0.58779,0.11749,0.82431,0.1162,1.08294C0.11296,1.73169,0.11517,2.38046,0.11509,3.02922
		C0.115,3.80457,0.11583,4.57992,0.11408,5.35526C0.11388,5.44268,0.13373,5.53644,0.0649,5.61203
		C0.0435,5.61214,0.0221,5.61225,0.0007,5.61236c0-1.53184,0-3.06368,0-4.59553c0.02686-0.08452,0.02684-0.16903,0-0.25355
		c0-0.01056,0-0.02113,0-0.03169c0.08492-0.40176,0.32997-0.64474,0.73514-0.72895C2.13155,0.00265,3.52725,0.00265,4.92296,0.00265
		z"/>
	<path fill="#535F69" d="M17.1652,12.96516c3.35398,0.00001,6.70795-0.00014,10.06193,0.00131
		c0.06594,0.00003,0.13932-0.02676,0.19757,0.03043c-3.42001,0-6.84002,0-10.26003,0
		C17.16484,12.98631,17.16502,12.97574,17.1652,12.96516z"/>
	<path fill="#3B4852" d="M27.64447,0.06604c-0.07298-0.02209-0.17478,0.05409-0.21977-0.06339c0.01065,0,0.02131,0,0.03196,0
		C27.50486,0.06572,27.59708,0.00058,27.64447,0.06604z"/>
	<path fill="#535F69" d="M0.0007,0.76328c0.0494,0.08452,0.0494,0.16903,0,0.25355C0.0007,0.93231,0.0007,0.8478,0.0007,0.76328z"/>
	<path fill="#697682" d="M0.03284,12.26742c-0.01071,0.00018-0.02143,0.00035-0.03214,0.00053c0-0.05282,0-0.10564,0-0.15847
		C0.05399,12.15361,0.02485,12.21423,0.03284,12.26742z"/>
	<path fill="#697682" d="M0.73584,12.99689c0.00021-0.01063,0.00042-0.02127,0.00063-0.0319
		c0.0536,0.00797,0.11472-0.02093,0.15919,0.0319C0.84239,12.99689,0.78912,12.99689,0.73584,12.99689z"/>
	<path fill="#535F69" d="M27.49115,12.9744c0.04448-0.07039,0.113-0.031,0.17164-0.03695
		C27.61173,12.97771,27.54846,12.96243,27.49115,12.9744z"/>
	<path fill="#3B4852" d="M28.79462,0.60488c-0.09402-0.01232-0.15893-0.07864-0.23313-0.12631
		c-0.19085-0.12261-0.39122-0.22415-0.6074-0.29584c-0.05217-0.0173-0.11857-0.01758-0.1454-0.08208
		C28.1761,0.19421,28.5071,0.35774,28.79462,0.60488z"/>
	<path fill="#3B4852" d="M30.53948,2.56557c-0.14666-0.11686-0.23576-0.27182-0.2989-0.44396
		C30.35735,2.25824,30.45261,2.40913,30.53948,2.56557z"/>
	<path fill="#3B4852" d="M29.57017,1.30259c-0.13469-0.10103-0.25151-0.21987-0.35587-0.35112
		C29.36151,1.04002,29.47891,1.15829,29.57017,1.30259z"/>
	<path fill="#3B4852" d="M29.1145,0.85842c-0.07797-0.00975-0.11561-0.06873-0.15535-0.12514
		C29.03335,0.74763,29.08113,0.79422,29.1145,0.85842z"/>
	<path fill="#3B4852" d="M29.94968,1.74576c-0.04998-0.02727-0.09189-0.06071-0.09587-0.12318
		C29.90813,1.64652,29.94065,1.68716,29.94968,1.74576z"/>
	<path fill="#3B4852" d="M30.24249,2.12386c-0.05803-0.02244-0.09706-0.05993-0.10095-0.12526
		C30.20025,2.02049,30.22043,2.07291,30.24249,2.12386z"/>
	<path fill="#3B4852" d="M29.79412,1.55616c-0.05278-0.02522-0.09462-0.05925-0.10014-0.12246
		C29.74774,1.45813,29.78513,1.49573,29.79412,1.55616z"/>
	<path fill="#424F5A" d="M0.0649,5.61203C0.06486,4.08721,0.068,2.56239,0.06311,1.03759
		C0.0613,0.47506,0.47708,0.06245,1.04349,0.06457C2.33648,0.06942,3.6295,0.06573,4.92251,0.0655
		c0.0012,0.02597,0.00623,0.05009,0.03186,0.06414c0.04392,0.02459,0.0652,0.06856,0.09256,0.10713
		C5.13263,0.3576,5.25151,0.41781,5.39841,0.42692C5.48352,0.4322,5.56877,0.42996,5.65397,0.42996
		c7.03502,0.00009,14.07004,0.00484,21.10503-0.009c0.56013-0.0011,1.03835,0.15903,1.51387,0.41165
		c0.69722,0.37041,1.19647,0.93625,1.64278,1.56426c0.43965,0.61863,0.72327,1.31441,1.03216,1.99802
		c0.20506,0.4538,0.37805,0.91993,0.48112,1.40778c0.05561,0.26324,0.19682,0.47304,0.3745,0.66563
		c0.02338,0.03716,0.06178,0.03004,0.097,0.03235c-0.01142,0.63537-0.20929,1.22851-0.42504,1.81627
		c-0.25814,0.70323-0.58435,1.37531-0.96769,2.01997c-0.38785,0.65225-0.85969,1.23869-1.41974,1.75294
		c-0.34225,0.31426-0.73738,0.55112-1.17634,0.70699c-0.18311,0.06502-0.37728,0.10482-0.57523,0.10484
		c-3.39054,0.00023-6.78108,0.0001-10.17162,0.00006c-0.03229-0.00965-0.05804-0.03018-0.07306-0.05827
		c-0.12195-0.2281-0.32459-0.27384-0.56578-0.27347c-2.42364,0.00372-4.84729,0.00229-7.27094,0.00227
		c-2.68998-0.00002-5.37996,0.00007-8.06994-0.00016c-0.12235-0.00001-0.24736,0.00963-0.36171-0.04439
		c-0.24678-0.11659-0.39077-0.30483-0.39298-0.58351c-0.00368-0.46478-0.00122-0.92959-0.00131-1.39438
		C0.42878,9.1343,0.42481,7.71876,0.43246,6.30328C0.43397,6.02335,0.39002,5.78833,0.1089,5.65758
		c-0.01788-0.00832-0.02937-0.03-0.04471-0.04464L0.0649,5.61203z"/>
	<path fill="#283740" d="M31.80343,6.46832c-0.26352-0.11898-0.35303-0.36256-0.40774-0.60966
		c-0.17007-0.76817-0.50385-1.47295-0.82353-2.18474c-0.25196-0.561-0.56894-1.07978-0.93515-1.57535
		c-0.54616-0.73907-1.25879-1.24024-2.11726-1.55617c-0.13332-0.04906-0.26428-0.06549-0.40385-0.06546
		C19.89861,0.47821,12.68132,0.47807,5.46402,0.47801c-0.29337,0-0.45764-0.11263-0.50965-0.34837
		c0.04709-0.05202,0.10972-0.03111,0.16566-0.03112c7.39781-0.00089,14.79562-0.00189,22.19343,0.00204
		c0.41327,0.00022,0.78733,0.16406,1.13788,0.36981c0.61708,0.36218,1.09044,0.87819,1.52816,1.43002
		c0.38211,0.48172,0.69258,1.00982,0.97033,1.55376c0.40104,0.78539,0.73263,1.6002,0.9067,2.46847
		c0.0285,0.14214,0.05517,0.28897,0.04487,0.43832C31.89664,6.42999,31.88349,6.47467,31.80343,6.46832z"/>
	<path fill="#5A6875" d="M0.06419,5.61294c0.30319,0.0834,0.41584,0.22621,0.41586,0.52942
		c0.00015,1.92179,0.0071,3.84363-0.00678,5.76532c-0.00233,0.32302,0.29235,0.62106,0.63151,0.62043
		c5.16477-0.00959,10.32955-0.00664,15.49434-0.0066c0.32423,0,0.44176,0.07913,0.56563,0.38023
		c-0.00044,0.01096-0.00088,0.02191-0.00133,0.03288c-5.35027-0.00039-10.70052-0.0009-16.05077-0.0007
		c-0.14937,0.00001-0.29843-0.01098-0.43679-0.06408c-0.39816-0.15279-0.61064-0.47714-0.61082-0.92239
		C0.06431,10.11044,0.06475,8.27343,0.0647,6.43642C0.06469,6.16193,0.06437,5.88743,0.06419,5.61294z"/>
	<path fill="#666666" d="M3.35554,0.95266c0.04799-0.0499,0.11023-0.03015,0.16643-0.03015
		C11.42964,0.92167,19.33732,0.92109,27.245,0.92372c0.36902,0.00012,0.69201,0.16018,0.9806,0.3717
		c0.60074,0.4403,1.06095,1.0079,1.4616,1.62816c0.31492,0.48755,0.58796,0.99801,0.81611,1.52844
		c0.11191,0.26018,0.26678,0.50637,0.34206,0.77447c0.08138,0.28982,0.15703,0.58479,0.19999,0.88793
		c0.05019,0.35414-0.00544,0.68976-0.07472,1.02947c-0.00385,0.01888-0.0198,0.03534-0.03012,0.05292
		c-0.0656-0.0731-0.03991-0.15832-0.03238-0.24106c0.00095-0.01047,0.00371-0.02075,0.00554-0.03114
		c0.0641-0.36326,0.0641-0.36326-0.30106-0.38594c-0.04975-0.00727-0.0979-0.02323-0.14831-0.02706
		c-0.03301-0.00097-0.06603-0.00133-0.09905-0.00253c-0.03335,0.00008-0.06644-0.00264-0.09931-0.00822
		c-0.05714-0.01253-0.11467-0.02222-0.17343-0.02415c-0.19474-0.03108-0.38758-0.0708-0.5788-0.11856
		c-0.43898-0.10963-0.82167-0.31649-1.13671-0.64217c-0.35567-0.3677-0.74627-0.69025-1.19523-0.94406
		c-0.39931-0.22575-0.83826-0.33374-1.27344-0.45613c-0.76044-0.21386-1.53522-0.35242-2.32156-0.42638
		c-0.24402-0.02295-0.48979-0.00648-0.73475-0.00746c-0.4528-0.00182-0.90567,0.00451-1.35837-0.00231
		c-0.31651-0.00477-0.60224-0.11515-0.7544-0.39732c-0.20344-0.37727-0.51891-0.53223-0.9226-0.54593
		C19.439,2.92359,19.06062,2.921,18.68277,2.94094c-0.08927,0.01351-0.13071-0.0695-0.19991-0.09695
		c-0.74006-0.45331-1.54294-0.68181-2.41407-0.64045c-0.68187,0.03238-1.31675,0.23309-1.90533,0.57629
		c-0.08707,0.05077-0.17583,0.09872-0.26097,0.15335c-0.01831,0.00515-0.03669,0.00641-0.05551,0.00437
		C13.3735,2.93036,12.90015,2.9327,12.4269,2.9361c-0.34842,0.0025-0.63155-0.1191-0.84629-0.39382
		c-0.04555-0.05827-0.09572-0.11309-0.14262-0.17045c-0.16423-0.20087-0.36921-0.29649-0.63754-0.2957
		C8.96002,2.08151,7.11958,2.07992,5.27915,2.0784C4.77296,2.07798,4.46233,1.84184,4.3204,1.35907
		C4.30987,1.31416,4.30513,1.26851,4.30538,1.22241C4.30465,1.19646,4.30496,1.17042,4.30575,1.14452
		c-0.00023-0.03273,0.00352-0.06573-0.00529-0.0978C4.26509,0.97988,4.201,0.99872,4.14613,0.99817
		C3.9415,0.9961,3.73683,0.99859,3.5322,0.99662C3.47055,0.99602,3.40444,1.00646,3.35554,0.95266z"/>
	<path fill="#8A8A8A" d="M3.13358,12.05009c-0.66543-0.00069-1.33091-0.00637-1.99623,0.00171
		c-0.15268,0.00186-0.18272-0.04776-0.18254-0.18781c0.00374-2.87702,0.0003-5.75406,0.00739-8.63107
		c0.00059-0.2403,0.03198-0.48212,0.03179-0.72409C1.07586,2.40652,1.19157,2.43516,1.2988,2.43102
		c0.05174,0.00007,0.10362-0.00081,0.15529,0.0039C1.51235,2.44054,1.56751,2.45823,1.6221,2.47831
		c0.03125,0.01225,0.06105,0.0273,0.0891,0.04589c0.04956,0.03667,0.09389,0.0791,0.13849,0.12163
		c0.1285,0.13185,0.1506,0.29571,0.15041,0.46928C1.99898,4.14431,1.99942,5.1735,1.99955,6.20269
		c0.00008,0.7178-0.00126,1.43559,0.0006,2.15338C2.00113,8.73222,2.14076,9.03368,2.4857,9.22136
		c0.16385,0.08915,0.34204,0.11281,0.52465,0.11328c0.55357,0.00143,1.10714-0.00038,1.6607,0.00082
		c0.45207,0.00098,0.67567,0.17571,0.78367,0.60899c0.09733,0.39051,0.40931,0.64564,0.8385,0.68528
		c0.07963,0.00735,0.15957,0.00479,0.23939,0.0048c2.0812,0.0001,4.16241,0.00006,6.24361,0.00014
		c0.07451,0,0.14913-0.00235,0.22348,0.00336c0.34404,0.02642,0.60497,0.28413,0.63057,0.62554
		c0.00789,0.10519,0.0063,0.21096,0.00055,0.31635c-0.00066,0.05561,0.00232,0.11138-0.00195,0.167
		c-0.00027,0.03664,0.00186,0.07333-0.00035,0.11004c0.00263,0.03815-0.00045,0.07601-0.00421,0.11404
		c-0.0066,0.04122-0.01797,0.0796-0.05971,0.10025c-0.06562,0.03066-0.1358,0.02184-0.20448,0.02185
		c-3.32626,0.00043-6.65252,0.0003-9.97877,0.00067C3.29572,12.09376,3.21062,12.09575,3.13358,12.05009z"/>
	<path fill="#686868" d="M30.589,6.49977c0.06885,0,0.1377-0.00004,0.20655,0.00001c0.21712,0.00014,0.2481,0.03271,0.20274,0.24799
		c-0.03134,0.14876-0.06801,0.29557-0.05779,0.44905c-0.06725,0.23141-0.15989,0.45594-0.19229,0.69681
		c-0.09586,0.32936-0.24562,0.63813-0.38863,0.94756c-0.33298,0.72046-0.72951,1.40477-1.23664,2.02221
		c-0.36312,0.44211-0.77567,0.8236-1.29776,1.07544c-0.3527,0.17013-0.72324,0.18544-1.10228,0.11637
		c-0.02334-0.0404-0.00185-0.07439,0.02407-0.09915c0.12583-0.12017,0.19286-0.27607,0.27085-0.42568
		c0.11183-0.21455,0.31116-0.31455,0.53037-0.37376c0.38204-0.10319,0.69551-0.31526,0.96581-0.59006
		c0.31971-0.32504,0.59925-0.68246,0.84044-1.07062c0.46873-0.75434,0.81658-1.56144,1.09249-2.40127
		c0.05115-0.1557,0.08789-0.31491,0.10203-0.47857C30.55261,6.57387,30.55419,6.53129,30.589,6.49977z"/>
	<path fill="#4A5661" d="M26.72152,12.04622c0.27991-0.01508,0.56206,0.03416,0.83992-0.04937
		c0.34361-0.10329,0.63217-0.29576,0.90121-0.52121c0.68528-0.57426,1.15351-1.3111,1.57866-2.08032
		c0.2684-0.48561,0.44989-1.01106,0.70692-1.5017c0.01053,0.20218-0.09287,0.37213-0.15695,0.55373
		c-0.13117,0.37174-0.32604,0.71545-0.50844,1.06092c-0.17941,0.33982-0.3865,0.66845-0.61295,0.98563
		c-0.25362,0.35524-0.53097,0.68384-0.84809,0.97977c-0.331,0.30888-0.71424,0.53421-1.15837,0.65041
		c-0.06381,0.0167-0.12613,0.01676-0.1895,0.01676c-7.96855,0.00037-15.9371,0.00033-23.90565,0.00077
		c-0.09153,0-0.18459,0.00999-0.23469-0.09156c0.36218-0.00101,0.72436-0.00288,1.08653-0.00296
		c3.1214-0.00068,6.24279-0.00103,9.36419-0.00148c0.07741-0.06677,0.17173-0.04613,0.26033-0.04615
		c3.9133-0.00085,7.8266-0.0006,11.7399-0.00095c0.31944-0.00003,0.63887,0.00312,0.95831-0.00007
		C26.60704,11.9978,26.67155,11.99498,26.72152,12.04622z"/>
	<path fill="#666768" d="M1.31091,2.47296C1.20418,2.4755,1.09606,2.46597,0.99398,2.50882
		C0.90714,2.04429,0.93556,1.57448,0.9247,1.1062C0.92125,0.95722,0.97444,0.9148,1.1185,0.91904
		c0.30209,0.00888,0.60463,0.00199,0.90698,0.00338c0.05099,0.00023,0.10753-0.01677,0.14951,0.03059
		c-0.04488,0.0494-0.10572,0.04259-0.16336,0.04406c-0.10621,0.00272-0.2125-0.0008-0.31874,0.00277
		C1.43269,1.0086,1.37937,1.05246,1.36592,1.31486c-0.01591,0.31038-0.00253,0.62152-0.006,0.9323
		C1.35905,2.3252,1.37004,2.40688,1.31091,2.47296z"/>
	<path fill="#6B6B6B" d="M1.31091,2.47296C1.311,2.10961,1.31092,1.74626,1.31137,1.38292
		c0.00006-0.04731-0.00302-0.09566,0.0053-0.14177c0.04769-0.26428,0.07726-0.28753,0.34847-0.28763
		c0.16994-0.00006,0.33988-0.00033,0.50983-0.00051C2.56852,0.9529,2.96204,0.95279,3.35555,0.95267
		c0.30312,0.00029,0.60626-0.00076,0.90936,0.00215c0.0537,0.00052,0.15683-0.02496,0.08277,0.09376
		c-0.8173-0.01629-1.63487-0.04355-2.45143,0.01545C1.6584,1.08121,1.58525,1.16428,1.54654,1.39656
		C1.49939,1.67949,1.52916,1.96435,1.5199,2.24819C1.51735,2.3263,1.52927,2.4078,1.47087,2.47413
		C1.41755,2.47374,1.36423,2.47335,1.31091,2.47296z"/>
	<path fill="#787878" d="M13.58552,11.60252c-0.00197-0.13713,0.0133-0.27713-0.00938-0.4108
		c-0.05226-0.30806-0.31284-0.50821-0.63812-0.50826c-2.18274-0.00033-4.36548-0.00357-6.5482,0.00254
		c-0.46724,0.00131-0.93847-0.32863-0.99826-0.79445c-0.0404-0.31476-0.31219-0.50721-0.63671-0.50752
		C4.14794,9.38345,3.54103,9.38517,2.93413,9.38341C2.49499,9.38214,2.11835,9.1166,2.00349,8.72648
		c-0.03401-0.11553-0.05432-0.23394-0.05421-0.3567C1.95096,6.61719,1.94892,4.8646,1.95268,3.11202
		c0.00039-0.18276-0.03356-0.3439-0.16218-0.47874C1.75342,2.26569,1.76752,1.89736,1.78199,1.52962
		c0.00541-0.13753,0.09789-0.21633,0.23565-0.2381c0.04735-0.00748,0.09521-0.00812,0.14302-0.00817
		C2.81387,1.28268,3.4671,1.28263,4.12032,1.28357c0.07895,0.00011,0.16092-0.00761,0.22755,0.05008
		c0.09722,0.2676,0.225,0.50826,0.51451,0.62181C4.98253,2.00259,5.10257,2.0318,5.23231,2.03173
		c1.86163-0.00105,3.72328,0.0034,5.58488-0.00483c0.30449-0.00135,0.51258,0.12824,0.68974,0.3499
		c0.13093,0.16383,0.25332,0.33588,0.46003,0.42315c0.12426,0.05246,0.24793,0.08767,0.38325,0.08728
		c0.45211-0.00132,0.90422-0.00125,1.35633,0.00047c0.05584,0.00021,0.11835-0.02126,0.16557,0.03047
		c-0.05752,0.09749-0.16027,0.14262-0.24496,0.20873c-0.09108,0.0684-0.19228,0.12739-0.22836,0.24624
		c-0.17135,0.18667-0.36795,0.34766-0.52869,0.54608c-0.50976,0.62925-0.82575,1.33628-0.90788,2.14216
		c-0.13395,1.31437,0.28471,2.4379,1.2285,3.35666c0.65794,0.64049,1.4625,1.00704,2.38573,1.09948
		c1.32589,0.13276,2.44655-0.29749,3.38848-1.21759c0.11738-0.11466,0.19396-0.26499,0.32877-0.36335
		c0.11747-0.02144,0.15312-0.12934,0.21889-0.20551c0.05181-0.06236,0.09667-0.12871,0.12292-0.20623
		c0.34315-0.48803,0.56567-1.02603,0.65781-1.61277c0.18954-1.20698-0.10683-2.28736-0.87776-3.24049
		c-0.19749-0.24417-0.42256-0.45853-0.67801-0.64203c-0.03781-0.02716-0.08432-0.05042-0.07174-0.11049
		c0.00789-0.00694,0.01578-0.01995,0.02367-0.01995c0.52859-0.0001,1.06237-0.08084,1.58112,0.08198
		c0.19432,0.06099,0.34478,0.18969,0.43571,0.37155c0.16734,0.33468,0.44596,0.48166,0.8098,0.48394
		c0.57519,0.00361,1.15045-0.00214,1.72564,0.00175c0.71869,0.00487,1.42182,0.13038,2.11751,0.29505
		c0.52537,0.12436,1.05253,0.24538,1.55226,0.45882c0.36457,0.15571,0.68375,0.3779,0.99202,0.62131
		c0.28349,0.22383,0.50867,0.50915,0.7961,0.72798c0.31143,0.2371,0.6775,0.34343,1.05141,0.42931
		c0.11828,0.02717,0.23891,0.04431,0.35846,0.06604c0.06387,0.0772,0.03177,0.16163,0.01525,0.24277
		c-0.10508,0.51607-0.30426,1.00078-0.52003,1.47783c-0.29711,0.65689-0.64339,1.28656-1.10881,1.84515
		c-0.30771,0.36931-0.65957,0.66986-1.14347,0.79437c-0.31927,0.08215-0.5575,0.28337-0.7134,0.57107
		c-0.11083,0.20453-0.27246,0.28449-0.50665,0.28428c-4.10067-0.00371-8.20134-0.00262-12.30201-0.00331
		C13.74658,11.64897,13.65825,11.66367,13.58552,11.60252z"/>
	<path fill="#767676" d="M13.58552,11.60252c4.19188-0.00004,8.38377-0.00134,12.57564,0.00344
		c0.21761,0.00025,0.34604-0.08274,0.43989-0.26767c0.13152-0.25913,0.33638-0.47579,0.61534-0.54164
		c0.80266-0.18945,1.25606-0.77397,1.66691-1.40111c0.46783-0.71412,0.82063-1.48694,1.08336-2.29847
		c0.06954-0.21481,0.13275-0.4322,0.14281-0.66024c0.05621-0.00417,0.11047,0.00146,0.15997,0.03116
		c0.04582,0.05511,0.03622,0.11546,0.0245,0.18015c-0.08153,0.44998-0.24789,0.87272-0.42343,1.29185
		c-0.29711,0.70936-0.65906,1.38371-1.12449,2.0003c-0.17296,0.22913-0.37195,0.43544-0.5877,0.6243
		c-0.19445,0.17021-0.42402,0.2827-0.67413,0.34962c-0.32592,0.08721-0.57696,0.26993-0.73026,0.56907
		c-0.12086,0.23584-0.30854,0.32611-0.5697,0.32594c-4.12316-0.00267-8.24631-0.00183-12.36947-0.00234
		c-0.07881-0.00001-0.16141,0.01235-0.22897-0.04576C13.5857,11.70824,13.58561,11.65538,13.58552,11.60252z"/>
	<path fill="#67696A" d="M26.72152,12.04622c-4.37907-0.0002-8.75814-0.00039-13.13721-0.00059
		c0.00074-0.03142,0.00148-0.06283,0.00223-0.09425c0.07781-0.06548,0.17203-0.04585,0.26068-0.04589
		c2.11999-0.00099,4.23997-0.00076,6.35996-0.00076c1.91758,0,3.83515-0.00007,5.75273,0.00014
		c0.12776,0.00001,0.25526,0.0035,0.38306,0.01071c0.19654,0.0111,0.35922-0.0607,0.44373-0.24602
		c0.16025-0.35143,0.42833-0.58032,0.80037-0.67135c0.37578-0.09194,0.66687-0.30994,0.91148-0.58401
		c0.41705-0.46728,0.77318-0.9773,1.05499-1.54056c0.2535-0.5067,0.50621-1.01175,0.67876-1.55223
		c0.08185-0.25638,0.16583-0.51247,0.19836-0.78127c0.00325-0.02686,0.01377-0.05071,0.03042-0.07201
		c0.04656-0.00502,0.08807,0.01002,0.12793,0.03164c0.01481,0.38494-0.13555,0.73336-0.26499,1.08096
		c-0.30565,0.82078-0.68144,1.60905-1.19634,2.32523c-0.28104,0.39091-0.60376,0.74472-0.99214,1.03246
		c-0.16151,0.11966-0.35316,0.19521-0.54933,0.24596c-0.29816,0.07712-0.51853,0.23766-0.61914,0.53514
		C26.92089,11.85607,26.79912,11.93428,26.72152,12.04622z"/>
	<path fill="#6E6E6E" d="M30.46107,6.46813c0.05646,0.20023-0.03727,0.38282-0.08717,0.56372
		c-0.08328,0.30197-0.19664,0.59603-0.31651,0.88751c-0.08617,0.20956-0.17142,0.41652-0.28344,0.6147
		c-0.16029,0.28358-0.27584,0.59127-0.45409,0.86542c-0.19178,0.29497-0.39704,0.58088-0.61647,0.85671
		c-0.13875,0.17441-0.2997,0.32466-0.46972,0.46882c-0.15201,0.12889-0.31805,0.2262-0.50897,0.27628
		c-0.32622,0.08556-0.61661,0.22121-0.80464,0.51612c-0.0226,0.03545-0.0478,0.07032-0.06367,0.10876
		c-0.10957,0.26545-0.28728,0.36828-0.56779,0.3282c-0.04183-0.00597-0.08504-0.0032-0.12761-0.0032
		c-4.1915-0.00001-8.383,0.0001-12.57448,0.00021c-0.00016-0.03176-0.00034-0.06352-0.00052-0.09528
		c0.0779-0.06516,0.17203-0.04579,0.26073-0.04583c2.25815-0.00093,4.51631-0.00072,6.77446-0.00073
		c1.84274-0.00001,3.68548-0.003,5.5282,0.00319c0.28214,0.00095,0.48156-0.07223,0.61838-0.3412
		c0.1409-0.27698,0.38449-0.46447,0.69606-0.5422c0.39242-0.0979,0.68113-0.33938,0.95915-0.61872
		c0.3673-0.36905,0.64412-0.79649,0.8974-1.24174c0.26626-0.46808,0.49221-0.95549,0.68892-1.45732
		c0.13351-0.34062,0.23695-0.68746,0.30869-1.04471c0.00755-0.03758,0.02247-0.06997,0.04721-0.0986
		C30.39715,6.4682,30.42911,6.46817,30.46107,6.46813z"/>
	<path fill="#717171" d="M30.36518,6.46823c-0.03244,0.34771-0.12616,0.68056-0.25218,1.00494
		c-0.09853,0.25363-0.18477,0.51389-0.30693,0.7561c-0.17222,0.34149-0.33201,0.68993-0.53251,1.01739
		c-0.17254,0.28181-0.34196,0.56575-0.56106,0.81518c-0.13647,0.15536-0.29767,0.29175-0.43164,0.44521
		c-0.25675,0.2941-0.60103,0.39854-0.94438,0.51793c-0.26237,0.09123-0.44129,0.28251-0.55802,0.51337
		c-0.10993,0.21739-0.26626,0.31159-0.49677,0.3174c-0.04256,0.00107-0.08517,0.00018-0.12775,0.00018
		c-4.18932,0.00005-8.37865,0.0001-12.56796,0.00016c-0.00006-0.03166-0.00014-0.06333-0.0002-0.09499
		c4.20012-0.00008,8.40024-0.00151,12.60034,0.00299c0.26154,0.00028,0.42872-0.09583,0.54136-0.32705
		c0.14466-0.29695,0.39718-0.48137,0.71372-0.55839c0.46478-0.1131,0.79604-0.40812,1.09208-0.75143
		c0.46932-0.54426,0.81895-1.16474,1.12154-1.81059c0.25709-0.54874,0.48199-1.11077,0.60426-1.70727
		c0.00941-0.04593,0.00719-0.0942,0.01037-0.14138C30.30136,6.46806,30.33327,6.46815,30.36518,6.46823z"/>
	<path fill="#505A62" d="M18.66578,2.91904c0.19417,0.15335,0.39354,0.29986,0.56606,0.47927
		c0.61614,0.64072,0.99687,1.40044,1.12314,2.27273c0.13726,0.94826-0.05793,1.84134-0.54128,2.67098
		c-0.04472,0.07676-0.10357,0.14543-0.15586,0.21785c-0.03735,0.04981-0.0665,0.04657-0.08704-0.01316
		C19.56531,8.4621,19.61313,8.3951,19.6497,8.32599c0.33498-0.63298,0.47771-1.31075,0.44148-2.01936
		c-0.04557-0.89114-0.3584-1.68658-0.92974-2.38095c-0.31047-0.37733-0.68299-0.67892-1.10084-0.93005
		c-0.04305-0.02587-0.11959-0.03747-0.09027-0.12086c0.10783-0.05597,0.22425-0.02395,0.33678-0.03141
		c0.067-0.00444,0.13533,0.00619,0.20006-0.02015C18.58658,2.81198,18.59365,2.91845,18.66578,2.91904z"/>
	<path fill="#4B555D" d="M18.50718,2.82321c0.02891,0.07175-0.02149,0.06366-0.06473,0.06362
		c-0.15962-0.00017-0.31924-0.00005-0.47886-0.00004c-0.06683,0.04509-0.12288,0.00111-0.17751-0.02547
		c-0.61359-0.29853-1.2637-0.43283-1.94402-0.40317c-0.53495,0.02332-1.05133,0.13971-1.53666,0.3734
		c-0.11427,0.05502-0.22531,0.11914-0.3545,0.13673c-0.02805-0.00511-0.05304-0.01313-0.04642-0.04993
		c0.0522-0.11882,0.17973-0.13933,0.27526-0.19494c0.46182-0.26885,0.95951-0.45111,1.48961-0.52683
		c0.57216-0.08173,1.14183-0.04959,1.69959,0.11013C17.77366,2.42259,18.16051,2.58013,18.50718,2.82321z"/>
	<path fill="#6F6F6F" d="M1.47087,2.47413c0.01242-0.37855-0.0249-0.75794,0.03004-1.13608
		C1.52668,1.16069,1.65396,1.03107,1.83305,1.016c0.79102-0.0666,1.58343-0.01417,2.37501-0.02979
		c0.05287-0.00104,0.12409-0.0259,0.13963,0.06237C4.34761,1.08028,4.34753,1.11199,4.34745,1.1437
		C4.28004,1.20249,4.19727,1.18736,4.11912,1.1875c-0.6846,0.0012-1.36919,0.00002-2.05379,0.00095
		C1.76439,1.18886,1.67721,1.27538,1.67597,1.572C1.67493,1.81932,1.67699,2.06666,1.67489,2.31397
		C1.67433,2.38081,1.68774,2.45263,1.63066,2.50755C1.5774,2.49641,1.52413,2.48527,1.47087,2.47413z"/>
	<path fill="#767676" d="M4.34786,1.33365C3.60484,1.33369,2.86182,1.33355,2.1188,1.33386
		c-0.24024,0.0001-0.29591,0.0566-0.29616,0.29898C1.82236,1.91176,1.82371,2.19069,1.82161,2.46959
		C1.82119,2.52488,1.84283,2.58674,1.7905,2.63328C1.74777,2.61272,1.71614,2.58098,1.69429,2.53939
		c-0.03319-0.04-0.03103-0.08812-0.0311-0.13548C1.6627,2.10896,1.6597,1.81397,1.66416,1.51909
		c0.00337-0.22313,0.12158-0.34132,0.34776-0.34234c0.73299-0.00332,1.466-0.00149,2.19901-0.00099
		C4.25859,1.17578,4.3073,1.17308,4.34721,1.20709C4.34743,1.24928,4.34765,1.29147,4.34786,1.33365z"/>
	<path fill="#737373" d="M4.34721,1.20709C3.59633,1.20706,2.84544,1.20684,2.09456,1.20708
		C1.7902,1.20718,1.69514,1.302,1.69478,1.6047C1.69441,1.91625,1.69444,2.2278,1.6943,2.53937
		C1.66857,2.53763,1.6445,2.53261,1.63066,2.50753c0.00004-0.33209-0.00073-0.6642,0.0004-0.99631
		c0.00084-0.24606,0.12292-0.36711,0.37188-0.36735c0.7815-0.00074,1.56301-0.00022,2.34451-0.00018
		C4.34737,1.16483,4.34729,1.18596,4.34721,1.20709z"/>
	<path fill="#5C646A" d="M13.90448,2.91834c0.01346,0.01184,0.02692,0.02369,0.04038,0.03553
		c-0.06079,0.12104-0.17115,0.17142-0.29457,0.20335c-0.02485-0.00714-0.04263-0.01931-0.03499-0.0492
		c0.07356-0.0793,0.1594-0.14227,0.25681-0.18985C13.88289,2.91822,13.89369,2.91828,13.90448,2.91834z"/>
	<path fill="#FEFEFE" d="M13.65219,3.14212c0.09755-0.06275,0.19511-0.1255,0.29266-0.18825
		c1.27004-0.67144,2.56081-0.7342,3.8744-0.12996c0.04766,0.02192,0.0962,0.04196,0.14433,0.06288
		c0.56791,0.32806,1.06844,0.73357,1.43413,1.28083c0.86508,1.29459,0.97235,2.6565,0.34653,4.07764
		c-0.04618,0.10488-0.12615,0.19303-0.15462,0.30671C19.5838,8.61833,19.5555,8.67521,19.51479,8.7269
		c-0.06328,0.06613-0.08736,0.16606-0.1806,0.20641c-0.32705,0.40707-0.69985,0.76225-1.14657,1.04235
		c-2.44445,1.53269-5.78115,0.05218-6.2323-2.77786c-0.24033-1.50758,0.22797-2.77742,1.37653-3.79753
		C13.35535,3.3794,13.376,3.35536,13.39798,3.3328C13.46322,3.24368,13.54244,3.17288,13.65219,3.14212z"/>
	<path fill="#6C7176" d="M13.65219,3.14212c-0.08474,0.06356-0.16947,0.12711-0.25421,0.19067
		c0.0193-0.12545,0.1142-0.17903,0.21733-0.22477C13.62759,3.11939,13.63989,3.13076,13.65219,3.14212z"/>
	<path fill="#646A6F" d="M19.33419,8.93332c0.05282-0.07485,0.10565-0.1497,0.15847-0.22455
		c0.022,0.00561,0.03412,0.02003,0.03795,0.04184C19.48016,8.82738,19.46225,8.93856,19.33419,8.93332z"/>
	<path fill="#5D656B" d="M19.53061,8.7506c-0.01265-0.01394-0.0253-0.02789-0.03795-0.04184
		c0.02174-0.0587,0.0531-0.11155,0.09696-0.15679c0.01836,0.03975,0.04442,0.01418,0.06821,0.0079
		C19.6379,8.63818,19.59654,8.70245,19.53061,8.7506z"/>
	<path fill="#797979" d="M13.64705,4.18526c0.94782-0.8977,2.06416-1.21262,3.31896-0.8362
		c1.25847,0.37752,2.04278,1.24418,2.30596,2.52627c0.22546,1.09832-0.09214,2.06342-0.84316,2.89297
		c-0.02402,0.02654-0.05573,0.04623-0.08386,0.06912c-0.11729,0.0644-0.21607,0.15269-0.31558,0.24037
		c-0.82036,0.51612-1.70587,0.64383-2.63481,0.38891c-1.39264-0.38218-2.33135-1.48561-2.48079-2.92553
		c-0.0756-0.72846,0.08901-1.4175,0.49912-2.03803C13.50109,4.40471,13.59266,4.30846,13.64705,4.18526z"/>
	<path fill="#505A62" d="M13.45671,4.50294c-0.26252,0.39846-0.411,0.83661-0.48135,1.30628
		c-0.09934,0.66323,0.01924,1.29297,0.30811,1.8875c0.28498,0.58651,0.72091,1.04958,1.28812,1.38255
		c0.56646,0.33252,1.18044,0.49256,1.83988,0.46206c0.58288-0.02696,1.12532-0.18717,1.61637-0.50575
		c0.03629-0.02191,0.06288-0.02368,0.06286,0.02977c-1.08563,0.9349-2.81128,0.97935-4.02692,0.10372
		c-1.52133-1.09583-1.8324-3.23804-0.67973-4.68216c0.01304-0.01633,0.02837-0.03086,0.04262-0.04624
		C13.48064,4.44059,13.47865,4.46704,13.45671,4.50294z"/>
	<path fill="#696F74" d="M13.45671,4.50294c-0.0005-0.02527-0.00486-0.0487-0.03003-0.06227
		c0.05982-0.0967,0.13866-0.17727,0.22037-0.25541C13.65184,4.33135,13.53105,4.40346,13.45671,4.50294z"/>
	<path fill="#696F74" d="M18.09071,9.06535c-0.01371-0.02497-0.03736-0.02929-0.06286-0.02978
		c0.09634-0.08078,0.18073-0.18036,0.31711-0.19815C18.27093,8.92516,18.19173,9.00723,18.09071,9.06535z"/>
	<path fill="#FEFEFE" d="M16.56213,6.7198c-0.33697,0.33716-0.67363,0.67464-1.01105,1.01136
		c-0.17637,0.176-0.35666,0.34822-0.52979,0.52728c-0.05968,0.06172-0.09647,0.07399-0.16205,0.00521
		c-0.1572-0.16487-0.31962-0.32529-0.487-0.47997c-0.07236-0.06687-0.07103-0.10441,0.00041-0.1729
		c0.37122-0.35593,0.73422-0.72029,1.10624-1.07538c0.08477-0.08092,0.11379-0.16297,0.11301-0.27708
		c-0.00481-0.70209-0.00241-1.40423-0.00241-2.10635c0-0.27539,0-0.27539,0.26578-0.28724
		c0.2103-0.08772,0.42737-0.04549,0.64231-0.02985c0.05907,0.0043,0.08769,0.05371,0.09993,0.10949
		c0.0114,0.05196,0.01173,0.10472,0.01177,0.15743c0.00057,0.7962,0.00026,1.59239,0.0005,2.38859
		C16.6098,6.57062,16.60249,6.64831,16.56213,6.7198z"/>
	<path fill="#505A62" d="M16.56213,6.7198C16.56054,5.82353,16.55604,4.92724,16.5606,4.031
		c0.00066-0.12929-0.02714-0.17408-0.16342-0.16505c-0.17981,0.01191-0.3612,0.00028-0.54191-0.00123
		c-0.00061-0.04213,0.00209-0.08462-0.00249-0.12633c-0.01097-0.09988,0.03716-0.12616,0.13076-0.12428
		c0.23366,0.0047,0.46756,0.00484,0.70121-0.00004c0.09554-0.00199,0.13033,0.02852,0.13001,0.12627
		c-0.00286,0.885-0.00059,1.77002-0.00263,2.65503C16.81175,6.56177,16.65893,6.62166,16.56213,6.7198z"/>
</g>
</svg>
