<?xml version="1.0" encoding="utf-8"?>
<!-- Generator: Adobe Illustrator 23.0.0, SVG Export Plug-In . SVG Version: 6.00 Build 0)  -->
<svg version="1.1" id="Слой_1" xmlns="http://www.w3.org/2000/svg" xmlns:xlink="http://www.w3.org/1999/xlink" x="0px" y="0px" width="32px" height="13px"
	 viewBox="0 0 32 13" enable-background="new 0 0 32 13" xml:space="preserve">
<g>
	<path fill="#2D2D2D" d="M0.86438,12.99689c-0.02129,0-0.04257,0-0.06386,0c-0.33183-0.05126-0.56626-0.23332-0.72469-0.52323
		c-0.04681-0.08566-0.04517-0.18058-0.07358-0.26911c0-2.20796,0-4.41593,0-6.6239c0.03484-0.02885,0.07491-0.03615,0.11867-0.0287
		c0.30471,0.10753,0.41072,0.26299,0.41096,0.61574c0.00116,1.65234,0.00038,3.30467,0.00055,4.95701
		c0.00003,0.25339-0.00339,0.50683,0.00116,0.76017c0.0063,0.35067,0.20489,0.54537,0.55886,0.55347
		c0.06912,0.00158,0.13828,0.00062,0.20742,0.00062c5.03139,0.00002,10.06278,0.00001,15.09417,0.00004
		c0.07446,0,0.14894-0.00118,0.22337,0.00091c0.30537,0.00858,0.46824,0.1301,0.56346,0.41944
		c0.00416,0.04391-0.00023,0.08515-0.03737,0.11586c-0.06345,0.01024-0.12743,0.00507-0.19116,0.00508
		c-5.29465,0.00028-10.58931,0.00018-15.88396,0.00114C1.00052,12.98146,0.93019,12.9644,0.86438,12.99689z"/>
	<path fill="#262727" d="M31.99691,6.78501c-0.06809,0.03773-0.04715,0.11021-0.0594,0.16591
		c-0.39912,1.81492-1.17801,3.443-2.43218,4.8313c-0.4517,0.50001-0.98541,0.89516-1.64168,1.10545
		c-0.12238,0.03921-0.25887,0.03076-0.36898,0.10923c-0.05322,0-0.10644,0-0.15965,0
		c-0.06033-0.03172-0.1254-0.01548-0.18795-0.0155c-3.31336-0.00108-6.62672-0.00052-9.94008-0.00103
		c-0.02224,0.00184-0.04137-0.00496-0.05738-0.02038c-0.00017-0.02995-0.00034-0.05991-0.00051-0.08987
		c0.08267-0.06982,0.18268-0.04486,0.27569-0.04491c2.59014-0.0014,5.18027-0.00111,7.77041-0.00111
		c0.64355,0,1.2872-0.00727,1.9306,0.00236c0.49167,0.00736,0.93093-0.14304,1.34224-0.3928
		c0.301-0.18277,0.55404-0.4214,0.80717-0.66499c0.73802-0.71021,1.25873-1.56714,1.6928-2.47521
		c0.38063-0.7963,0.69538-1.62145,0.83759-2.5003c0.01682-0.10392,0.00055-0.21207,0.04271-0.31225
		c0.0232-0.0356,0.0571-0.0408,0.09553-0.03289c0.04341,0.0116,0.02779,0.06034,0.05309,0.08344
		C31.99691,6.61598,31.99691,6.7005,31.99691,6.78501z"/>
	<path fill="#1A1A1A" d="M31.96232,6.46722c-0.03099,0.00035-0.06199,0.0007-0.09298,0.00106
		c-0.04772,0.02091-0.07377,0.0121-0.06416-0.04599c0.06061-0.1573,0.01527-0.31387-0.01158-0.46757
		c-0.12272-0.70242-0.36961-1.36663-0.66622-2.01134c-0.40354-0.87713-0.89063-1.70878-1.52856-2.439
		c-0.39678-0.45418-0.846-0.86123-1.39323-1.14126c-0.38106-0.195-0.78998-0.27983-1.21652-0.28014
		c-1.76632-0.00125-3.53264-0.00052-5.29897-0.00052c-5.45857,0-10.91714-0.00002-16.37572,0.00013
		c-0.11167,0-0.22393-0.00668-0.33359,0.02279C4.95084,0.11189,4.92434,0.10824,4.90674,0.07972
		c-0.0107-0.02808-0.00696-0.05389,0.01285-0.07707c7.5676,0,15.1352,0,22.7028,0c0.54725,0.15603,1.03094,0.42411,1.46039,0.79588
		c0.58691,0.50808,1.05576,1.11143,1.46037,1.76595c0.62529,1.0115,1.10946,2.08304,1.37421,3.24577
		c0.02359,0.10358,0.01355,0.21626,0.07955,0.3092c0,0.06339,0,0.12677,0,0.19016
		C31.95632,6.35586,32.00553,6.42153,31.96232,6.46722z"/>
	<path fill="#252525" d="M4.91959,0.00265C4.91953,0.02374,4.91948,0.04483,4.91942,0.06593
		c-0.08125,0.07212-0.18151,0.049-0.2746,0.04914C3.43704,0.11694,2.22925,0.11373,1.02148,0.11741
		c-0.52593,0.0016-0.86555,0.34356-0.87262,0.86541C0.14807,1.0409,0.14857,1.099,0.14857,1.15709
		c-0.00003,1.38363,0.00052,2.76726-0.00112,4.1509c-0.00011,0.09241,0.02312,0.1919-0.04936,0.27262
		C0.06614,5.58063,0.03419,5.58065,0.00225,5.58067c0-1.61636,0-3.23271,0-4.84907c0.05855-0.37618,0.26539-0.62436,0.63862-0.72895
		C2.06711,0.00265,3.49335,0.00265,4.91959,0.00265z"/>
	<path fill="#697681" d="M17.1496,12.95999c0.00971,0.00373,0.01962,0.00684,0.02972,0.00935
		c0.01135,0.00546,0.01536,0.01135,0.0121,0.0177c-0.00336,0.00656-0.00681,0.00985-0.0104,0.00985
		c-5.43888,0-10.87776,0-16.31664,0c0.04292-0.06314,0.1075-0.03102,0.16094-0.03103
		c5.32693-0.00157,10.65386-0.00146,15.98079-0.00165C17.05394,12.96421,17.10177,12.96145,17.1496,12.95999z"/>
	<path fill="#535F69" d="M17.18102,12.99689c-0.00011-0.00922-0.00067-0.01842-0.00169-0.02757
		c0.05315-0.00135,0.1063-0.00391,0.15946-0.00392c3.28301-0.00031,6.56602-0.00052,9.84904,0.0004
		c0.04974,0.00001,0.10786-0.02364,0.14719,0.03109C23.95035,12.99689,20.56568,12.99689,17.18102,12.99689z"/>
	<path fill="#404C56" d="M31.96232,6.46722c0.01474-0.05184-0.02379-0.1152,0.03459-0.1576c0,0.07395,0,0.1479,0,0.22185
		C31.96879,6.51885,31.96571,6.49295,31.96232,6.46722z"/>
	<path fill="#202020" d="M0.09808,5.58061c-0.00002-1.54011-0.00012-3.08022,0-4.62033
		c0.00004-0.51903,0.37744-0.89412,0.8997-0.8942C2.305,0.06589,3.61221,0.06596,4.91942,0.06593
		c0.01064,0.01064,0.02128,0.02128,0.03193,0.03192c0.04366,0.02486,0.0649,0.06882,0.09224,0.10741
		c0.08564,0.12087,0.20449,0.18094,0.35126,0.19C5.4799,0.40051,5.56508,0.39828,5.6502,0.39828
		c7.02902,0.00009,14.05805,0.00474,21.08705-0.0088c0.55949-0.00108,1.03711,0.16021,1.51205,0.41332
		c0.69131,0.36842,1.18742,0.9296,1.63129,1.55254c0.4435,0.62242,0.72928,1.32301,1.03921,2.01193
		c0.17585,0.39087,0.33204,0.78997,0.43041,1.20823c0.07688,0.32684,0.1607,0.64822,0.45496,0.86108
		c0.01393,0.02544,0.0379,0.03087,0.06417,0.03169c0.00679,0.4485-0.11965,0.87264-0.25237,1.29329
		C31.47009,8.22714,31.28036,8.6759,31.0855,9.1251c-0.31538,0.72701-0.72503,1.39095-1.19183,2.02606
		c-0.20607,0.28037-0.46843,0.50803-0.70507,0.75982c-0.29875,0.31787-0.64621,0.55719-1.03588,0.74066
		c-0.29409,0.13847-0.60365,0.22004-0.93493,0.21982c-3.35623-0.00217-6.71246-0.00134-10.06869-0.00135
		c-0.10196-0.29204-0.31434-0.38412-0.6164-0.38384c-5.14297,0.0049-10.28595,0.00073-15.4289,0.00971
		c-0.34754,0.00061-0.63121-0.28369-0.6289-0.61815C0.48795,9.9828,0.47759,8.08761,0.48492,6.19251
		C0.48608,5.89258,0.39217,5.68193,0.09808,5.58061z"/>
	<path fill="#131313" d="M31.80517,6.43658c-0.22489-0.05813-0.3148-0.23908-0.38186-0.43071
		c-0.12856-0.36732-0.19735-0.7517-0.34122-1.11654c-0.1529-0.38775-0.32437-0.76677-0.49199-1.14767
		c-0.26204-0.59546-0.58978-1.15121-0.98067-1.67578c-0.54525-0.73173-1.2497-1.23284-2.10033-1.54995
		c-0.14279-0.05323-0.28385-0.07107-0.43435-0.07104C19.86969,0.44658,12.66463,0.44637,5.45958,0.44632
		c-0.29313,0-0.45802-0.11334-0.50823-0.34847c0.00567-0.04424,0.03182-0.06363,0.07582-0.06307
		c0.04254,0.00054,0.0851-0.00036,0.12766-0.00036c7.30342-0.00002,14.60684-0.00124,21.91026,0.00247
		c0.54106,0.00027,1.03348,0.1684,1.48521,0.47661c0.17302,0.11805,0.33561,0.24957,0.50583,0.37034
		c0.13077,0.09278,0.21323,0.25094,0.3406,0.35049c0.23318,0.18226,0.41112,0.41171,0.5741,0.64783
		c0.25722,0.37263,0.50624,0.75076,0.73422,1.14418c0.39927,0.68901,0.70755,1.41264,0.95337,2.16585
		c0.121,0.37076,0.18998,0.7521,0.24065,1.13742C31.90852,6.40145,31.88471,6.44262,31.80517,6.43658z"/>
	<path fill="#272726" d="M14.06959,12.10944c-4.26735,0-8.5347,0.00001-12.80205-0.00001c-0.3634,0-0.4031-0.0386-0.4031-0.3924
		C0.8644,8.21552,0.86439,4.71402,0.86445,1.21251c0.00001-0.34352,0.0432-0.38578,0.39379-0.38578
		C9.79826,0.8267,18.33828,0.82741,26.8783,0.8253c0.63681-0.00016,1.16837,0.22808,1.63907,0.64698
		c0.62478,0.55601,1.09163,1.22618,1.49667,1.94584c0.44393,0.78874,0.79715,1.61257,1.00519,2.49587
		c0.11018,0.46784,0.04172,0.91953-0.08944,1.36757c-0.14495,0.49515-0.32874,0.97471-0.53922,1.4483
		c-0.30802,0.69306-0.68095,1.34242-1.13644,1.9479c-0.37749,0.50179-0.81288,0.93595-1.37997,1.23048
		c-0.31775,0.16504-0.66007,0.19747-1.00261,0.19788C22.60424,12.1112,18.33692,12.10944,14.06959,12.10944z"/>
	<path fill="#2E3D25" d="M27.84528,1.11155c0.24276,0.16129,0.4981,0.30112,0.71827,0.49889
		c0.26452,0.23761,0.49381,0.50415,0.70574,0.78412c0.37623,0.49702,0.69574,1.03076,0.96552,1.59208
		c0.1687,0.35101,0.32145,0.70935,0.45431,1.07564c0.01993,0.05495,0.03691,0.10989,0.03015,0.16928
		c-0.02907,0.11765-0.05483,0.23624-0.08673,0.35303c-0.12134,0.44428-0.55672,0.78782-0.98387,0.78072
		c-0.5517-0.10404-1.00816-0.3673-1.39716-0.77171c-0.46769-0.48621-1.0054-0.88778-1.65746-1.09682
		c-0.8311-0.26644-1.67834-0.47112-2.54711-0.58368c-0.82211-0.10651-1.64704-0.05207-2.47065-0.05834
		c-0.4226-0.00322-0.73761-0.1494-0.94081-0.52804c-0.11056-0.20602-0.3005-0.32554-0.52925-0.37591
		c-0.12438-0.02739-0.2512-0.0492-0.37919-0.04942c-1.18126-0.002-2.36252-0.00231-3.54382,0.00054
		c-0.13943,0.00209-0.27876-0.00266-0.41811-0.0024c-0.03675,0.00295-0.07348,0.00201-0.11014-0.00027
		c-0.01802,0.00032-0.0361,0.00014-0.05412,0.00016c-0.12384,0.00166-0.24774,0.00179-0.3715-0.00056
		c-0.03224-0.00181-0.06458-0.0043-0.09604-0.01193c-0.04184-0.01174-0.08377-0.0249-0.12676-0.00297
		c-0.03621,0.01417-0.07255,0.0273-0.11241,0.02587c-0.05907-0.00934-0.11856-0.01054-0.17834-0.01084
		c-0.74998,0.00934-1.49986-0.00514-2.24941,0.00756c-0.37969,0.00643-0.68516-0.11404-0.91437-0.41749
		c-0.03496-0.04629-0.07578-0.08838-0.11213-0.13388c-0.16927-0.21184-0.38091-0.31194-0.66238-0.31091
		c-1.83981,0.00672-3.67965,0.00404-5.51949,0.0031C4.79885,2.04712,4.49979,1.83497,4.3402,1.40275
		C4.32993,1.33792,4.30364,1.27592,4.30293,1.20912C4.29848,1.17104,4.30078,1.1329,4.30113,1.09465
		c0.00394-0.05887-0.00577-0.12333,0.06401-0.1554c0.85659-0.00272,1.7131-0.00104,2.5696-0.00106
		c6.76698-0.00018,13.53396-0.00012,20.3008-0.00011c0.08724,0.01195,0.17375,0.02872,0.25995,0.04715l-0.0013-0.00075
		c0.0629,0.02553,0.13273,0.03054,0.19289,0.0642l-0.00102-0.00071C27.73581,1.07736,27.79414,1.08559,27.84528,1.11155z"/>
	<path fill="#455C3D" d="M0.98994,9.82916C0.9816,9.79562,0.97326,9.76208,0.96493,9.72854
		c0.02023-0.0456,0.01128-0.09381,0.01129-0.1408c0.00047-2.08053,0.00047-4.16106-0.00005-6.24159
		C0.97616,3.29931,0.9862,3.2509,0.9633,3.20586c-0.00084-0.01048-0.0016-0.02097-0.00227-0.03147
		c0.0531-0.19432,0.14379-0.36998,0.28134-0.51755c0.09618-0.10318,0.19932-0.20354,0.35837-0.20125
		c0.11137,0.0352,0.19839,0.10506,0.27544,0.18973c0.11554,0.13513,0.12337,0.29752,0.1233,0.46352
		C1.99885,4.6348,1.99906,6.16078,1.99911,7.68675c0.00001,0.21649-0.00162,0.43299,0.00041,0.64946
		C2.00487,8.90827,2.39907,9.29979,2.9766,9.30277c0.5692,0.00294,1.13843-0.00052,1.70764,0.00112
		c0.4153,0.0012,0.65036,0.1815,0.76334,0.58078c0.13286,0.46954,0.46065,0.71732,0.96074,0.71764
		c2.11726,0.00135,4.23453,0.00049,6.35179,0.00064c0.07978,0.00001,0.15973-0.00296,0.23928,0.0042
		c0.32825,0.02954,0.59394,0.2965,0.61897,0.62304c0.00645,0.08419,0.00591,0.16881,0.00053,0.25309
		c-0.00101,0.05453,0.00174,0.10927-0.00237,0.16378c-0.00057,0.03437,0.00082,0.06888-0.00127,0.10324
		c0.00021,0.025-0.00016,0.05006-0.0006,0.07509c0.00006,0.04138,0.00002,0.0828-0.00657,0.12391
		c-0.00518,0.02526-0.01887,0.04581-0.03637,0.06422c-3.51406,0.00028-7.02813,0.00052-10.54219,0.00116
		c-0.06414,0.00001-0.12769,0.00135-0.18584-0.03138c-0.13774-0.0026-0.22047-0.09809-0.29896-0.18797
		c-0.15805-0.18098-0.24034-0.39541-0.25294-0.63582c-0.01337-0.255-0.05329-0.29297-0.31683-0.30892
		C1.53916,10.82422,1.054,10.40575,0.98681,9.99936C0.97732,9.942,0.96588,9.8855,0.98994,9.82916z"/>
	<path fill="#2F3D27" d="M13.57171,12.01352c0.0007-0.02074,0.00141-0.04148,0.00211-0.06222
		c0.07245-0.06171,0.16076-0.04655,0.24439-0.04663c1.01591-0.00102,2.03182-0.00064,3.04773-0.00064
		c3.08496-0.00001,6.16993,0,9.25489-0.00003c0.06914,0,0.13832,0.00131,0.20742-0.00152
		c0.20743-0.00849,0.37585-0.08941,0.46232-0.28311c0.15732-0.3524,0.43544-0.54217,0.80088-0.64091
		c0.46435-0.12547,0.78669-0.45411,1.08047-0.80519c0.64988-0.77663,1.0961-1.66794,1.45279-2.60695
		c0.04873-0.12828,0.08826-0.26009,0.15219-0.38227c0.05352-0.05661,0.10056-0.01557,0.13433,0.01936
		c0.16872,0.17444,0.28451,0.37152,0.24492,0.62712c-0.04602,0.27329-0.17383,0.51867-0.28072,0.76905
		c-0.25085,0.58761-0.5555,1.14793-0.91677,1.67741c-0.21125,0.30962-0.43984,0.6085-0.70291,0.87237
		c-0.38911,0.3903-0.81522,0.74001-1.38528,0.84701c-0.05164,0.00969-0.10466,0.01726-0.15704,0.01726
		C22.66621,12.01414,18.11896,12.0138,13.57171,12.01352z"/>
	<path fill="#202020" d="M1.59844,2.47364c-0.29804,0.0835-0.43514,0.32129-0.55726,0.5732
		C1.01912,3.09235,1.01858,3.1509,0.96103,3.17436C0.96075,2.92364,0.96083,2.6729,0.95989,2.42216
		c-0.00022-0.05782-0.0019-0.11523,0.03267-0.16599C0.99402,2.23272,1.00337,2.21258,1.0184,2.19476
		c0.12498-0.10685,0.25762-0.20132,0.41805-0.24997c0.04147-0.01191,0.08423-0.01887,0.12558-0.03147
		c0.0472-0.01343,0.09756-0.01138,0.14376-0.0297c0.01257-0.00642,0.02525-0.01237,0.0377-0.01888
		C1.81383,1.81701,1.80556,1.73684,1.8265,1.66873c0.04451-0.14481,0.08338-0.29174,0.15891-0.42518
		c0.03311-0.04751,0.06524-0.09579,0.10263-0.14029c0.01987-0.0211,0.0433-0.03796,0.06653-0.05503
		C2.19284,1.01671,2.22627,0.97935,2.2693,0.95351c0.04153-0.04843,0.09827-0.03087,0.14913-0.03104
		C2.76326,0.92131,3.1081,0.92218,3.45294,0.92239c0.01073,0.01336,0.01526,0.02855,0.01368,0.04555
		c-0.03231,0.08867-0.10928,0.11004-0.19041,0.1173C3.20147,1.09193,3.12915,1.10436,3.05999,1.13286
		C2.99062,1.15943,2.92219,1.18802,2.86176,1.23239C2.79068,1.28726,2.71375,1.33508,2.6552,1.40492
		C2.43111,1.5747,2.34997,1.8074,2.34155,2.07824c-0.00753,0.2422-0.10014,0.32568-0.35609,0.34418
		C1.85197,2.40595,1.73134,2.48595,1.59844,2.47364z"/>
	<path fill="#202020" d="M30.65616,7.83053c-0.04389-0.26-0.1162-0.50522-0.35124-0.66588
		c-0.04499-0.00592-0.07141-0.04037-0.10366-0.06586c-0.02098-0.01693-0.04395-0.03109-0.06669-0.0456
		c-0.02833-0.01942-0.05631-0.03933-0.08756-0.05431c-0.05394-0.02794-0.11095-0.0472-0.16981-0.06228
		c-0.13714-0.04257-0.27551-0.07225-0.42005-0.08019c-0.14822-0.00815-0.23866-0.10592-0.24154-0.24095
		c-0.00296-0.1387,0.11045-0.27369,0.24779-0.27998c0.06628-0.00303,0.13504-0.01568,0.20156,0.00522
		c0.53609-0.10865,0.88182-0.36202,0.96139-0.91872c0.00996-0.06971,0.01542-0.14953,0.09291-0.1904
		c0.09764,0.2346,0.20182,0.4675,0.19233,0.72991c0.03704,0.13669-0.05513,0.22616-0.12761,0.31635
		c-0.08535,0.1062-0.18832,0.19746-0.30619,0.2698c-0.08266,0.05073-0.07986,0.0976,0.00156,0.15066
		c0.12347,0.08046,0.24472,0.16483,0.32466,0.2934c0.02696,0.04337,0.06911,0.08213,0.04374,0.14146
		C30.85211,7.38407,30.75158,7.60661,30.65616,7.83053z"/>
	<path fill="#202020" d="M0.98994,9.82916c-0.00512,0.23914,0.13537,0.41482,0.26732,0.59193
		c0.19835,0.26625,0.4596,0.4052,0.80208,0.39136c0.17775-0.00718,0.27206,0.08604,0.27204,0.25671
		c-0.00003,0.40112,0.15983,0.70973,0.5123,0.91414C2.5996,12.03663,2.3556,12.0322,2.11164,11.98248
		c-0.11334-0.03976-0.14612-0.1447-0.19095-0.23777c-0.03196-0.06636-0.05492-0.13916-0.06002-0.21161
		c-0.0117-0.16641-0.10215-0.23496-0.26208-0.2562c-0.175-0.02325-0.33413-0.09794-0.47993-0.19771
		c-0.05226-0.03576-0.10624-0.07026-0.13164-0.13258c-0.00951-0.0161-0.00758-0.03069,0.00571-0.04381
		c-0.05045-0.07689-0.03522-0.16374-0.03115-0.24608C0.97521,10.38096,0.92389,10.103,0.98994,9.82916z"/>
	<path fill="#455C3D" d="M0.99602,10.93237c0.19727,0.17972,0.42976,0.28722,0.69422,0.32085
		c0.1249,0.01589,0.18381,0.07706,0.19644,0.19994c0.02035,0.1981,0.09681,0.37512,0.22495,0.52931
		c-0.03608,0.04479-0.08711,0.03136-0.13319,0.03137c-0.32924,0.0001-0.65848-0.00122-0.98772-0.00209
		C0.97034,11.65186,0.96115,11.292,0.99602,10.93237z"/>
	<path fill="#535F69" d="M3.45265,0.95171C3.45158,0.94192,3.45167,0.93215,3.45293,0.92238
		C11.34919,0.9222,19.24545,0.92201,27.1417,0.92195c0.04255,0,0.0851,0.00178,0.12765,0.00273
		c0.01186,0.00571,0.01593,0.01166,0.01227,0.01789c-0.00372,0.00633-0.00748,0.00952-0.01136,0.00952
		c-2.19245,0.00045-4.3849,0.00122-6.57735,0.0013C15.31821,0.95358,9.94351,0.95344,4.5688,0.95356
		c-0.07448,0-0.14896,0.00173-0.22343,0.00265C4.30746,0.98866,4.26181,1.00006,4.21351,1.0012
		C4.00282,1.00616,3.7921,1.00724,3.58145,1.00047C3.53402,0.99894,3.48636,0.99188,3.45265,0.95171z"/>
	<path fill="#2F3D26" d="M30.84776,7.13315c-0.08833-0.18779-0.23875-0.31803-0.41319-0.4199
		c-0.12263-0.07161-0.10223-0.11862,0.00239-0.18575c0.21651-0.13892,0.40456-0.30464,0.47463-0.56603
		c0.1101,0.06358,0.0732,0.18327,0.08642,0.27177c0.04415,0.29549-0.03885,0.58332-0.09881,0.87084
		C30.89655,7.11675,30.86555,7.12359,30.84776,7.13315z"/>
	<path fill="#535F69" d="M0.9633,3.20586C1.01276,3.25415,0.9911,3.31579,0.99113,3.37123
		c0.00116,2.06369,0.00115,4.12737,0.00004,6.19106C0.99114,9.618,1.01148,9.67924,0.96489,9.72858
		C0.96335,9.13752,0.96038,8.54649,0.96047,7.95546C0.96071,6.37226,0.96227,4.78906,0.9633,3.20586z"/>
	<path fill="#33442A" d="M1.56702,1.93652C1.53301,1.98144,1.48323,1.96337,1.43915,1.96806
		c-0.0758-0.28854-0.0906-0.57605,0.0376-0.85393c0.04296-0.09312,0.12473-0.155,0.23147-0.17469
		C1.87349,0.94508,2.03956,0.9207,2.20405,0.95304C2.2258,0.9532,2.24755,0.95335,2.2693,0.95351
		C2.24355,1.00026,2.23059,1.05668,2.17281,1.07921C2.08841,1.07624,2.00532,1.09254,1.92082,1.094
		C1.7234,1.09742,1.61943,1.20124,1.61192,1.39532C1.60724,1.516,1.61132,1.63689,1.61017,1.75767
		C1.60957,1.82041,1.61517,1.88495,1.56702,1.93652z"/>
	<path fill="#535F69" d="M2.20405,0.95304C2.03377,0.95407,1.86348,0.95509,1.6932,0.95612
		c-0.10512,0.04475-0.21582,0.04694-0.32797,0.047C1.01717,1.0033,1.04551,0.97272,1.04061,1.33078
		C1.03693,1.59923,1.05892,1.8682,1.02635,2.13629c-0.01225,0.02742-0.0236,0.0561-0.06272,0.05062
		C0.9625,1.80754,0.96143,1.42816,0.96018,1.04878C0.95997,0.98401,0.95341,0.92046,1.05257,0.9212
		c0.36629,0.00271,0.73261,0.00127,1.09892,0.00331C2.16906,0.92461,2.18653,0.94311,2.20405,0.95304z"/>
	<path fill="#535F69" d="M0.99602,10.93237c-0.00176,0.35981-0.00352,0.71962-0.0053,1.07942
		c-0.03847-0.02451-0.03013-0.06375-0.0302-0.09919C0.96,11.609,0.96009,11.30541,0.96042,11.00181
		c0.00004-0.03605-0.0048-0.07449,0.03231-0.09901C0.9935,10.91268,0.9946,10.92254,0.99602,10.93237z"/>
	<path fill="#414B4C" d="M27.27026,0.95208c0.00037-0.00917,0.00008-0.01832-0.0009-0.02743
		c0.07977,0.00399,0.1578,0.01444,0.22613,0.06056C27.41895,0.98406,27.34028,0.99703,27.27026,0.95208z"/>
	<path fill="#414B4C" d="M27.68709,1.04867c-0.07033-0.00352-0.13757-0.0162-0.19288-0.0642
		C27.56662,0.98183,27.63618,0.98763,27.68709,1.04867z"/>
	<path fill="#3C4642" d="M27.84528,1.11155c-0.06261,0.00235-0.11815-0.01275-0.15921-0.06359
		C27.74855,1.04592,27.80388,1.06157,27.84528,1.11155z"/>
	<path fill="#414D57" d="M0.96363,2.18691c0.01023-0.01038,0.02047-0.02075,0.0307-0.03113
		C1.04421,2.1594,1.04709,2.1844,1.02445,2.22101c-0.01063,0.0117-0.02127,0.02339-0.0319,0.03512
		C0.96406,2.24084,0.96024,2.21536,0.96363,2.18691z"/>
	<path fill="#435735" d="M29.66496,6.34069c-0.06675,0.01506-0.13223,0.03108-0.20224,0.03435
		c-0.12024,0.00561-0.22551,0.13246-0.20912,0.2504c0.01714,0.12335,0.07993,0.2017,0.22232,0.19205
		c0.15648-0.01061,0.30307,0.0342,0.44527,0.09475c0.02566,0.05279,0.00773,0.10398-0.00856,0.15379
		c-0.34094,1.04258-0.8089,2.02104-1.50839,2.87698c-0.29541,0.36148-0.64307,0.65279-1.12222,0.76579
		c-0.33144,0.07817-0.57399,0.30037-0.72949,0.59782c-0.09295,0.1778-0.21624,0.25033-0.4165,0.25019
		c-4.11682-0.00288-8.23363-0.00211-12.35045-0.0027c-0.07382-0.00001-0.15038,0.00727-0.21263-0.04678
		c-0.00526-0.1928,0.02571-0.38799-0.10043-0.56431c-0.13683-0.19127-0.31129-0.29196-0.54829-0.29188
		c-2.18646,0.00073-4.37292,0.00048-6.55938,0.00039c-0.48182-0.00002-0.85222-0.28715-0.96482-0.74727
		c-0.09313-0.38054-0.31069-0.55209-0.70033-0.5521C4.11982,9.35215,3.53995,9.35223,2.96009,9.35215
		C2.37484,9.35206,1.95008,8.93175,1.95005,8.35253c-0.00007-1.76889-0.00101-3.53779,0.0017-5.30668
		c0.00024-0.15459-0.03544-0.29078-0.12947-0.41263c0.0302-0.09809-0.00802-0.23878,0.15905-0.25164
		c0.24773-0.01014,0.31801-0.07945,0.3202-0.32228c0.0026-0.2885,0.09619-0.53074,0.34912-0.69473
		c0.0706-0.04258,0.1484-0.05074,0.22907-0.05067C3.30828,1.31424,3.73684,1.3134,4.1654,1.31462
		C4.23922,1.31483,4.3149,1.3116,4.37594,1.36563c0.10827,0.4179,0.52651,0.64031,0.88009,0.6384
		c1.85676-0.01005,3.71361-0.00123,5.57039-0.00822c0.29928-0.00113,0.50009,0.1352,0.67191,0.35258
		c0.13721,0.1736,0.27228,0.34941,0.49065,0.43598c0.10483,0.04156,0.20743,0.07239,0.3226,0.07205
		c0.81401-0.00238,1.62803-0.00096,2.44205-0.00074c-0.02569,0.10934-0.13282,0.11172-0.20831,0.1416
		c-0.38923,0.15407-0.76942,0.32965-1.16135,0.47707c-0.13839,0.05205-0.2767,0.1052-0.38969,0.20582
		c-0.26501,0.03114-0.53067,0.01332-0.79601,0.01242c-0.05321-0.00018-0.10659-0.00984-0.14128-0.05839
		c-0.04168-0.12273,0.02974-0.19877,0.115-0.26737c0.06146-0.04944,0.13887-0.07697,0.19296-0.13664
		c0.02611-0.04886,0.13626-0.0438,0.09185-0.1371c-0.0442-0.09286-0.2-0.1359-0.33307-0.09532
		c0.01585,0.0361,0.10792,0.01579,0.06927,0.09233c-0.03657,0.02559-0.08005,0.02288-0.12128,0.03021
		c-0.18974,0.03373-0.26679,0.19341-0.17563,0.36385c0.02641,0.04938,0.07778,0.08908,0.05869,0.15555
		c-0.03492,0.05999-0.09861,0.07687-0.1561,0.1022c-0.30496,0.13435-0.44861,0.36872-0.44752,0.69771
		c0.00167,0.50486-0.01694,1.01055,0.00697,1.5143c0.0142,0.29922-0.15412,0.44536-0.36558,0.58451
		c-0.04866-0.03578-0.04558-0.08848-0.04654-0.1397c-0.0128-0.0554,0.06585-0.13445-0.01925-0.16501
		c-0.1028-0.03692-0.19466,0.0089-0.26116,0.09652c-0.00681,0.00816-0.01412,0.01576-0.02197,0.0228
		c-0.24044,0.21587-0.20577,0.39196,0.1001,0.50536c0.1786,0.04177,0.19242,0.05563,0.19306,0.24697
		c0.00213,0.63336-0.0001,1.26674,0.00108,1.9001c0.00093,0.49721,0.22678,0.75887,0.72441,0.83886
		c0.07131,0.01146,0.13418,0.03119,0.17774,0.0913c0.05194,0.04999,0.09965,0.10542,0.17386,0.12684
		c0.16499,0.04762,0.27827-0.02817,0.31939-0.21527c0.06596-0.03063,0.13306-0.01265,0.20012-0.00581
		c0.45358,0.00399,0.90698-0.0059,1.36005,0.0067c0.28761,0.07842,0.55522,0.20976,0.83233,0.31627
		c0.30562,0.11747,0.301,0.12107,0.3059-0.20643c0.00177-0.11876-0.0318-0.24325,0.03783-0.35546
		c0.08971,0.01346,0.07334,0.08738,0.07764,0.1438c0.00816,0.10705-0.00045,0.2148,0.00501,0.32934
		c0.01396-0.07165-0.00435-0.14395,0.04914-0.19871c0.04184-0.02711,0.08936-0.02832,0.13665-0.03095
		c0.28715-0.01596,0.31484,0.01007,0.32344,0.29437c0.00146,0.04837-0.02128,0.10801,0.04547,0.13539
		c0.27008-0.09783,0.5343-0.20794,0.79905-0.31678C16.61352,9.9147,16.717,9.8576,16.83688,9.84829
		c0.40098-0.01158,0.80179-0.00509,1.20257-0.006c0.0948-0.00021,0.19112-0.00332,0.27266,0.05813
		c0.0527,0.02491,0.09511,0.06443,0.14085,0.09978c0.18083,0.13974,0.3695,0.07024,0.40951-0.15013
		c0.00743-0.04092,0.0058-0.0841,0.03588-0.11806c0.08858,0.00329,0.07002,0.07308,0.07638,0.1248
		c0.01557,0.12668,0.04304-0.05863,0.06034,0.0023c0.37673-0.03373,0.75535-0.03078,1.13039-0.00978
		c0.64017,0.03586,0.99345-0.32483,0.96554-0.9583c-0.02783-0.63161-0.00662-1.26535-0.00587-1.89816
		c0.00031-0.26347-0.08805-0.48424-0.30024-0.65075c-0.11652-0.09143-0.24555-0.14115-0.3958-0.1442
		c-0.32411-0.00658-0.64816,0.00555-0.97212-0.00057c-0.1083-0.00205-0.20277,0.068-0.31213,0.04794
		c-0.03624-0.01119-0.0624-0.03114-0.06257-0.07277c0.10825-0.06871,0.10365-0.15356,0.04973-0.2584
		c-0.0641-0.12465-0.10666-0.2597-0.17781-0.38169c-0.0316-0.05418-0.06342-0.11006-0.02588-0.17522
		c0.03816-0.0389,0.02884-0.08797,0.02867-0.13471C18.956,4.9645,18.94939,4.70624,18.9582,4.44855
		c0.01395-0.40785-0.33837-0.78326-0.7616-0.75829c-0.08904,0.00525-0.18062,0.0122-0.26807-0.01932
		c-0.26603-0.18896-0.585-0.26363-0.87684-0.39696c-0.24457-0.11173-0.49867-0.20257-0.74472-0.31159
		c-0.0487-0.02158-0.11925-0.02677-0.11522-0.10706c1.17594-0.00009,2.3519-0.00441,3.52779,0.00248
		c0.32136,0.00189,0.63547,0.05453,0.86683,0.31713c0.03893,0.04419,0.07444,0.08853,0.10028,0.14131
		c0.16301,0.33295,0.43582,0.48927,0.80431,0.4895c0.56402,0.00035,1.12805,0.00074,1.69207-0.0001
		c0.52602-0.00078,1.04254,0.08156,1.55839,0.17147c0.60059,0.10467,1.1871,0.26752,1.76958,0.44106
		c0.52456,0.15628,0.9791,0.44499,1.39816,0.79376c0.22879,0.19041,0.42574,0.4124,0.64831,0.60801
		c0.29368,0.2581,0.64715,0.39595,1.02248,0.48652C29.61046,6.31383,29.64452,6.3097,29.66496,6.34069z"/>
	<path fill="#4D5F43" d="M15.71243,10.33738c-0.07253,0.05555-0.0933,0.01311-0.09517-0.05248
		c-0.00271-0.09482-0.00438-0.18992-0.00012-0.28462c0.00373-0.08282-0.03133-0.11332-0.11272-0.11016
		c-0.10076,0.0039-0.2018,0.00067-0.30271,0.00051c-0.06533-0.07194-0.04004-0.16067-0.03992-0.24208
		c0.00017-0.1086-0.04099-0.17571-0.14455-0.21849c-0.43155-0.17827-0.86422-0.35384-1.296-0.53153
		c-0.07541-0.03103-0.1536-0.0638-0.20095,0.04213c-0.18376,0.11966-0.31913,0.29143-0.47832,0.43759
		c-0.06307,0.0579-0.0323,0.08378,0.02819,0.11002c0.23336,0.10121,0.46981,0.19492,0.70502,0.29163
		c0.05495,0.02259,0.14336,0.01678,0.14606,0.11202c-0.42314-0.00032-0.84629,0.00012-1.26942-0.0019
		c-0.05559-0.00027-0.11772,0.02086-0.16461-0.03065c-0.00641-0.02587-0.0162-0.05383-0.03762-0.0671
		c-0.12889-0.07983-0.24391-0.17293-0.30241-0.31824c-0.06828,0.03804-0.03156,0.10127-0.06881,0.13381
		c-0.16333,0.02558-0.21828,0.08739-0.22246,0.24467c-0.00119,0.0448,0.02413,0.09346-0.01535,0.13416
		c-0.06303-0.07446-0.14167-0.09256-0.24041-0.10047c-0.39702-0.03181-0.70792-0.37768-0.709-0.77625
		c-0.00175-0.64718-0.00482-1.29443,0.00272-1.94153c0.00179-0.1532-0.00248-0.27553-0.19497-0.28574
		c0.04101-0.06508,0.17056-0.00435,0.17484-0.12142c0.01257-0.05675,0.13553-0.01221,0.10231-0.11074
		c-0.00611-0.01289-0.01026-0.02609-0.01351-0.0398C10.95879,6.5808,10.96115,6.5528,10.98699,6.5321
		c0.0779-0.09271,0.15181-0.19091,0.25712-0.25447c0.07702-0.04648,0.061-0.11606,0.0611-0.18214
		c0.00087-0.55338,0.00046-1.10677,0.00051-1.66015c0.00004-0.38714,0.16132-0.6185,0.52824-0.75599
		c0.0398-0.01491,0.08069-0.02612,0.10937-0.06018c0.03876-0.02534,0.07944-0.04423,0.12776-0.03741
		c0.01114,0.07553,0.06958,0.06569,0.12157,0.06542c0.27978-0.00148,0.55956-0.00351,0.83933-0.00534
		c0.01607-0.00455,0.02829,0.00035,0.03668,0.01467C13.00226,3.72966,12.99744,3.79,13.08577,3.85799
		c0.08304,0.06392,0.15906,0.1405,0.22468,0.22217c0.09719,0.12097,0.20416,0.12347,0.33698,0.06719
		c0.40411-0.17126,0.8065-0.34681,1.21687-0.50314c0.08732-0.03326,0.15216-0.09242,0.2095-0.16266
		c0.01641-0.00307,0.03094,0.00072,0.04381,0.01122c0.00986,0.01277,0.01729,0.02676,0.02287,0.04165
		c0.06364,0.06109,0.32932,0.09695,0.39475,0.05343c0.04285-0.0285,0.0363-0.07266,0.03644-0.1136
		c0.00049-0.14681-0.00095-0.29363,0.00069-0.44044c0.0007-0.06238-0.00487-0.12726,0.04442-0.17811
		c0.01396,0.00185,0.02792,0.0037,0.04188,0.00554c0.06307,0.15813,0.03077,0.32353,0.0264,0.48414
		c-0.00439,0.16111,0.04909,0.2555,0.20358,0.31113c0.3996,0.1439,0.78548,0.32199,1.1787,0.48194
		c0.14305,0.05819,0.24986,0.05511,0.35096-0.06843c0.06331-0.07737,0.14038-0.14384,0.21292-0.21349
		c0.04773-0.04583,0.08218-0.09634,0.08195-0.16478c0.05757-0.05941,0.12985-0.05302,0.20268-0.04417
		c0.12182-0.00005,0.24374-0.00313,0.36545,0.00042c0.36639,0.01068,0.71016,0.34591,0.71821,0.70949
		c0.00709,0.32054,0.00148,0.64136,0.00167,0.96205c0.00003,0.048,0.00961,0.10962-0.06386,0.03933
		c-0.06499-0.02228-0.07438-0.085-0.09705-0.13607c-0.145-0.32654-0.2749-0.65938-0.41585-0.98762
		c-0.02732-0.06361-0.05478-0.14134-0.14195-0.05267c-0.14153,0.13609-0.27716,0.27789-0.41921,0.4131
		c-0.07552,0.07189-0.08996,0.14608-0.05063,0.24213c0.17423,0.4256,0.36102,0.84608,0.52813,1.27455
		c0.04405,0.11295,0.12029,0.17055,0.24472,0.1565c0.17685-0.01997,0.36198,0.04769,0.53154-0.04945
		c0.41961-0.12657,0.85163-0.03329,1.2754-0.07204c0.35254-0.03224,0.7759,0.32431,0.77866,0.75721
		c0.00473,0.74341,0.00463,1.48688-0.00001,2.23029c-0.00253,0.4041-0.35864,0.75189-0.76718,0.75523
		c-0.46743,0.00381-0.93492,0.00071-1.40239,0.00061c-0.02657-0.10303,0.04948-0.20868-0.02491-0.31543
		c-0.09079-0.13028-0.11998-0.13924-0.21967-0.01566c-0.10499,0.17387-0.2549,0.2995-0.43172,0.3962
		c-0.07478-0.05569-0.15871-0.06709-0.25113-0.06635c-0.42561,0.00341-0.85127,0.00135-1.27691,0.00125
		c0.0064-0.08325,0.08283-0.0855,0.1353-0.10629c0.23911-0.09475,0.47541-0.19588,0.71175-0.29706
		c0.04831-0.02068,0.09856-0.03746,0.13073-0.08282c0.096-0.07193,0.09028-0.14127,0.00158-0.21754
		c-0.06412-0.05514-0.12835-0.113-0.17971-0.17943c-0.11505-0.14878-0.24965-0.18492-0.41636-0.09317
		c-0.41068,0.16017-0.81798,0.32828-1.22464,0.49798c-0.06539,0.02729-0.12895,0.05201-0.14241,0.13246
		c-0.1004,0.07865-0.12988,0.18188-0.12239,0.30602C15.70073,10.01278,15.68129,10.17615,15.71243,10.33738z"/>
	<path fill="#FEFEFE" d="M15.07095,3.4891c-0.00327,0.07232-0.02558,0.12149-0.10471,0.15316
		c-0.47997,0.19211-0.95745,0.39036-1.43481,0.58884c-0.05259,0.02187-0.09443,0.03757-0.14317-0.0088
		c-0.16349-0.15555-0.3298-0.30818-0.50758-0.4736c0.08774-0.04626,0.1373-0.07239,0.18686-0.09851
		c0.06656-0.09328,0.17806-0.11136,0.27327-0.14831c0.45346-0.17599,0.89709-0.37541,1.35005-0.55242
		c0.07406-0.02894,0.14813-0.05314,0.22744-0.06038c0.03057-0.01205,0.06114-0.02409,0.09171-0.03614
		c0.05677-0.02879,0.08944,0.01358,0.09194,0.05144C15.11487,3.10003,15.16112,3.29861,15.07095,3.4891z"/>
	<path fill="#FEFEFE" d="M17.72375,3.67922c0.07487,0.03588,0.08272,0.07329,0.01783,0.13446
		c-0.13443,0.12673-0.26352,0.25917-0.39182,0.39211c-0.04704,0.04875-0.08815,0.05634-0.15335,0.02899
		c-0.47732-0.20017-0.95595-0.39734-1.43599-0.59098c-0.08338-0.03363-0.1066-0.08186-0.10403-0.16714
		c0.00618-0.20498,0.00216-0.41027,0.00226-0.61543c0.02626-0.00121,0.05252-0.00243,0.07879-0.00364
		c0.58544,0.1722,1.12821,0.45157,1.69589,0.66856C17.5336,3.5645,17.64798,3.58954,17.72375,3.67922z"/>
	<path fill="#2F452D" d="M17.72375,3.67922c-0.66874-0.25808-1.33214-0.52884-1.98631-0.82162
		c0.15143-0.00076,0.30286-0.00152,0.45431-0.00228c0.27494,0.15582,0.57722,0.24978,0.86539,0.3757
		c0.2554,0.1116,0.51439,0.21526,0.7734,0.31844c0.05,0.01992,0.08285,0.04298,0.08529,0.09811
		C17.86031,3.70907,17.78912,3.67676,17.72375,3.67922z"/>
	<path fill="#435735" d="M15.61677,2.8557c0.00036,0.23594-0.00541,0.47214,0.00451,0.70769
		c0.00335,0.07944-0.02372,0.08614-0.08563,0.08466c-0.10559-0.00253-0.21212-0.00884-0.31673,0.00155
		c-0.11198,0.01113-0.13674-0.03422-0.11262-0.13017c0.07443-0.13009,0.04097-0.27281,0.04902-0.41071
		c0.00504-0.0863-0.01797-0.1778,0.04639-0.25345C15.34006,2.85541,15.47842,2.85556,15.61677,2.8557z"/>
	<path fill="#405333" d="M4.37594,1.36563c-0.57508-0.00035-1.15017-0.0007-1.72527-0.00106
		C2.6944,1.28657,2.77695,1.25582,2.84495,1.20735c0.07888-0.03178,0.16073-0.04773,0.24602-0.04769
		c0.35838,0.00019,0.71675-0.00008,1.07513,0.00016c0.06373,0.00004,0.12734,0,0.17825,0.04734
		C4.35488,1.25999,4.36541,1.31281,4.37594,1.36563z"/>
	<path fill="#FBFBFB" d="M15.65298,2.03102c-0.00423,0.04654-0.00846,0.09307-0.0143,0.15733
		c-0.16727-0.08232-0.33148-0.12181-0.49922-0.02385c-0.04556,0.0266-0.06049,0.00221-0.06527-0.04668
		c-0.01683-0.17227,0.0299-0.31062,0.19429-0.39328c0.10259-0.08611,0.20112-0.04774,0.28629,0.02213
		C15.64174,1.818,15.72087,1.90229,15.65298,2.03102z"/>
	<path fill="#394E34" d="M14.9183,2.88908c-0.61152,0.26663-1.22778,0.52192-1.85075,0.76111
		c-0.01186-0.00275-0.02372-0.0055-0.03557-0.0083c0.01948-0.11354,0.12453-0.11875,0.20278-0.15081
		c0.50788-0.2081,1.02044-0.40505,1.51886-0.6354C14.8117,2.85136,14.86767,2.85723,14.9183,2.88908z"/>
	<path fill="#34472B" d="M3.45265,0.95171C3.75022,0.9532,4.04779,0.95468,4.34536,0.95619
		c-0.00022,0.05196-0.00045,0.1039-0.00068,0.15584C4.29813,1.1547,4.24056,1.15894,4.18138,1.15899
		C3.85327,1.15931,3.52516,1.15958,3.19704,1.15874C3.1387,1.15859,3.07954,1.15914,3.03494,1.11153
		c0.06404-0.05092,0.13924-0.06343,0.21842-0.06321C3.33555,1.04855,3.40753,1.0272,3.45265,0.95171z"/>
	<path fill="#3B4E30" d="M3.03494,1.11153C3.47152,1.1117,3.90811,1.11186,4.34469,1.11202
		C4.34458,1.14374,4.34447,1.17545,4.34436,1.20717C3.84455,1.20723,3.34474,1.20729,2.84495,1.20735
		C2.89748,1.1543,2.96267,1.12601,3.03494,1.11153z"/>
	<path fill="#293E29" d="M15.65298,2.03102c-0.0351-0.24103-0.14068-0.32519-0.3845-0.30649
		c0.08659-0.121,0.19226-0.17082,0.337-0.09593c0.13918,0.07201,0.20111,0.19834,0.17073,0.33811
		C15.7591,2.04538,15.70254,2.02615,15.65298,2.03102z"/>
	<path fill="#2E442C" d="M15.20171,2.85527c-0.00018,0.1616-0.00297,0.32325,0.00058,0.48476
		c0.00177,0.08066-0.01866,0.14345-0.09599,0.17942c-0.00042-0.01012-0.00084-0.02024-0.00125-0.03035
		c-0.02394-0.21145-0.02503-0.42287,0.00066-0.63427C15.13771,2.85497,15.16971,2.85512,15.20171,2.85527z"/>
	<path fill="#435735" d="M15.10571,2.85483c-0.00022,0.21142-0.00044,0.42285-0.00066,0.63427
		c-0.01137,0-0.02274,0.00001-0.0341,0.00001c-0.00274-0.17033-0.00403-0.3407-0.00918-0.51096
		c-0.00139-0.046,0.0269-0.10882-0.05176-0.12521C15.0428,2.80877,15.07458,2.81563,15.10571,2.85483z"/>
	<path fill="#405333" d="M13.57294,11.50735c4.18602-0.00001,8.37205-0.00113,12.55807,0.00354
		c0.19018,0.00021,0.29548-0.0558,0.3826-0.22996c0.16252-0.32494,0.43249-0.55202,0.79354-0.63048
		c0.45625-0.09915,0.76884-0.39563,1.05338-0.72382c0.38202-0.44063,0.67492-0.94386,0.93432-1.46248
		c0.23572-0.47127,0.43835-0.95839,0.59249-1.46354c0.00918-0.0301,0.02249-0.05895,0.03387-0.08838
		c0.06103,0.00284,0.10734,0.04096,0.15932,0.0655c0.01609,0.19534-0.06861,0.36811-0.13581,0.54108
		c-0.17371,0.4471-0.37188,0.88396-0.59785,1.30798c-0.28947,0.54316-0.63401,1.04873-1.05999,1.49536
		c-0.25729,0.26977-0.57913,0.44283-0.93796,0.54305c-0.29488,0.08235-0.50788,0.26559-0.64663,0.52544
		c-0.12513,0.23434-0.30475,0.32448-0.56749,0.32424c-4.10573-0.00373-8.21147-0.00254-12.3172-0.00316
		c-0.0837-0.00001-0.17188,0.0155-0.24457-0.04587C13.57297,11.61302,13.57296,11.56018,13.57294,11.50735z"/>
	<path fill="#33442A" d="M30.20871,7.07045c0.04332,0.02008,0.07507,0.05181,0.09621,0.09421
		c-0.06851,0.29867-0.18806,0.58054-0.30933,0.8594c-0.26736,0.61479-0.56895,1.21309-0.96294,1.76012
		c-0.30301,0.42071-0.62756,0.82045-1.08149,1.09651c-0.18419,0.11201-0.39353,0.15351-0.59042,0.22877
		c-0.21608,0.08259-0.37986,0.22059-0.46552,0.42417c-0.13435,0.31931-0.36444,0.42201-0.70144,0.42151
		c-4.20666-0.00618-8.41332-0.00393-12.61997-0.00385c-0.00011-0.0423-0.00023-0.0846-0.00035-0.1269
		c0.08356-0.06819,0.18339-0.04291,0.27661-0.04294c4.052-0.00123,8.104-0.00105,12.156-0.00106
		c0.05317,0,0.10722-0.00618,0.15938,0.00102C26.4611,11.82221,26.63431,11.69,26.76705,11.43
		c0.12071-0.23642,0.31578-0.42213,0.59331-0.49094c0.57055-0.14146,0.98037-0.50477,1.32557-0.95364
		c0.25451-0.33094,0.49661-0.67224,0.68476-1.04454c0.27324-0.54065,0.5507-1.08048,0.73696-1.65982
		C30.13137,7.2073,30.14143,7.12464,30.20871,7.07045z"/>
	<path fill="#3B4E30" d="M13.57299,11.66585c4.19194-0.00002,8.38389-0.00114,12.57582,0.00276
		c0.23958,0.00022,0.39469-0.0781,0.50978-0.29488c0.14438-0.27196,0.3646-0.47035,0.68083-0.55198
		c0.5141-0.13271,0.88809-0.46104,1.2109-0.86588c0.38318-0.48054,0.68773-1.00554,0.95808-1.55414
		c0.22715-0.46094,0.41309-0.93683,0.57211-1.42402c0.03105,0.0097,0.05192,0.03042,0.06524,0.05932
		c0.04221,0.05753,0.00884,0.11302-0.00914,0.16567c-0.34476,1.00954-0.80198,1.96227-1.46343,2.80857
		c-0.21857,0.27965-0.46219,0.5368-0.77624,0.71765c-0.17173,0.0989-0.35907,0.1573-0.54593,0.21669
		c-0.26834,0.08527-0.46284,0.26035-0.58627,0.50276c-0.12374,0.24304-0.29362,0.34941-0.57882,0.34892
		c-4.1269-0.00712-8.25381-0.00475-12.38072-0.00586c-0.07768-0.00002-0.16043,0.02208-0.23198-0.03042
		C13.57314,11.72929,13.57307,11.69757,13.57299,11.66585z"/>
	<path fill="#36492C" d="M13.57322,11.76101c4.197-0.00005,8.394-0.00228,12.59099,0.00478
		c0.27746,0.00047,0.45284-0.09915,0.57084-0.3351c0.13772-0.2754,0.36307-0.45741,0.65718-0.53532
		c0.52465-0.13897,0.90744-0.46639,1.23016-0.87653c0.70393-0.89462,1.18683-1.90164,1.52335-2.98179
		c0.02592,0.00198,0.04955,0.00821,0.06297,0.0334c-0.07241,0.35244-0.23914,0.67115-0.36322,1.00517
		c-0.10291,0.27705-0.26624,0.52383-0.38984,0.79097c-0.15405,0.33298-0.35757,0.64233-0.58039,0.9363
		c-0.1559,0.20569-0.3152,0.40757-0.4962,0.59456c-0.29148,0.30112-0.64437,0.48596-1.04152,0.59559
		c-0.25466,0.07029-0.42604,0.24698-0.53515,0.45905c-0.13333,0.25914-0.29434,0.3788-0.60291,0.37815
		c-4.20866-0.00885-8.41735-0.00589-12.62603-0.00584C13.57338,11.80327,13.5733,11.78214,13.57322,11.76101z"/>
	<path fill="#202020" d="M3.33902,10.46129c-0.23877,0-0.43303-0.19462-0.43088-0.43165
		c0.00215-0.23693,0.20001-0.42796,0.43883-0.4237C3.57901,9.61007,3.76779,9.7992,3.7699,10.02965
		C3.77207,10.26664,3.57776,10.46129,3.33902,10.46129z"/>
	<path fill="#3F5133" d="M1.98133,2.38158C1.92416,2.4157,1.86922,2.4483,1.88464,2.5319
		C1.8931,2.57772,1.88776,2.62672,1.82228,2.63322C1.74767,2.58003,1.67306,2.52684,1.59845,2.47365
		C1.71674,2.40471,1.84539,2.37819,1.98133,2.38158z"/>
	<path fill="#2F3D27" d="M1.02445,2.22101C1.02337,2.19519,1.01889,2.17092,0.99431,2.1558
		C0.99359,1.802,0.99673,1.44813,0.98983,1.09446C0.98766,0.98313,1.02312,0.94628,1.13477,0.95138
		C1.3206,0.95987,1.50705,0.9552,1.69321,0.9561c-0.18948,0.12409-0.26879,0.298-0.25591,0.52283
		c0.00931,0.16255,0.00184,0.32605,0.00185,0.48913C1.29096,2.03629,1.15925,2.13114,1.02445,2.22101z"/>
	<path fill="#3F5233" d="M2.01551,1.24039c-0.0653,0.18617-0.14685,0.3671-0.17675,0.56455
		C1.82985,1.86377,1.80569,1.91751,1.72688,1.90493C1.64094,1.71748,1.65904,1.52111,1.71169,1.33569
		C1.75758,1.17405,1.91906,1.1362,2.01551,1.24039z"/>
	<path fill="#3B4E2F" d="M2.01551,1.24039C1.86367,1.18307,1.73317,1.26624,1.72772,1.43071
		C1.72249,1.58862,1.72677,1.74683,1.72688,1.90492c0,0.00001,0.0003,0.00014,0.0003,0.00014
		C1.64647,1.93939,1.6034,1.90972,1.6011,1.82593C1.59692,1.67337,1.58742,1.51971,1.60385,1.36833
		c0.0252-0.23222,0.25434-0.34341,0.50795-0.25597C2.08405,1.15826,2.0694,1.21386,2.01551,1.24039z"/>
	<path fill="#36492C" d="M2.1118,1.11236C1.94766,1.111,1.77318,1.09009,1.68011,1.27036
		C1.58263,1.45918,1.64178,1.66326,1.63765,1.86066c-0.00097,0.04617,0.0535,0.04055,0.08952,0.0444
		C1.68181,1.95579,1.62098,1.92893,1.56702,1.93652c-0.00005-0.17237-0.00082-0.34475,0-0.51712
		C1.56822,1.16713,1.68838,1.04721,1.9456,1.05023c0.07562,0.00089,0.1582-0.03015,0.22722,0.02899
		C2.15247,1.09026,2.13214,1.10131,2.1118,1.11236z"/>
	<path fill="#FEFEFE" d="M13.92123,9.89192c-0.33388-0.14257-0.66777-0.28513-1.03623-0.44246
		c0.1832-0.1738,0.35159-0.33282,0.51894-0.49292c0.03241-0.03101,0.06926-0.01752,0.10526-0.01771
		c0.18886,0.00063,0.34118,0.1096,0.50636,0.17577c0.28554,0.11439,0.56987,0.23218,0.85427,0.34958
		c0.07541,0.03113,0.16583,0.05021,0.19913,0.14284c-0.00206,0.18439-0.0061,0.36879-0.00566,0.55318
		c0.00047,0.19533,0.00303,0.19364-0.18539,0.11691C14.55954,10.14747,14.24018,10.02019,13.92123,9.89192z"/>
	<path fill="#FEFEFE" d="M15.71243,10.33738c-0.05448-0.06425-0.08743-0.69802-0.03202-0.747
		c0.03781-0.03342,0.09106-0.04963,0.1374-0.07353c0.02497-0.06208,0.08554-0.07279,0.13851-0.09391
		c0.3819-0.15221,0.7615-0.30997,1.1405-0.46909c0.11706-0.04915,0.2236-0.06348,0.3141,0.04667
		c0.12017,0.14396,0.28322,0.24911,0.38179,0.4129c0.03212,0.08836-0.05246,0.07858-0.09005,0.09489
		c-0.30056,0.13038-0.6034,0.25557-0.90555,0.38234C16.43556,10.03957,16.074,10.18847,15.71243,10.33738z"/>
	<path fill="#FEFEFE" d="M19.11698,6.21935c0.01357,0.05574,0.0051,0.08833-0.06629,0.08706
		c-0.1963-0.00348-0.39273-0.00309-0.58904-0.00008c-0.06441,0.00099-0.09408-0.02829-0.11683-0.08342
		c-0.20073-0.48637-0.40298-0.97213-0.60606-1.45754c-0.01727-0.04128-0.03417-0.08016,0.00497-0.11522
		c0.17639-0.158,0.31774-0.35269,0.5171-0.48659c0.11502,0.11106,0.14908,0.26609,0.20488,0.40437
		c0.19537,0.48416,0.41818,0.95723,0.59576,1.4485c0.01598,0.04422,0.04217,0.08601,0.03132,0.13626
		C19.08875,6.17924,19.09177,6.20326,19.11698,6.21935z"/>
	<path fill="#202020" d="M3.9296,3.06239C3.92885,3.29952,3.73228,3.49162,3.49332,3.48874
		C3.25445,3.48587,3.06271,3.28896,3.06781,3.05176C3.07276,2.8217,3.26409,2.63474,3.496,2.63334
		C3.73527,2.63189,3.93035,2.82493,3.9296,3.06239z"/>
	<path fill="#202020" d="M28.06927,6.67193c0.0012,0.23761-0.19337,0.43088-0.43274,0.42987
		c-0.23834-0.001-0.43223-0.1969-0.42907-0.43351c0.00309-0.231,0.19211-0.41872,0.42482-0.4219
		C27.87101,6.24313,28.06808,6.43504,28.06927,6.67193z"/>
	<path fill="#314731" d="M19.09277,6.15269c-0.22672-0.53632-0.45391-1.07246-0.67982-1.60912
		c-0.05293-0.12575-0.10153-0.25329-0.15213-0.38001c0.10654-0.13248,0.11604-0.13238,0.17643,0.01026
		c0.16714,0.39482,0.33342,0.79,0.50004,1.18504c0.06102,0.22233,0.18758,0.41688,0.27209,0.62966
		C19.26258,6.12247,19.23655,6.17109,19.09277,6.15269z"/>
	<path fill="#314731" d="M15.06896,9.60702c-0.37795-0.19264-0.78137-0.32639-1.16843-0.49798
		C13.7705,9.0514,13.63967,8.99552,13.5092,8.93883c-0.01886-0.12259,0.03066-0.1579,0.16236-0.10624
		c0.23638,0.09271,0.47131,0.18914,0.70589,0.28628c0.22487,0.09312,0.44564,0.19691,0.67394,0.28062
		c0.11573,0.04243,0.15971,0.10511,0.15104,0.22227c-0.0066,0.08917-0.00093,0.17922-0.00072,0.26888
		c-0.00016,0.06851,0.0014,0.13709-0.00116,0.20552c-0.00146,0.03901,0.01473,0.09847-0.04548,0.10037
		c-0.06181,0.00196-0.04836-0.05784-0.04889-0.09671c-0.00188-0.13701-0.00089-0.27406-0.00096-0.41109
		C15.1052,9.65621,15.10121,9.62545,15.06896,9.60702z"/>
	<path fill="#FBFBFB" d="M10.88353,6.75601c0.06681,0.22658-0.13152,0.07236-0.18466,0.12667
		c-0.13342-0.03482-0.22709-0.11338-0.24906-0.25166c-0.02403-0.15127,0.07442-0.23938,0.18692-0.31535
		c0.01743-0.02175,0.04272-0.02954,0.06781-0.03772c0.0697-0.01429,0.13874-0.01735,0.20581,0.01209
		c0.05073,0.03976,0.03015,0.08666,0.01366,0.13315c-0.0309,0.06213-0.06946,0.12243-0.05197,0.19724
		c0.00377,0.01271,0.00666,0.02566,0.00954,0.03858C10.88893,6.69115,10.89306,6.72348,10.88353,6.75601z"/>
	<path fill="#FBFBFB" d="M15.64217,11.28404c-0.07111,0.10078-0.14893,0.19245-0.28862,0.18893
		c-0.19494-0.00491-0.35984-0.25969-0.27628-0.42843c0.03432-0.0693,0.08188,0.00667,0.12242-0.00569
		c0.15218,0.03387,0.29387-0.02509,0.43975-0.04898c0.01541,0.00707,0.02643,0.01825,0.03352,0.03351
		c0.02129,0.06504,0.02058,0.13071,0.00642,0.19682C15.67093,11.24374,15.66452,11.26849,15.64217,11.28404z"/>
	<path fill="#FCFCFC" d="M18.32516,9.95575c-0.00017-0.01562-0.00568-0.04243,0.00028-0.04524
		c0.1708-0.08055,0.30792-0.19303,0.37711-0.37457c0.00181-0.00475,0.02966,0.00027,0.04537,0.00073
		c0.07729,0.04605,0.15819,0.08921,0.1592,0.19623c0.01371,0.28653-0.14022,0.44434-0.36791,0.37841
		C18.4483,10.08499,18.40299,9.99874,18.32516,9.95575z"/>
	<path fill="#FCFCFC" d="M18.90255,3.2362c0.03129,0.15192-0.00877,0.27662-0.12993,0.38045
		c-0.05797,0.04967-0.08819,0.05009-0.11025-0.02245c-0.04325-0.14224-0.13648-0.23314-0.27909-0.27634
		c-0.07485-0.02267-0.07068-0.05323-0.02151-0.10953c0.10455-0.11968,0.22999-0.16095,0.38335-0.12988
		C18.842,3.08738,18.89558,3.13887,18.90255,3.2362z"/>
	<path fill="#FCFCFC" d="M12.0711,3.58176c-0.028,0.06155-0.06281,0.10016-0.12776,0.03741
		c-0.03838-0.06742-0.10971-0.11072-0.12877-0.19399c-0.05122-0.22371,0.10235-0.36536,0.38496-0.34993
		c0.10782,0.00092,0.15124,0.08128,0.19771,0.15788c0.02099,0.08971-0.0612,0.08117-0.10496,0.1027
		C12.18407,3.38909,12.07897,3.44118,12.0711,3.58176z"/>
	<path fill="#FCFCFC" d="M11.84053,9.98667c-0.0684-0.15817-0.02584-0.28422,0.0968-0.40261
		c0.0712-0.06873,0.09893-0.04005,0.13432,0.02244c0.07535,0.0943,0.16056,0.17875,0.25612,0.25288
		c0.06633,0.035,0.09195,0.06387,0.02149,0.13327C12.17179,10.16747,12.02214,10.17046,11.84053,9.98667z"/>
	<path fill="#334934" d="M12.32777,9.85938c-0.14009-0.02969-0.224-0.11545-0.25612-0.25288
		c-0.00622-0.03539-0.01106-0.07109-0.01904-0.10608c-0.00853-0.03742,0.00884-0.06061,0.03989-0.07473
		c0.0323-0.01469,0.07104-0.00834,0.08329,0.02113c0.061,0.14673,0.1629,0.24708,0.31054,0.30958
		c0.04216,0.01785,0.04447,0.06787,0.00086,0.10296C12.43405,9.89513,12.38091,9.84669,12.32777,9.85938z"/>
	<path fill="#31482F" d="M18.90255,3.2362c-0.05247-0.05258-0.10495-0.10517-0.15742-0.15775
		c-0.0409-0.05925-0.10983-0.0185-0.16964-0.04841c0.04781-0.09206,0.13323-0.11382,0.2179-0.09866
		c0.12686,0.02271,0.20994,0.10269,0.25323,0.2297c0.03724,0.10927-0.00731,0.17723-0.08159,0.24789
		C18.91134,3.35559,18.9697,3.27413,18.90255,3.2362z"/>
	<path fill="#374C36" d="M18.90711,9.73289c-0.05307-0.06541-0.10613-0.13082-0.1592-0.19623
		c0.03535-0.04309,0.01614-0.13116,0.08325-0.13865c0.07479-0.00835,0.11077,0.06895,0.15271,0.11841
		c0.1002,0.11815,0.08858,0.24586,0.01757,0.37422c-0.01943,0.03004-0.04254,0.07396-0.06208,0.0034
		C18.92485,9.84162,18.95818,9.77908,18.90711,9.73289z"/>
	<path fill="#334930" d="M12.39724,3.23314c-0.0659-0.05263-0.1318-0.10525-0.1977-0.15788
		c-0.04331-0.05572-0.1124-0.01412-0.17144-0.04628c0.05009-0.09259,0.14152-0.11569,0.22497-0.10292
		c0.11786,0.01803,0.231,0.08471,0.27651,0.19354C12.5709,3.21844,12.43853,3.189,12.39724,3.23314z"/>
	<path fill="#2D442C" d="M10.88636,6.42567c0.01082-0.03501,0.02164-0.07002,0.03245-0.10503
		c-0.07039-0.04923-0.14513-0.02778-0.21944-0.01333c-0.02088,0.00278-0.04176,0.00557-0.06264,0.00835
		c0.02885-0.07793,0.09479-0.11228,0.16829-0.12884c0.18665-0.04204,0.22933,0.00356,0.18129,0.18616
		c-0.02655,0.08453-0.02676,0.16905,0.00015,0.25355l0-0.00001c0.02281,0.03969,0.03432,0.07976-0.01825,0.10383
		c-0.06966,0.0319-0.0849-0.03423-0.11702-0.06903l0.00208,0.00269C10.81952,6.57844,10.87024,6.50442,10.88636,6.42567z"/>
	<path fill="#394E36" d="M15.64046,11.00573c-0.14427,0.0459-0.28442,0.14567-0.44077,0.03312
		c-0.02913-0.15288-0.00169-0.18128,0.14064-0.13338c0.08054,0.02711,0.16111,0.03467,0.24433,0.03149
		C15.60609,10.95762,15.67457,10.94067,15.64046,11.00573z"/>
	<path fill="#2D442C" d="M15.64046,11.00573c-0.0186-0.02292-0.0372-0.04584-0.0558-0.06876
		c0.17744-0.05873,0.21988-0.02309,0.18946,0.16387c-0.01318,0.08105-0.0487,0.15003-0.13196,0.18321
		c0.00293-0.0208,0.00585-0.0416,0.00878-0.0624c0.01431-0.07328,0.03497-0.14689-0.01188-0.21687L15.64046,11.00573z"/>
	<path fill="#394E37" d="M10.98647,6.62654c-0.04929-0.08449-0.0494-0.169-0.00015-0.25355
		c0.00022,0.05303,0.00044,0.10607,0.00067,0.15911C10.98682,6.56358,10.98664,6.59506,10.98647,6.62654z"/>
	<path fill="#FEFEFE" d="M16.41117,6.78424C16.32518,6.92887,16.20811,7.0177,16.0293,7.0241
		c-0.07621,0.00273-0.15926,0.01869-0.2208,0.07794c-0.00086,0.04545-0.01787,0.07966-0.0654,0.09265
		c-0.06029,0.10366-0.02489,0.21621-0.02733,0.32448c-0.00196,0.08687-0.03215,0.12285-0.12245,0.12024
		c-0.1644-0.00476-0.32911-0.00413-0.49356-0.00016c-0.08065,0.00195-0.11955-0.02602-0.11532-0.10841
		c0.00243-0.04729,0.00106-0.09482,0.00015-0.14222c-0.00472-0.24566-0.0725-0.32456-0.3182-0.37131
		c-0.27791-0.05288-0.36885-0.16007-0.36936-0.43642c-0.00036-0.19493,0.01065-0.39059-0.00291-0.58459
		c-0.01532-0.21925,0.06881-0.36461,0.27236-0.44501c0.05931-0.05947,0.13652-0.05131,0.2098-0.05158
		c0.39806-0.0015,0.79614-0.00358,1.19418,0.00033c0.35226,0.00346,0.4932,0.14545,0.49448,0.48935
		c0.00072,0.19491,0.00035,0.38983-0.00003,0.58475C16.46476,6.6488,16.45963,6.7219,16.41117,6.78424z"/>
	<path fill="#FEFEFE" d="M12.99652,8.43361c0.0159,0.05802-0.00459,0.10245-0.05101,0.13812
		c-0.01251,0.00961-0.02237,0.02255-0.0338,0.03361c-0.14084,0.13631-0.28175,0.27255-0.43643,0.42215
		c-0.04166-0.09226-0.08575-0.18365-0.12469-0.27714c-0.23733-0.56976-0.47338-1.14003-0.7101-1.71004
		c-0.06545-0.1576-0.06583-0.15562,0.11207-0.1548c0.19144,0.00088,0.3829-0.00211,0.57435-0.00342
		c0.08152,0.02783,0.10348,0.10438,0.13022,0.17034c0.16862,0.41591,0.34234,0.82969,0.51652,1.24331
		C12.99218,8.33972,13.00915,8.38435,12.99652,8.43361z"/>
	<path fill="#FEFEFE" d="M18.32667,8.87037c-0.02625,0.05005-0.05251,0.10011-0.08973,0.17108
		c-0.16708-0.16953-0.32536-0.3313-0.48521-0.49153c-0.04145-0.04154-0.0329-0.0798-0.01235-0.12851
		c0.20297-0.48114,0.40525-0.96258,0.60291-1.44588c0.02954-0.07224,0.06827-0.09238,0.14281-0.09027
		c0.21268,0.00602,0.42559,0.00419,0.63841,0.00545c0.03216,0.02368,0.03197,0.05432,0.01925,0.08765
		c-0.23546,0.59081-0.48243,1.177-0.73098,1.76253C18.39165,8.78832,18.37654,8.84121,18.32667,8.87037z"/>
	<path fill="#FEFEFE" d="M12.42383,6.12104c-0.04286,0.15677-0.14493,0.20459-0.30469,0.18743
		c-0.14176-0.01523-0.28658-0.00584-0.4299-0.00212c-0.07876,0.00204-0.10909-0.01762-0.07501-0.09881
		c0.27936-0.66545,0.55774-1.3313,0.83506-1.99758c0.01683-0.04043,0.0357-0.04702,0.06973-0.02352
		c0.19248,0.11369,0.32149,0.29469,0.4796,0.44511c0.04126,0.0591,0.03041,0.12161,0.00628,0.18137
		c-0.16366,0.40524-0.33752,0.80631-0.50472,1.21011C12.48423,6.06148,12.46428,6.09992,12.42383,6.12104z"/>
	<path fill="#FDFDFD" d="M14.07508,7.39085c0.01267,0.03156,0.01218,0.05831-0.01546,0.08516
		c-0.19211,0.18665-0.38294,0.3746-0.59001,0.57768c-0.10909-0.26149-0.21328-0.51182-0.31798-0.76194
		c-0.04263-0.10184-0.08428-0.20416-0.1303-0.30449c-0.03688-0.08041-0.02156-0.11228,0.07365-0.1096
		c0.212,0.00596,0.42421,0.0042,0.63634,0.00559C13.83617,7.05895,13.95374,7.22616,14.07508,7.39085z"/>
	<path fill="#FDFDFD" d="M17.33993,7.8609c-0.09478,0.19653-0.09457,0.19631-0.24948,0.04178
		c-0.13446-0.13414-0.26772-0.26954-0.40516-0.40062c-0.05339-0.05092-0.06239-0.08552,0.00076-0.13688
		c0.13371-0.10872,0.22641-0.24743,0.27954-0.41168c0.01551-0.04794,0.04156-0.07657,0.1024-0.07507
		c0.19583,0.00484,0.39185,0.00365,0.58778,0.00235c0.04677-0.00031,0.06778,0.01746,0.06731,0.06263
		c0.02237,0.0672-0.02688,0.11595-0.04504,0.17277c-0.0775,0.19808-0.15251,0.39713-0.23424,0.59348
		C17.42035,7.76604,17.39984,7.82771,17.33993,7.8609z"/>
	<path fill="#FDFDFD" d="M16.16834,7.9609c0.03521-0.02356,0.04751-0.09283,0.11308-0.05585
		c0.21208,0.12404,0.38098,0.29089,0.50522,0.50202c0.00661,0.02632,0.05194,0.05828,0.00363,0.07857
		c-0.37386,0.15706-0.74904,0.311-1.14312,0.4739c0-0.23468,0.00253-0.44017-0.00141-0.64555
		c-0.00133-0.06975,0.0311-0.09221,0.09217-0.10091c0.04564-0.0065,0.09748,0.00787,0.13472-0.03321
		C15.96177,8.09434,16.06757,8.03096,16.16834,7.9609z"/>
	<path fill="#FDFDFD" d="M15.03297,8.21603c0.06912,0.05211,0.03507,0.12628,0.03774,0.19049
		c0.00545,0.13116-0.00374,0.26307,0.00498,0.3939c0.00803,0.12052-0.01028,0.16222-0.14268,0.10356
		c-0.29824-0.13213-0.60314-0.24939-0.9043-0.37516c-0.04195-0.01752-0.09532-0.0205-0.12576-0.08243
		c0.16559-0.16242,0.33728-0.32462,0.50081-0.49457c0.05835-0.06064,0.08648-0.02813,0.12365,0.01284
		c0.05886,0.00009,0.09596,0.04114,0.13023,0.07764C14.75999,8.15131,14.91468,8.14413,15.03297,8.21603z"/>
	<path fill="#FDFDFD" d="M16.79548,4.6944c-0.02452,0.17498-0.28459,0.36334-0.4361,0.31515
		c-0.18099-0.05756-0.36792-0.04472-0.55263-0.03938c-0.11881,0.00344-0.17457-0.02126-0.16265-0.15497
		c0.01305-0.14642,0.0095-0.29525,0.00085-0.44231c-0.00663-0.11277,0.02915-0.14326,0.13194-0.09711
		c0.03825-0.01487,0.07368-0.00084,0.10792,0.01282c0.26142,0.10425,0.52643,0.19987,0.78204,0.31808
		C16.71415,4.62853,16.7682,4.64272,16.79548,4.6944z"/>
	<path fill="#FDFDFD" d="M15.0098,4.25053c0.06143-0.00251,0.06301,0.03729,0.06288,0.08288
		c-0.00053,0.1794-0.00159,0.35887,0.00276,0.53819c0.00163,0.06735-0.021,0.0948-0.08955,0.09647
		c-0.24275,0.0059-0.49019-0.02969-0.7224,0.07679c-0.03508,0.01609-0.05997-0.00863-0.08292-0.03114
		c-0.09334-0.09153-0.18652-0.18321-0.27908-0.27417c0.05002-0.07245,0.13322-0.06251,0.18391-0.10901
		c0.04664-0.09006,0.14474-0.09353,0.22307-0.12965c0.11905-0.05491,0.2456-0.09129,0.36575-0.14347
		c0.05611-0.02034,0.11489-0.03465,0.16413-0.07099C14.89243,4.26005,14.94363,4.21973,15.0098,4.25053z"/>
	<path fill="#FDFDFD" d="M13.73141,5.70531c-0.06259,0.15796-0.0242,0.32222-0.02498,0.4831
		c-0.00047,0.09777-0.02638,0.12838-0.12535,0.12458c-0.19076-0.00732-0.382-0.00213-0.57698-0.00213
		c-0.00203-0.11581,0.06004-0.19988,0.09663-0.29093c0.10396-0.25867,0.21375-0.51504,0.32237-0.77185
		c0.02017-0.0477,0.02434-0.12795,0.1124-0.06819C13.81714,5.29124,13.87822,5.45503,13.73141,5.70531z"/>
	<path fill="#FDFDFD" d="M17.68649,6.15289c0.05972,0.12631,0.02788,0.17541-0.11915,0.1606
		c-0.12636-0.01273-0.25646-0.01441-0.38235,0.0004c-0.15081,0.01775-0.17655-0.04523-0.17029-0.17707
		c0.00995-0.20967,0.02315-0.42289-0.07621-0.6208c-0.0069-0.01373-0.01476-0.0299-0.01355-0.04422
		c0.00479-0.05667,0.28106-0.29178,0.35076-0.30087c0.06514,0.03853,0.08422,0.10913,0.10798,0.17075
		C17.48753,5.61098,17.63616,5.864,17.68649,6.15289z"/>
	<path fill="#324932" d="M16.41117,6.78424c0.02981-0.30557,0.01438-0.61202,0.01079-0.9178
		c-0.00218-0.18554-0.16426-0.31327-0.37123-0.31406c-0.49474-0.00188-0.98949-0.00091-1.48424-0.00109
		c-0.00511-0.12241,0.09797-0.12466,0.16907-0.12551c0.50389-0.00602,1.00796-0.0076,1.51182-0.00053
		c0.16492,0.00231,0.32022,0.18844,0.32501,0.37312c0.00587,0.22626,0.00953,0.45321-0.00205,0.67904
		C16.56426,6.59579,16.53756,6.71972,16.41117,6.78424z"/>
	<path fill="#314832" d="M12.99652,8.43361c-0.19551-0.46121-0.39066-0.92257-0.58697-1.38344
		c-0.02442-0.05734-0.05494-0.11212-0.08263-0.16808c-0.15093-0.07187-0.31139-0.01395-0.46597-0.03419
		c-0.04674-0.00612-0.12904,0.02735-0.12615-0.04949c0.00272-0.07228,0.08415-0.04255,0.13151-0.04364
		c0.1591-0.00366,0.31839,0.00089,0.47751-0.00224c0.09135-0.0018,0.14364,0.03278,0.1794,0.12032
		c0.18876,0.46209,0.38419,0.9215,0.57552,1.38257C13.13947,8.35356,13.15876,8.44678,12.99652,8.43361z"/>
	<path fill="#FBFBFB" d="M20.27639,6.6551c-0.04314,0.0773-0.08046,0.15871-0.17024,0.19734
		c-0.09129,0.03928-0.1988,0.05184-0.27415,0.00986c-0.05291-0.02948,0.02063-0.12065,0.04266-0.17892
		c0.05106-0.13508-0.04845-0.23953-0.0597-0.36521c0.06137-0.00395,0.11863-0.00764,0.1759-0.01132
		c0.11802-0.05813,0.18978,0.02003,0.25291,0.09466C20.30555,6.47452,20.35155,6.5599,20.27639,6.6551z"/>
	<path fill="#324932" d="M16.79548,4.6944c-0.33953-0.13954-0.67906-0.27908-1.01859-0.41863
		c-0.0187-0.13079,0.02363-0.17587,0.15579-0.11893c0.29631,0.12765,0.59504,0.24979,0.89167,0.37672
		c0.04034,0.01726,0.10229,0.02649,0.09447,0.08997C16.91009,4.69421,16.84854,4.69079,16.79548,4.6944z"/>
	<path fill="#334933" d="M17.68649,6.15289c-0.15139-0.32135-0.28385-0.65051-0.41078-0.98195
		c0.00356-0.05269,0.00013-0.11376,0.07138-0.12237c0.06393-0.00772,0.07324,0.05375,0.09063,0.0938
		c0.12788,0.29443,0.25446,0.58946,0.37673,0.88622c0.01634,0.03966,0.05873,0.0893,0.01921,0.13228
		C17.78811,6.21039,17.7354,6.16677,17.68649,6.15289z"/>
	<path fill="#334933" d="M14.07508,7.39085c-0.18276-0.12372-0.28566-0.30072-0.34376-0.50761
		c-0.15013-0.07542-0.31073-0.01458-0.46491-0.03564c-0.04689-0.00641-0.12907,0.02723-0.12692-0.04886
		c0.00206-0.07262,0.08343-0.04096,0.13105-0.0444c0.06862-0.00496,0.13876,0.00586,0.20668-0.00256
		c0.24425-0.03028,0.44259,0.00148,0.51729,0.28627c0.01885,0.07187,0.1078,0.12599,0.16559,0.1873
		c0.03373,0.03579,0.0664,0.07015,0.03565,0.12404C14.16752,7.39886,14.12642,7.40892,14.07508,7.39085z"/>
	<path fill="#334933" d="M15.03297,8.21603c-0.20856-0.00445-0.38475-0.07303-0.50555-0.25137
		c0.01492-0.05043-0.06289-0.11566,0.02063-0.15353c0.07211-0.03269,0.10528,0.03204,0.14424,0.07064
		c0.11205,0.11101,0.23782,0.19398,0.40096,0.20239c0.08305,0.00428,0.10896,0.04995,0.10848,0.12444
		c-0.0011,0.16895,0.00017,0.33792-0.00079,0.50687c-0.0002,0.03539,0.00683,0.08594-0.0439,0.08675
		c-0.06379,0.00101-0.04979-0.057-0.05044-0.09563c-0.00212-0.12669,0.00022-0.25344-0.00155-0.38014
		C15.10436,8.27658,15.11912,8.21268,15.03297,8.21603z"/>
	<path fill="#3C513A" d="M18.32667,8.87037c0.1065-0.26213,0.20976-0.52561,0.32028-0.78605
		c0.15842-0.3733,0.29515-0.75574,0.47682-1.11927c0.03179,0.01484,0.01157,0.05541,0.03688,0.07345
		c-0.15182,0.37566-0.30354,0.75136-0.45551,1.12696c-0.08492,0.20987-0.16702,0.42099-0.25826,0.62813
		C18.42936,8.83334,18.43174,8.94794,18.32667,8.87037z"/>
	<path fill="#354B35" d="M13.73141,5.70531c0.11926-0.21545-0.00202-0.35126-0.15888-0.47627
		c-0.01557-0.01241-0.02485-0.03259-0.03704-0.04916c0.00437-0.05891,0.0079-0.12716,0.07331-0.1451
		c0.06004-0.01647,0.08119,0.05588,0.12222,0.08532c0.17088,0.12261,0.23321,0.26721,0.12564,0.47071
		c-0.06595,0.12477-0.01352,0.27095-0.02976,0.40611c-0.00722,0.06008,0.04519,0.17075-0.04929,0.16831
		c-0.08267-0.00214-0.03743-0.11305-0.04254-0.17512C13.72731,5.8957,13.73201,5.80029,13.73141,5.70531z"/>
	<path fill="#334A34" d="M12.96929,4.6288c-0.15009-0.14746-0.30019-0.29491-0.45028-0.44237
		c0.09442-0.17532,0.09445-0.17535,0.23246-0.03864c0.06721,0.06658,0.12836,0.14084,0.20269,0.19833
		c0.145,0.11216,0.21311,0.23712,0.10791,0.41071C12.97343,4.75535,13.04263,4.6412,12.96929,4.6288z"/>
	<path fill="#354B35" d="M17.79272,9.41343c-0.14218-0.11437-0.26645-0.24656-0.38664-0.3828
		c-0.04721-0.06017-0.09273-0.12099-0.18511-0.10732c-0.02764,0.00409-0.0477-0.01283-0.03961-0.04628
		c0.15982-0.09176,0.29535-0.08034,0.41475,0.0755c0.06687,0.08728,0.15611,0.15752,0.2342,0.2365
		C17.95031,9.31039,17.9474,9.32569,17.79272,9.41343z"/>
	<path fill="#3E523B" d="M17.18136,8.87703c0.07405,0.05244,0.21019,0.01536,0.22472,0.15359
		c-0.08314-0.10053-0.1704-0.09445-0.28831-0.04391c-0.43002,0.1843-0.86614,0.35457-1.29995,0.53013
		c-0.07935-0.08369,0.01372-0.09757,0.05519-0.11469c0.35161-0.14519,0.70509-0.28592,1.05818-0.42758
		C17.01425,8.94125,17.09795,8.9095,17.18136,8.87703z"/>
	<path fill="#3E523B" d="M12.96929,4.6288c0.08722,0.00249,0.03997,0.10097,0.09277,0.12803
		c-0.07151,0.2859-0.21721,0.5434-0.31875,0.81795c-0.0672,0.18169-0.1494,0.35796-0.22651,0.53597
		c-0.02288,0.05281-0.05017,0.11333-0.09298,0.01029c0.18078-0.43972,0.36115-0.87961,0.54282-1.31897
		C12.9909,4.74341,13.02214,4.68745,12.96929,4.6288z"/>
	<path fill="#304731" d="M16.78664,8.40708c-0.17828-0.15755-0.34748-0.32411-0.50522-0.50202
		c0.067-0.1566,0.08869-0.16322,0.19937-0.05516c0.12066,0.1178,0.24027,0.23669,0.35908,0.35633
		C16.96375,8.33096,16.95899,8.34705,16.78664,8.40708z"/>
	<path fill="#374D38" d="M15.0098,4.25053c-0.05105,0.02182-0.1021,0.04365-0.15316,0.06547
		c-0.03118,0.01517-0.06339,0.01746-0.09656,0.00757c-0.01496-0.01238-0.01691-0.02654-0.00588-0.04247
		c0.10604-0.04689,0.21165-0.09476,0.31826-0.14035c0.08494-0.03632,0.13091-0.01415,0.12967,0.08526
		c-0.00215,0.1733,0.00035,0.34664-0.0013,0.51995c-0.00037,0.03859,0.01222,0.09832-0.05075,0.09411
		c-0.05902-0.00395-0.04332-0.06276-0.04384-0.10158c-0.00188-0.14179,0.00043-0.28362-0.0015-0.42541
		C15.1039,4.25079,15.09807,4.18646,15.0098,4.25053z"/>
	<path fill="#324832" d="M20.27639,6.6551c-0.00891-0.22165-0.0731-0.29995-0.28553-0.34827
		c-0.01728-0.02999-0.07025-0.03992-0.05593-0.08652c0.01439-0.04686,0.05872-0.03318,0.09386-0.03764
		c0.07573-0.00961,0.14597,0.01521,0.21755,0.03204c0.05211,0.03269,0.09439,0.07516,0.12777,0.12649
		C20.43559,6.52214,20.40758,6.61212,20.27639,6.6551z"/>
	<path fill="#384D38" d="M17.65691,7.09388c-0.00296-0.06099,0.04533-0.09978,0.06618-0.15046
		c0.06421-0.08798-0.00087-0.09355-0.06355-0.09426c-0.15889-0.00182-0.31783-0.00003-0.47673-0.00146
		c-0.02908-0.00026-0.07224,0.01035-0.07822-0.0316c-0.00696-0.04887,0.03611-0.06057,0.0734-0.06091
		c0.20125-0.00185,0.40286-0.00788,0.60367,0.00163c0.10546,0.005,0.07335,0.08524,0.04268,0.1402
		c-0.05375,0.09631-0.10505,0.19274-0.13234,0.30014C17.61559,7.18438,17.64959,7.13466,17.65691,7.09388z"/>
	<path fill="#364C36" d="M19.16065,7.0385c-0.02887-0.01628-0.03164-0.04548-0.03688-0.07345
		c-0.00009-0.02478-0.00017-0.04956-0.00026-0.07434c-0.06035-0.07979-0.14606-0.03482-0.21952-0.03985
		C18.78818,6.84294,18.67141,6.8496,18.55507,6.848c-0.02777-0.00038-0.07173,0.01232-0.06912-0.03674
		c0.00176-0.03331,0.02897-0.05582,0.06542-0.05597c0.21153-0.0009,0.42307-0.00225,0.63458-0.0005
		c0.06964,0.00058,0.07506,0.04382,0.0526,0.09761C19.21265,6.91446,19.18662,6.97647,19.16065,7.0385z"/>
	<path fill="#3F533C" d="M17.65691,7.09388c0.00605,0.03631-0.00399,0.07801,0.03508,0.10327
		c-0.06007,0.24095-0.18036,0.45866-0.27345,0.68671c-0.02379,0.05828-0.06708,0.03737-0.07861-0.02296
		C17.44559,7.60522,17.55125,7.34955,17.65691,7.09388z"/>
	<path fill="#3D513A" d="M14.7542,4.2811c0.00006,0.01097,0.00012,0.02194,0.00018,0.03291
		c0.02019,0.05998-0.05346,0.03353-0.06236,0.06671c-0.20221,0.08327-0.40441,0.16655-0.60662,0.24982
		c-0.10222-0.03634-0.05427-0.06908,0.00508-0.09255C14.31108,4.45078,14.53286,4.36648,14.7542,4.2811z"/>
	<path fill="#3A4F3A" d="M15.7431,7.1947c0.01217-0.03758,0.01587-0.08105,0.0654-0.09265
		c0.07194,0.06878,0.09085,0.3146,0.02722,0.37895c-0.01268,0.01283-0.0357,0.02426-0.0525,0.02253
		c-0.03124-0.00322-0.03755-0.03209-0.03796-0.059C15.74398,7.36126,15.74374,7.27797,15.7431,7.1947z"/>
	<path fill="#475B45" d="M16.16834,7.9609c-0.07092,0.10977-0.16417,0.18985-0.29571,0.21898
		c-0.04449-0.01122-0.11968,0.02738-0.1196-0.0577c0.00006-0.05916,0.05531-0.0728,0.10482-0.06823
		C15.97499,8.06475,16.06048,7.97703,16.16834,7.9609z"/>
	<path fill="#394E37" d="M10.85119,6.66132c0.05611,0.03062,0.12995,0.12913,0.13527-0.03479
		c0.03833,0.0206,0.07741,0.04995,0.05206,0.09459c-0.03448,0.0607-0.10319,0.02124-0.155,0.0349
		C10.85336,6.73097,10.85143,6.69643,10.85119,6.66132z"/>
	<path fill="#435735" d="M20.3741,6.34121c-0.05451-0.03031-0.0968-0.07276-0.12777-0.12649
		C20.32244,6.22352,20.36472,6.266,20.3741,6.34121z"/>
	<path fill="#394E37" d="M10.88636,6.42567c-0.01102,0.07943-0.02203,0.15886-0.03307,0.23832
		C10.80408,6.57633,10.84164,6.50051,10.88636,6.42567z"/>
	<path fill="#435735" d="M10.69938,6.30732c0.07585-0.03943,0.1506-0.06093,0.21944,0.01333
		C10.84567,6.3162,10.77253,6.31176,10.69938,6.30732z"/>
	<path fill="#435735" d="M15.63906,11.00477c0.07173,0.06863,0.05162,0.14222,0.01188,0.21687
		C15.64699,11.14935,15.64303,11.07706,15.63906,11.00477z"/>
	<path fill="#4D5F44" d="M15.71013,5.76968c0.24805-0.13156,0.46617-0.01421,0.46994,0.26086
		c0.00162,0.11808,0.04356,0.25348-0.08429,0.34327C15.79805,6.38717,15.6255,6.18745,15.67942,5.892
		C15.68698,5.85055,15.70927,5.81276,15.71013,5.76968z"/>
	<path fill="#4D5F44" d="M14.60122,5.80348c0.08816-0.09832,0.19945-0.11554,0.31616-0.07212
		c0.12672,0.04714,0.18879,0.15073,0.19056,0.28222c0.00151,0.11232,0.02903,0.23157-0.05561,0.33061
		c-0.22205,0.0885-0.40628-0.01508-0.43479-0.24485C14.60534,6.00111,14.62004,5.90138,14.60122,5.80348z"/>
	<path fill="#4D5F43" d="M15.16293,6.55948c0.09243-0.09943,0.2061-0.10464,0.31988-0.05492
		c0.11681,0.05104,0.17589,0.14773,0.16985,0.27811c-0.00497,0.1075,0.02447,0.22564-0.0932,0.29849
		C15.24479,7.06944,15.13946,6.93086,15.16293,6.55948z"/>
	<path fill="#344A34" d="M14.60122,5.80348c0.08629,0.02145,0.05489,0.09174,0.0559,0.14347
		c0.00667,0.3439,0.04907,0.38777,0.39521,0.39722c-0.07427,0.1285-0.18816,0.16246-0.32451,0.12453
		c-0.13934-0.03876-0.21166-0.13704-0.2113-0.27965C14.51684,6.05552,14.47979,5.91164,14.60122,5.80348z"/>
	<path fill="#354B35" d="M15.71013,5.76968c0.03757,0.02664,0.0268,0.05938,0.01933,0.09754
		c-0.05696,0.29122,0.03707,0.42581,0.32928,0.47941c0.01357,0.00249,0.02475,0.01783,0.03704,0.02718
		c-0.13773,0.16051-0.36845,0.13999-0.46988-0.04179C15.53729,6.17322,15.57694,5.9085,15.71013,5.76968z"/>
	<path fill="#354B35" d="M15.16293,6.55948c0.049,0.03217,0.03677,0.08257,0.03838,0.12852
		c0.00813,0.23191,0.06742,0.3019,0.29461,0.35304c0.02305,0.00519,0.04245,0.02636,0.06355,0.04011
		c-0.08658,0.11092-0.2068,0.10636-0.31557,0.06373c-0.11326-0.04439-0.18217-0.13845-0.17601-0.27176
		C15.07312,6.76011,15.04828,6.63937,15.16293,6.55948z"/>
	<path fill="#4D5F43" d="M14.69201,4.38071c0.02079-0.02225,0.04158-0.04449,0.06236-0.06672
		c0.03409,0.00068,0.06818,0.00134,0.10227,0.002C14.80548,4.34687,14.75264,4.37355,14.69201,4.38071z"/>
</g>
</svg>
