<?xml version="1.0" encoding="UTF-8" standalone="no"?>
<!-- Generator: Adobe Illustrator 23.0.2, SVG Export Plug-In . SVG Version: 6.00 Build 0)  -->

<svg
   xmlns:dc="http://purl.org/dc/elements/1.1/"
   xmlns:cc="http://creativecommons.org/ns#"
   xmlns:rdf="http://www.w3.org/1999/02/22-rdf-syntax-ns#"
   xmlns:svg="http://www.w3.org/2000/svg"
   xmlns="http://www.w3.org/2000/svg"
   xmlns:sodipodi="http://sodipodi.sourceforge.net/DTD/sodipodi-0.dtd"
   xmlns:inkscape="http://www.inkscape.org/namespaces/inkscape"
   version="1.1"
   x="0px"
   y="0px"
   width="32px"
   height="13px"
   viewBox="0 0 32 13"
   enable-background="new 0 0 32 13"
   xml:space="preserve"
   id="svg398"
   sodipodi:docname="skillgroup1619101966.svg"
   inkscape:version="0.92.4 (5da689c313, 2019-01-14)"><metadata
   id="metadata404"><rdf:RDF><cc:Work
       rdf:about=""><dc:format>image/svg+xml</dc:format><dc:type
         rdf:resource="http://purl.org/dc/dcmitype/StillImage" /><dc:title></dc:title></cc:Work></rdf:RDF></metadata><defs
   id="defs402"><linearGradient
     gradientTransform="translate(-0.46667724,5.9968679)"
     id="SVGID_8_-9"
     gradientUnits="userSpaceOnUse"
     x1="11.9906"
     y1="13.2836"
     x2="17.773304"
     y2="3.7888889"><stop
       offset="0.0541"
       style="stop-color:#807776"
       id="stop160-8" /><stop
       offset="0.0743"
       style="stop-color:#8C8483"
       id="stop162-7" /><stop
       offset="0.1263"
       style="stop-color:#A5A0A0"
       id="stop164-0" /><stop
       offset="0.1758"
       style="stop-color:#B9B6B7"
       id="stop166-9" /><stop
       offset="0.2215"
       style="stop-color:#C5C5C7"
       id="stop168-0" /><stop
       offset="0.2598"
       style="stop-color:#C9CBCD"
       id="stop170-4" /><stop
       offset="0.321"
       style="stop-color:#C3C6C8"
       id="stop172-4" /><stop
       offset="0.3982"
       style="stop-color:#B3B8BC"
       id="stop174-4" /><stop
       offset="0.4832"
       style="stop-color:#9BA2A7"
       id="stop176-8" /><stop
       offset="0.7402"
       style="stop-color:#BECAD1"
       id="stop178-5" /><stop
       offset="0.8799"
       style="stop-color:#85A3B2"
       id="stop180-4" /><stop
       offset="1"
       style="stop-color:#5D5E60"
       id="stop182-7" /></linearGradient><linearGradient
     gradientTransform="translate(-5.2374468,7.3874171)"
     id="SVGID_8_-9-5"
     gradientUnits="userSpaceOnUse"
     x1="11.9906"
     y1="13.2836"
     x2="11.3714"
     y2="-0.70899999"><stop
       offset="0.0541"
       style="stop-color:#807776"
       id="stop160-8-9" /><stop
       offset="0.0743"
       style="stop-color:#8C8483"
       id="stop162-7-8" /><stop
       offset="0.1263"
       style="stop-color:#A5A0A0"
       id="stop164-0-2" /><stop
       offset="0.1758"
       style="stop-color:#B9B6B7"
       id="stop166-9-6" /><stop
       offset="0.2215"
       style="stop-color:#C5C5C7"
       id="stop168-0-5" /><stop
       offset="0.2598"
       style="stop-color:#C9CBCD"
       id="stop170-4-1" /><stop
       offset="0.321"
       style="stop-color:#C3C6C8"
       id="stop172-4-3" /><stop
       offset="0.3982"
       style="stop-color:#B3B8BC"
       id="stop174-4-7" /><stop
       offset="0.4832"
       style="stop-color:#9BA2A7"
       id="stop176-8-7" /><stop
       offset="0.7402"
       style="stop-color:#BECAD1"
       id="stop178-5-5" /><stop
       offset="0.8799"
       style="stop-color:#85A3B2"
       id="stop180-4-9" /><stop
       offset="1"
       style="stop-color:#5D5E60"
       id="stop182-7-2" /></linearGradient><linearGradient
     gradientTransform="translate(-4.8457663,7.2947336)"
     id="SVGID_8_-9-1"
     gradientUnits="userSpaceOnUse"
     x1="11.9906"
     y1="13.2836"
     x2="11.3714"
     y2="-0.70899999"><stop
       offset="0.0541"
       style="stop-color:#807776"
       id="stop160-8-2" /><stop
       offset="0.0743"
       style="stop-color:#8C8483"
       id="stop162-7-1" /><stop
       offset="0.1263"
       style="stop-color:#A5A0A0"
       id="stop164-0-5" /><stop
       offset="0.1758"
       style="stop-color:#B9B6B7"
       id="stop166-9-8" /><stop
       offset="0.2215"
       style="stop-color:#C5C5C7"
       id="stop168-0-9" /><stop
       offset="0.2598"
       style="stop-color:#C9CBCD"
       id="stop170-4-9" /><stop
       offset="0.321"
       style="stop-color:#C3C6C8"
       id="stop172-4-7" /><stop
       offset="0.3982"
       style="stop-color:#B3B8BC"
       id="stop174-4-3" /><stop
       offset="0.4832"
       style="stop-color:#9BA2A7"
       id="stop176-8-6" /><stop
       offset="0.7402"
       style="stop-color:#BECAD1"
       id="stop178-5-0" /><stop
       offset="0.8799"
       style="stop-color:#85A3B2"
       id="stop180-4-2" /><stop
       offset="1"
       style="stop-color:#5D5E60"
       id="stop182-7-3" /></linearGradient><linearGradient
     gradientTransform="translate(-5.3064328,7.4839975)"
     id="SVGID_8_-9-53"
     gradientUnits="userSpaceOnUse"
     x1="11.9906"
     y1="13.2836"
     x2="11.3714"
     y2="-0.70899999"><stop
       offset="0.0541"
       style="stop-color:#807776"
       id="stop160-8-1" /><stop
       offset="0.0743"
       style="stop-color:#8C8483"
       id="stop162-7-4" /><stop
       offset="0.1263"
       style="stop-color:#A5A0A0"
       id="stop164-0-3" /><stop
       offset="0.1758"
       style="stop-color:#B9B6B7"
       id="stop166-9-2" /><stop
       offset="0.2215"
       style="stop-color:#C5C5C7"
       id="stop168-0-6" /><stop
       offset="0.2598"
       style="stop-color:#C9CBCD"
       id="stop170-4-5" /><stop
       offset="0.321"
       style="stop-color:#C3C6C8"
       id="stop172-4-4" /><stop
       offset="0.3982"
       style="stop-color:#B3B8BC"
       id="stop174-4-5" /><stop
       offset="0.4832"
       style="stop-color:#9BA2A7"
       id="stop176-8-4" /><stop
       offset="0.7402"
       style="stop-color:#BECAD1"
       id="stop178-5-3" /><stop
       offset="0.8799"
       style="stop-color:#85A3B2"
       id="stop180-4-1" /><stop
       offset="1"
       style="stop-color:#5D5E60"
       id="stop182-7-38" /></linearGradient><linearGradient
     gradientTransform="translate(13.716958,6.6099047)"
     id="SVGID_8_-9-8"
     gradientUnits="userSpaceOnUse"
     x1="11.9906"
     y1="13.2836"
     x2="11.3714"
     y2="-0.70899999"><stop
       offset="0.0541"
       style="stop-color:#807776"
       id="stop160-8-0" /><stop
       offset="0.0743"
       style="stop-color:#8C8483"
       id="stop162-7-5" /><stop
       offset="0.1263"
       style="stop-color:#A5A0A0"
       id="stop164-0-6" /><stop
       offset="0.1758"
       style="stop-color:#B9B6B7"
       id="stop166-9-5" /><stop
       offset="0.2215"
       style="stop-color:#C5C5C7"
       id="stop168-0-4" /><stop
       offset="0.2598"
       style="stop-color:#C9CBCD"
       id="stop170-4-10" /><stop
       offset="0.321"
       style="stop-color:#C3C6C8"
       id="stop172-4-31" /><stop
       offset="0.3982"
       style="stop-color:#B3B8BC"
       id="stop174-4-1" /><stop
       offset="0.4832"
       style="stop-color:#9BA2A7"
       id="stop176-8-40" /><stop
       offset="0.7402"
       style="stop-color:#BECAD1"
       id="stop178-5-1" /><stop
       offset="0.8799"
       style="stop-color:#85A3B2"
       id="stop180-4-92" /><stop
       offset="1"
       style="stop-color:#5D5E60"
       id="stop182-7-9" /></linearGradient><linearGradient
     gradientTransform="translate(11.360591,6.3388295)"
     id="SVGID_8_-9-87"
     gradientUnits="userSpaceOnUse"
     x1="11.9906"
     y1="13.2836"
     x2="11.3714"
     y2="-0.70899999"><stop
       offset="0.0541"
       style="stop-color:#807776"
       id="stop160-8-6" /><stop
       offset="0.0743"
       style="stop-color:#8C8483"
       id="stop162-7-80" /><stop
       offset="0.1263"
       style="stop-color:#A5A0A0"
       id="stop164-0-8" /><stop
       offset="0.1758"
       style="stop-color:#B9B6B7"
       id="stop166-9-9" /><stop
       offset="0.2215"
       style="stop-color:#C5C5C7"
       id="stop168-0-92" /><stop
       offset="0.2598"
       style="stop-color:#C9CBCD"
       id="stop170-4-50" /><stop
       offset="0.321"
       style="stop-color:#C3C6C8"
       id="stop172-4-8" /><stop
       offset="0.3982"
       style="stop-color:#B3B8BC"
       id="stop174-4-4" /><stop
       offset="0.4832"
       style="stop-color:#9BA2A7"
       id="stop176-8-1" /><stop
       offset="0.7402"
       style="stop-color:#BECAD1"
       id="stop178-5-8" /><stop
       offset="0.8799"
       style="stop-color:#85A3B2"
       id="stop180-4-20" /><stop
       offset="1"
       style="stop-color:#5D5E60"
       id="stop182-7-4" /></linearGradient><linearGradient
     gradientTransform="translate(4.8389188,6.8117994)"
     id="SVGID_8_-9-9"
     gradientUnits="userSpaceOnUse"
     x1="11.9906"
     y1="13.2836"
     x2="11.3714"
     y2="-0.70899999"><stop
       offset="0.0541"
       style="stop-color:#807776"
       id="stop160-8-7" /><stop
       offset="0.0743"
       style="stop-color:#8C8483"
       id="stop162-7-3" /><stop
       offset="0.1263"
       style="stop-color:#A5A0A0"
       id="stop164-0-0" /><stop
       offset="0.1758"
       style="stop-color:#B9B6B7"
       id="stop166-9-0" /><stop
       offset="0.2215"
       style="stop-color:#C5C5C7"
       id="stop168-0-2" /><stop
       offset="0.2598"
       style="stop-color:#C9CBCD"
       id="stop170-4-4" /><stop
       offset="0.321"
       style="stop-color:#C3C6C8"
       id="stop172-4-1" /><stop
       offset="0.3982"
       style="stop-color:#B3B8BC"
       id="stop174-4-33" /><stop
       offset="0.4832"
       style="stop-color:#9BA2A7"
       id="stop176-8-63" /><stop
       offset="0.7402"
       style="stop-color:#BECAD1"
       id="stop178-5-7" /><stop
       offset="0.8799"
       style="stop-color:#85A3B2"
       id="stop180-4-99" /><stop
       offset="1"
       style="stop-color:#5D5E60"
       id="stop182-7-47" /></linearGradient><linearGradient
     id="SVGID_9_-4"
     gradientUnits="userSpaceOnUse"
     x1="11.8088"
     y1="2.418"
     x2="15.445"
     y2="8.7988005"
     gradientTransform="translate(16.483053,5.5720557)"><stop
       offset="0.0541"
       style="stop-color:#807776"
       id="stop191-6" /><stop
       offset="0.0743"
       style="stop-color:#8C8483"
       id="stop193-4" /><stop
       offset="0.1263"
       style="stop-color:#A5A0A0"
       id="stop195-5" /><stop
       offset="0.1758"
       style="stop-color:#B9B6B7"
       id="stop197-0" /><stop
       offset="0.2215"
       style="stop-color:#C5C5C7"
       id="stop199-7" /><stop
       offset="0.2598"
       style="stop-color:#C9CBCD"
       id="stop201-6" /><stop
       offset="0.321"
       style="stop-color:#C3C6C8"
       id="stop203-0" /><stop
       offset="0.3982"
       style="stop-color:#B3B8BC"
       id="stop205-9" /><stop
       offset="0.4832"
       style="stop-color:#9BA2A7"
       id="stop207-8" /><stop
       offset="0.7402"
       style="stop-color:#BECAD1"
       id="stop209-4" /><stop
       offset="0.8799"
       style="stop-color:#85A3B2"
       id="stop211-2" /><stop
       offset="1"
       style="stop-color:#5D5E60"
       id="stop213-5" /></linearGradient><linearGradient
     id="SVGID_9_-8"
     gradientUnits="userSpaceOnUse"
     x1="11.8088"
     y1="2.418"
     x2="15.445"
     y2="8.7988005"
     gradientTransform="translate(7.8899802,5.9111124)"><stop
       offset="0.0541"
       style="stop-color:#807776"
       id="stop191-3" /><stop
       offset="0.0743"
       style="stop-color:#8C8483"
       id="stop193-8" /><stop
       offset="0.1263"
       style="stop-color:#A5A0A0"
       id="stop195-8" /><stop
       offset="0.1758"
       style="stop-color:#B9B6B7"
       id="stop197-9" /><stop
       offset="0.2215"
       style="stop-color:#C5C5C7"
       id="stop199-8" /><stop
       offset="0.2598"
       style="stop-color:#C9CBCD"
       id="stop201-7" /><stop
       offset="0.321"
       style="stop-color:#C3C6C8"
       id="stop203-05" /><stop
       offset="0.3982"
       style="stop-color:#B3B8BC"
       id="stop205-93" /><stop
       offset="0.4832"
       style="stop-color:#9BA2A7"
       id="stop207-7" /><stop
       offset="0.7402"
       style="stop-color:#BECAD1"
       id="stop209-5" /><stop
       offset="0.8799"
       style="stop-color:#85A3B2"
       id="stop211-4" /><stop
       offset="1"
       style="stop-color:#5D5E60"
       id="stop213-1" /></linearGradient><linearGradient
     id="SVGID_9_-40"
     gradientUnits="userSpaceOnUse"
     x1="11.8088"
     y1="2.418"
     x2="15.445"
     y2="8.7988005"
     gradientTransform="translate(2.0740296,5.4061955)"><stop
       offset="0.0541"
       style="stop-color:#807776"
       id="stop191-7" /><stop
       offset="0.0743"
       style="stop-color:#8C8483"
       id="stop193-5" /><stop
       offset="0.1263"
       style="stop-color:#A5A0A0"
       id="stop195-50" /><stop
       offset="0.1758"
       style="stop-color:#B9B6B7"
       id="stop197-4" /><stop
       offset="0.2215"
       style="stop-color:#C5C5C7"
       id="stop199-6" /><stop
       offset="0.2598"
       style="stop-color:#C9CBCD"
       id="stop201-8" /><stop
       offset="0.321"
       style="stop-color:#C3C6C8"
       id="stop203-2" /><stop
       offset="0.3982"
       style="stop-color:#B3B8BC"
       id="stop205-5" /><stop
       offset="0.4832"
       style="stop-color:#9BA2A7"
       id="stop207-5" /><stop
       offset="0.7402"
       style="stop-color:#BECAD1"
       id="stop209-2" /><stop
       offset="0.8799"
       style="stop-color:#85A3B2"
       id="stop211-5" /><stop
       offset="1"
       style="stop-color:#5D5E60"
       id="stop213-6" /></linearGradient><linearGradient
     id="SVGID_9_-4-3"
     gradientUnits="userSpaceOnUse"
     x1="11.8088"
     y1="2.418"
     x2="15.445"
     y2="8.7988005"
     gradientTransform="translate(12.742392,5.7171975)"><stop
       offset="0.0541"
       style="stop-color:#807776"
       id="stop191-6-9" /><stop
       offset="0.0743"
       style="stop-color:#8C8483"
       id="stop193-4-8" /><stop
       offset="0.1263"
       style="stop-color:#A5A0A0"
       id="stop195-5-7" /><stop
       offset="0.1758"
       style="stop-color:#B9B6B7"
       id="stop197-0-3" /><stop
       offset="0.2215"
       style="stop-color:#C5C5C7"
       id="stop199-7-1" /><stop
       offset="0.2598"
       style="stop-color:#C9CBCD"
       id="stop201-6-8" /><stop
       offset="0.321"
       style="stop-color:#C3C6C8"
       id="stop203-0-7" /><stop
       offset="0.3982"
       style="stop-color:#B3B8BC"
       id="stop205-9-9" /><stop
       offset="0.4832"
       style="stop-color:#9BA2A7"
       id="stop207-8-2" /><stop
       offset="0.7402"
       style="stop-color:#BECAD1"
       id="stop209-4-8" /><stop
       offset="0.8799"
       style="stop-color:#85A3B2"
       id="stop211-2-3" /><stop
       offset="1"
       style="stop-color:#5D5E60"
       id="stop213-5-0" /></linearGradient></defs><sodipodi:namedview
   pagecolor="#ffffff"
   bordercolor="#666666"
   borderopacity="1"
   objecttolerance="10"
   gridtolerance="10"
   guidetolerance="10"
   inkscape:pageopacity="0"
   inkscape:pageshadow="2"
   inkscape:window-width="1366"
   inkscape:window-height="746"
   id="namedview400"
   showgrid="false"
   inkscape:zoom="18.119611"
   inkscape:cx="5.744128"
   inkscape:cy="10.199694"
   inkscape:window-x="-8"
   inkscape:window-y="-8"
   inkscape:window-maximized="1"
   inkscape:current-layer="Layer_1" />
<g
   id="Layer_4">
</g>
<g
   id="Layer_1">
	<linearGradient
   id="SVGID_1_"
   gradientUnits="userSpaceOnUse"
   x1="16.165983"
   y1="-7.5312996"
   x2="16.7632"
   y2="14.784">
		<stop
   offset="0"
   style="stop-color:#1B75BC"
   id="stop3" />
		<stop
   offset="0.1835"
   style="stop-color:#295787"
   id="stop5" />
		<stop
   offset="0.3719"
   style="stop-color:#263E61"
   id="stop7" />
		<stop
   offset="0.5528"
   style="stop-color:#1E2B47"
   id="stop9" />
		<stop
   offset="0.7216"
   style="stop-color:#181D35"
   id="stop11" />
		<stop
   offset="0.8736"
   style="stop-color:#13142B"
   id="stop13" />
		<stop
   offset="0.9944"
   style="stop-color:#111028"
   id="stop15" />
	</linearGradient>
	<polygon
   fill="url(#SVGID_1_)"
   points="28.925,1.98 3.096,1.98 0.448,6.654 3.096,11.329 28.945,11.329 31.977,6.654  "
   id="polygon18"
   style="fill:url(#SVGID_1_)" />
	<path
   opacity="0.29"
   d="M28.769,1.707H3.656L1.087,6.654l3,4.947h24.607l2.644-4.947L28.769,1.707z M27.799,10.892H4.598   L2.109,6.654l2.489-4.238h23.256l2.217,3.765l0.246,0.474L27.799,10.892z"
   id="path20" />
	<linearGradient
   id="SVGID_2_"
   gradientUnits="userSpaceOnUse"
   x1="16.286"
   y1="7.5873"
   x2="16.286"
   y2="1.6255">
		<stop
   offset="0"
   style="stop-color:#5C7FC0"
   id="stop22" />
		<stop
   offset="1"
   style="stop-color:#3D464F;stop-opacity:0"
   id="stop24" />
	</linearGradient>
	<path
   opacity="0.35"
   fill="url(#SVGID_2_)"
   d="M5.279,6.612c1.837-0.237,1.014-1.185,4.17-0.414c3.157,0.771,4.116,0.4,8.311,0.517   c4.196,0.117,3.872,0.989,6.206,0.503c1.98-0.412,2.819-1.36,4.885-0.635c0.229,0.08,1.098,0.997,1.098,0.997l0.512-0.891   l-2.406-4.272H4.598L2.109,6.654l0.316,0.539c0,0,0.537-0.514,0.567-0.811C2.931,5.961,4.616,6.697,5.279,6.612z"
   id="path27" />
	<path
   opacity="0.41"
   d="M28.699,1.556H3.644l-2.97,5.098l2.97,5.098h24.999l3.107-5.098L28.699,1.556z M28.117,11.022H4.171   L1.664,6.654l2.506-4.367l23.88,0.122l2.394,3.757l0.253,0.488L28.117,11.022z"
   id="path29" />
	<linearGradient
   id="SVGID_3_"
   gradientUnits="userSpaceOnUse"
   x1="16.6127"
   y1="12.4887"
   x2="15.8998"
   y2="2.0926">
		<stop
   offset="0.0541"
   style="stop-color:#807776"
   id="stop31" />
		<stop
   offset="0.0743"
   style="stop-color:#8C8483"
   id="stop33" />
		<stop
   offset="0.1263"
   style="stop-color:#A5A0A0"
   id="stop35" />
		<stop
   offset="0.1758"
   style="stop-color:#B9B6B7"
   id="stop37" />
		<stop
   offset="0.2215"
   style="stop-color:#C5C5C7"
   id="stop39" />
		<stop
   offset="0.2598"
   style="stop-color:#C9CBCD"
   id="stop41" />
		<stop
   offset="0.321"
   style="stop-color:#C3C6C8"
   id="stop43" />
		<stop
   offset="0.3982"
   style="stop-color:#B3B8BC"
   id="stop45" />
		<stop
   offset="0.4832"
   style="stop-color:#9BA2A7"
   id="stop47" />
		<stop
   offset="0.7402"
   style="stop-color:#BECAD1"
   id="stop49" />
		<stop
   offset="0.8799"
   style="stop-color:#85A3B2"
   id="stop51" />
		<stop
   offset="1"
   style="stop-color:#5D5E60"
   id="stop53" />
	</linearGradient>
	<path
   fill="url(#SVGID_3_)"
   d="M28.951,12.222H3.398L0.179,6.654l3.219-5.567h25.629l3.219,5.568L28.951,12.222z M3.543,11.972   h25.266l3.148-5.319l-3.074-5.316H3.543L0.468,6.654L3.543,11.972z M28.422,11.442H4.004L1.24,6.654l2.763-4.788h24.418   l2.763,4.788L28.422,11.442z M4.148,11.192h24.129l2.618-4.538l-2.618-4.538H4.148L1.53,6.654L4.148,11.192z"
   id="path56" />
	
	<linearGradient
   id="SVGID_5_"
   gradientUnits="userSpaceOnUse"
   x1="16.6897"
   y1="13.7507"
   x2="15.8697"
   y2="1.5529">
		<stop
   offset="0"
   style="stop-color:#130E0F"
   id="stop75" />
		<stop
   offset="0.0946"
   style="stop-color:#201B1C"
   id="stop77" />
		<stop
   offset="0.2038"
   style="stop-color:#2C2829"
   id="stop79" />
		<stop
   offset="0.3085"
   style="stop-color:#343233"
   id="stop81" />
		<stop
   offset="0.4063"
   style="stop-color:#3A393A"
   id="stop83" />
		<stop
   offset="0.4943"
   style="stop-color:#3E3E3F"
   id="stop85" />
		<stop
   offset="0.5642"
   style="stop-color:#414042"
   id="stop87" />
		<stop
   offset="0.6239"
   style="stop-color:#363436"
   id="stop89" />
		<stop
   offset="0.7163"
   style="stop-color:#2A2627"
   id="stop91" />
		<stop
   offset="0.8032"
   style="stop-color:#201B1C"
   id="stop93" />
		<stop
   offset="0.8821"
   style="stop-color:#181314"
   id="stop95" />
		<stop
   offset="0.9503"
   style="stop-color:#130E0F"
   id="stop97" />
		<stop
   offset="1"
   style="stop-color:#110C0D"
   id="stop99" />
	</linearGradient>
	<path
   fill="url(#SVGID_5_)"
   d="M28.955,1.212H3.471L0.324,6.654l3.147,5.443H28.88l3.222-5.443L28.955,1.212z M28.349,11.317H4.076   L1.385,6.654l2.691-4.663h24.273l2.691,4.663L28.349,11.317z"
   id="path102" />
	<g
   id="g218"
   transform="translate(-3.2780483,5.0341463)">
		
		<linearGradient
   id="SVGID_7_"
   gradientUnits="userSpaceOnUse"
   x1="11.9528"
   y1="2.336"
   x2="15.589"
   y2="8.7166996"
   gradientTransform="translate(-3.4709512,2.1381951)">
			<stop
   offset="0.0541"
   style="stop-color:#807776"
   id="stop133" />
			<stop
   offset="0.0743"
   style="stop-color:#8C8483"
   id="stop135" />
			<stop
   offset="0.1263"
   style="stop-color:#A5A0A0"
   id="stop137" />
			<stop
   offset="0.1758"
   style="stop-color:#B9B6B7"
   id="stop139" />
			<stop
   offset="0.2215"
   style="stop-color:#C5C5C7"
   id="stop141" />
			<stop
   offset="0.2598"
   style="stop-color:#C9CBCD"
   id="stop143" />
			<stop
   offset="0.321"
   style="stop-color:#C3C6C8"
   id="stop145" />
			<stop
   offset="0.3982"
   style="stop-color:#B3B8BC"
   id="stop147" />
			<stop
   offset="0.4832"
   style="stop-color:#9BA2A7"
   id="stop149" />
			<stop
   offset="0.7402"
   style="stop-color:#BECAD1"
   id="stop151" />
			<stop
   offset="0.8799"
   style="stop-color:#85A3B2"
   id="stop153" />
			<stop
   offset="1"
   style="stop-color:#5D5E60"
   id="stop155" />
		</linearGradient>
		
		<g
   id="g189">
			<g
   id="g187">
				<linearGradient
   id="SVGID_8_"
   gradientUnits="userSpaceOnUse"
   x1="11.9906"
   y1="13.2836"
   x2="11.868099"
   y2="0.50515407">
					<stop
   offset="0.0541"
   style="stop-color:#807776"
   id="stop160" />
					<stop
   offset="0.0743"
   style="stop-color:#8C8483"
   id="stop162" />
					<stop
   offset="0.1263"
   style="stop-color:#A5A0A0"
   id="stop164" />
					<stop
   offset="0.1758"
   style="stop-color:#B9B6B7"
   id="stop166" />
					<stop
   offset="0.2215"
   style="stop-color:#C5C5C7"
   id="stop168" />
					<stop
   offset="0.2598"
   style="stop-color:#C9CBCD"
   id="stop170" />
					<stop
   offset="0.321"
   style="stop-color:#C3C6C8"
   id="stop172" />
					<stop
   offset="0.3982"
   style="stop-color:#B3B8BC"
   id="stop174" />
					<stop
   offset="0.4832"
   style="stop-color:#9BA2A7"
   id="stop176" />
					<stop
   offset="0.7402"
   style="stop-color:#BECAD1"
   id="stop178" />
					<stop
   offset="0.8799"
   style="stop-color:#85A3B2"
   id="stop180" />
					<stop
   offset="1"
   style="stop-color:#5D5E60"
   id="stop182" />
				</linearGradient>
				<path
   d="m 7.2182862,2.7033637 c 0.004,0.006 1.2931402,0.011 1.3001402,0.015 L 8.8124798,2.0947919 9.0702622,1.5481365 9.5721258,0.48388065 l 0.1680906,0.002986 0.4522406,1.03481445 -1.1221948,0.026455 -0.2577824,0.5466554 1.6516552,0.010494 0.231556,0.5678993 1.476301,0.049161 v 0 c -0.004,-0.003 -1.79548,-3.20878155 -1.80048,-3.20978155 v 0 c -0.056,-0.02 -1.4749244,0.0457815 -1.4379244,0.0927815 z"
   id="path185"
   style="clip-rule:evenodd;fill:url(#SVGID_8_);fill-rule:evenodd"
   inkscape:connector-curvature="0"
   sodipodi:nodetypes="ccccccccccccccccc" />
			</g>
		</g>
		<linearGradient
   id="SVGID_9_"
   gradientUnits="userSpaceOnUse"
   x1="11.8088"
   y1="2.418"
   x2="15.445"
   y2="8.7988005"
   gradientTransform="translate(0.37099154,-0.0176542)">
			<stop
   offset="0.0541"
   style="stop-color:#807776"
   id="stop191" />
			<stop
   offset="0.0743"
   style="stop-color:#8C8483"
   id="stop193" />
			<stop
   offset="0.1263"
   style="stop-color:#A5A0A0"
   id="stop195" />
			<stop
   offset="0.1758"
   style="stop-color:#B9B6B7"
   id="stop197" />
			<stop
   offset="0.2215"
   style="stop-color:#C5C5C7"
   id="stop199" />
			<stop
   offset="0.2598"
   style="stop-color:#C9CBCD"
   id="stop201" />
			<stop
   offset="0.321"
   style="stop-color:#C3C6C8"
   id="stop203" />
			<stop
   offset="0.3982"
   style="stop-color:#B3B8BC"
   id="stop205" />
			<stop
   offset="0.4832"
   style="stop-color:#9BA2A7"
   id="stop207" />
			<stop
   offset="0.7402"
   style="stop-color:#BECAD1"
   id="stop209" />
			<stop
   offset="0.8799"
   style="stop-color:#85A3B2"
   id="stop211" />
			<stop
   offset="1"
   style="stop-color:#5D5E60"
   id="stop213" />
		</linearGradient>
		<path
   d="m 11.241858,1.0924572 0.28193,0.4403078 0.294274,0.5189373 0.35393,0.6706435 -1.476301,-0.049161 -0.231556,-0.5678993 c -0.013,-0.006 -1.6426552,-4.94e-4 -1.6516552,-0.010494 l -0.2940534,0.6235722 -1.3001402,-0.015 c -0.031,-0.039 1.6873014,-3.05701795 1.7153014,-3.09801795 0.029,-0.04 1.3899244,-0.1087815 1.4379244,-0.0927815 l 0.172983,0.28378116 c 0.008,0.003 0.166769,0.26914691 0.173769,0.27414691 l 0.399419,0.78596487 z M 11.93744,2.5843737 11.558118,1.8275274 10.959495,0.78409352 10.724942,0.29058294 10.318334,-0.34020708 9.0193859,-0.26668046 7.3449843,2.6038707 l 1.0492673,0.03171 0.2850059,-0.6131369 1.9366465,5.87e-5 0.223235,0.5440882 z"
   id="path216"
   style="fill:url(#SVGID_9_)"
   inkscape:connector-curvature="0"
   sodipodi:nodetypes="ccccccccccccccccccccccccccc" />
	</g>
	
	
<path
   d="m 9.4282669,7.7275286 c 0.004,0.006 -0.007,-0.004 0,0 l 0.6429861,0.022563 v 0 0 l 0.778636,0.017112 -0.0019,-0.6674858 c -0.004,-0.003 -0.0287,-1.7917381 -0.0337,-1.7927381 l 0.268246,-0.01934 0.218533,-0.00149 0.157588,0.0145 0.191475,0.00246 0.185734,0.04224 0.186425,0.064302 0.153065,0.077365 0.134261,0.09887 0.118364,0.128546 0.07315,0.1708349 0.02948,0.2261067 0.01341,0.1890808 -0.02832,0.1908377 -0.09399,0.2275412 -0.161051,0.1618959 -0.187267,0.1091533 -0.222718,0.076984 -0.232013,0.026843 -0.204399,0.029814 -0.183555,-0.00397 -0.180408,0.010417 -0.20231,-0.030253 0.0019,0.6674858 0.651583,-0.00481 0.242782,0.011361 0.213604,-0.018069 0.180988,-0.00302 0.182387,-0.031054 0.241346,-0.067155 0.227489,-0.045934 0.212993,-0.06762 0.191589,-0.079658 0.197502,-0.094994 0.157986,-0.1084759 0.191608,-0.1990128 0.130842,-0.2236271 0.119432,-0.2140026 0.0021,-0.213974 0.01017,-0.2035728 L 14.003595,5.9980599 13.937847,5.7711556 13.857293,5.5842305 13.755735,5.4234562 13.588713,5.262913 13.392298,5.0994201 13.177909,4.9766922 l -0.207185,-0.088891 -0.180335,-0.071685 -0.186494,-0.063202 -0.265518,-0.066675 -0.293308,-0.050798 -0.250596,-0.00626 -0.242773,-0.00964 -0.210465,-0.00492 -0.233885,-0.00351 -0.299261,0.012186 c -0.056,-0.02 -1.3887936,-0.028919 -1.3517936,0.018081 z"
   id="path185-3"
   style="clip-rule:evenodd;fill:url(#SVGID_8_-9);fill-rule:evenodd"
   inkscape:connector-curvature="0"
   sodipodi:nodetypes="cccccccccccccccccccccccccccccccccccccccccccccccccccccccccccccccccc" /><path
   d="m 23.348487,7.7259313 c 0.004,0.006 -0.007,-0.004 0,0 v 0 0 0 L 24.5945,7.7460941 24.608749,6.14176 26.420362,7.7506923 27.551884,7.7402176 27.53451,4.665788 26.307799,4.6198763 26.244162,6.2768987 24.439255,4.6656469 c -0.0027,-0.002 0.05718,0.4266703 0,0 -0.02872,-0.2143123 -0.002,-0.00459 -0.0036,-0.00492 v 0 0 c -0.056,-0.02 -1.144891,-0.038675 -1.107891,0.00832 z"
   id="path185-3-0"
   style="clip-rule:evenodd;fill:url(#SVGID_8_-9-8);fill-rule:evenodd"
   inkscape:connector-curvature="0"
   sodipodi:nodetypes="cccccccccccccsccccc" /><path
   d="m 21.050658,7.7572951 c 0.004,0.006 1.326816,-0.071642 1.333816,-0.067642 v 0 0 0 0 l -0.01253,-3.0463443 c -0.004,-0.003 0.005,10e-4 0,0 v 0 0 c -0.056,-0.02 -1.3205,-0.048431 -1.2835,-0.00143 z"
   id="path185-3-4"
   style="clip-rule:evenodd;fill:url(#SVGID_8_-9-87);fill-rule:evenodd"
   inkscape:connector-curvature="0"
   sodipodi:nodetypes="cccccccccccc" /><path
   d="m 14.733862,7.7560194 c 0.004,0.006 -0.007,-0.004 0,0 v 0 0 0 l 1.28365,-0.029311 0.04029,-1.7013777 c -0.004,-0.003 0.005,0.001 0,0 l 0.778457,1.1196104 0.999103,0.020362 0.853417,-1.1882884 0.09854,1.7960484 1.388344,0.062191 -0.291496,-3.1901154 -1.287124,0.026706 -1.190383,1.5470298 -1.161901,-1.573984 v 0 c -0.056,-0.02 -1.335684,-0.052472 -1.298684,-0.00547 z"
   id="path185-3-8"
   style="clip-rule:evenodd;fill:url(#SVGID_8_-9-9);fill-rule:evenodd"
   inkscape:connector-curvature="0"
   sodipodi:nodetypes="cccccccccccccccccccc" /><path
   d="m 27.57831,6.9943622 0.02827,0.5768936 v 0 l -0.0547,0.1689618 v 0 l -1.131522,0.010475 c -0.013,-0.006 -1.802613,-1.5989363 -1.811613,-1.6089323 L 24.5945,7.7460941 23.348487,7.7259313 c -0.031,-0.039 -0.04872,-3.0158844 -0.02072,-3.0568844 0.029,-0.04 1.059891,-0.024319 1.107891,-0.00832 l 1.808504,1.6161718 c 0.008,0.003 0.05664,-1.6620224 0.06364,-1.6570224 l 1.226711,0.045912 z m -1.13442,0.6448658 1.060436,-0.00736 -0.09131,-2.9068485 -1.023193,-0.00158 -0.06014,1.6739212 -0.117918,-0.00572 -1.849666,-1.6397077 -0.946534,-0.014602 0.01221,2.8806316 1.049267,0.03171 0.01184,-1.6277715 0.141525,-0.019453 z"
   id="path216-8"
   style="fill:url(#SVGID_9_-4)"
   inkscape:connector-curvature="0"
   sodipodi:nodetypes="ccccccccccccccccccccccccccccc" /><path
   d="m 20.175663,7.8352541 -1.388344,-0.062191 v 0 c -0.05298,0.3377821 -0.259856,-1.8383449 -0.09854,-1.7960484 l -0.853417,1.1882884 -0.999103,-0.020362 c -0.013,-0.006 -0.769457,-1.1096144 -0.778457,-1.1196104 l -0.04029,1.7013777 -1.28365,0.029311 c -0.031,-0.039 0.184213,-3.0755989 0.212213,-3.1165989 0.029,-0.04 1.250684,-0.010529 1.298684,0.00547 l 1.161901,1.573984 c 0.008,0.003 1.183383,-1.5520298 1.190383,-1.5470298 l 1.287124,-0.026706 z m -2.369418,-0.8299929 0.956665,-1.2604494 0.01061,1.876482 1.2906,0.1042149 -0.347643,-2.9882375 -0.980376,0.026867 -1.223423,1.6037915 -0.165567,0.00319 -1.151657,-1.5965945 -1.147179,-0.023053 -0.198101,2.8567539 1.063065,0.017913 0.03666,-1.7031162 0.218284,0.00573 0.706269,1.0532451 z"
   id="path216-81"
   style="fill:url(#SVGID_9_-8)"
   inkscape:connector-curvature="0"
   sodipodi:nodetypes="ccccccccccccccccccccccccccccccc" /><path
   d="m 12.720506,4.7797215 0.457403,0.1969707 0.214389,0.1227279 0.363437,0.3240361 0.182112,0.3476994 0.04396,0.3823698 c -0.013,-0.006 0.01921,0.4776072 0.01021,0.4676072 l -0.14846,0.2999687 -0.195766,0.2414969 -0.255642,0.2036528 -0.389091,0.174652 -0.440482,0.113554 -0.241346,0.067155 -0.779772,0.058651 -1.470208,-0.030171 -0.6429861,0.00671 c -0.031,-0.039 2.85e-5,-3.0744187 0.028028,-3.1154187 0.029,-0.04 0.9604986,-0.052671 1.0084986,-0.036671 l 0.543715,8.543e-4 c 0.008,0.003 0.781403,0.00573 0.788403,0.010732 l 0.541465,0.069946 z m 1.193142,1.7260628 -0.04761,-0.3861145 -0.07179,-0.448312 -0.322358,-0.3861934 -0.47541,-0.3040059 -0.651848,-0.181423 -0.658579,-0.096525 -1.383972,-0.02991 -0.7698929,0.0546 -0.015865,2.9193316 0.3370726,0.03171 0.5289084,0.021009 0.642093,-0.00862 1.180528,-0.046618 0.497778,-0.1248517 0.434415,-0.1327224 0.31354,-0.1554259 0.269671,-0.2771909 0.129173,-0.2616505 z"
   id="path216-87"
   style="fill:url(#SVGID_9_-40)"
   inkscape:connector-curvature="0"
   sodipodi:nodetypes="cccccccccccccccccccccccccccccccccccccccccc" /><path
   d="m 22.371942,4.6433087 -0.0085,0.380406 0.01135,0.2652784 0.01247,0.5730819 0.0066,0.545962 0.0026,0.7296621 c -0.013,-0.006 -0.003,0.5619499 -0.01204,0.5519539 l -1.333816,0.067642 v 0 c -0.031,-0.039 0.0098,-3.0744176 0.03778,-3.1154176 0.029,-0.04 1.2355,-0.014568 1.2835,0.00143 l -0.0085,0.380406 c 0.008,0.003 -0.007,-0.005 0,0 z m -0.07848,2.087402 -0.03615,-0.6467394 0.03615,0.6467394 -0.03615,-0.6467394 0.0031,-1.3917657 -1.093975,0.00821 -0.01596,2.9944059 v 0 l 1.139151,-0.07411 -0.0048,-0.3706727 z"
   id="path216-8-1"
   style="fill:url(#SVGID_9_-4-3)"
   inkscape:connector-curvature="0"
   sodipodi:nodetypes="ccccccccccccccccccccccccccc" /></g>
<g
   id="guides"
   display="none">
</g>
</svg>