<?xml version="1.0" encoding="utf-8"?>
<!-- Generator: Adobe Illustrator 23.0.0, SVG Export Plug-In . SVG Version: 6.00 Build 0)  -->
<svg version="1.1" id="Слой_1" xmlns="http://www.w3.org/2000/svg" xmlns:xlink="http://www.w3.org/1999/xlink" x="0px" y="0px" width="32px" height="13px"
	 viewBox="0 0 32 13" enable-background="new 0 0 32 13" xml:space="preserve">
<g>
	<path fill="#2D2D2D" d="M0.00225,12.20456c0-2.20796,0-4.41593,0-6.6239c0.03484-0.02885,0.07491-0.03615,0.11867-0.0287
		c0.30471,0.10753,0.41072,0.26299,0.41096,0.61574c0.00116,1.65234,0.00038,3.30467,0.00055,4.95701
		c0.00003,0.25339-0.00339,0.50683,0.00116,0.76017c0.0063,0.35067,0.20489,0.54537,0.55886,0.55347
		c0.06912,0.00158,0.13828,0.00062,0.20742,0.00062c5.03139,0.00002,10.06278,0.00001,15.09417,0.00004
		c0.07446,0,0.14894-0.00118,0.22337,0.00091c0.30537,0.00858,0.46824,0.1301,0.56346,0.41944
		c0.00416,0.04391-0.00023,0.08515-0.03737,0.11586c-0.06345,0.01024-0.12743,0.00507-0.19116,0.00508
		c-5.29465,0.00028-10.58931,0.00018-15.88396,0.00114c-0.06787,0.00001-0.13821-0.01705-0.20401,0.01545
		c-0.02129,0-0.04257,0-0.06386,0c-0.33183-0.05126-0.56626-0.23332-0.72469-0.52323
		C0.02903,12.38801,0.03066,12.29308,0.00225,12.20456z"/>
	<path fill="#262727" d="M31.99691,6.78501c-0.06809,0.03773-0.04715,0.11021-0.0594,0.16591
		c-0.39912,1.81492-1.17801,3.443-2.43218,4.8313c-0.4517,0.50001-0.98541,0.89516-1.64168,1.10545
		c-0.12238,0.03921-0.25887,0.03076-0.36898,0.10923c-0.05322,0-0.10644,0-0.15965,0
		c-0.06033-0.03172-0.1254-0.01548-0.18795-0.0155c-3.31336-0.00108-6.62672-0.00052-9.94008-0.00103
		c-0.02224,0.00184-0.04137-0.00496-0.05738-0.02037c-0.00017-0.02996-0.00034-0.05991-0.00051-0.08987
		c0.08267-0.06982,0.18268-0.04486,0.27569-0.04491c2.59014-0.0014,5.18027-0.00111,7.77041-0.00111
		c0.64355,0,1.2872-0.00727,1.9306,0.00236c0.49167,0.00736,0.93093-0.14304,1.34224-0.3928
		c0.301-0.18277,0.55404-0.4214,0.80717-0.66499c0.73802-0.71021,1.25873-1.56714,1.6928-2.47521
		c0.38063-0.7963,0.69538-1.62145,0.83759-2.5003c0.01682-0.10392,0.00055-0.21207,0.04271-0.31225
		c0.0232-0.0356,0.0571-0.0408,0.09553-0.03289c0.04341,0.0116,0.02779,0.06034,0.05309,0.08344
		C31.99691,6.61598,31.99691,6.7005,31.99691,6.78501z"/>
	<path fill="#1A1A1A" d="M31.96234,6.46723c-0.031,0.00035-0.062,0.0007-0.09299,0.00104
		c-0.04768,0.02092-0.07374,0.01214-0.06417-0.04593c0.06069-0.15727,0.01531-0.31383-0.01153-0.4675
		c-0.12363-0.70764-0.3736-1.37623-0.67246-2.02565c-0.39923-0.86754-0.87418-1.69429-1.5115-2.41274
		c-0.40353-0.4549-0.84485-0.87703-1.40298-1.15401c-0.37872-0.18794-0.78015-0.2781-1.20081-0.279
		c-1.30331-0.00278-2.60663-0.00102-3.90994-0.00102C17.16452,0.08241,11.23311,0.08235,5.3017,0.0829
		C5.19102,0.08291,5.07693,0.0664,4.97479,0.12906C4.9251,0.14924,4.90504,0.12154,4.8939,0.07953
		C4.89063,0.05006,4.90097,0.02499,4.91959,0.00265c7.5676,0,15.1352,0,22.7028,0c0.54759,0.15526,1.0308,0.4242,1.46031,0.79567
		c0.5872,0.50784,1.05577,1.11147,1.46041,1.76601c0.62535,1.01153,1.10948,2.08313,1.37427,3.24589
		c0.02359,0.10359,0.01348,0.2163,0.07953,0.30924c0,0.06339,0,0.12677,0,0.19016
		C31.95632,6.35587,32.00552,6.42153,31.96234,6.46723z"/>
	<path fill="#262626" d="M4.91959,0.00265C4.91953,0.02372,4.91946,0.04479,4.9194,0.06586
		C4.83698,0.13386,4.7376,0.11535,4.64366,0.11545C3.43113,0.11669,2.21857,0.12083,1.00609,0.11297
		C0.70621,0.11102,0.48755,0.23008,0.30525,0.45172C0.17943,0.6047,0.14719,0.77848,0.14746,0.96921
		C0.14953,2.41554,0.14915,3.86187,0.1475,5.30819C0.1474,5.40055,0.17056,5.5,0.09806,5.58065
		C0.06612,5.58065,0.03419,5.58066,0.00225,5.58067c0-1.61636,0-3.23271,0-4.84907c0.05855-0.37618,0.26539-0.62436,0.63862-0.72895
		C2.06711,0.00265,3.49335,0.00265,4.91959,0.00265z"/>
	<path fill="#697681" d="M17.1496,12.95999c0.00971,0.00373,0.01962,0.00684,0.02972,0.00935
		c0.01135,0.00546,0.01536,0.01135,0.0121,0.0177c-0.00336,0.00656-0.00681,0.00985-0.0104,0.00985
		c-5.43888,0-10.87776,0-16.31664,0c0.04293-0.06313,0.1075-0.03101,0.16095-0.03103
		c5.32693-0.00157,10.65386-0.00146,15.98078-0.00165C17.05394,12.96421,17.10177,12.96146,17.1496,12.95999z"/>
	<path fill="#535F69" d="M17.18102,12.99689c-0.00011-0.00922-0.00067-0.01842-0.00169-0.02757
		c0.05315-0.00135,0.1063-0.00391,0.15946-0.00392c3.28301-0.00031,6.56602-0.00052,9.84904,0.0004
		c0.04974,0.00001,0.10786-0.02364,0.14719,0.03109C23.95035,12.99689,20.56568,12.99689,17.18102,12.99689z"/>
	<path fill="#404C56" d="M31.96234,6.46723c0.01474-0.05184-0.02378-0.1152,0.03457-0.15762c0,0.07395,0,0.1479,0,0.22185
		C31.96879,6.51885,31.9657,6.49297,31.96234,6.46723z"/>
	<path fill="#202020" d="M0.09806,5.58065C0.09805,4.01743,0.10982,2.45405,0.08924,0.8911
		C0.08445,0.52774,0.56309,0.05118,0.929,0.05727c1.32981,0.02213,2.66022,0.00865,3.9904,0.0086
		c0.00082,0.0261,0.00637,0.04985,0.03205,0.06362c0.04709,0.01845,0.07438,0.05854,0.10439,0.09523
		c0.09335,0.11412,0.21531,0.16798,0.36174,0.17204c0.07979,0.00221,0.15958,0.00156,0.23937,0.00156
		c7.02742,0.00005,14.05485,0.00472,21.08224-0.00885c0.55955-0.00108,1.03671,0.16136,1.51142,0.41422
		c0.69125,0.36822,1.18681,0.92978,1.63055,1.55255c0.44339,0.62228,0.72894,1.3228,1.03885,2.01153
		c0.17583,0.39077,0.33193,0.7898,0.43026,1.20797c0.07684,0.32678,0.16073,0.64804,0.4549,0.86085
		c0.01393,0.02544,0.0379,0.03087,0.06417,0.03169c0.00679,0.4485-0.11965,0.87264-0.25237,1.29329
		C31.47009,8.22714,31.28036,8.6759,31.0855,9.1251c-0.31538,0.72701-0.72503,1.39095-1.19183,2.02606
		c-0.20607,0.28037-0.46843,0.50803-0.70507,0.75982c-0.29875,0.31787-0.64621,0.55719-1.03588,0.74066
		c-0.29409,0.13847-0.60365,0.22004-0.93493,0.21982c-3.35623-0.00217-6.71246-0.00134-10.06869-0.00135
		c-0.10196-0.29204-0.31434-0.38412-0.61641-0.38384c-5.14297,0.0049-10.28595,0.00073-15.42891,0.00972
		c-0.34751,0.00061-0.6312-0.28367-0.62889-0.61816C0.48795,9.98279,0.47759,8.0876,0.48491,6.1925
		C0.48607,5.8926,0.39224,5.6819,0.09806,5.58065z"/>
	<path fill="#131313" d="M31.80517,6.43658c-0.22489-0.05813-0.3148-0.23909-0.38186-0.43072
		c-0.12856-0.36732-0.19736-0.75171-0.34122-1.11655c-0.1529-0.38775-0.32439-0.76677-0.49199-1.14769
		c-0.26201-0.59548-0.5898-1.15122-0.98069-1.67579c-0.54525-0.73173-1.24973-1.23284-2.10038-1.54994
		c-0.1428-0.05323-0.28386-0.07104-0.43437-0.071C19.86952,0.44657,12.66438,0.44611,5.45924,0.44746
		c-0.24171,0.00005-0.42205-0.08049-0.5078-0.31798c-0.00063-0.0524,0.00931-0.09576,0.07663-0.09463
		c0.04787,0.0008,0.09578-0.00043,0.14367-0.00043c7.2745-0.00003,14.54901-0.00003,21.82351-0.00001
		c0.56069,0,1.07189,0.15545,1.53923,0.46554c0.26429,0.17536,0.50902,0.36582,0.7284,0.59852
		c0.23091,0.24492,0.48029,0.47097,0.6816,0.74412c0.61088,0.82887,1.10445,1.72031,1.47853,2.67769
		c0.19014,0.48661,0.34237,0.98383,0.43793,1.49731c0.0201,0.10803,0.00456,0.21988,0.03675,0.32844
		C31.91769,6.41346,31.87008,6.44028,31.80517,6.43658z"/>
	<path fill="#262626" d="M14.06636,12.10944c-4.26765,0-8.5353,0.00001-12.80295-0.00002
		c-0.36066,0-0.39898-0.03808-0.39898-0.39654c-0.00003-3.49647-0.00003-6.99294,0-10.48941
		c0-0.35859,0.03835-0.39675,0.39877-0.39675C9.79318,0.8267,18.32316,0.82769,26.85314,0.82475
		c0.65435-0.00023,1.19608,0.23239,1.6828,0.66079c0.35546,0.31287,0.6657,0.66385,0.93071,1.04389
		c0.38441,0.55127,0.71681,1.13618,0.98312,1.75908c0.13996,0.32735,0.28701,0.65244,0.39935,0.98895
		c0.20364,0.61001,0.31152,1.22623,0.12276,1.871c-0.13438,0.45902-0.26791,0.92112-0.46277,1.35367
		c-0.23152,0.51392-0.48038,1.02294-0.77647,1.50867c-0.27212,0.4464-0.59145,0.85785-0.94882,1.2279
		c-0.36334,0.37623-0.78342,0.71539-1.33204,0.81264c-0.19153,0.03395-0.38816,0.05561-0.58248,0.05575
		C22.60166,12.11017,18.33401,12.10944,14.06636,12.10944z"/>
	<path fill="#620200" d="M27.62095,1.0463c0.51622,0.15858,0.90151,0.50571,1.25181,0.88845
		c0.62957,0.68787,1.09368,1.48455,1.48232,2.32519c0.12803,0.27692,0.23371,0.56408,0.34655,0.84776
		c0.01492,0.03751,0.01162,0.08216,0.01676,0.1235c-0.04736,0.16601-0.07026,0.33827-0.13618,0.4997
		c-0.16576,0.40596-0.50298,0.56841-0.90824,0.63671c-0.573-0.10718-1.04381-0.38331-1.44692-0.8041
		c-0.44302-0.46245-0.9617-0.82842-1.5713-1.05336c-0.20948-0.0773-0.4277-0.12551-0.64095-0.19024
		c-0.08582-0.02605-0.1768-0.03957-0.2499-0.0979c-0.04482-0.06023-0.02982-0.131-0.03587-0.19834
		c-0.03708-0.41235-0.18185-0.77782-0.48102-1.07426c-0.14557-0.14424-0.19783-0.14516-0.36549-0.01611
		c-0.26951,0.25349-0.54714,0.49906-0.77979,0.7885c-0.02135,0.10775-0.04847,0.20916-0.19735,0.17496
		c-0.25337-0.02437-0.50618-0.04762-0.76154-0.04557c-0.5629,0.00451-1.1259,0.0056-1.68878-0.0003
		c-0.31208-0.00327-0.5885-0.1233-0.73501-0.39675c-0.22354-0.41719-0.58105-0.5431-1.01503-0.55153
		c-0.31323-0.00608-0.62663,0.00583-0.9398-0.00579c-0.14858-0.0617-0.29696-0.03899-0.44554,0.00188
		c-0.07429,0.00822-0.14861,0.00786-0.22292,0.00786c-1.86319,0.00002-3.72638-0.00001-5.58957,0.00002
		c-0.07963,0-0.15928,0.00071-0.23833-0.00976c-0.10437-0.02041-0.20369-0.06016-0.30806-0.0814
		c-0.2055-0.07373-0.34325-0.2295-0.46534-0.39658c-0.20163-0.27593-0.46066-0.38014-0.80839-0.37775
		c-1.80889,0.01247-3.61792,0.00629-5.4269,0.00549c-0.45986-0.0002-0.75854-0.21117-0.91931-0.6436
		c-0.0105-0.0623-0.0343-0.12227-0.03629-0.18635C4.30231,1.18068,4.30099,1.14468,4.30238,1.10857
		c-0.00027-0.02819,0.00046-0.05626,0.00374-0.0844C4.3153,0.98479,4.32408,0.94504,4.3748,0.93849
		c7.59527-0.00095,15.19041-0.00016,22.78555,0.00008c0.04706,0,0.09598-0.01083,0.14094,0.01368
		c0.06401,0.01133,0.12803,0.02266,0.19204,0.034C27.53715,1.00359,27.59399,0.99367,27.62095,1.0463z"/>
	<path fill="#8C1B0A" d="M13.57186,12.01116c-0.14883,0.00108-0.29765,0.0031-0.44648,0.00311
		c-3.3493,0.00018-6.6986,0.00016-10.0479,0.00003c-0.07924,0-0.15992,0.00954-0.23425-0.02953
		c-0.13656-0.00554-0.22033-0.09933-0.29885-0.18967c-0.15751-0.18121-0.24002-0.39537-0.25259-0.63566
		c-0.01334-0.2549-0.05339-0.293-0.31659-0.30885c-0.43558-0.02622-0.92041-0.44408-0.98826-0.8503
		c-0.00962-0.05758-0.01931-0.114,0.00142-0.1708c0.00003-0.04373,0.00006-0.08747,0.00009-0.1312
		C0.96612,9.64217,0.97719,9.58354,0.97717,9.5262C0.97653,7.42873,0.97659,5.33125,0.97662,3.23416
		c0.0293-0.37622,0.30544-0.72697,0.61864-0.78561c0.13258,0.03981,0.22378,0.13359,0.31017,0.23421
		c0.09255,0.1345,0.09407,0.28743,0.09403,0.44169c-0.00044,1.73152,0.00047,3.46304-0.001,5.19455
		C1.99816,8.6713,2.12168,8.95761,2.42294,9.15642c0.1651,0.10896,0.35071,0.14674,0.54619,0.14686
		c0.56909,0.00035,1.13818-0.00093,1.70726,0.00049c0.43353,0.00108,0.66669,0.18462,0.77325,0.60481
		c0.10058,0.39659,0.41768,0.65973,0.83324,0.69079c0.07962,0.00595,0.15949,0.00341,0.23926,0.00341
		c2.11679,0.00019,4.23359-0.00092,6.35038,0.00082c0.47141,0.00039,0.74792,0.28218,0.74918,0.75359
		c0.00011,0.04221,0.0016,0.08449-0.00282,0.12647c-0.00092,0.05462,0.00194,0.10945-0.00225,0.16404
		c-0.00054,0.03432,0.00097,0.06878-0.00131,0.10309c-0.00031,0.03304,0.00012,0.06619-0.00115,0.09928
		c0,0.03276-0.00071,0.06551-0.0064,0.09795C13.60268,11.97289,13.58956,11.99332,13.57186,12.01116z"/>
	<path fill="#600202" d="M30.65766,7.83003c-0.07583,0.33046-0.22474,0.63416-0.36579,0.93855
		c-0.31953,0.68954-0.68579,1.35418-1.17,1.94622c-0.42052,0.51417-0.87605,0.98841-1.52774,1.22027
		c-0.22999,0.08183-0.46637,0.08732-0.70552,0.07663c0.08045-0.35044,0.20605-0.69088,0.59612-0.78292
		c0.75376-0.17785,1.2167-0.70668,1.63485-1.28503c0.54235-0.75013,0.94-1.57749,1.24132-2.45064
		c0.02314-0.06705,0.02827-0.14911,0.11411-0.17834C30.63399,7.45227,30.68699,7.62678,30.65766,7.83003z"/>
	<path fill="#640200" d="M30.46423,7.32379c-0.19655,0.60235-0.45177,1.18004-0.74909,1.73941
		c-0.35343,0.66494-0.77777,1.2789-1.34813,1.78139c-0.20869,0.18387-0.45552,0.31082-0.72797,0.3733
		c-0.31481,0.0722-0.53735,0.23421-0.63256,0.55226c-0.02534,0.08465-0.07786,0.16127-0.1179,0.24156
		c-0.06908,0.00088-0.13816,0.00257-0.20725,0.00257c-4.30075,0.00012-8.6015,0.00013-12.90225-0.00002
		c-0.06908,0-0.13815-0.002-0.20723-0.00309c0.00068-0.01998,0.00137-0.03994,0.00206-0.0599
		c0.07677-0.06807,0.17114-0.04681,0.25946-0.04683c3.78476-0.0009,7.56952-0.00076,11.35428-0.00077
		c0.29768,0,0.59536,0.00047,0.89303-0.00041c0.05776-0.00017,0.11747,0.01018,0.17134-0.02087
		c0.0478-0.02557,0.09908-0.03419,0.15285-0.02836c0.11796-0.00735,0.23491-0.01695,0.30176-0.13592
		c0.00476-0.01281,0.01186-0.02442,0.02025-0.03515c0.03079-0.02695,0.04579-0.06403,0.06319-0.09976
		c0.15954-0.32552,0.41499-0.53199,0.77117-0.61458c0.26895-0.06236,0.48222-0.22867,0.70561-0.37564
		c0.12014-0.09152,0.22559-0.1976,0.31831-0.31634c0.6347-0.77346,1.09818-1.64344,1.46348-2.56771
		c0.0558-0.14117,0.11047-0.2836,0.15681-0.42861c0.01761-0.0551,0.03074-0.11432,0.10188-0.12786
		C30.39596,7.17679,30.46666,7.21735,30.46423,7.32379z"/>
	<path fill="#202020" d="M1.59628,2.47289C1.32416,2.5497,1.18467,2.75974,1.06881,2.99243
		C1.03875,3.0528,1.01488,3.11621,0.98817,3.17823c0,0-0.01247,0.00937-0.01247,0.00937L0.96274,3.1789
		C0.96188,2.92171,0.96156,2.66451,0.95974,2.40733c-0.00038-0.05336,0.00228-0.10488,0.0328-0.15107
		c0.00137-0.02265,0.01042-0.04207,0.02494-0.05927c0.07823-0.07671,0.17539-0.12773,0.26368-0.19107
		C1.33459,1.97671,1.3924,1.95859,1.44983,1.93935c0.08802-0.02751,0.18075-0.03516,0.26839-0.06377
		c0.07963-0.02665,0.08249-0.09867,0.09832-0.16314c0.03958-0.16122,0.08715-0.31965,0.16673-0.46682
		C2.01648,1.19708,2.05018,1.1488,2.08645,1.10237c0.05213-0.05958,0.11108-0.11108,0.18168-0.14851
		C2.32538,0.91903,2.3889,0.92133,2.45267,0.92148c0.3334,0.00079,0.6668,0.00069,1.0002,0.00089
		C3.4636,0.93525,3.46831,0.95002,3.46706,0.96671c-0.01718,0.06154-0.06752,0.0861-0.12098,0.10729
		C3.24966,1.09472,3.1473,1.08725,3.05624,1.13378c-0.068,0.02679-0.13529,0.05498-0.19464,0.0987
		c-0.07087,0.05477-0.14763,0.1024-0.20606,0.172c-0.22504,0.17024-0.30636,0.40368-0.3142,0.67551
		C2.33468,2.31091,2.24984,2.39277,2.0135,2.42206C1.87038,2.4062,1.73814,2.47883,1.59628,2.47289z"/>
	<path fill="#202020" d="M30.46423,7.32379c-0.03867-0.06721-0.0942-0.11839-0.15699-0.16266
		c-0.07437-0.00717-0.12312-0.05759-0.17558-0.1019c-0.02518-0.02384-0.05254-0.04466-0.08407-0.05994
		c-0.054-0.0282-0.11117-0.04748-0.17016-0.06264c-0.13699-0.04254-0.27521-0.07216-0.41961-0.08024
		c-0.15388-0.00861-0.24715-0.11471-0.24199-0.2557c0.00511-0.13952,0.12262-0.26622,0.26185-0.266
		c0.06156,0.0001,0.12496-0.01548,0.18634,0.00473c0.5902-0.12461,0.87246-0.38449,0.96098-0.90223
		c0.01286-0.0752,0.01128-0.16024,0.09338-0.206c0.115,0.23042,0.17027,0.47906,0.22518,0.72781
		c-0.05246,0.25412-0.23068,0.41452-0.42534,0.56287c-0.12949,0.09868-0.12844,0.0979-0.00367,0.19173
		c0.15207,0.11436,0.29974,0.23318,0.36498,0.42186c-0.06188,0.23533-0.11168,0.47446-0.2219,0.69455
		C30.6249,7.64934,30.58547,7.47117,30.46423,7.32379z"/>
	<path fill="#202020" d="M0.98835,9.8295c0.04376,0.41251,0.30151,0.68543,0.62408,0.90275
		c0.12622,0.08504,0.29385,0.07294,0.44758,0.07808c0.18185,0.00608,0.27087,0.08452,0.27104,0.2587
		c0.0004,0.40142,0.16073,0.71004,0.51218,0.91573c-0.24311,0.04944-0.48608,0.0482-0.7289-0.00203
		c-0.15288-0.0699-0.21042-0.214-0.22697-0.35606c-0.02769-0.23771-0.14449-0.33837-0.37886-0.37571
		c-0.20233-0.03223-0.39277-0.12507-0.52099-0.30296c-0.00993-0.01589-0.00833-0.03053,0.00472-0.04394
		c-0.05291-0.08787-0.03459-0.18533-0.03028-0.27791C0.97434,10.36067,0.92422,10.09311,0.98835,9.8295z"/>
	<path fill="#8C1B0A" d="M0.99554,10.9322c0.2025,0.18298,0.44073,0.29007,0.71151,0.3237
		c0.11198,0.01391,0.16604,0.07302,0.17733,0.18205c0.02113,0.20415,0.0935,0.38803,0.22992,0.54477
		c-0.03607,0.04508-0.08729,0.03107-0.13327,0.03111c-0.32957,0.00028-0.65915-0.00101-0.98872-0.0018
		C0.96857,11.65201,0.96218,11.29205,0.99554,10.9322z"/>
	<path fill="#535F69" d="M3.4521,0.95132C3.45137,0.94165,3.45161,0.93199,3.45285,0.92237
		c7.89416-0.0002,15.78831-0.00045,23.68246,0.0004c0.05573,0.00001,0.11817-0.0209,0.16599,0.02949
		c-3.74097,0.00039-7.48192,0.00095-11.22287,0.00114c-3.84206,0.0002-7.68413,0.00002-11.5262,0.00025
		c-0.0691,0-0.1382,0.00308-0.2073,0.00472c-0.03849,0.0318-0.08397,0.04126-0.13258,0.04158
		c-0.20525,0.00133-0.4105,0.00137-0.61574-0.0001C3.54363,0.99947,3.49072,0.99547,3.4521,0.95132z"/>
	<path fill="#600202" d="M30.87954,7.13549c-0.14937-0.16867-0.28236-0.35394-0.49438-0.45712
		c-0.05993-0.02917-0.0535-0.07449,0.0015-0.1079c0.24626-0.14963,0.4278-0.35688,0.55691-0.61142
		C31.05895,6.35851,30.99503,6.74838,30.87954,7.13549z"/>
	<path fill="#6E0500" d="M1.72806,1.90789C1.63539,1.94492,1.53902,1.96465,1.43928,1.96853
		C1.28782,1.62969,1.46613,1.09437,1.78255,0.93844c0.14006,0.00584,0.2807-0.01401,0.42004,0.0118
		c0.02185,0.0012,0.0437,0.00241,0.06555,0.00362C2.23334,1.02215,2.1763,1.06958,2.11591,1.11387
		C2.06447,1.14281,2.00813,1.15114,1.95018,1.15849C1.77066,1.18125,1.67543,1.27828,1.6779,1.45975
		c0.00193,0.14197-0.04435,0.29088,0.04062,0.42568C1.7218,1.89287,1.72493,1.90038,1.72806,1.90789z"/>
	<path fill="#535F69" d="M0.96274,3.1789c0.00844-0.00202,0.01693-0.00228,0.02546-0.00072
		c0.00129,0.92847,0.00371,1.85689,0.00364,2.78531C0.99173,7.20843,0.98969,8.45337,0.98846,9.6983
		C0.94852,9.66622,0.96064,9.62108,0.96064,9.58046C0.96097,7.4466,0.96188,5.31275,0.96274,3.1789z"/>
	<path fill="#535F69" d="M2.20259,0.95024C2.05447,0.95298,1.90634,0.95572,1.75822,0.95845
		C1.61688,1.03248,1.46503,0.99464,1.31729,0.99956C1.04095,1.00592,1.04409,1.00597,1.03982,1.28368
		c-0.00437,0.28478,0.01861,0.57006-0.01429,0.8545c-0.0122,0.02683-0.02369,0.05466-0.06197,0.04863
		C0.96244,1.80789,0.96218,1.42896,0.95947,1.05005C0.95893,0.97358,0.96459,0.91905,1.06691,0.92028
		C1.42214,0.92454,1.77745,0.9219,2.13273,0.92197C2.15976,0.92197,2.1855,0.92575,2.20259,0.95024z"/>
	<path fill="#535F69" d="M0.99554,10.9322c-0.00108,0.35996-0.00215,0.71991-0.00323,1.07985
		c-0.03994-0.02329-0.03176-0.06272-0.03182-0.09812c-0.00054-0.30363-0.00047-0.60726-0.00008-0.91088
		c0.00005-0.03586-0.00582-0.07458,0.03182-0.09898C0.99265,10.91351,0.99375,10.92289,0.99554,10.9322z"/>
	<path fill="#4C3E43" d="M27.62095,1.0463c-0.04253-0.02002-0.08505-0.04005-0.1276-0.06006
		C27.55429,0.96771,27.60578,0.96899,27.62095,1.0463z"/>
	<path fill="#414D57" d="M0.96356,2.18681c0.01107-0.01195,0.02214-0.0239,0.0332-0.03585
		c0.04223,0.00778,0.04977,0.031,0.03,0.06638c-0.01141,0.01295-0.02281,0.0259-0.03422,0.03888
		C0.96401,2.24087,0.96021,2.21531,0.96356,2.18681z"/>
	<path fill="#8A0003" d="M29.66403,6.33944c-0.06741,0.011-0.13473,0.02267-0.20226,0.03287
		c-0.13728,0.02074-0.2011,0.11054-0.20796,0.23736c-0.0068,0.12561,0.08344,0.20538,0.22259,0.20573
		c0.15594,0.0004,0.30352,0.03297,0.44461,0.09742c0.02564,0.05278,0.00775,0.104-0.00854,0.15379
		c-0.34098,1.04251-0.80897,2.0209-1.5085,2.87674c-0.29543,0.36144-0.64315,0.6526-1.1223,0.76556
		c-0.33142,0.07814-0.57387,0.30053-0.72932,0.59796c-0.09298,0.1779-0.21646,0.25008-0.41662,0.24994
		c-4.1166-0.00287-8.2332-0.00211-12.3498-0.0027c-0.07379-0.00001-0.15042,0.00747-0.21263-0.04676
		c-0.00586-0.19275,0.02519-0.38809-0.10078-0.56437c-0.13678-0.19142-0.31158-0.29186-0.54846-0.29178
		c-2.17582,0.00068-4.35168-0.00574-6.52744,0.00542c-0.45184,0.00232-0.94649-0.31594-1.00966-0.80006
		c-0.0403-0.30884-0.32041-0.50407-0.64113-0.50428C4.15002,9.3519,3.5542,9.35224,2.95837,9.35215
		c-0.60011-0.0001-1.0083-0.4062-1.00832-1.00331C1.94998,6.5905,1.949,4.83217,1.9519,3.07384
		c0.00024-0.14703-0.02449-0.28214-0.09773-0.4089c-0.0016-0.0255-0.00886-0.05012-0.01142-0.07554
		c-0.01258-0.12505,0.0247-0.20915,0.16977-0.20598C2.23664,2.35877,2.3001,2.29556,2.3015,2.07663
		c0.00188-0.29365,0.08717-0.54436,0.34706-0.71285c0.07146-0.03997,0.14887-0.0501,0.22978-0.05001
		c0.42892,0.00049,0.85784-0.00042,1.28676,0.0008c0.07387,0.00021,0.14964-0.0031,0.21069,0.05109
		C4.48474,1.78462,4.90341,2.00589,5.25531,2.004c1.85556-0.00997,3.71123-0.00083,5.56681-0.00872
		c0.28608-0.00122,0.49116,0.1182,0.65451,0.32414c0.14483,0.18258,0.29006,0.3595,0.49973,0.47213
		c0.00475,0.08296-0.08301,0.10263-0.1123,0.1625c-0.22921,0.20945-0.44198,0.43538-0.66552,0.65041
		c-0.06577,0.06327-0.09419,0.13075-0.08268,0.22385c0.01735,0.14038,0.00768,0.2825,0.00579,0.42386
		c-0.00093,0.06904-0.00814,0.13752-0.07833,0.17763c-0.05691,0.02192-0.11343,0.02256-0.1693-0.00309
		c-0.06265-0.04662-0.04334-0.10994-0.03522-0.17135c0.01136-0.08582,0.0234-0.1718-0.00547-0.27167
		c-0.08063,0.05451-0.1383,0.1135-0.19798,0.17025c-0.11339,0.1069-0.19388,0.25359-0.36216,0.29408
		c-0.09557,0.0122-0.19144,0.00802-0.28711,0.00804C8.12432,4.45635,6.26254,4.45545,4.40076,4.45677
		C3.92628,4.45711,3.58641,4.70934,3.46427,5.14326C3.44403,5.21518,3.43597,5.28813,3.4358,5.3624
		C3.43531,5.57887,3.43299,5.79537,3.43625,6.0118c0.00784,0.5206,0.40018,0.91057,0.92311,0.91435
		c0.47872,0.00346,0.95748,0.00064,1.43622,0.00089c0.05317,0.00003,0.10631,0.00031,0.15945,0.00419
		c0.10498,0.00768,0.13436,0.05898,0.10967,0.15966C5.94075,7.59659,5.95478,8.10296,6.0661,8.60855
		c0.0061,0.0751-0.04399,0.12665-0.07938,0.18477C5.84571,9.02488,5.87245,9.25618,6.05899,9.42416
		C6.24121,9.58824,6.48141,9.58845,6.6998,9.42674c0.07714-0.05712,0.14401-0.1248,0.21234-0.19122
		c0.05347-0.05199,0.10784-0.10275,0.18721-0.11347C7.31739,9.10457,7.53554,9.1143,7.75348,9.11401
		c0.96269-0.00124,1.92538-0.00097,2.88806-0.00027c0.25317,0.00018,0.25688,0.00395,0.34835,0.23564
		c0.12799,0.3242,0.38286,0.4921,0.75961,0.49247c1.38287,0.00136,2.76574,0.00046,4.1486,0.0006
		c0.06381,0.00001,0.1276,0.00074,0.19142,0.00248c0.11639,0.00317,0.17664,0.06059,0.17928,0.17622
		c0.00279,0.12252,0.02267,0.24162,0.0702,0.35536c0.14973,0.35827,0.4272,0.53913,0.80966,0.5739
		c0.01586,0.00144,0.03189,0.00097,0.04785,0.00097c2.42534,0.00052,4.85067,0.00133,7.27601-0.00077
		c0.44411-0.00038,0.7855-0.26692,0.90123-0.68958c0.03839-0.1402,0.03369-0.28225,0.01633-0.42449
		c-0.02318-0.18994-0.00819-0.21253,0.18613-0.21432c0.48929-0.00451,0.97863-0.00092,1.46795-0.00174
		c0.6379-0.00107,1.00707-0.36952,1.00821-1.00591c0.00032-0.17421-0.00927-0.34902,0.00202-0.52251
		c0.02295-0.3528-0.02715-0.68407-0.24682-0.97446c-0.0197-0.07833,0.04486-0.11079,0.08714-0.15524
		c0.14415-0.15152,0.16974-0.32981,0.07011-0.49136c-0.08521-0.13818-0.25634-0.2088-0.41366-0.17072
		c-0.18455,0.04467-0.29232,0.18875-0.2994,0.39809c-0.00185,0.05448,0.02523,0.12012-0.05207,0.14974
		c-0.05147,0.01712-0.10467,0.0172-0.15763,0.01729c-0.56718,0.00093-1.13437,0.00184-1.70154-0.00035
		c-0.22023-0.00085-0.23745-0.02-0.22826-0.2346c0.01311-0.3062,0.00847-0.60986-0.10929-0.9
		c-0.00379-0.06148,0.02193-0.113,0.06471-0.15372c0.1105-0.10515,0.19215-0.23465,0.29811-0.34337
		c0.19746-0.20157,0.26351-0.46256,0.32906-0.72294c0.02301-0.09142,0.02325-0.18795,0.05861-0.27712
		c0.00589-0.00546,0.01187-0.01085,0.01785-0.01624c0.80545,0.17638,1.55317,0.46624,2.17684,1.02909
		c0.20797,0.18769,0.39841,0.39258,0.61037,0.57529c0.29951,0.25817,0.65492,0.39927,1.03568,0.48774
		C29.61854,6.31483,29.64081,6.32915,29.66403,6.33944z"/>
	<path fill="#8A0003" d="M18.74555,2.85599c0.3352-0.00031,0.67078-0.01079,1.00547,0.00203
		c0.31011,0.01187,0.6133,0.06214,0.83504,0.31656c0.03865,0.04435,0.07442,0.08849,0.10028,0.14128
		c0.16632,0.33941,0.44552,0.49141,0.82005,0.49044c0.63847-0.00166,1.27698-0.00422,1.91538,0.00211
		c0.16622,0.00165,0.33495,0.01282,0.49726,0.06057c-0.01819,0.02876-0.05157,0.04101-0.07272,0.06666
		c-0.065,0.08349-0.15026,0.14664-0.22335,0.22209c-0.34355,0.36401-0.70678,0.7085-1.06084,1.06201
		c-0.04568,0.04561-0.09903,0.07864-0.16607,0.08521c-0.82335,0.01638-1.64647,0.00781-2.46951,0.00485
		c-0.28666-0.00103-0.55946,0.01869-0.80873,0.18062c-0.1052,0.06834-0.14507,0.03818-0.16129-0.09304
		c-0.00969-0.07844-0.00222-0.15802-0.01236-0.23653c-0.00468-0.02763-0.00277-0.05477,0.00684-0.0811
		c0.1721-0.20183,0.2328-0.44945,0.25547-0.70015c0.04506-0.49816-0.05068-0.96358-0.39131-1.35642
		C18.77512,2.97697,18.72776,2.9284,18.74555,2.85599z"/>
	<path fill="#FE6053" d="M25.38387,5.26286c-0.11575,0.13813-0.2315,0.27626-0.34725,0.41439
		c-0.03869,0.06958-0.09161,0.12727-0.14815,0.18313c-0.35282,0.3486-0.70428,0.69854-1.05653,1.04771
		c-0.14268,0.14143-0.27003,0.29554-0.38795,0.4578c-0.20891,0.28762-0.29142,0.61025-0.28136,0.96185
		c0.00431,0.15073,0.02019,0.30478-0.04621,0.44931c-0.13483,0.20734-0.32165,0.30046-0.50144,0.25027
		c-0.20903-0.05835-0.32987-0.23223-0.33482-0.48207c-0.00136-0.06851,0.01089-0.13978-0.00846-0.20496
		c-0.06744-0.22718,0.02665-0.36692,0.20932-0.506c0.5824-0.44339,0.95099-1.04306,1.19653-1.71999
		c0.10417-0.2872,0.20687-0.57677,0.24095-0.88392c0.07342-0.37778,0.11514-0.75862,0.1102-1.14334
		c-0.00176-0.13732,0.04465-0.26852,0.04071-0.40525c0.25731-0.254,0.4982-0.52463,0.77767-0.75618
		c0.14265-0.0941,0.24265-0.00515,0.33153,0.08611c0.32034,0.32888,0.48261,0.72689,0.50746,1.18204
		C25.70892,4.58455,25.61239,4.94211,25.38387,5.26286z"/>
	<path fill="#8A0003" d="M12.23186,2.85501c2.04356,0.00031,4.08711,0.00063,6.13067,0.00094
		c0.02031,0.05401-0.02142,0.08525-0.04548,0.12317c-0.20365,0.1856-0.39384,0.38477-0.59048,0.57743
		c-0.06479,0.06348-0.12893,0.12715-0.22758,0.13507c-0.35124,0.01462-0.70225,0.00602-1.05318,0.00643
		c-1.14342,0.00134-2.28684,0.00061-3.43025,0.00032c-0.08502-0.00002-0.17021,0.00352-0.2546-0.00615
		c-0.01803-0.00261-0.03596-0.00751-0.0531-0.01375c-0.00428-0.00214-0.01125-0.00356-0.0131-0.00741
		c-0.13243-0.27595-0.27272-0.54721-0.46786-0.78648C12.22169,2.87819,12.22757,2.86493,12.23186,2.85501z"/>
	<path fill="#95000E" d="M18.29836,2.94923c0.02139-0.0311,0.04278-0.06221,0.06417-0.0933
		c0.12768-0.06846,0.25535-0.06853,0.38302,0.00005c0.25188,0.29699,0.44485,0.62234,0.49582,1.01587
		c0.0503,0.38841,0.0085,0.76325-0.16669,1.11874c-0.02221,0.04506-0.0478,0.08221-0.10429,0.08314
		c-0.03264-0.07099,0.00539-0.13395,0.02576-0.19738c0.1629-0.50741,0.11693-0.99563-0.12997-1.46734
		c-0.07191-0.13739-0.18008-0.24599-0.27677-0.36438C18.50963,2.94696,18.38995,2.99595,18.29836,2.94923z"/>
	<path fill="#8B0104" d="M24.06942,3.6818c0.01982,0.53173,0.0104,1.06131-0.11753,1.58223
		c-0.07947,0.05679-0.16158,0.05599-0.2457,0.01127c-0.04854-0.06529-0.01009-0.1311,0.00186-0.19528
		c0.06802-0.36501,0.13295-0.73019,0.12882-1.1035c-0.00029-0.0265-0.00019-0.05205-0.01425-0.07552
		c0.02308-0.03753,0.06117-0.03054,0.09641-0.03203C24.0922,3.90397,24.01757,3.74283,24.06942,3.6818z"/>
	<path fill="#8B020D" d="M25.64643,4.18585c-0.03494-0.43639-0.18694-0.82226-0.49152-1.1458
		c-0.08657-0.09196-0.18112-0.14001-0.30783-0.11446c0.14861-0.17304,0.25138-0.18126,0.4032-0.03283
		c0.37267,0.36435,0.53435,0.8104,0.52104,1.32431c0.00001-0.00001-0.00139,0.001-0.00139,0.001
		C25.71965,4.24176,25.68167,4.219,25.64643,4.18585z"/>
	<path fill="#840001" d="M4.37579,1.36567C3.80006,1.36505,3.22434,1.36443,2.64859,1.3638
		C2.6969,1.28982,2.77463,1.25258,2.84636,1.20786c0.07408-0.03187,0.15172-0.04769,0.23223-0.04782
		C3.44579,1.15946,3.813,1.15951,4.1802,1.15992C4.23967,1.15999,4.29764,1.16398,4.34432,1.2072
		C4.35481,1.26003,4.3653,1.31285,4.37579,1.36567z"/>
	<path fill="#96010E" d="M12.23186,2.85501c0.16391,0.18489,0.3143,0.37797,0.40559,0.61113
		c0.02334,0.05962,0.0475,0.11614,0.04156,0.18108c-0.06927,0.05659-0.12424,0.02034-0.17769-0.02655
		c-0.08148-0.0906-0.1142-0.20976-0.18284-0.30844c-0.12032-0.17297-0.24771-0.33595-0.4684-0.38922
		c0.01668-0.06788,0.08831-0.08374,0.1263-0.13146C12.06974,2.78016,12.15313,2.80832,12.23186,2.85501z"/>
	<path fill="#7B0200" d="M4.34432,1.2072C3.84499,1.20742,3.34566,1.20763,2.84635,1.20786
		c0.05184-0.05311,0.11634-0.08187,0.18823-0.09643c0.40665-0.07141,0.81664-0.03999,1.22561-0.03838
		C4.2923,1.07317,4.32017,1.09097,4.34455,1.11202C4.34448,1.14375,4.3444,1.17547,4.34432,1.2072z"/>
	<path fill="#6D0500" d="M3.4521,0.95132C3.74972,0.95366,4.04733,0.956,4.34494,0.95836
		C4.34486,0.98845,4.34479,1.01853,4.34471,1.04861C4.30011,1.08572,4.24608,1.0796,4.194,1.07977
		C3.96274,1.0805,3.73147,1.08089,3.50022,1.07946C3.44899,1.07915,3.39366,1.09041,3.35138,1.04688
		C3.38496,1.01503,3.41853,0.98318,3.4521,0.95132z"/>
	<path fill="#740800" d="M3.35138,1.04688C3.68249,1.04746,4.0136,1.04803,4.34471,1.04861
		c-0.00005,0.02114-0.0001,0.04227-0.00015,0.06341C3.9079,1.11182,3.47125,1.11163,3.03458,1.11144
		C3.12929,1.03728,3.24202,1.05022,3.35138,1.04688z"/>
	<path fill="#840001" d="M13.57331,11.50735c4.18581-0.00001,8.37163-0.00113,12.55744,0.00353
		c0.19004,0.00021,0.29562-0.0554,0.38273-0.2297c0.16242-0.32498,0.43231-0.55222,0.79334-0.63062
		c0.4563-0.09908,0.76884-0.39551,1.05344-0.72362c0.38211-0.44053,0.67487-0.94381,0.93434-1.46235
		c0.23579-0.47122,0.43827-0.95836,0.59257-1.46341c0.00919-0.03009,0.02247-0.05894,0.03384-0.08836
		c0.0614,0.00368,0.10864,0.03972,0.15904,0.06854c0.03737,0.0568,0.01249,0.11229-0.0054,0.16676
		c-0.34702,1.05696-0.82702,2.04669-1.5379,2.91237c-0.29432,0.35841-0.63386,0.66717-1.11045,0.78583
		c-0.33631,0.08374-0.58535,0.29115-0.74461,0.59826c-0.10124,0.19523-0.25431,0.27096-0.47811,0.27073
		c-4.12854-0.00414-8.2571-0.00297-12.38564-0.0036c-0.0837-0.00001-0.17195,0.01568-0.24463-0.04586
		C13.57332,11.61302,13.57331,11.56018,13.57331,11.50735z"/>
	<path fill="#6D0500" d="M30.14697,7.03427c0.05341,0.04231,0.10681,0.08462,0.16024,0.1269
		c-0.09054,0.22029-0.18458,0.43928-0.27095,0.66121c-0.17108,0.43953-0.37658,0.86179-0.60629,1.27442
		c-0.17018,0.30569-0.36357,0.59526-0.56091,0.88283c-0.07765,0.11315-0.17074,0.21585-0.25681,0.3233
		c-0.11968,0.09253-0.22609,0.19824-0.31939,0.31697c-0.26595,0.19621-0.54827,0.35459-0.87512,0.43624
		c-0.26505,0.06622-0.43303,0.2637-0.5688,0.48855c-0.01435,0.02375-0.00691,0.06831-0.05667,0.05774
		c-0.01468,0.03608-0.02229,0.07685-0.06393,0.09508h0.00007c-0.01574,0.07285-0.05693,0.11455-0.13556,0.1214
		c-0.05708,0.00497-0.10606,0.0353-0.15189,0.06878c-0.05319-0.00001-0.10638-0.00002-0.15958-0.00003
		c-0.05579,0.02607-0.11528,0.01517-0.17311,0.01517c-4.0969,0.00041-8.1938,0.00057-12.29071-0.00016
		c-0.08347-0.00002-0.17218,0.01787-0.24384-0.04674c0.00003-0.03159,0.00006-0.06318,0.00009-0.09476
		c0.07775-0.06534,0.17181-0.04601,0.26045-0.04605c2.30424-0.00092,4.60848-0.00068,6.91272-0.00073
		c1.81998-0.00003,3.63996-0.0023,5.45992,0.003c0.22822,0.00067,0.38274-0.06547,0.48111-0.28038
		c0.1293-0.28248,0.35308-0.48804,0.65422-0.56423c0.64436-0.16302,1.05716-0.607,1.4238-1.10938
		c0.56614-0.77575,0.97543-1.63131,1.28104-2.5377C30.07006,7.15753,30.07451,7.07782,30.14697,7.03427z"/>
	<path fill="#7B0300" d="M30.14697,7.03427c-0.31059,1.00948-0.75683,1.95484-1.38693,2.80678
		c-0.28216,0.38149-0.59054,0.74742-1.04931,0.9403c-0.19974,0.08398-0.41598,0.1252-0.6043,0.24036
		c-0.19829,0.12126-0.34001,0.29666-0.42217,0.50087c-0.07305,0.18156-0.20422,0.21779-0.36349,0.23722
		c-0.04716,0.00575-0.09561,0.00113-0.14347,0.00113c-4.20117,0.00009-8.40235,0.00017-12.60351,0.00025
		c-0.00015-0.03177-0.00032-0.06354-0.00047-0.09532c4.21994-0.00002,8.43987-0.00118,12.65979,0.00349
		c0.19763,0.00022,0.32114-0.07239,0.4055-0.23828c0.15592-0.30659,0.39683-0.53106,0.73005-0.61214
		c0.56083-0.13645,0.93277-0.51387,1.25877-0.93967c0.66813-0.87267,1.13305-1.85065,1.45263-2.89794
		C30.10235,6.99899,30.12466,7.01663,30.14697,7.03427z"/>
	<path fill="#6D0500" d="M13.57372,11.85594c4.1581,0,8.31621-0.00005,12.47431,0.00035
		c0.07885,0.00001,0.16033-0.01371,0.23335,0.03138c0.00357,0.02323,0.0259,0.0558-0.0173,0.06092
		c-0.04723,0.0056-0.09557,0.00237-0.14342,0.00238c-4.18225,0.00014-8.3645,0.00023-12.54674,0.00032
		C13.57386,11.9195,13.57379,11.88772,13.57372,11.85594z"/>
	<path fill="#202020" d="M3.76978,10.02931c0.00238,0.23793-0.19468,0.43383-0.43441,0.43186
		c-0.23378-0.00193-0.42482-0.19125-0.42713-0.42327C2.90587,9.79982,3.10283,9.604,3.34266,9.60598
		C3.57648,9.60792,3.76746,9.7972,3.76978,10.02931z"/>
	<path fill="#830101" d="M2.01253,2.38342C1.92196,2.41186,1.86049,2.45816,1.8849,2.56746
		c0.00765,0.03425,0.00354,0.0725-0.03072,0.09748c-0.08596-0.064-0.17191-0.12801-0.25788-0.19203
		C1.72561,2.3999,1.86504,2.37321,2.01253,2.38342z"/>
	<path fill="#6D0500" d="M26.44095,11.8877c0.00676-0.07923,0.08067-0.08126,0.1272-0.08597
		c0.07773-0.00787,0.1164-0.0555,0.16025-0.10422c0.03466,0.05332,0.00263,0.09243-0.0379,0.11378
		C26.6132,11.85201,26.53572,11.90008,26.44095,11.8877z"/>
	<path fill="#6A0007" d="M28.29286,10.6199c0.06797-0.14387,0.17439-0.24957,0.31939-0.31697
		C28.51887,10.42158,28.41245,10.52728,28.29286,10.6199z"/>
	<path fill="#6D0500" d="M26.72833,11.69751c0.02131-0.03169,0.04262-0.06339,0.06393-0.09508
		C26.82735,11.67148,26.79085,11.69311,26.72833,11.69751z"/>
	<path fill="#600202" d="M1.02676,2.21734C1.01674,2.19524,1.00672,2.17314,0.99673,2.151
		c-0.00152-0.33779,0.00609-0.67592-0.00865-1.0131c-0.00696-0.15915,0.0467-0.20898,0.19594-0.18522
		C1.22568,0.95932,1.26883,0.95665,1.3113,0.95825c0.01353,0.01683,0.02538,0.03684,0.02147,0.05737
		C1.26858,1.35273,1.3154,1.6951,1.28279,2.03362C1.21194,2.11475,1.11217,2.15619,1.02676,2.21734z"/>
	<path fill="#650200" d="M1.28279,2.03362C1.27195,2.01648,1.25161,1.99933,1.25165,1.98222
		C1.25246,1.63985,1.2155,1.29512,1.3113,0.95824c0.14897,0.00007,0.29795,0.00013,0.44692,0.0002
		C1.73157,1.06006,1.60434,1.05294,1.56123,1.14802c-0.08066,0.17792-0.1249,0.35963-0.12228,0.55383
		c0.0012,0.08887,0.00028,0.17778,0.00032,0.26667C1.39499,2.00889,1.33654,2.01568,1.28279,2.03362z"/>
	<path fill="#820101" d="M2.01733,1.24293C1.94523,1.42685,1.86974,1.60958,1.8388,1.80654
		c-0.0095,0.06045-0.03346,0.1111-0.11075,0.10132c0.00001,0.00004-0.00162-0.00526-0.00162-0.00526
		C1.6411,1.71769,1.66002,1.52351,1.70942,1.34021C1.75413,1.17432,1.92488,1.13291,2.01733,1.24293z"/>
	<path fill="#7B0300" d="M2.01733,1.24293C1.87017,1.18206,1.73364,1.26608,1.7278,1.42807
		c-0.00569,0.158-0.00132,0.31636-0.00137,0.47454C1.64645,1.91152,1.62808,1.86765,1.62999,1.79859
		C1.63288,1.69437,1.63021,1.59,1.63076,1.48569c0.00136-0.25395,0.12069-0.37286,0.37472-0.37371
		c0.03677-0.00012,0.07354,0.00121,0.11036,0.00188C2.08305,1.15689,2.05019,1.19991,2.01733,1.24293z"/>
	<path fill="#980E0A" d="M23.69509,5.26366c0.08559,0.00012,0.17119,0.00025,0.25679,0.00037
		C23.89,5.7122,23.73547,6.13232,23.5444,6.53877c-0.26931,0.57291-0.64385,1.06538-1.16961,1.43317
		c-0.06009,0.04203-0.08365,0.08786-0.0795,0.15772c0.01031,0.17347,0.00798,0.3482,0.02805,0.52043
		c0.02017,0.17314,0.1304,0.28764,0.29693,0.33711c0.15355,0.04562,0.28011-0.01943,0.38948-0.12293
		c0.02649-0.02507,0.04725-0.0561,0.07065-0.08439c0.1097-0.13011,0.12213-0.28689,0.12217-0.4462
		c0.00007-0.25845-0.00483-0.51708,0.10603-0.76048c0.0393-0.08629,0.09586-0.16362,0.12977-0.25249
		c0.05997-0.12636,0.16098-0.22296,0.25534-0.32026c0.43748-0.45108,0.88123-0.89619,1.34291-1.3232
		c0.14432,0.35052,0.15094,0.71419,0.11293,1.08419c-0.00908,0.08844,0.07627,0.05307,0.1194,0.05349
		c0.33499,0.00321,0.67003,0.0017,1.00505,0.0018c0.31907,0.00009,0.63814,0.00036,0.95721,0.00055
		c0.04437,0.01182,0.06566,0.04947,0.09135,0.08161c0.09554,0.11958,0.2194,0.17133,0.37235,0.15687
		c0.04049-0.00383,0.0835-0.01899,0.11878,0.0166c0.20732,0.23718,0.30854,0.5069,0.29066,0.82637
		c-0.01473,0.26323-0.00845,0.52805-0.00187,0.79193c0.01361,0.5454-0.43877,0.98884-0.98479,0.9802
		c-0.51595-0.00817-1.03213-0.0022-1.54821-0.00108c-0.05186,0.00011-0.10603-0.0132-0.16082,0.01649
		c0.08886,0.33121,0.06037,0.64709-0.14866,0.93106c-0.17688,0.24031-0.42322,0.3789-0.71838,0.37959
		c-2.46865,0.00577-4.93732,0.004-7.40598,0.00265c-0.46718-0.00026-0.90752-0.44139-0.91255-0.90571
		c-0.0022-0.20274-0.0022-0.20288-0.20936-0.20288c-1.43119-0.00004-2.86237,0.00006-4.29356-0.00007
		c-0.38884-0.00004-0.67486-0.19741-0.78819-0.56399c-0.03925-0.12695-0.09449-0.16906-0.23067-0.16834
		C9.55215,9.1646,8.40293,9.1621,7.25372,9.16177C7.18463,9.16175,7.11554,9.15836,7.04646,9.15653
		C7.0507,9.079,7.11345,9.04036,7.16056,8.99336C7.54809,8.6067,7.93674,8.22116,8.32598,7.8362
		c0.0603-0.05964,0.11623-0.12159,0.15463-0.19762c0.0957-0.07912,0.1826-0.16717,0.26452-0.26032
		c0.01363-0.00678,0.02812-0.00993,0.04332-0.01024c0.08937,0.01983,0.13848,0.0931,0.19625,0.15196
		c0.07302,0.07439,0.1379,0.07415,0.22133,0.01407c0.19485-0.14031,0.34917-0.31808,0.4947-0.50492
		c0.0421-0.05405,0.08413-0.1076,0.13998-0.14884c0.25247-0.20803,0.38609-0.49697,0.52453-0.77865
		c0.23425-0.47663,0.34994-0.98912,0.43058-1.51036c0.00877-0.0567,0.0163-0.11476,0.04494-0.16669
		c0.00594-0.00561,0.01198-0.01114,0.01803-0.01667c0.06482,0.00023,0.12964,0.00046,0.19446,0.0007
		c0.06198,0.07973,0.04291,0.17321,0.03461,0.25965c-0.0787,0.82041-0.30594,1.59453-0.73748,2.3043
		c-0.22779,0.37465-0.5081,0.70335-0.86425,0.96261C9.37539,8.01579,9.32821,8.10849,9.33391,8.24285
		c0.00516,0.1215,0.01753,0.24162,0.02887,0.36241c0.01575,0.16776,0.10394,0.27451,0.25514,0.33149
		c0.1462,0.0551,0.25638-0.01981,0.35603-0.11592c0.03044-0.02936,0.05698-0.06296,0.09489-0.08386
		c0.11623-0.09755,0.13335-0.23207,0.13907-0.37009c0.00672-0.16208-0.00833-0.32456,0.0121-0.48653
		c0.02734-0.21675,0.11357-0.41213,0.21502-0.60234c0.05752-0.12677,0.15006-0.2275,0.24755-0.32434
		c0.45649-0.45341,0.91037-0.90949,1.37182-1.35787c0.1219-0.11845,0.20431-0.2681,0.33259-0.3794
		c0.29738-0.39637,0.39139-0.84133,0.32547-1.32571c-0.01094-0.0804-0.05996-0.16185-0.00171-0.24319
		c1.62068,0.00129,3.24136,0.00258,4.86204,0.00388c0.0341,0.03945,0.0322,0.08799,0.03363,0.13522
		c0.02682,0.8808-0.08905,1.73773-0.43789,2.55492c-0.26758,0.62684-0.62957,1.18549-1.19001,1.59706
		c-0.08946,0.0657-0.13291,0.14418-0.12837,0.25507c0.00474,0.11595,0.0012,0.23226,0.00115,0.34842
		c-0.00007,0.17257,0.05844,0.31087,0.22914,0.38099c0.16892,0.06939,0.29856-0.00381,0.41522-0.11827
		c0.0189-0.01854,0.03629-0.0386,0.05627-0.05613c0.11255-0.08542,0.13861-0.2064,0.13718-0.33663
		c-0.00266-0.24175,0.00024-0.48185,0.06137-0.71924c0.02517-0.09774,0.0779-0.18379,0.09873-0.28149
		c0.06368-0.23079,0.24706-0.37824,0.40241-0.53853c0.42301-0.43648,0.85963-0.86,1.29208-1.28743
		c0.1094-0.10813,0.21544-0.21761,0.29042-0.35376c0.02718-0.04935,0.0561-0.10528,0.13028-0.09555
		c0.08262,0.10827,0.00706,0.23625,0.04627,0.35294c0.05568-0.0001,0.09207-0.04184,0.13562-0.06818
		c0.16601-0.10039,0.34137-0.15958,0.54028-0.15854c0.9244,0.00482,1.84883,0.00441,2.77325,0.00587
		c-0.00101,0.07918-0.0652,0.11748-0.11231,0.16453c-0.36291,0.36246-0.72778,0.72297-1.09135,1.08479
		c-0.12356,0.12297-0.12292,0.12613,0.00049,0.25062c0.2382,0.24028,0.48687,0.47052,0.71192,0.72341
		c0.0857,0.09631,0.16682,0.11422,0.27042,0.02301c0.13127-0.11557,0.25902-0.23396,0.36954-0.36927
		c0.04378-0.0536,0.08851-0.10488,0.14582-0.14447c0.27722-0.24254,0.44062-0.56183,0.6045-0.88089
		c0.1379-0.26849,0.21009-0.56142,0.31845-0.84094C23.68316,5.27377,23.68913,5.26871,23.69509,5.26366z"/>
	<path fill="#980E0A" d="M8.7935,7.38336C8.77943,7.38464,8.76536,7.38592,8.75129,7.3872
		C8.67292,7.40548,8.63914,7.34112,8.59632,7.30008c-0.13711-0.1314-0.2702-0.2669-0.40527-0.40039
		C8.03297,6.74346,8.03152,6.74362,7.87847,6.89584C7.85603,6.91816,7.83455,6.94141,7.81203,6.96369
		C7.27861,7.48851,6.75029,8.01836,6.21722,8.54348C6.16684,8.59311,6.12756,8.66478,6.03982,8.66125
		C5.87636,8.10715,5.90698,7.5534,6.02896,6.98023C6.00624,6.95602,5.95588,6.9764,5.91234,6.97626
		c-0.51065-0.0017-1.02148-0.0095-1.53191,0.00118c-0.5558,0.01163-1.01255-0.4391-0.99461-0.98647
		c0.00674-0.20569,0.00102-0.41179,0.00111-0.6177C3.38714,4.83028,3.80876,4.408,4.35157,4.40809
		c1.98942,0.00032,3.97883,0.00095,5.96825,0.00146c0.00806,0.08898-0.06638,0.12723-0.11621,0.17689
		C9.55564,5.23222,8.90578,5.87611,8.2567,6.52079C8.11885,6.65771,8.11912,6.65851,8.25434,6.79338
		c0.14602,0.14563,0.29359,0.28974,0.43847,0.43648C8.7361,7.2737,8.79446,7.31002,8.7935,7.38336z"/>
	<path fill="#FE6053" d="M12.38285,5.26173c-0.38657,0.50472-0.88355,0.904-1.31986,1.36123
		c-0.19982,0.2094-0.4231,0.39751-0.58666,0.63964c-0.06024,0.12799-0.15125,0.23864-0.19921,0.37469
		c-0.08362,0.23721-0.12226,0.47834-0.10977,0.72942c0.00656,0.13181,0.00113,0.26431-0.07657,0.38087
		c-0.21747,0.29806-0.48095,0.33661-0.6844,0.10046C9.36023,8.79446,9.32699,8.735,9.32333,8.66354
		C9.31418,8.48458,9.30731,8.30552,9.29811,8.12657c-0.00317-0.0617,0.00971-0.11182,0.06451-0.15119
		c0.93641-0.67265,1.37084-1.63621,1.59516-2.72018c0.05774-0.279,0.10186-0.56016,0.09546-0.84659
		c0.04708-0.20328,0.02409-0.40867,0.01515-0.61315c-0.00234-0.05356-0.01622-0.10279,0.02926-0.14607
		c0.25255-0.24035,0.48186-0.50442,0.75242-0.7264c0.12226-0.02284,0.21307,0.02692,0.29796,0.11167
		c0.16001,0.15978,0.26126,0.35626,0.36831,0.54984C12.81074,4.17015,12.73855,4.72705,12.38285,5.26173z"/>
	<path fill="#FEFEFE" d="M8.7935,7.38336C8.58947,7.17689,8.38936,6.96636,8.17949,6.76591
		C8.09405,6.6843,8.08315,6.63876,8.17572,6.54809c0.68009-0.66611,1.35368-1.33876,2.02879-2.00988
		c0.04079-0.04055,0.07698-0.08567,0.1153-0.12866c0.09531-0.09291,0.19061-0.18581,0.28592-0.27872
		c0.1321,0.05794,0.05401,0.17238,0.07164,0.26109c-0.03715,0.27574-0.06281,0.55265-0.11598,0.82701
		c-0.09808,0.50602-0.27141,0.98312-0.51673,1.43547C9.99207,6.75136,9.93367,6.84621,9.83964,6.91183
		c-0.17677,0.24243-0.37581,0.4634-0.60826,0.65612C9.13215,7.65022,9.06086,7.6664,8.97479,7.55588
		C8.92415,7.49086,8.85456,7.44038,8.7935,7.38336z"/>
	<path fill="#FEFEFE" d="M6.03982,8.66125C6.56746,8.14124,7.09485,7.62098,7.62312,7.1016
		C7.67549,7.0501,7.73324,7.00399,7.7885,6.95538c0.02859-0.0042,0.05302,0.00677,0.0725,0.02518
		c0.20778,0.19628,0.41095,0.39716,0.60811,0.60398C8.48386,7.6,8.49144,7.62011,8.49283,7.64189
		c0.03097,0.08307-0.04555,0.1098-0.08571,0.1503c-0.45225,0.45606-0.90676,0.9099-1.36066,1.36435
		C6.95085,9.24738,6.85599,9.33901,6.7595,9.42892C6.5317,9.64117,6.22534,9.64782,6.01714,9.446
		C5.7988,9.23435,5.79342,8.9559,6.00261,8.71139C6.01611,8.69561,6.02747,8.67801,6.03982,8.66125z"/>
	<path fill="#202020" d="M3.49893,3.48867C3.25882,3.48882,3.06372,3.29176,3.06796,3.05338
		c0.00412-0.2315,0.19718-0.41983,0.4305-0.41995C3.73835,2.63331,3.93362,2.83059,3.9294,3.06881
		C3.9253,3.30047,3.73249,3.48853,3.49893,3.48867z"/>
	<path fill="#202020" d="M27.81369,7.07236c-0.2912,0.06892-0.45018-0.00071-0.58243-0.25509
		c-0.05619-0.23787,0.01946-0.42662,0.20996-0.52397c0.17303-0.08842,0.40086-0.04562,0.52259,0.09816
		c0.13777,0.16274,0.13993,0.38135,0.0097,0.55294C27.93022,7.00144,27.86607,7.02874,27.81369,7.07236z"/>
	<path fill="#95000D" d="M10.63423,4.40804c-0.027-0.09063,0.0335-0.19012-0.0285-0.27721
		c0.06387-0.06144,0.12733-0.12331,0.19186-0.18406c0.01835-0.01728,0.03712-0.04115,0.06734-0.02818
		c0.0306,0.01313,0.02282,0.0435,0.02538,0.06849c0.01454,0.14211-0.01732,0.28083-0.03151,0.42084
		c0,0-0.00008,0.00023-0.00008,0.00023C10.78386,4.4641,10.70903,4.46322,10.63423,4.40804z"/>
	<path fill="#97020F" d="M25.64643,4.18585c0.04519-0.00442,0.0851,0.01108,0.12351,0.03222
		c-0.00661,0.35398-0.12379,0.67455-0.3031,0.97528c-0.01741,0.02919-0.05482,0.04663-0.08295,0.06952
		C25.56283,4.92582,25.66703,4.57082,25.64643,4.18585z"/>
	<path fill="#FE6053" d="M18.9644,5.13602c-0.56946,0.77005-1.35191,1.34101-1.96395,2.0711
		c-0.04323,0.05156-0.07382,0.11356-0.11029,0.1707c-0.19399,0.35035-0.2671,0.72588-0.2394,1.123
		c0.00713,0.10218-0.01041,0.19911-0.08157,0.2797c-0.15327,0.19257-0.30156,0.25423-0.47552,0.19772
		c-0.19789-0.06428-0.26469-0.20332-0.29413-0.45483c-0.04014-0.34294,0.06629-0.5691,0.35272-0.79274
		c0.49718-0.38818,0.79676-0.9384,1.02534-1.5207c0.29724-0.75721,0.40839-1.54489,0.38637-2.35408
		c-0.00185-0.06805,0.00561-0.13636,0.00878-0.20452c0.24189-0.23403,0.48375-0.46808,0.72561-0.70213
		c0.15026-0.0653,0.25966-0.01225,0.36101,0.10559c0.52486,0.61027,0.59648,1.28691,0.31102,2.01892
		C18.9684,5.0945,18.96639,5.11526,18.9644,5.13602z"/>
	<path fill="#FEFEFE" d="M22.75974,7.03582c-0.18018,0.1997-0.35431,0.4046-0.57343,0.56661
		c-0.07142,0.05281-0.11371,0.04732-0.1732-0.01273c-0.28658-0.2892-0.57409-0.57763-0.86726-0.86019
		c-0.07496-0.07225-0.04057-0.10623,0.0143-0.16024c0.3958-0.3896,0.78945-0.78135,1.18317-1.17303
		c0.04089-0.04068,0.07777-0.08533,0.11651-0.12813c0.39247-0.36661,0.76991-0.74814,1.14273-1.13425
		c0.10499,0.01559,0.07208,0.10171,0.07279,0.15865c0.00381,0.30659-0.04985,0.60754-0.10269,0.9081
		c-0.09385,0.40425-0.20684,0.80227-0.38426,1.18033C23.07631,6.61981,22.9451,6.8449,22.75974,7.03582z"/>
	<path fill="#95010E" d="M23.53016,5.22167c0.03868-0.31267,0.09921-0.62322,0.09662-0.93988
		c-0.0004-0.04942,0.02604-0.10567-0.02423-0.14792c0.06429-0.08606,0.1669-0.13645,0.22007-0.23286
		c0.12675,0.0753,0.06656,0.19995,0.05781,0.2929c-0.02862,0.30404-0.08014,0.60607-0.12732,0.90819
		c-0.00867,0.0555-0.03815,0.10779-0.05803,0.16156c0,0-0.00019,0.00023-0.00019,0.00023
		C23.62711,5.29933,23.55971,5.33325,23.53016,5.22167z"/>
	<path fill="#9B0610" d="M23.43837,7.32071c0.02027,0.10543-0.06588,0.17273-0.09858,0.25876
		c-0.10359,0.27257-0.0883,0.55435-0.09314,0.83603c-0.00245,0.14258-0.01799,0.28474-0.16621,0.36439
		c0.06022-0.19483,0.02705-0.39553,0.03787-0.59347C23.13586,7.86544,23.22029,7.56871,23.43837,7.32071z"/>
	<path fill="#9A0510" d="M12.38285,5.26173c0.17163-0.33319,0.28496-0.67944,0.26317-1.06117
		c-0.01215-0.21285-0.07268-0.4136-0.12967-0.61606c0.04253,0.05076,0.09637,0.07264,0.16266,0.06272
		c0.01058,0.00003,0.02116,0.00013,0.03174,0.00029c0.07955,0.34052,0.10516,0.68329-0.0033,1.02056
		C12.63799,4.88405,12.57403,5.10877,12.38285,5.26173z"/>
	<path fill="#FEFEFE" d="M16.34739,6.9048c-0.20205,0.24416-0.39791,0.49322-0.65601,0.68579
		c-0.07811,0.05828-0.12538,0.06516-0.19786-0.00894c-0.28134-0.28762-0.56882-0.56935-0.85532-0.85196
		c-0.04568-0.04506-0.07619-0.07506-0.01251-0.13777c0.83007-0.81739,1.65727-1.63765,2.48519-2.45719
		c0.08897,0.10028,0.05496,0.22285,0.0462,0.33238c-0.05888,0.7364-0.22229,1.44689-0.57322,2.10495
		C16.52018,6.69147,16.45202,6.81203,16.34739,6.9048z"/>
	<path fill="#FEFEFE" d="M21.51697,7.67506c-0.29067,0.29277-0.58052,0.58636-0.87225,0.87809
		c-0.29202,0.29201-0.58591,0.58218-0.879,0.87314c-0.15224,0.15113-0.33402,0.20468-0.53986,0.14206
		c-0.20702-0.06297-0.3213-0.21992-0.37234-0.41965c-0.03992-0.15619,0.01956-0.29948,0.12674-0.40685
		c0.59823-0.59934,1.20258-1.19267,1.80484-1.78806c0.04197-0.0044,0.07003,0.02145,0.09618,0.047
		c0.20013,0.1955,0.39948,0.3918,0.59525,0.59161C21.49865,7.61497,21.51818,7.64045,21.51697,7.67506z"/>
	<path fill="#FEFEFE" d="M15.0061,7.67382c-0.2114,0.21456-0.42139,0.43051-0.63452,0.64337
		c-0.36708,0.36662-0.73405,0.73339-1.10496,1.09618c-0.31871,0.31173-0.76589,0.20178-0.91051-0.21775
		c-0.06336-0.18382,0.00104-0.34012,0.12344-0.46386c0.57328-0.57956,1.15417-1.15171,1.73171-1.72712
		c0.02818-0.02808,0.05482-0.04925,0.09641-0.03169C14.56833,7.17924,14.80792,7.4062,15.0061,7.67382z"/>
	<path fill="#9A0510" d="M16.34739,6.9048c0.34816-0.56433,0.57795-1.17279,0.6889-1.82522
		c0.05316-0.31266,0.09271-0.62656,0.07459-0.94485c0.06667-0.08534,0.13435-0.2267,0.23307-0.20149
		c0.07357,0.01879,0.03272,0.18155,0.02578,0.27681c-0.05436,0.74609-0.22481,1.4612-0.58495,2.12597
		c-0.09824,0.18133-0.22046,0.34472-0.33931,0.51119C16.42452,6.87654,16.41925,6.95301,16.34739,6.9048z"/>
	<path fill="#9A0511" d="M10.63423,4.40804c0.07483,0.00004,0.14966,0.00007,0.22449,0.00011
		c-0.01642,0.28896-0.09084,0.56764-0.15377,0.84824c-0.10799,0.48155-0.30143,0.92855-0.56956,1.34247
		c-0.07783,0.12014-0.13869,0.26348-0.29575,0.31297c0.4449-0.67022,0.66465-1.41678,0.75902-2.20583
		C10.61055,4.60668,10.62238,4.50736,10.63423,4.40804z"/>
	<path fill="#9A0510" d="M21.51697,7.67506c-0.24396-0.24042-0.48791-0.48085-0.73187-0.72127
		c0.00461-0.00948,0.00755-0.0203,0.01407-0.02824c0.20965-0.25532,0.20971-0.25528,0.43976-0.02694
		c0.13159,0.1306,0.26327,0.26112,0.39473,0.39184c0.14629,0.14547,0.14673,0.1461-0.00701,0.29469
		C21.59279,7.61787,21.55367,7.64523,21.51697,7.67506z"/>
	<path fill="#990410" d="M8.49283,7.64189C8.25805,7.41305,8.02328,7.18421,7.7885,6.95538
		c0.2072-0.28871,0.21863-0.28906,0.46255-0.04954c0.1651,0.16211,0.33338,0.32102,0.50024,0.48137
		C8.7038,7.51076,8.61775,7.59575,8.49283,7.64189z"/>
	<path fill="#9A0510" d="M15.0061,7.67382c-0.23281-0.23362-0.46562-0.46724-0.69843-0.70086
		c0.01698-0.10465,0.11387-0.14652,0.17451-0.21657c0.04541-0.05246,0.08369-0.0158,0.11911,0.0194
		c0.19107,0.18987,0.38065,0.38125,0.57438,0.56842c0.07024,0.06786,0.06713,0.12328-0.0041,0.18377
		C15.11553,7.57557,15.06119,7.62513,15.0061,7.67382z"/>
	<path fill="#9A0612" d="M23.53016,5.22167c0.04167,0.065,0.10819,0.03443,0.16474,0.04222
		c-0.05944,0.34279-0.19513,0.65903-0.34614,0.96936c-0.11028,0.22663-0.25027,0.4359-0.40249,0.63644
		c-0.05006,0.06594-0.1029,0.13463-0.18653,0.16613C23.15348,6.48839,23.37604,5.86935,23.53016,5.22167z"/>
	<path fill="#9A0610" d="M10.09078,8.74757c0.05451-0.27936-0.00334-0.56668,0.06281-0.84565
		c0.05671-0.23916,0.15832-0.45448,0.32273-0.63933c-0.01298,0.14104-0.12596,0.23776-0.16267,0.37104
		c-0.06962,0.25277-0.05807,0.50899-0.06349,0.76572C10.24732,8.53413,10.24189,8.67592,10.09078,8.74757z"/>
	<path fill="#9B0711" d="M16.56919,8.78052c0.05719-0.19124,0.02715-0.38783,0.03641-0.58202
		c0.01435-0.30094,0.08663-0.58227,0.28456-0.82062c0.01176,0.13622-0.08072,0.24273-0.10867,0.37051
		c-0.05229,0.23905-0.0438,0.4767-0.04736,0.71588C16.73216,8.59731,16.69034,8.7091,16.56919,8.78052z"/>
	<path fill="#9A0612" d="M6.96381,8.81473c-0.03929,0.14324-0.1441,0.1853-0.27939,0.17324
		c-0.12103-0.01079-0.1946-0.08505-0.21973-0.19717C6.43524,8.65945,6.47594,8.55286,6.60898,8.49519
		c0.07847-0.0327,0.14025-0.01589,0.18588,0.05809c0.03032,0.04916,0.07402,0.08613,0.1217,0.11859
		C6.96873,8.70737,6.99965,8.75031,6.96381,8.81473z"/>
	<path fill="#9A0712" d="M7.66808,8.12221c-0.0416,0.14591-0.15363,0.17233-0.284,0.16039
		C7.27003,8.27215,7.20346,8.19945,7.17632,8.09577C7.14219,7.96545,7.17936,7.85963,7.30793,7.79666
		c0.07832-0.02853,0.1431-0.01749,0.18966,0.05873c0.03044,0.04983,0.07474,0.0874,0.12318,0.1198
		C7.67574,8.01195,7.69807,8.05869,7.66808,8.12221z"/>
	<path fill="#9A110E" d="M7.66808,8.12221C7.66407,7.98207,7.48365,7.99218,7.45457,7.87794
		C7.4327,7.79202,7.37045,7.79907,7.30792,7.79666c0.10868-0.06612,0.21269-0.0498,0.30086,0.03235
		C7.69487,7.90924,7.73209,8.00785,7.66808,8.12221z"/>
	<path fill="#9B1411" d="M6.96381,8.81473c-0.00537-0.1373-0.183-0.12611-0.21148-0.23902
		C6.73115,8.49177,6.67157,8.49569,6.60897,8.49519c0.10966-0.0623,0.2124-0.04362,0.29629,0.04173
		C6.98045,8.61342,7.02641,8.70522,6.96381,8.81473z"/>
	<path fill="#9B0813" d="M19.96249,8.82263c-0.03954,0.13614-0.14088,0.17607-0.27002,0.16612
		c-0.12101-0.00933-0.19566-0.08002-0.22371-0.19352c-0.0329-0.13315,0.00826-0.23787,0.13878-0.29899
		c0.06408-0.02854,0.12293-0.02594,0.16609,0.03527c0.04272,0.06059,0.09449,0.1106,0.15545,0.15272
		C19.98021,8.71955,19.98408,8.76869,19.96249,8.82263z"/>
	<path fill="#9A0511" d="M20.666,8.13006c-0.04214,0.13802-0.14998,0.1626-0.27434,0.15294
		c-0.11434-0.00889-0.18418-0.07907-0.2118-0.18287c-0.03425-0.1287-0.00118-0.23732,0.12757-0.30211
		c0.07222-0.02966,0.13363-0.02064,0.17907,0.04832c0.03531,0.05359,0.08104,0.09721,0.13497,0.13185
		C20.68112,8.01648,20.68594,8.0694,20.666,8.13006z"/>
	<path fill="#9A100D" d="M20.666,8.13006c-0.00725-0.03014-0.00511-0.07791-0.02332-0.08746
		c-0.09657-0.05064-0.17316-0.11386-0.21829-0.21697c-0.01913-0.04372-0.07655-0.02153-0.11695-0.02761
		c0.11367-0.069,0.22033-0.05019,0.31083,0.03779C20.70371,7.91886,20.72786,8.01956,20.666,8.13006z"/>
	<path fill="#9B1310" d="M19.96249,8.82263c-0.00763-0.02948-0.00644-0.07674-0.02434-0.08549
		c-0.09759-0.04769-0.1708-0.11229-0.21547-0.21366c-0.01928-0.04376-0.07519-0.02214-0.11514-0.02725
		c0.11158-0.06386,0.21576-0.04447,0.30155,0.04217C19.98742,8.61752,20.02485,8.71313,19.96249,8.82263z"/>
	<path fill="#9A0712" d="M13.44962,8.82865c-0.04215,0.13407-0.14389,0.17104-0.27136,0.15951
		c-0.11959-0.01082-0.19325-0.08118-0.21974-0.1941c-0.03078-0.13114,0.00796-0.23605,0.1371-0.29716
		c0.0733-0.03525,0.13138-0.01778,0.17607,0.04909c0.03245,0.04855,0.0721,0.09103,0.12236,0.12123
		C13.45928,8.70642,13.47287,8.76068,13.44962,8.82865z"/>
	<path fill="#9A0511" d="M14.14774,8.14778c-0.05135,0.13538-0.16453,0.14854-0.28414,0.13272
		c-0.11121-0.0147-0.17645-0.0908-0.19767-0.19572c-0.0247-0.12214,0.00589-0.22658,0.12931-0.28616
		c0.07808-0.03432,0.14024-0.01563,0.18737,0.05483c0.0319,0.04769,0.07057,0.08906,0.11889,0.12088
		C14.16875,8.01864,14.18011,8.07742,14.14774,8.14778z"/>
	<path fill="#9A120F" d="M14.14774,8.14778c-0.00062-0.05707,0.00786-0.11189-0.07141-0.13647
		c-0.06065-0.01881-0.10371-0.07338-0.12729-0.13391c-0.02884-0.07402-0.0863-0.08388-0.1538-0.07877
		c0.11457-0.07007,0.22266-0.05222,0.31314,0.03801C14.19847,7.92648,14.22021,8.03342,14.14774,8.14778z"/>
	<path fill="#9A120F" d="M13.44962,8.82865c-0.0074-0.0344,0.00711-0.08101-0.0331-0.09868
		c-0.09624-0.04229-0.16313-0.10785-0.20596-0.20418c-0.0206-0.04633-0.07494-0.02398-0.11494-0.02889
		c0.10941-0.0633,0.21245-0.04575,0.29928,0.03753C13.48029,8.61634,13.51064,8.71609,13.44962,8.82865z"/>
</g>
</svg>
