<?xml version="1.0" encoding="utf-8"?>
<!-- Generator: Adobe Illustrator 23.0.0, SVG Export Plug-In . SVG Version: 6.00 Build 0)  -->
<svg version="1.1" id="Слой_1" xmlns="http://www.w3.org/2000/svg" xmlns:xlink="http://www.w3.org/1999/xlink" x="0px" y="0px" width="32px" height="13px"
	 viewBox="0 0 32 13" enable-background="new 0 0 32 13" xml:space="preserve">
<g>
	<path fill="#55718A" d="M0.00225,12.23626c0-2.21853,0-4.43706,0-6.65559c0.01796-0.01273,0.03751-0.01592,0.0587-0.00959
		c0.01719,0.01269,0.02963,0.02894,0.0376,0.04866c0.02848,0.09291,0.01857,0.18858,0.0186,0.28318
		c0.00063,1.96907,0.00068,3.93815-0.00001,5.90722c-0.00005,0.14318,0.00694,0.28455,0.04746,0.42321
		c0.08766,0.29992,0.29026,0.4835,0.58561,0.5732c0.14958,0.04543,0.30414,0.04441,0.45869,0.04441
		c5.20157-0.00031,10.40314-0.00042,15.60472,0.00076c0.10982,0.00002,0.22446-0.02309,0.3275,0.03955
		c0.02446,0.02752,0.02726,0.05547,0.00152,0.08389c-0.05814,0.01013-0.11681,0.00516-0.17521,0.00517
		c-5.37945,0.00025-10.75889,0.00026-16.13795,0.00026c-0.41395-0.00269-0.73975-0.27844-0.80967-0.68639
		C0.01632,12.27382,0.01794,12.25269,0.00225,12.23626z"/>
	<path fill="#224053" d="M27.59046,0.00265c0.32386,0.10065,0.64818,0.20024,0.93011,0.39753
		c0.09598,0.08981,0.21694,0.14656,0.31492,0.23302c0.04213,0.03717,0.10724,0.09228-0.02023,0.10374
		c-0.14833-0.0627-0.26842-0.17015-0.40653-0.24946c-0.42814-0.24584-0.8798-0.37452-1.38161-0.37416
		c-7.23145,0.00526-14.4629,0.00359-21.69435,0.00364c-0.11701,0-0.23431-0.00442-0.34988,0.01979
		C4.93533,0.14771,4.90621,0.12901,4.89473,0.08234c-0.00418-0.03031,0.00569-0.05643,0.02486-0.0797
		C12.47655,0.00265,20.0335,0.00265,27.59046,0.00265z"/>
	<path fill="#40586D" d="M17.14971,12.96473c-0.00078-0.02081-0.00155-0.04162-0.00233-0.06244
		c0.00674-0.00644,0.01348-0.01289,0.02015-0.01944c0.09111-0.04219,0.18836-0.02634,0.28307-0.02636
		c3.13256-0.00086,6.26513-0.00517,9.39768,0.0021c0.90301,0.0021,1.65092-0.32767,2.29342-0.94147
		c0.89009-0.85031,1.50346-1.8799,1.99246-2.99133c0.3029-0.68844,0.55177-1.39433,0.67312-2.13991
		c0.01756-0.10793-0.00974-0.22395,0.05476-0.3241c0.04656-0.03162,0.09141-0.02704,0.13486,0.00628c0,0.02113,0,0.04226,0,0.06339
		c-0.01669,0.01775-0.02211,0.04057-0.02861,0.06296c-0.03206,0.40668-0.13439,0.79955-0.25624,1.18591
		c-0.37039,1.17436-0.89765,2.27344-1.62598,3.27347c-0.17399,0.2389-0.36881,0.46122-0.55347,0.69205
		c-0.34115,0.35837-0.7181,0.67472-1.15445,0.91021c-0.37137,0.20042-0.77016,0.32469-1.20012,0.32465
		c-3.32413-0.00035-6.64826,0.00011-9.97239-0.00028C17.18511,12.98181,17.16647,12.97658,17.14971,12.96473z"/>
	<path fill="#3B556C" d="M4.91959,0.00265C4.9194,0.0236,4.91921,0.04454,4.91901,0.06549
		c-0.08219,0.06849-0.1816,0.04975-0.27546,0.04985C3.43681,0.11662,2.23007,0.11683,1.02332,0.11547
		C0.80403,0.11522,0.60156,0.15544,0.42999,0.3024C0.23077,0.47302,0.14783,0.69055,0.14818,0.94762
		c0.00105,0.78092,0.00046,1.56184,0.00036,2.34277C0.14844,3.96578,0.14898,4.64117,0.14797,5.31657
		C0.14784,5.40023,0.15886,5.48612,0.11751,5.56525C0.10465,5.58511,0.08711,5.59067,0.065,5.58204
		c-0.01024-0.00052-0.02048-0.0012-0.0307-0.00203C0.00469,5.52527,0.01947,5.46609,0.01944,5.40921
		C0.01852,3.86955,0.01868,2.32989,0.01868,0.7906c0.00296-0.40397,0.23859-0.68793,0.65411-0.78795
		C2.08839,0.00265,3.50399,0.00265,4.91959,0.00265z"/>
	<path fill="#264356" d="M31.99691,6.46808c-0.04213,0.00037-0.08426,0.00074-0.12639,0.00111
		c-0.04101,0.02632-0.07783,0.03098-0.10398-0.0197c0.0946-0.13424,0.06846-0.28203,0.04318-0.42707
		c-0.11863-0.68057-0.3442-1.32775-0.62241-1.95879c-0.32323-0.73315-0.71682-1.4271-1.1876-2.07594
		c-0.29251-0.40316-0.61979-0.77837-1.00661-1.09825c-0.05239-0.04333-0.11103-0.08405-0.12534-0.15815
		c-0.02511-0.11014-0.13667-0.13154-0.20482-0.19748c-0.0468-0.04528-0.1297-0.05282-0.14237-0.13363
		c0.48604,0.27853,0.88571,0.65841,1.23725,1.08412c1.04977,1.27127,1.76887,2.70872,2.15862,4.30761
		c0.02662,0.10919,0.01725,0.22728,0.08046,0.32753C31.99691,6.23566,31.99691,6.35187,31.99691,6.46808z"/>
	<path fill="#697682" d="M17.14971,12.96473c0.01015,0.00041,0.02031,0.0008,0.03047,0.00115
		c0.00887,0.00666,0.01194,0.01347,0.00924,0.02044c-0.00273,0.00704-0.00552,0.01056-0.0084,0.01056
		c-5.47081,0-10.94162,0-16.41243,0c-0.00746-0.0057-0.01058-0.01202-0.00936-0.01895
		c0.00127-0.00724,0.00297-0.01085,0.00509-0.01085c0.36162-0.00063,0.72324-0.00179,1.08487-0.00181
		C6.94936,12.96501,12.04954,12.96489,17.14971,12.96473z"/>
	<path fill="#535F69" d="M17.18102,12.99689c-0.00003-0.01035-0.00031-0.02069-0.00083-0.03101
		c3.2775-0.00022,6.55502-0.00246,9.83252,0.00137c0.52312,0.00061,1.00592-0.12008,1.45299-0.38788
		c0.40208-0.24085,0.76403-0.52929,1.07253-0.88202c0.01667-0.01328,0.03168-0.01163,0.04502,0.00495
		c-0.56603,0.62973-1.21441,1.12673-2.08086,1.27287c-0.01405,0.00237-0.02647,0.01427-0.03965,0.02172
		C24.0355,12.99689,20.60826,12.99689,17.18102,12.99689z"/>
	<path fill="#445B6E" d="M29.58325,11.7023c-0.01501-0.00165-0.03001-0.0033-0.04502-0.00495
		c0.58495-0.67699,1.07791-1.41443,1.46782-2.21809c0.38671-0.79707,0.705-1.61876,0.88559-2.48857
		c0.02944-0.14181,0.01912-0.2901,0.07314-0.42758c0.02255,0.01523,0.01037,0.0478,0.03214,0.06343c0,0.05282,0,0.10564,0,0.15847
		c-0.09524,0.24971-0.11541,0.51743-0.19083,0.77246c-0.42271,1.42939-1.06171,2.74858-2.00945,3.91168
		C29.73021,11.55065,29.65459,11.62476,29.58325,11.7023z"/>
	<path fill="#40596F" d="M0.00225,0.73159c0.01041,0.00062,0.02033-0.00127,0.02977-0.00567
		C0.03278,2.34396,0.03354,3.96199,0.0343,5.58002C0.02361,5.58023,0.01293,5.58045,0.00225,5.58067
		C0.00225,3.96431,0.00225,2.34795,0.00225,0.73159z"/>
	<path fill="#767F87" d="M31.99691,6.62654c-0.02834-0.01234-0.03056-0.03772-0.03214-0.06342
		c0.01071-0.01055,0.02143-0.0211,0.03214-0.03166C31.99691,6.56316,31.99691,6.59485,31.99691,6.62654z"/>
	<path fill="#44637F" d="M0.065,5.58204c0.01108-0.00053,0.02217-0.00106,0.03325-0.00158
		c0.20078-0.00713,0.37317,0.14605,0.41981,0.37439c0.01918,0.09388,0.01422,0.18933,0.01423,0.28428
		c0.00023,1.83743,0.00013,3.67487,0.00024,5.5123c0,0.0739-0.00312,0.14799,0.0047,0.22161
		c0.02509,0.23633,0.21905,0.43165,0.45697,0.4597c0.09,0.01061,0.18068,0.00607,0.27107,0.00607
		c5.06421,0.00015,10.12843,0.0001,15.19265,0.00034c0.10625,0.00001,0.2132-0.00696,0.31823,0.01487
		c0.24135,0.05016,0.40569,0.2473,0.37457,0.44729c0,0-0.00328,0.00098-0.0033,0.00098
		C11.78515,12.9021,6.42292,12.9018,1.06068,12.90197c-0.3438,0.00001-0.63502-0.11457-0.8338-0.39993
		c-0.11955-0.17161-0.16114-0.37379-0.16111-0.58389C0.06608,9.80612,0.0654,7.69408,0.065,5.58204z"/>
	<path fill="#2D4961" d="M17.15071,12.90131c-0.09489-0.31029-0.23031-0.41146-0.55219-0.41147
		c-5.16477-0.00008-10.32954-0.00299-15.49429,0.00654c-0.33505,0.00062-0.63228-0.29437-0.62989-0.62139
		c0.01396-1.91106,0.00686-3.82227,0.00683-5.73344c-0.00001-0.32156-0.07917-0.43742-0.38294-0.5611
		C0.09817,4.02238,0.09779,2.4643,0.09819,0.90622c0.00012-0.47818,0.36436-0.83981,0.8459-0.84005
		c1.32498-0.00066,2.64996-0.0005,3.97493-0.00068c0.00131,0.02604,0.00665,0.05009,0.03223,0.06412
		c0.04718,0.01833,0.07453,0.0584,0.10457,0.09509c0.09342,0.11413,0.21542,0.16802,0.36191,0.17205
		C5.49755,0.39895,5.57737,0.3983,5.65719,0.3983c7.02476,0.00005,14.04954,0.00482,21.07427-0.00904
		c0.55959-0.0011,1.03779,0.15816,1.51309,0.41069c0.69687,0.37025,1.19595,0.9361,1.64209,1.56422
		c0.43947,0.61874,0.72292,1.31471,1.03162,1.9985c0.20493,0.45392,0.37786,0.92019,0.48082,1.40819
		c0.05556,0.26332,0.19675,0.47313,0.37416,0.66587c0.02349,0.03718,0.06204,0.02988,0.09727,0.03244
		c0.01047,0.39972-0.09508,0.78104-0.2064,1.15764c-0.26049,0.88128-0.62954,1.71888-1.08922,2.51546
		c-0.26581,0.46062-0.56644,0.89803-0.91937,1.30019c-0.27618,0.3147-0.56461,0.61547-0.90505,0.86036
		c-0.44413,0.31948-0.92633,0.53758-1.48892,0.57472c-0.26537,0.01752-0.52958,0.02252-0.79411,0.0227
		C23.36187,12.90233,20.25629,12.90143,17.15071,12.90131z"/>
	<path fill="#123247" d="M31.77324,6.43674c-0.26312-0.1191-0.35271-0.36259-0.40735-0.60972
		c-0.16984-0.76821-0.50239-1.47338-0.82302-2.18464c-0.25038-0.55542-0.56479-1.06906-0.92452-1.56276
		c-0.57652-0.79122-1.34566-1.29998-2.2594-1.61679c-0.06256-0.02169-0.13627-0.01587-0.2048-0.01588
		C19.9227,0.44633,12.69125,0.44611,5.4598,0.44748C5.21793,0.44753,5.03774,0.36653,4.95125,0.12961
		c0.00577-0.04409,0.03165-0.06375,0.07578-0.06324C5.07492,0.06693,5.12281,0.06602,5.1707,0.06602
		c7.31127-0.00002,14.62255,0.0016,21.93382-0.00302c0.60312-0.00038,1.11278,0.22552,1.59488,0.54996
		c0.05691,0.0383,0.11229,0.07884,0.16838,0.11834c0.65288,0.51284,1.15169,1.15698,1.58487,1.85349
		c0.47792,0.76845,0.86948,1.57963,1.14829,2.44023c0.13395,0.41346,0.26266,0.83117,0.26823,1.27268
		C31.87001,6.36564,31.88414,6.44409,31.77324,6.43674z"/>
	<path fill="#3B556B" d="M27.81405,11.9194c-0.18305,0.16484-0.41986,0.15144-0.64095,0.18915
		c-0.03618,0.00617-0.07434,0.0009-0.11159,0.0009c-8.62529,0-17.25058,0-25.87586,0c-0.29592,0-0.32124-0.02461-0.32124-0.31256
		C0.8644,8.23723,0.86439,4.67757,0.86442,1.11792c0-0.25607,0.03558-0.2912,0.29485-0.29121
		C9.80584,0.8267,18.45241,0.82635,27.09898,0.82833c0.27732,0.00006,0.54353,0.06247,0.77901,0.22011
		c-0.06152,0.04942-0.12169,0.01768-0.1801-0.00539c-0.21048-0.08313-0.42745-0.11034-0.65455-0.11027
		C18.46322,0.93532,9.8831,0.93492,1.30298,0.93494c-0.32944,0-0.32951,0.00008-0.32953,0.32743
		C0.97338,2.92022,0.97349,4.57808,0.97353,6.23593c0,0.07327-0.01147,0.14905,0.03955,0.21325
		c0.02937,0.05882,0.03019,0.12243,0.03024,0.18574C1.0441,7.57916,1.04446,8.52339,1.04317,9.46763
		C1.0431,9.52039,1.04086,9.57314,1.0306,9.62513c-0.04977,0.19073-0.01649,0.38516-0.02527,0.5777
		c-0.00547,0.11997,0.00845,0.24061-0.01201,0.36021c-0.04116,0.2149-0.01405,0.43182-0.01879,0.64769
		c-0.00463,0.21117,0.00088,0.42257-0.00158,0.63381c-0.00126,0.1084,0.05048,0.15408,0.15357,0.15579
		c0.04789,0.00079,0.09578,0.00087,0.14368,0.00087c8.62639,0.00003,17.25277-0.00017,25.87916,0.00142
		c0.17292,0.00003,0.33847-0.0218,0.4993-0.08376C27.70306,11.89791,27.75912,11.87388,27.81405,11.9194z"/>
	<path fill="#3C566C" d="M0.98467,6.4365C0.96503,6.44453,0.93647,6.45428,0.93163,6.42932
		c-0.00793-0.0408-0.00334-0.08407-0.00334-0.1263c-0.00007-1.73227-0.0001-3.46454-0.00001-5.19681
		c0.00001-0.2159,0.00032-0.21613,0.2237-0.21613c8.68369-0.00004,17.36737,0.00019,26.05106-0.00151
		c0.18596-0.00004,0.3541,0.05797,0.52351,0.11833c0.04979,0.01774,0.09529,0.04764,0.15144,0.04155
		c0.2265,0.07508,0.40225,0.23035,0.58217,0.37474c0.61598,0.49434,1.04236,1.13886,1.44635,1.80314
		c0.38788,0.63778,0.68971,1.31316,0.92676,2.0172c0.12388,0.36792,0.24591,0.74228,0.25808,1.13266
		c0.00726,0.23299-0.04317,0.46833-0.10167,0.69765c-0.1842,0.722-0.45702,1.41256-0.78338,2.08028
		c-0.16282,0.33314-0.33558,0.66619-0.57204,0.95875c-0.03704,0.09459-0.10953,0.16715-0.15989,0.25346
		c-0.01064,0.01058-0.02129,0.02115-0.03193,0.03173c-0.04251,0.06345-0.07894,0.13091-0.12772,0.1902l0.00008-0.00003
		c-0.28934,0.38288-0.62215,0.7249-0.99305,1.02989c-0.09694,0.07971-0.20723,0.14275-0.31619,0.20614
		c-0.02121,0.0106-0.04242,0.02121-0.06363,0.03181c-0.03605,0.03424-0.08711,0.03863-0.12794,0.06338
		c0,0,0.00005-0.00003,0.00006-0.00003c-0.51116,0.20747-1.04791,0.12318-1.57399,0.12347
		c-8.35214,0.00459-16.70428,0.00323-25.05642,0.00322c-0.25535,0-0.25538-0.00004-0.2554-0.24801
		c-0.00003-0.35906-0.00092-0.71812,0.00095-1.07717c0.00029-0.05548-0.02126-0.1175,0.0308-0.1644
		c0.07168,0.08171,0.02931,0.19169,0.07125,0.28094c0.02667,0.28979,0.00809,0.58017,0.01241,0.87024
		c0.0037,0.24848,0.00696,0.25481,0.26172,0.25485c3.1373,0.00039,6.27459,0.00021,9.41189,0.00023
		c0.88801,0,1.77603,0.00007,2.66404-0.00008c0.06381-0.00001,0.12762-0.00107,0.19124,0.00536
		c2.85007,0.00362,5.70013,0.00136,8.55018,0.00104c1.51538-0.00017,3.03077,0.00546,4.54572-0.00415
		c0.29671,0.01037,0.59306,0.03027,0.88496-0.05962c0.35968-0.11076,0.65568-0.321,0.92914-0.56684
		c0.48891-0.43953,0.87762-0.9594,1.21325-1.51964c0.52179-0.87098,0.92126-1.79327,1.17194-2.77728
		c0.03786-0.14864,0.06084-0.29972,0.08267-0.45143c0.02916-0.22409-0.00821-0.44217-0.05826-0.65885
		c-0.12169-0.52683-0.30175-1.03424-0.52178-1.52791c-0.37644-0.8446-0.84032-1.63717-1.44688-2.34074
		c-0.31274-0.36276-0.66216-0.68484-1.10368-0.89605c-0.23027-0.11015-0.46678-0.16577-0.72267-0.16572
		c-7.5117,0.00156-15.02339,0.0012-22.53509,0.00136c-0.06386,0-0.1277,0.00049-0.19157-0.0024
		C4.04547,1.00094,3.72036,1.01677,3.39566,0.99046C3.21893,0.94331,3.03844,0.96761,2.85998,0.96823
		C2.64432,0.96898,2.42745,0.94498,2.21289,0.98656C2.12468,1.00301,2.03559,1.00287,1.94636,1.00032
		C1.8089,0.99158,1.67134,1.00386,1.5339,0.9994c-0.11106,0.0048-0.22238,0.00634-0.33333,0.0025
		C1.08431,0.99787,1.04031,1.04982,1.04104,1.1621c0.00176,0.2732,0.00147,0.54643,0,0.81965
		c-0.00031,0.0578-0.00158,0.11563-0.01356,0.17265c-0.03625,0.32325-0.03893,0.64627,0.0031,0.96923
		c0.01347,0.06765,0.01325,0.13613,0.01329,0.2045c0.00045,0.95225,0.00094,1.9045-0.00092,2.85675
		C1.04278,6.27146,1.06367,6.36639,0.98467,6.4365z"/>
	<path fill="#3B556B" d="M28.00556,11.82424c0.33332-0.23922,0.64182-0.50602,0.92367-0.804
		c0.13285-0.14045,0.22966-0.31223,0.38557-0.43203c-0.03478,0.15409-0.16523,0.24128-0.25995,0.34989
		c-0.28426,0.32599-0.59215,0.62915-0.95792,0.86737C28.07275,11.82123,28.0363,11.81842,28.00556,11.82424z"/>
	<path fill="#3B556B" d="M29.47438,10.36631c0.01202-0.11014,0.09805-0.17428,0.15988-0.25346
		C29.62518,10.22481,29.56455,10.30474,29.47438,10.36631z"/>
	<path fill="#3B556B" d="M29.31472,10.58824c0.0204-0.07807,0.06012-0.14336,0.12772-0.1902
		C29.42952,10.48106,29.39129,10.54733,29.31472,10.58824z"/>
	<path fill="#3B556B" d="M27.814,11.91943c0.03246-0.04138,0.07712-0.05849,0.12793-0.06338
		C27.91752,11.91344,27.86876,11.9224,27.814,11.91943z"/>
	<path fill="#8AABB6" d="M13.5708,12.01132c-0.05846,0.00115-0.11693,0.00329-0.17539,0.00329
		c-4.06326,0.00016-8.12652,0.00015-12.18978,0.00013c-0.21466,0-0.21412-0.00007-0.21489-0.20994
		c-0.00122-0.33249-0.00326-0.66498-0.00495-0.99747c-0.01589-0.38893-0.01388-0.77788-0.00097-1.16683
		C0.9848,8.57251,0.98476,7.5045,0.9847,6.4365c0.00021-1.11027,0.00045-2.22054,0.00069-3.3308
		C1.00184,2.90729,0.97797,2.7076,1.00438,2.50945c0.09234-0.11887,0.22435-0.06915,0.34219-0.07961
		C1.38114,2.43177,1.41604,2.43068,1.45055,2.4345c0.02434,0.00156,0.04829,0.00609,0.07174,0.01271
		c0.03692,0.01149,0.07363,0.02405,0.1099,0.03801c0.04373,0.01931,0.08438,0.04358,0.12149,0.07392
		c0.03351,0.02796,0.0657,0.05715,0.09593,0.08874c0.13567,0.13574,0.15023,0.30695,0.15013,0.48509
		c-0.0009,1.6162-0.00063,3.23239-0.00046,4.84859c0.00001,0.1426-0.00387,0.2853,0.00171,0.42779
		c0.01406,0.35939,0.1636,0.63998,0.48953,0.81545C2.65459,9.31311,2.83334,9.33438,3.01588,9.3347
		c0.55873,0.00097,1.11747-0.00086,1.6762,0.00077c0.42007,0.00122,0.65015,0.18178,0.75338,0.58644
		c0.10775,0.42242,0.40574,0.67012,0.85269,0.70834c0.07432,0.00635,0.1489,0.00416,0.22339,0.00416
		c1.76666,0.00008,3.53332-0.00002,5.29999,0.00029c0.09036,0.00002,0.18097-0.00476,0.27073,0.00783
		c0.09821,0.01578,0.14543,0.09821,0.20572,0.16116c0.14814,0.15467,0.32244,0.24893,0.54146,0.2499
		c0.14941,0.00877,0.28154-0.03865,0.40606-0.11712c0.05624-0.03544,0.10773-0.091,0.18687-0.0669
		c0.12816,0.10193,0.16968,0.24455,0.18225,0.39724c0.00891,0.10821,0.00437,0.21734,0.00227,0.326
		c0.00006,0.05159,0.00112,0.10326-0.00106,0.15485c-0.00021,0.03349,0.00075,0.06706-0.00104,0.10055
		c-0.00026,0.03327-0.00063,0.06656-0.00674,0.09948C13.60267,11.97294,13.5893,11.99362,13.5708,12.01132z"/>
	<path fill="#424F5A" d="M0.98483,9.64051c0.00033,0.38895,0.00067,0.7779,0.00098,1.16684
		C0.93367,10.72814,0.97216,10.63976,0.96,10.55651c0.00007-0.25537-0.0007-0.51075,0.00093-0.76612
		C0.96125,9.73993,0.94487,9.68533,0.98483,9.64051z"/>
	<path fill="#5E898C" d="M4.3764,0.9549c0.07445-0.00075,0.14891-0.00216,0.22337-0.00216
		c7.46832-0.0001,14.93664,0.00248,22.40495-0.00551c0.53447-0.00057,0.96786,0.1936,1.36559,0.51166
		c0.66493,0.53173,1.13573,1.22076,1.55062,1.94621c0.46253,0.80875,0.83198,1.65924,1.03132,2.57378
		c0.0466,0.21379,0.09898,0.43015,0.02375,0.6496c-0.05408-0.06237-0.12032-0.09353-0.20528-0.0863
		c-0.08905,0.00757-0.1754-0.01587-0.26252-0.02943c-0.02422-0.00084-0.04839-0.00165-0.07261-0.00193
		c-0.03258-0.00029-0.06513-0.001-0.09769-0.00193c-0.03298,0.00002-0.06572-0.00264-0.0982-0.00826
		c-0.04832-0.01037-0.09674-0.02014-0.14644-0.02237c-0.24808-0.03395-0.49192-0.08684-0.73239-0.15603
		c-0.39769-0.11443-0.7349-0.32539-1.02329-0.61878c-0.3541-0.36025-0.7375-0.68348-1.18252-0.9319
		c-0.39909-0.22278-0.83615-0.33542-1.27124-0.45681c-0.75977-0.21197-1.53345-0.34845-2.31807-0.42712
		c-0.06901-0.00692-0.13808-0.00644-0.20719-0.00646c-0.59036-0.00014-1.18082-0.00652-1.77104,0.00249
		c-0.32159,0.00491-0.5961-0.08451-0.82055-0.31555c-0.01512-0.01557-0.03504-0.02352-0.05438-0.03219
		c-0.09872-0.06232-0.11025-0.17255-0.14504-0.26852c-0.02116-0.05836-0.02761-0.12199-0.05825-0.17767
		c-0.12879-0.32944-0.26848-0.65457-0.4021-0.98215c-0.075-0.18387-0.17258-0.34835-0.35672-0.45043
		c-0.30347-0.16822-0.57192-0.14797-0.84017,0.07056c-0.035,0.02851-0.05973,0.05895-0.06329,0.10443
		c-0.11999,0.12955-0.29238,0.20494-0.37163,0.37825c-0.08307,0.18167-0.1505,0.36928-0.23021,0.55203
		c-0.0314,0.072-0.0559,0.15066-0.15183,0.16494c-0.12712,0.01615-0.25458,0.00891-0.38176,0.00899
		c-1.06623,0.00066-2.13247-0.00005-3.1987,0.00109c-0.08725,0.00009-0.18531-0.02151-0.23911,0.08034
		c-0.07432,0.07594-0.09499-0.00174-0.11605-0.04593c-0.02821-0.05919-0.02721-0.12947-0.06262-0.18715
		c-0.08778-0.23615-0.19935-0.46303-0.28704-0.69932c-0.10333-0.27845-0.30514-0.44508-0.58532-0.53022
		c-0.20992-0.06379-0.57517,0.08579-0.66585,0.27603c-0.10565,0.12228-0.26791,0.184-0.34793,0.33623
		c-0.08092,0.15394-0.13617,0.3178-0.20735,0.47526c-0.02736,0.06053-0.04368,0.13381-0.13275,0.13686
		c-0.11753-0.02568-0.20052-0.10329-0.26051-0.19671c-0.25842-0.40246-0.61917-0.52085-1.09743-0.51397
		C8.78298,2.09368,7.05449,2.07886,5.32621,2.07847c-0.5382-0.00012-0.80998-0.18503-1.00936-0.6835
		c-0.01019-0.03546-0.0141-0.07181-0.01401-0.10855C4.30212,1.25195,4.30109,1.21732,4.30313,1.1828
		c0.00035-0.03322,0.00249-0.06638,0.00883-0.09913C4.32171,1.03505,4.34031,0.99063,4.3764,0.9549z"/>
	<path fill="#628B8E" d="M30.49616,6.46812c0.11805,0.02584,0.23746,0.04257,0.35817,0.0308
		c0.10239-0.00999,0.1305,0.04068,0.12165,0.12954c-0.00442,0.26093-0.08261,0.50783-0.15705,0.7534
		c-0.36223,1.1949-0.89685,2.30659-1.66569,3.29812c-0.35094,0.45259-0.75397,0.85656-1.26488,1.13721
		c-0.36309,0.19945-0.75861,0.21699-1.1602,0.19503c-0.0109-0.01224-0.02288-0.03068-0.01573-0.04227
		c0.17192-0.27847,0.26195-0.6187,0.59572-0.77546c0.12086-0.05677,0.24789-0.09589,0.37479-0.13413
		c0.25075-0.07557,0.45781-0.21816,0.64788-0.39184c0.46277-0.42287,0.81473-0.92635,1.12939-1.46435
		c0.40064-0.68501,0.68463-1.4158,0.93404-2.16317C30.45636,6.85486,30.48177,6.66251,30.49616,6.46812z"/>
	<path fill="#649093" d="M30.49616,6.46812c0.08324,0.18779-0.00025,0.36535-0.05124,0.53638
		c-0.19153,0.64235-0.43252,1.26884-0.74727,1.86069c-0.36444,0.68529-0.77393,1.34429-1.37083,1.86488
		c-0.20638,0.17999-0.43233,0.32331-0.70021,0.39103c-0.35008,0.0885-0.61505,0.26847-0.73491,0.62539
		c-0.03284,0.0978-0.14131,0.15706-0.16354,0.26577c-0.71766,0.00082-1.43533,0.00234-2.15299,0.00238
		c-3.59904,0.00025-7.19808,0.00013-10.79712-0.00002c-0.06907,0-0.13815-0.00212-0.20723-0.00326
		c0.00127-0.02005,0.00255-0.04007,0.00383-0.0601c0.07776-0.06538,0.17186-0.04574,0.26041-0.04578
		c2.13881-0.00098,4.27762-0.00075,6.41642-0.00076c1.87811,0,3.75622-0.00001,5.63432,0.00003
		c0.11703,0,0.234,0.0034,0.35099,0.00603c0.23831,0.00535,0.44131-0.06269,0.55532-0.29224
		c0.1541-0.31027,0.38881-0.51573,0.73366-0.60657c0.41024-0.10806,0.71837-0.37445,0.99741-0.6802
		c0.56312-0.61704,0.97397-1.32602,1.31171-2.08383c0.17878-0.40115,0.30991-0.81859,0.46979-1.22592
		c0.07007-0.17853,0.0614-0.37459,0.12761-0.55378C30.45358,6.46818,30.47487,6.46815,30.49616,6.46812z"/>
	<path fill="#628B8F" d="M1.37497,2.47266C1.2593,2.48822,1.13757,2.44531,1.0268,2.50817
		C0.95964,2.39561,1.00532,2.27286,0.99447,2.15522C0.99341,1.79915,0.99523,1.44304,0.98946,1.08704
		C0.98782,0.98608,1.01795,0.945,1.12368,0.95093C1.26044,0.95861,1.3979,0.95395,1.53506,0.9546
		C1.5689,1.00366,1.54267,1.04738,1.51628,1.08512C1.4332,1.20393,1.421,1.33729,1.42187,1.47582
		c0.00168,0.26773,0.00095,0.53548,0.00019,0.80322C1.42186,2.34701,1.42681,2.4168,1.37497,2.47266z"/>
	<path fill="#679397" d="M4.3764,0.9549c0.00543,0.04577-0.01031,0.08628-0.03168,0.12538
		C4.27786,1.13915,4.19562,1.12685,4.117,1.12694C3.42707,1.12768,2.73713,1.1269,2.0472,1.12754
		c-0.31805,0.0003-0.43188,0.11278-0.43273,0.42597C1.6138,1.80109,1.61742,2.04873,1.61224,2.29622
		C1.61086,2.36207,1.63979,2.45077,1.53393,2.47581c-0.02099-0.00067-0.04199-0.00133-0.06298-0.002
		C1.42821,2.42714,1.42468,2.36929,1.42458,2.31084c-0.0005-0.28429-0.00161-0.56858,0.00061-0.85286
		c0.0005-0.06351,0.01159-0.12582,0.02654-0.18732c0.04409-0.18142,0.14072-0.26281,0.32702-0.28845
		c0.05683-0.00782,0.11678-0.00125,0.17078-0.02743C2.03572,0.95284,2.1219,0.95091,2.20809,0.94898
		c0.39192-0.01818,0.78385-0.01726,1.17579-0.0006C3.71472,0.95055,4.04556,0.95273,4.3764,0.9549z"/>
	<path fill="#659093" d="M1.94953,0.95477C1.8618,1.02198,1.74201,0.98846,1.65237,1.0461
		c-0.15158,0.09748-0.17796,0.25394-0.18,0.41404C1.46808,1.79799,1.471,2.13593,1.47095,2.47382
		C1.43896,2.47344,1.40697,2.47307,1.37497,2.47268c0.00009-0.30996,0.01012-0.62032-0.00309-0.92971
		C1.36257,1.32474,1.40574,1.13031,1.53506,0.95459C1.67321,0.95466,1.81137,0.95472,1.94953,0.95477z"/>
	<path fill="#424F5A" d="M0.99447,2.15522c0.06507,0.11275,0.01111,0.23623,0.03232,0.35295
		C1.00571,2.70686,1.06155,2.91079,0.98541,3.10571C0.94932,2.7885,0.93184,2.47148,0.99447,2.15522z"/>
	<path fill="#424F5A" d="M3.38389,0.94838C2.99194,0.9486,2.59999,0.94882,2.20806,0.94901
		c0.06046-0.05055,0.13238-0.02518,0.19861-0.02593c0.2753-0.00309,0.55066-0.00216,0.82598-0.00053
		C3.28367,0.92286,3.33957,0.90541,3.38389,0.94838z"/>
	<path fill="#72A2A6" d="M20.72534,3.52032c0.00574-0.04653,0.02358-0.05622,0.05463-0.01635
		c0.18625,0.23921,0.43719,0.33542,0.7353,0.33405c0.4201-0.00194,0.84048,0.00914,1.26027-0.00247
		c0.91234-0.02522,1.80386,0.10997,2.68482,0.32755c0.47728,0.11788,0.95606,0.23134,1.41196,0.42333
		c0.38545,0.16233,0.72559,0.39103,1.03733,0.66304c0.25869,0.22571,0.50001,0.47168,0.76527,0.68916
		c0.30606,0.25093,0.68291,0.35209,1.06342,0.43317c0.12371,0.02636,0.24935,0.04387,0.3741,0.06543
		c0.03099,0.0627,0.00703,0.12432-0.00463,0.18577c-0.10324,0.54403-0.31318,1.05273-0.53973,1.55362
		c-0.29477,0.65174-0.64033,1.27545-1.10246,1.82917c-0.30419,0.36448-0.65021,0.66393-1.12794,0.78724
		c-0.33072,0.08536-0.57277,0.29401-0.73475,0.59159c-0.10116,0.18585-0.25043,0.26708-0.46672,0.26694
		c-4.11667-0.00269-8.23334-0.00192-12.35002-0.00252c-0.07373-0.00001-0.15038,0.00775-0.21262-0.04646
		c0.00415-0.25614,0.02428-0.51576-0.1613-0.73063c-0.0057-0.09586,0.05257-0.15593,0.11959-0.21137
		c0.12859-0.07826,0.20515-0.19769,0.25955-0.33184c0.52231-1.28796,1.03728-2.57886,1.56141-3.86609
		c0.08107-0.19912,0.07703-0.37642-0.00541-0.57638c-0.36055-0.87451-0.71043-1.75338-1.06287-2.63119
		c-0.0267-0.06649-0.07431-0.13122-0.0411-0.2102c-0.04119-0.13024,0.00409-0.16232,0.14109-0.1616
		c1.25311,0.0066,2.50626,0.00494,3.7594,0.00569c0.03797,0.06528,0.00098,0.12327-0.02138,0.18037
		c-0.3811,0.97338-0.76669,1.94509-1.17425,2.90782c-0.12724,0.30057-0.13412,0.57931-0.00864,0.88427
		c0.50426,1.22557,0.99187,2.45787,1.49095,3.68556c0.12337,0.30347,0.34893,0.48395,0.68727,0.50647
		c0.26371,0.01009,0.46443-0.10509,0.62054-0.30813c0.02234-0.02905,0.04178-0.06022,0.07497-0.07896
		c0.13041-0.07544,0.20957-0.19345,0.26393-0.32731c0.52622-1.29574,1.0444-2.59469,1.57084-3.89034
		c0.0759-0.18681,0.07482-0.35644-0.00369-0.5461c-0.29872-0.72165-0.58788-1.44724-0.87809-2.17236
		C20.73978,3.66382,20.69227,3.59918,20.72534,3.52032z"/>
	<path fill="#72A2A6" d="M4.34451,1.36552c0.11265,0.24088,0.22876,0.47568,0.50212,0.5843
		C4.97196,1.99961,5.09608,2.0317,5.23115,2.03163C7.0921,2.03072,8.95307,2.0349,10.81399,2.02714
		c0.30478-0.00127,0.50795,0.13411,0.68729,0.35426c0.10197,0.12518,0.18584,0.27127,0.33705,0.35089
		c0.02277,0.01199,0.0485,0.01845,0.07285,0.02747c0.03007,0.06009-0.00023,0.11353-0.02105,0.16658
		c-0.39767,1.01364-0.7992,2.02588-1.2236,3.02874c-0.13149,0.31071-0.14515,0.59728-0.01436,0.91489
		c0.49114,1.19265,0.97031,2.39019,1.4496,3.58763c0.02842,0.07099,0.08077,0.14047,0.04086,0.22485
		c-1.93035,0.00028-3.86069-0.00008-5.79104,0.0013c-0.46065,0.00033-0.8989-0.33567-0.95973-0.77804
		c-0.04417-0.32122-0.31031-0.5214-0.64139-0.52169C4.14426,9.38348,3.53803,9.38524,2.93181,9.38339
		C2.49365,9.38206,2.11698,9.1157,2.0028,8.72575C1.96898,8.61022,1.94872,8.49183,1.94884,8.36905
		c0.00173-1.75236-0.00035-3.50473,0.00346-5.25709c0.0004-0.18279-0.03397-0.34371-0.16176-0.47884
		C1.82553,2.31752,1.80047,2.0009,1.80587,1.68479c0.00505-0.29609,0.07086-0.36609,0.3656-0.36636
		c0.6484-0.00061,1.2968-0.00052,1.9452,0.00021C4.19533,1.31873,4.27784,1.30568,4.34451,1.36552z"/>
	<path fill="#FEFEFE" d="M12.14264,10.68245c-0.40966-1.02235-0.81915-2.04478-1.22911-3.06701
		c-0.11182-0.27882-0.22319-0.55784-0.3382-0.83537c-0.09805-0.23658-0.09141-0.46793,0.00431-0.70497
		c0.44593-1.10428,0.88806-2.21008,1.33155-3.31534c0.05409-0.13081,0.11464-0.25942,0.16088-0.39292
		c0.08664-0.25016,0.2447-0.43456,0.48332-0.55147c0.00422-0.00645,0.00845-0.0129,0.01261-0.01943
		c0.05573-0.02857,0.11198-0.05608,0.1702-0.08006c0.27512-0.03519,0.48741,0.09303,0.68217,0.26199
		c0.04653,0.04036,0.06483,0.09516,0.02682,0.15503c-0.46193,0.24286-0.55345,0.6727-0.55556,1.13064
		c-0.0072,1.5579-0.0027,3.11585-0.00276,4.67379c-0.00004,0.96645,0.00045,1.93289-0.00071,2.89934
		c-0.00011,0.08825,0.01573,0.1814-0.05016,0.25784C12.52171,11.09764,12.31354,10.92102,12.14264,10.68245z"/>
	<path fill="#DCDEE0" d="M12.83799,11.09451c0.00016-2.62504-0.00096-5.25008,0.00221-7.87512
		c0.00037-0.30337,0.06861-0.59103,0.23861-0.85472c0.09367-0.1453,0.24368-0.19331,0.37288-0.27926
		c0.07925,0.00637,0.09963,0.07166,0.12442,0.12807c0.09751,0.22184,0.197,0.44286,0.28899,0.66711
		c0.41407,1.03019,0.82928,2.05989,1.24462,3.08955c0.04551,0.11283,0.08184,0.22905,0.12855,0.34106
		c0.03743,0.08975,0.03066,0.16974-0.0038,0.25926c-0.42918,1.11506-0.8905,2.21742-1.33181,3.32768
		c-0.08007,0.20143-0.16114,0.40249-0.24361,0.60296c-0.02772,0.06739-0.04815,0.1414-0.11858,0.18225
		c-0.04274,0.06288-0.08548,0.12576-0.12823,0.18864C13.23964,10.99393,13.06822,11.11899,12.83799,11.09451z"/>
	<path fill="#6E9DA1" d="M13.57357,11.60259c4.1855-0.00007,8.37101-0.00157,12.5565,0.00375
		c0.22487,0.00029,0.35358-0.0863,0.45063-0.27586c0.13218-0.25817,0.3389-0.47185,0.61801-0.53749
		c0.80256-0.18877,1.25084-0.77787,1.66111-1.40388c0.46764-0.71355,0.81908-1.48655,1.07998-2.29797
		c0.06893-0.21437,0.11571-0.43575,0.17265-0.65391c0.04671-0.00599,0.08829,0.00924,0.12835,0.03068
		c0.05743,0.06946,0.04409,0.14723,0.0289,0.22634c-0.0861,0.44849-0.25639,0.86961-0.4323,1.28787
		c-0.28337,0.67377-0.62227,1.31911-1.06524,1.90424c-0.25847,0.34143-0.53145,0.67299-0.92249,0.8813
		c-0.14626,0.07791-0.3005,0.13338-0.45815,0.18063c-0.2964,0.08883-0.5118,0.27362-0.65209,0.54388
		c-0.11079,0.21343-0.27582,0.31701-0.5233,0.31687c-4.14322-0.00231-8.28643-0.00169-12.42965-0.00207
		c-0.07376-0.00001-0.15037,0.00863-0.21263-0.04587C13.57377,11.70826,13.57367,11.65543,13.57357,11.60259z"/>
	<path fill="#679397" d="M30.43228,6.46821c0.03571,0.21969-0.02224,0.43098-0.10406,0.62496
		c-0.11175,0.26492-0.19183,0.54042-0.2978,0.80718c-0.15396,0.38756-0.32859,0.76374-0.5257,1.12889
		c-0.21621,0.40054-0.46408,0.78592-0.76201,1.13093c-0.27034,0.31306-0.54607,0.63172-0.94429,0.79912
		c-0.17317,0.07279-0.35719,0.12168-0.52632,0.20205c-0.18645,0.0886-0.31492,0.2418-0.41059,0.42581
		c-0.16007,0.30786-0.25478,0.36588-0.67497,0.3648c-0.03724-0.0001-0.07449-0.0009-0.11173-0.0009
		c-4.16673,0.00003-8.33346,0.0001-12.50017,0.00018c-0.00013-0.03168-0.00029-0.06335-0.00044-0.09503
		c0.07772-0.06533,0.17175-0.04589,0.26032-0.04593c2.24982-0.00094,4.49963-0.00072,6.74945-0.00073
		c1.86155-0.00001,3.72312-0.00355,5.58464,0.00387c0.27764,0.00111,0.45915-0.08995,0.58382-0.34072
		c0.12055-0.24249,0.31267-0.43428,0.58574-0.50235c0.62636-0.15612,1.04676-0.57384,1.41796-1.06183
		c0.28915-0.38012,0.52675-0.79014,0.74374-1.21421c0.30373-0.59359,0.56318-1.20341,0.73894-1.84704
		c0.03439-0.12593,0.02641-0.26258,0.09765-0.37903C30.36838,6.46822,30.40033,6.46822,30.43228,6.46821z"/>
	<path fill="#6B989C" d="M30.33643,6.46822c-0.00793,0.29322-0.09648,0.569-0.19306,0.8415
		c-0.296,0.83518-0.67221,1.63306-1.17041,2.36887c-0.28382,0.41918-0.60207,0.8117-1.03731,1.09291
		c-0.18003,0.11632-0.38566,0.16703-0.5844,0.23359c-0.26763,0.08964-0.45837,0.26854-0.57373,0.5107
		c-0.12178,0.25563-0.30846,0.34291-0.58134,0.34268c-4.20734-0.00355-8.41468-0.00236-12.62201-0.00227
		c-0.0001-0.0317-0.00021-0.06341-0.00031-0.09511c4.20919-0.00008,8.41837-0.00144,12.62754,0.00304
		c0.24479,0.00026,0.3997-0.09196,0.50491-0.3047c0.11625-0.23505,0.29335-0.4419,0.54601-0.50376
		c0.70429-0.17242,1.17306-0.63704,1.56167-1.1951c0.61992-0.89024,1.07895-1.86026,1.37459-2.90386
		c0.0358-0.12638,0.06285-0.25552,0.05222-0.38881C30.27267,6.46801,30.30455,6.46812,30.33643,6.46822z"/>
	<path fill="#6B989C" d="M1.53393,2.47581c0.05297-0.0463,0.03156-0.10839,0.03199-0.16386
		C1.568,2.04285,1.56546,1.77371,1.56725,1.5046c0.0019-0.2871,0.14054-0.42357,0.43293-0.42399
		C2.78169,1.0795,3.56321,1.08026,4.34472,1.08028C4.34461,1.11201,4.3445,1.14374,4.3444,1.17546
		C4.27766,1.23454,4.19542,1.22195,4.1169,1.22204C3.43281,1.2228,2.74872,1.22209,2.06463,1.22263
		C1.79834,1.22284,1.71105,1.30882,1.71031,1.57018C1.70959,1.82283,1.71313,2.07553,1.70811,2.3281
		C1.7068,2.39407,1.73522,2.4825,1.62967,2.50762C1.59472,2.50604,1.5575,2.51114,1.53393,2.47581z"/>
	<path fill="#6E9DA1" d="M1.62967,2.50762C1.68263,2.46129,1.6613,2.39918,1.66171,2.34367
		C1.66375,2.06386,1.66163,1.78402,1.66297,1.5042c0.00105-0.21869,0.11268-0.32839,0.33564-0.3286
		c0.78193-0.00073,1.56386-0.0002,2.34579-0.00014c0.00004,0.03166,0.00009,0.06331,0.00013,0.09497
		C4.27775,1.32966,4.19539,1.31705,4.11676,1.31714c-0.6744,0.00079-1.34881-0.00009-2.02321,0.0007
		C1.8766,1.3181,1.80711,1.38627,1.80624,1.59827C1.80516,1.8618,1.80876,2.12538,1.80403,2.38885
		c-0.0012,0.0666,0.02605,0.15432-0.07785,0.18126C1.69401,2.54928,1.66184,2.52845,1.62967,2.50762z"/>
	<path fill="#709FA3" d="M1.72618,2.57011c0.05258-0.04665,0.03088-0.10875,0.03129-0.16424
		c0.00211-0.27992-0.00006-0.55987,0.00131-0.83981C1.75981,1.35722,1.84798,1.2709,2.06164,1.27069
		c0.76097-0.00076,1.52193-0.00028,2.28289-0.00026c-0.00001,0.0317-0.00002,0.06339-0.00003,0.09509
		C3.60147,1.3655,2.85844,1.3653,2.11541,1.36557C1.90409,1.36564,1.8546,1.41516,1.85432,1.62564
		c-0.00038,0.28973,0.00097,0.57948-0.00108,0.8692c-0.00037,0.05249,0.02612,0.12286-0.0627,0.13829
		C1.7691,2.61212,1.74764,2.59112,1.72618,2.57011z"/>
	<path fill="#FEFEFE" d="M19.12841,11.09442c-0.32596-0.00158-0.6015-0.19445-0.73047-0.51399
		c-0.25656-0.63569-0.51187-1.27188-0.76808-1.90772c-0.2503-0.62116-0.49816-1.24332-0.75303-1.86263
		c-0.10405-0.25282-0.10443-0.49506-0.00084-0.74958c0.41942-1.03051,0.83173-2.06388,1.24626-3.09635
		c0.00967-0.02409,0.01455-0.05008,0.02167-0.07517c0.06968-0.1638,0.14866-0.32442,0.20689-0.49214
		c0.0902-0.25985,0.24352-0.4601,0.49496-0.58148c0.00423-0.00645,0.00845-0.01289,0.01262-0.01942
		c0.05573-0.02857,0.11198-0.05608,0.17019-0.08005c0.27512-0.0352,0.4874,0.09304,0.68217,0.26199
		c0.04652,0.04036,0.06482,0.09516,0.02682,0.15503c-0.4619,0.24287-0.55346,0.67268-0.55557,1.13062
		c-0.00717,1.55788-0.00269,3.11582-0.00275,4.67374c-0.00004,0.96644,0.00046,1.93287-0.00072,2.89931
		C19.17841,10.92481,19.1943,11.01797,19.12841,11.09442z"/>
	<path fill="#5F6C6F" d="M13.5405,10.68334c0.52631-1.30848,1.04902-2.61841,1.58235-3.92406
		c0.09215-0.2256,0.09073-0.4263-0.00093-0.64989c-0.42321-1.03238-0.83647-2.06877-1.25284-3.10391
		c-0.01554-0.03865-0.02626-0.0792-0.03923-0.11887c0.03961-0.04253,0.09372-0.04505,0.1435-0.03871
		c0.07624,0.0097,0.11247-0.03151,0.1426-0.08845c0.09982,0.06993,0.02644,0.21606,0.12747,0.28545
		c0.38643,0.95808,0.76814,1.91808,1.16324,2.87263c0.07963,0.19237,0.06532,0.35915-0.00873,0.54216
		c-0.52781,1.30458-1.04984,2.61147-1.5804,3.91493C13.76558,10.50229,13.70162,10.64167,13.5405,10.68334z"/>
	<path fill="#5F6C6F" d="M20.72534,3.52032c0.32323,0.80092,0.64184,1.60373,0.97311,2.40136
		c0.07691,0.18518,0.06659,0.34919-0.00535,0.52709c-0.52908,1.30848-1.05305,2.61901-1.58535,3.9262
		c-0.05193,0.12752-0.11592,0.2668-0.27688,0.30845c-0.0323-0.07894,0.01451-0.14386,0.04122-0.21052
		c0.47959-1.19721,0.96426-2.3924,1.44603-3.58874c0.04545-0.11286,0.08245-0.22848,0.12409-0.34245
		c0.02738-0.07492,0.02576-0.13782-0.00181-0.21243c-0.37737-1.02135-0.81176-2.02028-1.20753-3.03433
		c-0.04156-0.1065-0.11257-0.20595-0.09909-0.32932c0.05932-0.07114,0.12206-0.0209,0.1816-0.00209
		c0.07893,0.02493,0.13668,0.09237,0.2187,0.11286c0.09585,0.0878,0.05342,0.22685,0.12309,0.32638
		C20.68243,3.43888,20.68437,3.49104,20.72534,3.52032z"/>
	<path fill="#5A6668" d="M20.53406,3.07639c-0.00928,0.07588-0.0435,0.03281-0.07129,0.01421
		c-0.09662-0.06468-0.1956-0.12387-0.31414-0.13995c-0.03185,0.00597-0.05145-0.01294-0.06154-0.0374
		c-0.11395-0.27615-0.26339-0.53776-0.34451-0.82735C19.5589,1.84116,19.309,1.73946,19.00696,1.7504
		c-0.0484,0.03542-0.11285,0.0313-0.16203,0.06481c0,0,0.00083,0.00014,0.00083,0.00015
		c-0.05629-0.01111-0.05313-0.03229-0.01875-0.07169c0.28814-0.33021,0.91969-0.29552,1.1658,0.07294
		c0.20077,0.30057,0.29476,0.65137,0.44051,0.97792C20.47389,2.88541,20.50086,2.98227,20.53406,3.07639z"/>
	<path fill="#5A6668" d="M14.11595,2.75945c0.02251,0.09484-0.00174,0.14498-0.11292,0.12874
		c-0.05658-0.00827-0.11539-0.00153-0.17318-0.00157c-0.09845-0.224-0.19619-0.44831-0.29594-0.67175
		c-0.0208-0.04659-0.03114-0.10121-0.08222-0.12945c-0.18356-0.24455-0.43337-0.3459-0.7351-0.33501
		c-0.0484,0.03542-0.11286,0.0313-0.16204,0.06481c0,0,0.00083,0.00014,0.00083,0.00015
		c-0.05544-0.01097-0.05363-0.03163-0.01909-0.07139c0.28504-0.32809,0.92036-0.29737,1.16285,0.06787
		C13.89199,2.10229,13.99857,2.43415,14.11595,2.75945z"/>
	<path fill="#DCDEE0" d="M19.74257,2.08591c0.14801,0.19599,0.19707,0.438,0.30726,0.65164
		c0.03587,0.06954,0.06603,0.14199,0.0988,0.2131c0.20268,0.51413,0.40375,1.02889,0.60847,1.54222
		c0.24744,0.62047,0.49941,1.23917,0.74613,1.85993c0.05961,0.14998-0.04535,0.27437-0.09499,0.39955
		c-0.435,1.097-0.87895,2.19051-1.3199,3.28519c-0.0866,0.21499-0.17169,0.43057-0.25748,0.64589
		c-0.16352,0.25593-0.38023,0.4223-0.70245,0.41101c0.00014-2.62504-0.001-5.25008,0.00217-7.87511
		c0.00037-0.30336,0.06846-0.59112,0.23871-0.85467C19.46306,2.2195,19.6123,2.17045,19.74257,2.08591z"/>
	<path fill="#5E898C" d="M12.55456,1.81521c0.04163-0.05212,0.10097-0.06062,0.16205-0.06482
		C12.67587,1.80474,12.61606,1.81206,12.55456,1.81521z"/>
	<path fill="#5E898C" d="M18.84493,1.81521c0.04163-0.05211,0.10097-0.06062,0.16204-0.06482
		C18.96624,1.80475,18.90643,1.81207,18.84493,1.81521z"/>
</g>
</svg>
