<?xml version="1.0" encoding="utf-8"?>
<!-- Generator: Adobe Illustrator 23.0.0, SVG Export Plug-In . SVG Version: 6.00 Build 0)  -->
<svg version="1.1" id="Слой_1" xmlns="http://www.w3.org/2000/svg" xmlns:xlink="http://www.w3.org/1999/xlink" x="0px" y="0px" width="32px" height="13px"
	 viewBox="0 0 32 13" enable-background="new 0 0 32 13" xml:space="preserve">
<g>
	<path fill="#55718A" d="M0.00225,12.23626c0-2.21853,0-4.43706,0-6.65559c0.01796-0.01273,0.03751-0.01592,0.0587-0.00959
		c0.01719,0.01269,0.02963,0.02894,0.0376,0.04866c0.02848,0.09291,0.01857,0.18858,0.0186,0.28318
		c0.00063,1.96907,0.00068,3.93815-0.00001,5.90722c-0.00005,0.14318,0.00694,0.28455,0.04746,0.42321
		c0.08766,0.29992,0.29026,0.4835,0.58561,0.5732c0.14958,0.04543,0.30414,0.04441,0.45869,0.04441
		c5.20157-0.00031,10.40314-0.00042,15.60472,0.00076c0.10982,0.00002,0.22446-0.02309,0.3275,0.03955
		c0.02446,0.02752,0.02726,0.05547,0.00152,0.08389c-0.05814,0.01013-0.11681,0.00516-0.17521,0.00517
		c-5.37945,0.00025-10.75889,0.00026-16.13795,0.00026c-0.41395-0.00269-0.73975-0.27844-0.80967-0.68639
		C0.01632,12.27382,0.01794,12.25269,0.00225,12.23626z"/>
	<path fill="#224053" d="M27.59046,0.00265c0.32386,0.10065,0.64818,0.20024,0.93011,0.39753
		c0.09598,0.08981,0.21694,0.14656,0.31492,0.23302c0.04213,0.03717,0.10724,0.09228-0.02023,0.10374
		c-0.14833-0.0627-0.26842-0.17015-0.40653-0.24946c-0.42814-0.24584-0.8798-0.37452-1.38161-0.37416
		c-7.23145,0.00526-14.4629,0.00359-21.69435,0.00364c-0.11701,0-0.23431-0.00442-0.34988,0.01979
		C4.93533,0.14771,4.90621,0.12901,4.89473,0.08234c-0.00418-0.03031,0.00569-0.05643,0.02486-0.0797
		C12.47655,0.00265,20.0335,0.00265,27.59046,0.00265z"/>
	<path fill="#40586D" d="M17.14971,12.96473c-0.00078-0.02081-0.00155-0.04162-0.00233-0.06244
		c0.00674-0.00644,0.01348-0.01289,0.02015-0.01944c0.09111-0.04219,0.18836-0.02634,0.28307-0.02636
		c3.13256-0.00086,6.26513-0.00517,9.39768,0.0021c0.90301,0.0021,1.65092-0.32767,2.29342-0.94147
		c0.89009-0.85031,1.50346-1.8799,1.99246-2.99133c0.3029-0.68844,0.55177-1.39433,0.67312-2.13991
		c0.01756-0.10793-0.00974-0.22395,0.05476-0.3241c0.04656-0.03162,0.09141-0.02704,0.13486,0.00628c0,0.02113,0,0.04226,0,0.06339
		c-0.01669,0.01775-0.02211,0.04057-0.02861,0.06296c-0.03206,0.40668-0.13439,0.79955-0.25624,1.18591
		c-0.37039,1.17436-0.89765,2.27344-1.62598,3.27347c-0.17399,0.2389-0.36881,0.46122-0.55347,0.69205
		c-0.34115,0.35837-0.7181,0.67472-1.15445,0.91021c-0.37137,0.20042-0.77016,0.32469-1.20012,0.32465
		c-3.32413-0.00035-6.64826,0.00011-9.97239-0.00028C17.18511,12.98181,17.16647,12.97658,17.14971,12.96473z"/>
	<path fill="#3B556C" d="M4.91959,0.00265C4.9194,0.0236,4.91921,0.04454,4.91901,0.06549
		c-0.08219,0.06849-0.1816,0.04975-0.27546,0.04985C3.43681,0.11662,2.23007,0.11683,1.02332,0.11547
		C0.80403,0.11522,0.60156,0.15544,0.42999,0.3024C0.23077,0.47302,0.14783,0.69055,0.14818,0.94762
		c0.00105,0.78092,0.00046,1.56184,0.00036,2.34277C0.14844,3.96578,0.14898,4.64117,0.14797,5.31657
		C0.14784,5.40023,0.15886,5.48612,0.11751,5.56525C0.10465,5.58511,0.08711,5.59067,0.065,5.58204
		c-0.01024-0.00052-0.02048-0.0012-0.0307-0.00203C0.00469,5.52527,0.01947,5.46609,0.01944,5.40921
		C0.01852,3.86955,0.01868,2.32989,0.01868,0.7906c0.00296-0.40397,0.23859-0.68793,0.65411-0.78795
		C2.08839,0.00265,3.50399,0.00265,4.91959,0.00265z"/>
	<path fill="#264356" d="M31.99691,6.46808c-0.04213,0.00037-0.08426,0.00074-0.12639,0.00111
		c-0.04101,0.02632-0.07783,0.03098-0.10398-0.0197c0.0946-0.13424,0.06846-0.28203,0.04318-0.42707
		c-0.11863-0.68057-0.3442-1.32775-0.62241-1.95879c-0.32323-0.73315-0.71682-1.4271-1.1876-2.07594
		c-0.29251-0.40316-0.61979-0.77837-1.00661-1.09825c-0.05239-0.04333-0.11103-0.08405-0.12534-0.15815
		c-0.02511-0.11014-0.13667-0.13154-0.20482-0.19748c-0.0468-0.04528-0.1297-0.05282-0.14237-0.13363
		c0.48604,0.27853,0.88571,0.65841,1.23725,1.08412c1.04977,1.27127,1.76887,2.70872,2.15862,4.30761
		c0.02662,0.10919,0.01725,0.22728,0.08046,0.32753C31.99691,6.23566,31.99691,6.35187,31.99691,6.46808z"/>
	<path fill="#697682" d="M17.14971,12.96473c0.01015,0.00041,0.02031,0.0008,0.03047,0.00115
		c0.00887,0.00666,0.01194,0.01347,0.00924,0.02044c-0.00273,0.00704-0.00552,0.01056-0.0084,0.01056
		c-5.47081,0-10.94162,0-16.41243,0c-0.00746-0.0057-0.01058-0.01202-0.00936-0.01895
		c0.00127-0.00724,0.00297-0.01085,0.00509-0.01085c0.36162-0.00063,0.72324-0.00179,1.08487-0.00181
		C6.94936,12.96501,12.04954,12.96489,17.14971,12.96473z"/>
	<path fill="#535F69" d="M17.18102,12.99689c-0.00003-0.01035-0.00031-0.02069-0.00083-0.03101
		c3.2775-0.00022,6.55502-0.00246,9.83252,0.00137c0.52312,0.00061,1.00592-0.12008,1.45299-0.38788
		c0.40208-0.24085,0.76403-0.52929,1.07253-0.88202c0.01667-0.01328,0.03168-0.01163,0.04502,0.00495
		c-0.56603,0.62973-1.21441,1.12673-2.08086,1.27287c-0.01405,0.00237-0.02647,0.01427-0.03965,0.02172
		C24.0355,12.99689,20.60826,12.99689,17.18102,12.99689z"/>
	<path fill="#445B6E" d="M29.58325,11.7023c-0.01501-0.00165-0.03001-0.0033-0.04502-0.00495
		c0.58495-0.67699,1.07791-1.41443,1.46782-2.21809c0.38671-0.79707,0.705-1.61876,0.88559-2.48857
		c0.02944-0.14181,0.01912-0.2901,0.07314-0.42758c0.02255,0.01523,0.01037,0.0478,0.03214,0.06343c0,0.05282,0,0.10564,0,0.15847
		c-0.09524,0.24971-0.11541,0.51743-0.19083,0.77246c-0.42271,1.42939-1.06171,2.74858-2.00945,3.91168
		C29.73021,11.55065,29.65459,11.62476,29.58325,11.7023z"/>
	<path fill="#40596F" d="M0.00225,0.73159c0.01041,0.00062,0.02033-0.00127,0.02977-0.00567
		C0.03278,2.34396,0.03354,3.96199,0.0343,5.58002C0.02361,5.58023,0.01293,5.58045,0.00225,5.58067
		C0.00225,3.96431,0.00225,2.34795,0.00225,0.73159z"/>
	<path fill="#767F87" d="M31.99691,6.62654c-0.02834-0.01234-0.03056-0.03772-0.03214-0.06342
		c0.01071-0.01055,0.02143-0.0211,0.03214-0.03166C31.99691,6.56316,31.99691,6.59485,31.99691,6.62654z"/>
	<path fill="#44637F" d="M0.065,5.58204c0.01108-0.00053,0.02217-0.00106,0.03325-0.00158
		c0.20078-0.00713,0.37317,0.14605,0.41981,0.37439c0.01918,0.09388,0.01422,0.18933,0.01423,0.28428
		c0.00023,1.83743,0.00013,3.67487,0.00024,5.5123c0,0.0739-0.00312,0.14799,0.0047,0.22161
		c0.02509,0.23633,0.21905,0.43165,0.45697,0.4597c0.09,0.01061,0.18068,0.00607,0.27107,0.00607
		c5.06421,0.00015,10.12843,0.0001,15.19265,0.00034c0.10625,0.00001,0.2132-0.00696,0.31823,0.01487
		c0.24135,0.05016,0.40569,0.2473,0.37457,0.44729c0,0-0.00328,0.00098-0.0033,0.00098
		C11.78515,12.9021,6.42292,12.9018,1.06068,12.90197c-0.3438,0.00001-0.63502-0.11457-0.8338-0.39993
		c-0.11955-0.17161-0.16114-0.37379-0.16111-0.58389C0.06608,9.80612,0.0654,7.69408,0.065,5.58204z"/>
	<path fill="#2D4961" d="M17.15071,12.90131c-0.09489-0.31029-0.23031-0.41146-0.55219-0.41147
		c-5.16477-0.00008-10.32954-0.00299-15.49429,0.00654c-0.33505,0.00062-0.63228-0.29437-0.62989-0.62139
		c0.01396-1.91106,0.00686-3.82227,0.00683-5.73344c-0.00001-0.32156-0.07917-0.43742-0.38294-0.5611
		C0.09817,4.02238,0.09779,2.4643,0.09819,0.90622c0.00012-0.47818,0.36436-0.83981,0.8459-0.84005
		c1.32498-0.00066,2.64996-0.0005,3.97493-0.00068c0.00131,0.02604,0.00665,0.05009,0.03223,0.06412
		c0.04718,0.01833,0.07453,0.0584,0.10457,0.09509c0.09342,0.11413,0.21542,0.16802,0.36191,0.17205
		C5.49755,0.39895,5.57737,0.3983,5.65719,0.3983c7.02476,0.00005,14.04954,0.00482,21.07427-0.00904
		c0.55959-0.0011,1.03779,0.15816,1.51309,0.41069c0.69687,0.37025,1.19595,0.9361,1.64209,1.56422
		c0.43947,0.61874,0.72292,1.31471,1.03162,1.9985c0.20493,0.45392,0.37786,0.92019,0.48082,1.40819
		c0.05556,0.26332,0.19675,0.47313,0.37416,0.66587c0.02349,0.03718,0.06204,0.02988,0.09727,0.03244
		c0.01047,0.39972-0.09508,0.78104-0.2064,1.15764c-0.26049,0.88128-0.62954,1.71888-1.08922,2.51546
		c-0.26581,0.46062-0.56644,0.89803-0.91937,1.30019c-0.27618,0.3147-0.56461,0.61547-0.90505,0.86036
		c-0.44413,0.31948-0.92633,0.53758-1.48892,0.57472c-0.26537,0.01752-0.52958,0.02252-0.79411,0.0227
		C23.36187,12.90233,20.25629,12.90143,17.15071,12.90131z"/>
	<path fill="#123247" d="M31.77324,6.43674c-0.26312-0.1191-0.35271-0.36259-0.40735-0.60972
		c-0.16984-0.76821-0.50239-1.47338-0.82302-2.18464c-0.25038-0.55542-0.56479-1.06906-0.92452-1.56276
		c-0.57652-0.79122-1.34566-1.29998-2.2594-1.61679c-0.06256-0.02169-0.13627-0.01587-0.2048-0.01588
		C19.9227,0.44633,12.69125,0.44611,5.4598,0.44748C5.21793,0.44753,5.03774,0.36653,4.95125,0.12961
		c0.00577-0.04409,0.03165-0.06375,0.07578-0.06324C5.07492,0.06693,5.12281,0.06602,5.1707,0.06602
		c7.31127-0.00002,14.62255,0.0016,21.93382-0.00302c0.60312-0.00038,1.11278,0.22552,1.59488,0.54996
		c0.05691,0.0383,0.11229,0.07884,0.16838,0.11834c0.65288,0.51284,1.15169,1.15698,1.58487,1.85349
		c0.47792,0.76845,0.86948,1.57963,1.14829,2.44023c0.13395,0.41346,0.26266,0.83117,0.26823,1.27268
		C31.87001,6.36564,31.88414,6.44409,31.77324,6.43674z"/>
	<path fill="#3B556B" d="M27.81405,11.9194c-0.18305,0.16484-0.41986,0.15144-0.64095,0.18915
		c-0.03618,0.00617-0.07434,0.0009-0.11159,0.0009c-8.62529,0-17.25058,0-25.87586,0c-0.29592,0-0.32124-0.02461-0.32124-0.31256
		C0.8644,8.23723,0.86439,4.67757,0.86442,1.11792c0-0.25607,0.03558-0.2912,0.29485-0.29121
		C9.80584,0.8267,18.45241,0.82635,27.09898,0.82833c0.27732,0.00006,0.54353,0.06247,0.77901,0.22011
		c-0.06152,0.04942-0.12169,0.01768-0.1801-0.00539c-0.21048-0.08313-0.42745-0.11034-0.65455-0.11027
		C18.46322,0.93532,9.8831,0.93492,1.30298,0.93494c-0.32944,0-0.32951,0.00008-0.32953,0.32743
		C0.97338,2.92022,0.97349,4.57808,0.97353,6.23593c0,0.07327-0.01147,0.14905,0.03955,0.21325
		c0.02937,0.05882,0.03019,0.12243,0.03024,0.18574C1.0441,7.57916,1.04446,8.52339,1.04317,9.46763
		C1.0431,9.52039,1.04086,9.57314,1.0306,9.62513c-0.04977,0.19073-0.01649,0.38516-0.02527,0.5777
		c-0.00547,0.11997,0.00845,0.24061-0.01201,0.36021c-0.04116,0.2149-0.01405,0.43182-0.01879,0.64769
		c-0.00463,0.21117,0.00088,0.42257-0.00158,0.63381c-0.00126,0.1084,0.05048,0.15408,0.15357,0.15579
		c0.04789,0.00079,0.09578,0.00087,0.14368,0.00087c8.62639,0.00003,17.25277-0.00017,25.87916,0.00142
		c0.17292,0.00003,0.33847-0.0218,0.4993-0.08376C27.70306,11.89791,27.75912,11.87388,27.81405,11.9194z"/>
	<path fill="#3C566C" d="M0.98467,6.4365C0.96503,6.44453,0.93647,6.45428,0.93163,6.42932
		c-0.00793-0.0408-0.00334-0.08407-0.00334-0.1263c-0.00007-1.73227-0.0001-3.46454-0.00001-5.19681
		c0.00001-0.2159,0.00032-0.21613,0.2237-0.21613c8.68369-0.00004,17.36737,0.00019,26.05106-0.00151
		c0.18596-0.00004,0.3541,0.05797,0.52351,0.11833c0.04979,0.01774,0.09529,0.04764,0.15144,0.04155
		c0.2265,0.07508,0.40225,0.23035,0.58217,0.37474c0.61598,0.49434,1.04236,1.13886,1.44635,1.80314
		c0.38788,0.63778,0.68971,1.31316,0.92676,2.0172c0.12388,0.36792,0.24591,0.74228,0.25808,1.13266
		c0.00726,0.23299-0.04317,0.46833-0.10167,0.69765c-0.1842,0.722-0.45702,1.41256-0.78338,2.08028
		c-0.16282,0.33314-0.33558,0.66619-0.57204,0.95875c-0.03704,0.09459-0.10953,0.16715-0.15989,0.25346
		c-0.01064,0.01058-0.02129,0.02115-0.03193,0.03173c-0.04251,0.06345-0.07894,0.13091-0.12772,0.1902l0.00008-0.00003
		c-0.28934,0.38288-0.62215,0.7249-0.99305,1.02989c-0.09694,0.07971-0.20723,0.14275-0.31619,0.20614
		c-0.02121,0.0106-0.04242,0.02121-0.06363,0.03181c-0.03605,0.03424-0.08711,0.03863-0.12794,0.06338
		c0,0,0.00005-0.00003,0.00006-0.00003c-0.51116,0.20747-1.04791,0.12318-1.57399,0.12347
		c-8.35214,0.00459-16.70428,0.00323-25.05642,0.00322c-0.25535,0-0.25538-0.00004-0.2554-0.24801
		c-0.00003-0.35906-0.00092-0.71812,0.00095-1.07717c0.00029-0.05548-0.02126-0.1175,0.0308-0.1644
		c0.07168,0.08171,0.02931,0.19169,0.07125,0.28094c0.02667,0.28979,0.00809,0.58017,0.01241,0.87024
		c0.0037,0.24848,0.00696,0.25481,0.26172,0.25485c3.1373,0.00039,6.27459,0.00021,9.41189,0.00023
		c0.88801,0,1.77603,0.00007,2.66404-0.00008c0.06381-0.00001,0.12762-0.00107,0.19124,0.00536
		c2.85007,0.00362,5.70013,0.00136,8.55018,0.00104c1.51538-0.00017,3.03077,0.00546,4.54572-0.00415
		c0.29671,0.01037,0.59306,0.03027,0.88496-0.05962c0.35968-0.11076,0.65568-0.321,0.92914-0.56684
		c0.48891-0.43953,0.87762-0.9594,1.21325-1.51964c0.52179-0.87098,0.92126-1.79327,1.17194-2.77728
		c0.03786-0.14864,0.06084-0.29972,0.08267-0.45143c0.02916-0.22409-0.00821-0.44217-0.05826-0.65885
		c-0.12169-0.52683-0.30175-1.03424-0.52178-1.52791c-0.37644-0.8446-0.84032-1.63717-1.44688-2.34074
		c-0.31274-0.36276-0.66216-0.68484-1.10368-0.89605c-0.23027-0.11015-0.46678-0.16577-0.72267-0.16572
		c-7.5117,0.00156-15.02339,0.0012-22.53509,0.00136c-0.06386,0-0.1277,0.00049-0.19157-0.0024
		C4.04547,1.00094,3.72036,1.01677,3.39566,0.99046C3.21893,0.94331,3.03844,0.96761,2.85998,0.96823
		C2.64432,0.96898,2.42745,0.94498,2.21289,0.98656C2.12468,1.00301,2.03559,1.00287,1.94636,1.00032
		C1.8089,0.99158,1.67134,1.00386,1.5339,0.9994c-0.11106,0.0048-0.22238,0.00634-0.33333,0.0025
		C1.08431,0.99787,1.04031,1.04982,1.04104,1.1621c0.00176,0.2732,0.00147,0.54643,0,0.81965
		c-0.00031,0.0578-0.00158,0.11563-0.01356,0.17265c-0.03625,0.32325-0.03893,0.64627,0.0031,0.96923
		c0.01347,0.06765,0.01325,0.13613,0.01329,0.2045c0.00045,0.95225,0.00094,1.9045-0.00092,2.85675
		C1.04278,6.27146,1.06367,6.36639,0.98467,6.4365z"/>
	<path fill="#3B556B" d="M28.00556,11.82424c0.33332-0.23922,0.64182-0.50602,0.92367-0.804
		c0.13285-0.14045,0.22966-0.31223,0.38557-0.43203c-0.03478,0.15409-0.16523,0.24128-0.25995,0.34989
		c-0.28426,0.32599-0.59215,0.62915-0.95792,0.86737C28.07275,11.82123,28.0363,11.81842,28.00556,11.82424z"/>
	<path fill="#3B556B" d="M29.47438,10.36631c0.01202-0.11014,0.09805-0.17428,0.15988-0.25346
		C29.62518,10.22481,29.56455,10.30474,29.47438,10.36631z"/>
	<path fill="#3B556B" d="M29.31472,10.58824c0.0204-0.07807,0.06012-0.14336,0.12772-0.1902
		C29.42952,10.48106,29.39129,10.54733,29.31472,10.58824z"/>
	<path fill="#3B556B" d="M27.814,11.91943c0.03246-0.04138,0.07712-0.05849,0.12793-0.06338
		C27.91752,11.91344,27.86876,11.9224,27.814,11.91943z"/>
	<path fill="#8AABB6" d="M13.5708,12.01132c-0.05846,0.00115-0.11693,0.00329-0.17539,0.00329
		c-4.06326,0.00016-8.12652,0.00015-12.18978,0.00013c-0.21466,0-0.21412-0.00007-0.21489-0.20994
		c-0.00122-0.33249-0.00326-0.66498-0.00495-0.99747c-0.01589-0.38893-0.01388-0.77788-0.00097-1.16683
		C0.9848,8.57251,0.98476,7.5045,0.9847,6.4365c0.00021-1.11027,0.00045-2.22054,0.00069-3.3308
		C1.00184,2.90729,0.97797,2.7076,1.00438,2.50945C1.09672,2.39058,1.22873,2.4403,1.34657,2.42984
		C1.38114,2.43177,1.41604,2.43068,1.45056,2.4345C1.4749,2.43606,1.49885,2.44059,1.5223,2.44721
		C1.55923,2.4587,1.59595,2.47126,1.63224,2.48523C1.676,2.50455,1.71667,2.52884,1.75381,2.5592
		C1.78736,2.58716,1.81954,2.61639,1.84979,2.648c0.1305,0.13092,0.1501,0.29545,0.14995,0.4685
		C1.99884,4.17649,1.99916,5.23648,1.9993,6.29648c0.00009,0.68557-0.00085,1.37113,0.00044,2.0567
		c0.00071,0.37606,0.13973,0.67696,0.48204,0.86667C2.64488,9.31023,2.8226,9.33407,3.00493,9.3345
		c0.56319,0.00132,1.12638,0.00095,1.68957,0.00009C4.8348,9.33438,4.97042,9.34877,5.09296,9.42313
		c0.07509,0.0414,0.10484,0.11483,0.13483,0.18877c0.12293,0.30307,0.23995,0.60857,0.3676,0.90965
		c0.12783,0.30149,0.35295,0.48028,0.69087,0.50059c0.25184,0.00789,0.4472-0.09744,0.59808-0.2928
		c0.03181-0.04118,0.05963-0.08797,0.1199-0.09419c0.02763,0.00105,0.05506,0.0025,0.08286,0.0021
		c0.84618-0.01104,1.69208-0.00251,2.53797-0.00473c0.73419-0.00193,1.46838,0.00193,2.20218-0.00228
		c0.09971-0.00749,0.14723,0.06922,0.20293,0.12904c0.14914,0.16019,0.32549,0.26136,0.55069,0.26296
		c0.208,0.01321,0.37494-0.07633,0.52552-0.20675c0.03854-0.03338,0.06608-0.08315,0.12707-0.08305
		c0.21849,0.07338,0.36489,0.27555,0.38074,0.53139c0.00684,0.11049,0.00333,0.22142,0.00231,0.33211
		c0.00029,0.05097,0.0008,0.102-0.00087,0.15296c-0.00013,0.03326,0.00072,0.06658-0.00094,0.09984
		c-0.0002,0.03315-0.00064,0.06632-0.00671,0.09912C13.60263,11.97305,13.58927,11.99368,13.5708,12.01132z"/>
	<path fill="#424F5A" d="M0.98483,9.64051c0.00033,0.38895,0.00067,0.7779,0.00098,1.16684
		C0.93367,10.72814,0.97216,10.63976,0.96,10.55651c0.00007-0.25537-0.0007-0.51075,0.00093-0.76612
		C0.96125,9.73993,0.94487,9.68533,0.98483,9.64051z"/>
	<path fill="#5E898C" d="M4.3764,0.9549c0.07445-0.00075,0.14891-0.00216,0.22337-0.00216
		c7.46831-0.0001,14.93662,0.00248,22.40493-0.00551c0.53447-0.00057,0.96787,0.19359,1.36559,0.51164
		c0.66493,0.53173,1.13573,1.22075,1.55062,1.94621c0.46253,0.80875,0.83199,1.65924,1.03132,2.57378
		c0.0466,0.2138,0.09899,0.43016,0.02375,0.64962c-0.05405-0.06234-0.12024-0.09352-0.20518-0.0863
		c-0.089,0.00756-0.17533-0.01577-0.2624-0.02942c-0.02409-0.00085-0.04815-0.00167-0.07224-0.00201
		c-0.03217-0.00031-0.06431-0.00115-0.09645-0.00202c-0.03202-0.00009-0.06384-0.00263-0.09536-0.00814
		c-0.0456-0.00967-0.09076-0.02207-0.13791-0.02335c-0.26901-0.03715-0.53349-0.0943-0.79316-0.17383
		c-0.36875-0.11294-0.68678-0.30844-0.95251-0.58449c-0.31293-0.32508-0.66482-0.60308-1.03466-0.86646
		c-0.00739-0.01521-0.01851,0.01741-0.00133,0.00494c0.00837-0.00607,0.01176-0.00398,0.01607,0.00224
		c0.02132,0.03074,0.01762,0.05854-0.0076,0.08488c-0.07199,0.00496-0.07956-0.05353-0.09347-0.09951
		c-0.0177-0.05849-0.02833-0.11905-0.0584-0.17335c-0.34569-0.84918-0.68612-1.70052-1.03197-2.5497
		c-0.11592-0.28462-0.3007-0.47601-0.59731-0.56417c-0.21247-0.06315-0.5763,0.08183-0.6696,0.27287
		c-0.01851,0.04116-0.05527,0.06423-0.09144,0.08568c-0.17838,0.10582-0.27765,0.26983-0.35338,0.45521
		c-0.18192,0.44533-0.35268,0.89499-0.53389,1.34057c-0.0296,0.07278-0.05169,0.15218-0.13672,0.18563
		c-0.29104-0.0103-0.58197-0.01677-0.8732-0.01513c-0.46152,0.0026-0.92308,0.00341-1.38459-0.0002
		c-0.37284-0.00291-0.66988-0.14566-0.84801-0.4849c-0.08712-0.16592-0.23298-0.26981-0.37897-0.37513
		c-0.03908-0.03461-0.06623-0.078-0.09061-0.12323c-0.11079-0.27817-0.23046-0.55299-0.3431-0.83067
		c-0.07444-0.18352-0.17423-0.34539-0.35818-0.4458c-0.3031-0.16545-0.56981-0.14428-0.8366,0.07384
		c-0.03481,0.02846-0.05946,0.05873-0.0625,0.10417c-0.12108,0.12961-0.29376,0.20603-0.3729,0.38033
		c-0.08512,0.18749-0.15481,0.38087-0.23686,0.56935c-0.03138,0.0721-0.05429,0.15159-0.14672,0.17359
		c-0.08949,0.01827-0.17992,0.01252-0.2699,0.01256c-1.10306,0.00041-2.20611-0.00004-3.30917,0.00091
		c-0.08266,0.00007-0.17238-0.01951-0.23725,0.05684c-0.08204,0.05901-0.09994-0.0148-0.11994-0.06341
		c-0.02381-0.05787-0.02631-0.12354-0.05924-0.17892c-0.08849-0.23738-0.2004-0.46559-0.28876-0.70311
		c-0.10447-0.28082-0.31113-0.4449-0.59265-0.5282c-0.20463-0.06055-0.56441,0.09122-0.65588,0.27723
		c-0.03024,0.05976-0.09076,0.08607-0.14199,0.11995c-0.16216,0.10727-0.23881,0.27072-0.31225,0.43962
		c-0.0383,0.08807-0.04794,0.19618-0.15116,0.24635c-0.10738-0.00216-0.15386-0.09027-0.20355-0.15825
		c-0.19732-0.26994-0.45092-0.37825-0.79243-0.37319C9.66058,2.08771,8.62012,2.07903,7.57981,2.07625
		c-0.11003-0.00029-0.19028,0.0127-0.17869,0.14708c-0.06394,0.07355-0.08446,0.0024-0.10794-0.03567
		C7.24616,2.11141,7.25204,2.01357,7.19488,1.9408c-0.09215-0.24255-0.29814-0.34638-0.5263-0.41952
		C6.46524,1.45611,6.10641,1.60863,6.01215,1.79563C5.9113,1.9034,5.78848,1.98259,5.66376,2.0598
		C5.39403,2.07619,5.12455,2.10667,4.86227,2.00227C4.57151,1.88652,4.41538,1.65904,4.31508,1.38059
		c-0.00851-0.03331-0.01132-0.0673-0.01157-0.10152C4.30273,1.24597,4.3023,1.21279,4.30366,1.17965
		c0.00002-0.03261,0.00259-0.06504,0.00869-0.09714C4.32209,1.0343,4.34056,0.99027,4.3764,0.9549z"/>
	<path fill="#628B8E" d="M30.49616,6.46812c0.11805,0.02584,0.23746,0.04257,0.35817,0.03079
		c0.10239-0.00999,0.1305,0.04068,0.12165,0.12955c-0.00442,0.26093-0.08261,0.50783-0.15705,0.7534
		c-0.36223,1.1949-0.89685,2.30659-1.66569,3.29812c-0.35094,0.45259-0.75397,0.85656-1.26488,1.13721
		c-0.36309,0.19945-0.75861,0.21699-1.1602,0.19503c-0.0109-0.01224-0.02288-0.03068-0.01573-0.04227
		c0.17192-0.27847,0.26195-0.6187,0.59572-0.77546c0.12086-0.05677,0.24789-0.09589,0.37479-0.13413
		c0.25075-0.07557,0.45781-0.21816,0.64788-0.39184c0.46277-0.42287,0.81473-0.92635,1.12939-1.46435
		c0.40064-0.68501,0.68463-1.4158,0.93404-2.16317C30.45636,6.85486,30.48177,6.66251,30.49616,6.46812z"/>
	<path fill="#649093" d="M30.49616,6.46812c0.08324,0.18779-0.00025,0.36535-0.05124,0.53638
		c-0.19153,0.64235-0.43252,1.26884-0.74727,1.86069c-0.36444,0.68529-0.77393,1.34429-1.37083,1.86488
		c-0.20638,0.17999-0.43233,0.32331-0.70021,0.39103c-0.35008,0.0885-0.61505,0.26847-0.73491,0.62539
		c-0.03284,0.0978-0.14131,0.15706-0.16354,0.26577c-0.71766,0.00082-1.43533,0.00234-2.15299,0.00238
		c-3.59904,0.00025-7.19808,0.00013-10.79712-0.00002c-0.06907,0-0.13815-0.00212-0.20723-0.00326
		c0.00127-0.02005,0.00255-0.04007,0.00383-0.0601c0.07776-0.06538,0.17186-0.04574,0.26041-0.04578
		c2.13881-0.00098,4.27762-0.00075,6.41642-0.00076c1.87811,0,3.75622-0.00001,5.63432,0.00003
		c0.11703,0,0.234,0.0034,0.35099,0.00603c0.23831,0.00535,0.44131-0.06269,0.55532-0.29224
		c0.1541-0.31027,0.38881-0.51573,0.73366-0.60657c0.41024-0.10806,0.71837-0.37445,0.99741-0.6802
		c0.56312-0.61704,0.97397-1.32602,1.31171-2.08383c0.17878-0.40115,0.30991-0.81859,0.46979-1.22592
		c0.07007-0.17853,0.0614-0.37459,0.12761-0.55378C30.45358,6.46818,30.47487,6.46815,30.49616,6.46812z"/>
	<path fill="#628B8F" d="M1.37497,2.47266C1.2593,2.48822,1.13757,2.44531,1.0268,2.50817
		C0.95964,2.39561,1.00532,2.27286,0.99447,2.15522C0.99341,1.79915,0.99523,1.44304,0.98946,1.08704
		C0.98782,0.98608,1.01795,0.945,1.12368,0.95093C1.26044,0.95861,1.3979,0.95395,1.53506,0.9546
		C1.5689,1.00366,1.54267,1.04738,1.51628,1.08512C1.4332,1.20393,1.421,1.33729,1.42187,1.47582
		c0.00168,0.26773,0.00095,0.53548,0.00019,0.80322C1.42186,2.34701,1.42681,2.4168,1.37497,2.47266z"/>
	<path fill="#679397" d="M4.3764,0.9549c0.00543,0.04577-0.01032,0.08628-0.03168,0.12538
		C4.27786,1.13915,4.19562,1.12685,4.117,1.12694C3.42707,1.12768,2.73713,1.1269,2.0472,1.12754
		c-0.31805,0.0003-0.43188,0.11279-0.43273,0.42597C1.6138,1.80109,1.61742,2.04873,1.61224,2.29622
		C1.61086,2.36207,1.63979,2.45077,1.53393,2.47581c-0.02099-0.00067-0.04199-0.00133-0.06298-0.002
		C1.42821,2.42714,1.42468,2.36929,1.42458,2.31084c-0.0005-0.28429-0.00161-0.56858,0.00061-0.85286
		c0.0005-0.06351,0.01159-0.12582,0.02654-0.18732c0.04409-0.18142,0.14072-0.26281,0.32702-0.28845
		c0.05683-0.00782,0.11678-0.00125,0.17078-0.02743C2.03572,0.95284,2.1219,0.95091,2.20809,0.94898
		c0.39192-0.01818,0.78385-0.01726,1.17579-0.0006C3.71472,0.95055,4.04556,0.95273,4.3764,0.9549z"/>
	<path fill="#659093" d="M1.94953,0.95477C1.8618,1.02198,1.74201,0.98846,1.65237,1.0461
		c-0.15158,0.09748-0.17796,0.25394-0.18,0.41404C1.46808,1.79799,1.471,2.13593,1.47095,2.47382
		C1.43896,2.47344,1.40697,2.47307,1.37497,2.47269c0.00009-0.30996,0.01012-0.62032-0.00309-0.92971
		C1.36257,1.32474,1.40574,1.13031,1.53506,0.95459C1.67321,0.95466,1.81137,0.95472,1.94953,0.95477z"/>
	<path fill="#424F5A" d="M0.99447,2.15522c0.06507,0.11275,0.01111,0.23623,0.03232,0.35295
		C1.00571,2.70686,1.06154,2.91079,0.98541,3.10571C0.94932,2.7885,0.93184,2.47148,0.99447,2.15522z"/>
	<path fill="#424F5A" d="M3.38389,0.94838C2.99194,0.9486,2.59999,0.94882,2.20806,0.94901
		c0.06046-0.05055,0.13238-0.02518,0.19861-0.02593c0.2753-0.00309,0.55066-0.00216,0.82598-0.00053
		C3.28367,0.92286,3.33957,0.90541,3.38389,0.94838z"/>
	<path fill="#72A2A6" d="M27.33501,4.94663c-0.00252-0.0358-0.00504-0.0716-0.00861-0.12237
		c0.21257,0.11107,0.38973,0.2571,0.56199,0.40578c0.26358,0.2275,0.50908,0.4759,0.77598,0.69927
		c0.30826,0.258,0.68942,0.35963,1.07441,0.44249c0.12351,0.02658,0.24905,0.04389,0.37366,0.06544
		c0.03099,0.0627,0.00703,0.12432-0.00463,0.18577c-0.10324,0.54403-0.31318,1.05273-0.53973,1.55362
		c-0.29477,0.65174-0.64034,1.27545-1.10246,1.82916c-0.30419,0.36448-0.65021,0.66393-1.12794,0.78724
		c-0.33072,0.08536-0.57278,0.29401-0.73474,0.59159c-0.10116,0.18585-0.25043,0.26709-0.46673,0.26694
		c-4.11667-0.00269-8.23334-0.00192-12.35001-0.00252c-0.07374-0.00001-0.15038,0.00775-0.21263-0.04646
		c-0.00027-0.11083,0.00539-0.22205-0.00202-0.33241c-0.01605-0.23891-0.13464-0.41402-0.35003-0.52351
		c-0.02149-0.05747,0.01297-0.08914,0.05468-0.11771c0.12867-0.07811,0.20524-0.19755,0.25965-0.33169
		c0.52235-1.28799,1.03739-2.5789,1.56145-3.8662c0.08104-0.19906,0.07719-0.37638-0.0053-0.57641
		c-0.36062-0.87451-0.71045-1.75343-1.06291-2.63126c-0.0267-0.06649-0.07432-0.13122-0.04111-0.21021
		c-0.03407-0.12229,0.03148-0.12875,0.13186-0.12851c1.25384,0.00296,2.5077,0.00171,3.76155,0.00153
		c0.03466,0.07238-0.00788,0.13338-0.03209,0.19542c-0.37419,0.95911-0.75576,1.91541-1.15631,2.86391
		c-0.12691,0.30052-0.13415,0.57912-0.00896,0.88432c0.50297,1.22613,0.99338,2.45735,1.49127,3.68555
		c0.12308,0.3036,0.34893,0.48395,0.6873,0.50637c0.26364,0.01002,0.46429-0.10515,0.62037-0.30813
		c0.02233-0.02904,0.04176-0.06021,0.07493-0.07895c0.13049-0.07544,0.20967-0.1935,0.26405-0.32741
		c0.52445-1.29133,1.04001-2.5862,1.56639-3.87674c0.08085-0.19822,0.07785-0.3765-0.005-0.5763
		c-0.37414-0.90219-0.73502-1.80979-1.09655-2.71706c-0.01757-0.04408-0.09595-0.09996-0.0091-0.1558
		c0.19363,0.09782,0.34293,0.23419,0.44543,0.43134c0.14983,0.28821,0.41408,0.41595,0.72938,0.42215
		c0.49857,0.00981,0.99748,0.00215,1.49625,0.00282c0.28022,0.00038,0.56098-0.01203,0.83963,0.03096
		c0.05327,0.08425-0.00928,0.15304-0.03691,0.22164c-0.2647,0.65703-0.5212,1.31738-0.79876,1.96923
		c-0.10505,0.24671-0.10435,0.48736-0.00286,0.73679c0.50807,1.24865,1.00791,2.50058,1.51507,3.74959
		c0.12342,0.30396,0.34905,0.48474,0.68777,0.50753c0.26344,0.01019,0.46402-0.10481,0.6202-0.30744
		c0.02234-0.02898,0.04157-0.06028,0.07471-0.07904c0.13073-0.0751,0.21027-0.19297,0.26453-0.32696
		c0.53311-1.31639,1.06245-2.63427,1.59478-3.95096c0.05961-0.14745,0.05537-0.28224-0.00476-0.42724
		c-0.11322-0.27298-0.23051-0.54457-0.32797-0.82371c-0.01016-0.05725-0.028-0.11288-0.04006-0.16986
		C27.33434,4.96106,27.33468,4.95384,27.33501,4.94663z"/>
	<path fill="#72A2A6" d="M7.3785,2.25242c-0.03691-0.2214-0.03691-0.2214,0.20712-0.2214c1.075,0,2.15007,0.00646,3.22497-0.00411
		c0.30503-0.003,0.51083,0.13112,0.68944,0.3522c0.06015,0.07445,0.09813,0.18365,0.22051,0.19083
		c0.04317,0.0597,0.00204,0.11073-0.01865,0.16257c-0.44453,1.11343-0.88574,2.22818-1.34603,3.33536
		c-0.09122,0.21942-0.08781,0.43992,0.00147,0.66174c0.49502,1.22986,0.99314,2.4585,1.48619,3.68914
		c0.02846,0.07105,0.0803,0.14041,0.04248,0.22491c-0.04262,0.0584-0.1059,0.03887-0.16161,0.03889
		c-1.56618,0.00059-3.13236,0.00008-4.69854-0.00025c-0.00966-0.03391,0.00097-0.06516,0.02373-0.08767
		c0.16024-0.1585,0.22528-0.36721,0.30602-0.56741c0.46801-1.16039,0.92787-2.32408,1.40755-3.47971
		c0.115-0.27707,0.1163-0.51815-0.00093-0.79871C8.29817,4.63818,7.85606,3.5185,7.40616,2.40203
		C7.387,2.35449,7.35226,2.30869,7.3785,2.25242z"/>
	<path fill="#72A2A6" d="M4.34451,1.36551C4.4595,1.62336,4.59558,1.85786,4.8835,1.96891
		c0.19474,0.07511,0.39302,0.05881,0.59202,0.06188c0.06858,0.00106,0.1372-0.0005,0.2058-0.00086
		c0.01677,0.02534,0.00881,0.05042-0.0018,0.07483c-0.49049,1.12852-0.91726,2.28252-1.387,3.41934
		c-0.07258,0.17566-0.14571,0.3511-0.21943,0.52628C3.97604,6.28096,3.97722,6.50902,4.0716,6.74157
		c0.33755,0.8317,0.67277,1.66435,1.00599,2.49777c0.02984,0.07464,0.09113,0.14835,0.04216,0.23857
		c-0.1446-0.0752-0.29728-0.098-0.46105-0.09634C4.07887,9.38744,3.49894,9.3861,2.91907,9.38309
		c-0.42754-0.00221-0.80134-0.27076-0.9153-0.65488C1.96949,8.6127,1.94883,8.49433,1.94894,8.37155
		C1.95053,6.61843,1.94849,4.8653,1.95231,3.11219c0.0004-0.18286-0.03391-0.34387-0.16176-0.47906
		C1.82553,2.31752,1.80048,2.0009,1.80587,1.68479c0.00505-0.29609,0.07086-0.36609,0.3656-0.36636
		c0.6484-0.00061,1.2968-0.00052,1.9452,0.00021C4.19533,1.31873,4.27784,1.30568,4.34451,1.36551z"/>
	<path fill="#FEFEFE" d="M5.11975,9.47791C4.91226,8.95328,4.70567,8.42829,4.49697,7.90413
		C4.33891,7.50717,4.1785,7.11113,4.01845,6.71494C3.93336,6.50432,3.93493,6.2936,4.01904,6.08415
		c0.50518-1.25809,1.01062-2.51609,1.51821-3.77322C5.57648,2.21376,5.6329,2.12344,5.68133,2.02993
		c0.09138-0.10576,0.21046-0.17514,0.32827-0.2462c0.00409-0.00638,0.00819-0.01275,0.01222-0.01921
		C6.07626,1.73624,6.13197,1.71053,6.1883,1.68561c0.30652-0.02663,0.54514,0.09583,0.73344,0.32926
		c0.00522,0.02942,0.00028,0.05672-0.01613,0.082c-0.47092,0.25087-0.55996,0.68941-0.5607,1.15886
		C6.34092,5.76169,6.34332,8.26764,6.34212,10.7736c-0.00005,0.09811,0.02198,0.20234-0.04994,0.28922
		C5.9683,11.06,5.68851,10.86487,5.56277,10.55249c-0.13517-0.3358-0.26903-0.67213-0.40427-1.0079
		C5.149,9.52101,5.13282,9.50007,5.11975,9.47791z"/>
	<path fill="#FEFEFE" d="M11.88601,10.64365c-0.51472-1.28231-1.02662-2.56575-1.54647-3.84601
		c-0.10741-0.26454-0.11339-0.51261-0.00517-0.77873c0.46675-1.14778,0.92489-2.29901,1.38617-3.44898
		c0.03403-0.08258,0.07206-0.1638,0.10135-0.24801c0.08525-0.24512,0.24455-0.42373,0.47806-0.53826
		c0.00422-0.00645,0.00845-0.0129,0.01261-0.01943c0.05573-0.02857,0.11198-0.05608,0.1702-0.08005
		c0.27512-0.03519,0.48741,0.09304,0.68218,0.26199c0.04653,0.04036,0.06483,0.09516,0.02681,0.15503
		c-0.46194,0.24286-0.55344,0.67271-0.55556,1.13064c-0.0072,1.5579-0.0027,3.11585-0.00276,4.67379
		c-0.00004,0.96645,0.00045,1.93289-0.00071,2.89934c-0.00011,0.08825,0.01573,0.1814-0.05016,0.25784
		C12.26433,11.06394,12.05311,10.88991,11.88601,10.64365z"/>
	<path fill="#DCDEE0" d="M12.58255,11.06282c0.00016-2.62504-0.00096-5.25008,0.00222-7.87512
		c0.00037-0.30337,0.0686-0.59103,0.23861-0.85472c0.09367-0.14529,0.24368-0.19331,0.37288-0.27926
		c0.07925,0.00638,0.09963,0.07166,0.12442,0.12808c0.09748,0.22185,0.19706,0.44284,0.28893,0.66714
		c0.41422,1.03012,0.82931,2.05986,1.24468,3.08949c0.04552,0.11283,0.08183,0.22905,0.12855,0.34106
		c0.03743,0.08975,0.03067,0.16974-0.00379,0.25926c-0.42918,1.11507-0.89051,2.21743-1.33181,3.32769
		c-0.08007,0.20144-0.16114,0.40249-0.24361,0.60296c-0.02772,0.06739-0.04815,0.1414-0.11858,0.18225
		c-0.02118,0.03168-0.04236,0.06335-0.06353,0.09503C13.05606,10.9467,12.85474,11.07531,12.58255,11.06282z"/>
	<path fill="#DCDEE0" d="M6.29218,11.06282c0.00016-2.62504-0.00097-5.25008,0.00221-7.87511
		c0.00037-0.30337,0.06857-0.59105,0.23862-0.85472C6.6267,2.18773,6.77654,2.1395,6.90596,2.05384
		c0.13349,0.03496,0.1405,0.16318,0.18277,0.2584c0.27888,0.62826,0.5251,1.26993,0.78106,1.90754
		c0.27563,0.6866,0.5646,1.36799,0.82243,2.06164c0.03147,0.08467,0.03433,0.15969,0.00165,0.24426
		c-0.51448,1.33112-1.06407,2.64836-1.59322,3.97367c-0.023,0.05761-0.04332,0.1208-0.10795,0.15071
		C6.82821,10.90304,6.6153,11.07506,6.29218,11.06282z"/>
	<path fill="#6E9DA1" d="M13.57357,11.60259c4.18551-0.00007,8.37102-0.00157,12.55651,0.00375
		c0.22487,0.00029,0.35357-0.08631,0.45062-0.27587c0.13218-0.25817,0.33891-0.47184,0.61801-0.53749
		c0.80256-0.18877,1.25083-0.77788,1.66111-1.40389c0.46764-0.71354,0.81908-1.48655,1.07998-2.29797
		c0.06893-0.21437,0.11571-0.43575,0.17264-0.6539c0.04671-0.00599,0.08829,0.00924,0.12835,0.03068
		c0.05744,0.06946,0.04409,0.14723,0.0289,0.22634c-0.0861,0.44849-0.25638,0.86961-0.43229,1.28787
		c-0.28337,0.67377-0.62227,1.31911-1.06524,1.90424c-0.25847,0.34143-0.53145,0.67299-0.92249,0.8813
		c-0.14626,0.07791-0.3005,0.13338-0.45815,0.18062c-0.2964,0.08883-0.5118,0.27362-0.65208,0.54388
		c-0.11079,0.21343-0.27582,0.31701-0.5233,0.31687c-4.14322-0.00231-8.28643-0.00169-12.42965-0.00207
		c-0.07376-0.00001-0.15037,0.00862-0.21263-0.04587C13.57377,11.70826,13.57367,11.65543,13.57357,11.60259z"/>
	<path fill="#5F6C6F" d="M6.99269,10.65006C7.52405,9.33152,8.05348,8.0122,8.5888,6.69525
		C8.67117,6.49261,8.67249,6.3101,8.58785,6.1038C8.11812,4.95901,7.66416,3.80785,7.19409,2.6632
		C7.10923,2.45655,7.05054,2.23409,6.90595,2.05385c-0.00615-0.0173-0.01231-0.0346-0.01847-0.05189
		C6.9464,1.96147,7.01129,1.98663,7.0715,1.99186c0.07604,0.0066,0.11818-0.02473,0.14706-0.08723
		c0.10297,0.09344,0.05281,0.25625,0.15993,0.3478c0.26427,0.64341,0.53025,1.28613,0.79228,1.93044
		c0.22827,0.56131,0.44477,1.12747,0.6818,1.68507c0.08266,0.19445,0.07878,0.3661,0.00157,0.55657
		C8.3256,7.72836,7.80181,9.0341,7.27728,10.33955c-0.05469,0.13611-0.16339,0.23159-0.25141,0.34277
		C7.01481,10.67155,7.00375,10.6608,6.99269,10.65006z"/>
	<path fill="#679397" d="M30.43228,6.46821c0.03571,0.21969-0.02224,0.43098-0.10406,0.62496
		c-0.11175,0.26492-0.19183,0.54042-0.2978,0.80718c-0.15396,0.38756-0.32859,0.76374-0.5257,1.12889
		c-0.21621,0.40054-0.46408,0.78592-0.76201,1.13093c-0.27034,0.31306-0.54607,0.63172-0.94429,0.79912
		c-0.17317,0.07279-0.35719,0.12168-0.52632,0.20205c-0.18645,0.0886-0.31492,0.2418-0.41059,0.42581
		c-0.16007,0.30786-0.25478,0.36588-0.67497,0.3648c-0.03724-0.0001-0.07449-0.0009-0.11173-0.0009
		c-4.16673,0.00003-8.33346,0.0001-12.50017,0.00018c-0.00013-0.03168-0.00029-0.06335-0.00044-0.09503
		c0.07772-0.06533,0.17175-0.04589,0.26032-0.04593c2.24981-0.00094,4.49963-0.00072,6.74945-0.00073
		c1.86155-0.00001,3.72311-0.00355,5.58463,0.00387c0.27763,0.00111,0.45916-0.08994,0.58382-0.34071
		c0.12055-0.24249,0.31266-0.43428,0.58574-0.50235c0.62635-0.15614,1.04676-0.57382,1.41796-1.06182
		c0.28914-0.38012,0.52675-0.79014,0.74374-1.21421c0.30374-0.59359,0.56318-1.20341,0.73894-1.84704
		c0.03439-0.12594,0.02642-0.26259,0.09766-0.37905C30.36838,6.46822,30.40033,6.46822,30.43228,6.46821z"/>
	<path fill="#6B989C" d="M30.33643,6.46822c-0.00793,0.29322-0.09648,0.569-0.19306,0.8415
		c-0.296,0.83518-0.67221,1.63306-1.17041,2.36887c-0.28382,0.41918-0.60207,0.8117-1.03731,1.09291
		c-0.18003,0.11632-0.38566,0.16703-0.5844,0.23359c-0.26763,0.08964-0.45837,0.26854-0.57373,0.5107
		c-0.12178,0.25563-0.30846,0.34291-0.58134,0.34268c-4.20734-0.00355-8.41468-0.00236-12.62201-0.00227
		c-0.0001-0.0317-0.00021-0.06341-0.00031-0.09511c4.20919-0.00008,8.41837-0.00144,12.62754,0.00304
		c0.24479,0.00026,0.3997-0.09196,0.50491-0.3047c0.11625-0.23505,0.29335-0.4419,0.54601-0.50376
		c0.70429-0.17242,1.17306-0.63704,1.56167-1.1951c0.61991-0.89024,1.07895-1.86026,1.37459-2.90386
		c0.0358-0.12638,0.06285-0.25552,0.05222-0.38881C30.27267,6.46801,30.30455,6.46812,30.33643,6.46822z"/>
	<path fill="#6B989C" d="M1.53393,2.47581c0.05297-0.0463,0.03156-0.10839,0.03199-0.16386
		C1.568,2.04285,1.56546,1.77371,1.56725,1.5046c0.0019-0.2871,0.14054-0.42357,0.43293-0.42399
		C2.78169,1.0795,3.56321,1.08026,4.34472,1.08028C4.34461,1.11201,4.3445,1.14374,4.3444,1.17546
		C4.27766,1.23454,4.19542,1.22195,4.1169,1.22204C3.43281,1.2228,2.74872,1.22209,2.06463,1.22263
		C1.79834,1.22284,1.71105,1.30882,1.71031,1.57018C1.70959,1.82283,1.71313,2.07553,1.70811,2.3281
		C1.7068,2.39407,1.73522,2.4825,1.62967,2.50762C1.59472,2.50604,1.5575,2.51114,1.53393,2.47581z"/>
	<path fill="#6E9DA1" d="M1.62967,2.50762C1.68263,2.46129,1.6613,2.39918,1.66171,2.34367
		C1.66375,2.06386,1.66163,1.78402,1.66297,1.5042c0.00105-0.21869,0.11268-0.32839,0.33564-0.3286
		c0.78193-0.00073,1.56386-0.0002,2.34579-0.00014c0.00004,0.03166,0.00009,0.06331,0.00013,0.09497
		C4.27775,1.32966,4.19539,1.31705,4.11676,1.31714c-0.6744,0.00079-1.34881-0.00009-2.02321,0.0007
		C1.8766,1.3181,1.80711,1.38627,1.80624,1.59827C1.80516,1.8618,1.80876,2.12538,1.80403,2.38885
		c-0.0012,0.0666,0.02605,0.15432-0.07785,0.18126C1.69401,2.54928,1.66184,2.52845,1.62967,2.50762z"/>
	<path fill="#709FA3" d="M1.72618,2.57011c0.05258-0.04665,0.03088-0.10875,0.03129-0.16424
		c0.00211-0.27992-0.00006-0.55987,0.00131-0.83981C1.75981,1.35722,1.84798,1.2709,2.06164,1.27069
		c0.76097-0.00076,1.52193-0.00028,2.28289-0.00026c-0.00001,0.0317-0.00002,0.06339-0.00003,0.09509
		C3.60147,1.3655,2.85844,1.3653,2.1154,1.36557C1.90409,1.36564,1.8546,1.41516,1.85432,1.62564
		c-0.00038,0.28973,0.00097,0.57948-0.00108,0.8692c-0.00037,0.05249,0.02612,0.12286-0.0627,0.13829
		C1.7691,2.61212,1.74764,2.59112,1.72618,2.57011z"/>
	<path fill="#FEFEFE" d="M25.16333,11.09442c-0.31984-0.00159-0.60034-0.19123-0.72541-0.49965
		c-0.25975-0.64055-0.51556-1.28267-0.77374-1.92385c-0.25029-0.62162-0.49872-1.244-0.75369-1.86372
		c-0.10419-0.25325-0.10232-0.49556,0.00173-0.75007c0.29735-0.72735,0.5848-1.45869,0.87614-2.18845
		c0.19991-0.49054,0.40686-0.97841,0.59681-1.47272c0.09847-0.25626,0.24436-0.45924,0.49549-0.58063
		c0.00424-0.00644,0.00847-0.01288,0.01264-0.01941c0.05574-0.02854,0.11198-0.05607,0.1702-0.08003
		c0.27512-0.03519,0.4874,0.09304,0.68216,0.262c0.04652,0.04036,0.06482,0.09516,0.02681,0.15503
		c-0.46192,0.24286-0.55345,0.67269-0.55556,1.13062c-0.00718,1.55788-0.0027,3.11582-0.00276,4.67374
		c-0.00004,0.96644,0.00047,1.93287-0.00072,2.89931C25.21333,10.92481,25.22922,11.01797,25.16333,11.09442z"/>
	<path fill="#FEFEFE" d="M18.87296,11.06273c-0.32593-0.00159-0.60139-0.19461-0.73054-0.51412
		c-0.25496-0.63079-0.50919-1.26187-0.76348-1.89292c-0.25231-0.62614-0.50141-1.25357-0.7579-1.87802
		c-0.10392-0.253-0.10349-0.49507-0.00019-0.74972c0.4242-1.04564,0.84101-2.09423,1.26054-3.14174
		c0.07228-0.17403,0.15324-0.34509,0.21477-0.52278c0.08983-0.25942,0.24361-0.45853,0.49415-0.57977
		c0.00423-0.00645,0.00845-0.01289,0.01261-0.01943c0.05573-0.02857,0.11198-0.05608,0.17019-0.08005
		c0.27512-0.03519,0.4874,0.09303,0.68217,0.26199c0.04652,0.04036,0.06483,0.09516,0.02682,0.15503
		c-0.4619,0.24287-0.55346,0.67268-0.55557,1.13062c-0.00717,1.55789-0.00269,3.11582-0.00275,4.67374
		c-0.00004,0.96644,0.00047,1.93287-0.00072,2.89931C18.92296,10.89312,18.93886,10.98628,18.87296,11.06273z"/>
	<path fill="#5F6C6F" d="M13.28505,10.65164c0.52631-1.30848,1.04902-2.61841,1.58236-3.92407
		c0.09216-0.22562,0.09074-0.42633-0.00096-0.64989c-0.42542-1.03715-0.84095-2.0783-1.25957-3.1182
		c-0.01359-0.03377-0.02223-0.0695-0.03317-0.10431c0.02795-0.01943,0.06049-0.01747,0.08995-0.01118
		c0.10341,0.0221,0.16634-0.01891,0.19684-0.11624c0.10016,0.06978,0.02678,0.21591,0.12748,0.28545
		c0.38643,0.95808,0.76815,1.91808,1.16324,2.87263c0.07962,0.19237,0.06531,0.35915-0.00873,0.54216
		c-0.52782,1.30457-1.04984,2.61146-1.5804,3.91493C13.51013,10.4706,13.44617,10.60997,13.28505,10.65164z"/>
	<path fill="#5F6C6F" d="M20.27768,2.98141c0.17008,0.43225,0.33817,0.86529,0.51073,1.29656
		c0.21919,0.5478,0.4362,1.09661,0.66661,1.63977c0.07519,0.17725,0.04891,0.33311-0.01754,0.49791
		c-0.52792,1.30936-1.05268,2.61998-1.58514,3.92752c-0.05195,0.12757-0.11594,0.26687-0.27694,0.30856
		c-0.03227-0.07883,0.01439-0.1437,0.04107-0.21029c0.481-1.20065,0.95826-2.40291,1.45597-3.59672
		c0.12974-0.31119,0.12471-0.57985-0.00416-0.88628c-0.39294-0.93434-0.76334-1.87801-1.14105-2.81863
		c-0.0287-0.07147-0.07725-0.14176-0.03997-0.22573c0.10378-0.07077,0.219-0.01018,0.32748-0.02785
		C20.23573,2.91796,20.25671,2.94968,20.27768,2.98141z"/>
	<path fill="#5A6668" d="M25.77765,2.08599c-0.18372-0.24483-0.43366-0.34663-0.73583-0.33561
		c-0.04835,0.03549-0.11281,0.03132-0.16198,0.0648c0,0,0.00083,0.00013,0.00083,0.00013
		c-0.05653-0.01116-0.0529-0.03249-0.01861-0.07173c0.2889-0.33061,0.91831-0.29466,1.16643,0.07361
		c0.18738,0.27811,0.28159,0.60023,0.40857,0.90618c0.24842,0.59857,0.48839,1.20061,0.73079,1.80163
		c0.01761,0.04366,0.02667,0.09073,0.0397,0.13621c0.02601,0.09972-0.04061,0.08771-0.09489,0.07008
		c-0.08896-0.02891-0.17097-0.07657-0.26065-0.10492c-0.0689-0.03388-0.08784-0.10205-0.11376-0.16506
		c-0.31303-0.76102-0.60577-1.53024-0.93808-2.28346C25.78714,2.14834,25.78565,2.11648,25.77765,2.08599z"/>
	<path fill="#5F6C6F" d="M26.84995,4.60018c0.10105-0.01113,0.17352,0.05738,0.25821,0.09167
		c0.04257,0.01724,0.08896,0.05248,0.09938-0.03062c0.09985,0.0699,0.02665,0.21594,0.12747,0.2854
		c0,0,0.00016,0.00025,0.00016,0.00025C27.3613,4.99764,27.36982,5.0554,27.39887,5.105
		c0.11061,0.27322,0.21577,0.54879,0.33377,0.81883c0.07633,0.17468,0.07537,0.33511,0.00275,0.51355
		c-0.53377,1.31148-1.05851,2.62659-1.59283,3.93785c-0.05191,0.1274-0.11586,0.26667-0.2768,0.3082
		c-0.03229-0.07893,0.01443-0.14389,0.04115-0.21055c0.47992-1.19715,0.96471-2.39237,1.44585-3.58904
		c0.04738-0.11784,0.08543-0.23865,0.12906-0.35757c0.02341-0.0638,0.02116-0.11881-0.00098-0.18292
		c-0.17951-0.51987-0.4062-1.02132-0.60296-1.53438C26.8526,4.743,26.8002,4.67736,26.84995,4.60018z"/>
	<path fill="#5A6668" d="M20.21476,2.88623c-0.00639,0.05592-0.03909,0.07159-0.08801,0.05121
		c-0.07625-0.03176-0.15545-0.01397-0.23328-0.01856c-0.03192,0.00638-0.05152-0.01256-0.06165-0.037
		c-0.11433-0.27613-0.26338-0.53803-0.3447-0.82767c-0.18367-0.24475-0.43357-0.34645-0.73561-0.3355
		c-0.0484,0.03542-0.11285,0.0313-0.16203,0.06481c0,0,0.00083,0.00014,0.00083,0.00015
		c-0.05526-0.01094-0.05374-0.03148-0.01916-0.07132c0.28445-0.32768,0.92372-0.29979,1.16146,0.06729
		C19.9532,2.12019,20.07678,2.50747,20.21476,2.88623z"/>
	<path fill="#5A6668" d="M13.86051,2.72776c0.02226,0.17951-0.04371,0.20882-0.28679,0.12741
		c-0.09822-0.22409-0.19573-0.4485-0.29526-0.67202c-0.02075-0.0466-0.03114-0.1012-0.08221-0.12943
		c-0.18357-0.24455-0.43338-0.34591-0.73511-0.33501c-0.0484,0.03542-0.11286,0.0313-0.16203,0.06481
		c0,0,0.00083,0.00014,0.00083,0.00015c-0.05544-0.01097-0.05363-0.03163-0.01909-0.07139
		c0.28505-0.32809,0.92035-0.29737,1.16285,0.06788C13.63655,2.0706,13.74312,2.40246,13.86051,2.72776z"/>
	<path fill="#5A6769" d="M7.21856,1.90463C7.24399,2.00307,7.21298,2.04466,7.1044,2.03318
		C7.03144,2.02547,6.95727,2.03096,6.8875,2.00196c-0.20565-0.17726-0.42954-0.309-0.71663-0.28322
		C6.1224,1.75406,6.05795,1.75,6.00876,1.78355c0,0,0.00084,0.00016,0.00084,0.00017
		C5.90246,1.74788,5.99438,1.71062,6.01521,1.69225C6.43356,1.32333,6.97731,1.43189,7.21856,1.90463z"/>
	<path fill="#DCDEE0" d="M26.84995,4.60018c0.13128,0.40555,0.31348,0.79148,0.46527,1.18914
		c0.07275,0.1906,0.15453,0.37785,0.22512,0.5692c0.05326,0.14439-0.04643,0.26403-0.0937,0.38422
		c-0.35048,0.8911-0.71221,1.77785-1.06987,2.66618c-0.17094,0.42459-0.3407,0.84964-0.511,1.27449
		c-0.1635,0.25596-0.38023,0.42229-0.70244,0.41101c0.00014-2.62505-0.001-5.2501,0.00217-7.87515
		c0.00037-0.30336,0.06843-0.59114,0.23875-0.85466c0.09379-0.14511,0.24289-0.19435,0.37339-0.27861
		c0.15129,0.19425,0.21137,0.43184,0.30431,0.65223c0.2469,0.58546,0.47718,1.17782,0.71498,1.76708
		C26.81038,4.53861,26.83209,4.56863,26.84995,4.60018z"/>
	<path fill="#DCDEE0" d="M19.48712,2.05421c0.14801,0.19598,0.19704,0.43799,0.30726,0.65161
		c0.03589,0.06956,0.06622,0.14196,0.09909,0.21306c0.20258,0.51414,0.40351,1.02893,0.60818,1.54225
		c0.2474,0.6205,0.4994,1.23919,0.74613,1.85994c0.05961,0.14999-0.04534,0.27438-0.09497,0.39955
		c-0.435,1.09701-0.87896,2.19052-1.31991,3.28521c-0.0866,0.21499-0.17169,0.43057-0.25748,0.64589
		c-0.16352,0.25594-0.38023,0.4223-0.70245,0.41101c0.00014-2.62504-0.001-5.25008,0.00217-7.87511
		c0.00037-0.30336,0.06845-0.59113,0.23871-0.85468C19.20761,2.18781,19.35686,2.13876,19.48712,2.05421z"/>
	<path fill="#5E898C" d="M27.39887,5.105c-0.05097-0.0409-0.066-0.09607-0.06371-0.15811
		C27.38571,4.98796,27.40102,5.04301,27.39887,5.105z"/>
	<path fill="#5E898C" d="M6.00876,1.78355c0.04166-0.05211,0.10102-0.06064,0.16213-0.06483
		C6.13007,1.77297,6.07027,1.78038,6.00876,1.78355z"/>
	<path fill="#5E898C" d="M12.29911,1.78352c0.04163-0.05212,0.10097-0.06062,0.16204-0.06482
		C12.42043,1.77306,12.36062,1.78037,12.29911,1.78352z"/>
	<path fill="#5E898C" d="M24.87984,1.81518c0.04161-0.05212,0.10093-0.06061,0.16199-0.06481
		C25.00115,1.80481,24.94133,1.81206,24.87984,1.81518z"/>
	<path fill="#5E898C" d="M18.58948,1.78351c0.04163-0.05211,0.10097-0.06062,0.16204-0.06482
		C18.7108,1.77306,18.65099,1.78037,18.58948,1.78351z"/>
</g>
</svg>
