<?xml version="1.0" encoding="utf-8"?>
<!-- Generator: Adobe Illustrator 23.0.0, SVG Export Plug-In . SVG Version: 6.00 Build 0)  -->
<svg version="1.1" id="Слой_1" xmlns="http://www.w3.org/2000/svg" xmlns:xlink="http://www.w3.org/1999/xlink" x="0px" y="0px" width="32px" height="13px"
	 viewBox="0 0 32 13" enable-background="new 0 0 32 13" xml:space="preserve">
<g>
	<path fill="#2D2D2D" d="M0.00225,12.20456c0-2.20796,0-4.41593,0-6.6239c0.03484-0.02885,0.07491-0.03615,0.11867-0.0287
		c0.30471,0.10753,0.41072,0.26299,0.41096,0.61574c0.00116,1.65234,0.00038,3.30467,0.00055,4.95701
		c0.00003,0.25339-0.00339,0.50683,0.00116,0.76017c0.0063,0.35067,0.20489,0.54537,0.55886,0.55347
		c0.06912,0.00158,0.13828,0.00062,0.20742,0.00062c5.03139,0.00002,10.06278,0.00001,15.09417,0.00004
		c0.07446,0,0.14894-0.00118,0.22337,0.00091c0.30537,0.00858,0.46824,0.1301,0.56346,0.41944
		c0.00416,0.04391-0.00023,0.08515-0.03737,0.11586c-0.06345,0.01024-0.12743,0.00507-0.19116,0.00508
		c-5.29465,0.00028-10.58931,0.00018-15.88396,0.00114c-0.06787,0.00001-0.13821-0.01705-0.20401,0.01545
		c-0.02129,0-0.04257,0-0.06386,0c-0.33183-0.05126-0.56626-0.23332-0.72469-0.52323
		C0.02903,12.38801,0.03066,12.29308,0.00225,12.20456z"/>
	<path fill="#262727" d="M31.99691,6.78501c-0.06809,0.03773-0.04715,0.11021-0.0594,0.16591
		c-0.39912,1.81492-1.17801,3.443-2.43218,4.8313c-0.4517,0.50001-0.98541,0.89516-1.64168,1.10545
		c-0.12238,0.03921-0.25887,0.03076-0.36898,0.10923c-0.05322,0-0.10644,0-0.15965,0
		c-0.06033-0.03172-0.1254-0.01548-0.18795-0.0155c-3.31336-0.00108-6.62672-0.00052-9.94008-0.00103
		c-0.02224,0.00184-0.04137-0.00496-0.05738-0.02038c-0.00017-0.02995-0.00034-0.05991-0.00051-0.08987
		c0.08267-0.06982,0.18268-0.04486,0.27569-0.04491c2.59014-0.0014,5.18027-0.00111,7.77041-0.00111
		c0.64355,0,1.2872-0.00727,1.9306,0.00236c0.49167,0.00736,0.93093-0.14304,1.34224-0.3928
		c0.301-0.18277,0.55404-0.4214,0.80717-0.66499c0.73802-0.71021,1.25873-1.56714,1.6928-2.47521
		c0.38063-0.7963,0.69538-1.62145,0.83759-2.5003c0.01682-0.10392,0.00055-0.21207,0.04271-0.31225
		c0.0232-0.0356,0.0571-0.0408,0.09553-0.03289c0.04341,0.0116,0.02779,0.06034,0.05309,0.08344
		C31.99691,6.61598,31.99691,6.7005,31.99691,6.78501z"/>
	<path fill="#1A1A1A" d="M31.96232,6.46722c-0.03099,0.00035-0.06199,0.0007-0.09298,0.00106
		c-0.04772,0.02091-0.07377,0.0121-0.06416-0.04599c0.06061-0.1573,0.01527-0.31387-0.01158-0.46757
		c-0.12272-0.70242-0.36961-1.36663-0.66622-2.01134c-0.40354-0.87713-0.89063-1.70878-1.52856-2.439
		c-0.39678-0.45418-0.846-0.86123-1.39323-1.14126c-0.38106-0.195-0.78998-0.27983-1.21652-0.28014
		c-1.76632-0.00125-3.53264-0.00052-5.29897-0.00052c-5.45857,0-10.91714-0.00002-16.37572,0.00013
		c-0.11167,0-0.22393-0.00668-0.33359,0.02279C4.95084,0.11189,4.92434,0.10824,4.90674,0.07972
		c-0.0107-0.02808-0.00696-0.05389,0.01285-0.07707c7.5676,0,15.1352,0,22.7028,0c0.54725,0.15603,1.03094,0.42411,1.46039,0.79588
		c0.58691,0.50808,1.05576,1.11143,1.46037,1.76595c0.62529,1.0115,1.10946,2.08304,1.37421,3.24577
		c0.02359,0.10358,0.01355,0.21626,0.07955,0.3092c0,0.06339,0,0.12677,0,0.19016
		C31.95632,6.35586,32.00553,6.42153,31.96232,6.46722z"/>
	<path fill="#252525" d="M4.91959,0.00265C4.91953,0.02374,4.91948,0.04483,4.91942,0.06593
		c-0.08125,0.07212-0.18151,0.049-0.2746,0.04914C3.43704,0.11694,2.22925,0.11373,1.02148,0.11741
		c-0.52593,0.0016-0.86555,0.34356-0.87262,0.86541C0.14807,1.0409,0.14857,1.099,0.14857,1.15709
		c-0.00003,1.38363,0.00052,2.76726-0.00112,4.1509c-0.00011,0.09241,0.02312,0.1919-0.04936,0.27262
		C0.06614,5.58063,0.03419,5.58065,0.00225,5.58067c0-1.61636,0-3.23271,0-4.84907c0.05855-0.37618,0.26539-0.62436,0.63862-0.72895
		C2.06711,0.00265,3.49335,0.00265,4.91959,0.00265z"/>
	<path fill="#697681" d="M17.1496,12.95999c0.00971,0.00373,0.01962,0.00684,0.02972,0.00935
		c0.01135,0.00546,0.01536,0.01135,0.0121,0.0177c-0.00336,0.00656-0.00681,0.00985-0.0104,0.00985
		c-5.43888,0-10.87776,0-16.31664,0c0.04292-0.06314,0.1075-0.03102,0.16094-0.03103
		c5.32693-0.00157,10.65386-0.00146,15.98079-0.00165C17.05394,12.96421,17.10177,12.96145,17.1496,12.95999z"/>
	<path fill="#535F69" d="M17.18102,12.99689c-0.00011-0.00922-0.00067-0.01842-0.00169-0.02757
		c0.05315-0.00135,0.1063-0.00391,0.15946-0.00392c3.28301-0.00031,6.56602-0.00052,9.84904,0.0004
		c0.04974,0.00001,0.10786-0.02364,0.14719,0.03109C23.95035,12.99689,20.56568,12.99689,17.18102,12.99689z"/>
	<path fill="#404C56" d="M31.96232,6.46722c0.01474-0.05184-0.02379-0.1152,0.03459-0.1576c0,0.07395,0,0.1479,0,0.22185
		C31.96879,6.51885,31.96571,6.49295,31.96232,6.46722z"/>
	<path fill="#202020" d="M0.09808,5.58061c-0.00002-1.54011-0.00012-3.08022,0-4.62033
		c0.00004-0.51903,0.37744-0.89412,0.8997-0.8942C2.305,0.06589,3.61221,0.06596,4.91942,0.06593
		c0.01064,0.01064,0.02128,0.02128,0.03193,0.03192c0.04366,0.02486,0.0649,0.06882,0.09224,0.10741
		c0.08564,0.12087,0.20449,0.18094,0.35126,0.19C5.4799,0.40051,5.56508,0.39828,5.6502,0.39828
		c7.02902,0.00009,14.05805,0.00474,21.08705-0.0088c0.55949-0.00108,1.03711,0.16021,1.51205,0.41332
		c0.69131,0.36842,1.18742,0.9296,1.63129,1.55254c0.4435,0.62242,0.72928,1.32301,1.03921,2.01193
		c0.17585,0.39087,0.33204,0.78997,0.43041,1.20823c0.07688,0.32684,0.1607,0.64822,0.45496,0.86108
		c0.01393,0.02544,0.0379,0.03087,0.06417,0.03169c0.00679,0.4485-0.11965,0.87264-0.25237,1.29329
		C31.47009,8.22714,31.28036,8.6759,31.0855,9.1251c-0.31538,0.72701-0.72503,1.39095-1.19183,2.02606
		c-0.20607,0.28037-0.46843,0.50803-0.70507,0.75982c-0.29875,0.31787-0.64621,0.55719-1.03588,0.74066
		c-0.29409,0.13847-0.60365,0.22004-0.93493,0.21982c-3.35623-0.00217-6.71246-0.00134-10.06869-0.00135
		c-0.10196-0.29204-0.31434-0.38412-0.6164-0.38384c-5.14297,0.0049-10.28595,0.00073-15.4289,0.00971
		c-0.34754,0.00061-0.63121-0.28369-0.6289-0.61815C0.48795,9.9828,0.47759,8.08761,0.48492,6.19251
		C0.48608,5.89258,0.39217,5.68193,0.09808,5.58061z"/>
	<path fill="#131313" d="M31.80517,6.43658c-0.22489-0.05813-0.3148-0.23908-0.38186-0.43071
		c-0.12856-0.36732-0.19735-0.7517-0.34122-1.11654c-0.1529-0.38775-0.32437-0.76677-0.49199-1.14767
		c-0.26204-0.59546-0.58978-1.15121-0.98067-1.67578c-0.54525-0.73173-1.2497-1.23284-2.10033-1.54995
		c-0.14279-0.05323-0.28385-0.07107-0.43435-0.07104C19.86969,0.44658,12.66463,0.44637,5.45958,0.44632
		c-0.29313,0-0.45802-0.11334-0.50823-0.34847c0.00567-0.04424,0.03182-0.06363,0.07582-0.06307
		c0.04254,0.00054,0.0851-0.00036,0.12766-0.00036c7.30342-0.00002,14.60684-0.00124,21.91026,0.00247
		c0.54106,0.00027,1.03348,0.1684,1.48521,0.47661c0.17302,0.11805,0.33561,0.24957,0.50583,0.37034
		c0.13077,0.09278,0.21323,0.25094,0.3406,0.35049c0.23318,0.18226,0.41112,0.41171,0.5741,0.64783
		c0.25722,0.37263,0.50624,0.75076,0.73422,1.14418c0.39927,0.68901,0.70755,1.41264,0.95337,2.16585
		c0.121,0.37076,0.18998,0.7521,0.24065,1.13742C31.90852,6.40145,31.88471,6.44262,31.80517,6.43658z"/>
	<path fill="#262626" d="M14.06714,0.8267c4.25684,0,8.51369,0.00228,12.77052-0.00239
		c0.65992-0.00072,1.2077,0.22829,1.69861,0.66155c0.35494,0.31326,0.66573,0.66379,0.93064,1.04387
		C29.8512,3.08105,30.18366,3.6659,30.4499,4.2888c0.13991,0.32735,0.28702,0.65241,0.39933,0.98891
		c0.20359,0.60999,0.31133,1.22618,0.12263,1.87094c-0.13435,0.45902-0.26801,0.92106-0.46282,1.35359
		c-0.23147,0.51391-0.48066,1.02274-0.77633,1.50866c-0.27234,0.44758-0.59592,0.85684-0.95131,1.2298
		c-0.36478,0.38282-0.79407,0.71825-1.34736,0.81721c-0.17599,0.03148-0.35703,0.04942-0.53577,0.04947
		c-8.55625,0.00235-17.1125,0.00205-25.66876,0.00203c-0.03192,0-0.06403,0.00182-0.09574-0.00087
		c-0.20137-0.0171-0.25326-0.06922-0.26849-0.27087c-0.00317-0.04202-0.00085-0.08447-0.00085-0.12672
		c-0.00002-3.49633-0.00003-6.99267,0-10.489c0-0.35708,0.03866-0.39524,0.40027-0.39524
		C5.53218,0.82669,9.79966,0.8267,14.06714,0.8267z"/>
	<path fill="#435735" d="M20.89318,12.00939c-0.01295,0.00107-0.02591,0.00214-0.03886,0.00321
		c-0.06393-0.074-0.04483-0.16333-0.04695-0.24881c-0.00313-0.03869-0.00019-0.07759-0.00528-0.11615
		c-0.01821-0.0713-0.07638-0.08064-0.13619-0.08579c-0.06356-0.00547-0.12739-0.0032-0.1911-0.00321
		c-2.19873-0.00009-4.39747,0.00016-6.59621-0.00077c-0.09979-0.00004-0.20257,0.01613-0.29749-0.03237
		c-0.05946-0.05151-0.05315-0.12289-0.05663-0.1906c-0.02151-0.4187-0.24585-0.63383-0.67049-0.63406
		c-2.14316-0.00115-4.28631-0.00139-6.42946,0.0007c-0.27035,0.00026-0.51592-0.05896-0.72695-0.23297
		c-0.16412-0.13533-0.27707-0.30155-0.33325-0.50862c-0.11637-0.42891-0.29166-0.5586-0.74146-0.55894
		C4.09639,9.4006,3.56991,9.40125,3.04343,9.40082C2.31715,9.40024,1.90131,8.99029,1.90109,8.27316
		c-0.00052-1.67327-0.00124-3.34654,0.00124-5.0198c0.0003-0.20221-0.0048-0.40067-0.09153-0.58806
		c0.03518-0.11309,0.00131-0.26218,0.16242-0.31077C2.22215,2.29817,2.2417,2.27418,2.26045,2.01776
		c0.01739-0.2378,0.07632-0.45735,0.27853-0.61341c0.04663-0.03599,0.0921-0.0712,0.15304-0.0794
		c0.514-0.02132,1.02794-0.00651,1.54179-0.00818c0.04781-0.00015,0.09531,0.00578,0.13863,0.02902
		c0.05085,0.03394,0.07638,0.08707,0.10291,0.13854C4.6433,1.81021,4.9158,1.95183,5.27937,1.95121
		c1.399-0.00237,2.79802-0.00127,4.19702-0.00032c0.0893,0.00006,0.18178-0.01425,0.26501,0.03491
		c0.0617,0.0717,0.04708,0.15935,0.04731,0.24223c0.00156,0.5647,0.00128,1.1294,0.00061,1.6941
		C9.7889,4.28176,9.78316,4.22842,10.1127,4.23418c0.08849,0.00155,0.17074-0.00526,0.22546-0.0868
		c0.10933-0.04751,0.08592-0.14746,0.08639-0.23187c0.00311-0.55199,0.00092-1.104,0.00207-1.656
		c0.00017-0.08337-0.01071-0.16895,0.031-0.24752c0.23034-0.1337,0.67326-0.06994,0.90827,0.12968
		c0.10595,0.08999,0.19026,0.19948,0.27577,0.30676c0.20299,0.25469,0.46152,0.36412,0.79055,0.3634
		c2.39313-0.00524,4.78628-0.00257,7.17943-0.00329c0.19792-0.00006,0.39332,0.01735,0.58336,0.07247
		c0.23529,0.06825,0.41782,0.2086,0.53478,0.42269c0.17556,0.32135,0.44716,0.46219,0.81041,0.45736
		c0.40942-0.00545,0.81924,0.00825,1.22841-0.0031c1.06951-0.02967,2.10612,0.16293,3.13078,0.44051
		c0.25635,0.06944,0.51423,0.13484,0.76489,0.22376c0.58714,0.20829,1.07832,0.56461,1.53038,0.98054
		c0.07406,0.06814,0.14496,0.13984,0.21449,0.21256c0.29354,0.30703,0.64808,0.50885,1.06052,0.61369
		c0.07055,0.01793,0.14912,0.02241,0.19987,0.08684c-0.01711,0.08976-0.09484,0.08505-0.15905,0.0971
		c-0.0587,0.01101-0.1148,0.02333-0.15548,0.0712c-0.04386,0.05162-0.06441,0.10941-0.04307,0.17616
		c0.02411,0.07541,0.08132,0.10917,0.15713,0.11138c0.10699,0.00313,0.21232,0.01487,0.3144,0.04774
		c0.06031,0.01942,0.12502,0.03361,0.15229,0.10236c-0.04693,0.28889-0.16145,0.55626-0.2712,0.82441
		c-0.31755,0.77586-0.70284,1.51519-1.23856,2.1674c-0.30301,0.3689-0.64971,0.67603-1.14106,0.79151
		c-0.33749,0.07932-0.58243,0.3055-0.73939,0.60872c-0.09009,0.17404-0.21238,0.24094-0.40522,0.2404
		c-1.42503-0.00405-2.85008-0.00175-4.27513-0.00265c-0.23438-0.00015-0.25614-0.02263-0.25687-0.2527
		c-0.00128-0.40111,0.00131-0.80223-0.00124-1.20333c-0.00097-0.15266-0.0146-0.16167-0.16645-0.14009
		c-0.10099,0.01436-0.20082,0.01207-0.30103-0.00994c-0.03586-0.00788-0.09183-0.01669-0.04645,0.05325
		c0.10178,0.00813,0.20282,0.00052,0.30368,0.00515c0.10706,0.00491,0.17016,0.054,0.16948,0.1658
		c-0.00294,0.48479,0.01714,0.96976-0.01036,1.45449c-0.00728,0.01951-0.01928,0.03558-0.03568,0.04832
		c-0.02211,0.00308-0.03872-0.00508-0.0498-0.0243c-0.03672-0.07444-0.02758-0.15482-0.02787-0.23343
		c-0.00135-0.3643,0.00128-0.72861-0.0014-1.0929c-0.00128-0.17383-0.0179-0.19083-0.19306-0.19071
		c-0.32043,0.00023-0.31377-0.04747-0.31363,0.30289c0.00018,0.44878,0.00087,0.89756-0.0007,1.34634
		C20.93355,11.85835,20.94689,11.94018,20.89318,12.00939z"/>
	<path fill="#2E3D25" d="M29.66526,6.34061c-0.22446-0.09098-0.46639-0.1298-0.6852-0.24151
		c-0.20113-0.10268-0.38146-0.23002-0.53749-0.38859c-0.38349-0.38972-0.79486-0.74258-1.2752-1.01222
		c-0.35935-0.20172-0.75264-0.30719-1.1451-0.41846C25.48259,4.1268,24.93697,3.9992,24.3826,3.9142
		c-0.34432-0.05279-0.69042-0.10497-1.04002-0.10722c-0.62787-0.00405-1.25581,0.00208-1.88367-0.00245
		c-0.3346-0.00242-0.59247-0.14977-0.75045-0.44622c-0.15499-0.29081-0.39934-0.42848-0.72135-0.47583
		c-0.2497-0.03672-0.49792-0.02595-0.74666-0.02619c-2.24021-0.00214-4.48048-0.00921-6.72059,0.0057
		c-0.43041,0.00286-0.75514-0.13388-0.99348-0.47461c-0.19974-0.28556-0.45676-0.42967-0.8114-0.38935
		c-0.07879,0.00896-0.15948,0.00152-0.2393,0.00163c-0.00686-0.00742-0.01371-0.01484-0.02069-0.0222
		c-0.05125-0.13203-0.0205-0.26955-0.02572-0.40449c-0.00648-0.16742,0.00241-0.33516-0.00464-0.50277
		c-0.0019-0.04509-0.01418-0.09587,0.03333-0.12982c0.05853-0.00442,0.11708-0.0022,0.17559-0.0022
		c5.5341-0.00011,11.06821-0.00012,16.60217-0.00012c0.08718,0.01202,0.17365,0.02871,0.2598,0.04713l-0.0013-0.00075
		c0.06289,0.02557,0.13273,0.03056,0.19289,0.06421l-0.00103-0.00072c0.04973,0.02946,0.1081,0.03764,0.15923,0.06363
		c0.23751,0.1619,0.4939,0.2923,0.70986,0.49061c0.33191,0.30478,0.61682,0.64626,0.87403,1.01124
		c0.52791,0.74909,0.93029,1.56354,1.25063,2.41896c0.02375,0.06341,0.05006,0.12823,0.03945,0.19922
		c-0.02439,0.10728-0.05451,0.21313-0.07798,0.32071c-0.10079,0.46203-0.4272,0.68929-0.8577,0.80635
		C29.74251,6.36982,29.70005,6.37648,29.66526,6.34061z"/>
	<path fill="#455C3D" d="M1.82228,2.63322c0.09403,0.12185,0.12971,0.25804,0.12947,0.41263
		C1.94904,4.82001,1.94991,6.59419,1.95009,8.36837c0.00006,0.5575,0.43074,0.98354,0.99403,0.98375
		c0.59582,0.00022,1.19165-0.00007,1.78747,0.0001c0.33738,0.0001,0.60026,0.17756,0.65596,0.506
		c0.08419,0.49635,0.57796,0.8028,1.04115,0.7997c2.13848-0.01433,4.27719,0.00221,6.41565-0.01367
		c0.4172-0.0031,0.78371,0.30484,0.72918,0.73647c-0.00525,0.04158-0.00063,0.0844-0.00059,0.12664
		c0.03972,0.04463,0.04462,0.09887,0.04367,0.15479c0.00248,0.03667,0.00088,0.07335,0.0008,0.11007
		c-0.00062,0.08302,0.0162,0.16936-0.04585,0.24078c-3.51934,0.00047-7.03868,0.00088-10.55803,0.00189
		c-0.05927,0.00002-0.11668-0.00278-0.1699-0.03152c-0.1377-0.00271-0.22047-0.09814-0.29896-0.18804
		c-0.15802-0.18099-0.24032-0.39541-0.25292-0.63582c-0.01336-0.25499-0.0533-0.29296-0.31683-0.30891
		c-0.43577-0.02637-0.92092-0.44483-0.98814-0.85122C0.97732,9.94201,0.96595,9.88552,0.98988,9.82916
		C0.98155,9.79563,0.97323,9.7621,0.96491,9.72856c0.02026-0.04559,0.0113-0.09381,0.01131-0.14079
		c0.00047-2.08055,0.00048-4.1611-0.00005-6.24164C0.97616,3.29928,0.98622,3.25087,0.96328,3.20584
		c-0.00085-0.0105-0.00159-0.02101-0.00225-0.03153c0.05379-0.18885,0.13952-0.36178,0.27245-0.50779
		C1.32944,2.56113,1.4327,2.46218,1.58927,2.4539C1.68502,2.49041,1.78495,2.52182,1.82228,2.63322z"/>
	<path fill="#2F3D27" d="M30.65619,7.83052c-0.01396,0.19326-0.10626,0.36269-0.17836,0.53555
		c-0.31932,0.76558-0.69985,1.50008-1.20104,2.16572c-0.36247,0.48141-0.76218,0.92965-1.29625,1.23515
		c-0.26494,0.15154-0.54567,0.24894-0.85828,0.24855c-1.86624-0.00231-3.73247-0.00128-5.59871-0.00138
		c-0.06517-0.11613-0.06519-0.23228-0.00006-0.34843l-0.00003-0.00006c0.08397-0.03625,0.08795,0.03147,0.10648,0.08037
		c0.01044,0.12636,0.08475,0.16271,0.20523,0.16254c1.48917-0.00213,2.97834-0.00088,4.46752-0.00175
		c0.22777-0.00013,0.40569-0.089,0.49986-0.30106c0.14938-0.33642,0.41446-0.52204,0.76344-0.61444
		c0.47125-0.12477,0.80106-0.45028,1.09932-0.80505c0.65871-0.7835,1.10888-1.68429,1.46778-2.63386
		c0.04843-0.12814,0.08443-0.26131,0.15569-0.38029c0.04493-0.0338,0.08314-0.00642,0.11125,0.02158
		C30.57634,7.3692,30.69491,7.56912,30.65619,7.83052z"/>
	<path fill="#33442A" d="M13.57158,12.013c0.00064-0.08391,0.00128-0.16782,0.00192-0.25174
		c0.05609-0.05272,0.12663-0.04757,0.1956-0.04758c2.29594-0.00026,4.59187-0.00026,6.88781,0
		c0.06899,0.00001,0.1395-0.00504,0.19561,0.04761c0.00059,0.08378,0.00119,0.16756,0.0018,0.25133
		C18.42674,12.01273,15.99916,12.01287,13.57158,12.013z"/>
	<path fill="#202020" d="M1.59845,2.47363C1.30042,2.55712,1.16333,2.79491,1.04119,3.0468
		c-0.02206,0.0455-0.02253,0.1041-0.08017,0.12748C0.96075,2.92361,0.96083,2.6729,0.9599,2.4222
		C0.95968,2.3644,0.95794,2.30698,0.99254,2.25624C0.99401,2.23279,1.00333,2.21263,1.01836,2.1948
		C1.14333,2.08792,1.276,1.99346,1.43644,1.94479c0.04147-0.01191,0.08423-0.01888,0.12558-0.03147
		c0.0472-0.01343,0.09756-0.01138,0.14376-0.02969c0.01257-0.00642,0.02525-0.01237,0.0377-0.01888
		C1.81383,1.81701,1.80556,1.73683,1.8265,1.66873c0.04451-0.14481,0.08338-0.29174,0.15891-0.42519
		c0.03311-0.04751,0.06524-0.0958,0.10263-0.1403c0.01987-0.0211,0.04331-0.03796,0.06653-0.05503
		c0.03826-0.03154,0.07175-0.06885,0.11474-0.09474c0.04155-0.04839,0.09828-0.03082,0.14914-0.031
		c0.3448-0.00117,0.68961-0.0003,1.03442-0.0001C3.46363,0.9357,3.46819,0.95086,3.46663,0.96785
		C3.43451,1.05637,3.35775,1.07781,3.27679,1.08517C3.20225,1.09195,3.12999,1.104,3.06096,1.13238
		c-0.06825,0.02587-0.1354,0.05415-0.19554,0.09638c-0.06556,0.05464-0.13896,0.09709-0.21476,0.1358
		C2.39773,1.52855,2.30414,1.77079,2.30154,2.05929c-0.00219,0.24284-0.07247,0.31214-0.3202,0.32228
		C1.85172,2.40411,1.73762,2.49025,1.59845,2.47363z"/>
	<path fill="#202020" d="M30.65619,7.83052c-0.04367-0.26018-0.11699-0.50498-0.35089-0.66649
		c-0.0451-0.00526-0.0715-0.03961-0.10362-0.06502c-0.02075-0.01647-0.04306-0.03083-0.06546-0.04501
		c-0.027-0.01844-0.05309-0.03826-0.08248-0.05316c-0.04691-0.02554-0.09908-0.04337-0.13254-0.08859
		c-0.14222-0.06061-0.28885-0.10536-0.44537-0.09477c-0.14247,0.00964-0.20517-0.06885-0.22222-0.19222
		c-0.01631-0.11803,0.08899-0.24466,0.20939-0.25023c0.07005-0.00324,0.13551-0.01945,0.20228-0.03441
		c0.53591-0.10867,0.88154-0.36206,0.96108-0.91868c0.00996-0.06968,0.01539-0.14952,0.09292-0.19034
		c0.09761,0.23458,0.2018,0.46746,0.1923,0.72985c0.03709,0.1367-0.05509,0.22617-0.12757,0.31636
		c-0.08535,0.10621-0.18832,0.19747-0.3062,0.26982c-0.08266,0.05073-0.07987,0.0976,0.00156,0.15066
		c0.12348,0.08046,0.24474,0.16484,0.32467,0.29342c0.02696,0.04337,0.06914,0.08213,0.0437,0.14146
		C30.85215,7.38409,30.75152,7.60659,30.65619,7.83052z"/>
	<path fill="#202020" d="M0.98988,9.82916c-0.005,0.2391,0.13541,0.41482,0.26737,0.59193
		c0.19837,0.26624,0.4596,0.4052,0.80209,0.39136c0.17775-0.00718,0.27209,0.08604,0.27203,0.25672
		c-0.00013,0.40119,0.15994,0.70969,0.51228,0.91419c-0.24405,0.05319-0.48802,0.04886-0.73194-0.00086
		c-0.11341-0.03969-0.14616-0.14467-0.19101-0.23774c-0.03198-0.06636-0.05494-0.13917-0.06003-0.21163
		c-0.0117-0.16642-0.10215-0.23499-0.2621-0.25624c-0.17502-0.02325-0.33415-0.09797-0.47997-0.19774
		c-0.05227-0.03577-0.10624-0.07028-0.13161-0.13262c-0.00948-0.01611-0.00754-0.03071,0.00575-0.04382
		c-0.05052-0.07687-0.0352-0.16372-0.03115-0.24605C0.97517,10.38093,0.92398,10.10299,0.98988,9.82916z"/>
	<path fill="#FDFDFD" d="M20.89318,12.00939c-0.00093-0.60151,0.00055-1.20304-0.00499-1.80451
		c-0.001-0.10842,0.02003-0.15054,0.14012-0.13327c0.10932,0.01573,0.22371,0.01242,0.33407,0.00073
		c0.1048-0.0111,0.1239,0.02824,0.12365,0.1221c-0.00129,0.49041,0.00364,0.98083,0.0064,1.47124
		c0.01928,0.11551,0.03333,0.23087-0.00919,0.34476C21.28656,12.0101,21.08987,12.00974,20.89318,12.00939z"/>
	<path fill="#455C3D" d="M0.99602,10.93237c0.19728,0.17972,0.42977,0.28723,0.69425,0.32086
		c0.12492,0.01588,0.18377,0.0771,0.19642,0.19997c0.02039,0.19809,0.09674,0.37516,0.22502,0.5293
		c-0.03608,0.04479-0.08711,0.03138-0.1332,0.03139c-0.32926,0.00009-0.65853-0.00122-0.98779-0.00209
		C0.97034,11.65188,0.96115,11.29202,0.99602,10.93237z"/>
	<path fill="#535F69" d="M3.45267,0.95172C3.45159,0.94193,3.45165,0.93215,3.45286,0.92237
		c7.89629-0.00019,15.79258-0.00039,23.68886-0.00046c0.04255,0,0.0851,0.00179,0.12766,0.00274
		c0.01185,0.00572,0.01591,0.01169,0.01225,0.01792c-0.00372,0.00633-0.00748,0.00951-0.01136,0.00951
		c-5.5341,0.00045-11.0682,0.0009-16.60229,0.00148c-0.07447,0.00001-0.14895,0.0017-0.22342,0.00261
		c-0.04111,0.04237-0.09586,0.04485-0.14959,0.05081c-0.18372-0.0151-0.36735-0.0065-0.55122,0.00262
		C8.01477,0.99804,6.28603,1.00831,4.5573,1.00486C4.48817,1.00472,4.41898,1.0072,4.35,1.00055
		C4.10923,1.00834,3.86841,1.00412,3.62763,1.00271C3.56559,1.00234,3.50038,1.00431,3.45267,0.95172z"/>
	<path fill="#2F3D26" d="M30.84773,7.13317c-0.08825-0.18786-0.23873-0.31804-0.41317-0.41991
		c-0.12265-0.07163-0.10219-0.11863,0.00241-0.18576c0.21648-0.13894,0.40463-0.30459,0.47461-0.56605
		c0.11013,0.06356,0.07322,0.18327,0.08645,0.27177c0.04416,0.29551-0.03884,0.58336-0.09884,0.8709
		C30.89654,7.11678,30.86552,7.12362,30.84773,7.13317z"/>
	<path fill="#535F69" d="M0.96328,3.20584C1.01276,3.25411,0.9911,3.31576,0.99113,3.3712
		c0.00116,2.0637,0.00115,4.12741,0.00004,6.19111C0.99114,9.61803,1.01149,9.67927,0.96487,9.7286
		C0.96332,9.14809,0.96034,8.56761,0.96043,7.98714C0.96069,6.39337,0.96224,4.7996,0.96328,3.20584z"/>
	<path fill="#33442A" d="M2.26932,0.95347C2.24356,1.00024,2.2306,1.05667,2.17281,1.07921
		C2.08841,1.07624,2.00532,1.09254,1.92082,1.094C1.7234,1.09742,1.61943,1.20124,1.61192,1.39532
		C1.60724,1.516,1.61132,1.63689,1.61017,1.75767c-0.0006,0.06274,0.00501,0.12728-0.04315,0.17885
		C1.53301,1.98144,1.48323,1.96337,1.43915,1.96806c-0.0758-0.28855-0.0906-0.57606,0.03761-0.85395
		c0.04297-0.09312,0.12473-0.155,0.23149-0.17467C1.87353,0.94508,2.03962,0.9207,2.20412,0.95304
		C2.22585,0.95318,2.24758,0.95333,2.26932,0.95347z"/>
	<path fill="#535F69" d="M2.20412,0.95304C2.03381,0.95407,1.86351,0.95509,1.6932,0.95612
		c-0.10512,0.04475-0.21583,0.04694-0.32798,0.047c-0.34805,0.00019-0.3197-0.03041-0.32461,0.32769
		C1.03693,1.59926,1.05893,1.86824,1.02633,2.13633C1.01408,2.16376,1.00271,2.19241,0.9636,2.18695
		c-0.00113-0.37941-0.0022-0.75881-0.00346-1.13822c-0.00021-0.0648-0.00672-0.12831,0.09243-0.12757
		c0.36632,0.00272,0.73267,0.00127,1.099,0.00333C2.16914,0.92458,2.18661,0.9431,2.20412,0.95304z"/>
	<path fill="#535F69" d="M0.99602,10.93237c-0.00176,0.35982-0.00352,0.71965-0.00529,1.07945
		c-0.03852-0.02448-0.03018-0.06374-0.03024-0.09917c-0.00053-0.30364-0.00043-0.60728-0.0001-0.91092
		c0.00004-0.03605-0.00477-0.0745,0.03236-0.09901C0.9935,10.91262,0.99459,10.92251,0.99602,10.93237z"/>
	<path fill="#30472E" d="M21.48325,12.01045c0.00306-0.11492,0.00612-0.22983,0.00919-0.34475
		c0.01035,0.00006,0.02071,0.00006,0.03106-0.00001c0.00002,0.11614,0.00004,0.23229,0.00006,0.34843
		C21.51011,12.01289,21.49668,12.01167,21.48325,12.01045z"/>
	<path fill="#414B4C" d="M27.27026,0.95208c0.00038-0.00918,0.00009-0.01834-0.00088-0.02746
		c0.07977,0.00401,0.1578,0.01441,0.22612,0.06057C27.41895,0.98408,27.34029,0.99702,27.27026,0.95208z"/>
	<path fill="#414B4C" d="M27.6871,1.04865c-0.07034-0.0035-0.13758-0.01617-0.19288-0.0642
		C27.56664,0.98178,27.6362,0.98761,27.6871,1.04865z"/>
	<path fill="#3C4642" d="M27.8453,1.11157c-0.06262,0.00231-0.11819-0.01273-0.15923-0.06363
		C27.74858,1.04589,27.80391,1.06155,27.8453,1.11157z"/>
	<path fill="#414D57" d="M0.9636,2.18695c0.01024-0.01039,0.02049-0.02077,0.03073-0.03116
		C1.04421,2.1594,1.04709,2.1844,1.02445,2.22101C1.01381,2.23273,1.00317,2.24445,0.99253,2.2562
		C0.96405,2.2409,0.9602,2.21541,0.9636,2.18695z"/>
	<path fill="#4D5F42" d="M21.74716,9.41607c-0.16886,0.09091-0.35534,0.08763-0.53843,0.09256
		c-0.09526,0.00256-0.16119,0.01915-0.22772,0.1032c-0.14432,0.18233-0.35061,0.277-0.58336,0.27723
		c-2.90883,0.00288-5.81766,0.00242-8.72649,0.00076C11.4614,9.8897,11.27956,9.80591,11.12661,9.6643
		c-0.05102-0.04724-0.09593-0.10053-0.17544-0.09173c-0.00493-0.05538,0.03981-0.06976,0.07676-0.08642
		c0.42982-0.19383,0.77344-0.48672,1.03142-0.87907c0.02299-0.03497,0.04668-0.07054,0.08812-0.08774
		c0.18682-0.14214,0.25219-0.34843,0.30144-0.5633c0.05665-0.22992,0.12181-0.45686,0.12493-0.69752
		c0.00444-0.34258-0.05942-0.66995-0.18713-0.98628c-0.00678-0.01383-0.01303-0.02819-0.01941-0.04222
		c-0.05943-0.13102-0.10876-0.2679-0.21321-0.37389c-0.01511-0.0158-0.02843-0.03296-0.04015-0.05133
		c-0.0504-0.10504-0.12513-0.18944-0.22095-0.25594c-0.0432-0.0292-0.07926-0.06541-0.10869-0.10818
		c-0.08933-0.12005-0.21055-0.201-0.33938-0.27261c-0.0592-0.0413-0.15069-0.05456-0.13991-0.15712
		c0.00023-0.20597,0.0003-0.41194,0.00073-0.61791c0.00086-0.41248,0.32845-0.74456,0.7455-0.7449
		c2.06981-0.00167,4.13963-0.00177,6.20944,0.00013c0.39678,0.00036,0.73738,0.34522,0.73978,0.74131
		c0.0024,0.39608-0.0003,0.79219,0.00149,1.18828c0.00025,0.05519-0.02188,0.11794,0.0346,0.16247
		c0.04293,0.08064-0.01544,0.14136-0.04444,0.20556c-0.33016,0.73101-0.35455,1.46257,0.03133,2.1774
		c0.39142,0.72508,1.00964,1.14555,1.82966,1.282c0.24664,0.04104,0.48606,0.00555,0.72857-0.01063
		C21.63874,9.39086,21.69751,9.36639,21.74716,9.41607z"/>
	<path fill="#FEFEFE" d="M21.74716,9.41607c-0.47874,0.08251-0.95131,0.07282-1.41253-0.09597
		c-1.38904-0.50836-2.0264-2.07276-1.38341-3.39396c0.02982-0.06127,0.05695-0.12384,0.08534-0.1858
		c0.22862-0.37034,0.5249-0.67536,0.89285-0.91119c0.28983-0.21803,0.63048-0.29835,0.98047-0.33134
		c0.57183-0.0539,1.11416,0.06479,1.60093,0.36704C23.1983,5.29174,23.60105,5.911,23.70668,6.7143
		c0.00078,0.17515,0.00154,0.35018,0.00016,0.52512c-0.01627,0.13864-0.0498,0.27432-0.0741,0.41155
		c-0.03789,0.08694-0.07131,0.17577-0.10082,0.26598c-0.02365,0.05454-0.05255,0.107-0.06913,0.1646
		c-0.03023,0.04066-0.04367,0.09409-0.09229,0.12097c-0.18986,0.26657-0.38379,0.5276-0.64559,0.73406
		C22.43234,9.16731,22.09926,9.30892,21.74716,9.41607z"/>
	<path fill="#FEFEFE" d="M12.16523,8.52237c-0.29441,0.47565-0.69988,0.82482-1.21405,1.0502
		c-0.41885,0.13769-0.84618,0.20825-1.2868,0.14128c-1.03924-0.15796-1.67669-0.77922-1.96233-1.7528
		c-0.31573-1.07615,0.11599-2.12245,1.07743-2.7199c0.03582-0.02226,0.07019-0.04683,0.10524-0.07032
		c0.12687-0.13899,0.30353-0.18042,0.47344-0.22899C9.49467,4.90281,9.63744,4.88648,9.77614,4.8537
		c0.70811-0.05795,1.33967,0.125,1.8815,0.58979c0.06886,0.07458,0.14079,0.14639,0.2147,0.21622
		c0.22734,0.20675,0.35112,0.47919,0.48141,0.74764c0.05302,0.14525,0.09375,0.29382,0.12177,0.44582
		c0.00485,0.01485,0.00826,0.02999,0.01117,0.0453c0.01137,0.06898,0.00369,0.1405,0.0291,0.20767
		c0.00471,0.01566,0.00759,0.03156,0.00962,0.04772c0.00526,0.11506,0.00807,0.23009-0.00139,0.34497
		c-0.00187,0.01575-0.00554,0.03126-0.01002,0.04644c-0.0263,0.06542-0.01665,0.13607-0.02865,0.2037
		c-0.00253,0.01545-0.00647,0.03051-0.0112,0.0454c-0.05029,0.19338-0.09382,0.38894-0.18471,0.56924
		C12.25871,8.42457,12.22921,8.48687,12.16523,8.52237z"/>
	<path fill="#2E3D25" d="M4.34537,0.95621C6.11123,0.95529,7.87709,0.9543,9.64295,0.95386
		c0.04632-0.00001,0.09737-0.01223,0.13266,0.0335c0.03849,0.04519,0.0262,0.09812,0.02274,0.14949
		c-0.0147,0.21839-0.00274,0.43707-0.00788,0.65554C9.78878,1.86413,9.79945,1.9398,9.74286,1.9996
		c-1.4966-0.00009-2.99325-0.00645-4.48978,0.00439C4.90375,2.00651,4.48436,1.78449,4.37594,1.36563
		C4.32668,1.3239,4.30642,1.26935,4.30424,1.20667c-0.0036-0.03436-0.00213-0.0688-0.00206-0.10328
		C4.30144,1.04995,4.30548,0.99785,4.34537,0.95621z"/>
	<path fill="#FDFDFD" d="M9.74286,1.9996c0.00318-0.25479,0.00476-0.50961,0.01047-0.76434
		C9.75519,1.15251,9.76787,1.07,9.7756,0.98737c0.17867-0.05332,0.35703-0.05995,0.53495,0.00335
		c0.05346,0.03953,0.06174,0.10015,0.07548,0.15843c0.01707,0.94296,0.01432,1.88598,0.01207,2.82899
		c-0.00015,0.06287-0.00081,0.12775-0.05283,0.17632c-0.00079,0.10216-0.02386,0.16543-0.15532,0.13951
		c-0.0968-0.01909-0.20226-0.01516-0.3007-0.00055c-0.11937,0.01772-0.14-0.02673-0.13933-0.13403
		C9.7542,3.47594,9.75224,2.79246,9.75171,2.10898C9.75168,2.07252,9.74594,2.03606,9.74286,1.9996z"/>
	<path fill="#405333" d="M29.92119,6.91226c0.06103,0.00283,0.10733,0.04095,0.1593,0.06549
		c0.01391,0.19485-0.07175,0.3666-0.13776,0.53995c-0.17265,0.45339-0.37028,0.89723-0.60702,1.32101
		c-0.37966,0.6796-0.78595,1.34128-1.44862,1.79779c-0.1643,0.11318-0.35478,0.16923-0.54093,0.22551
		c-0.29356,0.08875-0.50597,0.26996-0.64626,0.528c-0.12301,0.22626-0.29393,0.3234-0.5518,0.32246
		c-1.43518-0.00521-2.87038-0.00239-4.30558-0.00276c-0.06357-0.00002-0.12776,0.00474-0.1903-0.01394
		c-0.01833-0.00676-0.03337-0.01778-0.0455-0.03292c-0.01705-0.02427-0.02725-0.05086-0.02918-0.08044
		c-0.00651-0.45659-0.00067-0.91322-0.00363-1.36983c-0.0004-0.06181,0.01368-0.12656-0.02369-0.18376
		c-0.17919-0.04126-0.35774-0.06268-0.53371,0.0142c-0.04357-0.11644-0.01678-0.16856,0.09183-0.14752
		c0.13795,0.02672,0.2692,0.03227,0.40767,0.00028c0.12043-0.02782,0.13662,0.05868,0.13618,0.1552
		c-0.00198,0.43276,0.00352,0.8656-0.00359,1.29825c-0.00206,0.12514,0.03504,0.16106,0.16159,0.1607
		c1.46222-0.00411,2.92446-0.00374,4.38669-0.00081c0.13938,0.00028,0.22433-0.04628,0.28602-0.1748
		c0.18239-0.37998,0.49118-0.61269,0.90065-0.71161c0.25481-0.06155,0.4659-0.19184,0.65578-0.36757
		c0.46823-0.43334,0.80021-0.96264,1.10571-1.51329C29.46865,8.15852,29.7085,7.54135,29.92119,6.91226z"/>
	<path fill="#FEFEFE" d="M26.27857,7.38248c-0.21467,0.34359-0.55665,0.48707-0.9312,0.56561
		c-0.35207,0.07382-0.70581,0.04797-1.05603-0.02969C24.2044,7.89913,24.148,7.87583,24.19186,7.76274
		c0.03737-0.09638,0.05389-0.2039,0.06123-0.30777c0.00863-0.12217,0.06596-0.15174,0.17402-0.12297
		c0.06157-0.02522,0.12407-0.01663,0.18744-0.00756c0.3538,0.05066,0.69565,0.02193,1.01445-0.15452
		c0.0148-0.00819,0.02992-0.0077,0.04561-0.00498c0.13783-0.07696,0.26876-0.17997,0.44395-0.11572
		C26.29246,7.12395,26.34251,7.22819,26.27857,7.38248z"/>
	<path fill="#FEFEFE" d="M7.05703,6.74943C6.9982,6.99293,6.9978,6.99537,6.74513,6.9548
		C6.30026,6.88337,5.88091,6.91004,5.5175,7.22063C5.39117,7.32859,5.21842,7.3007,5.11964,7.18184
		C5.0178,7.05929,5.02749,6.90308,5.14953,6.78499c0.15721-0.15213,0.35173-0.24762,0.54514-0.34412
		c0.02989-0.05935,0.08786-0.06975,0.14488-0.0828c0.3611-0.08263,0.72319-0.08701,1.08526-0.00923
		C7.18366,6.40444,7.22272,6.52662,7.05703,6.74943z"/>
	<path fill="#405333" d="M13.57299,11.66585c-0.00002-0.05284-0.00003-0.10567-0.00004-0.1585
		c2.36912-0.00001,4.73825,0.00077,7.10736-0.0023c0.1235-0.00016,0.19715,0.02008,0.17243,0.16096
		c-0.05639,0.05224-0.12693,0.04693-0.19589,0.04693c-2.29601,0.00026-4.59201,0.00026-6.88801,0.00001
		C13.69986,11.71294,13.62936,11.71804,13.57299,11.66585z"/>
	<path fill="#FEFEFE" d="M25.4739,9.50828c-0.07216,0.11747-0.16052,0.20699-0.31547,0.19402
		c-0.15534-0.01301-0.22311-0.1182-0.27982-0.24395c-0.09645-0.21385-0.27325-0.35916-0.45682-0.49302
		c-0.15746-0.11483-0.32253-0.22033-0.49039-0.3197c-0.07257-0.04296-0.07937-0.07327-0.03759-0.14371
		c0.06415-0.10815,0.11595-0.22378,0.16882-0.33813c0.02273-0.04914,0.03334-0.10547,0.10865-0.07299
		c0.0212-0.00432,0.04314-0.00555,0.06198,0.00527c0.47035,0.27021,0.92701,0.55717,1.19842,1.04962
		C25.49309,9.2571,25.57413,9.37459,25.4739,9.50828z"/>
	<path fill="#FEFEFE" d="M7.31261,5.98905C7.30873,5.99265,7.30453,5.99598,7.301,5.99991
		C7.23543,6.07283,7.25852,6.23085,7.15583,6.23744C7.07199,6.24282,6.97897,6.15378,6.89478,6.09935
		C6.50547,5.84768,6.12628,5.58492,5.9031,5.15988c-0.05036-0.09592-0.08702-0.19438-0.05602-0.303
		c0.04988-0.17476,0.22428-0.23644,0.44448-0.16057c0.06607,0.00905,0.1031,0.05702,0.12793,0.10886
		c0.16323,0.34086,0.45725,0.5483,0.76298,0.74438C7.20924,5.56672,7.23787,5.581,7.26498,5.59775
		C7.49502,5.73984,7.49882,5.77104,7.31261,5.98905z"/>
	<path fill="#FEFEFE" d="M24.56497,6.40737c0.29996-0.08769,0.53886-0.26414,0.72396-0.50945
		c0.08292-0.10989,0.17817-0.17708,0.31785-0.17576c0.16429-0.00825,0.21725,0.03421,0.25872,0.20744
		c0.01858,0.13525-0.03445,0.24335-0.11888,0.34657c-0.34579,0.42276-0.77904,0.69112-1.32891,0.76395
		c-0.08538,0.01131-0.12521-0.00221-0.12792-0.09884c-0.00383-0.13638-0.02202-0.27246-0.03658-0.4084
		c-0.01359-0.1269,0.10641-0.04558,0.14334-0.09277C24.44633,6.397,24.51339,6.44135,24.56497,6.40737z"/>
	<path fill="#FEFEFE" d="M7.02699,7.67259C7.05638,7.79792,7.01565,7.84364,6.87739,7.8633
		C6.54377,7.91074,6.27583,8.08806,6.06006,8.3432C6.02934,8.37953,6.00256,8.41926,5.9706,8.45441
		c-0.11215,0.1233-0.28101,0.14691-0.39972,0.05762C5.43982,8.41346,5.41259,8.24767,5.51193,8.10431
		c0.1336-0.19279,0.29966-0.35556,0.49151-0.49149c0.07721-0.05471,0.15797-0.10447,0.23712-0.15649
		C6.4366,7.28095,6.68183,7.25175,6.92886,7.23151c0.05344-0.00438,0.09469,0.03214,0.09877,0.08464
		C7.03685,7.43465,7.07308,7.55401,7.02699,7.67259z"/>
	<path fill="#FEFEFE" d="M24.87428,5.10052c-0.17162,0.28659-0.37273,0.54825-0.63917,0.75632
		c-0.08066,0.06299-0.13517,0.10393-0.18265-0.03897c-0.04586-0.13805-0.1865-0.27077-0.17388-0.39461
		c0.01128-0.11065,0.17838-0.20302,0.27033-0.30893c0.09356-0.10775,0.1751-0.22701,0.22849-0.35839
		c0.06037-0.14855,0.15564-0.24595,0.31385-0.28044c0.19829-0.01811,0.36121,0.13512,0.33186,0.32875
		C25.00651,4.91376,24.97338,5.02645,24.87428,5.10052z"/>
	<path fill="#2E452D" d="M23.66544,6.69023c-0.1114-0.67944-0.41628-1.25322-0.98453-1.65757
		c-0.82367-0.58609-1.70791-0.66373-2.63368-0.24904c-0.03836,0.01718-0.0785,0.03044-0.11782,0.04552
		c0.10555-0.14401,0.26801-0.20466,0.42453-0.25863c0.88555-0.30537,1.72887-0.22364,2.47996,0.35129
		c0.57851,0.44282,0.92095,1.03179,0.96143,1.7759c0.00685,0.12581-0.00648,0.24847-0.00463,0.37258
		c-0.02761,0.12569-0.01837,0.25748-0.06387,0.38021c-0.04661,0.03337-0.02723,0.0831-0.03192,0.12687
		c-0.02565,0.06194-0.02903,0.13125-0.06378,0.19019v0.0001c-0.07919-0.01324-0.04023-0.06583-0.03612-0.10682
		c0.0235-0.13362,0.04699-0.26723,0.07049-0.40085C23.7001,7.07006,23.71099,6.88014,23.66544,6.69023z"/>
	<path fill="#FEFEFE" d="M7.4284,8.85164C7.3857,8.94026,7.29729,8.98581,7.23318,9.0544
		c-0.14593,0.15612-0.2599,0.33101-0.35011,0.52424C6.79868,9.75943,6.63149,9.82701,6.47966,9.75426
		c-0.15653-0.075-0.20202-0.23723-0.12317-0.41911c0.17455-0.40262,0.45537-0.719,0.80151-0.98337
		c0.01863-0.02261,0.04006-0.01436,0.04921,0.00441C7.28654,8.51884,7.39142,8.67039,7.4284,8.85164z"/>
	<path fill="#3B4E30" d="M13.57299,11.66585c2.42659,0.00005,4.85317,0.0001,7.27976,0.00015
		c-0.00008,0.03176-0.00015,0.06352-0.00023,0.09528c-2.42635-0.00001-4.8527-0.00002-7.27903-0.00003
		C13.57333,11.72946,13.57316,11.69766,13.57299,11.66585z"/>
	<path fill="#202020" d="M3.92957,3.06571C3.92704,3.30281,3.72898,3.4934,3.48999,3.48872
		C3.25155,3.48404,3.06095,3.28527,3.06784,3.04848C3.07455,2.81782,3.2668,2.6329,3.49943,2.63332
		C3.73787,2.63375,3.9321,2.829,3.92957,3.06571z"/>
	<path fill="#202020" d="M27.63622,6.24637c0.23919-0.00117,0.43407,0.19214,0.43306,0.42955
		c-0.00101,0.237-0.19789,0.42897-0.43673,0.42586c-0.23273-0.00303-0.42186-0.19063-0.42508-0.42163
		C27.20417,6.44364,27.39801,6.24753,27.63622,6.24637z"/>
	<path fill="#30472F" d="M12.31416,6.40854c-0.13643-0.25545-0.2616-0.51799-0.46645-0.73039
		c-0.05017-0.07837-0.11345-0.14362-0.19431-0.19126c-0.54022-0.45688-1.16886-0.64217-1.87147-0.60023
		c-0.12704,0.02049-0.25495,0.0346-0.37969,0.07013c-0.0344,0.0098-0.09714,0.03425-0.10821-0.0417
		C9.38986,4.88339,9.48569,4.8517,9.58152,4.82001c0.04781-0.03735,0.11212,0.00735,0.1596-0.03163
		c0.54598-0.09661,1.06375,0.00202,1.56391,0.22257c0.03271,0.06809,0.09792,0.0956,0.16038,0.12655
		c0.10485,0.1098,0.24103,0.1815,0.35131,0.28471c0.02134,0.04216,0.05328,0.07378,0.09572,0.09499
		c0.06965,0.09908,0.17201,0.17275,0.22467,0.28502c0.01035,0.01045,0.0207,0.0209,0.03105,0.03134
		c0.09845,0.11312,0.13799,0.26028,0.22338,0.38094l-0.00006-0.00008c0.17057,0.42924,0.24947,0.87073,0.17354,1.33108
		c-0.01127,0.06828,0.01036,0.15637-0.08381,0.191c-0.01372-0.06503-0.01769-0.12985,0.00295-0.19431L12.48458,7.545
		c0.0312-0.13718,0.02999-0.27443,0.00079-0.41173l-0.00675-0.00996l0.00542-0.01073
		c-0.03404-0.07418,0.01344-0.15907-0.03094-0.23189l0.00068,0.00179C12.42145,6.72038,12.41605,6.55046,12.31416,6.40854z"/>
	<path fill="#2E452D" d="M25.4739,9.50828c0.031-0.20698-0.07645-0.36794-0.18984-0.51963
		c-0.28411-0.38006-0.67327-0.63531-1.07886-0.86885c-0.01269-0.00731-0.02267-0.01923-0.03392-0.029
		c0.01814-0.09461,0.04821-0.16997,0.16623-0.09914c0.33518,0.20115,0.66964,0.40435,0.9362,0.69526
		c0.13896,0.15165,0.26975,0.31214,0.32383,0.51672C25.63173,9.33291,25.60821,9.44399,25.4739,9.50828z"/>
	<path fill="#2F452D" d="M7.31261,5.98905c0.00163-0.0156,0.00149-0.03163,0.00518-0.04673
		C7.33591,5.86823,7.44655,5.81356,7.40521,5.7417C7.37053,5.68141,7.27543,5.65642,7.20904,5.61285
		c-0.333-0.21853-0.67255-0.43023-0.83818-0.81867C6.35505,4.7571,6.31849,4.72873,6.29156,4.69632
		c-0.0452-0.10845-0.15099-0.04523-0.22376-0.07678C6.19322,4.48094,6.4073,4.48756,6.49286,4.66612
		c0.20187,0.42129,0.57658,0.64642,0.94781,0.87773C7.5348,5.60251,7.55606,5.65121,7.50471,5.74413
		C7.44645,5.84956,7.39461,5.9585,7.3263,6.09281C7.31909,6.03813,7.31585,6.01359,7.31261,5.98905z"/>
	<path fill="#30472E" d="M10.34527,4.15446c-0.00303-0.29926-0.00869-0.59852-0.00855-0.89777
		c0.00034-0.71458,0.00342-1.42915,0.00539-2.14373c0.10546,0.01118,0.08045,0.09654,0.08247,0.15669
		c0.00637,0.18978,0.00187,0.37983,0.00265,0.56978c0.00024,0.05801-0.0055,0.11751,0.04829,0.15941
		c0,0,0.00015,0.00082,0.00015,0.00083C10.4756,2.67454,10.47619,3.34942,10.4746,4.0243
		C10.47441,4.10398,10.49557,4.21643,10.34527,4.15446z"/>
	<path fill="#405333" d="M4.34435,1.20717c0.01053,0.05282,0.02107,0.10564,0.0316,0.15846
		c-0.57509-0.00035-1.15018-0.0007-1.72528-0.00105C2.6944,1.28657,2.77695,1.25582,2.84495,1.20735
		c0.07888-0.03178,0.16073-0.04773,0.24602-0.04769c0.35838,0.00019,0.71675-0.00008,1.07513,0.00016
		C4.22983,1.15987,4.29344,1.15983,4.34435,1.20717z"/>
	<path fill="#31482F" d="M7.05703,6.74943C7.05696,6.73894,7.05507,6.72809,7.05709,6.71802
		c0.06056-0.30228,0.06068-0.30265-0.26082-0.34918C6.42398,6.31494,6.0565,6.33597,5.69467,6.44087
		C5.66901,6.43706,5.64335,6.43324,5.60355,6.42733c0.17782-0.13317,0.3767-0.18014,0.57293-0.1957
		c0.33041-0.02621,0.6659-0.06474,0.98906,0.06445c0.06761,0.02703,0.0891,0.0506,0.06577,0.12598
		C7.19738,6.53169,7.18142,6.64687,7.15893,6.75991c-0.00814,0.0409-0.00589,0.10278-0.05442,0.10217
		C7.03103,6.86115,7.07484,6.78747,7.05703,6.74943z"/>
	<path fill="#344A31" d="M7.02699,7.67259C6.99416,7.58111,6.99603,7.48394,7.00046,7.39115
		c0.00595-0.12462-0.04206-0.1354-0.14944-0.11563C6.64035,7.31431,6.43284,7.35857,6.24056,7.45634
		c-0.0213-0.01232-0.03334-0.03452-0.01041-0.04768c0.23348-0.13399,0.47552-0.24579,0.74843-0.27528
		c0.12633-0.01365,0.18745,0.03031,0.17811,0.16594C7.14993,7.39764,7.15636,7.498,7.16865,7.596
		c0.00606,0.04833,0.02662,0.09235-0.02488,0.12492C7.08319,7.75925,7.06377,7.69405,7.02699,7.67259z"/>
	<path fill="#30472E" d="M21.6194,11.60239c0.00005,0.02106,0.0001,0.04213,0.00015,0.06319
		c0.02472,0.02763,0.02891,0.05772,0.01105,0.09046c-0.01289,0.01419-0.02726,0.01582-0.04306,0.00489
		c0.00038-0.04617,0.00064-0.09227-0.06409-0.09531c-0.00006-0.48031-0.00469-0.96068,0.00278-1.44088
		c0.0021-0.1347-0.02769-0.19539-0.17529-0.17964c-0.11016,0.01176-0.22291-0.00046-0.33448-0.00205
		c-0.01169-0.08879,0.04749-0.08946,0.11012-0.08909c0.15362,0.00091,0.30725,0.00036,0.46088,0.0004
		c0.03448,0.12912,0.01295,0.26063,0.01422,0.39081c0.0036,0.3677,0.00062,0.73545,0.00199,1.10318
		C21.60386,11.49973,21.58941,11.55363,21.6194,11.60239z"/>
	<path fill="#30472F" d="M25.67461,7.16495c-0.23475,0.17732-0.50237,0.24259-0.79309,0.22938
		c-0.15341-0.00697-0.30643-0.01649-0.45441-0.06233c-0.03086-0.1335-0.00514-0.15624,0.14317-0.12607
		c0.27486,0.05591,0.54951,0.07868,0.82883,0.02358C25.4921,7.21117,25.56896,7.12576,25.67461,7.16495z"/>
	<path fill="#324830" d="M24.87428,5.10052c0.03234-0.08156,0.07064-0.16136,0.09582-0.24504
		c0.05608-0.18638-0.01849-0.28483-0.27884-0.37998c-0.02511-0.00618-0.06229-0.00458-0.07258-0.02031
		c-0.01651-0.02525,0.01406-0.0477,0.03565-0.05798c0.09736-0.04636,0.19906-0.08566,0.29897-0.01217
		c0.09901,0.07284,0.20017,0.15518,0.17341,0.29531c-0.03087,0.16166-0.12216,0.30124-0.20017,0.44379
		C24.89807,5.17617,24.88185,5.13175,24.87428,5.10052z"/>
	<path fill="#32482F" d="M7.4284,8.85164C7.30229,8.70419,7.27331,8.50498,7.158,8.35178
		C7.24996,8.2072,7.29175,8.20572,7.36655,8.3468c0.04627,0.08727,0.08618,0.17794,0.13451,0.26401
		C7.56158,8.71858,7.54384,8.79846,7.4284,8.85164z"/>
	<path fill="#314830" d="M25.8655,5.92961c-0.05567-0.10671-0.13223-0.18777-0.25873-0.20746
		C25.59616,5.64757,25.53561,5.7159,25.508,5.68896c0.1155-0.12564,0.25761-0.13897,0.38177-0.03636
		c0.12907,0.10667,0.14258,0.28273,0.02813,0.44042C25.87377,6.04474,25.92863,5.96579,25.8655,5.92961z"/>
	<path fill="#31482F" d="M26.27857,7.38248c0.01258-0.14227-0.05069-0.24865-0.16001-0.33325
		c-0.04425-0.07976-0.12776-0.02089-0.18502-0.05318c0.0493-0.08165,0.16246-0.11465,0.28818-0.0771
		c0.13133,0.03923,0.17305,0.1472,0.18559,0.26661C26.41903,7.29717,26.37693,7.35303,26.27857,7.38248z"/>
	<path fill="#394F35" d="M9.29403,4.91509c0.0865,0.07797,0.17024-0.00604,0.25378-0.0114
		c0.07724-0.00495,0.15475-0.02395,0.2341-0.01703C9.47496,4.9568,9.16469,5.01668,8.88472,5.17082
		C8.85461,5.16398,8.80719,5.15211,8.85816,5.11992C8.99422,5.03396,9.12546,4.93416,9.29403,4.91509z"/>
	<path fill="#3F5133" d="M1.59845,2.47363c0.1183-0.06894,0.24696-0.09542,0.38289-0.09207
		C1.92416,2.4157,1.86922,2.4483,1.88464,2.5319C1.8931,2.57772,1.88776,2.62672,1.82228,2.63322
		C1.74767,2.58002,1.67306,2.52683,1.59845,2.47363z"/>
	<path fill="#354B33" d="M23.595,7.66083c0.00757,0.03709-0.00384,0.08051,0.03611,0.10682
		c-0.02176,0.17029-0.12471,0.30246-0.21211,0.44161c-0.01367,0.02177-0.03488,0.01454-0.04852-0.00673
		c-0.00165-0.04946,0.02876-0.08488,0.05443-0.12237c0.05846-0.03764,0.04843-0.10744,0.07603-0.15957
		C23.50452,7.82409,23.54144,7.73949,23.595,7.66083z"/>
	<path fill="#354B33" d="M23.72682,7.4505c0.00275-0.12981,0.01881-0.25741,0.06387-0.38021
		C23.7907,7.20055,23.80131,7.33256,23.72682,7.4505z"/>
	<path fill="#354B33" d="M23.63112,7.76755c0.00262-0.06956,0.01694-0.13525,0.06378-0.19019
		C23.69763,7.64868,23.69303,7.71759,23.63112,7.76755z"/>
	<path fill="#425640" d="M24.56497,6.40737c-0.05614,0.01091-0.11228,0.02183-0.16842,0.03274
		C24.44324,6.3813,24.50739,6.41098,24.56497,6.40737z"/>
	<path fill="#394F35" d="M9.74112,4.78837C9.6964,4.84109,9.63532,4.81248,9.58152,4.82001
		C9.62622,4.76725,9.68732,4.79595,9.74112,4.78837z"/>
	<path fill="#293E29" d="M10.47551,1.99883c-0.09373,0.00865-0.09692-0.05146-0.09639-0.11994
		c0.0016-0.20788,0.00164-0.41578-0.00023-0.62365c-0.00045-0.04923,0.01903-0.10612-0.03678-0.14228
		c-0.01052-0.04074-0.02104-0.08148-0.03156-0.12223c0.03438-0.05075,0.08611-0.03529,0.13398-0.03457
		c0.05746,0.1086,0.02733,0.22556,0.02959,0.33854C10.47882,1.52932,10.47552,1.76411,10.47551,1.99883z"/>
	<path fill="#202020" d="M3.7699,10.0296c0.00219,0.23698-0.19212,0.43167-0.43085,0.43168
		c-0.23878,0.00002-0.43305-0.19457-0.43092-0.43163c0.00208-0.23053,0.19071-0.41951,0.42292-0.42372
		C3.56989,9.60162,3.76771,9.79259,3.7699,10.0296z"/>
	<path fill="#33442A" d="M21.58755,11.76093c0.01062-0.00004,0.02123-0.00006,0.03185-0.00008
		c0.08896,0.01687,0.17865,0.02129,0.26923,0.02125c1.45178-0.00068,2.90359-0.00488,4.35532,0.00396
		c0.23561,0.00143,0.38194-0.08854,0.48366-0.28421c0.15274-0.29384,0.3737-0.4998,0.70752-0.58691
		c0.58206-0.15189,0.97413-0.55684,1.31778-1.01672c0.2753-0.36842,0.51369-0.75799,0.72294-1.16912
		c0.2591-0.50906,0.4922-1.02654,0.67335-1.56741c0.01159-0.03459,0.02576-0.06982,0.05951-0.09126
		c0.04325,0.01997,0.07475,0.05188,0.09658,0.09361c-0.06888,0.29868-0.18821,0.58075-0.30955,0.85972
		c-0.26749,0.61498-0.56915,1.2135-0.96329,1.7607c-0.30313,0.42084-0.62777,0.8208-1.08202,1.0967
		c-0.18425,0.11191-0.3938,0.15316-0.59066,0.22884c-0.21575,0.08294-0.37907,0.22068-0.46537,0.42471
		c-0.13152,0.31093-0.35335,0.42259-0.68629,0.42041c-1.4576-0.00954-2.91532-0.00682-4.37295-0.00015
		C21.67965,11.95568,21.59819,11.91654,21.58755,11.76093z"/>
	<path fill="#2F3D27" d="M1.02445,2.22101C1.02337,2.19519,1.01889,2.17092,0.99431,2.1558
		C0.99359,1.802,0.99673,1.44813,0.98983,1.09446C0.98766,0.98313,1.02312,0.94628,1.13477,0.95138
		C1.3206,0.95987,1.50705,0.9552,1.69321,0.9561c-0.18948,0.12409-0.26879,0.298-0.25591,0.52283
		c0.00931,0.16255,0.00184,0.32605,0.00185,0.48913C1.29096,2.03629,1.15925,2.13114,1.02445,2.22101z"/>
	<path fill="#34472B" d="M4.34537,0.95621C4.34514,1.00815,4.34491,1.06009,4.34469,1.11203
		C4.29813,1.1547,4.24056,1.15894,4.18138,1.15899C3.85327,1.15931,3.52516,1.15958,3.19704,1.15874
		C3.1387,1.15859,3.07954,1.15914,3.03494,1.11153c0.06404-0.05091,0.13923-0.06343,0.21841-0.06321
		C3.33552,1.04855,3.4075,1.02722,3.45265,0.95173C3.75023,0.95322,4.0478,0.95472,4.34537,0.95621z"/>
	<path fill="#3B4E30" d="M3.03494,1.11153C3.47152,1.1117,3.90811,1.11186,4.34469,1.11202
		C4.34458,1.14374,4.34447,1.17545,4.34436,1.20717C3.84455,1.20723,3.34474,1.20729,2.84495,1.20735
		C2.89748,1.1543,2.96267,1.12601,3.03494,1.11153z"/>
	<path fill="#3F5233" d="M2.01551,1.24039c-0.0653,0.18617-0.14685,0.3671-0.17675,0.56455
		C1.82985,1.86377,1.80569,1.91751,1.72688,1.90493C1.64094,1.71748,1.65904,1.52111,1.71169,1.33569
		C1.75758,1.17405,1.91906,1.1362,2.01551,1.24039z"/>
	<path fill="#3B4E2F" d="M2.01551,1.24039C1.86367,1.18307,1.73317,1.26624,1.72772,1.43071
		C1.72249,1.58862,1.72677,1.74683,1.72688,1.90492c0,0.00001,0.0003,0.00014,0.0003,0.00014
		C1.64647,1.93939,1.6034,1.90972,1.6011,1.82593C1.59692,1.67337,1.58742,1.51971,1.60385,1.36833
		c0.0252-0.23222,0.25434-0.34341,0.50795-0.25597C2.08405,1.15826,2.0694,1.21386,2.01551,1.24039z"/>
	<path fill="#36492C" d="M2.1118,1.11236C1.94766,1.111,1.77318,1.09009,1.68011,1.27036
		C1.58263,1.45918,1.64178,1.66326,1.63765,1.86066c-0.00097,0.04617,0.0535,0.04055,0.08952,0.0444
		C1.68181,1.95579,1.62098,1.92893,1.56702,1.93652c-0.00005-0.17237-0.00082-0.34475,0-0.51712
		C1.56822,1.16713,1.68838,1.04721,1.9456,1.05023c0.07562,0.00089,0.1582-0.03015,0.22722,0.02899
		C2.15247,1.09026,2.13214,1.10131,2.1118,1.11236z"/>
	<path fill="#3B4E2F" d="M21.65133,11.66581c1.51571-0.00001,3.03141-0.00139,4.54712,0.00154
		c0.20945,0.0004,0.34489-0.08275,0.44415-0.26796c0.15142-0.28254,0.37025-0.4939,0.69819-0.57768
		c0.50373-0.1287,0.87395-0.44867,1.19254-0.84039c0.27625-0.33967,0.52607-0.70023,0.72744-1.08482
		c0.1891-0.36115,0.37813-0.72494,0.52654-1.10799c0.10399-0.26843,0.19891-0.53932,0.29319-0.81079
		c0.03107,0.00967,0.05192,0.03041,0.06527,0.05929c0.0431,0.05759,0.00849,0.11278-0.00954,0.16535
		c-0.34425,1.00387-0.7959,1.95336-1.45414,2.79594c-0.22211,0.28431-0.46723,0.54661-0.7859,0.73064
		c-0.17169,0.09915-0.35925,0.15709-0.54614,0.21663c-0.2683,0.08548-0.46089,0.26201-0.58649,0.50334
		c-0.12151,0.23345-0.28178,0.35049-0.56366,0.34842c-1.4631-0.01072-2.92633-0.00432-4.38951-0.00671
		C21.73398,11.79051,21.60571,11.83015,21.65133,11.66581z"/>
	<path fill="#36492C" d="M21.65133,11.66581c-0.00766,0.11088,0.07239,0.09488,0.14034,0.09492
		c0.44151,0.00023,0.88302,0.00012,1.32453,0.00012c1.016,0,2.03212-0.00804,3.04795,0.00526
		c0.27786,0.00364,0.4529-0.09948,0.5709-0.33543c0.13772-0.2754,0.36307-0.45742,0.65718-0.53532
		c0.52465-0.13897,0.90744-0.46639,1.23016-0.87653c0.70393-0.89463,1.18683-1.90166,1.52336-2.98182
		c0.02591,0.002,0.04954,0.00822,0.06295,0.03341c-0.06598,0.34316-0.23107,0.65146-0.34952,0.97614
		c-0.10826,0.29675-0.2792,0.5643-0.41722,0.84711c-0.20492,0.4199-0.47019,0.80713-0.76582,1.17197
		c-0.15994,0.19739-0.33881,0.37438-0.53363,0.539c-0.23578,0.19922-0.51506,0.30337-0.80246,0.38625
		c-0.25461,0.07342-0.42671,0.24749-0.53639,0.45807c-0.13396,0.25719-0.29025,0.38454-0.60024,0.38156
		c-1.46215-0.01409-2.92451-0.00602-4.38679-0.00708c-0.07059-0.00005-0.15353,0.02608-0.19725-0.06258
		c0.00005-0.03176,0.0001-0.06351,0.00015-0.09527C21.63015,11.66567,21.64074,11.66575,21.65133,11.66581z"/>
	<path fill="#FEFEFE" d="M18.17163,7.70423c0.06658,0.16312-0.01729,0.2046-0.16504,0.23026
		c-0.57004,0.09902-1.11934,0.08694-1.61897-0.25069c-0.05244-0.03544-0.10229-0.07501-0.1511-0.11534
		c-0.11001-0.09091-0.17498-0.19935-0.11768-0.34556c0.05813-0.14831,0.16931-0.20845,0.32762-0.18481
		c0.0208,0.00311,0.04231,0.00159,0.06349,0.00221c0.0581-0.00784,0.10459,0.02107,0.14538,0.05385
		c0.33451,0.26883,0.72174,0.2774,1.12134,0.22743c0.01581-0.00198,0.03148-0.00507,0.04722-0.00758
		C18.13331,7.26481,18.2401,7.38463,18.17163,7.70423z"/>
	<path fill="#FEFEFE" d="M15.03803,7.06458c-0.14759,0.25819-0.29976,0.29052-0.53682,0.10594
		c-0.35763-0.27846-0.7632-0.2799-1.18278-0.21188c-0.23726,0.03846-0.23735,0.0378-0.2774-0.19077
		c-0.00273-0.01557-0.00579-0.0311-0.00903-0.04657c-0.0567-0.27061-0.05671-0.27061,0.19098-0.34755
		c0.16547-0.09262,0.34744-0.07866,0.52618-0.07581c0.36808,0.00587,0.71468,0.08806,1.02313,0.29848
		c0.09266,0.06321,0.17934,0.13322,0.24332,0.2249C15.06733,6.89543,15.11473,6.97602,15.03803,7.06458z"/>
	<path fill="#FEFEFE" d="M18.48486,8.49834c0.04795,0.07352,0.01774,0.11288-0.05251,0.15397
		c-0.29915,0.17496-0.59776,0.35204-0.81532,0.63134c-0.01222,0.08031-0.05925,0.13933-0.11854,0.19083
		c-0.01893,0.03087-0.03663,0.06257-0.05701,0.09247c-0.08994,0.13194-0.23809,0.17387-0.3756,0.10716
		c-0.13974-0.06778-0.20137-0.20655-0.15164-0.35733c0.06405-0.19419,0.18272-0.35522,0.32294-0.502
		c0.27705-0.29002,0.60906-0.50631,0.95471-0.70492c0.03452-0.01983,0.06339-0.03691,0.10127-0.01455
		C18.38592,8.21613,18.46201,8.34476,18.48486,8.49834z"/>
	<path fill="#FEFEFE" d="M14.10875,5.3148c-0.29751,0.37296-0.67554,0.64846-1.08372,0.88917
		c-0.08816,0.05199-0.13547,0.05755-0.16825-0.05489c-0.04194-0.14383-0.21104-0.28281-0.1662-0.4023
		c0.04104-0.10937,0.23809-0.15625,0.35793-0.24229c0.2648-0.19013,0.53031-0.37729,0.66317-0.69769
		c0.06456-0.15568,0.21793-0.16585,0.36967-0.13734c0.11688-0.00489,0.15197,0.08229,0.19032,0.16616
		C14.30161,5.02349,14.25171,5.18476,14.10875,5.3148z"/>
	<path fill="#FEFEFE" d="M18.10325,6.71506c-0.00499,0.03597-0.01196,0.07179-0.01466,0.10792
		c-0.01885,0.25264-0.01807,0.25043-0.27996,0.19344c-0.48085-0.10465-0.86685-0.35599-1.1741-0.73418
		c-0.0977-0.12025-0.17648-0.24108-0.09223-0.4005c0.08479-0.16042,0.22804-0.16769,0.38321-0.14278
		C17.0247,5.73982,17.07078,5.8151,17.12277,5.88c0.21847,0.27272,0.49152,0.45575,0.84121,0.52201
		C18.18593,6.44407,18.2098,6.50455,18.10325,6.71506z"/>
	<path fill="#FEFEFE" d="M14.62613,8.17963c0.01367,0.20097-0.04244,0.32112-0.17269,0.36974
		c-0.13351,0.04984-0.26281-0.0004-0.38198-0.15243c-0.2352-0.30005-0.53578-0.49414-0.91825-0.54585
		c-0.09374-0.01268-0.10962-0.04278-0.09484-0.129c0.01951-0.11376,0.03279-0.23095,0.02781-0.34578
		c-0.0048-0.11084,0.05167-0.11993,0.13432-0.11293c0.24622-0.03155,0.46055,0.07163,0.66578,0.17749
		c0.2756,0.14216,0.51052,0.34077,0.69011,0.59688C14.60569,8.07953,14.64736,8.11939,14.62613,8.17963z"/>
	<path fill="#FEFEFE" d="M18.36144,5.73674c-0.11164,0.22089-0.11095,0.22012-0.31026,0.04562
		c-0.25348-0.22192-0.45349-0.48355-0.59546-0.78792c-0.13278-0.28467-0.08073-0.41045,0.21054-0.51891
		c0.16206-0.04222,0.25493,0.0597,0.31281,0.17697c0.13211,0.26768,0.31788,0.49043,0.53291,0.69319
		C18.57628,5.51934,18.44192,5.61781,18.36144,5.73674z"/>
	<path fill="#FEFEFE" d="M13.76945,9.41592c0.00203,0.21303-0.07013,0.32615-0.22958,0.3599
		c-0.14436,0.03056-0.26643-0.04834-0.35186-0.2304c-0.10865-0.23153-0.25465-0.43599-0.45353-0.59865
		c-0.06621-0.05416-0.07307-0.09407-0.02894-0.16796c0.06428-0.10762,0.11155-0.22531,0.16511-0.33915
		c0.01901-0.0404,0.02682-0.09372,0.09372-0.06631c0.20996,0.06468,0.32363,0.24584,0.46104,0.39191
		c0.15512,0.16489,0.25446,0.37128,0.34885,0.57673C13.7857,9.36688,13.78725,9.39232,13.76945,9.41592z"/>
	<path fill="#314831" d="M15.03803,7.06458C15.0513,6.91968,14.98413,6.8183,14.874,6.728
		c-0.41487-0.34016-0.89742-0.42033-1.41456-0.37684c-0.0789,0.00664-0.15764,0.01501-0.23646,0.02257
		c-0.03607-0.00391-0.07215-0.00781-0.11049-0.01197c0.00415-0.07313,0.05911-0.07309,0.10142-0.08255
		c0.46456-0.10387,0.92697-0.10615,1.37495,0.068c0.19747,0.07676,0.37777,0.19383,0.51618,0.36021
		C15.21514,6.83979,15.17831,7.02469,15.03803,7.06458z"/>
	<path fill="#314831" d="M18.17163,7.70423c-0.01978-0.09233-0.04867-0.18387-0.05694-0.2772
		c-0.00942-0.10626-0.05746-0.11146-0.14739-0.09294c-0.36144,0.07444-0.7219,0.10483-1.07648-0.04155
		c-0.14481-0.05978-0.25756-0.16282-0.38085-0.25223c-0.04025-0.06014-0.11042-0.01784-0.16104-0.04462
		c0.0679-0.09411,0.24391-0.12974,0.33564-0.04789c0.41714,0.37219,0.90353,0.3534,1.40487,0.25842
		c0.08692-0.01647,0.1413-0.01011,0.15435,0.09442c0.01355,0.1085,0.04041,0.21554,0.06499,0.32241
		c0.01042,0.04528,0.04371,0.09537-0.0046,0.13003C18.24469,7.79576,18.21012,7.737,18.17163,7.70423z"/>
	<path fill="#314831" d="M18.10325,6.71506c0.00719-0.23585,0.00629-0.23228-0.23787-0.29289
		c-0.30817-0.0765-0.55468-0.25027-0.75345-0.49295c-0.0566-0.06911-0.11178-0.13887-0.18641-0.19025
		c-0.04186-0.05287-0.11844-0.03654-0.16539-0.08066c0.17465-0.10671,0.29066-0.09901,0.42377,0.07346
		c0.18276,0.23681,0.40224,0.41691,0.6831,0.51962c0.10371,0.03793,0.2133,0.06041,0.32089,0.08725
		c0.03773,0.00941,0.07778,0.01145,0.06155,0.06643c-0.03767,0.12758,0.01181,0.26432-0.04253,0.39028
		c-0.01634,0.03788,0.01797,0.11257-0.05885,0.10437c-0.05762-0.00615-0.03086-0.06789-0.03705-0.1061
		C18.10681,6.76769,18.10573,6.74126,18.10325,6.71506z"/>
	<path fill="#324931" d="M14.62613,8.17963c-0.33118-0.51302-0.80687-0.80762-1.40562-0.91624
		c-0.0103-0.10252,0.02721-0.14271,0.13729-0.12399c0.54531,0.09273,0.98951,0.3482,1.32146,0.79116
		c0.10417,0.13901,0.1075,0.26933,0.00246,0.41489C14.63226,8.29959,14.69327,8.21735,14.62613,8.17963z"/>
	<path fill="#324932" d="M13.76945,9.41592c-0.173-0.42007-0.44833-0.76229-0.80508-1.04257
		c0.04346-0.12588,0.11028-0.15688,0.21773-0.05873c0.27496,0.25115,0.51842,0.52574,0.6731,0.86853
		c0.05765,0.12776,0.05766,0.25014-0.02338,0.3741C13.7729,9.51738,13.82397,9.44535,13.76945,9.41592z"/>
	<path fill="#324831" d="M18.48499,5.3611c-0.22666-0.15859-0.37943-0.37846-0.49368-0.62175
		c-0.06917-0.14728-0.16473-0.23876-0.32505-0.26381c-0.08039-0.01935-0.04439-0.05141-0.00659-0.07794
		c0.13409-0.09411,0.35428-0.02572,0.43386,0.15555c0.10787,0.24568,0.258,0.45698,0.46133,0.6287
		c0.09322,0.07873,0.0949,0.15054,0.03093,0.23998C18.52965,5.43844,18.53096,5.36112,18.48499,5.3611z"/>
	<path fill="#334933" d="M18.48486,8.49834c-0.08136-0.12616-0.14838-0.25904-0.1917-0.40303
		c-0.01485-0.05221-0.02801-0.10026,0.04486-0.12558c0.07592-0.02638,0.09455,0.02785,0.11521,0.07432
		c0.05335,0.12002,0.09383,0.24601,0.17344,0.35334c0.02046,0.02758,0.02961,0.05839,0.00326,0.0858
		C18.58707,8.52778,18.53659,8.52473,18.48486,8.49834z"/>
	<path fill="#364B34" d="M14.23636,4.8224c-0.04062-0.06202-0.09213-0.11317-0.15503-0.15294
		c-0.0467-0.0756-0.12909-0.01796-0.18757-0.04955c0.07776-0.09353,0.22081-0.11985,0.3396-0.05715
		c0.12471,0.06583,0.18409,0.17149,0.15504,0.31022c-0.01454,0.06946-0.05333,0.13391-0.08115,0.20063
		c-0.06041,0.00277-0.04271-0.04224-0.0479-0.07498C14.25007,4.94006,14.2845,4.87583,14.23636,4.8224z"/>
	<path fill="#314831" d="M12.48881,7.73572c0.0793-0.21389,0.08107-0.43295,0.07462-0.65929
		c-0.00855-0.29986-0.10661-0.57649-0.17196-0.86201c0.15715,0.25946,0.19368,0.55123,0.22192,0.84327
		c0.03085,0.3191-0.04382,0.62637-0.12638,0.93153c-0.02262,0.01613-0.00872,0.06782-0.05288,0.05985
		c-0.03318-0.00599-0.02896-0.03956-0.02536-0.06293c0.01149-0.07452,0.0337-0.14709,0.04368-0.22201l-0.00087,0.00161
		C12.46538,7.75743,12.47,7.73791,12.48881,7.73572z"/>
	<path fill="#41553F" d="M12.45245,7.76413c0.01457,0.07234-0.01307,0.1392-0.02392,0.20875
		c-0.01713,0.10986,0.03572,0.02,0.05848,0.01633c-0.03803,0.21106-0.15599,0.38502-0.2697,0.55964
		c-0.03298,0.05064-0.0448,0.00329-0.05208-0.02648C12.29218,8.28127,12.3837,8.02695,12.45245,7.76413z"/>
	<path fill="#44573F" d="M18.48499,5.3611c0.05311-0.01164,0.06721,0.04047,0.1008,0.06074
		c-0.04371,0.11536-0.08728,0.23077-0.13123,0.34605c-0.01145,0.03003-0.0287,0.06264-0.06541,0.05019
		c-0.03531-0.01198-0.0232-0.05217-0.02772-0.08132c0.02291-0.09229,0.07382-0.17158,0.12214-0.25144
		C18.50998,5.44166,18.52727,5.40311,18.48499,5.3611z"/>
	<path fill="#485B43" d="M14.23636,4.8224c0.09297,0.06445-0.00734,0.18264,0.07089,0.25119
		c-0.0462,0.09659-0.04847,0.22879-0.1985,0.2412C14.17028,5.15552,14.2947,5.01229,14.23636,4.8224z"/>
	<path fill="#485B43" d="M17.49849,9.47448c0.01273-0.08,0.05805-0.14005,0.11854-0.19083
		c0.04458,0.10045-0.00512,0.21394-0.10289,0.23134C17.51145,9.51546,17.50382,9.4886,17.49849,9.47448z"/>
	<path fill="#314831" d="M11.81672,5.4222c-0.13032-0.07884-0.27192-0.14397-0.35131-0.28472
		C11.59838,5.2131,11.72767,5.29319,11.81672,5.4222z"/>
	<path fill="#314831" d="M12.39153,6.21449c-0.11281-0.10482-0.15263-0.25181-0.22338-0.38093
		C12.29941,5.92772,12.33682,6.07611,12.39153,6.21449z"/>
	<path fill="#314831" d="M12.13711,5.80221c-0.07746-0.09301-0.18324-0.16403-0.22467-0.28502
		C12.0117,5.59327,12.11259,5.66808,12.13711,5.80221z"/>
	<path fill="#435735" d="M19.53973,5.92736c0.11994-0.1744,0.30353-0.24154,0.49951-0.26372
		c0.09024-0.01021,0.10248-0.04826,0.10873-0.11444c0.07734-0.05479,0.09055-0.1346,0.08806-0.22089
		c-0.00224-0.07772,0.00204-0.15529,0.0105-0.24848c-0.00998,0.05108-0.02753,0.06993-0.06632,0.05636
		c0.04485-0.12071,0.13874-0.16282,0.26081-0.16271c0.4937,0.00045,0.98741-0.0009,1.4811,0.00072
		c0.18958,0.00062,0.32982,0.11464,0.30783,0.30244c-0.03219,0.27496,0.05213,0.39451,0.33623,0.44984
		c0.28871,0.05622,0.47267,0.3526,0.47695,0.6744c0.0063,0.47407,0.00323,0.94833-0.00214,1.42244
		c-0.00259,0.22917-0.07257,0.43301-0.27389,0.57153c-0.48501,0.16577-0.98569,0.05835-1.4788,0.08266
		c-0.04221,0.00208-0.08409-0.01051-0.11846-0.0389c-0.07439-0.12248-0.05128-0.25495-0.03229-0.38393
		c0.01507-0.10233,0.10339-0.1076,0.18534-0.10847c0.29201-0.00309,0.58404-0.0016,0.87605-0.00082
		c0.09632,0.00026,0.18044-0.0148,0.22378-0.11323c0.09387-0.08058,0.1036-0.1926,0.10521-0.30277
		c0.00524-0.35873,0.00672-0.71759-0.00011-1.07627c-0.00422-0.22151-0.03879-0.25008-0.26421-0.25581
		c-0.07473-0.0019-0.14835-0.01011-0.22133-0.02578c-0.22846-0.04906-0.33421-0.16017-0.33774-0.39282
		c-0.00504-0.33225-0.03417-0.27339-0.29735-0.27831c-0.11688-0.00218-0.23382,0.0011-0.35073-0.00022
		c0.14033,0.00526,0.28105-0.00357,0.42104,0.00576c0.05603,0.00374,0.13463-0.01319,0.14159,0.08181
		c-0.09613,0.06454-0.20509,0.03328-0.30871,0.03993c-0.05793,0.00372-0.1163,0.00067-0.17447,0.00067
		c-0.31231,0.00001-0.31193,0.00004-0.33278,0.30176c-0.00663,0.09597-0.01761,0.19088-0.12419,0.23563
		c-0.17833,0.00378-0.3576-0.00977-0.53428,0.02739c-0.1999,0.00321-0.40015,0.0225-0.59926-0.01125
		C19.4189,6.09999,19.53134,6.01253,19.53973,5.92736z"/>
	<path fill="#324832" d="M21.17229,8.43302c0.4095,0.00005,0.81928-0.00827,1.22834,0.00506
		c0.1283,0.00418,0.23844-0.08635,0.36648-0.04323c-0.07067,0.04801-0.12967,0.11458-0.21778,0.13486
		c-0.20776,0.0382-0.41703,0.0485-0.62838,0.04682c-0.51418-0.00408-1.02844-0.00367-1.54263-0.00003
		c-0.17458,0.00124-0.34666-0.00874-0.51677-0.0477c-0.32006-0.12292-0.49393-0.35336-0.49788-0.69497
		c-0.00558-0.48336-0.0039-0.96685-0.00026-1.45025c0.00129-0.17125,0.04515-0.33175,0.17631-0.45622
		c0.04362,0.08105-0.04647,0.14575-0.02776,0.22375c0.04761,0.05554,0.02517,0.11913,0.02418,0.18173
		c-0.00745,0.46929-0.02748,0.93851,0.01241,1.40773c0.0186,0.21886,0.10961,0.3934,0.27788,0.53156
		c0.11382,0.12086,0.26372,0.14466,0.41855,0.14822c0.30013,0.0069,0.60047-0.00706,0.90059,0.007
		C21.15449,8.42918,21.16339,8.4311,21.17229,8.43302z"/>
	<path fill="#3D523B" d="M19.86155,8.52881c0.89591,0.04897,1.79184,0.04484,2.68778,0.0009
		c-0.11468,0.04857-0.23635,0.0527-0.35798,0.05281c-0.66343,0.00061-1.32685,0.00043-1.99027-0.00017
		C20.08532,8.58224,19.96883,8.58339,19.86155,8.52881z"/>
	<path fill="#314830" d="M20.18022,5.13618c0.04233-0.01437,0.10576-0.09243,0.09888,0.0356
		c-0.00444,0.08255-0.00338,0.16561-0.00029,0.24828c0.00345,0.0925-0.03833,0.13487-0.13082,0.12914
		C20.141,5.41016,20.1074,5.26908,20.18022,5.13618z"/>
	<path fill="#354B33" d="M23.66544,6.69023c0.0951,0.18991,0.07403,0.37983,0.00006,0.56975
		C23.66548,7.07006,23.66546,6.88015,23.66544,6.69023z"/>
	<path fill="#435735" d="M23.50095,7.92058c0.00246,0.06624-0.0017,0.12936-0.07602,0.15957
		C23.45027,8.02696,23.47561,7.97377,23.50095,7.92058z"/>
	<path fill="#435735" d="M8.39791,6.05494C8.55778,5.85787,8.76366,5.7598,9.02007,5.76044
		c0.68501,0.00171,1.37002,0.00004,2.05503,0.00129c0.07868,0.00014,0.15976-0.00552,0.23308,0.03465
		c0.07225,0.13707,0.06219,0.27648,0.01223,0.41699c-0.06599,0.06135-0.14911,0.04456-0.22669,0.04476
		c-0.60375,0.00154-1.20751-0.00017-1.81126,0.00257C9.23282,6.26092,9.1712,6.23015,9.13423,6.29097
		c0.62414,0.0077,1.24614-0.00002,1.86812,0.00414c0.07595,0.00051,0.16342-0.02209,0.21366,0.06601
		c-0.06283,0.0805-0.15406,0.0588-0.23567,0.05913c-0.59588,0.00237-1.19177,0.00077-1.78766,0.00143
		C8.92062,6.42198,8.89749,6.44363,8.89643,6.7067C8.89504,7.04995,8.89334,7.39323,8.89725,7.73646
		c0.00226,0.19837,0.03572,0.2289,0.23247,0.23574c0.04784,0.00166,0.09583,0.00046,0.1435,0.00549
		c0.25043,0.0264,0.38016,0.15225,0.38523,0.39955c0.0062,0.30253-0.00886,0.29296,0.31972,0.29253
		c0.09577-0.00013,0.19153,0.00022,0.2873-0.00057c0.07168-0.00059,0.13773-0.01336,0.18435-0.07412
		c0.08473-0.04451,0.11273-0.11535,0.11008-0.20856c-0.00268-0.09429-0.0095-0.189-0.00011-0.28373
		c0.01836-0.03933,0.05378-0.05225,0.09284-0.05989c0.0478-0.00227,0.0933-0.0191,0.14073-0.02196
		c0.07381-0.00445,0.13195,0.02807,0.13435,0.10198c0.01118,0.34428,0.0449,0.68937-0.01955,1.03233
		c-0.06322,0.06552-0.14673,0.05306-0.22484,0.05343C10.28982,9.21055,9.8963,9.2111,9.50281,9.2089
		C9.23651,9.20741,9.10722,9.08205,9.08888,8.81412c-0.00288-0.04214-0.00376-0.08445-0.0031-0.12661
		c0.00135-0.08606-0.03533-0.13753-0.12356-0.15622C8.8627,8.5102,8.77177,8.46626,8.685,8.41323
		c-0.21715-0.1327-0.32788-0.32619-0.33148-0.57775C8.34914,7.52939,8.35224,7.22324,8.35223,6.91712
		c0-0.18921-0.03074-0.37698-0.00547-0.56817C8.35988,6.24972,8.38606,6.15372,8.39791,6.05494z"/>
	<path fill="#4D5F42" d="M10.89069,9.16193c-0.00001-0.31124-0.00376-0.62254,0.00176-0.93368
		c0.00227-0.12784-0.00824-0.21595-0.17149-0.149c-0.02704,0.01109-0.06287,0.00108-0.09464,0.00082
		c0.06991-0.13112,0.19846-0.09945,0.3086-0.10124c0.12557-0.00203,0.24428-0.005,0.32686-0.11735
		c0.07867-0.04067,0.08743-0.11751,0.08869-0.19002c0.00699-0.40471,0.00608-0.80949,0.00092-1.21424
		c-0.00061-0.04787-0.01484-0.09324-0.03313-0.13729c-0.01308-0.03397-0.02927-0.06771-0.01278-0.10517
		c0.0009-0.13946,0.00181-0.27892,0.00271-0.41838c0.28216,0.04329,0.528,0.31016,0.54649,0.61452
		c0.03137,0.5163,0.01069,1.0335,0.00004,1.54993c-0.00429,0.20813-0.08637,0.39856-0.29364,0.50335
		c-0.13182,0.04231-0.2853,0.03265-0.38285,0.15719c-0.06452,0.00246-0.10873,0.0163-0.10363,0.09984
		c0.00671,0.11003,0.00451,0.22152-0.00591,0.33126c-0.00516,0.05438-0.01942,0.11574-0.07749,0.14844
		C10.95455,9.19594,10.91511,9.19801,10.89069,9.16193z"/>
	<path fill="#2F452D" d="M10.89069,9.16193c0.03838,0.0006,0.07761-0.00096,0.10052,0.03897
		c-0.05166,0.07922-0.12843,0.10134-0.21893,0.10113C10.28859,9.30087,9.80488,9.30241,9.32118,9.301
		C9.13923,9.30047,8.99926,9.19061,9.01987,9.01053c0.03131-0.27354-0.05495-0.39058-0.33304-0.45844
		C8.41461,8.48565,8.26674,8.24505,8.25992,7.96372c-0.01254-0.51663-0.00675-1.03384-0.0001-1.5507
		c0.00168-0.13035,0.05124-0.2542,0.1381-0.35808c0.06794,0.08423-0.00372,0.16926-0.00224,0.25428
		c0.00858,0.49319,0.00403,0.9866,0.00421,1.47994c0.00014,0.37241,0.2263,0.65095,0.59836,0.69999
		c0.12957,0.01708,0.1403,0.06873,0.13826,0.17033C9.13409,8.77889,9.11706,8.89992,9.1854,9.01396
		c0.05986,0.09988,0.12951,0.15206,0.25398,0.15055C9.92309,9.15866,10.40691,9.16201,10.89069,9.16193z"/>
	<path fill="#3C513B" d="M11.17824,8.62137c-0.00397-0.07277,0.02067-0.12175,0.10285-0.12621
		c0.09388-0.0051,0.17874-0.09071,0.28001-0.03099C11.46779,8.59893,11.31172,8.58304,11.17824,8.62137z"/>
	<path fill="#314831" d="M12.31416,6.40854c0.13141,0.13334,0.13386,0.30411,0.13962,0.47393
		C12.40724,6.7245,12.3607,6.56652,12.31416,6.40854z"/>
	<path fill="#314831" d="M12.48536,7.13328c0.05461,0.13734,0.05638,0.27459-0.00079,0.41173
		C12.48484,7.40776,12.4851,7.27052,12.48536,7.13328z"/>
	<path fill="#314831" d="M11.6534,5.48689c0.10552,0.02297,0.16908,0.08793,0.19431,0.19126
		C11.78294,5.6144,11.71817,5.55065,11.6534,5.48689z"/>
	<path fill="#314831" d="M12.4531,6.88069c0.06466,0.07013,0.02384,0.15413,0.03094,0.23186
		C12.47372,7.03529,12.46341,6.95799,12.4531,6.88069z"/>
	<path fill="#41553F" d="M12.48881,7.73572c-0.01241,0.01001-0.02481,0.02002-0.03722,0.03003
		c0.00405-0.07549,0.00313-0.15169,0.03258-0.22354C12.48571,7.6067,12.48726,7.67121,12.48881,7.73572z"/>
	<path fill="#36492C" d="M21.6194,11.60239c-0.05212-0.04662-0.03081-0.10849-0.03099-0.16377
		c-0.00161-0.49474-0.00094-0.98949-0.00094-1.48424c0.05224,0.04659,0.0308,0.10847,0.03098,0.16374
		C21.62008,10.61287,21.6194,11.10763,21.6194,11.60239z"/>
	<path fill="#FEFEFE" d="M20.6623,6.15373c0.13029-0.09328,0.08911-0.23229,0.09197-0.35661
		c0.00502-0.2181,0.0014-0.21831,0.21508-0.21718c0.2163,0.00115,0.43261,0.00259,0.64891,0.00391
		c0.07409,0.08686,0.04187,0.19134,0.04302,0.28795c0.00154,0.12985,0.03378,0.23858,0.15043,0.31042
		c0.12104,0.07868,0.2574,0.04677,0.38794,0.05202c0.10534,0.00424,0.20288,0.01628,0.24962,0.12939
		c0.02826,0.45831,0.01507,0.917,0.00791,1.37529C22.45418,7.93134,22.39286,7.9726,22.19946,7.973
		c-0.07969,0.00016-0.15951,0.00294-0.23906-0.00044c-0.54124-0.02303-1.08005,0.05895-1.62126,0.03637
		c-0.05835-0.00244-0.11701,0.00159-0.17521-0.00409c-0.16124-0.01575-0.21594-0.06759-0.22108-0.23143
		c-0.00894-0.28461-0.00273-0.56947-0.00303-0.85422c-0.00017-0.15818-0.00646-0.3166,0.00347-0.47449
		c0.00987-0.15683,0.05971-0.20137,0.21927-0.21014c0.0954-0.00524,0.19129,0.00479,0.28597-0.0092
		C20.52724,6.22418,20.58005,6.14522,20.6623,6.15373z"/>
	<path fill="#4D5F42" d="M20.50771,6.2491c-0.11191,0.05148-0.23067,0.02524-0.34541,0.02308
		c-0.13201-0.00249-0.18498,0.0558-0.18497,0.17847c0.00003,0.44307,0.00014,0.88614-0.00022,1.3292
		c-0.0001,0.11971,0.04689,0.18629,0.17955,0.18577c0.69614-0.00276,1.3923-0.003,2.08845-0.00141
		c0.12962,0.0003,0.18001-0.05762,0.17888-0.18307c-0.00432-0.47992-0.0046-0.95987-0.00639-1.4398
		c0.02257-0.00889,0.03997-0.00293,0.05232,0.0178c0.02706,0.04776,0.02919,0.10062,0.02947,0.1532
		c0.00203,0.37857,0.00216,0.75715-0.00021,1.13572c-0.00039,0.0625,0.00107,0.12743-0.04469,0.17972
		c-0.0048,0.13064-0.08293,0.16533-0.20191,0.16397c-0.31288-0.00357-0.62593,0.00309-0.93871-0.00345
		c-0.11283-0.00236-0.15152,0.03548-0.14312,0.14481c0.00764,0.09944,0.00157,0.19992,0.00154,0.29994l0.00005,0.00016
		c-0.372,0.01699-0.74392,0.04181-1.11525-0.01422c-0.09767-0.01474-0.17546-0.06702-0.25763-0.11284
		c-0.26382-0.17775-0.30859-0.45346-0.31632-0.73528c-0.01056-0.38467-0.00453-0.76987-0.00119-1.1548
		c0.00076-0.08839,0.01953-0.17663,0.03001-0.26494c0.21283,0.00003,0.42565,0.00006,0.63848,0.0001
		c0.01805,0.07156,0.07553,0.0503,0.12427,0.0538C20.3539,6.2107,20.44014,6.18238,20.50771,6.2491z"/>
	<path fill="#30472F" d="M22.4545,7.82775c-0.00186-0.49539-0.00373-0.99077-0.00559-1.48616
		c-0.06695-0.06683-0.14673-0.08604-0.24147-0.08196c-0.14456,0.00622-0.29141,0.01529-0.42993-0.04431
		c-0.11646-0.05286-0.1526-0.15298-0.15606-0.26912c-0.00359-0.12071-0.00233-0.24157-0.0032-0.36236
		c-0.16047-0.07963-0.33194-0.01243-0.49606-0.03723c-0.0767-0.01159-0.2159,0.04863-0.21563-0.04679
		c0.00026-0.0913,0.14101-0.03955,0.21828-0.04361c0.15882-0.00834,0.31866,0.00296,0.47759-0.00438
		c0.10915-0.00504,0.15838,0.02883,0.14603,0.14205c-0.00682,0.0625-0.00267,0.12638-0.0009,0.18956
		c0.00588,0.20971,0.08597,0.29813,0.29768,0.33899c0.06746,0.01302,0.13295,0.02953,0.20313,0.02956
		c0.31667,0.00014,0.32815,0.01258,0.32858,0.3264c0.00049,0.35306,0.00531,0.70624-0.00308,1.0591
		C22.57141,7.64206,22.60085,7.77493,22.4545,7.82775z"/>
	<path fill="#3C513B" d="M20.50771,6.2491C20.40199,6.248,20.29603,6.2419,20.19064,6.24715
		c-0.1171,0.00583-0.07221-0.04545-0.04019-0.09595c0.1708-0.03549,0.34156-0.06558,0.51185,0.00252
		C20.62471,6.20777,20.58494,6.25835,20.50771,6.2491z"/>
	<path fill="#3D523B" d="M19.79947,8.30612c0.44113,0.21798,0.91434,0.09444,1.37287,0.12706
		c-0.00783,0.00691-0.01553,0.01969-0.02352,0.01988c-0.37949,0.00888-0.75998,0.04457-1.13726-0.0232
		C19.93038,8.41527,19.84765,8.38518,19.79947,8.30612z"/>
	<path fill="#FEFEFE" d="M11.2691,7.89301c-0.02953,0.11081-0.10617,0.13568-0.21428,0.13596
		c-0.14366,0.00037-0.29477-0.03824-0.42849,0.05109c-0.02418,0.00293-0.04437,0.01123-0.05131,0.03743
		C10.53821,8.22274,10.512,8.3294,10.51848,8.4425c0.00303,0.05293-0.00319,0.10589-0.04113,0.14889
		c-0.0022,0.07391-0.01352,0.12634-0.11479,0.12228c-0.21213-0.0085-0.4249-0.00562-0.63728-0.00109
		c-0.08358,0.00178-0.11499-0.0259-0.1082-0.10907C9.62308,8.53018,9.6191,8.45597,9.61818,8.38217
		C9.61534,8.15589,9.50793,8.04141,9.2819,8.02748C9.20781,8.02292,9.13274,8.02094,9.05896,8.02734
		C8.91547,8.03979,8.85247,7.97557,8.85279,7.83644c0.00095-0.42705,0.00008-0.8541,0.00063-1.28115
		c0.00015-0.11365,0.03349-0.19203,0.17273-0.19143c0.69052,0.00297,1.38105,0.00121,2.07158,0.00226
		c0.03652,0.00006,0.07303,0.01061,0.10954,0.01627c0.09327,0.03281,0.10635,0.11648,0.10931,0.19381
		c0.01513,0.39578,0.00846,0.79183,0.00416,1.18779C11.32021,7.8127,11.30609,7.85781,11.2691,7.89301z"/>
	<path fill="#314831" d="M11.2691,7.89301c-0.00216-0.42957-0.00441-0.85914-0.00639-1.28871
		c-0.00036-0.07856,0.00461-0.15817-0.05544-0.22192c-0.04347-0.07184-0.11482-0.04082-0.1735-0.04115
		c-0.67453-0.0038-1.34907-0.00457-2.02361-0.00614c0.0095-0.08995,0.07255-0.10434,0.14737-0.10433
		c0.67764,0.00015,1.35527,0.0006,2.0329-0.00082c0.05655-0.00012,0.10292,0.01775,0.14732,0.04794
		c0.06004,0.04889,0.06392,0.11599,0.0638,0.18591c-0.00068,0.40473,0.00051,0.80946-0.00096,1.21418
		C11.40025,7.77357,11.39819,7.87281,11.2691,7.89301z"/>
	<path fill="#364C34" d="M11.33776,6.27788c-0.08156-0.02373-0.16409-0.03304-0.24978-0.03276
		c-0.62528,0.00202-1.25056,0.0018-1.87584,0.00024c-0.08349-0.00021-0.16,0.00355-0.20202,0.08978
		c-0.04646-0.11757,0.0501-0.11259,0.1128-0.11806c0.10014-0.00873,0.20161-0.00252,0.30251-0.00251
		c0.62669,0.00005,1.25337,0.00013,1.88005,0.0002C11.31624,6.2358,11.327,6.25684,11.33776,6.27788z"/>
	<path fill="#334931" d="M10.47735,8.59139c0.00384-0.16379-0.0644-0.34222,0.09767-0.47389
		c0.0612,0.13457,0.02122,0.27576,0.02366,0.41359C10.60005,8.60843,10.52598,8.58609,10.47735,8.59139z"/>
	<path fill="#435735" d="M21.65158,6.8801c0.16101-0.13333,0.35493-0.11353,0.46111,0.04708
		c0.09803,0.14829,0.07223,0.51234-0.04607,0.65029c-0.27495-0.00139-0.42109-0.14234-0.42645-0.41472
		C21.63832,7.0685,21.63132,6.97364,21.65158,6.8801z"/>
	<path fill="#4D5F42" d="M20.31115,6.88044c0.09904-0.1094,0.22144-0.11452,0.3434-0.05765
		c0.11834,0.05519,0.18661,0.15516,0.17087,0.29097c-0.01679,0.14485,0.05745,0.30441-0.06781,0.43243
		c-0.22695,0.06282-0.42984-0.0706-0.4541-0.30347C20.29096,7.12227,20.29631,7.00095,20.31115,6.88044z"/>
	<path fill="#354A34" d="M20.31115,6.88044c0.06336,0.08469,0.02724,0.18151,0.02921,0.27203
		c0.00589,0.27084,0.12087,0.38371,0.39378,0.37481c0.00761-0.00025,0.01564,0.01232,0.02348,0.01891
		c-0.08951,0.12537-0.21117,0.15129-0.34924,0.10083c-0.13455-0.04917-0.2029-0.15584-0.19601-0.29411
		C20.22039,7.19172,20.15131,7.01127,20.31115,6.88044z"/>
	<path fill="#31482F" d="M21.65158,6.8801c0.06316,0.07889,0.02804,0.17081,0.02987,0.25599
		c0.00544,0.25339,0.07289,0.34469,0.31724,0.40937c0.02381,0.0063,0.04534,0.02114,0.06792,0.03201
		c-0.09856,0.11017-0.22118,0.11771-0.34384,0.06012c-0.11784-0.05533-0.18879-0.15451-0.17195-0.29113
		C21.57032,7.18842,21.48076,7.00602,21.65158,6.8801z"/>
	<path fill="#435735" d="M21.77752,6.21533c0.17222,0.03468,0.34672,0.03171,0.52101,0.02994
		c0.07287-0.00074,0.1192,0.03511,0.15039,0.09632c-0.00001,0-0.01566-0.00033-0.01566-0.00033L22.4176,6.34133
		c-0.05733-0.06741-0.13439-0.06592-0.21478-0.06884C22.05967,6.26728,21.90918,6.30677,21.77752,6.21533z"/>
	<path fill="#435735" d="M9.20373,6.72375c0.09782-0.09088,0.21111-0.08893,0.32071-0.03618
		c0.11242,0.0541,0.17766,0.14949,0.16331,0.27895C9.67166,7.1117,9.74357,7.27109,9.61996,7.39965
		C9.35408,7.44863,9.19412,7.32159,9.18778,7.05056C9.18524,6.94169,9.17236,6.83138,9.20373,6.72375z"/>
	<path fill="#435735" d="M10.53668,6.71297c0.16041-0.0916,0.25816-0.07902,0.38431,0.04948
		c0.03412,0.04419,0.03335,0.10437,0.06882,0.14795l-0.00077-0.00145c0.01892,0.11554,0.02411,0.23093-0.00371,0.34598
		c-0.03931,0.03562-0.01424,0.1026-0.06547,0.1324c-0.18685,0.07088-0.37811-0.02834-0.4134-0.22836
		C10.4803,7.01067,10.46826,6.85763,10.53668,6.71297z"/>
	<path fill="#344A32" d="M9.20373,6.72375c0.05393,0.09848,0.02246,0.20474,0.02481,0.30697
		C9.2344,7.28557,9.32334,7.37548,9.5829,7.37616c0.01237,0.00003,0.0247,0.01531,0.03705,0.02349
		C9.53349,7.52141,9.41451,7.53996,9.28244,7.49617c-0.13112-0.04348-0.20022-0.14683-0.1976-0.27699
		C9.08828,7.04794,9.02197,6.85462,9.20373,6.72375z"/>
	<path fill="#31472F" d="M10.53668,6.71297c0.00089,0.09936,0.00233,0.19871,0.00255,0.29807
		c0.00061,0.27758,0.09323,0.36937,0.38063,0.3763c-0.10927,0.17645-0.37946,0.17878-0.47327-0.01397
		c-0.08911-0.18311-0.07344-0.38711-0.00256-0.57994C10.45763,6.75643,10.49206,6.72426,10.53668,6.71297z"/>
	<path fill="#5A6A50" d="M10.98534,7.25493c0.00123-0.11532,0.00246-0.23064,0.0037-0.34597
		C11.01966,7.02462,11.0257,7.14002,10.98534,7.25493z"/>
	<path fill="#5A6A50" d="M10.98981,6.9104c-0.05479-0.03472-0.06744-0.08875-0.06882-0.14795
		C10.97926,6.79558,10.99224,6.84946,10.98981,6.9104z"/>
</g>
</svg>
