<?xml version="1.0" encoding="utf-8"?>
<!-- Generator: Adobe Illustrator 23.0.0, SVG Export Plug-In . SVG Version: 6.00 Build 0)  -->
<svg version="1.1" id="Слой_1" xmlns="http://www.w3.org/2000/svg" xmlns:xlink="http://www.w3.org/1999/xlink" x="0px" y="0px" width="32px" height="13px"
	 viewBox="0 0 32 13" enable-background="new 0 0 32 13" xml:space="preserve">
<g>
	<path fill="#55718A" d="M0.00225,12.23626c0-2.21853,0-4.43706,0-6.65559c0.01796-0.01273,0.03751-0.01592,0.0587-0.00959
		c0.01719,0.01269,0.02963,0.02894,0.0376,0.04866c0.02848,0.09291,0.01857,0.18858,0.0186,0.28318
		c0.00063,1.96907,0.00068,3.93815-0.00001,5.90722c-0.00005,0.14318,0.00694,0.28455,0.04746,0.42321
		c0.08766,0.29992,0.29026,0.4835,0.58561,0.5732c0.14958,0.04543,0.30414,0.04441,0.45869,0.04441
		c5.20157-0.00031,10.40314-0.00042,15.60472,0.00076c0.10982,0.00002,0.22446-0.02309,0.3275,0.03955
		c0.02446,0.02752,0.02726,0.05547,0.00152,0.08389c-0.05814,0.01013-0.11681,0.00516-0.17521,0.00517
		c-5.37945,0.00025-10.75889,0.00026-16.13795,0.00026c-0.41395-0.00269-0.73975-0.27844-0.80967-0.68639
		C0.01632,12.27382,0.01794,12.25269,0.00225,12.23626z"/>
	<path fill="#224053" d="M27.59046,0.00265c0.32386,0.10065,0.64818,0.20024,0.93011,0.39753
		c0.09598,0.08981,0.21694,0.14656,0.31492,0.23302c0.04213,0.03717,0.10724,0.09228-0.02023,0.10374
		c-0.14833-0.0627-0.26842-0.17015-0.40653-0.24946c-0.42814-0.24584-0.8798-0.37452-1.38161-0.37416
		c-7.23145,0.00526-14.4629,0.00359-21.69435,0.00364c-0.11701,0-0.23431-0.00442-0.34988,0.01979
		C4.93533,0.14771,4.90621,0.12901,4.89473,0.08234c-0.00418-0.03031,0.00569-0.05643,0.02486-0.0797
		C12.47655,0.00265,20.0335,0.00265,27.59046,0.00265z"/>
	<path fill="#40586D" d="M17.14971,12.96473c-0.00078-0.02081-0.00155-0.04162-0.00233-0.06244
		c0.00674-0.00644,0.01348-0.01289,0.02015-0.01944c0.09111-0.04219,0.18836-0.02634,0.28307-0.02636
		c3.13256-0.00086,6.26513-0.00517,9.39768,0.0021c0.90301,0.0021,1.65092-0.32767,2.29342-0.94147
		c0.89009-0.85031,1.50346-1.8799,1.99246-2.99133c0.3029-0.68844,0.55177-1.39433,0.67312-2.13991
		c0.01756-0.10793-0.00974-0.22395,0.05476-0.3241c0.04656-0.03162,0.09141-0.02704,0.13486,0.00628c0,0.02113,0,0.04226,0,0.06339
		c-0.01669,0.01775-0.02211,0.04057-0.02861,0.06296c-0.03206,0.40668-0.13439,0.79955-0.25624,1.18591
		c-0.37039,1.17436-0.89765,2.27344-1.62598,3.27347c-0.17399,0.2389-0.36881,0.46122-0.55347,0.69205
		c-0.34115,0.35837-0.7181,0.67472-1.15445,0.91021c-0.37137,0.20042-0.77016,0.32469-1.20012,0.32465
		c-3.32413-0.00035-6.64826,0.00011-9.97239-0.00028C17.18511,12.98181,17.16647,12.97658,17.14971,12.96473z"/>
	<path fill="#3B556C" d="M4.91959,0.00265C4.9194,0.0236,4.91921,0.04454,4.91901,0.06549
		c-0.08219,0.06849-0.1816,0.04975-0.27546,0.04985C3.43681,0.11662,2.23007,0.11683,1.02332,0.11547
		C0.80403,0.11522,0.60156,0.15544,0.42999,0.3024C0.23077,0.47302,0.14783,0.69055,0.14818,0.94762
		c0.00105,0.78092,0.00046,1.56184,0.00036,2.34277C0.14844,3.96578,0.14898,4.64117,0.14797,5.31657
		C0.14784,5.40023,0.15886,5.48612,0.11751,5.56525C0.10465,5.58511,0.08711,5.59067,0.065,5.58204
		c-0.01024-0.00052-0.02048-0.0012-0.0307-0.00203C0.00469,5.52527,0.01947,5.46609,0.01944,5.40921
		C0.01852,3.86955,0.01868,2.32989,0.01868,0.7906c0.00296-0.40397,0.23859-0.68793,0.65411-0.78795
		C2.08839,0.00265,3.50399,0.00265,4.91959,0.00265z"/>
	<path fill="#264356" d="M31.99691,6.46808c-0.04213,0.00037-0.08426,0.00074-0.12639,0.00111
		c-0.04101,0.02632-0.07783,0.03098-0.10398-0.0197c0.0946-0.13424,0.06846-0.28203,0.04318-0.42707
		c-0.11863-0.68057-0.3442-1.32775-0.62241-1.95879c-0.32323-0.73315-0.71682-1.4271-1.1876-2.07594
		c-0.29251-0.40316-0.61979-0.77837-1.00661-1.09825c-0.05239-0.04333-0.11103-0.08405-0.12534-0.15815
		c-0.02511-0.11014-0.13667-0.13154-0.20482-0.19748c-0.0468-0.04528-0.1297-0.05282-0.14237-0.13363
		c0.48604,0.27853,0.88571,0.65841,1.23725,1.08412c1.04977,1.27127,1.76887,2.70872,2.15862,4.30761
		c0.02662,0.10919,0.01725,0.22728,0.08046,0.32753C31.99691,6.23566,31.99691,6.35187,31.99691,6.46808z"/>
	<path fill="#697682" d="M17.14971,12.96473c0.01015,0.00041,0.02031,0.0008,0.03047,0.00115
		c0.00887,0.00666,0.01194,0.01347,0.00924,0.02044c-0.00273,0.00704-0.00552,0.01056-0.0084,0.01056
		c-5.47081,0-10.94162,0-16.41243,0c-0.00746-0.0057-0.01058-0.01202-0.00936-0.01895
		c0.00127-0.00724,0.00297-0.01085,0.00509-0.01085c0.36162-0.00063,0.72324-0.00179,1.08487-0.00181
		C6.94936,12.96501,12.04954,12.96489,17.14971,12.96473z"/>
	<path fill="#535F69" d="M17.18102,12.99689c-0.00003-0.01035-0.00031-0.02069-0.00083-0.03101
		c3.2775-0.00022,6.55502-0.00246,9.83252,0.00137c0.52312,0.00061,1.00592-0.12008,1.45299-0.38788
		c0.40208-0.24085,0.76403-0.52929,1.07253-0.88202c0.01667-0.01328,0.03168-0.01163,0.04502,0.00495
		c-0.56603,0.62973-1.21441,1.12673-2.08086,1.27287c-0.01405,0.00237-0.02647,0.01427-0.03965,0.02172
		C24.0355,12.99689,20.60826,12.99689,17.18102,12.99689z"/>
	<path fill="#445B6E" d="M29.58325,11.7023c-0.01501-0.00165-0.03001-0.0033-0.04502-0.00495
		c0.58495-0.67699,1.07791-1.41443,1.46782-2.21809c0.38671-0.79707,0.705-1.61876,0.88559-2.48857
		c0.02944-0.14181,0.01912-0.2901,0.07314-0.42758c0.02255,0.01523,0.01037,0.0478,0.03214,0.06343c0,0.05282,0,0.10564,0,0.15847
		c-0.09524,0.24971-0.11541,0.51743-0.19083,0.77246c-0.42271,1.42939-1.06171,2.74858-2.00945,3.91168
		C29.73021,11.55065,29.65459,11.62476,29.58325,11.7023z"/>
	<path fill="#40596F" d="M0.00225,0.73159c0.01041,0.00062,0.02033-0.00127,0.02977-0.00567
		C0.03278,2.34396,0.03354,3.96199,0.0343,5.58002C0.02361,5.58023,0.01293,5.58045,0.00225,5.58067
		C0.00225,3.96431,0.00225,2.34795,0.00225,0.73159z"/>
	<path fill="#767F87" d="M31.99691,6.62654c-0.02834-0.01234-0.03056-0.03772-0.03214-0.06342
		c0.01071-0.01055,0.02143-0.0211,0.03214-0.03166C31.99691,6.56316,31.99691,6.59485,31.99691,6.62654z"/>
	<path fill="#44637F" d="M0.065,5.58204c0.01108-0.00053,0.02217-0.00106,0.03325-0.00158
		c0.20078-0.00713,0.37317,0.14605,0.41981,0.37439c0.01918,0.09388,0.01422,0.18933,0.01423,0.28428
		c0.00023,1.83743,0.00013,3.67487,0.00024,5.5123c0,0.0739-0.00312,0.14799,0.0047,0.22161
		c0.02509,0.23633,0.21905,0.43165,0.45697,0.4597c0.09,0.01061,0.18068,0.00607,0.27107,0.00607
		c5.06421,0.00015,10.12843,0.0001,15.19265,0.00034c0.10625,0.00001,0.2132-0.00696,0.31823,0.01487
		c0.24135,0.05016,0.40569,0.2473,0.37457,0.44729c0,0-0.00328,0.00098-0.0033,0.00098
		C11.78515,12.9021,6.42292,12.9018,1.06068,12.90197c-0.3438,0.00001-0.63502-0.11457-0.8338-0.39993
		c-0.11955-0.17161-0.16114-0.37379-0.16111-0.58389C0.06608,9.80612,0.0654,7.69408,0.065,5.58204z"/>
	<path fill="#2D4961" d="M17.15071,12.90131c-0.09489-0.31029-0.23031-0.41146-0.55219-0.41147
		c-5.16477-0.00008-10.32954-0.00299-15.49429,0.00654c-0.33505,0.00062-0.63228-0.29437-0.62989-0.62139
		c0.01396-1.91106,0.00686-3.82227,0.00683-5.73344c-0.00001-0.32156-0.07917-0.43742-0.38294-0.5611
		C0.09817,4.02238,0.09779,2.4643,0.09819,0.90622c0.00012-0.47818,0.36436-0.83981,0.8459-0.84005
		c1.32498-0.00066,2.64996-0.0005,3.97493-0.00068c0.00131,0.02604,0.00665,0.05009,0.03223,0.06412
		c0.04718,0.01833,0.07453,0.0584,0.10457,0.09509c0.09342,0.11413,0.21542,0.16802,0.36191,0.17205
		C5.49755,0.39895,5.57737,0.3983,5.65719,0.3983c7.02476,0.00005,14.04954,0.00482,21.07427-0.00904
		c0.55959-0.0011,1.03779,0.15816,1.51309,0.41069c0.69687,0.37025,1.19595,0.9361,1.64209,1.56422
		c0.43947,0.61874,0.72292,1.31471,1.03162,1.9985c0.20493,0.45392,0.37786,0.92019,0.48082,1.40819
		c0.05556,0.26332,0.19675,0.47313,0.37416,0.66587c0.02349,0.03718,0.06204,0.02988,0.09727,0.03244
		c0.01047,0.39972-0.09508,0.78104-0.2064,1.15764c-0.26049,0.88128-0.62953,1.71888-1.08921,2.51546
		c-0.26581,0.46062-0.56644,0.89803-0.91937,1.30019c-0.27618,0.31471-0.56461,0.61548-0.90504,0.86037
		c-0.44413,0.31948-0.92633,0.53758-1.48892,0.57471c-0.26537,0.01752-0.52957,0.02252-0.79411,0.0227
		C23.36187,12.90233,20.25629,12.90143,17.15071,12.90131z"/>
	<path fill="#123247" d="M31.77324,6.43674c-0.26312-0.1191-0.35271-0.36259-0.40735-0.60972
		c-0.16984-0.76821-0.50239-1.47338-0.82302-2.18464c-0.25038-0.55542-0.56479-1.06906-0.92452-1.56276
		c-0.57652-0.79122-1.34566-1.29998-2.2594-1.61679c-0.06256-0.02169-0.13628-0.01587-0.2048-0.01588
		C19.9227,0.44633,12.69125,0.44611,5.4598,0.44748C5.21793,0.44753,5.03774,0.36653,4.95125,0.12961
		c0.00577-0.04409,0.03165-0.06375,0.07578-0.06324C5.07492,0.06693,5.12281,0.06602,5.1707,0.06602
		c7.31127-0.00002,14.62255,0.0016,21.93382-0.00302c0.60312-0.00038,1.11278,0.22552,1.59488,0.54996
		c0.05691,0.0383,0.11229,0.07884,0.16838,0.11834c0.65288,0.51284,1.15169,1.15698,1.58487,1.85349
		c0.47792,0.76845,0.86948,1.57963,1.14829,2.44023c0.13395,0.41346,0.26266,0.83117,0.26823,1.27268
		C31.87001,6.36564,31.88414,6.44409,31.77324,6.43674z"/>
	<path fill="#3B556B" d="M27.81408,11.9194c-0.18306,0.1648-0.41986,0.15144-0.64096,0.18915
		c-0.03618,0.00617-0.07434,0.00089-0.11159,0.00089c-8.62529,0-17.25058,0-25.87587,0c-0.29593,0-0.32125-0.02461-0.32125-0.31255
		C0.8644,8.23724,0.86439,4.67758,0.86442,1.11792c0-0.25607,0.03558-0.29121,0.29484-0.29121
		C9.80584,0.8267,18.45242,0.82635,27.09899,0.82833c0.27732,0.00006,0.54354,0.06248,0.77903,0.22011
		c-0.06151,0.04943-0.12168,0.0177-0.18011-0.00536c-0.21048-0.0831-0.42745-0.11036-0.65455-0.11029
		C18.46324,0.93532,9.88312,0.93496,1.303,0.93483C0.94713,0.93482,0.97348,0.91762,0.97347,1.2606
		C0.97343,2.90789,0.97332,4.55519,0.97378,6.20248C0.9738,6.29181,0.96472,6.38223,0.99533,6.4693
		C1.00664,6.52671,1.00505,6.5849,1.00507,6.64289c0.00042,1.24546,0.00043,2.49092,0,3.73638
		c-0.00002,0.058,0.00133,0.11617-0.00914,0.17369c-0.04437,0.17191-0.01786,0.34697-0.02126,0.52046
		c-0.00476,0.24284-0.0024,0.48585-0.00074,0.72877c0.00121,0.17777,0.02067,0.19551,0.20512,0.19874
		c0.05851,0.00103,0.11705,0.0003,0.17558,0.0003c8.57169,0,17.14338-0.0002,25.71507,0.00124
		c0.20387,0.00003,0.40341-0.00832,0.59402-0.0891C27.71287,11.89252,27.76564,11.87794,27.81408,11.9194z"/>
	<path fill="#3C566C" d="M27.81408,11.9194c-0.51116,0.20746-1.04791,0.12318-1.57399,0.12347
		c-8.35214,0.00458-16.70429,0.00322-25.05643,0.00322c-0.25537,0-0.2554-0.00004-0.25542-0.24799
		c-0.00003-0.35906-0.00092-0.71812,0.00095-1.07717c0.00029-0.05549-0.02125-0.11749,0.03077-0.16442
		c0.06987,0.07021,0.02474,0.16882,0.06254,0.24704c0.01384,0.05268,0.02872,0.10522,0.02096,0.16064
		c-0.00596,0.27806,0.00195,0.55615-0.0037,0.83407c-0.00243,0.11969,0.04216,0.17152,0.16583,0.16863
		c0.3011-0.00703,0.60248,0.00716,0.90363-0.00898c0.2533,0.00902,0.50654,0.01857,0.75989-0.00181
		c0.14357,0.006,0.28709,0.0067,0.43065,0.00669c3.36029-0.00021,6.72059-0.00011,10.08088-0.00023
		c0.0638,0,0.12761-0.00113,0.1912,0.00545c2.63155,0.00372,5.2631,0.00153,7.89465,0.00107
		c1.73306-0.0003,3.46614,0.00544,5.19875-0.00409c0.36721,0.01952,0.7333,0.03425,1.08121-0.12461
		c0.27398-0.1251,0.51294-0.29949,0.73425-0.49887c0.58233-0.52463,1.01997-1.15845,1.39813-1.83657
		c0.29946-0.53698,0.55261-1.09435,0.74893-1.6767c0.08523-0.23109,0.15413-0.46686,0.20586-0.70763
		c0.06873-0.15997,0.08442-0.33168,0.11252-0.50066c0.03758-0.21919,0.01769-0.43398-0.049-0.64525
		c-0.04053-0.26759-0.1315-0.5212-0.21918-0.77599c-0.46224-1.30514-1.10455-2.50416-2.09891-3.4929
		c-0.29625-0.29457-0.63875-0.52476-1.04403-0.65123c-0.14906-0.04651-0.30249-0.05291-0.45764-0.0529
		C19.57585,1.00242,12.0743,1.00231,4.57275,1.00227c-0.06386,0-0.12778,0.00218-0.19154-0.00268
		c-0.31244,0.00615-0.62501-0.00259-0.9375,0.00718C3.41393,1.00501,3.38619,0.99575,3.35916,0.98417
		C2.9756,0.95462,2.59212,0.95331,2.2087,0.98603C2.12145,1.00384,2.03319,1.0024,1.94486,1.00015
		C1.79764,0.99106,1.65038,1.00528,1.50321,0.99968c-0.09487,0.00567-0.1902,0.00687-0.28478,0.00158
		c-0.12841-0.00718-0.18056,0.0445-0.1783,0.17358C1.0447,1.43667,1.04202,1.69865,1.04112,1.96057
		C1.0409,2.02343,1.04057,2.08634,1.02819,2.14844c-0.0551,0.30281-0.0035,0.60893-0.02911,0.91258
		c-0.00272,0.0323,0.04593,0.00799,0.04286,0.03983c0.0064,0.34265,0.00004,0.68512,0.00079,1.02759
		C1.04422,4.80342,1.04349,5.4784,1.0428,6.15338c-0.00009,0.08406,0.00728,0.169-0.01813,0.25151
		C1.01295,6.43592,0.99311,6.45884,0.95992,6.46823c-0.05187-0.047-0.03076-0.10902-0.03079-0.16452
		C0.92804,4.56613,0.92816,2.82854,0.92834,1.09095c0.00002-0.20029,0.00068-0.20082,0.20711-0.20082
		c8.69452-0.00009,17.38905,0.00008,26.08356-0.00119c0.18032-0.00003,0.34308,0.05985,0.50755,0.11799
		c0.04982,0.01761,0.09531,0.04761,0.15145,0.04151c0.28976,0.11572,0.53009,0.30673,0.75373,0.51429
		c0.61454,0.57034,1.06117,1.26535,1.4648,1.98972c0.41515,0.74506,0.71606,1.53513,0.93119,2.35828
		c0.10378,0.39709,0.05576,0.78755-0.04341,1.17835c-0.18073,0.71222-0.45151,1.39194-0.77121,2.05087
		c-0.16418,0.33837-0.33995,0.67565-0.57885,0.97291c-0.03704,0.09459-0.10953,0.16715-0.15989,0.25346
		c-0.01063,0.01058-0.02126,0.02115-0.03188,0.03173c-0.04259,0.0634-0.07897,0.13091-0.12777,0.1902l0.00008-0.00003
		c-0.28934,0.38288-0.62215,0.7249-0.99305,1.02989c-0.09693,0.07971-0.20723,0.14275-0.31619,0.20614
		c-0.02121,0.0106-0.04242,0.02121-0.06363,0.03181c-0.03605,0.03424-0.08711,0.03862-0.12793,0.06338L27.81408,11.9194z"/>
	<path fill="#3B556B" d="M28.00556,11.82424c0.33332-0.23921,0.64181-0.50603,0.92367-0.804
		c0.13285-0.14045,0.22966-0.31223,0.38557-0.43203c-0.03479,0.15408-0.16523,0.24127-0.25995,0.34989
		c-0.28427,0.32599-0.59215,0.62914-0.95792,0.86737C28.07275,11.82123,28.0363,11.81842,28.00556,11.82424z"/>
	<path fill="#3B556B" d="M29.47438,10.36631c0.01202-0.11014,0.09805-0.17428,0.15988-0.25346
		C29.62518,10.22482,29.56455,10.30474,29.47438,10.36631z"/>
	<path fill="#3B556B" d="M29.31472,10.58824c0.02043-0.07807,0.06009-0.1434,0.12777-0.1902
		C29.42948,10.48102,29.39131,10.54735,29.31472,10.58824z"/>
	<path fill="#3B556B" d="M27.814,11.91943c0.03246-0.04138,0.07712-0.05849,0.12793-0.06338
		C27.91753,11.91345,27.86875,11.92239,27.814,11.91943z"/>
	<path fill="#43505B" d="M0.99235,10.81017c-0.06444-0.07781-0.01785-0.16958-0.03238-0.25366
		C0.95996,9.19375,0.95994,7.83099,0.95993,6.46823c0.00809-0.0106,0.01619-0.02121,0.02428-0.03182
		C1.06657,6.51179,1.0424,6.61218,1.04258,6.7037C1.04456,7.68273,1.044,8.66178,1.04349,9.64082
		c-0.00006,0.1211,0.00357,0.24204,0.00778,0.363c-0.0264,0.19885-0.00001,0.39862-0.0097,0.59776
		C1.03805,10.67388,1.05098,10.75049,0.99235,10.81017z"/>
	<path fill="#5E898C" d="M4.37642,0.95486c0.07447-0.00074,0.14895-0.00214,0.22342-0.00214
		c7.47027-0.0001,14.94053,0.00242,22.41079-0.00543c0.52883-0.00056,0.95952,0.19083,1.35225,0.50551
		C29.04848,2.00213,29.526,2.71713,29.9552,3.4665c0.28109,0.49077,0.51481,1.00472,0.71083,1.53507
		c0.02728,0.0738,0.06424,0.14571,0.05152,0.22851c-0.02694,0.12315-0.05453,0.24638-0.08874,0.36754
		c-0.13093,0.46373-0.66086,0.84045-1.11043,0.79353c-0.04003-0.03694-0.08924-0.05333-0.14121-0.06778
		c-0.40378-0.11226-0.74588-0.32503-1.03795-0.6227c-0.35735-0.3642-0.74494-0.69054-1.19554-0.93954
		c-0.39487-0.2182-0.82574-0.33338-1.25699-0.44756c-0.27135-0.07184-0.5396-0.16084-0.82339-0.17688
		c-0.11003-0.10614-0.12836-0.26208-0.21116-0.38305c-0.09756-0.19129-0.18145-0.38927-0.2782-0.58078
		c-0.09864-0.19525-0.26769-0.26254-0.46138-0.20123c-0.05102,0.01615-0.10747,0.03843-0.12168,0.0908
		c-0.01562,0.05754,0.06257,0.04022,0.08343,0.07437c0.00867,0.01419,0.01096,0.02822,0.00368,0.04353
		c-0.31083,0.02028-0.45288,0.23388-0.56299,0.48436c-0.06468,0.17415-0.19195,0.22656-0.37414,0.22374
		c-0.54723-0.00848-1.09471,0.00041-1.64203-0.00432c-0.36754-0.00317-0.65748-0.1496-0.83726-0.48031
		C20.45277,3.01971,20.08771,2.9445,19.6976,2.9369c-0.46748-0.00911-0.93526-0.00181-1.40291-0.00235
		c-0.65364-0.00076-1.30728,0.00224-1.96091-0.00169c-0.04267-0.00026-0.08505-0.00091-0.12571,0.0143
		c-0.09977,0.0099-0.19812,0.05015-0.30049,0.01591c-0.06223-0.04389-0.13348-0.02754-0.2013-0.02756
		c-1.09019-0.00037-2.1804-0.00388-3.27056,0.00157c-0.36064,0.0018-0.65306-0.11838-0.87377-0.40426
		c-0.03875-0.05019-0.08246-0.09668-0.122-0.1464c-0.16918-0.21276-0.38236-0.31119-0.663-0.31022
		c-1.81873,0.00629-3.6375,0.003-5.45625,0.00375C5.1652,2.08001,5.01394,2.06733,4.86728,2.00883
		C4.56574,1.88854,4.39962,1.65631,4.30778,1.3595C4.29945,1.3045,4.2981,1.24911,4.30144,1.19364
		c0.00066-0.03497,0.00147-0.07005,0.0084-0.10457C4.31956,1.03835,4.33911,0.99224,4.37642,0.95486z"/>
	<path fill="#8AABB6" d="M1.01704,10.02057C0.97366,9.86541,0.99168,9.7064,0.9913,9.54928
		C0.98893,8.57476,0.99021,7.60024,0.98985,6.62572c-0.00002-0.0631-0.00365-0.1262-0.00562-0.18931
		c0.00219-1.03183,0.00498-2.06366,0.0056-3.09548c0.00005-0.09003,0.0072-0.17766,0.03113-0.26415
		C1.0123,3.06297,1.00907,3.0481,1.01186,3.03197c0.10937-0.23972,0.23185-0.46787,0.50786-0.55902
		c0.11989-0.01148,0.20582,0.0515,0.28592,0.12786C1.97119,2.74155,2.00031,2.9287,2.0001,3.13165
		C1.99834,4.85354,1.99905,6.57544,1.99903,8.29733c0,0.20835,0.01971,0.41348,0.134,0.59492
		c0.19559,0.3105,0.49008,0.44093,0.84969,0.44226c0.55875,0.00207,1.11751-0.00013,1.67626,0.00087
		c0.46445,0.00084,0.67823,0.17023,0.79362,0.6164c0.09049,0.34989,0.32467,0.55925,0.67144,0.65036
		c0.12457,0.03273,0.25257,0.03278,0.38058,0.03275c2.08602-0.00041,4.17203-0.00031,6.25805-0.00024
		c0.07449,0,0.14909-0.00232,0.22343,0.0032c0.34442,0.02559,0.60566,0.28252,0.63198,0.62426
		c0.00811,0.10526,0.00627,0.2111,0.00077,0.31655c-0.00093,0.05455,0.00182,0.10931-0.0023,0.16386
		c-0.00055,0.03449,0.00089,0.06912-0.00146,0.10361c-0.00047,0.03372-0.0006,0.06754-0.00686,0.10093
		c-0.00537,0.02545-0.01883,0.04633-0.03742,0.06426c-0.05844,0.00115-0.11687,0.0033-0.17531,0.0033
		c-3.43945,0.00016-6.8789,0.00013-10.31835,0.00019c-0.07937,0-0.15964,0.00748-0.23387-0.03073
		c-0.13663-0.00431-0.21979-0.09852-0.29806-0.18835c-0.16112-0.18493-0.24309-0.40372-0.25387-0.64924
		c-0.0103-0.2345-0.06067-0.29309-0.29537-0.29329c-0.49393-0.00043-0.74231-0.32489-0.95768-0.69605
		C1.01617,10.11902,1.00018,10.0697,1.01704,10.02057z"/>
	<path fill="#628B8E" d="M30.65797,7.82908c-0.06211,0.30755-0.20457,0.58604-0.32999,0.86921
		c-0.31272,0.70604-0.69428,1.37443-1.17425,1.98267c-0.33514,0.42469-0.71457,0.80598-1.18143,1.09265
		c-0.38468,0.23621-0.80886,0.26476-1.24414,0.23862c-0.0351-0.04268-0.01209-0.08321,0.01309-0.11523
		c0.09247-0.11754,0.15381-0.25211,0.22301-0.38269c0.09691-0.18288,0.25443-0.31415,0.44754-0.35905
		c0.65019-0.1512,1.08455-0.58662,1.46959-1.07978C29.2959,9.5446,29.63686,8.968,29.89843,8.34515
		c0.13298-0.31665,0.26703-0.63232,0.38067-0.95635c0.02295-0.06544,0.04773-0.13147,0.13218-0.14162
		C30.57996,7.34145,30.68752,7.59533,30.65797,7.82908z"/>
	<path fill="#649093" d="M30.40255,7.25522c-0.1306,0.14845-0.14573,0.34599-0.21943,0.51852
		c-0.16119,0.37735-0.30003,0.76486-0.49804,1.12535c-0.37119,0.67576-0.78189,1.3235-1.36927,1.84245
		c-0.22737,0.20089-0.48975,0.33052-0.77957,0.40993c-0.2943,0.08064-0.51041,0.24596-0.61326,0.5394
		c-0.04232,0.12075-0.16554,0.19299-0.19482,0.32138c-0.70703,0.00082-1.41406,0.00234-2.12109,0.00239
		c-3.60967,0.00025-7.21934,0.00013-10.82901-0.00003c-0.06907,0-0.13815-0.00212-0.20723-0.00326
		c0.00127-0.02005,0.00254-0.04008,0.00382-0.06012c0.07772-0.06542,0.1718-0.04579,0.26033-0.04583
		c2.19685-0.00097,4.39371-0.00075,6.59056-0.00075c1.80323,0,3.60646-0.00004,5.40969,0.00009
		c0.12762,0.00001,0.25514,0.00489,0.38269,0.00831c0.26144,0.00701,0.47966-0.06625,0.59637-0.3297
		c0.09752-0.22012,0.26575-0.37973,0.47931-0.49133c0.09929-0.05189,0.20991-0.07922,0.31591-0.1076
		c0.34074-0.09122,0.58471-0.32033,0.82144-0.55401c0.46033-0.45439,0.80369-0.9944,1.10496-1.56073
		c0.26583-0.49971,0.48824-1.01855,0.65799-1.55873c0.01605-0.05106,0.03667-0.09904,0.07708-0.13629
		C30.35665,7.13402,30.39258,7.17374,30.40255,7.25522z"/>
	<path fill="#2D4961" d="M30.40255,7.25522c-0.03156-0.03192-0.06313-0.06384-0.09469-0.09577
		c-0.05245-0.00072-0.07843-0.0449-0.11654-0.0693c-0.02256-0.01529-0.04641-0.02845-0.06963-0.04282
		c-0.05435-0.04049-0.11664-0.06202-0.18237-0.07621c-0.16165-0.07378-0.3313-0.10553-0.50853-0.11847
		c-0.14985-0.01093-0.24007-0.15162-0.20905-0.29628c0.03166-0.14768,0.14176-0.22059,0.28376-0.18791
		c0.57641-0.07078,1.03871-0.32462,1.12169-0.94658c0.00927-0.06947,0.01193-0.15058,0.09039-0.19181
		c0.09856,0.2356,0.20583,0.46895,0.19491,0.73325c0.03398,0.12788-0.04926,0.21469-0.11617,0.30195
		c-0.06271,0.08179-0.14046,0.15233-0.22095,0.2183C30.55428,6.49925,30.53091,6.5116,30.5091,6.5263
		c-0.12621,0.08509-0.12499,0.08846-0.00344,0.18148c0.10833,0.0829,0.22121,0.16163,0.29562,0.28045
		c0.02764,0.04413,0.06643,0.08345,0.04751,0.14241c-0.00686,0.24811-0.09506,0.47432-0.19084,0.69846
		C30.6147,7.61943,30.57624,7.40767,30.40255,7.25522z"/>
	<path fill="#2D4961" d="M1.50387,2.50676C1.25491,2.61297,1.15222,2.84388,1.02812,3.05653
		C0.97715,3.01149,0.99341,2.95073,0.99308,2.8957C0.99182,2.68818,0.9904,2.48064,0.99368,2.2734
		c0.07262-0.19482,0.2584-0.24459,0.42148-0.32352C1.45823,1.93602,1.50378,1.93175,1.547,1.91803
		c0.01369-0.0048,0.0278-0.00823,0.04196-0.01125c0.04858-0.0089,0.09935-0.00911,0.1434-0.03596
		c0.06192-0.0361,0.0701-0.09899,0.08551-0.16019C1.86248,1.53345,1.91002,1.35699,2.01345,1.2018
		c0.03648-0.05137,0.07146-0.10387,0.11596-0.14925c0.058-0.05035,0.1077-0.11474,0.19582-0.11458
		C2.67924,0.94798,3.03362,0.91823,3.387,0.95373c0.01052,0.01025,0.02105,0.02051,0.03157,0.03076
		c-0.04006,0.14622-0.17592,0.0815-0.26521,0.11919C3.07153,1.1217,2.99514,1.15279,2.92542,1.1995
		c-0.07,0.04454-0.14145,0.08696-0.20389,0.1423C2.45791,1.5387,2.33618,1.79906,2.33685,2.12777
		C2.33723,2.3097,2.23719,2.38941,2.03037,2.41972c-0.06102,0.0017-0.1227-0.00639-0.18276,0.01139
		c-0.01436,0.00457-0.02905,0.00779-0.0438,0.0107C1.70287,2.459,1.60225,2.47775,1.50387,2.50676z"/>
	<path fill="#2D4961" d="M1.01704,10.02057c0.09003,0.23655,0.25063,0.42374,0.42572,0.60101
		c0.15388,0.1558,0.354,0.17648,0.55642,0.18549c0.26872,0.01195,0.32625,0.06526,0.33495,0.32559
		c0.01258,0.37648,0.17955,0.66182,0.50915,0.85143c-0.24325,0.05048-0.48636,0.04903-0.72934-0.00195
		c-0.15384-0.06963-0.21136-0.21437-0.22723-0.35677c-0.02671-0.23973-0.1442-0.34795-0.38075-0.37209
		c-0.14262-0.01455-0.27007-0.09284-0.38813-0.17526c-0.04908-0.03427-0.11496-0.06376-0.09276-0.14533
		c-0.02458-0.03724-0.03723-0.07762-0.03273-0.12252C1.00734,10.54718,0.96004,10.28227,1.01704,10.02057z"/>
	<path fill="#8AABB6" d="M1.02508,10.93269c0.16308,0.20408,0.39915,0.27192,0.63883,0.31545
		c0.14025,0.02547,0.21171,0.07541,0.22514,0.22197c0.01763,0.19231,0.0958,0.36475,0.22489,0.51203
		c-0.05662,0.06034-0.13002,0.03018-0.1951,0.03107c-0.27024,0.00371-0.54057,0.00136-0.81086,0.00163
		c-0.06027,0.00006-0.11807,0.00388-0.1174-0.08461c0.00239-0.31559,0.00131-0.6312,0.00372-0.94679
		C0.99442,10.96645,1.01436,10.9496,1.02508,10.93269z"/>
	<path fill="#628B8F" d="M1.44176,1.96893C1.29155,2.03276,1.16343,2.13309,1.02548,2.21719
		C1.0003,2.20384,0.9942,2.18107,0.99443,2.15518C0.99338,1.79916,0.99518,1.4431,0.98944,1.08716
		C0.98782,0.98639,1.0176,0.94449,1.1235,0.95096c0.12615,0.00771,0.25307,0.00299,0.37966,0.00365
		c0.03599,0.04365,0.02406,0.08895,0.00241,0.1329C1.36497,1.37293,1.42342,1.67232,1.44176,1.96893z"/>
	<path fill="#618A8E" d="M30.84879,7.13064c-0.0869-0.17281-0.22568-0.29876-0.38272-0.40494
		c-0.16218-0.10966-0.16472-0.10674,0.00586-0.21847c0.02565-0.0168,0.0551-0.0279,0.08278-0.04164
		c0.12202-0.05839,0.24534-0.01888,0.36537,0.00295c0.0938,0.01706,0.0776,0.0921,0.05583,0.15969
		C30.96182,6.80275,30.96328,6.98115,30.84879,7.13064z"/>
	<path fill="#679397" d="M2.26815,0.954c-0.02397,0.05733-0.06958,0.0949-0.1193,0.12871
		C2.09101,1.1114,2.02971,1.12237,1.9652,1.12754C1.72327,1.14696,1.61953,1.25993,1.61343,1.50515
		C1.61121,1.59459,1.61326,1.68407,1.61188,1.77352c-0.0009,0.05824-0.0024,0.11638-0.04439,0.16367l0.00084-0.00004
		C1.47615,1.97706,1.43524,1.92855,1.43269,1.84724c-0.00539-0.17213-0.02908-0.3448,0.0076-0.51669
		C1.49376,1.07987,1.57117,1.00908,1.82666,0.9744C1.86753,0.96885,1.9121,0.98184,1.94955,0.95474
		c0.08618-0.00193,0.17235-0.00387,0.25853-0.0058C2.2293,0.93656,2.2496,0.93507,2.26815,0.954z"/>
	<path fill="#679396" d="M3.12909,1.07921c0.08488-0.06654,0.21708,0.0094,0.28948-0.09472
		c0.11999-0.061,0.24865-0.02688,0.37312-0.03029c0.19475-0.00534,0.3898-0.00012,0.58472,0.00064
		c0.0054,0.04579-0.01032,0.08631-0.03168,0.12543C4.29813,1.123,4.24049,1.12725,4.18124,1.12731
		C3.88452,1.12759,3.5878,1.12792,3.29109,1.12703C3.23268,1.12686,3.17341,1.12739,3.12909,1.07921z"/>
	<path fill="#649093" d="M1.94955,0.95474c-0.07783,0.049-0.17433,0.03845-0.25288,0.07152
		C1.60703,1.064,1.5326,1.13384,1.50241,1.23922C1.44491,1.44,1.47854,1.64398,1.47078,1.84647
		C1.46806,1.91733,1.5057,1.93884,1.56832,1.93715C1.5337,1.9775,1.48572,1.96536,1.44174,1.96891
		C1.39959,1.96285,1.37573,1.94068,1.3759,1.89642c0.00077-0.20349-0.00186-0.40707,0.00319-0.61045
		C1.38212,1.16336,1.49607,1.07795,1.50317,0.9546C1.65196,0.95465,1.80076,0.9547,1.94955,0.95474z"/>
	<path fill="#5D898C" d="M30.97592,6.62824c0.0097-0.09091-0.0216-0.13296-0.12343-0.13126
		c-0.09902,0.00164-0.19843-0.01995-0.29772-0.03136c0.14278-0.15091,0.30821-0.28594,0.3577-0.5023
		c0.10251,0.04729,0.05987,0.14869,0.07494,0.22295C31.0169,6.33163,31.03626,6.48256,30.97592,6.62824z"/>
	<path fill="#414F5A" d="M0.99443,2.15518C1.01906,2.16884,1.0241,2.19214,1.02547,2.21723
		c0.00088,0.2797,0.00175,0.55944,0.00263,0.83924c0.00069,0.00787-0.00169,0.01463-0.00713,0.02032
		C0.99748,3.08131,0.96154,3.10132,0.96216,3.05786c0.00417-0.29324-0.01829-0.58685,0.01172-0.87965
		C0.97473,2.16993,0.98732,2.16283,0.99443,2.15518z"/>
	<path fill="#424F5A" d="M2.26815,0.954c-0.02004-0.00166-0.04009-0.00333-0.0601-0.00502
		c0.06637-0.0521,0.14378-0.0248,0.21557-0.02575c0.27126-0.00358,0.54259-0.00226,0.81389-0.00071
		c0.051,0.00029,0.10791-0.01747,0.14949,0.03121C3.01405,0.95382,2.6411,0.95391,2.26815,0.954z"/>
	<path fill="#72A2A6" d="M2.01256,2.3838c0.22605-0.02597,0.29198-0.08635,0.28807-0.30599
		C2.29459,1.73943,2.4375,1.4866,2.71618,1.30195c0.49853-0.03922,0.99777-0.01197,1.49668-0.01526
		c0.04875-0.00032,0.09453,0.0135,0.13212,0.04703c0.16054,0.48501,0.45031,0.69729,0.95203,0.69729
		c1.84062,0.00002,3.68126,0.00388,5.52185-0.00389c0.29902-0.00126,0.50159,0.13132,0.676,0.34616
		c0.12893,0.15882,0.24553,0.32916,0.44419,0.41842c0.13296,0.05974,0.26673,0.09606,0.41349,0.09587
		c1.1597-0.00151,2.3194-0.00114,3.47908,0.00363c0.01131,0.00005,0.15076-0.07737,0.07257,0.05904
		c-0.00468,0.05037-0.05057,0.07678-0.06948,0.11319c-0.00708,0.07357,0.14334,0.02093,0.09181,0.12384
		c-0.04241,0.02618-0.09133,0.02727-0.13819,0.03351c-0.13177,0.01756-0.22688,0.08519-0.28486,0.20256
		c-0.23585,0.47751-0.46376,0.95871-0.68011,1.44527c-0.02262,0.05087-0.02789,0.11756-0.10787,0.11608
		c-0.05426-0.02651-0.11074-0.03267-0.17062-0.02336c-0.46204,0.07189-0.92596,0.13166-1.38688,0.21083
		c-0.14844,0.0255-0.27493,0.08286-0.3364,0.23256c-0.01515,0.02993-0.04332,0.04465-0.07049,0.0614
		c-0.23636,0.14569-0.27205,0.41159-0.06819,0.61139c0.38138,0.37377,0.72558,0.78337,1.12008,1.14381
		c0.13032,0.11907,0.17117,0.24302,0.14111,0.42035c-0.07304,0.43086-0.14713,0.86169-0.21549,1.29339
		c-0.05888,0.13359-0.06215,0.27863-0.07138,0.41901c-0.01865,0.28353,0.25266,0.47248,0.52029,0.35669
		c0.31649-0.13692,0.60857-0.3229,0.91365-0.48318c0.17369-0.09125,0.34954-0.17954,0.51603-0.28279
		c0.15666-0.09715,0.29683-0.09592,0.45893-0.00355c0.40989,0.23356,0.82968,0.44981,1.24277,0.67795
		c0.06977,0.03853,0.13939,0.07706,0.21515,0.10269c0.24036,0.0813,0.44138-0.0436,0.47475-0.29226
		c0.00953-0.07098-0.01508-0.15007,0.04614-0.21008c0.08994,0.01181,0.04624,0.10757,0.1017,0.15402
		c0.10546-0.07192,0.14118-0.17571,0.12354-0.29528c-0.08988-0.60888-0.19617-1.21516-0.29182-1.83238
		c0.00475-0.00798-0.03681,0.00512-0.01553,0.00468c-0.02851,0.09277-0.09725,0.14442-0.18411,0.1776
		c-0.09002-0.06147-0.01406-0.10872,0.02002-0.14838c0.0792-0.09217,0.1699-0.17419,0.2567-0.25956
		c0.33573-0.33024,0.66901-0.66281,0.98601-1.01107c0.03124-0.03432,0.05617-0.07852,0.10862-0.08783
		c0.0227-0.00438,0.02769,0.04427,0.03852,0.02598c0.0442-0.07465,0.1216-0.12547,0.15-0.21056
		c0.15135-0.22259,0.0375-0.52537-0.34863-0.58266c-0.30459-0.04519-0.61035-0.08232-0.91468-0.13
		c-0.22553-0.03533-0.45064-0.07455-0.6776-0.09998c-0.10614-0.01189-0.17027-0.06527-0.21643-0.16034
		c-0.23749-0.48914-0.46712-0.98188-0.6944-1.47571c-0.05824-0.12654-0.11901-0.24843-0.25797-0.30784
		c-0.02459-0.01051-0.04428-0.02908-0.03901-0.06087c0.04704-0.05163,0.10952-0.03168,0.16555-0.03174
		c1.12812-0.00114,2.25628-0.00586,3.38434,0.00236c0.31576,0.0023,0.62396,0.0605,0.84972,0.3196
		c0.03877,0.0445,0.07362,0.08949,0.09899,0.14222c0.16223,0.33719,0.44414,0.48231,0.80778,0.48482
		c0.52679,0.00364,1.05381-0.00716,1.58033,0.00511c0.1973,0.0046,0.35303-0.01925,0.42299-0.22643
		c0.06189,0.06809,0.0153,0.13071-0.01669,0.18723c-0.20013,0.3536-0.36715,0.72262-0.52693,1.09522
		c-0.01841,0.04294-0.03421,0.09138-0.09685,0.08731c-0.05427-0.02611-0.11064-0.03324-0.17067-0.0239
		c-0.46236,0.07195-0.9266,0.13177-1.38784,0.21096c-0.14853,0.0255-0.27517,0.0828-0.33668,0.23264
		c-0.01515,0.02993-0.04332,0.04464-0.0705,0.06139c-0.23635,0.14568-0.27201,0.41159-0.06814,0.61139
		c0.38137,0.37377,0.72557,0.78336,1.12008,1.1438c0.13032,0.11907,0.17116,0.24303,0.14109,0.42035
		c-0.07304,0.43086-0.14712,0.86169-0.21548,1.29338c-0.05888,0.13359-0.06229,0.27864-0.07137,0.419
		c-0.01875,0.28976,0.25931,0.47469,0.53517,0.35111c0.30976-0.13877,0.59866-0.31919,0.89879-0.47754
		c0.17353-0.09156,0.34951-0.1796,0.516-0.28284c0.15667-0.09715,0.29682-0.09592,0.45893-0.00355
		c0.40989,0.23356,0.82969,0.44981,1.24277,0.67795c0.06977,0.03853,0.13939,0.07706,0.21515,0.10269
		c0.24036,0.0813,0.44138-0.0436,0.47476-0.29226c0.00953-0.07098-0.01508-0.15007,0.04614-0.21008
		c0.08927,0.01222,0.04762,0.1067,0.10022,0.15503c0.10694-0.07293,0.14267-0.17672,0.12502-0.29628
		c-0.08987-0.60887-0.19617-1.21515-0.29181-1.8323c0.00479-0.00803-0.03681,0.005-0.01553,0.00458
		c-0.02851,0.09277-0.09726,0.14441-0.1841,0.17761c-0.09005-0.06139-0.01413-0.10865,0.01993-0.1483
		c0.07916-0.09214,0.16982-0.17413,0.25658-0.25945c0.33565-0.33005,0.66862-0.66262,0.98558-1.01064
		c0.0313-0.03437,0.05645-0.07814,0.10824-0.08863c0.02343-0.01421,0.02264,0.05495,0.04707,0.01682
		c0.04546-0.07097,0.11727-0.12358,0.1445-0.20696c0.12707-0.29539-0.0045-0.52082-0.346-0.57432
		c-0.30995-0.04856-0.62212-0.08278-0.93195-0.13316c-0.19948-0.03244-0.39866-0.07185-0.5997-0.08829
		c-0.15822-0.01294-0.25888-0.07651-0.30783-0.22617c-0.01629-0.04981-0.04723-0.09456-0.06375-0.1449
		c-0.02708-0.13067-0.08798-0.24624-0.16295-0.35552c-0.01646-0.028-0.03065-0.0562-0.00341-0.08586
		c0.04327-0.04847,0.0964-0.03385,0.1476-0.02058c0.56227,0.14569,1.13284,0.26233,1.67115,0.4901
		c0.37943,0.16054,0.71477,0.38708,1.02197,0.65563c0.25819,0.22571,0.50349,0.46605,0.76353,0.68955
		c0.22501,0.1934,0.50621,0.28114,0.78455,0.36837c0.03662,0.01148,0.07952,0.0049,0.04926,0.06265
		c-0.2066,0.02549-0.30974,0.18573-0.22295,0.34594c0.03475,0.06415,0.08111,0.10608,0.16153,0.10205
		c0.19289-0.00966,0.37262,0.03775,0.54074,0.13075c0.04087,0.05613,0.0148,0.1126-0.00325,0.16623
		c-0.34944,1.03844-0.81078,2.01966-1.50616,2.87961c-0.30554,0.37785-0.66394,0.67892-1.15258,0.80536
		c-0.31873,0.08247-0.55513,0.28521-0.71106,0.57277c-0.10719,0.19768-0.26266,0.28109-0.4915,0.2809
		c-4.10606-0.00339-8.21211-0.00241-12.31817-0.00302c-0.07868-0.00001-0.16113,0.01125-0.22853-0.0465
		c-0.00197-0.13711,0.01323-0.27708-0.00937-0.41075c-0.05208-0.30794-0.31256-0.50834-0.63726-0.50839
		c-2.18027-0.00032-4.36056-0.00356-6.54081,0.00252c-0.47063,0.00131-0.93796-0.32945-0.99797-0.79316
		C5.34741,9.57804,5.07652,9.38435,4.75311,9.38403C4.14689,9.38344,3.54066,9.38508,2.93444,9.38345
		C2.49498,9.38226,2.11954,9.11829,2.00375,8.72817c-0.03427-0.11546-0.05493-0.23378-0.05481-0.3565
		c0.0016-1.73652-0.00137-3.47305,0.00421-5.20955c0.00069-0.21636-0.03287-0.40674-0.19461-0.56068
		c0.00135-0.07036,0.01756-0.13601,0.06206-0.19268L1.82046,2.40978C1.88105,2.37608,1.95163,2.41506,2.01256,2.3838z"/>
	<path fill="#FEFEFE" d="M21.83713,8.93558c0.07324-0.45808,0.14341-0.91668,0.22205-1.37384
		c0.01798-0.10455-0.00248-0.176-0.07895-0.25235c-0.38604-0.38542-0.7653-0.77752-1.14836-1.16589
		c-0.28912-0.29313-0.24747-0.57358,0.11431-0.75381c0.05766-0.05502,0.13281-0.06144,0.20604-0.07218
		c0.46146-0.06769,0.92174-0.14368,1.38443-0.20246c0.12683-0.01611,0.23016-0.06885,0.32771-0.14279
		c0.15214-0.32018,0.30783-0.63876,0.45471-0.9613c0.06007-0.1319,0.16638-0.24333,0.18052-0.39568
		c0.02479-0.04572,0.05451-0.08951,0.07356-0.13749c0.09024-0.22735,0.25491-0.3343,0.50159-0.31358
		c0.17195-0.02698,0.24024,0.10142,0.3088,0.21445c0.11946,0.19696,0.18605,0.42044,0.30244,0.61968
		c0.14228,0.31206,0.28984,0.62165,0.43556,0.9321c0.04978,0.10605,0.11762,0.16131,0.23842,0.17582
		c0.34251,0.04115,0.68235,0.10216,1.0243,0.14829c0.0736,0.00993,0.1481,0.017,0.21189,0.06081
		c0.03292,0.07729-0.0281,0.1176-0.07063,0.15861c-0.29342,0.28297-0.5512,0.59965-0.84924,0.87833
		c-0.2891,0.27033-0.3953,0.59643-0.31959,0.98988c0.08068,0.41928,0.14243,0.84224,0.21509,1.26313
		c0.03395,0.1966-0.02209,0.35467-0.18057,0.47427c-0.16103,0.12152-0.3366,0.1239-0.50994,0.03353
		c-0.3808-0.19855-0.75881-0.40273-1.13092-0.61672c-0.28516-0.16398-0.56209-0.19415-0.85981-0.03218
		c-0.29334,0.15958-0.58332,0.32553-0.88116,0.47675C21.95732,8.96741,21.88997,9.0544,21.83713,8.93558z"/>
	<path fill="#5F6C6F" d="M15.93434,3.16716c-0.04669-0.05617-0.12339-0.00397-0.18248-0.05359
		c0.02773-0.07444,0.08922-0.11956,0.15232-0.16333c0.09552-0.00779,0.18756-0.04722,0.28571-0.03091
		c0.17609,0.04624,0.25874,0.17946,0.3295,0.33239c0.2371,0.51242,0.4816,1.02146,0.71844,1.53399
		c0.03263,0.07061,0.08113,0.08781,0.14737,0.09693c0.54468,0.07493,1.08978,0.14718,1.63355,0.22822
		c0.37801,0.05634,0.53291,0.37063,0.3343,0.66076c-0.05753,0.0723-0.11554,0.04098-0.17371,0.00101
		c-0.10996-0.37048-0.43025-0.36723-0.72842-0.40304c-0.44227-0.05606-0.88154-0.13231-1.32352-0.18944
		c-0.10605-0.01371-0.15493-0.07721-0.19699-0.16081c-0.20396-0.40539-0.38902-0.81966-0.58229-1.22999
		C16.23995,3.5597,16.14666,3.3261,15.93434,3.16716z"/>
	<path fill="#5F6C6F" d="M26.59644,5.33591C26.156,5.2685,25.71577,5.1997,25.2749,5.13516
		c-0.06665-0.00976-0.12007-0.01885-0.15205-0.08893c-0.15949-0.34949-0.32274-0.69728-0.48467-1.04567
		c0.0992-0.07637,0.18934-0.01952,0.28149,0.01334c0.00085-0.08932-0.11679-0.16614-0.04312-0.27177
		c0.09636,0.11071,0.12938,0.25272,0.19088,0.38066c0.00147,0.0258,0.00566,0.05031,0.03126,0.06462
		c0.04687,0.11876,0.11274,0.22884,0.16105,0.34694c0.06707,0.29718,0.27979,0.35964,0.55558,0.38888
		c0.45053,0.04776,0.89751,0.13055,1.34753,0.18966c0.37803,0.04966,0.5308,0.36936,0.33255,0.65875
		c-0.05795,0.07244-0.11602,0.04102-0.17424,0.00041c-0.08034-0.24737-0.25759-0.36131-0.51339-0.37527
		C26.73492,5.39279,26.65886,5.38339,26.59644,5.33591z"/>
	<path fill="#5A6668" d="M24.87656,3.74212c-0.01168,0.10491,0.08206,0.17633,0.09212,0.2828
		c-0.11478,0.03289-0.21989-0.0476-0.33048-0.02437c-0.08579-0.17956-0.17494-0.35763-0.25623-0.53916
		c-0.06336-0.14148-0.15822-0.24546-0.3072-0.29716c-0.00389-0.00363-0.00762-0.00736-0.01159-0.01082
		c-0.04706-0.04095-0.15452,0.02395-0.15654-0.05472c-0.00168-0.0658,0.08123-0.11719,0.14788-0.15142
		c0.17637-0.09057,0.43043-0.02619,0.52613,0.15318C24.69138,3.30799,24.77894,3.5277,24.87656,3.74212z"/>
	<path fill="#6E9DA1" d="M4.34497,1.33372c-0.47614,0.00001-0.95228,0-1.42842,0.00007
		C2.84802,1.3338,2.77841,1.34086,2.71618,1.30195c0.05534-0.0543,0.11837-0.09729,0.19021-0.12732
		c0.09486-0.03561,0.19288-0.04786,0.29425-0.04728c0.31649,0.00183,0.633,0.00044,0.9495,0.00081
		c0.06853,0.00008,0.13841-0.00452,0.19424,0.04731C4.34458,1.22823,4.34478,1.28097,4.34497,1.33372z"/>
	<path fill="#6A989C" d="M4.34438,1.17548C3.86506,1.1752,3.38573,1.17492,2.9064,1.17464
		c0.06409-0.05515,0.13623-0.09179,0.22271-0.09542c0.4052,0.00035,0.81041,0.0007,1.21563,0.00106
		C4.34462,1.11201,4.3445,1.14375,4.34438,1.17548z"/>
	<path fill="#6E9DA1" d="M13.57357,11.60259c4.18752-0.00007,8.37504-0.00139,12.56254,0.00336
		c0.21721,0.00025,0.34595-0.08213,0.43969-0.26722c0.13128-0.2592,0.3358-0.47577,0.61448-0.54188
		c0.78852-0.18707,1.2417-0.75582,1.64758-1.37457c0.50343-0.76743,0.87939-1.59765,1.14696-2.47506
		c0.06837,0.00286,0.12062,0.03562,0.16304,0.08662c0.02487,0.05919,0.00213,0.11335-0.01659,0.16865
		c-0.34959,1.03246-0.81802,2.00379-1.49935,2.86497c-0.32856,0.41529-0.71655,0.74646-1.24759,0.88547
		c-0.29298,0.07669-0.50452,0.26726-0.64109,0.53307c-0.11688,0.22749-0.29335,0.32398-0.55216,0.32376
		c-4.1295-0.00342-8.259-0.00237-12.38851-0.00288c-0.07872-0.00001-0.16125,0.0124-0.22871-0.04578
		C13.57377,11.70826,13.57367,11.65543,13.57357,11.60259z"/>
	<path fill="#679397" d="M30.20852,7.0712c0.04393,0.01744,0.07421,0.05001,0.0993,0.08829
		c-0.11185,0.24196-0.1836,0.49915-0.28,0.74714c-0.1511,0.38872-0.32796,0.7639-0.5261,1.12832
		c-0.21584,0.39701-0.46068,0.77966-0.756,1.12399c-0.23904,0.2787-0.49527,0.54335-0.81211,0.74148
		c-0.14549,0.09098-0.31059,0.13933-0.46917,0.18213c-0.26169,0.07063-0.44408,0.22549-0.56687,0.44492
		c-0.21954,0.39234-0.31879,0.45718-0.764,0.4242c-0.03175-0.00235-0.06381-0.00064-0.09572-0.00064
		c-4.15442,0.00006-8.30883,0.00013-12.46323,0.0002c-0.00014-0.03167-0.00029-0.06335-0.00044-0.09503
		c0.07773-0.06538,0.17179-0.04592,0.26038-0.04596c2.27701-0.00094,4.55403-0.00071,6.83105-0.00074
		c1.84076-0.00002,3.68154-0.00301,5.52228,0.0034c0.266,0.00093,0.43855-0.0923,0.55805-0.3295
		c0.12455-0.24723,0.31604-0.44503,0.59541-0.51455c0.62091-0.15449,1.03818-0.56806,1.40749-1.05091
		c0.30976-0.40499,0.55938-0.8447,0.78928-1.29785c0.23455-0.46232,0.43512-0.93748,0.59884-1.42854
		C30.15167,7.1474,30.1647,7.09955,30.20852,7.0712z"/>
	<path fill="#6B989C" d="M30.20852,7.0712c-0.07896,0.35092-0.22425,0.67854-0.36779,1.00573
		c-0.11763,0.26813-0.24568,0.53232-0.3812,0.79204c-0.25147,0.48194-0.54071,0.93986-0.90405,1.34888
		c-0.16834,0.1895-0.34641,0.36726-0.55492,0.51356c-0.19737,0.13848-0.42676,0.20297-0.6517,0.27584
		c-0.26856,0.087-0.45667,0.2693-0.57286,0.51095c-0.11908,0.24767-0.29895,0.34017-0.56654,0.33997
		c-4.21177-0.0031-8.42353-0.00206-12.63529-0.00197c-0.0001-0.0317-0.00021-0.06341-0.00031-0.09511
		c4.20755-0.00008,8.41508-0.00158,12.62261,0.00329c0.25212,0.00029,0.40675-0.09678,0.51545-0.31412
		c0.11963-0.23917,0.30418-0.44051,0.56491-0.50474c0.71678-0.17658,1.17336-0.66564,1.5681-1.23286
		c0.54953-0.78964,0.95577-1.65051,1.2583-2.5607c0.01326-0.03989,0.02966-0.07874,0.04462-0.11811
		C30.16808,7.0463,30.1883,7.05875,30.20852,7.0712z"/>
	<path fill="#6E9CA1" d="M1.82059,2.40875c0.00558,0.07256,0.00045,0.14173-0.06206,0.19268
		C1.68152,2.54898,1.60634,2.4917,1.50387,2.50676C1.6007,2.44624,1.70251,2.40158,1.82059,2.40875z"/>
	<path fill="#6E9DA1" d="M2.04482,1.20572C1.95429,1.38747,1.88066,1.57434,1.84646,1.77613
		c-0.01005,0.05929-0.0113,0.14531-0.11585,0.13019C1.64063,1.93968,1.62812,1.87064,1.62298,1.81543
		c-0.0127-0.13647-0.01929-0.27462,0.00469-0.41022c0.02362-0.1335,0.14049-0.24728,0.26536-0.26328
		C1.9519,1.13439,2.02399,1.11547,2.04482,1.20572z"/>
	<path fill="#6A979B" d="M2.04482,1.20572C1.87828,1.14793,1.71343,1.21755,1.67646,1.38191
		C1.64099,1.53961,1.66025,1.70386,1.6697,1.86512C1.67133,1.89295,1.70426,1.90086,1.73058,1.9063
		c-0.04797,0.04353-0.10769,0.02598-0.1631,0.03088C1.56729,1.78483,1.56422,1.63241,1.56754,1.48013
		c0.00559-0.25632,0.1467-0.39361,0.40657-0.39957c0.05816-0.00134,0.11641,0.00131,0.17467,0.00214
		C2.11417,1.12371,2.07949,1.16472,2.04482,1.20572z"/>
	<path fill="#6E9CA1" d="M2.01256,2.3838C1.95424,2.43407,1.88484,2.40357,1.82046,2.40978
		C1.87905,2.36152,1.94749,2.38492,2.01256,2.3838z"/>
	<path fill="#FEFEFE" d="M15.93434,3.16716c0.1404,0.0439,0.23252,0.13917,0.29355,0.26895
		c0.24594,0.52289,0.4946,1.04455,0.73644,1.5693c0.03741,0.08115,0.07816,0.11861,0.17101,0.13141
		c0.44031,0.06073,0.8792,0.13168,1.31859,0.199c0.01124,0.08237-0.05364,0.12249-0.10073,0.16862
		c-0.29126,0.28537-0.5543,0.5973-0.84941,0.8793c-0.26905,0.25709-0.35967,0.57154-0.29194,0.93919
		c0.07837,0.42545,0.14228,0.85356,0.21685,1.27975c0.03442,0.19671-0.02023,0.35538-0.17794,0.47575
		c-0.16031,0.12236-0.33642,0.12573-0.51009,0.03549c-0.38132-0.19814-0.75914-0.40325-1.13155-0.61726
		c-0.28525-0.16392-0.56231-0.19477-0.8604-0.03281c-0.29364,0.15953-0.58358,0.32601-0.88176,0.47708
		c-0.052,0.02635-0.1194,0.11374-0.17218-0.00541c0.07325-0.45807,0.14342-0.91666,0.22206-1.37382
		c0.01799-0.10457-0.00255-0.176-0.079-0.25233c-0.38603-0.38542-0.76529-0.7775-1.14834-1.16587
		c-0.28911-0.29312-0.24746-0.57357,0.11432-0.7538c0.05766-0.05502,0.13281-0.06144,0.20604-0.07218
		c0.46146-0.06769,0.92174-0.14367,1.38443-0.20246c0.12683-0.01612,0.23016-0.06884,0.32771-0.14279
		c0.20625-0.43538,0.41246-0.87078,0.61878-1.30613c0.02926-0.06175,0.06314-0.12169,0.08786-0.18516
		C15.51864,3.24999,15.68689,3.14652,15.93434,3.16716z"/>
	<path fill="#FEFEFE" d="M5.71208,8.9355C5.78532,8.47743,5.8555,8.01884,5.93414,7.56169
		c0.01799-0.10457-0.00255-0.176-0.079-0.25233C5.46911,6.92394,5.08985,6.53185,4.7068,6.14348
		c-0.28911-0.29312-0.24746-0.57357,0.11432-0.7538C4.87878,5.33466,4.95394,5.32825,5.02716,5.3175
		C5.48862,5.24981,5.9489,5.17383,6.41159,5.11504C6.53842,5.09893,6.64175,5.0462,6.7393,4.97225
		c0.20612-0.43507,0.41221-0.87016,0.6184-1.3052C7.38694,3.60534,7.42068,3.5454,7.4454,3.48197
		C7.53518,3.2516,7.70265,3.14697,7.95002,3.16672C8.12526,3.13405,8.1963,3.2649,8.25971,3.38007
		C8.39688,3.62922,8.50596,3.89263,8.6285,4.14928c0.12708,0.26615,0.2502,0.53415,0.37755,0.8002
		C9.05169,5.04483,9.11748,5.09073,9.22413,5.1044c0.34154,0.04379,0.68112,0.10174,1.02223,0.14909
		c0.07861,0.01091,0.15861,0.01636,0.22683,0.0636c0.03018,0.07816-0.03219,0.1178-0.07482,0.15888
		c-0.29022,0.27963-0.54409,0.59368-0.83954,0.86834C9.26381,6.61856,9.15449,6.94846,9.23247,7.34878
		C9.31323,7.76336,9.373,8.18203,9.44573,8.59825c0.03433,0.19646-0.01691,0.35608-0.17455,0.47761
		C9.10556,9.20354,8.92554,9.20313,8.7466,9.10879C8.3708,8.91067,7.99572,8.71067,7.62826,8.49791
		c-0.2916-0.16884-0.57332-0.19419-0.87548-0.02754C6.4646,8.62931,6.17809,8.79175,5.8845,8.94082
		C5.83254,8.9672,5.765,9.05476,5.71208,8.9355z"/>
	<path fill="#DCDEE0" d="M13.69478,8.9355c0.05476,0.0632,0.09583,0.00349,0.13682-0.0185
		c0.31248-0.16767,0.62475-0.33579,0.93497-0.50753c0.29125-0.16124,0.56857-0.11546,0.84506,0.03911
		c0.3741,0.20914,0.75075,0.41379,1.12634,0.62031c0.17494,0.09619,0.34623,0.09648,0.5033-0.0332
		c0.14287-0.11796,0.1773-0.26338,0.14019-0.4506c-0.08858-0.44686-0.16196-0.89706-0.22752-1.34792
		c-0.04937-0.33952,0.06766-0.62953,0.30869-0.87527c0.33302-0.33953,0.66111-0.68383,0.99131-1.02609
		c0.11045,0.01334,0.22167,0.02229,0.33121,0.04092c0.25314,0.04306,0.35439,0.14292,0.40939,0.39374
		c0.02222,0.0607,0.01169,0.11454-0.03421,0.16097c-0.40338,0.46528-0.84645,0.89265-1.283,1.32634
		c-0.04587,0.04557-0.11918,0.07688-0.11292,0.16043c0.08228,0.11937,0.07665,0.26166,0.09787,0.39507
		c0.06467,0.40656,0.13478,0.81222,0.20004,1.21866c0.01057,0.06581,0.03757,0.13513-0.01635,0.19658
		c0.00025,0.04216-0.00269,0.08461,0.00124,0.12643c0.03306,0.35247-0.33594,0.5323-0.60817,0.37735
		c-0.28517-0.16232-0.57732-0.31255-0.86631-0.46827c-0.20511-0.11052-0.41193-0.21811-0.61414-0.33364
		C15.87545,8.8829,15.8077,8.88268,15.7232,8.92933c-0.44031,0.24309-0.8828,0.48232-1.32636,0.71953
		c-0.15701,0.08397-0.31025,0.19255-0.50713,0.11769c-0.16653-0.06332-0.28501-0.2067-0.27481-0.38502
		C13.62346,9.23184,13.62301,9.07598,13.69478,8.9355z"/>
	<path fill="#DCDEE0" d="M5.71208,8.9355C5.76684,8.99871,5.80791,8.93899,5.8489,8.917
		c0.31249-0.16767,0.62476-0.3358,0.93499-0.50754c0.29126-0.16124,0.56866-0.11556,0.84507,0.03918
		c0.36937,0.20679,0.74137,0.40892,1.11188,0.6137C8.91954,9.1611,9.09524,9.17101,9.2587,9.03571
		C9.40149,8.91752,9.43586,8.7722,9.39874,8.58499C9.31015,8.13812,9.23675,7.6879,9.17122,7.23704
		c-0.04935-0.33953,0.06753-0.62975,0.30887-0.8752c0.33355-0.33923,0.66255-0.68286,0.9935-1.02461
		c0.00292-0.00435,0.00518-0.01185,0.00885-0.0126c0.32077-0.06553,0.76979,0.08326,0.76124,0.43776
		c-0.01132,0.06039-0.01609,0.12347-0.06605,0.16905c-0.40338,0.46528-0.84645,0.89265-1.283,1.32634
		C9.84874,7.30335,9.77544,7.33466,9.78169,7.41821c0.08228,0.11937,0.07666,0.26165,0.09788,0.39507
		c0.06467,0.40656,0.13478,0.81222,0.20003,1.21867c0.01057,0.0658,0.03758,0.13513-0.01635,0.19658
		c0.00024,0.04216-0.00269,0.08461,0.00123,0.12643c0.03305,0.35249-0.33596,0.5323-0.60817,0.37735
		C9.17115,9.56997,8.879,9.41974,8.59,9.26402C8.38489,9.15351,8.17807,9.04592,7.97586,8.93038
		C7.89275,8.8829,7.825,8.88268,7.7405,8.92933c-0.44031,0.24309-0.8828,0.48232-1.32636,0.71953
		C6.25712,9.73283,6.10388,9.8414,5.907,9.76655c-0.1665-0.0633-0.28502-0.20673-0.27481-0.38502
		C5.64075,9.23184,5.64031,9.07598,5.71208,8.9355z"/>
	<path fill="#DCDEE0" d="M26.59644,5.33591c0.11043,0.01332,0.22163,0.02221,0.33115,0.04084
		c0.25307,0.04305,0.35429,0.14291,0.40928,0.39372c0.02221,0.0607,0.01169,0.11454-0.03421,0.16097
		c-0.40338,0.46528-0.84645,0.89265-1.283,1.32633c-0.04587,0.04557-0.11918,0.07688-0.11292,0.16043
		c0.08228,0.11937,0.07665,0.26166,0.09787,0.39507c0.06467,0.40656,0.13478,0.81222,0.20004,1.21866
		c0.01057,0.06581,0.03757,0.13513-0.01635,0.19658c0.00024,0.04216-0.00269,0.08461,0.00123,0.12643
		c0.03306,0.35247-0.33594,0.5323-0.60816,0.37735c-0.28517-0.16232-0.57732-0.31255-0.86631-0.46826
		c-0.20511-0.11052-0.41192-0.21811-0.61413-0.33364c-0.0831-0.04748-0.15085-0.04774-0.23536-0.00108
		c-0.4403,0.24309-0.88279,0.48232-1.32635,0.71952c-0.15701,0.08397-0.31023,0.19255-0.50712,0.11774
		c-0.16654-0.06329-0.28505-0.20666-0.27486-0.38498c0.00856-0.14968,0.00803-0.30555,0.0799-0.44601
		c0.04585,0.05941,0.08652,0.0104,0.1237-0.00965c0.31679-0.17077,0.6334-0.34194,0.94812-0.51645
		c0.29115-0.16143,0.56855-0.11547,0.84504,0.0391c0.3741,0.20914,0.75075,0.41379,1.12634,0.62031
		c0.17494,0.09619,0.34623,0.09646,0.5033-0.03323c0.14286-0.11796,0.17728-0.26339,0.14017-0.45061
		c-0.08858-0.44686-0.16196-0.89706-0.22752-1.34791c-0.04937-0.33952,0.06765-0.62954,0.3087-0.87526
		C25.93804,6.02239,26.26619,5.67813,26.59644,5.33591z"/>
	<path fill="#5F6C6F" d="M11.21182,5.77046c-0.05493-0.25076-0.15547-0.35037-0.4079-0.3934
		c-0.10919-0.01861-0.22017-0.02688-0.33034-0.03984C10.02851,5.2691,9.5837,5.19914,9.13809,5.13473
		C9.06743,5.12452,9.0243,5.10191,8.99358,5.03561C8.75476,4.52036,8.5114,4.00719,8.27248,3.49199
		C8.20359,3.34344,8.11769,3.21655,7.95007,3.16674C7.90449,3.10919,7.82444,3.16676,7.76906,3.10976
		c0.07626-0.13468,0.18517-0.19551,0.34588-0.19631C8.2865,2.9126,8.40309,2.98813,8.47229,3.13033
		c0.18217,0.37438,0.35558,0.75296,0.53292,1.12966c0.08533,0.18125,0.17273,0.36155,0.25696,0.5433
		C9.2916,4.8668,9.34619,4.87458,9.40553,4.88276c0.54402,0.075,1.08853,0.14687,1.63158,0.22834
		c0.37763,0.05665,0.53168,0.37079,0.33324,0.66052C11.31699,5.84086,11.26433,5.81598,11.21182,5.77046z"/>
	<path fill="#5F6C6F" d="M10.06325,9.22852c-0.08833-0.53546-0.17723-1.07083-0.26425-1.6065
		c-0.0109-0.0671-0.01182-0.13579-0.01735-0.20378c0.07331-0.06736,0.14659-0.13469,0.24232-0.22264
		c0.04586,0.26085,0.0906,0.49978,0.12942,0.73967c0.06034,0.37295,0.11256,0.74725,0.17666,1.11954
		c0.02633,0.15291-0.02923,0.26597-0.13274,0.36665c-0.02159,0.021-0.04257,0.05496-0.07871,0.04013
		c-0.03707-0.01521-0.02111-0.05425-0.02501-0.0837C10.08691,9.3274,10.10979,9.27104,10.06325,9.22852z"/>
	<path fill="#5F6C6F" d="M18.04595,9.22852c-0.08832-0.53546-0.17723-1.07083-0.26424-1.6065
		c-0.0109-0.0671-0.01183-0.13579-0.01734-0.20378c0.07333-0.06738,0.14663-0.13472,0.24232-0.22264
		c0.04586,0.26085,0.0906,0.49978,0.12942,0.73967c0.06034,0.37295,0.11256,0.74724,0.17666,1.11954
		c0.02633,0.1529-0.02923,0.26597-0.13275,0.36665c-0.02159,0.021-0.04257,0.05496-0.07871,0.04013
		c-0.03707-0.01521-0.02111-0.05425-0.02501-0.0837C18.06961,9.32739,18.09249,9.27104,18.04595,9.22852z"/>
	<path fill="#5F6C6F" d="M26.18831,9.22852c-0.08833-0.53546-0.17723-1.07083-0.26424-1.6065
		c-0.0109-0.0671-0.01183-0.13579-0.01734-0.20378c0.07333-0.06738,0.14663-0.13472,0.24232-0.22264
		c0.04586,0.26085,0.0906,0.49979,0.12941,0.73967c0.06034,0.37295,0.11255,0.74724,0.17666,1.11954
		c0.02633,0.1529-0.02921,0.26598-0.13274,0.36665c-0.02159,0.021-0.04257,0.05496-0.07871,0.04013
		c-0.03707-0.01521-0.02111-0.05425-0.02501-0.0837C26.21197,9.32739,26.23485,9.27104,26.18831,9.22852z"/>
	<path fill="#606D70" d="M14.722,4.97225c-0.02982,0.10671-0.0923,0.15364-0.21147,0.16942
		c-0.56987,0.07545-1.13796,0.16407-1.7067,0.24801c0.01354-0.16909,0.14942-0.22525,0.27739-0.24695
		c0.51784-0.08782,1.03888-0.15694,1.55767-0.23959C14.71321,4.8913,14.72051,4.91814,14.722,4.97225z"/>
	<path fill="#606D70" d="M22.86436,4.97225c-0.02982,0.10671-0.0923,0.15364-0.21147,0.16942
		c-0.56986,0.07545-1.13796,0.16407-1.7067,0.24801c0.01354-0.1691,0.14942-0.22525,0.2774-0.24695
		c0.51784-0.08781,1.03888-0.15694,1.55766-0.23959C22.85557,4.8913,22.86286,4.91815,22.86436,4.97225z"/>
	<path fill="#606D70" d="M6.7393,4.97225C6.70949,5.07897,6.647,5.12589,6.52783,5.14167
		c-0.56987,0.07545-1.13796,0.16407-1.7067,0.24801c0.01354-0.1691,0.14942-0.22525,0.27739-0.24695
		c0.51784-0.08782,1.03888-0.15694,1.55767-0.23959C6.73051,4.8913,6.73781,4.91814,6.7393,4.97225z"/>
	<path fill="#72807F" d="M19.16031,5.93144c-0.00272-0.05661-0.00576-0.11329,0.0342-0.16097
		c0.05291-0.00917,0.10544,0.0343,0.15853,0.00114c-0.01559,0.0959-0.09728,0.14016-0.16151,0.19577
		C19.17201,5.9843,19.16498,5.94949,19.16031,5.93144z"/>
	<path fill="#72807F" d="M27.30267,5.93144c-0.00272-0.05661-0.00576-0.11329,0.03421-0.16097
		c0.05291-0.00917,0.10544,0.0343,0.15853,0.00114c-0.01558,0.09591-0.09728,0.14016-0.16151,0.19577
		C27.31437,5.9843,27.30733,5.9495,27.30267,5.93144z"/>
	<path fill="#72807F" d="M11.21182,5.77046c0.05291-0.00916,0.10543,0.0343,0.15852,0.00115
		c-0.01559,0.09591-0.09727,0.14019-0.16153,0.19578c-0.01952,0.01689-0.02654-0.01793-0.03119-0.03597
		C11.17489,5.87482,11.17186,5.81815,11.21182,5.77046z"/>
	<path fill="#5E898C" d="M25.25974,4.53434c-0.07691-0.10503-0.14385-0.21462-0.16104-0.34695
		C25.17736,4.29162,25.24361,4.40152,25.25974,4.53434z"/>
</g>
</svg>
