<?xml version="1.0" encoding="utf-8"?>
<!-- Generator: Adobe Illustrator 23.0.0, SVG Export Plug-In . SVG Version: 6.00 Build 0)  -->
<svg version="1.1" id="Слой_1" xmlns="http://www.w3.org/2000/svg" xmlns:xlink="http://www.w3.org/1999/xlink" x="0px" y="0px" width="32px" height="13px"
	 viewBox="0 0 32 13" enable-background="new 0 0 32 13" xml:space="preserve">
<g>
	<path fill="#2D2D2D" d="M0.86438,12.99689c-0.02129,0-0.04257,0-0.06386,0c-0.33183-0.05126-0.56626-0.23332-0.72469-0.52323
		c-0.04681-0.08566-0.04517-0.18058-0.07358-0.26911c0-2.20796,0-4.41593,0-6.6239c0.03484-0.02885,0.07491-0.03615,0.11867-0.0287
		c0.30471,0.10753,0.41072,0.26299,0.41096,0.61574c0.00116,1.65234,0.00038,3.30467,0.00055,4.95701
		c0.00003,0.25339-0.00339,0.50683,0.00116,0.76017c0.0063,0.35067,0.20489,0.54537,0.55886,0.55347
		c0.06912,0.00158,0.13828,0.00062,0.20742,0.00062c5.03139,0.00002,10.06278,0.00001,15.09417,0.00004
		c0.07446,0,0.14894-0.00118,0.22337,0.00091c0.30537,0.00858,0.46824,0.1301,0.56346,0.41944
		c0.00416,0.04391-0.00023,0.08515-0.03737,0.11586c-0.06345,0.01024-0.12743,0.00507-0.19116,0.00508
		c-5.29465,0.00028-10.58931,0.00018-15.88396,0.00114C1.00052,12.98146,0.93019,12.9644,0.86438,12.99689z"/>
	<path fill="#262727" d="M31.99691,6.78501c-0.06809,0.03773-0.04715,0.11021-0.0594,0.16591
		c-0.39912,1.81492-1.17801,3.443-2.43218,4.8313c-0.4517,0.50001-0.98541,0.89516-1.64168,1.10545
		c-0.12238,0.03921-0.25887,0.03076-0.36898,0.10923c-0.05322,0-0.10644,0-0.15965,0
		c-0.06033-0.03172-0.1254-0.01548-0.18795-0.0155c-3.31336-0.00108-6.62672-0.00052-9.94008-0.00103
		c-0.02224,0.00184-0.04137-0.00496-0.05738-0.02037c-0.00017-0.02996-0.00034-0.05991-0.00051-0.08987
		c0.08267-0.06982,0.18268-0.04486,0.27569-0.04491c2.59014-0.0014,5.18027-0.00111,7.77041-0.00111
		c0.64355,0,1.2872-0.00727,1.9306,0.00236c0.49167,0.00736,0.93093-0.14304,1.34224-0.3928
		c0.301-0.18277,0.55404-0.4214,0.80717-0.66499c0.73802-0.71021,1.25873-1.56714,1.6928-2.47521
		c0.38063-0.7963,0.69538-1.62145,0.83759-2.5003c0.01682-0.10392,0.00055-0.21207,0.04271-0.31225
		c0.0232-0.0356,0.0571-0.0408,0.09553-0.03289c0.04341,0.0116,0.02779,0.06034,0.05309,0.08344
		C31.99691,6.61598,31.99691,6.7005,31.99691,6.78501z"/>
	<path fill="#1A1A1A" d="M31.96232,6.46722c-0.03099,0.00035-0.06199,0.0007-0.09298,0.00106
		c-0.04772,0.02091-0.07377,0.0121-0.06416-0.04599c0.06061-0.1573,0.01527-0.31387-0.01158-0.46757
		c-0.12272-0.70242-0.36961-1.36663-0.66622-2.01134c-0.40354-0.87713-0.89063-1.70878-1.52856-2.439
		c-0.39678-0.45418-0.846-0.86123-1.39323-1.14126c-0.38106-0.195-0.78998-0.27983-1.21652-0.28014
		c-1.76632-0.00125-3.53264-0.00052-5.29897-0.00052c-5.45857,0-10.91714-0.00002-16.37572,0.00013
		c-0.11167,0-0.22393-0.00668-0.33359,0.02279C4.95084,0.11189,4.92434,0.10824,4.90674,0.07972
		c-0.0107-0.02808-0.00696-0.05389,0.01285-0.07707c7.5676,0,15.1352,0,22.7028,0c0.54721,0.15608,1.03095,0.42403,1.46039,0.79584
		c0.58688,0.50813,1.05575,1.11143,1.46036,1.76597c0.62528,1.01152,1.10948,2.08305,1.37422,3.24579
		c0.02358,0.10358,0.01355,0.21627,0.07955,0.3092c0,0.06339,0,0.12677,0,0.19016
		C31.95632,6.35586,32.00553,6.42153,31.96232,6.46722z"/>
	<path fill="#262626" d="M4.91959,0.00265C4.91951,0.02372,4.91944,0.0448,4.91936,0.06587
		C4.83819,0.13806,4.73795,0.11499,4.64489,0.11512c-1.21268,0.00174-2.4254,0.00573-3.63803-0.00217
		C0.70704,0.11101,0.4881,0.22953,0.30566,0.4512c-0.12587,0.15293-0.15847,0.32662-0.1582,0.51742
		C0.14954,2.41513,0.14915,3.86164,0.1475,5.30815C0.1474,5.40052,0.17057,5.49998,0.09806,5.58065
		C0.06612,5.58065,0.03418,5.58066,0.00225,5.58067c0-1.61636,0-3.23271,0-4.84907c0.05855-0.37618,0.26539-0.62436,0.63862-0.72895
		C2.06711,0.00265,3.49335,0.00265,4.91959,0.00265z"/>
	<path fill="#697681" d="M17.1496,12.95999c0.00971,0.00373,0.01962,0.00684,0.02972,0.00935
		c0.01135,0.00546,0.01536,0.01135,0.0121,0.0177c-0.00336,0.00656-0.00681,0.00985-0.0104,0.00985
		c-5.43888,0-10.87776,0-16.31664,0c0.04293-0.06313,0.1075-0.03101,0.16095-0.03103
		c5.32693-0.00157,10.65386-0.00146,15.98078-0.00165C17.05394,12.96421,17.10177,12.96146,17.1496,12.95999z"/>
	<path fill="#535F69" d="M17.18102,12.99689c-0.00011-0.00922-0.00067-0.01842-0.00169-0.02757
		c0.05315-0.00135,0.1063-0.00391,0.15946-0.00392c3.28301-0.00031,6.56602-0.00052,9.84904,0.0004
		c0.04974,0.00001,0.10786-0.02364,0.14719,0.03109C23.95035,12.99689,20.56568,12.99689,17.18102,12.99689z"/>
	<path fill="#404C56" d="M31.96232,6.46722c0.01474-0.05184-0.02379-0.1152,0.03459-0.1576c0,0.07395,0,0.1479,0,0.22185
		C31.96879,6.51885,31.96571,6.49295,31.96232,6.46722z"/>
	<path fill="#202020" d="M0.09806,5.58065C0.09805,4.01743,0.10982,2.45406,0.08924,0.89111
		C0.08445,0.52774,0.56309,0.05118,0.92898,0.05727c1.3298,0.02213,2.66021,0.00865,3.99039,0.0086
		c0.01066,0.01066,0.02132,0.02132,0.03199,0.03198c0.04366,0.02486,0.0649,0.06882,0.09224,0.10741
		c0.08564,0.12087,0.2045,0.18094,0.35126,0.19C5.4799,0.40051,5.56508,0.39828,5.6502,0.39828
		c7.02903,0.00009,14.05806,0.00473,21.08706-0.00879c0.55949-0.00108,1.03711,0.16021,1.51205,0.41332
		c0.69131,0.36843,1.18741,0.92961,1.63128,1.55255c0.4435,0.62242,0.72928,1.32301,1.03921,2.01193
		c0.17585,0.39088,0.33204,0.78997,0.43041,1.20823c0.07687,0.32684,0.1607,0.64821,0.45495,0.86106
		c0.01393,0.02544,0.0379,0.03087,0.06417,0.03169c0.00679,0.4485-0.11965,0.87264-0.25237,1.29329
		C31.47009,8.22714,31.28036,8.6759,31.0855,9.1251c-0.31538,0.72701-0.72503,1.39095-1.19183,2.02606
		c-0.20607,0.28037-0.46843,0.50803-0.70507,0.75982c-0.29875,0.31787-0.64621,0.55719-1.03588,0.74066
		c-0.29409,0.13847-0.60365,0.22004-0.93493,0.21982c-3.35623-0.00217-6.71246-0.00134-10.06869-0.00135
		c-0.10196-0.29204-0.31434-0.38412-0.61641-0.38384c-5.14297,0.0049-10.28595,0.00073-15.42891,0.00972
		c-0.34751,0.00061-0.6312-0.28367-0.62889-0.61816C0.48795,9.98279,0.47759,8.0876,0.48491,6.19249
		C0.48607,5.89259,0.39223,5.68189,0.09806,5.58065z"/>
	<path fill="#131313" d="M31.80517,6.43658c-0.22489-0.05813-0.3148-0.23908-0.38186-0.43071
		c-0.12856-0.36732-0.19735-0.7517-0.34122-1.11654c-0.1529-0.38775-0.32437-0.76677-0.49199-1.14767
		c-0.26204-0.59546-0.58978-1.15121-0.98067-1.67578c-0.54525-0.73173-1.2497-1.23284-2.10033-1.54995
		c-0.14279-0.05323-0.28385-0.07107-0.43435-0.07104C19.86969,0.44658,12.66463,0.44637,5.45958,0.44632
		c-0.29313,0-0.45802-0.11334-0.50823-0.34847c0.00568-0.04424,0.03182-0.06363,0.07582-0.06307
		c0.04254,0.00054,0.0851-0.00036,0.12766-0.00036c7.30342-0.00002,14.60683-0.00124,21.91025,0.00247
		c0.54106,0.00027,1.03348,0.16839,1.48521,0.47661c0.17302,0.11805,0.33561,0.24957,0.50583,0.37034
		c0.13077,0.09278,0.21323,0.25094,0.3406,0.35049c0.23318,0.18226,0.41112,0.41171,0.5741,0.64783
		c0.25722,0.37263,0.50624,0.75076,0.73421,1.14418c0.39927,0.68901,0.70755,1.41264,0.95337,2.16585
		c0.121,0.37076,0.18998,0.7521,0.24066,1.13741C31.90852,6.40144,31.88472,6.44263,31.80517,6.43658z"/>
	<path fill="#262626" d="M14.08413,0.8267c4.25152,0,8.50304,0.00225,12.75455-0.00236
		c0.65995-0.00072,1.20745,0.22913,1.69832,0.66222c0.35501,0.31322,0.66573,0.66383,0.93058,1.04392
		c0.3842,0.55137,0.7164,1.13638,0.98282,1.75919c0.14002,0.32732,0.2869,0.65254,0.39904,0.98902
		c0.20151,0.60458,0.3105,1.21572,0.1263,1.85567c-0.13379,0.46482-0.27079,0.93107-0.46629,1.36922
		c-0.28333,0.635-0.5792,1.27058-0.99248,1.83769c-0.22821,0.31315-0.45564,0.63533-0.73318,0.90253
		c-0.38256,0.3683-0.79739,0.7157-1.35072,0.81448c-0.17601,0.03142-0.35708,0.04908-0.53584,0.04913
		c-8.55625,0.00233-17.11251,0.00204-25.66876,0.00201c-0.03192,0-0.06404,0.00185-0.09574-0.00091
		c-0.20055-0.01745-0.25261-0.07014-0.26751-0.27184c-0.0031-0.04203-0.00081-0.08447-0.00081-0.12672
		c-0.00002-3.49633-0.00003-6.99267,0-10.489c0-0.3559,0.03904-0.39423,0.40129-0.39423
		C5.53852,0.82669,9.81133,0.8267,14.08413,0.8267z"/>
	<path fill="#45271D" d="M27.6867,1.0504c0.68109,0.30488,1.18097,0.81481,1.61525,1.40079
		c0.31751,0.42841,0.59384,0.88252,0.83841,1.35401c0.22282,0.42956,0.40906,0.87681,0.57321,1.33227
		c0.01023,0.02839,0.00412,0.06258,0.00561,0.09408C30.6902,5.3485,30.65935,5.465,30.63378,5.58278
		c-0.11008,0.50703-0.6026,0.75559-0.95976,0.78489c-0.15946-0.03986-0.31726-0.08533-0.47408-0.13513
		c-0.39346-0.12495-0.6847-0.39356-0.96846-0.6724c-0.43383-0.42632-0.90736-0.79829-1.48313-1.01608
		c-0.39108-0.14793-0.79331-0.26545-1.20703-0.3361c-0.06962,0.02968-0.05445,0.10646-0.08806,0.15622
		c-0.05041,0.07463-0.07795,0.0481-0.09989-0.01866c-0.00924-0.20395,0.0376-0.40421-0.00018-0.61286
		c-0.11118-0.61413-0.59488-1.11299-1.21117-1.24029c-0.40349-0.08334-0.76814,0.00193-1.11435,0.20401
		c-0.04472,0.0261-0.11045,0.04814-0.11166,0.10324c-0.00134,0.06106,0.07127,0.07018,0.11641,0.09284
		c0.42114,0.21146,0.79324,0.48863,1.12255,0.82296c0.04645,0.04716,0.10999,0.08925,0.09095,0.17236
		c-0.10492,0.05767-0.21198,0.01877-0.31791,0.0056c-0.05691-0.00708-0.11379-0.01237-0.171-0.01556
		c-0.10375-0.02315-0.21004-0.02551-0.31519-0.03739c-0.09149-0.0207-0.15846-0.08312-0.23194-0.13462
		c-0.65173-0.45684-1.37369-0.70041-2.17411-0.71335c-0.23882-0.00386-0.47632,0.0183-0.71478,0.01932
		c-0.0758-0.02347-0.15143-0.04756-0.2287-0.06642c-0.24648-0.04844-0.49587-0.04425-0.74518-0.04362
		c-0.08428,0.00021-0.17062,0.00951-0.24963-0.03234c-0.27926-0.24783-0.60692-0.39352-0.97985-0.40857
		c-0.34946-0.0141-0.67019,0.0944-0.95725,0.29582c-0.07742,0.05432-0.14572,0.12537-0.24682,0.13953
		c-0.3933,0.02154-0.78662,0.00821-1.17977,0.00885c-0.51016,0.00084-1.02037,0.0076-1.53037-0.00392
		c-0.08573,0.0044-0.17139,0.00301-0.25655-0.00847c-0.06482-0.01241-0.11378-0.05384-0.16493-0.091
		c-0.54836-0.3984-1.12198-0.45893-1.72639-0.13005c-0.06356,0.03459-0.12319,0.08588-0.20506,0.07338
		c-0.17223-0.06107-0.26424-0.21217-0.36612-0.34284c-0.19831-0.25435-0.43975-0.36203-0.76944-0.36013
		C8.90102,2.05247,7.08702,2.04788,5.27306,2.04646C4.79929,2.04609,4.49802,1.83393,4.33914,1.39803
		C4.3293,1.33344,4.30235,1.27187,4.30255,1.20528C4.29761,1.14814,4.29906,1.09109,4.30459,1.03394
		c0.00667-0.04057,0.0142-0.08059,0.06185-0.09474C5.64372,0.9366,6.9209,0.93823,8.19807,0.93818
		c6.34334-0.00023,12.68668-0.00009,19.02978-0.00013C27.38463,0.95944,27.54172,0.98054,27.6867,1.0504z"/>
	<path fill="#664532" d="M0.98965,9.82924C0.98077,9.77502,0.97188,9.72079,0.96299,9.66656
		c0.0265-0.06092,0.01292-0.12505,0.01294-0.18747C0.97678,7.39568,0.9766,5.31227,0.97661,3.22918
		c0.0166-0.30164,0.17934-0.52103,0.40854-0.69941C1.4558,2.47478,1.53651,2.42926,1.63534,2.45638
		c0.26597,0.1274,0.36584,0.34158,0.36512,0.62932C1.99617,4.79101,1.99827,6.49633,1.99838,8.20165
		c0,0.06862-0.00191,0.13733,0.00307,0.20584c0.03808,0.52326,0.41989,0.88686,0.9552,0.89464
		c0.55841,0.00811,1.11701,0.00161,1.67552,0.00213C5.11753,9.30472,5.3153,9.4503,5.4543,9.90896
		c0.13239,0.43686,0.45597,0.68786,0.91849,0.69267c0.80313,0.00835,1.60636-0.00218,2.40953,0.00507
		c0.04291,0.00039,0.08479-0.00529,0.12602-0.01662c0.1828-0.00746,0.35295,0.06422,0.53227,0.08327
		c0.44607,0.04741,0.88841,0.04558,1.32637-0.0629c0.06177-0.0153,0.12377-0.03035,0.18852-0.02065
		c0.1046,0.03037,0.21138,0.01296,0.31711,0.01317c0.51,0.00103,1.02066,0.01653,1.52982-0.00406
		c0.50779-0.02053,0.86082,0.28289,0.81901,0.82771c-0.00161,0.02098-0.00097,0.04215-0.00303,0.06304
		c-0.00004,0.05528,0.00323,0.1107-0.00114,0.16596c-0.00013,0.05303,0.00167,0.10616-0.00107,0.15921
		c-0.00039,0.04359,0.00126,0.08733-0.00666,0.13059c-0.00551,0.02647-0.01992,0.04809-0.03794,0.0677
		c-3.51935,0.00043-7.0387,0.0008-10.55805,0.00178c-0.05929,0.00002-0.11664-0.00307-0.17-0.03131
		c-0.13752-0.00318-0.22045-0.09833-0.29894-0.18831c-0.15791-0.18104-0.24026-0.3954-0.25285-0.63579
		c-0.01335-0.25496-0.05331-0.29295-0.31679-0.30888c-0.43573-0.02634-0.92082-0.44469-0.98815-0.85105
		C0.97733,9.94215,0.9662,9.88567,0.98965,9.82924z"/>
	<path fill="#44281F" d="M30.6563,7.83049c-0.05936,0.30831-0.20574,0.58501-0.32849,0.8692
		c-0.30644,0.70943-0.69582,1.37322-1.1745,1.98151c-0.35759,0.4544-0.76209,0.86279-1.27929,1.14457
		c-0.33941,0.18491-0.70671,0.2073-1.08173,0.1881c0.12914-0.26291,0.18357-0.57257,0.46319-0.74173
		c0.10024-0.06064,0.2118-0.09814,0.32498-0.12827c0.3215-0.0856,0.58707-0.25981,0.82738-0.48565
		c0.65993-0.62018,1.11529-1.37597,1.49981-2.18226c0.15951-0.33446,0.2866-0.6812,0.42487-1.02382
		c0.02522-0.06248,0.04004-0.13305,0.10839-0.16908C30.63357,7.41869,30.68217,7.61017,30.6563,7.83049z"/>
	<path fill="#472920" d="M30.43259,7.29139c-0.29494,0.8361-0.65356,1.64273-1.14498,2.38523
		c-0.30384,0.45909-0.66332,0.87114-1.09546,1.21843c-0.2334,0.18758-0.51809,0.25835-0.79211,0.35264
		c-0.16476,0.05669-0.29345,0.15265-0.35896,0.31103c-0.06682,0.16154-0.15349,0.31013-0.2488,0.45516
		c-4.40688-0.00025-8.81376-0.00049-13.22066-0.00074c0.00071-0.02065,0.00143-0.04128,0.00215-0.06191
		c0.08218-0.06845,0.18159-0.04982,0.27544-0.04991c1.29704-0.00123,2.59409-0.00081,3.89114-0.0008
		c2.76419,0,5.52839,0.00119,8.29258-0.00233c0.22055-0.00028,0.4425-0.02745,0.64074-0.14072
		c0.12225-0.21509,0.25648-0.42152,0.44246-0.59048c0.11435-0.10389,0.25994-0.14762,0.40043-0.18476
		c0.32964-0.08714,0.58494-0.27569,0.82565-0.50674c0.70479-0.67651,1.15579-1.5114,1.54814-2.38612
		c0.12077-0.26924,0.21716-0.54722,0.31933-0.82324c0.01879-0.05076,0.03432-0.10108,0.09707-0.11357
		C30.38269,7.16845,30.44031,7.2008,30.43259,7.29139z"/>
	<path fill="#202020" d="M1.59786,2.47391C1.29395,2.55955,1.15761,2.80385,1.03523,3.06074
		C1.01744,3.09807,1.00576,3.13828,0.99126,3.17715c-0.00896,0.00943-0.0185,0.00957-0.02852,0.00173
		C0.96188,2.92169,0.96156,2.6645,0.95974,2.40732c-0.00038-0.05336,0.00229-0.10488,0.0328-0.15107
		c0.00138-0.02282,0.01044-0.04242,0.02505-0.05977c0.0971-0.08853,0.20846-0.15639,0.32376-0.21862
		C1.37533,1.96441,1.41022,1.9536,1.44501,1.94235c0.04255-0.0117,0.08581-0.02061,0.12818-0.03308
		C1.62325,1.8968,1.67581,1.89511,1.72365,1.87358c0.07215-0.02765,0.0772-0.09421,0.09177-0.15517
		c0.03933-0.16458,0.08826-0.32578,0.16936-0.47573c0.05109-0.0718,0.09705-0.14791,0.16769-0.20384
		c0.03713-0.03074,0.07729-0.0576,0.11681-0.08532c0.04152-0.04845,0.09826-0.03088,0.14912-0.03105
		c0.34482-0.00117,0.68965-0.0003,1.03448-0.0001c0.01072,0.01277,0.01545,0.02745,0.01427,0.04406
		C3.45018,1.0279,3.39995,1.05234,3.34667,1.07351C3.17602,1.08869,3.01448,1.1317,2.87099,1.22899
		c-0.07495,0.05432-0.15365,0.104-0.21443,0.17553C2.42749,1.57825,2.34872,1.81693,2.34128,2.0929
		c-0.00583,0.21616-0.10981,0.32124-0.3223,0.32584C1.87545,2.42186,1.74054,2.47427,1.59786,2.47391z"/>
	<path fill="#202020" d="M30.43259,7.29139c-0.03056-0.05405-0.07371-0.09574-0.12699-0.12749
		c-0.04983-0.00652-0.07951-0.04756-0.12075-0.06894c-0.04656-0.02945-0.08529-0.06983-0.13568-0.09397
		c-0.05401-0.02894-0.11141-0.04854-0.1707-0.06385c-0.13721-0.04282-0.27566-0.07276-0.42037-0.08063
		c-0.14877-0.00809-0.23929-0.10533-0.24249-0.24048c-0.00329-0.13885,0.11009-0.27416,0.24761-0.28055
		c0.06636-0.00309,0.13518-0.01561,0.20179,0.00518c0.53569-0.10831,0.88184-0.36209,0.96139-0.91869
		c0.00996-0.06965,0.01516-0.14959,0.09279-0.19041c0.09779,0.2345,0.20179,0.46739,0.19232,0.72974
		c0.03712,0.13784-0.05504,0.22842-0.1291,0.31858c-0.1106,0.13465-0.24542,0.24527-0.41871,0.33103
		c0.10142,0.08349,0.20712,0.13611,0.2901,0.2151c0.0894,0.08511,0.20003,0.16099,0.19391,0.30709
		c0.00453,0.25095-0.09631,0.47341-0.19142,0.69741C30.61893,7.63558,30.58377,7.43977,30.43259,7.29139z"/>
	<path fill="#202020" d="M0.98965,9.82924c-0.00422,0.23884,0.13547,0.41481,0.26761,0.59194
		c0.19856,0.26617,0.45964,0.40513,0.80219,0.39124c0.17811-0.00722,0.27188,0.08558,0.27188,0.25673
		c0.00001,0.40117,0.16006,0.70971,0.51223,0.91441c-0.24392,0.05262-0.48774,0.04876-0.7315-0.00106
		c-0.11867-0.04311-0.15219-0.15297-0.19689-0.25217c-0.03026-0.06716-0.0524-0.13977-0.05795-0.21235
		c-0.01174-0.15362-0.09561-0.21674-0.24297-0.23729c-0.18022-0.02514-0.34527-0.0982-0.49552-0.20144
		c-0.0522-0.03587-0.10626-0.07028-0.13168-0.1326c-0.00953-0.01609-0.00762-0.03069,0.00565-0.04383
		c-0.05035-0.0769-0.03515-0.16371-0.03112-0.24606C0.97506,10.38103,0.92426,10.10311,0.98965,9.82924z"/>
	<path fill="#664532" d="M0.99601,10.93231c0.19727,0.17986,0.42991,0.28726,0.69439,0.32091
		c0.12511,0.01592,0.18348,0.07733,0.19625,0.20004c0.02062,0.19806,0.09635,0.37545,0.22539,0.52926
		c-0.03608,0.0448-0.08713,0.03135-0.1332,0.03137C1.64956,12.014,1.32027,12.0127,0.99099,12.01185
		C0.97007,11.6519,0.96122,11.292,0.99601,10.93231z"/>
	<path fill="#535F69" d="M3.45238,0.9516c-0.00091-0.00976-0.00076-0.0195,0.00047-0.02922
		C11.35449,0.9222,19.2561,0.92203,27.15771,0.92196c0.03724,0,0.07447,0.00144,0.11171,0.00221
		c0.01182,0.00587,0.01588,0.01198,0.01224,0.01837c-0.0037,0.00649-0.00745,0.00976-0.0113,0.00976
		c-4.86389,0.00038-9.72779,0.00084-14.59168,0.00113c-2.70867,0.00016-5.41734,0-8.12601,0.00017
		c-0.06914,0-0.13829,0.00218-0.20743,0.00334c-0.04276,0.03654-0.09427,0.04328-0.14797,0.0434
		C3.99718,1.00079,3.79708,1.00155,3.597,0.99985C3.54407,0.9994,3.49094,0.9961,3.45238,0.9516z"/>
	<path fill="#44281E" d="M30.84771,7.13309c-0.09254-0.19803-0.2548-0.33032-0.43807-0.43541
		c-0.11341-0.06504-0.08328-0.10236,0.0027-0.15568c0.22762-0.14114,0.42473-0.30931,0.49916-0.58071
		c0.10967,0.05641,0.07111,0.1719,0.08372,0.25399c0.04586,0.2984-0.02491,0.59003-0.10115,0.87799
		C30.88978,7.10945,30.86366,7.11994,30.84771,7.13309z"/>
	<path fill="#535F69" d="M0.96273,3.17888C0.97215,3.17672,0.98166,3.17611,0.99127,3.1771
		c0.00027,2.11355,0.00069,4.22706,0.00002,6.34056C0.99127,9.56793,1.01052,9.62426,0.96297,9.66659
		C0.9629,7.504,0.96282,5.34144,0.96273,3.17888z"/>
	<path fill="#4D2D20" d="M1.56695,1.93633C1.53299,1.98129,1.48329,1.96349,1.43916,1.96789
		c-0.15131-0.33969,0.0276-0.8751,0.34418-1.0295c0.14011,0.00723,0.28113-0.01661,0.42028,0.01411
		C2.2255,0.95285,2.24739,0.95318,2.26927,0.95352C2.24723,0.99427,2.23619,1.04564,2.17558,1.04915
		c-0.06011,0.0388-0.12834,0.04122-0.197,0.04709C1.72024,1.11833,1.62652,1.21656,1.61417,1.47617
		C1.6097,1.57017,1.61367,1.66436,1.61216,1.75845C1.61116,1.82113,1.61357,1.88495,1.56695,1.93633z"/>
	<path fill="#535F69" d="M2.20361,0.95251c-0.1485,0.00136-0.297,0.00273-0.4455,0.00409
		C1.6486,1.02435,1.52698,0.9972,1.40933,1.00081C1.00945,1.00918,1.0453,0.94786,1.03998,1.36442
		C1.0367,1.62214,1.05839,1.88041,1.02573,2.13775c-0.0122,0.02698-0.02369,0.05498-0.06214,0.04916
		C0.96246,1.80763,0.96136,1.42834,0.96017,1.04905c-0.0002-0.06451-0.00729-0.12857,0.09202-0.12786
		C1.41839,0.9238,1.78463,0.92237,2.15085,0.92437C2.16849,0.92446,2.18603,0.94271,2.20361,0.95251z"/>
	<path fill="#535F69" d="M0.99601,10.93231c-0.00167,0.35986-0.00334,0.71972-0.00501,1.07956
		c-0.03877-0.02428-0.03045-0.06357-0.03051-0.09901c-0.00053-0.30367-0.00044-0.60734-0.0001-0.911
		c0.00004-0.03604-0.00487-0.07452,0.03232-0.09901C0.99343,10.9127,0.99453,10.92252,0.99601,10.93231z"/>
	<path fill="#444447" d="M27.27036,0.95229c0.00044-0.00941,0.00014-0.0188-0.00093-0.02815
		c0.14376,0.02684,0.29751,0.02113,0.41726,0.12624C27.54792,1.0177,27.40914,0.985,27.27036,0.95229z"/>
	<path fill="#414D57" d="M0.96359,2.18692C0.97401,2.17621,0.98444,2.1655,0.99486,2.15479
		C1.04319,2.15941,1.0471,2.18406,1.0249,2.22047c-0.01079,0.0119-0.02158,0.0238-0.03237,0.03574
		C0.96404,2.24089,0.9602,2.21539,0.96359,2.18692z"/>
	<path fill="#623529" d="M29.665,6.34065c-0.06642,0.01634-0.13179,0.03161-0.20187,0.03442
		C29.343,6.3799,29.23734,6.50696,29.25362,6.62512c0.017,0.12339,0.07966,0.20199,0.22215,0.19235
		c0.15656-0.0106,0.30317,0.03433,0.44549,0.09469c0.02563,0.0528,0.00768,0.10398-0.00861,0.15379
		c-0.33912,1.03749-0.80448,2.01136-1.4983,2.86469c-0.29789,0.36637-0.64709,0.6638-1.13224,0.77813
		c-0.33145,0.07811-0.57401,0.30032-0.72953,0.59777c-0.09293,0.17775-0.21614,0.25042-0.41645,0.25028
		c-4.11679-0.00288-8.23359-0.00211-12.35038-0.0027c-0.07381-0.00001-0.1504,0.00736-0.21264-0.04677
		c0.00361-0.23787,0.01824-0.47715-0.17483-0.66585c-0.12787-0.12498-0.27708-0.19014-0.45634-0.19004
		c-0.60667,0.00034-1.21335,0.00067-1.82002-0.00076c-0.05624-0.00013-0.11813,0.01991-0.16726-0.02775
		c0.02161-0.06861,0.08657-0.07038,0.14013-0.08763c0.41181-0.1326,0.79381-0.32276,1.14121-0.58001
		c0.07263-0.05378,0.14451-0.10846,0.24195-0.1084c0.07447-0.00859,0.14888-0.00734,0.22323-0.00735
		c1.8327-0.00011,3.66541-0.00001,5.49811-0.00023c0.07975-0.00001,0.15932,0.0018,0.23833,0.00942
		c0.0848,0.00578,0.14621,0.05938,0.20978,0.10627c0.59233,0.43701,1.26093,0.68448,1.99159,0.74353
		c0.8001,0.06466,1.55487-0.10885,2.25321-0.50824c0.46287-0.26471,0.84654-0.61763,1.17182-1.03603
		c0.06477-0.08332,0.11613-0.17744,0.19774-0.24736c0.14456-0.07238,0.18616-0.2145,0.23879-0.34927
		c0.20161-0.42489,0.38592-0.85581,0.44267-1.32749c0.11641-0.96753-0.08421-1.86166-0.63791-2.67198
		c-0.14028-0.20528-0.30353-0.39204-0.47308-0.57375C23.79417,3.94364,23.74078,3.9074,23.759,3.83766
		c0.16196-0.01482,0.31886,0.0678,0.4823,0.02466c0.1578,0.03465,0.21132,0.18218,0.29746,0.2869
		c0.16367,0.19896,0.30881,0.41387,0.41572,0.64996c0.04378,0.09667,0.0836,0.1484,0.16084,0.02767
		c0.01409-0.02203,0.0354-0.03886,0.05804-0.05294c0.14608-0.13422,0.21874-0.31217,0.29246-0.48868
		c0.01781-0.04263,0.02071-0.09139,0.04924-0.13055c0.4216,0.08213,0.83453,0.19753,1.23616,0.34687
		c0.56143,0.20876,1.02737,0.56395,1.4523,0.97525c0.29684,0.28732,0.58671,0.58245,0.99734,0.71249
		C29.35599,6.23842,29.51031,6.29012,29.665,6.34065z"/>
	<path fill="#623529" d="M1.59786,2.47391c0.11608-0.06953,0.24441-0.09127,0.37721-0.0938
		c0.24894-0.00475,0.32456-0.07597,0.32634-0.31707c0.00214-0.28986,0.09514-0.53341,0.34913-0.69849
		c0.07065-0.04246,0.14843-0.05072,0.22912-0.05065c0.4286,0.00035,0.8572-0.00048,1.2858,0.00072
		c0.07383,0.00021,0.1495-0.00297,0.21059,0.05098c0.14041,0.41462,0.44411,0.6337,0.87913,0.63371
		c1.8645,0.00006,3.72901,0.0019,5.5935-0.00248c0.21853-0.00051,0.38847,0.07822,0.53819,0.22498
		c0.16819,0.16486,0.27954,0.38416,0.49236,0.50612c-0.01345,0.08173,0.03103,0.12069,0.1012,0.15192
		c0.33202,0.14779,0.6184,0.36502,0.89777,0.59193c0.05201,0.04224,0.11582,0.08081,0.09826,0.16536
		c-0.04843,0.06328-0.11966,0.04782-0.18457,0.05118c-0.07129,0.0037-0.14481-0.00879-0.20933,0.03483
		c-0.13476,0.01783-0.17926-0.12299-0.28392-0.15851c-1.26854-0.84494-2.59672-0.92287-3.97897-0.30561
		C8.26159,3.28496,8.20574,3.31578,8.14869,3.34356C7.98652,3.42719,7.81845,3.50271,7.70414,3.65433
		C7.62298,3.7622,7.5036,3.82641,7.40303,3.91183C6.6139,4.58212,6.14708,5.43046,6.05681,6.45278
		C5.95267,7.63217,6.30064,8.6714,7.15,9.53018c0.46467,0.46983,1.00552,0.80847,1.63591,1.00899
		c0.04949,0.01575,0.10688,0.02152,0.12487,0.08406c-0.05479,0.04965-0.12198,0.02718-0.1833,0.02731
		c-0.77134,0.00161-1.54268,0.0011-2.31402,0.00104c-0.53852-0.00004-0.88184-0.2658-1.01907-0.78864
		C5.30574,9.5252,5.07886,9.35227,4.72369,9.3522C4.14918,9.35208,3.57466,9.35221,3.00014,9.35216
		c-0.6342-0.00006-1.0501-0.41617-1.05011-1.05066C1.95001,6.58021,1.94456,4.85888,1.95516,3.13766
		C1.95703,2.83493,1.86607,2.61631,1.59786,2.47391z"/>
	<path fill="#FEFEFE" d="M24.29912,8.90331c-0.34365,0.50178-0.75537,0.93458-1.27856,1.25728
		c-0.74611,0.46021-1.56116,0.65154-2.43005,0.57491c-0.7652-0.06749-1.45704-0.34596-2.06364-0.82106
		c-0.01203-0.00942-0.02734-0.01472-0.04112-0.02195c-0.26428-0.13108-0.44611-0.35645-0.62624-0.5734
		c-0.49998-0.60219-0.80019-1.29837-0.86973-2.07568c-0.09849-1.1008,0.18834-2.0909,0.92067-2.94244
		c0.18457-0.21462,0.38708-0.40584,0.61142-0.57648c0.144-0.10671,0.29756-0.19975,0.4443-0.30286
		c0.36392-0.20002,0.74871-0.3454,1.1549-0.43477c0.06272-0.0138,0.1259-0.00841,0.18905-0.00588
		c0.22664-0.00924,0.45183-0.03642,0.67969-0.03467c0.86359,0.00663,1.63503,0.27638,2.3266,0.78331
		c0.03783,0.02773,0.07785,0.05252,0.11686,0.07868c0.19525,0.06855,0.31946,0.22582,0.45127,0.36853
		c0.57891,0.62673,0.9213,1.36674,1.02462,2.20874c0.09292,0.75724-0.0395,1.48025-0.3927,2.16058
		C24.45332,8.67069,24.41511,8.81032,24.29912,8.90331z"/>
	<path fill="#FEFEFE" d="M16.96251,2.85743c0.28171-0.2451,0.60546-0.40321,0.98074-0.43134
		c0.43602-0.03268,0.82207,0.09833,1.14939,0.39036c-0.01481,0.06622-0.07256,0.0867-0.12413,0.11159
		c-0.37879,0.18286-0.71376,0.42864-1.02862,0.70337c-0.17313,0.16118-0.33884,0.32925-0.48543,0.51514
		c-0.18498,0.23986-0.3585,0.4867-0.48061,0.76558c-0.09626,0.13181-0.12332,0.13681-0.21581,0.00754
		c-0.27125-0.37914-0.38286-0.79609-0.28424-1.25865c0.04969-0.23232,0.14771-0.44273,0.28863-0.63474
		C16.81609,2.95315,16.87592,2.89052,16.96251,2.85743z"/>
	<path fill="#FEFEFE" d="M25.19294,4.78285c-0.05464,0.06885-0.10929,0.1377-0.17189,0.21658
		c-0.21247-0.42016-0.45127-0.80942-0.77975-1.13711c-0.19681-0.22958-0.42948-0.41954-0.67182-0.59879
		c-0.23763-0.17576-0.49895-0.31279-0.77045-0.45269c0.52913-0.41551,1.0961-0.51955,1.7006-0.2358
		c0.59358,0.27863,0.89711,0.76289,0.91473,1.41607c0.00308,0.11411-0.02026,0.22891-0.0314,0.3434
		C25.36968,4.50485,25.32045,4.66019,25.19294,4.78285z"/>
	<path fill="#FEFEFE" d="M12.96828,3.61174c-0.33729-0.33793-0.74138-0.57939-1.16541-0.788
		c0.00305-0.0552,0.06296-0.05637,0.07637-0.09582c0.22105-0.13526,0.44756-0.24778,0.71209-0.28657
		c0.48315-0.07085,0.89471,0.07366,1.26584,0.36839c0.02033,0.01614,0.04124,0.03156,0.06188,0.04732
		c0.30103,0.18156,0.40581,0.48276,0.48587,0.79586c0.07518,0.29398,0.04071,0.58284-0.06309,0.86531
		c-0.03175,0.09827-0.09134,0.18307-0.13606,0.27516c-0.05571,0.08134-0.09599,0.21211-0.19372,0.21177
		c-0.10823-0.00037-0.11974-0.1433-0.16609-0.22737c-0.19148-0.34728-0.42402-0.66364-0.7019-0.94769
		C13.07866,3.76322,12.9958,3.70908,12.96828,3.61174z"/>
	<path fill="#623529" d="M16.96251,2.85743c-0.22073,0.22395-0.36405,0.49171-0.45362,0.78987
		c-0.07178,0.06205-0.15987,0.04886-0.2436,0.04911c-0.48355,0.00144-0.96711,0.00036-1.45067,0.00091
		c-0.08479,0.0001-0.17081-0.00486-0.248,0.04058c-0.07486,0.03286-0.09822-0.01871-0.10229-0.07283
		c-0.01935-0.25728-0.11778-0.48328-0.26361-0.69271c-0.02359-0.03388-0.04175-0.07326-0.02086-0.11713
		C15.10741,2.85597,16.03496,2.8567,16.96251,2.85743z"/>
	<path fill="#623529" d="M17.91307,3.611c0.34263-0.3388,0.75021-0.58262,1.17958-0.79455
		c0.04218,0.0579,0.10475,0.03707,0.15969,0.0378c0.26114,0.00346,0.52291-0.01178,0.78251,0.03194
		c0.03117,0.00525,0.06298,0.00327,0.08403,0.0322c-0.02463,0.06677-0.08946,0.06837-0.14346,0.08424
		c-0.29618,0.08702-0.57748,0.21005-0.85251,0.34753c-0.0544,0.02719-0.12148,0.04312-0.14777,0.10984
		c-0.14024,0.09421-0.28048,0.18842-0.42072,0.28263c-0.17034-0.02886-0.34015-0.0582-0.51466-0.05403
		C17.99039,3.68979,17.91597,3.69905,17.91307,3.611z"/>
	<path fill="#4C2B20" d="M24.49302,8.5595c0.10153-0.28178,0.23443-0.55172,0.29534-0.84868
		c0.31008-1.51172-0.1228-2.77844-1.26521-3.81449c-0.03105-0.02816-0.05997-0.05863-0.08988-0.08803
		c0.11003-0.0061,0.21964-0.0077,0.32573,0.02936c0.26353,0.29335,0.52937,0.58368,0.73029,0.92703
		c0.24493,0.41856,0.40382,0.86567,0.4818,1.34142c0.09626,0.58732,0.06085,1.16769-0.12553,1.73424
		c-0.08507,0.25858-0.1949,0.50868-0.32045,0.75122C24.49656,8.59847,24.48029,8.59328,24.49302,8.5595z"/>
	<path fill="#5D3428" d="M4.37605,1.36559C3.80089,1.36524,3.22573,1.3649,2.65056,1.36455
		C2.6945,1.28672,2.77684,1.25569,2.845,1.20736c0.09417-0.0373,0.19205-0.05213,0.29327-0.05189
		c0.32688,0.00076,0.65376-0.00058,0.98063,0.00086C4.1973,1.15667,4.2787,1.14916,4.34444,1.20716
		C4.35497,1.25997,4.36551,1.31278,4.37605,1.36559z"/>
	<path fill="#4E2C22" d="M14.17986,2.85524c0.11718,0.20303,0.25934,0.39202,0.30676,0.6314
		c0.01686,0.0851-0.02451,0.18067,0.04399,0.25589c0.08973,0.13387,0.02455,0.26965,0.00561,0.40479
		c-0.01937,0.06651-0.04556,0.13099-0.06581,0.19731c-0.00439,0.01372-0.01011,0.02706-0.01637,0.04004
		c-0.02419,0.04261-0.04052,0.08871-0.05758,0.13464c-0.00623,0.01329-0.01485,0.02476-0.02526,0.03508
		c-0.02645,0.0063-0.06808,0.05577-0.06529-0.02224c0.05338-0.23817,0.11916-0.47313,0.08579-0.72344
		c-0.04959-0.37198-0.21676-0.68256-0.47263-0.95165C14.00599,2.85645,14.09293,2.85584,14.17986,2.85524z"/>
	<path fill="#563124" d="M4.34444,1.20716C3.84462,1.20723,3.3448,1.20729,2.84499,1.20736
		c0.14947-0.11674,0.31824-0.17272,0.50904-0.15939c0.33025-0.0683,0.66046-0.08239,0.9906,0.00072
		C4.34457,1.10151,4.3445,1.15434,4.34444,1.20716z"/>
	<path fill="#522F24" d="M18.97514,3.46001c-0.04369-0.05469,0.015-0.05743,0.03993-0.07283
		c0.31636-0.19543,0.654-0.34258,1.0144-0.43778c0.03042-0.00803,0.05963-0.02056,0.0894-0.031
		c0.06991,0.00231,0.13543,0.01783,0.19123,0.06259c-0.17896,0.04617-0.35959,0.08685-0.5365,0.13976
		C19.49511,3.20403,19.23508,3.33243,18.97514,3.46001z"/>
	<path fill="#4E2D20" d="M4.34464,1.04869C4.01444,1.04845,3.68425,1.04822,3.35405,1.04797
		c0.03277-0.03212,0.06554-0.06424,0.09833-0.09637C3.75,0.95336,4.04762,0.95512,4.34524,0.95691
		C4.34504,0.98752,4.34484,1.0181,4.34464,1.04869z"/>
	<path fill="#543228" d="M25.19294,4.78285c0.06334-0.14945,0.12668-0.29889,0.19003-0.44834
		c0.01392,0.00606-0.00544,0.07256,0.03468,0.02439c0.0486-0.05836,0.00553-0.16321,0.0974-0.20422
		c-0.03317,0.22836-0.14103,0.42537-0.26329,0.61617C25.23761,4.79294,25.22038,4.81706,25.19294,4.78285z"/>
	<path fill="#FEFEFE" d="M8.91078,10.62323c-0.45023-0.14404-0.87607-0.3339-1.26516-0.60765
		C5.45066,8.47132,5.4434,5.23674,7.6344,3.68054C7.65981,3.6625,7.6822,3.64025,7.706,3.61997
		c0.12107-0.12662,0.28228-0.1932,0.4286-0.28237c1.41276-0.68499,2.77086-0.57098,4.07931,0.27376
		c0.69241,0.48646,1.19181,1.12125,1.47511,1.91631c0.33032,0.92703,0.30086,1.85015-0.052,2.76587
		c-0.1272,0.24059-0.22694,0.49589-0.38548,0.72011c-0.19843,0.29081-0.43652,0.54696-0.69604,0.78456
		c-0.04325,0.0396-0.08808,0.0738-0.14619,0.08763c-0.44156,0.32993-0.92305,0.58221-1.45465,0.7371
		C10.27339,10.79107,9.59209,10.78706,8.91078,10.62323z"/>
	<path fill="#5D3428" d="M13.57311,11.50735c4.18601-0.00001,8.37202-0.00113,12.55803,0.00354
		c0.19024,0.00021,0.29541-0.05599,0.38252-0.23008c0.16257-0.32491,0.43255-0.55193,0.79361-0.63041
		c0.45623-0.09916,0.7688-0.39567,1.05333-0.72387c0.382-0.44064,0.67491-0.94387,0.9343-1.46249
		c0.23571-0.47128,0.43834-0.95839,0.59246-1.46354c0.00918-0.03009,0.02251-0.05893,0.03391-0.08835
		c0.061,0.00311,0.10741,0.04101,0.15931,0.06583c0.03245,0.04546,0.01491,0.09136-0.0005,0.1361
		c-0.35474,1.02996-0.80987,2.00756-1.49302,2.87031c-0.33457,0.42253-0.7307,0.74491-1.26447,0.88839
		c-0.28674,0.07708-0.48971,0.27672-0.62763,0.53036c-0.12036,0.22134-0.29297,0.3119-0.54287,0.31174
		c-4.11676-0.00267-8.23353-0.00183-12.35029-0.00244c-0.07874-0.00001-0.16117,0.01108-0.22862-0.04657
		C13.57314,11.61304,13.57312,11.5602,13.57311,11.50735z"/>
	<path fill="#583125" d="M13.57315,11.66589c4.19889-0.00004,8.39779-0.00095,12.59668,0.00228
		c0.22844,0.00018,0.3759-0.081,0.48253-0.28577c0.14645-0.28123,0.37555-0.48476,0.69081-0.56901
		c0.37403-0.09995,0.69613-0.28661,0.95613-0.56756c0.38529-0.41633,0.7042-0.88145,0.97246-1.37982
		c0.32588-0.60539,0.59203-1.23643,0.8088-1.88805c0.04253,0.03138,0.08508,0.06272,0.12762,0.09407
		c0.04412,0.05741,0.00884,0.11328-0.00941,0.1649c-0.35509,1.00435-0.80369,1.96153-1.46955,2.80467
		c-0.20621,0.26111-0.43419,0.50422-0.71457,0.6928c-0.16025,0.10778-0.33436,0.183-0.52002,0.2319
		c-0.30999,0.08164-0.53896,0.26257-0.68971,0.54236c-0.07603,0.14111-0.15576,0.27818-0.32632,0.32684
		c-0.1471,0.02516-0.29421,0.04118-0.44364,0.04115c-4.04612-0.00078-8.09224-0.00041-12.13836-0.00173
		c-0.10911-0.00004-0.22515,0.02628-0.32325-0.05048C13.57328,11.77159,13.57322,11.71874,13.57315,11.66589z"/>
	<path fill="#4D2D21" d="M13.57335,11.82444c3.97695-0.00008,7.95389,0.00054,11.93083-0.00147
		c0.3442-0.00017,0.68978,0.02673,1.03248-0.03046c0.06379-0.02142,0.11719-0.07379,0.19166-0.06335
		c-0.00576,0.15491-0.16371,0.15423-0.23359,0.1552c-0.13868,0.00192-0.25547,0.0707-0.39378,0.07054
		c-4.17573-0.00471-8.35147-0.00376-12.52719-0.00369C13.57363,11.90896,13.57349,11.8667,13.57335,11.82444z"/>
	<path fill="#202020" d="M3.34612,9.60594C3.58488,9.60978,3.77586,9.80751,3.7698,10.0446
		c-0.00603,0.23636-0.20752,0.42459-0.44584,0.41653c-0.23234-0.00786-0.41747-0.19959-0.41581-0.43065
		C2.90985,9.79381,3.10761,9.60211,3.34612,9.60594z"/>
	<path fill="#4E2D21" d="M26.72833,11.72916c-0.05676,0.04236-0.11611,0.07699-0.19166,0.06335
		c0.11399-0.09684,0.18716-0.22104,0.25992-0.35009c0.13414-0.23789,0.33237-0.42182,0.60182-0.4843
		c0.59249-0.13738,0.98549-0.53447,1.33374-0.98464c0.67575-0.87353,1.13761-1.85732,1.47605-2.90146
		c0.045,0.01756,0.07485,0.05092,0.09739,0.0919c-0.11162,0.21629-0.17107,0.45318-0.26866,0.67474
		c-0.17353,0.39397-0.33972,0.79015-0.56357,1.16214c-0.15162,0.25195-0.28806,0.51288-0.46014,0.75272
		c-0.09426,0.13137-0.2077,0.25169-0.29701,0.38154c-0.12617,0.18343-0.29657,0.32164-0.44799,0.47032
		c-0.19747,0.1939-0.44287,0.34797-0.73092,0.41853c-0.16384,0.04014-0.32572,0.08856-0.45684,0.23189
		C26.94495,11.40394,26.83642,11.56468,26.72833,11.72916z"/>
	<path fill="#44281F" d="M1.0249,2.22047C1.01487,2.19859,1.00484,2.17671,0.99483,2.15481
		C0.99395,1.80107,0.99705,1.44727,0.98978,1.09368c-0.0023-0.11217,0.03437-0.15186,0.1453-0.14167
		c0.08973,0.00824,0.18066,0.00358,0.27105,0.00464c0.01628,0.1782-0.06526,0.34523-0.05228,0.52621
		c0.01226,0.17091,0.02069,0.34521-0.00997,0.51692C1.23756,2.07334,1.13123,2.1469,1.0249,2.22047z"/>
	<path fill="#482920" d="M1.34389,1.99978c-0.06857-0.14456-0.02113-0.29747-0.03126-0.4462
		C1.29865,1.34852,1.30673,1.14502,1.40614,0.95663c0.11732-0.00001,0.23465-0.00004,0.35198-0.00005
		C1.73377,1.06019,1.60543,1.05238,1.56178,1.14668c-0.08233,0.17783-0.12539,0.35989-0.12284,0.5543
		c0.00117,0.08895,0.00021,0.17794,0.00022,0.26691C1.41618,2.00437,1.37875,1.9983,1.34389,1.99978z"/>
	<path fill="#563124" d="M1.56695,1.93633c-0.00003-0.14649-0.00044-0.29297,0-0.43946
		C1.5679,1.18014,1.69911,1.0497,2.01741,1.0486c0.05271-0.00018,0.10541,0.00034,0.15814,0.00054
		C2.1223,1.11303,2.06902,1.17691,2.01575,1.2408C1.80108,1.29533,1.77689,1.3314,1.76889,1.5549
		C1.76469,1.67227,1.80339,1.7963,1.7269,1.9056C1.68125,1.95513,1.62086,1.92913,1.56695,1.93633z"/>
	<path fill="#5C3428" d="M1.7269,1.9056C1.72679,1.74733,1.72249,1.58892,1.72771,1.43082
		c0.00545-0.16487,0.1363-0.24809,0.28801-0.19004C1.94948,1.42661,1.86884,1.60776,1.83878,1.80509
		C1.82976,1.86428,1.80501,1.91699,1.7269,1.9056z"/>
	<path fill="#653D32" d="M12.40931,9.88585c0.30057-0.26796,0.57475-0.5597,0.81047-0.88609
		c0.19557-0.21166,0.31604-0.46574,0.41855-0.73002c0.00195-0.03153,0.01764-0.05723,0.03485-0.08235
		c0.03978-0.05074,0.05527-0.11006,0.06204-0.17271c0.15058-0.41365,0.22227-0.84428,0.22972-1.2798
		c0.00535-0.31308-0.04432-0.62706-0.11402-0.93486c-0.01517-0.16909-0.06521-0.32823-0.14117-0.47974
		c-0.225-0.53035-0.54419-0.99684-0.95523-1.40323c-0.06271-0.062-0.1798-0.08475-0.17168-0.2062
		c-0.02875-0.07103,0.02138-0.05918,0.06399-0.06449c0.10699-0.01333,0.22124,0.03843,0.32146-0.03463
		c0.22899,0.18297,0.41312,0.40702,0.5874,0.63912c0.17316,0.23061,0.3167,0.4798,0.44743,0.75097
		c0.06372-0.08061,0.11853-0.14995,0.17334-0.21929c0.0874-0.06518,0.11467-0.17684,0.19446-0.2479l0.00001,0.00002
		c0.02923-0.04964,0.03769-0.10755,0.064-0.15836V4.37629c0.03827-0.05779,0.03996-0.12767,0.06377-0.19024
		c0.00099-0.14852,0.05131-0.29355,0.0319-0.44352c-0.00562-0.12358,0.08707-0.09425,0.15494-0.0944
		c0.60778-0.00131,1.21556-0.0008,1.82334-0.00083c-0.05133,0.34525-0.02956,0.68067,0.13137,0.9988
		c0.06213,0.12282,0.13574,0.23715,0.22652,0.33969c0.05563-0.01573,0.04106-0.08343,0.08578-0.10414
		c0.11194-0.07502,0.14269-0.20321,0.20109-0.3116c0.08394-0.15578,0.21095-0.28424,0.28033-0.44833
		c0.13548-0.19262,0.29725-0.36094,0.47908-0.51073c0.10509,0.07643,0.22441,0.02376,0.33661,0.03475
		c0.10992,0.01077,0.22036,0.01073,0.30475,0.09689c-0.59461,0.47415-1.04614,1.05307-1.31011,1.76822
		c-0.54964,1.48913-0.12233,3.16451,1.0782,4.23254c0.05506,0.04898,0.10886,0.09936,0.16324,0.14909
		c-1.94579-0.00051-3.89159-0.00097-5.83738-0.00175C12.56868,9.89071,12.48899,9.88755,12.40931,9.88585z"/>
	<path fill="#202020" d="M28.06924,6.66787c0.00347,0.23642-0.19036,0.43266-0.42858,0.43391
		c-0.23924,0.00126-0.43415-0.19192-0.43321-0.42936c0.00091-0.23075,0.18836-0.42056,0.42066-0.42597
		C27.86708,6.24089,28.06576,6.43069,28.06924,6.66787z"/>
	<path fill="#583329" d="M24.49302,8.5595c0.0107,0.01069,0.02139,0.02138,0.03208,0.03206
		c-0.06486,0.1958-0.1282,0.28317-0.22598,0.31174C24.36375,8.7887,24.42839,8.6741,24.49302,8.5595z"/>
	<path fill="#FEFEFE" d="M8.0387,2.76498C8.10219,2.85873,8.00218,2.85372,7.96529,2.8721
		C7.30897,3.19908,6.75898,3.65157,6.32008,4.23616C6.14311,4.47187,5.99354,4.72432,5.86892,4.99462
		C5.22696,4.32405,5.37356,3.22084,6.16697,2.69228C6.21039,2.66336,6.25263,2.6327,6.29542,2.60285
		c0.22533-0.18398,0.49863-0.22613,0.77355-0.22893C7.3777,2.37078,7.66165,2.47828,7.92301,2.64033
		C7.97218,2.67082,8.02135,2.70409,8.0387,2.76498z"/>
	<path fill="#4D2D22" d="M13.70033,8.21107c-0.02569,0.01372-0.03104,0.03746-0.03174,0.06349
		c-0.02302,0.01631-0.00846,0.06487-0.0512,0.06242c-0.02717-0.00156-0.0266-0.02186-0.01813-0.0422
		c0.08363-0.29035,0.19416-0.57328,0.2319-0.87608c0.18662-1.49724-0.32394-2.71328-1.4956-3.66384
		c-0.04469-0.03626-0.08995-0.07183-0.13494-0.10772c0.02156-0.02733,0.05394-0.03788,0.08413-0.03289
		c0.06676,0.01104,0.02997-0.04103,0.04285-0.06224c0.11514,0.00536,0.14015,0.1534,0.25523,0.15884
		c0.15111,0.15839,0.31852,0.29879,0.46299,0.46638c0.29123,0.33781,0.51987,0.70789,0.68667,1.1182
		c0.07096,0.1526,0.09559,0.32053,0.15962,0.47542c0.07218,0.29562,0.11685,0.59893,0.11912,0.89939
		c0.00266,0.35373-0.03434,0.7104-0.14327,1.05324c-0.03484,0.10965-0.06906,0.21949-0.10357,0.32924
		C13.73534,8.10244,13.72721,8.16049,13.70033,8.21107z"/>
	<path fill="#202020" d="M3.9296,3.05941c0.001,0.23737-0.19398,0.4306-0.43323,0.42934
		C3.25815,3.4875,3.06439,3.29132,3.0678,3.05483c0.00333-0.231,0.19252-0.41851,0.42523-0.42145
		C3.73189,2.63036,3.9286,2.82232,3.9296,3.05941z"/>
	<path fill="#4D2B20" d="M12.32759,3.55202c0.09831,0.21666-0.10605,0.03528-0.12698,0.09512
		c-0.47519-0.30432-0.97966-0.53336-1.54182-0.63512C9.9287,2.87986,9.22097,2.95128,8.52414,3.19224
		C8.38178,3.24146,8.25684,3.32382,8.1169,3.37546C8.10216,3.36171,8.10067,3.34667,8.11243,3.33033
		c0.4046-0.25442,0.85439-0.39341,1.32031-0.46723c0.52073-0.0825,1.04676-0.07149,1.56003,0.05909
		c0.45857,0.11666,0.89434,0.29465,1.28182,0.57305C12.29524,3.51008,12.31006,3.53291,12.32759,3.55202z"/>
	<path fill="#4E2C21" d="M8.0387,2.76498C7.79895,2.60767,7.55128,2.48021,7.25748,2.43832
		C6.91386,2.38934,6.60166,2.46525,6.29542,2.60285c-0.03728-0.0445,0.00909-0.05186,0.03182-0.06558
		C6.90809,2.18674,7.5658,2.2116,8.11579,2.60314c0.03156,0.02246,0.06728,0.04432,0.05275,0.08652
		C8.14852,2.7478,8.08989,2.75289,8.0387,2.76498z"/>
	<path fill="#563328" d="M8.11243,3.33033C8.11392,3.34537,8.11541,3.36042,8.1169,3.37546
		C7.97993,3.45696,7.84297,3.53846,7.706,3.61997C7.70062,3.60775,7.6889,3.58589,7.69077,3.58468
		C7.82847,3.4953,7.94909,3.37765,8.11243,3.33033z"/>
	<path fill="#623529" d="M19.47215,6.14863c0.32813-0.34996,0.74303-0.54194,1.21094-0.5981
		c1.05644-0.12681,2.00906,0.5132,2.29083,1.51762c0.2358,0.84054-0.10207,1.77006-0.82076,2.25632
		c-0.01639,0.01109-0.03704,0.01597-0.0557,0.02375c-0.05786-0.00428-0.09836,0.03343-0.14439,0.05827
		c-0.33802,0.18237-0.70343,0.22663-1.08063,0.20895c-0.04721-0.00221-0.09726-0.00562-0.12161-0.05802
		c0.01781-0.04925,0.0638-0.05498,0.10345-0.05294c0.15957,0.00822,0.22399-0.08421,0.25234-0.22139
		c0.00839-0.04061,0.02187-0.08034,0.04485-0.11591c0.03457-0.0444,0.08464-0.05979,0.13669-0.07174
		c0.37004-0.08498,0.66508-0.28281,0.89203-0.5835c0.03794-0.05026,0.07609-0.10055,0.12165-0.14463
		c0.36546-0.4282,0.40026-1.10099,0.08475-1.64369c-0.36996-0.63635-1.17433-0.91549-1.86174-0.64424
		c-0.0729,0.02876-0.15104,0.05369-0.19794,0.12499c-0.07026,0.07019-0.15174,0.11635-0.25457,0.11591
		c-0.05886-0.04004,0.02437-0.08188-0.00053-0.12471c-0.14182-0.00469-0.28298,0.00118-0.42398-0.00279
		C19.58676,6.19106,19.52039,6.20344,19.47215,6.14863z"/>
	<path fill="#653D32" d="M21.17252,9.16531c-0.00185,0.02076-0.00087,0.04224-0.006,0.06216
		c-0.08092,0.3146-0.0811,0.31456-0.40924,0.31494c-0.05674,0.0515-0.12026,0.02855-0.1812,0.0137
		c-0.88985-0.21684-1.5022-0.93378-1.62313-1.8089c-0.05109-0.36977,0.01582-0.71147,0.14886-1.04944
		c0.01369-0.03477,0.02962-0.06772,0.02072-0.10621c0.09551-0.164,0.19966-0.32128,0.34962-0.44294c0.23818,0,0.47637,0,0.71335,0
		c0.00351,0.0906-0.13768,0.06522-0.09558,0.16216c0.00024,0.07622-0.06566,0.10411-0.11131,0.144
		c-0.47922,0.41873-0.66422,0.94196-0.49853,1.55175c0.16334,0.60117,0.5767,0.96886,1.19604,1.09857
		c0.10527,0.02205,0.2119,0.01144,0.31791,0.0159C21.05606,9.12361,21.12359,9.10897,21.17252,9.16531z"/>
	<path fill="#4D2D22" d="M19.12252,6.59157c0.04952,0.03016,0.03285,0.06785,0.01655,0.10976
		c-0.30602,0.78641-0.18096,1.50225,0.35797,2.15062c0.32861,0.39534,0.75533,0.61286,1.26024,0.69047
		c0.24605,0.07239,0.48946,0.02394,0.73319-0.01533c0.17945-0.02891,0.34869-0.08635,0.50864-0.17221
		c0.02985-0.01602,0.06274-0.04853,0.09836-0.00666c-1.15639,0.81208-2.90393,0.18037-3.20826-1.33359
		C18.78838,7.51304,18.87152,7.03794,19.12252,6.59157z"/>
	<path fill="#64382C" d="M22.38541,5.01355c0.40018-0.02502,0.40053-0.02503,0.40131,0.37031
		c0.00009,0.04616,0.01313,0.09415-0.01273,0.13819c-0.0446-0.02638-0.08551-0.05849-0.14372-0.05315
		c-0.2764,0.02537-0.31148-0.10344-0.28481-0.37197C22.34863,5.0651,22.36296,5.03703,22.38541,5.01355z"/>
	<path fill="#613429" d="M19.25619,5.01344c0.39586-0.02664,0.39592-0.02663,0.38641,0.36265
		c-0.00038,0.01548-0.00382,0.03089-0.00584,0.04634c-0.0999,0.0741-0.2112,0.05256-0.32077,0.03517
		c-0.05146-0.00817-0.08743-0.04323-0.09488-0.09427C19.20374,5.24441,19.17784,5.12338,19.25619,5.01344z"/>
	<path fill="#4D2B21" d="M19.25619,5.01344c0.00003,0.0105,0.00007,0.02099,0.00009,0.03149
		c0.00049,0.37657,0.00049,0.37657,0.38048,0.3775c0.02109,0.08782,0.00506,0.12827-0.10466,0.12927
		c-0.42246,0.00385-0.4186,0.0083-0.42031-0.41294C19.11133,5.02506,19.14433,4.9832,19.25619,5.01344z"/>
	<path fill="#4D2C21" d="M22.38541,5.01355c0.00013,0.02097-0.00076,0.042,0.00056,0.06289
		c0.00623,0.09883-0.03266,0.20948,0.01773,0.29401c0.06148,0.10312,0.18353,0.04205,0.27836,0.04938
		c0.07404,0.00572,0.08412,0.04815,0.09194,0.10223c0,0-0.00025-0.0008-0.00025-0.0008
		c-0.17099,0.01547-0.34192,0.02438-0.51256-0.00407c-0.00196-0.12953,0.00235-0.25956-0.00781-0.38845
		C22.24491,5.02135,22.28339,4.98654,22.38541,5.01355z"/>
	<path fill="#64382C" d="M22.26119,5.51719c0.17085,0.00135,0.34169,0.0027,0.51255,0.00406
		C22.60254,5.56494,22.4316,5.57359,22.26119,5.51719z"/>
	<path fill="#5D3B31" d="M17.43399,4.12173c0.03678,0.02419,0.02737,0.04966,0.00396,0.07784
		C17.292,4.37522,17.19068,4.5775,17.08969,4.77972c-0.02914,0.05836-0.05383,0.11759-0.13712,0.10194
		C17.06618,4.5991,17.2379,4.35281,17.43399,4.12173z"/>
	<path fill="#5A382E" d="M14.37092,4.53465c-0.06159,0.08513-0.04915,0.22747-0.19446,0.2479
		c0.04315-0.08347,0.08629-0.16693,0.12944-0.2504C14.32618,4.5687,14.34904,4.53909,14.37092,4.53465z"/>
	<path fill="#5A382E" d="M14.4987,4.18605c0.00283,0.07137-0.00151,0.14037-0.06377,0.19024
		C14.43774,4.30679,14.45195,4.24105,14.4987,4.18605z"/>
	<path fill="#5A382E" d="M14.43493,4.3763c0.00202,0.06208-0.01294,0.11741-0.064,0.15836
		C14.36922,4.4727,14.38432,4.41743,14.43493,4.3763z"/>
	<path fill="#623529" d="M11.17751,9.28702c-0.0566,0.05279-0.11611,0.10118-0.19193,0.12485
		c-0.05146-0.00996-0.09162,0.01976-0.13513,0.03784c-0.71194,0.29586-1.38522,0.20004-2.01271-0.22045
		C8.25629,8.83961,7.97467,8.26783,7.91678,7.58797C7.89018,7.27549,7.9588,6.96916,8.09431,6.68208
		c0.03598-0.07622,0.07854-0.14935,0.11038-0.22759c0.37137-0.56034,0.90269-0.85587,1.56838-0.9084
		c0.57936-0.04571,1.09768,0.11411,1.53393,0.50682c0.06127,0.17064,0.04239,0.21147-0.15222,0.32979
		c-0.08021,0.00847-0.12224-0.05379-0.17457-0.09521c-0.46325-0.36667-1.14929-0.41623-1.65974-0.1193
		c-0.03244,0.01887-0.0636,0.03806-0.08053,0.07336C9.07269,6.39386,8.86921,6.501,8.72922,6.68923
		C8.04697,7.6066,8.50673,8.85587,9.62859,9.09457c0.36145,0.07691,0.71923,0.0356,1.04887-0.15603
		c0.06479-0.03767,0.12684-0.10426,0.21772-0.06886c0.05817,0.07823,0.03144,0.16943,0.03775,0.25525
		c0.00715,0.0971,0.01421,0.18481,0.15304,0.12521C11.1186,9.23613,11.1705,9.21816,11.17751,9.28702z"/>
	<path fill="#653D32" d="M11.17751,9.28702c-0.04188-0.04998-0.08178-0.0086-0.11086,0.0111
		c-0.1375,0.09312-0.16337-0.00199-0.17295-0.10288c-0.01041-0.1096-0.00556-0.22063-0.00736-0.33104
		c0.02766-0.12765,0.1502-0.18015,0.2208-0.27393c0.05939-0.07889,0.11698-0.15952,0.18697-0.23016
		c0.3584-0.44466,0.39246-1.14668,0.08429-1.63227c-0.07583-0.11949-0.18636-0.21659-0.23218-0.35513
		c0.08377-0.09165,0.2027-0.16587,0.16078-0.31978c0.84041,0.65513,0.96882,2.00232,0.27168,2.85898
		C11.46237,9.05482,11.33951,9.19178,11.17751,9.28702z"/>
	<path fill="#4D2B20" d="M8.20469,6.45449C8.15668,6.6747,8.04052,6.8716,7.99956,7.09662
		C7.88318,7.73604,8.03403,8.30323,8.44058,8.80481c0.43389,0.5353,1.01058,0.77395,1.69331,0.76681
		c0.24343-0.00255,0.48165-0.05466,0.7087-0.14816c0.04525-0.01863,0.09059-0.06735,0.14297-0.01159
		c-0.86421,0.53567-2.15222,0.34404-2.80029-0.6463C7.70927,8.03814,7.712,7.28042,8.14474,6.52616
		C8.15998,6.49959,8.18449,6.47826,8.20469,6.45449z"/>
	<path fill="#674035" d="M11.36916,5.01362c0.39853-0.02489,0.39902-0.02489,0.40143,0.35969
		c0.00032,0.0516,0.01555,0.10524-0.0132,0.15469c-0.04972-0.03001-0.10182-0.05788-0.16116-0.05519
		c-0.26904,0.01219-0.28684-0.12549-0.26945-0.36071C11.32952,5.07495,11.34248,5.04112,11.36916,5.01362z"/>
	<path fill="#613529" d="M8.24006,5.01344C8.63593,4.9868,8.63599,4.9868,8.62647,5.37609
		C8.6261,5.39157,8.62265,5.40698,8.62063,5.42243c-0.0999,0.0741-0.2112,0.05256-0.32077,0.03517
		C8.24841,5.44943,8.21244,5.41436,8.20498,5.36332C8.18761,5.24441,8.16171,5.12338,8.24006,5.01344z"/>
	<path fill="#4E2D23" d="M11.36916,5.01362c0.00018,0.03164,0.00047,0.06329,0.00051,0.09493
		c0.00038,0.28598,0.00007,0.28999,0.28444,0.31107c0.08087,0.006,0.09719,0.04571,0.10328,0.10836
		c-0.1501,0.04595-0.30393,0.00793-0.45555,0.0199c-0.06453,0.00509-0.06298-0.03897-0.06282-0.083
		c0.00043-0.11605,0.00782-0.23275-0.00209-0.34796C11.22715,5.00327,11.28328,4.99514,11.36916,5.01362z"/>
	<path fill="#4D2B21" d="M8.24006,5.01344c0.00003,0.0105,0.00008,0.02099,0.00009,0.03149
		c0.00042,0.37657,0.00042,0.37657,0.38048,0.3775C8.64172,5.51024,8.62569,5.5507,8.51597,5.5517
		c-0.42247,0.00385-0.4186,0.0083-0.42031-0.41293C8.09521,5.02507,8.1282,4.9832,8.24006,5.01344z"/>
	<path fill="#5A372D" d="M13.59927,8.29478c0.04114,0.05417,0.04247-0.02615,0.06933-0.02022
		c-0.07304,0.2801-0.24279,0.50722-0.41072,0.73506c-0.00285,0.00387-0.02497-0.00626-0.0381-0.00986
		C13.34627,8.76476,13.47277,8.52977,13.59927,8.29478z"/>
	<path fill="#5A362B" d="M13.89211,5.77085c-0.08417-0.14823-0.12587-0.31051-0.15962-0.47542
		C13.83366,5.43804,13.8614,5.60493,13.89211,5.77085z"/>
	<path fill="#5A372D" d="M13.70033,8.21107c-0.0015-0.06189,0.01335-0.11726,0.06406-0.15834
		C13.76629,8.11477,13.75156,8.17019,13.70033,8.21107z"/>
	<path fill="#FEFEFE" d="M21.17252,9.16531c-0.48611,0.03826-0.92469-0.07074-1.28848-0.41045
		c-0.70737-0.66056-0.66282-1.7531,0.09573-2.35452c0.03708-0.0294,0.07345-0.05968,0.11015-0.08955
		c0.075-0.04186,0.15-0.08371,0.225-0.12557c0.2067-0.15425,0.45266-0.1818,0.69273-0.16568
		c0.59604,0.04003,1.07469,0.30381,1.35553,0.83863c0.26971,0.51361,0.29692,1.03778-0.04852,1.54121
		C22.04178,8.81311,21.66699,9.07712,21.17252,9.16531z"/>
	<path fill="#4D2B20" d="M22.31466,8.39938c0.224-0.45015,0.27723-0.90809,0.07607-1.38277
		c-0.30389-0.71709-1.07913-1.09831-1.83717-0.89825c-0.07987,0.02108-0.15911,0.04451-0.23864,0.06686
		c-0.04085-0.05602,0.01717-0.05754,0.04295-0.07241c0.50393-0.29067,1.25002-0.21105,1.69512,0.16451
		c0.41609,0.35108,0.61944,0.79095,0.58483,1.32868C22.61886,7.90049,22.54406,8.18388,22.31466,8.39938z"/>
	<path fill="#FEFEFE" d="M11.29822,8.39946c-0.12002,0.16999-0.25672,0.32543-0.41189,0.46474
		c-0.43197,0.28589-0.89706,0.39618-1.40266,0.23837C8.85185,8.90536,8.47077,8.4659,8.38305,7.82573
		C8.29305,7.16886,8.56359,6.64631,9.12954,6.28322c0.03491-0.02239,0.07006-0.04441,0.1051-0.0666
		c0.22368-0.18222,0.49659-0.21356,0.76311-0.19599c0.59481,0.03921,1.07174,0.30622,1.35086,0.84042
		C11.61666,7.37404,11.6437,7.89736,11.29822,8.39946z"/>
	<path fill="#4E2D22" d="M11.29822,8.39946c0.23244-0.46075,0.27602-0.9298,0.06728-1.41183
		c-0.28957-0.66868-1.06889-1.05905-1.78122-0.88796C9.46476,6.12838,9.34181,6.15013,9.23464,6.21663
		C9.19741,6.15049,9.26472,6.15378,9.29222,6.13778c0.58646-0.34129,1.33866-0.25324,1.81415,0.20965
		c0.01101,0.01072,0.02646,0.01695,0.03984,0.02527c0.54501,0.4646,0.64534,1.43849,0.20448,1.9937
		C11.3386,8.38163,11.31595,8.38862,11.29822,8.39946z"/>
	<path fill="#653D32" d="M20.33938,6.52027c0.17944-0.14391,0.39099-0.15949,0.60879-0.15012
		c0.13823,0.08999,0.22657,0.2065,0.20585,0.38099c-0.07524,0.074-0.22834,0.00222-0.26917,0.1414
		c-0.04088,0.03566-0.096,0.03597-0.13605,0.05235c0.09736,0.10147,0.2107,0.13377,0.3452,0.06369
		c0.04598-0.02396,0.09339-0.01809,0.11203,0.04423C21.22634,7.22976,21.24,7.4062,21.1938,7.58141
		c-0.01944,0.07373,0.0073,0.14489,0.01537,0.21694c0.01573,0.14036,0.02864,0.28035-0.0138,0.41849
		c-0.06845,0.06715-0.17353,0.03886-0.24745,0.09258c-0.06526,0.04868-0.10489,0.12938-0.19171,0.15111
		c-0.11002,0.01131-0.19864,0.08751-0.31139,0.09592c-0.13972,0.01042-0.19549-0.02575-0.20675-0.16542
		c-0.00668-0.08285-0.01226-0.16535-0.03037-0.2466c0.20414-0.04731,0.35866-0.15834,0.45259-0.34719
		c0.04205-0.03595,0.05285-0.08858,0.07414-0.13577c0.05086-0.11271,0.03309-0.19501-0.08564-0.25981
		c-0.21676-0.11829-0.33338-0.31054-0.38807-0.54769C20.23116,6.72568,20.25053,6.61701,20.33938,6.52027z"/>
	<path fill="#623529" d="M21.14067,8.2429c0.02841-0.02164,0.03172-0.05244,0.03153-0.08461
		c-0.00227-0.38803-0.00451-0.77605-0.00677-1.16408c-0.0152-0.03215,0.00043-0.05595,0.02118-0.07846
		c0.10792-0.08876,0.00293-0.11791-0.04626-0.1626c-0.01069-0.15405-0.10897-0.2648-0.19219-0.38299
		c0.2103-0.01326,0.4128,0.01234,0.59371,0.12882c0.16384,0.10547,0.22226,0.25745,0.1908,0.44804
		c-0.04534,0.27464-0.20059,0.46823-0.44311,0.5922c-0.08071,0.04126-0.08769,0.0829-0.06855,0.16112
		c0.05532,0.22599,0.18663,0.37284,0.41907,0.42059c0.07928,0.01629,0.11954,0.05128,0.10541,0.13721
		c-0.02134,0.12982,0.03827,0.26606-0.03037,0.39258c-0.04557-0.07415-0.11242-0.11206-0.19479-0.14442
		C21.37529,8.44929,21.20361,8.42007,21.14067,8.2429z"/>
	<path fill="#4F2F24" d="M20.33938,6.52027c-0.11559,0.34998,0.01605,0.66923,0.35936,0.86879
		c0.05803,0.03373,0.12985,0.05159,0.12033,0.14325c-0.01015,0.09761-0.08578,0.22896-0.15876,0.26491
		c0.04974-0.14684,0.01396-0.23386-0.13945-0.3129c-0.22903-0.11799-0.3366-0.34028-0.36186-0.59232
		C20.14353,6.73773,20.19353,6.60316,20.33938,6.52027z"/>
	<path fill="#4E2D22" d="M21.14067,8.2429c0.12751,0.12397,0.27961,0.21065,0.45201,0.24573
		c0.1048,0.02132,0.13054,0.0716,0.12246,0.16207c-0.3154,0.01837-0.55365-0.13412-0.76722-0.34128
		C20.99465,8.23721,21.04326,8.17041,21.14067,8.2429z"/>
	<path fill="#523228" d="M20.20771,8.14442c0.11823,0.03132,0.06566,0.12748,0.06852,0.19546
		c0.00803,0.19093,0.01056,0.1854,0.19751,0.16637c0.09612-0.00978,0.1801-0.08741,0.28247-0.04572
		c-0.14776,0.11499-0.31338,0.18381-0.50216,0.19761c-0.07278,0.00532-0.10608-0.01418-0.10181-0.09417
		c0.00615-0.11521,0.0017-0.23099,0.00153-0.34653C20.15371,8.1797,20.15135,8.14084,20.20771,8.14442z"/>
	<path fill="#623529" d="M9.29383,8.11869c0.14734-0.0562,0.25702-0.15492,0.33363-0.291
		c0.06055-0.02812,0.06667-0.09195,0.0885-0.1424c0.0517-0.11949,0.0422-0.21653-0.09272-0.28934
		C9.41572,7.28398,9.30415,7.09733,9.24752,6.87158c-0.03347-0.13341-0.0188-0.24865,0.07547-0.35111
		c0.29867-0.21693,0.95052-0.21542,1.23624,0.00245c0.13487,0.10284,0.18468,0.23867,0.16126,0.40351
		c-0.03993,0.28104-0.19488,0.4833-0.44392,0.61143c-0.07846,0.04037-0.09273,0.07913-0.07281,0.15976
		c0.0558,0.22584,0.1853,0.37473,0.41879,0.42293c0.07818,0.01614,0.12138,0.04922,0.10689,0.13659
		c-0.02157,0.1301,0.03815,0.26667-0.03041,0.39353c-0.04362-0.07646-0.10744-0.11992-0.19473-0.1441
		c-0.11684-0.03237-0.23096-0.08186-0.31796-0.16812c-0.0819-0.0812-0.16217-0.08399-0.25441-0.02881
		c-0.06585,0.04778-0.10534,0.1286-0.19173,0.15063C9.62857,8.47273,9.53842,8.55043,9.42345,8.55809
		c-0.10404,0.00692-0.16824-0.02553-0.1707-0.13381C9.25041,8.32094,9.22218,8.21274,9.29383,8.11869z"/>
	<path fill="#4E2C21" d="M9.32299,6.52046c-0.11178,0.34108,0.01155,0.65681,0.33409,0.8553
		C9.84843,7.49352,9.8344,7.70772,9.62747,7.82769c0.00974-0.04058,0.0154-0.0827,0.03008-0.12145
		c0.03096-0.08175,0.01689-0.12821-0.07229-0.1708C9.32928,7.4132,9.18629,7.20059,9.14672,6.92351
		C9.12297,6.75722,9.16652,6.61267,9.32299,6.52046z"/>
	<path fill="#4E2C21" d="M9.93194,8.30964c0.07004-0.12285,0.15225-0.13068,0.24822-0.02731
		c0.10762,0.11591,0.25036,0.17487,0.39839,0.20633c0.10442,0.02219,0.12782,0.07318,0.12048,0.16201
		C10.38374,8.66905,10.1455,8.51669,9.93194,8.30964z"/>
	<path fill="#513025" d="M9.29383,8.11869c0.00005,0.04678-0.00008,0.09356,0.0002,0.14034
		c0.00195,0.32946-0.0387,0.28039,0.30141,0.2168c0.0469-0.00877,0.09135-0.06269,0.14477-0.01556
		C9.59293,8.57564,9.42725,8.64384,9.23894,8.65799C9.16787,8.66333,9.13072,8.64665,9.13621,8.56528
		C9.14256,8.4713,9.14569,8.37573,9.13569,8.28239C9.12237,8.15801,9.17657,8.11182,9.29383,8.11869z"/>
	<path fill="#F4F2F2" d="M21.1953,6.94103c-0.02536,0.0092-0.02775,0.03111-0.02986,0.05317
		c-0.08845,0.06461-0.17193,0.13766-0.29737,0.08384C20.7967,7.04742,20.715,7.00666,20.72305,6.9341
		c0.00669-0.06028,0.1046-0.04022,0.1619-0.05637C21.04169,6.81152,21.12167,6.82783,21.1953,6.94103z"/>
	<path fill="#4E2D23" d="M21.1953,6.94103c-0.08923-0.08975-0.20732-0.04017-0.31034-0.06331
		c-0.05075-0.0786,0.00425-0.107,0.0653-0.11751c0.06192-0.01066,0.12662-0.00537,0.1901-0.00707
		c0.05943,0.00429,0.13635-0.01688,0.15211,0.0676C21.30486,6.88714,21.25185,6.91982,21.1953,6.94103z"/>
	<path fill="#F4F2F1" d="M10.17894,6.91699c-0.09387,0.16262-0.19163,0.20879-0.32681,0.16022
		C9.77816,7.05063,9.69857,7.00538,9.70616,6.93366C9.71244,6.8742,9.81092,6.89306,9.86871,6.87772
		C9.98215,6.81277,10.086,6.82248,10.17894,6.91699z"/>
	<path fill="#4D2C21" d="M10.17894,6.91699C10.079,6.87692,9.97241,6.88858,9.86871,6.87772
		c-0.01911-0.03843-0.0456-0.08976,0.0114-0.10613c0.11758-0.03378,0.25442-0.05263,0.3555,0.00403
		C10.33368,6.8306,10.22818,6.87904,10.17894,6.91699z"/>
</g>
</svg>
