<?xml version="1.0" encoding="utf-8"?>
<!-- Generator: Adobe Illustrator 23.0.0, SVG Export Plug-In . SVG Version: 6.00 Build 0)  -->
<svg version="1.1" id="Слой_1" xmlns="http://www.w3.org/2000/svg" xmlns:xlink="http://www.w3.org/1999/xlink" x="0px" y="0px" width="32px" height="13px"
	 viewBox="0 0 32 13" enable-background="new 0 0 32 13" xml:space="preserve">
<g>
	<path fill="#422D1C" d="M0.89631,0.00265c1.35174,0,2.70347,0,4.05521,0C4.99657,0.0502,4.99535,0.11938,5.03214,0.17091
		C5.1313,0.35176,5.28656,0.43304,5.49121,0.42985C5.56564,0.4287,5.64014,0.43008,5.7146,0.43008
		c7.01589,0.00002,14.03178,0.00486,21.04764-0.00911c0.5652-0.00113,1.04713,0.16194,1.5264,0.41766
		c0.69109,0.36874,1.1857,0.93148,1.62785,1.55498c0.44481,0.62724,0.73381,1.33198,1.04322,2.02667
		c0.20463,0.45944,0.36996,0.93283,0.48523,1.42321c0.0541,0.23016,0.14543,0.443,0.3607,0.57632
		c0.03652,0.02981,0.08343,0.04638,0.1129,0.08545c0.07015,0.18503,0.01118,0.36807-0.02727,0.54447
		c-0.25743,1.18107-0.72694,2.27999-1.349,3.31433c-0.38263,0.63623-0.82888,1.22745-1.38867,1.72414
		c-0.46631,0.41375-0.98361,0.73676-1.61566,0.84107c-0.08477,0.01399-0.1689,0.01844-0.25393,0.01844
		c-3.28788,0.00017-6.57576,0.00025-9.86364-0.00042c-0.08934-0.00002-0.18204,0.01344-0.26391-0.04021
		c-0.04244-0.03417-0.06762-0.0812-0.09556-0.12596c-0.07915-0.12679-0.19899-0.18649-0.34333-0.2033
		c-0.08995-0.01048-0.1807-0.00547-0.2711-0.00547c-5.06972-0.00014-10.13944-0.00017-15.20917,0.0001
		c-0.17633,0.00001-0.3532,0.00518-0.50465-0.10748c-0.16698-0.12421-0.26603-0.28478-0.26897-0.49687
		c-0.00337-0.24288-0.00149-0.48577-0.00153-0.72865C0.4619,9.57618,0.45801,7.91291,0.4657,6.24969
		c0.0014-0.30382-0.09986-0.51061-0.39847-0.60482C0.04836,5.63495,0.03338,5.62095,0.02216,5.60297
		C0.01411,4.21035,0.02097,2.8177,0.01872,1.42507C0.01844,1.25626,0.01896,1.08745,0.01849,0.91899
		C0.02809,0.53702,0.21862,0.2685,0.54634,0.08255C0.65656,0.02001,0.78107,0.03483,0.89631,0.00265z"/>
	<path fill="#3B2618" d="M27.60139,0.03026c0.49593,0.08353,0.91437,0.32837,1.30252,0.62887
		c0.67563,0.52307,1.19273,1.18381,1.63838,1.902c0.62408,1.00572,1.1066,2.07193,1.37509,3.22784
		c0.02799,0.12049,0.01956,0.24884,0.07952,0.36218c0,0.11621,0,0.23242,0,0.34863
		c-0.03148,0.02567-0.06316,0.02575-0.09502,0.00071c-0.03523-0.00183-0.07336,0.00489-0.0967-0.03216
		c0.06214-0.06742,0.07174-0.1445,0.06184-0.2344c-0.05828-0.52911-0.21254-1.03236-0.39976-1.52834
		c-0.27892-0.73891-0.61779-1.44842-1.04454-2.11466c-0.44177-0.68969-0.94876-1.32344-1.60079-1.83422
		c-0.43628-0.34177-0.91787-0.56894-1.47437-0.62947c-0.09023-0.00981-0.18023-0.01307-0.27065-0.01307
		c-7.2606-0.00004-14.52121,0.00002-21.78181-0.00045c-0.10695-0.00001-0.21277,0.001-0.31204,0.04759
		C4.93039,0.11668,4.95941,0.05605,4.95152,0.00265c7.49309,0,14.98619,0,22.47928,0
		C27.48298,0.04037,27.54786,0.00079,27.60139,0.03026z"/>
	<path fill="#4D3827" d="M31.90189,6.50048c0.03167-0.00024,0.06335-0.00047,0.09502-0.00071c0,0.09508,0,0.19016,0,0.28524
		c-0.09397,0.25039-0.11443,0.51838-0.19068,0.77354c-0.45705,1.52926-1.14071,2.94013-2.21428,4.1425
		c-0.4965,0.55608-1.0709,1.01013-1.81114,1.21371c-0.10556,0.02903-0.21203,0.05484-0.31808,0.08213
		c-3.42724,0-6.85448,0-10.28172,0c-0.01709-0.01591-0.02434-0.0355-0.02231-0.05861
		c0.00367-0.01442,0.01095-0.02668,0.02231-0.03647c3.34158,0.00003,6.68316-0.00155,10.02474,0.00187
		c0.47899,0.00049,0.9061-0.14948,1.30617-0.39245c0.56948-0.34585,1.01851-0.81866,1.42122-1.34025
		c0.54495-0.70581,0.96597-1.47974,1.31814-2.29556c0.25774-0.59706,0.45736-1.21077,0.60138-1.84269
		C31.89216,6.85941,31.91416,6.68049,31.90189,6.50048z"/>
	<path fill="#674E39" d="M17.17997,12.93438c0.00035,0.02084,0.0007,0.04168,0.00105,0.06252c-5.46017,0-10.92033,0-16.3805,0
		c-0.44726-0.08429-0.71335-0.3484-0.79827-0.79233c0-0.04226,0-0.08452,0-0.12677c0.03195-0.05986,0.01558-0.12441,0.01561-0.18647
		c0.00101-2.03143,0.00066-4.06286,0.00169-6.09429c0.00003-0.06202-0.01661-0.12658,0.01553-0.1864
		c0.01043,0.00013,0.02085,0.00055,0.03126,0.00125C0.13043,5.64786,0.14262,5.70926,0.1467,5.77436
		C0.15099,5.84292,0.14957,5.9116,0.14957,5.98024c0.00007,1.94849,0.00028,3.89698-0.00042,5.84548
		c-0.00005,0.1431,0.00565,0.28503,0.04056,0.42454c0.07934,0.31706,0.2845,0.50912,0.59846,0.59242
		c0.15073,0.03999,0.30499,0.03998,0.45958,0.03997c5.203-0.0004,10.406-0.00051,15.60899,0.00078
		C16.96588,12.88345,17.0821,12.85668,17.17997,12.93438z"/>
	<path fill="#733F16" d="M0.03509,5.61063c-0.0003,2.09042-0.00033,4.18084-0.00219,6.27126
		c-0.00006,0.06539,0.02692,0.13814-0.03065,0.1959c0-3.73981,0-7.47962,0-11.21942c0.01147-0.0106,0.02261-0.01077,0.03337,0.00106
		C0.03544,2.44316,0.03526,4.0269,0.03509,5.61063z"/>
	<path fill="#6D4525" d="M0.00225,0.73159c0.11259-0.34351,0.32483-0.59671,0.67055-0.72895c0.07451,0,0.14901,0,0.22352,0
		C0.71146,0.0691,0.521,0.11201,0.36524,0.25317C0.17995,0.42112,0.09914,0.6327,0.0356,0.85941
		C0.02449,0.85907,0.01337,0.85872,0.00225,0.85837C0.00225,0.81611,0.00225,0.77385,0.00225,0.73159z"/>
	<path fill="#664024" d="M27.60139,0.03026c-0.05885,0.00287-0.12051,0.0229-0.17059-0.02761c0.05322,0,0.10644,0,0.15965,0
		C27.5954,0.01135,27.59904,0.02055,27.60139,0.03026z"/>
	<path fill="#A77621" d="M0.98633,6.40532c0-0.26453,0-0.52906,0-0.7936C0.96572,5.5631,0.94452,5.51513,0.94479,5.46031
		C0.94841,4.72674,0.9356,3.99312,0.9512,3.25985c0.08058-0.19867,0.16487-0.3965,0.31071-0.55919
		c0.09887-0.11029,0.20744-0.20945,0.36803-0.22113c0.14023,0.03256,0.22292,0.13565,0.3026,0.24298
		C2.00294,2.837,1.9992,2.96444,1.9992,3.09143C1.99918,4.82838,1.99757,6.56532,2.00026,8.30226
		c0.00065,0.42092,0.17136,0.74584,0.57455,0.92342C2.71869,9.28904,2.87171,9.3036,3.02731,9.30354
		c0.5585-0.00022,1.117-0.00189,1.67549,0.00056C5.09908,9.30584,5.32575,9.47715,5.4392,9.85346
		c0.15799,0.52406,0.46146,0.74875,1.02075,0.749c2.07974,0.00095,4.15948,0.00035,6.23922,0.00039
		c0.06383,0,0.12766-0.00055,0.19148,0.00034c0.45151,0.00633,0.72559,0.27693,0.73084,0.72181
		c0.00062,0.05275,0.00238,0.1056-0.00257,0.15814c-0.00105,0.05461,0.00173,0.10944-0.0024,0.16404
		c-0.00058,0.03467,0.00089,0.06947-0.00124,0.10416c0.00022,0.02578-0.00009,0.05159-0.00039,0.07744
		c0.00105,0.04445,0.00046,0.08881-0.00264,0.13331c-0.00229,0.02931-0.00981,0.05685-0.02587,0.08202
		c-0.01385,0.01566-0.03051,0.0269-0.05002,0.03441c-0.06736,0.02258-0.13702,0.01454-0.20573,0.01455
		c-3.39557,0.00043-6.79113,0.00043-10.1867,0.00011c-0.07942-0.00001-0.15978,0.00703-0.23667-0.02019
		c-0.37828-0.18716-0.56276-0.49726-0.58479-0.91071c-0.01045-0.19607-0.06585-0.26026-0.23425-0.27661
		C1.4718,10.8258,1.07539,10.46019,0.96704,9.85194c-0.01989-0.08815-0.0228-0.17727-0.02277-0.26689
		c0.0003-0.97809,0.00043-1.95617-0.00017-2.93426C0.94404,6.56612,0.94323,6.48225,0.98633,6.40532z"/>
	<path fill="#2E180B" d="M4.98307,0.16131C4.98287,0.10919,4.9924,0.06544,5.05978,0.06656
		C5.10764,0.06735,5.15553,0.06612,5.2034,0.06612c7.26663-0.00003,14.53326,0.0012,21.79988-0.00207
		c0.66851-0.0003,1.2576,0.20169,1.78338,0.60369c0.48231,0.36876,0.89779,0.80164,1.25633,1.28875
		c0.56143,0.76274,1.0132,1.58318,1.36165,2.46432c0.2002,0.50627,0.37175,1.01761,0.48196,1.54926
		c0.02543,0.12267,0.0303,0.24946,0.04645,0.37413c0.01285,0.09919-0.03292,0.13587-0.12787,0.12413
		c-0.2631-0.11908-0.35176-0.36266-0.40764-0.60961c-0.17349-0.76668-0.50155-1.47365-0.82314-2.18436
		c-0.25317-0.55952-0.5659-1.0807-0.93301-1.57583c-0.54705-0.73781-1.25764-1.23993-2.11513-1.55587
		c-0.13313-0.04905-0.26388-0.06575-0.40336-0.06572c-7.21049,0.0013-14.42097,0.00089-21.63146,0.00226
		C5.24964,0.47922,5.06936,0.39839,4.98307,0.16131z"/>
	<path fill="#5C422C" d="M17.17998,12.93438c-5.36284-0.0003-10.72569-0.00077-16.08853-0.00056
		c-0.35526,0.00001-0.65226-0.113-0.85458-0.41792c-0.11223-0.16915-0.13689-0.36309-0.13714-0.55711
		c-0.00264-2.04363-0.0016-4.08727-0.00179-6.1309C0.09793,5.75454,0.1083,5.67935,0.06634,5.61189
		C0.36181,5.66435,0.51297,5.83927,0.513,6.13134c0.00023,1.92792,0.00642,3.85589-0.00593,5.78373
		c-0.00212,0.33048,0.28392,0.61278,0.61907,0.61223c5.14594-0.00838,10.2919-0.00442,15.43785-0.00931
		c0.30222-0.00029,0.515,0.09138,0.61703,0.38382C17.18067,12.91267,17.18032,12.92352,17.17998,12.93438z"/>
	<path fill="#4B3625" d="M0.98633,6.40532c0.00183,0.95342,0.0033,1.90684,0.00578,2.86026
		c0.00055,0.20959-0.01388,0.42,0.02791,0.62785c0.02072,0.34703,0.01999,0.69464,0.02931,1.04197
		c-0.01783,0.30511-0.0023,0.61054-0.00814,0.91574c-0.00211,0.1104,0.05051,0.14807,0.15533,0.14645
		c0.31294-0.00485,0.62603,0.00698,0.93891-0.00763c0.24617,0.01976,0.49405-0.0065,0.73979,0.02607
		c0.05398,0.02536,0.11074,0.03097,0.17022,0.03096c3.49789-0.00091,6.99577-0.00104,10.49366-0.00132
		c0.01062,0,0.02123-0.00104,0.03185-0.00159c0.08471-0.06436,0.18404-0.04193,0.27769-0.04196
		c3.02581-0.00115,6.05161-0.00012,9.07742-0.00132c1.28152-0.00051,2.56305,0.0061,3.84418-0.00464
		c0.6672,0.08477,1.22098-0.15516,1.70649-0.58932c0.14314-0.12742,0.27497-0.26638,0.40977-0.40237
		c0.37534-0.41885,0.69319-0.87831,0.96538-1.36806c0.31793-0.57204,0.60801-1.15744,0.81014-1.78179
		c0.08496-0.2321,0.15284-0.46903,0.20625-0.71023c0.11417-0.3747,0.18639-0.75146,0.06058-1.13858
		c-0.04952-0.26491-0.12676-0.52214-0.21895-0.7755c-0.47191-1.31234-1.11235-2.52446-2.12161-3.51661
		c-0.21264-0.20904-0.45169-0.38441-0.71906-0.52126c-0.25595-0.131-0.52438-0.19186-0.81375-0.19178
		C19.55242,1.00275,12.04936,1.00228,4.54631,1.00235c-0.06912,0-0.13826,0.00122-0.20738-0.00284
		c-0.2856,0.0015-0.57115,0.0022-0.85671,0.00004C3.10153,1.00773,2.72084,1.00416,2.34016,1.00301
		C2.14792,0.9942,1.95552,1.00616,1.76329,0.99955c-0.14903-0.0009-0.29811,0.00881-0.44706,0.00003
		C1.04124,1.00663,1.03931,1.00664,1.04143,1.28389C1.044,1.62027,1.03084,1.95679,1.05047,2.29312
		C1.03633,2.5227,1.0461,2.75254,1.04024,2.98211C1.03826,3.05993,1.02785,3.1382,0.99438,3.21083
		c-0.00266,0.8003-0.00533,1.60061-0.00802,2.40091C0.91121,5.57097,0.8951,5.50587,0.89519,5.42515
		c0.00159-1.44731,0.00083-2.89463,0.0016-4.34195C0.89688,0.91718,0.95831,0.8605,1.13048,0.85857
		C1.21562,0.85761,1.30078,0.8584,1.38592,0.8584c8.51482,0,17.02965,0.00148,25.54447-0.00348
		c0.54185-0.00032,1.00552,0.16133,1.42767,0.4918c0.55722,0.4362,0.98808,0.97652,1.36755,1.56335
		c0.45585,0.70495,0.8198,1.45418,1.10025,2.24405c0.13544,0.38144,0.23801,0.77166,0.30252,1.17006
		c0.03482,0.21506-0.02304,0.43001-0.07161,0.6387c-0.15875,0.68207-0.39846,1.33899-0.69708,1.97101
		c-0.16735,0.35418-0.36024,0.69827-0.55683,1.03968c-0.15856,0.27536-0.33538,0.53742-0.53188,0.78076
		c-0.40809,0.50536-0.86235,0.97162-1.47144,1.24278c-0.21007,0.09352-0.43923,0.14535-0.67757,0.14531
		c-8.64255-0.00152-17.28509-0.00127-25.92764-0.00129c-0.26235,0-0.29796-0.03439-0.29796-0.28818
		c-0.00005-1.73784,0.00011-3.47567-0.00041-5.21351C0.89593,6.54889,0.88519,6.45642,0.98633,6.40532z"/>
	<path fill="#9E581F" d="M13.57354,11.50739c-0.00356-0.12104,0.0105-0.24574-0.01412-0.3624
		c-0.06452-0.30565-0.31399-0.4932-0.63269-0.49325c-2.16981-0.00029-4.33962-0.00013-6.50943-0.00017
		c-0.54078-0.00001-0.88885-0.26722-1.0222-0.78448c-0.08763-0.33991-0.31392-0.51479-0.667-0.51489
		C4.15373,9.35205,3.57937,9.3522,3.00501,9.35216C2.36798,9.3521,1.95006,8.93803,1.95004,8.3068
		C1.95,6.5807,1.94948,4.8546,1.951,3.12849C1.95113,2.98047,1.95231,2.8343,1.88598,2.69707
		c-0.08128-0.1988-0.05657-0.25495,0.13658-0.31136c0.22747-0.05573,0.25666-0.08793,0.26847-0.31967
		c0.01344-0.26352,0.09257-0.49445,0.3122-0.66195C2.64997,1.36845,2.69518,1.333,2.75613,1.32518
		C3.24772,1.30376,3.73928,1.31864,4.23074,1.3167c0.04769-0.00019,0.0951,0.00534,0.13866,0.02759
		c0.04741,0.0293,0.07271,0.07648,0.09641,0.12355c0.1743,0.34608,0.46264,0.48538,0.84439,0.48464
		c1.79871-0.0035,3.59748,0.00521,5.39612-0.00722c0.36497-0.00252,0.63577,0.1147,0.85318,0.39731
		c0.10225,0.13292,0.20837,0.26703,0.36348,0.35113c0.15435,0.08368,0.31725,0.11411,0.49115,0.11372
		c0.77696-0.00177,1.55392-0.001,2.33088-0.00051c0.08491,0.00005,0.17053-0.00591,0.25378,0.01813
		c0.07508,0.04685,0.15872,0.05019,0.24436,0.05144c0.06086,0.00088,0.15385-0.01042,0.15465,0.06886
		c0.00094,0.09254-0.09713,0.07548-0.16177,0.0784c-0.11102,0.00502-0.22238,0.00326-0.33354,0.00131
		c-0.34328-0.00603-0.67062,0.06969-0.98979,0.18706c-0.0153,0.00763-0.03133,0.01416-0.04732,0.02023
		c-0.47166,0.15993-0.84783,0.45753-1.16987,0.82357c-0.4703,0.53454-0.73476,1.15454-0.74152,1.87176
		c-0.00216,0.22912,0.02119,0.25665,0.24071,0.31463c0.06631,0.01752,0.10598,0.04744,0.089,0.12172
		c-0.05721,0.09921-0.16898,0.11739-0.25782,0.16924c-0.14918,0.08707-0.31767,0.13797-0.45898,0.23996
		c-0.07326,0.04205-0.12842,0.09719-0.1369,0.18615c-0.00272,0.01408-0.00654,0.02792-0.0105,0.04169
		C11.4041,7.07852,11.39756,7.1556,11.42785,7.2314c0.02168,0.03804,0.01781,0.08305,0.03486,0.1223
		c0.02719,0.06158,0.07442,0.10307,0.134,0.1325c0.01422,0.00646,0.02776,0.0137,0.04146,0.02105
		c0.16443,0.08292,0.33025,0.16262,0.49448,0.24545c0.04221,0.02129,0.08539,0.04135,0.12129,0.07276
		c0.03217,0.02814,0.06271,0.0597,0.05326,0.10658c-0.01038,0.0515-0.05639,0.05608-0.09793,0.06273
		c-0.03637,0.00582-0.07347,0.00541-0.11002,0.01042c-0.10047,0.03084-0.13563,0.10167-0.14511,0.20231
		c-0.05162,0.54784-0.04388,1.09507,0.00156,1.64277c0.01188,0.14317,0.10104,0.21677,0.22065,0.26263
		c0.66273,0.2541,1.31962,0.52272,1.98001,0.7826c0.19699,0.07752,0.39393,0.15516,0.58943,0.23648
		c0.17425,0.07248,0.35253,0.07127,0.52763,0.00078c0.84489-0.34013,1.68993-0.67988,2.54047-1.00593
		c0.15728-0.06029,0.23833-0.15675,0.25677-0.339c0.04326-0.4275,0.0123-0.85449,0.02559-1.28134
		c0.00365-0.1172-0.03325-0.22928-0.03754-0.34578c-0.00303-0.08229-0.06033-0.13124-0.13796-0.15538
		c-0.07133-0.01896-0.18147,0.02323-0.20385-0.07269c-0.02336-0.10009,0.08187-0.13311,0.15397-0.17062
		c0.16721-0.08699,0.33747-0.16816,0.50588-0.25236c0.01289-0.00755,0.0265-0.01421,0.03992-0.02073
		c0.06527-0.03149,0.12005-0.07208,0.13108-0.15039c0.00601-0.03548,0.01696-0.06911,0.03687-0.09947
		c0.04214-0.07533,0.02786-0.15458,0.01659-0.23338c-0.00452-0.01318-0.008-0.02673-0.01107-0.0403
		c-0.00842-0.08968-0.05812-0.14956-0.13814-0.18759c-0.1852-0.10373-0.38256-0.18291-0.56932-0.28301
		c-0.05957-0.03193-0.13056-0.05152-0.15325-0.12774c-0.01238-0.09275,0.04752-0.11405,0.12229-0.13108
		c0.16967-0.03865,0.21343-0.08898,0.21231-0.26178c-0.0047-0.72093-0.26536-1.34762-0.7203-1.90099
		c-0.03353-0.04078-0.07758-0.07528-0.08903-0.12914c-0.01548-0.07283,0.00122-0.12867,0.09192-0.12671
		c0.60285,0.01302,0.91639-0.36228,1.14973-0.84429c0.02527-0.0522,0.03954-0.11025,0.09672-0.14032
		c0.02467-0.01086,0.05074-0.01842,0.07728-0.01805c0.44633,0.00619,0.89351-0.03302,1.33887,0.02732
		c0.32112,0.0435,0.5701,0.19327,0.72906,0.47839c0.16846,0.30213,0.43081,0.441,0.77355,0.44126
		c0.50555,0.00037,1.01118,0.00601,1.51662-0.00117c0.90246-0.01282,1.7771,0.16102,2.64595,0.37578
		c0.26842,0.06635,0.53352,0.14569,0.79935,0.22188c0.64474,0.18477,1.18307,0.5481,1.66586,0.99675
		c0.18244,0.16954,0.36495,0.33923,0.55077,0.50492c0.20673,0.18433,0.46653,0.2671,0.72498,0.35329
		c0.12069,0.04025,0.27007,0.02292,0.35338,0.15119c-0.06015,0.07432-0.15049,0.0663-0.23159,0.08227
		c-0.13141,0.02586-0.20888,0.10034-0.19991,0.20292c0.01145,0.13088,0.10602,0.15006,0.21535,0.15834
		c0.12953,0.00981,0.26806,0.00297,0.36107,0.12312c0.02015,0.05877,0.00613,0.11541-0.0122,0.17086
		c-0.33264,1.00613-0.78679,1.95107-1.45141,2.7856c-0.30803,0.38677-0.66714,0.7037-1.17559,0.82417
		c-0.33164,0.07858-0.57171,0.30427-0.72605,0.60249c-0.09349,0.18064-0.2241,0.24294-0.42157,0.24281
		c-4.1082-0.00285-8.21639-0.00211-12.32459-0.00271C13.72349,11.55411,13.64095,11.56529,13.57354,11.50739z"/>
	<path fill="#98571E" d="M13.57354,11.50739c4.18719-0.00002,8.37438-0.001,12.56156,0.00314
		c0.18186,0.00018,0.28901-0.04951,0.37292-0.21938c0.17831-0.36099,0.48659-0.57557,0.87843-0.66921
		c0.24947-0.05962,0.45755-0.18666,0.64384-0.35824c0.47755-0.43986,0.81629-0.97784,1.12381-1.54018
		c0.2818-0.51529,0.50936-1.0527,0.6947-1.60847c0.0215-0.06448,0.0507-0.1284,0.04043-0.19965
		c0.10441-0.02343,0.18381-0.00088,0.21317,0.11413c-0.09896,0.40123-0.25253,0.7838-0.42701,1.1565
		c-0.27789,0.59357-0.5825,1.17345-0.99113,1.69248c-0.20018,0.25427-0.4229,0.48536-0.67516,0.6906
		c-0.17457,0.14203-0.37926,0.21002-0.58687,0.27436c-0.3304,0.10238-0.58343,0.29557-0.74223,0.60325
		c-0.10087,0.19545-0.25616,0.26882-0.47926,0.2686c-4.1275-0.00415-8.255-0.00297-12.38251-0.00362
		c-0.08366-0.00001-0.17191,0.01579-0.24461-0.04569C13.57359,11.61313,13.57356,11.56026,13.57354,11.50739z"/>
	<path fill="#804C19" d="M13.57482,11.95143c-0.00017-0.04225-0.00034-0.08449-0.00051-0.12674
		c0.08335-0.06887,0.18329-0.04315,0.27643-0.04317c4.06294-0.00126,8.12588-0.00108,12.18882-0.00109
		c0.06381,0,0.12773-0.00231,0.19143,0.00024c0.23125,0.00927,0.39056-0.08472,0.49465-0.29661
		c0.1525-0.31043,0.40553-0.50541,0.74519-0.59423c0.37654-0.09847,0.67137-0.32226,0.93215-0.60397
		c0.80772-0.87254,1.29278-1.9221,1.69784-3.0169c0.02367-0.06396,0.0356-0.13314,0.08218-0.18723
		c0.08646-0.04879,0.11277,0.01209,0.13818,0.07467c-0.14203,0.50419-0.35676,0.98016-0.58786,1.44851
		c-0.24809,0.50278-0.52381,0.99067-0.87594,1.4309c-0.26463,0.33083-0.55657,0.63589-0.91714,0.86609
		c-0.15719,0.10035-0.34129,0.14478-0.51835,0.19719c-0.24044,0.07117-0.40342,0.22397-0.52092,0.43451
		c-0.03869,0.06933-0.08165,0.13509-0.12774,0.20002c-0.1538,0.21666-0.3957,0.21745-0.62158,0.25766
		c-0.04132,0.00735-0.08491,0.00138-0.12745,0.00138c-4.06276,0.00001-8.12551,0.00017-12.18827-0.00107
		C13.74806,11.99156,13.65361,12.01664,13.57482,11.95143z"/>
	<path fill="#90521C" d="M13.57361,11.666c4.21817-0.00008,8.43635-0.00126,12.65452,0.00328
		c0.19574,0.00021,0.32297-0.06662,0.40819-0.23359c0.15031-0.29453,0.37489-0.5227,0.69757-0.60303
		c0.63979-0.15928,1.04258-0.60492,1.40304-1.10021c0.56661-0.77853,0.97965-1.63611,1.27971-2.54812
		c0.01973-0.05995,0.043-0.11876,0.06462-0.1781c0.04868-0.02576,0.07151-0.00214,0.08325,0.04284
		c-0.10733,0.43235-0.28579,0.83913-0.47174,1.24127c-0.29545,0.63896-0.63921,1.25133-1.09693,1.79307
		c-0.32191,0.381-0.68042,0.70659-1.18995,0.83235c-0.3024,0.07464-0.53001,0.26874-0.66412,0.55147
		c-0.11146,0.23496-0.29132,0.32696-0.54695,0.32682c-4.14556-0.00228-8.29111-0.00158-12.43667-0.00223
		c-0.0624-0.00001-0.12886,0.01478-0.18415-0.03085C13.57387,11.72931,13.57374,11.69766,13.57361,11.666z"/>
	<path fill="#794418" d="M13.57482,11.95143c4.17634-0.00014,8.35268,0.00038,12.52902-0.00157
		c0.36219-0.00017,0.64371-0.14115,0.79825-0.4887c0.08332-0.1874,0.2377-0.32188,0.43016-0.37373
		c0.33186-0.0894,0.65357-0.21223,0.89816-0.44172c0.15409-0.14458,0.3177-0.29229,0.44744-0.47174
		c0.10858-0.15019,0.24514-0.28456,0.35025-0.44078c0.35435-0.52668,0.65638-1.07965,0.90766-1.66386
		c0.12908-0.30008,0.21621-0.61648,0.36976-0.906c0.06444-0.0034,0.08089,0.03779,0.08543,0.09029
		c-0.09883,0.41381-0.27718,0.79858-0.4557,1.18129c-0.31384,0.67278-0.67839,1.31693-1.17094,1.88092
		c-0.34277,0.39248-0.72359,0.73015-1.25101,0.86146c-0.25827,0.0643-0.44281,0.22238-0.54688,0.46874
		c-0.11911,0.28197-0.32522,0.38919-0.63941,0.38864c-4.18785-0.00733-8.37572-0.00481-12.56359-0.00573
		c-0.06258-0.00001-0.12751,0.01605-0.18814-0.0144C13.57514,11.9935,13.57498,11.97246,13.57482,11.95143z"/>
	<path fill="#422D1C" d="M2.71476,1.36478C2.44615,1.54115,2.33031,1.79257,2.33279,2.10834
		C2.3345,2.32595,2.26688,2.39152,2.04462,2.41456C1.89888,2.41301,1.77708,2.52359,1.62714,2.50232
		c-0.28772,0.08753-0.42789,0.3156-0.54755,0.56417C1.05544,3.11665,1.05283,3.18027,0.99437,3.21077
		C0.99365,2.95311,0.99352,2.69539,0.99169,2.43768C0.9913,2.38408,0.99552,2.33279,1.02406,2.2859
		c0.03864-0.11905,0.16018-0.14661,0.24272-0.21731C1.32786,2.0255,1.39689,1.99956,1.46745,1.97685
		C1.50933,1.96462,1.55271,1.95816,1.59424,1.9444c0.01388-0.00443,0.02809-0.00744,0.04241-0.00989
		c0.04242-0.00638,0.08581-0.00872,0.12434-0.03062c0.06296-0.03413,0.07285-0.09597,0.088-0.15726
		c0.04362-0.17654,0.0909-0.35211,0.19281-0.507c0.03469-0.0467,0.06536-0.09665,0.1081-0.13715
		C2.17064,1.08274,2.19386,1.0659,2.21577,1.04753c0.03359-0.03716,0.07281-0.06748,0.11554-0.09349
		c0.38397-0.0001,0.76794-0.0002,1.15191-0.0003C3.50305,0.99885,3.4821,1.03312,3.4534,1.06543
		c-0.0793,0.06833-0.18278,0.04368-0.273,0.07004c-0.07913,0.01834-0.15311,0.04891-0.221,0.09359
		C2.88131,1.28041,2.80181,1.32934,2.71476,1.36478z"/>
	<path fill="#89541A" d="M13.574,11.76097c4.18658-0.00004,8.37317-0.00141,12.55975,0.00279
		c0.28776,0.00029,0.48313-0.09619,0.60384-0.36328c0.11156-0.24684,0.31579-0.42384,0.57497-0.48839
		c0.68224-0.16991,1.11844-0.63812,1.50404-1.17232c0.57361-0.79468,0.97875-1.67313,1.28982-2.59698
		c0.01174-0.03487,0.0255-0.06907,0.03831-0.10359c0.03581-0.01594,0.05249,0.00363,0.06351,0.03371
		c-0.35246,1.09096-0.8451,2.11202-1.56165,3.01549c-0.34338,0.43295-0.76546,0.7636-1.32159,0.90358
		c-0.26192,0.06593-0.43883,0.26047-0.54937,0.4945c-0.11744,0.24863-0.29872,0.3402-0.56628,0.34001
		c-4.21169-0.00306-8.42337-0.00196-12.63505-0.00181C13.57421,11.80345,13.57411,11.78221,13.574,11.76097z"/>
	<path fill="#764317" d="M13.57529,12.01454c4.24969-0.00005,8.49938-0.00139,12.74907,0.00275
		c0.28658,0.00028,0.48088-0.11028,0.58673-0.36792c0.11516-0.28028,0.31762-0.4528,0.61134-0.52558
		c0.52672-0.13052,0.8918-0.48175,1.23289-0.87442c0.46191-0.53175,0.79988-1.13794,1.10569-1.7641
		c0.19899-0.40746,0.36144-0.83049,0.5085-1.25915c0.07504-0.00751,0.10144,0.0399,0.116,0.10087
		c-0.09293,0.41469-0.27272,0.79804-0.44914,1.1808c-0.23668,0.51349-0.51166,1.00685-0.83771,1.47164
		c-0.2385,0.33998-0.52132,0.63994-0.83093,0.91346c-0.20842,0.18413-0.46046,0.30247-0.73377,0.3667
		c-0.29136,0.06848-0.49364,0.22935-0.59091,0.51797c-0.03771,0.11189-0.07618,0.23475-0.21861,0.26764
		c-4.41782-0.00036-8.83565-0.00072-13.25348-0.00109C13.57223,12.03421,13.57368,12.02436,13.57529,12.01454z"/>
	<path fill="#422D1C" d="M2.87522,12.01603c-0.24327,0.0502-0.4864,0.04853-0.7294-0.00189
		c-0.15342-0.06978-0.21076-0.21443-0.22702-0.35655c-0.02731-0.23883-0.14393-0.34698-0.38027-0.37312
		c-0.15884-0.01757-0.29872-0.10544-0.4267-0.2017c-0.04834-0.03636-0.10881-0.07141-0.08699-0.15026
		c-0.05194-0.07629-0.03518-0.16312-0.03111-0.24496c0.01318-0.26462-0.03726-0.53134,0.02631-0.79414
		c0.05932,0.38064,0.29877,0.64275,0.59551,0.85652c0.13066,0.09412,0.30162,0.08531,0.46047,0.09109
		c0.2032,0.00739,0.28619,0.08077,0.28771,0.27505C2.36683,11.51161,2.5287,11.81459,2.87522,12.01603z"/>
	<path fill="#422D1C" d="M3.54631,10.19229c-0.0001,0.23804-0.19905,0.43167-0.43899,0.42724
		c-0.23341-0.00431-0.42274-0.19591-0.42262-0.42768c0.00013-0.23798,0.19921-0.43175,0.43901-0.42729
		C3.35697,9.7689,3.54641,9.96064,3.54631,10.19229z"/>
	<path fill="#97571E" d="M1.62714,2.50232c0.13108-0.06718,0.26987-0.0982,0.4175-0.08778
		c-0.20065,0.01244-0.15539,0.1609-0.15865,0.28252C1.79428,2.63926,1.73506,2.5389,1.62714,2.50232z"/>
	<path fill="#734116" d="M29.75924,6.36959c-0.17064-0.088-0.36193-0.11197-0.54218-0.17044
		c-0.36617-0.11879-0.64472-0.36116-0.90822-0.62203c-0.40122-0.39721-0.83675-0.74586-1.35037-0.9901
		c-0.36097-0.17164-0.75133-0.25548-1.13278-0.36562c-0.54448-0.15722-1.10089-0.26208-1.66058-0.34269
		c-0.28145-0.04054-0.5655-0.07817-0.85342-0.07495c-0.6119,0.00684-1.22396,0.00516-1.83592,0.0009
		c-0.35329-0.00246-0.61641-0.16076-0.78358-0.47421c-0.14292-0.26798-0.37885-0.40255-0.67422-0.44332
		c-0.47617-0.06573-0.95502-0.01869-1.43249-0.03088c-0.0258,0.01649-0.05076,0.01919-0.07415-0.00438
		c-0.04101-0.11104,0.00093-0.21913,0.01576-0.32711c0.04659-0.33927-0.07013-0.47955-0.41094-0.48006
		c-0.68646-0.00103-1.37293,0.00147-2.05939-0.00105c-0.34735-0.00127-0.6437,0.12326-0.90237,0.34489
		c-0.1574,0.13486-0.16428,0.23271-0.03699,0.39798c0.01645,0.02136,0.02962,0.04372,0.02297,0.07238
		c-0.04432,0.03448-0.08745,0.02187-0.1303-0.00302c-0.84052-0.00028-1.68146-0.01636-2.52139,0.00565
		c-0.43653,0.01144-0.74136-0.16876-0.98247-0.49904c-0.1806-0.24739-0.40603-0.36935-0.72708-0.36772
		c-1.84059,0.00936-3.68125,0.0046-5.52189,0.00451C4.81903,1.99927,4.5199,1.78409,4.37552,1.36567
		C4.32872,1.32551,4.30786,1.2737,4.3057,1.21337C4.3035,1.18097,4.30342,1.14849,4.30384,1.11599
		C4.30331,1.09157,4.30395,1.06718,4.306,1.04279c0.00236-0.034,0.01536-0.06346,0.03865-0.08844
		C9.89932,0.95403,15.45398,0.95368,21.00865,0.9534c2.00585-0.0001,4.01174,0.00677,6.01753-0.00464
		c0.52185-0.00297,0.94947,0.19419,1.33684,0.50497c0.72278,0.57989,1.22578,1.33288,1.67013,2.1297
		c0.26006,0.46634,0.47154,0.9546,0.66545,1.45079c0.0287,0.07343,0.06214,0.14631,0.05219,0.22867
		c-0.02822,0.11715-0.05766,0.234-0.08534,0.3513c-0.10252,0.4345-0.41863,0.64681-0.81852,0.77061
		C29.81609,6.39434,29.78446,6.39733,29.75924,6.36959z"/>
	<path fill="#733F16" d="M26.82444,12.0452c0.10745-0.07295,0.15304-0.1869,0.19002-0.30136
		c0.09396-0.29078,0.30323-0.44912,0.59025-0.51887c0.33819-0.08218,0.62323-0.24856,0.87647-0.48717
		c0.71528-0.67392,1.17799-1.50872,1.5804-2.38592c0.15418-0.33609,0.28066-0.68166,0.40315-1.02936
		c0.1348,0.01472,0.14115,0.13769,0.18296,0.22447c0.04693,0.09738,0.07794,0.20338,0.04102,0.31464
		c-0.07003,0.30898-0.20238,0.59582-0.33513,0.88021c-0.29804,0.6385-0.62727,1.26084-1.05868,1.82341
		c-0.124,0.1617-0.23518,0.33488-0.39475,0.4673c-0.14237,0.11215-0.26987,0.23909-0.38323,0.38005
		c-0.3865,0.36378-0.82187,0.62351-1.37381,0.63323C27.03693,12.04771,26.93067,12.04552,26.82444,12.0452z"/>
	<path fill="#422D1C" d="M30.68872,7.86163c-0.03814-0.19464-0.07313-0.39058-0.22399-0.53909
		c-0.0208-0.04279-0.05363-0.07385-0.09523-0.09639c-0.02132-0.02094-0.04266-0.04185-0.06398-0.06279
		c-0.02259-0.04058-0.05322-0.07263-0.09726-0.09046c-0.02117-0.01121-0.04234-0.02245-0.06351-0.03368
		c-0.01391-0.02474-0.0371-0.03189-0.06348-0.03298c-0.05066-0.05809-0.12713-0.06247-0.19205-0.09086
		c-0.12574-0.03824-0.25164-0.07759-0.38557-0.06705c-0.14256,0.01122-0.20084-0.07328-0.21784-0.19403
		c-0.01555-0.11044,0.08364-0.233,0.19295-0.24898c0.09325-0.01363,0.187-0.0239,0.28051-0.03568
		c0.28556-0.08356,0.55609-0.19324,0.73138-0.4507c0.09242-0.13574,0.13531-0.29181,0.16605-0.4516
		c0.0144-0.07486,0.01391-0.15854,0.0941-0.20442c0.10549,0.23276,0.19,0.471,0.19291,0.73046
		c0.03613,0.13106-0.05184,0.2175-0.11863,0.3079c-0.05002,0.0677-0.11634,0.12304-0.17816,0.18109
		c-0.00768,0.00718-0.01591,0.01381-0.02453,0.01994c-0.20389,0.14495-0.20389,0.14494-0.00933,0.29488
		c0.11809,0.1015,0.25599,0.18894,0.26679,0.36717C30.87526,7.41273,30.78496,7.63798,30.68872,7.86163z"/>
	<path fill="#A77621" d="M1.02484,10.9325c0.172,0.22645,0.42409,0.30506,0.68696,0.34986
		c0.12984,0.02213,0.19448,0.07239,0.20722,0.205c0.01898,0.19756,0.09458,0.37518,0.22677,0.52678
		c-0.02511,0.03627-0.06382,0.03198-0.10034,0.03201c-0.31215,0.0003-0.62433-0.00227-0.93643,0.00167
		c-0.08967,0.00113-0.11985-0.02953-0.11866-0.11814c0.004-0.29927,0.00137-0.59863,0.0017-0.89795
		C0.9921,10.99552,0.98769,10.95702,1.02484,10.9325z"/>
	<path fill="#733F16" d="M1.27948,2.09442C1.19434,2.15824,1.1092,2.22205,1.02406,2.28588
		c-0.01002-0.0178-0.02869-0.03557-0.02879-0.05343C0.99307,1.83701,0.99356,1.44157,0.99181,1.04613
		c-0.0003-0.06816,0.03062-0.09467,0.09656-0.0928c0.07432,0.0021,0.14873,0.00093,0.2231,0.00118
		c0.01295,0.01713,0.0258,0.03716,0.02196,0.05751C1.26577,1.37045,1.32003,1.73478,1.27948,2.09442z"/>
	<path fill="#723F16" d="M30.87983,7.16434c-0.06626-0.14011-0.17604-0.24471-0.28792-0.34759
		c-0.02546-0.11959,0.02135-0.2329,0.03087-0.34945c0.12518-0.14584,0.28079-0.27137,0.32091-0.47394
		c0.10918,0.05663,0.07077,0.17178,0.08342,0.25393c0.04592,0.29823-0.02505,0.58963-0.10095,0.87745
		C30.92192,7.14085,30.89578,7.15127,30.87983,7.16434z"/>
	<path fill="#774317" d="M1.27948,2.09442C1.27055,2.08189,1.25388,2.06939,1.25382,2.0568
		C1.25185,1.68831,1.21289,1.31777,1.31146,0.95449c0.14906,0.00009,0.29813,0.00017,0.44719,0.00025
		c0.03523,0.04996-0.00013,0.08234-0.03514,0.1031C1.50992,1.1845,1.52543,1.41127,1.48488,1.60843
		c-0.02606,0.12671,0.00804,0.2615-0.01259,0.39206C1.40802,2.0318,1.34375,2.06311,1.27948,2.09442z"/>
	<path fill="#804C19" d="M1.47229,2.00049c-0.03853-0.19246-0.06774-0.37806,0.0143-0.57534
		C1.52362,1.3361,1.51204,1.2254,1.56971,1.12996c0.04845-0.08018,0.16894-0.07302,0.18894-0.17523
		c0.1909-0.00023,0.3818-0.00046,0.57268-0.0007C2.29948,0.99535,2.26766,1.03667,2.23584,1.07799
		c-0.08968,0.00126-0.17869,0.0125-0.26836,0.01619C1.73302,1.10381,1.62411,1.21538,1.61154,1.44939
		C1.60223,1.62257,1.6223,1.7964,1.60073,1.96937C1.56561,2.01104,1.51644,1.99553,1.47229,2.00049z"/>
	<path fill="#804C19" d="M4.34465,0.95436c0.00001,0.03143,0.00002,0.06285,0.00002,0.09428
		C4.30706,1.08274,4.26092,1.09127,4.21226,1.09181C4.00071,1.09415,3.78916,1.09456,3.57763,1.0915
		c-0.0478-0.00069-0.09589-0.00417-0.13035-0.0448c0.01198-0.03099,0.02395-0.06198,0.03593-0.09296
		C3.77036,0.95394,4.05751,0.95415,4.34465,0.95436z"/>
	<path fill="#77451E" d="M28.51693,11.41261c0.08731-0.16685,0.21471-0.29387,0.38322-0.38006
		C28.78496,11.1717,28.65752,11.29869,28.51693,11.41261z"/>
	<path fill="#A05B23" d="M18.52284,2.85407c0.02089,0.00072,0.04177,0.00143,0.06265,0.00216
		C18.45047,3.2844,18.1837,3.5998,17.77551,3.79741c-0.12333,0.0597-0.2499,0.08195-0.38533,0.07074
		c-0.03559-0.00295-0.08272-0.0532-0.10722,0.01359c-0.01654,0.04508,0.00921,0.08052,0.04009,0.11242
		c0.15143,0.15642,0.26885,0.33658,0.37794,0.52364c0.26255,0.45018,0.40355,0.93301,0.40562,1.45402
		c0.00081,0.20424-0.05874,0.27701-0.2597,0.30388c-0.06805,0.0091-0.0958,0.03231-0.09114,0.09731
		c-0.10403,0.05325-0.18439-0.01742-0.26549-0.05728c-0.73257-0.36008-1.46465-0.72125-2.19304-1.08957
		c-0.19782-0.10003-0.37618-0.0999-0.57374-0.00006c-0.72392,0.36584-1.45131,0.72494-2.1795,1.08236
		C12.45814,6.3506,12.37402,6.42512,12.26367,6.373c0.0072-0.07943-0.03773-0.09241-0.10713-0.09687
		c-0.15862-0.01019-0.23622-0.10196-0.24443-0.26671c-0.02137-0.42895,0.07824-0.8348,0.25736-1.21946
		c0.32718-0.70261,0.84339-1.22435,1.55436-1.55112c0.04369-0.02008,0.08655-0.04006,0.13639-0.03515
		c0.0127,0.06752-0.05313,0.07998-0.0832,0.11764c-0.07768,0.05491-0.16251,0.0963-0.25134,0.12992
		c-0.04622,0.01086-0.09256,0.02161-0.12727,0.05779c-0.04127,0.03575-0.07806,0.07722-0.1293,0.10014
		c-0.04447,0.01634-0.08273,0.04244-0.11719,0.07469c-0.01069,0.00923-0.02207,0.01725-0.03389,0.02494
		c-0.06434,0.03744-0.11225,0.09314-0.16411,0.14418c-0.04533,0.04302-0.08966,0.08717-0.13304,0.1323
		c-0.05465,0.05363-0.11172,0.10509-0.15191,0.17136c-0.01177,0.01746-0.02526,0.03351-0.03959,0.04885
		c-0.03389,0.03396-0.06531,0.06985-0.0879,0.11254c-0.02041,0.03517-0.04051,0.07057-0.06617,0.10234
		c-0.03591,0.03897-0.06279,0.08377-0.08502,0.13153c-0.00587,0.01176-0.01288,0.02284-0.02031,0.03364
		c-0.02922,0.03628-0.04267,0.08013-0.05903,0.12263c-0.03043,0.06142-0.06063,0.12289-0.08969,0.18496
		c-0.02806,0.04969-0.04669,0.10305-0.06279,0.15747c-0.02297,0.06298-0.04236,0.12704-0.06192,0.1911
		c-0.03336,0.07898-0.0502,0.16126-0.05063,0.24693c-0.02679,0.15538-0.05903,0.31159-0.03454,0.46914
		c0.02921,0.18798,0.13358,0.24765,0.31899,0.19545c0.05147-0.01449,0.10005-0.03558,0.14772-0.0592
		c0.68557-0.33966,1.3716-0.67839,2.05605-1.02028c0.04275-0.02135,0.08336-0.04659,0.12493-0.07001
		c0.14819-0.08347,0.22033-0.20544,0.21538-0.37675c-0.00276-0.09535-0.00217-0.20848,0.13234-0.21175
		c0.13583-0.00331,0.14256,0.10787,0.13794,0.20473c-0.00852,0.17891,0.06751,0.30746,0.22315,0.38756
		c0.75563,0.38888,1.51662,0.76723,2.28394,1.13292c0.01411,0.00673,0.03061,0.00876,0.04595,0.01322
		c0.22023,0.0387,0.30092-0.02244,0.30276-0.23874c0.00464-0.54539-0.17091-1.03678-0.47443-1.48365
		c-0.28285-0.41643-0.63802-0.76222-1.087-1.00097c-0.3481-0.18511-0.71457-0.30862-1.11401-0.3521
		c-0.30119-0.03278-0.59164-0.00901-0.885,0.03921c-0.09232-0.0053-0.17861,0.02053-0.26404,0.05092
		c-0.10621,0.00318-0.20175,0.10183-0.31579,0.03531c0.09035-0.0826,0.20944-0.09624,0.32012-0.12571
		c0.31356-0.0835,0.63331-0.11255,0.95795-0.09783c0.07664,0.00347,0.15728,0.01907,0.24662-0.02248
		C15.32338,2.89268,15.2521,2.92613,15.1914,2.9193c-0.06608-0.00743-0.1421,0.01809-0.18134-0.06343
		c0.04201-0.00061,0.08401-0.00123,0.12601-0.00184c0.11951-0.07895,0.2504-0.03883,0.3776-0.0361
		c0.45767,0.08478,0.89027,0.23526,1.28683,0.48252c0.14444,0.09005,0.27349,0.1993,0.40638,0.30376
		c0.18933,0.14883,0.32724,0.16612,0.54058,0.04703c0.27462-0.15331,0.4944-0.36074,0.62663-0.65084
		c0.02381-0.05223,0.03766-0.11026,0.07998-0.15332C18.47841,2.83577,18.50151,2.8365,18.52284,2.85407z"/>
	<path fill="#A05B23" d="M18.42632,7.51396c-0.15917,0.11345-0.34444,0.17811-0.51456,0.27111
		c-0.03691,0.02018-0.07663,0.03575-0.11187,0.05835c-0.02988,0.01916-0.0702,0.04163-0.05883,0.08327
		c0.0131,0.04798,0.06151,0.02631,0.09534,0.03032c0.026,0.00308,0.05266,0.00064,0.07903,0.00065
		c-0.02884,0.11352-0.14233,0.04712-0.2024,0.09426c-0.82275,0.38463-1.62205,0.81556-2.43495,1.21966
		c-0.19286,0.09587-0.35778,0.0955-0.54382,0.00567c-0.6648-0.32101-1.31227-0.67566-1.9761-0.99849
		c-0.15278-0.0743-0.3054-0.14896-0.45834-0.22296c-0.0553-0.05218-0.17054,0.01277-0.1958-0.09814
		c0.0211-0.00001,0.04262,0.00266,0.06319-0.0006c0.03852-0.0061,0.09765,0.02271,0.10982-0.0306
		c0.01218-0.05338-0.04341-0.07731-0.08497-0.09831c-0.18321-0.09255-0.36732-0.18335-0.55057-0.27584
		c-0.01801-0.00909-0.03233-0.0254-0.04836-0.03837c0.0632-0.05281,0.1216-0.01403,0.17678,0.01337
		c0.99763,0.49528,1.99953,0.98219,2.99137,1.48884c0.17229,0.08801,0.3246,0.088,0.49689,0
		c0.99185-0.50664,1.99374-0.99356,2.99137-1.48884C18.30472,7.49993,18.36312,7.46114,18.42632,7.51396z"/>
	<path fill="#A05B23" d="M18.42632,7.51396c-0.06815-0.00687-0.12217,0.02946-0.17887,0.0576
		c-0.95952,0.47616-1.92373,0.94335-2.87548,1.43435c-0.25972,0.13399-0.46477,0.13399-0.72449,0
		c-0.95175-0.491-1.91596-0.95819-2.87548-1.43435c-0.0567-0.02814-0.11073-0.06447-0.17887-0.0576
		c-0.0635-0.04263-0.11692-0.09526-0.15969-0.15845c-0.05442-0.01723,0.00708-0.07276-0.03189-0.09509
		c-0.02451-0.09508-0.02451-0.19016,0-0.28524c0.00412-0.09576,0.08036-0.15062,0.12772-0.22185
		c0.23225-0.15066,0.49138-0.25018,0.73441-0.38032c0.09489-0.01752,0.18113-0.05744,0.26663-0.09993
		c0.74086-0.36823,1.48253-0.73487,2.22244-1.10496c0.17485-0.08746,0.34093-0.08684,0.51582,0.00072
		c0.73919,0.37006,1.48032,0.73629,2.22057,1.10424c0.0855,0.0425,0.17175,0.08241,0.26663,0.09993
		c0.2292,0.15646,0.49609,0.24121,0.73441,0.38032c0.04737,0.07123,0.1236,0.1261,0.12772,0.22185
		c0.02451,0.09508,0.02451,0.19016,0,0.28524c-0.03752,0.0228-0.03082,0.06024-0.03193,0.09508
		C18.54311,7.41859,18.48989,7.47141,18.42632,7.51396z"/>
	<path fill="#A05B23" d="M12.10402,7.95766c0.05983,0.0721,0.16371-0.00874,0.22351,0.06344
		c-0.00768,0.00738-0.01512,0.01616-0.02475,0.01957c-0.30404,0.10765-0.31509,0.12281-0.31556,0.45272
		c-0.0005,0.35343-0.00072,0.70687,0.00006,1.0603c0.00079,0.35881,0.05346,0.43616,0.38528,0.56864
		c0.78311,0.31266,1.56712,0.6231,2.35144,0.93278c0.18112,0.07151,0.35822,0.08284,0.54178,0.01109
		c0.83004-0.32445,1.65684-0.65694,2.48562-0.98453c0.19159-0.07573,0.27641-0.22164,0.27874-0.41778
		c0.00507-0.42725,0.00802-0.85466-0.00127-1.28177c-0.00427-0.19646-0.06061-0.30593-0.26864-0.32426
		c-0.02666-0.00235-0.05056-0.01536-0.06832-0.03681c0.05982-0.07212,0.16368,0.00868,0.22351-0.06341
		c0.13269,0.01975,0.17821,0.10157,0.19405,0.22895c0.05359,0.43108,0.02196,0.86324,0.0274,1.29478
		c0.00178,0.14097-0.01345,0.28328-0.03406,0.42307c-0.01985,0.1347-0.12386,0.20376-0.2421,0.25006
		c-0.83458,0.32681-1.67562,0.63846-2.50117,0.98633c-0.29355,0.12369-0.53772,0.07063-0.80263-0.0368
		c-0.51165-0.20749-1.02587-0.40875-1.53921-0.61212c-0.29586-0.11721-0.59301-0.23126-0.88776-0.35114
		c-0.14582-0.05931-0.20532-0.16701-0.22285-0.33041c-0.0435-0.40554-0.01129-0.81094-0.02882-1.21574
		c-0.00669-0.15457,0.03458-0.30236,0.03868-0.4551C11.91985,8.03201,11.99552,7.97176,12.10402,7.95766z"/>
	<path fill="#422D1C" d="M3.54632,3.08973C3.54795,3.32678,3.35335,3.5209,3.11459,3.52039
		C2.87653,3.51988,2.68208,3.32427,2.6847,3.08791c0.00255-0.23051,0.19155-0.41904,0.42378-0.42274
		C3.34741,2.66138,3.54469,2.85266,3.54632,3.08973z"/>
	<path fill="#422D1C" d="M28.29272,6.60987C28.2932,6.84656,28.09727,7.04,27.85876,7.03832
		c-0.23915-0.00168-0.4315-0.19718-0.42766-0.43465c0.00373-0.23047,0.19373-0.41805,0.42597-0.42057
		C28.0956,6.18052,28.29224,6.37315,28.29272,6.60987z"/>
	<path fill="#98571E" d="M4.34404,1.20725c0.0105,0.0528,0.02101,0.10561,0.0315,0.15842
		C3.82194,1.36538,3.26836,1.36508,2.71477,1.36479C2.77329,1.28955,2.8566,1.24885,2.93869,1.20644
		C3.03339,1.17043,3.1314,1.15847,3.2327,1.15907c0.30575,0.00182,0.61153,0.00041,0.91729,0.00081
		C4.21845,1.15997,4.28835,1.1552,4.34404,1.20725z"/>
	<path fill="#A05B23" d="M11.52927,6.75332c-0.01614,0.08894-0.09796,0.14063-0.12772,0.22185
		C11.38615,6.86834,11.44339,6.80271,11.52927,6.75332z"/>
	<path fill="#A05B23" d="M18.6179,6.97517c-0.02976-0.08122-0.11158-0.13291-0.12772-0.22185
		C18.57606,6.80271,18.6333,6.86834,18.6179,6.97517z"/>
	<path fill="#A05B23" d="M18.6179,7.26041c0-0.09508,0-0.19016,0-0.28524C18.66893,7.07025,18.66893,7.16533,18.6179,7.26041z"/>
	<path fill="#A05B23" d="M11.40154,6.97517c0,0.09508,0,0.19016,0,0.28524C11.35052,7.16533,11.35052,7.07025,11.40154,6.97517z"/>
	<path fill="#A05B23" d="M11.43344,7.3555c0.06567,0.04046,0.11886,0.09332,0.15969,0.15845
		C11.50431,7.49647,11.45114,7.44359,11.43344,7.3555z"/>
	<path fill="#A05B23" d="M18.42632,7.51396c0.04081-0.06514,0.09404-0.11795,0.15965-0.15847
		C18.56833,7.44363,18.51512,7.49645,18.42632,7.51396z"/>
	<path fill="#97571D" d="M2.07709,1.23793C1.98518,1.41904,1.91378,1.60656,1.87865,1.80785
		C1.86813,1.86813,1.86281,1.95136,1.76066,1.93805C1.71064,1.94272,1.69472,1.90567,1.69114,1.87025
		c-0.01732-0.17116-0.03206-0.34461,0.009-0.51278c0.03367-0.1379,0.19414-0.22075,0.32153-0.18288
		C2.05198,1.1836,2.0819,1.19681,2.07709,1.23793z"/>
	<path fill="#90521C" d="M4.34403,1.20725C3.87559,1.20699,3.40715,1.20672,2.9387,1.20645
		c0.06404-0.05569,0.13599-0.09313,0.22325-0.09516c0.36888-0.05023,0.73965-0.02735,1.1098-0.02791
		c0.02746-0.00004,0.05112,0.01224,0.07257,0.02866C4.34423,1.14377,4.34413,1.17551,4.34403,1.20725z"/>
	<path fill="#8F531C" d="M2.07709,1.23793C1.86734,1.16368,1.72213,1.25134,1.72934,1.46209
		c0.00542,0.1585-0.0442,0.32184,0.0313,0.47593c-0.0364,0.04023-0.08486,0.02666-0.12983,0.02864
		c-0.05623-0.22871-0.05999-0.4593,0.01685-0.68145C1.70938,1.1068,1.95846,1.03463,2.17873,1.11332
		C2.14485,1.15486,2.11097,1.19639,2.07709,1.23793z"/>
	<path fill="#88531A" d="M2.17873,1.11332C2.14185,1.11286,2.10495,1.11115,2.06812,1.11213
		C1.76432,1.12019,1.6388,1.24271,1.63136,1.54314C1.62786,1.68424,1.6308,1.8255,1.63082,1.96667
		c-0.00997,0.00169-0.02001,0.00258-0.0301,0.00267c-0.05343-0.25188-0.06839-0.50302,0.0252-0.74947
		c0.03302-0.08696,0.11114-0.12134,0.19553-0.14384c0.13838-0.0369,0.27653-0.04975,0.41441,0.00198
		C2.2168,1.08977,2.19776,1.10154,2.17873,1.11332z"/>
	<path fill="#88531A" d="M4.34432,1.11203C3.95021,1.11179,3.55609,1.11154,3.16196,1.11129
		c0.0867-0.05818,0.19685-0.01428,0.28534-0.06457c0.2991,0.00063,0.59824,0.00127,0.89737,0.00192
		C4.34456,1.06977,4.34444,1.0909,4.34432,1.11203z"/>
	<path fill="#81552F" d="M18.52284,2.85407c-0.02161,0.00056-0.04322,0.00113-0.06483,0.00169
		c-0.02519,0.01961-0.04972,0.01726-0.07377-0.00211C18.33098,2.759,18.38366,2.66774,18.3984,2.57712
		c0.01468-0.0902,0.0245-0.17704-0.00635-0.26457c-0.02688-0.12337-0.1259-0.10881-0.21496-0.1089
		c-0.69518-0.0007-1.39035-0.00001-2.08553-0.00064c-0.17763-0.00016-0.34753,0.03637-0.51333,0.09629
		c-0.14258,0.05153-0.26059,0.13999-0.36842,0.2432c-0.04022,0.0385-0.08228,0.07931-0.00157,0.12052
		c0.14718,0.06649,0.31047,0.0453,0.46216,0.08588c0.06492,0.01737,0.1369,0.01776,0.1761,0.08611
		c-0.09126,0.09676-0.19486,0.02111-0.29307,0.02077c-0.13911-0.00058-0.27823-0.00115-0.41736-0.00174
		c-0.22008-0.17561-0.21131-0.35514,0.01482-0.52921c0.29586-0.22774,0.62217-0.33633,1.00089-0.32915
		c0.66906,0.01269,1.33875,0.01362,2.00775-0.00065c0.33832-0.00722,0.45656,0.23204,0.42144,0.50335
		C18.56557,2.61745,18.54246,2.73554,18.52284,2.85407z"/>
	<path fill="#764317" d="M30.62278,6.46729c0.06718,0.12323-0.00056,0.23471-0.03087,0.34945
		c-0.26901-0.18005-0.26902-0.18006,0.01661-0.34301C30.61303,6.47116,30.61802,6.46942,30.62278,6.46729z"/>
	<path fill="#A5632E" d="M12.45518,4.40798c0.0213-0.0317,0.0426-0.0634,0.0639-0.09511
		c0.02981-0.04382,0.06732-0.08191,0.09577-0.12674c0.01064-0.01058,0.02128-0.02116,0.03192-0.03174
		c0.04411-0.07092,0.11705-0.11798,0.15973-0.19008c0.03064-0.05411,0.07321-0.09636,0.12772-0.12677
		c0.07266-0.04235,0.12003-0.11481,0.19157-0.15849l0.00002-0.00001c0.04538-0.02798,0.08352-0.06553,0.12773-0.09507
		c0.04257-0.03169,0.08515-0.06337,0.12772-0.09506c0.03584-0.0345,0.08686-0.03885,0.12772-0.06338
		c0.08513-0.04229,0.17027-0.08459,0.2554-0.12689c0.09729-0.05715,0.19444-0.11469,0.31436-0.10517
		c0.01268,0.0118,0.01749,0.02624,0.01448,0.04323c-0.02533,0.05427-0.08007,0.0642-0.12836,0.0848
		c-0.99504,0.42456-1.62892,1.14789-1.8512,2.20976c-0.03442,0.16442-0.06674,0.33074,0.00271,0.49515
		c0.01976,0.03191,0.04637,0.05497,0.08437,0.06339c0.09142,0.02517,0.16692-0.02066,0.24164-0.05759
		c0.7134-0.35263,1.42629-0.70628,2.13888-1.06051c0.13834-0.06877,0.22791-0.16706,0.23569-0.32869
		c0.00275-0.05721,0.02077-0.1138,0.02998-0.17108c0.01515-0.09421,0.07688-0.1333,0.16902-0.1317
		c0.08578,0.00148,0.1583,0.04235,0.15355,0.12716c-0.02408,0.43014,0.3137,0.52986,0.6078,0.67136
		c0.2245,0.12496,0.464,0.22126,0.68587,0.35143c0.38945,0.23373,0.80855,0.40858,1.21735,0.604
		c0.06723,0.03158,0.15885-0.01052,0.21017,0.06861C17.83,6.22431,17.76067,6.20078,17.69191,6.18284
		c-0.06817,0.00687-0.12218-0.02953-0.1789-0.05767c-0.68422-0.33944-1.36764-0.68048-2.0531-1.01741
		c-0.2255-0.11084-0.39136-0.25254-0.35569-0.53324c0.00856-0.06737-0.00681-0.13252-0.09607-0.13133
		c-0.0897,0.0012-0.10122,0.06836-0.09293,0.13448c0.03419,0.27268-0.12382,0.41587-0.3442,0.52457
		C13.87651,5.4448,13.18331,5.79,12.48937,6.13372c-0.03784,0.01874-0.07723,0.03477-0.11681,0.04967
		c-0.27482,0.10343-0.41894-0.04305-0.41448-0.31034c0.00209-0.12521-0.00612-0.26382,0.05014-0.38746
		c0.02605-0.08334,0.03049-0.17203,0.06382-0.25356c0.00278-0.06952,0.01709-0.13523,0.06385-0.1902
		c0.02927-0.04964,0.03721-0.10775,0.06391-0.15841c0.01365-0.07247,0.04279-0.13726,0.09571-0.19026
		c0.02435-0.04072,0.02994-0.09075,0.0639-0.12669h0.00001C12.4004,4.51902,12.41657,4.45682,12.45518,4.40798z"/>
	<path fill="#A5632E" d="M17.69191,6.18284c0.06388-0.01037,0.13564,0.02595,0.19151-0.03185
		c-0.00825-0.01225-0.01132-0.02567-0.00941-0.04028c0.00994-0.04141,0.02891-0.07976,0.04156-0.1203
		c0.00467-0.01338,0.01085-0.02607,0.01783-0.03839c0.00694-0.01226,0.01486-0.0239,0.02292-0.03537
		c0.02701-0.08441,0.01678-0.16791-0.00577-0.25119c-0.02941-0.1315-0.01254-0.27598-0.11237-0.38725
		c-0.06921-0.11278-0.10196-0.24075-0.14853-0.36252c-0.10064-0.26318-0.27545-0.48054-0.42919-0.71107
		c-0.02167-0.0705-0.05557-0.13054-0.13385-0.15249c-0.11203-0.0645-0.18982-0.16806-0.28834-0.24852
		c-0.30863-0.25208-0.655-0.42976-1.03658-0.5429c-0.07952-0.03401-0.16751-0.04457-0.2443-0.08625
		c-0.06652-0.03939-0.14521-0.01696-0.21471-0.04134c-0.21183-0.02028-0.42348-0.01998-0.63502,0.00041
		c-0.07377,0.02319-0.15265,0.00883-0.22665,0.03057c-0.04893,0.01155-0.09798,0.01705-0.14705,0.00097
		c-0.01531-0.00622-0.02681-0.01679-0.03445-0.03136c0.02011-0.07752,0.1007-0.01349,0.13546-0.05683
		c0.62772-0.13601,1.23374-0.05036,1.81209,0.20664c0.5919,0.26302,1.04731,0.69088,1.38674,1.23611
		c0.27282,0.43823,0.42035,0.9159,0.40949,1.43604C18.03881,6.17015,17.90241,6.25868,17.69191,6.18284z"/>
	<path fill="#AC6F3E" d="M18.39534,2.8544c0.02089,0.00045,0.04178,0.00089,0.06267,0.00135
		c-0.07601,0.42378-0.56875,0.84317-0.90593,0.91285c-0.19481,0.04026-0.33042-0.09282-0.46266-0.20311
		c-0.43707-0.3645-0.93728-0.58765-1.49791-0.68319c-0.01382-0.00236-0.02544-0.01741-0.03807-0.02653
		c0.0954-0.01381,0.19693,0.02814,0.2873-0.03118c0.02013-0.02565,0.04684-0.02746,0.07586-0.02079
		c0.01289,0.00549,0.0221,0.01477,0.02757,0.02747c-0.04074,0.09401,0.05402-0.00845,0.04968,0.03301
		c0.4552,0.12634,0.84573,0.37217,1.21801,0.65081c0.04648,0.03479,0.09087,0.07115,0.14481,0.0938
		c0.01406,0.00506,0.02783,0.01084,0.04171,0.01627c0.11965,0.03332,0.22824,0.00641,0.33484-0.05164
		c0.24378-0.13275,0.4258-0.32374,0.5579-0.56474C18.32092,2.9544,18.33594,2.88939,18.39534,2.8544z"/>
	<path fill="#A25E28" d="M14.08373,3.20361c-0.11694-0.00305-0.20953,0.07452-0.31935,0.09505
		c0.03195-0.03165,0.0639-0.0633,0.09585-0.09495c0,0,0.00002,0,0.00003,0c0.11125,0.00282,0.20537-0.07923,0.31923-0.06347
		c0.00203,0.00627,0.00406,0.01253,0.00611,0.01882C14.16467,3.20326,14.12506,3.20538,14.08373,3.20361z"/>
	<path fill="#A25E28" d="M12.8065,3.96431c-0.01517,0.09488-0.09156,0.13907-0.15973,0.19008
		C12.66203,4.05959,12.73844,4.0154,12.8065,3.96431z"/>
	<path fill="#A25E28" d="M13.12579,3.67905c-0.0515,0.06754-0.09596,0.14346-0.19157,0.15849
		C12.98573,3.77,13.03019,3.69407,13.12579,3.67905z"/>
	<path fill="#A25E28" d="M12.07205,5.23202c0.00182,0.09025-0.01819,0.17508-0.06382,0.25356
		C12.0055,5.39511,12.01011,5.30646,12.07205,5.23202z"/>
	<path fill="#A25E28" d="M14.43497,3.07689c-0.02744,0.05129-0.10034,0.01212-0.12784,0.06328
		c-0.04249,0.03783-0.08503,0.03531-0.1276,0.00014c0,0-0.00004-0.00007-0.00004-0.00007
		C14.2545,3.07879,14.34381,3.07418,14.43497,3.07689z"/>
	<path fill="#A25E28" d="M12.45518,4.40798c-0.01096,0.0653-0.03142,0.12494-0.09574,0.15848
		C12.37053,4.50124,12.39097,4.44159,12.45518,4.40798z"/>
	<path fill="#A25E28" d="M12.19981,4.88341c0.00187,0.06202-0.01306,0.11735-0.06391,0.15841
		C12.13405,4.97981,12.14907,4.92451,12.19981,4.88341z"/>
	<path fill="#A25E28" d="M12.61485,4.18613c-0.00241,0.06422-0.04446,0.09893-0.09577,0.12674
		C12.5216,4.24874,12.56371,4.21408,12.61485,4.18613z"/>
	<path fill="#A25E28" d="M13.25353,3.58398c-0.02812,0.05082-0.06305,0.09264-0.12773,0.09507
		C13.15392,3.62822,13.18886,3.58642,13.25353,3.58398z"/>
	<path fill="#A25E28" d="M13.50898,3.42554c-0.03248,0.04117-0.07708,0.05828-0.12772,0.06338
		C13.40541,3.43123,13.45425,3.42253,13.50898,3.42554z"/>
	<path fill="#A25E28" d="M12.35943,4.56646c-0.00515,0.05025-0.02223,0.09458-0.0639,0.12669
		C12.29264,4.63891,12.30137,4.59043,12.35943,4.56646z"/>
	<path fill="#A66430" d="M17.69191,8.02107c0.28275,0.00105,0.38038,0.09501,0.38235,0.3807
		c0.00285,0.41197,0.00274,0.82399,0,1.23596c-0.00177,0.26689-0.10514,0.40685-0.34902,0.50305
		c-0.78339,0.309-1.57096,0.60839-2.34648,0.93583c-0.32692,0.13803-0.60467,0.04888-0.89853-0.0691
		c-0.73231-0.29403-1.46644-0.58364-2.20116-0.87172c-0.22382-0.08776-0.33407-0.24609-0.3344-0.4822
		c-0.00059-0.42255-0.00362-0.84515,0.00105-1.26765c0.00302-0.27293,0.10393-0.36391,0.3818-0.36483
		c0.80871,0.40659,1.61822,0.81163,2.42552,1.22097c0.18097,0.09176,0.34373,0.09843,0.52174-0.01616
		c0.15054-0.0969,0.32082-0.16342,0.48167-0.24474c0.52479-0.26533,1.04879-0.53222,1.57424-0.79626
		C17.44871,8.12562,17.57138,8.07545,17.69191,8.02107z"/>
	<path fill="#AA6C3B" d="M12.10395,6.56294c0.04458-0.02737,0.08734-0.05834,0.13402-0.08157
		c0.83536-0.4156,1.67189-0.82889,2.50638-1.2462c0.1801-0.09006,0.35007-0.09029,0.53025-0.00024
		c0.87727,0.43844,1.7565,0.87303,2.6346,1.30983c0.04667,0.02322,0.08943,0.0542,0.13402,0.08156
		c0.07115,0.05922,0.20967,0.02948,0.22235,0.16594c-0.07568,0.03453-0.13322-0.0154-0.19265-0.04466
		c-0.385-0.18958-0.76867-0.3818-1.15457-0.56954c-0.59669-0.2422-1.13448-0.60152-1.72584-0.85432
		c-0.15991-0.08922-0.30599-0.03472-0.45311,0.03833c-0.9204,0.45703-1.83992,0.91583-2.76164,1.37024
		c-0.06853,0.03378-0.13284,0.09366-0.22127,0.06135c-0.02944-0.05762,0.01965-0.07147,0.05375-0.08971
		C11.90602,6.65273,12.00341,6.60453,12.10395,6.56294z"/>
	<path fill="#A86936" d="M12.10395,6.56294c-0.09947,0.10143-0.26335,0.10226-0.35133,0.22164
		c-0.03591,0.08089-0.12982,0.10873-0.17085,0.18489c-0.07226,0.12274-0.06139,0.23587,0.0389,0.33885
		c0.18537,0.18492,0.43323,0.25999,0.66243,0.36574c0.07591,0.03503,0.15786,0.06011,0.23395,0.09747
		c0.67536,0.33161,1.34756,0.66949,2.02216,1.00261c0.0617,0.03047,0.12482,0.05874,0.17765,0.1042
		c0.16435,0.12564,0.34043,0.13754,0.52284,0.04687c0.99804-0.4961,1.99788-0.98863,2.99379-1.48892
		c0.23257-0.11683,0.29141-0.26672,0.20023-0.45385c-0.04999-0.07047-0.15727-0.09329-0.16722-0.19713
		c-0.04575-0.09268-0.16504-0.08359-0.22329-0.15897c0.33485,0.09158,0.52762,0.2544,0.51474,0.50695
		c-0.00921,0.18063-0.11156,0.28707-0.24992,0.35654c-1.01564,0.50995-2.03479,1.01302-3.05288,1.51818
		c-0.1692,0.08395-0.33701,0.07743-0.50482-0.00593c-1.00835-0.50088-2.0178-0.99958-3.02445-1.50382
		c-0.13894-0.0696-0.2568-0.16838-0.26168-0.34849c-0.00506-0.18686,0.05952-0.3218,0.23781-0.40717
		C11.83463,6.67908,11.95054,6.58071,12.10395,6.56294z"/>
	<path fill="#FEFEFE" d="M15.20259,2.69747c-0.04674-0.00762-0.09347-0.01523-0.16267-0.02651
		c0.14878-0.22636,0.3528-0.35647,0.58757-0.4399c0.13928-0.0495,0.28594-0.07628,0.43713-0.07583
		c0.72866,0.00214,1.45737,0.00496,2.18596-0.00207c0.13264-0.00128,0.1827,0.03987,0.17353,0.16465
		c0.02461,0.42919-0.09972,0.80129-0.4364,1.08538c-0.15636,0.13193-0.31829,0.26189-0.54198,0.2594
		c-0.02549-0.00028-0.05322,0.00505-0.07084-0.02151l0.00331,0.0014c-0.18663-0.11924-0.3492-0.27087-0.53765-0.38832
		c-0.26598-0.16576-0.54555-0.30071-0.84477-0.39542c-0.02231-0.00759-0.04209-0.01871-0.05524-0.03905l-0.00264,0.00065
		C15.69503,2.76624,15.44953,2.72762,15.20259,2.69747z"/>
	<path fill="#B37C50" d="M17.37489,3.64107c0.26427,0.02365,0.44924-0.13179,0.62466-0.28894
		c0.2501-0.22405,0.3843-0.51017,0.40375-0.84684c0.00362-0.06269,0.01371-0.12502,0.02081-0.1875
		c0.08743,0.1296,0.00254,0.25754-0.00737,0.38545c-0.00384,0.04957-0.0258,0.09889-0.02142,0.15118
		c-0.12036,0.35746-0.36286,0.61148-0.69404,0.78104C17.60272,3.68592,17.48489,3.72621,17.37489,3.64107z"/>
	<path fill="#B1784B" d="M15.20259,2.69747c0.25446-0.01421,0.49789,0.03664,0.73532,0.12287
		c-0.0324,0.00141-0.06479,0.00282-0.09718,0.00425C15.63182,2.76342,15.40536,2.78903,15.20259,2.69747z"/>
	<path fill="#B47D52" d="M17.27714,4.1857c0.27671,0.3146,0.46456,0.67588,0.57481,1.07793
		c0.07547,0.10706,0.08352,0.23194,0.09541,0.35582c0.02011,0.12453,0.00968,0.24899-0.00065,0.37344
		c-0.00325,0.05259-0.02706,0.09578-0.06208,0.13385c-0.00603-0.00567-0.01207-0.01133-0.0182-0.01694
		c-0.04169-0.20623-0.04155-0.41734-0.08469-0.62448c-0.22569-1.0837-1.11418-1.97157-2.20784-2.18569
		c-0.96185-0.18831-1.81315,0.06191-2.5152,0.72324c-0.58092,0.54722-0.89862,1.23441-0.87343,2.05064
		c-0.00019,0.0173-0.00632,0.03227-0.01808,0.04497c-0.04086-0.00061-0.06218-0.02129-0.06433-0.06168
		c-0.07494-0.15746-0.04721-0.31787-0.01488-0.47879c0.22024-1.09614,0.8565-1.85148,1.89524-2.2749
		c0.0637-0.02596,0.11967-0.0688,0.18841-0.08247c0.01465-0.00591,0.02976-0.01055,0.04499-0.01472
		c0.04568-0.01071,0.08975-0.02863,0.13721-0.03222c0.11208-0.00243,0.21925-0.03904,0.33072-0.04668
		c0.01559-0.00733,0.0317-0.01239,0.04862-0.01544c0.19518-0.0045,0.3902-0.00486,0.58515,0.00008
		c0.01721,0.00298,0.03382,0.00815,0.04971,0.01532c0.15243,0.01303,0.2928,0.07474,0.44029,0.10791
		c0.36351,0.07759,0.67925,0.25339,0.97025,0.47501c0.12922,0.09841,0.24686,0.2118,0.36975,0.3184
		C17.20075,4.07312,17.2424,4.12662,17.27714,4.1857z"/>
	<path fill="#AC6F3F" d="M12.16718,6.11849c0.00021-0.00965,0.0005-0.01929,0.00089-0.02893
		c0.02052-0.02848,0.05191-0.03583,0.08353-0.04276c0.07565-0.01024,0.13989-0.04938,0.20617-0.08245
		c0.66088-0.32969,1.32264-0.65762,1.98461-0.98515c0.07608-0.03765,0.15474-0.07154,0.21398-0.13526
		c0.03867-0.03408,0.06029-0.07935,0.08193-0.12467c0.00684-0.01301,0.01473-0.02529,0.02288-0.03742
		c0.03097-0.0806,0.00662-0.16577,0.02106-0.24779c0.00918-0.05321,0.03805-0.09212,0.08581-0.11751
		c0.08129-0.03651,0.16327-0.05341,0.24714-0.00744c0.05225,0.02972,0.08624,0.07465,0.10841,0.12923
		c0.02839,0.07732,0.00646,0.16102,0.03023,0.2389c0.00752,0.01132,0.01383,0.02339,0.01945,0.03574
		c0.01161,0.03639,0.00322,0.07884,0.034,0.10966c0.09246,0.10644,0.22729,0.14419,0.34358,0.21183
		c0.0543,0.03158,0.13505,0.04265,0.12503,0.13454c-0.15904-0.04629-0.30067-0.13051-0.44333-0.20971
		c-0.17284-0.09596-0.16946-0.27949-0.19175-0.44279c-0.01153-0.08445-0.02511-0.13961-0.12636-0.14148
		c-0.10929-0.00202-0.13288,0.05454-0.13436,0.14838C14.8759,4.7864,14.7465,4.94754,14.5007,5.06309
		C13.8155,5.38523,13.1421,5.73208,12.4628,6.06669C12.37146,6.11167,12.28005,6.18293,12.16718,6.11849z"/>
	<path fill="#B1784A" d="M15.77585,5.16901c-0.07618-0.10396-0.20386-0.12403-0.30735-0.18299
		c-0.07857-0.04476-0.15906-0.08266-0.20325-0.1668c0.06782-0.04362,0.12288,0.00249,0.17704,0.02935
		c0.74994,0.37195,1.50018,0.7433,2.24905,1.11736c0.05379,0.02687,0.14197,0.03424,0.12388,0.13249
		c-0.04548,0.02909-0.09425,0.0213-0.14306,0.01263c-0.34625-0.16974-0.70055-0.32346-1.03854-0.50996
		c-0.05986-0.03303-0.12292-0.05953-0.18702-0.08349C16.22477,5.39809,15.98741,5.30801,15.77585,5.16901z"/>
	<path fill="#AD7142" d="M14.21153,3.23545c-0.36609,0.13958-0.72636,0.2933-1.03053,0.54471
		c-0.57933,0.47885-0.94218,1.08577-1.07942,1.82548c-0.02844,0.1533-0.02197,0.30086,0.00128,0.45116
		c-0.12655-0.11829-0.07452-0.2738-0.0534-0.40044c0.1807-1.08393,0.78991-1.8522,1.78259-2.32636
		c0.08056-0.03848,0.16764-0.06352,0.25169-0.09481C14.1264,3.2039,14.16901,3.19634,14.21153,3.23545z"/>
	<path fill="#A86835" d="M16.44661,5.5176c0.06793-0.00746,0.1216,0.02906,0.17801,0.057
		c0.34514,0.17102,0.69025,0.3421,1.03537,0.51316c0.00405,0.00531,0.00809,0.01062,0.01214,0.01594
		c-0.00407,0.00529-0.00815,0.01058-0.01222,0.01588C17.24722,5.9353,16.82839,5.76324,16.44661,5.5176z"/>
	<path fill="#A5632E" d="M14.21153,3.23545c-0.0426-0.00009-0.0852-0.00017-0.1278-0.00026c0-0.01053,0-0.02105,0-0.03158
		c0.03193-0.0211,0.06387-0.0422,0.0958-0.0633c0.04253-0.00005,0.08507-0.00009,0.1276-0.00014c0,0,0.0002,0.00024,0.0002,0.00024
		c0.01469,0.07826-0.07741,0.04976-0.09608,0.09467L14.21153,3.23545z"/>
	<path fill="#A86835" d="M17.88463,6.12674c-0.00073,0.00807-0.00113,0.01615-0.00122,0.02425
		c-0.07429-0.01195-0.15616,0.02917-0.22351-0.03142c0,0,0.00014-0.00019,0.00014-0.00019
		c0.05445-0.03303,0.11609-0.0039,0.17255-0.01977c0.01749-0.00065,0.03326,0.00423,0.04731,0.01457L17.88463,6.12674z"/>
	<path fill="#A86835" d="M17.91573,5.61223c0.00742-0.12137-0.06089-0.22909-0.06378-0.34859
		c0.15534,0.10297,0.10809,0.26766,0.12741,0.41206c-0.00563,0.00329-0.01127,0.00658-0.01689,0.00989
		c-0.01426-0.00022-0.02359-0.00733-0.0287-0.02028C17.93162,5.64634,17.93155,5.62665,17.91573,5.61223z"/>
	<path fill="#AA6C3B" d="M14.69026,3.10844c0.22361-0.05113,0.44722-0.05105,0.67082,0.00003
		c-0.00823,0.00456-0.01647,0.00912-0.02469,0.0137c-0.20715,0.00295-0.41431,0.00297-0.62147,0.00002
		C14.7067,3.11761,14.69848,3.11302,14.69026,3.10844z"/>
	<path fill="#AD7142" d="M15.80831,3.2349c-0.15284-0.01434-0.30062-0.05226-0.44747-0.09451
		c0.07446-0.02429,0.14892-0.02423,0.22336,0.00006C15.64804,3.19735,15.74825,3.1692,15.80831,3.2349z"/>
	<path fill="#AD7142" d="M17.91573,5.61223c0.02556,0.01375,0.03112,0.03735,0.0317,0.0634
		c0.04778,0.09519,0.04772,0.1904,0.00004,0.2856c0.00002,0.01056-0.00023,0.02111-0.00076,0.03166
		C17.88203,5.87036,17.9313,5.7387,17.91573,5.61223z"/>
	<path fill="#AA6C3B" d="M14.21125,3.23508c-0.0055-0.06907,0.0739-0.05327,0.09608-0.09467
		c0.05317-0.00007,0.10634-0.00015,0.15951-0.00022c0.00211,0.0068,0.00421,0.0136,0.00633,0.0204
		c-0.03151,0.05466-0.09764,0.00321-0.13399,0.04306C14.29933,3.22534,14.25794,3.24082,14.21125,3.23508z"/>
	<path fill="#AA6C3B" d="M17.27714,4.1857c-0.06062-0.03821-0.1193-0.07799-0.12882-0.1574
		C17.24202,4.03984,17.27917,4.09698,17.27714,4.1857z"/>
	<path fill="#A86835" d="M17.97937,5.67569c0.05072,0.09511,0.05114,0.19019-0.00016,0.28524
		c-0.02441-0.09504-0.02441-0.19008,0-0.28511L17.97937,5.67569z"/>
	<path fill="#AD7040" d="M17.97921,5.67581c0,0.09504,0,0.19008,0,0.28512c-0.01058,0.00002-0.02116,0.00011-0.03174,0.0003
		c-0.00001-0.09519-0.00002-0.19039-0.00004-0.28559C17.95803,5.67572,17.96862,5.67578,17.97921,5.67581z"/>
	<path fill="#AA6C3B" d="M15.58421,3.14045c-0.07445-0.00002-0.14891-0.00004-0.22336-0.00006c0,0,0,0.00002,0,0.00002
		c-0.01039-0.00702-0.01385-0.01405-0.01041-0.0211c0.00344-0.00704,0.00688-0.01057,0.01037-0.01057
		c0,0,0.00027-0.00028,0.00027-0.00028C15.4352,3.1209,15.51718,3.07932,15.58421,3.14045z"/>
	<path fill="#AA6C3B" d="M14.46684,3.14019c0.06727-0.06053,0.14919-0.0195,0.22342-0.03175c0,0,0.00027,0.00028,0.00027,0.00028
		c0.01041,0.00705,0.01385,0.01408,0.01037,0.0211c-0.00347,0.007-0.00694,0.01051-0.01045,0.01051V3.14032
		c-0.07447,0.023-0.14896,0.02541-0.22346,0.00011L14.46684,3.14019z"/>
	<path fill="#B37C50" d="M15.99826,2.82923c0.52911,0.15552,0.99139,0.42274,1.37993,0.81325
		c-0.12382,0.00707-0.18168-0.09883-0.26474-0.15776c-0.35475-0.25169-0.72819-0.46594-1.1458-0.59798
		C15.94886,2.85236,15.97599,2.84207,15.99826,2.82923z"/>
	<path fill="#B1784B" d="M15.99826,2.82923c-0.0102,0.01917-0.02041,0.03834-0.03061,0.05751
		c-0.02342-0.00379-0.04684-0.00758-0.07026-0.01137c0.01437-0.01856,0.02874-0.03712,0.04313-0.05569
		C15.95978,2.82286,15.97902,2.82604,15.99826,2.82923z"/>
	<path fill="#AD7141" d="M17.97937,9.76424c-0.01342,0.05599-0.02088,0.11434-0.06369,0.15871
		c-0.03804,0.00514-0.05149-0.02135-0.06424-0.04888c-0.03652-0.25087-0.01153-0.50327-0.01621-0.75498
		c-0.0045-0.24164-0.00041-0.48343-0.00135-0.72515c-0.00023-0.05751,0.00343-0.11611-0.02722-0.16827
		c-0.08727-0.07719-0.16134-0.00824-0.23222,0.02666c-0.73369,0.36122-1.46582,0.72554-2.19842,1.08893
		c-0.07606,0.03773-0.15053,0.07891-0.23046,0.1087c-0.1491,0.06527-0.27872,0.00237-0.40801-0.06162
		c-0.75361-0.37299-1.50559-0.74923-2.2594-1.12181c-0.08606-0.04254-0.17216-0.08036-0.26943-0.08688
		c-0.0163-0.00461-0.03074-0.01252-0.04357-0.02344c-0.01116-0.01531-0.01055-0.03019,0.00173-0.04459
		c0.114-0.06302,0.20441,0.01276,0.29449,0.05708c0.76674,0.37724,1.53342,0.75472,2.29572,1.14067
		c0.17908,0.09066,0.33362,0.08785,0.51089-0.00316c0.73615-0.37793,1.47687-0.74707,2.21647-1.11835
		c0.0563-0.02826,0.11691-0.04806,0.17552-0.07179c0.08516-0.02466,0.1703-0.02471,0.25545,0.00007
		c0.02821,0.06107,0.07174,0.11707,0.06394,0.19008c0.0344,0.25555,0.01271,0.51232,0.01342,0.76838
		C17.99343,9.30437,18.01294,9.53498,17.97937,9.76424z"/>
	<path fill="#AB6E3D" d="M14.91385,11.09536c-0.29806-0.06126-0.56569-0.20482-0.84641-0.31223
		c-0.5732-0.2193-1.1418-0.45042-1.71294-0.67505c-0.25158-0.09894-0.34614-0.2333-0.34623-0.50378
		c-0.00013-0.39572-0.00058-0.79143,0.00038-1.18715c0.00024-0.09994,0.00056-0.20154,0.09483-0.26968
		c0.03441,0.0326,0.03515,0.07366,0.03152,0.11682c-0.04014,0.47768-0.00852,0.95624-0.01747,1.43432
		c-0.0009,0.04799,0.00573,0.09444,0.03074,0.13647c0.01552,0.02068,0.03042,0.04199,0.04695,0.06185
		c0.08381,0.0872,0.19718,0.12044,0.30489,0.1637c0.71787,0.2883,1.43824,0.57044,2.15614,0.85866
		c0.1572,0.06312,0.31427,0.13086,0.4918,0.08321c0.03042-0.00816,0.06331,0.00289,0.08571,0.03027
		c-0.03325,0.03998-0.07757,0.05762-0.12817,0.06258C15.04168,11.11939,14.97777,11.11939,14.91385,11.09536z"/>
	<path fill="#B47E52" d="M15.23377,11.03278c-0.35152,0.09835-0.63627-0.10206-0.93633-0.21581
		c-0.62833-0.23819-1.2511-0.49092-1.87455-0.7416c-0.0912-0.03667-0.19341-0.06237-0.25525-0.15109
		c0.08198-0.06378,0.15326-0.00243,0.22243,0.02486c0.81047,0.3197,1.62088,0.63959,2.42907,0.96489
		c0.13329,0.05365,0.24844,0.05251,0.38206,0.00074c0.24159-0.09361,0.47099-0.22216,0.73103-0.26675
		c0.02641,0.00226,0.05054,0.01035,0.07131,0.02715c0.01648,0.02479,0.01332,0.04845-0.00425,0.07123
		c-0.02109,0.00022-0.04219,0.00044-0.06328,0.00066c-0.10263,0.05176-0.21224,0.08618-0.31939,0.12673
		C15.49607,10.94355,15.36469,10.98763,15.23377,11.03278z"/>
	<path fill="#B47E52" d="M12.131,9.89162c-0.05334-0.0526-0.05966-0.11881-0.05951-0.18888
		c0.00089-0.43578-0.00118-0.87158,0.00185-1.30734c0.00058-0.0827,0.01963-0.16527,0.03015-0.24791
		c0.01365-0.025,0.03683-0.03338,0.06342-0.03583c0.00148,0.00853,0.00203,0.01717,0.00164,0.02586
		c0.03546,0.15643,0.01659,0.31512,0.01784,0.47272c0.00279,0.35309,0.00231,0.70623-0.00016,1.05933
		C12.18568,9.74671,12.19953,9.83,12.131,9.89162z"/>
	<path fill="#AB6D3C" d="M17.75585,10.04957c-0.30818,0.15426-0.62801,0.27966-0.95774,0.3805
		c-0.01092-0.01274-0.01531-0.02741-0.01324-0.04402c0.09276-0.1096,0.23674-0.11748,0.35506-0.1765
		c0.0625-0.01093,0.12006-0.03597,0.17726-0.0622c0.08822-0.03296,0.17469-0.07016,0.26295-0.10273
		C17.63889,10.02295,17.6988,9.99621,17.75585,10.04957z"/>
	<path fill="#AE7243" d="M16.79775,10.39783c0.00012,0.01075,0.00024,0.02149,0.00036,0.03224
		c-0.22298,0.14306-0.49133,0.17275-0.72622,0.28612c-0.02356,0.01137-0.04836,0.02021-0.07259,0.03021
		c0.00023-0.02095,0.00047-0.0419,0.00071-0.06284c0.22639-0.15172,0.48629-0.22466,0.74114-0.30909
		C16.76135,10.36778,16.78151,10.38346,16.79775,10.39783z"/>
	<path fill="#AB6D3C" d="M17.97937,9.76424c0-0.48601,0-0.97202,0-1.45803c0.03428,0.02598,0.0318,0.06352,0.0318,0.10018
		c0.00004,0.41922,0.00004,0.83845,0,1.25768C18.01116,9.70072,18.01364,9.73826,17.97937,9.76424z"/>
	<path fill="#B47D51" d="M17.75585,10.04957c-0.16457-0.01182-0.28751,0.12084-0.44694,0.12687
		c-0.00209-0.00692-0.00419-0.01383-0.00632-0.02078c0.01192-0.03672,0.04031-0.06093,0.06658-0.08696
		c0.15228-0.07234,0.29534-0.17225,0.47674-0.15852c0.03992,0.06739-0.03043,0.07615-0.05812,0.10762
		C17.77715,10.02839,17.7665,10.03898,17.75585,10.04957z"/>
	<path fill="#AE7243" d="M15.61662,10.87378c0.09529-0.06998,0.20209-0.1114,0.31939-0.12673
		C15.84689,10.83234,15.74036,10.87442,15.61662,10.87378z"/>
	<path fill="#A86834" d="M17.91543,8.11613c-0.08515-0.00002-0.1703-0.00004-0.25545-0.00007
		C17.74514,8.06714,17.83029,8.06709,17.91543,8.11613z"/>
	<path fill="#AB6D3C" d="M17.78779,10.0178c0.01956-0.03523,0.03912-0.07046,0.05867-0.10568
		c0.00381-0.02015,0.01271-0.03275,0.03605-0.02397c0.01105,0.0116,0.02211,0.0232,0.03316,0.0348
		C17.88712,9.97325,17.85246,10.01546,17.78779,10.0178z"/>
	<path fill="#AA6C3A" d="M14.91385,11.09536c0.06392,0,0.12783,0,0.19175,0C15.04168,11.14318,14.97777,11.14318,14.91385,11.09536z
		"/>
	<path fill="#B1784B" d="M11.56124,6.94348c0.04273-0.07796,0.11231-0.12407,0.19139-0.1589
		c0.05867-0.02357,0.11927-0.04331,0.17573-0.07127c0.93749-0.46426,1.87449-0.9295,2.81152-1.39467
		c0.1506-0.07476,0.30142-0.13916,0.46167-0.02339c-0.02317,0.02819-0.05524,0.03405-0.08913,0.03543
		c-0.08739-0.01522-0.16571,0.00651-0.24482,0.04598c-1.01652,0.50709-2.03179,1.0168-3.05444,1.51146
		c-0.17306,0.08371-0.17353,0.21754-0.20106,0.3583c-0.00925,0.01574-0.02297,0.02256-0.04118,0.02067
		C11.47173,7.16203,11.51488,7.0528,11.56124,6.94348z"/>
	<path fill="#B27A4D" d="M18.26651,6.7853c0.06369,0.05281,0.12739,0.10563,0.19108,0.15844
		c0.05178,0.11116,0.08517,0.22133-0.01752,0.32423c-0.05533-0.02455-0.05451-0.07734-0.0519-0.12219
		c0.0078-0.13361-0.06972-0.19759-0.17896-0.25075c-0.37262-0.18133-0.74351-0.36619-1.11402-0.55175
		c-0.06567-0.03289-0.13919-0.05616-0.1817-0.12352c-0.00842-0.02515-0.00613-0.04844,0.01223-0.06888
		c0.39139,0.15839,0.75644,0.3706,1.13823,0.54859C18.13037,6.73042,18.19894,6.7568,18.26651,6.7853z"/>
	<path fill="#B57F54" d="M16.92573,6.15087c0.00008,0.01909,0.00017,0.03818,0.00025,0.05726
		c-0.06923,0.03802-0.122-0.01113-0.17554-0.03748c-0.50665-0.24944-1.01179-0.50188-1.51749-0.75322
		c-0.05386-0.02677-0.12404-0.04098-0.13473-0.11853c0.03444-0.00121,0.06888-0.00243,0.10332-0.00365
		c0.39983,0.17877,0.797,0.362,1.17191,0.59044c0.13435,0.08186,0.27297,0.16196,0.42869,0.20149
		C16.84922,6.09914,16.89399,6.11144,16.92573,6.15087z"/>
	<path fill="#AA6C3B" d="M18.41428,7.25484c0.12294-0.08881,0.04898-0.20464,0.04332-0.31109
		c0.11898,0.17926,0.07321,0.34947-0.13409,0.49169c-0.03027,0.02077-0.06538,0.0347-0.09856,0.05117
		c-0.9819,0.48739-1.96444,0.97352-2.9453,1.46297c-0.20813,0.10385-0.40226,0.10641-0.58913-0.04132
		c0.01782-0.01814,0.03981-0.02604,0.0649-0.02636c0.01579,0.00083,0.03127,0.0039,0.04634,0.00855
		c0.1387,0.05491,0.27662,0.06813,0.41266-0.00839c0.52443-0.26518,1.04734-0.53291,1.58099-0.78025
		c0.48057-0.22274,0.95131-0.46649,1.42487-0.70399c0.05326-0.02671,0.09483-0.06679,0.1335-0.11064
		C18.37048,7.26999,18.38936,7.25678,18.41428,7.25484z"/>
	<path fill="#B2794C" d="M14.75438,8.90827c-0.02129,0-0.04257-0.00001-0.06386-0.00002
		c-0.04932-0.02979-0.0968-0.06321-0.14824-0.08881c-0.69766-0.34719-1.39213-0.70107-2.09618-1.03503
		c-0.21833-0.10356-0.44302-0.1962-0.66128-0.30173c-0.07776-0.0376-0.14886-0.08092-0.19181-0.15888
		c-0.01828-0.01925-0.01917-0.03961-0.00393-0.06098l0.01175-0.0082c0.05279-0.00457,0.08411,0.03349,0.12151,0.05973
		c0.06245,0.05097,0.13686,0.08104,0.20805,0.11635c0.88485,0.43901,1.76894,0.87952,2.65341,1.31929
		C14.65316,8.78448,14.75529,8.79479,14.75438,8.90827z"/>
	<path fill="#AA6C3B" d="M11.58908,7.26282c0.00131,0.02033,0.00262,0.04066,0.00393,0.06098
		c-0.12373-0.12741-0.13216-0.22828-0.03178-0.38033C11.55388,7.05135,11.4837,7.16463,11.58908,7.26282z"/>
	<path fill="#FEFEFE" d="M17.87991,6.11418c-0.00741,0.0017-0.01491,0.00264-0.02251,0.00281
		c-0.01243-0.00871-0.03418-0.0081-0.03194-0.03148c-0.65837-0.32872-1.31638-0.65816-1.97532-0.98573
		c-0.19359-0.09623-0.38984-0.18718-0.58488-0.28055c-0.05439-0.03102,0.00716-0.06282-0.00065-0.09415
		c-0.05494-0.0753-0.02492-0.16166-0.03088-0.24301c-0.01198-0.16322-0.05472-0.20215-0.22981-0.20051
		c-0.19149,0.00179-0.21245,0.02341-0.21886,0.20052c-0.00294,0.08136,0.02462,0.16764-0.0302,0.243
		c-0.00722,0.05002-0.00938,0.10254-0.0645,0.12896c-0.1927,0.12156-0.40242,0.21081-0.60565,0.31215
		c-0.55338,0.27594-1.10719,0.55107-1.66136,0.82548c-0.05681,0.02813-0.11505,0.05387-0.16523,0.09357
		c-0.03001,0.00144-0.06003,0.00289-0.09004,0.00433c-0.08285-0.1859-0.02382-0.37304,0.01181-0.5531
		c0.29137-1.4723,1.64034-2.46951,3.13705-2.32699c1.26686,0.12063,2.37585,1.19291,2.53699,2.44785
		C17.87349,5.80975,17.88455,5.96113,17.87991,6.11418z"/>
	<path fill="#AD7142" d="M14.69045,3.14033c-0.00003-0.01054,0-0.02108,0.00008-0.03162
		c0.22343,0.00001,0.44685,0.00002,0.67028,0.00003c0.00009,0.01055,0.0001,0.02111,0.00004,0.03166
		C15.13738,3.14038,14.91392,3.14036,14.69045,3.14033z"/>
	<path fill="#AD7142" d="M14.467,3.14043c0.07449-0.00004,0.14897-0.00008,0.22346-0.00011
		c-0.11344,0.04105-0.22995,0.06534-0.35128,0.06333C14.36664,3.1524,14.43942,3.19145,14.467,3.14043z"/>
	<path fill="#B57F53" d="M12.25811,6.08523c0.00253-0.0529,0.04685-0.06517,0.0838-0.0835
		c0.76264-0.37839,1.52537-0.7566,2.28844-1.13411c0.01784-0.00883,0.03991-0.00924,0.06-0.01358
		c-0.02787,0.05518-0.07756,0.08412-0.13075,0.11049c-0.73223,0.363-1.4641,0.72673-2.19661,1.08917
		C12.33076,6.06964,12.29319,6.07495,12.25811,6.08523z"/>
	<path fill="#B8855C" d="M14.75485,4.72507c-0.00172-0.12523-0.01226-0.2511-0.00315-0.37555
		c0.0148-0.20207,0.1778-0.093,0.26643-0.09829c0.08181-0.00488,0.23935-0.09425,0.25,0.09823
		c0.0069,0.12476-0.00181,0.25037-0.00353,0.3756c-0.01027-0.00024-0.02054-0.00038-0.03082-0.00044
		c-0.04295-0.0913,0.01158-0.1936-0.03262-0.28476c-0.03167-0.03191-0.06334-0.06381-0.09501-0.09572
		c-0.07488-0.08842-0.14969-0.04901-0.22449,0.00011c-0.04221,0.01795-0.06365,0.04957-0.06371,0.09528
		c-0.04336,0.09139,0.01047,0.19363-0.03229,0.28509C14.77539,4.72469,14.76512,4.72483,14.75485,4.72507z"/>
	<path fill="#B1784A" d="M14.88165,4.34426c0.07479-0.08395,0.1496-0.11318,0.22449-0.00011
		C15.03129,4.28937,14.95648,4.32885,14.88165,4.34426z"/>
	<path fill="#B1784A" d="M14.78566,4.72463c0.0148-0.09458-0.03128-0.19595,0.03229-0.28509
		C14.80412,4.53423,14.85063,4.63565,14.78566,4.72463z"/>
	<path fill="#B1784A" d="M15.20116,4.43987c0.06435,0.08889,0.0176,0.19031,0.03262,0.28477
		C15.16864,4.63584,15.21572,4.53438,15.20116,4.43987z"/>
	<path fill="#AD7040" d="M17.82545,6.08551c0.01064,0.01049,0.02129,0.02099,0.03194,0.03148
		c-0.06578,0.0008-0.13156,0.0016-0.19735,0.00239c-0.00006-0.01054-0.00008-0.02108-0.00006-0.03162
		C17.71514,6.08701,17.77029,6.08626,17.82545,6.08551z"/>
	<path fill="#FEFEFE" d="M17.88252,9.88815c-0.01202,0.00799-0.02403,0.01599-0.03605,0.02398
		c-0.16303,0.05373-0.32269,0.11567-0.47609,0.19285c-0.04743,0.03162-0.0987,0.05693-0.14657,0.08814
		c-0.01384,0.00694-0.02839,0.01117-0.04366,0.01337c-0.34185,0.12198-0.67695,0.26087-1.0142,0.3942
		c-0.0787,0.03112-0.15906,0.05487-0.23967,0.07898c-0.24205,0.09159-0.48651,0.17748-0.72517,0.27704
		c-0.12929,0.05393-0.24099,0.05865-0.37557,0.00406c-0.83857-0.34021-1.68097-0.67111-2.52262-1.00382
		c-0.04268-0.01687-0.08315-0.05104-0.13526-0.03268c-0.01221-0.01088-0.02443-0.02176-0.03664-0.03265
		c0.00082-0.52586,0.0005-1.05173,0.00407-1.57758c0.0004-0.05881-0.02741-0.12732,0.03347-0.17653
		c0.01038,0.00345,0.02076,0.0069,0.03114,0.01035c0.09453,0.01688,0.1793,0.05842,0.26458,0.10006
		c0.80627,0.3937,1.60186,0.80849,2.40835,1.20138c0.08253,0.04583,0.16557,0.07442,0.25085,0.00533
		c0.02001-0.00979,0.03969-0.02001,0.05959-0.03009c0.7958-0.38324,1.58624-0.77686,2.37335-1.17707
		c0.08433-0.04288,0.16948-0.08271,0.26364-0.09949c0.09365-0.00672,0.06557,0.06512,0.06561,0.10911
		C17.88614,8.80078,17.88399,9.34447,17.88252,9.88815z"/>
	<path fill="#B37B4F" d="M14.88064,9.47963c-0.27468-0.13366-0.55046-0.26516-0.82383-0.40141
		c-0.61967-0.30887-1.23816-0.62008-1.85713-0.93035c0.09413-0.0123,0.17522,0.02209,0.2574,0.06305
		c0.77259,0.38504,1.54624,0.76798,2.31923,1.15224c0.11516,0.05725,0.22956,0.11085,0.36117,0.05248
		c0.01283,0.01019,0.03211,0.01355,0.03585,0.03337c-0.01145,0.01024-0.02289,0.02048-0.03434,0.03073
		C15.05286,9.51707,14.96674,9.51734,14.88064,9.47963z"/>
	<path fill="#B47D51" d="M15.17333,9.449c-0.01195-0.01112-0.0239-0.02225-0.03585-0.03337
		c0.81316-0.40341,1.62667-0.80614,2.43894-1.21131c0.0784-0.0391,0.15569-0.06602,0.24363-0.05632
		c-0.7876,0.39131-1.57485,0.78332-2.36326,1.17301C15.36406,9.36684,15.278,9.42873,15.17333,9.449z"/>
	<path fill="#B78258" d="M15.92627,10.67967c0.42005-0.18827,0.84753-0.35812,1.28264-0.50899
		c0.03202,0.06737-0.0472,0.03975-0.05981,0.06901c-0.11711,0.05271-0.23422,0.10542-0.35134,0.15814
		c-0.21327,0.04157-0.4008,0.15245-0.60408,0.22091C16.12916,10.64047,16.06456,10.66195,16,10.68355
		C15.97543,10.68226,15.95085,10.68097,15.92627,10.67967z"/>
	<path fill="#B47D51" d="M17.14909,10.23969c0.01994-0.02299,0.03988-0.04598,0.05981-0.06899
		c0-0.00002-0.00027,0.00177-0.00027,0.00177c0.03383-0.01348,0.06746-0.02137,0.09994,0.00349c0,0,0.00034,0.00047,0.00034,0.00048
		C17.2672,10.2263,17.21156,10.24151,17.14909,10.23969z"/>
	<path fill="#B78258" d="M17.30857,10.17596c-0.0333-0.00115-0.0666-0.0023-0.09992-0.00347
		c0.0452-0.04305,0.10174-0.05935,0.16173-0.0675C17.34978,10.12864,17.32918,10.1523,17.30857,10.17596z"/>
	<path fill="#FEFEFE" d="M11.68923,7.32733c-0.02947-0.02423-0.05894-0.04846-0.0884-0.0727
		c-0.04706-0.23792,0.0747-0.34584,0.28329-0.44615c1.00247-0.48212,1.99584-0.98288,2.99213-1.47763
		c0.07123-0.03537,0.14048-0.07244,0.22199-0.03195c0.60131,0.31879,1.21276,0.61752,1.82775,0.90924
		c0.40706,0.20398,0.80831,0.42079,1.22363,0.60659c0.21002,0.09396,0.31552,0.21052,0.26467,0.44011
		c-0.00735,0.01067-0.01469,0.02134-0.02203,0.03201c-0.06308,0.0581-0.13822,0.0967-0.21434,0.13496
		c-0.93381,0.46936-1.87788,0.91824-2.81168,1.38762c-0.07599,0.0382-0.15101,0.07772-0.22311,0.12277
		c-0.08676,0.04118-0.17359,0.02412-0.26044,0.00053c-0.96165-0.51522-1.95147-0.9753-2.92431-1.46866
		C11.86862,7.41854,11.77702,7.37663,11.68923,7.32733z"/>
	<path fill="#B68156" d="M15.13584,8.90798c0.37288-0.1889,0.74449-0.38031,1.11889-0.56618
		c0.71167-0.35332,1.42492-0.70347,2.13752-1.05495c-0.03223,0.07887-0.09937,0.11945-0.17148,0.15518
		c-0.45988,0.22782-0.91469,0.46646-1.38071,0.68115c-0.5418,0.2496-1.06905,0.52752-1.60637,0.78555
		C15.20092,8.92868,15.16826,8.93381,15.13584,8.90798z"/>
	<path fill="#B78359" d="M11.68923,7.32733c0.04356,0.01703,0.0887,0.0309,0.13043,0.05156
		c0.97609,0.48312,1.95188,0.96685,2.92742,1.45105c0.04682,0.02324,0.09091,0.05189,0.13626,0.07802
		c-0.03229,0.02583-0.06479,0.02079-0.09741,0.00069c-0.01052,0.00008-0.02105-0.00004-0.03157-0.00037
		c-0.02963-0.0651-0.09693-0.07844-0.15233-0.10601c-0.91921-0.45738-1.83908-0.91343-2.75828-1.37083
		C11.78822,7.40379,11.72162,7.38983,11.68923,7.32733z"/>
	<path fill="#B47E52" d="M14.78594,8.90865c0.03247-0.00023,0.06493-0.00046,0.0974-0.00069
		c0.08417,0.03403,0.16833,0.05453,0.2525,0.00002c0.03261,0.00025,0.06522,0.00049,0.09784,0.00074
		C15.08442,9.00717,14.93517,9.0074,14.78594,8.90865z"/>
	<path fill="#BE8F69" d="M14.88064,9.47963c0.08611,0.00003,0.17223,0.00006,0.25835,0.0001
		C15.05284,9.56319,14.96673,9.5632,14.88064,9.47963z"/>
	<path fill="#AC7040" d="M13.70249,7.11836c0-0.22132,0.00359-0.44272-0.00176-0.66391
		c-0.00215-0.08879,0.02612-0.1149,0.11649-0.11804c0.40204-0.01395,0.40221-0.01704,0.40205,0.37466
		c-0.00014,0.35306-0.00405,0.70615,0.00047,1.05914c0.00125,0.09766-0.03144,0.12272-0.12734,0.12453
		c-0.39116,0.00738-0.3911,0.01075-0.39112-0.38116c0-0.13174,0-0.26348,0-0.39521
		C13.70169,7.11836,13.70209,7.11836,13.70249,7.11836z"/>
	<path fill="#B47D51" d="M14.75067,7.10121c0-0.38518,0.00339-0.7704-0.00225-1.15549
		c-0.00152-0.10374,0.0296-0.13444,0.13445-0.13536c0.38694-0.00338,0.38709-0.00714,0.38699,0.37425
		c-0.00018,0.69648-0.00327,1.39298,0.00169,2.08943c0.00083,0.11726-0.02997,0.15294-0.15097,0.15175
		c-0.37081-0.00362-0.37092,0.00171-0.37101-0.35901c-0.00008-0.32186-0.00002-0.64372-0.00002-0.96558
		C14.74993,7.10121,14.7503,7.10121,14.75067,7.10121z"/>
	<path fill="#AD7242" d="M16.3171,7.12294c0,0.22139-0.00336,0.44286,0.00172,0.66414
		c0.00193,0.08428-0.02812,0.10423-0.10957,0.10743c-0.40934,0.01609-0.40947,0.01858-0.40931-0.38169
		c0.00013-0.34791,0.00443-0.69587-0.00087-1.04369c-0.00161-0.10525,0.03533-0.13158,0.13686-0.13322
		c0.38244-0.00619,0.38239-0.00974,0.38242,0.37586c0.00001,0.13705,0,0.27411,0,0.41116
		C16.31793,7.12294,16.31752,7.12294,16.3171,7.12294z"/>
	<path fill="#B78257" d="M12.89287,7.35785c-0.24373-0.00056-0.24535-0.00058-0.24241-0.29064
		c0.00251-0.24681-0.03536-0.21136,0.31085-0.21086c0.22899,0.00033,0.20303-0.04441,0.20067,0.28495
		C13.16019,7.39084,13.21254,7.35206,12.89287,7.35785z"/>
	<path fill="#BA875E" d="M17.09753,7.35853c-0.24285-0.00024-0.24557-0.00029-0.24162-0.2619
		c0.00431-0.28548-0.04189-0.23981,0.27899-0.24139c0.27393-0.00135,0.2355-0.02771,0.23395,0.27231
		C17.36746,7.39379,17.42131,7.35226,17.09753,7.35853z"/>
	<path fill="#9F5921" d="M14.08367,7.1019c0.00001,0.15295-0.00136,0.30591,0.00053,0.45883
		c0.00109,0.08839-0.02142,0.16577-0.12191,0.17067c-0.1065,0.0052-0.12995-0.0847-0.1312-0.16395
		c-0.0049-0.31109-0.00453-0.62232-0.00047-0.93343c0.00116-0.08844,0.06127-0.1586,0.14696-0.15646
		c0.08924,0.00222,0.10776,0.08434,0.10667,0.16552C14.08221,6.79599,14.08366,6.94896,14.08367,7.1019z"/>
	<path fill="#A86935" d="M15.20104,7.11766c0,0.32211,0.00107,0.64422-0.00044,0.96633
		c-0.00077,0.16437-0.07763,0.26469-0.19851,0.25035c-0.14483-0.01718-0.18477-0.11826-0.18443-0.25009
		c0.00167-0.64422,0.0001-1.28844,0.00121-1.93266c0.00028-0.16437,0.07761-0.26469,0.1985-0.25035
		c0.14483,0.01718,0.18539,0.11825,0.18443,0.2501C15.19947,6.47343,15.20104,6.79555,15.20104,7.11766z"/>
	<path fill="#A25E28" d="M16.19113,7.11261c0.00004,0.16299-0.00121,0.32599,0.00055,0.48897
		c0.0009,0.08343-0.02641,0.14893-0.115,0.16203c-0.08293,0.01227-0.12095-0.0502-0.15127-0.11469
		c-0.00668-0.01422-0.01649-0.02942-0.01629-0.04405c0.00448-0.33524-0.03214-0.67112,0.01898-1.00575
		c0.01283-0.084,0.03971-0.1431,0.13846-0.1295c0.08894,0.01225,0.12479,0.06904,0.12462,0.15402
		C16.19086,6.78663,16.1911,6.94962,16.19113,7.11261z"/>
	<path fill="#A86835" d="M12.74212,7.14437c-0.00105-0.13736,0.04237-0.19766,0.14908-0.20076
		c0.11224-0.00326,0.19038,0.05108,0.19708,0.15978c0.00616,0.09996-0.06259,0.17886-0.16307,0.17955
		C12.82441,7.28364,12.74453,7.22611,12.74212,7.14437z"/>
	<path fill="#AC703F" d="M17.04515,7.2973c-0.06977,0.00633-0.12794-0.07126-0.14499-0.17817
		c-0.01372-0.08598,0.11234-0.20912,0.2012-0.20591c0.12331,0.00446,0.20091,0.07123,0.20432,0.19364
		C17.30927,7.23576,17.22471,7.28901,17.04515,7.2973z"/>
	<path fill="#A4612C" d="M14.88205,7.10104c0-0.31614,0.001-0.63229-0.00063-0.94843
		c-0.00047-0.09129,0.01083-0.18225,0.12141-0.18628c0.12236-0.00446,0.13525,0.09046,0.1351,0.18817
		c-0.00104,0.64282-0.00107,1.28565,0.00008,1.92847c0.00016,0.09127-0.01082,0.18225-0.12139,0.18628
		c-0.12235,0.00446-0.13555-0.09046-0.13511-0.18817C14.88295,7.7544,14.88205,7.42772,14.88205,7.10104z"/>
	<path fill="#9F5921" d="M15.99962,7.12429c0.00003-0.15269-0.00091-0.30539,0.00057-0.45806
		c0.00049-0.05077-0.00873-0.11989,0.06701-0.11855c0.06264,0.00111,0.05955,0.06345,0.05966,0.11034
		c0.00068,0.29485,0.00012,0.58969,0.00059,0.88454c0.0001,0.06126-0.00933,0.13486-0.07683,0.13491
		c-0.07333,0.00006-0.0489-0.07922-0.04993-0.12673C15.99761,7.40865,15.99958,7.26645,15.99962,7.12429z"/>
	<path fill="#A3602A" d="M12.99694,7.08829c-0.0021,0.07367-0.03417,0.10733-0.09854,0.10646
		c-0.04794-0.00065-0.08542-0.02367-0.08601-0.07279c-0.00071-0.05927,0.03966-0.09825,0.09532-0.10807
		C12.96785,7.00329,12.989,7.04713,12.99694,7.08829z"/>
	<path fill="#A3602A" d="M17.23674,7.11114c-0.02619,0.06363-0.0507,0.12645-0.13165,0.11444
		c-0.0697-0.01034-0.11376-0.05454-0.11284-0.12698c0.001-0.07889,0.06466-0.11405,0.12612-0.1093
		C17.18044,6.99409,17.22375,7.04807,17.23674,7.11114z"/>
	<path fill="#9F5920" d="M15.07353,7.12109c0.00001,0.31687,0.00054,0.63374-0.00052,0.95061
		c-0.00017,0.05056,0.01104,0.12234-0.06274,0.12293c-0.07428,0.0006-0.06377-0.07122-0.06384-0.12179
		c-0.0008-0.63902-0.00078-1.27804-0.00005-1.91706c0.00006-0.05137-0.00624-0.1208,0.07046-0.11539
		c0.06044,0.00426,0.05639,0.06698,0.05645,0.11426C15.07371,6.47679,15.07351,6.79894,15.07353,7.12109z"/>
</g>
</svg>
