<?xml version="1.0" encoding="utf-8"?>
<!-- Generator: Adobe Illustrator 23.0.0, SVG Export Plug-In . SVG Version: 6.00 Build 0)  -->
<svg version="1.1" id="Слой_1" xmlns="http://www.w3.org/2000/svg" xmlns:xlink="http://www.w3.org/1999/xlink" x="0px" y="0px" width="32px" height="13px"
	 viewBox="0 0 32 13" enable-background="new 0 0 32 13" xml:space="preserve">
<g>
	<path fill="#2D2D2D" d="M0.86438,12.99689c-0.02129,0-0.04257,0-0.06386,0c-0.33183-0.05126-0.56626-0.23332-0.72469-0.52323
		c-0.04681-0.08566-0.04517-0.18058-0.07358-0.26911c0-2.20796,0-4.41593,0-6.6239c0.03484-0.02885,0.07491-0.03615,0.11867-0.0287
		c0.30471,0.10753,0.41072,0.26299,0.41096,0.61574c0.00116,1.65234,0.00038,3.30467,0.00055,4.95701
		c0.00003,0.25339-0.00339,0.50683,0.00116,0.76017c0.0063,0.35067,0.20489,0.54537,0.55886,0.55347
		c0.06912,0.00158,0.13828,0.00062,0.20742,0.00062c5.03139,0.00002,10.06278,0.00001,15.09417,0.00004
		c0.07446,0,0.14894-0.00118,0.22337,0.00091c0.30537,0.00858,0.46824,0.1301,0.56346,0.41944
		c0.00416,0.04391-0.00023,0.08515-0.03737,0.11586c-0.06345,0.01024-0.12743,0.00507-0.19116,0.00508
		c-5.29465,0.00028-10.58931,0.00018-15.88396,0.00114C1.00052,12.98146,0.93019,12.9644,0.86438,12.99689z"/>
	<path fill="#262727" d="M31.99691,6.78501c-0.06809,0.03773-0.04715,0.11021-0.0594,0.16591
		c-0.39912,1.81492-1.17801,3.443-2.43218,4.8313c-0.4517,0.50001-0.98541,0.89516-1.64168,1.10545
		c-0.12238,0.03921-0.25887,0.03076-0.36898,0.10923c-0.05322,0-0.10644,0-0.15965,0
		c-0.06033-0.03172-0.1254-0.01548-0.18795-0.0155c-3.31336-0.00108-6.62672-0.00052-9.94008-0.00103
		c-0.02224,0.00184-0.04137-0.00496-0.05738-0.02038c-0.00017-0.02995-0.00034-0.05991-0.00051-0.08987
		c0.08267-0.06982,0.18268-0.04486,0.27569-0.04491c2.59014-0.0014,5.18027-0.00111,7.77041-0.00111
		c0.64355,0,1.2872-0.00727,1.9306,0.00236c0.49167,0.00736,0.93093-0.14304,1.34224-0.3928
		c0.301-0.18277,0.55404-0.4214,0.80717-0.66499c0.73802-0.71021,1.25873-1.56714,1.6928-2.47521
		c0.38063-0.7963,0.69538-1.62145,0.83759-2.5003c0.01682-0.10392,0.00055-0.21207,0.04271-0.31225
		c0.0232-0.0356,0.0571-0.0408,0.09553-0.03289c0.04341,0.0116,0.02779,0.06034,0.05309,0.08344
		C31.99691,6.61598,31.99691,6.7005,31.99691,6.78501z"/>
	<path fill="#1A1A1A" d="M31.96232,6.46722c-0.03099,0.00035-0.06199,0.0007-0.09298,0.00106
		c-0.04772,0.02091-0.07377,0.0121-0.06416-0.04599c0.06061-0.1573,0.01527-0.31387-0.01158-0.46757
		c-0.12272-0.70242-0.36961-1.36663-0.66622-2.01134c-0.40354-0.87713-0.89063-1.70878-1.52856-2.439
		c-0.39678-0.45418-0.846-0.86123-1.39323-1.14126c-0.38106-0.195-0.78998-0.27983-1.21652-0.28014
		c-1.76632-0.00125-3.53264-0.00052-5.29897-0.00052c-5.45857,0-10.91714-0.00002-16.37572,0.00013
		c-0.11167,0-0.22393-0.00668-0.33359,0.02279C4.95084,0.11189,4.92434,0.10824,4.90674,0.07972
		c-0.0107-0.02808-0.00696-0.05389,0.01285-0.07707c7.5676,0,15.1352,0,22.7028,0c0.54719,0.15612,1.03094,0.4241,1.46038,0.79588
		c0.58689,0.50809,1.05576,1.11141,1.46036,1.76593c0.62528,1.01151,1.10949,2.08305,1.37423,3.24579
		c0.02358,0.10358,0.01354,0.21627,0.07955,0.3092c0,0.06339,0,0.12677,0,0.19016
		C31.95632,6.35586,32.00553,6.42153,31.96232,6.46722z"/>
	<path fill="#252525" d="M4.91959,0.00265C4.91953,0.02374,4.91948,0.04483,4.91942,0.06593
		c-0.08125,0.07212-0.18151,0.049-0.2746,0.04914C3.43704,0.11694,2.22925,0.11373,1.02148,0.11741
		c-0.52593,0.0016-0.86555,0.34356-0.87262,0.8654C0.14807,1.0409,0.14857,1.099,0.14857,1.15709
		C0.14854,2.54072,0.14909,3.92435,0.14745,5.30798c-0.00011,0.09241,0.02313,0.1919-0.04936,0.27263
		C0.06614,5.58063,0.03419,5.58065,0.00225,5.58067c0-1.61636,0-3.23271,0-4.84907c0.05855-0.37618,0.26539-0.62436,0.63862-0.72895
		C2.06711,0.00265,3.49335,0.00265,4.91959,0.00265z"/>
	<path fill="#697681" d="M17.1496,12.95999c0.00971,0.00373,0.01962,0.00684,0.02972,0.00935
		c0.01135,0.00546,0.01536,0.01135,0.0121,0.0177c-0.00336,0.00656-0.00681,0.00985-0.0104,0.00985
		c-5.43888,0-10.87776,0-16.31664,0c0.04292-0.06314,0.1075-0.03102,0.16094-0.03103
		c5.32693-0.00157,10.65386-0.00146,15.98079-0.00165C17.05394,12.96421,17.10177,12.96145,17.1496,12.95999z"/>
	<path fill="#535F69" d="M17.18102,12.99689c-0.00011-0.00922-0.00067-0.01842-0.00169-0.02757
		c0.05315-0.00135,0.1063-0.00391,0.15946-0.00392c3.28301-0.00031,6.56602-0.00052,9.84904,0.0004
		c0.04974,0.00001,0.10786-0.02364,0.14719,0.03109C23.95035,12.99689,20.56568,12.99689,17.18102,12.99689z"/>
	<path fill="#404C56" d="M31.96232,6.46722c0.01474-0.05184-0.02379-0.1152,0.03459-0.1576c0,0.07395,0,0.1479,0,0.22185
		C31.96879,6.51885,31.96571,6.49295,31.96232,6.46722z"/>
	<path fill="#202020" d="M0.09808,5.58061c-0.00002-1.54011-0.00012-3.08022,0-4.62033
		c0.00004-0.51903,0.37744-0.89412,0.8997-0.8942C2.305,0.06589,3.61221,0.06596,4.91942,0.06593
		c0.01064,0.01064,0.02128,0.02128,0.03193,0.03192c0.04366,0.02486,0.0649,0.06882,0.09224,0.10741
		c0.08564,0.12087,0.2045,0.18094,0.35126,0.19C5.4799,0.40051,5.56508,0.39828,5.6502,0.39828
		c7.02903,0.00009,14.05806,0.00473,21.08706-0.00879c0.55949-0.00108,1.03711,0.1602,1.51205,0.41332
		c0.69131,0.36843,1.18741,0.92961,1.63128,1.55255c0.4435,0.62242,0.72927,1.32302,1.03921,2.01193
		c0.17585,0.39088,0.33203,0.78997,0.43041,1.20823c0.07687,0.32683,0.1607,0.64821,0.45495,0.86106
		c0.01393,0.02544,0.0379,0.03087,0.06417,0.03169c0.00679,0.4485-0.11965,0.87264-0.25237,1.29329
		C31.47009,8.22714,31.28036,8.6759,31.0855,9.1251c-0.31538,0.72701-0.72503,1.39095-1.19183,2.02606
		c-0.20607,0.28037-0.46843,0.50803-0.70507,0.75982c-0.29875,0.31787-0.64621,0.55719-1.03588,0.74066
		c-0.29409,0.13847-0.60365,0.22004-0.93493,0.21982c-3.35623-0.00217-6.71246-0.00134-10.06869-0.00135
		c-0.10196-0.29204-0.31434-0.38412-0.6164-0.38384c-5.14297,0.0049-10.28595,0.00073-15.4289,0.00971
		c-0.34754,0.00061-0.63121-0.28369-0.6289-0.61815C0.48795,9.9828,0.47759,8.08761,0.48492,6.19251
		C0.48608,5.89258,0.39217,5.68193,0.09808,5.58061z"/>
	<path fill="#131313" d="M31.80517,6.43658c-0.22489-0.05813-0.3148-0.23908-0.38186-0.43071
		c-0.12856-0.36732-0.19735-0.7517-0.34122-1.11654c-0.1529-0.38775-0.32437-0.76677-0.49199-1.14767
		c-0.26204-0.59546-0.58978-1.15121-0.98067-1.67578c-0.54525-0.73173-1.2497-1.23284-2.10033-1.54995
		c-0.14279-0.05323-0.28385-0.07107-0.43435-0.07104C19.86969,0.44658,12.66463,0.44637,5.45958,0.44632
		c-0.29313,0-0.45802-0.11334-0.50822-0.34847c0.00567-0.04424,0.03182-0.06363,0.07582-0.06307
		c0.04254,0.00054,0.0851-0.00036,0.12766-0.00036c7.30342-0.00002,14.60684-0.00124,21.91025,0.00247
		c0.54106,0.00027,1.03348,0.16839,1.48521,0.47661c0.17302,0.11805,0.33561,0.24957,0.50583,0.37034
		c0.13077,0.09278,0.21323,0.25094,0.3406,0.35049c0.23318,0.18225,0.41111,0.41171,0.5741,0.64783
		c0.25722,0.37263,0.50623,0.75076,0.73421,1.14418c0.39927,0.68901,0.70756,1.41264,0.95338,2.16584
		c0.121,0.37076,0.18998,0.7521,0.24066,1.13741C31.90853,6.40144,31.88472,6.44263,31.80517,6.43658z"/>
	<path fill="#262626" d="M14.06766,0.8267c4.25701,0,8.51401,0.00225,12.77102-0.00236
		c0.65997-0.00071,1.2075,0.22913,1.69837,0.66227c0.355,0.31325,0.66578,0.66384,0.93061,1.04396
		c0.38416,0.55142,0.71636,1.13646,0.98286,1.75927c0.14006,0.32733,0.28678,0.65263,0.39899,0.98908
		c0.20164,0.60458,0.31045,1.21578,0.12619,1.85574c-0.13383,0.46483-0.27065,0.93121-0.46643,1.36922
		c-0.28374,0.63483-0.57905,1.27072-0.99249,1.83778c-0.2277,0.3123-0.45438,0.6338-0.73119,0.90031
		c-0.38253,0.3683-0.79656,0.71675-1.35017,0.81545c-0.17602,0.03138-0.35699,0.04989-0.5357,0.04994
		c-8.55658,0.00237-17.11317,0.00207-25.66975,0.00205c-0.03193,0-0.06403,0.00181-0.09575-0.00086
		c-0.20126-0.01691-0.25356-0.06927-0.26892-0.27046c-0.00321-0.04202-0.00087-0.08447-0.00087-0.12672
		c-0.00002-3.49647-0.00003-6.99294,0-10.48941c0-0.3571,0.03865-0.39525,0.40028-0.39526
		C5.53236,0.82669,9.80001,0.8267,14.06766,0.8267z"/>
	<path fill="#2F293B" d="M27.84544,1.11161c0.22199,0.15658,0.47245,0.26324,0.67823,0.45433
		c0.27591,0.25623,0.52407,0.53298,0.74782,0.83054c0.60913,0.81007,1.06618,1.70215,1.41321,2.6509
		c0.02162,0.0591,0.04383,0.11902,0.03462,0.18426C30.69,5.34867,30.65924,5.46536,30.63369,5.58329
		c-0.11056,0.51023-0.61137,0.75847-0.96188,0.78427c-0.57301-0.10664-1.04278-0.38374-1.44559-0.80425
		c-0.46198-0.48226-1.00251-0.8666-1.64615-1.07764c-0.48879-0.16027-0.98822-0.28767-1.49136-0.3987
		c-0.15293-0.0883-0.26747-0.22289-0.40373-0.33169c-0.54089-0.4319-1.16712-0.63278-1.8487-0.62942
		c-0.54638,0.00269-1.05049,0.19637-1.52046,0.47165c-0.25097,0.18271-0.39376,0.15796-0.57723-0.09981
		c-0.03074-0.04319-0.05679-0.08927-0.08305-0.1352c-0.13807-0.24144-0.34839-0.37859-0.62227-0.42265
		c-0.15243-0.02452-0.30547-0.03749-0.46052-0.0374c-2.3728,0.0013-4.74562-0.00243-7.1184,0.00434
		c-0.37564,0.00107-0.6726-0.12031-0.90025-0.4148c-0.042-0.05434-0.08782-0.10602-0.13192-0.15889
		c-0.16238-0.19462-0.36335-0.28885-0.62543-0.28815c-1.84609,0.00498-3.6922,0.00325-5.53831,0.0023
		C4.7987,2.04702,4.4998,1.83504,4.34015,1.4024C4.3299,1.33764,4.30364,1.27572,4.30294,1.209
		c-0.00447-0.03805-0.00214-0.07617-0.0018-0.1144c0.00395-0.05885-0.00576-0.12329,0.064-0.15535
		c0.8563-0.00272,1.71251-0.00104,2.56872-0.00106c6.76467-0.00019,13.52933-0.00009,20.29376-0.00013
		c0.15706,0.02004,0.31321,0.04485,0.45942,0.11041l-0.00074-0.00056C27.73591,1.07758,27.79434,1.08557,27.84544,1.11161z"/>
	<path fill="#4C4158" d="M13.57156,12.01328c-3.51934,0.00037-7.03869,0.00069-10.55803,0.00161
		C2.95425,12.0149,2.89686,12.012,2.84359,11.98343c-0.13763-0.00289-0.22046-0.09821-0.29894-0.18814
		c-0.15796-0.18101-0.24028-0.3954-0.25288-0.6358c-0.01336-0.25497-0.05331-0.29295-0.3168-0.30889
		c-0.43575-0.02636-0.92086-0.44474-0.98814-0.85111C0.97733,9.9421,0.96607,9.88562,0.98977,9.82923
		C0.981,9.7854,0.97222,9.74157,0.96344,9.69773C0.9862,9.65265,0.97616,9.60425,0.97617,9.5574
		c0.00053-2.07016,0.00053-4.14031,0-6.21047c-0.00001-0.04685,0.01-0.09525-0.01269-0.14035
		C0.96263,3.19586,0.96179,3.18513,0.96094,3.17441C1.01347,2.97763,1.10456,2.7993,1.24603,2.65283
		c0.10503-0.10874,0.2138-0.22737,0.39468-0.1878C1.90594,2.5859,2.00078,2.79841,2.00028,3.0788
		c-0.00314,1.74652-0.00079,3.49305-0.0024,5.23958C1.99755,8.66411,2.11622,8.94703,2.40837,9.14694
		c0.15815,0.10822,0.33628,0.15266,0.5267,0.15716C3.0191,9.30609,3.1062,9.29197,3.18352,9.33979
		C3.22691,9.4394,3.12659,9.44859,3.08281,9.4868c-0.22109,0.19296-0.21839,0.51929,0.01023,0.68645
		c0.19165,0.14012,0.45524,0.10834,0.60089-0.07247c0.14763-0.18326,0.12305-0.43644-0.05025-0.60081
		C3.5969,9.45561,3.49234,9.44802,3.52339,9.34279c0.0609-0.04349,0.13155-0.03817,0.20009-0.03843
		C4.05842,9.3031,4.3934,9.30122,4.72832,9.30465C5.09043,9.30836,5.34488,9.5069,5.43606,9.85064
		c0.13536,0.5103,0.44567,0.75169,0.97713,0.75199c2.11602,0.00119,4.23205,0.00043,6.34807,0.00056
		c0.07973,0.00001,0.15964-0.00299,0.23914,0.00414c0.32037,0.02877,0.5861,0.29026,0.61647,0.60799
		c0.00854,0.08931,0.007,0.17921,0.00183,0.26874c-0.0008,0.05438,0.00171,0.10895-0.00224,0.16331
		c-0.00053,0.0343,0.00081,0.06873-0.00124,0.10303c0.00022,0.02497-0.00016,0.05-0.00059,0.07499
		c0.00005,0.04135,0.00001,0.08274-0.00659,0.1238C13.60284,11.97444,13.5892,11.99499,13.57156,12.01328z"/>
	<path fill="#302A3B" d="M30.65617,7.83052c-0.01171,0.18819-0.10268,0.35256-0.17203,0.52062
		c-0.27983,0.67811-0.61034,1.33148-1.03353,1.93401c-0.35774,0.50935-0.74154,0.99486-1.26795,1.35186
		c-0.34052,0.23094-0.69528,0.39942-1.1197,0.37822c-0.11131-0.00556-0.22313-0.00107-0.33471-0.00119
		c-0.0312-0.03609-0.01765-0.07378,0.00854-0.09983c0.10827-0.1077,0.15827-0.24786,0.22655-0.37873
		c0.09463-0.18138,0.24364-0.31611,0.44083-0.36767c0.76191-0.19922,1.25074-0.72961,1.67933-1.33756
		c0.51935-0.7367,0.89847-1.54326,1.20809-2.3847c0.02639-0.07173,0.02963-0.15969,0.11787-0.19594
		C30.57957,7.33756,30.69017,7.59813,30.65617,7.83052z"/>
	<path fill="#322C3E" d="M30.40076,7.25957c-0.19952,0.5547-0.41334,1.10441-0.69351,1.62406
		c-0.3351,0.62154-0.70566,1.22133-1.22077,1.71796c-0.25006,0.24109-0.53334,0.42898-0.87037,0.53187
		c-0.23453,0.0716-0.47535,0.14585-0.59337,0.38578c-0.08538,0.17358-0.18864,0.33441-0.29449,0.49479
		c-4.38555-0.00025-8.77111-0.00049-13.15668-0.00075c0.00069-0.02073,0.00139-0.04144,0.00209-0.06215
		c0.07803-0.06464,0.1721-0.04545,0.2607-0.04551c1.63367-0.00109,3.26734-0.00078,4.90101-0.00078
		c2.40528-0.00001,4.81056-0.00169,7.21582,0.00342c0.17889,0.00038,0.34671-0.04506,0.51869-0.07026
		c0.15178-0.02224,0.24328-0.15119,0.30572-0.28073c0.08847-0.18355,0.25433-0.29518,0.38404-0.43981
		c0.07697-0.08583,0.2016-0.10395,0.30336-0.12703c0.37817-0.08577,0.65693-0.31194,0.92665-0.56879
		c0.29189-0.27796,0.55253-0.58343,0.75168-0.9274c0.26944-0.46537,0.51855-0.9429,0.74503-1.43265
		c0.13614-0.2944,0.1915-0.6236,0.39058-0.88972C30.36352,7.13795,30.39755,7.17734,30.40076,7.25957z"/>
	<path fill="#202020" d="M1.59858,2.47412C1.2997,2.55662,1.16362,2.79532,1.0412,3.0469
		C1.01907,3.09239,1.01852,3.15097,0.96094,3.17439C0.96069,2.92368,0.9608,2.67295,0.95989,2.42222
		C0.95969,2.36441,0.95793,2.30699,0.99254,2.25624c0.00141-0.02298,0.01058-0.04269,0.02531-0.06015
		C1.11624,2.10683,1.2286,2.03788,1.34559,1.97553C1.3806,1.96157,1.41642,1.94997,1.45236,1.93858
		C1.54548,1.9046,1.64757,1.90919,1.73974,1.87182c0.06082-0.03953,0.06272-0.10593,0.07814-0.16645
		C1.85826,1.54692,1.90434,1.39042,1.9833,1.24559C2.01661,1.19695,2.05034,1.14853,2.08671,1.102
		c0.05226-0.05977,0.11137-0.11141,0.18252-0.1484c0.04148-0.04851,0.09823-0.03096,0.1491-0.03113
		c0.34484-0.00116,0.68969-0.0003,1.03454-0.00009C3.46364,0.93572,3.46819,0.9509,3.46662,0.96791
		C3.43432,1.05664,3.35733,1.078,3.27617,1.08525C3.20141,1.09193,3.12908,1.10439,3.0599,1.13291
		C2.99041,1.15955,2.92185,1.18818,2.8614,1.23276C2.78993,1.28789,2.71271,1.3361,2.65408,1.40652
		C2.43077,1.5789,2.34953,1.813,2.34167,2.08519C2.33509,2.31308,2.23373,2.4155,2.00743,2.41876
		C1.86747,2.42077,1.73816,2.48162,1.59858,2.47412z"/>
	<path fill="#202020" d="M30.40076,7.25957c-0.02111-0.04237-0.05321-0.0739-0.09549-0.09539
		c-0.03624-0.00242-0.06257-0.02481-0.09063-0.04388c-0.02658-0.02087-0.0515-0.0438-0.07913-0.06346
		c-0.03304-0.02535-0.0678-0.04786-0.10588-0.06533c-0.04778-0.02457-0.09859-0.04046-0.15046-0.05418
		c-0.13679-0.0427-0.27474-0.07294-0.41909-0.08073c-0.15474-0.00835-0.24807-0.11238-0.24439-0.25324
		c0.00381-0.14596,0.12817-0.27157,0.27479-0.26962c0.05765,0.00076,0.11571,0.00431,0.1736,0.00637
		c0.53052-0.10486,0.88311-0.35902,0.96228-0.91802c0.00987-0.06973,0.01533-0.14963,0.09296-0.19045
		c0.09752,0.23461,0.20184,0.46745,0.19226,0.72986c0.03706,0.1367-0.05513,0.22615-0.12761,0.31634
		c-0.08534,0.10621-0.18832,0.19746-0.3062,0.2698c-0.0827,0.05076-0.07979,0.09762,0.0016,0.15065
		c0.12347,0.08046,0.24473,0.16484,0.32466,0.29342c0.02696,0.04337,0.06914,0.08213,0.0437,0.14145
		c0.0044,0.25093-0.09617,0.47344-0.19156,0.69736C30.61408,7.62123,30.58023,7.40832,30.40076,7.25957z"/>
	<path fill="#202020" d="M0.98977,9.82923c-0.00456,0.23894,0.13547,0.4148,0.26749,0.59193
		c0.19844,0.26624,0.45965,0.40508,0.80212,0.39128c0.17793-0.00717,0.27203,0.08587,0.27198,0.25671
		c-0.00012,0.40119,0.15999,0.70968,0.51224,0.91427c-0.24402,0.05302-0.48797,0.04884-0.73185-0.00094
		c-0.11346-0.03967-0.1462-0.14467-0.19105-0.23775c-0.03198-0.06637-0.05495-0.13919-0.06003-0.21167
		c-0.01169-0.16651-0.10231-0.23494-0.26221-0.2562c-0.17505-0.02328-0.33419-0.09802-0.48002-0.19784
		c-0.05227-0.03578-0.10624-0.07032-0.13152-0.13273c-0.0094-0.01614-0.00741-0.03075,0.00589-0.04383
		c-0.04544-0.0663-0.03585-0.14202-0.03164-0.21438C0.97782,10.40198,0.9216,10.11351,0.98977,9.82923z"/>
	<path fill="#4C4158" d="M0.996,10.93203c0.197,0.1803,0.42974,0.28733,0.69419,0.32113
		c0.12484,0.01596,0.18379,0.07708,0.19646,0.19993c0.02042,0.19812,0.0967,0.37526,0.22509,0.52938
		c-0.03089,0.04022-0.07577,0.03168-0.11724,0.03163c-0.33458-0.0004-0.66916-0.00152-1.00375-0.00242
		C0.9703,11.6517,0.96118,11.29176,0.996,10.93203z"/>
	<path fill="#535F69" d="M3.45264,0.95183C3.45157,0.942,3.45164,0.93218,3.45286,0.92237
		c7.9016-0.00017,15.8032-0.00034,23.70479-0.00041c0.03724,0,0.07447,0.00146,0.11171,0.00224
		c0.01184,0.00587,0.01594,0.01202,0.01234,0.01849c-0.00367,0.0066-0.00739,0.00991-0.01123,0.00991
		C19.70858,0.95289,12.14669,0.95316,4.5848,0.95355c-0.07981,0-0.15961,0.00158-0.23942,0.00242
		C4.30753,0.98848,4.26191,1.00001,4.2136,1.00116C4.0029,1.00621,3.79216,1.00721,3.58149,1.00049
		C3.53405,0.99898,3.48638,0.99196,3.45264,0.95183z"/>
	<path fill="#302A3B" d="M30.84772,7.13317c-0.08825-0.18785-0.23873-0.31801-0.41315-0.4199
		c-0.12254-0.07158-0.10229-0.1186,0.00239-0.18577c0.21649-0.13891,0.40456-0.30461,0.47461-0.56601
		c0.11667,0.06321,0.06317,0.18366,0.07991,0.27301c0.05534,0.29524-0.02028,0.584-0.09203,0.86981
		C30.89617,7.11738,30.86559,7.1237,30.84772,7.13317z"/>
	<path fill="#362F43" d="M2.26923,0.9536C2.22972,1.01925,2.1757,1.07074,2.11176,1.11253
		C2.05708,1.1502,1.99314,1.15013,1.93059,1.15976c-0.15328,0.02359-0.25356,0.12121-0.25045,0.275
		C1.68306,1.57961,1.62004,1.73492,1.727,1.8694c0.01383,0.00909,0.02452,0.02093,0.03228,0.03538
		C1.65747,1.9503,1.54788,1.95686,1.43914,1.96772C1.39116,1.92277,1.40026,1.8626,1.39393,1.80587
		c-0.0228-0.20416,0.04219-0.39534,0.09346-0.5869c0.04202-0.157,0.17066-0.23321,0.31879-0.27974
		c0.13267,0.00568,0.26632-0.01792,0.39799,0.014C2.22585,0.95335,2.24754,0.95348,2.26923,0.9536z"/>
	<path fill="#535F69" d="M0.96347,3.20658c0.04939,0.04835,0.02761,0.11,0.02764,0.16544
		C0.99229,5.42541,0.99228,7.47881,0.99116,9.5322C0.99112,9.58775,1.01231,9.64932,0.96342,9.69777
		c-0.00107-1.93685-0.00228-3.87368-0.00309-5.8105C0.96023,3.66037,0.96237,3.43348,0.96347,3.20658z"/>
	<path fill="#535F69" d="M2.20416,0.95323C2.0659,0.95406,1.92764,0.9549,1.78939,0.95574
		C1.6784,1.01227,1.5589,1.00317,1.4403,1.0007C1.41388,0.99949,1.3874,1.00073,1.36088,1.00118
		c-0.33313,0.00566-0.31727-0.04304-0.32097,0.3319C1.03726,1.60119,1.05843,1.86984,1.0258,2.13759
		C1.0136,2.16463,1.00211,2.19269,0.9636,2.18696c-0.00113-0.37943-0.0022-0.75887-0.00347-1.1383
		C0.95992,0.9838,0.95352,0.92041,1.05265,0.92115c0.36634,0.00274,0.73272,0.00129,1.09907,0.00336
		C2.16925,0.92461,2.18668,0.94323,2.20416,0.95323z"/>
	<path fill="#535F69" d="M0.996,10.93203c-0.00174,0.3599-0.00349,0.7198-0.00524,1.07968
		c-0.03863-0.02442-0.03021-0.06371-0.03027-0.09914c-0.00053-0.30368-0.00043-0.60737-0.00011-0.91105
		c0.00004-0.03609-0.00458-0.0745,0.03242-0.09905C0.99363,10.91234,0.9947,10.9222,0.996,10.93203z"/>
	<path fill="#3F434D" d="M27.27046,0.95261c0.00035-0.00951-0.00001-0.01899-0.00109-0.02843
		c0.14389,0.02596,0.2965,0.02304,0.41767,0.12428C27.54818,1.01651,27.40932,0.98456,27.27046,0.95261z"/>
	<path fill="#3A3C47" d="M27.84544,1.11161c-0.06262,0.00234-0.11833-0.01234-0.15913-0.06371
		C27.74883,1.0458,27.80413,1.06149,27.84544,1.11161z"/>
	<path fill="#414D57" d="M0.9636,2.18696C0.97378,2.1767,0.98395,2.16644,0.99413,2.15618
		c0.0505,0.0032,0.05295,0.02834,0.03014,0.06502c-0.01058,0.01165-0.02116,0.02331-0.03174,0.035
		C0.96405,2.2409,0.9602,2.21542,0.9636,2.18696z"/>
	<path fill="#413A53" d="M29.66407,6.34011c-0.05628,0.03963-0.12104,0.03009-0.1843,0.03313
		c-0.12479,0.00599-0.2284,0.11473-0.22824,0.23588c0.00016,0.12768,0.08249,0.20797,0.22386,0.20634
		c0.15704-0.00182,0.30344,0.03638,0.44587,0.0967c0.02563,0.0528,0.00768,0.10398-0.0086,0.15379
		c-0.33913,1.03749-0.80448,2.01137-1.49831,2.8647c-0.29789,0.36637-0.64709,0.6638-1.13225,0.77813
		c-0.33145,0.07811-0.57401,0.30033-0.72952,0.59778c-0.09294,0.17775-0.21616,0.25041-0.41646,0.25027
		c-4.11681-0.00288-8.23363-0.00212-12.35045-0.0027c-0.0738-0.00001-0.15038,0.00732-0.21263-0.04673
		c-0.00545-0.19269,0.02558-0.38782-0.10033-0.56412c-0.13665-0.19134-0.3111-0.29213-0.54792-0.29206
		c-2.18015,0.00066-4.36033-0.00507-6.54044,0.00488C5.935,10.65814,5.44774,10.33087,5.3882,9.86088
		C5.34912,9.55239,5.0689,9.35275,4.75088,9.35229C4.39462,9.35177,4.03834,9.35126,3.68208,9.3531
		C3.62594,9.35339,3.56402,9.33285,3.51518,9.38109C3.40839,9.41464,3.3016,9.41454,3.1948,9.38115
		c-0.15923-0.07368-0.33155-0.00983-0.49838-0.0545c-0.44739-0.1198-0.74609-0.48023-0.74621-0.93808
		C1.94976,6.64823,1.94415,4.90785,1.95549,3.16758c0.00202-0.3101-0.0753-0.54443-0.35691-0.69346
		c0.1158-0.07005,0.24409-0.09162,0.37683-0.09408C2.22364,2.37546,2.29965,2.30363,2.30139,2.0627
		c0.00209-0.28981,0.09553-0.53312,0.34934-0.69812c0.07058-0.04266,0.1484-0.05075,0.22907-0.05069
		c0.42857,0.00034,0.85715-0.00049,1.28572,0.00072c0.07383,0.00021,0.14949-0.00294,0.21057,0.05101
		C4.48369,1.7831,4.9026,2.00595,5.25555,2.00404c1.85602-0.01007,3.71213-0.00095,5.56817-0.00859
		c0.29289-0.0012,0.49243,0.12966,0.66501,0.33691c0.0808,0.09703,0.14769,0.21034,0.24353,0.28912
		c0.17309,0.14228,0.36761,0.23644,0.60779,0.23605c2.45702-0.00406,4.91406-0.00453,7.37109-0.00003
		c0.32703,0.0006,0.64372,0.05625,0.8812,0.32157c0.06933,0.07746,0.0995,0.17352,0.15835,0.25435
		c0.02792,0.03835,0.05219,0.07997,0.08411,0.11468c0.15701,0.17081,0.23013,0.17543,0.42166,0.03436
		c0.02026-0.01492,0.04745-0.02057,0.07142-0.03052c0.01317,0.01216,0.01935,0.02716,0.01863,0.04497
		c-0.01695,0.07018-0.08013,0.09476-0.1319,0.1297c-0.60901,0.41109-1.02081,0.96406-1.20781,1.67328
		c-0.20424,0.77459-0.09004,1.50725,0.32527,2.19123c0.0743,0.12237,0.10313,0.22054,0.03934,0.36401
		c-0.18617,0.41869,0.03186,0.84862,0.48128,0.98553c0.23071,0.07028,0.23335,0.07379,0.23464,0.31952
		c0.00064,0.12137,0.00059,0.24275,0.00031,0.36411c-0.00019,0.08358,0.03503,0.13503,0.12265,0.127
		c0.14457-0.01325,0.31537,0.06597,0.41678-0.11c0.08294-0.05216,0.06871-0.13786,0.07037-0.21432
		c0.00433-0.20063,0.00006-0.40138,0.00223-0.60207c0.00079-0.07302-0.00823-0.14922,0.04362-0.21252
		c0.22194-0.07464,0.30258-0.0251,0.30728,0.19622c0.00525,0.24682-0.00066,0.49378,0.0023,0.74065
		c0.00215,0.17871,0.01953,0.19507,0.20358,0.19666c0.08953,0.00078,0.18019,0.01052,0.26752-0.01847
		c0.10169-0.06214,0.13356-0.15661,0.13339-0.26941c-0.00031-0.21117-0.00207-0.42237,0.00113-0.63353
		c0.00119-0.07877-0.00171-0.16065,0.07145-0.21693c0.22322-0.0587,0.28091-0.01547,0.27907,0.20947
		c-0.00181,0.2211-0.001,0.44219-0.00072,0.66329c0.00034,0.26385,0.00644,0.2694,0.27999,0.26817
		c0.10043-0.00045,0.20582,0.01203,0.26882-0.09425c0.08493-0.0433,0.08661-0.12354,0.0879-0.2016
		c0.00342-0.20825-0.00021-0.41655,0.00196-0.62482c0.00075-0.07218-0.00722-0.14687,0.03928-0.21108
		c0.22329-0.08429,0.30779-0.03142,0.31176,0.20096c0.0043,0.2516,0.00373,0.50333,0.00022,0.7549
		c-0.00179,0.12846,0.05278,0.18408,0.1799,0.17449c0.10815-0.00815,0.22405,0.02682,0.31787-0.05763
		c0.0922-0.05449,0.11237-0.1386,0.11233-0.23909c-0.00005-0.13948-0.01664-0.28008,0.01478-0.41855
		c0.0134-0.03664,0.04089-0.06277,0.07625-0.07368c0.22171-0.06841,0.3699-0.22804,0.50906-0.39945
		c0.20301-0.20329,0.19975-0.44388,0.12666-0.69618c-0.02005-0.0692-0.07074-0.12885-0.0662-0.20605
		c0.071-0.19075,0.20168-0.35225,0.27125-0.54394C25.55265,7.08166,25.56975,7.05362,25.591,7.028
		c0.12215-0.23329,0.17105-0.48895,0.19201-0.74414c0.03733-0.45443,0.00139-0.90426-0.18832-1.32948
		c-0.15249-0.28796-0.29613-0.58149-0.51592-0.82845c-0.00369-0.02504,0.00187-0.04741,0.01955-0.06623
		c0.32647,0.04269,0.63911,0.14385,0.95555,0.2274c0.4668,0.12325,0.92344,0.27192,1.33286,0.53983
		c0.23953,0.15674,0.48337,0.31566,0.67598,0.52032C28.51064,5.82322,29.00553,6.2069,29.66407,6.34011z"/>
	<path fill="#501894" d="M25.09832,4.05969c0.00121,0.02109,0.00243,0.04218,0.00364,0.06327
		c-0.12074-0.0061-0.21274-0.10646-0.33714-0.10084c-0.22133-0.11592-0.39613-0.2988-0.621-0.41242
		c-0.68545-0.34635-1.39339-0.46674-2.14175-0.23806c-0.17258,0.05274-0.3447,0.10741-0.50533,0.19235
		c-0.05033,0.02661-0.10284,0.0594-0.16528,0.0318c-0.00116-0.01462-0.00232-0.02925-0.00352-0.04387
		c0.50433-0.30656,1.05148-0.49412,1.64325-0.46754c0.65457,0.0294,1.25949,0.23118,1.76802,0.66397
		C24.85986,3.85104,24.97866,3.95585,25.09832,4.05969z"/>
	<path fill="#3E374F" d="M4.37608,1.36562C3.80098,1.36528,3.22587,1.36494,2.65074,1.36459
		c0.04358-0.07814,0.1263-0.10867,0.19418-0.15726c0.0789-0.03173,0.16075-0.04772,0.24604-0.04767
		c0.3584,0.00019,0.71679-0.00008,1.07519,0.00016c0.06374,0.00004,0.12734,0.00004,0.17828,0.04731
		C4.35499,1.25997,4.36554,1.31279,4.37608,1.36562z"/>
	<path fill="#362F43" d="M3.45264,0.95183C3.75022,0.9532,4.0478,0.95456,4.34538,0.95595
		C4.34516,1.00798,4.34493,1.06,4.3447,1.11201C4.29815,1.15467,4.24059,1.15894,4.18141,1.15899
		C3.85332,1.15931,3.52523,1.15958,3.19714,1.15874c-0.05834-0.00015-0.1175,0.0004-0.16212-0.04715
		C3.099,1.0606,3.17416,1.0481,3.25332,1.04835C3.33552,1.04862,3.40739,1.02711,3.45264,0.95183z"/>
	<path fill="#3A344A" d="M3.03502,1.11159C3.47158,1.11173,3.90814,1.11187,4.3447,1.11201
		C4.34462,1.14372,4.34453,1.17543,4.34444,1.20714C3.84459,1.2072,3.34475,1.20726,2.84492,1.20733
		C2.8975,1.15431,2.96267,1.12593,3.03502,1.11159z"/>
	<path fill="#3E374F" d="M13.57303,11.50739c4.18604-0.00002,8.37207-0.00116,12.5581,0.00351
		c0.19024,0.00021,0.29542-0.05598,0.38252-0.23007c0.16256-0.32491,0.43255-0.55194,0.79361-0.63041
		c0.45623-0.09917,0.76881-0.39567,1.05334-0.72387c0.382-0.44064,0.67491-0.94387,0.93429-1.46249
		c0.23571-0.47128,0.43834-0.95839,0.59247-1.46355c0.00918-0.03009,0.0225-0.05893,0.0339-0.08835
		c0.05069,0.00471,0.09479,0.02272,0.12811,0.0625c0.0527,0.06292,0.03101,0.13098,0.00873,0.19557
		c-0.35358,1.02492-0.81379,1.99426-1.49895,2.84783c-0.3229,0.40226-0.70617,0.70925-1.21856,0.84545
		c-0.29095,0.07734-0.5055,0.27109-0.64309,0.53362c-0.12059,0.23011-0.29868,0.31773-0.555,0.31752
		c-4.10823-0.00333-8.21645-0.00228-12.32468-0.00291c-0.08373-0.00001-0.17198,0.01558-0.24471-0.04583
		C13.57308,11.61306,13.57306,11.56022,13.57303,11.50739z"/>
	<path fill="#352E41" d="M30.24029,7.10291c0.03134,0.01032,0.05198,0.03182,0.06498,0.06129
		c-0.09809,0.23603-0.16983,0.48795-0.27982,0.7122c-0.24067,0.49068-0.45728,0.99473-0.74679,1.46286
		c-0.14649,0.23687-0.28823,0.47721-0.45989,0.69523c-0.13291,0.1688-0.31739,0.29801-0.44745,0.46849
		c-0.13149,0.17236-0.32608,0.25752-0.48825,0.38002c-0.08663,0.06544-0.23496,0.11855-0.37782,0.14301
		c-0.12859,0.02202-0.28869,0.05925-0.40085,0.20222c-0.12175,0.15519-0.25711,0.29909-0.36787,0.46622
		c-0.08178,0.12339-0.20968,0.17173-0.37411,0.20614c-0.49112,0.10279-0.98113,0.04474-1.46964,0.04583
		c-3.77303,0.00841-7.54608,0.00469-11.31912,0.00473c-0.00001-0.04226-0.00002-0.08451-0.00004-0.12677
		c0.08358-0.06818,0.18342-0.04285,0.27664-0.04288c4.05756-0.00123,8.11512-0.00106,12.17269-0.00106
		c0.05318,0,0.10728-0.00638,0.15938,0.00106c0.28432,0.0406,0.45987-0.08496,0.57978-0.33609
		c0.11046-0.23134,0.29184-0.41766,0.5439-0.48147c0.65991-0.16706,1.10464-0.60024,1.48948-1.12175
		c0.57043-0.77301,0.9779-1.62773,1.30058-2.52595C30.1259,7.23315,30.13784,7.13778,30.24029,7.10291z"/>
	<path fill="#3B344A" d="M13.57311,11.66589c4.19792-0.00004,8.39584-0.00089,12.59376,0.00212
		c0.22678,0.00016,0.37749-0.07628,0.48409-0.28288c0.14537-0.28173,0.37401-0.48633,0.68905-0.57076
		c0.37936-0.10168,0.70525-0.29154,0.96796-0.5773c0.37649-0.40951,0.69177-0.86452,0.95399-1.35382
		c0.29205-0.54497,0.54757-1.10649,0.7422-1.69386c0.02311-0.06974,0.05426-0.13817,0.0452-0.21474
		c0.04513,0.00103,0.07699,0.02224,0.0964,0.06241c0.04275,0.0575,0.00896,0.11267-0.00898,0.16557
		c-0.34139,1.00651-0.79585,1.95546-1.45535,2.79892c-0.34245,0.43796-0.74176,0.79456-1.30334,0.93928
		c-0.27996,0.07215-0.48792,0.25412-0.61519,0.51463c-0.11988,0.24539-0.30008,0.34269-0.58443,0.34217
		c-4.1243-0.00762-8.24862-0.00509-12.37294-0.00621c-0.07774-0.00002-0.16056,0.02214-0.23217-0.03041
		C13.57328,11.72931,13.57319,11.6976,13.57311,11.66589z"/>
	<path fill="#373045" d="M13.57336,11.76101c4.19696-0.00005,8.39393-0.00228,12.59088,0.00477
		c0.27745,0.00047,0.45283-0.09916,0.57082-0.33511c0.13772-0.2754,0.36308-0.45741,0.65718-0.5353
		c0.52465-0.13896,0.90743-0.4664,1.23015-0.87652c0.70394-0.89461,1.18678-1.90165,1.52336-2.98177
		c0.04905-0.00288,0.06166,0.04581,0.09454,0.06582c-0.14382,0.2821-0.22397,0.58926-0.35193,0.87779
		c-0.38427,0.86647-0.82237,1.69861-1.4887,2.39299c-0.27406,0.2856-0.59267,0.49056-0.97686,0.5926
		c-0.30113,0.07998-0.5123,0.26499-0.64628,0.54078c-0.10667,0.21956-0.26482,0.32223-0.52724,0.32182
		c-4.22522-0.00653-8.45045-0.00456-12.67567-0.00453C13.57353,11.80324,13.57345,11.78213,13.57336,11.76101z"/>
	<path fill="#202020" d="M3.1948,9.38115c0.10679-0.03676,0.21358-0.03674,0.32037-0.00003
		c0.19898,0.07345,0.30634,0.21745,0.31729,0.4257c0.0107,0.20337-0.08429,0.3569-0.26404,0.44705
		c-0.1746,0.08755-0.35096,0.06935-0.50681-0.05054C2.74082,9.95655,2.85935,9.47982,3.1948,9.38115z"/>
	<path fill="#302A3B" d="M1.02427,2.2212C1.02333,2.19537,1.01882,2.17116,0.99411,2.15619
		C0.99346,1.80571,0.99682,1.45515,0.98978,1.1048C0.98751,0.99178,1.01445,0.9393,1.13799,0.95163
		c0.0992,0.0099,0.20005,0.00352,0.30017,0.00436c0.02113,0.04097,0.01211,0.08247-0.00267,0.12157
		C1.34025,1.32947,1.34607,1.58954,1.3706,1.85104c0.00496,0.05287,0.01129,0.10438-0.02713,0.14872
		C1.23707,2.07358,1.13067,2.14739,1.02427,2.2212z"/>
	<path fill="#322C3E" d="M1.34347,1.99977C1.30887,1.74539,1.28802,1.49197,1.33992,1.236
		c0.02018-0.09952,0.06863-0.18577,0.09825-0.28004C1.55524,0.95589,1.67233,0.95579,1.7894,0.95571
		c-0.10682,0.0951-0.2495,0.15572-0.28364,0.31817c-0.04818,0.22923-0.0845,0.45874-0.06661,0.69384
		C1.41615,2.00456,1.37847,1.99824,1.34347,1.99977z"/>
	<path fill="#3D374E" d="M1.75929,1.90478C1.74846,1.90439,1.73763,1.904,1.7268,1.90361
		c-0.08379-0.1858-0.0683-0.37873-0.01094-0.56236c0.04935-0.15796,0.20555-0.19922,0.29956-0.10092
		C1.95037,1.42651,1.86929,1.60742,1.83794,1.80455C1.8314,1.84573,1.82662,1.90361,1.75929,1.90478z"/>
	<path fill="#3A334A" d="M2.01542,1.24033C1.86446,1.18683,1.73555,1.27749,1.72809,1.4511
		c-0.00647,0.15058-0.00132,0.30166-0.0013,0.45251c-0.06558,0.00491-0.098-0.02098-0.09664-0.09053
		c0.00269-0.13691-0.00624-0.27438,0.003-0.41073c0.0107-0.15786,0.14237-0.27796,0.30347-0.28948
		c0.05807-0.00415,0.1167-0.00046,0.1751-0.00035C2.08361,1.15808,2.06966,1.21417,2.01542,1.24033z"/>
	<path fill="#FEFEFE" d="M21.33146,3.59579c0.34707-0.17561,0.707-0.31487,1.09721-0.35713
		c0.80891-0.08762,1.53258,0.12281,2.17072,0.62367c0.05799,0.04552,0.11605,0.09096,0.17407,0.13644
		c0.06468,0.02645,0.12224,0.06208,0.16903,0.11547c0.51555,0.58836,0.79317,1.27209,0.80233,2.05143
		c0.00346,0.29463-0.07087,0.585-0.16534,0.8665c-0.08641,0.21661-0.19126,0.42425-0.31155,0.62434
		c-0.04663,0.09605-0.03179,0.18487,0.00718,0.28389c0.08741,0.22203,0.10496,0.44571-0.05064,0.65245
		c-0.13506,0.21287-0.32501,0.35104-0.57077,0.4133c-0.08771,0.06007-0.07619,0.15252-0.08224,0.24076
		c-0.01026,0.14963,0.0323,0.30403-0.03984,0.4482c-0.00072,0.06527-0.01678,0.10582-0.09985,0.10063
		c-0.12646-0.00789-0.25405-0.00702-0.38066-0.00037c-0.08776,0.0046-0.10562-0.03197-0.10457-0.11013
		c0.00369-0.27299,0.00141-0.54605,0.00141-0.81909c0-0.25303,0-0.25303-0.25405-0.23635
		c-0.07911,0.05176-0.07569,0.13432-0.07688,0.21269c-0.00313,0.20567,0.00011,0.4114-0.00171,0.61709
		c-0.00065,0.07318,0.00689,0.14931-0.05059,0.2094c0.00645,0.10131-0.04007,0.13433-0.14141,0.12675
		c-0.14203-0.01062-0.33165,0.04715-0.41566-0.02379c-0.09838-0.08308-0.02633-0.27677-0.03165-0.42221
		c-0.00614-0.16792-0.00145-0.33624-0.00142-0.50438c0.00004-0.22995,0.00006-0.22995-0.24172-0.21652
		c-0.09579,0.02998-0.10372,0.10899-0.10552,0.18972c-0.00351,0.15733-0.0023,0.31472-0.00104,0.47206
		c0.00134,0.16737,0.00318,0.33446-0.04691,0.49691c-0.18447-0.00092-0.41985,0.06591-0.53884-0.02216
		c-0.11479-0.08496-0.0285-0.33309-0.03511-0.50932C21.99951,9.0986,21.99499,8.94009,22.007,8.78335
		c0.01015-0.13255-0.03436-0.18309-0.16553-0.16057c-0.03104,0.00533-0.0631,0.0048-0.09468,0.00696
		c-0.07968,0.05118-0.07636,0.1337-0.07756,0.21201c-0.00315,0.2055-0.00002,0.41105-0.00166,0.61656
		c-0.00058,0.07322,0.00647,0.14893-0.04672,0.21103c0.00847,0.10369-0.0414,0.13522-0.14148,0.12583
		c-0.14178-0.01332-0.32637,0.05693-0.41571-0.02676c-0.09032-0.08461-0.01945-0.26918-0.02913-0.40956
		c-0.00109-0.01576,0.00009-0.03166-0.00019-0.04749c-0.00159-0.08957,0.02161-0.18999-0.01185-0.26571
		c-0.03485-0.07886-0.1514-0.04619-0.22972-0.07356c-0.45763-0.15991-0.66729-0.65406-0.44477-1.08084
		c0.03946-0.07569,0.04383-0.12326-0.00219-0.19691c-0.89601-1.43428-0.49917-3.14956,0.93602-4.05993
		C21.29946,3.62324,21.31496,3.60874,21.33146,3.59579z"/>
	<path fill="#FEFEFE" d="M16.48631,9.79009c-0.13816,0.0012-0.27688-0.00482-0.4143,0.00578
		c-0.12097,0.00933-0.16672-0.02216-0.16124-0.15269c0.01106-0.26337,0.0033-0.52751,0.0033-0.79133
		c0-0.23658-0.00001-0.23658-0.23861-0.22278c-0.10421,0.03378-0.10436,0.12155-0.10546,0.20606
		c-0.00281,0.21531-0.0009,0.43064-0.00099,0.64597c-0.00003,0.07409-0.00237,0.14726-0.04089,0.21387
		c-0.00069,0.06531-0.01664,0.106-0.09987,0.1008c-0.12662-0.00791-0.2544-0.00728-0.38113-0.00031
		c-0.08937,0.00492-0.10433-0.03402-0.10334-0.11098c0.00354-0.27333,0.00137-0.54673,0.00137-0.82011
		c0-0.25127,0-0.25127-0.25555-0.23459c-0.07924,0.0516-0.07588,0.13412-0.07707,0.21247
		c-0.00313,0.20559,0,0.41124-0.00165,0.61685c-0.00059,0.07328,0.00625,0.14911-0.04931,0.21003
		c0.00732,0.10298-0.04141,0.1358-0.14225,0.12614c-0.14186-0.01359-0.32673,0.05687-0.41602-0.02692
		c-0.09018-0.08463-0.01942-0.26939-0.029-0.40989c-0.00108-0.01577-0.00015-0.03167-0.00015-0.04751
		c0-0.25976,0-0.25976-0.24144-0.34144c-0.45922-0.15536-0.66556-0.65099-0.44478-1.07985
		c0.03406-0.06616,0.05299-0.11198,0.0051-0.18321c-0.89576-1.33245-0.50951-3.13167,0.83632-4.01655
		c0.01742-0.01145,0.03256-0.02631,0.04876-0.03958c0.56926-0.37411,1.18616-0.55139,1.8726-0.45668
		c0.64595,0.08912,1.21724,0.34046,1.69129,0.78453c0.46978,0.44006,0.75025,0.98702,0.8847,1.61482
		c0.0779,0.36376,0.08089,0.7205-0.00901,1.07968c-0.01477,0.04632-0.02443,0.09406-0.03601,0.14129
		c-0.01541,0.04569-0.02156,0.09378-0.03564,0.13989c-0.07879,0.22428-0.17491,0.43948-0.30651,0.63978
		c-0.0687,0.10458-0.075,0.21649-0.02375,0.34407c0.08868,0.22077,0.11998,0.4487-0.05757,0.65197
		c-0.12343,0.2236-0.32075,0.34894-0.56177,0.41617c-0.08568,0.05979-0.07453,0.15099-0.08172,0.23821
		c-0.01171,0.14202,0.03656,0.29001-0.04142,0.4256c0.00112,0.0826-0.01403,0.13867-0.12343,0.1264
		c-0.14637-0.01641-0.33737,0.05761-0.43066-0.02741c-0.09528-0.08683-0.02498-0.27818-0.02943-0.42355
		c-0.00564-0.18424-0.01209-0.3696,0.00208-0.55293c0.0111-0.14356-0.03727-0.19349-0.17557-0.16926
		c-0.02593,0.00454-0.05272,0.00425-0.07912,0.00619c-0.08976,0.05722-0.11306,0.14216-0.11103,0.24279
		c0.00316,0.15638-0.00392,0.31308,0.0021,0.4693C16.53411,9.49333,16.51038,9.64141,16.48631,9.79009z"/>
	<path fill="#FEFEFE" d="M9.5175,9.66921C9.52525,9.77148,9.4773,9.80347,9.37675,9.79553
		C9.2353,9.78435,9.05087,9.83796,8.96225,9.76768C8.86817,9.69307,8.9369,9.50257,8.93221,9.36292
		C8.92657,9.19487,8.93088,9.02649,8.93088,8.85825c0-0.24272,0-0.24272-0.24716-0.22974
		C8.58804,8.65838,8.57961,8.7371,8.57777,8.81799C8.57432,8.9701,8.57485,9.12229,8.5769,9.27439
		c0.00233,0.17285,0.00121,0.34498-0.04536,0.51338c-0.15399,0.00197-0.30825-0.0009-0.46186,0.00772
		C7.97586,9.80075,7.95387,9.76556,7.95521,9.67815c0.00471-0.30593-0.00336-0.6121,0.00454-0.91789
		c0.0029-0.11239-0.03094-0.1545-0.14215-0.13785C7.78119,8.62786,7.74274,8.62798,7.70622,8.62313
		C7.5936,8.6082,7.56325,8.65502,7.56586,8.76472c0.00716,0.30054-0.00262,0.60146,0.00359,0.90204
		C7.57166,9.77371,7.53441,9.80461,7.4324,9.79509C7.29071,9.78188,7.10616,9.85222,7.01705,9.76828
		C6.92703,9.68349,6.99769,9.4991,6.98809,9.35874C6.98701,9.34299,6.98817,9.32709,6.98791,9.31127
		C6.98643,9.22169,7.00987,9.12119,6.97639,9.04554C6.94154,8.9668,6.82488,8.99946,6.7465,8.97209
		C6.28949,8.81256,6.07914,8.31725,6.30124,7.89152c0.03925-0.07524,0.04507-0.12221-0.00157-0.19666
		c-0.89868-1.43457-0.50189-3.1544,0.93303-4.0594c0.01772-0.01117,0.03328-0.02571,0.04985-0.03868
		c0.26084-0.19227,0.56102-0.29849,0.8728-0.36351c1.63697-0.34141,3.27666,0.80387,3.51391,2.5234
		c0.06248,0.45284-0.00886,0.88113-0.14573,1.30702c-0.06586,0.19007-0.16934,0.36169-0.27019,0.53426
		c-0.06511,0.11142-0.07944,0.21586-0.02835,0.34305c0.09953,0.24777,0.0997,0.49366-0.08415,0.71316
		c-0.13676,0.18023-0.31637,0.2962-0.53603,0.35211c-0.08852,0.05945-0.07718,0.15194-0.08279,0.24016
		c-0.00952,0.14983,0.0298,0.30381-0.03767,0.44882c-0.0006,0.06538-0.0167,0.10576-0.09984,0.10052
		C10.25792,9.78779,10.13015,9.7886,10.0034,9.7954C9.91444,9.80017,9.89853,9.76171,9.89954,9.68437
		C9.9031,9.41103,9.90092,9.13762,9.90091,8.86424c0-0.25119,0-0.25119-0.25627-0.23447
		c-0.07934,0.05148-0.076,0.13399-0.07719,0.21232C9.56431,9.04762,9.56742,9.25321,9.5658,9.45876
		C9.56523,9.53204,9.57196,9.60777,9.5175,9.66921z"/>
	<path fill="#541C9B" d="M11.49274,7.06012c0.04229-0.19015,0.09869-0.37842,0.12466-0.57074
		c0.21323-1.57964-0.90235-3.00703-2.52297-3.24877C8.49626,3.15138,7.94586,3.28779,7.41146,3.53526
		c-0.04317,0.01999-0.0859,0.04092-0.12887,0.06146c0.14409-0.18687,0.36639-0.24474,0.57027-0.32106
		c0.98337-0.36811,1.90718-0.20934,2.7397,0.393c0.68248,0.49378,1.05343,1.18713,1.16604,2.02476
		c0.06186,0.46013-0.04153,0.88711-0.17188,1.31607c-0.01023,0.03366-0.03711,0.06233-0.05626,0.09332
		C11.49581,7.10781,11.47579,7.10005,11.49274,7.06012z"/>
	<path fill="#541C9B" d="M18.58298,6.68167c0.10433-0.48124,0.07085-0.95769-0.08859-1.41904
		c-0.39612-1.1462-1.20131-1.82048-2.40843-2.01972c-0.60781-0.10032-1.16965,0.04446-1.71087,0.30607
		c-0.06645,0.03212-0.13134,0.06745-0.19697,0.1013c0.13751-0.16421,0.33363-0.24045,0.52105-0.31956
		c0.37779-0.15948,0.77439-0.27156,1.18754-0.24919c0.68279,0.03697,1.30144,0.25121,1.833,0.69879
		c0.38207,0.32171,0.6532,0.71361,0.83843,1.16987c0.01551,0.0382,0.01935,0.08107,0.02862,0.12177
		c0.16683,0.51709,0.22516,1.0394,0.07427,1.57109c-0.01356,0.04777-0.01534,0.10119-0.05517,0.15025
		C18.55803,6.75781,18.56819,6.72026,18.58298,6.68167z"/>
	<path fill="#202020" d="M27.17546,6.59484c0.00001-0.27004,0.21375-0.4787,0.48686-0.47528
		c0.26428,0.00331,0.47087,0.21187,0.47086,0.47533c-0.00002,0.27002-0.21375,0.47867-0.48684,0.47526
		C27.38207,7.06684,27.17546,6.85829,27.17546,6.59484z"/>
	<path fill="#202020" d="M3.6083,3.71066C3.33737,3.70972,3.12721,3.49578,3.13157,3.22534
		C3.1358,2.96313,3.34666,2.75916,3.61256,2.76007C3.88349,2.761,4.09365,2.97495,4.08929,3.24539
		C4.08505,3.50763,3.87421,3.71158,3.6083,3.71066z"/>
	<path fill="#541C9B" d="M25.54657,7.03836c0.03151-0.13316,0.06861-0.26529,0.09363-0.39964
		c0.17444-0.937-0.09643-1.74901-0.70824-2.46377c-0.05134-0.05998-0.10559-0.11751-0.15849-0.17618
		c0.13676-0.02968,0.23259,0.04729,0.32848,0.12419c0.20377,0.17195,0.31261,0.4073,0.43102,0.63618
		c0.02669,0.05159,0.05177,0.10401,0.07759,0.15604c0.28285,0.71829,0.2846,1.43647-0.00081,2.15455
		c-0.0111,0.02093-0.02221,0.04186-0.03331,0.0628C25.505,7.12035,25.53244,7.07727,25.54657,7.03836z"/>
	<path fill="#552297" d="M18.58298,6.68167c0.00201,0.0208,0.00402,0.04159,0.00604,0.06239
		c0.00578,0.0017,0.01155,0.00341,0.01733,0.00511c0.024-0.08695,0.05316-0.1729,0.07059-0.26113
		c0.01811-0.09166,0.02088-0.18623,0.03733-0.2783c0.06046-0.33827-0.03847-0.65963-0.10476-0.98406
		c-0.01049-0.05134-0.02603-0.10076-0.02276-0.15371c0.11765,0.17801,0.12644,0.3872,0.15478,0.58631
		c0.09579,0.67298-0.07852,1.29018-0.43103,1.86228c-0.05792,0.094-0.07483,0.16497-0.01987,0.27074
		c0.11654,0.2243,0.10517,0.45658-0.01252,0.68187c-0.02708,0.05184-0.05375,0.10411-0.11986,0.11644
		c0.11195-0.24664,0.11347-0.49096-0.02448-0.72799c-0.03149-0.0541-0.03068-0.09379,0.00393-0.14333
		c0.1677-0.24002,0.27649-0.50887,0.38196-0.77916c0.04797-0.03129,0.02987-0.07999,0.03292-0.12311
		C18.55523,6.76958,18.55091,6.72157,18.58298,6.68167z"/>
	<path fill="#5B2A99" d="M16.48631,9.79009c0.00171-0.3458,0.00765-0.69166,0.00277-1.03737
		c-0.00165-0.11705,0.03943-0.15228,0.14811-0.12362c-0.00021,0.26274,0.0012,0.52549-0.00138,0.78821
		c-0.00102,0.10392,0.03978,0.22557-0.11108,0.27583C16.49761,9.70216,16.52243,9.76545,16.48631,9.79009z"/>
	<path fill="#552495" d="M11.49274,7.06012c0.01257,0.01423,0.02514,0.02846,0.03772,0.04269
		c-0.02267,0.17944-0.14204,0.31243-0.22897,0.46008c-0.04127,0.07009-0.04996,0.11781-0.00548,0.19625
		c0.17013,0.3,0.09453,0.70216-0.15514,0.89501c0.13759-0.27055,0.15973-0.5413-0.00373-0.80969
		C11.1102,7.80024,11.119,7.7674,11.14476,7.72982C11.28814,7.52066,11.39033,7.29031,11.49274,7.06012z"/>
	<path fill="#622FA4" d="M8.53154,9.78776c0.00029-0.34184,0.0056-0.68378-0.00182-1.02545
		c-0.00266-0.12278,0.03666-0.1639,0.15405-0.1338C8.62498,8.81428,8.6652,9.0049,8.65734,9.19309
		C8.64874,9.39913,8.69746,9.61517,8.53154,9.78776z"/>
	<path fill="#5C299E" d="M22.57937,9.78752c0.0002-0.34223,0.00589-0.68459-0.00224-1.02663
		c-0.003-0.12626,0.04164-0.1602,0.15576-0.13206c-0.0571,0.1913-0.01812,0.38706-0.02607,0.5806
		C22.69855,9.41037,22.74607,9.62162,22.57937,9.78752z"/>
	<path fill="#5A269C" d="M15.5281,9.69495c-0.00231-0.32319-0.00097-0.64647-0.00869-0.96953
		c-0.00323-0.13528,0.07984-0.10349,0.15609-0.09636c-0.05751,0.21031-0.01387,0.42479-0.02603,0.63701
		c-0.00476,0.08318-0.0083,0.16771,0.00114,0.2501C15.6621,9.61638,15.62689,9.67441,15.5281,9.69495z"/>
	<path fill="#532095" d="M9.5175,9.66921C9.51482,9.35081,9.51432,9.03236,9.50828,8.71402
		c-0.00217-0.1144,0.06801-0.09304,0.13637-0.08426C9.64462,8.92682,9.64302,9.22389,9.64552,9.52093
		C9.64628,9.61194,9.62843,9.67768,9.5175,9.66921z"/>
	<path fill="#542196" d="M21.62084,9.66935c-0.00266-0.31816-0.00292-0.63637-0.00927-0.95446
		c-0.00227-0.11368,0.06599-0.0949,0.13522-0.08515c-0.00009,0.29564-0.00157,0.59129,0.00058,0.88691
		C21.74803,9.6065,21.73563,9.67756,21.62084,9.66935z"/>
	<path fill="#531F95" d="M14.56155,9.66912c-0.0028-0.3186-0.00362-0.63723-0.00943-0.95578
		c-0.0021-0.11501,0.06977-0.09152,0.13748-0.08357c-0.00003,0.29728-0.00166,0.59457,0.00089,0.89183
		C14.69128,9.61323,14.67211,9.67798,14.56155,9.66912z"/>
	<path fill="#521F94" d="M23.56471,9.66898c-0.0028-0.3188-0.00387-0.63762-0.00932-0.95638
		c-0.00197-0.11538,0.07136-0.0901,0.13852-0.0828c0,0.29757-0.00166,0.59516,0.00103,0.89271
		C23.69578,9.61511,23.67459,9.67823,23.56471,9.66898z"/>
	<path fill="#57219A" d="M25.22446,8.59285c0.09871-0.2568,0.10793-0.50766-0.04107-0.75235
		c-0.05545-0.09107,0.03425-0.13895,0.07462-0.20027c0.0114-0.01257,0.02258-0.013,0.03352,0.00058
		c0.07024,0.17984,0.16169,0.35454,0.12843,0.55824C25.39522,8.3505,25.36529,8.49856,25.22446,8.59285z"/>
	<path fill="#5C299D" d="M10.48438,9.69525c-0.00245-0.19517-0.00108-0.39049-0.00889-0.58545
		c-0.0041-0.10235,0.04985-0.11391,0.12934-0.10352c-0.00035,0.17407-0.00755,0.34849,0.00158,0.52207
		C10.61158,9.62678,10.57304,9.67412,10.48438,9.69525z"/>
	<path fill="#59269A" d="M24.53162,9.69511c-0.00235-0.19167-0.00013-0.38354-0.00888-0.57491
		c-0.00472-0.10325,0.04141-0.12795,0.13095-0.11405c-0.00023,0.17094-0.00741,0.34227,0.00194,0.51269
		C24.66115,9.61933,24.62854,9.67473,24.53162,9.69511z"/>
	<path fill="#572498" d="M17.4733,9.66964c-0.00251-0.18301,0.00005-0.36628-0.00947-0.54893
		c-0.00552-0.10584,0.0441-0.12704,0.13262-0.11488c-0.00014,0.17847-0.00429,0.35706,0.00122,0.53535
		C17.60054,9.63428,17.57286,9.68206,17.4733,9.66964z"/>
	<path fill="#482E6E" d="M25.60974,7.06973c0.04481-0.24155,0.13804-0.46974,0.17018-0.7171
		c0.05463-0.42041,0.0094-0.8249-0.11255-1.2258c-0.02128-0.06996-0.05892-0.13553-0.05682-0.21165
		c0.12066,0.16197,0.15075,0.35905,0.1825,0.54587c0.08449,0.49714,0.06332,0.99196-0.11092,1.47279
		C25.66432,6.98296,25.65748,7.03676,25.60974,7.06973z"/>
	<path fill="#5B2E95" d="M25.29153,7.64081c-0.01117-0.0002-0.02234-0.00039-0.03352-0.00058
		c0.09618-0.20062,0.19237-0.40124,0.28855-0.60186c0.0034,0.03346-0.00597,0.07091,0.02988,0.09418
		C25.49384,7.30879,25.41132,7.48509,25.29153,7.64081z"/>
	<path fill="#413A53" d="M23.11685,6.23956c0.5258-0.19293,1.05162-0.38582,1.57739-0.57884
		c0.05052-0.01855,0.08884-0.03881,0.12639,0.03466c0.19508,0.38172,0.10201,0.87126-0.22726,1.1532
		c-0.50853,0.36109-1.1872,0.13238-1.44674-0.42876C23.12051,6.36336,23.0883,6.30584,23.11685,6.23956z"/>
	<path fill="#413A53" d="M20.85684,5.66743c0.55246,0.19815,1.10483,0.39657,1.65754,0.59402
		c0.05131,0.01833,0.08342,0.03877,0.05829,0.1019c-0.07213,0.18119-0.14013,0.36415-0.3069,0.48619
		c-0.65142,0.44887-1.48733-0.02537-1.54304-0.79773C20.71293,5.91601,20.69271,5.75387,20.85684,5.66743z"/>
	<path fill="#551E9B" d="M20.85684,5.66743c-0.19265,0.25869-0.05144,0.7343,0.11741,0.94035
		c0.33329,0.40671,0.84147,0.46084,1.21537,0.26071c0.0223-0.01194,0.05059-0.01287,0.07612-0.01894
		c-0.30722,0.29371-0.77766,0.34245-1.15848,0.12003c-0.37083-0.21659-0.5512-0.67249-0.43111-1.09309
		c0.01728-0.06053,0.04188-0.11897,0.06151-0.17888C20.76178,5.62399,20.80424,5.62736,20.85684,5.66743z"/>
	<path fill="#551E9B" d="M23.11685,6.23956c0.11424,0.33105,0.31186,0.58479,0.66085,0.69517
		c0.23163,0.07326,0.45943,0.05862,0.68247-0.03747c0.04332-0.01866,0.08872-0.03255,0.13318-0.04866
		c-0.43,0.43262-1.20462,0.30884-1.5008-0.24075c-0.02981-0.05532-0.04615-0.11806-0.07796-0.17201
		C22.94199,6.31274,22.98749,6.25605,23.11685,6.23956z"/>
	<path fill="#433B56" d="M22.0324,7.66211c0.01192-0.02238,0.02319-0.04513,0.03585-0.06708
		c0.13682-0.23723,0.24377-0.24783,0.44269-0.05359c0.04657,0.04547,0.02234,0.0717-0.00124,0.10571
		c-0.08075,0.11643-0.16229,0.23231-0.24354,0.34841C22.03078,7.9991,21.93701,7.86536,22.0324,7.66211z"/>
	<path fill="#443C56" d="M23.15108,7.47852c0.17895-0.11868,0.17889-0.11864,0.29678,0.05469
		c0.05647,0.08303,0.10788,0.17016,0.17113,0.24777c0.08081,0.09915,0.1088,0.18164-0.03647,0.24329
		c-0.03573,0.01219-0.07792,0.02568-0.10282-0.00836C23.35537,7.8459,23.19567,7.69663,23.15108,7.47852z"/>
	<path fill="#552197" d="M23.15108,7.47851c0.10005,0.14892,0.2013,0.29706,0.29948,0.44718
		c0.03278,0.05012,0.06227,0.09935,0.13192,0.09859c-0.18219,0.14782-0.18207,0.14774-0.30733-0.03999
		c-0.05868-0.08795-0.11026-0.18201-0.17875-0.26171C22.99915,7.60941,23.01418,7.53375,23.15108,7.47851z"/>
	<path fill="#572596" d="M22.0324,7.66211c-0.04189,0.19175-0.01797,0.22586,0.23379,0.33342
		c-0.03214,0.05664-0.05678,0.16258-0.12084,0.13992c-0.10517-0.03722-0.19496-0.12004-0.287-0.18919
		c-0.02474-0.01859,0.00398-0.0482,0.01808-0.06828C21.92742,7.80534,21.98026,7.73396,22.0324,7.66211z"/>
	<path fill="#413A53" d="M16.06174,6.24366c0.52972-0.19646,1.05951-0.39272,1.58904-0.58967
		c0.05173-0.01924,0.08086-0.01577,0.1106,0.04295c0.19376,0.38251,0.10022,0.86977-0.22689,1.15079
		C17.24023,7.0531,16.92497,7.07605,16.60192,6.934c-0.2631-0.11568-0.43846-0.32216-0.54578-0.58583
		C16.04189,6.31314,16.03591,6.27722,16.06174,6.24366z"/>
	<path fill="#413A53" d="M13.79885,5.66832c0.55194,0.19791,1.10379,0.39609,1.65598,0.5933
		c0.05086,0.01816,0.08383,0.03694,0.0582,0.10111c-0.07226,0.18097-0.14005,0.36373-0.3064,0.48588
		c-0.45317,0.2481-0.82921,0.22555-1.19573-0.07172c-0.26917-0.21831-0.41541-0.6582-0.32097-0.97311
		C13.70721,5.74617,13.71205,5.67323,13.79885,5.66832z"/>
	<path fill="#551E9B" d="M13.79885,5.66832c-0.17298,0.2799-0.11117,0.55867,0.03524,0.81668
		c0.26244,0.46249,0.78557,0.61749,1.26828,0.39742c0.03299-0.01504,0.0694-0.02269,0.10424-0.03379
		c-0.30801,0.29466-0.7787,0.34374-1.15964,0.12091c-0.37141-0.21726-0.55183-0.67464-0.43053-1.0947
		c0.01749-0.06057,0.04169-0.11921,0.06192-0.17903C13.7037,5.62088,13.74758,5.62945,13.79885,5.66832z"/>
	<path fill="#551D9B" d="M16.06174,6.24366c0.19038,0.61568,0.82653,0.92375,1.41181,0.6195
		c0.01806-0.00939,0.04051-0.01046,0.06092-0.01543C17.1,7.28175,16.32667,7.15754,16.03156,6.60548
		c-0.02971-0.05558-0.04714-0.1178-0.07833-0.1724C15.8806,6.30595,15.92994,6.25279,16.06174,6.24366z"/>
	<path fill="#443A59" d="M14.91175,7.75403c0.05649-0.08791,0.11996-0.17226,0.16774-0.26461
		c0.06194-0.11971,0.12473-0.11822,0.22919-0.04296c0.18573,0.13381,0.19099,0.12784,0.06085,0.31918
		c-0.05282,0.07767-0.10888,0.15317-0.16346,0.22966C15.03415,8.00331,14.90972,7.90131,14.91175,7.75403z"/>
	<path fill="#443A59" d="M16.09556,7.4837c0.16905-0.1329,0.16904-0.13289,0.28429,0.03715
		c0.06771,0.09989,0.12852,0.2054,0.20502,0.29815c0.08803,0.10673,0.0548,0.16375-0.0603,0.2041
		c-0.03534,0.01469-0.07719,0.02697-0.1031-0.00474C16.28823,7.85526,16.13358,7.70418,16.09556,7.4837z"/>
	<path fill="#561E9C" d="M16.09556,7.4837c0.09974,0.15401,0.1994,0.30808,0.29929,0.462
		c0.03032,0.04673,0.07088,0.07723,0.12966,0.07743c-0.03691,0.02855-0.07502,0.0558-0.11057,0.08603
		c-0.05791,0.04923-0.09578,0.03835-0.13582-0.02664c-0.07672-0.1245-0.15403-0.24998-0.24501-0.36411
		C15.94042,7.60213,15.94755,7.52875,16.09556,7.4837z"/>
	<path fill="#59239E" d="M14.91175,7.75403c0.04393,0.14556,0.17139,0.19069,0.29434,0.24123
		c-0.03484,0.05821-0.05285,0.16916-0.13496,0.13633c-0.10279-0.0411-0.22122-0.09946-0.2713-0.20126
		C14.77658,7.88306,14.85846,7.8054,14.91175,7.75403z"/>
	<path fill="#541C9B" d="M18.55258,6.81604c0.05371,0.05807,0.03666,0.09751-0.03292,0.12311
		C18.51748,6.89465,18.52567,6.85288,18.55258,6.81604z"/>
	<path fill="#413A53" d="M9.06798,6.23981C9.5944,6.0469,10.12083,5.85402,10.6472,5.66101
		c0.05042-0.01849,0.08893-0.03974,0.12687,0.03391c0.19535,0.37927,0.10179,0.87043-0.22791,1.15454
		c-0.5624,0.38439-1.21597,0.07852-1.4491-0.42947C9.07114,6.3635,9.03853,6.30602,9.06798,6.23981z"/>
	<path fill="#413A53" d="M6.82621,5.67283c0.54737,0.19644,1.09463,0.39316,1.64226,0.58886
		c0.05181,0.01852,0.08196,0.03992,0.05737,0.10241c-0.07149,0.18167-0.1411,0.36364-0.30702,0.48624
		c-0.63138,0.42292-1.29459-0.0001-1.47191-0.47347C6.67491,6.18465,6.65706,5.98689,6.71229,5.78761
		C6.72722,5.73375,6.72983,5.65333,6.82621,5.67283z"/>
	<path fill="#551D9B" d="M6.82621,5.67283c-0.12655,0.09212-0.1084,0.2401-0.1042,0.35778
		c0.02677,0.7503,0.81835,1.17393,1.4206,0.83715C8.16437,6.85559,8.19322,6.8559,8.2188,6.85037
		C7.90895,7.14398,7.44023,7.19194,7.0602,6.96892C6.68911,6.75114,6.50952,6.29549,6.63028,5.87538
		c0.01594-0.05545,0.03963-0.10869,0.05595-0.16405C6.71273,5.62141,6.76266,5.62507,6.82621,5.67283z"/>
	<path fill="#551D9B" d="M9.06798,6.23981C9.1849,6.58497,9.39861,6.83804,9.76071,6.94363
		c0.21591,0.06296,0.42969,0.04642,0.6374-0.04039c0.04849-0.02027,0.09148-0.05532,0.14803-0.05377
		C10.116,7.27914,9.34726,7.1584,9.0492,6.61341c-0.0303-0.0554-0.04833-0.11747-0.07924-0.17246
		C8.90452,6.3245,8.92778,6.25527,9.06798,6.23981z"/>
	<path fill="#433A56" d="M7.98509,7.66617C8.01812,7.61313,8.05626,7.5625,8.08313,7.50655
		c0.0602-0.12538,0.12611-0.1467,0.2468-0.05585c0.1757,0.13225,0.18274,0.12388,0.05682,0.30975
		C8.33397,7.83837,8.27896,7.91479,8.22496,7.9919c-0.12606,0.04837-0.19612-0.04747-0.2672-0.11461
		C7.8836,7.80723,7.95015,7.73394,7.98509,7.66617z"/>
	<path fill="#433B55" d="M9.10487,7.48582c0.17289-0.13478,0.17508-0.13619,0.29286,0.04382
		C9.48309,7.6601,9.58848,7.77803,9.65046,7.92327c-0.18877,0.15846-0.19769,0.16149-0.32768-0.0466
		C9.24398,7.75052,9.11734,7.64878,9.10487,7.48582z"/>
	<path fill="#562199" d="M9.10487,7.48582C9.18656,7.60642,9.2808,7.72068,9.3467,7.84926
		c0.0791,0.15435,0.16647,0.19402,0.30376,0.07403C9.59589,8.0386,9.47029,8.06587,9.37961,8.13633
		c-0.03383,0.02629-0.05648-0.00902-0.07396-0.0351C9.20322,7.9484,9.09857,7.79694,8.99996,7.64171
		C8.92274,7.52015,9.05574,7.52872,9.10487,7.48582z"/>
	<path fill="#59249B" d="M7.98509,7.66617C7.93859,7.84783,7.98901,7.91626,8.225,7.99185
		c-0.04005,0.05494-0.05312,0.1714-0.13596,0.14081C7.98441,8.09402,7.8497,8.02198,7.81915,7.93337
		C7.79205,7.85477,7.9103,7.74734,7.98509,7.66617z"/>
	<path fill="#FCFCFD" d="M24.45016,6.43386c-0.3007,0.35635-0.64332,0.38948-0.92885,0.08828
		c0.03419-0.05213,0.10564-0.03798,0.14535-0.07949c0.23715-0.15297,0.51317-0.20972,0.77365-0.30424
		c0.08005-0.02905,0.12308,0.02451,0.10615,0.10333C24.53141,6.31184,24.51201,6.38465,24.45016,6.43386z"/>
	<path fill="#562693" d="M24.45016,6.43386c0.02383-0.08824,0.11234-0.19417,0.05085-0.25893
		c-0.04709-0.04961-0.1585,0.0361-0.24046,0.0631c-0.19887,0.06552-0.39605,0.13609-0.5939,0.20462
		c-0.0059-0.05677,0.02399-0.08359,0.07553-0.10218c0.27163-0.09796,0.54247-0.1981,0.81314-0.29864
		c0.07074-0.02628,0.10968-0.00191,0.09132,0.06898C24.61417,6.23621,24.57553,6.36225,24.45016,6.43386z"/>
	<path fill="#FCFCFD" d="M22.04712,6.52488c-0.35483,0.32899-0.86235,0.21225-0.9917-0.22575
		c-0.03638-0.12318-0.00758-0.16441,0.1186-0.11723c0.05976-0.01575,0.11413,0.0043,0.16836,0.02504
		c0.18636,0.0713,0.37553,0.13525,0.56058,0.20992C21.9599,6.43985,22.02706,6.45221,22.04712,6.52488z"/>
	<path fill="#551F99" d="M22.04712,6.52488c-0.25238-0.1286-0.52872-0.19582-0.78916-0.30376
		C21.22944,6.2093,21.20195,6.19503,21.174,6.1819c-0.02238-0.13426,0.02192-0.16601,0.15215-0.11402
		c0.22065,0.08809,0.44636,0.16366,0.66998,0.24442C22.17943,6.3785,22.18134,6.38634,22.04712,6.52488z"/>
	<path fill="#FCFCFD" d="M17.36988,6.46634c-0.31499,0.32576-0.64241,0.34525-0.91271,0.04949
		c0.0516-0.02521,0.10169-0.04967,0.15178-0.07414c0.24079-0.14773,0.51247-0.21925,0.77818-0.30293
		c0.0967-0.03046,0.12134,0.04293,0.0984,0.1227C17.46366,6.33745,17.42126,6.40515,17.36988,6.46634z"/>
	<path fill="#562694" d="M17.36988,6.46634c0.03876-0.09535,0.0931-0.18633,0.08916-0.31611
		c-0.2905,0.0996-0.5703,0.19553-0.8501,0.29145c-0.0049-0.05707,0.02608-0.08306,0.07752-0.10161
		c0.26265-0.09471,0.52411-0.19265,0.78633-0.28852c0.03298-0.01206,0.06881-0.04027,0.10294-0.00832
		c0.03183,0.0298,0.01734,0.06777,0.00582,0.10302C17.54041,6.27211,17.48769,6.39042,17.36988,6.46634z"/>
	<path fill="#FDFCFD" d="M14.98717,6.52528c-0.35225,0.32419-0.84882,0.21698-0.98542-0.21274
		c-0.04669-0.14689-0.03375-0.16151,0.11501-0.1299c0.29859,0.04407,0.56893,0.16898,0.84041,0.29031
		C14.9768,6.48171,14.98343,6.50422,14.98717,6.52528z"/>
	<path fill="#551F99" d="M14.98717,6.52528c-0.22619-0.11904-0.47589-0.17817-0.71085-0.27484
		c-0.05345-0.02199-0.1064-0.04518-0.15957-0.06781c-0.02168-0.13307,0.02086-0.16846,0.15223-0.11463
		c0.2251,0.09224,0.45542,0.17187,0.68264,0.25911C15.11947,6.39157,15.11883,6.39322,14.98717,6.52528z"/>
	<path fill="#FCFCFD" d="M10.40374,6.43456c-0.283,0.33408-0.6227,0.38045-0.90565,0.12304
		C9.48702,6.54753,9.48122,6.53175,9.46955,6.5132C9.5293,6.4866,9.58648,6.46114,9.64366,6.43568
		c0.03876-0.0687,0.1156-0.0689,0.17725-0.09468c0.17105-0.07152,0.34848-0.12636,0.5223-0.19076
		c0.04428-0.01641,0.09466-0.03715,0.13467,0.00371c0.04277,0.04368,0.03419,0.09661,0.00644,0.14627
		C10.45885,6.34578,10.44809,6.40015,10.40374,6.43456z"/>
	<path fill="#582796" d="M10.40374,6.43456c0.02767-0.08827,0.07705-0.17199,0.06551-0.28642
		c-0.28329,0.09866-0.55442,0.1931-0.82557,0.28753C9.61104,6.37712,9.65672,6.36318,9.69596,6.34861
		c0.26217-0.09737,0.52427-0.19496,0.78757-0.28923c0.03121-0.01117,0.06924-0.044,0.10268-0.0109
		c0.0303,0.03,0.01276,0.06857,0.001,0.10368C10.55043,6.26197,10.51008,6.36934,10.40374,6.43456z"/>
	<path fill="#FCFCFD" d="M8.0017,6.52398C7.64797,6.85387,7.14213,6.73903,7.00987,6.3004
		C6.9752,6.18542,6.98989,6.12913,7.12491,6.18135c0.04839-0.02222,0.09339-0.00324,0.13755,0.0131
		c0.19295,0.07142,0.3848,0.14566,0.57959,0.21224C7.90594,6.42853,7.97415,6.45063,8.0017,6.52398z"/>
	<path fill="#551E99" d="M8.0017,6.52398C7.70942,6.40976,7.41714,6.29555,7.12488,6.18134
		C7.1021,6.04667,7.148,6.01629,7.27682,6.06752C7.49698,6.15508,7.72179,6.23116,7.9448,6.31167
		C8.12894,6.37815,8.13115,6.38578,8.0017,6.52398z"/>
</g>
</svg>
