<?xml version="1.0" encoding="utf-8"?>
<!-- Generator: Adobe Illustrator 23.0.0, SVG Export Plug-In . SVG Version: 6.00 Build 0)  -->
<svg version="1.1" id="Слой_1" xmlns="http://www.w3.org/2000/svg" xmlns:xlink="http://www.w3.org/1999/xlink" x="0px" y="0px" width="32px" height="13px"
	 viewBox="0 0 32 13" enable-background="new 0 0 32 13" xml:space="preserve">
<g>
	<path fill="#55708A" d="M0.00225,12.23625c0-2.21853,0-4.43706,0-6.65559c0.01796-0.01273,0.0375-0.01592,0.05868-0.0096
		C0.07813,5.58375,0.09056,5.6,0.09853,5.61971C0.12702,5.71267,0.1171,5.8084,0.11713,5.90305
		c0.00064,1.95427,0.00069,3.90853-0.00002,5.8628c-0.00005,0.1378,0.00338,0.27506,0.03584,0.40938
		c0.08204,0.33946,0.29457,0.55315,0.63578,0.63856c0.1457,0.03647,0.2948,0.03731,0.44415,0.0373
		c5.19367-0.00046,10.38734-0.00054,15.58102,0.00064c0.1098,0.00003,0.22447-0.02317,0.32743,0.03974
		c0.02428,0.02765,0.02707,0.05558,0.00101,0.08384c-0.0635,0.01016-0.12747,0.00499-0.19119,0.005
		c-5.31554,0.00028-10.63108,0.00018-15.94662,0.00114c-0.06787,0.00001-0.1382-0.01706-0.20401,0.01544
		c-0.01064,0-0.02129,0-0.03193,0c-0.05949-0.05009-0.13607-0.0433-0.20559-0.0604
		C0.23082,12.81771,0.05949,12.57194,0.00225,12.23625z"/>
	<path fill="#224053" d="M27.59046,0.00265c0.32386,0.10065,0.64818,0.20023,0.93011,0.39754
		c0.09599,0.0898,0.21695,0.14655,0.31493,0.23302c0.04213,0.03717,0.10724,0.09228-0.02023,0.10375
		c-0.14833-0.0627-0.26842-0.17015-0.40653-0.24946c-0.42814-0.24584-0.8798-0.37452-1.38161-0.37416
		c-7.23145,0.00526-14.4629,0.00359-21.69435,0.00364c-0.11701,0-0.23431-0.00442-0.34987,0.01979
		C4.93533,0.14771,4.90621,0.12901,4.89473,0.08234c-0.00418-0.03031,0.00569-0.05643,0.02486-0.0797
		C12.47655,0.00265,20.0335,0.00265,27.59046,0.00265z"/>
	<path fill="#40586D" d="M17.14994,12.96455c-0.00083-0.02076-0.00167-0.04152-0.0025-0.06228
		c0.00674-0.00644,0.01348-0.01288,0.02016-0.01943c0.09111-0.04217,0.18836-0.02632,0.28307-0.02635
		c3.13255-0.00086,6.26511-0.00517,9.39765,0.0021c0.903,0.0021,1.65091-0.32769,2.29341-0.94149
		c0.89008-0.85032,1.50345-1.8799,1.99245-2.99132c0.3029-0.68844,0.55177-1.39432,0.67311-2.13991
		c0.01756-0.10792-0.00973-0.22394,0.05476-0.32409c0.04657-0.03163,0.09141-0.02704,0.13486,0.00628c0,0.02113,0,0.04226,0,0.06339
		c-0.01669,0.01775-0.02211,0.04057-0.02861,0.06296c-0.03206,0.40668-0.13439,0.79955-0.25625,1.1859
		c-0.37038,1.17435-0.89763,2.27343-1.62596,3.27347c-0.17399,0.2389-0.36882,0.46122-0.55348,0.69204
		c-0.34113,0.35835-0.71779,0.67521-1.15446,0.91001c-0.37152,0.19978-0.76965,0.32535-1.20051,0.32522
		c-3.32396-0.00102-6.64791-0.00026-9.97187-0.00065C17.18523,12.98183,17.16662,12.97653,17.14994,12.96455z"/>
	<path fill="#3B556C" d="M4.91959,0.00265C4.9194,0.0236,4.91921,0.04454,4.91901,0.06549
		c-0.08219,0.06849-0.1816,0.04975-0.27546,0.04985C3.43682,0.11662,2.23008,0.11683,1.02334,0.11547
		C0.80405,0.11522,0.60158,0.15543,0.43,0.30238C0.23079,0.473,0.14783,0.69053,0.14818,0.9476
		c0.00105,0.78092,0.00046,1.56184,0.00035,2.34276C0.14844,3.96575,0.14898,4.64114,0.14797,5.31653
		C0.14784,5.40019,0.15885,5.48607,0.11754,5.56521C0.10469,5.58508,0.08715,5.59065,0.06504,5.582
		C0.05479,5.58147,0.04454,5.58079,0.0343,5.57997C0.00468,5.52524,0.01948,5.46607,0.01944,5.40921
		C0.0185,3.91739,0.0189,2.42557,0.01793,0.93375C0.01789,0.87698,0.03324,0.81768,0.00225,0.76329c0-0.01056,0-0.02113,0-0.03169
		c0.03979-0.2659,0.16864-0.47446,0.39489-0.62666C0.48274,0.04734,0.57882,0.0309,0.67279,0.00265
		C2.08839,0.00265,3.50399,0.00265,4.91959,0.00265z"/>
	<path fill="#264356" d="M31.99691,6.46808c-0.04213,0.00037-0.08426,0.00074-0.12639,0.00111
		c-0.04101,0.02633-0.07783,0.03098-0.10397-0.0197c0.09461-0.13423,0.06846-0.28203,0.04318-0.42707
		c-0.11863-0.68057-0.3442-1.32775-0.62241-1.95879c-0.32323-0.73315-0.71682-1.4271-1.1876-2.07594
		c-0.29251-0.40315-0.61979-0.77837-1.00661-1.09825c-0.05239-0.04333-0.11103-0.08406-0.12534-0.15814
		c-0.02511-0.11014-0.13666-0.13155-0.20481-0.19748c-0.0468-0.04528-0.1297-0.05282-0.14238-0.13363
		c0.48603,0.27854,0.88571,0.65841,1.23725,1.08412c1.04977,1.27127,1.76888,2.70872,2.15862,4.30762
		c0.02662,0.10919,0.01726,0.22727,0.08047,0.32753C31.99691,6.23566,31.99691,6.35187,31.99691,6.46808z"/>
	<path fill="#697682" d="M17.14994,12.96455c0.01008,0.00055,0.02016,0.001,0.03024,0.00134
		c0.01094,0.0066,0.0147,0.01339,0.01132,0.02038c-0.00342,0.00707-0.0069,0.01062-0.01048,0.01062c-5.46017,0-10.92033,0-16.3805,0
		c0.05803-0.05779,0.13145-0.03038,0.19721-0.0304C6.3818,12.96487,11.76587,12.96477,17.14994,12.96455z"/>
	<path fill="#535F69" d="M17.18102,12.99689c-0.00003-0.01035-0.00031-0.02069-0.00083-0.03101
		c3.27751-0.00022,6.55502-0.00246,9.83253,0.00137c0.52312,0.00061,1.00591-0.12009,1.45298-0.38788
		c0.40208-0.24084,0.76402-0.5293,1.07253-0.88202c0.01667-0.01328,0.03168-0.01163,0.04502,0.00495
		c-0.55965,0.62217-1.19919,1.11665-2.05416,1.26771c-0.01268,0.00224-0.023,0.01762-0.03442,0.02687
		C24.05678,12.99689,20.6189,12.99689,17.18102,12.99689z"/>
	<path fill="#445B6E" d="M29.58325,11.70231c-0.01501-0.00165-0.03001-0.0033-0.04502-0.00495
		c0.58495-0.67699,1.07791-1.41442,1.46782-2.21808c0.38671-0.79707,0.705-1.61876,0.88559-2.48857
		c0.02944-0.14181,0.01912-0.2901,0.07314-0.42758c0.02255,0.01523,0.01037,0.0478,0.03214,0.06343c0,0.05282,0,0.10564,0,0.15847
		c-0.09524,0.24971-0.11542,0.51743-0.19083,0.77246c-0.42271,1.42939-1.06171,2.74858-2.00946,3.91168
		C29.73021,11.55065,29.65458,11.62476,29.58325,11.70231z"/>
	<path fill="#40596F" d="M0.00225,0.76329C0.05765,0.81542,0.033,0.88288,0.03306,0.94316
		c0.00146,1.54561,0.0012,3.09122,0.00124,4.63682C0.02362,5.5802,0.01293,5.58043,0.00225,5.58067
		C0.00225,3.97487,0.00225,2.36908,0.00225,0.76329z"/>
	<path fill="#697682" d="M0.73666,12.99689c-0.03857-0.05975-0.12381-0.0377-0.16506-0.09277
		c0.07591,0.00948,0.16385-0.00619,0.19699,0.09277C0.75794,12.99689,0.7473,12.99689,0.73666,12.99689z"/>
	<path fill="#767F87" d="M31.99691,6.62654c-0.02834-0.01234-0.03056-0.03772-0.03214-0.06342
		c0.01071-0.01055,0.02143-0.0211,0.03214-0.03166C31.99691,6.56316,31.99691,6.59485,31.99691,6.62654z"/>
	<path fill="#44637F" d="M0.06504,5.582c0.01107-0.00052,0.02213-0.00103,0.0332-0.00155
		c0.20078-0.00713,0.37317,0.14605,0.41981,0.37439c0.01918,0.09388,0.01422,0.18933,0.01423,0.28428
		c0.00023,1.83743,0.00013,3.67487,0.00024,5.5123c0,0.0739-0.00312,0.14799,0.0047,0.22161
		c0.02509,0.23633,0.21904,0.43165,0.45697,0.4597c0.09,0.01061,0.18068,0.00607,0.27107,0.00607
		c5.06421,0.00015,10.12843,0.0001,15.19264,0.00034c0.10625,0,0.2132-0.00696,0.31823,0.01487
		c0.24134,0.05016,0.40569,0.24731,0.37457,0.44729c0,0-0.00323,0.00095-0.00325,0.00096
		c-5.35062-0.00019-10.70122,0.00003-16.05182-0.00166c-0.29248-0.00009-0.557-0.06506-0.77498-0.29268
		C0.12381,12.40237,0.06891,12.1607,0.0684,11.9011C0.06446,9.86336,0.06623,7.82562,0.06616,5.78787
		C0.06616,5.71925,0.06543,5.65063,0.06504,5.582z"/>
	<path fill="#2D4961" d="M17.15071,12.90131c-0.09489-0.31029-0.23031-0.41146-0.55218-0.41147
		c-5.16477-0.00008-10.32954-0.00299-15.49428,0.00654C0.76918,12.497,0.47196,12.20201,0.47435,11.875
		c0.01396-1.91106,0.00686-3.82227,0.00683-5.73343c-0.00001-0.32157-0.07916-0.43742-0.38294-0.5611
		C0.09817,4.02238,0.09779,2.4643,0.09819,0.90622c0.00012-0.47818,0.36436-0.83981,0.8459-0.84005
		c1.32498-0.00066,2.64996-0.0005,3.97493-0.00068c0.00131,0.02604,0.00665,0.05009,0.03223,0.06412
		c0.04718,0.01833,0.07453,0.0584,0.10457,0.09509c0.09342,0.11413,0.21542,0.16802,0.36191,0.17205
		C5.49755,0.39895,5.57737,0.3983,5.65719,0.3983c7.02476,0.00005,14.04954,0.00482,21.07427-0.00904
		c0.55959-0.0011,1.03779,0.15815,1.51309,0.41069c0.69686,0.37026,1.19597,0.93608,1.64209,1.56422
		c0.43946,0.61875,0.72292,1.31471,1.03162,1.9985c0.20493,0.45392,0.37786,0.92019,0.48082,1.40819
		c0.05556,0.26332,0.19675,0.47313,0.37417,0.66586c0.02349,0.03718,0.06203,0.02988,0.09726,0.03244
		c0.01048,0.39972-0.09508,0.78104-0.2064,1.15764c-0.26049,0.88128-0.62954,1.71888-1.08922,2.51546
		c-0.26581,0.46062-0.56639,0.89807-0.91938,1.30017c-0.27622,0.31465-0.56451,0.61556-0.90501,0.8604
		c-0.44419,0.31939-0.92635,0.53755-1.48894,0.57469c-0.26537,0.01752-0.52958,0.02252-0.79411,0.0227
		C23.36187,12.90233,20.25629,12.90143,17.15071,12.90131z"/>
	<path fill="#123247" d="M31.77324,6.43674c-0.26313-0.1191-0.35271-0.36259-0.40735-0.60972
		c-0.16984-0.76821-0.50239-1.47338-0.82302-2.18464c-0.25038-0.55542-0.56479-1.06906-0.92452-1.56276
		c-0.57652-0.79122-1.34566-1.29998-2.2594-1.61678c-0.06256-0.02169-0.13627-0.01587-0.2048-0.01588
		C19.9227,0.44633,12.69125,0.44611,5.45979,0.44748C5.21793,0.44753,5.03774,0.36653,4.95125,0.12961
		c0.00577-0.04409,0.03165-0.06375,0.07578-0.06324C5.07492,0.06693,5.12281,0.06602,5.1707,0.06602
		c7.31127-0.00002,14.62255,0.0016,21.93382-0.00302c0.60312-0.00038,1.11278,0.22552,1.59488,0.54996
		c0.05691,0.0383,0.11229,0.07884,0.16838,0.11834c0.65288,0.51284,1.15169,1.15698,1.58487,1.85349
		c0.47793,0.76845,0.86947,1.57963,1.14829,2.44022c0.13395,0.41345,0.26266,0.83116,0.26823,1.27268
		C31.87001,6.36564,31.88414,6.44408,31.77324,6.43674z"/>
	<path fill="#3B556B" d="M27.81405,11.9194c-0.18307,0.16482-0.41948,0.15414-0.64114,0.18811
		c-0.07796,0.01195-0.15934,0.00196-0.23916,0.00196c-8.5833,0-17.1666,0-25.7499-0.00001c-0.29366,0-0.31944-0.0254-0.31944-0.3144
		c-0.00001-3.55461-0.00001-7.10923,0-10.66384c0-0.2724,0.03132-0.30452,0.29745-0.30452
		c8.64716-0.00001,17.29432-0.00048,25.94147,0.00218c0.27469,0.00008,0.54466,0.04852,0.77466,0.21956
		c-0.06154,0.04943-0.12174,0.01767-0.18019-0.00538c-0.21059-0.08306-0.42764-0.11035-0.65484-0.11028
		C18.46454,0.93532,9.88612,0.93495,1.30771,0.93485c-0.36477,0-0.3341-0.01914-0.33415,0.33731
		C0.97332,2.92544,0.9733,4.57871,0.97381,6.23198c0.00003,0.08938-0.00947,0.1799,0.02107,0.26708
		c0.01567,0.08898,0.01016,0.17887,0.01018,0.26842c0.00038,1.65132,0.00004,3.30263,0.00101,4.95395
		c0.00004,0.0719-0.01941,0.14932,0.03942,0.21065c0.1069,0.06282,0.22403,0.02466,0.33598,0.03363
		c0.06718,0.00538,0.13506,0.00206,0.20177,0.01629c0.07255,0.023,0.1473,0.01914,0.22166,0.01914
		c8.46417,0.0001,16.92834-0.00005,25.39252,0.00128c0.15181,0.00002,0.29513-0.02822,0.43631-0.07805
		C27.69302,11.90345,27.75254,11.86998,27.81405,11.9194z"/>
	<path fill="#3D566C" d="M27.81405,11.9194c-0.5113,0.20751-1.0482,0.12317-1.57442,0.12346
		c-8.15748,0.00462-16.31497,0.00329-24.47245,0.00216c-0.06684-0.00001-0.13888,0.02278-0.20046-0.02529
		c0.07136-0.07478,0.16514-0.04837,0.25108-0.0527c0.09886-0.00498,0.19821,0.0016,0.29698-0.00986
		c0.24834,0.01202,0.49682,0.0108,0.74544,0.00679c3.52785-0.00284,7.05559-0.00068,10.58333-0.00175
		c0.04264-0.00001,0.08506,0.00243,0.12748,0.00574c3.32292,0.00385,6.64585,0.00087,9.96878,0.00125
		c1.03138,0.00012,2.06278,0.00431,3.09371-0.00425c0.37187,0.01634,0.74376,0.03947,1.09829-0.11852
		c0.27535-0.1227,0.51574-0.2953,0.73731-0.49417c0.59128-0.53071,1.03525-1.17287,1.41717-1.86126
		c0.29568-0.53294,0.54697-1.08527,0.7414-1.6626c0.08528-0.23112,0.15417-0.46694,0.20592-0.70775
		c0.0687-0.15988,0.08441-0.33151,0.11248-0.5004c0.03792-0.21782,0.01743-0.4313-0.04733-0.64149
		c-0.03725-0.25444-0.12308-0.49578-0.20383-0.73847c-0.07368-0.29341-0.19597-0.56922-0.31826-0.84424
		c-0.34282-0.77101-0.76016-1.49937-1.29293-2.15786c-0.36548-0.45173-0.77188-0.85761-1.31373-1.1068
		c-0.16157-0.0743-0.33442-0.10392-0.50076-0.15948c-0.06946-0.00858-0.1387-0.00509-0.20777-0.00509
		C19.16318,0.96675,11.26486,0.96645,3.36661,0.967c-0.32368-0.00143-0.64744-0.00047-0.9712-0.00052
		c-0.06369-0.00001-0.12757-0.00156-0.1888,0.02069C1.98549,1.00626,1.76368,0.99656,1.5423,1.00188
		C1.4309,0.99931,1.31912,1.00792,1.20794,1.0011C1.08343,0.99346,1.03883,1.04765,1.03983,1.16824
		c0.0027,0.32679,0.00281,0.65364,0.0019,0.98051c-0.05264,0.09842-0.03575,0.2054-0.03689,0.30974
		C1.00288,2.63753,1.00496,2.8166,1.0038,2.99565C1.00353,3.03682,0.98737,3.08462,1.04413,3.10619
		C1.04135,4.17498,1.0451,5.24345,1.04184,6.31192C1.04171,6.35405,1.03863,6.39615,1.02465,6.43667
		C1.01293,6.46768,0.99308,6.49058,0.95993,6.5c-0.05184-0.047-0.03078-0.10902-0.03081-0.16452
		C0.92803,4.58732,0.92815,2.83917,0.92833,1.09101c0.00002-0.20035,0.00068-0.20089,0.20705-0.20089
		c8.69453-0.00009,17.38907,0.00009,26.0836-0.00118c0.18032-0.00003,0.34309,0.05984,0.50756,0.11798
		c0.04982,0.01761,0.0953,0.04762,0.15145,0.04152c0.22221,0.0711,0.39548,0.22188,0.56951,0.36383
		c0.61381,0.50068,1.05162,1.14215,1.45721,1.81078c0.38381,0.63272,0.68588,1.30112,0.92035,1.9997
		c0.1251,0.37272,0.2483,0.74964,0.2576,1.1475c0.00562,0.24065-0.03858,0.4785-0.09702,0.71246
		c-0.17915,0.71711-0.46332,1.39578-0.77238,2.0649c-0.04359,0.09437-0.10878,0.1789-0.16397,0.26798
		c-0.06252,0.08998-0.095,0.19652-0.15973,0.28528l0.00001-0.00004c-0.03323,0.05206-0.05601,0.11036-0.0958,0.15851
		l0.00003-0.00005c-0.03328,0.05205-0.05602,0.11036-0.09583,0.15852l0.00007-0.00005
		c-0.10903,0.20256-0.25076,0.38348-0.38331,0.57047l0.00008-0.00003c-0.28934,0.38288-0.62215,0.7249-0.99305,1.02989
		c-0.09694,0.07971-0.20723,0.14275-0.31619,0.20614c-0.02121,0.0106-0.04242,0.02121-0.06363,0.03181
		c-0.03605,0.03424-0.0871,0.03863-0.12793,0.06337L27.81405,11.9194z"/>
	<path fill="#3B556B" d="M28.00556,11.82424c0.33333-0.23921,0.64181-0.50604,0.92367-0.804
		c0.13285-0.14044,0.22965-0.31223,0.38557-0.43203c-0.03477,0.15409-0.16523,0.24128-0.25994,0.3499
		c-0.28426,0.32599-0.59216,0.62914-0.95793,0.86737C28.07275,11.82123,28.0363,11.81842,28.00556,11.82424z"/>
	<path fill="#3B556B" d="M29.31472,10.58824c0.10244-0.20692,0.24129-0.38975,0.38331-0.57047
		C29.62682,10.24537,29.47705,10.42096,29.31472,10.58824z"/>
	<path fill="#3B556B" d="M29.88955,9.70088c0.03389-0.10577,0.067-0.21197,0.15973-0.28528
		C30.02541,9.52689,29.9857,9.62945,29.88955,9.70088z"/>
	<path fill="#3B556B" d="M29.79376,9.85935c0.01093-0.06534,0.03131-0.12506,0.0958-0.15851
		C29.8971,9.77717,29.85872,9.82617,29.79376,9.85935z"/>
	<path fill="#3B556B" d="M29.69797,10.01783c0.01094-0.06535,0.0313-0.12508,0.09582-0.15852
		C29.80128,9.93563,29.76292,9.98465,29.69797,10.01783z"/>
	<path fill="#3B556B" d="M27.814,11.91942c0.03246-0.04138,0.07712-0.05849,0.12793-0.06337
		C27.91753,11.91345,27.86876,11.9224,27.814,11.91942z"/>
	<path fill="#9386BA" d="M2.11352,11.98287c-0.17823,0.07126-0.36558,0.00917-0.54679,0.03684
		c-0.1914-0.00179-0.38279-0.0036-0.57419-0.00541c-0.03604-0.34405-0.00598-0.68912-0.01615-1.03325
		c0.00985-0.09293,0.06923-0.04828,0.09961-0.02617c0.20569,0.14967,0.43714,0.23197,0.68569,0.27589
		c0.05911,0.01044,0.11786,0.04165,0.12969,0.10349C1.93481,11.56128,2.03335,11.7688,2.11352,11.98287z"/>
	<path fill="#43505B" d="M0.99212,10.93596c0.00014,0.35944,0.00027,0.71889,0.00041,1.07834
		c-0.05566-0.05201-0.03104-0.11954-0.03109-0.17981c-0.00151-1.77817-0.00138-3.55633-0.00151-5.3345
		C0.96809,6.4894,0.97625,6.4788,0.9844,6.46821c0.08208,0.07552,0.05798,0.17586,0.05817,0.26741
		c0.002,0.93691,0.00161,1.87382,0.00076,2.81074C1.0432,9.69903,1.04709,9.85147,1.05488,10.00388
		c-0.03175,0.2355-0.00215,0.47215-0.01301,0.70803C1.03832,10.78906,1.05534,10.87154,0.99212,10.93596z"/>
	<path fill="#5C5990" d="M27.3353,0.95329c0.69845,0.1439,1.19321,0.58532,1.64207,1.09877
		c0.46543,0.53239,0.83599,1.12687,1.16082,1.74913c0.21951,0.4205,0.41058,0.85568,0.56446,1.30528
		c0.01323,0.03866,0.01085,0.08257,0.01572,0.12405c-0.02645,0.118-0.05797,0.23479-0.08467,0.35275
		c-0.12634,0.55816-0.64743,0.75409-1.05573,0.82011c-0.02611,0.00422-0.05233-0.00576-0.0763-0.01835
		C29.422,6.31441,29.31645,6.30689,29.22153,6.2772c-0.38926-0.12175-0.68569-0.37678-0.96469-0.65521
		c-0.37413-0.37335-0.78513-0.69617-1.25926-0.93603c-0.23843-0.12062-0.4944-0.1926-0.74935-0.26886
		c-0.86863-0.25982-1.75304-0.44198-2.6562-0.52705c-0.29117-0.02743-0.58499-0.00649-0.87759-0.00783
		c-0.41505-0.0019-0.83018,0.00427-1.24515-0.00216c-0.31787-0.00492-0.59891-0.12064-0.75069-0.40283
		c-0.22826-0.42438-0.59783-0.54275-1.03708-0.54541c-0.55339-0.00335-1.10682-0.00056-1.66023-0.0011
		c-0.07423-0.00007-0.14926,0.00599-0.22168-0.01754c-0.07026-0.0303-0.11744-0.08873-0.16985-0.14033
		c-0.72157-0.71029-1.84468-0.89845-2.76803-0.46442c-0.14839,0.06975-0.30025,0.13264-0.42005,0.24928
		c-0.17286,0.12635-0.31124,0.3014-0.52637,0.36901c-0.54769,0.01603-1.09545,0.01483-1.64271,0.00168
		c-0.25403-0.0061-0.47127-0.12069-0.63735-0.31706c-0.51053-0.60361-0.50196-0.53117-1.16477-0.53176
		C8.7424,2.07807,7.01432,2.07979,5.28625,2.07866c-0.50372-0.00033-0.82752-0.24166-0.9791-0.72273
		C4.29929,1.2992,4.29728,1.24218,4.30086,1.18496c-0.00032-0.03852,0.00002-0.07701,0.00619-0.1153
		c0.01461-0.05939,0.02796-0.11988,0.10403-0.1313c7.5893-0.00064,15.17852-0.00013,22.76774,0.00034
		C27.23098,0.9387,27.28536,0.92565,27.3353,0.95329z"/>
	<path fill="#9386BA" d="M1.01742,10.02059C0.97825,9.85995,0.99136,9.6962,0.99084,9.53368
		C0.98759,8.51186,0.98637,7.49004,0.98444,6.46821C0.98657,5.42577,0.98931,4.38334,0.98989,3.3409
		c0.00005-0.09006,0.00709-0.17771,0.03153-0.26412C1.0115,3.06325,1.00841,3.04833,1.01191,3.03198
		C1.12178,2.79145,1.24418,2.56203,1.5226,2.47247C1.62071,2.46386,1.69945,2.50508,1.77057,2.5666
		c0.18347,0.14499,0.23065,0.34003,0.23027,0.56344C1.99789,4.86736,2.0002,6.60468,1.99828,8.342
		c-0.00039,0.3517,0.1176,0.64007,0.41774,0.84152c0.16925,0.1136,0.35962,0.15182,0.56085,0.15169
		c0.56926-0.00037,1.13852-0.00127,1.70778,0.00028c0.42112,0.00115,0.66227,0.1913,0.76343,0.59755
		c0.10207,0.40994,0.43356,0.68034,0.85923,0.69991c0.08503,0.00391,0.17023,0.0015,0.25534,0.00151
		c2.09083,0.00008,4.18167,0.00055,6.2725-0.00089c0.17973-0.00012,0.35074,0.01805,0.49699,0.1338
		c0.05784,0.03423,0.10228,0.08249,0.14258,0.13501c0.17649,0.21453,0.14261,0.47002,0.14193,0.71908
		c-0.00021,0.04271,0.00115,0.08552-0.00108,0.12824c-0.00021,0.03327,0.00056,0.06661-0.00098,0.09989
		c-0.00009,0.03314-0.00063,0.06628-0.00668,0.09906c-0.00538,0.02517-0.01881,0.04573-0.03732,0.0633
		c-0.76602,0.00093-1.53203,0.00262-2.29805,0.00264c-2.8088,0.00007-5.6176-0.00042-8.42641-0.00069
		c-0.36116-0.16773-0.51947-0.4686-0.5521-0.84527c-0.0233-0.26901-0.05014-0.31178-0.32476-0.31636
		C1.485,10.84418,1.2295,10.49574,1.03322,10.14264C1.01449,10.10895,0.9991,10.06418,1.01742,10.02059z"/>
	<path fill="#635E92" d="M30.65718,7.82956c-0.06046,0.30806-0.20416,0.58606-0.32941,0.86919
		c-0.31235,0.70611-0.69418,1.37435-1.17412,1.98243c-0.33844,0.42879-0.71881,0.81926-1.19611,1.09877
		c-0.25799,0.15108-0.539,0.24501-0.84652,0.23527c-0.13812-0.00437-0.27648-0.00164-0.41473-0.00213
		c-0.03543-0.04402-0.01071-0.08307,0.01833-0.11244c0.10281-0.10402,0.16142-0.23429,0.22563-0.36124
		c0.09327-0.18439,0.23978-0.32405,0.43518-0.37138c0.79507-0.19259,1.27893-0.76174,1.71372-1.38322
		c0.49956-0.71406,0.86953-1.49575,1.16229-2.31417c0.03121-0.08725,0.03698-0.18871,0.12211-0.25101
		C30.55947,7.29656,30.6908,7.57911,30.65718,7.82956z"/>
	<path fill="#646098" d="M30.37027,7.22442c-0.33587,1.05617-0.81729,2.04071-1.49678,2.92151
		c-0.24426,0.31662-0.52579,0.60362-0.87417,0.81797c-0.15681,0.09648-0.32936,0.14416-0.50068,0.19565
		c-0.27041,0.08127-0.4767,0.23271-0.5729,0.50047c-0.0498,0.13864-0.18199,0.21733-0.22944,0.35307
		c-4.37523-0.00038-8.75046-0.00075-13.12571-0.00114c0.00148-0.02025,0.00298-0.04048,0.00447-0.06072
		c0.0777-0.06563,0.17185-0.04579,0.26039-0.04583c2.25094-0.00098,4.50188-0.00076,6.75282-0.00076
		c1.7933,0,3.58661-0.00085,5.37991,0.00151c0.15499,0.00021,0.30717-0.01638,0.45996-0.03462
		c0.11249-0.01343,0.19727-0.07323,0.2648-0.15944c0.03914-0.04996,0.07428-0.10305,0.10237-0.16008
		c0.14215-0.28859,0.3761-0.47029,0.68334-0.55205c0.46931-0.12489,0.81532-0.42017,1.11839-0.77598
		c0.73206-0.85945,1.20463-1.85859,1.58113-2.90891c0.01951-0.05443,0.03146-0.11225,0.06557-0.16097
		C30.32897,7.10092,30.36049,7.14341,30.37027,7.22442z"/>
	<path fill="#2D4961" d="M30.37027,7.22442c-0.02277-0.04086-0.055-0.07227-0.09615-0.09476
		c-0.03512-0.00085-0.05774-0.02572-0.08454-0.04278c-0.02267-0.01426-0.04626-0.02691-0.06911-0.04103
		c-0.05458-0.03831-0.1139-0.06671-0.17791-0.08619c-0.16606-0.05938-0.33567-0.09408-0.51251-0.10713
		c-0.14954-0.01104-0.2395-0.15245-0.20805-0.29695c0.0323-0.14838,0.14389-0.22149,0.28345-0.1857
		c0.57689-0.07536,1.03971-0.32371,1.1216-0.94972c0.00901-0.0689,0.0138-0.14903,0.09134-0.18963
		c0.09709,0.23558,0.20517,0.46832,0.19401,0.73218c0.03462,0.12808-0.04895,0.21493-0.11582,0.30231
		c-0.06271,0.08192-0.14059,0.15249-0.22114,0.21854c-0.02109,0.01568-0.04448,0.02803-0.0663,0.04275
		c-0.12603,0.08504-0.12483,0.08844-0.00303,0.18173c0.10838,0.08301,0.22126,0.16188,0.29568,0.2808
		c0.02764,0.04416,0.06647,0.08357,0.04686,0.14256c-0.00682,0.24813-0.09471,0.47436-0.19147,0.69816
		C30.61249,7.60405,30.56769,7.37859,30.37027,7.22442z"/>
	<path fill="#2D4961" d="M1.01742,10.02059c0.0897,0.23761,0.25142,0.4248,0.42724,0.6023
		c0.1546,0.15608,0.35553,0.17577,0.55846,0.18444c0.26551,0.01134,0.32001,0.06572,0.33169,0.33117
		c0.01475,0.33541,0.14243,0.61153,0.43752,0.79624c0.03143,0.01968,0.06308,0.04002,0.07378,0.07915
		c-0.24393-0.01685-0.49091,0.0371-0.73262-0.03102c-0.13402-0.15606-0.20654-0.33797-0.22976-0.54038
		c-0.0108-0.09417-0.03898-0.16904-0.1529-0.18198c-0.27959-0.03177-0.52439-0.14477-0.73871-0.32453
		c-0.00001-0.25531-0.00088-0.51061,0.0007-0.7659C0.99313,10.1197,0.97637,10.06497,1.01742,10.02059z"/>
	<path fill="#535F69" d="M27.3353,0.95329C19.76203,0.95334,12.18876,0.95339,4.61548,0.9535
		c-0.07977,0-0.15954,0.00087-0.2393,0.00133C4.31369,1.00766,4.2375,1.00018,4.16384,1.00101
		c-0.23326,0.00262-0.4666-0.0039-0.69977,0.0065c-0.0387-0.00031-0.07376-0.01106-0.1032-0.0369
		c-0.01442-0.0146-0.01647-0.03089-0.00617-0.04871c7.93297-0.00007,15.86594-0.00019,23.79891,0.00086
		C27.21451,0.92278,27.28244,0.89908,27.3353,0.95329z"/>
	<path fill="#635E93" d="M1.02071,2.15869C0.96779,2.04826,0.99479,1.93073,0.99275,1.8165
		c-0.00413-0.23131,0.00804-0.46324-0.0046-0.69393C0.98017,0.97696,1.03398,0.93872,1.16949,0.9507
		c0.12093,0.01069,0.2435,0.00295,0.36535,0.00334c0.01526,0.03169,0.0093,0.06379-0.00794,0.09046
		c-0.18546,0.28693-0.0975,0.59823-0.08327,0.90283C1.448,1.96261,1.45361,1.98497,1.4422,1.99204
		C1.30593,2.07649,1.19026,2.19792,1.02211,2.22586C1.00603,2.2038,1.00457,2.18142,1.02071,2.15869z"/>
	<path fill="#625E92" d="M30.84864,7.13141c-0.08576-0.17391-0.22534-0.29958-0.38224-0.40594
		c-0.16136-0.10938-0.16424-0.10888,0.0069-0.21919c0.02572-0.01658,0.05565-0.02673,0.08363-0.03985
		c0.11916-0.06073,0.24025-0.01806,0.35812,0.00048c0.096,0.0151,0.08454,0.09026,0.06073,0.16065
		C30.96226,6.80268,30.96331,6.98143,30.84864,7.13141z"/>
	<path fill="#646097" d="M1.44061,1.96831C1.36342,1.95793,1.37574,1.89882,1.37556,1.84814
		C1.37489,1.66015,1.38255,1.47179,1.37297,1.28428C1.36556,1.13923,1.49492,1.07039,1.53484,0.95404
		C1.75912,0.9528,1.98339,0.95156,2.20766,0.95031C2.23256,0.9366,2.25602,0.9342,2.27602,0.95892
		c-0.00327,0.02902-0.02257,0.0443-0.04745,0.05486C2.10282,1.03059,1.97653,1.04412,1.85082,1.06236
		C1.68042,1.08708,1.57255,1.1912,1.54931,1.35857C1.53052,1.49394,1.50666,1.62864,1.51408,1.76676
		c0.00347,0.06464,0.01244,0.12446,0.05396,0.17635C1.53836,2.01521,1.49134,2.00103,1.44061,1.96831z"/>
	<path fill="#5B5990" d="M30.9758,6.62755c0.00989-0.09063-0.0216-0.13223-0.12273-0.13053
		c-0.09849,0.00165-0.19736-0.01945-0.2961-0.03058c0.13721-0.15489,0.30857-0.28604,0.35541-0.50374
		c0.10271,0.04731,0.05983,0.14886,0.07495,0.22318C31.0169,6.33113,31.03677,6.48201,30.9758,6.62755z"/>
	<path fill="#414F5A" d="M1.02071,2.15869C1.02214,2.17849,1.02357,2.1983,1.025,2.21811
		C1.05945,2.2478,1.07014,2.28896,1.07048,2.33036C1.07246,2.5731,1.10386,2.81776,1.02687,3.05584
		c0.00157,0.00784-0.00024,0.01482-0.00543,0.02094C0.99792,3.08114,0.96234,3.1017,0.96212,3.05795
		C0.9607,2.77348,0.96189,2.48899,0.96428,2.20452C0.96453,2.17473,0.99299,2.16337,1.02071,2.15869z"/>
	<path fill="#424F5A" d="M2.26877,0.95377C2.24838,0.95263,2.22799,0.9515,2.20763,0.95034
		C2.25607,0.9021,2.31758,0.92309,2.3732,0.92276C2.70035,0.92082,3.02752,0.92186,3.35469,0.9219
		c0.00026,0.01033,0.00052,0.02066,0.00078,0.03099C3.34346,0.96301,3.334,0.9787,3.31764,0.98052
		C2.98068,1.01798,2.64361,1.02036,2.30659,0.98134C2.29005,0.97943,2.28074,0.9639,2.26877,0.95377z"/>
	<path fill="#726DAB" d="M29.50543,6.36989c-0.15267,0.01719-0.24928,0.10469-0.25346,0.22957
		c-0.00422,0.12599,0.08139,0.21491,0.21573,0.21602c0.18333,0.00152,0.35654,0.03912,0.51775,0.12718
		c0.07235,0.04427,0.05124,0.10604,0.03296,0.16826c-0.13282,0.45206-0.29958,0.89051-0.52897,1.30396
		c-0.1308,0.23575-0.23426,0.48487-0.36575,0.72078c-0.20732,0.37195-0.46899,0.70387-0.74019,1.02919
		c-0.27904,0.33472-0.6297,0.55843-1.05601,0.67198c-0.26577,0.07079-0.4718,0.23606-0.62233,0.46638
		c-0.03186,0.04875-0.06899,0.09393-0.10056,0.1427c-0.11027,0.1704-0.26155,0.23844-0.46952,0.23825
		c-4.1055-0.00378-8.211-0.00274-12.31651-0.00346c-0.08363-0.00001-0.17188,0.01491-0.24448-0.04637
		c0.00316-0.25203,0.02113-0.50666-0.12978-0.73177c0.06781-0.04124,0.12576,0.00054,0.17854,0.02945
		c0.3232,0.17702,0.86618-0.08241,0.82491-0.5913c-0.01193-0.14716,0.04101-0.21273,0.16202-0.26468
		c0.58571-0.25147,1.16821-0.51022,1.75154-0.76704c0.81183-0.35741,1.62181-0.71897,2.43496-1.07347
		c0.22989-0.10023,0.22352-0.10127,0.41271,0.0617c0.17864,0.15388,0.38456,0.1949,0.60995,0.10692
		c0.22528-0.08794,0.35665-0.25984,0.3755-0.49004c0.01869-0.22823-0.06313-0.45208-0.28571-0.54019
		c-0.23005-0.09106-0.35894-0.22619-0.45222-0.45188c-0.09596-0.23218-0.4073-0.33156-0.64047-0.25765
		c-0.29235,0.09268-0.47154,0.32564-0.43156,0.60343c0.02331,0.16196-0.04456,0.23156-0.17621,0.28812
		c-0.76134,0.32712-1.518,0.66475-2.27488,1.00186c-0.11005,0.04902-0.21342,0.04601-0.32255-0.00254
		c-0.75219-0.33469-1.50474-0.66859-2.25949-0.99756c-0.18379-0.08011-0.19001-0.09268-0.1783-0.29706
		c0.01638-0.28583-0.20083-0.55427-0.49593-0.61289c-0.2594-0.05154-0.56149,0.1141-0.64176,0.37814
		c-0.04829,0.15884-0.1313,0.24097-0.28922,0.29326c-0.26398,0.0874-0.4104,0.31749-0.39626,0.56839
		c0.01487,0.26392,0.2008,0.48509,0.47454,0.54748c0.2155,0.04911,0.40443-0.02495,0.55086-0.1778
		c0.09939-0.10375,0.19051-0.10987,0.31162-0.05552c0.5863,0.26311,1.17383,0.52356,1.76149,0.78369
		c0.05216,0.02309,0.12199,0.04138,0.12377,0.10904c0.00204,0.0775-0.07418,0.09611-0.13078,0.12043
		c-0.16107,0.06922-0.32192,0.13912-0.48134,0.21179c-0.12255,0.05587-0.21265,0.04175-0.3111-0.06008
		c-0.15185-0.15708-0.34558-0.22802-0.56684-0.1705c-0.23621,0.0614-0.38608,0.21013-0.44121,0.4513
		c-0.06341,0.27737,0.10166,0.55927,0.39874,0.67153c0.20368,0.07696,0.32627,0.26859,0.31533,0.49291
		c-0.22131-0.14768-0.47154-0.12963-0.72085-0.12944c-2.09064,0.00163-4.1813-0.00285-6.27191,0.00393
		c-0.44888,0.00146-0.91172-0.3334-0.9718-0.78548C5.34927,9.59145,5.07322,9.38453,4.75852,9.3841
		C4.15739,9.38329,3.55627,9.38408,2.95514,9.38379C2.36367,9.38351,1.95019,8.97596,1.95011,8.39263
		C1.94988,6.66602,1.94692,4.93941,1.9535,3.21283c0.00095-0.24885-0.02574-0.47202-0.22759-0.64248
		c-0.00805-0.0597-0.01367-0.11903,0.02645-0.17149c0.06892-0.0627,0.15541-0.05772,0.24001-0.06258
		c0.18989-0.0109,0.25729-0.07211,0.26378-0.26237c0.0098-0.28746,0.09341-0.537,0.33142-0.71977
		c0.0508-0.03901,0.09741-0.082,0.16689-0.08272c0.44928,0.02669,0.89877,0.00513,1.34797,0.01274
		c0.08355,0.00141,0.17093-0.01131,0.24254,0.04955c0.14567,0.46228,0.47605,0.70235,0.95274,0.70038
		C7.1389,2.0265,8.98015,2.03484,10.82133,2.02717c0.29948-0.00125,0.49882,0.13483,0.6755,0.34791
		c0.13345,0.16094,0.25388,0.33609,0.4595,0.4246c0.12405,0.0534,0.24806,0.08739,0.38344,0.08762
		c0.54267,0.00092,1.08535,0.00405,1.62802,0.00636c0.00775,0.07747-0.04227,0.1275-0.08785,0.17869
		c-0.41342,0.46424-0.59643,1.01539-0.61076,1.62551c-0.00892,0.37974,0.00267,0.75993-0.00304,1.13979
		c-0.00427,0.28431,0.10676,0.49818,0.35097,0.64827c0.14908,0.09163,0.29012,0.19606,0.43883,0.28834
		c0.12004,0.07449,0.18008,0.17488,0.16937,0.31588c-0.00159,0.02097-0.00001,0.0422,0.00008,0.0633
		c0.00152,0.34941,0.09366,0.41817,0.45062,0.34379c0.07389-0.0154,0.09352-0.05863,0.09521-0.12279
		c0.00306-0.11606-0.00095-0.23216,0.00343-0.34824c0.00387-0.1027,0.05582-0.15436,0.15909-0.15715
		c0.1382-0.00374,0.27637-0.00562,0.41452,0.00114c0.09566,0.00468,0.14409,0.05567,0.15034,0.14987
		c0.0077,0.116-0.00342,0.23252,0.00623,0.34808c0.01803,0.21582,0.18903,0.11846,0.29599,0.12709
		c0.09668,0.0078,0.24174,0.05714,0.24749-0.1283c0.00343-0.11077-0.00043-0.22159,0.00357-0.3324
		c0.00396-0.10977,0.05955-0.16347,0.16937-0.16593c0.1329-0.00297,0.26575-0.00422,0.39862,0.00087
		c0.10339,0.00396,0.15381,0.05737,0.15759,0.15939c0.0041,0.11081,0.00242,0.22162,0.00257,0.3324
		c0.00012,0.09037,0.03941,0.13014,0.13277,0.13886c0.39659,0.03706,0.41692,0.02635,0.41111-0.36761
		c-0.00253-0.17132,0.05229-0.29153,0.20229-0.3798c0.15986-0.09408,0.31081-0.20299,0.46517-0.30615
		c0.17503-0.11697,0.28379-0.28439,0.28558-0.48847c0.00461-0.52695,0.04104-1.0551-0.02354-1.58099
		c-0.0609-0.49592-0.25777-0.93249-0.58786-1.3103c-0.04636-0.05306-0.11657-0.10216-0.06925-0.19087
		c0.06666-0.04396,0.12983-0.02585,0.192,0.0103c0.64914,0.00016,1.29836-0.00543,1.94739,0.00336
		c0.25407,0.00344,0.50501,0.04287,0.72329,0.19718c0.15375,0.10869,0.22297,0.27809,0.33023,0.4201
		c0.16798,0.22239,0.39781,0.32648,0.67115,0.32913c0.52671,0.00512,1.05371,0.01069,1.58022-0.00077
		c0.69369-0.01509,1.37161,0.09798,2.04437,0.23886c0.59032,0.12362,1.17642,0.27112,1.74081,0.48922
		c0.39021,0.15079,0.73222,0.38208,1.04678,0.65101c0.27311,0.23349,0.52765,0.48831,0.79958,0.72324
		c0.20355,0.17586,0.45577,0.26339,0.71004,0.34388C29.42584,6.2953,29.52305,6.2626,29.50543,6.36989z"/>
	<path fill="#FEFEFE" d="M17.58422,2.89216c0.24826,0.29096,0.46953,0.59677,0.5952,0.96404
		c0.09507,0.27784,0.14552,0.56128,0.14799,0.85302c0.00336,0.39611,0.00099,0.79227,0.0009,1.18841
		c-0.00006,0.25126-0.10358,0.44771-0.3155,0.58709c-0.18169,0.1195-0.36085,0.24295-0.54532,0.35803
		c-0.07157,0.04465-0.10258,0.09503-0.09873,0.17953c0.00625,0.13705-0.00192,0.27471,0.003,0.41186
		c0.00285,0.07919-0.01794,0.11533-0.10578,0.1108c-0.1692-0.00872-0.38477,0.05237-0.49519-0.02957
		c-0.10698-0.07938-0.03274-0.30577-0.03126-0.46691c0.00101-0.11102-0.03032-0.14964-0.14315-0.14094
		c-0.12166,0.00939-0.24527,0.00988-0.36683-0.00009c-0.11757-0.00965-0.14564,0.03805-0.13827,0.14455
		c0.00836,0.12091-0.00275,0.24307,0.00344,0.36424c0.00461,0.09027-0.01354,0.13652-0.11994,0.12936
		c-0.1638-0.01103-0.37693,0.05255-0.47965-0.02798c-0.10861-0.08514-0.03309-0.30611-0.03292-0.46712
		c0.00011-0.10788-0.02531-0.1517-0.14101-0.1431c-0.1323,0.00983-0.2661,0.00671-0.39886,0.00078
		c-0.08583-0.00383-0.1106,0.02899-0.10772,0.11c0.00506,0.14243-0.00206,0.28528,0.00261,0.42774
		c0.00252,0.07681-0.02647,0.10107-0.10155,0.09879c-0.14354-0.00437-0.28753-0.00597-0.43092,0.00047
		c-0.08944,0.00402-0.10698-0.03497-0.1043-0.11237c0.00458-0.13189-0.00468-0.2644,0.00318-0.39598
		c0.0058-0.09724-0.03183-0.15343-0.11359-0.20382c-0.18959-0.11685-0.37324-0.24324-0.55864-0.36673
		c-0.16452-0.10958-0.27493-0.26642-0.27911-0.45806c-0.01149-0.52747-0.03614-1.05634,0.01237-1.58283
		c0.05097-0.55328,0.27301-1.03588,0.65465-1.44456c0.02513-0.02691,0.04574-0.05799,0.06846-0.08713
		c0.14602-0.11602,0.29203-0.23206,0.43804-0.34809c0.83921-0.55334,1.70576-0.56057,2.58894-0.11783
		C17.22074,2.54102,17.44264,2.66886,17.58422,2.89216z"/>
	<path fill="#6C68A4" d="M17.58422,2.89216c-0.18645-0.12979-0.34605-0.2941-0.55091-0.40115
		c-0.85103-0.44473-1.69687-0.44587-2.54103,0.01616c-0.02755,0.01508-0.05758,0.0257-0.08646,0.0384
		c0.16019-0.18976,0.39218-0.26495,0.60957-0.34916c0.66593-0.25795,1.33091-0.21057,1.97471,0.07792
		c0.31045,0.13912,0.58683,0.33772,0.79821,0.61193C17.72028,2.88822,17.65225,2.89019,17.58422,2.89216z"/>
	<path fill="#6E69A5" d="M4.34497,1.33372C3.89035,1.33373,3.43573,1.33264,2.98113,1.3347
		c-0.0905,0.00041-0.1787-0.00565-0.26503-0.03271c0.02877-0.12293,0.13395-0.14094,0.23321-0.16755
		c0.41088-0.01335,0.82176-0.00337,1.23257-0.00602C4.2408,1.12803,4.29801,1.1332,4.34436,1.17546
		C4.34456,1.22821,4.34477,1.28097,4.34497,1.33372z"/>
	<path fill="#6B66A0" d="M4.34436,1.17546C3.86519,1.17528,3.38602,1.1751,2.90685,1.17492
		C2.94516,1.04255,3.06055,1.051,3.1635,1.0363c0.31808-0.00403,0.63606-0.0096,0.95409-0.00594
		c0.07877,0.00091,0.16064-0.00789,0.22712,0.04992C4.34459,1.112,4.34448,1.14373,4.34436,1.17546z"/>
	<path fill="#67629B" d="M4.34471,1.08028c-0.40492-0.00025-0.80984-0.0005-1.21475-0.00075
		c0.0661-0.1245,0.19508-0.05853,0.29043-0.09445c0.13053-0.06221,0.26923-0.02521,0.40394-0.02983
		c0.18374-0.0063,0.36789-0.00085,0.55186-0.00043C4.36569,0.99665,4.3552,1.03847,4.34471,1.08028z"/>
	<path fill="#FEFEFE" d="M13.35495,10.81179c-0.04036-0.11885-0.11693-0.22408-0.13002-0.35352
		c-0.01045-0.10332-0.10871-0.06878-0.16375-0.08516c-0.40328-0.12-0.59311-0.54265-0.39957-0.90699
		c0.20439-0.38477,0.75583-0.44673,1.03454-0.10845c0.06876,0.08346,0.11961,0.09142,0.21024,0.04892
		c0.21489-0.10076,0.43404-0.19257,0.65118-0.28787c-0.01628-0.06968-0.07108-0.07253-0.11124-0.0904
		c-0.60578-0.26951-1.21292-0.53604-1.81763-0.80791c-0.09201-0.04137-0.14258-0.03475-0.20914,0.05034
		c-0.16333,0.2088-0.45741,0.27476-0.70709,0.17765c-0.25169-0.0979-0.41744-0.35347-0.40429-0.62338
		c0.01235-0.25358,0.19356-0.49265,0.44635-0.55687c0.12925-0.03284,0.19293-0.08201,0.2279-0.22128
		c0.07777-0.30973,0.42203-0.50641,0.71406-0.43661c0.35708,0.08534,0.56877,0.38415,0.50373,0.72548
		c-0.01509,0.07918,0.00281,0.11385,0.07304,0.14461c0.80658,0.35329,1.61251,0.70802,2.41763,1.06457
		c0.07193,0.03186,0.13165,0.01686,0.19746-0.01225c0.78575-0.34769,1.57168-0.69499,2.35883-1.03954
		c0.08219-0.03597,0.12188-0.06571,0.10088-0.17215c-0.06689-0.33914,0.15461-0.63453,0.51796-0.71422
		c0.28502-0.06251,0.62981,0.14203,0.70021,0.4389c0.03093,0.13043,0.08241,0.1881,0.21271,0.21969
		c0.27493,0.06665,0.45362,0.30814,0.46406,0.5929c0.00888,0.24237-0.16896,0.49946-0.4079,0.58967
		c-0.26585,0.10036-0.53928,0.03335-0.71449-0.19206c-0.06062-0.07799-0.10772-0.07469-0.18544-0.04035
		c-1.45542,0.64313-2.91166,1.28443-4.36798,1.92556c-0.06006,0.02644-0.10979,0.04273-0.09001,0.13417
		c0.0556,0.25691-0.03246,0.47077-0.24372,0.62429c-0.22211,0.1614-0.45979,0.17583-0.70199,0.03536
		c-0.02638-0.0153-0.05797-0.02175-0.08714-0.03231C13.41453,10.8723,13.38474,10.84204,13.35495,10.81179z"/>
	<path fill="#6E69A5" d="M13.57409,11.63433c4.1539-0.00008,8.30781-0.00446,12.46168,0.00827
		c0.3171,0.00097,0.48961-0.12452,0.63341-0.3654c0.14314-0.23978,0.35182-0.40748,0.62359-0.47661
		c0.51881-0.13198,0.8938-0.44971,1.21728-0.85774c0.2489-0.31395,0.48982-0.63488,0.6631-0.9916
		c0.27452-0.56515,0.6063-1.1083,0.75233-1.72862c0.0218-0.09257,0.11876-0.17056,0.05998-0.27996
		c0.06518,0.0113,0.12223,0.03667,0.16184,0.0922c0.02314,0.17737-0.06859,0.32802-0.12567,0.48306
		c-0.27831,0.75597-0.63149,1.47685-1.08825,2.14302c-0.23592,0.34408-0.49126,0.67501-0.82708,0.93549
		c-0.18725,0.14525-0.39107,0.25671-0.61837,0.31825c-0.35436,0.09595-0.61515,0.29555-0.77944,0.62521
		c-0.09009,0.18076-0.24775,0.26987-0.45419,0.26709c-0.04787-0.00064-0.09577,0.00032-0.14366,0.00032
		c-4.08655,0.00002-8.17309,0.00016-12.25963-0.00086c-0.09361-0.00002-0.19326,0.02257-0.27652-0.04536
		C13.57436,11.71883,13.57423,11.67658,13.57409,11.63433z"/>
	<path fill="#67629B" d="M30.20838,7.07107c0.0219,0.01955,0.04381,0.03911,0.06572,0.05863
		c-0.08368,0.35497-0.22966,0.68819-0.37295,1.02124c-0.24638,0.57264-0.53917,1.12191-0.90067,1.63189
		c-0.27195,0.38364-0.56753,0.74729-0.96411,1.01636c-0.20909,0.14186-0.44756,0.21354-0.68226,0.29503
		c-0.22115,0.07678-0.3944,0.21781-0.48513,0.42753c-0.13673,0.31604-0.38288,0.42723-0.70491,0.42919
		c-0.04255,0.00026-0.0851,0.00007-0.12765,0.00007c-4.1538,0.00008-8.30759,0.00015-12.46137,0.00022
		c-0.00009-0.03168-0.00021-0.06337-0.00032-0.09505c0.07766-0.06553,0.17174-0.04586,0.26026-0.0459
		c2.29229-0.00096,4.58457-0.00074,6.87686-0.00075c1.76575,0,3.5315,0.00001,5.29725-0.00001
		c0.07978,0,0.15956,0.0002,0.23932-0.00152c0.22209-0.00481,0.37968-0.10015,0.47772-0.30527
		c0.13694-0.2865,0.36399-0.48383,0.67364-0.56274c0.54641-0.13924,0.92631-0.49526,1.25796-0.91848
		c0.6563-0.83749,1.11023-1.77965,1.45307-2.77896C30.1322,7.18018,30.13366,7.10444,30.20838,7.07107z"/>
	<path fill="#6B66A0" d="M30.20838,7.07107c-0.17782,0.52979-0.37703,1.05054-0.63232,1.54964
		c-0.274,0.53567-0.57538,1.05233-0.96692,1.51435c-0.13371,0.15778-0.27385,0.30746-0.42831,0.44435
		c-0.21781,0.19304-0.47398,0.31028-0.75399,0.38792c-0.30009,0.0832-0.5402,0.26119-0.66322,0.54596
		c-0.12017,0.27816-0.34151,0.33787-0.60215,0.3414c-0.36685,0.00496-0.73381,0.00125-1.10073,0.00126
		c-3.82868,0.00008-7.65736,0.00016-11.48602,0.00024c-0.00007-0.0317-0.00016-0.0634-0.00023-0.09509
		c4.20716-0.00007,8.41431-0.00157,12.62144,0.0033c0.25191,0.00029,0.40699-0.09622,0.51568-0.31359
		c0.11961-0.2392,0.304-0.44086,0.56458-0.50503c0.71674-0.1765,1.17354-0.6652,1.56825-1.23236
		c0.54948-0.78954,0.95603-1.65017,1.25836-2.56037c0.01325-0.03989,0.02958-0.07877,0.04449-0.11814
		C30.16765,7.04693,30.18802,7.059,30.20838,7.07107z"/>
	<path fill="#2D4961" d="M3.42038,0.98508C3.34712,1.08783,3.21493,1.01214,3.12997,1.07954
		C3.04295,1.0822,2.97064,1.11872,2.90686,1.17492C2.83544,1.2057,2.77149,1.24752,2.7161,1.30198
		C2.43195,1.49153,2.29133,1.75171,2.29975,2.09592C2.3047,2.29789,2.2164,2.37571,2.0078,2.37894
		c-0.085,0.00132-0.16825,0.00664-0.24901,0.0343c-0.06969,0.0736-0.1712,0.06043-0.2561,0.09254
		c-0.24648,0.1084-0.35024,0.33845-0.47582,0.54998C1.02624,2.77661,1.02561,2.49739,1.02499,2.21814
		c0.13854-0.0833,0.27706-0.16657,0.41561-0.24984c0.04431-0.00357,0.09302,0.01068,0.1278-0.03124
		C1.57337,1.93157,1.57835,1.92608,1.58327,1.9205c0.04518-0.02647,0.10092-0.02111,0.14576-0.0483
		c0.06294-0.03421,0.07288-0.0961,0.08809-0.15745c0.04381-0.17671,0.09103-0.35255,0.19324-0.50755
		c0.03449-0.04688,0.06572-0.09638,0.10729-0.13788c0.03329-0.03939,0.08062-0.0581,0.12405-0.08262
		c0.00903-0.01098,0.01806-0.02195,0.02709-0.03292C2.631,0.95348,2.99323,0.95319,3.35546,0.9529
		C3.38196,0.95397,3.40616,0.95962,3.42038,0.98508z"/>
	<path fill="#2D4961" d="M3.51423,10.16758c-0.00394,0.23757-0.20636,0.42828-0.44587,0.42009
		c-0.23254-0.00796-0.41927-0.20325-0.41544-0.43449C2.65686,9.91561,2.85934,9.72482,3.0988,9.73304
		C3.33131,9.74102,3.51807,9.93637,3.51423,10.16758z"/>
	<path fill="#6B67A1" d="M1.50269,2.50578c0.08074-0.04347,0.15902-0.09365,0.2561-0.09256
		c-0.00815,0.05296,0.0208,0.11356-0.03288,0.15713C1.65612,2.53312,1.58645,2.49546,1.50269,2.50578z"/>
	<path fill="#67629B" d="M2.24169,0.98669C2.21904,1.02726,2.18797,1.05962,2.14688,1.08216
		C2.06053,1.12753,1.96476,1.13818,1.87077,1.15389C1.73985,1.17577,1.667,1.2505,1.64093,1.37926
		c-0.02427,0.11986-0.03094,0.2401-0.02969,0.36171c0.0007,0.06806,0.0068,0.13861-0.04392,0.19588
		c0,0,0.00104,0.00019,0.00106,0.0002c-0.06257,0.0018-0.09435-0.02023-0.09875-0.09037
		C1.45806,1.66217,1.4817,1.47989,1.51254,1.3005C1.5386,1.14887,1.64886,1.04356,1.80222,1.02401
		C1.94727,1.00551,2.09248,0.96446,2.24169,0.98669z"/>
	<path fill="#FEFEFE" d="M16.18502,9.78974c0.38152-0.17043,0.73809-0.32987,1.09481-0.48899
		c0.11736-0.05235,0.20453,0.03089,0.29547,0.07438c0.12403,0.05932,0.20735,0.08539,0.31432-0.05485
		c0.14783-0.19383,0.47281-0.23272,0.70144-0.127c0.23557,0.10892,0.38979,0.36057,0.37434,0.61083
		c-0.01549,0.25099-0.20382,0.49669-0.44955,0.55442c-0.1256,0.0295-0.18804,0.07701-0.22147,0.20897
		c-0.08032,0.31708-0.42222,0.51942-0.72068,0.44874c-0.35924-0.08508-0.56705-0.37592-0.50302-0.72488
		c0.01681-0.09162-0.01254-0.11748-0.08607-0.14872C16.723,10.03148,16.46426,9.91365,16.18502,9.78974z"/>
	<path fill="#2D4961" d="M28.26071,6.57332c0.00308,0.23681-0.19049,0.43233-0.42898,0.4333
		c-0.23852,0.00098-0.43378-0.19301-0.4326-0.42977c0.00116-0.23049,0.18904-0.42028,0.42109-0.42536
		C28.05887,6.14626,28.25762,6.3366,28.26071,6.57332z"/>
	<path fill="#2D4961" d="M3.51433,3.06664C3.51131,3.30349,3.31278,3.49372,3.074,3.48857
		C2.83568,3.48344,2.64558,3.28437,2.6529,3.04763c0.00713-0.23029,0.19999-0.41507,0.4323-0.41419
		C3.3236,2.63433,3.51736,2.82994,3.51433,3.06664z"/>
	<path fill="#726DAB" d="M13.85802,5.31739c0.00041-0.34982,0.28332-0.62632,0.64081-0.62628
		c0.35855,0.00004,0.63972,0.28356,0.64069,0.64604c0.00092,0.34237-0.28934,0.6244-0.6442,0.62597
		C14.13338,5.96472,13.85759,5.68528,13.85802,5.31739z"/>
	<path fill="#726DAB" d="M16.41261,5.31333c0.00479-0.34931,0.2925-0.62483,0.64976-0.62221
		c0.3573,0.00262,0.63698,0.294,0.6316,0.65803c-0.00507,0.34303-0.30193,0.61947-0.65927,0.61393
		C16.68345,5.95763,16.40774,5.66966,16.41261,5.31333z"/>
	<path fill="#726DAC" d="M15.77446,6.28011c-0.01585,0-0.03171,0-0.04756,0c-0.31073,0-0.31843-0.01035-0.2347-0.31549
		c0.05225-0.19043,0.16908-0.32246,0.28442-0.32144c0.11364,0.001,0.23218,0.13735,0.28203,0.32438
		C16.14195,6.28011,16.14195,6.28011,15.77446,6.28011z"/>
	<path fill="#6E69A5" d="M2.04493,1.20591C1.95445,1.38754,1.88069,1.5742,1.84679,1.77597
		C1.83676,1.83562,1.83266,1.92032,1.72942,1.9058C1.63884,1.93958,1.62843,1.86905,1.6229,1.81485
		C1.60739,1.66296,1.60485,1.50943,1.64269,1.3604C1.67637,1.22777,1.82117,1.1316,1.95647,1.14155
		C1.9979,1.1446,2.04496,1.14464,2.04493,1.20591z"/>
	<path fill="#6A659F" d="M2.04493,1.20591C1.8789,1.1478,1.71415,1.21711,1.67661,1.38129
		C1.6406,1.53882,1.66104,1.70297,1.66913,1.86413c0.0014,0.02792,0.03375,0.03645,0.06026,0.04165
		C1.68234,1.95196,1.62226,1.93116,1.56731,1.93684C1.56732,1.8052,1.5553,1.67225,1.56962,1.54216
		c0.04005-0.36381,0.10032-0.41636,0.46587-0.461c0.03651-0.00446,0.07417,0.00042,0.11134,0.00098
		C2.1129,1.12341,2.07892,1.16466,2.04493,1.20591z"/>
</g>
</svg>
