<?xml version="1.0" encoding="utf-8"?>
<!-- Generator: Adobe Illustrator 23.0.0, SVG Export Plug-In . SVG Version: 6.00 Build 0)  -->
<svg version="1.1" id="Слой_1" xmlns="http://www.w3.org/2000/svg" xmlns:xlink="http://www.w3.org/1999/xlink" x="0px" y="0px" width="32px" height="13px"
	 viewBox="0 0 32 13" enable-background="new 0 0 32 13" xml:space="preserve">
<g>
	<path fill="#55708A" d="M0.00225,12.23625c0-2.21853,0-4.43706,0-6.65559c0.01796-0.01273,0.0375-0.01592,0.05868-0.0096
		C0.07813,5.58375,0.09056,5.6,0.09853,5.61971C0.12702,5.71267,0.1171,5.8084,0.11713,5.90305
		c0.00064,1.95427,0.00069,3.90853-0.00002,5.8628c-0.00005,0.1378,0.00338,0.27506,0.03584,0.40938
		c0.08204,0.33946,0.29457,0.55315,0.63578,0.63856c0.1457,0.03647,0.2948,0.03731,0.44415,0.0373
		c5.19367-0.00046,10.38734-0.00054,15.58102,0.00064c0.1098,0.00003,0.22447-0.02317,0.32743,0.03974
		c0.02428,0.02765,0.02707,0.05558,0.00101,0.08384c-0.0635,0.01016-0.12747,0.00499-0.19119,0.005
		c-5.31554,0.00028-10.63108,0.00018-15.94662,0.00114c-0.06787,0.00001-0.1382-0.01706-0.20401,0.01544
		c-0.01064,0-0.02129,0-0.03193,0c-0.05949-0.05009-0.13607-0.0433-0.20559-0.0604
		C0.23082,12.81771,0.05949,12.57194,0.00225,12.23625z"/>
	<path fill="#224053" d="M27.59046,0.00265c0.32386,0.10065,0.64818,0.20023,0.93011,0.39754
		c0.09599,0.0898,0.21695,0.14655,0.31493,0.23302c0.04213,0.03717,0.10724,0.09228-0.02023,0.10375
		c-0.14833-0.0627-0.26842-0.17015-0.40653-0.24946c-0.42814-0.24584-0.8798-0.37452-1.38161-0.37416
		c-7.23145,0.00526-14.4629,0.00359-21.69435,0.00364c-0.11701,0-0.23431-0.00442-0.34987,0.01979
		C4.93533,0.14771,4.90621,0.12901,4.89473,0.08234c-0.00418-0.03031,0.00569-0.05643,0.02486-0.0797
		C12.47655,0.00265,20.0335,0.00265,27.59046,0.00265z"/>
	<path fill="#40586D" d="M17.14994,12.96455c-0.00083-0.02076-0.00167-0.04152-0.0025-0.06228
		c0.00674-0.00644,0.01348-0.01288,0.02016-0.01943c0.09111-0.04217,0.18836-0.02632,0.28307-0.02635
		c3.13255-0.00086,6.26511-0.00517,9.39765,0.0021c0.903,0.0021,1.65091-0.32769,2.29341-0.94149
		c0.89008-0.85032,1.50345-1.8799,1.99245-2.99132c0.3029-0.68844,0.55177-1.39432,0.67311-2.13991
		c0.01756-0.10792-0.00973-0.22394,0.05476-0.32409c0.04657-0.03163,0.09141-0.02704,0.13486,0.00628c0,0.02113,0,0.04226,0,0.06339
		c-0.01669,0.01775-0.02211,0.04057-0.02861,0.06296c-0.03206,0.40668-0.13439,0.79955-0.25625,1.1859
		c-0.37038,1.17435-0.89763,2.27343-1.62596,3.27347c-0.17399,0.2389-0.36882,0.46122-0.55348,0.69204
		c-0.34113,0.35835-0.71779,0.67521-1.15446,0.91001c-0.37152,0.19978-0.76965,0.32535-1.20051,0.32522
		c-3.32396-0.00102-6.64791-0.00026-9.97187-0.00065C17.18523,12.98183,17.16662,12.97653,17.14994,12.96455z"/>
	<path fill="#3B556C" d="M4.91959,0.00265C4.9194,0.0236,4.91921,0.04454,4.91901,0.06549
		c-0.08219,0.06849-0.1816,0.04975-0.27546,0.04985C3.43682,0.11662,2.23008,0.11683,1.02334,0.11547
		C0.80405,0.11522,0.60158,0.15543,0.43,0.30238C0.23079,0.473,0.14783,0.69053,0.14818,0.9476
		c0.00105,0.78092,0.00046,1.56184,0.00035,2.34276C0.14844,3.96575,0.14898,4.64114,0.14797,5.31653
		C0.14784,5.40019,0.15885,5.48607,0.11754,5.56521C0.10469,5.58508,0.08715,5.59065,0.06504,5.582
		C0.05479,5.58147,0.04454,5.58079,0.0343,5.57997C0.00468,5.52524,0.01948,5.46607,0.01944,5.40921
		C0.0185,3.91739,0.0189,2.42557,0.01793,0.93375C0.01789,0.87698,0.03324,0.81768,0.00225,0.76329c0-0.01056,0-0.02113,0-0.03169
		c0.03979-0.2659,0.16864-0.47446,0.39489-0.62666C0.48274,0.04734,0.57882,0.0309,0.67279,0.00265
		C2.08839,0.00265,3.50399,0.00265,4.91959,0.00265z"/>
	<path fill="#264356" d="M31.99691,6.46808c-0.04213,0.00037-0.08426,0.00074-0.12639,0.00111
		c-0.04101,0.02633-0.07783,0.03098-0.10397-0.0197c0.09461-0.13423,0.06846-0.28203,0.04318-0.42707
		c-0.11863-0.68057-0.3442-1.32775-0.62241-1.95879c-0.32323-0.73315-0.71682-1.4271-1.1876-2.07594
		c-0.29251-0.40315-0.61979-0.77837-1.00661-1.09825c-0.05239-0.04333-0.11103-0.08406-0.12534-0.15814
		c-0.02511-0.11014-0.13666-0.13155-0.20481-0.19748c-0.0468-0.04528-0.1297-0.05282-0.14238-0.13363
		c0.48603,0.27854,0.88571,0.65841,1.23725,1.08412c1.04977,1.27127,1.76888,2.70872,2.15862,4.30762
		c0.02662,0.10919,0.01726,0.22727,0.08047,0.32753C31.99691,6.23566,31.99691,6.35187,31.99691,6.46808z"/>
	<path fill="#697682" d="M17.14994,12.96455c0.01008,0.00055,0.02016,0.001,0.03024,0.00134
		c0.01094,0.0066,0.0147,0.01339,0.01132,0.02038c-0.00342,0.00707-0.0069,0.01062-0.01048,0.01062c-5.46017,0-10.92033,0-16.3805,0
		c0.05803-0.05779,0.13145-0.03038,0.19721-0.0304C6.3818,12.96487,11.76587,12.96477,17.14994,12.96455z"/>
	<path fill="#535F69" d="M17.18102,12.99689c-0.00003-0.01035-0.00031-0.02069-0.00083-0.03101
		c3.27751-0.00022,6.55502-0.00246,9.83253,0.00137c0.52312,0.00061,1.00591-0.12009,1.45298-0.38788
		c0.40208-0.24084,0.76402-0.5293,1.07253-0.88202c0.01667-0.01328,0.03168-0.01163,0.04502,0.00495
		c-0.55965,0.62217-1.19919,1.11665-2.05416,1.26771c-0.01268,0.00224-0.023,0.01762-0.03442,0.02687
		C24.05678,12.99689,20.6189,12.99689,17.18102,12.99689z"/>
	<path fill="#445B6E" d="M29.58325,11.70231c-0.01501-0.00165-0.03001-0.0033-0.04502-0.00495
		c0.58495-0.67699,1.07791-1.41442,1.46782-2.21808c0.38671-0.79707,0.705-1.61876,0.88559-2.48857
		c0.02944-0.14181,0.01912-0.2901,0.07314-0.42758c0.02255,0.01523,0.01037,0.0478,0.03214,0.06343c0,0.05282,0,0.10564,0,0.15847
		c-0.09524,0.24971-0.11542,0.51743-0.19083,0.77246c-0.42271,1.42939-1.06171,2.74858-2.00946,3.91168
		C29.73021,11.55065,29.65458,11.62476,29.58325,11.70231z"/>
	<path fill="#40596F" d="M0.00225,0.76329C0.05765,0.81542,0.033,0.88288,0.03306,0.94316
		c0.00146,1.54561,0.0012,3.09122,0.00124,4.63682C0.02362,5.5802,0.01293,5.58043,0.00225,5.58067
		C0.00225,3.97487,0.00225,2.36908,0.00225,0.76329z"/>
	<path fill="#697682" d="M0.73666,12.99689c-0.03857-0.05975-0.12381-0.0377-0.16506-0.09277
		c0.07591,0.00948,0.16385-0.00619,0.19699,0.09277C0.75794,12.99689,0.7473,12.99689,0.73666,12.99689z"/>
	<path fill="#767F87" d="M31.99691,6.62654c-0.02834-0.01234-0.03056-0.03772-0.03214-0.06342
		c0.01071-0.01055,0.02143-0.0211,0.03214-0.03166C31.99691,6.56316,31.99691,6.59485,31.99691,6.62654z"/>
	<path fill="#44637F" d="M0.06504,5.582c0.01107-0.00052,0.02213-0.00103,0.0332-0.00155
		c0.20078-0.00713,0.37317,0.14605,0.41981,0.37439c0.01918,0.09388,0.01422,0.18933,0.01423,0.28428
		c0.00023,1.83743,0.00013,3.67487,0.00024,5.5123c0,0.0739-0.00312,0.14799,0.0047,0.22161
		c0.02509,0.23633,0.21904,0.43165,0.45697,0.4597c0.09,0.01061,0.18068,0.00607,0.27107,0.00607
		c5.06421,0.00015,10.12843,0.0001,15.19264,0.00034c0.10625,0,0.2132-0.00696,0.31823,0.01487
		c0.24134,0.05016,0.40569,0.24731,0.37457,0.44729c0,0-0.00323,0.00095-0.00325,0.00096
		c-5.35062-0.00019-10.70122,0.00003-16.05182-0.00166c-0.29248-0.00009-0.557-0.06506-0.77498-0.29268
		C0.12381,12.40237,0.06891,12.1607,0.0684,11.9011C0.06446,9.86336,0.06623,7.82562,0.06616,5.78787
		C0.06616,5.71925,0.06543,5.65063,0.06504,5.582z"/>
	<path fill="#2D4961" d="M17.15071,12.90131c-0.09489-0.31029-0.23031-0.41146-0.55218-0.41147
		c-5.16477-0.00008-10.32954-0.00299-15.49428,0.00654C0.76918,12.497,0.47196,12.20201,0.47435,11.875
		c0.01396-1.91106,0.00686-3.82227,0.00683-5.73343c-0.00001-0.32157-0.07916-0.43742-0.38294-0.5611
		C0.09817,4.02238,0.09779,2.4643,0.09819,0.90622c0.00012-0.47818,0.36436-0.83981,0.8459-0.84005
		c1.32498-0.00066,2.64996-0.0005,3.97493-0.00068c0.00131,0.02604,0.00665,0.05009,0.03223,0.06412
		c0.04718,0.01833,0.07453,0.0584,0.10457,0.09509c0.09342,0.11413,0.21542,0.16802,0.36191,0.17205
		C5.49755,0.39895,5.57737,0.3983,5.65719,0.3983c7.02476,0.00005,14.04954,0.00482,21.07427-0.00904
		c0.55959-0.0011,1.03779,0.15815,1.51309,0.41069c0.69686,0.37026,1.19597,0.93608,1.64209,1.56422
		c0.43946,0.61875,0.72292,1.31471,1.03162,1.9985c0.20493,0.45392,0.37786,0.92019,0.48082,1.40819
		c0.05556,0.26332,0.19675,0.47313,0.37417,0.66586c0.02349,0.03718,0.06203,0.02988,0.09726,0.03244
		c0.01048,0.39972-0.09508,0.78104-0.2064,1.15764c-0.26049,0.88128-0.62954,1.71888-1.08922,2.51546
		c-0.26581,0.46062-0.56639,0.89807-0.91938,1.30017c-0.27622,0.31465-0.56451,0.61556-0.90501,0.8604
		c-0.44419,0.31939-0.92635,0.53755-1.48894,0.57469c-0.26537,0.01752-0.52958,0.02252-0.79411,0.0227
		C23.36187,12.90233,20.25629,12.90143,17.15071,12.90131z"/>
	<path fill="#123247" d="M31.77324,6.43674c-0.26313-0.1191-0.35271-0.36259-0.40735-0.60972
		c-0.16984-0.76821-0.50239-1.47338-0.82302-2.18464c-0.25038-0.55542-0.56479-1.06906-0.92452-1.56276
		c-0.57652-0.79122-1.34566-1.29998-2.2594-1.61678c-0.06256-0.02169-0.13627-0.01587-0.2048-0.01588
		C19.9227,0.44633,12.69125,0.44611,5.45979,0.44748C5.21793,0.44753,5.03774,0.36653,4.95125,0.12961
		c0.00577-0.04409,0.03165-0.06375,0.07578-0.06324C5.07492,0.06693,5.12281,0.06602,5.1707,0.06602
		c7.31127-0.00002,14.62255,0.0016,21.93382-0.00302c0.60312-0.00038,1.11278,0.22552,1.59488,0.54996
		c0.05691,0.0383,0.11229,0.07884,0.16838,0.11834c0.65288,0.51284,1.15169,1.15698,1.58487,1.85349
		c0.47793,0.76845,0.86947,1.57963,1.14829,2.44022c0.13395,0.41345,0.26266,0.83116,0.26823,1.27268
		C31.87001,6.36564,31.88414,6.44408,31.77324,6.43674z"/>
	<path fill="#3B556B" d="M27.81405,11.9194c-0.18307,0.16482-0.41948,0.15414-0.64114,0.18811
		c-0.07796,0.01195-0.15934,0.00196-0.23916,0.00196c-8.5833,0-17.1666,0-25.7499-0.00001c-0.29366,0-0.31944-0.0254-0.31944-0.3144
		c-0.00001-3.55461-0.00001-7.10923,0-10.66384c0-0.2724,0.03132-0.30452,0.29745-0.30452
		c8.64716-0.00001,17.29432-0.00048,25.94147,0.00218c0.27469,0.00008,0.54466,0.04852,0.77466,0.21956
		c-0.06154,0.04943-0.12174,0.01767-0.18019-0.00538c-0.21059-0.08306-0.42764-0.11035-0.65484-0.11028
		C18.46454,0.93532,9.88612,0.93495,1.30771,0.93485c-0.36477,0-0.3341-0.01914-0.33415,0.33731
		C0.97332,2.92544,0.9733,4.57871,0.97381,6.23198c0.00003,0.08938-0.00947,0.1799,0.02107,0.26708
		c0.01567,0.08898,0.01016,0.17887,0.01018,0.26842c0.00038,1.65132,0.00004,3.30263,0.00101,4.95395
		c0.00004,0.0719-0.01941,0.14932,0.03942,0.21065c0.1069,0.06282,0.22403,0.02466,0.33598,0.03363
		c0.06718,0.00538,0.13506,0.00206,0.20177,0.01629c0.07255,0.023,0.1473,0.01914,0.22166,0.01914
		c8.46417,0.0001,16.92834-0.00005,25.39252,0.00128c0.15181,0.00002,0.29513-0.02822,0.43631-0.07805
		C27.69302,11.90345,27.75254,11.86998,27.81405,11.9194z"/>
	<path fill="#3D566C" d="M27.81405,11.9194c-0.5113,0.20751-1.0482,0.12317-1.57442,0.12346
		c-8.15748,0.00462-16.31497,0.00329-24.47245,0.00216c-0.06684-0.00001-0.13888,0.02278-0.20046-0.02529
		c0.07136-0.07478,0.16514-0.04837,0.25108-0.0527c0.09886-0.00498,0.19821,0.0016,0.29698-0.00986
		c0.24834,0.01202,0.49682,0.0108,0.74544,0.00679c3.52785-0.00284,7.05559-0.00068,10.58333-0.00175
		c0.04264-0.00001,0.08506,0.00243,0.12748,0.00574c3.32292,0.00385,6.64585,0.00087,9.96878,0.00125
		c1.03138,0.00012,2.06278,0.00431,3.09371-0.00425c0.37187,0.01634,0.74376,0.03947,1.09829-0.11852
		c0.27535-0.1227,0.51574-0.2953,0.73731-0.49417c0.59128-0.53071,1.03525-1.17287,1.41717-1.86126
		c0.29568-0.53294,0.54697-1.08527,0.7414-1.6626c0.08528-0.23112,0.15417-0.46694,0.20592-0.70775
		c0.0687-0.15988,0.08441-0.33151,0.11248-0.5004c0.03792-0.21782,0.01743-0.4313-0.04733-0.64149
		c-0.03725-0.25444-0.12308-0.49578-0.20383-0.73847c-0.07368-0.29341-0.19597-0.56922-0.31826-0.84424
		c-0.34282-0.77101-0.76016-1.49937-1.29293-2.15786c-0.36548-0.45173-0.77188-0.85761-1.31373-1.1068
		c-0.16157-0.0743-0.33442-0.10392-0.50076-0.15948c-0.06946-0.00858-0.1387-0.00509-0.20777-0.00509
		C19.16318,0.96675,11.26486,0.96645,3.36661,0.967c-0.32368-0.00143-0.64744-0.00047-0.9712-0.00052
		c-0.06369-0.00001-0.12757-0.00156-0.1888,0.02069C1.98549,1.00626,1.76368,0.99656,1.5423,1.00188
		C1.4309,0.99931,1.31912,1.00792,1.20794,1.0011C1.08343,0.99346,1.03883,1.04765,1.03983,1.16824
		c0.0027,0.32679,0.00281,0.65364,0.0019,0.98051c-0.05264,0.09842-0.03575,0.2054-0.03689,0.30974
		C1.00288,2.63753,1.00496,2.8166,1.0038,2.99565C1.00353,3.03682,0.98737,3.08462,1.04413,3.10619
		C1.04135,4.17498,1.0451,5.24345,1.04184,6.31192C1.04171,6.35405,1.03863,6.39615,1.02465,6.43667
		C1.01293,6.46768,0.99308,6.49058,0.95993,6.5c-0.05184-0.047-0.03078-0.10902-0.03081-0.16452
		C0.92803,4.58732,0.92815,2.83917,0.92833,1.09101c0.00002-0.20035,0.00068-0.20089,0.20705-0.20089
		c8.69453-0.00009,17.38907,0.00009,26.0836-0.00118c0.18032-0.00003,0.34309,0.05984,0.50756,0.11798
		c0.04982,0.01761,0.0953,0.04762,0.15145,0.04152c0.22221,0.0711,0.39548,0.22188,0.56951,0.36383
		c0.61381,0.50068,1.05162,1.14215,1.45721,1.81078c0.38381,0.63272,0.68588,1.30112,0.92035,1.9997
		c0.1251,0.37272,0.2483,0.74964,0.2576,1.1475c0.00562,0.24065-0.03858,0.4785-0.09702,0.71246
		c-0.17915,0.71711-0.46332,1.39578-0.77238,2.0649c-0.04359,0.09437-0.10878,0.1789-0.16397,0.26798
		c-0.06252,0.08998-0.095,0.19652-0.15973,0.28528l0.00001-0.00004c-0.03323,0.05206-0.05601,0.11036-0.0958,0.15851
		l0.00003-0.00005c-0.03328,0.05205-0.05602,0.11036-0.09583,0.15852l0.00007-0.00005
		c-0.10903,0.20256-0.25076,0.38348-0.38331,0.57047l0.00008-0.00003c-0.28934,0.38288-0.62215,0.7249-0.99305,1.02989
		c-0.09694,0.07971-0.20723,0.14275-0.31619,0.20614c-0.02121,0.0106-0.04242,0.02121-0.06363,0.03181
		c-0.03605,0.03424-0.0871,0.03863-0.12793,0.06337L27.81405,11.9194z"/>
	<path fill="#3B556B" d="M28.00556,11.82424c0.33333-0.23921,0.64181-0.50604,0.92367-0.804
		c0.13285-0.14044,0.22965-0.31223,0.38557-0.43203c-0.03477,0.15409-0.16523,0.24128-0.25994,0.3499
		c-0.28426,0.32599-0.59216,0.62914-0.95793,0.86737C28.07275,11.82123,28.0363,11.81842,28.00556,11.82424z"/>
	<path fill="#3B556B" d="M29.31472,10.58824c0.10244-0.20692,0.24129-0.38975,0.38331-0.57047
		C29.62682,10.24537,29.47705,10.42096,29.31472,10.58824z"/>
	<path fill="#3B556B" d="M29.88955,9.70088c0.03389-0.10577,0.067-0.21197,0.15973-0.28528
		C30.02541,9.52689,29.9857,9.62945,29.88955,9.70088z"/>
	<path fill="#3B556B" d="M29.79376,9.85935c0.01093-0.06534,0.03131-0.12506,0.0958-0.15851
		C29.8971,9.77717,29.85872,9.82617,29.79376,9.85935z"/>
	<path fill="#3B556B" d="M29.69797,10.01783c0.01094-0.06535,0.0313-0.12508,0.09582-0.15852
		C29.80128,9.93563,29.76292,9.98465,29.69797,10.01783z"/>
	<path fill="#3B556B" d="M27.814,11.91942c0.03246-0.04138,0.07712-0.05849,0.12793-0.06337
		C27.91753,11.91345,27.86876,11.9224,27.814,11.91942z"/>
	<path fill="#9386BA" d="M2.11352,11.98287c-0.17823,0.07126-0.36558,0.00917-0.54679,0.03684
		c-0.1914-0.00179-0.38279-0.0036-0.57419-0.00541c-0.03604-0.34405-0.00598-0.68912-0.01615-1.03325
		c0.00985-0.09293,0.06923-0.04828,0.09961-0.02617c0.20569,0.14967,0.43714,0.23197,0.68569,0.27589
		c0.05911,0.01044,0.11786,0.04165,0.12969,0.10349C1.93481,11.56128,2.03335,11.7688,2.11352,11.98287z"/>
	<path fill="#43505B" d="M0.99212,10.93596c0.00014,0.35944,0.00027,0.71889,0.00041,1.07834
		c-0.05566-0.05201-0.03104-0.11954-0.03109-0.17981c-0.00151-1.77817-0.00138-3.55633-0.00151-5.3345
		C0.96809,6.4894,0.97625,6.4788,0.9844,6.46821c0.08208,0.07552,0.05798,0.17586,0.05817,0.26741
		c0.002,0.93691,0.00161,1.87382,0.00076,2.81074C1.0432,9.69903,1.04709,9.85147,1.05488,10.00388
		c-0.03175,0.2355-0.00215,0.47215-0.01301,0.70803C1.03832,10.78906,1.05534,10.87154,0.99212,10.93596z"/>
	<path fill="#5C5990" d="M27.3353,0.95329c0.69845,0.1439,1.1932,0.58533,1.64207,1.09877
		c0.46544,0.53239,0.83597,1.12688,1.16081,1.74913c0.21952,0.42049,0.41059,0.85567,0.56447,1.30528
		c0.01323,0.03866,0.01085,0.08258,0.01571,0.12405c-0.02865,0.12282-0.05523,0.24635-0.08957,0.36756
		c-0.13142,0.46379-0.66498,0.84239-1.11137,0.79252c-0.03371-0.02477-0.06306-0.05489-0.10749-0.06446
		c-0.46609-0.10038-0.82401-0.37556-1.14842-0.70376c-0.37855-0.38297-0.79822-0.71153-1.28407-0.95101
		c-0.34516-0.17013-0.71968-0.25505-1.08786-0.35707c-0.21994-0.06094-0.43899-0.12595-0.66404-0.16774
		c-0.0567-0.01053-0.11605-0.0225-0.15211-0.07664c-0.37556-0.6943-0.9547-1.05673-1.75352-1.08088
		c-0.48269-0.01459-0.90713,0.121-1.27896,0.42406c-0.13355,0.11767-0.26269,0.23992-0.38807,0.36615
		c-0.04858,0.04891-0.10234,0.09025-0.17489,0.09881c-0.32891,0.00377-0.60913-0.11747-0.76472-0.40238
		c-0.22407-0.41033-0.58087-0.53254-1.0088-0.53912c-0.37777-0.00581-0.75567-0.00139-1.13351-0.0014
		c-2.0329-0.00008-4.0658-0.00332-6.09868,0.00294c-0.37214,0.00115-0.67729-0.10633-0.90648-0.40395
		c-0.03862-0.05015-0.08381-0.09556-0.1233-0.1454c-0.16869-0.21289-0.3807-0.31364-0.66221-0.31266
		C8.95496,2.08251,7.1296,2.07988,5.30425,2.07911c-0.52066-0.00022-0.84301-0.2353-0.99701-0.72208
		c-0.00802-0.05694-0.0101-0.11419-0.00641-0.17166C4.30055,1.14677,4.30079,1.1082,4.307,1.06984
		C4.32159,1.0104,4.33491,0.94985,4.41102,0.93836c7.58932-0.00065,15.17856-0.00013,22.76779,0.00034
		C27.23098,0.9387,27.28536,0.92565,27.3353,0.95329z"/>
	<path fill="#9386BA" d="M1.01742,10.02059C0.97825,9.85995,0.99136,9.6962,0.99084,9.53368
		C0.98759,8.51186,0.98637,7.49004,0.98444,6.46821C0.98657,5.42577,0.98931,4.38334,0.98989,3.3409
		c0.00005-0.09006,0.00709-0.17771,0.03153-0.26412C1.0115,3.06325,1.00841,3.04832,1.01191,3.03197
		c0.1099-0.24055,0.23229-0.47005,0.51083-0.55952c0.09815-0.00854,0.17691,0.0327,0.24801,0.0943
		c0.18343,0.1448,0.23051,0.33975,0.23014,0.56292C1.99797,4.8655,2.00041,6.60134,1.99823,8.33717
		C1.99779,8.6882,2.11295,8.97724,2.41166,9.18025c0.16844,0.11448,0.35808,0.15314,0.55928,0.15518
		c0.44632,0.00453,0.89279-0.01286,1.3388,0.00914c0.04308,0.00867,0.08019,0.02971,0.10374,0.06639
		c0.08385,0.1306,0.20206,0.21194,0.3522,0.25014c0.07447,0.01895,0.10909,0.07094,0.13219,0.1419
		c0.08678,0.26664,0.19186,0.34632,0.46673,0.36334c0.05826,0.00361,0.11664,0.00506,0.16718,0.04059
		c0.02678,0.01813,0.04981,0.04019,0.06969,0.06494c0.21215,0.26407,0.49353,0.364,0.82725,0.36361
		c2.08855-0.00244,4.17724,0.01175,6.26559-0.00906c0.63922-0.00637,0.9882,0.27647,0.92722,0.94845
		c-0.00095,0.0105-0.00151,0.02104-0.00209,0.03142c-0.00242,0.0456,0.00153,0.09151-0.00291,0.1371
		c-0.00065,0.0345,0.00068,0.06913-0.00155,0.10364c-0.0004,0.03369-0.00057,0.06748-0.00683,0.10085
		c-0.0054,0.02543-0.01894,0.04624-0.03757,0.06407c-0.76602,0.00093-1.53203,0.00262-2.29805,0.00264
		c-2.8088,0.00007-5.6176-0.00042-8.42641-0.00069c-0.36116-0.16774-0.51948-0.4686-0.5521-0.84527
		c-0.0233-0.269-0.05014-0.31178-0.32476-0.31636c-0.48426-0.00807-0.73977-0.35652-0.93605-0.70962
		C1.01449,10.10895,0.9991,10.06418,1.01742,10.02059z"/>
	<path fill="#635E92" d="M30.65718,7.82956c-0.06046,0.30806-0.20416,0.58606-0.32941,0.86919
		c-0.31235,0.70611-0.69418,1.37435-1.17412,1.98243c-0.33844,0.42879-0.71881,0.81926-1.19611,1.09877
		c-0.25799,0.15108-0.539,0.24501-0.84652,0.23527c-0.13812-0.00437-0.27648-0.00164-0.41473-0.00213
		c-0.03543-0.04402-0.01071-0.08307,0.01833-0.11244c0.10281-0.10402,0.16142-0.23429,0.22563-0.36124
		c0.09327-0.18439,0.23978-0.32405,0.43518-0.37138c0.79507-0.19259,1.27893-0.76174,1.71372-1.38322
		c0.49956-0.71406,0.86953-1.49575,1.16229-2.31417c0.03121-0.08725,0.03698-0.18871,0.12211-0.25101
		C30.55947,7.29656,30.6908,7.57911,30.65718,7.82956z"/>
	<path fill="#646098" d="M30.37027,7.22442c-0.33587,1.05617-0.81729,2.04071-1.49678,2.92151
		c-0.24426,0.31662-0.52579,0.60362-0.87417,0.81797c-0.15681,0.09648-0.32936,0.14416-0.50068,0.19565
		c-0.27041,0.08127-0.4767,0.23271-0.5729,0.50047c-0.0498,0.13864-0.18199,0.21733-0.22944,0.35307
		c-4.37523-0.00038-8.75046-0.00075-13.12571-0.00114c0.00148-0.02025,0.00298-0.04048,0.00447-0.06072
		c0.0777-0.06563,0.17185-0.04579,0.26039-0.04583c2.25094-0.00098,4.50188-0.00076,6.75282-0.00076
		c1.7933,0,3.58661-0.00085,5.37991,0.00151c0.15499,0.00021,0.30717-0.01638,0.45996-0.03462
		c0.11249-0.01343,0.19727-0.07323,0.2648-0.15944c0.03914-0.04996,0.07428-0.10305,0.10237-0.16008
		c0.14215-0.28859,0.3761-0.47029,0.68334-0.55205c0.46931-0.12489,0.81532-0.42017,1.11839-0.77598
		c0.73206-0.85945,1.20463-1.85859,1.58113-2.90891c0.01951-0.05443,0.03146-0.11225,0.06557-0.16097
		C30.32897,7.10092,30.36049,7.14341,30.37027,7.22442z"/>
	<path fill="#2D4961" d="M30.37027,7.22442c-0.02277-0.04086-0.055-0.07227-0.09615-0.09476
		c-0.03512-0.00085-0.05774-0.02572-0.08454-0.04278c-0.02267-0.01426-0.04626-0.02691-0.06911-0.04103
		c-0.05458-0.03831-0.1139-0.06671-0.17791-0.08619c-0.16606-0.05938-0.33567-0.09408-0.51251-0.10713
		c-0.14954-0.01104-0.2395-0.15245-0.20805-0.29695c0.0323-0.14838,0.14389-0.22149,0.28345-0.1857
		c0.57691-0.07536,1.03971-0.32373,1.1216-0.94972c0.00901-0.0689,0.0138-0.14903,0.09134-0.18963
		c0.09709,0.23558,0.20517,0.46832,0.19401,0.73218c0.03462,0.12808-0.04895,0.21493-0.11582,0.30231
		c-0.06271,0.08192-0.14059,0.15249-0.22114,0.21854c-0.02109,0.01568-0.04448,0.02803-0.0663,0.04275
		c-0.12603,0.08504-0.12483,0.08844-0.00303,0.18173c0.10838,0.08301,0.22126,0.16188,0.29568,0.2808
		c0.02764,0.04416,0.06647,0.08357,0.04686,0.14256c-0.00682,0.24813-0.09471,0.47436-0.19147,0.69816
		C30.61249,7.60405,30.56769,7.37859,30.37027,7.22442z"/>
	<path fill="#2D4961" d="M1.01742,10.02059c0.0897,0.23761,0.25142,0.4248,0.42724,0.6023
		c0.1546,0.15607,0.35553,0.17577,0.55846,0.18444c0.26551,0.01134,0.32001,0.06573,0.33169,0.33117
		c0.01475,0.33541,0.14243,0.61153,0.43752,0.79624c0.03143,0.01967,0.06308,0.04002,0.07378,0.07915
		c-0.24393-0.01685-0.49091,0.0371-0.73262-0.03102c-0.13402-0.15606-0.20654-0.33797-0.22976-0.54038
		c-0.0108-0.09417-0.03898-0.16904-0.1529-0.18198c-0.27959-0.03177-0.52439-0.14477-0.73871-0.32453
		c-0.00001-0.25531-0.00088-0.51061,0.0007-0.7659C0.99313,10.1197,0.97637,10.06497,1.01742,10.02059z"/>
	<path fill="#535F69" d="M27.3353,0.95329C19.76203,0.95334,12.18876,0.95339,4.61548,0.9535
		c-0.07977,0-0.15954,0.00087-0.2393,0.00133C4.31369,1.00766,4.2375,1.00018,4.16384,1.00101
		c-0.23326,0.00262-0.4666-0.0039-0.69977,0.0065c-0.0387-0.00031-0.07376-0.01106-0.1032-0.0369
		c-0.01442-0.0146-0.01647-0.03089-0.00617-0.04871c7.93297-0.00007,15.86594-0.00019,23.79891,0.00086
		C27.21451,0.92277,27.28244,0.89908,27.3353,0.95329z"/>
	<path fill="#635E93" d="M1.02071,2.15869C0.96779,2.04826,0.99479,1.93073,0.99275,1.8165
		c-0.00413-0.23131,0.00804-0.46324-0.0046-0.69393C0.98017,0.97696,1.03398,0.93872,1.16949,0.9507
		c0.12093,0.01069,0.2435,0.00295,0.36535,0.00334c0.01526,0.03169,0.0093,0.06379-0.00794,0.09046
		c-0.18546,0.28693-0.0975,0.59823-0.08327,0.90283C1.448,1.96261,1.45361,1.98497,1.4422,1.99204
		C1.30593,2.07649,1.19026,2.19792,1.02211,2.22586C1.00603,2.2038,1.00457,2.18142,1.02071,2.15869z"/>
	<path fill="#625E92" d="M30.84864,7.13141c-0.08576-0.17391-0.22534-0.29958-0.38224-0.40594
		c-0.16136-0.10938-0.16424-0.10888,0.0069-0.21919c0.02572-0.01658,0.05565-0.02673,0.08363-0.03985
		c0.11916-0.06073,0.24025-0.01806,0.35812,0.00048c0.096,0.0151,0.08454,0.09026,0.06073,0.16065
		C30.96226,6.80268,30.96331,6.98143,30.84864,7.13141z"/>
	<path fill="#646097" d="M1.44061,1.96831C1.36342,1.95793,1.37574,1.89882,1.37556,1.84814
		C1.37489,1.66015,1.38255,1.47179,1.37297,1.28428C1.36556,1.13923,1.49492,1.07039,1.53484,0.95404
		C1.75912,0.9528,1.98339,0.95156,2.20766,0.95031C2.23256,0.9366,2.25602,0.9342,2.27602,0.95892
		c-0.00327,0.02902-0.02257,0.0443-0.04745,0.05486C2.10282,1.03059,1.97653,1.04412,1.85082,1.06236
		C1.68042,1.08708,1.57255,1.1912,1.54931,1.35857C1.53052,1.49394,1.50666,1.62864,1.51408,1.76676
		c0.00347,0.06464,0.01244,0.12446,0.05396,0.17635C1.53836,2.01521,1.49134,2.00103,1.44061,1.96831z"/>
	<path fill="#5B5990" d="M30.9758,6.62755c0.00989-0.09063-0.0216-0.13223-0.12273-0.13053
		c-0.09849,0.00165-0.19736-0.01945-0.2961-0.03058c0.13721-0.15489,0.30857-0.28604,0.35541-0.50374
		c0.10271,0.04731,0.05983,0.14886,0.07495,0.22318C31.0169,6.33113,31.03677,6.48201,30.9758,6.62755z"/>
	<path fill="#414F5A" d="M1.02071,2.15869C1.02214,2.17849,1.02357,2.1983,1.025,2.21811
		C1.05945,2.2478,1.07014,2.28896,1.07048,2.33037C1.07246,2.5731,1.10386,2.81776,1.02687,3.05584
		c0.00157,0.00784-0.00024,0.01482-0.00543,0.02094C0.99792,3.08114,0.96234,3.1017,0.96212,3.05795
		C0.9607,2.77348,0.96189,2.48899,0.96428,2.20452C0.96453,2.17473,0.99299,2.16337,1.02071,2.15869z"/>
	<path fill="#424F5A" d="M2.26877,0.95377C2.24838,0.95263,2.22799,0.9515,2.20763,0.95034
		C2.25607,0.9021,2.31758,0.92309,2.3732,0.92276C2.70035,0.92082,3.02752,0.92186,3.35469,0.9219
		c0.00026,0.01033,0.00052,0.02066,0.00078,0.03099C3.34346,0.96301,3.334,0.9787,3.31764,0.98052
		C2.98068,1.01798,2.64361,1.02036,2.30659,0.98134C2.29005,0.97943,2.28074,0.9639,2.26877,0.95377z"/>
	<path fill="#726DAB" d="M29.50543,6.36989c-0.15267,0.01719-0.24927,0.10469-0.25346,0.22957
		c-0.00422,0.12599,0.08139,0.21491,0.21573,0.21602c0.18333,0.00152,0.35654,0.03912,0.51775,0.12718
		c0.07235,0.04427,0.05124,0.10604,0.03296,0.16826c-0.13282,0.45206-0.29958,0.89051-0.52897,1.30396
		c-0.1308,0.23575-0.23426,0.48487-0.36575,0.72078c-0.20732,0.37195-0.46899,0.70387-0.74019,1.02919
		c-0.27904,0.33472-0.6297,0.55843-1.05601,0.67198c-0.26577,0.07079-0.4718,0.23606-0.62233,0.46638
		c-0.03186,0.04875-0.06899,0.09393-0.10056,0.1427c-0.11027,0.1704-0.26155,0.23844-0.46952,0.23825
		c-4.1055-0.00378-8.211-0.00274-12.31651-0.00346c-0.08363-0.00001-0.17188,0.01491-0.24448-0.04637
		c-0.00042-0.08442-0.00924-0.16979,0.00017-0.25312c0.04477-0.39647-0.31695-0.70644-0.69736-0.70415
		c-2.14245,0.0129-4.28503,0.00301-6.42754,0.00904c-0.40965,0.00115-0.73306-0.13125-0.95554-0.47978
		c0.0063-0.02063,0.01536-0.04137,0.03386-0.0522c0.21294-0.12471,0.31283-0.30307,0.29095-0.55346
		C5.80981,9.49981,5.9081,9.46403,5.98495,9.43008C6.28126,9.29914,6.57695,9.1668,6.87457,9.03874
		C7.68448,8.69025,8.48794,8.32729,9.2949,7.97218C9.44722,7.90515,9.56379,7.89123,9.69737,8.016
		c0.14322,0.13378,0.3221,0.15642,0.50262,0.05794c0.1679-0.0916,0.26968-0.23536,0.25458-0.42432
		c-0.01612-0.20183-0.11831-0.36427-0.33006-0.42152c-0.11617-0.03141-0.17463-0.09668-0.21224-0.20838
		C9.8287,6.77151,9.6386,6.6651,9.37724,6.70312C9.16648,6.73378,9.0188,6.90961,9.01879,7.15717
		c-0.00001,0.15015-0.06683,0.2325-0.19805,0.28931C8.23098,7.70181,7.64282,7.9608,7.05684,8.22458
		c-0.1036,0.04664-0.2029,0.04969-0.30739,0.0029C6.16291,7.96485,5.5754,7.70435,4.98526,7.44982
		C4.84845,7.39081,4.77995,7.30553,4.7785,7.149C4.7763,6.91141,4.62575,6.73687,4.42362,6.70442
		c-0.24383-0.03915-0.4518,0.06229-0.53871,0.29448c-0.0498,0.13303-0.12388,0.19966-0.25604,0.24742
		C3.36423,7.34193,3.26919,7.6161,3.39226,7.87281c0.11186,0.23333,0.38112,0.32035,0.62219,0.20113
		c0.01907-0.00943,0.042-0.01608,0.055-0.03149c0.15959-0.18929,0.32515-0.12057,0.51158-0.03413
		c0.39972,0.18533,0.80588,0.35727,1.20809,0.5376c0.05587,0.02505,0.13436,0.03553,0.13132,0.11713
		C5.91788,8.7315,5.8509,8.74968,5.7985,8.77409C5.7311,8.8055,5.65812,8.82743,5.59473,8.86435
		c-0.18299,0.10657-0.33595,0.1219-0.51108-0.04276C4.95574,8.70133,4.77181,8.69865,4.60619,8.79764
		C4.44033,8.89676,4.36267,9.04243,4.36866,9.23295C4.37028,9.2845,4.3924,9.33799,4.34892,9.38346
		C3.88666,9.38359,3.4244,9.38396,2.96213,9.3838C2.36079,9.3836,1.95015,8.97873,1.95009,8.38563
		c-0.00017-1.72455-0.00316-3.44911,0.0034-5.17364c0.00094-0.24858-0.02603-0.47141-0.22758-0.64163
		c-0.00805-0.0597-0.01367-0.11903,0.02645-0.17149c0.06892-0.0627,0.15541-0.05772,0.24001-0.06258
		c0.18989-0.0109,0.25729-0.07211,0.26378-0.26237c0.0098-0.28746,0.09341-0.537,0.33142-0.71977
		c0.0508-0.03901,0.09741-0.082,0.16689-0.08272c0.44928,0.02669,0.89877,0.00513,1.34797,0.01274
		c0.08355,0.00141,0.17093-0.01131,0.24254,0.04955C4.49062,1.796,4.82102,2.03606,5.29738,2.0341
		c1.84071-0.00758,3.68148,0.00076,5.52219-0.00694c0.29907-0.00125,0.49914,0.13365,0.67649,0.34609
		c0.11714,0.14033,0.21846,0.29739,0.38749,0.38882c0.15215,0.0823,0.31019,0.12626,0.48591,0.12611
		c2.44722-0.00213,4.89445-0.00349,7.34167,0.00101c0.32712,0.0006,0.64385,0.05632,0.8814,0.32171
		c0.06933,0.07746,0.10047,0.17287,0.15852,0.25436c0.19071,0.26769,0.45774,0.37793,0.78,0.37599
		c0.02913,0.07254-0.02277,0.12066-0.05645,0.17145c-0.22661,0.3417-0.32707,0.71737-0.32108,1.12497
		c0.00442,0.30089,0.00619,0.60202-0.00084,0.90281c-0.0052,0.22242,0.08372,0.38575,0.26835,0.50568
		c0.10682,0.06938,0.21119,0.14272,0.32154,0.20638c0.12741,0.0735,0.19331,0.17678,0.17826,0.32578
		c-0.00211,0.0209-0.00025,0.04221-0.00011,0.06333c0.00144,0.21037,0.16327,0.3086,0.35746,0.21898
		c0.04019-0.01855,0.0523-0.04924,0.05754-0.08705c0.00582-0.04199,0.00013-0.08471,0.00483-0.12647
		c0.01126-0.09996-0.04504-0.23697,0.07647-0.28482c0.14291-0.05627,0.30334-0.0451,0.45389-0.00033
		c0.05178,0.0154,0.06002,0.06991,0.06623,0.11786c0.00748,0.05776,0.00484,0.11598,0.00532,0.17403
		c0.00179,0.21516,0.00847,0.22171,0.22484,0.21947c0.17832-0.00184,0.19049-0.01344,0.19416-0.18753
		c0.00111-0.05278,0.00059-0.10556,0.00288-0.15834c0.00523-0.12014,0.06569-0.18504,0.18842-0.19009
		c0.02658-0.00109,0.05314-0.00208,0.07973-0.00255c0.32511-0.00574,0.33073-0.00044,0.33192,0.31432
		c0.00075,0.19901,0.18294,0.30288,0.36999,0.21264c0.04072-0.01965,0.05022-0.05122,0.05042-0.08989
		c0.0003-0.05807,0.00233-0.11645-0.00197-0.17416c-0.01145-0.15379,0.0546-0.26271,0.18373-0.34276
		c0.0992-0.06149,0.19577-0.12725,0.29457-0.18952c0.21353-0.13457,0.33107-0.32016,0.32113-0.57933
		c-0.01395-0.36356,0.02161-0.72798-0.02738-1.09135c-0.03064-0.22732-0.08889-0.44431-0.18722-0.65158
		c-0.02861-0.06031-0.07236-0.121-0.02916-0.19329c0.05615-0.0356,0.10977-0.03065,0.16123,0.00955
		c0.34517,0.09423,0.688,0.19823,1.03602,0.28062c0.67349,0.15944,1.26471,0.4648,1.78934,0.91451
		c0.21693,0.18594,0.41564,0.38995,0.62796,0.57996c0.24937,0.22317,0.53243,0.35555,0.84508,0.44948
		C29.43566,6.29526,29.53601,6.26279,29.50543,6.36989z"/>
	<path fill="#FEFEFE" d="M24.93424,4.0613c0.24,0.43419,0.30874,0.9025,0.28838,1.39066
		c-0.00834,0.20016-0.00329,0.40096-0.00086,0.60144c0.00266,0.21877-0.08823,0.3867-0.27009,0.50739
		c-0.11926,0.07916-0.23519,0.1646-0.36041,0.23322c-0.11667,0.06393-0.15838,0.14616-0.1547,0.27947
		c0.00933,0.33829,0.00261,0.33172-0.33062,0.34066c-0.13758,0.00369-0.18402-0.02942-0.18025-0.17344
		c0.00933-0.35673,0.00181-0.35204-0.36648-0.35295c-0.1199-0.0003-0.15228,0.03573-0.15122,0.15348
		c0.00352,0.3911-0.0012,0.38855-0.39968,0.37174c-0.08299-0.0035-0.11851-0.02745-0.10781-0.10988
		c0.00202-0.01557,0.00035-0.03162,0.00026-0.04745c-0.00241-0.40672-0.00226-0.40515-0.42455-0.36655
		c-0.06628,0.00606-0.09543,0.02501-0.09332,0.09351c0.00341,0.1107,0.01679,0.22444-0.00271,0.33177
		c-0.03764,0.20717-0.20527,0.0635-0.30919,0.08916c-0.05889,0.01454-0.19657,0.0774-0.19707-0.08877
		c-0.00002-0.00528-0.00105-0.01078,0.00008-0.0158c0.07426-0.3285-0.0907-0.51816-0.37195-0.64963
		c-0.31156-0.14564-0.43618-0.39334-0.40204-0.73431c0.01778-0.17764,0.01174-0.35896,0.00153-0.53778
		c-0.03206-0.56135,0.08793-1.07862,0.42948-1.53599c0.14801-0.15699,0.30284-0.30668,0.47516-0.43766
		c0.66486-0.53668,1.71402-0.46639,2.36139,0.00165c0.19488,0.14089,0.36484,0.30424,0.50176,0.50115
		C24.90198,3.95328,24.94641,3.99574,24.93424,4.0613z"/>
	<path fill="#6B67A4" d="M24.93424,4.0613c-0.29509-0.43994-0.67646-0.77375-1.19971-0.91209
		c-0.57359-0.15165-1.12681-0.09844-1.64307,0.21246c-0.02701,0.01627-0.05678,0.02803-0.08526,0.0419
		c0.09582-0.1339,0.24135-0.20111,0.38421-0.26315c0.77361-0.33596,1.50212-0.26341,2.17977,0.24874
		c0.23602,0.17838,0.41912,0.39541,0.52958,0.67027C25.0446,4.06005,24.98942,4.06068,24.93424,4.0613z"/>
	<path fill="#6E69A5" d="M4.34497,1.33372C3.89035,1.33373,3.43573,1.33264,2.98113,1.3347
		c-0.0905,0.00041-0.1787-0.00565-0.26503-0.03271c0.02877-0.12293,0.13395-0.14094,0.23321-0.16755
		c0.41088-0.01335,0.82176-0.00337,1.23257-0.00602C4.2408,1.12803,4.29801,1.1332,4.34436,1.17546
		C4.34456,1.22821,4.34477,1.28097,4.34497,1.33372z"/>
	<path fill="#6B66A0" d="M4.34436,1.17546C3.86519,1.17528,3.38602,1.1751,2.90685,1.17492
		C2.94516,1.04255,3.06055,1.051,3.1635,1.0363c0.31808-0.00403,0.63607-0.0096,0.95409-0.00594
		c0.07877,0.00091,0.16064-0.00789,0.22712,0.04991C4.34459,1.112,4.34448,1.14373,4.34436,1.17546z"/>
	<path fill="#67629B" d="M4.34471,1.08028c-0.40492-0.00025-0.80984-0.0005-1.21475-0.00075
		c0.0661-0.1245,0.19508-0.05853,0.29043-0.09445c0.13053-0.06221,0.26923-0.02521,0.40394-0.02983
		c0.18374-0.0063,0.36789-0.00085,0.55186-0.00043C4.36569,0.99665,4.3552,1.03847,4.34471,1.08028z"/>
	<path fill="#FEFEFE" d="M4.34892,9.38346C4.29231,9.1487,4.32934,8.94049,4.53707,8.79139
		c0.22118-0.15876,0.48915-0.13131,0.67517,0.07405C5.27329,8.93284,5.31776,8.94759,5.3996,8.9075
		C5.5568,8.83048,5.7196,8.76473,5.87978,8.69368c0.00902-0.004,0.01546-0.01373,0.02324-0.02091
		c0.00219-0.05193-0.04429-0.05389-0.07467-0.06741C5.35293,8.39385,4.87623,8.18517,4.40152,7.97212
		c-0.09036-0.04055-0.15124-0.05261-0.2295,0.03836C4.02387,8.1827,3.79318,8.21674,3.59063,8.12301
		C3.39911,8.03438,3.27809,7.83009,3.29411,7.62246c0.01605-0.20799,0.16008-0.38628,0.37752-0.43959
		C3.76763,7.15933,3.80399,7.1129,3.82969,7.02349C3.90667,6.75557,4.14892,6.60986,4.41815,6.6574
		c0.25591,0.04519,0.4287,0.26601,0.40544,0.54235C4.81537,7.29735,4.8422,7.34162,4.92818,7.37909
		C5.55621,7.65277,6.18287,7.92958,6.809,8.20752C6.87273,8.2358,6.92746,8.23477,6.99053,8.20678
		C7.61669,7.92885,8.24301,7.65126,8.8714,7.37836c0.09028-0.03921,0.10837-0.08923,0.10114-0.18191
		C8.95081,6.91816,9.1189,6.70277,9.37923,6.65722c0.2713-0.04746,0.51382,0.10153,0.58312,0.3697
		c0.02244,0.08685,0.05528,0.12918,0.14856,0.1517c0.23274,0.0562,0.37265,0.23259,0.39163,0.46382
		c0.01598,0.1948-0.12108,0.40673-0.31615,0.48885C9.97824,8.21892,9.7669,8.17997,9.61088,7.9947
		C9.52904,7.89752,9.46599,7.94302,9.39159,7.97575c-0.76813,0.33795-1.53572,0.6771-2.3037,1.01539
		c-0.3743,0.16488-0.74814,0.33084-1.12436,0.49131C5.87128,9.5218,5.84046,9.56555,5.8582,9.67202
		c0.03644,0.21874-0.09454,0.39688-0.36438,0.53431c-0.24537,0.02119-0.48444-0.00635-0.58654-0.26151
		C4.84485,9.78883,4.77776,9.68835,4.60617,9.64667C4.47899,9.61577,4.41502,9.49094,4.34892,9.38346z"/>
	<path fill="#6E69A5" d="M13.57409,11.63433c4.1539-0.00008,8.30781-0.00446,12.46167,0.00827
		c0.3171,0.00097,0.48961-0.12452,0.63341-0.3654c0.14314-0.23979,0.35182-0.40747,0.62358-0.47662
		c0.5188-0.13199,0.89381-0.4497,1.21728-0.85773c0.24888-0.31395,0.48983-0.63488,0.6631-0.9916
		c0.27452-0.56516,0.60629-1.1083,0.75233-1.72862c0.0218-0.09258,0.11876-0.17056,0.05998-0.27996
		c0.06518,0.0113,0.12223,0.03667,0.16184,0.0922c0.02314,0.17737-0.06859,0.32802-0.12567,0.48306
		c-0.27831,0.75597-0.63149,1.47685-1.08825,2.14302c-0.23592,0.34408-0.49126,0.67501-0.82708,0.93549
		c-0.18725,0.14525-0.39107,0.25671-0.61837,0.31825c-0.35436,0.09595-0.61515,0.29555-0.77944,0.62521
		c-0.09009,0.18076-0.24775,0.26987-0.45419,0.26709c-0.04787-0.00064-0.09577,0.00032-0.14366,0.00032
		c-4.08655,0.00002-8.17309,0.00016-12.25963-0.00086c-0.09361-0.00002-0.19326,0.02257-0.27652-0.04536
		C13.57436,11.71883,13.57423,11.67658,13.57409,11.63433z"/>
	<path fill="#67629B" d="M30.20838,7.07107c0.0219,0.01955,0.04381,0.03911,0.06572,0.05863
		c-0.08368,0.35497-0.22966,0.68819-0.37295,1.02124c-0.24638,0.57264-0.53917,1.12191-0.90067,1.63189
		c-0.27195,0.38364-0.56753,0.74729-0.96411,1.01636c-0.20909,0.14186-0.44756,0.21354-0.68226,0.29503
		c-0.22115,0.07678-0.3944,0.21781-0.48513,0.42753c-0.13673,0.31604-0.38288,0.42723-0.70491,0.42919
		c-0.04255,0.00026-0.0851,0.00007-0.12765,0.00007c-4.1538,0.00008-8.30759,0.00015-12.46137,0.00022
		c-0.00009-0.03168-0.00021-0.06337-0.00032-0.09505c0.07766-0.06553,0.17174-0.04586,0.26026-0.0459
		c2.29229-0.00096,4.58457-0.00074,6.87686-0.00075c1.76575,0,3.5315,0.00001,5.29725-0.00001
		c0.07978,0,0.15956,0.0002,0.23932-0.00152c0.22209-0.00481,0.37968-0.10015,0.47772-0.30527
		c0.13694-0.2865,0.36399-0.48383,0.67364-0.56274c0.54641-0.13924,0.92631-0.49526,1.25796-0.91848
		c0.6563-0.83749,1.11023-1.77965,1.45307-2.77896C30.1322,7.18018,30.13366,7.10444,30.20838,7.07107z"/>
	<path fill="#6B66A0" d="M30.20838,7.07107c-0.17782,0.52979-0.37703,1.05054-0.63232,1.54964
		c-0.274,0.53567-0.57538,1.05233-0.96692,1.51435c-0.13371,0.15778-0.27385,0.30746-0.42831,0.44435
		c-0.21781,0.19304-0.47398,0.31028-0.75399,0.38792c-0.30009,0.0832-0.5402,0.26119-0.66322,0.54596
		c-0.12017,0.27816-0.34151,0.33787-0.60215,0.3414c-0.36685,0.00496-0.73381,0.00125-1.10073,0.00126
		c-3.82868,0.00008-7.65736,0.00016-11.48602,0.00024c-0.00007-0.0317-0.00016-0.0634-0.00023-0.09509
		c4.20716-0.00007,8.41431-0.00157,12.62144,0.0033c0.25191,0.00029,0.40699-0.09622,0.51568-0.31359
		c0.11961-0.2392,0.304-0.44086,0.56458-0.50503c0.71674-0.1765,1.17354-0.6652,1.56825-1.23236
		c0.54948-0.78954,0.95603-1.65017,1.25836-2.56037c0.01325-0.03989,0.02958-0.07877,0.04449-0.11814
		C30.16765,7.04693,30.18802,7.059,30.20838,7.07107z"/>
	<path fill="#2D4961" d="M3.42038,0.98508C3.34712,1.08783,3.21493,1.01214,3.12997,1.07954
		C3.04295,1.0822,2.97064,1.11872,2.90686,1.17492C2.83544,1.2057,2.77149,1.24752,2.7161,1.30198
		C2.43195,1.49153,2.29133,1.75171,2.29975,2.09592C2.3047,2.29789,2.2164,2.37571,2.0078,2.37894
		c-0.085,0.00132-0.16825,0.00664-0.24901,0.0343c-0.06969,0.0736-0.1712,0.06043-0.2561,0.09254
		c-0.24648,0.1084-0.35024,0.33845-0.47582,0.54998C1.02624,2.77661,1.02561,2.49739,1.02499,2.21814
		c0.13854-0.0833,0.27706-0.16657,0.41561-0.24984c0.04431-0.00357,0.09302,0.01068,0.1278-0.03124
		C1.57337,1.93157,1.57835,1.92608,1.58327,1.9205c0.04518-0.02647,0.10092-0.02111,0.14576-0.0483
		c0.06294-0.03421,0.07288-0.0961,0.08809-0.15745c0.04381-0.17671,0.09103-0.35255,0.19324-0.50755
		c0.03449-0.04688,0.06572-0.09638,0.10729-0.13788c0.03329-0.03939,0.08062-0.0581,0.12405-0.08262
		c0.00903-0.01098,0.01806-0.02195,0.02709-0.03292C2.631,0.95348,2.99323,0.95319,3.35546,0.9529
		C3.38196,0.95397,3.40616,0.95962,3.42038,0.98508z"/>
	<path fill="#2D4961" d="M3.07758,9.73288c0.23909-0.00325,0.43784,0.19219,0.43674,0.42948
		c-0.00107,0.23137-0.1917,0.42232-0.42475,0.42547c-0.23917,0.00323-0.43783-0.19211-0.43674-0.42941
		C2.65389,9.92715,2.84464,9.73605,3.07758,9.73288z"/>
	<path fill="#6B67A1" d="M1.50269,2.50578c0.08074-0.04347,0.15902-0.09365,0.2561-0.09256
		c-0.00815,0.05296,0.0208,0.11356-0.03288,0.15713C1.65612,2.53312,1.58645,2.49546,1.50269,2.50578z"/>
	<path fill="#67629B" d="M2.24169,0.98669C2.21904,1.02726,2.18797,1.05962,2.14688,1.08216
		C2.06053,1.12753,1.96476,1.13818,1.87077,1.15389C1.73985,1.17577,1.667,1.2505,1.64093,1.37926
		c-0.02427,0.11986-0.03094,0.2401-0.02969,0.36171c0.0007,0.06806,0.0068,0.13861-0.04392,0.19588
		c0,0,0.00104,0.00019,0.00106,0.0002c-0.06257,0.0018-0.09435-0.02023-0.09875-0.09037
		C1.45806,1.66217,1.4817,1.47989,1.51254,1.3005C1.5386,1.14887,1.64886,1.04356,1.80222,1.02401
		C1.94727,1.00551,2.09248,0.96446,2.24169,0.98669z"/>
	<path fill="#FEFEFE" d="M8.95297,5.5147C8.95298,5.70477,8.95022,5.89489,8.95373,6.0849
		c0.00375,0.20324-0.08486,0.35537-0.25016,0.46722C8.57615,6.63833,8.45071,6.7285,8.31712,6.80429
		C8.21224,6.8638,8.17481,6.93628,8.17788,7.05815c0.00895,0.35521,0.00275,0.34881-0.35314,0.35617
		C7.69377,7.41704,7.66619,7.37471,7.66806,7.2536C7.67377,6.88332,7.66884,6.88796,7.2915,6.8877
		C7.17668,6.88762,7.13872,6.9252,7.15287,7.0328c0.00546,0.04153,0.00089,0.08436,0.00089,0.1266
		c0,0.2515,0,0.2515-0.25005,0.25151c-0.25967,0-0.25967,0-0.25967-0.25801c0-0.26235,0-0.26235-0.25898-0.26236
		C6.12697,6.89052,6.12879,6.89054,6.12648,7.15247C6.1239,7.44614,6.16847,7.40827,5.87995,7.41047
		C5.6166,7.41249,5.60434,7.41017,5.62089,7.13984c0.01102-0.18009-0.04095-0.29771-0.20466-0.37917
		C5.30767,6.70665,5.21171,6.62802,5.10872,6.56256C4.95086,6.46224,4.84741,6.32456,4.84432,6.13573
		c-0.008-0.49002-0.05311-0.98315,0.04722-1.4681c0.20732-1.00207,1.15547-1.58389,1.96396-1.60053
		c1.13928-0.02346,2.12396,0.92393,2.09784,2.06748C8.95045,5.26122,8.95295,5.38799,8.95297,5.5147z"/>
	<path fill="#FEFEFE" d="M17.05027,5.55458c0.00001,0.16361-0.00312,0.3273,0.00077,0.49082
		c0.00551,0.23191-0.08976,0.40589-0.28758,0.52859c-0.11715,0.07267-0.22666,0.15823-0.34694,0.22495
		C16.31073,6.85761,16.274,6.93103,16.2768,7.05277c0.00838,0.36414,0.00254,0.35993-0.36644,0.36075
		c-0.11127,0.00025-0.14354-0.03179-0.14349-0.14235c0.00018-0.39321-0.00391-0.38958-0.39315-0.38302
		c-0.10492,0.00177-0.14815,0.03443-0.13313,0.13739c0.00151,0.01034,0.00024,0.02108,0.00018,0.03164
		c-0.00204,0.39191-0.01435,0.40057-0.42021,0.35522c-0.06947-0.00776-0.09193-0.03497-0.09051-0.0989
		c0.00211-0.09495-0.00479-0.19035,0.00177-0.28489c0.00678-0.09765-0.01866-0.13927-0.12955-0.14085
		c-0.38639-0.00552-0.3909-0.0099-0.38664,0.37313c0.00128,0.11467-0.02356,0.15486-0.14786,0.15326
		c-0.36378-0.00469-0.37015,0.00105-0.36113-0.36235c0.00306-0.12329-0.03878-0.1931-0.14163-0.25281
		c-0.14202-0.08243-0.27676-0.17748-0.41268-0.26993c-0.12541-0.0853-0.21187-0.20746-0.2128-0.35504
		c-0.00292-0.46371-0.04291-0.9293,0.02307-1.39101c0.15204-1.06397,1.146-1.69951,1.97725-1.7163
		c1.10056-0.02223,2.11947,0.85873,2.11054,2.09202C17.04943,5.29068,17.05026,5.42264,17.05027,5.55458z"/>
	<path fill="#FEFEFE" d="M22.17887,8.66736c-0.09351-0.08036-0.19746-0.10685-0.29143-0.14915
		C21.476,8.33301,21.0619,8.15365,20.65105,7.96719c-0.08772-0.03981-0.14274-0.04479-0.21493,0.03853
		c-0.15239,0.17586-0.37516,0.21374-0.57973,0.12142c-0.18958-0.08556-0.32106-0.29675-0.30856-0.49564
		c0.01306-0.20789,0.16678-0.39694,0.38792-0.45059c0.09815-0.02381,0.13157-0.06986,0.15584-0.16311
		c0.06828-0.26241,0.32292-0.41044,0.59133-0.3593c0.25616,0.0488,0.43103,0.27911,0.40021,0.54537
		c-0.01022,0.08829,0.00659,0.13266,0.0908,0.16925c0.63802,0.27713,1.27444,0.55789,1.91013,0.84024
		c0.06075,0.02698,0.10943,0.01883,0.16574-0.00615c0.62585-0.27761,1.25191-0.55479,1.87929-0.82897
		c0.08342-0.03646,0.11552-0.074,0.10317-0.17543c-0.03281-0.26948,0.14344-0.49701,0.39973-0.54417
		c0.27762-0.05108,0.51803,0.09855,0.59141,0.37715c0.02105,0.0799,0.05114,0.11979,0.13847,0.14081
		c0.2384,0.05738,0.37923,0.22972,0.396,0.45734c0.01547,0.21003-0.10606,0.40676-0.3047,0.49321
		c-0.2142,0.09322-0.43074,0.05369-0.58793-0.13788c-0.08513-0.10376-0.14958-0.04108-0.21914-0.01056
		c-0.9139,0.40087-1.82664,0.80438-2.73981,1.2069c-0.23324,0.10281-0.46657,0.20545-0.70076,0.3061
		c-0.06846,0.02942-0.10624,0.05385-0.08981,0.14921c0.04404,0.25567-0.14115,0.51276-0.38272,0.55981
		c-0.29376,0.05722-0.54907-0.08843-0.61266-0.36763c-0.02134-0.0937-0.05656-0.12465-0.14642-0.14525
		c-0.22608-0.05182-0.36961-0.22901-0.38376-0.44869c-0.01418-0.21996,0.09846-0.41185,0.2935-0.5
		c0.20972-0.09479,0.43178-0.05099,0.59216,0.12999c0.05489,0.06194,0.09523,0.08006,0.17313,0.04213
		c0.15734-0.0766,0.32014-0.14217,0.48045-0.21282C22.1434,8.69226,22.15564,8.68212,22.17887,8.66736z"/>
	<path fill="#FEFEFE" d="M14.0197,8.6739c-0.08597-0.07946-0.17576-0.10006-0.25645-0.13614
		c-0.43137-0.19291-0.8645-0.38194-1.29549-0.5757c-0.07521-0.03381-0.12484-0.04623-0.18911,0.03105
		c-0.13749,0.16534-0.32,0.2171-0.53038,0.15492c-0.21215-0.0627-0.32176-0.22084-0.36813-0.42051
		c-0.05149-0.22171,0.13242-0.48138,0.3827-0.54643c0.09174-0.02384,0.13582-0.05571,0.15819-0.15665
		c0.05908-0.26648,0.32863-0.42122,0.60133-0.3645c0.25675,0.0534,0.43633,0.3037,0.39114,0.56719
		c-0.01467,0.08551,0.01631,0.11165,0.08144,0.14019c0.64192,0.2812,1.28357,0.56303,1.92383,0.84792
		c0.06246,0.02779,0.11106,0.01422,0.16566-0.00997c0.63081-0.27949,1.26134-0.55959,1.89355-0.83591
		c0.07433-0.03249,0.09984-0.06069,0.08567-0.15032c-0.04236-0.26795,0.13699-0.50847,0.39983-0.56015
		c0.26813-0.05272,0.51334,0.09401,0.58749,0.36086c0.02438,0.08773,0.05517,0.13704,0.15609,0.15957
		c0.22568,0.05038,0.36469,0.23022,0.37794,0.45285c0.01368,0.22989-0.10297,0.41618-0.31375,0.50106
		c-0.21081,0.08489-0.42111,0.03975-0.57423-0.14224c-0.05906-0.0702-0.10207-0.06478-0.1739-0.033
		c-1.16484,0.51531-2.33047,1.02888-3.49693,1.54056c-0.06781,0.02975-0.09302,0.05461-0.08067,0.13828
		c0.03928,0.26615-0.13284,0.51219-0.37747,0.56304c-0.29317,0.06093-0.54077-0.07871-0.61339-0.36407
		c-0.02499-0.09818-0.07223-0.13007-0.16148-0.15337c-0.22333-0.05831-0.363-0.23642-0.37363-0.45717
		c-0.01043-0.21645,0.10868-0.40727,0.30718-0.49213c0.20203-0.08637,0.43327-0.04066,0.57859,0.13306
		c0.06134,0.07333,0.10687,0.0772,0.18615,0.03949C13.6587,8.82615,13.83053,8.75617,14.0197,8.6739z"/>
	<path fill="#FEFEFE" d="M23.4912,9.21875c0.30847-0.13743,0.59013-0.26078,0.86973-0.38857
		c0.10885-0.04975,0.18354,0.02755,0.26612,0.06399c0.09216,0.04067,0.15149,0.04837,0.22829-0.04186
		c0.14143-0.16616,0.36898-0.20176,0.56804-0.11585c0.19029,0.08212,0.32341,0.29453,0.30979,0.49432
		c-0.01419,0.20815-0.15782,0.39334-0.36996,0.44782c-0.10003,0.02569-0.14402,0.06801-0.17198,0.16867
		c-0.07587,0.27308-0.31882,0.40724-0.60925,0.35478c-0.23425-0.04231-0.40336-0.2645-0.37905-0.52935
		c0.01064-0.11586-0.0335-0.15614-0.12869-0.1947C23.8844,9.4011,23.69949,9.31225,23.4912,9.21875z"/>
	<path fill="#FEFEFE" d="M15.32097,9.22029c0.31432-0.14064,0.60015-0.27179,0.889-0.39601
		c0.10239-0.04403,0.1792,0.04399,0.26494,0.07703c0.07946,0.03061,0.13143,0.04636,0.20075-0.03764
		c0.14336-0.17371,0.37541-0.21436,0.57784-0.12726c0.19178,0.08252,0.31954,0.28618,0.30899,0.49253
		c-0.01092,0.21356-0.15614,0.39589-0.3804,0.45309c-0.09423,0.02403-0.13321,0.06822-0.15924,0.15924
		c-0.07908,0.27659-0.31365,0.41179-0.60294,0.36125c-0.24092-0.04209-0.40796-0.26446-0.38752-0.53813
		c0.00719-0.09629-0.01751-0.14126-0.1067-0.17712C15.73434,9.41033,15.54786,9.32142,15.32097,9.22029z"/>
	<path fill="#FEFEFE" d="M7.25552,9.20804c0.28437-0.12623,0.56219-0.24471,0.83535-0.37299
		c0.12268-0.05762,0.20302,0.02831,0.29462,0.0674C8.46973,8.9384,8.51873,8.94027,8.58607,8.86264
		C8.73884,8.68651,8.95939,8.64672,9.16454,8.7362c0.18629,0.08125,0.32322,0.30026,0.30925,0.49461
		C9.45827,9.44669,9.31303,9.62693,9.09021,9.68364C8.9965,9.70749,8.95688,9.74494,8.93389,9.84292
		c-0.06291,0.2682-0.33609,0.41765-0.62113,0.35759C8.07919,10.15129,7.89704,9.89513,7.9404,9.65004
		c0.01779-0.10053-0.02188-0.1274-0.09868-0.15942C7.65576,9.4131,7.47284,9.32834,7.28904,9.24574
		C7.2805,9.2419,7.27529,9.23073,7.25552,9.20804z"/>
	<path fill="#2D4961" d="M28.26069,6.57199c0.00384,0.23752-0.18844,0.43293-0.42764,0.43462
		c-0.2383,0.00168-0.43443-0.19197-0.43394-0.42845c0.00047-0.23029,0.18796-0.42085,0.41977-0.42665
		C28.05746,6.14554,28.25686,6.33532,28.26069,6.57199z"/>
	<path fill="#2D4961" d="M3.08224,3.48868C2.8442,3.48801,2.64995,3.29222,2.6528,3.05581
		C2.65564,2.8191,2.8542,2.62855,3.09283,2.63353c0.2321,0.00484,0.42016,0.1944,0.42155,0.42491
		C3.51581,3.29538,3.32098,3.48935,3.08224,3.48868z"/>
	<path fill="#726DAB" d="M24.18699,6.12818c-0.28492,0.00053-0.51582-0.22562-0.51881-0.50814
		c-0.00294-0.27749,0.23252-0.51363,0.51392-0.51541c0.28761-0.00182,0.52546,0.2319,0.52849,0.51929
		C24.7135,5.90011,24.47726,6.12763,24.18699,6.12818z"/>
	<path fill="#726DAB" d="M21.61344,5.60851c0.00107-0.28425,0.23408-0.50865,0.52328-0.50393
		c0.28632,0.00467,0.50816,0.2337,0.50742,0.52386c-0.00073,0.28422-0.23078,0.50213-0.52761,0.49974
		C21.82288,6.12583,21.61231,5.90831,21.61344,5.60851z"/>
	<path fill="#736EAC" d="M23.15809,6.39517c-0.08255-0.05778-0.23523,0.07535-0.25648-0.09548
		c-0.02363-0.18997,0.13075-0.42582,0.25508-0.42783c0.12281-0.00199,0.25891,0.20819,0.25192,0.41119
		C23.40146,6.49073,23.23059,6.32633,23.15809,6.39517z"/>
	<path fill="#6E69A5" d="M2.04493,1.20591C1.95445,1.38754,1.88069,1.5742,1.84679,1.77597
		C1.83676,1.83562,1.83266,1.92032,1.72942,1.9058C1.63884,1.93958,1.62843,1.86905,1.6229,1.81485
		C1.60739,1.66296,1.60485,1.50943,1.64269,1.3604C1.67637,1.22777,1.82117,1.1316,1.95647,1.14155
		C1.9979,1.1446,2.04496,1.14464,2.04493,1.20591z"/>
	<path fill="#6A659F" d="M2.04493,1.20591C1.8789,1.1478,1.71415,1.21711,1.67661,1.38129
		C1.6406,1.53882,1.66104,1.70297,1.66913,1.86413c0.0014,0.02792,0.03375,0.03645,0.06026,0.04165
		C1.68234,1.95196,1.62226,1.93116,1.56731,1.93684C1.56732,1.8052,1.5553,1.67225,1.56962,1.54216
		c0.04005-0.36381,0.10032-0.41636,0.46587-0.461c0.03651-0.00446,0.07417,0.00042,0.11134,0.00098
		C2.1129,1.12341,2.07892,1.16466,2.04493,1.20591z"/>
	<path fill="#726DAB" d="M5.8556,6.12816c-0.2876-0.00284-0.50966-0.228-0.50953-0.51663
		C5.34621,5.33657,5.58701,5.1031,5.86895,5.10458C6.15839,5.10609,6.39096,5.34327,6.3871,5.63299
		C6.3834,5.91168,6.14793,6.13104,5.8556,6.12816z"/>
	<path fill="#726DAB" d="M8.44241,5.62006c0.00336,0.28875-0.21832,0.50728-0.5154,0.50809
		C7.63976,6.12892,7.4112,5.9027,7.41067,5.61709c-0.0005-0.27498,0.2261-0.50593,0.50279-0.51243
		C8.20966,5.0977,8.43892,5.32109,8.44241,5.62006z"/>
	<path fill="#746FAD" d="M6.8863,6.38416C6.82359,6.32797,6.65464,6.48858,6.64399,6.2858
		c-0.0104-0.198,0.12896-0.41136,0.2518-0.41347c0.12601-0.00216,0.26423,0.225,0.25878,0.42531
		C7.15222,6.38416,7.15222,6.38416,6.8863,6.38416z"/>
	<path fill="#726DAB" d="M14.4732,5.62575c0.00004,0.2865-0.22285,0.50238-0.51875,0.50242
		c-0.29264,0.00004-0.50994-0.2158-0.51213-0.50868c-0.00212-0.28453,0.22298-0.51168,0.51025-0.5149
		C14.24483,5.1013,14.47316,5.32987,14.4732,5.62575z"/>
	<path fill="#726DAB" d="M16.01631,6.12818c-0.28663-0.00005-0.52184-0.23388-0.51629-0.51326
		c0.00565-0.28466,0.24078-0.51395,0.52334-0.51034c0.2839,0.00363,0.51381,0.23379,0.51701,0.51758
		C16.5435,5.90133,16.30851,6.12824,16.01631,6.12818z"/>
	<path fill="#736EAC" d="M14.97835,6.38403c-0.28684,0.00007-0.29832-0.01619-0.20305-0.28861
		c0.03769-0.10778,0.08797-0.2192,0.2172-0.2197c0.12294-0.00048,0.16935,0.11132,0.20827,0.21041
		C15.30483,6.3511,15.27952,6.38395,14.97835,6.38403z"/>
</g>
</svg>
