<?xml version="1.0" encoding="utf-8"?>
<!-- Generator: Adobe Illustrator 23.0.0, SVG Export Plug-In . SVG Version: 6.00 Build 0)  -->
<svg version="1.1" id="Слой_1" xmlns="http://www.w3.org/2000/svg" xmlns:xlink="http://www.w3.org/1999/xlink" x="0px" y="0px" width="32px" height="13px"
	 viewBox="0 0 32 13" enable-background="new 0 0 32 13" xml:space="preserve">
<g>
	<path fill="#4F6C87" d="M0.83245,12.99689c-0.02129,0-0.04257,0-0.06386,0c-0.43411-0.07621-0.68956-0.32975-0.76634-0.76064
		c0-0.02113,0-0.04226,0-0.06339c0.03199-0.05992,0.01558-0.12454,0.01561-0.18666c0.00101-2.0706,0.0008-4.1412,0.00102-6.2118
		c0.00001-0.05803-0.00367-0.11621,0.00378-0.1741c0.01191-0.02099,0.0293-0.0274,0.05215-0.01924
		c0.08537,0.05732,0.07248,0.14761,0.07341,0.22991c0.0034,0.30095,0.00133,0.60195,0.00136,0.90294
		c0.00013,1.74781,0.00104,3.49563-0.00086,5.24343c-0.00037,0.33584,0.13259,0.59144,0.42686,0.76062
		c0.10771,0.06192,0.22414,0.09597,0.34923,0.09933c0.07979,0.00214,0.15959,0.00161,0.23938,0.00161
		c5.21357,0.00006,10.42715-0.0002,15.64072,0.00156c0.11787,0.00004,0.24763-0.03463,0.34641,0.06952
		c0.01588,0.03095,0.01779,0.06028-0.01039,0.08598c-0.06356,0.00889-0.1275,0.00438-0.19125,0.00438
		c-5.3044,0.00024-10.60881,0.00015-15.91321,0.00111C0.96859,12.98146,0.89826,12.9644,0.83245,12.99689z"/>
	<path fill="#224053" d="M4.91959,0.00265c7.47181,0,14.94361,0,22.41542,0c0.9268,0.09185,1.60524,0.62044,2.2067,1.26356
		c0.76324,0.8161,1.31045,1.77103,1.76018,2.7858c0.24603,0.55514,0.44916,1.12291,0.58041,1.71558
		c0.0375,0.16931,0.06082,0.34087,0.07951,0.51272c0.00711,0.06537,0.0216,0.13767-0.02619,0.19878
		c-0.02298,0.01621-0.0488,0.02266-0.07664,0.02323c-0.046-0.00851-0.09947-0.00938-0.0854-0.08059
		c0.05539-0.09813,0.04761-0.20248,0.03432-0.30872c-0.0715-0.57124-0.25691-1.11148-0.46776-1.6425
		c-0.37236-0.93781-0.84174-1.8258-1.46954-2.6214c-0.41423-0.52494-0.87061-1.01293-1.45674-1.35969
		c-0.42474-0.25128-0.87728-0.37933-1.37957-0.37895C19.79201,0.11586,12.54973,0.11416,5.30745,0.11422
		c-0.11154,0-0.22353-0.00548-0.33304,0.02339c-0.0475,0.00867-0.07134-0.01506-0.08074-0.05837
		C4.89056,0.04986,4.90098,0.02489,4.91959,0.00265z"/>
	<path fill="#40586D" d="M31.87027,6.46911c0.02087-0.00073,0.04174-0.00145,0.06261-0.00218
		c0.03349-0.0074,0.04266,0.00914,0.03866,0.03867c-0.03713,0.65996-0.24487,1.27902-0.47105,1.89183
		c-0.24116,0.65341-0.54059,1.28113-0.89859,1.87989c-0.30346,0.50754-0.64466,0.98869-1.04682,1.42521
		c-0.13764,0.2106-0.34271,0.35529-0.53062,0.51278c-0.36884,0.30913-0.77875,0.55107-1.24924,0.68465
		c-0.12494,0.03547-0.26428,0.0152-0.37635,0.09693c-0.01064,0-0.02129,0-0.03193,0c-0.06031-0.03173-0.12536-0.01548-0.1879-0.0155
		c-3.32309-0.00105-6.64618-0.0006-9.96927-0.00097c-0.02181,0.0015-0.0417-0.00392-0.05968-0.01625
		c-0.0007-0.02082-0.0014-0.04165-0.00209-0.06247c0.00681-0.00637,0.01361-0.01274,0.02035-0.01922
		c0.09121-0.04165,0.1884-0.02597,0.28311-0.026c3.14256-0.00084,6.28511-0.00361,9.42766,0.00118
		c0.87836,0.00134,1.60947-0.32247,2.23843-0.91673c0.90294-0.85312,1.51887-1.8928,2.01633-3.01194
		c0.25163-0.5661,0.45168-1.14958,0.60107-1.75033c0.04474-0.1799,0.0699-0.36257,0.08723-0.54654
		C31.82766,6.57423,31.82606,6.51531,31.87027,6.46911z"/>
	<path fill="#3B556C" d="M4.91959,0.00265C4.9194,0.0236,4.91921,0.04455,4.91901,0.0655
		C4.83683,0.13397,4.73744,0.11524,4.64359,0.11534c-1.20657,0.00128-2.41315,0.0015-3.61972,0.00012
		c-0.21924-0.00025-0.42176,0.03972-0.5934,0.18653C0.23119,0.47242,0.14784,0.6898,0.14819,0.94689
		c0.00103,0.75971,0.00044,1.51942,0.00034,2.27913c-0.00009,0.6964,0.00043,1.3928-0.00056,2.0892
		C0.14785,5.39889,0.15881,5.48472,0.11807,5.564c-0.0126,0.01994-0.03006,0.02576-0.05226,0.01755
		C0.05511,5.58161,0.0444,5.58166,0.0337,5.58172C0.02926,5.57231,0.02482,5.56291,0.02037,5.5535
		C0.01649,4.02417,0.01999,2.49483,0.01793,0.96549C0.01786,0.9087,0.0333,0.84939,0.00225,0.79498c0-0.02113,0-0.04226,0-0.06339
		c0.03979-0.2659,0.16864-0.47446,0.39489-0.62666C0.48274,0.04734,0.57882,0.0309,0.67279,0.00265
		C2.08839,0.00265,3.50399,0.00265,4.91959,0.00265z"/>
	<path fill="#697681" d="M17.1501,12.96417c0.01002,0.0008,0.02004,0.00138,0.03008,0.00172
		c0.01094,0.0066,0.0147,0.01339,0.01132,0.02038c-0.00343,0.00707-0.00691,0.01062-0.01048,0.01062
		c-5.44952,0-10.89905,0-16.34857,0c0.05777-0.05862,0.13129-0.03048,0.19694-0.0305
		C6.40296,12.96466,11.77653,12.96447,17.1501,12.96417z"/>
	<path fill="#274355" d="M31.96671,6.49822c-0.01127-0.01042-0.02255-0.02084-0.03383-0.03127
		c0.00119-0.42424-0.09857-0.83306-0.22214-1.23282c-0.33422-1.08118-0.82024-2.09219-1.46026-3.03014
		c-0.2858-0.41884-0.59899-0.81502-0.96538-1.16536c-0.48289-0.46173-1.02873-0.82381-1.69087-0.99019
		c-0.08657-0.02175-0.1832,0.02305-0.25921-0.04579c0.10644,0,0.21287,0,0.31931,0c0.16121,0.05941,0.32589,0.11099,0.48303,0.17957
		c0.71444,0.31181,1.26529,0.8282,1.73977,1.4244c0.97954,1.23082,1.66083,2.61003,2.03659,4.13618
		c0.03081,0.12514,0.02395,0.25814,0.0832,0.37665c0,0.12677,0,0.25355,0,0.38032
		C31.98625,6.51053,31.97616,6.51059,31.96671,6.49822z"/>
	<path fill="#535F69" d="M17.18102,12.99689c-0.00003-0.01034-0.00031-0.02068-0.00083-0.03101
		c3.34584-0.00025,6.69169-0.00058,10.03753-0.00005c0.0508,0.00001,0.10789-0.01845,0.14922,0.03106
		C23.97164,12.99689,20.57633,12.99689,17.18102,12.99689z"/>
	<path fill="#43596D" d="M31.96671,6.49822c0.01006,0.00054,0.02013,0.00106,0.0302,0.00155c0,0.09508,0,0.19016,0,0.28524
		c-0.06374,0.25704-0.11891,0.51653-0.19265,0.77071c-0.417,1.43744-1.06492,2.75902-2.01711,3.92582
		c-0.06321,0.07745-0.1358,0.14736-0.20403,0.22078c-0.01692,0.01549-0.03191,0.01382-0.04497-0.005
		c0.57455-0.66514,1.06172-1.38802,1.44666-2.17677c0.39099-0.80114,0.71767-1.62517,0.89931-2.50162
		C31.92001,6.84581,31.90248,6.66577,31.96671,6.49822z"/>
	<path fill="#55718A" d="M0.0337,5.58172c0.00016,2.14233,0.00049,4.28467-0.00042,6.42701
		c-0.00002,0.05537,0.02139,0.11744-0.03103,0.16414c0-2.1974,0-4.3948,0-6.5922c0.01046-0.01392,0.0212-0.01481,0.03227-0.0007
		L0.0337,5.58172z"/>
	<path fill="#40596F" d="M0.03451,5.57997C0.02376,5.5802,0.013,5.58043,0.00225,5.58067c0-1.59523,0-3.19046,0-4.78569
		C0.05748,0.84716,0.03301,0.9146,0.03307,0.9749C0.03459,2.50992,0.0344,4.04495,0.03451,5.57997z"/>
	<path fill="#535F69" d="M29.53816,11.69732c0.01498,0.00167,0.02997,0.00333,0.04496,0.005
		c-0.56569,0.6301-1.21423,1.1267-2.08054,1.27304c-0.0141,0.00238-0.0266,0.01416-0.03984,0.02154c-0.02129,0-0.04257,0-0.06386,0
		c0.00516-0.05693,0.04613-0.05787,0.09106-0.06424c0.60933-0.08632,1.11189-0.3876,1.56891-0.77654
		C29.22738,12.01269,29.40409,11.87665,29.53816,11.69732z"/>
	<path fill="#44637F" d="M0.06581,5.58155c0.01081-0.00037,0.02163-0.00073,0.03244-0.0011
		c0.20079-0.00712,0.37317,0.14606,0.41981,0.3744c0.01917,0.09388,0.01422,0.18933,0.01423,0.28428
		c0.00023,1.83743,0.00013,3.67486,0.00024,5.5123c0,0.0739-0.00312,0.14799,0.0047,0.22162
		c0.02509,0.23633,0.21904,0.43165,0.45697,0.4597c0.09,0.01061,0.18068,0.00607,0.27107,0.00607
		c5.06421,0.00015,10.12842,0.0001,15.19262,0.00034c0.10625,0,0.2132-0.00696,0.31823,0.01486
		c0.24135,0.05015,0.4057,0.24728,0.37459,0.4473c0,0-0.00268,0.00039-0.00269,0.00039
		c-0.07297-0.04569-0.15458-0.03117-0.23337-0.03118c-5.3081-0.00045-10.6162-0.0034-15.92428,0.00471
		c-0.478,0.00073-0.90011-0.41791-0.89743-0.88561C0.10476,9.92553,0.0981,7.86134,0.09781,5.79719
		C0.0978,5.724,0.10958,5.64857,0.06581,5.58155z"/>
	<path fill="#2D4961" d="M17.15071,12.90131c-0.09486-0.31028-0.23033-0.41147-0.55217-0.41147
		C11.43377,12.48976,6.269,12.48685,1.10425,12.49638C0.76924,12.497,0.47197,12.20202,0.47435,11.875
		c0.01396-1.91106,0.00686-3.82227,0.00683-5.73343C0.48118,5.82,0.40201,5.70413,0.09825,5.58046
		C0.09817,4.02238,0.09779,2.4643,0.09819,0.90622c0.00012-0.47817,0.36437-0.83981,0.8459-0.84004
		c1.32498-0.00066,2.64996-0.0005,3.97493-0.00067c0.00131,0.02603,0.00665,0.05009,0.03223,0.06411
		c0.04718,0.01833,0.07453,0.0584,0.10457,0.09509c0.09342,0.11413,0.21541,0.16802,0.36191,0.17205
		c0.07982,0.00219,0.15964,0.00155,0.23946,0.00155c7.02475,0.00005,14.04951,0.0048,21.07423-0.00901
		c0.55953-0.0011,1.03779,0.15803,1.5131,0.41062c0.69683,0.37032,1.19594,0.93612,1.64209,1.56422
		c0.43949,0.61873,0.72293,1.3147,1.03162,1.9985c0.20492,0.45392,0.3779,0.92017,0.48082,1.40818
		c0.05553,0.26333,0.19679,0.4731,0.37405,0.66594c0.02346,0.03718,0.062,0.02974,0.09715,0.03234
		c0.01466,0.4004-0.09464,0.78103-0.20605,1.15763c-0.2607,0.88123-0.63107,1.71803-1.08845,2.51595
		c-0.41667,0.7269-0.92093,1.38892-1.55001,1.94765c-0.44541,0.39561-0.96031,0.67208-1.558,0.77155
		c-0.14026,0.02334-0.28384,0.03806-0.42591,0.03815C23.7448,12.90201,20.44776,12.90142,17.15071,12.90131z"/>
	<path fill="#123247" d="M31.77311,6.43676c-0.26297-0.11926-0.35261-0.36268-0.40725-0.60984
		c-0.16983-0.76821-0.50241-1.47337-0.82304-2.18462c-0.25038-0.55542-0.56478-1.06906-0.92452-1.56275
		c-0.57653-0.79121-1.34569-1.29994-2.25942-1.61674c-0.06256-0.02169-0.13628-0.01584-0.20481-0.01584
		C19.92264,0.44633,12.69121,0.44611,5.45979,0.44749C5.21792,0.44753,5.03773,0.36653,4.95125,0.12961
		c0.00578-0.04409,0.03166-0.06375,0.07579-0.06324c0.04788,0.00056,0.09578-0.00035,0.14366-0.00035
		c7.31125-0.00002,14.6225,0.0016,21.93375-0.00302c0.60313-0.00038,1.12649,0.20738,1.59198,0.55376
		c0.82771,0.61591,1.44226,1.41585,1.94836,2.30581c0.4032,0.70901,0.74011,1.4452,0.98672,2.22137
		c0.11941,0.37583,0.22723,0.75514,0.23738,1.15354C31.87062,6.3654,31.88409,6.44399,31.77311,6.43676z"/>
	<path fill="#3C556C" d="M27.87784,1.04853c0.0138,0.02542,0.03764,0.03093,0.06386,0.03171
		c0.05245,0.03298,0.11128,0.05541,0.15974,0.09499l-0.00006-0.00005c0.0812,0.04357,0.1503,0.10393,0.22357,0.15852
		L28.3249,1.33365c0.05832,0.03596,0.10002,0.09255,0.15971,0.12682l-0.00005-0.00005
		c0.18261,0.15685,0.35303,0.32581,0.5109,0.50722c0.01063,0.01056,0.02127,0.02112,0.0319,0.03168
		c0.03468,0.05911,0.09157,0.10057,0.12783,0.15843l-0.00003-0.00006c0.03455,0.05921,0.09146,0.10068,0.12766,0.15858
		c0.01064,0.01058,0.02128,0.02116,0.03191,0.03173c0.15161,0.22014,0.31777,0.43064,0.44719,0.66546L29.76183,3.0134
		c0.02938,0.04379,0.05746,0.08902,0.07361,0.13885c0.01074,0.03315,0.00113,0.06276-0.04615,0.05462
		c-0.07303-0.03364-0.10388-0.10396-0.14371-0.1653c-0.32358-0.49831-0.67152-0.97739-1.11279-1.382
		c-0.36953-0.33883-0.77526-0.60969-1.29191-0.6723c-0.11685-0.01416-0.23333-0.01557-0.35027-0.01557
		C19.58699,0.97156,12.28335,0.97156,4.97972,0.9716c-0.53186,0-1.06369-0.00946-1.59559-0.00476
		C2.99382,0.9659,2.60353,0.9665,2.21333,0.96687C1.89604,0.96566,1.57869,0.9651,1.26135,0.97128
		c-0.22854,0.00445-0.24872,0.024-0.25107,0.25731C1.00715,1.53831,1.0152,1.84809,1.00649,2.15785
		C1.00328,2.42153,1.00613,2.68518,1.00487,2.94881C1.00459,3.00749,1.01257,3.06419,1.03042,3.11993
		c0.01692,0.08885,0.01362,0.17871,0.01363,0.26831c0.00023,1.98881,0.00022,3.97763,0,5.96644
		C1.04404,9.44427,1.0475,9.53415,1.03108,9.62296c-0.048,0.1638-0.0264,0.33189-0.02396,0.49762
		c0.00345,0.23377-0.0286,0.46908,0.02334,0.70133c0.02844,0.29497,0.00861,0.59065,0.01319,0.88597
		c0.00385,0.24862,0.00655,0.25459,0.26167,0.25462c3.132,0.00039,6.26401-0.00051,9.39601,0.00066
		c0.96772,0.00036,1.93547-0.00678,2.90319,0.00436c4.21777-0.00026,8.43553-0.00143,12.65308,0.00029
		c0.14289,0.00646,0.28601-0.00177,0.42885,0.00035c0.35622,0.01351,0.71164,0.02944,1.04971-0.12368
		c0.27925-0.12648,0.52302-0.30234,0.7477-0.50577c0.51566-0.46688,0.92185-1.01908,1.27057-1.61578
		c0.03182-0.05444,0.04844-0.13527,0.14372-0.11453c0.01971,0.03293,0.01251,0.06334-0.0086,0.09247V9.70081
		c-0.0206,0.05961-0.05813,0.10915-0.09579,0.15861c-0.165,0.35576-0.40167,0.666-0.64591,0.96835
		c-0.2591,0.32076-0.54847,0.61557-0.88876,0.85457c-0.37485,0.26327-0.78161,0.42879-1.25273,0.42867
		c-8.61405-0.00217-17.22811-0.00158-25.84216-0.0016c-0.26821,0-0.29977-0.03185-0.29976-0.30215
		c0.00009-1.83251,0.00022-3.66503,0.00034-5.49754c0.05208-0.06537,0.0306-0.14239,0.03065-0.21423
		C0.8967,4.44243,0.89632,2.78934,0.89649,1.13625c0.00003-0.2658,0.012-0.2777,0.27931-0.27771
		c8.63601-0.0001,17.27202,0.00006,25.90802-0.00087c0.22133-0.00002,0.43173,0.04201,0.6345,0.12734l-0.0001-0.00005
		C27.76825,1.01403,27.82666,1.02233,27.87784,1.04853z"/>
	<path fill="#3C556B" d="M27.71833,0.98502c-0.41758-0.14423-0.85063-0.09336-1.2782-0.09346
		C18.02981,0.88954,9.61949,0.89006,1.20918,0.89006c-0.04788,0-0.09591,0.00256-0.1436-0.0004
		C0.96043,0.88315,0.92084,0.9347,0.92789,1.03355C0.93051,1.07032,0.92824,1.10744,0.92824,1.1444
		c0,1.67905,0.00055,3.35811-0.00335,5.03716C0.9248,6.22164,0.98543,6.31554,0.86478,6.30974
		C0.86467,4.5672,0.86445,2.82466,0.86456,1.08211c0.00001-0.20354,0.05052-0.25522,0.25092-0.25523
		c8.66629-0.00019,17.33258-0.0006,25.99887,0.00251C27.32409,0.82947,27.53656,0.85874,27.71833,0.98502z"/>
	<path fill="#3C556B" d="M29.82515,3.20476c-0.02111-0.06379-0.04222-0.12757-0.06332-0.19136
		c0.11796,0.08398,0.15671,0.22257,0.22259,0.33848c0.38819,0.6831,0.70637,1.39617,0.93405,2.14999
		c0.08254,0.27328,0.14442,0.54921,0.17629,0.82872c0.0286,0.25085-0.04856,0.4999-0.10765,0.74401
		c-0.10481,0.43296-0.24203,0.85435-0.41715,1.26722c-0.19303,0.45507-0.40852,0.89715-0.64228,1.33166
		c-0.00664,0.01235-0.02515,0.0184-0.03813,0.02739c-0.00019-0.03211-0.00038-0.06422-0.00057-0.09634
		c-0.04987-0.10687,0.0326-0.17881,0.07448-0.25775c0.41401-0.78029,0.74148-1.59273,0.93718-2.45496
		c0.01981-0.08728,0.03111-0.17597,0.04521-0.26423c0.04572-0.20642,0.01509-0.4104-0.0278-0.61186
		c-0.12814-0.60195-0.34334-1.17464-0.59555-1.73527c-0.1433-0.31854-0.3081-0.62545-0.47835-0.92999
		C29.81908,3.30563,29.78467,3.25926,29.82515,3.20476z"/>
	<path fill="#3C556B" d="M29.76191,3.01347C29.59884,2.80092,29.439,2.58623,29.31472,2.348
		C29.49507,2.54911,29.6677,2.75533,29.76191,3.01347z"/>
	<path fill="#3C556B" d="M28.99545,1.96764c-0.18346-0.15602-0.35385-0.32499-0.5109-0.50721
		C28.69333,1.59131,28.86379,1.76023,28.99545,1.96764z"/>
	<path fill="#3C556B" d="M28.32495,1.3337c-0.09449-0.02509-0.15907-0.09175-0.22357-0.15852
		C28.20319,1.19011,28.27289,1.24964,28.32495,1.3337z"/>
	<path fill="#3C556B" d="M29.28281,2.31627c-0.05938-0.03951-0.12007-0.07799-0.12766-0.15857
		C29.21447,2.19725,29.275,2.23586,29.28281,2.31627z"/>
	<path fill="#3C556B" d="M28.48461,1.46047c-0.08118-0.00761-0.12002-0.06774-0.15971-0.12682
		C28.40582,1.34158,28.44481,1.40153,28.48461,1.46047z"/>
	<path fill="#3C556B" d="M29.15518,2.15775c-0.05954-0.03935-0.12-0.07797-0.12783-0.15843
		C29.08688,2.03868,29.14713,2.07747,29.15518,2.15775z"/>
	<path fill="#3C556B" d="M28.10144,1.17523c-0.06582-0.01083-0.12591-0.03115-0.15974-0.09499
		C28.01866,1.07262,28.06798,1.11079,28.10144,1.17523z"/>
	<path fill="#3C556B" d="M29.79376,9.85942c0.00681-0.06781,0.05401-0.1116,0.09579-0.15861
		C29.8971,9.77717,29.85861,9.82614,29.79376,9.85942z"/>
	<path fill="#3C556B" d="M27.87784,1.04853c-0.06252,0.00186-0.11832-0.01288-0.1596-0.06356
		C27.78071,0.98321,27.83648,0.99805,27.87784,1.04853z"/>
	<path fill="#666666" d="M29.82515,3.20476c0.07853,0.15401,0.15402,0.30964,0.23611,0.46176
		c0.43658,0.80904,0.77834,1.65293,0.93757,2.56083c0.02248,0.12818,0.04299,0.27045-0.02322,0.40025
		c-0.08007-0.16606-0.23465-0.1049-0.36497-0.11752c-0.03168-0.00086-0.06302-0.00426-0.09377-0.01176
		c-0.02246-0.00503-0.04463-0.01142-0.06688-0.01718c-0.03742-0.00536-0.07514-0.00629-0.11296-0.0067
		c-0.01555,0.00012-0.0309-0.00135-0.04628-0.00335c-0.05383-0.00956-0.10668-0.02481-0.16203-0.02527
		c-0.25337-0.03415-0.50236-0.0883-0.74751-0.15998c-0.39151-0.11447-0.72551-0.32219-1.00784-0.61337
		c-0.35573-0.36688-0.74619-0.68864-1.1953-0.94018c-0.38014-0.21291-0.79649-0.32008-1.21035-0.43727
		c-0.77915-0.22064-1.57314-0.36295-2.37905-0.44089c-0.09363-0.00905-0.19233-0.02908-0.27362,0.04491
		c-0.06631,0.01685-0.08284-0.03269-0.10389-0.07641c-0.14858-0.31132-0.36419-0.58205-0.5429-0.87525
		c-0.17875-0.29328-0.36407-0.58341-0.55766-0.86771c-0.10586-0.15547-0.23337-0.29232-0.41962-0.34985
		c-0.27641-0.08538-0.53489,0.01075-0.71247,0.25377c-0.04388,0.0533-0.09973,0.09332-0.15527,0.13293
		c-0.07809,0.05568-0.12685,0.12469-0.11882,0.22447c-0.05367,0.42689,0.03811,0.81216,0.32407,1.14494
		c0.04025,0.04684,0.07573,0.10326,0.06126,0.17311c-0.04278,0.0638-0.09263,0.03141-0.13824,0.00701
		c-0.0863-0.04616-0.15675-0.11432-0.19709-0.20063c-0.20938-0.44797-0.59847-0.56261-1.04886-0.56494
		c-0.40264-0.00208-0.8053-0.00017-1.20796-0.0007c-0.06871-0.00009-0.13791,0.00406-0.20548-0.01384
		c-0.04242-0.01309-0.0751-0.04035-0.10488-0.07161c-0.17418-0.23924-0.31793-0.49861-0.48836-0.74041
		c-0.104-0.14755-0.21958-0.28872-0.40344-0.34311c-0.28868-0.0854-0.54512,0.00736-0.72553,0.2559
		c-0.04095,0.04939-0.09198,0.08791-0.14412,0.12386c-0.09048,0.0624-0.13992,0.14216-0.1244,0.25472
		c-0.01527,0.16843,0.04742,0.34404-0.04842,0.50467c-0.04663,0.03057-0.09987,0.03441-0.1529,0.03451
		c-0.7049,0.00144-1.4098,0.00424-2.11469-0.00132c-0.02652-0.00021-0.05281-0.00414-0.07862-0.00967
		c-0.04685-0.01052-0.08446-0.03684-0.11788-0.06966c-0.17977-0.24086-0.32348-0.50573-0.49712-0.75087
		c-0.10411-0.14697-0.2194-0.28779-0.40281-0.3421c-0.28758-0.08516-0.54504,0.00751-0.72443,0.25441
		c-0.04367,0.05252-0.0987,0.09242-0.15378,0.13145c-0.08296,0.05878-0.12947,0.13332-0.11732,0.2376
		c-0.00699,0.10477,0.02468,0.21382-0.03589,0.31231c-0.0916,0.04303-0.13804-0.02553-0.18571-0.07904
		c-0.08442-0.09478-0.16252-0.19514-0.24678-0.29008c-0.15197-0.17122-0.33689-0.25849-0.57465-0.25504
		C10.29257,2.05057,9.73453,2.0449,9.17656,2.04524C9.09704,2.04529,9.01703,2.0422,8.9397,2.06629
		C8.8915,2.08433,8.85887,2.06353,8.83369,2.02433C8.5811,1.59984,8.03466,1.58671,7.7404,1.9988
		C7.72075,2.01767,7.6973,2.02898,7.67102,2.03561c-0.51413,0.02502-1.0284,0.00594-1.5425,0.01085
		C5.85285,2.0491,5.57712,2.04833,5.30143,2.04655C4.8048,2.04335,4.47467,1.79106,4.3372,1.31228
		c-0.009-0.06555-0.00894-0.1315-0.00739-0.19735c-0.0046-0.10248-0.07782-0.11262-0.15662-0.11355
		c-0.19082-0.00225-0.38166,0.00036-0.57248-0.0014C3.53229,0.99935,3.4622,1.0061,3.39872,0.97019
		C3.38114,0.95757,3.37724,0.94162,3.38689,0.92241c7.86668-0.00003,15.73337,0.0004,23.60005-0.00111
		c0.5125-0.0001,0.95078,0.18497,1.3424,0.49712c0.59169,0.47163,1.02917,1.07108,1.42397,1.70506
		C29.77313,3.15531,29.78878,3.1884,29.82515,3.20476z"/>
	<path fill="#8A8A8A" d="M13.6033,12.01256c-1.28693,0.00073-2.57385,0.00196-3.86078,0.0021
		c-2.85041,0.00032-5.70083-0.00116-8.55124,0.0035c-0.15659,0.00026-0.21185-0.03088-0.20512-0.19769
		c0.01359-0.33718,0.00177-0.67537,0.00043-1.01315c-0.01707-0.38888-0.01539-0.77777-0.00078-1.16667
		C0.98741,9.2715,0.99029,8.90233,0.9904,8.53316C0.99089,6.7925,0.99067,5.05184,0.99043,3.31119
		C0.99042,3.24267,0.98762,3.17415,0.98612,3.10563c0.01724-0.20882-0.01194-0.4192,0.02114-0.62756
		c0.09739-0.10805,0.22731-0.07472,0.34853-0.07922c0.04473,0.00048,0.08966-0.00103,0.13432,0.00433
		c0.06098,0.00671,0.11887,0.02497,0.17578,0.0472c0.06583,0.02994,0.1227,0.0724,0.17434,0.12247
		c0.15922,0.13728,0.191,0.31819,0.19079,0.51601c-0.00175,1.684-0.00106,3.368-0.00101,5.052
		c0,0.06335-0.00076,0.12671,0.00046,0.19004c0.01151,0.59645,0.38368,0.96773,0.9834,0.97253
		c0.56373,0.00451,1.12753,0.00027,1.69129,0.0013C5.1474,9.30554,5.37406,9.48174,5.47971,9.904
		c0.10614,0.42424,0.443,0.68573,0.91002,0.69811c0.27641,0.00733,0.5531,0.00098,0.82966,0.00205
		c0.06371,0.00024,0.12783-0.00245,0.18989,0.01574c0.05884,0.01985,0.08884,0.07236,0.12834,0.11402
		c0.26115,0.27544,0.65844,0.28549,0.93509,0.02369c0.06025-0.05702,0.10456-0.13598,0.20006-0.14648
		c1.01506-0.02183,2.02988-0.00741,3.04467-0.00773c0.02657-0.00001,0.05293,0.00421,0.07855,0.01001
		c0.06148,0.01327,0.09464,0.06267,0.13404,0.10477c0.28429,0.30382,0.68408,0.30828,0.97731,0.01145
		c0.04025-0.04075,0.07209-0.09217,0.13394-0.1066c0.38259,0.01321,0.59665,0.35468,0.60544,0.61151
		c0.00376,0.10973,0.00282,0.21953,0.00167,0.32925c0.00019,0.05977,0.00027,0.1196-0.00062,0.17939
		c0.00058,0.01692,0.00031,0.03386-0.00001,0.05078c0.00053,0.04234-0.00008,0.08466-0.00322,0.12696
		C13.64217,11.9565,13.62875,11.98722,13.6033,12.01256z"/>
	<path fill="#686868" d="M30.59195,6.4681c0.0727-0.00001,0.14622,0.00684,0.21794-0.00152
		c0.12758-0.01487,0.18649,0.03016,0.16571,0.16101c0.00067,0.25075-0.0776,0.4874-0.14571,0.72324
		c-0.18737,0.64874-0.44865,1.2697-0.74911,1.87463c-0.063,0.12684-0.15982,0.23683-0.19179,0.37911
		c-0.16074,0.24583-0.31585,0.49553-0.4834,0.73671c-0.35387,0.50939-0.76302,0.9674-1.27604,1.32761
		c-0.34941,0.24533-0.73103,0.3745-1.16225,0.3464c-0.07936-0.00517-0.15931-0.00143-0.23899-0.0018
		c-0.02706-0.03109-0.01537-0.0629,0.00909-0.08371c0.11304-0.0962,0.16844-0.22849,0.23142-0.35589
		c0.10889-0.2203,0.27927-0.36917,0.51703-0.43749c0.29863-0.08582,0.58141-0.20262,0.81698-0.41011
		c0.39997-0.3523,0.73087-0.76102,1.01225-1.21214c0.48626-0.77959,0.85782-1.60962,1.13756-2.48237
		C30.5121,6.84623,30.51929,6.64945,30.59195,6.4681z"/>
	<path fill="#6B6B6B" d="M13.6033,12.01256c0.00094-0.03101,0.00189-0.06201,0.00283-0.09302
		c0.082-0.06897,0.18152-0.05035,0.2754-0.05047c1.00525-0.00135,2.0105-0.00082,3.01574-0.00082
		c2.97851-0.00001,5.95703,0,8.93554,0c0.05851,0,0.11702-0.00078,0.17552,0.00012c0.31301,0.00485,0.62127-0.00297,0.82596-0.29537
		c0.01756-0.00865,0.03616-0.01021,0.05514-0.00505c0.01727,0.20338-0.17834,0.39475-0.42373,0.41356
		c-0.06245,0.00479-0.12818-0.00977-0.18408,0.03195C22.05551,12.01316,17.82941,12.01286,13.6033,12.01256z"/>
	<path fill="#676768" d="M1.37507,2.44125C1.2582,2.44632,1.13905,2.42974,1.02662,2.4772
		c-0.08244-0.09436,0.0113-0.2244-0.06575-0.31984C0.96086,1.81052,0.96441,1.46365,0.95913,1.1169
		c-0.00216-0.14213,0.0542-0.19833,0.19751-0.19617C1.50599,0.92597,1.85547,0.92246,2.2049,0.92248
		c0.00992,0.02018,0.0054,0.03639-0.01348,0.04875c-0.11106,0.04771-0.22818,0.0235-0.34286,0.02861
		C1.47547,0.99146,1.4264,1.03787,1.42406,1.40881C1.42233,1.68286,1.42457,1.95692,1.4231,2.23097
		C1.42271,2.30405,1.43043,2.38005,1.37507,2.44125z"/>
	<path fill="#6B6B6B" d="M26.28162,12.01345c0.0202-0.04179,0.05371-0.06139,0.10034-0.06225
		c0.24671-0.00451,0.41464-0.12208,0.50603-0.34881c0.07292-0.2496,0.24115-0.41603,0.48159-0.49886
		c0.30055-0.10353,0.59798-0.20732,0.8512-0.40729c0.06687-0.05281,0.1342-0.10205,0.16794-0.1834
		c0.02692-0.05138,0.06659-0.08995,0.11831-0.11642c0.15222-0.07186,0.23038-0.21615,0.3266-0.33951
		c0.58771-0.75353,1.00282-1.60021,1.35061-2.483c0.14128-0.35862,0.25102-0.72526,0.31193-1.10585
		c0.03193,0.00001,0.06386,0.00002,0.09579,0.00004c0.00258,0.41086-0.16341,0.78163-0.30119,1.15396
		c-0.29892,0.80782-0.68473,1.57533-1.18889,2.2787c-0.29859,0.41657-0.63647,0.7968-1.08151,1.07043
		c-0.1703,0.10471-0.36276,0.14711-0.54748,0.20988c-0.21369,0.07261-0.37035,0.20248-0.46225,0.40403
		c-0.07214,0.15821-0.16419,0.30117-0.28232,0.42837C26.57942,12.01346,26.43052,12.01346,26.28162,12.01345z"/>
	<path fill="#424F5A" d="M0.96087,2.15735c0.09604,0.01881,0.05628,0.09527,0.06204,0.14996
		C1.02882,2.36344,1.02573,2.4205,1.0266,2.47718c-0.02127,0.20902,0.03594,0.423-0.04044,0.62848
		C0.9283,2.94348,0.96973,2.77618,0.9618,2.61148C0.95452,2.46043,0.96065,2.30875,0.96087,2.15735z"/>
	<path fill="#424F5A" d="M2.20606,0.95306c-0.0005-0.0102-0.00088-0.02039-0.00115-0.03059
		C2.5989,0.92245,2.99289,0.92242,3.38689,0.9224C3.38666,0.93248,3.38631,0.94255,3.38584,0.95262
		C3.34172,1.00005,3.28224,1.002,3.22432,1.0027C2.93882,1.00615,2.6533,1.0061,2.3678,1.00273
		C2.30987,1.00205,2.25042,1.00011,2.20606,0.95306z"/>
	<path fill="#424F5A" d="M0.98581,9.64067c0.00028,0.38891,0.00057,0.77782,0.00082,1.1667
		c-0.05294-0.07687-0.02704-0.16382-0.02425-0.24455C0.97301,10.25548,0.92728,9.94666,0.98581,9.64067z"/>
	<path fill="#797979" d="M13.6055,11.57088c-0.00194-0.137,0.01263-0.27665-0.00925-0.41044
		c-0.04599-0.28122-0.25855-0.4611-0.57235-0.51005c-0.00393-0.02431,0.00918-0.03996,0.02714-0.05322
		c0.08202-0.04305,0.14853-0.10026,0.17696-0.1922c0.252-0.37088,0.48949-0.75095,0.73253-1.1275
		c0.57532-0.89136,1.14371-1.7871,1.71959-2.67803c0.01489-0.02537,0.02927-0.05107,0.04339-0.07691
		c0.01772-0.0321,0.03923-0.06161,0.06276-0.08971c0.21335-0.16559,0.13008-0.32573-0.00945-0.48467
		c-0.62916-0.97729-1.25398-1.95722-1.87929-2.93683c-0.02939-0.04604-0.0803-0.09127-0.03724-0.15616
		c0.79649-0.00029,1.59299-0.00058,2.38948-0.00087c0.40368,0.74287,0.90127,1.42771,1.3463,2.14506
		c0.26486,0.42692,0.54128,0.8467,0.81283,1.26946c0.08221,0.12799,0.08439,0.23328,0.00184,0.36307
		c-0.43432,0.68284-0.8765,1.36068-1.31225,2.04259c-0.24208,0.37885-0.4826,0.75872-0.72965,1.13441
		c-0.05152,0.07834-0.07495,0.1611-0.07401,0.25385c0.00155,0.15307,0.00681,0.30652-0.00138,0.45918
		c-0.00857,0.15974,0.07341,0.25925,0.19988,0.33295c0.27278,0.15896,0.59609,0.1104,0.81516-0.11847
		c0.04372-0.04567,0.07544-0.10295,0.13219-0.13603c0.08932-0.03828,0.15925-0.0959,0.19142-0.19095
		c0.2508-0.37217,0.48977-0.75186,0.73298-1.12886c0.57576-0.89249,1.14492-1.78915,1.72145-2.68107
		c0.0149-0.02538,0.02929-0.05109,0.04342-0.07694c0.01773-0.0321,0.03924-0.06162,0.06277-0.08972
		c0.21334-0.16559,0.13009-0.32573-0.00945-0.48467c-0.62916-0.97729-1.25397-1.95722-1.8793-2.93682
		c-0.02939-0.04605-0.08029-0.09127-0.03723-0.15617c0.50311-0.00004,1.0064-0.0084,1.50925,0.0029
		c0.32063,0.0072,0.63545,0.06239,0.85375,0.33328c0.07839,0.09727,0.12676,0.21852,0.20601,0.3149
		c0.05877,0.07147,0.1116,0.18136,0.24315,0.13661c0.06583-0.00033,0.08801,0.05362,0.11522,0.09643
		c0.53378,0.83961,1.07348,1.67548,1.61172,2.51226c0.09393,0.14602,0.08886,0.26074-0.00315,0.40462
		c-0.50751,0.79363-1.02145,1.58319-1.5282,2.3773c-0.16512,0.25875-0.32719,0.51949-0.4984,0.77434
		c-0.05231,0.07786-0.07575,0.16084-0.0748,0.25374c0.00157,0.15316,0.00677,0.30669-0.00133,0.45944
		c-0.00887,0.16719,0.07955,0.26796,0.21335,0.34096c0.28562,0.15582,0.59976,0.09759,0.82272-0.14918
		c0.03536-0.03914,0.06358-0.08522,0.11108-0.1124c0.08932-0.03829,0.15927-0.09591,0.19144-0.19097
		c0.25079-0.37218,0.48976-0.75185,0.73298-1.12886c0.57577-0.89248,1.14491-1.78915,1.72145-2.68106
		c0.01486-0.02539,0.02928-0.05108,0.04341-0.07692c0.01771-0.03208,0.0392-0.06157,0.06272-0.08965
		c0.21012-0.16455,0.13418-0.32456-0.00817-0.48335c-0.39895-0.62319-0.80139-1.24412-1.19652-1.86962
		c-0.02772-0.05185-0.05769-0.10263-0.08055-0.15703c-0.0008-0.00731-0.00143-0.01466-0.00206-0.02201
		c-0.02371-0.07608,0.00222-0.09808,0.08326-0.09709c0.26546,0.00324,0.52745,0.04067,0.7891,0.07545
		c0.7564,0.10055,1.49399,0.28574,2.22639,0.4956c0.56043,0.16058,1.04989,0.44195,1.49874,0.8062
		c0.28018,0.22737,0.50744,0.51011,0.79503,0.72837c0.31578,0.23965,0.68541,0.34969,1.06613,0.43071
		c0.12375,0.02633,0.24945,0.04367,0.37426,0.06512c0.03752,0.04946,0.01701,0.10122,0.00472,0.15179
		c-0.30079,1.23819-0.82539,2.3724-1.61701,3.37758c-0.30175,0.38316-0.65859,0.6969-1.15554,0.8279
		c-0.31246,0.08237-0.56095,0.27346-0.71834,0.56536c-0.11433,0.21203-0.2888,0.29384-0.53595,0.29354
		c-4.08549-0.00499-8.17098-0.00346-12.25647-0.00429C13.77743,11.6171,13.6835,11.63513,13.6055,11.57088z"/>
	<path fill="#797979" d="M7.43689,10.65079c-0.35623,0.00026-0.71246,0.00205-1.06867,0.0004
		c-0.45116-0.00208-0.88285-0.33558-0.94412-0.77632C5.37946,9.55373,5.11384,9.35265,4.78344,9.35233
		C4.17732,9.35175,3.5712,9.35345,2.96509,9.35173C2.52632,9.35049,2.15044,9.08555,2.03525,8.69552
		c-0.0341-0.11547-0.05452-0.23383-0.05441-0.35654C1.98248,6.60276,1.9795,4.86653,1.98507,3.13033
		C1.98577,2.914,1.9522,2.72365,1.79045,2.56975c0.02271-0.31539,0.00823-0.6313,0.01367-0.94693
		C1.809,1.33948,1.89233,1.25402,2.17695,1.25273c0.66284-0.003,1.3257-0.00145,1.98855-0.00051
		c0.07384,0.00011,0.14988-0.00426,0.21131,0.04984C4.52214,1.77298,4.8538,2.0089,5.34295,2.00234
		c0.78603-0.01053,1.57232-0.00158,2.3585-0.00086c0.00028,0.07062-0.06305,0.08829-0.1058,0.12062
		C7.52553,2.17513,7.47954,2.23805,7.48348,2.32922C7.47558,2.98878,7.4811,2.98523,7.84577,3.54436
		C8.43541,4.44844,9.01284,5.36031,9.5961,6.26847c0.08194,0.12758,0.08633,0.23284,0.00328,0.36297
		C9.08991,7.42977,8.57293,8.22333,8.06359,9.02172C7.89571,9.28487,7.73005,9.54949,7.55647,9.80901
		c-0.05224,0.0781-0.07528,0.16085-0.07411,0.25372c0.00179,0.14255,0.00226,0.28517-0.00052,0.42771
		C7.48074,10.5467,7.49266,10.60872,7.43689,10.65079z"/>
	<path fill="#797979" d="M11.84334,10.65079c-1.07522-0.00012-2.15045-0.00024-3.22567-0.00036
		c-0.00413-0.02434,0.00902-0.03995,0.02698-0.0532c0.08203-0.04304,0.14842-0.10036,0.17689-0.19224
		c0.252-0.37089,0.4895-0.75095,0.73254-1.1275c0.57533-0.89137,1.14372-1.78711,1.71959-2.67805
		c0.01489-0.02537,0.02927-0.05107,0.04339-0.07691c0.01772-0.03209,0.03922-0.06159,0.06274-0.08968
		c0.21207-0.16518,0.13172-0.32527-0.00895-0.48416c-0.68384-1.06547-1.36576-2.13206-2.04875-3.19798
		C9.21112,2.57751,9.10149,2.40341,8.98841,2.2315C8.95427,2.17961,8.90686,2.1324,8.91125,2.06264
		C8.9222,1.98359,8.98435,1.99986,9.03462,1.9998c0.64366-0.00069,1.28732-0.00091,1.93097-0.00013
		c0.16995,0.00021,0.30753,0.08071,0.42164,0.19476c0.10785,0.1078,0.20344,0.22792,0.30149,0.34505
		c0.0439,0.05244,0.07674,0.1155,0.15501,0.12469c0.04143,0.02746,0.04687,0.07223,0.04252,0.11297
		c-0.01752,0.1644,0.05926,0.29165,0.14464,0.42341c0.65867,1.01638,1.30909,2.03799,1.96524,3.05597
		c0.08966,0.1391,0.09065,0.25024,0.00069,0.39036c-0.51432,0.80107-1.03214,1.59994-1.54495,2.40196
		c-0.16524,0.25843-0.32725,0.51895-0.49794,0.77391c-0.04596,0.06865-0.06531,0.14274-0.06504,0.22432
		c0.00048,0.14779,0.00192,0.29563-0.0009,0.44339C11.88693,10.54667,11.89921,10.60872,11.84334,10.65079z"/>
	<path fill="#FEFEFE" d="M11.84334,10.65079c0.00172-0.02627,0.00838-0.05329,0.00444-0.07869
		c-0.07231-0.46589,0.10183-0.84569,0.36066-1.22868c0.61438-0.9091,1.19147-1.84299,1.78794-2.7641
		c0.06083-0.09393,0.06146-0.16007,0.00028-0.25468c-0.69903-1.08096-1.39169-2.16599-2.09101-3.24676
		c-0.08724-0.13483-0.03734-0.27675-0.0619-0.41372c0.00306-0.11585,0.00611-0.23169,0.00917-0.34754
		c0.15565-0.13298,0.32914-0.08173,0.49127-0.03036c0.1902,0.06027,0.3136,0.20954,0.42099,0.37141
		c0.58766,0.88579,1.17228,1.77358,1.76369,2.6569c0.32655,0.48773,0.64518,0.98062,0.97511,1.46616
		c0.02014,0.07119-0.02674,0.12069-0.06029,0.17252c-0.66247,1.02334-1.32068,2.04937-1.97331,3.07892
		c-0.09307,0.14683-0.20498,0.28162-0.28265,0.43816c-0.03979,0.05422-0.07402,0.11376-0.13733,0.14629
		c-0.00882,0.01125-0.01764,0.0225-0.02647,0.03375c-0.27732,0.34616-0.57824,0.42966-0.9311,0.2533
		C11.98248,10.84855,11.89061,10.76993,11.84334,10.65079z"/>
	<path fill="#FEFEFE" d="M21.86328,10.61664c-0.10095,0.12112-0.1946,0.2461-0.34926,0.31289
		c-0.23012,0.09938-0.44844,0.07735-0.65433-0.04939c-0.12922-0.07954-0.19218-0.18972-0.20654-0.36104
		c-0.03532-0.42136,0.09358-0.76631,0.32841-1.11526c0.62776-0.93284,1.22239-1.88762,1.83207-2.8325
		c0.04667-0.07232,0.07081-0.13248,0.01751-0.21507c-0.57818-0.8961-1.15361-1.79395-1.73005-2.69115
		c-0.00553-0.0086-0.01472-0.01489-0.02219-0.02226c-0.07424-0.12014-0.13826-0.24817-0.22498-0.35866
		c-0.15316-0.19513-0.22631-0.40545-0.1944-0.65375c0.01326-0.10319,0.00484-0.20913,0.00628-0.31381
		c0.15566-0.13298,0.32915-0.08173,0.49127-0.03036c0.1902,0.06026,0.3136,0.20953,0.42099,0.37141
		c0.58467,0.88143,1.16652,1.76472,1.75487,2.64372c0.32943,0.49217,0.65121,0.98932,0.98394,1.47935
		c0.02014,0.07119-0.02675,0.12069-0.0603,0.17251c-0.66247,1.02334-1.32067,2.04937-1.9733,3.07892
		c-0.09307,0.14683-0.20498,0.28162-0.28265,0.43816C21.96081,10.52456,21.92658,10.5841,21.86328,10.61664z"/>
	<path fill="#FEFEFE" d="M17.45683,10.61664c-0.10097,0.12119-0.19469,0.24619-0.34942,0.31296
		c-0.23024,0.09936-0.44856,0.07715-0.65453-0.04967c-0.12943-0.07969-0.19168-0.19031-0.20616-0.36141
		c-0.03568-0.42166,0.09401-0.76658,0.32887-1.11558c0.62799-0.93317,1.22264-1.88843,1.83337-2.83311
		c0.05253-0.08126,0.06046-0.1438,0.00566-0.22871c-0.69587-1.07824-1.3879-2.15892-2.08319-3.23753
		c-0.05044-0.07825-0.08434-0.15651-0.08165-0.24931c0.00319-0.17922,0.00639-0.35843,0.00958-0.53765
		c0.15565-0.13298,0.32915-0.08173,0.49127-0.03036c0.1902,0.06026,0.3136,0.20954,0.42099,0.37141
		c0.58766,0.88579,1.17229,1.77358,1.76369,2.65691c0.32655,0.48773,0.64519,0.98062,0.9751,1.46617
		c0.02014,0.07119-0.02674,0.12069-0.06029,0.17252c-0.66247,1.02334-1.32069,2.04937-1.97331,3.07891
		c-0.09307,0.14683-0.20498,0.28162-0.28265,0.43815C17.55436,10.52456,17.52013,10.5841,17.45683,10.61664z"/>
	<path fill="#757575" d="M13.6055,11.57088c4.18539-0.00006,8.37078-0.00148,12.55617,0.00385
		c0.20885,0.00027,0.35035-0.07036,0.43975-0.245c0.17852-0.34873,0.47684-0.54813,0.84228-0.64166
		c0.4516-0.11558,0.75606-0.42252,1.03158-0.75655c0.70179-0.85081,1.15123-1.83629,1.49617-2.87207
		c0.07116-0.21368,0.11621-0.43593,0.17329-0.65422c0.05326,0.01043,0.10651,0.02086,0.15976,0.03129
		c0.06601,0.16632-0.01029,0.3248-0.05249,0.47369c-0.1469,0.51821-0.33553,1.02276-0.588,1.50157
		c-0.155,0.29396-0.28415,0.60241-0.47087,0.87851c-0.19999,0.29573-0.37939,0.60802-0.62648,0.86905
		c-0.34432,0.36375-0.72419,0.67488-1.23097,0.79962c-0.26826,0.06603-0.45175,0.2496-0.55929,0.49864
		c-0.10039,0.2325-0.27791,0.33572-0.52257,0.34603c-0.04253,0.00179-0.08512,0.00102-0.12769,0.00102
		c-4.08656,0.00004-8.17312,0.00016-12.25967-0.00089c-0.08821-0.00002-0.18255,0.02249-0.26091-0.04275
		C13.60554,11.69765,13.60552,11.63426,13.6055,11.57088z"/>
	<path fill="#DCDEE0" d="M15.49312,6.78553c-0.15041-0.10921-0.2203-0.27917-0.31861-0.42602
		c-0.64171-0.95857-1.27837-1.92046-1.91644-2.88143c-0.19232-0.28965-0.38157-0.58135-0.57644-0.86929
		c-0.1993-0.29448-0.50921-0.40118-0.82873-0.29216c-0.00328-0.1947,0.17359-0.23912,0.28578-0.33749
		c0.20601-0.14653,0.53795-0.11383,0.76119,0.07461c0.10662,0.09,0.18831,0.20049,0.25797,0.31907
		c0.09097,0.15486,0.20022,0.29812,0.28853,0.45444c0.57422,0.89524,1.14714,1.79135,1.72459,2.68458
		c0.10918,0.16888,0.21569,0.33945,0.32624,0.50745c0.06803,0.10338,0.11252,0.21519,0.12685,0.33844
		c0.00437,0.06641,0.00531,0.13268-0.00383,0.19881C15.58573,6.63711,15.61401,6.75228,15.49312,6.78553z"/>
	<path fill="#DCDEE0" d="M19.89957,6.78554c-0.15042-0.10921-0.2203-0.27917-0.31861-0.42602
		c-0.64171-0.95857-1.27837-1.92046-1.91645-2.88143c-0.19232-0.28965-0.38156-0.58135-0.57643-0.86929
		c-0.19929-0.29448-0.50921-0.40118-0.82873-0.29216c-0.00328-0.1947,0.17359-0.23912,0.28578-0.33749
		c0.20602-0.14653,0.53796-0.11382,0.76119,0.07461c0.10662,0.09,0.1883,0.20049,0.25797,0.31907
		c0.09098,0.15486,0.20021,0.29812,0.28854,0.45444c0.57421,0.89524,1.14713,1.79135,1.72459,2.68458
		c0.10918,0.16888,0.21569,0.33945,0.32624,0.50745c0.06804,0.10338,0.11252,0.21519,0.12684,0.33844
		c0.00436,0.0664,0.00531,0.13267-0.00383,0.19881C19.99219,6.63711,20.02045,6.75228,19.89957,6.78554z"/>
	<path fill="#DCDEE0" d="M24.30602,6.78553c-0.15042-0.1092-0.2203-0.27917-0.31861-0.42602
		c-0.64171-0.95857-1.27838-1.92046-1.91645-2.88143c-0.19233-0.28965-0.38157-0.58135-0.57643-0.8693
		c-0.19928-0.29447-0.50921-0.40118-0.82873-0.29215c-0.00327-0.19469,0.17359-0.23912,0.28578-0.3375
		c0.20576-0.14603,0.53791-0.11331,0.76,0.0743c0.1231,0.10399,0.20739,0.23765,0.29247,0.37119
		c0.2916,0.45767,0.58072,0.9169,0.88098,1.36907c0.2562,0.42464,0.53082,0.8378,0.79957,1.25456
		c0.20018,0.31042,0.39606,0.62362,0.60109,0.93098c0.07691,0.1153,0.13734,0.23749,0.1513,0.37798
		c0.00441,0.06652,0.00533,0.1329-0.00381,0.19915C24.39868,6.63698,24.42696,6.75221,24.30602,6.78553z"/>
	<path fill="#DCDEE0" d="M7.44626,2.31681c-0.00834-0.17956,0.1496-0.22657,0.25516-0.31534
		c0.01053-0.00762,0.02105-0.01526,0.03156-0.02289C7.7588,1.92598,7.80758,1.9193,7.85837,1.91641
		c0.10328,0.01325,0.20668,0.01426,0.31015,0.00055C8.24286,1.916,8.30908,1.94386,8.37471,1.97403
		c0.134,0.0732,0.23406,0.18172,0.31504,0.30767c0.55781,0.86755,1.11308,1.7367,1.67109,2.60413
		c0.22034,0.34252,0.43962,0.68573,0.66237,1.02672c0.09007,0.13788,0.17885,0.2758,0.19447,0.44564
		c0.0044,0.06628,0.0053,0.13243-0.00381,0.19842c-0.02681,0.08569-0.02118,0.1867-0.11417,0.24151
		c-0.09315,0.00978-0.12981-0.06217-0.16901-0.12236c-0.40422-0.62071-0.82087-1.23327-1.22983-1.85087
		C9.2189,4.09705,8.73822,3.36837,8.25178,2.64349C8.10304,2.42184,7.90049,2.29566,7.6194,2.32257
		C7.56272,2.32799,7.50306,2.3421,7.44626,2.31681z"/>
	<path fill="#6F6F6F" d="M28.51645,10.42974c-0.04308,0.02061-0.075,0.05231-0.09579,0.09504
		c-0.20039,0.22795-0.45897,0.36797-0.7377,0.47516c-0.143,0.05499-0.29526,0.08838-0.42933,0.16385
		c-0.16665,0.09382-0.27311,0.24519-0.36566,0.40686c-0.20436,0.3279-0.52564,0.3515-0.8711,0.35118
		c-4.13692-0.00382-8.27385-0.00237-12.41076-0.0023c-0.00004-0.04229-0.00009-0.08457-0.00014-0.12686
		c0.06048-0.03103,0.12542-0.01462,0.18793-0.01464c4.12861-0.00094,8.25723-0.00255,12.38584,0.00288
		c0.28226,0.00037,0.4751-0.08365,0.59814-0.34537c0.11662-0.24806,0.31889-0.41452,0.58584-0.50064
		c0.252-0.08129,0.50839-0.15829,0.7139-0.33477c0.2445-0.20996,0.48231-0.42998,0.67558-0.68719
		c0.20814-0.27699,0.40456-0.56403,0.57134-0.86854c0.40641-0.74205,0.76529-1.50391,0.9674-2.32971
		c0.02241-0.09157,0.01366-0.18803,0.04456-0.27824c0.04255,0.00001,0.0851,0.00002,0.12765,0.00003
		c0.05372,0.1823-0.01089,0.35419-0.06209,0.52132c-0.28705,0.93708-0.68671,1.8244-1.2256,2.64662
		C28.98307,9.89951,28.78166,10.19029,28.51645,10.42974z"/>
	<path fill="#606263" d="M11.1819,6.34057c-0.09181-0.33901-0.32467-0.6002-0.50666-0.88774
		c-0.66876-1.05663-1.34858-2.10636-2.02248-3.1598C8.57727,2.17504,8.47841,2.08282,8.36847,1.99947
		c0.15955-0.07651,0.31911-0.07608,0.47868-0.00008c0.01217,0.03026,0.0334,0.05148,0.06409,0.06325
		c0.32027,0.43884,0.59219,0.9089,0.89039,1.36202c0.34475,0.52385,0.67547,1.05679,1.01258,1.58559
		c0.19543,0.30655,0.39146,0.61271,0.58723,0.91904c0.08453,0.1796,0.0939,0.35913-0.00056,0.53854
		c-0.02099,0.02125-0.04198,0.0425-0.06298,0.06375C11.29804,6.45815,11.26541,6.37888,11.1819,6.34057z"/>
	<path fill="#606263" d="M19.9948,6.34057c-0.06951-0.28998-0.26674-0.51091-0.42051-0.75396
		c-0.57761-0.91298-1.16211-1.82167-1.74402-2.73197c0.11413-0.07954,0.25163-0.02291,0.37254-0.063
		c0.0305,0.01206,0.05175,0.03329,0.06394,0.06351c0.10163,0.23185,0.25806,0.43152,0.39193,0.64376
		c0.51312,0.81351,1.03628,1.62078,1.55569,2.43038c0.0845,0.1796,0.0939,0.35913-0.00058,0.53854
		c-0.02099,0.02125-0.04198,0.0425-0.06297,0.06375C20.11094,6.45815,20.07832,6.37888,19.9948,6.34057z"/>
	<path fill="#606263" d="M15.58835,6.34057c-0.06951-0.28998-0.26674-0.51091-0.42051-0.75396
		c-0.57761-0.91298-1.16211-1.82167-1.74402-2.73197c0.11414-0.07954,0.25166-0.02292,0.37258-0.063
		c0.03048,0.01207,0.05172,0.0333,0.0639,0.06351c0.10164,0.23185,0.25806,0.43152,0.39193,0.64376
		c0.51312,0.81351,1.03628,1.62078,1.55569,2.43038c0.08453,0.1796,0.0939,0.35913-0.00056,0.53854
		c-0.02099,0.02125-0.04199,0.0425-0.06298,0.06375C15.70449,6.45815,15.67187,6.37888,15.58835,6.34057z"/>
	<path fill="#5C5D5F" d="M22.85445,3.80993c-0.31999-0.49338-0.64042-0.98648-0.95982-1.48024
		c-0.24507-0.37886-0.51223-0.4788-0.94306-0.35057c0.1347-0.31829,0.6806-0.45199,0.99948-0.14486
		c0.15075,0.1452,0.2558,0.3195,0.36637,0.49199c0.30077,0.4692,0.60252,0.93777,0.90298,1.40716
		c0.01361,0.02127,0.01841,0.04809,0.02732,0.07232C23.11744,3.88224,22.98623,3.87256,22.85445,3.80993z"/>
	<path fill="#606263" d="M22.85445,3.80993c0.13109-0.0014,0.26217-0.0028,0.39326-0.0042
		c0.00032,0.04568,0.02144,0.07757,0.06409,0.09517c0,0-0.00001-0.00002-0.00001-0.00002
		c0.03837,0.04901,0.05476,0.11117,0.09619,0.15836c0.19484,0.24052,0.34063,0.51336,0.51144,0.76967
		c0.2412,0.36194,0.46828,0.73315,0.70139,1.10039c0.08449,0.1796,0.0939,0.35913-0.00057,0.53854
		c-0.02099,0.02125-0.04199,0.0425-0.06298,0.06374c-0.03988-0.07343-0.0725-0.1527-0.15602-0.19101
		c-0.06951-0.29012-0.2676-0.51064-0.42078-0.75425c-0.35371-0.56249-0.7172-1.11892-1.07606-1.67824
		C22.88466,3.87732,22.87096,3.84274,22.85445,3.80993z"/>
	<path fill="#717171" d="M30.33651,6.43646c0.01349,0.44056-0.18197,0.82892-0.3196,1.2301
		c-0.16223,0.47289-0.39865,0.91556-0.63762,1.35226c-0.32684,0.59728-0.73498,1.13998-1.25384,1.59262
		c-0.22236,0.19398-0.50239,0.26727-0.77146,0.36158c-0.27653,0.09692-0.45141,0.29895-0.59048,0.54025
		c-0.10082,0.17493-0.22632,0.28287-0.45192,0.28263c-4.23521-0.00453-8.47042-0.00328-12.70562-0.00323
		c-0.00079-0.01054-0.00093-0.02109-0.00041-0.03164c4.18107-0.00007,8.36213-0.0013,12.54319,0.00224
		c0.29674,0.00025,0.50402-0.08701,0.61755-0.38236c0.08008-0.20835,0.25186-0.36129,0.46655-0.43485
		c0.2983-0.10222,0.59-0.20976,0.85608-0.38488c0.08567-0.05638,0.12248-0.14148,0.19393-0.2031
		c0.42849-0.36952,0.72339-0.83892,1.00151-1.32218c0.38519-0.66931,0.70009-1.36839,0.92163-2.1072
		c0.04786-0.15962,0.06644-0.32789,0.09851-0.49217C30.31517,6.43651,30.32584,6.43649,30.33651,6.43646z"/>
	<path fill="#757575" d="M4.37681,1.30206c-0.74221,0-1.48441-0.00017-2.22662,0.00011
		C1.9102,1.30226,1.85455,1.35879,1.85429,1.60107C1.854,1.86944,1.85435,2.1378,1.85413,2.40616
		C1.85409,2.46861,1.8653,2.53581,1.79045,2.56975C1.74773,2.53854,1.70502,2.50733,1.6623,2.47612
		C1.63798,2.44699,1.61968,2.41403,1.61885,2.37615C1.6119,2.06017,1.58931,1.74302,1.63132,1.42885
		C1.66067,1.20932,1.76229,1.12205,1.9829,1.0786c0.06812-0.01342,0.13698-0.01669,0.20611-0.01676
		c0.65333-0.00066,1.30665-0.0007,1.95998,0.00024C4.22788,1.0622,4.30997,1.05391,4.37649,1.11209
		C4.3766,1.17542,4.3767,1.23874,4.37681,1.30206z"/>
	<path fill="#6F6F6F" d="M4.37649,1.11209C3.63975,1.11204,2.90301,1.11198,2.16626,1.11192
		c-0.0159,0-0.0318-0.00019-0.0477,0.00004c-0.325,0.00466-0.45244,0.12817-0.45533,0.44874
		C1.66049,1.8658,1.66243,2.17095,1.66231,2.4761C1.60916,2.46488,1.55601,2.45365,1.50287,2.44241
		C1.45612,2.39093,1.45593,2.32694,1.4557,2.26369C1.45477,2.00051,1.45376,1.73733,1.45627,1.47416
		C1.45672,1.42671,1.4623,1.37969,1.47031,1.33288C1.515,1.07172,1.56631,1.02095,1.8543,0.95399
		C1.97155,0.95369,2.0888,0.95338,2.20605,0.95306c0.39327-0.00014,0.78654-0.00028,1.1798-0.00043
		c0.27891,0.00033,0.55806,0.00745,0.83664-0.00199C4.35251,0.94624,4.39432,0.99313,4.37649,1.11209z"/>
	<path fill="#5C5D5F" d="M18.2028,2.79164c-0.02468,0.10321-0.10888,0.05539-0.16842,0.06172
		c-0.06731,0.00716-0.13602,0.00141-0.20412,0.00128c-0.11453-0.17561-0.22976-0.35078-0.34346-0.52692
		c-0.24351-0.37724-0.51112-0.47667-0.94168-0.34859c0.14675-0.33639,0.68643-0.42238,0.96379-0.17918
		c0.12891,0.11303,0.22769,0.24884,0.32007,0.38884C17.95919,2.38609,18.07871,2.59035,18.2028,2.79164z"/>
	<path fill="#5C5D5F" d="M13.79639,2.79164c-0.02472,0.10316-0.1089,0.05541-0.16845,0.06173
		c-0.06732,0.00714-0.13602,0.00141-0.20412,0.00127c-0.11453-0.17561-0.22976-0.35078-0.34346-0.52693
		c-0.24351-0.37723-0.51114-0.47668-0.94168-0.34859c0.14673-0.33638,0.68641-0.4224,0.9638-0.17918
		c0.12891,0.11303,0.22768,0.24885,0.32007,0.38884C13.55275,2.3861,13.67229,2.59035,13.79639,2.79164z"/>
	<path fill="#5C5D5F" d="M8.84716,1.99939C8.68759,1.99942,8.52803,1.99944,8.36847,1.99947
		c-0.06451-0.0195-0.12902-0.039-0.19353-0.05851c-0.105,0.01123-0.21007,0.01362-0.31525,0.00248
		c-0.04224,0.01171-0.08447,0.02341-0.1267,0.03513c0.03845-0.16656,0.18622-0.22121,0.31585-0.2748
		c0.2981-0.12324,0.63662-0.00297,0.81034,0.26966C8.86197,1.97782,8.85146,1.99055,8.84716,1.99939z"/>
	<path fill="#6B6B6B" d="M28.51645,10.42974c0.4972-0.57703,0.92006-1.2032,1.23962-1.89357
		c0.28566-0.61715,0.55964-1.24003,0.69217-1.91229c0.01206-0.06115,0.01093-0.12487,0.01592-0.18739
		c0.01067,0.01052,0.02134,0.02104,0.03201,0.03157c0.04547,0.24399-0.05006,0.46608-0.1237,0.68645
		c-0.35448,1.06078-0.83728,2.05877-1.52367,2.95039C28.75605,10.22538,28.68532,10.38077,28.51645,10.42974z"/>
	<path fill="#FEFEFE" d="M7.44626,2.31681C7.76523,2.20741,8.07766,2.313,8.27489,2.60873
		C8.72507,3.28369,9.16955,3.96238,9.61873,4.638c0.34119,0.5132,0.68635,1.02378,1.02909,1.53597
		c0.11132,0.16635,0.22143,0.33351,0.33011,0.50157c0.02902,0.04487,0.05492,0.09036,0.10874,0.10999
		c0.03808,0.06589-0.01312,0.11072-0.04263,0.1562c-0.69485,1.07067-1.37852,2.1484-2.06789,3.22252
		c-0.06533,0.1018-0.14254,0.19611-0.19486,0.30607c-0.03978,0.05424-0.07409,0.11372-0.1373,0.14637
		c-0.00877,0.01124-0.01754,0.02249-0.02631,0.03373c-0.27864,0.34631-0.57861,0.42952-0.93129,0.25326
		c-0.11033-0.05514-0.20221-0.13377-0.24949-0.25291c0.00172-0.02626,0.00838-0.05328,0.00444-0.07868
		c-0.0723-0.46584,0.10178-0.84561,0.36059-1.22858c0.61432-0.90902,1.19135-1.84283,1.78775-2.76387
		c0.06071-0.09375,0.0621-0.15988,0.00081-0.25466c-0.69898-1.08086-1.39312-2.1648-2.08902-3.24763
		c-0.03783-0.05886-0.06283-0.11796-0.0607-0.19123C7.44624,2.69647,7.44489,2.5066,7.44626,2.31681z"/>
	<path fill="#6A6A6A" d="M1.8543,0.95399C1.53826,1.03585,1.49844,1.27671,1.50208,1.54757
		c0.00401,0.29824,0.00084,0.59657,0.00079,0.89485c-0.0426-0.00038-0.0852-0.00076-0.1278-0.00116
		C1.37514,2.08864,1.3752,1.73603,1.37527,1.38342c0-0.02631-0.0004-0.05264,0.00007-0.07894
		c0.00497-0.27585,0.08041-0.3511,0.35171-0.35095C1.76947,0.95355,1.81189,0.95383,1.8543,0.95399z"/>
	<path fill="#6B6B6B" d="M26.88798,11.57066c0.07624-0.24513,0.25281-0.40629,0.48296-0.48729
		c0.3805-0.13393,0.74306-0.29206,1.04972-0.55858c-0.00948,0.08919-0.07933,0.13594-0.14258,0.17848
		c-0.23015,0.15477-0.45538,0.31488-0.73857,0.37505c-0.30044,0.06384-0.50308,0.26503-0.65153,0.52409
		C26.88798,11.59181,26.88798,11.58123,26.88798,11.57066z"/>
	<path fill="#636465" d="M24.30602,6.78553c0.07622-0.05515,0.04999-0.15348,0.09491-0.22182
		c0.05145-0.02851,0.10234-0.05481,0.1248,0.03114c-0.13641,0.27295-0.31849,0.51827-0.48114,0.77507
		c-0.58541,0.92429-1.17871,1.84366-1.76697,2.76618c-0.06513,0.10214-0.16463,0.17903-0.21147,0.29352
		c-0.03133,0.01244-0.03302,0.11674-0.09616,0.03056c0.2924-0.46146,0.58323-0.9239,0.87757-1.38414
		c0.46229-0.72285,0.92708-1.44413,1.39024-2.16644C24.26322,6.86995,24.2834,6.82697,24.30602,6.78553z"/>
	<path fill="#636465" d="M19.89957,6.78554c0.07622-0.05515,0.04999-0.15348,0.09491-0.22182
		c0.05145-0.02851,0.10234-0.05481,0.1248,0.03114c-0.13641,0.27295-0.31849,0.51827-0.48114,0.77507
		c-0.58541,0.92429-1.17871,1.84366-1.76697,2.76618c-0.06513,0.10214-0.16463,0.17903-0.21147,0.29352
		c-0.03133,0.01244-0.03302,0.11674-0.09616,0.03056c0.2924-0.46146,0.58323-0.9239,0.87757-1.38414
		c0.46229-0.72285,0.92708-1.44413,1.39023-2.16644C19.85677,6.86995,19.87695,6.82697,19.89957,6.78554z"/>
	<path fill="#636465" d="M15.49312,6.78553c0.07622-0.05515,0.04999-0.15348,0.09491-0.22182
		c0.05146-0.02852,0.10235-0.05479,0.12482,0.03114c-0.13644,0.27294-0.3185,0.51826-0.48116,0.77507
		c-0.58542,0.92429-1.17872,1.84366-1.76697,2.76618c-0.06513,0.10214-0.16464,0.17903-0.21147,0.29352
		c-0.03133,0.01243-0.03302,0.11675-0.09615,0.03055c0.2924-0.46146,0.58324-0.9239,0.87757-1.38414
		c0.46229-0.72285,0.92708-1.44413,1.39023-2.16644C15.45032,6.86995,15.4705,6.82697,15.49312,6.78553z"/>
	<path fill="#727373" d="M24.62024,6.46784c0.04262-0.17947,0.04142-0.35899,0.00057-0.53855
		c0.04954,0.0605,0.0584,0.14374,0.1584,0.17799c0.0624,0.02137,0.06064,0.16539,0.00104,0.18198
		C24.67311,6.3191,24.68985,6.42587,24.62024,6.46784z"/>
	<path fill="#727373" d="M20.21379,6.46784c0.04263-0.17947,0.04142-0.35899,0.00058-0.53854
		c0.04954,0.0605,0.05839,0.14374,0.1584,0.17799c0.0624,0.02137,0.06063,0.16539,0.00104,0.18198
		C20.26665,6.31909,20.28341,6.42588,20.21379,6.46784z"/>
	<path fill="#727373" d="M15.80734,6.46784c0.0426-0.17947,0.04142-0.35899,0.00056-0.53854
		c0.04956,0.06049,0.05839,0.14375,0.1584,0.17799c0.0624,0.02137,0.06063,0.16539,0.00105,0.18198
		C15.86021,6.31909,15.87696,6.42588,15.80734,6.46784z"/>
	<path fill="#7A6265" d="M24.52572,6.59486c-0.03273-0.04541-0.08143-0.02778-0.1248-0.03115
		c0.00011-0.07437,0.00021-0.14875,0.00032-0.22313c0.16725-0.02907,0.16362,0.07937,0.15602,0.191
		C24.55658,6.5575,24.55105,6.58104,24.52572,6.59486z"/>
	<path fill="#7A6265" d="M15.71284,6.59486c-0.03274-0.0454-0.08143-0.02779-0.12482-0.03115
		c0.00011-0.07437,0.00022-0.14875,0.00033-0.22313c0.16724-0.02907,0.16361,0.07937,0.15601,0.191
		C15.74368,6.5575,15.73816,6.58103,15.71284,6.59486z"/>
	<path fill="#7A6265" d="M20.11927,6.59486c-0.03273-0.04541-0.08143-0.02778-0.1248-0.03115
		c0.00011-0.07437,0.00022-0.14875,0.00033-0.22313c0.16725-0.02907,0.16361,0.07937,0.15601,0.191
		C20.15013,6.5575,20.1446,6.58104,20.11927,6.59486z"/>
	<path fill="#6F6B6C" d="M13.15709,10.46019c0.04826,0.04008,0.06066-0.03105,0.09616-0.03055
		c-0.03116,0.1013-0.08921,0.17386-0.20286,0.187C13.07148,10.55477,13.11371,10.50709,13.15709,10.46019z"/>
	<path fill="#6F6B6C" d="M17.56353,10.46019c0.04826,0.04007,0.06067-0.03105,0.09616-0.03056
		c-0.03116,0.1013-0.08921,0.17385-0.20286,0.18701C17.47793,10.55477,17.52016,10.5071,17.56353,10.46019z"/>
	<path fill="#6F6B6C" d="M21.96998,10.46019c0.04826,0.04007,0.06067-0.03105,0.09616-0.03056
		c-0.03116,0.1013-0.08921,0.17385-0.20286,0.18701C21.88438,10.55477,21.92661,10.5071,21.96998,10.46019z"/>
	<path fill="#666666" d="M23.40798,4.05923c-0.06504-0.03305-0.08511-0.09301-0.09619-0.15835
		C23.37583,3.93453,23.39625,3.99428,23.40798,4.05923z"/>
	<path fill="#636465" d="M8.75068,10.46026c0.29238-0.46147,0.58318-0.92394,0.87751-1.38418
		c0.46229-0.72287,0.92709-1.44415,1.39025-2.16646c0.02543-0.03966,0.0456-0.08264,0.06822-0.12408
		c0.07622-0.05515,0.05-0.15347,0.0949-0.22182c0.05146-0.02853,0.10235-0.05478,0.12483,0.03114
		c-0.13645,0.27293-0.31851,0.51826-0.48116,0.77507c-0.58542,0.9243-1.17873,1.84367-1.76698,2.76621
		c-0.06513,0.10215-0.16463,0.17903-0.21151,0.29351C8.81546,10.44215,8.81383,10.54625,8.75068,10.46026z"/>
	<path fill="#727373" d="M11.40089,6.46784c0.04261-0.17947,0.04142-0.35899,0.00057-0.53854
		c0.04956,0.06049,0.05839,0.14375,0.15841,0.17799c0.0624,0.02137,0.06064,0.16539,0.00104,0.18198
		C11.45376,6.31909,11.47051,6.42588,11.40089,6.46784z"/>
	<path fill="#7A6265" d="M11.3064,6.59485c-0.03274-0.0454-0.08144-0.02779-0.12483-0.03114
		c0.00011-0.07437,0.00022-0.14875,0.00033-0.22314c0.16724-0.02906,0.16362,0.07937,0.15602,0.19101
		C11.33724,6.55749,11.33171,6.58103,11.3064,6.59485z"/>
	<path fill="#6E6A6C" d="M8.75068,10.46026c0.04823,0.0399,0.06059-0.03109,0.09606-0.03062
		c-0.03109,0.10132-0.08925,0.17373-0.20275,0.18706C8.65403,10.54741,8.7151,10.5124,8.75068,10.46026z"/>
	<path fill="#DDE6E8" d="M7.85969,1.94344C7.9646,1.92072,8.06965,1.91494,8.17494,1.94096
		C8.0702,1.98506,7.96508,1.98133,7.85969,1.94344z"/>
</g>
</svg>
