<?xml version="1.0" encoding="utf-8"?>
<!-- Generator: Adobe Illustrator 23.0.0, SVG Export Plug-In . SVG Version: 6.00 Build 0)  -->
<svg version="1.1" id="Слой_1" xmlns="http://www.w3.org/2000/svg" xmlns:xlink="http://www.w3.org/1999/xlink" x="0px" y="0px" width="32px" height="13px"
	 viewBox="0 0 32 13" enable-background="new 0 0 32 13" xml:space="preserve">
<g>
	<path fill="#55718A" d="M0.00225,12.23626c0-2.21853,0-4.43706,0-6.65559c0.01796-0.01273,0.03751-0.01592,0.0587-0.00959
		c0.01719,0.01269,0.02963,0.02894,0.0376,0.04866c0.02848,0.09291,0.01857,0.18858,0.0186,0.28318
		c0.00063,1.96907,0.00068,3.93815-0.00001,5.90722c-0.00005,0.14318,0.00694,0.28455,0.04746,0.42321
		c0.08766,0.29992,0.29026,0.4835,0.58561,0.5732c0.14958,0.04543,0.30414,0.04441,0.45869,0.04441
		c5.20157-0.00031,10.40314-0.00042,15.60472,0.00076c0.10982,0.00002,0.22446-0.02309,0.3275,0.03955
		c0.02446,0.02752,0.02726,0.05547,0.00152,0.08389c-0.05814,0.01013-0.11681,0.00516-0.17521,0.00517
		c-5.37945,0.00025-10.75889,0.00026-16.13795,0.00026c-0.41395-0.00269-0.73975-0.27844-0.80967-0.68639
		C0.01632,12.27382,0.01794,12.25269,0.00225,12.23626z"/>
	<path fill="#224053" d="M27.59046,0.00265c0.32386,0.10065,0.64818,0.20024,0.93011,0.39753
		c0.09598,0.08981,0.21694,0.14656,0.31492,0.23302c0.04213,0.03717,0.10724,0.09228-0.02023,0.10374
		c-0.14833-0.0627-0.26842-0.17015-0.40653-0.24946c-0.42814-0.24584-0.8798-0.37452-1.38161-0.37416
		c-7.23145,0.00526-14.4629,0.00359-21.69435,0.00364c-0.11701,0-0.23431-0.00442-0.34988,0.01979
		C4.93533,0.14771,4.90621,0.12901,4.89473,0.08234c-0.00418-0.03031,0.00569-0.05643,0.02486-0.0797
		C12.47655,0.00265,20.0335,0.00265,27.59046,0.00265z"/>
	<path fill="#40586D" d="M17.14971,12.96473c-0.00078-0.02081-0.00155-0.04162-0.00233-0.06244
		c0.00674-0.00644,0.01348-0.01289,0.02015-0.01944c0.09111-0.04219,0.18836-0.02634,0.28307-0.02636
		c3.13256-0.00086,6.26513-0.00517,9.39768,0.0021c0.90301,0.0021,1.65092-0.32767,2.29342-0.94147
		c0.89009-0.85031,1.50346-1.8799,1.99246-2.99133c0.3029-0.68844,0.55177-1.39433,0.67312-2.13991
		c0.01756-0.10793-0.00974-0.22395,0.05476-0.3241c0.04656-0.03162,0.09141-0.02704,0.13486,0.00628c0,0.02113,0,0.04226,0,0.06339
		c-0.01669,0.01775-0.02211,0.04057-0.02861,0.06296c-0.03206,0.40668-0.13439,0.79955-0.25624,1.18591
		c-0.37039,1.17436-0.89765,2.27344-1.62598,3.27347c-0.17399,0.2389-0.36881,0.46122-0.55347,0.69205
		c-0.34115,0.35837-0.7181,0.67472-1.15445,0.91021c-0.37137,0.20042-0.77016,0.32469-1.20012,0.32465
		c-3.32413-0.00035-6.64826,0.00011-9.97239-0.00028C17.18511,12.98181,17.16647,12.97658,17.14971,12.96473z"/>
	<path fill="#3B556C" d="M4.91959,0.00265C4.9194,0.0236,4.91921,0.04454,4.91901,0.06549
		c-0.08219,0.06849-0.1816,0.04975-0.27546,0.04985C3.43681,0.11662,2.23007,0.11683,1.02332,0.11547
		C0.80403,0.11522,0.60156,0.15544,0.42999,0.3024C0.23077,0.47302,0.14783,0.69055,0.14818,0.94762
		c0.00105,0.78092,0.00046,1.56184,0.00036,2.34277C0.14844,3.96578,0.14898,4.64117,0.14797,5.31657
		C0.14784,5.40023,0.15886,5.48612,0.11751,5.56525C0.10465,5.58511,0.08711,5.59067,0.065,5.58204
		c-0.01024-0.00052-0.02048-0.0012-0.0307-0.00203C0.00469,5.52527,0.01947,5.46609,0.01944,5.40921
		C0.01852,3.86955,0.01868,2.32989,0.01868,0.7906c0.00296-0.40397,0.23859-0.68793,0.65411-0.78795
		C2.08839,0.00265,3.50399,0.00265,4.91959,0.00265z"/>
	<path fill="#264356" d="M31.99691,6.46808c-0.04213,0.00037-0.08426,0.00074-0.12639,0.00111
		c-0.04101,0.02632-0.07783,0.03098-0.10398-0.0197c0.0946-0.13424,0.06846-0.28203,0.04318-0.42707
		c-0.11863-0.68057-0.3442-1.32775-0.62241-1.95879c-0.32323-0.73315-0.71682-1.4271-1.1876-2.07594
		c-0.29251-0.40316-0.61979-0.77837-1.00661-1.09825c-0.05239-0.04333-0.11103-0.08405-0.12534-0.15815
		c-0.02511-0.11014-0.13667-0.13154-0.20482-0.19748c-0.0468-0.04528-0.1297-0.05282-0.14237-0.13363
		c0.48604,0.27853,0.88571,0.65841,1.23725,1.08412c1.04977,1.27127,1.76887,2.70872,2.15862,4.30761
		c0.02662,0.10919,0.01725,0.22728,0.08046,0.32753C31.99691,6.23566,31.99691,6.35187,31.99691,6.46808z"/>
	<path fill="#697682" d="M17.14971,12.96473c0.01015,0.00041,0.02031,0.0008,0.03047,0.00115
		c0.00887,0.00666,0.01194,0.01347,0.00924,0.02044c-0.00273,0.00704-0.00552,0.01056-0.0084,0.01056
		c-5.47081,0-10.94162,0-16.41243,0c-0.00746-0.0057-0.01058-0.01202-0.00936-0.01895
		c0.00127-0.00724,0.00297-0.01085,0.00509-0.01085c0.36162-0.00063,0.72324-0.00179,1.08487-0.00181
		C6.94936,12.96501,12.04954,12.96489,17.14971,12.96473z"/>
	<path fill="#535F69" d="M17.18102,12.99689c-0.00003-0.01035-0.00031-0.02069-0.00083-0.03101
		c3.2775-0.00022,6.55502-0.00246,9.83252,0.00137c0.52312,0.00061,1.00592-0.12008,1.45299-0.38788
		c0.40208-0.24085,0.76403-0.52929,1.07253-0.88202c0.01667-0.01328,0.03168-0.01163,0.04502,0.00495
		c-0.56603,0.62973-1.21441,1.12673-2.08086,1.27287c-0.01405,0.00237-0.02647,0.01427-0.03965,0.02172
		C24.0355,12.99689,20.60826,12.99689,17.18102,12.99689z"/>
	<path fill="#445B6E" d="M29.58325,11.7023c-0.01501-0.00165-0.03001-0.0033-0.04502-0.00495
		c0.58495-0.67699,1.07791-1.41443,1.46782-2.21809c0.38671-0.79707,0.705-1.61876,0.88559-2.48857
		c0.02944-0.14181,0.01912-0.2901,0.07314-0.42758c0.02255,0.01523,0.01037,0.0478,0.03214,0.06343c0,0.05282,0,0.10564,0,0.15847
		c-0.09524,0.24971-0.11541,0.51743-0.19083,0.77246c-0.42271,1.42939-1.06171,2.74858-2.00945,3.91168
		C29.73021,11.55065,29.65459,11.62476,29.58325,11.7023z"/>
	<path fill="#40596F" d="M0.00225,0.73159c0.01041,0.00062,0.02033-0.00127,0.02977-0.00567
		C0.03278,2.34396,0.03354,3.96199,0.0343,5.58002C0.02361,5.58023,0.01293,5.58045,0.00225,5.58067
		C0.00225,3.96431,0.00225,2.34795,0.00225,0.73159z"/>
	<path fill="#767F87" d="M31.99691,6.62654c-0.02834-0.01234-0.03056-0.03772-0.03214-0.06342
		c0.01071-0.01055,0.02143-0.0211,0.03214-0.03166C31.99691,6.56316,31.99691,6.59485,31.99691,6.62654z"/>
	<path fill="#44637F" d="M0.065,5.58204c0.01108-0.00053,0.02217-0.00106,0.03325-0.00158
		c0.20078-0.00713,0.37317,0.14605,0.41981,0.37439c0.01918,0.09388,0.01422,0.18933,0.01423,0.28428
		c0.00023,1.83743,0.00013,3.67487,0.00024,5.5123c0,0.0739-0.00312,0.14799,0.0047,0.22161
		c0.02509,0.23633,0.21905,0.43165,0.45697,0.4597c0.09,0.01061,0.18068,0.00607,0.27107,0.00607
		c5.06421,0.00015,10.12843,0.0001,15.19265,0.00034c0.10625,0.00001,0.2132-0.00696,0.31823,0.01487
		c0.24135,0.05016,0.40569,0.2473,0.37457,0.44729c0,0-0.00328,0.00098-0.0033,0.00098
		C11.78515,12.9021,6.42292,12.9018,1.06068,12.90197c-0.3438,0.00001-0.63502-0.11457-0.8338-0.39993
		c-0.11955-0.17161-0.16114-0.37379-0.16111-0.58389C0.06608,9.80612,0.0654,7.69408,0.065,5.58204z"/>
	<path fill="#2D4961" d="M17.15071,12.90131c-0.09489-0.31029-0.23031-0.41146-0.55219-0.41147
		c-5.16477-0.00008-10.32954-0.00299-15.49429,0.00654c-0.33505,0.00062-0.63228-0.29437-0.62989-0.62139
		c0.01396-1.91106,0.00686-3.82227,0.00683-5.73344c-0.00001-0.32156-0.07917-0.43742-0.38294-0.5611
		C0.09817,4.02238,0.09779,2.4643,0.09819,0.90622c0.00012-0.47818,0.36436-0.83981,0.8459-0.84005
		c1.32498-0.00066,2.64996-0.0005,3.97493-0.00068c0.00131,0.02604,0.00665,0.05009,0.03223,0.06412
		c0.04718,0.01833,0.07453,0.0584,0.10457,0.09509c0.09342,0.11413,0.21542,0.16802,0.36191,0.17205
		C5.49755,0.39895,5.57737,0.3983,5.65719,0.3983c7.02476,0.00005,14.04954,0.00482,21.07427-0.00904
		c0.55959-0.0011,1.03779,0.15816,1.51309,0.41069c0.69687,0.37025,1.19595,0.9361,1.64209,1.56422
		c0.43947,0.61874,0.72292,1.31471,1.03162,1.9985c0.20493,0.45392,0.37786,0.92019,0.48082,1.40819
		c0.05556,0.26332,0.19675,0.47313,0.37416,0.66587c0.02349,0.03718,0.06204,0.02988,0.09727,0.03244
		c0.01047,0.39972-0.09508,0.78104-0.2064,1.15764c-0.26049,0.88128-0.62953,1.71888-1.08921,2.51546
		c-0.26581,0.46062-0.56644,0.89803-0.91937,1.30019c-0.27618,0.31471-0.56461,0.61548-0.90504,0.86037
		c-0.44413,0.31948-0.92633,0.53758-1.48892,0.57471c-0.26537,0.01752-0.52957,0.02252-0.79411,0.0227
		C23.36187,12.90233,20.25629,12.90143,17.15071,12.90131z"/>
	<path fill="#123247" d="M31.77324,6.43674c-0.26312-0.1191-0.35271-0.36259-0.40735-0.60972
		c-0.16984-0.76821-0.50239-1.47338-0.82302-2.18464c-0.25038-0.55542-0.56479-1.06906-0.92452-1.56276
		c-0.57652-0.79122-1.34566-1.29998-2.2594-1.61679c-0.06256-0.02169-0.13628-0.01587-0.2048-0.01588
		C19.9227,0.44633,12.69125,0.44611,5.4598,0.44748C5.21793,0.44753,5.03774,0.36653,4.95125,0.12961
		c0.00577-0.04409,0.03165-0.06375,0.07578-0.06324C5.07492,0.06693,5.12281,0.06602,5.1707,0.06602
		c7.31127-0.00002,14.62255,0.0016,21.93382-0.00302c0.60312-0.00038,1.11278,0.22552,1.59488,0.54996
		c0.05691,0.0383,0.11229,0.07884,0.16838,0.11834c0.65288,0.51284,1.15169,1.15698,1.58487,1.85349
		c0.47792,0.76845,0.86948,1.57963,1.14829,2.44023c0.13395,0.41346,0.26266,0.83117,0.26823,1.27268
		C31.87001,6.36564,31.88414,6.44409,31.77324,6.43674z"/>
	<path fill="#3B556B" d="M27.81408,11.9194c-0.18306,0.1648-0.41986,0.15144-0.64096,0.18915
		c-0.03618,0.00617-0.07434,0.00089-0.11159,0.00089c-8.62529,0-17.25058,0-25.87587,0c-0.29593,0-0.32125-0.02461-0.32125-0.31255
		C0.8644,8.23724,0.86439,4.67758,0.86442,1.11792c0-0.25607,0.03558-0.29121,0.29484-0.29121
		C9.80584,0.8267,18.45242,0.82635,27.09899,0.82833c0.27732,0.00006,0.54354,0.06248,0.77903,0.22011
		c-0.06151,0.04943-0.12168,0.0177-0.18011-0.00536c-0.21048-0.0831-0.42745-0.11036-0.65455-0.11029
		C18.46324,0.93532,9.88312,0.93496,1.303,0.93483C0.94713,0.93482,0.97348,0.91762,0.97347,1.2606
		C0.97343,2.90789,0.97332,4.55519,0.97378,6.20248C0.9738,6.29181,0.96472,6.38223,0.99533,6.4693
		C1.00664,6.52671,1.00505,6.5849,1.00507,6.64289c0.00042,1.24546,0.00043,2.49092,0,3.73638
		c-0.00002,0.058,0.00133,0.11617-0.00914,0.17369c-0.04437,0.17191-0.01786,0.34697-0.02126,0.52046
		c-0.00476,0.24284-0.0024,0.48585-0.00074,0.72877c0.00121,0.17777,0.02067,0.19551,0.20512,0.19874
		c0.05851,0.00103,0.11705,0.0003,0.17558,0.0003c8.57169,0,17.14338-0.0002,25.71507,0.00124
		c0.20387,0.00003,0.40341-0.00832,0.59402-0.0891C27.71287,11.89252,27.76564,11.87794,27.81408,11.9194z"/>
	<path fill="#3C566C" d="M0.95992,6.46823c-0.05187-0.047-0.03076-0.10902-0.03079-0.16452
		C0.92804,4.56613,0.92816,2.82854,0.92834,1.09095c0.00002-0.20029,0.00068-0.20082,0.20711-0.20082
		c8.69452-0.00009,17.38905,0.00008,26.08356-0.00119c0.18032-0.00003,0.34308,0.05985,0.50755,0.11799
		c0.04982,0.01761,0.09531,0.04761,0.15145,0.04151c0.28976,0.11572,0.53009,0.30673,0.75373,0.51429
		c0.61454,0.57034,1.06117,1.26535,1.4648,1.98972c0.41515,0.74506,0.71606,1.53513,0.93119,2.35828
		c0.10378,0.39709,0.05576,0.78755-0.04341,1.17835c-0.18073,0.71222-0.45151,1.39194-0.77121,2.05087
		c-0.16418,0.33837-0.33995,0.67565-0.57885,0.97291c-0.03704,0.09459-0.10953,0.16715-0.15989,0.25346
		c-0.01063,0.01058-0.02126,0.02115-0.03188,0.03173c-0.04259,0.0634-0.07897,0.13091-0.12777,0.1902l0.00008-0.00003
		c-0.28934,0.38288-0.62215,0.7249-0.99305,1.02989c-0.09693,0.07971-0.20723,0.14275-0.31619,0.20614
		c-0.02121,0.0106-0.04242,0.02121-0.06363,0.03181c-0.03605,0.03424-0.08711,0.03862-0.12793,0.06338
		c0,0,0.00008-0.00003,0.00008-0.00003c-0.51116,0.20746-1.04791,0.12318-1.57399,0.12347
		c-8.35214,0.00458-16.70429,0.00322-25.05643,0.00322c-0.25537,0-0.2554-0.00004-0.25542-0.24799
		c-0.00003-0.35906-0.00092-0.71812,0.00095-1.07717c0.00029-0.05549-0.02125-0.11749,0.03077-0.16442
		c0.06987,0.07021,0.02474,0.16882,0.06254,0.24704c0.01384,0.05268,0.02872,0.10522,0.02096,0.16064
		c-0.00596,0.27806,0.00195,0.55615-0.0037,0.83407c-0.00243,0.11969,0.04216,0.17152,0.16583,0.16863
		c0.3011-0.00703,0.60248,0.00716,0.90363-0.00898c0.2533,0.00902,0.50654,0.01857,0.75989-0.00181
		c0.14357,0.006,0.28709,0.0067,0.43065,0.00669c3.36029-0.00021,6.72059-0.00011,10.08088-0.00023
		c0.0638,0,0.12761-0.00113,0.1912,0.00545c2.63155,0.00372,5.2631,0.00153,7.89465,0.00107
		c1.73306-0.0003,3.46614,0.00544,5.19875-0.00409c0.36721,0.01952,0.7333,0.03425,1.08121-0.12461
		c0.27398-0.1251,0.51294-0.29949,0.73425-0.49887c0.58233-0.52463,1.01997-1.15845,1.39813-1.83657
		c0.29946-0.53698,0.55261-1.09435,0.74893-1.6767c0.08523-0.23109,0.15413-0.46686,0.20586-0.70763
		c0.06873-0.15997,0.08442-0.33168,0.11252-0.50066c0.03758-0.21919,0.01769-0.43398-0.049-0.64525
		c-0.04053-0.26759-0.1315-0.5212-0.21918-0.77599c-0.46224-1.30514-1.10455-2.50416-2.09891-3.4929
		c-0.29625-0.29457-0.63875-0.52476-1.04403-0.65123c-0.14906-0.04651-0.30249-0.05291-0.45764-0.0529
		C19.57585,1.00242,12.0743,1.00231,4.57275,1.00227c-0.06386,0-0.12778,0.00218-0.19154-0.00268
		c-0.31244,0.00615-0.62501-0.00259-0.9375,0.00718C3.41393,1.00501,3.38619,0.99575,3.35916,0.98417
		C2.9756,0.95462,2.59212,0.95331,2.2087,0.98603C2.12145,1.00384,2.03319,1.0024,1.94486,1.00015
		C1.79764,0.99106,1.65038,1.00528,1.50321,0.99968c-0.09487,0.00567-0.1902,0.00687-0.28478,0.00158
		c-0.12841-0.00718-0.18056,0.0445-0.1783,0.17358C1.0447,1.43667,1.04202,1.69865,1.04112,1.96057
		C1.0409,2.02343,1.04057,2.08634,1.02819,2.14844c-0.0551,0.30281-0.0035,0.60893-0.02911,0.91258
		c-0.00272,0.0323,0.04593,0.00799,0.04286,0.03983c0.0064,0.34265,0.00004,0.68512,0.00079,1.02759
		C1.04422,4.80342,1.04349,5.4784,1.0428,6.15338c-0.00009,0.08406,0.00728,0.169-0.01813,0.25151
		C1.01295,6.43592,0.99311,6.45884,0.95992,6.46823z"/>
	<path fill="#3B556B" d="M28.00556,11.82424c0.33332-0.23921,0.64181-0.50603,0.92367-0.804
		c0.13285-0.14045,0.22966-0.31223,0.38557-0.43203c-0.03479,0.15408-0.16523,0.24127-0.25995,0.34989
		c-0.28427,0.32599-0.59215,0.62914-0.95792,0.86737C28.07275,11.82123,28.0363,11.81842,28.00556,11.82424z"/>
	<path fill="#3B556B" d="M29.47438,10.36631c0.01202-0.11014,0.09805-0.17428,0.15988-0.25346
		C29.62518,10.22482,29.56455,10.30474,29.47438,10.36631z"/>
	<path fill="#3B556B" d="M29.31472,10.58824c0.02043-0.07807,0.06009-0.1434,0.12777-0.1902
		C29.42948,10.48102,29.39131,10.54735,29.31472,10.58824z"/>
	<path fill="#3B556B" d="M27.814,11.91943c0.03246-0.04138,0.07712-0.05849,0.12793-0.06338
		C27.91753,11.91345,27.86875,11.92239,27.814,11.91943z"/>
	<path fill="#43505B" d="M0.99235,10.81017c-0.06444-0.07781-0.01785-0.16958-0.03238-0.25366
		C0.95996,9.19375,0.95994,7.83099,0.95993,6.46823c0.00809-0.0106,0.01619-0.02121,0.02428-0.03182
		C1.06657,6.51179,1.0424,6.61218,1.04258,6.7037C1.04456,7.68273,1.044,8.66178,1.04349,9.64082
		c-0.00006,0.1211,0.00357,0.24204,0.00778,0.363c-0.0264,0.19885-0.00001,0.39862-0.0097,0.59776
		C1.03805,10.67388,1.05098,10.75049,0.99235,10.81017z"/>
	<path fill="#5E898C" d="M4.37642,0.95486c0.07447-0.00074,0.14895-0.00214,0.22342-0.00214
		c7.47026-0.0001,14.94052,0.00242,22.41078-0.00543c0.52883-0.00056,0.95952,0.19082,1.35226,0.50549
		c0.68559,0.54932,1.16312,1.26432,1.59231,2.01369c0.28109,0.49077,0.51483,1.00471,0.71084,1.53506
		c0.02728,0.07381,0.06425,0.14572,0.05153,0.22852c-0.02269,0.11339-0.05547,0.2244-0.07991,0.33742
		c-0.1219,0.56376-0.62929,0.76441-1.05839,0.83599c-0.02607,0.00435-0.05237-0.00524-0.07661-0.01712
		c-0.04319-0.03273-0.09372-0.04913-0.14488-0.06383c-0.40892-0.11757-0.75019-0.34142-1.04568-0.64277
		c-0.34637-0.35323-0.72501-0.66636-1.16048-0.90963c-0.38962-0.21766-0.81627-0.32938-1.24117-0.44791
		c-0.77014-0.21484-1.55413-0.35614-2.34998-0.4342c-0.06903-0.00677-0.13814-0.00618-0.20727-0.00621
		c-0.61714-0.00021-1.2343,0.0028-1.85142-0.00122c-0.36809-0.00239-0.65934-0.14729-0.83774-0.4799
		c-0.19675-0.36682-0.54268-0.4599-0.91686-0.46547c-0.84575-0.0126-1.69176-0.00456-2.53766-0.00333
		c-0.13926,0.0002-0.14561,0.01533-0.09349,0.15052c0.04573,0.11861,0.10635,0.23032,0.16186,0.34442
		c0.02978,0.0612,0.0693,0.12047,0.05257,0.19415c-0.08113,0.07434-0.0971-0.01643-0.11778-0.0542
		c-0.11175-0.20407-0.21949-0.41066-0.29673-0.63072c-0.07011-0.19975-0.15715-0.39189-0.2539-0.58
		c-0.04459-0.0867-0.10369-0.15935-0.1951-0.20095c-0.18756-0.07789-0.36457-0.08435-0.52549,0.06977
		c0.08273,0.05638,0.23104-0.02778,0.24834,0.13179c-0.03314,0.02294-0.06953,0.01722-0.10644,0.01427
		C15.79362,2.34779,15.6481,2.43425,15.526,2.70111c-0.04322,0.09445-0.0747,0.19896-0.19776,0.2247
		c-0.40427,0.0206-0.8086,0.00694-1.2128,0.00881c-0.56927,0.00263-1.13858-0.00204-1.70784,0.00166
		c-0.34236,0.00222-0.62099-0.1187-0.83273-0.38853c-0.04895-0.06239-0.10263-0.12127-0.15342-0.18236
		c-0.16202-0.19486-0.36276-0.2893-0.62507-0.28856C8.97151,2.082,7.14661,2.07933,5.32171,2.08009
		c-0.15554,0.00006-0.3069-0.01216-0.45369-0.07066C4.56632,1.88918,4.3999,1.65703,4.30786,1.36012
		C4.29944,1.30496,4.29807,1.2494,4.30143,1.19376C4.3021,1.15876,4.3029,1.12364,4.30984,1.0891
		C4.31955,1.03836,4.33911,0.99224,4.37642,0.95486z"/>
	<path fill="#8AABB6" d="M1.01704,10.02057C0.97366,9.86541,0.99168,9.7064,0.9913,9.54928
		C0.98893,8.57476,0.99021,7.60024,0.98985,6.62572c-0.00002-0.0631-0.00365-0.1262-0.00562-0.18931
		c0.00219-1.03183,0.00498-2.06366,0.0056-3.09548c0.00005-0.09003,0.0072-0.17766,0.03113-0.26415
		C1.0123,3.06297,1.00907,3.0481,1.01186,3.03197c0.10937-0.23972,0.23185-0.46787,0.50786-0.55902
		c0.11989-0.01148,0.20582,0.0515,0.28592,0.12786C1.97119,2.74155,2.00031,2.9287,2.0001,3.13165
		C1.99834,4.85354,1.99905,6.57544,1.99903,8.29733c0,0.20835,0.01971,0.41348,0.134,0.59492
		c0.19559,0.3105,0.49008,0.44093,0.84969,0.44226c0.55875,0.00207,1.11751-0.00013,1.67626,0.00087
		c0.46445,0.00084,0.67823,0.17023,0.79362,0.6164c0.09049,0.34989,0.32467,0.55925,0.67144,0.65036
		c0.12457,0.03273,0.25257,0.03278,0.38058,0.03275c2.08602-0.00041,4.17203-0.00031,6.25805-0.00024
		c0.07449,0,0.14909-0.00232,0.22343,0.0032c0.34442,0.02559,0.60566,0.28252,0.63198,0.62426
		c0.00811,0.10526,0.00627,0.2111,0.00077,0.31655c-0.00093,0.05455,0.00182,0.10931-0.0023,0.16386
		c-0.00055,0.03449,0.00089,0.06912-0.00146,0.10361c-0.00047,0.03372-0.0006,0.06754-0.00686,0.10093
		c-0.00537,0.02545-0.01883,0.04633-0.03742,0.06426c-0.05844,0.00115-0.11687,0.0033-0.17531,0.0033
		c-3.43945,0.00016-6.8789,0.00013-10.31835,0.00019c-0.07937,0-0.15964,0.00748-0.23387-0.03073
		c-0.13663-0.00431-0.21979-0.09852-0.29806-0.18835c-0.16112-0.18493-0.24309-0.40372-0.25387-0.64924
		c-0.0103-0.2345-0.06067-0.29309-0.29537-0.29329c-0.49393-0.00043-0.74231-0.32489-0.95768-0.69605
		C1.01617,10.11902,1.00018,10.0697,1.01704,10.02057z"/>
	<path fill="#628B8E" d="M30.65797,7.82908c-0.06211,0.30755-0.20457,0.58604-0.32999,0.86921
		c-0.31272,0.70604-0.69428,1.37443-1.17425,1.98267c-0.33514,0.42469-0.71457,0.80598-1.18143,1.09265
		c-0.38468,0.23621-0.80886,0.26476-1.24414,0.23862c-0.0351-0.04268-0.01209-0.08321,0.01309-0.11523
		c0.09247-0.11754,0.15381-0.25211,0.22301-0.38269c0.09691-0.18288,0.25443-0.31415,0.44754-0.35905
		c0.65019-0.1512,1.08455-0.58662,1.46959-1.07978C29.2959,9.5446,29.63686,8.968,29.89843,8.34515
		c0.13298-0.31665,0.26703-0.63232,0.38067-0.95635c0.02295-0.06544,0.04773-0.13147,0.13218-0.14162
		C30.57996,7.34145,30.68752,7.59533,30.65797,7.82908z"/>
	<path fill="#649093" d="M30.40255,7.25522c-0.1306,0.14845-0.14573,0.34599-0.21943,0.51852
		c-0.16119,0.37735-0.30003,0.76486-0.49804,1.12535c-0.37119,0.67576-0.78189,1.3235-1.36927,1.84245
		c-0.22737,0.20089-0.48975,0.33052-0.77957,0.40993c-0.2943,0.08064-0.51041,0.24596-0.61326,0.5394
		c-0.04232,0.12075-0.16554,0.19299-0.19482,0.32138c-0.70703,0.00082-1.41406,0.00234-2.12109,0.00239
		c-3.60967,0.00025-7.21934,0.00013-10.82901-0.00003c-0.06907,0-0.13815-0.00212-0.20723-0.00326
		c0.00127-0.02005,0.00254-0.04008,0.00382-0.06012c0.07772-0.06542,0.1718-0.04579,0.26033-0.04583
		c2.19685-0.00097,4.39371-0.00075,6.59056-0.00075c1.80323,0,3.60646-0.00004,5.40969,0.00009
		c0.12762,0.00001,0.25514,0.00489,0.38269,0.00831c0.26144,0.00701,0.47966-0.06625,0.59637-0.3297
		c0.09752-0.22012,0.26575-0.37973,0.47931-0.49133c0.09929-0.05189,0.20991-0.07922,0.31591-0.1076
		c0.34074-0.09122,0.58471-0.32033,0.82144-0.55401c0.46033-0.45439,0.80369-0.9944,1.10496-1.56073
		c0.26583-0.49971,0.48824-1.01855,0.65799-1.55873c0.01605-0.05106,0.03667-0.09904,0.07708-0.13629
		C30.35665,7.13402,30.39258,7.17374,30.40255,7.25522z"/>
	<path fill="#2D4961" d="M30.40255,7.25522c-0.03156-0.03192-0.06313-0.06384-0.09469-0.09577
		c-0.0524-0.00072-0.07834-0.04485-0.11639-0.06928c-0.02259-0.01531-0.04643-0.02854-0.0697-0.04291
		c-0.05465-0.03988-0.11663-0.06367-0.18122-0.08242c-0.16368-0.06732-0.33364-0.09877-0.51034-0.11223
		c-0.14952-0.01139-0.23953-0.15203-0.20838-0.29652c0.03181-0.14755,0.14182-0.22032,0.28367-0.18763
		c0.57643-0.07079,1.03871-0.32464,1.12168-0.94658c0.00927-0.06947,0.01194-0.15057,0.0904-0.19181
		c0.09856,0.2356,0.20583,0.46895,0.19491,0.73325c0.03398,0.12788-0.04926,0.21469-0.11617,0.30195
		c-0.06271,0.08179-0.14046,0.15233-0.22095,0.2183C30.55428,6.49925,30.53091,6.5116,30.5091,6.5263
		c-0.12621,0.08509-0.12499,0.08846-0.00344,0.18148c0.10833,0.0829,0.22121,0.16163,0.29562,0.28045
		c0.02764,0.04413,0.06643,0.08345,0.04751,0.14241c-0.00686,0.24811-0.09506,0.47432-0.19084,0.69846
		C30.6147,7.61943,30.57624,7.40767,30.40255,7.25522z"/>
	<path fill="#2D4961" d="M1.50387,2.50676C1.25491,2.61297,1.15222,2.84388,1.02812,3.05653
		C0.97715,3.01149,0.99341,2.95073,0.99308,2.8957C0.99182,2.68818,0.9904,2.48064,0.99368,2.2734
		c0.07262-0.19482,0.2584-0.24459,0.42148-0.32352C1.45823,1.93602,1.50378,1.93175,1.547,1.91803
		c0.01369-0.0048,0.0278-0.00823,0.04196-0.01125c0.04858-0.0089,0.09935-0.00911,0.1434-0.03596
		c0.06192-0.0361,0.0701-0.09899,0.08551-0.16019C1.86248,1.53345,1.91002,1.35699,2.01345,1.2018
		c0.03648-0.05137,0.07146-0.10387,0.11596-0.14925c0.058-0.05035,0.1077-0.11474,0.19582-0.11458
		C2.67924,0.94798,3.03362,0.91823,3.387,0.95373c0.01052,0.01025,0.02105,0.02051,0.03157,0.03076
		c-0.04006,0.14622-0.17592,0.0815-0.26521,0.11919C3.07153,1.1217,2.99514,1.15279,2.92542,1.1995
		c-0.07,0.04454-0.14145,0.08696-0.20389,0.1423C2.45791,1.5387,2.33618,1.79906,2.33685,2.12777
		C2.33723,2.3097,2.23719,2.38941,2.03037,2.41972c-0.06102,0.0017-0.1227-0.00639-0.18276,0.01139
		c-0.01436,0.00457-0.02905,0.00779-0.0438,0.0107C1.70287,2.459,1.60225,2.47775,1.50387,2.50676z"/>
	<path fill="#2D4961" d="M1.01704,10.02057c0.09003,0.23655,0.25063,0.42374,0.42572,0.60101
		c0.15388,0.1558,0.354,0.17648,0.55642,0.18549c0.26872,0.01195,0.32625,0.06526,0.33495,0.32559
		c0.01258,0.37648,0.17955,0.66182,0.50915,0.85143c-0.24325,0.05048-0.48636,0.04903-0.72934-0.00195
		c-0.15384-0.06963-0.21136-0.21437-0.22723-0.35677c-0.02671-0.23973-0.1442-0.34795-0.38075-0.37209
		c-0.14262-0.01455-0.27007-0.09284-0.38813-0.17526c-0.04908-0.03427-0.11496-0.06376-0.09276-0.14533
		c-0.02458-0.03724-0.03723-0.07762-0.03273-0.12252C1.00734,10.54718,0.96004,10.28227,1.01704,10.02057z"/>
	<path fill="#8AABB6" d="M1.02508,10.93269c0.16308,0.20408,0.39915,0.27192,0.63883,0.31545
		c0.14025,0.02547,0.21171,0.07541,0.22514,0.22197c0.01763,0.19231,0.0958,0.36475,0.22489,0.51203
		c-0.05662,0.06034-0.13002,0.03018-0.1951,0.03107c-0.27024,0.00371-0.54057,0.00136-0.81086,0.00163
		c-0.06027,0.00006-0.11807,0.00388-0.1174-0.08461c0.00239-0.31559,0.00131-0.6312,0.00372-0.94679
		C0.99442,10.96645,1.01436,10.9496,1.02508,10.93269z"/>
	<path fill="#628B8F" d="M1.44176,1.96893C1.29155,2.03276,1.16343,2.13309,1.02548,2.21719
		C1.0003,2.20384,0.9942,2.18107,0.99443,2.15518C0.99338,1.79916,0.99518,1.4431,0.98944,1.08716
		C0.98782,0.98639,1.0176,0.94449,1.1235,0.95096c0.12615,0.00771,0.25307,0.00299,0.37966,0.00365
		c0.03599,0.04365,0.02406,0.08895,0.00241,0.1329C1.36497,1.37293,1.42342,1.67232,1.44176,1.96893z"/>
	<path fill="#618A8E" d="M30.84879,7.13064c-0.0869-0.17281-0.22568-0.29876-0.38272-0.40494
		c-0.16218-0.10966-0.16472-0.10674,0.00586-0.21847c0.02565-0.0168,0.0551-0.0279,0.08278-0.04164
		c0.12202-0.05839,0.24534-0.01888,0.36537,0.00295c0.0938,0.01706,0.0776,0.0921,0.05583,0.15969
		C30.96182,6.80275,30.96328,6.98115,30.84879,7.13064z"/>
	<path fill="#679397" d="M2.26815,0.954c-0.02397,0.05733-0.06958,0.0949-0.1193,0.12871
		C2.09101,1.1114,2.02971,1.12237,1.9652,1.12754C1.72327,1.14696,1.61953,1.25993,1.61343,1.50515
		C1.61121,1.59459,1.61326,1.68407,1.61188,1.77352c-0.0009,0.05824-0.0024,0.11638-0.04439,0.16367l0.00084-0.00004
		C1.47615,1.97706,1.43524,1.92855,1.43269,1.84724c-0.00539-0.17213-0.02908-0.3448,0.0076-0.51669
		C1.49376,1.07987,1.57117,1.00908,1.82666,0.9744C1.86753,0.96885,1.9121,0.98184,1.94955,0.95474
		c0.08618-0.00193,0.17235-0.00387,0.25853-0.0058C2.2293,0.93656,2.2496,0.93507,2.26815,0.954z"/>
	<path fill="#679396" d="M3.12909,1.07921c0.08488-0.06654,0.21708,0.0094,0.28948-0.09472
		c0.11999-0.061,0.24865-0.02688,0.37312-0.03029c0.19475-0.00534,0.3898-0.00012,0.58472,0.00064
		C4.38182,1.00064,4.3661,1.04116,4.34474,1.08028C4.29813,1.123,4.24049,1.12725,4.18124,1.12731
		C3.88452,1.12759,3.5878,1.12792,3.29109,1.12703C3.23268,1.12686,3.17341,1.12739,3.12909,1.07921z"/>
	<path fill="#649093" d="M1.94955,0.95474c-0.07783,0.049-0.17433,0.03845-0.25288,0.07152
		C1.60703,1.064,1.5326,1.13384,1.50241,1.23922C1.44491,1.44,1.47854,1.64398,1.47078,1.84647
		C1.46806,1.91733,1.5057,1.93884,1.56832,1.93715C1.5337,1.9775,1.48572,1.96536,1.44174,1.96891
		C1.39959,1.96285,1.37573,1.94068,1.3759,1.89642c0.00077-0.20349-0.00186-0.40707,0.00319-0.61045
		C1.38212,1.16336,1.49607,1.07795,1.50317,0.9546C1.65196,0.95465,1.80076,0.9547,1.94955,0.95474z"/>
	<path fill="#5D898C" d="M30.97592,6.62824c0.0097-0.09091-0.0216-0.13296-0.12343-0.13126
		c-0.09902,0.00164-0.19843-0.01995-0.29772-0.03136c0.14278-0.15091,0.30821-0.28594,0.3577-0.5023
		c0.10251,0.04729,0.05987,0.14869,0.07494,0.22295C31.0169,6.33163,31.03626,6.48256,30.97592,6.62824z"/>
	<path fill="#414F5A" d="M0.99443,2.15518C1.01906,2.16884,1.0241,2.19214,1.02547,2.21723
		c0.00088,0.2797,0.00175,0.55944,0.00263,0.83924c0.00069,0.00787-0.00169,0.01463-0.00713,0.02032
		C0.99748,3.08131,0.96154,3.10132,0.96216,3.05786c0.00417-0.29324-0.01829-0.58685,0.01172-0.87965
		C0.97473,2.16993,0.98732,2.16283,0.99443,2.15518z"/>
	<path fill="#424F5A" d="M2.26815,0.954c-0.02004-0.00166-0.04009-0.00333-0.0601-0.00502
		c0.06637-0.0521,0.14378-0.0248,0.21557-0.02575c0.27126-0.00358,0.54259-0.00226,0.81389-0.00071
		c0.051,0.00029,0.10791-0.01747,0.14949,0.03121C3.01405,0.95382,2.6411,0.95391,2.26815,0.954z"/>
	<path fill="#72A2A6" d="M2.01256,2.3838c0.22605-0.02597,0.29198-0.08635,0.28807-0.30599
		C2.29459,1.73943,2.4375,1.4866,2.71618,1.30195c0.49853-0.03922,0.99777-0.01197,1.49668-0.01526
		c0.04875-0.00032,0.09453,0.0135,0.13212,0.04703c0.16056,0.48503,0.45032,0.69729,0.95212,0.69729
		c1.84074,0.00002,3.6815,0.00386,5.52221-0.00387c0.29906-0.00126,0.50095,0.13203,0.67598,0.34641
		c0.12589,0.15419,0.23758,0.32204,0.42996,0.41127c0.13711,0.0636,0.27525,0.10293,0.42785,0.1029
		c1.00542-0.00021,2.01084,0.0024,3.01627,0.00409c0.0414,0.06994,0.00675,0.1346-0.02216,0.19381
		c-0.22544,0.46165-0.44978,0.92376-0.65622,1.39421c-0.02117,0.04825-0.04326,0.09745-0.10699,0.10343
		c-0.48805,0.0576-0.97494,0.12344-1.45937,0.20491c-0.18265,0.03072-0.36674,0.0492-0.54913,0.0798
		c-0.16093,0.027-0.30836,0.07888-0.38785,0.23794c-0.02951,0.05281-0.07989,0.08238-0.12786,0.11579
		c-0.24343,0.16956-0.27321,0.46801-0.066,0.68154c0.48617,0.50099,0.96646,1.00785,1.47159,1.4902
		c0.13889,0.13263,0.18734,0.26882,0.15541,0.4645c-0.08058,0.49386-0.17759,0.98534-0.23743,1.48251
		c-0.00568,0.04722-0.02137,0.09238-0.03529,0.13774c-0.04742,0.20027-0.09514,0.39977-0.08582,0.60867
		c0.01497,0.3358,0.35844,0.54746,0.65773,0.39685c0.4547-0.22883,0.89579-0.48285,1.34352-0.72462
		c0.20053-0.10828,0.40319-0.2126,0.60377-0.32081c0.08575-0.04626,0.1714-0.03451,0.25814,0.01151
		c0.60864,0.32295,1.21208,0.65534,1.81719,0.98466c0.32875,0.17892,0.50736,0.13903,0.72639-0.17441
		c0.01822-0.02608,0.03358-0.05399,0.06356-0.06915c0.15523-0.07519,0.2236-0.2026,0.22478-0.36972
		c0.00143-0.20145-0.03805-0.39894-0.07272-0.59543c-0.09149-0.51846-0.17855-1.03755-0.25917-1.55776
		c-0.00702-0.04527-0.00328-0.09564-0.04005-0.13516c-0.06925,0.00086-0.09815,0.07907-0.16395,0.08499
		c-0.03526-0.00023-0.04422-0.02235-0.04139-0.05182c0.00374-0.03911,0.02754-0.06871,0.05389-0.09462
		c0.41522-0.40822,0.81538-0.83155,1.24627-1.2241c0.19874-0.15555,0.36241-0.34222,0.49883-0.55338
		c0.16374-0.12805,0.22127-0.2962,0.1657-0.49171c-0.05887-0.2071-0.22444-0.30194-0.42479-0.33204
		c-0.64456-0.09686-1.28822-0.20042-1.93401-0.28802c-0.21494-0.02915-0.36449-0.0924-0.43451-0.31462
		c-0.0469-0.14885-0.13976-0.28292-0.207-0.42601c-0.02852-0.0607-0.06731-0.12184-0.03567-0.19441
		c-0.0447-0.22572-0.18768-0.40972-0.26983-0.62025c-0.0446-0.11428-0.03924-0.14253,0.08918-0.14199
		c0.87713,0.00365,1.75437-0.00508,2.63137,0.00574c0.30352,0.00375,0.60199,0.06128,0.82076,0.30974
		c0.04239,0.04814,0.08164,0.09606,0.10956,0.15376c0.16275,0.33634,0.44511,0.47961,0.80812,0.48263
		c0.42525,0.00354,0.85081,0.01035,1.27578-0.00113c0.91734-0.02479,1.81357,0.11064,2.69911,0.33169
		c0.47175,0.11776,0.94561,0.22788,1.39658,0.41772c0.3854,0.16223,0.72556,0.39063,1.03756,0.662
		c0.25895,0.22522,0.50406,0.46618,0.76418,0.69c0.22512,0.19371,0.50651,0.28145,0.78502,0.36886
		c0.03657,0.01148,0.07965,0.00478,0.04935,0.06266c-0.15445,0.01937-0.24981,0.10604-0.25341,0.23027
		c-0.00365,0.12574,0.08217,0.21463,0.21552,0.21662c0.18354,0.00273,0.3582,0.0361,0.51722,0.13185
		c0.04086,0.05613,0.0148,0.1126-0.00325,0.16623c-0.34944,1.03844-0.81078,2.01967-1.50616,2.87961
		c-0.30554,0.37785-0.66394,0.67892-1.15258,0.80536c-0.31873,0.08247-0.55513,0.2852-0.71106,0.57276
		c-0.10719,0.19768-0.26266,0.28109-0.49149,0.2809c-4.10605-0.00339-8.21211-0.00241-12.31817-0.00302
		c-0.07869-0.00001-0.16114,0.01125-0.22854-0.0465c-0.00197-0.13711,0.01324-0.27708-0.00937-0.41075
		c-0.05207-0.30794-0.31256-0.50834-0.63726-0.50839c-2.18027-0.00032-4.36055-0.00356-6.54081,0.00252
		c-0.47064,0.00131-0.93796-0.32945-0.99797-0.79316C5.34741,9.57804,5.07652,9.38435,4.75311,9.38403
		C4.14689,9.38344,3.54066,9.38508,2.93445,9.38344c-0.43947-0.00119-0.8149-0.26515-0.93069-0.65527
		C1.96948,8.61272,1.94883,8.4944,1.94894,8.37167c0.0016-1.73652-0.00137-3.47305,0.00421-5.20955
		c0.00069-0.21636-0.03287-0.40674-0.19461-0.56069c0.00135-0.07036,0.01756-0.13601,0.06206-0.19268L1.82045,2.40978
		C1.88105,2.37608,1.95163,2.41506,2.01256,2.3838z"/>
	<path fill="#FEFEFE" d="M14.59229,4.56054c0.15111-0.31321,0.31087-0.62268,0.45051-0.94085
		c0.10689-0.24356,0.25963-0.46693,0.32655-0.72789c0.08245-0.09124,0.10391-0.21491,0.16802-0.31488
		c0.15534-0.24225,0.37871-0.3088,0.65165-0.23191c0.14673,0.01644,0.20253,0.14169,0.28558,0.23462
		c0.31406,0.65726,0.61458,1.32077,0.92872,1.97802c0.05432,0.11366,0.13202,0.16485,0.25315,0.1842
		c0.43573,0.06959,0.87447,0.1189,1.30939,0.19368c0.05791,0.00996,0.11529,0.01958,0.16898,0.04449
		c0.12079,0.08166,0.12697,0.10039,0.01364,0.20957c-0.34345,0.33086-0.65178,0.69496-0.99569,1.02556
		c-0.22279,0.21417-0.42882,0.44554-0.47251,0.76912c-0.03208,0.23761-0.00482,0.47392,0.03695,0.70842
		c0.08237,0.4624,0.15591,0.92623,0.22806,1.39027c0.06494,0.41763-0.20106,0.74057-0.58939,0.72184
		c-0.08811-0.00425-0.16563-0.03579-0.24104-0.07554C16.636,9.47689,16.1588,9.2209,15.69076,8.94977
		c-0.38812-0.22484-0.75931-0.2301-1.14311-0.00148c-0.32356,0.19273-0.6603,0.36277-0.98731,0.54978
		c-0.0506,0.02894-0.10268,0.05633-0.15886,0.07329c-0.09631,0.02909-0.11641-0.01244-0.08745-0.09651
		c0.09494-0.58479,0.18794-1.1699,0.28696-1.75401c0.0146-0.08613-0.01747-0.14337-0.07056-0.19693
		c-0.39753-0.40111-0.79666-0.80066-1.19393-1.20202c-0.12972-0.13105-0.25568-0.26579-0.38291-0.39926
		c-0.23036-0.24166-0.17502-0.59556,0.11823-0.7602c0.03217-0.01806,0.06283-0.03875,0.0942-0.05822
		c0.10264-0.0953,0.23812-0.081,0.36105-0.10065c0.58235-0.09306,1.16694-0.17202,1.7507-0.25562
		C14.42208,4.72727,14.48373,4.61532,14.59229,4.56054z"/>
	<path fill="#5F6C6F" d="M19.12897,5.00932c-0.52424-0.08076-1.04816-0.16367-1.57304-0.24012
		c-0.08537-0.01243-0.12354-0.04944-0.15857-0.12486c-0.27679-0.596-0.55994-1.18909-0.83939-1.78387
		c-0.04428-0.09425-0.07985-0.19254-0.11944-0.28896c0.07628-0.02165,0.08345,0.04634,0.10839,0.08619
		c0.02768,0.04422,0.04591,0.09421,0.08052,0.1346c0.0421,0.04913,0.10133,0.07301,0.15538,0.04434
		c0.07518-0.03988,0.00856-0.09227-0.01039-0.13215c-0.08279-0.17418-0.13847-0.36359-0.28046-0.50587
		c-0.01842-0.01845-0.02592-0.04529-0.01335-0.07257c0.22502,0.08324,0.26266,0.30368,0.34572,0.4836
		c0.15997,0.34651,0.26791,0.71674,0.48441,1.03743c0.12205,0.26261,0.24328,0.5256,0.3665,0.78768
		c0.05542,0.11787,0.17922,0.07916,0.26769,0.09386c0.53561,0.08899,1.07507,0.15347,1.60977,0.25072
		c0.15427,0.02806,0.31517,0.02648,0.46844,0.06843c0.19975,0.05467,0.34424,0.17514,0.38032,0.38174
		c0.03702,0.21202-0.02095,0.39723-0.22412,0.51276c-0.05233-0.02909-0.06355-0.07889-0.06812-0.13215
		c-0.01574-0.27907-0.16678-0.44731-0.44374-0.48782C19.48412,5.09578,19.29941,5.08646,19.12897,5.00932z"/>
	<path fill="#5A6769" d="M16.47862,2.12605c0.18373,0.15927,0.24553,0.3891,0.34533,0.59613
		c0.02228,0.04622,0.11045,0.11935,0.02237,0.15309c-0.06683,0.0256-0.16929,0.05337-0.24445-0.04044
		c-0.06605-0.08244-0.07034-0.19982-0.16333-0.26331c-0.08316-0.0755-0.16631-0.15099-0.24949-0.2265
		c-0.08821-0.1029-0.21803-0.03785-0.3252-0.07345C16.02103,2.04665,16.22684,1.99938,16.47862,2.12605z"/>
	<path fill="#6E9DA1" d="M4.34497,1.33372c-0.47614,0.00001-0.95228,0-1.42842,0.00007
		C2.84802,1.3338,2.77841,1.34086,2.71618,1.30195c0.05534-0.0543,0.11837-0.09729,0.19021-0.12731
		c0.09486-0.03561,0.19288-0.04786,0.29425-0.04728c0.31649,0.00183,0.633,0.00044,0.9495,0.00081
		c0.06853,0.00008,0.13841-0.00452,0.19424,0.04731C4.34458,1.22823,4.34478,1.28097,4.34497,1.33372z"/>
	<path fill="#6A989C" d="M4.34438,1.17548C3.86506,1.1752,3.38573,1.17492,2.9064,1.17464
		c0.06409-0.05515,0.13623-0.09179,0.22271-0.09542c0.4052,0.00035,0.81041,0.0007,1.21563,0.00106
		C4.34462,1.11201,4.3445,1.14375,4.34438,1.17548z"/>
	<path fill="#6E9DA1" d="M13.57357,11.60259c4.18751-0.00007,8.37503-0.00139,12.56254,0.00336
		c0.2172,0.00025,0.34595-0.08213,0.43969-0.26722c0.13127-0.2592,0.33581-0.47577,0.61448-0.54188
		c0.78852-0.18707,1.2417-0.75582,1.64759-1.37457c0.50342-0.76744,0.87939-1.59765,1.14696-2.47506
		c0.06837,0.00286,0.12062,0.03562,0.16304,0.08662c0.02487,0.05919,0.00213,0.11335-0.01659,0.16865
		c-0.34959,1.03246-0.81802,2.00379-1.49935,2.86497c-0.32856,0.41529-0.71655,0.74646-1.24759,0.88547
		c-0.29298,0.0767-0.50451,0.26726-0.64108,0.53307c-0.11688,0.22748-0.29336,0.32398-0.55217,0.32376
		c-4.1295-0.00342-8.259-0.00237-12.3885-0.00288c-0.07872-0.00001-0.16125,0.0124-0.22872-0.04578
		C13.57377,11.70826,13.57367,11.65543,13.57357,11.60259z"/>
	<path fill="#679397" d="M30.20852,7.0712c0.04393,0.01744,0.07421,0.05001,0.0993,0.08829
		c-0.11185,0.24196-0.1836,0.49915-0.28,0.74714c-0.1511,0.38872-0.32796,0.7639-0.5261,1.12832
		c-0.21584,0.39701-0.46068,0.77966-0.756,1.12399c-0.23904,0.2787-0.49527,0.54335-0.81211,0.74148
		c-0.14549,0.09098-0.31059,0.13933-0.46917,0.18213c-0.26169,0.07063-0.44408,0.22549-0.56687,0.44492
		c-0.21954,0.39234-0.31879,0.45718-0.764,0.4242c-0.03175-0.00235-0.06381-0.00064-0.09572-0.00064
		c-4.15442,0.00006-8.30883,0.00013-12.46323,0.0002c-0.00014-0.03167-0.00029-0.06335-0.00044-0.09503
		c0.07773-0.06538,0.17179-0.04592,0.26038-0.04596c2.27701-0.00094,4.55403-0.00071,6.83105-0.00074
		c1.84076-0.00002,3.68154-0.00301,5.52228,0.0034c0.266,0.00093,0.43855-0.0923,0.55805-0.3295
		c0.12455-0.24723,0.31604-0.44503,0.59541-0.51455c0.62091-0.15449,1.03818-0.56806,1.40749-1.05091
		c0.30976-0.40499,0.55938-0.8447,0.78928-1.29785c0.23455-0.46232,0.43512-0.93748,0.59884-1.42854
		C30.15167,7.1474,30.1647,7.09955,30.20852,7.0712z"/>
	<path fill="#6B989C" d="M30.20852,7.0712c-0.07896,0.35092-0.22425,0.67854-0.36779,1.00572
		c-0.11763,0.26813-0.24568,0.53232-0.3812,0.79204c-0.25147,0.48194-0.54071,0.93986-0.90405,1.34888
		c-0.16834,0.1895-0.34641,0.36726-0.55492,0.51356c-0.19737,0.13848-0.42676,0.20297-0.6517,0.27584
		c-0.26856,0.087-0.45667,0.2693-0.57286,0.51095c-0.11908,0.24767-0.29895,0.34017-0.56654,0.33997
		c-4.21177-0.0031-8.42353-0.00206-12.63529-0.00197c-0.0001-0.0317-0.00021-0.06341-0.00031-0.09511
		c4.20754-0.00008,8.41507-0.00158,12.6226,0.00329c0.25212,0.00029,0.40675-0.09678,0.51546-0.31411
		c0.11963-0.23917,0.30417-0.44052,0.56491-0.50474c0.71678-0.17658,1.17336-0.66563,1.5681-1.23285
		c0.54953-0.78964,0.95578-1.6505,1.2583-2.5607c0.01326-0.03989,0.02967-0.07875,0.04463-0.11812
		C30.16808,7.0463,30.1883,7.05875,30.20852,7.0712z"/>
	<path fill="#6E9CA1" d="M1.82059,2.40875c0.00558,0.07256,0.00045,0.14173-0.06206,0.19268
		C1.68152,2.54899,1.60634,2.4917,1.50387,2.50676C1.6007,2.44624,1.70251,2.40158,1.82059,2.40875z"/>
	<path fill="#6E9DA1" d="M2.04482,1.20572C1.95429,1.38747,1.88066,1.57434,1.84646,1.77613
		c-0.01005,0.05929-0.0113,0.14531-0.11585,0.13019C1.64063,1.93968,1.62812,1.87064,1.62298,1.81543
		c-0.0127-0.13647-0.01929-0.27462,0.00469-0.41022c0.02362-0.1335,0.14049-0.24728,0.26536-0.26328
		C1.9519,1.13439,2.02399,1.11547,2.04482,1.20572z"/>
	<path fill="#6A979B" d="M2.04482,1.20572C1.87828,1.14793,1.71343,1.21755,1.67646,1.38191
		C1.64099,1.53961,1.66025,1.70386,1.6697,1.86512C1.67133,1.89295,1.70426,1.90086,1.73058,1.9063
		c-0.04797,0.04353-0.10769,0.02598-0.1631,0.03088C1.56729,1.78483,1.56422,1.63241,1.56754,1.48013
		c0.00559-0.25632,0.1467-0.39361,0.40657-0.39957c0.05816-0.00134,0.11641,0.00131,0.17467,0.00214
		C2.11417,1.12371,2.07949,1.16472,2.04482,1.20572z"/>
	<path fill="#6E9CA1" d="M2.01256,2.3838C1.95424,2.43407,1.88484,2.40357,1.82046,2.40978
		C1.87905,2.36152,1.94749,2.38492,2.01256,2.3838z"/>
	<path fill="#DCDEE0" d="M19.12897,5.00932c0.22873,0.02177,0.45778,0.04463,0.68064,0.10152
		c0.19979,0.051,0.32924,0.24847,0.34448,0.50573c-0.0131,0.17497-0.0939,0.30982-0.23423,0.41695
		c-0.08756,0.06684-0.15497,0.15623-0.22355,0.24256c-0.42154,0.41538-0.84311,0.83073-1.26454,1.24623
		c-0.02302,0.0227-0.04156,0.04808-0.03815,0.08306c0.02278,0.05365,0.03839,0.10926,0.04434,0.16722
		c0.04894,0.47645,0.16421,0.94253,0.22348,1.41764c0.03054,0.24481,0.10057,0.48422,0.12016,0.73128
		c0.00777,0.09791,0.03595,0.19973-0.03779,0.28762c-0.11923,0.21482-0.26418,0.39258-0.54589,0.37352
		c-0.11575-0.00783-0.20569-0.07795-0.3017-0.12912c-0.47514-0.25325-0.94757-0.51151-1.4211-0.76774
		c-0.12489-0.06758-0.25244-0.13064-0.37469-0.2026c-0.08209-0.04832-0.15144-0.04467-0.2352,0.00074
		c-0.3573,0.1937-0.72305,0.37248-1.07586,0.57374c-0.2886,0.16463-0.57986,0.32315-0.87608,0.47345
		c-0.27829,0.14121-0.67374-0.0791-0.6929-0.39099c-0.01397-0.2274,0.02352-0.44889,0.09363-0.66526
		c-0.00175,0.10034,0.04763,0.08062,0.10773,0.04736c0.25963-0.14368,0.51744-0.29091,0.78091-0.42735
		c0.2477-0.12827,0.47689-0.29069,0.76036-0.35223C15.2255,8.68568,15.44798,8.7764,15.662,8.88879
		c0.49256,0.25867,0.97871,0.52963,1.46341,0.80268c0.21391,0.1205,0.41225,0.09087,0.59559-0.04381
		c0.17998-0.13222,0.22347-0.32817,0.18932-0.53887c-0.09061-0.55909-0.19346-1.11633-0.27718-1.6764
		C17.5657,6.9812,17.70447,6.5944,18.03418,6.26903c0.37686-0.37192,0.74016-0.75734,1.11395-1.13239
		C19.21315,5.0714,19.19941,5.04236,19.12897,5.00932z"/>
	<path fill="#5F6D6F" d="M18.74383,10.20914c0.02976-0.25519-0.04545-0.50031-0.07815-0.74889
		c-0.03752-0.28524-0.09917-0.56728-0.14578-0.85144c-0.04911-0.29939-0.09234-0.59973-0.13953-0.89943
		c-0.00584-0.03708-0.01714-0.07246,0.01326-0.10397c0.00963-0.0043,0.02021-0.0072,0.02874-0.01305
		c0.0694-0.04759,0.12126-0.17306,0.18904-0.15098c0.08576,0.02794,0.05125,0.16007,0.0598,0.24043
		c0.04771,0.44877,0.15663,0.88725,0.21268,1.33487c0.03566,0.28478,0.11677,0.56481,0.11663,0.85491
		C19.00042,10.04033,18.88628,10.18324,18.74383,10.20914z"/>
	<path fill="#606D70" d="M14.59229,4.56054c-0.04093,0.17895-0.1746,0.21345-0.33605,0.23592
		c-0.6975,0.0971-1.39357,0.20426-2.09019,0.30776c-0.02263-0.11638,0.07571-0.14776,0.14466-0.19462
		c0.14646-0.09953,0.32287-0.09317,0.48817-0.11914c0.53123-0.08346,1.06388-0.158,1.59563-0.2383
		C14.46227,4.54192,14.52805,4.51495,14.59229,4.56054z"/>
	<path fill="#8C9F9C" d="M19.69632,6.27609c0.01862-0.09974,0.08972-0.16545,0.16212-0.22382
		c0.14436-0.11637,0.26059-0.24794,0.29564-0.43571c0.0078,0.04188,0.01558,0.08375,0.02332,0.12566
		C20.06849,5.96592,19.88783,6.12582,19.69632,6.27609z"/>
</g>
</svg>
