<?xml version="1.0" encoding="utf-8"?>
<!-- Generator: Adobe Illustrator 23.0.0, SVG Export Plug-In . SVG Version: 6.00 Build 0)  -->
<svg version="1.1" id="Слой_1" xmlns="http://www.w3.org/2000/svg" xmlns:xlink="http://www.w3.org/1999/xlink" x="0px" y="0px" width="32px" height="13px"
	 viewBox="0 0 32 13" enable-background="new 0 0 32 13" xml:space="preserve">
<g>
	<path fill="#3A4750" d="M30.27271,2.15781c0.08512,0.12823,0.17023,0.25646,0.25534,0.38469
		c0.02157,0.05892,0.0543,0.11046,0.10201,0.15211c0.44219,0.68979,0.77291,1.43213,1.04213,2.20204
		c0.13507,0.38627,0.25172,0.77873,0.29943,1.18758c0.00146,0.01254,0.01654,0.02352,0.02528,0.03523c0,0.12677,0,0.25355,0,0.38032
		c-0.02226,0.01812-0.04638,0.03231-0.07581,0.03556c-0.05289-0.00715-0.12304,0.00941-0.11561-0.08187
		c0.07536-0.14699,0.04751-0.29873,0.01883-0.44956c-0.18543-0.97496-0.55899-1.88142-1.02835-2.75131
		c-0.34752-0.64406-0.74901-1.25343-1.23894-1.80119c-0.43519-0.48656-0.92718-0.9019-1.54222-1.15051
		c-0.26291-0.10627-0.53755-0.15671-0.82475-0.15663c-7.30927,0.00205-14.61853,0.00166-21.9278,0.00126
		c-0.08511,0-0.17019,0.00592-0.25541,0.00122C4.97398,0.1461,4.94798,0.13453,4.935,0.10224
		c-0.00463-0.02047-0.00301-0.0404,0.00479-0.05992c0.01412-0.01716,0.03226-0.02486,0.0545-0.02321
		c7.46327-0.00027,14.92647-0.0001,22.38917-0.00012c0.01823-0.00024,0.03696-0.00011,0.05525,0.00032
		c0.51435,0.05282,0.95436,0.28162,1.36754,0.57326c0.02159,0.01524,0.04193,0.03185,0.06815,0.03869l-0.00302-0.00245
		c0.30871,0.2554,0.58259,0.54686,0.86831,0.82606l-0.0024-0.00289C29.90901,1.69231,30.10199,1.91674,30.27271,2.15781z"/>
	<path fill="#535F69" d="M31.9337,6.50028c0.02107-0.00017,0.04214-0.00034,0.06321-0.0005c0,0.09508,0,0.19016,0,0.28524
		c-0.0746,0.29755-0.13584,0.59915-0.22605,0.89196c-0.46085,1.49585-1.14158,2.87706-2.20261,4.05045
		c-0.48821,0.53991-1.05089,0.98132-1.7712,1.18426c-0.11065,0.03117-0.22284,0.05694-0.33432,0.08521
		c-3.42724,0-6.85448,0-10.28172,0c-0.02129-0.02745-0.01418-0.0519,0.00793-0.07482
		c0.08842-0.05231,0.18646-0.03376,0.2807-0.03379c3.16935-0.00099,6.33872-0.00582,9.50805,0.00257
		c0.83239,0.0022,1.51449-0.31761,2.1126-0.86158c0.69873-0.63548,1.22961-1.39463,1.67026-2.22149
		c0.452-0.84817,0.81185-1.73085,1.02773-2.66836c0.03319-0.14415,0.06134-0.28916,0.0686-0.4374
		C31.86057,6.62674,31.87456,6.55494,31.9337,6.50028z"/>
	<path fill="#697681" d="M17.18149,12.93313c-0.00016,0.02126-0.00032,0.04251-0.00048,0.06377c-0.05322,0-0.10643,0-0.15965,0
		c-0.05489-0.03082-0.11472-0.01557-0.172-0.01558c-5.19649-0.00081-10.39299-0.00081-15.58948,0
		c-0.05728,0.00001-0.11711-0.01524-0.172,0.01558c-0.10644,0-0.21287,0-0.31931,0
		c-0.35515-0.05002-0.58597-0.25274-0.71869-0.57608c-0.00122-0.05512-0.00955-0.10956-0.02062-0.1636
		c-0.00725-0.01841-0.01218-0.03803-0.02703-0.05265c0-0.02113,0-0.04226,0-0.06339c0.032-0.05977,0.01557-0.12426,0.01561-0.18624
		C0.01928,9.8519,0.01781,7.74886,0.01932,5.64582c0.00245-0.0434,0.03123-0.04858,0.06612-0.04492
		C0.1048,5.61103,0.11884,5.62607,0.12778,5.64586C0.1599,5.73819,0.14893,5.8341,0.14896,5.92865
		c0.00073,1.97549,0.00027,3.95097,0.00075,5.92646c0.00007,0.28101,0.04492,0.54475,0.25722,0.75866
		c0.17603,0.17736,0.39116,0.24685,0.63128,0.2649c0.09028,0.00679,0.18086,0.0037,0.27132,0.0037
		c5.17795,0.00009,10.3559-0.00003,15.53386,0.00084c0.10529,0.00002,0.21331-0.01719,0.31487,0.02866
		C17.16605,12.91887,17.17377,12.926,17.18149,12.93313z"/>
	<path fill="#3B4852" d="M27.46357,0.03379C19.95975,0.03399,12.45592,0.03418,4.9521,0.03437
		c-0.008-0.00691-0.01075-0.01391-0.00827-0.02101c0.0025-0.00714,0.00506-0.01072,0.00768-0.01072c7.50374,0,15.00748,0,22.51122,0
		c0.00778,0.00672,0.01049,0.01357,0.00816,0.02056C27.46852,0.03027,27.46609,0.03379,27.46357,0.03379z"/>
	<path fill="#697681" d="M1.08788,12.99689C1.135,12.945,1.19753,12.9661,1.25335,12.96609
		c5.20084-0.00095,10.40168-0.00095,15.60253,0c0.05583,0.00001,0.11835-0.02109,0.16548,0.03081
		C11.7102,12.99689,6.39904,12.99689,1.08788,12.99689z"/>
	<path fill="#545F68" d="M0.09774,5.6127C0.07816,5.61268,0.05858,5.61267,0.03901,5.61265
		c-0.0392-0.05228-0.01926-0.11242-0.01931-0.16842C0.01841,3.97248,0.01888,2.50071,0.01791,1.02895
		C0.01788,0.97214,0.03322,0.91281,0.00223,0.85837c0-0.03169,0-0.06339,0-0.09508C0.03067,0.53974,0.13637,0.35765,0.301,0.20524
		c0.11538-0.10682,0.24827-0.17603,0.40371-0.20259c0.08515,0,0.1703,0,0.25545,0c-0.00825,0.08672-0.081,0.06467-0.13176,0.07372
		C0.71255,0.09704,0.6023,0.12618,0.52364,0.22248c-0.27922,0.2118-0.38746,0.48886-0.38502,0.83905
		C0.1486,2.49794,0.14323,3.93446,0.14171,5.37093C0.14162,5.45277,0.16489,5.54168,0.09774,5.6127z"/>
	<path fill="#CB2631" d="M0.00223,0.85837C0.06032,0.90953,0.03264,0.9774,0.03271,1.03689
		c0.00175,1.462,0.00131,2.92399,0.00157,4.38599C0.0343,5.48614,0.03735,5.5494,0.03899,5.61265
		C0.03739,5.9768,0.03448,6.34094,0.03438,6.70508C0.03389,8.45229,0.03454,10.1995,0.03267,11.9467
		c-0.00007,0.06465,0.02946,0.13762-0.03044,0.19447C0.00223,8.38024,0.00223,4.6193,0.00223,0.85837z"/>
	<path fill="#535F69" d="M0.51322,0.16137c0.12235-0.12678,0.29966-0.10109,0.44694-0.15873c1.33045,0,2.6609,0,3.99135,0
		C4.9517,0.01322,4.95189,0.0238,4.95209,0.03437C4.95125,0.04471,4.95065,0.05505,4.9503,0.06541
		C4.87792,0.12859,4.78917,0.1099,4.70599,0.10999C3.49928,0.11117,2.29256,0.11113,1.08584,0.1103
		C0.93668,0.1102,0.78831,0.10607,0.64833,0.17148C0.60385,0.19226,0.55576,0.19706,0.51322,0.16137z"/>
	<path fill="#6D6F70" d="M27.46357,0.03379c-0.0007-0.01037-0.00097-0.02075-0.00084-0.03114c0.05322,0,0.10644,0,0.15965,0
		c0.00477,0.00845,0.00703,0.01751,0.00677,0.02719c-0.05474,0.03184-0.11032,0.02635-0.16631,0.00376L27.46357,0.03379z"/>
	<path fill="#3B4850" d="M27.46285,0.0336c0.05543-0.00125,0.11086-0.0025,0.1663-0.00376
		c0.46983,0.08879,0.87943,0.30045,1.24523,0.60143C28.7823,0.63112,28.7152,0.56895,28.6505,0.5223
		c-0.34579-0.24934-0.72107-0.41911-1.14997-0.46179C27.4872,0.05919,27.47537,0.04291,27.46285,0.0336z"/>
	<path fill="#3B4850" d="M29.73969,1.45488c-0.10353-0.03845-0.16411-0.12844-0.23323-0.20361
		c-0.201-0.21858-0.44641-0.39197-0.63508-0.62243C29.20499,0.85843,29.48769,1.14075,29.73969,1.45488z"/>
	<path fill="#3B4850" d="M30.27271,2.15781c-0.17545-0.14113-0.26955-0.34739-0.41418-0.51375
		c-0.04775-0.05493-0.13726-0.09399-0.12126-0.19205C29.9408,1.66854,30.13243,1.89399,30.27271,2.15781z"/>
	<path fill="#3B4850" d="M30.63007,2.69461c-0.07082-0.02638-0.10718-0.07552-0.10201-0.15211
		C30.58469,2.57825,30.60925,2.63519,30.63007,2.69461z"/>
	<path fill="#424F5A" d="M31.9337,6.50028c-0.10656,1.00702-0.46352,1.93549-0.88873,2.84579
		c-0.32947,0.70535-0.72865,1.36769-1.21534,1.97337c-0.41051,0.51089-0.8784,0.96992-1.46286,1.29003
		c-0.37669,0.20631-0.78492,0.32152-1.21534,0.32196c-3.32332,0.00342-6.64664,0.00178-9.96995,0.0017
		c0,0-0.00091,0.0007-0.00091,0.0007c-0.01482-0.01517-0.03674-0.02654-0.04513-0.04428
		c-0.13181-0.27868-0.36867-0.32082-0.65061-0.32057C11.424,12.57351,6.36316,12.57229,1.30231,12.57221
		c-0.08513,0-0.17038,0.00278-0.25537-0.00299c-0.30968-0.02101-0.55768-0.26522-0.58142-0.57249
		c-0.00611-0.07905-0.0035-0.15839-0.0035-0.23761C0.46194,9.94739,0.45873,8.13564,0.46534,6.32394
		C0.46637,6.0417,0.43242,5.79642,0.15056,5.65479c-0.01427-0.00717-0.0192-0.02488-0.02751-0.03832
		C0.10778,5.56468,0.11482,5.51153,0.1148,5.45902c-0.00042-1.4521-0.00039-2.90421-0.00022-4.35631
		c0.00001-0.12117,0.00276-0.2433,0.03585-0.36013c0.12909-0.45583,0.42904-0.65933,0.97356-0.65984
		C2.3529,0.08156,3.58181,0.08222,4.81071,0.08292c0.04691,0.00003,0.09602-0.01194,0.1405,0.01458
		c0.01051,0.01072,0.02102,0.02144,0.03154,0.03216c0.04393,0.02453,0.06521,0.06849,0.09254,0.10706
		C5.1609,0.35755,5.27964,0.41779,5.4264,0.42692C5.51143,0.43221,5.5966,0.42997,5.6817,0.42997
		c7.02804,0.00009,14.0561,0.00484,21.08411-0.009c0.55959-0.0011,1.03732,0.15907,1.51236,0.41168
		c0.69653,0.3704,1.19527,0.93627,1.64113,1.56428c0.4392,0.61864,0.72254,1.31442,1.03112,1.99804
		c0.20485,0.45381,0.37769,0.91994,0.48063,1.4078c0.05554,0.26326,0.19676,0.47297,0.37411,0.66566
		C31.83909,6.51448,31.8895,6.49503,31.9337,6.50028z"/>
	<path fill="#283740" d="M31.80517,6.46842c-0.26312-0.1191-0.35269-0.36258-0.40734-0.60971
		c-0.16987-0.76818-0.50332-1.47295-0.82269-2.18474c-0.25171-0.561-0.56837-1.07978-0.93422-1.57536
		c-0.54561-0.73908-1.25753-1.24024-2.11513-1.55618c-0.13318-0.04906-0.26401-0.0655-0.40344-0.06548
		c-7.2101,0.00127-14.42021,0.00113-21.63031,0.00107c-0.29307,0-0.45697-0.11246-0.50927-0.34837
		c0.04703-0.05205,0.1096-0.03118,0.1655-0.03119c7.40233-0.00088,14.80466-0.00235,22.20697,0.00329
		c0.4217,0.00032,0.80478,0.17117,1.15921,0.39433c0.66939,0.42146,1.18569,0.99114,1.63647,1.6322
		c0.35985,0.51174,0.67536,1.04657,0.94751,1.60721c0.36498,0.75187,0.64383,1.53373,0.79572,2.35658
		c0.01795,0.09726,0.00464,0.20014,0.00652,0.3004C31.90194,6.45954,31.8576,6.46865,31.80517,6.46842z"/>
	<path fill="#4A5661" d="M4.95122,0.0975c-1.25567,0.0001-2.51134,0.0003-3.76701,0.00016
		C1.02403,0.09764,0.8701,0.13149,0.71594,0.17132C0.37851,0.2585,0.22927,0.50363,0.16579,0.81589
		c-0.03027,0.1489-0.03787,0.30127-0.03754,0.45485c0.00304,1.447,0.00191,2.89402,0.00198,4.34103
		c-0.0104,0.01179-0.02142,0.01181-0.03297,0.00172c0,0,0.00049-0.0008,0.00049-0.0008
		c0.00006-1.53811,0.0028-3.07624-0.00196-4.61434c-0.001-0.32288,0.10355-0.58329,0.36878-0.77567
		C0.48494,0.2079,0.49719,0.18206,0.51322,0.16137c0.38706-0.15704,0.79334-0.08996,1.19174-0.09282
		C2.7867,0.06078,3.86853,0.0656,4.95032,0.06542C4.95061,0.0761,4.95091,0.0868,4.95122,0.0975z"/>
	<path fill="#5A6875" d="M0.09725,5.61349c0.01099-0.00057,0.02198-0.00114,0.03297-0.00171
		C0.43904,5.73879,0.5131,5.85037,0.5131,6.18894c0.00001,1.90594,0.00714,3.81194-0.00686,5.71779
		c-0.0024,0.32625,0.29429,0.62198,0.62994,0.62136c5.16492-0.00953,10.32987-0.00663,15.49481-0.00656
		c0.3215,0,0.46357,0.10683,0.5496,0.41229C11.82497,12.93369,6.46935,12.9336,1.11373,12.9333
		c-0.47312-0.00003-0.80101-0.20766-0.95533-0.61467C0.11012,12.1913,0.09768,12.05395,0.0977,11.9164
		C0.09801,9.81543,0.09754,7.71446,0.09725,5.61349z"/>
	<path fill="#CC5861" d="M0.06876,12.39443c-0.02401-0.05257-0.05062-0.10458-0.03692-0.16551
		C0.06625,12.27919,0.10848,12.32781,0.06876,12.39443z"/>
	<path fill="#666666" d="M3.38579,0.9526c0.04797-0.04991,0.11018-0.03007,0.16632-0.03008
		c7.90207-0.00084,15.80415-0.00151,23.70622,0.00154c0.36238,0.00014,0.68201,0.15794,0.96575,0.36618
		c0.59546,0.43702,1.05556,0.99767,1.45361,1.61368c0.31789,0.49196,0.59619,1.0055,0.82532,1.54155
		c0.11344,0.26541,0.26991,0.51588,0.34875,0.78898c0.07344,0.25438,0.14542,0.51382,0.187,0.77888
		c0.05887,0.37525,0.03048,0.74279-0.06082,1.10878c-0.01301,0.05215-0.02296,0.10266-0.06625,0.13923
		c-0.05049-0.05618-0.02285-0.1198-0.01498-0.18008c0.019-0.14546,0.04891-0.28926,0.06848-0.43476
		c0.01269-0.09427-0.01907-0.1381-0.11826-0.13454c-0.07899,0.00284-0.15833,0.00273-0.23748-0.00148
		c-0.05026-0.00187-0.09926-0.01095-0.14724-0.02533c-0.04008-0.00481-0.08033-0.0079-0.12079-0.00904
		c-0.01639,0.00012-0.03259-0.00144-0.04877-0.00375c-0.05665-0.00992-0.11242-0.02523-0.17062-0.02594
		c-0.24808-0.03357-0.49199-0.08607-0.73217-0.15574C28.99284,6.17552,28.6541,5.96596,28.368,5.6704
		c-0.35165-0.36328-0.73865-0.68072-1.18213-0.93119c-0.39859-0.22511-0.8368-0.3328-1.2711-0.45522
		c-0.75894-0.21392-1.53248-0.34963-2.31692-0.42741c-0.06899-0.00684-0.13802-0.00657-0.2071-0.00658
		c-0.61671-0.00017-1.23344,0.00198-1.85014-0.00086c-0.37456-0.00173-0.66671-0.14906-0.84915-0.48704
		c-0.20085-0.37207-0.55668-0.44796-0.93555-0.46054c-0.32397-0.01076-0.64855-0.00158-0.97285-0.00287
		c-0.07377-0.00029-0.14952,0.00926-0.21875-0.02783c-0.06447-0.0567-0.0521-0.13421-0.05084-0.20575
		c0.00259-0.14761-0.00632-0.29396-0.03936-0.4377c-0.05533-0.24068-0.20967-0.3976-0.44079-0.47408
		c-0.23075-0.07635-0.43664-0.00443-0.62472,0.13297c-0.03099,0.02264-0.04974,0.05381-0.05496,0.09234
		c-0.0099,0.03226-0.03355,0.05392-0.06117,0.06947c-0.22483,0.12656-0.33061,0.33037-0.37863,0.5723
		c-0.00674,0.0316-0.00531,0.06349-0.00826,0.09498c-0.01439,0.15326-0.04501,0.18429-0.21455,0.1874
		c-0.31384,0.00576-0.62779,0.00271-0.94168,0.00134c-0.11652-0.00051-0.23427,0.01348-0.34903-0.01818
		c-0.0861-0.03826-0.08033-0.11756-0.07998-0.19017c0.00075-0.15347-0.00413-0.30604-0.03682-0.45666
		c-0.05283-0.24347-0.2046-0.40337-0.43635-0.48322c-0.23165-0.07982-0.43923-0.00881-0.6292,0.12888
		c-0.03113,0.02257-0.05078,0.05357-0.05667,0.09223c-0.00942,0.03212-0.03248,0.05401-0.05991,0.06956
		c-0.22198,0.12579-0.33241,0.32459-0.3781,0.56642c-0.03288,0.28924-0.03288,0.28964-0.32938,0.28999
		c-0.32973,0.00038-0.65947,0.00024-0.9892-0.00005c-0.31758-0.00028-0.59433-0.10895-0.77493-0.36812
		c-0.26182-0.37572-0.59733-0.50293-1.05914-0.49681C8.81592,2.06122,7.06069,2.04839,5.30565,2.04673
		C4.8053,2.04626,4.47459,1.7924,4.33713,1.3128c-0.00946-0.06628-0.00903-0.13298-0.0078-0.19957
		c-0.00699-0.10285-0.0828-0.10969-0.16014-0.11084C3.97288,0.99945,3.77652,1.00327,3.58022,1.00031
		C3.51252,0.9993,3.44047,1.00886,3.38579,0.9526z"/>
	<path fill="#8A8A8A" d="M3.19462,12.0487c-0.67004-0.00022-1.34013-0.00492-2.01008,0.00278
		c-0.1491,0.00171-0.1982-0.0312-0.19794-0.18854c0.00484-2.8767,0.00017-5.75342,0.00943-8.6301
		c0.00081-0.25046,0.02413-0.50352,0.03044-0.75568C1.0997,2.38284,1.20495,2.40152,1.30429,2.39922
		c0.06158-0.00036,0.12326-0.00151,0.1848,0.00374c0.06145,0.00626,0.11966,0.02461,0.17687,0.04709
		C1.73302,2.48031,1.7902,2.52437,1.84333,2.57446c0.15775,0.1385,0.18878,0.31989,0.1886,0.51742
		C2.03032,4.81305,2.03101,6.53423,2.03085,8.2554c-0.00002,0.21358,0.01846,0.42386,0.1369,0.60971
		C2.365,9.17463,2.66045,9.30202,3.01956,9.303c0.5532,0.0015,1.1064-0.00012,1.6596,0.00065
		c0.47755,0.00067,0.68757,0.1657,0.80648,0.62006c0.09142,0.34929,0.32647,0.55784,0.67365,0.64746
		c0.12469,0.03219,0.25259,0.03204,0.38051,0.03202c2.08514-0.00037,4.17029-0.00029,6.25544-0.00021
		c0.07446,0,0.14902-0.00233,0.22334,0.00323c0.34412,0.02577,0.60514,0.28278,0.63141,0.62442
		c0.00809,0.10521,0.00624,0.211,0.00078,0.31641c-0.00071,0.06474,0.00122,0.12962-0.00188,0.19444
		c0.00032,0.0184,0.00004,0.03678-0.00009,0.05519c0.00303,0.0469-0.00007,0.09367-0.00173,0.14062
		c-0.00535,0.04939-0.00426,0.10213-0.06444,0.12318c-3.42088,0.00232-6.84167,0.00036-10.26246,0.00066
		C3.27816,12.06113,3.23479,12.0692,3.19462,12.0487z"/>
	<path fill="#686868" d="M30.59195,6.4681c0.05791-0.00001,0.11583-0.00002,0.17374-0.00002
		c0.29122,0,0.29029-0.00017,0.23576,0.2884c-0.03174,0.16794-0.05997,0.33654-0.08978,0.50485
		C30.80126,7.71,30.6627,8.14884,30.46946,8.57041c-0.1884,0.41102-0.38066,0.82022-0.6133,1.20838
		c-0.25687,0.42857-0.53831,0.84089-0.87104,1.21676c-0.15387,0.17382-0.29804,0.35685-0.50089,0.48
		c-0.04473,0.02878-0.08352,0.06539-0.12751,0.09515c-0.10619,0.07403-0.21237,0.14805-0.31856,0.22208
		c-0.07991,0.05307-0.1688,0.08828-0.25607,0.1267l0.00009-0.00004c-0.04639,0.0382-0.11075,0.03166-0.15981,0.06321
		l-0.01555,0.00051L27.59125,11.983c-0.22993,0.09437-0.47224,0.07786-0.71264,0.07845
		c-0.06834,0.00017-0.13668-0.00026-0.20471,0.00024c-0.09977-0.02256-0.03658-0.07801-0.00784-0.09364
		c0.17829-0.09695,0.23916-0.27609,0.32649-0.43775c0.09696-0.17949,0.23771-0.3238,0.43653-0.37189
		c0.75274-0.18206,1.23101-0.70854,1.64996-1.29707c0.62834-0.88269,1.06989-1.85812,1.39101-2.88899
		C30.52172,6.80645,30.52241,6.62921,30.59195,6.4681z"/>
	<path fill="#67696A" d="M26.63243,12.04572c0.32124,0.0038,0.64277,0.01195,0.95881-0.06272
		c-0.09234,0.08928-0.21722,0.06827-0.32815,0.09292c-0.0456,0.01013-0.09536,0.00182-0.14323,0.00182
		c-7.9034,0.00001-15.8068,0.00009-23.71021-0.00125c-0.07162-0.00001-0.14945,0.02619-0.21505-0.02781
		c0.07445-0.00112,0.1489-0.00324,0.22335-0.00325c3.39457-0.00044,6.78915-0.00069,10.18372-0.00096
		c0.07796-0.06203,0.17114-0.04966,0.26051-0.0498c0.70219-0.00109,1.40438-0.00058,2.10656-0.00058
		c3.45243-0.00001,6.90485-0.00028,10.35728,0.00124C26.42944,11.99537,26.54058,11.96845,26.63243,12.04572z"/>
	<path fill="#6F6F6F" d="M1.66254,2.47606C1.60931,2.46484,1.55608,2.45363,1.50285,2.44241
		C1.4563,2.39123,1.45581,2.32757,1.45556,2.2646C1.45451,2.00264,1.4538,1.74068,1.45592,1.47872
		c0.0006-0.07374,0.01523-0.14557,0.02831-0.21786c0.03765-0.20822,0.17483-0.29953,0.37452-0.31967
		c0.11582,0.00104,0.23237-0.01814,0.3472,0.01186C2.59923,0.95291,2.99253,0.95277,3.3858,0.95261
		c0.27891,0.00034,0.55807,0.00747,0.83665-0.00197c0.13002-0.0044,0.17184,0.04248,0.15402,0.16145
		C4.3044,1.17319,4.21651,1.16066,4.13273,1.16082c-0.62667,0.0012-1.25334-0.00008-1.88001,0.00086
		C1.79801,1.16237,1.71404,1.24644,1.71262,1.69764C1.712,1.89268,1.71411,2.08773,1.71154,2.28274
		C1.71065,2.35024,1.71807,2.42148,1.66254,2.47606z"/>
	<path fill="#666768" d="M2.20594,0.95305C2.08872,0.95337,1.97149,0.95369,1.85427,0.95401
		C1.77356,0.98167,1.68718,0.99897,1.60533,0.99628C1.45099,0.99121,1.40278,1.07126,1.38418,1.20366
		c-0.04655,0.33126-0.01221,0.66388-0.02401,0.9956c-0.00296,0.0831,0.0135,0.17059-0.04901,0.24203
		c-0.09644-0.00004-0.19308-0.00168-0.2847,0.03586C0.94123,2.02319,0.96643,1.56409,0.95717,1.10627
		C0.95416,0.95748,1.00672,0.91479,1.15074,0.91904c0.30174,0.0089,0.60394,0.00199,0.90595,0.00339
		C2.10758,0.92267,2.1641,0.90547,2.20594,0.95305z"/>
	<path fill="#67696A" d="M27.78209,11.91948c0.07461-0.06363,0.16114-0.10352,0.25607-0.12671
		C27.97313,11.87549,27.88553,11.91326,27.78209,11.91948z"/>
	<path fill="#67696A" d="M27.62237,11.98265c0.04155-0.05026,0.09722-0.06536,0.15981-0.06321
		C27.74982,11.99261,27.68409,11.98263,27.62237,11.98265z"/>
	<path fill="#67696A" d="M28.35672,11.5707c0.02815-0.05067,0.06299-0.09251,0.12752-0.09514
		C28.45651,11.52678,28.42136,11.5682,28.35672,11.5707z"/>
	<path fill="#797979" d="M13.60549,11.57088c-0.00198-0.13711,0.01322-0.27708-0.0094-0.41075
		c-0.05212-0.30797-0.31251-0.50831-0.63729-0.50836c-2.18027-0.00033-4.36054-0.00359-6.54079,0.00253
		c-0.47024,0.00132-0.93796-0.3294-0.99798-0.79318C5.3793,9.54629,5.10847,9.35267,4.78499,9.35234
		C4.17877,9.35173,3.57255,9.35338,2.96633,9.35176C2.52694,9.35059,2.15144,9.08661,2.03562,8.69649
		C2.00134,8.58103,1.98075,8.46268,1.98086,8.33996c0.00159-1.73651-0.00137-3.47304,0.0042-5.20953
		c0.00069-0.21635-0.03283-0.40675-0.19462-0.56068c0.02271-0.31539,0.00823-0.6313,0.01367-0.94693
		c0.00488-0.28335,0.08821-0.3688,0.37283-0.37009c0.66284-0.003,1.3257-0.00145,1.98855-0.00051
		c0.07384,0.00011,0.14988-0.00426,0.21131,0.04984C4.5375,1.78699,4.82743,1.99932,5.32895,1.99932
		c1.84087,0.00001,3.68176,0.00383,5.5226-0.00385c0.29911-0.00125,0.5009,0.13225,0.67586,0.3468
		c0.12579,0.15424,0.23757,0.32199,0.43013,0.41104c0.13719,0.06344,0.27522,0.10401,0.42786,0.10272
		c0.36176-0.00306,0.72374-0.00737,1.08528,0.00216c0.14483,0.00382,0.22633-0.02239,0.1985-0.18571
		c-0.00609-0.03576-0.00404-0.07446,0.02656-0.10336c0.07856,0.07815,0.0529,0.17847,0.05303,0.27031
		c0.00186,1.24062,0.00122,2.48125,0.00123,3.72188c0.00001,1.20367-0.00006,2.40734,0.00009,3.61101
		c0.00001,0.10025-0.00304,0.20082,0.02508,0.29882c0.06806,0.23721,0.21734,0.4015,0.45953,0.45999
		c0.23955,0.05785,0.45291-0.00439,0.62445-0.18757c0.03989-0.0426,0.07268-0.09104,0.1128-0.13275
		c0.10901-0.03477,0.20442-0.08483,0.22807-0.21146c0.02599-0.08986,0.07047-0.17226,0.10243-0.25991
		c0.02346-0.07806,0.0128-0.15779,0.01283-0.23645c0.00064-2.25301,0.00031-4.50602,0.00121-6.75904
		c0.00004-0.08878-0.01503-0.1798,0.02308-0.26574c0.00707-0.00775,0.01423-0.01545,0.0214-0.02314
		c0.42951-0.00001,0.85915-0.0061,1.28845,0.00318c0.15621,0.00338,0.24558-0.025,0.21279-0.20192
		c-0.00575-0.03104,0.00112-0.06315,0.02661-0.08722c0.07856,0.07815,0.05289,0.17847,0.05303,0.27031
		c0.00186,1.24062,0.00122,2.48125,0.00123,3.72188c0.00002,1.20367-0.00007,2.40734,0.00009,3.61101
		c0.00001,0.10025-0.00304,0.20082,0.02508,0.29882c0.06806,0.23721,0.21734,0.4015,0.45954,0.45999
		c0.23956,0.05785,0.45291-0.00439,0.62445-0.18758c0.03989-0.0426,0.07268-0.09104,0.1128-0.13274
		c0.109-0.03477,0.20442-0.08482,0.22807-0.21146c0.02599-0.08986,0.07047-0.17226,0.10243-0.25991
		c0.02347-0.07806,0.01281-0.15779,0.01283-0.23645c0.00063-2.25301,0.00031-4.50601,0.00121-6.75902
		c0.00003-0.08878-0.01502-0.1798,0.02306-0.26575c0.00707-0.00776,0.01423-0.01545,0.02139-0.02315
		c0.40933-0.00001,0.81897-0.00971,1.22788,0.00314c0.30979,0.00974,0.61297,0.06121,0.83481,0.31519
		c0.03862,0.04421,0.07552,0.08757,0.10077,0.14074c0.16317,0.34366,0.44875,0.48929,0.81878,0.49113
		c0.46779,0.00232,0.9358,0.0092,1.40336-0.00134c0.82629-0.01863,1.63342,0.10968,2.4322,0.29913
		c0.52438,0.12437,1.05068,0.24485,1.54931,0.4584c0.36371,0.15577,0.68185,0.37864,0.98954,0.6218
		c0.28297,0.22362,0.50699,0.50957,0.79472,0.72715c0.31579,0.2388,0.68498,0.349,1.06541,0.42974
		c0.12366,0.02624,0.24922,0.04364,0.37391,0.06508c0.03752,0.04946,0.01701,0.10122,0.00472,0.15179
		c-0.30079,1.23819-0.82539,2.3724-1.61701,3.37758c-0.30175,0.38316-0.65859,0.6969-1.15554,0.8279
		c-0.31247,0.08237-0.56095,0.27346-0.71834,0.56536c-0.11433,0.21204-0.2888,0.29384-0.53595,0.29354
		c-4.08549-0.00499-8.17099-0.00346-12.25648-0.00429C13.77742,11.6171,13.68348,11.63513,13.60549,11.57088z"/>
	<path fill="#FEFEFE" d="M15.03874,10.58257c-0.26105,0.43355-0.69462,0.55264-1.05694,0.28799
		c-0.17261-0.12607-0.26452-0.29909-0.27936-0.51082c-0.00553-0.07886-0.00444-0.15825-0.00443-0.2374
		c0.00035-2.47033,0.00097-4.94066,0.00135-7.41098c0.00001-0.04742-0.00236-0.09483-0.00362-0.14225
		c0.0358-0.28885,0.20841-0.47333,0.46168-0.59629c0.02884-0.03711,0.06953-0.04568,0.11344-0.04664
		c0.13277-0.00698,0.1796,0.06586,0.17664,0.18635c-0.00091,0.03684,0.00069,0.07379,0.00069,0.11069
		c-0.0002,2.45136,0.00059,4.90272-0.00016,7.35364c-0.05229,0.36561,0.27427,0.66832,0.59741,0.69841
		c0.01628,0.00605,0.03003,0.01561,0.04164,0.02839c0.03222,0.05551,0.02817,0.1142,0.01575,0.17371
		C15.09033,10.51768,15.07766,10.55806,15.03874,10.58257z"/>
	<path fill="#FEFEFE" d="M18.23182,10.58257c-0.26104,0.43353-0.69464,0.55263-1.05694,0.28799
		c-0.1726-0.12608-0.26452-0.2991-0.27936-0.51082c-0.00553-0.07886-0.00444-0.15825-0.00443-0.2374
		c0.00035-2.47033,0.00097-4.94065,0.00135-7.41098c0.00001-0.04742-0.00236-0.09483-0.00362-0.14225
		c0.03579-0.28884,0.20841-0.47333,0.46168-0.59629c0.02884-0.03711,0.06952-0.04568,0.11343-0.04664
		c0.13277-0.00698,0.17961,0.06585,0.17664,0.18634c-0.00091,0.03684,0.00069,0.07379,0.00069,0.11069
		c-0.0002,2.45136,0.00059,4.90273-0.00015,7.35365c-0.05229,0.36555,0.27421,0.6683,0.59741,0.69841
		c0.01628,0.00605,0.03003,0.01561,0.04164,0.02839c0.03223,0.05552,0.02817,0.1142,0.01575,0.17371
		C18.28342,10.51769,18.27073,10.55806,18.23182,10.58257z"/>
	<path fill="#757575" d="M13.60549,11.57088c4.18539-0.00006,8.37079-0.00148,12.55617,0.00385
		c0.20885,0.00027,0.35035-0.07036,0.43975-0.245c0.17852-0.34873,0.47684-0.54813,0.84228-0.64166
		c0.4516-0.11558,0.75606-0.42252,1.03158-0.75655c0.70179-0.85081,1.15123-1.83629,1.49617-2.87207
		c0.07116-0.21368,0.11621-0.43592,0.17329-0.65422c0.05325,0.01043,0.10651,0.02086,0.15976,0.03129
		c0.06598,0.16632-0.01089,0.32446-0.05239,0.47375c-0.1443,0.51909-0.33947,1.02117-0.58834,1.50114
		c-0.15297,0.295-0.28386,0.60255-0.47056,0.87865c-0.19998,0.29574-0.37927,0.60809-0.62642,0.86909
		c-0.34447,0.36376-0.72424,0.67526-1.23123,0.79988c-0.26838,0.06597-0.45168,0.24964-0.55924,0.49869
		c-0.1004,0.23247-0.27799,0.33566-0.52266,0.34591c-0.04253,0.00178-0.08513,0.00103-0.12769,0.00103
		c-4.08651,0.00004-8.17302,0.00016-12.25954-0.00089c-0.0882-0.00002-0.18252,0.02248-0.26088-0.04275
		C13.60553,11.69765,13.60551,11.63426,13.60549,11.57088z"/>
	<path fill="#6B6B6B" d="M26.63243,12.04572c-4.34356-0.00041-8.68712-0.00081-13.03071-0.00123
		c0.00146-0.04165,0.00295-0.08328,0.00443-0.12492c0.07777-0.06497,0.17183-0.04629,0.26047-0.04638
		c1.10686-0.0012,2.21371-0.00077,3.32057-0.00078c2.9534-0.00001,5.90679,0.00002,8.86019-0.0001
		c0.10104,0,0.20198-0.00789,0.30272-0.01072c0.23092-0.00647,0.38051-0.1364,0.47759-0.31995
		c0.15331-0.28987,0.38339-0.47321,0.69476-0.56544c0.54564-0.16162,0.939-0.52275,1.27166-0.96142
		c0.40783-0.5378,0.74714-1.11267,1.02089-1.73156c0.1865-0.42164,0.3483-0.84981,0.49803-1.28405
		c0.04328-0.12551,0.06226-0.25646,0.08935-0.38561c0.01292-0.06156,0.01578-0.12676,0.06177-0.17703
		c0.03987,0.02141,0.08132,0.03652,0.1278,0.03158c0.00275,0.41062-0.1632,0.78116-0.30091,1.15321
		c-0.29877,0.80722-0.68385,1.57446-1.18778,2.27732c-0.29841,0.41621-0.63511,0.79693-1.07998,1.07051
		c-0.16572,0.10191-0.35158,0.14575-0.5319,0.20455c-0.2249,0.07335-0.39422,0.20646-0.48548,0.42174
		C26.92559,11.7849,26.8116,11.94024,26.63243,12.04572z"/>
	<path fill="#6F6F6F" d="M30.46415,6.43652c-0.00956,0.22172-0.06047,0.43392-0.13014,0.6449
		c-0.11027,0.33392-0.21823,0.66922-0.3628,0.98948c-0.20549,0.45524-0.41697,0.90817-0.68828,1.33096
		c-0.21366,0.33296-0.44673,0.65104-0.70598,0.94969c-0.30211,0.34802-0.68983,0.56471-1.12664,0.70123
		c-0.25126,0.07853-0.43816,0.23334-0.5524,0.46803c-0.1336,0.27444-0.35195,0.40274-0.6559,0.39895
		c-0.19142-0.00239-0.3829-0.00044-0.57435-0.00043c-4.02051,0.00008-8.04102,0.00016-12.06152,0.00024
		c-0.00005-0.04229-0.00011-0.08459-0.00017-0.12689c0.06048-0.03103,0.12544-0.01462,0.18795-0.01464
		c4.12906-0.00094,8.25812-0.00261,12.38718,0.00298c0.28316,0.00038,0.47441-0.08605,0.59757-0.34668
		c0.11713-0.24787,0.31977-0.41306,0.58637-0.50027c0.25108-0.08214,0.50485-0.15903,0.71218-0.33652
		c0.24508-0.20981,0.48218-0.4293,0.6761-0.68533c0.20918-0.27618,0.40516-0.56376,0.57155-0.8685
		c0.40526-0.74222,0.76522-1.50338,0.96708-2.329c0.02239-0.09158,0.01365-0.18804,0.04457-0.27825
		C30.37906,6.43648,30.4216,6.4365,30.46415,6.43652z"/>
	<path fill="#717171" d="M30.33651,6.43646c0.01349,0.44056-0.18185,0.82896-0.31965,1.23007
		c-0.15895,0.4627-0.38597,0.89829-0.62319,1.32396c-0.36748,0.65943-0.80122,1.27286-1.42528,1.72851
		c-0.14551,0.10624-0.31424,0.1527-0.4808,0.20313c-0.33716,0.10207-0.57339,0.3084-0.73752,0.61908
		c-0.08125,0.1538-0.21357,0.25537-0.42262,0.25512c-4.2405-0.00501-8.481-0.0037-12.72149-0.00366
		c-0.00079-0.01054-0.00093-0.02109-0.00041-0.03164c4.19205-0.00007,8.38409-0.00086,12.57613,0.0014
		c0.27936,0.00015,0.47062-0.09564,0.57775-0.36829c0.08408-0.21398,0.25416-0.37298,0.47449-0.44841
		c0.29841-0.10216,0.59131-0.20802,0.85473-0.3871c0.11707-0.07959,0.18172-0.20137,0.28499-0.29142
		c0.39013-0.34018,0.64762-0.77962,0.90296-1.21909c0.38214-0.6577,0.6955-1.34617,0.91429-2.07443
		c0.05249-0.17473,0.07651-0.35788,0.11362-0.53716C30.31517,6.43651,30.32584,6.43649,30.33651,6.43646z"/>
	<path fill="#757575" d="M4.37679,1.30206c-0.74221,0-1.48441-0.00017-2.22662,0.00011
		c-0.23998,0.00009-0.29564,0.05662-0.29589,0.2989C1.85399,1.86943,1.85433,2.1378,1.85412,2.40616
		C1.85407,2.46861,1.86528,2.53581,1.79043,2.56975C1.7478,2.53851,1.70517,2.50727,1.66254,2.47604
		c0.00003-0.29985-0.00107-0.59973,0.0004-0.89959c0.00167-0.33958,0.12702-0.46369,0.47152-0.46418
		C2.8818,1.1112,3.62914,1.11203,4.37648,1.11209C4.37658,1.17542,4.37669,1.23874,4.37679,1.30206z"/>
	<path fill="#5C5D5F" d="M17.43394,1.96607c-0.02781,0.00225-0.05562,0.0045-0.08344,0.00675
		c-0.07936-0.01161-0.05131-0.04437-0.01564-0.0785c0.23743-0.22716,0.64703-0.31213,0.95332-0.05219
		c0.20151,0.17101,0.24837,0.39387,0.26428,0.63291c0.0084,0.12616,0.00154,0.25332,0.00157,0.38003
		c0,0,0.00031,0.00033,0.00031,0.00033c-0.01454,0.01174-0.0303,0.02154-0.04723,0.02959
		c-0.07459,0.01769-0.14786,0.02227-0.21589-0.02241c-0.04715-0.06225-0.03246-0.13526-0.03608-0.20499
		c-0.00267-0.06186,0.01263-0.12585-0.02141-0.18423c-0.08931-0.2387-0.24421-0.41014-0.49868-0.4797
		C17.63553,1.97421,17.53913,1.92366,17.43394,1.96607z"/>
	<path fill="#5C5D5F" d="M14.24086,1.96607c-0.02781,0.00225-0.05562,0.0045-0.08343,0.00675
		c-0.07936-0.01161-0.05131-0.04437-0.01564-0.0785c0.23743-0.22716,0.64703-0.31212,0.95332-0.0522
		c0.20151,0.17101,0.24834,0.39389,0.2643,0.63292c0.00842,0.12616,0.00154,0.25332,0.00157,0.38003
		c0,0,0.00029,0.00033,0.00029,0.00033c-0.01454,0.01174-0.0303,0.02154-0.04724,0.02959
		c-0.07459,0.01769-0.14786,0.02227-0.21589-0.0224c-0.04716-0.06225-0.03246-0.13526-0.03608-0.20499
		c-0.00267-0.06186,0.01262-0.12585-0.02141-0.18423c-0.0893-0.23871-0.24422-0.41014-0.49868-0.4797
		C14.44245,1.97421,14.34605,1.92366,14.24086,1.96607z"/>
	<path fill="#6A6A6A" d="M1.31115,2.44129c0.00008-0.29481,0.00016-0.58961,0.00024-0.88442c0.00001-0.02106,0-0.04212,0-0.06317
		C1.3114,0.95146,1.3114,0.95146,1.85427,0.954C1.53821,1.03586,1.49843,1.27674,1.50206,1.54759
		c0.004,0.29823,0.00084,0.59656,0.00079,0.89484C1.43895,2.44204,1.37505,2.44166,1.31115,2.44129z"/>
	<path fill="#616365" d="M18.29409,2.85534c0.07603-0.00008,0.15206-0.00015,0.22809-0.00023
		c0.02807,0.04948,0.01475,0.10343,0.01476,0.15516c0.00074,2.34743,0.00074,4.69486-0.00001,7.04229
		c-0.00002,0.0517,0.01348,0.10569-0.01503,0.15507c-0.04238,0.06958-0.07743,0.14227-0.0956,0.22211
		c-0.03129,0.04628-0.06425,0.09598-0.11402,0.11907c-0.06276,0.02911-0.06788-0.00883-0.04663-0.05788
		c0.00022-0.06265,0.00044-0.1253,0.00066-0.18795c-0.02168-0.04521-0.01308-0.09344-0.01307-0.14047
		c0.00068-2.34912-0.00043-4.69824,0.00121-7.04736C18.25452,3.02773,18.23117,2.93432,18.29409,2.85534z"/>
	<path fill="#616365" d="M15.10101,2.85534c0.07603-0.00007,0.15206-0.00015,0.22809-0.00022
		c0.02807,0.04948,0.01475,0.10344,0.01477,0.15516c0.00074,2.34743,0.00074,4.69486-0.00001,7.04229
		c-0.00002,0.0517,0.01348,0.10569-0.01503,0.15507c-0.04238,0.06958-0.07744,0.14226-0.0956,0.22211
		c-0.03129,0.04628-0.06425,0.09598-0.11402,0.11907c-0.06276,0.02911-0.06787-0.00883-0.04663-0.05788
		c0.00022-0.06265,0.00043-0.1253,0.00065-0.18795c-0.02168-0.04521-0.01308-0.09344-0.01307-0.14047
		c0.00069-2.34912-0.00043-4.69824,0.00122-7.04736C15.06144,3.02773,15.0381,2.93432,15.10101,2.85534z"/>
	<path fill="#6A6B6C" d="M15.32883,10.20763c0.00009-2.45084,0.00018-4.90168,0.00027-7.35252
		c0.01072,0.00009,0.02144,0.00019,0.03217,0.00028c-0.00007,2.3855,0.00011,4.77099-0.00152,7.15649
		C15.3597,10.07719,15.38666,10.15001,15.32883,10.20763z"/>
	<path fill="#6A6B6C" d="M18.52191,10.20763c0.00009-2.45084,0.00018-4.90168,0.00027-7.35252
		c0.01072,0.00009,0.02144,0.00019,0.03216,0.00028c-0.00007,2.3855,0.00011,4.77099-0.00152,7.15648
		C18.55278,10.07719,18.57973,10.15001,18.52191,10.20763z"/>
	<path fill="#6A6B6C" d="M15.07258,10.49092c0.00461,0.03622,0.0145,0.06168,0.05498,0.02741
		c0.03508-0.0297,0.07044-0.05908,0.10567-0.0886c-0.01065,0.0948-0.09176,0.13731-0.15242,0.19157
		c-0.03216,0.02877-0.0345-0.01757-0.04207-0.03874C15.05002,10.55202,15.0613,10.52147,15.07258,10.49092z"/>
	<path fill="#6A6B6C" d="M18.26566,10.49092c0.00461,0.03623,0.01451,0.06168,0.05499,0.02741
		c0.03508-0.0297,0.07044-0.05908,0.10567-0.0886c-0.01065,0.0948-0.09175,0.13731-0.15241,0.19157
		c-0.03216,0.02877-0.0345-0.01756-0.04207-0.03873C18.2431,10.55202,18.25438,10.52147,18.26566,10.49092z"/>
	<path fill="#DCDEE0" d="M14.56547,1.96658c0.26625,0.05702,0.40876,0.24367,0.50695,0.47675
		c0.02872,0.04791,0.01672,0.09766,0.00681,0.1474c-0.01012,0.07357-0.00553,0.1475-0.00554,0.22121
		c-0.00027,2.41472-0.00005,4.82943-0.00093,7.24415c-0.00003,0.08304,0.01758,0.16963-0.03103,0.24723
		c-0.35258-0.00808-0.63819-0.30603-0.63848-0.66607c0.03148-0.06002,0.01538-0.12459,0.0154-0.18675
		c0.00096-2.44513,0.00093-4.89026,0.00044-7.33539C14.41907,2.01556,14.40443,1.90727,14.56547,1.96658z"/>
	<path fill="#E4E3E2" d="M15.04174,10.30331C15.04171,7.78594,15.0415,5.26857,15.0427,2.7512
		c0.00003-0.06066-0.02314-0.1276,0.0287-0.18123c0.0241,0.01886,0.01747,0.05014,0.03019,0.0736
		c-0.00019,0.07059-0.00038,0.14117-0.00058,0.21176c-0.00229,0.06311-0.00656,0.12622-0.00657,0.18933
		c-0.00034,2.3521-0.00016,4.70419-0.00091,7.05629c-0.00002,0.06755,0.01439,0.13751-0.02032,0.20202
		c0,0-0.01574,0.00049-0.01574,0.00049L15.04174,10.30331z"/>
	<path fill="#D9DBDE" d="M14.56547,1.96658c-0.10927-0.01467-0.13466,0.03991-0.13229,0.13883
		c0.00558,0.23225,0.00177,0.46471,0.00177,0.69709c0,2.21287,0.00026,4.42575-0.00127,6.63862
		c-0.00004,0.06545,0.02681,0.13819-0.03043,0.19613c-0.00035-2.50003-0.00171-5.00006,0.00187-7.50009
		c0.00018-0.12825-0.03058-0.1883-0.16427-0.17109C14.34915,1.9134,14.45733,1.92483,14.56547,1.96658z"/>
	<path fill="#DCDEE0" d="M17.75856,1.96658c0.26625,0.05702,0.40876,0.24367,0.50695,0.47675
		c0.02872,0.04791,0.01671,0.09766,0.00681,0.1474c-0.01012,0.07357-0.00553,0.1475-0.00554,0.22121
		c-0.00028,2.41472-0.00005,4.82943-0.00094,7.24415c-0.00003,0.08304,0.0176,0.16963-0.03104,0.24722
		c-0.35257-0.00808-0.63817-0.30603-0.63847-0.66607c0.03148-0.06002,0.01538-0.12459,0.01541-0.18675
		c0.00096-2.44513,0.00093-4.89026,0.00044-7.33539C17.61216,2.01555,17.59752,1.90727,17.75856,1.96658z"/>
	<path fill="#E4E3E2" d="M18.2348,10.30331c-0.00003-2.51737-0.00023-5.03474,0.00097-7.55211
		c0.00003-0.06066-0.02313-0.1276,0.0287-0.18123c0.0241,0.01886,0.01748,0.05013,0.03019,0.07359
		c-0.00019,0.07059-0.00038,0.14118-0.00057,0.21177c-0.00229,0.06311-0.00655,0.12622-0.00656,0.18933
		c-0.00034,2.3521-0.00016,4.70419-0.00091,7.05629c-0.00002,0.06755,0.01439,0.13751-0.02031,0.20202l-0.01575,0.00049
		L18.2348,10.30331z"/>
	<path fill="#D9DBDE" d="M17.75856,1.96658c-0.10927-0.01467-0.13467,0.0399-0.1323,0.13883
		c0.00558,0.23225,0.00178,0.46471,0.00178,0.69709c0,2.21288,0.00026,4.42575-0.00128,6.63863
		c-0.00004,0.06545,0.02682,0.13819-0.03044,0.19613c-0.00035-2.50003-0.00171-5.00006,0.00188-7.50009
		c0.00018-0.12825-0.03058-0.1883-0.16427-0.1711C17.54223,1.9134,17.65042,1.92483,17.75856,1.96658z"/>
	<path fill="#616365" d="M18.29467,2.64357c-0.01006-0.02453-0.02012-0.04906-0.03019-0.0736
		c0.00034-0.04222,0.00068-0.08443,0.00103-0.12665C18.32661,2.5027,18.29031,2.57605,18.29467,2.64357z"/>
	<path fill="#616365" d="M15.10159,2.64358c-0.01006-0.02453-0.02013-0.04907-0.03019-0.0736
		c0.00034-0.04222,0.00068-0.08443,0.00103-0.12665C15.13353,2.5027,15.09722,2.57606,15.10159,2.64358z"/>
</g>
</svg>
