<?xml version="1.0" encoding="utf-8"?>
<!-- Generator: Adobe Illustrator 23.0.0, SVG Export Plug-In . SVG Version: 6.00 Build 0)  -->
<svg version="1.1" id="Слой_1" xmlns="http://www.w3.org/2000/svg" xmlns:xlink="http://www.w3.org/1999/xlink" x="0px" y="0px" width="32px" height="13px"
	 viewBox="0 0 32 13" enable-background="new 0 0 32 13" xml:space="preserve">
<g>
	<path fill="#2D2D2D" d="M0.86438,12.99689c-0.02129,0-0.04257,0-0.06386,0c-0.33183-0.05126-0.56626-0.23332-0.72469-0.52323
		c-0.04681-0.08566-0.04517-0.18058-0.07358-0.26911c0-2.20796,0-4.41593,0-6.6239c0.03484-0.02885,0.07491-0.03615,0.11867-0.0287
		c0.30471,0.10753,0.41072,0.26299,0.41096,0.61574c0.00116,1.65234,0.00038,3.30467,0.00055,4.95701
		c0.00003,0.25339-0.00339,0.50683,0.00116,0.76017c0.0063,0.35067,0.20489,0.54537,0.55886,0.55347
		c0.06912,0.00158,0.13828,0.00062,0.20742,0.00062c5.03139,0.00002,10.06278,0.00001,15.09417,0.00004
		c0.07446,0,0.14894-0.00118,0.22337,0.00091c0.30537,0.00858,0.46824,0.1301,0.56346,0.41944
		c0.00416,0.04391-0.00023,0.08515-0.03737,0.11586c-0.06345,0.01024-0.12743,0.00507-0.19116,0.00508
		c-5.29465,0.00028-10.58931,0.00018-15.88396,0.00114C1.00052,12.98146,0.93019,12.9644,0.86438,12.99689z"/>
	<path fill="#262727" d="M31.99691,6.78501c-0.06809,0.03773-0.04715,0.11021-0.0594,0.16591
		c-0.39912,1.81492-1.17801,3.443-2.43218,4.8313c-0.4517,0.50001-0.98541,0.89516-1.64168,1.10545
		c-0.12238,0.03921-0.25887,0.03076-0.36898,0.10923c-0.05322,0-0.10644,0-0.15965,0
		c-0.06033-0.03172-0.1254-0.01548-0.18795-0.0155c-3.31336-0.00108-6.62672-0.00052-9.94008-0.00103
		c-0.02224,0.00184-0.04137-0.00496-0.05738-0.02038c-0.00017-0.02995-0.00034-0.05991-0.00051-0.08987
		c0.08267-0.06982,0.18268-0.04486,0.27569-0.04491c2.59014-0.0014,5.18027-0.00111,7.77041-0.00111
		c0.64355,0,1.2872-0.00727,1.9306,0.00236c0.49167,0.00736,0.93093-0.14304,1.34224-0.3928
		c0.301-0.18277,0.55404-0.4214,0.80717-0.66499c0.73802-0.71021,1.25873-1.56714,1.6928-2.47521
		c0.38063-0.7963,0.69538-1.62145,0.83759-2.5003c0.01682-0.10392,0.00055-0.21207,0.04271-0.31225
		c0.0232-0.0356,0.0571-0.0408,0.09553-0.03289c0.04341,0.0116,0.02779,0.06034,0.05309,0.08344
		C31.99691,6.61598,31.99691,6.7005,31.99691,6.78501z"/>
	<path fill="#1A1A1A" d="M31.96232,6.46722c-0.03099,0.00035-0.06199,0.0007-0.09298,0.00106
		c-0.04772,0.02091-0.07377,0.0121-0.06416-0.04599c0.06061-0.1573,0.01527-0.31387-0.01158-0.46757
		c-0.12272-0.70242-0.36961-1.36663-0.66622-2.01134c-0.40354-0.87713-0.89063-1.70878-1.52856-2.439
		c-0.39678-0.45418-0.846-0.86123-1.39323-1.14126c-0.38106-0.195-0.78998-0.27983-1.21652-0.28014
		c-1.76632-0.00125-3.53264-0.00052-5.29897-0.00052c-5.45857,0-10.91714-0.00002-16.37572,0.00013
		c-0.11167,0-0.22393-0.00668-0.33359,0.02279C4.95084,0.11189,4.92434,0.10824,4.90674,0.07972
		c-0.0107-0.02808-0.00696-0.05389,0.01285-0.07707c7.5676,0,15.1352,0,22.7028,0c0.54725,0.15603,1.03094,0.42411,1.46039,0.79588
		c0.58691,0.50808,1.05576,1.11143,1.46037,1.76595c0.62529,1.0115,1.10946,2.08304,1.37421,3.24577
		c0.02359,0.10358,0.01355,0.21626,0.07955,0.3092c0,0.06339,0,0.12677,0,0.19016
		C31.95632,6.35586,32.00553,6.42153,31.96232,6.46722z"/>
	<path fill="#252525" d="M4.91959,0.00265C4.91953,0.02374,4.91948,0.04483,4.91942,0.06593
		c-0.08125,0.07212-0.18151,0.049-0.2746,0.04914C3.43704,0.11694,2.22925,0.11373,1.02148,0.11741
		c-0.52593,0.0016-0.86555,0.34356-0.87262,0.86541C0.14807,1.0409,0.14857,1.099,0.14857,1.15709
		c-0.00003,1.38363,0.00052,2.76726-0.00112,4.1509c-0.00011,0.09241,0.02312,0.1919-0.04936,0.27262
		C0.06614,5.58063,0.03419,5.58065,0.00225,5.58067c0-1.61636,0-3.23271,0-4.84907c0.05855-0.37618,0.26539-0.62436,0.63862-0.72895
		C2.06711,0.00265,3.49335,0.00265,4.91959,0.00265z"/>
	<path fill="#697681" d="M17.1496,12.95999c0.00971,0.00373,0.01962,0.00684,0.02972,0.00935
		c0.01135,0.00546,0.01536,0.01135,0.0121,0.0177c-0.00336,0.00656-0.00681,0.00985-0.0104,0.00985
		c-5.43888,0-10.87776,0-16.31664,0c0.04292-0.06314,0.1075-0.03102,0.16094-0.03103
		c5.32693-0.00157,10.65386-0.00146,15.98079-0.00165C17.05394,12.96421,17.10177,12.96145,17.1496,12.95999z"/>
	<path fill="#535F69" d="M17.18102,12.99689c-0.00011-0.00922-0.00067-0.01842-0.00169-0.02757
		c0.05315-0.00135,0.1063-0.00391,0.15946-0.00392c3.28301-0.00031,6.56602-0.00052,9.84904,0.0004
		c0.04974,0.00001,0.10786-0.02364,0.14719,0.03109C23.95035,12.99689,20.56568,12.99689,17.18102,12.99689z"/>
	<path fill="#404C56" d="M31.96232,6.46722c0.01474-0.05184-0.02379-0.1152,0.03459-0.1576c0,0.07395,0,0.1479,0,0.22185
		C31.96879,6.51885,31.96571,6.49295,31.96232,6.46722z"/>
	<path fill="#202020" d="M0.09808,5.58061c-0.00002-1.54011-0.00012-3.08022,0-4.62033
		c0.00004-0.51903,0.37744-0.89412,0.8997-0.8942C2.305,0.06589,3.61221,0.06596,4.91942,0.06593
		c0.01064,0.01064,0.02128,0.02128,0.03193,0.03192c0.04366,0.02486,0.0649,0.06882,0.09224,0.10741
		c0.08564,0.12087,0.20449,0.18094,0.35126,0.19C5.4799,0.40051,5.56508,0.39828,5.6502,0.39828
		c7.02902,0.00009,14.05805,0.00474,21.08705-0.0088c0.55949-0.00108,1.03711,0.16021,1.51205,0.41332
		c0.69131,0.36842,1.18742,0.9296,1.63129,1.55254c0.4435,0.62242,0.72928,1.32301,1.03921,2.01193
		c0.17585,0.39087,0.33204,0.78997,0.43041,1.20823c0.07688,0.32684,0.1607,0.64822,0.45496,0.86108
		c0.01393,0.02544,0.0379,0.03087,0.06417,0.03169c0.00679,0.4485-0.11965,0.87264-0.25237,1.29329
		C31.47009,8.22714,31.28036,8.6759,31.0855,9.1251c-0.31538,0.72701-0.72503,1.39095-1.19183,2.02606
		c-0.20607,0.28037-0.46843,0.50803-0.70507,0.75982c-0.29875,0.31787-0.64621,0.55719-1.03588,0.74066
		c-0.29409,0.13847-0.60365,0.22004-0.93493,0.21982c-3.35623-0.00217-6.71246-0.00134-10.06869-0.00135
		c-0.10196-0.29204-0.31434-0.38412-0.6164-0.38384c-5.14297,0.0049-10.28595,0.00073-15.4289,0.00971
		c-0.34754,0.00061-0.63121-0.28369-0.6289-0.61815C0.48795,9.9828,0.47759,8.08761,0.48492,6.19251
		C0.48608,5.89258,0.39217,5.68193,0.09808,5.58061z"/>
	<path fill="#131313" d="M31.80517,6.43658c-0.22489-0.05813-0.3148-0.23908-0.38186-0.43071
		c-0.12856-0.36732-0.19735-0.7517-0.34122-1.11654c-0.1529-0.38775-0.32437-0.76677-0.49199-1.14767
		c-0.26204-0.59546-0.58978-1.15121-0.98067-1.67578c-0.54525-0.73173-1.2497-1.23284-2.10033-1.54995
		c-0.14279-0.05323-0.28385-0.07107-0.43435-0.07104C19.86969,0.44658,12.66463,0.44637,5.45958,0.44632
		c-0.29313,0-0.45802-0.11334-0.50823-0.34847c0.00567-0.04424,0.03182-0.06363,0.07582-0.06307
		c0.04254,0.00054,0.0851-0.00036,0.12766-0.00036c7.30342-0.00002,14.60684-0.00124,21.91026,0.00247
		c0.54106,0.00027,1.03348,0.1684,1.48521,0.47661c0.17302,0.11805,0.33561,0.24957,0.50583,0.37034
		c0.13077,0.09278,0.21323,0.25094,0.3406,0.35049c0.23318,0.18226,0.41112,0.41171,0.5741,0.64783
		c0.25722,0.37263,0.50624,0.75076,0.73422,1.14418c0.39927,0.68901,0.70755,1.41264,0.95337,2.16585
		c0.121,0.37076,0.18998,0.7521,0.24065,1.13742C31.90852,6.40145,31.88471,6.44262,31.80517,6.43658z"/>
	<path fill="#272726" d="M14.08465,0.82671c4.25137,0,8.50274,0.00225,12.75411-0.00236
		c0.65993-0.00072,1.20952,0.22653,1.69654,0.66421c0.61014,0.54833,1.06546,1.20653,1.46827,1.90856
		c0.33678,0.58695,0.61646,1.20002,0.82665,1.84143c0.13392,0.40867,0.26498,0.82044,0.24356,1.26309
		c-0.01674,0.34587-0.10639,0.67478-0.20882,0.9996c-0.13285,0.42128-0.29968,0.82974-0.47768,1.23616
		c-0.33658,0.76855-0.76238,1.47817-1.28302,2.13411c-0.3375,0.42522-0.73886,0.77585-1.22342,1.033
		c-0.32141,0.17057-0.66955,0.20161-1.0176,0.20181c-7.15126,0.00414-14.30253,0.00312-21.4538,0.00312
		c-1.36747,0-2.73493,0-4.1024,0c-0.0266,0-0.05321,0.00007-0.07981-0.00001c-0.31241-0.00092-0.36271-0.05156-0.36272-0.36905
		C0.86437,8.22303,0.86435,4.70568,0.86453,1.18833C0.86455,0.87691,0.91602,0.8268,1.23471,0.8268
		C5.51802,0.82667,9.80133,0.82671,14.08465,0.82671z"/>
	<path fill="#2E3D25" d="M27.84528,1.11155c0.24276,0.16129,0.4981,0.30112,0.71827,0.49888
		c0.26452,0.23761,0.49381,0.50415,0.70574,0.78412c0.37622,0.49702,0.69574,1.03076,0.96552,1.59208
		c0.1687,0.35101,0.32144,0.70935,0.45431,1.07564c0.01993,0.05495,0.03691,0.10989,0.03015,0.16928
		c-0.02907,0.11763-0.05483,0.23621-0.08672,0.35299c-0.1213,0.44422-0.55648,0.78769-0.9837,0.78077
		c-0.55149-0.10405-1.00798-0.36696-1.39686-0.77132c-0.46752-0.48613-1.00508-0.88767-1.65688-1.09672
		c-0.83589-0.2681-1.6879-0.47425-2.56211-0.58571c-0.81674-0.10413-1.63601-0.05052-2.4541-0.05685
		c-0.42186-0.00327-0.73756-0.14734-0.94182-0.52574c-0.12-0.22232-0.32737-0.34237-0.57502-0.38715
		c-0.15156-0.0274-0.30458-0.04309-0.45991-0.04277c-1.03733,0.00211-2.07467,0.00137-3.11201,0.00061
		c-0.0845-0.00006-0.17065,0.01081-0.25272-0.02277c-0.01819-0.01005-0.03145-0.02432-0.04046-0.04285
		c-0.02395-0.06092-0.0185-0.12476-0.01858-0.18768c-0.00067-0.49525-0.00107-0.99051,0.00041-1.48576
		c0.00022-0.07222-0.01447-0.14907,0.04048-0.21177c0.06228-0.02078,0.12659-0.0102,0.18983-0.01021
		c3.60896-0.00059,7.21793-0.00055,10.82675-0.00055c0.08712,0.01209,0.17356,0.02867,0.25965,0.04715l-0.0013-0.00075
		c0.0629,0.02553,0.13273,0.03054,0.19289,0.0642l-0.00102-0.00071C27.73581,1.07736,27.79414,1.08559,27.84528,1.11155z"/>
	<path fill="#455C3D" d="M13.57171,12.01352c-3.51406,0.00028-7.02813,0.00052-10.54219,0.00116
		c-0.06414,0.00001-0.12769,0.00135-0.18584-0.03138c-0.13774-0.0026-0.22047-0.09809-0.29896-0.18797
		c-0.15805-0.18098-0.24034-0.39541-0.25294-0.63582c-0.01337-0.255-0.05329-0.29297-0.31683-0.30892
		C1.53916,10.82422,1.054,10.40575,0.98681,9.99936C0.97732,9.942,0.96588,9.8855,0.98994,9.82916
		C0.9816,9.79562,0.97326,9.76208,0.96493,9.72854c0.02023-0.0456,0.01128-0.09381,0.01129-0.1408
		c0.00047-2.08053,0.00047-4.16106-0.00005-6.24159C0.97616,3.29931,0.9862,3.2509,0.9633,3.20586
		c-0.00084-0.01048-0.0016-0.02097-0.00227-0.03147c0.0531-0.19432,0.14379-0.36998,0.28134-0.51755
		c0.09618-0.10318,0.19932-0.20354,0.35837-0.20125c0.11137,0.0352,0.19839,0.10506,0.27544,0.18973
		c0.11554,0.13513,0.12337,0.29752,0.1233,0.46352C1.99885,4.6348,1.99906,6.16078,1.99911,7.68675
		c0.00001,0.21649-0.00162,0.43299,0.00041,0.64946C2.00487,8.90827,2.39907,9.29979,2.9766,9.30277
		c0.5692,0.00294,1.13843-0.00052,1.70764,0.00112c0.4153,0.0012,0.65036,0.1815,0.76334,0.58078
		c0.13286,0.46954,0.46065,0.71732,0.96074,0.71764c2.11726,0.00135,4.23453,0.00049,6.35179,0.00064
		c0.07978,0.00001,0.15973-0.00296,0.23928,0.0042c0.32825,0.02954,0.59394,0.2965,0.61897,0.62304
		c0.00645,0.08419,0.00591,0.16881,0.00053,0.25309c-0.00101,0.05453,0.00174,0.10927-0.00237,0.16378
		c-0.00057,0.03437,0.00082,0.06888-0.00127,0.10324c0.00021,0.025-0.00016,0.05006-0.0006,0.07509
		c0.00006,0.04138,0.00002,0.0828-0.00657,0.12391C13.6029,11.97455,13.58921,11.99511,13.57171,12.01352z"/>
	<path fill="#2F3D27" d="M13.57171,12.01352c0.0007-0.02074,0.00141-0.04148,0.00211-0.06222
		c0.07245-0.06171,0.16076-0.04655,0.24439-0.04663c1.01591-0.00102,2.03182-0.00064,3.04773-0.00064
		c3.08496-0.00001,6.16993,0,9.25489-0.00003c0.06914,0,0.13832,0.00131,0.20742-0.00152
		c0.20743-0.00849,0.37585-0.08941,0.46232-0.28311c0.15732-0.3524,0.43544-0.54217,0.80088-0.64091
		c0.46435-0.12547,0.78669-0.45411,1.08047-0.80519c0.64988-0.77663,1.0961-1.66794,1.45279-2.60695
		c0.04873-0.12828,0.08826-0.26009,0.15219-0.38227c0.05352-0.05661,0.10056-0.01557,0.13433,0.01936
		c0.16872,0.17444,0.28451,0.37152,0.24492,0.62712c-0.04602,0.27329-0.17383,0.51867-0.28072,0.76905
		c-0.25085,0.58761-0.5555,1.14793-0.91677,1.67741c-0.21125,0.30962-0.43984,0.6085-0.70291,0.87237
		c-0.38911,0.3903-0.81522,0.74001-1.38528,0.84701c-0.05164,0.00969-0.10466,0.01726-0.15704,0.01726
		C22.66621,12.01414,18.11896,12.0138,13.57171,12.01352z"/>
	<path fill="#202020" d="M1.59844,2.47364c-0.29804,0.0835-0.43514,0.32129-0.55726,0.5732
		C1.01912,3.09235,1.01858,3.1509,0.96103,3.17436C0.96075,2.92364,0.96083,2.6729,0.95989,2.42216
		c-0.00022-0.05782-0.0019-0.11523,0.03267-0.16599C0.99402,2.23272,1.00337,2.21258,1.0184,2.19476
		c0.12498-0.10685,0.25762-0.20132,0.41805-0.24997c0.04147-0.01191,0.08423-0.01887,0.12558-0.03147
		c0.0472-0.01343,0.09756-0.01138,0.14376-0.0297c0.01257-0.00642,0.02525-0.01237,0.0377-0.01888
		C1.81383,1.81701,1.80556,1.73684,1.8265,1.66873c0.04451-0.14481,0.08338-0.29174,0.15891-0.42518
		c0.03311-0.04751,0.06524-0.09579,0.10263-0.14029c0.01987-0.0211,0.0433-0.03796,0.06653-0.05503
		C2.19284,1.01671,2.22627,0.97935,2.2693,0.95351c0.04153-0.04843,0.09827-0.03087,0.14913-0.03104
		c0.34482-0.00116,0.68965-0.0003,1.03448-0.00009C3.46366,0.93573,3.4682,0.95091,3.46662,0.96792
		c-0.03229,0.08869-0.10926,0.11006-0.1904,0.11732C3.20149,1.09193,3.12916,1.10435,3.06,1.13286
		C2.99063,1.15943,2.92219,1.18802,2.86177,1.23239C2.79068,1.28726,2.71375,1.33508,2.6552,1.40492
		C2.43111,1.5747,2.34997,1.8074,2.34155,2.07824c-0.00753,0.2422-0.10014,0.32568-0.35609,0.34418
		C1.85197,2.40595,1.73134,2.48595,1.59844,2.47364z"/>
	<path fill="#202020" d="M30.65616,7.83053c-0.04389-0.26-0.1162-0.50522-0.35124-0.66588
		c-0.04499-0.00592-0.07141-0.04037-0.10366-0.06586c-0.02098-0.01693-0.04395-0.03109-0.06669-0.0456
		c-0.02833-0.01942-0.05631-0.03933-0.08756-0.05431c-0.05394-0.02794-0.11095-0.0472-0.16981-0.06228
		c-0.13714-0.04257-0.27551-0.07225-0.42004-0.08019c-0.14822-0.00814-0.23866-0.10591-0.24155-0.24095
		c-0.00296-0.1387,0.11044-0.2737,0.24779-0.27998c0.06628-0.00304,0.13504-0.01568,0.20156,0.00522
		c0.5361-0.10866,0.88183-0.36202,0.9614-0.91872c0.00996-0.06971,0.01542-0.14953,0.09291-0.19041
		c0.09764,0.2346,0.20182,0.4675,0.19233,0.72991c0.03704,0.13669-0.05513,0.22616-0.12761,0.31635
		c-0.08535,0.1062-0.18832,0.19746-0.30619,0.2698c-0.08266,0.05073-0.07986,0.0976,0.00156,0.15066
		c0.12347,0.08046,0.24472,0.16483,0.32466,0.2934c0.02696,0.04337,0.06911,0.08213,0.04374,0.14146
		C30.85211,7.38407,30.75158,7.60661,30.65616,7.83053z"/>
	<path fill="#202020" d="M0.98994,9.82916c-0.00512,0.23914,0.13537,0.41482,0.26732,0.59193
		c0.19835,0.26625,0.4596,0.4052,0.80208,0.39136c0.17775-0.00718,0.27206,0.08604,0.27204,0.25671
		c-0.00003,0.40112,0.15983,0.70973,0.5123,0.91414C2.5996,12.03663,2.3556,12.0322,2.11164,11.98248
		c-0.11334-0.03976-0.14612-0.1447-0.19095-0.23777c-0.03196-0.06636-0.05492-0.13916-0.06002-0.21161
		c-0.0117-0.16641-0.10215-0.23496-0.26208-0.2562c-0.175-0.02325-0.33413-0.09794-0.47993-0.19771
		c-0.05226-0.03576-0.10624-0.07026-0.13164-0.13258c-0.00951-0.0161-0.00758-0.03069,0.00571-0.04381
		c-0.05045-0.07689-0.03522-0.16374-0.03115-0.24608C0.97521,10.38096,0.92389,10.103,0.98994,9.82916z"/>
	<path fill="#535F68" d="M3.45263,0.95174c-0.00107-0.0098-0.00099-0.01959,0.00026-0.02937
		c7.89629-0.00019,15.79256-0.00038,23.68883-0.00045c0.04255,0,0.0851,0.00178,0.12765,0.00273
		c0.01185,0.00572,0.01591,0.01169,0.01225,0.01793c-0.00371,0.00634-0.00747,0.00953-0.01134,0.00953
		C23.66244,0.95257,20.05459,0.953,16.44675,0.95357c-0.07448,0.00001-0.14896,0.0016-0.22344,0.00245
		c-0.04006,0.04408-0.03186,0.09876-0.03182,0.15074c0.00044,0.58049-0.00275,1.16099,0.00144,1.74146
		c0.02715,0.2088,0.01011,0.41838,0.01125,0.62772c-0.00179,0.0515-0.00229,0.10337-0.04183,0.14395
		c-0.02211,0.00653-0.03982,0.00036-0.05311-0.01837c-0.04323-0.07848-0.03206-0.16456-0.03218-0.24825
		c-0.00108-0.70767,0-1.41534-0.00092-2.12301c-0.00028-0.21633-0.0098-0.22679-0.22197-0.22583
		c-0.41647,0.00189-0.37713-0.04296-0.37809,0.37234c-0.00153,0.66014,0.00014,1.32028-0.00102,1.98042
		c-0.00015,0.08356,0.01165,0.16993-0.03545,0.24744c-0.01557,0.01786-0.03374,0.02097-0.05451,0.00946
		c-0.06473-0.09549-0.03973-0.20386-0.04164-0.30724c-0.00281-0.15252-0.00506-0.30523,0.0021-0.45781
		c-0.01059-0.51189-0.00231-1.0238-0.00449-1.53569c-0.00131-0.30801-0.00039-0.30822-0.31842-0.30822
		C11.53448,1.00508,8.04632,1.0051,4.55816,1.00503c-0.0691,0-0.13828,0.00256-0.20721-0.00444
		C4.10992,1.00834,3.86884,1.00417,3.6278,1.00274C3.5657,1.00237,3.50042,1.00437,3.45263,0.95174z"/>
	<path fill="#455C3D" d="M0.99602,10.93237c0.19727,0.17972,0.42976,0.28722,0.69422,0.32085
		c0.1249,0.01589,0.18381,0.07706,0.19644,0.19994c0.02035,0.1981,0.09681,0.37512,0.22495,0.52931
		c-0.03608,0.04479-0.08711,0.03136-0.13319,0.03137c-0.32924,0.0001-0.65848-0.00122-0.98772-0.00209
		C0.97034,11.65186,0.96115,11.292,0.99602,10.93237z"/>
	<path fill="#2F3D26" d="M30.84776,7.13315c-0.08833-0.18779-0.23875-0.31803-0.41319-0.4199
		c-0.12263-0.07161-0.10223-0.11862,0.00239-0.18575c0.21651-0.13892,0.40456-0.30464,0.47463-0.56603
		c0.1101,0.06358,0.0732,0.18327,0.08642,0.27177c0.04415,0.29549-0.03885,0.58332-0.09881,0.87084
		C30.89655,7.11675,30.86555,7.12359,30.84776,7.13315z"/>
	<path fill="#535F69" d="M0.9633,3.20586C1.01276,3.25415,0.9911,3.31579,0.99113,3.37123
		c0.00116,2.06369,0.00115,4.12737,0.00004,6.19106C0.99114,9.618,1.01148,9.67924,0.96489,9.72858
		C0.96335,9.13752,0.96038,8.54649,0.96047,7.95546C0.96071,6.37226,0.96227,4.78906,0.9633,3.20586z"/>
	<path fill="#33442A" d="M1.56702,1.93652C1.53301,1.98144,1.48323,1.96337,1.43915,1.96806
		c-0.0758-0.28854-0.0906-0.57605,0.0376-0.85393c0.04296-0.09312,0.12473-0.155,0.23147-0.17469
		C1.87349,0.94508,2.03956,0.9207,2.20405,0.95304C2.2258,0.9532,2.24755,0.95335,2.2693,0.95351
		C2.24355,1.00026,2.23059,1.05668,2.17281,1.07921C2.08841,1.07624,2.00532,1.09254,1.92082,1.094
		C1.7234,1.09742,1.61943,1.20124,1.61192,1.39532C1.60724,1.516,1.61132,1.63689,1.61017,1.75767
		C1.60957,1.82041,1.61517,1.88495,1.56702,1.93652z"/>
	<path fill="#535F69" d="M2.20405,0.95304C2.03377,0.95407,1.86348,0.95509,1.6932,0.95612
		c-0.10512,0.04475-0.21582,0.04694-0.32797,0.047C1.01717,1.0033,1.04551,0.97272,1.04061,1.33078
		C1.03693,1.59923,1.05892,1.8682,1.02635,2.13629c-0.01225,0.02742-0.0236,0.0561-0.06272,0.05062
		C0.9625,1.80754,0.96143,1.42816,0.96018,1.04878C0.95997,0.98401,0.95341,0.92046,1.05257,0.9212
		c0.36629,0.00271,0.73261,0.00127,1.09892,0.00331C2.16906,0.92461,2.18653,0.94311,2.20405,0.95304z"/>
	<path fill="#535F69" d="M0.99602,10.93237c-0.00176,0.35981-0.00352,0.71962-0.0053,1.07942
		c-0.03847-0.02451-0.03013-0.06375-0.0302-0.09919C0.96,11.609,0.96009,11.30541,0.96042,11.00181
		c0.00004-0.03605-0.0048-0.07449,0.03231-0.09901C0.9935,10.91268,0.9946,10.92254,0.99602,10.93237z"/>
	<path fill="#414B4C" d="M27.27029,0.95211c0.00036-0.00919,0.00007-0.01836-0.0009-0.02749
		c0.07975,0.00404,0.15778,0.01446,0.22611,0.06059C27.41895,0.98407,27.34031,0.99701,27.27029,0.95211z"/>
	<path fill="#414B4C" d="M27.68709,1.04867c-0.07033-0.00352-0.13757-0.0162-0.19288-0.0642
		C27.56662,0.98183,27.63618,0.98763,27.68709,1.04867z"/>
	<path fill="#3C4642" d="M27.84528,1.11155c-0.06261,0.00235-0.11815-0.01275-0.15921-0.06359
		C27.74855,1.04592,27.80388,1.06157,27.84528,1.11155z"/>
	<path fill="#414D57" d="M0.96363,2.18691c0.01023-0.01038,0.02047-0.02075,0.0307-0.03113
		C1.04421,2.1594,1.04709,2.1844,1.02445,2.22101c-0.01063,0.0117-0.02127,0.02339-0.0319,0.03512
		C0.96406,2.24084,0.96024,2.21536,0.96363,2.18691z"/>
	<path fill="#435735" d="M16.15781,3.61407c0.00058-0.04203,0.00116-0.08405,0.00174-0.12608
		c0.07367-0.06089,0.0399-0.14518,0.04872-0.22022c0.01616-0.13744-0.03946-0.28298,0.04728-0.41244
		c1.15998-0.0001,2.31999-0.00497,3.47991,0.00286c0.31564,0.00213,0.62441,0.05807,0.8509,0.31672
		c0.03878,0.04429,0.07442,0.08854,0.10026,0.14132c0.163,0.33295,0.43581,0.48928,0.8043,0.48952
		c0.56403,0.00036,1.12805,0.00074,1.69208-0.00009c0.52603-0.00078,1.04254,0.08156,1.5584,0.17147
		C25.342,4.08179,25.92851,4.24464,26.511,4.41818c0.52457,0.15628,0.9791,0.445,1.39816,0.79377
		c0.22879,0.19041,0.42574,0.4124,0.64832,0.60801c0.29368,0.2581,0.64715,0.39595,1.02249,0.48651
		c0.03052,0.00736,0.06458,0.00325,0.085,0.03423c-0.06676,0.01505-0.13224,0.03107-0.20226,0.03434
		c-0.12024,0.00561-0.2255,0.13247-0.20911,0.25041c0.01714,0.12335,0.07993,0.2017,0.22232,0.19204
		c0.15648-0.01061,0.30307,0.0342,0.44526,0.09475c0.02567,0.05279,0.00773,0.10398-0.00856,0.15379
		c-0.34096,1.04258-0.8089,2.02105-1.50839,2.87698c-0.29541,0.36148-0.64308,0.65279-1.12223,0.76579
		c-0.33144,0.07817-0.57399,0.30038-0.72949,0.59783c-0.09295,0.17779-0.21624,0.25032-0.41651,0.25018
		c-4.11682-0.00288-8.23364-0.00211-12.35045-0.00269c-0.07381-0.00001-0.15037,0.00727-0.21263-0.04678
		c-0.00526-0.1928,0.02571-0.38799-0.10043-0.56431c-0.13683-0.19127-0.31129-0.29196-0.54829-0.29188
		c-2.18646,0.00073-4.37292,0.00048-6.55938,0.00039c-0.48182-0.00002-0.85222-0.28715-0.96482-0.74728
		c-0.09312-0.38054-0.31069-0.55209-0.70033-0.5521C4.11982,9.35215,3.53995,9.35223,2.96009,9.35215
		C2.37484,9.35206,1.95008,8.93175,1.95005,8.35252c-0.00007-1.76889-0.00101-3.53779,0.0017-5.30668
		c0.00024-0.15459-0.03544-0.29078-0.12947-0.41263c0.0302-0.09809-0.00802-0.23878,0.15905-0.25164
		c0.24773-0.01014,0.31801-0.07945,0.3202-0.32228c0.0026-0.2885,0.09619-0.53074,0.34912-0.69473
		c0.06097-0.03521,0.12674-0.04984,0.19721-0.04992c0.45469-0.00049,0.90938-0.00132,1.36407,0.00072
		c0.05293,0.00024,0.10588,0.0036,0.15476,0.02748c0.05305,0.03151,0.079,0.08459,0.1052,0.13617
		c0.16925,0.33326,0.44632,0.47363,0.81642,0.47305c1.81923-0.00288,3.63849,0.00419,5.45766-0.00621
		c0.3423-0.00196,0.5939,0.11906,0.7971,0.37824c0.07811,0.09963,0.15218,0.20525,0.2537,0.28359
		c0.16812,0.12973,0.35479,0.20164,0.5744,0.20061c0.92023-0.0043,1.8405-0.00234,2.76075-0.0011
		c0.08884,0.00012,0.18257-0.01666,0.26065,0.04677c0.00059,0.25337,0.00117,0.50675,0.00175,0.76012
		c-0.03369,0.10368-0.12528,0.07916-0.19753,0.08021c-0.32935,0.00479-0.65879,0.00198-0.9882,0.00207
		c-0.68538,0.00019-1.37078,0.00253-2.05613-0.00126c-0.24678-0.00136-0.45974,0.06815-0.63394,0.24357
		c-0.05857,0.06156-0.12353,0.02236-0.18876,0.01375c-0.09647-0.01273-0.19707-0.02461-0.24106,0.0969
		c-0.01839,0.03576-0.05557,0.04644-0.08633,0.06591c-0.15236,0.09645-0.18851,0.21715-0.13172,0.3909
		c0.07248,0.22177,0.23318,0.38325,0.37356,0.55886c0.04273,0.05346,0.0914,0.10212,0.10161,0.17404
		c0.01476,0.13696,0.01084,0.27438,0.00647,0.41113c-0.00387,0.12109,0.04197,0.1749,0.1664,0.16897
		c0.10598-0.00505,0.21253-0.00335,0.31871,0.00034c0.06241,0.00217,0.12979-0.00554,0.1745,0.05458
		c-0.03647,0.0965-0.12341,0.06213-0.18967,0.06545c-0.28591,0.01433-0.57618-0.03478-0.85736,0.03775
		c-0.15887,0.04098-0.3345,0.06258-0.44454,0.21096c-0.01797,0.06469-0.07639,0.08491-0.1278,0.1102
		c-0.12019,0.05912-0.2276,0.13697-0.33046,0.22065C9.90395,6.64771,9.8716,6.802,9.97008,6.93289
		c0.11264,0.1497,0.27478,0.17168,0.45129,0.06029c0.07187-0.04535,0.13587-0.10194,0.20864-0.14607
		c0.07387-0.04479,0.14902-0.08436,0.24012-0.05023c0.04673,0.0264,0.06223,0.07186,0.06272,0.11901
		c0.0022,0.21236,0.02794,0.42561-0.01923,0.63631c-0.04244,0.09927-0.12625,0.16536-0.19953,0.2397
		c-0.06999,0.07099-0.13729,0.14383-0.20077,0.22091c-0.09122,0.11076-0.15694,0.2259-0.09835,0.3724
		c0.0593,0.14828,0.18923,0.18402,0.33225,0.19486c0.17397,0.00274,0.18044,0.00813,0.18547,0.17188
		c0.00241,0.0785,0.00308,0.15718,0.00025,0.23562C10.92133,9.3094,11.02715,9.5731,11.31109,9.7501
		c0.05451,0.03398,0.08901,0.08898,0.13846,0.12805c0.1602,0.12831,0.32317,0.14939,0.49237,0.01553
		c0.03356-0.02655,0.07488-0.03943,0.11819-0.04538c0.90631-0.01254,1.81242-0.01735,2.71818,0.0032
		c0.23563,0.00535,0.46333,0.10998,0.70539,0.08705c0.17258-0.00425,0.34516-0.00345,0.51775-0.00045
		c0.12814,0.01419,0.25506,0.00015,0.37811-0.03175c0.23345-0.06052,0.47037-0.06802,0.70943-0.06626
		c0.80057,0.00588,1.6012-0.00829,2.40143,0.00715c0.03149,0.00428,0.06571,0.00865,0.08991,0.02882
		c0.17975,0.14979,0.35897,0.12877,0.53929,0.0022c0.08545-0.03787,0.17657-0.02826,0.26617-0.03207
		c0.41826-0.01779,0.72554-0.3229,0.74111-0.73811c0.00924-0.24628-0.01738-0.494,0.0304-0.73867
		c0.00304-0.05773,0.00052-0.11636,0.02494-0.17085c0.0751-0.06796,0.06569,0.02144,0.09386,0.0504
		c0.04348-0.1601-0.01787-0.28142-0.1311-0.38795c-0.04655-0.0438-0.11744-0.08269-0.06538-0.16666
		c0.04897-0.02909,0.04937-0.07672,0.04898-0.12505c-0.00056-0.06846-0.00053-0.13694-0.00016-0.2054
		c0.00135-0.25235,0.00345-0.25468,0.25009-0.27462c0.02151-0.00174,0.04172-0.00672,0.0604-0.01722
		c0.0923-0.05654,0.14669-0.15306,0.23184-0.21706c0.12732-0.1569,0.1239-0.30078-0.02998-0.44238
		c-0.28386-0.26121-0.62429-0.4119-1.00548-0.46922c-0.3375-0.05075-0.67428-0.03522-1.00933,0.02726
		c-0.07896,0.01472-0.1544,0.0365-0.21722,0.08925c-0.05337,0.03578-0.11861,0.04847-0.17066,0.08735
		c-0.01437,0.00971-0.02952,0.01745-0.04543,0.02424c-0.1936,0.03079-0.23018,0.00254-0.23579-0.18479
		c-0.00189-0.06319-0.00453-0.12679,0.00536-0.18956c0.01576-0.10001,0.06099-0.11574,0.13417-0.04375
		c0.05263,0.05222,0.099,0.10878,0.1888,0.05474c0.43666-0.26278,0.87073-0.52787,1.18715-0.94013
		c0.06475-0.08436,0.11502-0.17684,0.16451-0.27028c0.02633-0.04969,0.04066-0.11127,0.10612-0.12992
		c0.12259-0.0795,0.14074-0.28736,0.03259-0.4078c-0.10602-0.11806-0.23603-0.14731-0.38443-0.09283
		C20.37206,3.95537,20.379,3.99878,20.3858,3.97876c0.00213-0.00628,0.00658-0.00462,0.01524-0.00244
		c0.02917,0.00734,0.04548,0.02314,0.04221,0.05469c-0.20411,0.07985-0.30986,0.24553-0.42384,0.42319
		c-0.216,0.33671-0.55291,0.54894-0.89328,0.74886c-0.04251,0.02497-0.08902,0.03494-0.13782,0.01396
		c-0.05461-0.03649-0.04283-0.09171-0.04027-0.14332c0.01019-0.20517-0.00391-0.41078,0.00651-0.61557
		c0.02028-0.39862-0.31866-0.77575-0.7707-0.76628c-0.60418,0.01265-1.20888,0.00497-1.81332,0.00099
		C16.29461,3.69233,16.19599,3.726,16.15781,3.61407z"/>
	<path fill="#2D3F2A" d="M16.1588,2.85501c-0.0006-0.58886-0.00189-1.17772-0.00061-1.76658
		c0.00011-0.05054-0.03002-0.12433,0.06512-0.13244c-0.00004,0.633-0.00009,1.26599-0.00013,1.89897
		C16.20173,2.87193,16.18027,2.87401,16.1588,2.85501z"/>
	<path fill="#2E442C" d="M16.1588,2.85501c0.02146-0.00002,0.04291-0.00003,0.06437-0.00005
		c0.01079,0.00012,0.02158,0.00024,0.03237,0.00036c-0.0002,0.17107-0.00149,0.34215-0.00008,0.51321
		c0.00056,0.06786-0.00171,0.12874-0.09592,0.11946C16.1593,3.277,16.15905,3.06601,16.1588,2.85501z"/>
	<path fill="#405333" d="M13.57294,11.50735c4.18602-0.00001,8.37205-0.00113,12.55807,0.00354
		c0.19018,0.00021,0.29549-0.0558,0.38259-0.22996c0.16252-0.32494,0.43249-0.55202,0.79354-0.63048
		c0.45625-0.09915,0.76884-0.39562,1.05338-0.72382c0.38201-0.44063,0.67492-0.94386,0.93431-1.46248
		c0.23572-0.47127,0.43835-0.95839,0.59248-1.46354c0.00918-0.03009,0.02249-0.05895,0.03387-0.08838
		c0.06103,0.00284,0.10734,0.04096,0.15931,0.0655c0.01609,0.19534-0.06861,0.36811-0.13581,0.54108
		c-0.17371,0.4471-0.37188,0.88396-0.59785,1.30798c-0.28947,0.54316-0.63401,1.04873-1.05999,1.49536
		c-0.25729,0.26977-0.57913,0.44283-0.93796,0.54305c-0.29488,0.08235-0.50788,0.26559-0.64663,0.52544
		c-0.12513,0.23434-0.30475,0.32448-0.56749,0.32424c-4.10573-0.00373-8.21147-0.00254-12.3172-0.00316
		c-0.0837-0.00001-0.17188,0.0155-0.24457-0.04587C13.57297,11.61302,13.57296,11.56018,13.57294,11.50735z"/>
	<path fill="#33442A" d="M30.20871,7.07045c0.04332,0.02008,0.07507,0.05181,0.09621,0.09421
		c-0.06851,0.29867-0.18806,0.58054-0.30933,0.8594c-0.26736,0.61479-0.56895,1.21309-0.96294,1.76012
		c-0.30301,0.42071-0.62756,0.82045-1.08149,1.09651c-0.18419,0.11201-0.39353,0.15351-0.59042,0.22877
		c-0.21608,0.08259-0.37986,0.22059-0.46552,0.42417c-0.13435,0.31931-0.36444,0.42201-0.70144,0.42151
		c-4.20666-0.00618-8.41332-0.00393-12.61997-0.00385c-0.00011-0.0423-0.00023-0.0846-0.00035-0.1269
		c0.08356-0.06819,0.18339-0.04291,0.27661-0.04294c4.052-0.00123,8.104-0.00105,12.156-0.00106
		c0.05317,0,0.10722-0.00618,0.15938,0.00102C26.4611,11.82221,26.63431,11.69,26.76705,11.43
		c0.12071-0.23642,0.31578-0.42213,0.59331-0.49094c0.57055-0.14146,0.98037-0.50477,1.32557-0.95364
		c0.25451-0.33094,0.49661-0.67224,0.68476-1.04454c0.27324-0.54065,0.5507-1.08048,0.73696-1.65982
		C30.13137,7.2073,30.14143,7.12464,30.20871,7.07045z"/>
	<path fill="#3B4E30" d="M13.57299,11.66585c4.19194-0.00002,8.38389-0.00114,12.57582,0.00276
		c0.23958,0.00022,0.39469-0.0781,0.50978-0.29488c0.14438-0.27196,0.36438-0.4711,0.68088-0.55182
		c0.50942-0.12992,0.88278-0.45396,1.20203-0.8531c0.38344-0.4794,0.69204-1.00268,0.96018-1.55273
		c0.22738-0.46645,0.41877-0.9459,0.57883-1.43837c0.03105,0.0097,0.05192,0.03042,0.06524,0.05932
		c0.04221,0.05753,0.00884,0.11302-0.00914,0.16567c-0.34476,1.00954-0.80198,1.96227-1.46343,2.80857
		c-0.21857,0.27965-0.46219,0.5368-0.77624,0.71765c-0.17173,0.0989-0.35907,0.1573-0.54593,0.21669
		c-0.26834,0.08527-0.46284,0.26035-0.58627,0.50276c-0.12374,0.24304-0.29362,0.34941-0.57882,0.34892
		c-4.1269-0.00712-8.25381-0.00475-12.38072-0.00586c-0.07768-0.00002-0.16043,0.02208-0.23198-0.03042
		C13.57314,11.72929,13.57307,11.69757,13.57299,11.66585z"/>
	<path fill="#36492C" d="M13.57322,11.76101c4.197-0.00005,8.394-0.00228,12.59099,0.00478
		c0.27746,0.00047,0.45284-0.09915,0.57084-0.3351c0.13772-0.2754,0.36307-0.45741,0.65718-0.53532
		c0.52465-0.13897,0.90744-0.46639,1.23016-0.87653c0.70393-0.89462,1.18683-1.90164,1.52335-2.98179
		c0.02592,0.00198,0.04955,0.00821,0.06297,0.0334c-0.07241,0.35244-0.23914,0.67115-0.36322,1.00517
		c-0.10291,0.27705-0.26624,0.52383-0.38984,0.79097c-0.15405,0.33298-0.35757,0.64233-0.58039,0.9363
		c-0.1559,0.20569-0.3152,0.40757-0.4962,0.59456c-0.29148,0.30112-0.64437,0.48596-1.04152,0.59559
		c-0.25466,0.07029-0.42604,0.24698-0.53515,0.45905c-0.13333,0.25914-0.29434,0.3788-0.60291,0.37815
		c-4.20866-0.00885-8.41735-0.00589-12.62603-0.00584C13.57338,11.80327,13.5733,11.78214,13.57322,11.76101z"/>
	<path fill="#202020" d="M3.342,10.46126c-0.23933,0.0016-0.43446-0.19117-0.4339-0.42866
		c0.00056-0.23706,0.19695-0.42932,0.43588-0.42669c0.23261,0.00256,0.42219,0.18986,0.42589,0.42078
		C3.77366,10.26313,3.58016,10.45966,3.342,10.46126z"/>
	<path fill="#3F5133" d="M1.98133,2.38158C1.92416,2.4157,1.86922,2.4483,1.88464,2.5319
		C1.8931,2.57772,1.88776,2.62672,1.82228,2.63322C1.74767,2.58003,1.67306,2.52684,1.59845,2.47365
		C1.71674,2.40471,1.84539,2.37819,1.98133,2.38158z"/>
	<path fill="#2F3D27" d="M1.02445,2.22101C1.02337,2.19519,1.01889,2.17092,0.99431,2.1558
		C0.99359,1.802,0.99673,1.44813,0.98983,1.09446C0.98766,0.98313,1.02312,0.94628,1.13477,0.95138
		C1.3206,0.95987,1.50705,0.9552,1.69321,0.9561c-0.18948,0.12409-0.26879,0.298-0.25591,0.52283
		c0.00931,0.16255,0.00184,0.32605,0.00185,0.48913C1.29096,2.03629,1.15925,2.13114,1.02445,2.22101z"/>
	<path fill="#405333" d="M4.37593,1.36563c-0.57508-0.00035-1.15016-0.0007-1.72526-0.00105
		C2.6944,1.28657,2.77695,1.25582,2.84495,1.20735c0.05258-0.02678,0.11122-0.04153,0.16747-0.04242
		c0.42219-0.0067,0.84447-0.01187,1.26666,0.002C4.29502,1.16746,4.3094,1.17562,4.3244,1.18063
		C4.39042,1.22879,4.41677,1.28802,4.37593,1.36563z"/>
	<path fill="#34472B" d="M3.45263,0.95174c0.29758,0.0015,0.59515,0.003,0.89273,0.0045
		c0.04473,0.05879,0.04515,0.11594-0.00632,0.17127C4.28701,1.16135,4.22797,1.15889,4.16958,1.15896
		c-0.31866,0.0004-0.63732,0.00063-0.95597-0.00019C3.15029,1.15861,3.08465,1.16383,3.03494,1.11153
		c0.06404-0.05091,0.13923-0.06343,0.2184-0.06321C3.33552,1.04855,3.4075,1.02722,3.45263,0.95174z"/>
	<path fill="#3B4E30" d="M3.03494,1.11153C3.47152,1.1117,3.9081,1.11186,4.34469,1.11203
		c0.02732,0.03181,0.02734,0.06352-0.00033,0.09514C3.84455,1.20723,3.34474,1.20729,2.84495,1.20735
		C2.89748,1.1543,2.96267,1.12601,3.03494,1.11153z"/>
	<path fill="#3F5233" d="M2.01551,1.24039c-0.0653,0.18617-0.14685,0.3671-0.17675,0.56455
		C1.82985,1.86377,1.80569,1.91751,1.72688,1.90493C1.64094,1.71748,1.65904,1.52111,1.71169,1.33569
		C1.75758,1.17405,1.91906,1.1362,2.01551,1.24039z"/>
	<path fill="#3B4E2F" d="M2.01551,1.24039C1.86367,1.18307,1.73317,1.26624,1.72772,1.43071
		C1.72249,1.58862,1.72677,1.74683,1.72688,1.90492c0,0.00001,0.0003,0.00014,0.0003,0.00014
		C1.64647,1.93939,1.6034,1.90972,1.6011,1.82593C1.59692,1.67337,1.58742,1.51971,1.60385,1.36833
		c0.0252-0.23222,0.25434-0.34341,0.50795-0.25597C2.08405,1.15826,2.0694,1.21386,2.01551,1.24039z"/>
	<path fill="#36492C" d="M2.1118,1.11236C1.94766,1.111,1.77318,1.09009,1.68011,1.27036
		C1.58263,1.45918,1.64178,1.66326,1.63765,1.86066c-0.00097,0.04617,0.0535,0.04055,0.08952,0.0444
		C1.68181,1.95579,1.62098,1.92893,1.56702,1.93652c-0.00005-0.17237-0.00082-0.34475,0-0.51712
		C1.56822,1.16713,1.68838,1.04721,1.9456,1.05023c0.07562,0.00089,0.1582-0.03015,0.22722,0.02899
		C2.15247,1.09026,2.13214,1.10131,2.1118,1.11236z"/>
	<path fill="#4D5F42" d="M16.15781,3.61407c0.05161,0.05637,0.11968,0.03201,0.18028,0.03219
		c0.62072,0.00182,1.24192,0.0159,1.86199-0.00395c0.43208-0.01383,0.82799,0.37654,0.80166,0.79454
		C18.9869,4.67257,19.02348,4.90989,18.9826,5.1451c-0.00784,0.04511,0.02488,0.05111,0.05663,0.05813
		c-0.13081,0.12267-0.07414,0.24241-0.00294,0.36991c0.03805,0.06814,0.10649,0.13532,0.06325,0.22851
		c-0.02791-0.0207-0.05582-0.0414-0.09854-0.07308c0,0.07992-0.00005,0.14979,0.00001,0.21965
		c0.00018,0.22421,0.00864,0.2308,0.22963,0.17921c0.11414,0.10836,0.10474,0.2587,0.13181,0.39496
		c0.04044,0.20348,0.04116,0.20642,0.24567,0.17142c0.40195-0.06879,0.80073-0.08818,1.18541,0.08475
		c0.02895,0.01301,0.06104,0.02135,0.08605,0.04033c0.18171,0.13787,0.3744,0.25078,0.60842,0.27375
		c-0.04872,0.0751-0.12516,0.04066-0.18781,0.03949c-0.09421-0.00175-0.13408,0.0271-0.12941,0.12539
		c0.00646,0.1358-0.00291,0.27231,0.00293,0.40816c0.00514,0.11983-0.04856,0.06653-0.09714,0.03854
		c-0.1031,0.01137-0.14464-0.07556-0.2023-0.1307c-0.31795-0.30407-0.84583-0.54284-1.24333-0.55541
		c0.03229,0.05796,0.14954,0.02091,0.13687,0.12281c-0.07113,0.0496-0.14493,0.01383-0.21564,0.00213
		c-0.08756-0.0145-0.12396,0.01566-0.14036,0.1016c-0.02501,0.13102-0.00998,0.26319-0.02526,0.39393
		c-0.00859,0.07347,0.04064,0.0871,0.09676,0.09723c0.45358,0.08189,0.81428,0.31023,1.10189,0.6672
		c0.18071,0.22429,0.35087,0.21976,0.5398,0.00863c0.02099-0.02346,0.03916-0.05095,0.07704-0.04675
		c-0.04951,0.2439-0.02633,0.49077-0.02906,0.73643c-0.00489,0.44048-0.35231,0.78682-0.79597,0.78975
		c-0.08941,0.00059-0.18031-0.01071-0.2655,0.02882c-0.02895-0.0616,0.0043-0.10106,0.04901-0.13659
		c0.14009-0.08285,0.13193-0.21223,0.08561-0.33372c-0.16772-0.43993-0.46399-0.7863-0.82429-1.08407
		c-0.08347-0.06898-0.12992-0.03813-0.16654,0.04531c-0.09042,0.02172-0.10446,0.10494-0.1476,0.16918
		c-0.16336,0.24327-0.19915,0.44454,0.07838,0.65296c0.15862,0.11912,0.2541,0.3188,0.33894,0.50696
		c0.02097,0.04652,0.05643,0.09139,0.02767,0.14753c-0.83546,0.00116-1.67095,0.00615-2.50637,0.00111
		c-0.24578-0.00148-0.48771,0.01491-0.72491,0.07382c-0.11153,0.0277-0.22032,0.02645-0.33161,0.01831
		c0.01903-0.06889,0.07941-0.05856,0.12968-0.06555c0.86086-0.11979,1.54824-0.51858,2.03431-1.24302
		c0.04363-0.06503,0.0777-0.13905,0.14938-0.18168c0.07295-0.00024,0.09142-0.06168,0.11964-0.10913
		c0.08578-0.14425,0.14741-0.2993,0.20054-0.45815c0.00469-0.01568,0.01076-0.03051,0.01755-0.04531
		c0.19725-0.63794,0.1853-1.267-0.07845-1.88547c-0.18484-0.37721-0.40213-0.73007-0.72135-1.01526
		c-0.52637-0.47026-1.13412-0.72795-1.8467-0.75287c-0.41757-0.0146-0.81071,0.08765-1.20641,0.19071
		c-0.02027,0.00646,0.0065,0.03141-0.00288,0.01245c-0.00214-0.00433,0.0003-0.0084,0.00778-0.00986
		c0.05013-0.00978,0.09703-0.05016,0.15194-0.01611c0.00479,0.09707-0.07973,0.09837-0.13806,0.12023
		c-0.77528,0.29063-1.34144,0.80649-1.66495,1.56354c-0.26987,0.63154-0.27261,1.28131-0.06141,1.93335
		c0.1461,0.45107,0.38935,0.8453,0.72958,1.17374c0.42429,0.4096,0.93492,0.65268,1.52682,0.71975
		c0.05939,0.00673,0.13303-0.01222,0.16237,0.06819c-0.15486,0.03037-0.31015,0.00277-0.45486-0.03593
		c-0.18837-0.05038-0.37535-0.05323-0.56546-0.05348c-0.82683-0.00109-1.65366-0.00252-2.4805-0.00383
		c-0.02679-0.05609,0.00689-0.10151,0.02911-0.14722c0.1246-0.2563,0.28304-0.4896,0.49807-0.67957
		c0.05875-0.05191,0.09319-0.1097,0.11253-0.18126c0.10026-0.01587,0.13926-0.06015,0.07975-0.15779
		c-0.06859-0.11253-0.12112-0.23321-0.17455-0.35337c-0.01893-0.04256-0.05618-0.07092-0.10171-0.05429
		c-0.04655,0.017,0.02195,0.06278-0.0118,0.08982c-0.48323,0.27621-0.79134,0.69726-1.00725,1.19575
		c-0.04848,0.11192,0.05009,0.21218,0.01744,0.32108c-0.21035-0.18376-0.46234-0.32924-0.52681-0.63746
		c-0.03417-0.16338-0.02307-0.32514-0.01864-0.48653c0.00361-0.13153-0.01341-0.21129-0.16977-0.1761
		c0.39432-0.37585,0.74651-0.81492,1.34494-0.88492c0.08302-0.00971,0.10199-0.05681,0.09314-0.13287
		c-0.014-0.1204-0.0426-0.23939-0.03843-0.36172c0.0036-0.10572-0.10388-0.08884-0.15335-0.13609
		c-0.00585-0.01645-0.00301-0.0313,0.00836-0.04456c0.19274-0.05712,0.24125-0.02865,0.26541,0.15819
		c0.00673,0.05208,0.01552,0.1038,0.02359,0.15564c0.00804,0.05164,0.00012,0.10506,0.03068,0.15533
		c-0.02214-0.14498-0.00944-0.29053-0.01969-0.43553c-0.00614-0.0869-0.06598-0.08955-0.1372-0.08574
		c-0.28655,0.01534-0.54384,0.12165-0.79657,0.24392c-0.05089,0.00795-0.09757,0.02951-0.14203,0.04536
		c0.04371-0.00357,0.08969-0.05342,0.13948-0.00561c0.00442,0.02947-0.00932,0.05498-0.03339,0.06433
		c-0.15745,0.06114-0.26713,0.21366-0.44758,0.22998c0.05982-0.23287,0.0161-0.46967,0.02664-0.70442
		c0.00204-0.04546-0.03264-0.06158-0.07158-0.06958c0.03594-0.10542,0.135-0.10836,0.21961-0.12692
		c0.31081-0.0682,0.62127-0.04552,0.93103,0.01224c0.16495,0.03076,0.17546,0.02138,0.20975-0.14394
		c0.0199-0.09591,0.00989-0.20215,0.09101-0.27837c0.12893,0.05848,0.01851,0.16217,0.05116,0.25409
		c-0.01406-0.19864,0.09388-0.36937,0.05889-0.55686c0.01397-0.05733,0.03999-0.1117,0.04233-0.17192
		c0.00736-0.02973,0.01835-0.05699,0.04992-0.06951c0.06262,0.01053,0.08009-0.03452,0.10048-0.07863
		c0.05308-0.11486,0.11202-0.22689,0.16835-0.34011c0.00619-0.01282,0.01346-0.02512,0.02087-0.03721
		c0.06248-0.13824-0.06375-0.13466-0.1329-0.17365c-0.50645-0.25904-0.93367-0.59793-1.16219-1.13682
		c0.12917-0.24601,0.35937-0.31325,0.60968-0.31453c1.04618-0.00534,2.09241-0.00183,3.13862-0.00335
		c0.06066-0.00009,0.1288,0.02418,0.18052-0.03218c0.01307-0.00144,0.02611-0.00286,0.03916-0.00428
		c0.22839-0.06848,0.45678-0.06852,0.68517,0.00002C16.1317,3.61125,16.14475,3.61266,16.15781,3.61407z"/>
	<path fill="#2E3D25" d="M4.34435,1.20717c0.00011-0.03172,0.00022-0.06343,0.00034-0.09514
		c0.00022-0.05194,0.00044-0.10388,0.00067-0.1558c0.61666-0.0009,1.23332-0.00257,1.84998-0.00263
		c2.99837-0.00028,5.99673-0.00014,8.9951-0.0001c0.20424,0,0.20456,0.00017,0.20435,0.20672
		c-0.00058,0.56459-0.00145,1.12918-0.00221,1.69376c-1.03751,0.00033-2.07504,0.004-3.11253-0.00134
		c-0.25748-0.00133-0.46391-0.12737-0.62797-0.32308c-0.09142-0.10907-0.18197-0.21953-0.28154-0.32103
		c-0.13861-0.1413-0.30527-0.21187-0.51188-0.21144C8.99113,2.00091,7.12357,1.994,5.25609,2.00403
		c-0.35384,0.0019-0.77196-0.22066-0.88015-0.6384C4.36541,1.31281,4.35488,1.25999,4.34435,1.20717z"/>
	<path fill="#FDFDFD" d="M16.11864,3.60984c-0.22838,0-0.45677,0.00001-0.68516-0.00001
		c0.0012-0.83418,0.00516-1.66836,0.00066-2.50249c-0.00067-0.12469,0.03201-0.16733,0.15845-0.15639
		c0.1267,0.01096,0.25565,0.00962,0.38261,0.00025c0.11227-0.00829,0.14279,0.02949,0.14197,0.1403
		c-0.00482,0.64936-0.0021,1.29878-0.00146,1.94818C16.1159,3.22974,16.11762,3.41979,16.11864,3.60984z"/>
	<path fill="#FEFEFE" d="M18.32498,8.48559c-0.37535,0.62768-0.88945,1.09193-1.59363,1.33184
		c-0.24092,0.08208-0.49071,0.12514-0.74154,0.16329c-0.16356-0.00015-0.3271-0.00029-0.49064-0.00044
		c-0.35168-0.05261-0.69978-0.11284-1.02361-0.27407c-0.7709-0.38382-1.25238-1.00571-1.47342-1.81657
		c-0.31609-1.15954,0.02427-2.13419,0.92519-2.91828c0.26047-0.22669,0.5674-0.38872,0.89682-0.50316
		c0.04473-0.01554,0.08773-0.03597,0.13154-0.05413c0.15648-0.1034,0.3422-0.11746,0.51645-0.13173
		c1.0412-0.08527,1.90724,0.26788,2.58076,1.06406C18.28,5.61487,18.44313,5.92315,18.56132,6.2542
		c0.09518,0.34014,0.15169,0.68359,0.13431,1.0396c-0.01844,0.3778-0.10955,0.73412-0.27121,1.07449
		C18.40195,8.41562,18.37864,8.46365,18.32498,8.48559z"/>
	<path fill="#FEFEFE" d="M21.48801,7.09264c-0.13833,0.02141-0.27212,0.02997-0.39044-0.07053
		c-0.36905-0.31348-0.80398-0.37257-1.26698-0.31366c-0.11527,0.01467-0.2313,0.03036-0.34366,0.05858
		c-0.09787,0.02458-0.13081-0.00642-0.14651-0.10071c-0.03008-0.1807-0.07249-0.35937-0.10979-0.53888
		c0,0-0.00183,0.00078-0.00183,0.00078c0.0822-0.05046,0.18043-0.06086,0.26524-0.10508
		c0.47094-0.08396,0.93777-0.07334,1.39913,0.06025c0.24582,0.09125,0.46873,0.22308,0.66914,0.39004
		c0.14524,0.12101,0.18099,0.26214,0.11461,0.39653C21.62121,6.95025,21.57366,7.03736,21.48801,7.09264z"/>
	<path fill="#FEFEFE" d="M12.2929,6.27266c-0.05732,0.12072-0.07123,0.25213-0.08269,0.38148
		c-0.01051,0.11854-0.05752,0.13162-0.16566,0.10758c-0.35991-0.07999-0.72305-0.11115-1.08577-0.01286
		c-0.04929,0.01336-0.1068,0.01484-0.14161,0.06292c-0.14211,0.02512-0.24451,0.11876-0.35363,0.20117
		c-0.18379,0.13881-0.38501,0.13038-0.50909-0.02039C9.81835,6.8272,9.85056,6.64134,10.03809,6.48449
		c0.14226-0.11899,0.30676-0.20337,0.46205-0.30211c0.01782-0.07872,0.09474-0.07021,0.14696-0.09829
		c0.46608-0.13033,0.93716-0.14727,1.41286-0.06185c0.06035,0.01485,0.12119,0.02878,0.17986,0.04909
		C12.36489,6.11463,12.37259,6.14669,12.2929,6.27266z"/>
	<path fill="#FEFEFE" d="M12.484,5.73242c-0.01008,0.02198-0.02016,0.04396-0.03025,0.06594
		c-0.04243,0.16234-0.05666,0.1717-0.196,0.09111c-0.29744-0.17203-0.59367-0.3464-0.85034-0.57788
		c-0.03915-0.03531-0.08249-0.06679-0.09752-0.12102c-0.16019-0.18087-0.33072-0.35289-0.43937-0.57387
		c-0.1405-0.28574-0.07523-0.46486,0.22169-0.58334c0.07675-0.07242,0.14998-0.0209,0.21798,0.01248
		c0.07217,0.03542,0.13465,0.09303,0.16926,0.16351c0.22392,0.45603,0.63602,0.70888,1.04551,0.96537
		c0.03588,0.02247,0.07446,0.04066,0.10867,0.06606c0.04484,0.03293,0.08273,0.07447,0.05657,0.13142
		C12.63238,5.49805,12.59758,5.63778,12.484,5.73242z"/>
	<path fill="#FEFEFE" d="M19.09954,5.80166c-0.02998-0.1299-0.0976-0.24525-0.16884-0.35284
		c-0.07228-0.10914-0.05289-0.16375,0.06032-0.20739c0.01829-0.00705,0.03225-0.02518,0.04821-0.03819
		c0.33671-0.18115,0.64606-0.3976,0.89612-0.6894c0.05136-0.05993,0.09887-0.12367,0.12534-0.19943
		c0.06222-0.17811,0.18716-0.27327,0.37734-0.28305c0.19763-0.02901,0.27853,0.09953,0.34334,0.25023
		c0.01568,0.05774,0.02247,0.11508-0.00945,0.17024c-0.00664,0.00513-0.01336,0.0102-0.02007,0.01528
		c-0.30301,0.68152-0.90065,1.05194-1.50885,1.41307C19.13284,5.9456,19.13734,5.84502,19.09954,5.80166z"/>
	<path fill="#FEFEFE" d="M21.20204,8.36489c-0.18854,0.32191-0.43471,0.33727-0.67243,0.04112
		c-0.28686-0.35736-0.65147-0.5811-1.11288-0.63622c-0.06116-0.00731-0.10575-0.01361-0.08503-0.09165
		c0.04236-0.15955,0.03321-0.32453,0.04221-0.48688c0.00555-0.10004,0.0393-0.11359,0.12618-0.09385
		c0.08729,0.01983,0.17759,0.0266,0.26657,0.0391c0.24153-0.01601,0.43806,0.11061,0.63391,0.21662
		c0.30009,0.16243,0.54034,0.40011,0.74768,0.66962c0.03619,0.04704,0.06792,0.09432,0.05224,0.15771
		C21.201,8.24194,21.20152,8.30342,21.20204,8.36489z"/>
	<path fill="#FEFEFE" d="M10.86211,7.5858c0.16024-0.09725,0.32047-0.1945,0.48071-0.29174
		c0.00023-0.02383,0.01175-0.04146,0.03052-0.05515c0.05044-0.02888,0.10522-0.04758,0.16009-0.06616
		c0.07655-0.01918,0.1538-0.03571,0.22966-0.05799c0.01392-0.00495,0.0281-0.00869,0.04245-0.01204
		c0.05694-0.00257,0.11407-0.04605,0.1709,0.00011c0.1581-0.03715,0.22099,0.02069,0.19874,0.18307
		c-0.00907,0.06621,0.00676,0.13606,0.0134,0.20405c0.02538,0.25957,0.02537,0.258-0.22326,0.31091
		c-0.38372,0.08166-0.691,0.28673-0.93029,0.59024c-0.08453,0.10721-0.17774,0.19137-0.31027,0.22899
		c-0.15804-0.0098-0.28688-0.06479-0.35228-0.22087c-0.06659-0.15892,0.00436-0.28115,0.09882-0.40306
		C10.5878,7.8458,10.73574,7.72617,10.86211,7.5858z"/>
	<path fill="#FEFEFE" d="M19.55269,9.88747c-0.14104-0.32915-0.33116-0.62394-0.61762-0.84771
		c-0.06547-0.05115-0.06703-0.09487-0.0243-0.15822c0.08896-0.1319,0.1529-0.27686,0.20752-0.42528
		c0.02803-0.07618,0.06755-0.096,0.13622-0.04934c0.23746,0.09231,0.3837,0.29334,0.54098,0.47219
		c0.16645,0.18928,0.29491,0.41012,0.38896,0.64653c0.03506,0.08812,0.06878,0.17887-0.00423,0.26652
		c-0.0229,0.04258-0.0458,0.08516-0.0687,0.12773C19.86257,10.08526,19.77854,10.08038,19.55269,9.88747z"/>
	<path fill="#FEFEFE" d="M11.43996,9.92018c-0.0969-0.15399-0.08012-0.30015-0.00094-0.46211
		c0.19589-0.40072,0.46593-0.73794,0.82145-1.00754c0.04256-0.03227,0.08513-0.1081,0.15827-0.04047
		c0.10125,0.14347,0.18792,0.29395,0.22777,0.46693c0.03047,0.06805,0.0257,0.11554-0.04275,0.17096
		c-0.27705,0.22435-0.47856,0.5061-0.6054,0.83909C11.77562,10.0799,11.68613,10.08521,11.43996,9.92018z"/>
	<path fill="#202020" d="M3.92955,3.05393c0.0039,0.23661-0.18937,0.43311-0.42768,0.43483
		c-0.23939,0.00173-0.43459-0.19094-0.43412-0.4285C3.06819,2.82939,3.25513,2.63929,3.48749,2.6334
		C3.7262,2.62736,3.92564,2.81709,3.92955,3.05393z"/>
	<path fill="#202020" d="M27.64123,7.1018c-0.2394,0.00156-0.43444-0.19123-0.4338-0.42881
		c0.00063-0.23719,0.197-0.42932,0.43601-0.4266c0.23267,0.00265,0.42216,0.18995,0.42581,0.4209
		C28.07298,6.90392,27.87959,7.10024,27.64123,7.1018z"/>
	<path fill="#314831" d="M12.61703,5.26291c-0.33959-0.17453-0.65015-0.38888-0.91932-0.66004
		c-0.08975-0.09042-0.16679-0.19024-0.21447-0.30867c-0.07104-0.17646-0.20025-0.26315-0.39103-0.26085
		c-0.03664-0.01126-0.08243-0.0161-0.02172-0.06375c0.13136-0.10311,0.26224-0.08359,0.395-0.00544
		c0.04405,0.02192,0.07713,0.05516,0.0972,0.09944c0.22029,0.48592,0.63871,0.76217,1.08393,1.01017
		c0.05841,0.06483,0.23584,0.06206,0.12768,0.22149l0.00002-0.00004C12.69916,5.39345,12.67643,5.24023,12.61703,5.26291z"/>
	<path fill="#324831" d="M21.20048,8.18047c-0.33542-0.54083-0.82384-0.87464-1.43382-1.04395
		c-0.0334-0.04965-0.09205-0.0447-0.13976-0.06306c-0.03854-0.01483-0.11486,0.01611-0.10239-0.05947
		c0.01024-0.06205,0.0786-0.03878,0.12175-0.0377c0.18117,0.00453,0.35122,0.06056,0.52067,0.11844
		c0.35831,0.12239,0.64225,0.3537,0.90965,0.60951c0.00306,0.06735,0.05496,0.09462,0.10127,0.1313
		c0.17307,0.13707,0.20429,0.343,0.08035,0.50977C21.20709,8.30075,21.27144,8.2163,21.20048,8.18047z"/>
	<path fill="#30462E" d="M21.67693,6.86996c0.02465-0.17644-0.05562-0.30015-0.19083-0.40663
		c-0.17583-0.13847-0.3723-0.2392-0.5714-0.33708c-0.47789-0.17474-0.96454-0.1672-1.45554-0.06882
		c-0.02555,0.01508-0.05026,0.0205-0.07217-0.00616c0.08228-0.15483,0.24767-0.12504,0.37634-0.14661
		c0.35023-0.05873,0.70649-0.05368,1.05262,0.02863c0.32199,0.07657,0.61701,0.22136,0.86053,0.45071
		c0.15874,0.1495,0.17636,0.32544,0.06111,0.48191C21.71913,6.89096,21.69936,6.90137,21.67693,6.86996z"/>
	<path fill="#4D5F43" d="M11.3099,5.19057c0.2981,0.24732,0.61603,0.46587,0.94919,0.66464
		c0.10319,0.06157,0.15739,0.0563,0.19467-0.05685c0.00209,0.06374,0.01234,0.13064-0.06427,0.164
		c-0.13854,0.04472-0.26519,0.02052-0.38129-0.0648c-0.17267-0.06802-0.35288-0.0291-0.52848-0.0273
		c-0.13988,0.00143-0.18748-0.03706-0.17667-0.17701C11.31592,5.52649,11.30851,5.3582,11.3099,5.19057z"/>
	<path fill="#354B34" d="M12.00819,5.89756c0.12711,0.02159,0.25422,0.04318,0.38131,0.06478
		c0.01903,0.02982,0.07617,0.04429,0.05963,0.08574c-0.0762,0.191-0.07096,0.40092-0.13868,0.62144
		C12.2085,6.52044,12.32934,6.3941,12.2929,6.27266c0.07887-0.22889-0.13985-0.14966-0.2223-0.21153
		c-0.48378-0.1167-0.9617-0.08724-1.43504,0.05664c-0.03284,0.04694-0.09421,0.03495-0.13542,0.06461
		c-0.02362-0.01202-0.13166,0.00264-0.03257-0.05401c0.22474-0.12849,0.4652-0.22598,0.7309-0.22994
		C11.46832,5.89441,11.73828,5.89755,12.00819,5.89756z"/>
	<path fill="#32482F" d="M20.75317,4.28261c-0.06594-0.13207-0.16459-0.22373-0.31513-0.25126
		c-0.03463-0.06531-0.09266-0.00899-0.15013-0.01472c0.18924-0.15621,0.33469-0.15588,0.4954-0.01006
		c0.14489,0.13146,0.14165,0.30289-0.01503,0.54092c-0.00632-0.03093-0.01138-0.05565-0.01643-0.08037
		c-0.00001,0-0.00058,0.00234-0.00058,0.00234C20.7887,4.40754,20.78512,4.34522,20.75317,4.28261z"/>
	<path fill="#4D5F42" d="M19.38698,6.05127c0.02025-0.00042,0.04051-0.00085,0.06076-0.00127
		c0.01779-0.00978,0.03187-0.00599,0.04223,0.01138c-0.08705,0.02226-0.1741,0.04452-0.26115,0.06681
		C19.26008,6.05912,19.32629,6.0608,19.38698,6.05127z"/>
	<path fill="#314731" d="M18.51989,6.24611c-0.18257-0.4554-0.43063-0.86779-0.8072-1.19324
		c-0.76492-0.66108-1.64152-0.88497-2.63234-0.6572c-0.0408,0.00938-0.08308,0.01241-0.12467,0.0184
		c-0.09416-0.02332-0.16961,0.0504-0.30814,0.05196c0.19622-0.10874,0.36842-0.15343,0.54123-0.19544
		c0.72915-0.17727,1.43199-0.10472,2.09119,0.25353c0.60004,0.3261,1.03677,0.8092,1.30603,1.43689
		c0.25273,0.64757,0.28936,1.30204,0.06368,1.96488V7.92587c-0.01757,0.01912-0.01446,0.05931-0.04186,0.06224
		c-0.03275,0.00351-0.03505-0.02851-0.03779-0.05572c-0.00448-0.04461,0.02007-0.08114,0.02945-0.12173
		C18.72166,7.28176,18.71069,6.75939,18.51989,6.24611z"/>
	<path fill="#334932" d="M20.18021,9.79216c0.03757-0.18766-0.06885-0.33404-0.14805-0.48513
		c-0.18831-0.35924-0.46524-0.64531-0.77765-0.90012c-0.0219-0.05504-0.01286-0.10622,0.03436-0.14096
		c0.05712-0.04202,0.08351,0.01924,0.11789,0.04526c0.39434,0.29846,0.6942,0.67039,0.8818,1.12783
		C20.35594,9.60338,20.30841,9.75013,20.18021,9.79216z"/>
	<path fill="#384E37" d="M11.53111,7.20219c-0.03857,0.04815-0.10039,0.04182-0.15038,0.0632
		c-0.03462,0.00719-0.07568,0.02739-0.07503-0.03662c0.27516-0.15579,0.57254-0.24094,0.88568-0.27901
		c0.08661-0.01053,0.1338,0.01523,0.13561,0.10583c0.00325,0.16267-0.00953,0.32597,0.03026,0.48701
		c0.00973,0.03937,0.00468,0.08936-0.0562,0.09351c-0.06023,0.00411-0.0678-0.03936-0.06834-0.08412
		c-0.00115-0.09476-0.0284-0.19181-0.02279-0.28104c0.01191-0.18956-0.07201-0.22956-0.23344-0.20002
		c-0.059,0.03494-0.13039,0.03455-0.19065,0.06589l0.00179-0.00086C11.70161,7.15606,11.61102,7.15875,11.53111,7.20219z"/>
	<path fill="#42563F" d="M18.51989,6.24611c0.09101,0.10394,0.10638,0.23774,0.12694,0.36286
		c0.06966,0.42401,0.0887,0.84837-0.0488,1.26583c-0.0196,0.0595-0.01684,0.06242,0.01665,0.07971
		c0.00525,0.00271,0.02302-0.01849,0.03501-0.02863c-0.04103,0.21484-0.14571,0.40178-0.26282,0.5825
		c-0.04296,0.0663-0.05175,0.01348-0.06188-0.02278c0.18885-0.40054,0.32755-0.81285,0.33412-1.26233
		C18.66398,6.88921,18.5977,6.56738,18.51989,6.24611z"/>
	<path fill="#364C35" d="M12.64651,8.87698c-0.10934-0.13959-0.17148-0.30185-0.22777-0.46693
		c0.01957-0.04613-0.09312-0.10838,0.02339-0.14603c0.08902-0.02876,0.11768,0.02412,0.13799,0.08453
		c0.04873,0.14496,0.13048,0.27342,0.19856,0.40863c0.02608,0.0518,0.03509,0.09542-0.01063,0.14235
		C12.71261,8.95644,12.68688,8.88386,12.64651,8.87698z"/>
	<path fill="#42563F" d="M18.64968,7.92588c0.0487-0.27822,0.13277-0.54981,0.13004-0.83743
		c-0.00317-0.33402-0.05157-0.65831-0.15831-0.97477C18.60478,6.06439,18.59757,6.01197,18.586,5.961
		c0.14514,0.21676,0.18833,0.47334,0.21334,0.71647c0.03798,0.3692,0.03605,0.74662-0.08249,1.11031
		C18.70044,7.83812,18.6948,7.89053,18.64968,7.92588z"/>
	<path fill="#43573F" d="M12.61703,5.26291c0.06041-0.0275,0.09441,0.07168,0.15729,0.0323
		c-0.06726,0.15262-0.12992,0.30749-0.20387,0.45685c-0.0335,0.06765-0.07168,0.04946-0.08645-0.01964
		c0.02933-0.12188,0.09409-0.22903,0.1612-0.33086C12.69127,5.33165,12.6578,5.30257,12.61703,5.26291z"/>
	<path fill="#43573F" d="M12.7743,5.29525c0.07021-0.13787-0.09641-0.14125-0.12768-0.22149
		C12.84499,5.13862,12.87033,5.18257,12.7743,5.29525z"/>
	<path fill="#475B46" d="M11.3057,7.22877c0.01669,0.029,0.04627,0.03197,0.07503,0.03662
		c-0.01264,0.00955-0.02527,0.01911-0.03791,0.02866C11.29691,7.2995,11.251,7.30494,11.2019,7.31076
		C11.21338,7.25153,11.27138,7.25472,11.3057,7.22877z"/>
	<path fill="#475B46" d="M11.78584,7.13682c0.05203-0.0548,0.12022-0.06354,0.19065-0.0659
		c-0.00002,0.01064-0.00004,0.02128-0.00007,0.03191C11.9129,7.11416,11.84937,7.12549,11.78584,7.13682z"/>
	<path fill="#4D5F42" d="M13.81881,5.70188c0.16018-0.23486,0.38865-0.36374,0.66855-0.36649
		c0.86104-0.00846,1.72241-0.01446,2.58327,0.00037c0.51426,0.00886,0.84564,0.36503,0.85114,0.87512
		c0.00581,0.53789,0.00773,1.07594,0.00107,1.6138c-0.00369,0.29773-0.10614,0.5524-0.39032,0.70186
		c-0.1146-0.01971-0.22068,0.02949-0.32684,0.05338c-0.08434,0.01897,0.02521,0.04897,0.01962,0.08098
		c-0.23145,0.06305-0.23142,0.06305-0.23148,0.33038c-0.00004,0.16206,0.01093,0.32838-0.16421,0.42358
		c-0.23281-0.02958-0.46668-0.01223-0.70004-0.01444c-0.35071-0.00332-0.70152,0.00291-1.0522-0.00239
		c-0.24649-0.00372-0.4397-0.15871-0.42259-0.3976c0.02089-0.29161-0.09162-0.40487-0.36413-0.48775
		c-0.33766-0.1027-0.52636-0.37797-0.53642-0.73256c-0.01689-0.59566-0.00539-1.19195-0.00516-1.78798
		C13.74914,5.88816,13.80879,5.80162,13.81881,5.70188z"/>
	<path fill="#324831" d="M13.81881,5.70188c0.01704,0.0127,0.03435,0.02514,0.03003,0.05047
		c-0.11795,0.69062-0.04263,1.38644-0.04332,2.07926c-0.00037,0.37516,0.33711,0.66592,0.76179,0.7228
		c0.11229,0.01504,0.12872,0.05865,0.12413,0.14989c-0.00477,0.09465-0.00342,0.18979-0.00049,0.28459
		c0.00669,0.21669,0.15701,0.36246,0.37398,0.36273c0.5364,0.00068,1.07281-0.00075,1.6092,0.00169
		c0.05594,0.00025,0.13478-0.03509,0.1555,0.06155c-0.05741,0.05948-0.131,0.05998-0.2069,0.05985
		c-0.56383-0.00099-1.12766-0.00023-1.69149-0.0007c-0.2282-0.00019-0.36404-0.13033-0.37263-0.35981
		c-0.00414-0.11072-0.00262-0.22175-0.00032-0.33257c0.00129-0.06209-0.01418-0.08825-0.08672-0.09836
		c-0.54027-0.07534-0.80966-0.37938-0.81149-0.91371c-0.00186-0.54376,0.00043-1.08754,0.00357-1.6313
		C13.66458,5.97652,13.70918,5.82704,13.81881,5.70188z"/>
	<path fill="#465A45" d="M17.22532,8.66089c-0.04604-0.01941-0.13593,0.02576-0.12906-0.06923
		c0.00491-0.06778,0.07353-0.06332,0.12662-0.06326c0.09142,0.0001,0.17612-0.03025,0.26197-0.05524
		c0.05594-0.01628,0.06851,0.00326,0.04768,0.05337C17.44754,8.61055,17.34135,8.6468,17.22532,8.66089z"/>
	<path fill="#435735" d="M19.48997,6.06138c-0.01408-0.00377-0.02817-0.00754-0.04224-0.01134
		c0.27991-0.07111,0.5615-0.1051,0.85164-0.06908c0.18213,0.02261,0.3661,0.02796,0.53925,0.09767
		c0.02862,0.01152,0.06336,0.01171,0.07609,0.04762C20.44487,5.99455,19.96947,5.98349,19.48997,6.06138z"/>
	<path fill="#435735" d="M10.63556,6.11777c0.31484-0.13076,0.64258-0.17385,0.98017-0.13258
		c0.15243,0.01863,0.31688-0.02851,0.45487,0.07595C11.58821,5.97922,11.11011,6.00417,10.63556,6.11777z"/>
	<path fill="#435735" d="M20.75317,4.28261c0.0544,0.06282,0.05681,0.12513-0.00188,0.18684
		C20.75191,4.40718,20.75254,4.3449,20.75317,4.28261z"/>
	<path fill="#475B46" d="M11.53111,7.20219c0.07352-0.06781,0.16246-0.07675,0.25651-0.06623
		C11.70528,7.17007,11.62189,7.20025,11.53111,7.20219z"/>
	<path fill="#FEFEFE" d="M16.28734,8.65486c-0.00132,0.08305-0.02081,0.13272-0.1276,0.12891
		c-0.25506-0.00911-0.51078-0.00722-0.766-0.00084c-0.10201,0.00255-0.12989-0.03514-0.12299-0.12917
		c0.00694-0.09456,0.00304-0.19004,0.00118-0.28506c-0.00436-0.2223-0.12307-0.35721-0.34513-0.3791
		c-0.116-0.01143-0.2339-0.00868-0.35075-0.00549c-0.13183,0.0036-0.20473-0.0563-0.20532-0.18534
		c-0.0024-0.52808-0.00235-1.05618,0.00037-1.58425c0.00057-0.11008,0.0577-0.17792,0.17829-0.17785
		c0.83001,0.00049,1.66002,0.00027,2.49002,0.0016c0.03633,0.00006,0.07264,0.01302,0.10895,0.01998
		c0.03403,0.00772,0.05445,0.02786,0.05843,0.06303c0.00141,0.54637,0.00392,1.09273,0.00362,1.6391
		c-0.0001,0.18332-0.04091,0.22074-0.22524,0.22261c-0.10587,0.00107-0.21212-0.00479-0.31752,0.00239
		c-0.11064,0.00754-0.22385,0.01922-0.29344,0.12568c-0.02932,0.13654-0.05096,0.27373-0.04432,0.41425
		C16.33214,8.57261,16.32068,8.61788,16.28734,8.65486z"/>
	<path fill="#344A34" d="M17.2068,6.12127c-0.01948-0.02101-0.03895-0.04202-0.05842-0.06303
		c-0.04065-0.09301-0.12501-0.06405-0.19467-0.0642c-0.74397-0.00163-1.48795-0.00102-2.23192-0.00102
		c-0.05261,0-0.10522,0-0.16855,0c0.02222-0.08908,0.0807-0.09554,0.14499-0.09551c0.81306,0.00026,1.62612-0.00012,2.43917,0.00047
		c0.13695,0.0001,0.20362,0.07154,0.20356,0.20686c-0.00024,0.52746,0.00033,1.05492-0.00088,1.58237
		c-0.00012,0.04902,0.014,0.12648-0.05928,0.12173c-0.06018-0.0039-0.03342-0.07784-0.03361-0.11999
		c-0.00207-0.46943-0.00046-0.93887-0.00244-1.4083C17.24453,6.22642,17.26942,6.16241,17.2068,6.12127z"/>
	<path fill="#344A34" d="M16.28734,8.65486c0.00673-0.18476-0.07117-0.38285,0.08688-0.5438
		c0.08459,0.16171,0.03186,0.33343,0.03119,0.50022C16.40517,8.67064,16.33126,8.64936,16.28734,8.65486z"/>
	<path fill="#4D5F42" d="M14.71356,6.52841c0.10346-0.1357,0.24542-0.18319,0.3987-0.13338
		c0.15294,0.0497,0.24298,0.16754,0.24561,0.32896c0.00205,0.12588,0.0053,0.25236-0.0049,0.37754
		c-0.00474,0.05812-0.01936,0.12607-0.08947,0.15412c-0.36283,0.05-0.51659-0.08168-0.52133-0.44581
		C14.74093,6.71526,14.75222,6.61929,14.71356,6.52841z"/>
	<path fill="#4D5F42" d="M16.3146,6.46565c0.12157-0.10685,0.26083-0.11656,0.40002-0.05165
		c0.13798,0.06434,0.19653,0.19031,0.19791,0.3362c0.00138,0.14622,0.02514,0.29633-0.03841,0.43673
		c-0.02832,0.06257-0.0641,0.12197-0.13854,0.14213c-0.00787-0.06932-0.06215-0.05495-0.10776-0.06146
		c-0.20965-0.02994-0.31758-0.14938-0.32039-0.36095C16.30547,6.7597,16.2976,6.6124,16.3146,6.46565z"/>
	<path fill="#374C36" d="M16.3146,6.46565c0.07736,0.13148,0.02832,0.27439,0.03342,0.41141
		c0.00904,0.24301,0.09427,0.34656,0.33624,0.34899c0.11423,0.00115,0.08922,0.04184,0.05132,0.10301
		c-0.28795,0.13634-0.54394-0.01467-0.54106-0.32441c0.00126-0.13496-0.02791-0.27312,0.02111-0.40469
		C16.23496,6.54807,16.25508,6.49099,16.3146,6.46565z"/>
	<path fill="#384D37" d="M14.71356,6.52841c0.05475-0.01686,0.07592,0.00119,0.07363,0.05957
		c-0.00371,0.0944-0.00196,0.18906-0.00083,0.28359c0.00292,0.24465,0.10957,0.35052,0.3579,0.35753
		c0.04125,0.00117,0.08579-0.01005,0.11923,0.02654c-0.13028,0.20679-0.49886,0.15825-0.57708-0.06028
		C14.60779,6.9757,14.58805,6.74591,14.71356,6.52841z"/>
</g>
</svg>
