<?xml version="1.0" encoding="utf-8"?>
<!-- Generator: Adobe Illustrator 23.0.0, SVG Export Plug-In . SVG Version: 6.00 Build 0)  -->
<svg version="1.1" id="Слой_1" xmlns="http://www.w3.org/2000/svg" xmlns:xlink="http://www.w3.org/1999/xlink" x="0px" y="0px" width="32px" height="13px"
	 viewBox="0 0 32 13" enable-background="new 0 0 32 13" xml:space="preserve">
<g>
	<path fill="#55718A" d="M0.00225,12.23626c0-2.21853,0-4.43706,0-6.65559c0.01796-0.01273,0.03751-0.01592,0.0587-0.00959
		c0.01719,0.01269,0.02963,0.02894,0.0376,0.04866c0.02848,0.09291,0.01857,0.18858,0.0186,0.28318
		c0.00063,1.96907,0.00068,3.93815-0.00001,5.90722c-0.00005,0.14318,0.00694,0.28455,0.04746,0.42321
		c0.08766,0.29992,0.29026,0.4835,0.58561,0.5732c0.14958,0.04543,0.30414,0.04441,0.45869,0.04441
		c5.20157-0.00031,10.40314-0.00042,15.60472,0.00076c0.10982,0.00002,0.22446-0.02309,0.3275,0.03955
		c0.02446,0.02752,0.02726,0.05547,0.00152,0.08389c-0.05814,0.01013-0.11681,0.00516-0.17521,0.00517
		c-5.37945,0.00025-10.75889,0.00026-16.13795,0.00026c-0.41395-0.00269-0.73975-0.27844-0.80967-0.68639
		C0.01632,12.27382,0.01794,12.25269,0.00225,12.23626z"/>
	<path fill="#224053" d="M27.59046,0.00265c0.32386,0.10065,0.64818,0.20024,0.93011,0.39753
		c0.09598,0.08981,0.21694,0.14656,0.31492,0.23302c0.04213,0.03717,0.10724,0.09228-0.02023,0.10374
		c-0.14833-0.0627-0.26842-0.17015-0.40653-0.24946c-0.42814-0.24584-0.8798-0.37452-1.38161-0.37416
		c-7.23145,0.00526-14.4629,0.00359-21.69435,0.00364c-0.11701,0-0.23431-0.00442-0.34988,0.01979
		C4.93533,0.14771,4.90621,0.12901,4.89473,0.08234c-0.00418-0.03031,0.00569-0.05643,0.02486-0.0797
		C12.47655,0.00265,20.0335,0.00265,27.59046,0.00265z"/>
	<path fill="#40586D" d="M17.14971,12.96473c-0.00078-0.02081-0.00155-0.04162-0.00233-0.06244
		c0.00674-0.00644,0.01348-0.01289,0.02015-0.01944c0.09111-0.04219,0.18836-0.02634,0.28307-0.02636
		c3.13256-0.00086,6.26513-0.00517,9.39768,0.0021c0.90301,0.0021,1.65092-0.32767,2.29342-0.94147
		c0.89009-0.85031,1.50346-1.8799,1.99246-2.99133c0.3029-0.68844,0.55177-1.39433,0.67312-2.13991
		c0.01756-0.10793-0.00974-0.22395,0.05476-0.3241c0.04656-0.03162,0.09141-0.02704,0.13486,0.00628c0,0.02113,0,0.04226,0,0.06339
		c-0.01669,0.01775-0.02211,0.04057-0.02861,0.06296c-0.03206,0.40668-0.13439,0.79955-0.25624,1.18591
		c-0.37039,1.17436-0.89765,2.27344-1.62598,3.27347c-0.17399,0.2389-0.36881,0.46122-0.55347,0.69205
		c-0.34115,0.35837-0.7181,0.67472-1.15445,0.91021c-0.37137,0.20042-0.77016,0.32469-1.20012,0.32465
		c-3.32413-0.00035-6.64826,0.00011-9.97239-0.00028C17.18511,12.98181,17.16647,12.97658,17.14971,12.96473z"/>
	<path fill="#3B556C" d="M4.91959,0.00265C4.9194,0.0236,4.91921,0.04454,4.91901,0.06549
		c-0.08219,0.06849-0.1816,0.04975-0.27546,0.04985C3.43681,0.11662,2.23007,0.11683,1.02332,0.11547
		C0.80403,0.11522,0.60156,0.15544,0.42999,0.3024C0.23077,0.47302,0.14783,0.69055,0.14818,0.94762
		c0.00105,0.78092,0.00046,1.56184,0.00036,2.34277C0.14844,3.96578,0.14898,4.64117,0.14797,5.31657
		C0.14784,5.40023,0.15886,5.48612,0.11751,5.56525C0.10465,5.58511,0.08711,5.59067,0.065,5.58204
		c-0.01024-0.00052-0.02048-0.0012-0.0307-0.00203C0.00469,5.52527,0.01947,5.46609,0.01944,5.40921
		C0.01852,3.86955,0.01868,2.32989,0.01868,0.7906c0.00296-0.40397,0.23859-0.68793,0.65411-0.78795
		C2.08839,0.00265,3.50399,0.00265,4.91959,0.00265z"/>
	<path fill="#264356" d="M31.99691,6.46808c-0.04213,0.00037-0.08426,0.00074-0.12639,0.00111
		c-0.04101,0.02632-0.07783,0.03098-0.10398-0.0197c0.0946-0.13424,0.06846-0.28203,0.04318-0.42707
		c-0.11863-0.68057-0.3442-1.32775-0.62241-1.95879c-0.32323-0.73315-0.71682-1.4271-1.1876-2.07594
		c-0.29251-0.40316-0.61979-0.77837-1.00661-1.09825c-0.05239-0.04333-0.11103-0.08405-0.12534-0.15815
		c-0.02511-0.11014-0.13667-0.13154-0.20482-0.19748c-0.0468-0.04528-0.1297-0.05282-0.14237-0.13363
		c0.48604,0.27853,0.88571,0.65841,1.23725,1.08412c1.04977,1.27127,1.76887,2.70872,2.15862,4.30761
		c0.02662,0.10919,0.01725,0.22728,0.08046,0.32753C31.99691,6.23566,31.99691,6.35187,31.99691,6.46808z"/>
	<path fill="#697682" d="M17.14971,12.96473c0.01015,0.00041,0.02031,0.0008,0.03047,0.00115
		c0.00887,0.00666,0.01194,0.01347,0.00924,0.02044c-0.00273,0.00704-0.00552,0.01056-0.0084,0.01056
		c-5.47081,0-10.94162,0-16.41243,0c-0.00746-0.0057-0.01058-0.01202-0.00936-0.01895
		c0.00127-0.00724,0.00297-0.01085,0.00509-0.01085c0.36162-0.00063,0.72324-0.00179,1.08487-0.00181
		C6.94936,12.96501,12.04954,12.96489,17.14971,12.96473z"/>
	<path fill="#535F69" d="M17.18102,12.99689c-0.00003-0.01035-0.00031-0.02069-0.00083-0.03101
		c3.2775-0.00022,6.55502-0.00246,9.83252,0.00137c0.52312,0.00061,1.00592-0.12008,1.45299-0.38788
		c0.40208-0.24085,0.76403-0.52929,1.07253-0.88202c0.01667-0.01328,0.03168-0.01163,0.04502,0.00495
		c-0.56603,0.62973-1.21441,1.12673-2.08086,1.27287c-0.01405,0.00237-0.02647,0.01427-0.03965,0.02172
		C24.0355,12.99689,20.60826,12.99689,17.18102,12.99689z"/>
	<path fill="#445B6E" d="M29.58325,11.7023c-0.01501-0.00165-0.03001-0.0033-0.04502-0.00495
		c0.58495-0.67699,1.07791-1.41443,1.46782-2.21809c0.38671-0.79707,0.705-1.61876,0.88559-2.48857
		c0.02944-0.14181,0.01912-0.2901,0.07314-0.42758c0.02255,0.01523,0.01037,0.0478,0.03214,0.06343c0,0.05282,0,0.10564,0,0.15847
		c-0.09524,0.24971-0.11541,0.51743-0.19083,0.77246c-0.42271,1.42939-1.06171,2.74858-2.00945,3.91168
		C29.73021,11.55065,29.65459,11.62476,29.58325,11.7023z"/>
	<path fill="#40596F" d="M0.00225,0.73159c0.01041,0.00062,0.02033-0.00127,0.02977-0.00567
		C0.03278,2.34396,0.03354,3.96199,0.0343,5.58002C0.02361,5.58023,0.01293,5.58045,0.00225,5.58067
		C0.00225,3.96431,0.00225,2.34795,0.00225,0.73159z"/>
	<path fill="#767F87" d="M31.99691,6.62654c-0.02834-0.01234-0.03056-0.03772-0.03214-0.06342
		c0.01071-0.01055,0.02143-0.0211,0.03214-0.03166C31.99691,6.56316,31.99691,6.59485,31.99691,6.62654z"/>
	<path fill="#44637F" d="M0.065,5.58204c0.01108-0.00053,0.02217-0.00106,0.03325-0.00158
		c0.20078-0.00713,0.37317,0.14605,0.41981,0.37439c0.01918,0.09388,0.01422,0.18933,0.01423,0.28428
		c0.00023,1.83743,0.00013,3.67487,0.00024,5.5123c0,0.0739-0.00312,0.14799,0.0047,0.22161
		c0.02509,0.23633,0.21905,0.43165,0.45697,0.4597c0.09,0.01061,0.18068,0.00607,0.27107,0.00607
		c5.06421,0.00015,10.12843,0.0001,15.19265,0.00034c0.10625,0.00001,0.2132-0.00696,0.31823,0.01487
		c0.24135,0.05016,0.40569,0.2473,0.37457,0.44729c0,0-0.00328,0.00098-0.0033,0.00098
		C11.78515,12.9021,6.42292,12.9018,1.06068,12.90197c-0.3438,0.00001-0.63502-0.11457-0.8338-0.39993
		c-0.11955-0.17161-0.16114-0.37379-0.16111-0.58389C0.06608,9.80612,0.0654,7.69408,0.065,5.58204z"/>
	<path fill="#2D4961" d="M17.15071,12.90131c-0.09489-0.31029-0.23031-0.41146-0.55219-0.41147
		c-5.16477-0.00008-10.32954-0.00299-15.49429,0.00654c-0.33505,0.00062-0.63228-0.29437-0.62989-0.62139
		c0.01396-1.91106,0.00686-3.82227,0.00683-5.73344c-0.00001-0.32156-0.07917-0.43742-0.38294-0.5611
		C0.09817,4.02238,0.09779,2.4643,0.09819,0.90622c0.00012-0.47818,0.36436-0.83981,0.8459-0.84005
		c1.32498-0.00066,2.64996-0.0005,3.97493-0.00068c0.00131,0.02604,0.00665,0.05009,0.03223,0.06412
		c0.04718,0.01833,0.07453,0.0584,0.10457,0.09509c0.09342,0.11413,0.21542,0.16802,0.36191,0.17205
		C5.49755,0.39895,5.57737,0.3983,5.65719,0.3983c7.02476,0.00005,14.04954,0.00482,21.07427-0.00904
		c0.55959-0.0011,1.03779,0.15816,1.51309,0.41069c0.69687,0.37025,1.19595,0.9361,1.64209,1.56422
		c0.43947,0.61874,0.72292,1.31471,1.03162,1.9985c0.20493,0.45392,0.37786,0.92019,0.48082,1.40819
		c0.05556,0.26332,0.19675,0.47313,0.37416,0.66587c0.02349,0.03718,0.06204,0.02988,0.09727,0.03244
		c0.01047,0.39972-0.09508,0.78104-0.2064,1.15764c-0.26049,0.88128-0.62953,1.71888-1.08921,2.51546
		c-0.26581,0.46062-0.56644,0.89803-0.91937,1.30019c-0.27618,0.31471-0.56461,0.61548-0.90504,0.86037
		c-0.44413,0.31948-0.92633,0.53758-1.48892,0.57471c-0.26537,0.01752-0.52957,0.02252-0.79411,0.0227
		C23.36187,12.90233,20.25629,12.90143,17.15071,12.90131z"/>
	<path fill="#123247" d="M31.77324,6.43674c-0.26312-0.1191-0.35271-0.36259-0.40735-0.60972
		c-0.16984-0.76821-0.50239-1.47338-0.82302-2.18464c-0.25038-0.55542-0.56479-1.06906-0.92452-1.56276
		c-0.57652-0.79122-1.34566-1.29998-2.2594-1.61679c-0.06256-0.02169-0.13628-0.01587-0.2048-0.01588
		C19.9227,0.44633,12.69125,0.44611,5.4598,0.44748C5.21793,0.44753,5.03774,0.36653,4.95125,0.12961
		c0.00577-0.04409,0.03165-0.06375,0.07578-0.06324C5.07492,0.06693,5.12281,0.06602,5.1707,0.06602
		c7.31127-0.00002,14.62255,0.0016,21.93382-0.00302c0.60312-0.00038,1.11278,0.22552,1.59488,0.54996
		c0.05691,0.0383,0.11229,0.07884,0.16838,0.11834c0.65288,0.51284,1.15169,1.15698,1.58487,1.85349
		c0.47792,0.76845,0.86948,1.57963,1.14829,2.44023c0.13395,0.41346,0.26266,0.83117,0.26823,1.27268
		C31.87001,6.36564,31.88414,6.44409,31.77324,6.43674z"/>
	<path fill="#3B556B" d="M27.81408,11.9194c-0.18306,0.1648-0.41986,0.15144-0.64096,0.18915
		c-0.03618,0.00617-0.07434,0.00089-0.11159,0.00089c-8.62529,0-17.25058,0-25.87587,0c-0.29593,0-0.32125-0.02461-0.32125-0.31255
		C0.8644,8.23724,0.86439,4.67758,0.86442,1.11792c0-0.25607,0.03558-0.29121,0.29484-0.29121
		C9.80584,0.8267,18.45242,0.82635,27.09899,0.82833c0.27732,0.00006,0.54354,0.06248,0.77903,0.22011
		c-0.06151,0.04943-0.12168,0.0177-0.18011-0.00536c-0.21048-0.0831-0.42745-0.11036-0.65455-0.11029
		C18.46324,0.93532,9.88312,0.93496,1.303,0.93483C0.94713,0.93482,0.97348,0.91762,0.97347,1.2606
		C0.97343,2.90789,0.97332,4.55519,0.97378,6.20248C0.9738,6.29181,0.96472,6.38223,0.99533,6.4693
		C1.00664,6.52671,1.00505,6.5849,1.00507,6.64289c0.00042,1.24546,0.00043,2.49092,0,3.73638
		c-0.00002,0.058,0.00133,0.11617-0.00914,0.17369c-0.04437,0.17191-0.01786,0.34697-0.02126,0.52046
		c-0.00476,0.24284-0.0024,0.48585-0.00074,0.72877c0.00121,0.17777,0.02067,0.19551,0.20512,0.19874
		c0.05851,0.00103,0.11705,0.0003,0.17558,0.0003c8.57169,0,17.14338-0.0002,25.71507,0.00124
		c0.20387,0.00003,0.40341-0.00832,0.59402-0.0891C27.71287,11.89252,27.76564,11.87794,27.81408,11.9194z"/>
	<path fill="#3C566C" d="M0.95992,6.46823c-0.05187-0.047-0.03076-0.10902-0.03079-0.16452
		C0.92804,4.56613,0.92816,2.82854,0.92834,1.09095c0.00002-0.20029,0.00068-0.20082,0.20711-0.20082
		c8.69452-0.00009,17.38905,0.00008,26.08356-0.00119c0.18032-0.00003,0.34308,0.05985,0.50755,0.11799
		c0.04982,0.01761,0.09531,0.04761,0.15145,0.04151c0.28976,0.11572,0.53009,0.30673,0.75373,0.51429
		c0.61454,0.57034,1.06117,1.26535,1.4648,1.98972c0.41515,0.74506,0.71606,1.53513,0.93119,2.35828
		c0.10378,0.39709,0.05576,0.78755-0.04341,1.17835c-0.18073,0.71222-0.45151,1.39194-0.77121,2.05087
		c-0.16418,0.33837-0.33995,0.67565-0.57885,0.97291c-0.03704,0.09459-0.10953,0.16715-0.15989,0.25346
		c-0.01063,0.01058-0.02126,0.02115-0.03188,0.03173c-0.04259,0.0634-0.07897,0.13091-0.12777,0.1902l0.00008-0.00003
		c-0.28934,0.38288-0.62215,0.7249-0.99305,1.02989c-0.09693,0.07971-0.20723,0.14275-0.31619,0.20614
		c-0.02121,0.0106-0.04242,0.02121-0.06363,0.03181c-0.03605,0.03424-0.08711,0.03862-0.12793,0.06338
		c0,0,0.00008-0.00003,0.00008-0.00003c-0.51116,0.20746-1.04791,0.12318-1.57399,0.12347
		c-8.35214,0.00458-16.70429,0.00322-25.05643,0.00322c-0.25537,0-0.2554-0.00004-0.25542-0.24799
		c-0.00003-0.35906-0.00092-0.71812,0.00095-1.07717c0.00029-0.05549-0.02125-0.11749,0.03077-0.16442
		c0.06987,0.07021,0.02474,0.16882,0.06254,0.24704c0.01384,0.05268,0.02872,0.10522,0.02096,0.16064
		c-0.00596,0.27806,0.00195,0.55615-0.0037,0.83407c-0.00243,0.11969,0.04216,0.17152,0.16583,0.16863
		c0.3011-0.00703,0.60248,0.00716,0.90363-0.00898c0.2533,0.00902,0.50654,0.01857,0.75989-0.00181
		c0.14357,0.006,0.28709,0.0067,0.43065,0.00669c3.36029-0.00021,6.72059-0.00011,10.08088-0.00023
		c0.0638,0,0.12761-0.00113,0.1912,0.00545c2.63155,0.00372,5.2631,0.00153,7.89465,0.00107
		c1.73306-0.0003,3.46614,0.00544,5.19875-0.00409c0.36721,0.01952,0.7333,0.03425,1.08121-0.12461
		c0.27398-0.1251,0.51294-0.29949,0.73425-0.49887c0.58233-0.52463,1.01997-1.15845,1.39813-1.83657
		c0.29946-0.53698,0.55261-1.09435,0.74893-1.6767c0.08523-0.23109,0.15413-0.46686,0.20586-0.70763
		c0.06873-0.15997,0.08442-0.33168,0.11252-0.50066c0.03758-0.21919,0.01769-0.43398-0.049-0.64525
		c-0.04053-0.26759-0.1315-0.5212-0.21918-0.77599c-0.46224-1.30514-1.10455-2.50416-2.09891-3.4929
		c-0.29625-0.29457-0.63875-0.52476-1.04403-0.65123c-0.14906-0.04651-0.30249-0.05291-0.45764-0.0529
		C19.57585,1.00242,12.0743,1.00231,4.57275,1.00227c-0.06386,0-0.12778,0.00218-0.19154-0.00268
		c-0.31244,0.00615-0.62501-0.00259-0.9375,0.00718C3.41393,1.00501,3.38619,0.99575,3.35916,0.98417
		C2.9756,0.95462,2.59212,0.95331,2.2087,0.98603C2.12145,1.00384,2.03319,1.0024,1.94486,1.00015
		C1.79764,0.99106,1.65038,1.00528,1.50321,0.99968c-0.09487,0.00567-0.1902,0.00687-0.28478,0.00158
		c-0.12841-0.00718-0.18056,0.0445-0.1783,0.17358C1.0447,1.43667,1.04202,1.69865,1.04112,1.96057
		C1.0409,2.02343,1.04057,2.08634,1.02819,2.14844c-0.0551,0.30281-0.0035,0.60893-0.02911,0.91258
		c-0.00272,0.0323,0.04593,0.00799,0.04286,0.03983c0.0064,0.34265,0.00004,0.68512,0.00079,1.02759
		C1.04422,4.80342,1.04349,5.4784,1.0428,6.15338c-0.00009,0.08406,0.00728,0.169-0.01813,0.25151
		C1.01295,6.43592,0.99311,6.45884,0.95992,6.46823z"/>
	<path fill="#3B556B" d="M28.00556,11.82424c0.33332-0.23921,0.64181-0.50603,0.92367-0.804
		c0.13285-0.14045,0.22966-0.31223,0.38557-0.43203c-0.03479,0.15408-0.16523,0.24127-0.25995,0.34989
		c-0.28427,0.32599-0.59215,0.62914-0.95792,0.86737C28.07275,11.82123,28.0363,11.81842,28.00556,11.82424z"/>
	<path fill="#3B556B" d="M29.47438,10.36631c0.01202-0.11014,0.09805-0.17428,0.15988-0.25346
		C29.62518,10.22482,29.56455,10.30474,29.47438,10.36631z"/>
	<path fill="#3B556B" d="M29.31472,10.58824c0.02043-0.07807,0.06009-0.1434,0.12777-0.1902
		C29.42948,10.48102,29.39131,10.54735,29.31472,10.58824z"/>
	<path fill="#3B556B" d="M27.814,11.91943c0.03246-0.04138,0.07712-0.05849,0.12793-0.06338
		C27.91753,11.91345,27.86875,11.92239,27.814,11.91943z"/>
	<path fill="#43505B" d="M0.99235,10.81017c-0.06444-0.07781-0.01785-0.16958-0.03238-0.25366
		C0.95996,9.19375,0.95994,7.83099,0.95993,6.46823c0.00809-0.0106,0.01619-0.02121,0.02428-0.03182
		C1.06657,6.51179,1.0424,6.61218,1.04258,6.7037C1.04456,7.68273,1.044,8.66178,1.04349,9.64082
		c-0.00006,0.1211,0.00358,0.24204,0.00778,0.363c-0.0264,0.19885-0.00001,0.39862-0.0097,0.59776
		C1.03805,10.67388,1.05098,10.75049,0.99235,10.81017z"/>
	<path fill="#5E898C" d="M4.37642,0.95486c0.07447-0.00074,0.14895-0.00214,0.22342-0.00214
		c7.47026-0.0001,14.94053,0.00242,22.41079-0.00543c0.52883-0.00056,0.95952,0.19083,1.35225,0.5055
		c0.68559,0.54932,1.16312,1.26432,1.59232,2.01369c0.28109,0.49077,0.51482,1.00471,0.71084,1.53506
		c0.02728,0.07381,0.06425,0.14572,0.05153,0.22852c-0.02692,0.12311-0.05452,0.24629-0.0887,0.36742
		c-0.13084,0.46362-0.66055,0.84041-1.10975,0.79354c-0.03403-0.03539-0.07691-0.05054-0.12438-0.0634
		c-0.41005-0.11113-0.75826-0.32442-1.05458-0.62642c-0.35383-0.36062-0.73761-0.6835-1.18268-0.93218
		c-0.39918-0.22303-0.83527-0.3394-1.27181-0.45557C25.712,4.26726,25.54223,4.1977,25.35717,4.20355
		c-0.10671-0.01353-0.13474-0.13021-0.22364-0.1674c-0.46149-0.37278-0.98691-0.61691-1.57681-0.67328
		c-0.69694-0.0666-1.39446-0.0634-2.04637,0.26019c-0.15334,0.07611-0.30465,0.15144-0.40841,0.29372
		c-0.07475,0.10021-0.17628,0.1483-0.30092,0.15125c-0.02614-0.01861-0.02954-0.04374-0.02146-0.07242
		c0.01329-0.01664-0.00269,0.00363,0.0064-0.0147c0.04343-0.08748,0.1915-0.10152,0.18543-0.2017
		c-0.00572-0.09428-0.13867-0.11872-0.19377-0.19743c-0.04256-0.06081-0.08431-0.12176-0.12095-0.18621
		c-0.1375-0.24188-0.34788-0.37921-0.62152-0.42397c-0.15236-0.02492-0.30539-0.03796-0.46049-0.03787
		c-2.35715,0.00139-4.71431-0.00353-7.07143,0.00517c-0.41754,0.00154-0.7468-0.12785-0.99127-0.46456
		c-0.0341-0.04697-0.07324-0.09057-0.11188-0.13425c-0.15611-0.1765-0.34585-0.26417-0.58886-0.26327
		c-1.25039,0.00464-2.5008,0.00224-3.75121,0.00216C6.4694,2.07894,5.87878,2.08011,5.28817,2.07859
		C4.77812,2.07727,4.46299,1.84418,4.30764,1.35782C4.29955,1.30316,4.29831,1.24814,4.30153,1.19304
		c0.00062-0.03486,0.0015-0.06981,0.0084-0.10421C4.31963,1.03819,4.33917,0.99217,4.37642,0.95486z"/>
	<path fill="#8AABB6" d="M1.01704,10.02057C0.97366,9.86541,0.99168,9.7064,0.9913,9.54928
		C0.98893,8.57476,0.99021,7.60024,0.98985,6.62572c-0.00002-0.0631-0.00364-0.1262-0.00562-0.18931
		c0.00219-1.03183,0.00498-2.06366,0.0056-3.09548c0.00005-0.09003,0.0072-0.17766,0.03113-0.26415
		C1.0123,3.06297,1.00907,3.0481,1.01186,3.03197c0.10937-0.23972,0.23185-0.46786,0.50786-0.55902
		c0.11989-0.01148,0.20582,0.0515,0.28592,0.12786C1.97119,2.74155,2.00031,2.9287,2.0001,3.13165
		C1.99834,4.85354,1.99905,6.57544,1.99903,8.29733c0,0.20835,0.01971,0.41348,0.134,0.59492
		c0.19559,0.3105,0.49008,0.44093,0.84969,0.44226c0.55875,0.00207,1.11751-0.00013,1.67626,0.00087
		c0.46445,0.00084,0.67823,0.17023,0.79362,0.6164c0.09049,0.34989,0.32467,0.55925,0.67144,0.65036
		c0.12457,0.03273,0.25257,0.03278,0.38058,0.03275c2.08602-0.00041,4.17203-0.00031,6.25805-0.00024
		c0.07449,0,0.14909-0.00232,0.22343,0.0032c0.34442,0.02559,0.60566,0.28252,0.63198,0.62426
		c0.00811,0.10526,0.00627,0.2111,0.00077,0.31655c-0.00093,0.05455,0.00182,0.10931-0.0023,0.16386
		c-0.00055,0.03449,0.00089,0.06912-0.00146,0.10361c-0.00047,0.03372-0.0006,0.06754-0.00686,0.10093
		c-0.00537,0.02545-0.01883,0.04633-0.03742,0.06426c-0.05844,0.00115-0.11687,0.0033-0.17531,0.0033
		c-3.43945,0.00016-6.8789,0.00013-10.31835,0.00019c-0.07937,0-0.15964,0.00748-0.23387-0.03073
		c-0.13663-0.00431-0.21979-0.09852-0.29806-0.18835c-0.16112-0.18493-0.24309-0.40372-0.25387-0.64924
		c-0.0103-0.2345-0.06067-0.29309-0.29537-0.29329c-0.49393-0.00043-0.74231-0.32489-0.95768-0.69605
		C1.01617,10.11902,1.00018,10.0697,1.01704,10.02057z"/>
	<path fill="#628B8E" d="M30.65797,7.82908c-0.06211,0.30755-0.20457,0.58604-0.32999,0.86921
		c-0.31272,0.70604-0.69428,1.37443-1.17425,1.98267c-0.33514,0.42469-0.71457,0.80598-1.18143,1.09265
		c-0.38468,0.23621-0.80886,0.26476-1.24414,0.23862c-0.0351-0.04268-0.01209-0.08321,0.01309-0.11523
		c0.09247-0.11754,0.15381-0.25211,0.22301-0.38269c0.09691-0.18288,0.25443-0.31415,0.44754-0.35905
		c0.65019-0.1512,1.08455-0.58662,1.46959-1.07978C29.2959,9.5446,29.63686,8.968,29.89843,8.34515
		c0.13298-0.31665,0.26703-0.63232,0.38067-0.95635c0.02295-0.06544,0.04773-0.13147,0.13218-0.14162
		C30.57996,7.34145,30.68752,7.59533,30.65797,7.82908z"/>
	<path fill="#649093" d="M30.40255,7.25522c-0.1306,0.14845-0.14573,0.34599-0.21943,0.51852
		c-0.16119,0.37735-0.30003,0.76486-0.49804,1.12535c-0.37119,0.67576-0.78189,1.3235-1.36927,1.84245
		c-0.22737,0.20089-0.48975,0.33052-0.77957,0.40993c-0.2943,0.08064-0.51041,0.24596-0.61326,0.5394
		c-0.04232,0.12075-0.16554,0.19299-0.19482,0.32138c-0.70703,0.00082-1.41406,0.00234-2.12109,0.00239
		c-3.60967,0.00025-7.21934,0.00013-10.82901-0.00003c-0.06907,0-0.13815-0.00212-0.20723-0.00326
		c0.00127-0.02005,0.00254-0.04008,0.00382-0.06012c0.07772-0.06542,0.1718-0.04579,0.26033-0.04583
		c2.19685-0.00097,4.39371-0.00075,6.59056-0.00075c1.80323,0,3.60646-0.00004,5.40969,0.00009
		c0.12762,0.00001,0.25514,0.00489,0.38269,0.00831c0.26144,0.00701,0.47966-0.06625,0.59637-0.3297
		c0.09752-0.22012,0.26575-0.37973,0.47931-0.49133c0.09929-0.05189,0.20991-0.07922,0.31591-0.1076
		c0.34074-0.09122,0.58471-0.32033,0.82144-0.55401c0.46033-0.45439,0.80369-0.9944,1.10496-1.56073
		c0.26583-0.49971,0.48824-1.01855,0.65799-1.55873c0.01605-0.05106,0.03667-0.09904,0.07708-0.13629
		C30.35665,7.13402,30.39258,7.17374,30.40255,7.25522z"/>
	<path fill="#2D4961" d="M30.40255,7.25522c-0.03156-0.03192-0.06313-0.06384-0.09469-0.09577
		c-0.0524-0.00072-0.07834-0.04485-0.11639-0.06928c-0.02259-0.01531-0.04643-0.02854-0.0697-0.04291
		c-0.05465-0.03988-0.11663-0.06367-0.18122-0.08242c-0.16369-0.06732-0.33364-0.09877-0.51034-0.11223
		c-0.14952-0.01139-0.23953-0.15203-0.20838-0.29652c0.03181-0.14755,0.14182-0.22032,0.28367-0.18763
		c0.57642-0.07079,1.03871-0.32463,1.12168-0.94658c0.00927-0.06947,0.01193-0.15058,0.09039-0.19181
		c0.09856,0.2356,0.20583,0.46895,0.19491,0.73325c0.03398,0.12788-0.04926,0.21469-0.11617,0.30195
		c-0.06271,0.08179-0.14046,0.15233-0.22095,0.2183C30.55428,6.49925,30.53091,6.5116,30.5091,6.5263
		c-0.12621,0.08509-0.12499,0.08846-0.00344,0.18148c0.10833,0.0829,0.22121,0.16163,0.29562,0.28045
		c0.02764,0.04413,0.06643,0.08345,0.04751,0.14241c-0.00686,0.24811-0.09506,0.47432-0.19084,0.69846
		C30.6147,7.61943,30.57624,7.40767,30.40255,7.25522z"/>
	<path fill="#2D4961" d="M1.50387,2.50676C1.25491,2.61297,1.15222,2.84388,1.02812,3.05653
		C0.97715,3.01149,0.99341,2.95073,0.99308,2.8957C0.99182,2.68818,0.9904,2.48064,0.99368,2.2734
		c0.07262-0.19482,0.2584-0.24459,0.42148-0.32352C1.45823,1.93602,1.50378,1.93175,1.547,1.91803
		c0.0137-0.00476,0.02779-0.00827,0.04196-0.01125c0.04858-0.0089,0.09935-0.00911,0.1434-0.03596
		c0.06192-0.0361,0.0701-0.09899,0.08551-0.16019C1.86248,1.53345,1.91002,1.35699,2.01345,1.2018
		c0.03648-0.05137,0.07146-0.10387,0.11596-0.14925c0.058-0.05035,0.1077-0.11474,0.19582-0.11458
		C2.67924,0.94798,3.03362,0.91823,3.387,0.95373c0.01052,0.01025,0.02105,0.02051,0.03157,0.03076
		c-0.04006,0.14622-0.17592,0.0815-0.26521,0.11919C3.07153,1.1217,2.99514,1.15279,2.92542,1.1995
		c-0.07,0.04454-0.14145,0.08696-0.20389,0.1423C2.45791,1.5387,2.33618,1.79906,2.33685,2.12777
		C2.33723,2.3097,2.23719,2.38941,2.03037,2.41972c-0.06102,0.0017-0.1227-0.00639-0.18276,0.01139
		c-0.01436,0.00457-0.02905,0.00779-0.0438,0.0107C1.70287,2.459,1.60225,2.47775,1.50387,2.50676z"/>
	<path fill="#2D4961" d="M1.01704,10.02057c0.09002,0.23655,0.25063,0.42373,0.42572,0.60101
		c0.15388,0.1558,0.354,0.17648,0.55642,0.18549c0.26872,0.01195,0.32625,0.06526,0.33495,0.32559
		c0.01259,0.37648,0.17955,0.66182,0.50915,0.85143c-0.24325,0.05048-0.48636,0.04903-0.72934-0.00195
		c-0.15384-0.06963-0.21136-0.21437-0.22723-0.35677c-0.02671-0.23973-0.1442-0.34795-0.38075-0.37209
		c-0.14262-0.01455-0.27007-0.09284-0.38813-0.17526c-0.04908-0.03427-0.11496-0.06376-0.09276-0.14533
		c-0.02458-0.03724-0.03723-0.07762-0.03273-0.12252C1.00734,10.54718,0.96004,10.28227,1.01704,10.02057z"/>
	<path fill="#8AABB6" d="M1.02508,10.93269c0.16308,0.20408,0.39915,0.27192,0.63883,0.31545
		c0.14025,0.02547,0.21171,0.07541,0.22514,0.22197c0.01763,0.19231,0.0958,0.36475,0.22489,0.51203
		c-0.05662,0.06034-0.13002,0.03018-0.1951,0.03107c-0.27024,0.00371-0.54057,0.00136-0.81086,0.00163
		c-0.06027,0.00006-0.11807,0.00388-0.1174-0.08461c0.00239-0.31559,0.00131-0.6312,0.00372-0.94679
		C0.99442,10.96645,1.01436,10.9496,1.02508,10.93269z"/>
	<path fill="#628B8F" d="M1.44176,1.96893C1.29155,2.03276,1.16343,2.13309,1.02548,2.21719
		C1.0003,2.20384,0.9942,2.18107,0.99443,2.15518C0.99338,1.79916,0.99518,1.4431,0.98944,1.08716
		C0.98782,0.98639,1.0176,0.94449,1.1235,0.95096c0.12615,0.00771,0.25307,0.00299,0.37966,0.00365
		c0.03599,0.04365,0.02406,0.08895,0.00241,0.1329C1.36497,1.37293,1.42342,1.67232,1.44176,1.96893z"/>
	<path fill="#618A8E" d="M30.84879,7.13064c-0.0869-0.17281-0.22568-0.29876-0.38272-0.40494
		c-0.16218-0.10966-0.16472-0.10674,0.00586-0.21847c0.02565-0.0168,0.0551-0.0279,0.08278-0.04164
		c0.12202-0.05839,0.24534-0.01888,0.36537,0.00295c0.0938,0.01706,0.0776,0.0921,0.05583,0.15969
		C30.96182,6.80275,30.96328,6.98115,30.84879,7.13064z"/>
	<path fill="#679397" d="M2.26815,0.954c-0.02397,0.05733-0.06958,0.0949-0.1193,0.12871
		C2.09101,1.1114,2.02971,1.12237,1.9652,1.12754C1.72327,1.14696,1.61953,1.25993,1.61343,1.50515
		C1.61121,1.59459,1.61326,1.68407,1.61188,1.77352c-0.0009,0.05824-0.0024,0.11638-0.04439,0.16367l0.00084-0.00004
		C1.47615,1.97706,1.43524,1.92855,1.43269,1.84724c-0.00539-0.17213-0.02908-0.3448,0.0076-0.51669
		C1.49376,1.07987,1.57117,1.00908,1.82666,0.9744C1.86753,0.96885,1.9121,0.98184,1.94955,0.95474
		c0.08618-0.00193,0.17235-0.00387,0.25853-0.0058C2.2293,0.93656,2.2496,0.93507,2.26815,0.954z"/>
	<path fill="#679396" d="M3.12909,1.07921c0.08488-0.06654,0.21708,0.0094,0.28948-0.09472
		c0.11999-0.061,0.24865-0.02688,0.37312-0.03029c0.19475-0.00534,0.3898-0.00012,0.58472,0.00064
		C4.38182,1.00064,4.3661,1.04116,4.34474,1.08028C4.29813,1.123,4.24049,1.12725,4.18124,1.12731
		C3.88452,1.12759,3.5878,1.12792,3.29109,1.12703C3.23268,1.12686,3.17341,1.12739,3.12909,1.07921z"/>
	<path fill="#649093" d="M1.94955,0.95474c-0.07783,0.049-0.17433,0.03845-0.25288,0.07152
		C1.60703,1.064,1.5326,1.13384,1.50241,1.23922C1.44491,1.44,1.47854,1.64398,1.47078,1.84647
		C1.46806,1.91733,1.5057,1.93884,1.56832,1.93715C1.5337,1.9775,1.48572,1.96536,1.44174,1.96891
		C1.39959,1.96285,1.37573,1.94068,1.3759,1.89642c0.00077-0.20349-0.00186-0.40707,0.00319-0.61045
		C1.38212,1.16336,1.49607,1.07795,1.50317,0.9546C1.65196,0.95465,1.80076,0.9547,1.94955,0.95474z"/>
	<path fill="#5D898C" d="M30.97592,6.62824c0.0097-0.09091-0.0216-0.13296-0.12343-0.13126
		c-0.09902,0.00164-0.19843-0.01995-0.29772-0.03136c0.14278-0.15091,0.30821-0.28594,0.3577-0.5023
		c0.10251,0.04729,0.05987,0.14869,0.07494,0.22295C31.0169,6.33163,31.03626,6.48256,30.97592,6.62824z"/>
	<path fill="#414F5A" d="M0.99443,2.15518C1.01906,2.16884,1.0241,2.19214,1.02547,2.21723
		c0.00088,0.2797,0.00175,0.55944,0.00263,0.83924c0.00069,0.00787-0.00169,0.01463-0.00713,0.02032
		C0.99748,3.08131,0.96154,3.10132,0.96216,3.05786c0.00417-0.29324-0.01829-0.58685,0.01172-0.87965
		C0.97473,2.16993,0.98732,2.16283,0.99443,2.15518z"/>
	<path fill="#424F5A" d="M2.26815,0.954c-0.02004-0.00166-0.04009-0.00333-0.0601-0.00502
		c0.06637-0.0521,0.14378-0.0248,0.21557-0.02575c0.27126-0.00358,0.54259-0.00226,0.81389-0.00071
		c0.051,0.00029,0.10791-0.01747,0.14949,0.03121C3.01405,0.95382,2.6411,0.95391,2.26815,0.954z"/>
	<path fill="#72A2A6" d="M2.01256,2.3838c0.22605-0.02597,0.29198-0.08635,0.28806-0.30599
		c-0.00604-0.33838,0.13689-0.5912,0.41555-0.77586C3.2147,1.26274,3.71395,1.28998,4.21286,1.28669
		c0.04875-0.00032,0.09453,0.0135,0.13212,0.04703c0.16056,0.48505,0.45033,0.69729,0.95225,0.69729
		c1.84094,0.00002,3.68189,0.00383,5.52279-0.00383c0.29912-0.00125,0.50001,0.13312,0.67601,0.34677
		c0.10643,0.1292,0.19626,0.27436,0.34709,0.36376c0.16302,0.09663,0.33346,0.15079,0.52685,0.1506
		c2.44748-0.00239,4.89498-0.00365,7.34246,0.00091c0.32716,0.00061,0.64698,0.05421,0.87905,0.32444
		c0.024,0.02794,0.05414,0.05381,0.06849,0.08627c0.09054,0.20477,0.22409,0.36855,0.44426,0.45594
		c-0.08311,0.13077-0.23242,0.16346-0.31586,0.2713c-0.01555,0.06693-0.09337,0.10026-0.09555,0.17475
		c-0.19865,0.20522-0.42223,0.38612-0.59399,0.61689c-0.37542,0.50442-0.57586,1.0725-0.57345,1.69633
		c0.00306,0.79494,0.41733,1.35058,1.10053,1.7265c0.18601,0.10235,0.37841,0.19382,0.58121,0.25928
		c0.11118,0.03588,0.17102,0.10191,0.16539,0.21947c-0.0165,0.34475,0.34432,0.61428,0.73065,0.51429
		c0.18337-0.04746,0.31961-0.00662,0.45995,0.08868c0.09441,0.08096,0.19104,0.07053,0.28886,0.00635
		c0.1276-0.09495,0.25323-0.14015,0.42558-0.09281c0.23359,0.06416,0.45105-0.00189,0.61572-0.19349
		c0.02748-0.03197,0.05228-0.0663,0.08619-0.09218c0.13553-0.10756,0.27329-0.21358,0.2796-0.40854
		c0.0243-0.04797,0.07299-0.05946,0.11766-0.07409c0.36364-0.11914,0.68363-0.31172,0.97613-0.55539
		c0.11124-0.09267,0.17275-0.22856,0.29334-0.31043c0.10559-0.03807,0.15634-0.12581,0.20061-0.21945
		c0.26504-0.35497,0.41487-0.75156,0.38949-1.19474c-0.03165-0.55265-0.20251-1.06198-0.5236-1.52171
		c-0.11465-0.16414-0.2604-0.3046-0.35745-0.48083c0.08707-0.07827,0.18051-0.00964,0.25425,0.01141
		c0.42188,0.12041,0.85249,0.21186,1.25884,0.38625c0.38435,0.16495,0.72574,0.39125,1.03796,0.66264
		c0.25913,0.22525,0.50434,0.46633,0.76451,0.69034c0.22519,0.1939,0.50671,0.28164,0.78531,0.36915
		c0.03654,0.01148,0.07974,0.00471,0.0494,0.06266c-0.15445,0.01937-0.24981,0.10603-0.25342,0.23027
		c-0.00365,0.12575,0.08217,0.21463,0.21552,0.21661c0.18354,0.00273,0.3582,0.0361,0.51722,0.13185
		c0.04087,0.05613,0.01479,0.1126-0.00326,0.16623c-0.34943,1.03844-0.81078,2.01967-1.50615,2.87962
		c-0.30554,0.37785-0.66395,0.67892-1.15259,0.80536c-0.31873,0.08247-0.55513,0.2852-0.71106,0.57276
		c-0.10719,0.19768-0.26266,0.28109-0.49149,0.2809c-4.10605-0.00339-8.21211-0.0024-12.31816-0.00302
		c-0.07869-0.00001-0.16115,0.01126-0.22855-0.0465c-0.00197-0.13711,0.01323-0.27708-0.00937-0.41075
		c-0.05207-0.30794-0.31256-0.50834-0.63726-0.50839c-2.18027-0.00032-4.36055-0.00356-6.54081,0.00252
		c-0.47064,0.00131-0.93796-0.32946-0.99797-0.79316C5.34742,9.57804,5.07652,9.38435,4.75311,9.38403
		C4.14689,9.38344,3.54066,9.38508,2.93445,9.38344C2.49498,9.38226,2.11954,9.11829,2.00375,8.72818
		C1.96948,8.61272,1.94883,8.4944,1.94894,8.37167c0.0016-1.73652-0.00137-3.47305,0.00421-5.20955
		c0.00069-0.21636-0.03287-0.40674-0.19461-0.56069c0.00135-0.07036,0.01756-0.13601,0.06206-0.19268L1.82045,2.40978
		C1.88105,2.37608,1.95163,2.41506,2.01256,2.3838z"/>
	<path fill="#FEFEFE" d="M22.54795,9.34604c-0.14469-0.06882-0.27504-0.10861-0.45527-0.06561
		c-0.43951,0.10485-0.81293-0.23772-0.7628-0.59256c0.01568-0.111-0.06215-0.12726-0.13921-0.15348
		c-0.55904-0.19018-1.05528-0.4702-1.39346-0.97212c-0.34502-0.51207-0.37512-1.06809-0.24496-1.65239
		c0.16216-0.72801,0.56993-1.29305,1.14526-1.75261c0.02205-0.06143,0.07629-0.07817,0.13161-0.09342
		c0.08549-0.05236,0.17099-0.10473,0.25648-0.15709c0.0286-0.07059,0.10063-0.09885,0.15772-0.12105
		c0.36586-0.14225,0.73544-0.28132,1.13656-0.2766c0.33899,0.00399,0.67907-0.02809,1.01697,0.02701
		c0.41344,0.06741,0.79963,0.20696,1.15824,0.42177c0.78216,0.48882,1.27843,1.17587,1.4622,2.07957
		c0.09212,0.45301,0.06384,0.89201-0.15084,1.30998c-0.05532,0.09339-0.09501,0.19833-0.19297,0.26076
		c-0.35494,0.48253-0.85107,0.75885-1.40638,0.94874c-0.11203,0.06721-0.20062,0.146-0.19411,0.2945
		c0.00184,0.04199-0.02986,0.08843-0.06927,0.119c-0.23807,0.31457-0.46713,0.39061-0.83773,0.28275
		c-0.12046-0.03506-0.19955,0.06925-0.30133,0.09851C22.75824,9.39645,22.65247,9.40568,22.54795,9.34604z"/>
	<path fill="#5F797B" d="M25.83343,7.35391c0.51801-1.00876-0.05619-2.54688-1.15384-3.26308
		c-0.04386-0.02862-0.08455-0.06202-0.12672-0.0932c0.0626-0.06201,0.1365-0.03182,0.20829-0.0268
		c0.13568,0.00949,0.26326,0.07482,0.40273,0.05652c0.10645,0.0022,0.10255,0.1355,0.19134,0.15869
		c0.38797,0.35228,0.63631,0.79051,0.79517,1.28218c0.07268,0.22497,0.11881,0.45704,0.12919,0.69291
		c0.02063,0.46904-0.1186,0.88939-0.41331,1.25789C25.81148,7.4191,25.81292,7.39124,25.83343,7.35391z"/>
	<path fill="#5A7374" d="M25.16389,4.02736c0.02533,0.11431-0.05366,0.05758-0.09003,0.0492
		c-0.1718-0.03955-0.34247-0.08381-0.52099-0.07893c-0.39042-0.20923-0.79541-0.39398-1.24094-0.42621
		c-0.64716-0.04682-1.29823-0.07271-1.91405,0.20103c-0.10353,0.04602-0.20817,0.08958-0.3123,0.13428
		c0.02499-0.11053,0.11298-0.17156,0.20112-0.21723c0.43561-0.22568,0.8896-0.39537,1.39097-0.39003
		c0.39138,0.00417,0.78686-0.0386,1.17141,0.06467C24.33286,3.49406,24.79576,3.6694,25.16389,4.02736z"/>
	<path fill="#6E9DA1" d="M4.34497,1.33372c-0.47614,0.00001-0.95229,0-1.42843,0.00007
		C2.84801,1.3338,2.7784,1.34085,2.71617,1.30195c0.05534-0.0543,0.11837-0.09729,0.1902-0.12731
		c0.09486-0.0356,0.19288-0.04786,0.29426-0.04727c0.31649,0.00183,0.633,0.00044,0.94951,0.00081
		c0.06853,0.00008,0.13841-0.00452,0.19424,0.04731C4.34458,1.22822,4.34478,1.28097,4.34497,1.33372z"/>
	<path fill="#6A989C" d="M4.34439,1.17548c-0.47933-0.00028-0.95866-0.00056-1.438-0.00084
		c0.0641-0.05514,0.13624-0.09179,0.22272-0.09542c0.4052,0.00035,0.81041,0.0007,1.21563,0.00106
		C4.34462,1.11201,4.3445,1.14374,4.34439,1.17548z"/>
	<path fill="#729194" d="M20.82911,4.06384c-0.04387,0.03114-0.08773,0.06227-0.13161,0.09342
		c-0.03026-0.08504,0.05624-0.08971,0.09087-0.13008C20.80194,4.03939,20.81553,4.05161,20.82911,4.06384z"/>
	<path fill="#6E9DA1" d="M13.57357,11.60259c4.18752-0.00007,8.37503-0.00138,12.56254,0.00336
		c0.21721,0.00025,0.34595-0.08213,0.43969-0.26722c0.13128-0.2592,0.3358-0.47577,0.61448-0.54188
		c0.78851-0.18707,1.2417-0.75582,1.64758-1.37457c0.50342-0.76744,0.8794-1.59765,1.14696-2.47506
		c0.06837,0.00286,0.12062,0.03563,0.16304,0.08662c0.02487,0.05919,0.00213,0.11335-0.01659,0.16865
		c-0.34959,1.03246-0.81801,2.00379-1.49935,2.86497c-0.32856,0.41529-0.71656,0.74645-1.24759,0.88546
		c-0.29298,0.0767-0.50451,0.26727-0.64108,0.53307c-0.11688,0.22748-0.29336,0.32397-0.55216,0.32376
		c-4.1295-0.00342-8.259-0.00237-12.38851-0.00288c-0.07872-0.00001-0.16124,0.0124-0.22871-0.04578
		C13.57377,11.70826,13.57367,11.65543,13.57357,11.60259z"/>
	<path fill="#679397" d="M30.20852,7.0712c0.04393,0.01744,0.07421,0.05001,0.0993,0.08829
		c-0.11185,0.24196-0.1836,0.49915-0.28,0.74714c-0.1511,0.38872-0.32796,0.7639-0.5261,1.12832
		c-0.21584,0.39701-0.46068,0.77966-0.756,1.12399c-0.23904,0.2787-0.49527,0.54335-0.81211,0.74148
		c-0.14549,0.09098-0.31059,0.13933-0.46917,0.18213c-0.26169,0.07063-0.44408,0.22549-0.56687,0.44492
		c-0.21954,0.39234-0.31879,0.45718-0.764,0.4242c-0.03175-0.00235-0.06381-0.00064-0.09572-0.00064
		c-4.15442,0.00006-8.30883,0.00013-12.46323,0.0002c-0.00014-0.03167-0.00029-0.06335-0.00044-0.09503
		c0.07773-0.06538,0.17179-0.04592,0.26038-0.04596c2.27701-0.00094,4.55403-0.00071,6.83105-0.00074
		c1.84076-0.00002,3.68154-0.00301,5.52228,0.0034c0.266,0.00093,0.43855-0.0923,0.55805-0.3295
		c0.12455-0.24723,0.31604-0.44503,0.59541-0.51455c0.62091-0.15449,1.03818-0.56806,1.40749-1.05091
		c0.30976-0.40499,0.55938-0.8447,0.78928-1.29785c0.23455-0.46232,0.43512-0.93748,0.59884-1.42854
		C30.15167,7.1474,30.1647,7.09955,30.20852,7.0712z"/>
	<path fill="#6B989C" d="M30.20852,7.0712c-0.07896,0.35092-0.22425,0.67854-0.36779,1.00573
		c-0.11763,0.26813-0.24568,0.53232-0.3812,0.79204c-0.25147,0.48194-0.54071,0.93986-0.90405,1.34888
		c-0.16834,0.1895-0.34641,0.36726-0.55492,0.51356c-0.19737,0.13848-0.42676,0.20297-0.6517,0.27584
		c-0.26856,0.087-0.45667,0.2693-0.57286,0.51095c-0.11908,0.24767-0.29895,0.34017-0.56654,0.33997
		c-4.21177-0.0031-8.42353-0.00206-12.63529-0.00197c-0.0001-0.0317-0.00021-0.06341-0.00031-0.09511
		c4.20755-0.00008,8.41508-0.00158,12.62261,0.00329c0.25212,0.00029,0.40674-0.09678,0.51545-0.31412
		c0.11963-0.23917,0.30418-0.44051,0.56491-0.50474c0.71678-0.17658,1.17336-0.66564,1.5681-1.23286
		c0.54953-0.78964,0.95577-1.65051,1.2583-2.5607c0.01326-0.03989,0.02967-0.07874,0.04462-0.11811
		C30.16808,7.0463,30.1883,7.05875,30.20852,7.0712z"/>
	<path fill="#2D4961" d="M3.07724,10.58781c-0.23916-0.00342-0.43197-0.20417-0.42418-0.44165
		c0.00756-0.23033,0.20439-0.41655,0.43685-0.41327c0.23907,0.00337,0.432,0.20425,0.42419,0.44168
		C3.50651,10.40513,3.30987,10.59114,3.07724,10.58781z"/>
	<path fill="#6E9CA1" d="M1.82059,2.40875c0.00558,0.07256,0.00045,0.14173-0.06206,0.19268
		C1.68152,2.54899,1.60634,2.49169,1.50387,2.50676C1.6007,2.44624,1.70251,2.40158,1.82059,2.40875z"/>
	<path fill="#6E9DA1" d="M2.04482,1.20572C1.95429,1.38747,1.88066,1.57434,1.84646,1.77613
		c-0.01005,0.05929-0.0113,0.14531-0.11585,0.13019C1.64063,1.93968,1.62812,1.87064,1.62298,1.81543
		c-0.0127-0.13647-0.01929-0.27462,0.00469-0.41022c0.02362-0.1335,0.14049-0.24728,0.26536-0.26328
		C1.9519,1.13439,2.02399,1.11547,2.04482,1.20572z"/>
	<path fill="#6A979B" d="M2.04482,1.20572C1.87828,1.14793,1.71343,1.21755,1.67646,1.38191
		C1.64099,1.53961,1.66025,1.70386,1.6697,1.86512C1.67133,1.89295,1.70426,1.90086,1.73058,1.9063
		c-0.04797,0.04353-0.10769,0.02598-0.1631,0.03088C1.56729,1.78483,1.56422,1.63241,1.56754,1.48013
		c0.00559-0.25632,0.1467-0.39361,0.40657-0.39957c0.05816-0.00134,0.11641,0.00131,0.17467,0.00214
		C2.11417,1.12371,2.07949,1.16472,2.04482,1.20572z"/>
	<path fill="#6E9CA1" d="M2.01256,2.3838C1.95424,2.43407,1.88484,2.40357,1.82046,2.40978
		C1.87905,2.36152,1.94749,2.38492,2.01256,2.3838z"/>
	<path fill="#FEFEFE" d="M8.42757,8.96746c-0.1723,0.34986-0.50422,0.47301-0.86512,0.34248
		C7.50648,9.28969,7.47063,9.31055,7.42981,9.33215C7.21017,9.44839,6.98955,9.43911,6.77361,9.3285
		C6.71098,9.29642,6.66532,9.29313,6.59803,9.31809C6.16159,9.47997,5.73506,9.20307,5.72347,8.7454
		C5.72067,8.63512,5.66286,8.61804,5.58516,8.59244C5.04934,8.41591,4.57607,8.14383,4.23813,7.68211
		C3.82814,7.12195,3.80381,6.50595,3.97934,5.85882c0.17177-0.63325,0.51435-1.1503,1.02754-1.55943
		c0.02873-0.02291,0.05355-0.05064,0.08019-0.07613c0.03924-0.09677,0.14449-0.11883,0.2115-0.18435
		c0.0258-0.01841,0.05168-0.03654,0.08045-0.05037c0.67463-0.37981,1.39958-0.50429,2.16614-0.42661
		c0.66262,0.06715,1.25687,0.29926,1.77442,0.7168c0.63513,0.5124,1.01243,1.17671,1.12201,1.97736
		c0.05533,0.40428,0.03366,0.81291-0.18796,1.18168c-0.0344,0.06337-0.05884,0.1349-0.13462,0.16514
		C9.75727,8.12273,9.24405,8.42707,8.65184,8.61906C8.48882,8.67921,8.51669,8.86044,8.42757,8.96746z"/>
	<path fill="#FEFEFE" d="M16.24961,8.9394c-0.23215,0.31895-0.44826,0.39657-0.83777,0.2919
		c-0.06016-0.01616-0.101,0.00341-0.14915,0.02591c-0.22163,0.10357-0.44284,0.09695-0.65823-0.01571
		c-0.04976-0.02603-0.08417-0.03938-0.14384-0.01633c-0.45922,0.17741-0.86708-0.08289-0.88696-0.57044
		c-0.00466-0.11416-0.07565-0.12365-0.14903-0.14745c-0.49396-0.16023-0.93428-0.40534-1.26853-0.80946
		c-0.44737-0.54091-0.51531-1.15748-0.36032-1.8191c0.15733-0.67158,0.50392-1.22266,1.04401-1.65507
		c0.0245-0.01962,0.04532-0.04377,0.06785-0.06581c0.01844-0.0604,0.0833-0.0771,0.11734-0.12293
		c0.08048-0.07079,0.18486-0.10556,0.26626-0.17521c0.47087-0.23765,0.96594-0.36228,1.4976-0.3916
		c0.78327-0.0432,1.50705,0.12399,2.14632,0.56374c0.87074,0.59898,1.34926,1.43194,1.37236,2.49743
		c0.00614,0.28326-0.06802,0.554-0.19956,0.80715c-0.01697,0.07105-0.0899,0.10691-0.11196,0.17482
		c-0.04202,0.05908-0.07545,0.12594-0.14506,0.16059c-0.34654,0.42032-0.8049,0.67189-1.30895,0.8545
		C16.31932,8.57669,16.34593,8.80091,16.24961,8.9394z"/>
	<path fill="#5F797B" d="M18.06974,7.34601c0.55052-1.07474-0.08782-2.72173-1.37197-3.41274
		c-1.00567-0.54116-2.04802-0.56962-3.10828-0.16228c-0.1018,0.03911-0.19967,0.08832-0.29936,0.13284
		c-0.01422,0.0075-0.0331,0.01009-0.03686-0.00642c-0.01166-0.05131,0.03461-0.06622,0.06423-0.09116
		c0.50729-0.34488,1.06882-0.50644,1.68255-0.54636c0.54514-0.03546,1.07017,0.02791,1.56662,0.23579
		c1.04609,0.43802,1.69913,1.21273,1.91869,2.32662c0.07882,0.39986,0.04198,0.79298-0.12096,1.17383
		c-0.05733,0.134-0.15207,0.23881-0.22596,0.35924c-0.01477,0.02225-0.03179,0.04332-0.06201,0.02986
		C18.05977,7.3778,18.0632,7.36068,18.06974,7.34601z"/>
	<path fill="#5F797B" d="M10.2177,7.44645c0.11297-0.2732,0.20174-0.54761,0.19737-0.85217
		c-0.01173-0.81813-0.31184-1.51147-0.89694-2.07854C8.73939,3.76102,7.79097,3.50285,6.72375,3.60642
		C6.24131,3.65324,5.795,3.80442,5.37109,4.03051C5.35698,4.03733,5.3404,4.04069,5.33426,4.02371
		C5.32379,3.99475,5.34591,3.97872,5.36564,3.96313C5.40843,3.93168,5.45121,3.90023,5.494,3.86878
		C5.54358,3.83105,5.60622,3.815,5.65382,3.77397c0.61206-0.34803,1.27575-0.48633,1.97297-0.4401
		c0.79504,0.05272,1.50213,0.32487,2.09405,0.87559c0.52558,0.489,0.83346,1.08979,0.93441,1.7857
		c0.06743,0.46485,0.01121,0.92575-0.2754,1.32873c-0.02938,0.04414-0.06837,0.08119-0.09531,0.12713l0.00002,0.00001
		c-0.01509,0.02012-0.03101,0.04189-0.06022,0.03167C10.20717,7.47669,10.21068,7.46033,10.2177,7.44645z"/>
	<path fill="#2D4961" d="M3.51436,3.06096C3.51441,3.2988,3.31543,3.49275,3.07572,3.48853
		C2.84259,3.48442,2.65286,3.29272,2.65278,3.06119C2.6527,2.82341,2.85181,2.62932,3.09144,2.63358
		C3.32452,2.63774,3.51431,2.82953,3.51436,3.06096z"/>
	<path fill="#2D4961" d="M28.2606,6.57138c0.00419,0.23811-0.1911,0.43536-0.43091,0.43522
		c-0.23326-0.00014-0.42632-0.18849-0.43042-0.41991c-0.00422-0.23817,0.19107-0.43543,0.43093-0.43527
		C28.06364,6.15157,28.25653,6.33977,28.2606,6.57138z"/>
	<path fill="#658183" d="M24.00371,8.97042c0.01463-0.05974,0.04709-0.12149,0.04055-0.17886
		c-0.01975-0.1734,0.07207-0.22816,0.22282-0.23464c0.07118,0.06184,0.00862,0.11491-0.01679,0.16396
		C24.19479,8.82806,24.11028,8.91095,24.00371,8.97042z"/>
	<path fill="#657E80" d="M16.24961,8.9394c0.01105-0.09327,0.03856-0.18297,0.04754-0.27784
		c0.01373-0.14493,0.15051-0.11103,0.24486-0.13523C16.52612,8.7209,16.39666,8.83628,16.24961,8.9394z"/>
	<path fill="#637F81" d="M8.42757,8.96746c0.00812-0.04656,0.02757-0.09443,0.02231-0.13945
		C8.43173,8.67279,8.51876,8.62595,8.65184,8.61906C8.70699,8.75997,8.59983,8.92644,8.42757,8.96746z"/>
	<path fill="#6A8789" d="M13.3175,3.80625c0.00092,0.0353-0.07485,0.0494-0.02737,0.09757
		c-0.08475,0.05305-0.1695,0.10609-0.25425,0.15913c-0.0336,0.01046-0.0429-0.00513-0.03853-0.03539
		C13.09103,3.93522,13.19807,3.86191,13.3175,3.80625z"/>
	<path fill="#80ACAF" d="M22.54795,9.34604c0.10557,0.00189,0.21114,0.00377,0.31671,0.00565
		C22.77529,9.44711,22.62356,9.44441,22.54795,9.34604z"/>
	<path fill="#6D8B8E" d="M25.83343,7.35391c0.0031,0.02561,0.00624,0.05119,0.03284,0.06512
		c-0.05342,0.12118-0.08873,0.15582-0.19279,0.18914C25.72679,7.52342,25.78011,7.43866,25.83343,7.35391z"/>
	<path fill="#6F8F91" d="M5.31445,4.06623C5.23866,4.11856,5.16287,4.1709,5.08707,4.22325
		C5.07861,4.09398,5.19354,4.07807,5.27014,4.02694C5.29345,4.03055,5.30858,4.04324,5.31445,4.06623z"/>
	<path fill="#668587" d="M18.06974,7.34601c0.01775,0.04043,0.04435,0.01681,0.0687,0.00936
		c-0.00133,0.09058-0.11364,0.10742-0.12778,0.18949c-0.03101,0.00373-0.04777-0.00548-0.03678-0.0399
		C17.98742,7.44103,18.03219,7.39567,18.06974,7.34601z"/>
	<path fill="#6A8688" d="M10.2177,7.44645c0.01971,0.03859,0.04421,0.00818,0.06685,0.00457
		c-0.02781,0.08-0.05927,0.15608-0.16552,0.15189C10.15191,7.55076,10.1848,7.49861,10.2177,7.44645z"/>
	<path fill="#719395" d="M17.97389,7.50496c0.01226,0.01331,0.02452,0.02661,0.03678,0.03991
		c-0.04576,0.05157-0.06807,0.13222-0.1597,0.12696C17.89194,7.61621,17.93291,7.56058,17.97389,7.50496z"/>
	<path fill="#739497" d="M12.99735,4.02757c0.01284,0.01179,0.02568,0.02359,0.03852,0.03539
		c-0.04273,0.03163-0.08547,0.06325-0.12821,0.09488C12.87388,4.07123,12.96381,4.06852,12.99735,4.02757z"/>
	<path fill="#6C898B" d="M5.65382,3.77397C5.62002,3.8379,5.56031,3.85882,5.49401,3.86879
		C5.5286,3.80617,5.58807,3.78486,5.65382,3.77397z"/>
	<path fill="#6C898B" d="M5.31445,4.06623c-0.01476-0.01309-0.02953-0.02618-0.0443-0.03928
		c0.01874-0.04058,0.05039-0.06212,0.09549-0.06381c-0.003,0.02283-0.03354,0.04787,0.00544,0.06737
		C5.35221,4.04242,5.33333,4.05432,5.31445,4.06623z"/>
	<path fill="#6A8688" d="M10.28453,7.45101c0.00152-0.06472,0.04387-0.09928,0.0953-0.12713
		C10.377,7.38762,10.3352,7.4226,10.28453,7.45101z"/>
	<path fill="#72A2A6" d="M20.82174,5.42193c0.35432-0.29264,0.80491-0.26807,1.13161,0.0617
		c0.40189,0.40568,0.40846,1.11641,0.01401,1.5161c-0.72472,0.31938-1.28266-0.37197-1.28745-0.89509
		C20.67771,5.86434,20.68763,5.63186,20.82174,5.42193z"/>
	<path fill="#72A2A6" d="M23.50278,5.45251c0.27921-0.27397,0.71024-0.30902,1.03257-0.08397
		c0.47632,0.33256,0.57031,1.13165,0.18532,1.5756c-0.32891,0.29192-0.92349,0.10628-1.17589-0.33572
		C23.33019,6.23263,23.34553,5.84398,23.50278,5.45251z"/>
	<path fill="#5F797B" d="M20.82174,5.42193c0.05312,0.04951-0.00228,0.0864-0.01726,0.12564
		c-0.13974,0.36628-0.12617,0.72213,0.07974,1.06072c0.21391,0.35174,0.62436,0.52857,0.99615,0.38004
		c0.03092-0.01236,0.06143-0.01825,0.08697,0.01141c-0.27886,0.34617-0.79805,0.39202-1.13413,0.10014
		C20.33031,6.6631,20.3251,5.90199,20.82174,5.42193z"/>
	<path fill="#5F797B" d="M23.50278,5.45251c0.05712,0.06493-0.00948,0.1162-0.022,0.17189
		c-0.06934,0.30838-0.07796,0.60901,0.06665,0.90348c0.2065,0.42049,0.73436,0.65525,1.12667,0.42409
		c0.01263-0.00744,0.03092-0.00543,0.04657-0.00782c-0.30032,0.41203-0.84932,0.46591-1.21808,0.11955
		C23.04999,6.6386,23.05008,5.87058,23.50278,5.45251z"/>
	<path fill="#607A7C" d="M23.08488,7.89508c0.01257,0.12842-0.05924,0.19412-0.17311,0.2267
		c-0.1147,0.03282-0.22983,0.03575-0.34316-0.00583c-0.16339-0.05995-0.22349-0.15899-0.19063-0.33059
		c0.03402-0.17768,0.11942-0.32233,0.29513-0.39888c0.02421,0.03961,0.01081,0.08139,0.00674,0.12244
		c-0.01921,0.19371,0.05242,0.29334,0.24239,0.33718C22.9775,7.85886,23.04024,7.84747,23.08488,7.89508z"/>
	<path fill="#72A2A6" d="M23.08488,7.89508c-0.06852-0.00402-0.14032,0.00369-0.20496-0.01415
		c-0.24051-0.06639-0.30075-0.2167-0.20681-0.49445c0.09023-0.06265,0.16388-0.01443,0.21991,0.04737
		C23.01051,7.56344,23.09743,7.71009,23.08488,7.89508z"/>
	<path fill="#72A2A6" d="M5.23729,5.47399c0.34657-0.31643,0.8657-0.24566,1.19669,0.16315
		c0.32154,0.39714,0.28681,1.06287-0.07487,1.43503C6.11407,7.15887,5.87327,7.1667,5.63466,7.04553
		C5.2337,6.84193,5.00329,6.35867,5.07839,5.88162C5.10181,5.73286,5.15149,5.59727,5.23729,5.47399z"/>
	<path fill="#72A2A6" d="M7.92191,5.4854c0.44523-0.35614,0.99957-0.24296,1.29437,0.26426
		c0.2388,0.41087,0.17542,0.98523-0.14558,1.31935c-0.73166,0.27115-1.253-0.32633-1.28868-0.92967
		C7.7683,5.90738,7.81564,5.69081,7.92191,5.4854z"/>
	<path fill="#5F797B" d="M7.92191,5.4854C7.94785,5.61476,7.85799,5.71676,7.83783,5.8367
		c-0.0868,0.51651,0.16092,1.13818,0.75921,1.25314C8.72877,7.11515,8.8478,7.07622,8.97111,7.0541
		c0.03741-0.00671,0.07118-0.02354,0.09958,0.01492C8.67913,7.50221,8.0513,7.42889,7.72883,6.91231
		C7.44651,6.46006,7.53063,5.83842,7.92191,5.4854z"/>
	<path fill="#5F797B" d="M5.23729,5.47399C5.1719,5.68384,5.09064,5.89047,5.11113,6.11707
		c0.03631,0.40159,0.18806,0.73264,0.58022,0.90698C5.847,7.09325,6.0101,7.12701,6.18464,7.07622
		C6.23599,7.06127,6.30046,7.00067,6.3591,7.07218c-0.3979,0.4339-1.01273,0.35856-1.34229-0.16449
		C4.72731,6.44823,4.8231,5.82539,5.23729,5.47399z"/>
	<path fill="#607A7C" d="M7.47974,7.99386C7.43258,8.16398,7.2947,8.23303,7.06568,8.20121
		c-0.19813-0.02753-0.30993-0.13343-0.29557-0.3025c0.01662-0.19573,0.10136-0.35707,0.28902-0.44858
		c0.03238,0.03624,0.01875,0.07878,0.01695,0.11986C7.06646,7.78929,7.1191,7.85503,7.33736,7.90887
		C7.39142,7.92221,7.47129,7.90188,7.47974,7.99386z"/>
	<path fill="#72A1A5" d="M7.47974,7.99386C7.45117,7.9536,7.40754,7.96107,7.3663,7.95607
		C7.06038,7.919,6.97386,7.77565,7.05913,7.45013c0.08775-0.06525,0.16588-0.02611,0.22513,0.0368
		C7.41703,7.62792,7.5062,7.79017,7.47974,7.99386z"/>
	<path fill="#72A2A6" d="M13.05407,5.41407c0.28582-0.2779,0.74121-0.29266,1.05736-0.03429
		C14.5834,5.7655,14.632,6.52436,14.21372,6.97682c-0.71888,0.30061-1.25327-0.32437-1.28834-0.84679
		C12.90875,5.88246,12.91162,5.63502,13.05407,5.41407z"/>
	<path fill="#72A2A6" d="M15.77451,5.40414c0.40849-0.36952,1.01034-0.23775,1.29655,0.28387
		c0.21815,0.39759,0.15686,0.93734-0.14596,1.28529c-0.55819,0.2564-1.19432-0.12283-1.28045-0.77608
		C15.60916,5.92808,15.6002,5.64706,15.77451,5.40414z"/>
	<path fill="#5F797B" d="M15.77451,5.40414c-0.06182,0.22688-0.1075,0.45274-0.09878,0.69299
		c0.01987,0.54717,0.52963,1.07094,1.16482,0.87006c0.03005-0.0095,0.05867-0.02859,0.08453,0.00613
		c-0.33856,0.38607-0.90057,0.39034-1.24202,0.00942C15.27854,6.53144,15.32231,5.77584,15.77451,5.40414z"/>
	<path fill="#5F797B" d="M13.05407,5.41407c0.04314,0.0347,0.00669,0.06609-0.00523,0.09728
		c-0.12971,0.33925-0.14174,0.67954,0.03873,1.00085c0.23726,0.42244,0.55712,0.5795,1.02777,0.45914
		c0.03389-0.00867,0.0679-0.03865,0.09837,0.00548c-0.35596,0.39715-0.89266,0.39258-1.24992-0.01063
		C12.56886,6.52045,12.60994,5.81422,13.05407,5.41407z"/>
	<path fill="#607A7C" d="M15.32488,7.86386c0.01972,0.13861-0.06137,0.20722-0.18009,0.23752
		c-0.0655,0.01672-0.13701,0.01849-0.20521,0.0151c-0.28098-0.01399-0.4066-0.21707-0.28943-0.47093
		c0.0463-0.10032,0.10533-0.19543,0.20422-0.25684c0.04949-0.03419,0.07645-0.0016,0.0681,0.03797
		c-0.06367,0.30168,0.11251,0.38766,0.36471,0.41037C15.3017,7.83835,15.31384,7.85264,15.32488,7.86386z"/>
	<path fill="#72A2A6" d="M15.32488,7.86386C15.27204,7.8631,15.21864,7.867,15.16647,7.86078
		c-0.23122-0.02759-0.31991-0.14711-0.28779-0.37373c0.00426-0.03008,0.05352-0.0837-0.02432-0.09834
		c0.12333-0.0825,0.22954-0.05757,0.31295,0.05763C15.25721,7.57052,15.33865,7.70011,15.32488,7.86386z"/>
</g>
</svg>
