<?xml version="1.0" encoding="utf-8"?>
<!-- Generator: Adobe Illustrator 23.0.0, SVG Export Plug-In . SVG Version: 6.00 Build 0)  -->
<svg version="1.1" id="Слой_1" xmlns="http://www.w3.org/2000/svg" xmlns:xlink="http://www.w3.org/1999/xlink" x="0px" y="0px" width="32px" height="13px"
	 viewBox="0 0 32 13" enable-background="new 0 0 32 13" xml:space="preserve">
<g>
	<path fill="#2D2D2D" d="M0.00225,12.20456c0-2.20796,0-4.41593,0-6.6239c0.03484-0.02885,0.07491-0.03615,0.11867-0.0287
		c0.30471,0.10753,0.41072,0.26299,0.41096,0.61574c0.00116,1.65234,0.00038,3.30467,0.00055,4.95701
		c0.00003,0.25339-0.00339,0.50683,0.00116,0.76017c0.0063,0.35067,0.20489,0.54537,0.55886,0.55347
		c0.06912,0.00158,0.13828,0.00062,0.20742,0.00062c5.03139,0.00002,10.06278,0.00001,15.09417,0.00004
		c0.07446,0,0.14894-0.00118,0.22337,0.00091c0.30537,0.00858,0.46824,0.1301,0.56346,0.41944
		c0.00416,0.04391-0.00023,0.08515-0.03737,0.11586c-0.06345,0.01024-0.12743,0.00507-0.19116,0.00508
		c-5.29465,0.00028-10.58931,0.00018-15.88396,0.00114c-0.06787,0.00001-0.13821-0.01705-0.20401,0.01545
		c-0.02129,0-0.04257,0-0.06386,0c-0.33183-0.05126-0.56626-0.23332-0.72469-0.52323
		C0.02903,12.38801,0.03066,12.29308,0.00225,12.20456z"/>
	<path fill="#262727" d="M31.99691,6.78501c-0.06809,0.03773-0.04715,0.11021-0.0594,0.16591
		c-0.39912,1.81492-1.17801,3.443-2.43218,4.8313c-0.4517,0.50001-0.98541,0.89516-1.64168,1.10545
		c-0.12238,0.03921-0.25887,0.03076-0.36898,0.10923c-0.05322,0-0.10644,0-0.15965,0
		c-0.06033-0.03172-0.1254-0.01548-0.18795-0.0155c-3.31336-0.00108-6.62672-0.00052-9.94008-0.00103
		c-0.02224,0.00184-0.04137-0.00496-0.05738-0.02038c-0.00017-0.02995-0.00034-0.05991-0.00051-0.08987
		c0.08267-0.06982,0.18268-0.04486,0.27569-0.04491c2.59014-0.0014,5.18027-0.00111,7.77041-0.00111
		c0.64355,0,1.2872-0.00727,1.9306,0.00236c0.49167,0.00736,0.93093-0.14304,1.34224-0.3928
		c0.301-0.18277,0.55404-0.4214,0.80717-0.66499c0.73802-0.71021,1.25873-1.56714,1.6928-2.47521
		c0.38063-0.7963,0.69538-1.62145,0.83759-2.5003c0.01682-0.10392,0.00055-0.21207,0.04271-0.31225
		c0.0232-0.0356,0.0571-0.0408,0.09553-0.03289c0.04341,0.0116,0.02779,0.06034,0.05309,0.08344
		C31.99691,6.61598,31.99691,6.7005,31.99691,6.78501z"/>
	<path fill="#1A1A1A" d="M31.96232,6.46722c-0.03099,0.00035-0.06199,0.0007-0.09298,0.00106
		c-0.04772,0.02091-0.07377,0.0121-0.06416-0.04599c0.06061-0.1573,0.01527-0.31387-0.01158-0.46757
		c-0.12272-0.70242-0.36961-1.36663-0.66622-2.01134c-0.40354-0.87713-0.89063-1.70878-1.52856-2.439
		c-0.39678-0.45418-0.846-0.86123-1.39323-1.14126c-0.38106-0.195-0.78998-0.27983-1.21652-0.28014
		c-1.76632-0.00125-3.53264-0.00052-5.29897-0.00052c-5.45857,0-10.91714-0.00002-16.37572,0.00013
		c-0.11167,0-0.22393-0.00668-0.33359,0.02279C4.95084,0.11189,4.92434,0.10824,4.90674,0.07972
		c-0.0107-0.02808-0.00696-0.05389,0.01285-0.07707c7.5676,0,15.1352,0,22.7028,0c0.54725,0.15601,1.03093,0.42411,1.46038,0.79587
		c0.58692,0.50808,1.05576,1.11143,1.46037,1.76595c0.62529,1.01151,1.10947,2.08304,1.37422,3.24577
		c0.02358,0.10358,0.01354,0.21627,0.07955,0.3092c0,0.06339,0,0.12677,0,0.19016
		C31.95632,6.35586,32.00553,6.42153,31.96232,6.46722z"/>
	<path fill="#252525" d="M4.91959,0.00265C4.91953,0.02374,4.91948,0.04483,4.91942,0.06593
		c-0.08125,0.07212-0.18151,0.049-0.2746,0.04914C3.43704,0.11694,2.22925,0.11373,1.02148,0.11741
		c-0.52593,0.0016-0.86555,0.34356-0.87262,0.86541C0.14807,1.0409,0.14857,1.099,0.14857,1.15709
		c-0.00003,1.38363,0.00052,2.76726-0.00112,4.1509c-0.00011,0.09241,0.02312,0.1919-0.04936,0.27262
		C0.06614,5.58063,0.03419,5.58065,0.00225,5.58067c0-1.61636,0-3.23271,0-4.84907c0.05855-0.37618,0.26539-0.62436,0.63862-0.72895
		C2.06711,0.00265,3.49335,0.00265,4.91959,0.00265z"/>
	<path fill="#697681" d="M17.1496,12.95999c0.00971,0.00373,0.01962,0.00684,0.02972,0.00935
		c0.01135,0.00546,0.01536,0.01135,0.0121,0.0177c-0.00336,0.00656-0.00681,0.00985-0.0104,0.00985
		c-5.43888,0-10.87776,0-16.31664,0c0.04292-0.06314,0.1075-0.03102,0.16094-0.03103
		c5.32693-0.00157,10.65386-0.00146,15.98079-0.00165C17.05394,12.96421,17.10177,12.96145,17.1496,12.95999z"/>
	<path fill="#535F69" d="M17.18102,12.99689c-0.00011-0.00922-0.00067-0.01842-0.00169-0.02757
		c0.05315-0.00135,0.1063-0.00391,0.15946-0.00392c3.28301-0.00031,6.56602-0.00052,9.84904,0.0004
		c0.04974,0.00001,0.10786-0.02364,0.14719,0.03109C23.95035,12.99689,20.56568,12.99689,17.18102,12.99689z"/>
	<path fill="#404C56" d="M31.96232,6.46722c0.01474-0.05184-0.02379-0.1152,0.03459-0.1576c0,0.07395,0,0.1479,0,0.22185
		C31.96879,6.51885,31.96571,6.49295,31.96232,6.46722z"/>
	<path fill="#202020" d="M0.09808,5.58061c-0.00002-1.54011-0.00012-3.08022,0-4.62033
		c0.00004-0.51903,0.37744-0.89412,0.8997-0.8942C2.305,0.06589,3.61221,0.06596,4.91942,0.06593
		c0.01064,0.01064,0.02128,0.02128,0.03193,0.03192c0.04366,0.02486,0.0649,0.06882,0.09224,0.10741
		c0.08564,0.12087,0.2045,0.18094,0.35126,0.19C5.4799,0.40051,5.56508,0.39828,5.6502,0.39828
		c7.02903,0.00009,14.05806,0.00473,21.08706-0.00879c0.55949-0.00108,1.03711,0.1602,1.51205,0.41332
		c0.69131,0.36843,1.18741,0.92961,1.63128,1.55255c0.4435,0.62242,0.72927,1.32302,1.03921,2.01193
		c0.17585,0.39088,0.33203,0.78997,0.43041,1.20823c0.07687,0.32683,0.1607,0.64821,0.45495,0.86106
		c0.01393,0.02544,0.0379,0.03087,0.06417,0.03169c0.00679,0.4485-0.11965,0.87264-0.25237,1.29329
		C31.47009,8.22714,31.28036,8.6759,31.0855,9.1251c-0.31538,0.72701-0.72503,1.39095-1.19183,2.02606
		c-0.20607,0.28037-0.46843,0.50803-0.70507,0.75982c-0.29875,0.31787-0.64621,0.55719-1.03588,0.74066
		c-0.29409,0.13847-0.60365,0.22004-0.93493,0.21982c-3.35623-0.00217-6.71246-0.00134-10.06869-0.00135
		c-0.10196-0.29204-0.31434-0.38412-0.6164-0.38384c-5.14297,0.0049-10.28595,0.00073-15.4289,0.00971
		c-0.34754,0.00061-0.63121-0.28369-0.6289-0.61815C0.48795,9.9828,0.47759,8.08761,0.48492,6.19251
		C0.48608,5.89258,0.39217,5.68193,0.09808,5.58061z"/>
	<path fill="#131313" d="M31.80517,6.43658c-0.22489-0.05813-0.3148-0.23908-0.38186-0.43071
		c-0.12856-0.36732-0.19735-0.7517-0.34122-1.11654c-0.1529-0.38775-0.32437-0.76677-0.49199-1.14767
		c-0.26204-0.59546-0.58978-1.15121-0.98067-1.67578c-0.54525-0.73173-1.2497-1.23284-2.10033-1.54995
		c-0.14279-0.05323-0.28385-0.07107-0.43435-0.07104C19.86969,0.44658,12.66463,0.44637,5.45958,0.44632
		c-0.29313,0-0.45802-0.11334-0.50823-0.34847c0.00567-0.04424,0.03182-0.06363,0.07582-0.06307
		c0.04254,0.00054,0.0851-0.00036,0.12766-0.00036c7.30342-0.00002,14.60684-0.00124,21.91026,0.00247
		c0.54106,0.00027,1.03348,0.16839,1.48521,0.47661c0.17302,0.11805,0.33561,0.24957,0.50583,0.37034
		c0.13077,0.09278,0.21323,0.25094,0.3406,0.35049c0.23318,0.18226,0.41112,0.41171,0.5741,0.64783
		c0.25721,0.37263,0.50624,0.75076,0.73422,1.14418c0.39926,0.68901,0.70755,1.41264,0.95337,2.16585
		c0.121,0.37076,0.18998,0.7521,0.24065,1.13742C31.90852,6.40145,31.88471,6.44263,31.80517,6.43658z"/>
	<path fill="#262626" d="M14.07014,12.10944c-4.26216,0-8.52433,0-12.78649,0c-0.38566,0-0.41923-0.03266-0.41923-0.40812
		C0.8644,8.21026,0.8644,4.71921,0.86442,1.22816c0-0.36483,0.03742-0.40144,0.41-0.40144
		C9.80407,0.8267,18.33372,0.82756,26.86337,0.825c0.6485-0.00019,1.18554,0.23307,1.66833,0.65665
		c0.35594,0.31228,0.66596,0.66318,0.93136,1.04329c0.3848,0.55112,0.71856,1.13511,0.98389,1.7584
		c0.13528,0.3178,0.27643,0.63321,0.38799,0.95945c0.21368,0.62486,0.32826,1.25336,0.13388,1.91503
		c-0.13332,0.45384-0.27057,0.90815-0.45753,1.33883c-0.17035,0.3924-0.34635,0.78833-0.57743,1.1544
		c-0.11409,0.18073-0.20294,0.37749-0.32112,0.55527c-0.24721,0.37191-0.52165,0.73089-0.83645,1.04239
		c-0.37266,0.36876-0.78793,0.71096-1.33646,0.8067c-0.19166,0.03345-0.38863,0.05173-0.58319,0.05186
		C22.59447,12.11012,18.33231,12.10944,14.07014,12.10944z"/>
	<path fill="#253D29" d="M27.84534,1.11157c0.23423,0.16581,0.49301,0.29228,0.70921,0.48946
		c0.26628,0.24287,0.50114,0.51107,0.71598,0.79526c0.37568,0.49693,0.69513,1.03021,0.96471,1.59119
		c0.16857,0.3508,0.32112,0.70895,0.45394,1.07499c0.01993,0.05493,0.03677,0.10985,0.03014,0.16918
		C30.69,5.34865,30.65927,5.46532,30.6337,5.58324c-0.11052,0.50977-0.61013,0.75805-0.96162,0.78434
		c-0.56381-0.11169-1.03789-0.37235-1.43362-0.79407c-0.63387-0.6755-1.42252-1.08717-2.3281-1.28925
		c-0.26374-0.05885-0.5273-0.12183-0.78747-0.19661c-0.10447-0.0264-0.2171-0.01673-0.31549-0.07003
		c-0.18436-0.14245-0.31142-0.34117-0.50102-0.48205c-0.37897-0.28158-0.77954-0.51533-1.25126-0.59363
		c-0.76112-0.12634-1.49038-0.04587-2.15976,0.36973c-0.06117,0.03798-0.12202,0.0901-0.20515,0.05647
		c-0.00899-0.00608-0.01955-0.0111-0.02519-0.0195c-0.2397-0.35741-0.60279-0.44362-1.00164-0.44443
		c-0.99944-0.00203-1.99889-0.001-2.99834-0.00021c-0.12754,0.0001-0.25505-0.01054-0.38265-0.00063
		c-0.2108,0.00737-0.42151-0.01174-0.63225-0.00054c-0.30728,0.0035-0.61458,0.00248-0.92169,0.00074
		C14.66692,2.90044,14.60465,2.891,14.5465,2.92221c-0.20727,0.05497-0.40526,0.14291-0.61966,0.17378
		c-0.06671-0.03421-0.02869-0.06776,0.0042-0.09395c0.07891-0.06283,0.17195-0.09545,0.27053-0.11413
		c-0.05656,0.01054-0.11358,0.01491-0.17126,0.01486c-0.55307-0.0004-1.10614,0.0001-1.65921-0.00043
		c-0.31763-0.0003-0.59392-0.10987-0.77428-0.36929c-0.26156-0.3762-0.59743-0.50187-1.05914-0.49569
		C8.78308,2.06086,7.02795,2.04779,5.27302,2.04625C4.79825,2.04583,4.49947,1.83555,4.33963,1.39927
		c-0.01009-0.06401-0.0361-0.12516-0.03669-0.19108C4.29838,1.1703,4.3009,1.13236,4.30115,1.0943
		c0.004-0.05878-0.0057-0.12316,0.06408-0.15507c0.98427-0.00268,1.96845-0.00102,2.95263-0.00105
		c6.63928-0.00019,13.27856-0.00012,19.91769-0.00011c0.08724,0.01197,0.17376,0.0287,0.25995,0.04717l-0.00134-0.00076
		c0.06292,0.02552,0.13276,0.03053,0.19292,0.06421l-0.00106-0.00073C27.73581,1.07736,27.79416,1.0856,27.84534,1.11157z"/>
	<path fill="#3D5C46" d="M0.98985,9.82918c-0.0083-0.03369-0.0166-0.06737-0.0249-0.10106
		c0.02022-0.0456,0.01126-0.0938,0.01127-0.14079c0.00047-2.08028,0.00048-4.16057-0.00005-6.24085
		C0.97615,3.29965,0.98622,3.25124,0.96333,3.20621C0.96254,3.19557,0.96176,3.18492,0.96097,3.17428
		C1.0135,2.97824,1.10413,2.80045,1.24482,2.65415c0.10455-0.10872,0.21286-0.22646,0.39274-0.19016
		c0.26598,0.11976,0.36256,0.33153,0.36206,0.61258C1.99649,4.81931,1.99817,6.56205,1.99773,8.30479
		C1.99767,8.53751,2.03977,8.7546,2.19248,8.94241c0.19723,0.24255,0.44963,0.36248,0.76291,0.3622
		C3.52469,9.30411,4.094,9.30389,4.6633,9.30472c0.44587,0.00065,0.678,0.18091,0.78667,0.60866
		c0.09314,0.36662,0.40805,0.65966,0.7908,0.67991c0.49863,0.02639,0.99913,0.02,1.4986,0.00058
		c0.07411-0.015,0.14355,0.00271,0.2115,0.03021c0.14094,0.07485,0.28209,0.06992,0.42345,0.00029
		c0.0793-0.0247,0.15875-0.04748,0.24334-0.02986c0.06825,0.01976,0.13766,0.00699,0.20637,0.00703
		c1.34985,0.00081,2.69971,0.00166,4.04956-0.0005c0.29796-0.00048,0.52354,0.11264,0.67099,0.37265
		c0.09103,0.16052,0.08141,0.33496,0.07474,0.50916c-0.00122,0.05623,0.00284,0.11268-0.00209,0.16889
		c-0.00036,0.03591,0.0021,0.07194-0.00046,0.10785c-0.00005,0.06169,0.00248,0.12355-0.00671,0.18501
		c-0.00493,0.02727-0.02037,0.04881-0.03835,0.06895c-3.51406,0.00028-7.02813,0.00052-10.54219,0.00117
		c-0.06415,0.00001-0.12768,0.00128-0.18586-0.03137c-0.1377-0.0027-0.22047-0.09813-0.29896-0.18803
		c-0.15802-0.18099-0.24032-0.39541-0.25292-0.63581c-0.01337-0.255-0.05329-0.29297-0.31681-0.30892
		c-0.43578-0.02637-0.92092-0.4448-0.98815-0.85119C0.97732,9.94204,0.96598,9.88555,0.98985,9.82918z"/>
	<path fill="#273D2B" d="M13.5717,12.01356c0.00074-0.02075,0.00147-0.0415,0.0022-0.06225
		c0.07796-0.06494,0.17208-0.04538,0.26062-0.04543c1.71337-0.00109,3.42674-0.0008,5.14012-0.0008
		c2.36786,0,4.73572,0.00001,7.10358-0.00005c0.06384,0,0.12776,0.00192,0.19151-0.00242
		c0.23846-0.01623,0.42594-0.10458,0.53653-0.3333c0.13679-0.28291,0.34736-0.47792,0.66704-0.56498
		c0.54114-0.14738,0.938-0.50333,1.2718-0.93471c0.43949-0.56797,0.80497-1.17897,1.08031-1.84241
		c0.13322-0.32102,0.29518-0.63069,0.38091-0.97011c0.01062-0.04204,0.03334-0.07769,0.07527-0.09712
		c0.0458-0.01741,0.08519,0.00091,0.1155,0.03071c0.17883,0.17589,0.29708,0.37702,0.25907,0.63987
		c-0.046,0.27329-0.17382,0.51867-0.2807,0.76905c-0.25085,0.58762-0.55553,1.14791-0.91677,1.67741
		c-0.21124,0.30963-0.43984,0.60848-0.70291,0.87236c-0.3891,0.39031-0.8152,0.74003-1.38527,0.84701
		c-0.05164,0.00969-0.10466,0.01727-0.15704,0.01728C22.66622,12.01417,18.11896,12.01383,13.5717,12.01356z"/>
	<path fill="#202020" d="M1.59853,2.47396C1.3,2.55683,1.16352,2.79515,1.04119,3.04682
		C1.01909,3.0923,1.01866,3.15093,0.96096,3.17426C0.9607,2.92358,0.96081,2.67289,0.95989,2.42219
		c-0.00021-0.0578-0.00196-0.11521,0.03264-0.16595C0.99401,2.23279,1.00333,2.21263,1.01836,2.1948
		C1.14333,2.08792,1.276,1.99346,1.43644,1.94479c0.04147-0.01191,0.08423-0.01888,0.12558-0.03147
		c0.0472-0.01343,0.09756-0.01138,0.14376-0.02969c0.01257-0.00642,0.02525-0.01238,0.0377-0.01888
		C1.81383,1.81701,1.80556,1.73684,1.8265,1.66873c0.04451-0.14481,0.08338-0.29174,0.15891-0.42519
		c0.03311-0.04751,0.06524-0.09579,0.10263-0.14029c0.01987-0.0211,0.04331-0.03796,0.06653-0.05503
		c0.03826-0.03153,0.07174-0.06886,0.11474-0.09474c0.04154-0.04841,0.09828-0.03084,0.14913-0.03101
		c0.34481-0.00117,0.68962-0.0003,1.03443-0.0001C3.46364,0.93572,3.46819,0.9509,3.46662,0.96791
		c-0.0323,0.08873-0.10929,0.11008-0.19045,0.11733C3.20141,1.09193,3.12908,1.10439,3.0599,1.13291
		C2.99041,1.15955,2.92185,1.18818,2.8614,1.23276C2.78993,1.28789,2.71271,1.3361,2.65408,1.40651
		C2.42209,1.58156,2.3492,1.82443,2.34086,2.101C2.3346,2.30867,2.22953,2.41543,2.02331,2.41787
		C1.87791,2.41959,1.74317,2.48021,1.59853,2.47396z"/>
	<path fill="#202020" d="M30.65615,7.83056c-0.0436-0.2601-0.11685-0.50483-0.35065-0.66632
		c-0.06846-0.01336-0.1056-0.07502-0.16384-0.10415c-0.02981-0.02041-0.05875-0.04212-0.09122-0.05861
		c-0.05436-0.02917-0.11215-0.04904-0.1719-0.06442c-0.13676-0.04259-0.2747-0.07269-0.41898-0.08052
		c-0.15445-0.00838-0.24774-0.11276-0.24385-0.25358c0.00403-0.14593,0.12841-0.2713,0.27503-0.2692
		c0.05762,0.00082,0.11568,0.00404,0.17352,0.00648c0.53184-0.1058,0.88281-0.35962,0.96208-0.91818
		c0.0099-0.06974,0.01541-0.1496,0.09299-0.19042c0.0975,0.23457,0.20175,0.4674,0.19223,0.72976
		c0.03714,0.13672-0.05507,0.22619-0.12754,0.31639c-0.08535,0.10622-0.18834,0.19749-0.30623,0.26984
		c-0.08271,0.05076-0.07981,0.09763,0.0016,0.15067c0.12349,0.08046,0.24476,0.16487,0.32469,0.29347
		c0.02695,0.04337,0.06917,0.08213,0.04364,0.14146C30.85213,7.38415,30.75152,7.60665,30.65615,7.83056z"/>
	<path fill="#202020" d="M0.98985,9.82918c-0.0049,0.23906,0.13542,0.41482,0.26741,0.59192
		c0.1984,0.2662,0.4596,0.40518,0.80209,0.39135c0.17779-0.00718,0.27208,0.08601,0.27203,0.25671
		c-0.00012,0.40118,0.15993,0.70969,0.51229,0.91419c-0.24404,0.0532-0.488,0.04886-0.73191-0.00086
		c-0.11345-0.03966-0.14618-0.14466-0.19103-0.23773c-0.03198-0.06637-0.05494-0.13918-0.06004-0.21164
		c-0.0117-0.16644-0.10218-0.23499-0.26212-0.25624c-0.17503-0.02326-0.33417-0.09798-0.47999-0.19777
		c-0.05227-0.03577-0.10624-0.0703-0.13159-0.13265c-0.00946-0.01612-0.0075-0.03072,0.00578-0.04383
		c-0.04524-0.06636-0.03583-0.14207-0.0316-0.21446C0.97788,10.40203,0.9215,10.1135,0.98985,9.82918z"/>
	<path fill="#3D5C46" d="M0.99599,10.93227c0.19723,0.17984,0.42977,0.28727,0.69425,0.32096
		c0.12489,0.01591,0.1838,0.07703,0.19644,0.19995c0.02037,0.1981,0.09671,0.3752,0.22506,0.52931
		c-0.03608,0.04479-0.08711,0.03138-0.1332,0.03139c-0.32927,0.00008-0.65855-0.00125-0.98782-0.00213
		C0.97033,11.65182,0.96118,11.29194,0.99599,10.93227z"/>
	<path fill="#535F69" d="M3.45265,0.95169c-0.00106-0.00978-0.001-0.01955,0.00021-0.02932
		c7.8963-0.00019,15.79258-0.00039,23.68886-0.00046c0.04255,0,0.0851,0.00178,0.12766,0.00272
		c0.01185,0.00572,0.01592,0.01168,0.01225,0.0179c-0.00372,0.00632-0.0075,0.00949-0.01138,0.00949
		c-1.64965,0.00047-3.29931,0.00131-4.94896,0.00136C16.4038,0.95355,10.48632,0.95344,4.56884,0.95357
		c-0.07448,0-0.14895,0.00179-0.22343,0.00275c-0.03795,0.03238-0.0836,0.04377-0.13191,0.0449
		C4.00282,1.00615,3.79209,1.00725,3.58144,1.00046C3.534,0.99893,3.48635,0.99186,3.45265,0.95169z"/>
	<path fill="#263D2A" d="M30.84771,7.13324c-0.08815-0.18795-0.23871-0.31805-0.41312-0.41995
		c-0.12259-0.07163-0.10223-0.11856,0.00239-0.1858c0.21636-0.13904,0.40476-0.3045,0.47458-0.56609
		c0.11015,0.06357,0.07323,0.1833,0.08646,0.2718c0.04415,0.29553-0.03884,0.5834-0.09884,0.87094
		C30.89652,7.11682,30.86551,7.12367,30.84771,7.13324z"/>
	<path fill="#535F69" d="M0.96333,3.20621c0.04951,0.04827,0.02776,0.10992,0.02779,0.16534
		c0.00116,2.06346,0.00116,4.12692,0.00004,6.19038C0.99113,9.61761,1.0116,9.67886,0.96492,9.72817
		C0.96335,9.17938,0.96033,8.63064,0.96043,8.0819C0.96073,6.45667,0.96227,4.83144,0.96333,3.20621z"/>
	<path fill="#2A442F" d="M2.26931,0.95348C2.24351,1.00021,2.23066,1.05672,2.17285,1.07925
		c-0.07412-0.00767-0.14611,0.0137-0.22025,0.01427C1.71341,1.09537,1.6155,1.19341,1.61107,1.42676
		c-0.00219,0.11552-0.0001,0.23108-0.00092,0.34661C1.60973,1.83136,1.61084,1.88978,1.567,1.93646
		C1.53303,1.9815,1.48324,1.96336,1.43915,1.96799C1.3689,1.887,1.40379,1.78868,1.39368,1.69771
		c-0.01947-0.175,0.03758-0.34078,0.06512-0.50962c0.02257-0.1384,0.12562-0.21074,0.25515-0.24923
		c0.16339,0.00672,0.32759-0.01792,0.49013,0.01419C2.22581,0.9532,2.24756,0.95334,2.26931,0.95348z"/>
	<path fill="#535F69" d="M2.20407,0.95306C2.03387,0.95403,1.86368,0.95499,1.69349,0.95596
		C1.56365,1.0224,1.42324,1.0002,1.28624,1.00187C1.04231,1.00483,1.04519,1.00332,1.04076,1.25126
		c-0.00527,0.29495,0.01875,0.5904-0.0144,0.88503C1.0141,2.16373,1.00273,2.1924,0.9636,2.18695
		c-0.00113-0.3794-0.0022-0.7588-0.00346-1.13821C0.95993,0.98396,0.95339,0.92042,1.05255,0.92116
		c0.36632,0.00271,0.73266,0.00127,1.09899,0.00332C2.1691,0.92458,2.18656,0.94311,2.20407,0.95306z"/>
	<path fill="#535F69" d="M0.99599,10.93227c-0.00175,0.35984-0.0035,0.71968-0.00527,1.0795
		c-0.03855-0.02446-0.03017-0.06373-0.03024-0.09916c-0.00053-0.30365-0.00043-0.60729-0.0001-0.91094
		c0.00004-0.03607-0.00471-0.0745,0.03238-0.09902C0.99354,10.91254,0.99461,10.92242,0.99599,10.93227z"/>
	<path fill="#3F4B4D" d="M27.27024,0.95202c0.00039-0.00917,0.00011-0.01831-0.00086-0.02742
		c0.07977,0.00403,0.15782,0.01441,0.22612,0.06063C27.41894,0.98406,27.34025,0.99704,27.27024,0.95202z"/>
	<path fill="#3F4B4D" d="M27.68709,1.04868c-0.07034-0.00354-0.13758-0.01624-0.19291-0.06421
		C27.56661,0.9818,27.63621,0.98755,27.68709,1.04868z"/>
	<path fill="#394644" d="M27.84534,1.11157c-0.06266,0.00238-0.11819-0.01283-0.15931-0.0636
		C27.74856,1.04589,27.80393,1.06152,27.84534,1.11157z"/>
	<path fill="#414D57" d="M0.9636,2.18695c0.01024-0.01037,0.02049-0.02074,0.03073-0.03111
		c0.04995,0.0036,0.05276,0.02863,0.03011,0.06524C1.0138,2.23277,1.00317,2.24447,0.99253,2.2562
		C0.96405,2.2409,0.9602,2.21541,0.9636,2.18695z"/>
	<path fill="#355739" d="M29.66425,6.34025c-0.05638,0.03932-0.12111,0.03002-0.1844,0.03302
		c-0.12477,0.0059-0.22845,0.11468-0.22834,0.23581c0.00012,0.12773,0.08241,0.20802,0.22383,0.20635
		c0.15707-0.00185,0.30345,0.03651,0.44591,0.09673c0.02563,0.0528,0.00768,0.10398-0.0086,0.15379
		c-0.33913,1.03749-0.80449,2.01136-1.49831,2.86469c-0.29789,0.36637-0.64709,0.6638-1.13224,0.77813
		c-0.33145,0.07811-0.574,0.30033-0.72952,0.59778c-0.09294,0.17775-0.21616,0.25041-0.41646,0.25027
		c-4.1168-0.00288-8.2336-0.00211-12.3504-0.0027c-0.07381-0.00001-0.15039,0.00734-0.21264-0.04673
		c-0.00553-0.19234,0.02565-0.38723-0.09973-0.56325c-0.13602-0.19097-0.30981-0.29299-0.54627-0.29287
		c-1.3853,0.00066-2.7706,0.00066-4.15589-0.00079c-0.0605-0.00006-0.12874,0.02468-0.18012-0.03237
		c-0.00353-0.06659,0.05688-0.06808,0.09531-0.0881c0.16733-0.08712,0.31229-0.20269,0.42701-0.35001
		c0.44169-0.56722,0.93237-1.09496,1.3634-1.67066c0.02252-0.03008,0.05083-0.05367,0.08292-0.07314
		c0.23394-0.2573,0.24504-0.56759,0.21354-0.88719c-0.00666-0.06758-0.02762-0.1344,0.00565-0.20072
		c0.03764-0.03729,0.06901-0.09729,0.13394-0.03697c0.03503,0.07505,0.02592,0.1553,0.02608,0.23392
		c0.00098,0.49088-0.00107,0.98178,0.00092,1.47266c0.00212,0.52289,0.30623,0.82102,0.8362,0.8247
		c0.70184,0.00488,1.40375-0.01042,2.10529,0.00783c0.06847,0.00789,0.11192,0.05268,0.15544,0.10069
		c0.08526,0.09406,0.16638,0.1918,0.24696,0.28944c0.20853,0.2527,0.50003,0.36471,0.80109,0.42008
		c0.25603,0.04709,0.49788-0.07794,0.71683-0.20952c0.17421-0.10469,0.30774-0.25716,0.42613-0.42161
		c0.05887-0.08177,0.11902-0.16405,0.23142-0.17947c0.24429-0.0177,0.48863-0.00758,0.73279-0.00793
		c0.98782-0.00141,1.97569-0.00575,2.96344,0.00269c0.2811,0.0024,0.53769-0.04296,0.76471-0.21216
		c0.11977-0.04312,0.17483,0.04712,0.23443,0.11828c0.15635,0.18669,0.30643,0.37816,0.47427,0.55569
		c0.20917,0.22126,0.48566,0.31711,0.76634,0.35646c0.24884,0.03488,0.48686-0.0849,0.70063-0.21813
		c0.25426-0.15847,0.4088-0.41273,0.5932-0.6364c0.36368-0.44112,0.7443-0.86853,1.09092-1.32349
		c0.0129-0.01693,0.0302-0.02965,0.04748-0.0421c0.16856-0.15276,0.21052-0.35679,0.22826-0.56801
		c0.00918-0.10938,0.00174-0.2199,0.00069-0.32998c-0.04094-0.19547,0.11509-0.3265,0.16298-0.49298
		c0.12216-0.30904,0.25125-0.6142,0.29271-0.94965c0.07685-0.62186-0.02356-1.2088-0.31722-1.76323
		c-0.03464-0.0654-0.07423-0.12895-0.09348-0.20076c-0.00779-0.02905-0.03543-0.07448,0.03044-0.07948
		c0.62014,0.13695,1.24066,0.27617,1.82502,0.53018c0.35119,0.15266,0.65745,0.37982,0.95258,0.62303
		c0.22965,0.18926,0.42519,0.41256,0.64797,0.60769c0.29806,0.26107,0.65745,0.39741,1.03747,0.48942
		C29.61906,6.31507,29.64116,6.32969,29.66425,6.34025z"/>
	<path fill="#355739" d="M1.59853,2.47396c0.11592-0.0697,0.24412-0.09156,0.37691-0.09393
		c0.24809-0.00442,0.3242-0.07651,0.32595-0.31737C2.3035,1.77289,2.39704,1.52962,2.65081,1.36464
		c0.07053-0.0428,0.14837-0.0508,0.22902-0.05074C3.30838,1.31423,3.73694,1.31341,4.1655,1.31462
		C4.23932,1.31482,4.31498,1.31166,4.37606,1.3656C4.51928,1.78863,4.81161,1.99929,5.2561,1.9993
		c1.8557,0.00006,3.71141,0.00373,5.56708-0.00372c0.29926-0.0012,0.50007,0.13401,0.67358,0.34947
		c0.1316,0.16341,0.25338,0.33594,0.46001,0.42336c0.12427,0.05257,0.24791,0.08737,0.38319,0.08714
		c0.66448-0.00111,1.32896-0.00051,2.01557-0.00051c-0.15622,0.06936-0.29218,0.12968-0.428,0.19032
		C13.92389,3.047,13.92186,3.0522,13.91907,3.05574c0.01252,0.00715,0.02503,0.0143,0.03755,0.02145
		c0.00982,0.05567-0.0351,0.07436-0.0708,0.09045c-0.26238,0.11825-0.48964,0.28857-0.71226,0.46626
		c-0.03339,0.02665-0.07106,0.04518-0.11416,0.05206c-0.31893,0.01767-0.63796,0.00447-0.95685,0.00804
		c-0.46067,0.00516-0.74548,0.28547-0.74922,0.74215c-0.00225,0.2744,0.00009,0.54883-0.00083,0.82324
		c-0.00023,0.06827,0.00571,0.13761-0.02237,0.20283c-0.1058,0.06953-0.08971-0.03606-0.09168-0.07412
		c-0.00715-0.13823-0.03749-0.27103-0.07094-0.40419C10.8821,3.8475,9.91566,2.94865,8.75,2.78824
		C8.16122,2.70722,7.57194,2.75779,7.02407,3.03009C6.97234,3.0558,6.9153,3.07544,6.8865,3.13202
		c-0.02991,0.05356-0.08096,0.08144-0.13243,0.11C5.86334,3.73618,5.36121,4.50209,5.22889,5.49116
		C5.14538,6.11539,5.26037,6.72281,5.59302,7.27399c0.0896,0.14846,0.13985,0.29203,0.10943,0.47638
		C5.6409,8.12327,5.78367,8.44115,6.02439,8.72568c0.38284,0.45252,0.75938,0.9103,1.13629,1.36775
		c0.13832,0.16788,0.28916,0.32412,0.48785,0.42555c0.04639,0.02368,0.09843,0.04428,0.11272,0.10367
		c-0.04893,0.04805-0.11085,0.0278-0.16706,0.02803c-0.41495,0.00168-0.83028-0.01-1.24477,0.00389
		c-0.43904,0.01471-0.91083-0.37275-0.95918-0.78246C5.35309,9.55722,5.0728,9.35248,4.74604,9.35227
		C4.1502,9.3519,3.5541,9.34112,2.95861,9.35538c-0.555,0.01329-1.01623-0.45344-1.01267-1.00691
		c0.01113-1.72662-0.00188-3.45339,0.00959-5.18C1.95759,2.85799,1.88049,2.62327,1.59853,2.47396z"/>
	<path fill="#FEFEFE" d="M24.84067,8.45767c-0.46769,0.62578-0.98651,1.21047-1.48462,1.81166
		c-0.24448,0.29508-0.58811,0.45113-0.96412,0.42986c-0.34739-0.01965-0.65747-0.18349-0.88837-0.46285
		c-0.16799-0.20324-0.33984-0.40333-0.50997-0.60483c-0.14735-0.06883-0.22027-0.21146-0.31813-0.32665
		c-0.18152-0.21367-0.36306-0.42789-0.53345-0.65063c-0.22022-0.28787-0.29842-0.61521-0.24682-0.97033
		c0.0162-0.11145,0.00168-0.20522-0.05916-0.3001c-0.24154-0.37665-0.35791-0.79721-0.42895-1.23296
		c-0.03747-0.53871,0.03168-1.06103,0.25936-1.55503c0.20555-0.44599,0.49221-0.83267,0.8823-1.13926
		c0.05462-0.04293,0.11185-0.07948,0.18198-0.09135c0.35852-0.23175,0.73937-0.41502,1.16592-0.47783
		c1.10056-0.16204,2.0447,0.13171,2.79697,0.96704c0.04232,0.047,0.08449,0.09413,0.12673,0.14119
		c0.06253,0.04108,0.11713,0.08862,0.15804,0.1533c0.56995,0.90107,0.6912,1.84422,0.27368,2.83874
		c-0.04934,0.15766-0.15286,0.28885-0.21818,0.43885c-0.0503,0.09259-0.04292,0.18897-0.03193,0.29006
		C25.03058,7.9799,25.02909,8.23963,24.84067,8.45767z"/>
	<path fill="#FEFEFE" d="M13.09784,3.64901c0.26251-0.22575,0.55011-0.41437,0.85878-0.57182
		c0.19138-0.06285,0.38276-0.1257,0.57414-0.18855c0.05002-0.03939,0.11507,0.00209,0.16637-0.03046
		c0.31484-0.00022,0.62967-0.00044,0.94451-0.00066c0.72108,0.0694,1.28799,0.42681,1.77427,0.93536
		c0.5479,0.62062,0.82614,1.33945,0.79785,2.16838c-0.00993,0.29094-0.06662,0.57382-0.16617,0.8479
		c-0.07804,0.22196-0.18337,0.43127-0.30086,0.63493c-0.04335,0.08322-0.04066,0.16964-0.02651,0.25966
		c0.04089,0.26018,0.00321,0.50933-0.11662,0.74518c-0.21967,0.34809-0.50311,0.64682-0.7656,0.96143
		c-0.137,0.16421-0.24923,0.35217-0.43057,0.47753c-0.09898,0.11598-0.2009,0.22964-0.29637,0.34841
		c-0.22065,0.27448-0.52548,0.43025-0.85727,0.46009c-0.37399,0.03364-0.71253-0.12083-0.97491-0.40229
		c-0.12194-0.13081-0.23602-0.26885-0.35365-0.40361c-0.16008-0.09536-0.25124-0.2559-0.36772-0.3911
		c-0.22117-0.25672-0.43249-0.52188-0.64813-0.78332c-0.25451-0.30858-0.35132-0.65838-0.29282-1.04978
		c0.01504-0.10065-0.0033-0.18413-0.05441-0.27066c-0.54249-0.91865-0.58525-1.86745-0.15901-2.83862
		c0.1305-0.29733,0.32399-0.55689,0.53858-0.80069C12.98512,3.707,13.0409,3.67772,13.09784,3.64901z"/>
	<path fill="#355739" d="M20.73072,3.36521c-0.38418,0.29024-0.70982,0.63168-0.93222,1.06136
		c-0.22609,0.4368-0.36555,0.89557-0.35,1.39291c0.00345,0.11034-0.00195,0.22096-0.00327,0.33145
		c-0.12253,0.07839-0.25571,0.04951-0.38552,0.03267c-0.07656-0.00993-0.09538-0.07557-0.10155-0.14195
		c-0.00927-0.09983-0.00476-0.20002-0.00488-0.30004c-0.00048-0.41082,0.00064-0.82165-0.00042-1.23247
		c-0.00138-0.53204-0.28192-0.81222-0.81335-0.81411c-0.20163-0.00072-0.40326,0.00059-0.60477,0.00069
		c-0.04839,0.00696-0.08423-0.01719-0.11769-0.04698c-0.27423-0.3103-0.6249-0.51083-0.99477-0.68524
		c-0.0509-0.024-0.12977-0.02393-0.13478-0.10819c1.14628-0.00009,2.29259-0.00454,3.43883,0.00252
		c0.32088,0.00197,0.63488,0.05643,0.86164,0.32134C20.63875,3.2385,20.68331,3.30306,20.73072,3.36521z"/>
	<path fill="#2A452E" d="M25.22264,6.99415c0.07641-0.25447,0.16999-0.5034,0.20325-0.77031
		c0.09765-0.78366-0.08889-1.4932-0.54624-2.13584c-0.0212-0.02979-0.03959-0.06154-0.05929-0.09238
		c0.10075,0.0359,0.21404,0.01105,0.31142,0.06326c0.01095,0.179,0.13943,0.30751,0.20482,0.46354
		c0.21229,0.50659,0.28412,1.02543,0.21957,1.57204c-0.04092,0.34647-0.17894,0.65622-0.29677,0.97555
		C25.19735,7.06848,25.21466,7.02909,25.22264,6.99415z"/>
	<path fill="#2A452E" d="M16.28751,2.85533c0.33452,0.16678,0.67668,0.31961,0.96225,0.56967
		c0.06801,0.05955,0.12635,0.12541,0.18662,0.19084c-0.00199,0.06772,0.04027,0.14857-0.05665,0.18812
		c-0.40816-0.41263-0.87882-0.723-1.44821-0.8717c-0.09654-0.02521-0.19324-0.04983-0.28988-0.07472
		C15.85693,2.85679,16.07222,2.85606,16.28751,2.85533z"/>
	<path fill="#335337" d="M4.37606,1.3656C3.80099,1.36528,3.22591,1.36497,2.65082,1.36465
		c0.04342-0.07828,0.12627-0.10866,0.19407-0.15733c0.07891-0.03169,0.16075-0.0477,0.24605-0.04765
		c0.3584,0.0002,0.71679-0.00008,1.07519,0.00016C4.22986,1.15987,4.29347,1.15984,4.3444,1.20714
		C4.35496,1.25996,4.36551,1.31278,4.37606,1.3656z"/>
	<path fill="#2B4730" d="M3.45265,0.95169c0.29759,0.00153,0.59517,0.00305,0.89276,0.0046
		C4.34517,1.00821,4.34493,1.06011,4.34469,1.11201C4.29814,1.15468,4.24057,1.15894,4.1814,1.15899
		C3.8533,1.15931,3.5252,1.15958,3.1971,1.15874c-0.05834-0.00015-0.1175,0.0004-0.16212-0.04717
		C3.099,1.06058,3.17419,1.0481,3.25338,1.04833C3.33557,1.04857,3.40755,1.02722,3.45265,0.95169z"/>
	<path fill="#304E34" d="M3.03498,1.11156c0.43657,0.00015,0.87314,0.0003,1.30971,0.00045
		C4.3446,1.14372,4.34451,1.17543,4.34441,1.20714C3.84456,1.20719,3.34472,1.20725,2.84488,1.20731
		C2.89748,1.15432,2.96266,1.12596,3.03498,1.11156z"/>
	<path fill="#355739" d="M14.69713,2.85818c-0.05072,0.03567-0.10808,0.03558-0.16637,0.03045
		C14.57803,2.83443,14.63976,2.85801,14.69713,2.85818z"/>
	<path fill="#FEFEFE" d="M7.76125,10.62265c-0.2714-0.11483-0.47619-0.30711-0.65905-0.53318
		C6.7195,9.61637,6.32807,9.15021,5.93937,8.6819C5.67903,8.36825,5.58951,8.01344,5.67811,7.61662
		c0.01362-0.06101,0.00911-0.11027-0.02627-0.16357C4.67217,5.97716,5.23072,3.93808,6.84357,3.1437
		c0.01351-0.00666,0.024-0.01938,0.03589-0.02926c0.00268-0.03019,0.0228-0.04445,0.0486-0.05554
		c0.33373-0.1434,0.67695-0.23442,1.04488-0.25067C8.5262,2.78379,9.05784,2.85211,9.54487,3.12378
		c0.94403,0.52661,1.52384,1.30516,1.64922,2.39198c0.02185,0.18944,0.03964,0.37718,0.01486,0.56701
		c-0.02708,0.07265-0.01564,0.15008-0.02733,0.22465c-0.03249,0.14575-0.06256,0.2921-0.10195,0.43629
		c-0.09215,0.19709-0.14151,0.41439-0.28058,0.5896c-0.08693,0.12332-0.10265,0.25317-0.07626,0.40385
		c0.04479,0.2557,0.01025,0.50339-0.15691,0.71787c-0.46527,0.62336-0.98799,1.20049-1.47562,1.80589
		c-0.13199,0.16387-0.31172,0.26712-0.49923,0.35719c-0.0718,0.01312-0.1436,0.02623-0.21539,0.03935
		c-0.14265,0.04784-0.28499,0.04676-0.42703-0.00262C7.88617,10.64411,7.82371,10.63338,7.76125,10.62265z"/>
	<path fill="#2A442F" d="M30.14586,7.03699c0.07911,0.01041,0.11898,0.06932,0.15963,0.12726
		c-0.01507,0.02048-0.04168,0.04002-0.04349,0.06161c-0.02551,0.30431-0.18546,0.56698-0.29828,0.83652
		c-0.19823,0.47361-0.43294,0.93549-0.71279,1.37157c-0.22243,0.34661-0.45843,0.6841-0.74295,0.98126
		c-0.24564,0.25655-0.52224,0.47729-0.88083,0.57712c-0.3535,0.09841-0.65567,0.26776-0.80313,0.63533
		c-0.09491,0.23659-0.30399,0.31208-0.5435,0.32312c-0.03717,0.00171-0.07448,0.00024-0.11173,0.00025
		c-4.19831,0.0001-8.39661,0.00019-12.5949,0.00029c-0.00009-0.06336-0.0002-0.12672-0.0003-0.19009
		c0.07776-0.06529,0.1718-0.04605,0.26046-0.04608c2.28291-0.00092,4.56582-0.00069,6.84873-0.00072
		c1.83591-0.00002,3.67182-0.00242,5.50771,0.00318c0.22429,0.00068,0.38102-0.07876,0.4796-0.27078
		c0.16769-0.32664,0.43581-0.52325,0.78558-0.62331c0.49251-0.1409,0.84301-0.46576,1.14972-0.85811
		c0.64348-0.82316,1.08995-1.74562,1.42981-2.72456C30.06063,7.16757,30.06937,7.08367,30.14586,7.03699z"/>
	<path fill="#335337" d="M13.57307,11.50739c4.18602-0.00002,8.37204-0.00116,12.55805,0.00351
		c0.19023,0.00021,0.29542-0.05597,0.38252-0.23007c0.16256-0.32491,0.43255-0.55194,0.7936-0.63042
		c0.45623-0.09917,0.76881-0.39566,1.05334-0.72386c0.382-0.44064,0.67492-0.94387,0.9343-1.46249
		c0.23571-0.47128,0.43835-0.95839,0.59246-1.46355c0.00918-0.03009,0.02251-0.05893,0.03391-0.08835
		c0.06076,0.00288,0.10693,0.04073,0.15868,0.06521c0.02438,0.05917,0.00245,0.11452-0.01593,0.16932
		c-0.32093,0.95663-0.74611,1.86244-1.35381,2.67489c-0.16695,0.2232-0.34303,0.44157-0.5605,0.62447
		c-0.23243,0.19549-0.4961,0.32201-0.78445,0.40656c-0.30725,0.09009-0.53229,0.28319-0.67897,0.56062
		c-0.11184,0.21154-0.27805,0.30057-0.51565,0.30046c-4.12823-0.00196-8.25646-0.00139-12.3847-0.00177
		c-0.07388-0.00001-0.15044,0.00823-0.2128-0.04603C13.5731,11.61306,13.57309,11.56022,13.57307,11.50739z"/>
	<path fill="#304E34" d="M13.57312,11.66589c4.19883-0.00004,8.39767-0.00095,12.59651,0.00228
		c0.22838,0.00018,0.37604-0.08072,0.48263-0.28558c0.14637-0.28133,0.37556-0.48444,0.69069-0.56923
		c0.36801-0.09902,0.68778-0.27975,0.94497-0.55609c0.40115-0.43101,0.72882-0.9149,1.00558-1.43326
		c0.31654-0.59286,0.57409-1.21024,0.78646-1.84666c0.03127,0.00977,0.05216,0.03082,0.0659,0.05967
		c-0.31029,1.00968-0.7599,1.95282-1.38642,2.80739c-0.27617,0.3767-0.57888,0.73424-1.0268,0.92565
		c-0.17012,0.0727-0.34937,0.12442-0.51917,0.19774c-0.20601,0.08895-0.36541,0.2373-0.46342,0.43791
		c-0.12777,0.26153-0.31823,0.36165-0.62023,0.36103c-4.1854-0.00853-8.37082-0.00563-12.55622-0.00552
		C13.57343,11.72944,13.57328,11.69767,13.57312,11.66589z"/>
	<path fill="#202020" d="M3.76991,10.0368c-0.00175,0.23674-0.19949,0.4283-0.43811,0.42442
		c-0.23877-0.00388-0.4297-0.20165-0.4236-0.43876c0.00593-0.23032,0.19776-0.41614,0.43007-0.41659
		C3.57729,9.60541,3.77167,9.79947,3.76991,10.0368z"/>
	<path fill="#CAD2CC" d="M7.94863,10.65484c0.14234,0.00087,0.28468,0.00174,0.42703,0.00262
		C8.25355,10.74106,8.07389,10.73996,7.94863,10.65484z"/>
	<path fill="#273D2B" d="M1.02444,2.22107C1.02336,2.19525,1.01891,2.17096,0.99431,2.15585
		c-0.00072-0.35387,0.00245-0.7078-0.00449-1.06154C0.98763,0.98273,1.02349,0.94634,1.13494,0.95138
		C1.32081,0.9598,1.50729,0.9551,1.6935,0.95594C1.45621,1.09367,1.47239,1.33921,1.44248,1.55958
		C1.42431,1.69343,1.43914,1.8317,1.43915,1.96798C1.29103,2.0364,1.15914,2.131,1.02444,2.22107z"/>
	<path fill="#335237" d="M2.01529,1.24024C1.95065,1.4266,1.86853,1.60734,1.83877,1.80482
		C1.82991,1.8636,1.80564,1.91741,1.72685,1.90486C1.64383,1.71281,1.65397,1.51718,1.73283,1.33125
		C1.79406,1.18689,1.92545,1.15484,2.01529,1.24024z"/>
	<path fill="#2F4E34" d="M2.01529,1.24024C1.86291,1.19845,1.73662,1.30082,1.72808,1.4825
		c-0.0066,0.1405-0.00127,0.28155-0.00123,0.42236c0,0.00001,0.00027,0.00009,0.00027,0.00009
		c-0.08077,0.03457-0.12369,0.0047-0.126-0.079C1.5969,1.67341,1.58744,1.51978,1.60383,1.36842
		c0.02516-0.23221,0.25421-0.34345,0.50779-0.25608C2.08397,1.15828,2.06957,1.21405,2.01529,1.24024z"/>
	<path fill="#2C4931" d="M2.11162,1.11234c-0.1641-0.00132-0.33854-0.02219-0.43155,0.15809
		C1.58266,1.45923,1.6418,1.66325,1.63764,1.86061C1.63667,1.9068,1.69105,1.90123,1.72711,1.90494
		C1.68182,1.95591,1.62096,1.92887,1.567,1.93646C1.56695,1.76409,1.56619,1.59171,1.56702,1.41934
		C1.56823,1.1671,1.6884,1.04721,1.94565,1.05024c0.07562,0.00089,0.15821-0.03017,0.2272,0.02902
		C2.15244,1.09028,2.13203,1.10131,2.11162,1.11234z"/>
	<path fill="#415F45" d="M17.50002,3.67919c0.00375-0.00373,0.00723-0.01041,0.01129-0.01078
		c0.31562-0.02829,0.63545-0.06464,0.94433,0.0181c0.35192,0.09427,0.54502,0.37658,0.54526,0.73977
		c0.00035,0.51662,0.00485,1.03331-0.00308,1.54981c-0.00211,0.13763,0.03295,0.19436,0.17679,0.17693
		c0.08896-0.01078,0.18033-0.00206,0.27062-0.00209c0.08386,0.46476,0.21005,0.91422,0.48694,1.30786
		c0.03791,0.05389,0.03314,0.10575,0.02045,0.16481c-0.084,0.39097,0.00313,0.74107,0.258,1.05098
		c0.26179,0.31833,0.52205,0.6379,0.78298,0.95692c-0.24047,0.21072-0.52146,0.2668-0.83852,0.26382
		c-1.24913-0.01172-2.49843-0.00642-3.74766-0.00743c0.25422-0.31079,0.50959-0.62067,0.76218-0.93276
		c0.1326-0.16384,0.26033-0.33158,0.39025-0.49755c0.15163-0.17378,0.20083-0.38432,0.21723-0.60543
		c0.00578-0.07798,0.0005-0.15663,0.00034-0.23496c0.0014-0.05429,0.00102-0.10844-0.01311-0.16159
		c-0.00391-0.02369-0.0029-0.04707,0.00414-0.07007c0.11179-0.20225,0.2594-0.38745,0.30191-0.62299
		c0.04181-0.17413,0.10851-0.34105,0.13752-0.5191c0.1404-0.86192-0.02512-1.64627-0.58525-2.33528
		C17.56837,3.84144,17.48875,3.78272,17.50002,3.67919z"/>
	<path fill="#415F45" d="M13.09784,3.64901c-0.3306,0.34881-0.60914,0.73107-0.76345,1.19065
		c-0.30344,0.90375-0.21345,1.7652,0.29182,2.57858c0.04461,0.07182,0.06201,0.13425,0.04375,0.22062
		c-0.07877,0.37252,0.00057,0.71349,0.24112,1.01126c0.33559,0.41541,0.67586,0.82709,1.01413,1.24037
		c-0.74487,0.00015-1.48975,0.00109-2.23462,0.00016c-0.44691-0.00056-0.7988-0.34949-0.79967-0.79252
		c-0.00117-0.60203-0.00039-1.20406-0.00044-1.80608c-0.05005-0.05055-0.01169-0.09673,0.00956-0.14142
		c0.05112-0.1075,0.09897-0.21643,0.14834-0.32478c0.00581-0.01492,0.01332-0.02888,0.02207-0.04224
		c0.07729-0.17158,0.11726-0.35338,0.15029-0.53731c0.05612-0.17544,0.03108-0.35623,0.03799-0.53487
		c0.00299-0.07739-0.01526-0.16009,0.04685-0.22576c0.00005-0.36919-0.00066-0.73838,0.00034-1.10757
		c0.00111-0.40496,0.33006-0.72984,0.73983-0.7305C12.39646,3.64705,12.74715,3.64847,13.09784,3.64901z"/>
	<path fill="#202020" d="M27.63352,6.24636c0.23908-0.00259,0.43531,0.18962,0.43579,0.42688
		c0.00049,0.23762-0.19462,0.43026-0.43408,0.42857c-0.23197-0.00164-0.42312-0.18886-0.42777-0.41899
		C27.20266,6.44575,27.39476,6.24896,27.63352,6.24636z"/>
	<path fill="#2E4932" d="M10.56592,8.45503c0.10979-0.28275,0.17514-0.56811,0.09225-0.8732
		c-0.03129-0.11518,0.07466-0.18629,0.13073-0.27137c0.0175,0.01292,0.01956,0.02791,0.00615,0.045
		c0.01917,0.23756,0.06461,0.47387,0.00376,0.71327c-0.03536,0.1391-0.10754,0.25859-0.17402,0.38195
		C10.61081,8.47663,10.58812,8.48817,10.56592,8.45503z"/>
	<path fill="#2E4932" d="M24.84067,8.45767c0.12193-0.27544,0.17583-0.55909,0.09525-0.85591
		c-0.02469-0.09097,0.03203-0.14817,0.07138-0.2144c0.06124-0.03232,0.07163,0.00523,0.07602,0.05352
		c0.0032,0.0352-0.01084,0.07327,0.01645,0.10478c0.00943,0.31195,0.01322,0.6227-0.19186,0.88903
		C24.89071,8.45703,24.88025,8.49949,24.84067,8.45767z"/>
	<path fill="#364E39" d="M10.79505,7.35545c-0.00205-0.015-0.0041-0.03-0.00615-0.04499
		c0.08507-0.18968,0.17013-0.37935,0.2552-0.56903c0.03351,0.01472,0.0363,0.04477,0.03814,0.07529
		c-0.03381,0.17041-0.17836,0.2968-0.19174,0.47533C10.85868,7.31319,10.82687,7.33432,10.79505,7.35545z"/>
	<path fill="#345038" d="M25.09978,7.54566c-0.06539-0.03287,0.01113-0.14742-0.09248-0.15829
		c0.07178-0.13106,0.14356-0.26213,0.21534-0.3932c0.00577,0.02837,0.00711,0.05886,0.03675,0.07585
		c-0.0037,0.0547-0.02796,0.10211-0.0634,0.14096C25.10779,7.30767,25.08714,7.42146,25.09978,7.54566z"/>
	<path fill="#2A442E" d="M11.08224,6.81672c-0.02914-0.0169-0.03244-0.04669-0.03814-0.07529
		c0.02152-0.14657,0.05285-0.2909,0.10028-0.43154c0.04407-0.07275-0.00357-0.15724,0.03007-0.23133
		c0.04488-0.94704-0.25672-1.76619-0.95117-2.42069c-0.54519-0.51382-1.1905-0.8035-1.96256-0.80812
		C7.77722,2.84686,7.31907,2.91882,6.87947,3.11443C6.82623,3.06489,6.88132,3.05477,6.90939,3.0414
		C7.2698,2.8697,7.64,2.73494,8.04736,2.72744c0.4307-0.00793,0.85985-0.0098,1.26922,0.15279
		c0.52603,0.20891,0.97143,0.52204,1.32704,0.96669c0.31397,0.39259,0.50817,0.83225,0.61624,1.31765
		c0.02388,0.10726-0.0249,0.22253,0.04574,0.3211c-0.00011,0.19014-0.00056,0.38027-0.00015,0.5704
		c0.00017,0.08024-0.01005,0.15707-0.06309,0.22217c-0.04114,0.18307-0.08704,0.36474-0.16012,0.53846V6.81672z"/>
	<path fill="#202020" d="M3.92962,3.06192C3.9291,3.29921,3.73291,3.49137,3.49383,3.48877
		C3.25505,3.48618,3.06297,3.28939,3.06778,3.0523c0.00466-0.23013,0.19581-0.41734,0.42778-0.41898
		C3.73497,2.63163,3.93015,2.82435,3.92962,3.06192z"/>
	<path fill="#355739" d="M22.95573,6.30738c0.36186-0.50724,0.86293-0.7234,1.48021-0.7033
		c0.07854,0.00256,0.0981,0.02889,0.09673,0.10145c-0.0045,0.23692,0.01293,0.47536-0.00783,0.71063
		c-0.04593,0.52045-0.27668,0.93979-0.73539,1.21926c-0.0965,0.0132-0.17964,0.06315-0.26529,0.10234
		c-0.20239,0.0926-0.41426,0.07914-0.62641,0.07089c-0.09942-0.00387-0.13889-0.06667-0.14021-0.15762
		c-0.00625-0.43185-0.0374-0.86734,0.18089-1.26769C22.95129,6.35974,22.95766,6.33443,22.95573,6.30738z"/>
	<path fill="#355739" d="M20.50174,5.61327c0.90383-0.06642,1.66342,0.61596,1.71446,1.55376
		c0.0132,0.24248,0.03562,0.48861-0.01878,0.73091c-0.02665-0.01423-0.03955-0.0411-0.05886-0.06192
		c-0.07429-0.05166-0.15814-0.01779-0.23722-0.02611c-0.23881-0.01864-0.46446-0.07769-0.66027-0.22059
		c-0.04945-0.03609-0.10367-0.073-0.11726-0.14077c0.00894-0.10189-0.01277-0.20693,0.03085-0.30533
		c0.05138-0.05234,0.09934-0.02044,0.13999,0.01229c0.12025,0.09685,0.26222,0.15148,0.40391,0.21383
		c0.02275-0.07529-0.0124-0.15892,0.03532-0.22884c0.05005-0.03682,0.05738,0.02366,0.08541,0.03713
		c0.07997-0.35937-0.16401-0.90138-0.65467-1.10622c-0.07813-0.03262-0.15327-0.0456-0.21587,0.03052
		c-0.03171,0.01869-0.07715,0.00791-0.1009,0.03809c-0.0354,0.04499-0.0333,0.13167-0.12379,0.11232
		c-0.09579-0.02049-0.19935-0.03027-0.25302-0.13253C20.45503,5.94925,20.41525,5.77744,20.50174,5.61327z"/>
	<path fill="#2D4731" d="M21.14004,7.45132c0.21111,0.21164,0.47507,0.29699,0.76674,0.31614
		c0.09103,0.04352,0.19312-0.00991,0.28434,0.03193c0.0021,0.03285,0.0042,0.0657,0.0063,0.09855
		c0,0,0.00027-0.00085,0.00027-0.00085c-0.09115,0.02197-0.18244,0.01718-0.27377,0.00132
		c-0.01639-0.0015-0.03277-0.003-0.04916-0.0045c-0.07307-0.04024-0.15711,0.00612-0.23085-0.02884
		c-0.44762-0.07162-0.7683-0.33195-1.01612-0.68952c-0.17218-0.24843-0.25938-0.52913-0.26214-0.83276
		c-0.00187-0.20571,0.0048-0.41175-0.00498-0.61705c-0.00562-0.11788,0.04358-0.13735,0.14107-0.11247
		c0.0001,0.17936,0.00021,0.35872,0.00032,0.53809c0.0275,0.02819,0.03656,0.06317,0.03878,0.10108
		c0.02662,0.45482,0.21517,0.83138,0.55664,1.13397C21.11758,7.40421,21.13454,7.42407,21.14004,7.45132z"/>
	<path fill="#2D4831" d="M22.95573,6.30738c0.04751,0.02897,0.02084,0.06202,0.00572,0.09496
		c-0.18693,0.40749-0.16336,0.84099-0.16095,1.27222c0.00046,0.08214,0.04688,0.09049,0.11303,0.09392
		c0.26838,0.01394,0.52935-0.01175,0.77671-0.12502c0.03116-0.01427,0.06274-0.04807,0.09919-0.00804
		c-0.30628,0.20881-0.64446,0.3013-1.01559,0.27708c-0.05616-0.00366-0.10334-0.0007-0.10052-0.08128
		c0.01444-0.4124-0.04804-0.83088,0.11694-1.23052C22.83396,6.49483,22.88928,6.39888,22.95573,6.30738z"/>
	<path fill="#304B34" d="M22.19399,8.81111c-0.11844,0.03493-0.2398,0.00786-0.35947,0.01671
		c-0.05394,0.00399-0.07972-0.02327-0.07606-0.07416c0.00846-0.11756-0.02386-0.23731,0.01916-0.35294
		c0.12951-0.02869,0.25449-0.04993,0.28531,0.13298c0.00526,0.03123,0.03015,0.05675,0.06004,0.06969
		C22.22446,8.64731,22.22561,8.72328,22.19399,8.81111z"/>
	<path fill="#2D4831" d="M23.1251,8.79377c-0.12822,0.07233-0.26628,0.01944-0.39939,0.02906
		c-0.03604,0.0026-0.05132-0.03354-0.04868-0.06862c0.00892-0.1189-0.02235-0.23988,0.01863-0.35709
		c0.09777-0.03044,0.1678-0.0105,0.1819,0.10279c0.00965,0.07755,0.0589,0.10479,0.12966,0.10987
		C23.12926,8.61855,23.15709,8.68743,23.1251,8.79377z"/>
	<path fill="#3F5F43" d="M23.1251,8.79377c0.00186-0.10107-0.03626-0.15669-0.14956-0.13973
		c-0.09179,0.01374-0.15971-0.00959-0.14225-0.12293c0.01688-0.10956-0.04508-0.13658-0.13763-0.13399
		c0.12345-0.04514,0.25093-0.00977,0.37629-0.01788c0.05861-0.00379,0.06839,0.03921,0.0656,0.08523
		C23.13089,8.57416,23.15421,8.68496,23.1251,8.79377z"/>
	<path fill="#3D5D41" d="M22.19399,8.81111c-0.00322-0.07405,0.02184-0.16358-0.10608-0.16023
		c-0.04954,0.0013-0.07933-0.0496-0.07574-0.08547c0.01988-0.19846-0.12107-0.16022-0.23455-0.16471
		c0.12712-0.05088,0.25906-0.01197,0.38851-0.01957c0.02756-0.00162,0.05514,0.01752,0.05249,0.04749
		C22.20735,8.55597,22.25404,8.68706,22.19399,8.81111z"/>
	<path fill="#355739" d="M21.92391,7.89841c0.09125-0.00045,0.1825-0.00089,0.27376-0.00133
		C22.10657,7.92559,22.01528,7.92021,21.92391,7.89841z"/>
	<path fill="#2D4831" d="M21.64391,7.86507c0.07714,0.00807,0.16031-0.03128,0.23085,0.02884
		C21.79615,7.89735,21.71789,7.89809,21.64391,7.86507z"/>
	<path fill="#415F45" d="M15.67521,6.30701c0.36187-0.50744,0.86347-0.72257,1.48045-0.70288
		c0.07894,0.00252,0.09791,0.03024,0.0966,0.10224c-0.00431,0.23692,0.01324,0.4754-0.00781,0.71062
		c-0.04653,0.51994-0.27584,0.94006-0.73547,1.21876c-0.06731,0.00028-0.12203,0.03769-0.17649,0.06746
		c-0.22616,0.12365-0.47003,0.11791-0.71535,0.10558c-0.09967-0.00501-0.139-0.06758-0.13984-0.15844
		c-0.00395-0.43138-0.04903-0.86871,0.18093-1.26729C15.67167,6.35975,15.67736,6.33408,15.67521,6.30701z"/>
	<path fill="#415F45" d="M13.22138,5.61366c0.90065-0.06979,1.66426,0.61601,1.71457,1.55367
		c0.01301,0.24253,0.03644,0.48876-0.01815,0.73116c-0.0559-0.06228-0.12403-0.08535-0.20968-0.08927
		C13.87756,7.77127,13.17948,7.04434,13.17771,6.22c-0.00031-0.14225-0.00085-0.28451,0.00038-0.42675
		C13.17864,5.7304,13.1735,5.66555,13.22138,5.61366z"/>
	<path fill="#2D4731" d="M13.22138,5.61366c0.01587,0.30904-0.03786,0.62096,0.03368,0.92752
		c0.16101,0.68996,0.81543,1.23621,1.52176,1.22478c0.10231-0.00166,0.14992,0.02953,0.14097,0.13252
		c0,0-0.00007-0.00064-0.00007-0.00064c-0.09928,0.01814-0.19852,0.01952-0.29772-0.00054
		c-0.8037-0.01858-1.48834-0.68244-1.53071-1.49151c-0.01184-0.22607,0.00164-0.45339-0.00852-0.67961
		C13.07549,5.60859,13.12364,5.58856,13.22138,5.61366z"/>
	<path fill="#2D4731" d="M17.50002,3.67919c0.33698,0.39137,0.60713,0.81698,0.71933,1.32963
		c0.12624,0.57676,0.12029,1.14326-0.10248,1.69835c-0.00942,0.02348-0.007,0.05164-0.0101,0.07763
		c-0.01852,0.01933-0.01432,0.04843-0.02891,0.06866c-0.01583,0.02196-0.01954,0.07035-0.05813,0.05336
		c-0.04063-0.01788-0.02789-0.05729-0.00835-0.08967c0.11255-0.41589,0.19955-0.83197,0.14756-1.26968
		c-0.07144-0.60144-0.28782-1.13743-0.67299-1.60672c-0.03662-0.04462-0.07088-0.09115-0.10623-0.1368
		c0.01889-0.06271,0.03777-0.12541,0.05665-0.18812C17.4576,3.63695,17.47881,3.65807,17.50002,3.67919z"/>
	<path fill="#304A34" d="M15.67521,6.30701c0.04733,0.0288,0.02226,0.06227,0.00604,0.09495
		C15.4799,6.80764,15.52237,7.24342,15.52049,7.674c-0.00036,0.08167,0.04559,0.09123,0.11234,0.09464
		c0.26852,0.01371,0.52967-0.01176,0.77717-0.12513c0.03102-0.01421,0.06266-0.04856,0.09896-0.00775
		c-0.29923,0.22788-0.64392,0.29167-1.01072,0.27634c-0.05302-0.00222-0.1077,0.00696-0.1048-0.07673
		c0.01431-0.41336-0.04919-0.83287,0.11668-1.23351C15.55406,6.49572,15.6094,6.39934,15.67521,6.30701z"/>
	<path fill="#3A523D" d="M14.91387,8.81243c-0.11877,0.03384-0.2403,0.00758-0.36022,0.01626
		c-0.05421,0.00393-0.07955-0.02407-0.07619-0.07459c0.00784-0.11793-0.02339-0.2379,0.01851-0.35401
		c0.11667-0.03894,0.19667-0.01607,0.21237,0.12109c0.00635,0.05543,0.04507,0.08089,0.09722,0.08746
		C14.93995,8.62558,14.95026,8.70657,14.91387,8.81243z"/>
	<path fill="#324B36" d="M17.7877,7.38717c0.00004,0.02112,0.00008,0.04224,0.00012,0.06336
		c0.03744,0.04752-0.0075,0.11133,0.03181,0.15847c0.01904,0.29436-0.01408,0.57681-0.19222,0.82589
		c-0.01654,0.02312-0.02831,0.06437-0.06756,0.0227c0.12474-0.28152,0.17524-0.57071,0.09372-0.8742
		c-0.01878-0.06992,0.01591-0.12142,0.06514-0.16622C17.74026,7.40389,17.75177,7.36785,17.7877,7.38717z"/>
	<path fill="#47634B" d="M15.4142,8.39687c0.12147-0.04504,0.24705-0.00762,0.37031-0.01791
		c0.04273-0.00357,0.07487,0.01655,0.07127,0.06172c-0.00975,0.12215,0.0297,0.24663-0.01767,0.36682
		c-0.19076-0.06368-0.35077-0.15869-0.39456-0.37541C15.44116,8.42024,15.42279,8.40992,15.4142,8.39687z"/>
	<path fill="#324C36" d="M15.4142,8.39687c0.10644-0.0055,0.15587,0.04003,0.13849,0.14903
		c-0.01748,0.10968,0.03077,0.15498,0.14148,0.14093c0.08999-0.01142,0.16056,0.00461,0.14394,0.12066
		c-0.12061,0.0451-0.24545,0.01018-0.36804,0.0186c-0.05151,0.00354-0.07716-0.02606-0.07354-0.07696
		C15.40487,8.63182,15.37548,8.51264,15.4142,8.39687z"/>
	<path fill="#47644B" d="M14.91387,8.81243c0.01653-0.11866-0.02579-0.17771-0.15522-0.1587
		c-0.07439,0.01092-0.11039-0.03022-0.099-0.1014c0.02153-0.13457-0.05164-0.16245-0.16367-0.15223
		c0.12506-0.05135,0.25518-0.01038,0.3826-0.01974c0.03378-0.00248,0.06475,0.01771,0.0606,0.05566
		C14.92548,8.56122,14.97541,8.69063,14.91387,8.81243z"/>
	<path fill="#3B553F" d="M17.7877,7.38717c-0.02299,0.01-0.04599,0.02-0.06898,0.03
		c0.09756-0.20001,0.19511-0.40002,0.29267-0.60003c0.00224,0.02347,0.00447,0.04694,0.00778,0.08161
		c0.03476-0.04522,0.06119-0.07959,0.08761-0.11396C18.05669,7.01495,17.92973,7.20499,17.7877,7.38717z"/>
	<path fill="#415F45" d="M14.62001,7.89731c0.09924,0.00017,0.19847,0.00034,0.29772,0.00053
		C14.81844,7.92507,14.7192,7.92519,14.62001,7.89731z"/>
	<path fill="#355739" d="M8.68094,6.30653c0.36064-0.50928,0.86299-0.72202,1.4796-0.7025
		c0.0793,0.00251,0.09725,0.0299,0.09592,0.10177c-0.00427,0.23162,0.01058,0.46434-0.00655,0.69483
		c-0.03799,0.51133-0.26505,0.92259-0.69762,1.214c-0.2728,0.14021-0.5574,0.22592-0.86993,0.1989
		C8.51987,7.79947,8.48372,7.77561,8.4839,7.61411c0.00031-0.27312-0.01665-0.54625,0.02863-0.81923
		C8.54147,6.6204,8.63402,6.4722,8.68094,6.30653z"/>
	<path fill="#355739" d="M6.2286,5.61361c0.92059-0.07074,1.68988,0.64906,1.71456,1.6157
		c0.00565,0.22133,0.0347,0.44583-0.02161,0.66616C7.86829,7.84027,7.80743,7.81331,7.72628,7.80924
		C6.87284,7.76646,6.18589,7.04863,6.18487,6.20319C6.1847,6.06642,6.18403,5.92965,6.18528,5.79288
		C6.18585,5.73013,6.18072,5.66538,6.2286,5.61361z"/>
	<path fill="#2A452E" d="M6.2286,5.61361c0.01896,0.34451-0.03506,0.69018,0.05916,1.0341
		c0.15986,0.5835,0.83491,1.11717,1.44547,1.12022c0.09003,0.00045,0.20648-0.03249,0.18832,0.12753
		C7.07906,8.03262,6.20884,7.38166,6.10379,6.5372C6.06921,6.25927,6.09054,5.98031,6.0812,5.70199
		C6.0769,5.57381,6.15666,5.6052,6.2286,5.61361z"/>
	<path fill="#2C4730" d="M8.68094,6.30653c0.0359,0.02095,0.03225,0.04809,0.01528,0.08012
		C8.48033,6.79393,8.53438,7.23608,8.52754,7.67058C8.5263,7.74916,8.56633,7.76659,8.6364,7.76847
		c0.28303,0.00759,0.56083-0.00803,0.81862-0.14316C9.48308,7.6106,9.51505,7.57152,9.55229,7.61462
		C9.23496,7.86631,8.86437,7.92628,8.47244,7.91215C8.41867,7.91021,8.39621,7.8907,8.39843,7.83669
		c0.01572-0.38332-0.04517-0.77116,0.0832-1.1478C8.52905,6.54976,8.58815,6.4205,8.68094,6.30653z"/>
	<path fill="#2F4A33" d="M7.92058,8.80851C7.80192,8.84903,7.6794,8.81752,7.55909,8.82759
		C7.50626,8.83201,7.47726,8.8076,7.48132,8.75455c0.00906-0.11833-0.02473-0.23903,0.01989-0.35533
		c0.11375-0.03501,0.19808-0.01972,0.21384,0.1196C7.7212,8.57326,7.75767,8.60129,7.81032,8.60794
		C7.941,8.62444,7.96082,8.69997,7.92058,8.80851z"/>
	<path fill="#38593C" d="M8.43184,8.81391c-0.07092-0.12675-0.01937-0.2626-0.0277-0.39393
		C8.40167,8.38104,8.44418,8.37757,8.47636,8.37753C8.57701,8.37739,8.67769,8.37985,8.7783,8.37821
		C8.84226,8.37716,8.86106,8.4097,8.85793,8.4666c-0.00403,0.07322-0.00609,0.14655-0.009,0.21983
		c-0.2092,0.09346-0.28578,0.05623-0.35866-0.17688C8.4554,8.60989,8.50976,8.72474,8.43184,8.81391z"/>
	<path fill="#3D5D41" d="M7.92058,8.80851C7.9322,8.70347,7.90671,8.63474,7.77823,8.65395
		C7.70142,8.66544,7.65309,8.63254,7.66675,8.54963c0.02274-0.13803-0.05894-0.15615-0.16554-0.15041
		c0.1213-0.04925,0.24752-0.01042,0.3711-0.01982c0.04177-0.00318,0.07545,0.01679,0.07105,0.06296
		C7.93173,8.56422,7.97647,8.68954,7.92058,8.80851z"/>
	<path fill="#2C4730" d="M8.43184,8.81391c0.0003-0.1097,0.00043-0.2194,0.001-0.3291
		c0.0002-0.03912,0.00756-0.0741,0.05712-0.07726c0.0468-0.00299,0.06054,0.02388,0.06935,0.0657
		C8.60436,8.687,8.6055,8.68677,8.84894,8.68643c0.03228,0.11015-0.01021,0.1532-0.12322,0.14124
		C8.62821,8.81735,8.52876,8.84185,8.43184,8.81391z"/>
	<path fill="#364E39" d="M11.17444,6.07856c-0.00345,0.07795,0.03374,0.16111-0.03007,0.23133
		C11.14726,6.23187,11.14014,6.15256,11.17444,6.07856z"/>
	<path fill="#3B553F" d="M17.81963,7.609c-0.053-0.04444-0.02424-0.10505-0.03181-0.15847
		C17.84083,7.49497,17.81215,7.55556,17.81963,7.609z"/>
	<path fill="#364E39" d="M11.08224,6.81671c0.04165-0.18292,0.0904-0.36376,0.16011-0.53846
		C11.23009,6.46978,11.19021,6.65322,11.08224,6.81671z"/>
	<path fill="#FEFEFE" d="M23.91471,6.87287c-0.16682,0.22132-0.35559,0.41354-0.62853,0.50826
		c-0.11264,0.03909-0.14046,0.01786-0.14135-0.10295c-0.00366-0.49468,0.22328-0.84989,0.64393-1.09592
		c0.04197-0.05093,0.09585-0.08388,0.16081-0.09383c0.09277-0.01421,0.16931,0.01623,0.16312,0.11909
		C24.09853,6.44305,24.09293,6.68421,23.91471,6.87287z"/>
	<path fill="#314C35" d="M23.91471,6.87287c0.09233-0.19648,0.14225-0.40144,0.1512-0.61965
		c0.00564-0.13745-0.03454-0.17175-0.15882-0.1127c-0.03754,0.01784-0.07877,0.02804-0.11832,0.04173
		c-0.01312-0.00645-0.02624-0.0129-0.03936-0.01934c0.00842-0.01174,0.01438-0.02704,0.02563-0.03468
		c0.12273-0.08335,0.28227-0.20117,0.39649-0.13624c0.09266,0.05268,0.04027,0.25055,0.01644,0.38431
		c-0.03097,0.17384-0.10479,0.32981-0.20619,0.4736C23.9656,6.87285,23.95428,6.91499,23.91471,6.87287z"/>
	<path fill="#FEFEFE" d="M21.75095,7.13421c0,0.08859,0,0.17719,0,0.27159c-0.23822-0.02661-0.40496-0.15867-0.57531-0.28355
		c-0.14107-0.06279-0.20147-0.19269-0.26358-0.31871c-0.08698-0.17646-0.11998-0.36234-0.11608-0.56105
		c0.00278-0.14193,0.06957-0.15167,0.17693-0.13356c0.02078,0.00351,0.04179,0.00527,0.06196,0.0116
		c0.38636,0.15404,0.62705,0.43355,0.72509,0.83427C21.77454,7.01442,21.80112,7.07683,21.75095,7.13421z"/>
	<path fill="#415F45" d="M21.04398,6.15315c-0.22939-0.05783-0.22527-0.05805-0.21215,0.18727
		c0.01629,0.30459,0.1471,0.55682,0.34381,0.78183c-0.02274,0.10852,0.03385,0.2255-0.03559,0.32906
		c-0.34548-0.209-0.48954-0.54987-0.60539-0.90959c-0.0412-0.12792-0.03354-0.25928-0.03259-0.39037
		c0.05051,0.01464,0.1014,0.02807,0.15142,0.04419c0.0682,0.02198,0.13462,0.07035,0.14288-0.06565
		c0.00644-0.10607,0.10197-0.02444,0.15331-0.04295C21.00457,6.07607,21.04814,6.08111,21.04398,6.15315z"/>
	<path fill="#2A452E" d="M21.04398,6.15315c-0.01902-0.03951-0.06218-0.04513-0.09433-0.06619
		c-0.0021-0.12527,0.08101-0.10392,0.15202-0.07964c0.38373,0.13123,0.6182,0.40297,0.73774,0.78162
		c0.04035,0.12783,0.03741,0.25858,0.03486,0.38951c-0.00076,0.03916,0.01518,0.09743-0.04244,0.10317
		C21.76724,7.28805,21.78776,7.2258,21.7776,7.189c-0.00531-0.01923-0.01754-0.03658-0.02665-0.05478
		C21.69741,6.6779,21.45372,6.35658,21.04398,6.15315z"/>
	<path fill="#2D4831" d="M22.19112,7.79939c-0.09436-0.01435-0.19558,0.03152-0.28434-0.03193
		C22.00107,7.78239,22.10254,7.73436,22.19112,7.79939z"/>
	<path fill="#FEFEFE" d="M16.63394,6.87241c-0.15031,0.20015-0.31711,0.38186-0.5565,0.4797
		c-0.06291,0.02571-0.12592,0.05558-0.20193,0.04783c-0.05199-0.48342,0.12631-0.86282,0.51503-1.15005
		c0.06021-0.09729,0.16464-0.13111,0.2629-0.16095c0.09083-0.02759,0.18493,0.00356,0.17824,0.11722
		C16.81782,6.44156,16.81525,6.68435,16.63394,6.87241z"/>
	<path fill="#38513C" d="M16.63394,6.87241c0.07803-0.20026,0.14588-0.40097,0.15195-0.62084
		c0.00381-0.13787-0.05497-0.15482-0.15953-0.11508c-0.08128,0.03089-0.15741,0.07511-0.23583,0.1134
		c-0.03453-0.02297-0.01751-0.04728,0.00459-0.06112c0.13343-0.08354,0.26186-0.17673,0.41809-0.21773
		c0.07231-0.01898,0.10748-0.0002,0.11333,0.08014c0.02182,0.29999-0.05974,0.56931-0.23318,0.81335
		C16.67699,6.88756,16.65864,6.90626,16.63394,6.87241z"/>
	<path fill="#FEFEFE" d="M14.47009,7.13377c0,0.08856,0,0.17713,0,0.26764c-0.55555-0.07913-1.02355-0.71703-0.92075-1.23579
		c0.024-0.12112,0.10036-0.01882,0.14823-0.03674c0.20453,0.0162,0.35068,0.13907,0.4858,0.27313
		c0.16616,0.16485,0.25931,0.37092,0.30671,0.59779C14.49976,7.04614,14.50967,7.09399,14.47009,7.13377z"/>
	<path fill="#2E4832" d="M14.47009,7.13377c-0.05878-0.48548-0.32347-0.815-0.77252-1.0049
		c-0.03052-0.13721-0.00905-0.15806,0.12587-0.12216c0.39736,0.10571,0.76157,0.57719,0.77113,0.99847
		c0.00071,0.03147,0.0039,0.06349-0.00058,0.09433c-0.00854,0.05885,0.03438,0.15306-0.03117,0.16933
		C14.47379,7.29095,14.52449,7.16601,14.47009,7.13377z"/>
	<path fill="#FEFEFE" d="M9.63982,6.86983C9.48602,7.07508,9.3146,7.26049,9.06774,7.35755
		C9.0096,7.38041,8.95122,7.40861,8.88031,7.39997c-0.05614-0.5131,0.14565-0.9019,0.56944-1.18651
		c0.00269-0.00449,0.00426-0.01087,0.00824-0.0132c0.09207-0.05411,0.18098-0.15605,0.29566-0.09242
		c0.1035,0.05743,0.06537,0.17944,0.06215,0.2741C9.80972,6.56111,9.77761,6.73545,9.63982,6.86983z"/>
	<path fill="#314C35" d="M9.63982,6.86983c0.09153-0.20189,0.14579-0.41034,0.14716-0.63484
		c0.00079-0.12943-0.04618-0.14144-0.14776-0.09762C9.57676,6.16433,9.51295,6.18821,9.44975,6.21347
		C9.42042,6.20914,9.38852,6.19208,9.42744,6.16979C9.55488,6.0968,9.6738,6.00591,9.82105,5.97092
		C9.8807,5.95674,9.92545,5.95973,9.93225,6.03646C9.95989,6.3483,9.8687,6.62597,9.68877,6.87813
		C9.67321,6.89994,9.65293,6.89182,9.63982,6.86983z"/>
	<path fill="#FDFEFD" d="M7.47689,7.16562c0,0.07802,0,0.15605,0,0.23617C6.9224,7.32595,6.46435,6.70501,6.55154,6.17238
		c0.00982-0.05997,0.0331-0.06929,0.08248-0.0561c0.0457,0.01221,0.09127,0.02491,0.13689,0.0374
		c0.13848,0.00111,0.23447,0.09026,0.3286,0.17002c0.22414,0.18992,0.3614,0.432,0.40163,0.72459
		C7.50686,7.08987,7.51211,7.13205,7.47689,7.16562z"/>
	<path fill="#2A452E" d="M7.47689,7.16562C7.43344,6.69643,7.18851,6.36571,6.7709,6.15368
		C6.74919,6.1053,6.64489,6.0924,6.69093,6.0222C6.73304,5.958,6.80449,5.99741,6.86224,6.02212
		C7.35843,6.23438,7.60681,6.60634,7.6001,7.13391C7.59945,7.18463,7.63677,7.26607,7.55624,7.28023
		C7.48196,7.2933,7.52708,7.18953,7.47689,7.16562z"/>
</g>
</svg>
