<?xml version="1.0" encoding="utf-8"?>
<!-- Generator: Adobe Illustrator 23.0.0, SVG Export Plug-In . SVG Version: 6.00 Build 0)  -->
<svg version="1.1" id="Слой_1" xmlns="http://www.w3.org/2000/svg" xmlns:xlink="http://www.w3.org/1999/xlink" x="0px" y="0px" width="32px" height="13px"
	 viewBox="0 0 32 13" enable-background="new 0 0 32 13" xml:space="preserve">
<g>
	<path fill="#422D1C" d="M0.83245,0.00265c1.37302,0,2.74605,0,4.11907,0C4.99657,0.0502,4.99535,0.11938,5.03214,0.17091
		C5.1313,0.35176,5.28656,0.43304,5.49121,0.42985C5.56564,0.4287,5.64014,0.43008,5.7146,0.43008
		c7.01589,0.00002,14.03179,0.00486,21.04765-0.00911c0.56521-0.00113,1.04713,0.16195,1.5264,0.41766
		c0.69109,0.36873,1.18569,0.93149,1.62785,1.55498c0.4448,0.62724,0.73381,1.33198,1.04322,2.02667
		c0.20463,0.45944,0.36996,0.93283,0.48523,1.42321c0.0541,0.23016,0.14543,0.44299,0.3607,0.5763
		c0.03652,0.02981,0.08344,0.04638,0.1129,0.08546c0.07148,0.1794,0.01317,0.35841-0.02324,0.52925
		c-0.2126,0.99752-0.58979,1.93588-1.07018,2.83438c-0.35992,0.67318-0.78271,1.30416-1.30771,1.86331
		c-0.3723,0.39651-0.78419,0.74421-1.28251,0.97775c-0.32537,0.15249-0.66442,0.24032-1.02995,0.23993
		c-3.25087-0.0035-6.50175-0.00187-9.75263-0.00278c-0.0996-0.00003-0.20332,0.01841-0.29585-0.04001
		c-0.04245-0.03416-0.06762-0.0812-0.09556-0.12596c-0.07915-0.12679-0.19899-0.1865-0.34332-0.2033
		c-0.08995-0.01048-0.1807-0.00547-0.2711-0.00547c-5.06972-0.00014-10.13944-0.00017-15.20917,0.0001
		c-0.17633,0.00001-0.3532,0.00519-0.50465-0.10747c-0.16698-0.12421-0.26604-0.28478-0.26898-0.49687
		c-0.00337-0.24288-0.00149-0.48577-0.00153-0.72865C0.4619,9.57619,0.45801,7.91292,0.4657,6.2497
		c0.0014-0.30381-0.09984-0.51061-0.39845-0.60482c-0.01885-0.00991-0.03383-0.0239-0.04507-0.04186
		c-0.00808-1.38634-0.0012-2.7727-0.00345-4.15904C0.01841,1.24892,0.01893,1.05388,0.01851,0.85921
		C0.02917,0.52774,0.20366,0.2928,0.46769,0.1107C0.57538,0.02874,0.70976,0.0352,0.83245,0.00265z"/>
	<path fill="#3B2618" d="M27.59046,0.00265c0.48792,0.13672,0.93455,0.35228,1.33209,0.66862
		c0.64644,0.51438,1.15343,1.14701,1.58811,1.83963c0.64002,1.01982,1.13324,2.10275,1.40681,3.27843
		c0.02801,0.12036,0.01951,0.24859,0.07943,0.36182c0,0.11621,0,0.23242,0,0.34863
		c-0.03148,0.02567-0.06316,0.02575-0.09502,0.00071c-0.03524-0.00183-0.07336,0.00488-0.09671-0.03216
		c0.06214-0.06742,0.07176-0.1445,0.06185-0.2344c-0.0583-0.52911-0.21254-1.03236-0.39977-1.52834
		c-0.27892-0.73891-0.6178-1.44842-1.04454-2.11466c-0.44176-0.6897-0.94854-1.32371-1.60086-1.83414
		c-0.4318-0.33787-0.90755-0.56561-1.4585-0.62737c-0.09551-0.01071-0.19068-0.01529-0.28644-0.01529
		c-7.2606,0-14.52121,0.00005-21.78182-0.00041c-0.10695-0.00001-0.21277,0.001-0.31205,0.04759
		C4.93039,0.11668,4.95941,0.05605,4.95152,0.00265c7.45052,0,14.90104,0,22.35156,0c0.08515,0.02664,0.1703,0.02661,0.25545,0
		C27.56917,0.00265,27.57982,0.00265,27.59046,0.00265z"/>
	<path fill="#4D3827" d="M31.90189,6.50048c0.03167-0.00024,0.06335-0.00047,0.09502-0.00071c0,0.09508,0,0.19016,0,0.28524
		c-0.09397,0.25039-0.11443,0.51838-0.19068,0.77354c-0.45705,1.52926-1.14071,2.94013-2.21428,4.1425
		c-0.4965,0.55608-1.0709,1.01013-1.81114,1.21371c-0.10556,0.02903-0.21203,0.05484-0.31808,0.08213
		c-3.42724,0-6.85448,0-10.28172,0c-0.01709-0.01591-0.02434-0.0355-0.02231-0.05861
		c0.00367-0.01442,0.01095-0.02668,0.02231-0.03647c3.34729,0.00003,6.69458-0.0019,10.04186,0.00231
		c0.46924,0.00059,0.88611-0.14992,1.27639-0.38446c0.57537-0.34578,1.02785-0.82347,1.4347-1.34908
		c0.54596-0.70533,0.96498-1.48013,1.31699-2.29556c0.25762-0.59677,0.46116-1.20927,0.60182-1.84217
		C31.89137,6.85919,31.91414,6.68051,31.90189,6.50048z"/>
	<path fill="#674E39" d="M17.17997,12.93438c0.00035,0.02084,0.0007,0.04168,0.00105,0.06252c-0.05322,0-0.10644,0-0.15965,0
		c-0.05489-0.03082-0.11472-0.01557-0.172-0.01558c-5.27098-0.00081-10.54196-0.00081-15.81294-0.00001
		c-0.0573,0.00001-0.11713-0.01511-0.17204,0.01559c-0.02129,0-0.04257,0-0.06386,0
		c-0.44726-0.08429-0.71335-0.3484-0.79827-0.79233c0-0.02113,0-0.04226,0-0.06339c0.03195-0.05987,0.01558-0.12443,0.01561-0.1865
		C0.01887,9.90186,0.0185,7.84904,0.01963,5.79622c0.00003-0.06179-0.01808-0.12658,0.01679-0.18579
		c0.00999,0.00024,0.01996,0.00072,0.02992,0.00145C0.13043,5.64786,0.14262,5.70927,0.1467,5.77436
		C0.151,5.84292,0.14957,5.9116,0.14957,5.98024c0.00007,1.94849,0.00028,3.89699-0.00042,5.84548
		c-0.00005,0.1431,0.00603,0.28494,0.04048,0.42457c0.07676,0.31112,0.27844,0.50111,0.58309,0.58858
		c0.14971,0.04298,0.30427,0.04393,0.45905,0.04391c5.20833-0.00057,10.41665-0.00065,15.62498,0.00064
		C16.96589,12.88345,17.0821,12.85668,17.17997,12.93438z"/>
	<path fill="#674E39" d="M0.86438,12.99689c0.04712-0.05189,0.10965-0.0308,0.16548-0.03081
		c5.27534-0.00095,10.55069-0.00095,15.82603,0c0.05583,0.00001,0.11835-0.02108,0.16548,0.03081
		C11.6357,12.99689,6.25004,12.99689,0.86438,12.99689z"/>
	<path fill="#805200" d="M0.03642,5.61043c-0.00075,2.11157-0.00123,4.22314-0.0035,6.33471
		c-0.00007,0.06546,0.02617,0.1381-0.03067,0.19603c0-3.78207,0-7.56413,0-11.3462c0.01083-0.01136,0.02152-0.01067,0.03209,0.00038
		C0.03503,2.40038,0.03573,4.00541,0.03642,5.61043z"/>
	<path fill="#7F5101" d="M0.00225,0.73159c0.09979-0.23647,0.19627-0.47535,0.4458-0.60271
		C0.46308,0.11371,0.47585,0.1154,0.48636,0.13395c-0.22989,0.16713-0.3766,0.39027-0.45203,0.6614
		c-0.0107-0.00012-0.02139-0.00025-0.03209-0.00037C0.00225,0.77385,0.00225,0.75272,0.00225,0.73159z"/>
	<path fill="#845A13" d="M0.48636,0.13395C0.47359,0.13226,0.46082,0.13058,0.44804,0.12889
		c0.05943-0.06925,0.1555-0.07422,0.22475-0.12624c0.05322,0,0.10644,0,0.15965,0C0.71709,0.04642,0.60173,0.09018,0.48636,0.13395z
		"/>
	<path fill="#4F3311" d="M27.55853,0.00265c-0.08515,0.05135-0.1703,0.04776-0.25545,0
		C27.38823,0.00265,27.47338,0.00265,27.55853,0.00265z"/>
	<path fill="#BD9C00" d="M0.98587,7.83162c0-0.4019,0-0.80381,0-1.20571c-0.02723-0.05807-0.042-0.11789-0.04191-0.18317
		c0.00141-1.04478-0.00113-2.08957,0.0018-3.13435C0.9458,3.29247,0.94873,3.27691,0.95074,3.26157
		C1.03083,3.0623,1.11553,2.86435,1.26139,2.70126C1.36029,2.59067,1.469,2.49133,1.62983,2.47952
		c0.14031,0.03249,0.223,0.13564,0.30271,0.24299C2.00294,2.83699,1.9992,2.96443,1.9992,3.09142
		C1.99918,4.82839,1.99756,6.56537,2.00027,8.30234C2.00092,8.72327,2.17169,9.04818,2.5749,9.22572
		c0.14388,0.06335,0.2969,0.07788,0.45251,0.07782c0.55851-0.00022,1.11702-0.0019,1.67552,0.00056
		c0.39619,0.00174,0.62284,0.17311,0.7363,0.5495c0.15795,0.52396,0.46147,0.74861,1.02088,0.74886
		c2.07977,0.00094,4.15955,0.00035,6.23933,0.00039c0.06383,0,0.12766-0.00055,0.19149,0.00035
		c0.45139,0.00637,0.72536,0.27706,0.73056,0.7221c0.00062,0.05275,0.0024,0.10559-0.0026,0.15814
		c-0.00099,0.0549,0.00187,0.11001-0.00233,0.16491c-0.00055,0.03522,0.0013,0.07056-0.00095,0.1058
		c0.00026,0.02651,0.0001,0.05304,0.00003,0.07964c0.00233,0.0462,0.00087,0.09222-0.00357,0.13836
		c-0.00677,0.04057-0.01812,0.07839-0.05909,0.09884c-0.0655,0.03076-0.13558,0.02209-0.20418,0.0221
		c-3.4068,0.00041-6.81361,0.0004-10.22041,0.00015c-0.07419,0-0.14914,0.00543-0.22075-0.02011
		c-0.37797-0.18676-0.56273-0.49639-0.58508-0.90942c-0.01063-0.19645-0.0658-0.26139-0.23249-0.27796
		c-0.61689-0.06132-1.01821-0.43005-1.12206-1.03058c-0.0346-0.15062-0.0227-0.3034-0.02308-0.45535
		C0.9438,8.95358,0.94507,8.50734,0.94401,8.06111C0.94382,7.98144,0.94725,7.90371,0.98587,7.83162z"/>
	<path fill="#2E180B" d="M4.98307,0.16131C4.98287,0.10919,4.9924,0.06545,5.05978,0.06656
		C5.10764,0.06735,5.15553,0.06612,5.2034,0.06612c7.26663-0.00003,14.53327,0.0012,21.7999-0.00207
		c0.66852-0.0003,1.2576,0.20171,1.78338,0.6037c0.48231,0.36876,0.89777,0.80166,1.25633,1.28875
		c0.56146,0.76272,1.01319,1.58319,1.36164,2.46433c0.20021,0.50627,0.37175,1.01761,0.48195,1.54926
		c0.02543,0.12267,0.0303,0.24947,0.04645,0.37413c0.01285,0.0992-0.03295,0.13583-0.12788,0.1241
		c-0.2631-0.11908-0.35176-0.36266-0.40764-0.60961C31.22406,5.09203,30.896,4.38506,30.5744,3.67434
		c-0.25318-0.55952-0.56586-1.08072-0.933-1.57584c-0.54708-0.73779-1.25764-1.23993-2.11513-1.55587
		c-0.13313-0.04905-0.26388-0.06575-0.40336-0.06572c-7.21049,0.0013-14.42097,0.00089-21.63146,0.00226
		C5.24964,0.47922,5.06936,0.39839,4.98307,0.16131z"/>
	<path fill="#5C422C" d="M17.17998,12.93438c-5.36284-0.0003-10.72568-0.00077-16.08852-0.00056
		c-0.35526,0.00002-0.65226-0.113-0.85458-0.41791c-0.11224-0.16915-0.13689-0.36309-0.13714-0.55711
		c-0.00264-2.04363-0.0016-4.08727-0.00179-6.1309C0.09793,5.75454,0.1083,5.67935,0.06634,5.61189
		C0.36181,5.66436,0.51297,5.83927,0.513,6.13134c0.00023,1.92792,0.00642,3.85589-0.00593,5.78373
		c-0.00212,0.33047,0.28391,0.61278,0.61907,0.61223c5.14594-0.00838,10.2919-0.00441,15.43785-0.00931
		c0.30222-0.00029,0.51499,0.09138,0.61703,0.38381C17.18067,12.91267,17.18032,12.92352,17.17998,12.93438z"/>
	<path fill="#4B3625" d="M0.99533,3.21378c-0.00116,1.06904-0.0022,2.13808-0.00371,3.20711
		c-0.0001,0.06834-0.00374,0.13668-0.00574,0.20502c-0.0748-0.04109-0.09076-0.10624-0.09069-0.1869
		c0.00151-1.77452,0.00085-3.54905,0.0016-5.32357C0.89687,0.92542,0.96433,0.86148,1.15655,0.8585
		C1.19911,0.85784,1.24169,0.8584,1.28425,0.8584c8.55068,0,17.10137,0.00127,25.65205-0.00303
		c0.53507-0.00027,0.99548,0.16018,1.41407,0.48468c0.56407,0.43727,0.99363,0.98649,1.37778,1.5761
		c0.45536,0.6989,0.81618,1.44397,1.09354,2.22913c0.14014,0.39671,0.25397,0.80135,0.30676,1.21821
		c0.02636,0.20814-0.03331,0.41754-0.07979,0.62138c-0.15362,0.67366-0.39691,1.3187-0.68717,1.94358
		c-0.16504,0.35531-0.36355,0.69665-0.55489,1.04036c-0.15958,0.28666-0.34706,0.55349-0.54975,0.80323
		c-0.40249,0.49593-0.85162,0.95563-1.45144,1.22055c-0.20396,0.09008-0.42723,0.14999-0.66135,0.14994
		c-8.64646-0.00164-17.29292-0.00137-25.93938-0.00143c-0.25434,0-0.30826-0.0532-0.30829-0.30427
		c-0.00013-1.26224,0.00028-2.52447-0.00079-3.78671C0.89553,7.96293,0.8934,7.87916,0.98588,7.83162
		C0.98786,8.3573,0.99094,8.88298,0.99122,9.40866C0.99131,9.57093,0.9898,9.73288,1.01917,9.8933
		c0.02262,0.34704,0.02024,0.69478,0.03015,1.04217c-0.01781,0.30509-0.0023,0.6105-0.00813,0.91568
		c-0.00211,0.11039,0.05049,0.14807,0.15531,0.14645c0.31292-0.00485,0.62598,0.00697,0.93884-0.00762
		c0.24617,0.02011,0.49415-0.00733,0.73983,0.02679c0.05447,0.02303,0.11083,0.0303,0.17038,0.03028
		c3.48701-0.00087,6.97402-0.00083,10.46103-0.00105c0.02121,0,0.04242-0.00237,0.06363-0.00363
		c0.07905-0.06272,0.17287-0.04292,0.26161-0.04294c4.14498-0.00081,8.28997-0.0008,12.43495-0.00021
		c0.13298,0.00002,0.26591-0.00957,0.39846-0.00259c0.77228,0.10004,1.39808-0.1763,1.94205-0.71058
		c0.57413-0.5639,1.0189-1.21437,1.38922-1.92017c0.2556-0.48714,0.49491-0.98176,0.66343-1.50685
		c0.08643-0.23305,0.15419-0.47146,0.2081-0.71396c0.11421-0.37413,0.18694-0.75031,0.06108-1.13698
		c-0.05398-0.26429-0.12344-0.52429-0.21964-0.77713c-0.40138-1.14841-0.96095-2.21025-1.75707-3.13958
		c-0.31506-0.36778-0.6684-0.69507-1.11152-0.91295c-0.24308-0.11953-0.49668-0.17752-0.76916-0.17745
		c-7.53502,0.00193-15.07003,0.00072-22.60504,0.0018c-0.03195,0-0.06393,0.00124-0.09582-0.00242
		C4.07472,0.99963,3.77865,1.00245,3.48259,0.99956c-0.38021,0.00828-0.76045,0.00429-1.14065,0.0037
		C2.15186,0.99387,1.96157,1.0061,1.77149,0.9994c-0.07812-0.00437-0.15626,0.00538-0.2344,0.00118
		c-0.07687-0.00543-0.15393,0.0049-0.23076-0.00173C1.27474,0.99887,1.24305,1.00429,1.21165,1.00188
		C1.09193,0.99266,1.03835,1.04368,1.0404,1.16551C1.04676,1.54175,1.03053,1.9182,1.05057,2.29446
		C1.03465,2.53471,1.04952,2.77543,1.0379,3.01553C1.03467,3.08239,1.02478,3.15095,0.99533,3.21378z"/>
	<path fill="#B37300" d="M13.57404,11.50738c-0.00373-0.12104,0.01005-0.24571-0.01458-0.3624
		c-0.06449-0.3056-0.31393-0.49318-0.6328-0.49322c-2.17508-0.0003-4.35016-0.00009-6.52523-0.00021
		C5.8763,10.65151,5.5262,10.37837,5.39509,9.86725c-0.087-0.33917-0.31433-0.51494-0.6669-0.51504
		c-0.57435-0.00016-1.1487,0.00002-1.72304-0.00006c-0.63763-0.00009-1.05509-0.41359-1.0551-1.04517
		C1.95,6.58091,1.94947,4.85485,1.95101,3.12879C1.95115,2.98073,1.95207,2.8346,1.88584,2.69737
		C1.8048,2.49795,1.82933,2.44218,2.02246,2.38573C2.25003,2.33,2.27922,2.29781,2.29103,2.06619
		c0.01343-0.26348,0.09243-0.49445,0.31205-0.66196c0.04673-0.03564,0.0919-0.07114,0.15283-0.07902
		c0.49586-0.02097,0.99168-0.00726,1.48741-0.00793C4.2856,1.31723,4.32751,1.32372,4.36622,1.34273
		c0.05323,0.03145,0.07783,0.08525,0.10509,0.13631C4.64576,1.80578,4.92033,1.9533,5.29108,1.95276
		c1.80371-0.00264,3.60747,0.00523,5.4111-0.00669c0.35676-0.00236,0.63099,0.10418,0.84563,0.38087
		c0.05499,0.07089,0.11611,0.13774,0.17739,0.20366c0.17146,0.18445,0.38375,0.27447,0.63793,0.27758
		c0.31351,0.00384,0.62747-0.01808,0.94027,0.01335c0.1296,0.09032,0.00145,0.12345-0.04478,0.14842
		c-0.18772,0.10141-0.35195,0.23252-0.51572,0.3664c-0.37814,0.30913-0.66832,0.68619-0.8903,1.11735
		c-0.02655,0.05158-0.05363,0.10288-0.08955,0.14906c-0.16165,0.30778-0.23519,0.64074-0.2852,0.98018
		c-0.0292,0.19822-0.04033,0.39757-0.03379,0.59809c0.00604,0.18507,0.04905,0.24612,0.21897,0.30066
		c0.05191,0.01666,0.13458,0.00745,0.12926,0.08702c-0.00495,0.07416-0.08961,0.0581-0.13907,0.08221
		c-0.01577,0.00713-0.03206,0.01266-0.04861,0.01744C11.50213,6.70368,11.44857,6.78,11.44842,6.88262
		c-0.00047,0.3091-0.01872,0.61851,0.01078,0.92709c0.07028,0.50544,0.24105,0.97255,0.56879,1.37002
		c0.46376,0.56243,1.06703,0.87138,1.79819,0.92152c0.14294,0.0098,0.24506,0.0514,0.30215,0.18551
		c0.02061,0.04841,0.04943,0.09482,0.08608,0.13235c0.19965,0.20446,0.39722,0.41133,0.60711,0.60532
		c0.13897,0.12844,0.31175,0.12903,0.44165-0.00394c0.25012-0.25604,0.54553-0.47158,0.72549-0.79195
		c0.04824-0.08587,0.1413-0.1145,0.23247-0.11834c0.40097-0.01688,0.76935-0.14371,1.12517-0.31616
		c0.34892-0.15412,0.60019-0.41922,0.82347-0.71561c0.0474-0.06293,0.08955-0.1297,0.13079-0.19678
		c0.03094-0.04719,0.05048-0.09948,0.06813-0.15262c0.00517-0.0132,0.01175-0.02567,0.01921-0.03768
		c0.05856-0.08212,0.09113-0.17334,0.09734-0.27392c0.00374-0.03862,0.01582-0.07423,0.03747-0.10654
		c0.07459-0.13462,0.0773-0.28473,0.09439-0.43184c0.00226-0.01651,0.00636-0.03245,0.01153-0.0482
		c0.02118-0.3075,0.00979-0.61517,0.00592-0.9226c-0.00128-0.10162-0.0369-0.19569-0.1461-0.23841
		c-0.01616-0.0042-0.03185-0.00981-0.04728-0.01598c-0.02899-0.01398-0.0616-0.01599-0.09159-0.02647
		c-0.03057-0.01069-0.06117-0.02401-0.06224-0.06239c-0.00108-0.03872,0.02817-0.05988,0.05944-0.06339
		c0.2847-0.03202,0.30019-0.23055,0.29458-0.4517c-0.02268-0.89464-0.29509-1.69276-0.89383-2.37615
		c-0.22577-0.25769-0.48634-0.46769-0.7656-0.6609c-0.05788-0.04005-0.15404-0.06686-0.10804-0.1747
		c0.05882-0.03302,0.12366-0.02757,0.18704-0.02761c0.8827-0.00052,1.76539-0.00134,2.64808,0.00048
		c0.15995,0.00033,0.31832,0.02312,0.47227,0.06651c0.24129,0.068,0.42645,0.21034,0.54966,0.42821
		c0.17504,0.30951,0.43959,0.45894,0.79771,0.45608c0.46259-0.00369,0.9254,0.00716,1.38781-0.00255
		c0.98274-0.02063,1.93584,0.15764,2.87921,0.40585c0.24146,0.06353,0.4823,0.12945,0.7211,0.20313
		c0.62894,0.19407,1.15702,0.55165,1.63095,0.99297c0.17056,0.15882,0.34543,0.31293,0.51718,0.47029
		c0.21123,0.19353,0.47651,0.29123,0.74646,0.37885c0.12203,0.03961,0.26842,0.02872,0.35721,0.14869
		c-0.05557,0.08124-0.14744,0.07076-0.22793,0.08687c-0.13322,0.02666-0.21111,0.09872-0.20348,0.20116
		c0.0098,0.13144,0.10378,0.15234,0.21399,0.16058c0.12997,0.00972,0.26883,0.00284,0.36241,0.12298
		c0.02027,0.05875,0.00631,0.11539-0.01202,0.17085c-0.33256,1.00615-0.78673,1.95109-1.45131,2.78563
		c-0.30799,0.38676-0.667,0.70387-1.17548,0.8243c-0.33165,0.07855-0.57179,0.30413-0.72619,0.60233
		c-0.09347,0.1805-0.22379,0.24323-0.42139,0.24309c-4.10818-0.00286-8.21636-0.00211-12.32454-0.00274
		C13.72394,11.55409,13.64136,11.56552,13.57404,11.50738z"/>
	<path fill="#AC7300" d="M13.57404,11.50738c4.18143-0.00002,8.36287-0.00114,12.5443,0.0034
		c0.19344,0.00021,0.30637-0.04991,0.39707-0.23272c0.1758-0.35435,0.48407-0.5641,0.87008-0.65596
		c0.24956-0.05939,0.45769-0.18623,0.64404-0.35769c0.47778-0.43958,0.81643-0.97759,1.12398-1.53981
		c0.28182-0.51517,0.50975-1.05239,0.69473-1.60824c0.02145-0.06447,0.05118-0.12822,0.04097-0.19951
		c0.10967-0.02925,0.17717,0.01411,0.20894,0.11944c-0.09321,0.39766-0.24761,0.77456-0.41957,1.14253
		C29.401,8.7728,29.09646,9.353,28.68842,9.87302c-0.2033,0.25909-0.42997,0.49375-0.68661,0.70204
		c-0.17469,0.14179-0.38144,0.20626-0.58868,0.27162c-0.3126,0.09859-0.56205,0.27619-0.71314,0.56801
		c-0.11285,0.21796-0.27643,0.30165-0.5257,0.30133c-4.11315-0.00531-8.2263-0.00367-12.33946-0.0045
		c-0.08865-0.00002-0.18268,0.01936-0.26072-0.0454C13.57409,11.61321,13.57407,11.56029,13.57404,11.50738z"/>
	<path fill="#8A5B00" d="M26.72808,12.0436c-0.89845,0.00076-1.7969,0.00211-2.69535,0.00218
		c-3.41843,0.00026-6.83685,0.00012-10.25528-0.00004c-0.06908,0-0.13815-0.00217-0.20723-0.00334
		c0.00176-0.03031,0.00353-0.0606,0.0053-0.0909c0.06565-0.06022,0.14814-0.05115,0.22692-0.05161
		c0.31363-0.00181,0.62728-0.00074,0.94092-0.00074c3.73711-0.00003,7.47423-0.00006,11.21134,0.0002
		c0.10093,0.00001,0.20201-0.0043,0.3024,0.00494c0.05904,0.00072,0.11899,0.01167,0.17686-0.01003
		c0.20203-0.10888,0.34457-0.26669,0.44567-0.47498c0.12203-0.25141,0.36627-0.36109,0.61819-0.43344
		c0.23356-0.06708,0.44907-0.15593,0.62974-0.3202c0.03951-0.03592,0.09559-0.04532,0.13993-0.07451
		c0.12062-0.08962,0.22532-0.19497,0.31597-0.31421c0.13167-0.24815,0.34158-0.43932,0.49285-0.67451
		c0.41514-0.64543,0.76873-1.31969,1.02128-2.04459c0.038-0.10908,0.09385-0.21162,0.12401-0.32389
		c0.01195-0.04449,0.04123-0.07253,0.08777-0.08152c0.08091,0.01427,0.12662,0.06218,0.13857,0.14253
		c-0.11188,0.35721-0.25812,0.70137-0.40331,1.04617C29.84943,8.80466,29.59955,9.23951,29.3269,9.66
		c-0.29345,0.45256-0.61999,0.88242-1.05991,1.20983c-0.21773,0.16204-0.45598,0.28988-0.72225,0.35685
		c-0.26636,0.06699-0.45192,0.21571-0.54384,0.48081C26.95229,11.84768,26.87059,11.97289,26.72808,12.0436z"/>
	<path fill="#916400" d="M26.31315,11.95098c-4.2459,0.00017-8.49179,0.00034-12.73767,0.00052
		c-0.00019-0.04222-0.0004-0.08444-0.00061-0.12666c0.08327-0.06928,0.18331-0.04327,0.27645-0.0433
		c4.05951-0.00128,8.11902-0.0011,12.17853-0.0011c0.06385,0,0.12782-0.00261,0.19151,0.00034
		c0.23728,0.01097,0.40125-0.08267,0.50757-0.30216c0.13188-0.27226,0.34394-0.48018,0.64298-0.55444
		c0.60757-0.15086,1.00709-0.56098,1.36552-1.02979c0.60729-0.79429,1.02385-1.68655,1.36146-2.6191
		c0.02326-0.06425,0.03619-0.13281,0.07949-0.18877c0.08651-0.04881,0.11909-0.00684,0.12777,0.07514
		c-0.11226,0.21642-0.17191,0.45356-0.26927,0.67565c-0.17289,0.39437-0.33968,0.79032-0.56297,1.16261
		c-0.15138,0.2524-0.28872,0.51296-0.46069,0.75312c-0.09422,0.13157-0.17196,0.27635-0.30573,0.37598
		c-0.05885,0.04383-0.04227,0.12731-0.09526,0.17364c-0.11951,0.09288-0.22606,0.19861-0.31962,0.31725
		c-0.14392,0.06376-0.26479,0.1597-0.38203,0.26243c-0.07858,0.06885-0.1879,0.07167-0.28204,0.10294
		c-0.20062,0.06663-0.39815,0.13395-0.57368,0.25438c-0.06829,0.04685-0.11544,0.12873-0.1413,0.18665
		c-0.0964,0.21588-0.24318,0.37338-0.44084,0.4931C26.42142,11.9393,26.35635,11.89071,26.31315,11.95098z"/>
	<path fill="#A26D00" d="M13.57411,11.66612c4.22232-0.00012,8.44465-0.00131,12.66697,0.00315
		c0.19182,0.0002,0.3121-0.07186,0.39341-0.23103c0.1646-0.32224,0.41939-0.54305,0.77118-0.6314
		c0.55228-0.13871,0.91058-0.52443,1.23379-0.94544c0.63969-0.83325,1.08262-1.76882,1.40656-2.76235
		c0.00974-0.02988,0.02295-0.05865,0.03455-0.08794c0.04717-0.03171,0.07021-0.00873,0.08363,0.03627
		c-0.10691,0.43767-0.28847,0.84856-0.47687,1.25487c-0.29138,0.62839-0.62989,1.23101-1.07841,1.76568
		c-0.32745,0.39035-0.69247,0.72285-1.21272,0.85151c-0.30252,0.07482-0.52563,0.27375-0.65915,0.5562
		c-0.10855,0.22965-0.28732,0.31815-0.53543,0.31804c-4.14767-0.00174-8.29535-0.00123-12.44302-0.00188
		c-0.06232-0.00001-0.12877,0.01496-0.18397-0.03084C13.57447,11.72935,13.57429,11.69774,13.57411,11.66612z"/>
	<path fill="#422D1C" d="M2.7141,1.36455C2.44851,1.53631,2.33447,1.7837,2.33368,2.09376
		C2.33308,2.33162,2.27678,2.3883,2.0442,2.41584C1.89775,2.41066,1.77621,2.52608,1.62565,2.50097
		C1.38852,2.57454,1.24864,2.74943,1.13438,2.95562C1.08699,3.04115,1.07377,3.14495,0.99532,3.21373
		c-0.00104-0.25797-0.00159-0.51599-0.00355-0.774C0.99136,2.38625,0.99369,2.33447,1.02406,2.28796
		c0.03559-0.11875,0.15519-0.1458,0.23681-0.21439c0.0358-0.02381,0.07269-0.04579,0.11224-0.06309
		C1.406,1.99757,1.43987,1.9874,1.47341,1.97617C1.51417,1.9647,1.55607,1.95762,1.59637,1.94422
		c0.01368-0.00436,0.02764-0.00738,0.04176-0.00975c0.04212-0.00623,0.08508-0.00889,0.12324-0.0307
		c0.06277-0.03432,0.07252-0.09617,0.08767-0.15739C1.89268,1.56996,1.9399,1.39448,2.04176,1.23969
		c0.03462-0.04662,0.06526-0.09645,0.10789-0.13691c0.02063-0.01965,0.04379-0.03633,0.0657-0.05447
		c0.03379-0.03618,0.0713-0.06794,0.11391-0.09352c0.38501-0.00021,0.77001-0.00042,1.15502-0.00063
		c0.01809,0.04521-0.00213,0.07971-0.03142,0.11177C3.37318,1.13404,3.26938,1.10897,3.17905,1.13591
		C3.09917,1.15363,3.0261,1.1882,2.95481,1.22687C2.87561,1.27452,2.80214,1.33214,2.7141,1.36455z"/>
	<path fill="#9B6E00" d="M13.57464,11.76096c4.18638-0.00003,8.37277-0.0014,12.55915,0.0028
		c0.28775,0.00029,0.4831-0.0962,0.6038-0.36328c0.11155-0.24684,0.31578-0.42383,0.57494-0.48837
		c0.6822-0.16991,1.1184-0.63806,1.504-1.17222c0.57361-0.79462,0.97869-1.67305,1.28982-2.59682
		c0.01174-0.03486,0.02551-0.06905,0.03834-0.10356c0.03669-0.01561,0.05347,0.00383,0.06334,0.03544
		c-0.35208,1.08614-0.84061,2.10474-1.5546,3.00421c-0.34262,0.43162-0.75866,0.77237-1.31889,0.90888
		c-0.26806,0.06531-0.44877,0.26389-0.562,0.50367c-0.11806,0.25001-0.30336,0.33508-0.56978,0.33488
		c-4.2093-0.00315-8.41861-0.00196-12.62789-0.00176C13.5748,11.80354,13.57472,11.78225,13.57464,11.76096z"/>
	<path fill="#422D1C" d="M1.02505,10.93077c-0.04827-0.06529-0.03519-0.14113-0.03178-0.21284
		c0.01305-0.27478-0.03402-0.55143,0.02591-0.82464c0.06005,0.37363,0.29233,0.63515,0.58188,0.85065
		c0.12603,0.0938,0.29078,0.0886,0.44419,0.09522c0.24903,0.01074,0.31423,0.0693,0.31991,0.30829
		c0.00912,0.38371,0.17527,0.67476,0.51002,0.86932c-0.24279,0.04811-0.48542,0.04831-0.72786-0.00253
		c-0.15541-0.06837-0.21212-0.21406-0.2284-0.35627c-0.02744-0.23967-0.14482-0.34782-0.38148-0.37355
		C1.3837,11.2677,1.2477,11.1829,1.12279,11.09102C1.07005,11.05223,1.00431,11.01602,1.02505,10.93077z"/>
	<path fill="#422D1C" d="M3.54621,10.19538c-0.0018,0.23733-0.20273,0.43009-0.44198,0.42401
		c-0.23267-0.00591-0.42118-0.19945-0.41943-0.43062c0.0018-0.23739,0.20274-0.43019,0.44199-0.42408
		C3.35934,9.77063,3.54796,9.96432,3.54621,10.19538z"/>
	<path fill="#AC7300" d="M1.62565,2.50097c0.13189-0.06538,0.27069-0.09727,0.41856-0.08515
		C1.84429,2.42815,1.88911,2.57607,1.88584,2.69736C1.7944,2.63805,1.7336,2.53874,1.62565,2.50097z"/>
	<path fill="#805500" d="M29.75881,6.36756c-0.22092-0.10204-0.4661-0.13011-0.68866-0.23455
		c-0.1951-0.09155-0.36923-0.20127-0.5261-0.34712c-0.48767-0.45341-0.96663-0.91992-1.58731-1.19948
		c-0.51957-0.23402-1.07527-0.35441-1.62456-0.49162c-0.50257-0.12554-1.01402-0.20867-1.53035-0.25679
		c-0.76378-0.07119-1.52957-0.01789-2.29434-0.03065c-0.37438-0.00624-0.64471-0.16396-0.82345-0.49132
		c-0.14183-0.25977-0.37711-0.38806-0.66628-0.4294c-0.43891-0.06275-0.88022-0.02522-1.32034-0.02981
		c-0.61169-0.00639-1.22351-0.0006-1.83527-0.00002c-0.03267,0.03578-0.07685,0.03681-0.12045,0.03973
		c-0.0421,0.00072-0.08386-0.00245-0.12463-0.01364c-0.05983-0.02057-0.11894-0.04433-0.17594-0.07115
		c-0.18352-0.08636-0.35444-0.09435-0.50548,0.06438c-0.01611,0.00709-0.03271,0.01141-0.05012,0.01372
		c-0.0466,0.00259-0.09098-0.00155-0.12479-0.03892c-0.0497-0.09989-0.02433-0.20691-0.02751-0.3108
		c-0.00322-0.10512-0.00054-0.20967-0.03261-0.31216c-0.04862-0.15536-0.12244-0.21479-0.28634-0.21603
		c-0.24918-0.00189-0.49839-0.00209-0.74756,0.00009c-0.16334,0.00143-0.23518,0.0613-0.28448,0.21835
		c-0.03552,0.11316-0.02806,0.22846-0.03187,0.34382c-0.00308,0.09338,0.01997,0.19008-0.02916,0.27899
		c-0.0436,0.04321-0.09928,0.04402-0.15525,0.04377c-0.035-0.00059-0.06955-0.00476-0.10263-0.0167
		c-0.15501-0.1195-0.30986-0.07316-0.46467,0.00146c-0.03276,0.01003-0.06626,0.01443-0.10045,0.01483
		c-0.05313-0.00083-0.1074,0.00242-0.14923-0.03983c-0.33508-0.00055-0.67017-0.0005-1.00524-0.00185
		c-0.28221-0.00114-0.51066-0.11075-0.68846-0.33042c-0.08914-0.11013-0.1849-0.21571-0.28481-0.31636
		c-0.13935-0.1404-0.30529-0.21141-0.51174-0.21099C8.9918,2.00092,7.12486,1.99938,5.25794,1.99928
		C4.82152,1.99926,4.52117,1.78343,4.37517,1.36569c-0.04569-0.03983-0.0669-0.09065-0.06897-0.1502
		C4.30399,1.1838,4.30431,1.15202,4.30491,1.12023c-0.00024-0.02375,0.00127-0.0474,0.00453-0.07098
		c0.0049-0.04266,0.02592-0.07421,0.06555-0.09271C4.45476,0.95549,4.53454,0.9535,4.61431,0.9535
		c7.46415-0.00014,14.9283,0.00212,22.39245-0.00494c0.52734-0.0005,0.96102,0.1892,1.35446,0.50295
		c0.69941,0.55774,1.19112,1.28206,1.62607,2.04719c0.29256,0.51465,0.5343,1.05366,0.73556,1.61031
		c0.01843,0.05097,0.03303,0.09965,0.02719,0.15345c-0.02452,0.11277-0.05552,0.22397-0.08074,0.33662
		c-0.0991,0.44258-0.41629,0.66146-0.82391,0.78595C29.81457,6.39445,29.7827,6.3975,29.75881,6.36756z"/>
	<path fill="#805200" d="M26.72808,12.0436c0.14068-0.15126,0.22942-0.33159,0.31487-0.5176
		c0.08435-0.18361,0.25808-0.28128,0.44632-0.32652c0.51826-0.12456,0.91229-0.43524,1.24846-0.82101
		c0.46238-0.53059,0.82692-1.12812,1.13513-1.75799c0.19816-0.40495,0.35657-0.8273,0.51804-1.24785
		c0.01108-0.02887,0.01113-0.0633,0.04344-0.08083c0.04172-0.01225,0.07472,0.00803,0.09464,0.03811
		c0.10654,0.16087,0.20404,0.32551,0.16043,0.53144c-0.06951,0.30457-0.19868,0.58823-0.33019,0.86831
		c-0.30049,0.63992-0.62872,1.26541-1.05998,1.83165c-0.37966,0.4985-0.79527,0.96037-1.35354,1.26877
		c-0.2374,0.13115-0.49367,0.21679-0.7714,0.21598C27.02555,12.04562,26.87681,12.04444,26.72808,12.0436z"/>
	<path fill="#422D1C" d="M30.6894,7.86135c-0.0437-0.20809-0.07774-0.42044-0.25508-0.56956
		c-0.03433-0.05151-0.07414-0.0977-0.12817-0.13012c-0.02366-0.03902-0.0537-0.07091-0.09811-0.08676
		c-0.02112-0.01178-0.04223-0.0236-0.06335-0.03541c-0.01484-0.02397-0.0363-0.03325-0.06411-0.02841
		c-0.0555-0.04799-0.12026-0.07748-0.19136-0.09427c-0.12479-0.04285-0.25177-0.07767-0.38514-0.06844
		c-0.14306,0.0099-0.19998-0.07479-0.21789-0.19447c-0.01656-0.11066,0.08141-0.23202,0.19216-0.24889
		c0.09323-0.0142,0.18697-0.02507,0.28047-0.03744c0.49353-0.12542,0.83834-0.39115,0.90257-0.92955
		c0.00752-0.06304,0.01299-0.14033,0.08866-0.17556c0.10836,0.23222,0.18744,0.47211,0.19367,0.73101
		c0.03598,0.13101-0.05191,0.21745-0.1187,0.30782c-0.05002,0.06768-0.11632,0.123-0.17812,0.18104
		c-0.00767,0.00718-0.01591,0.01381-0.02452,0.01993c-0.2039,0.14495-0.2039,0.14495-0.0095,0.29479
		c0.1181,0.10137,0.25601,0.18867,0.26705,0.36676C30.87538,7.41221,30.7847,7.6374,30.6894,7.86135z"/>
	<path fill="#BD9C00" d="M1.02505,10.93077c0.17088,0.22928,0.42489,0.30604,0.68781,0.35158
		c0.13043,0.02259,0.193,0.07333,0.20579,0.20487c0.01925,0.19801,0.09405,0.37629,0.22865,0.527
		c-0.04571,0.05508-0.10869,0.03042-0.16368,0.0309c-0.29188,0.00255-0.5838,0.00099-0.87571,0.0013
		c-0.06026,0.00006-0.11736,0.00469-0.11659-0.08466c0.0028-0.32657,0.00143-0.65317,0.00373-0.97975
		C0.99517,10.96487,1.01461,10.94785,1.02505,10.93077z"/>
	<path fill="#805200" d="M1.2797,2.09457C1.19448,2.15901,1.10927,2.22345,1.02406,2.28793
		c-0.00999-0.01784-0.0286-0.03568-0.0287-0.05361C0.99313,1.83821,0.99363,1.44209,0.99171,1.04598
		C0.99137,0.97754,1.02176,0.95102,1.08803,0.95329C1.16245,0.95584,1.23698,0.95511,1.31147,0.9558
		c0.00837,0.01324,0.02179,0.02636,0.01936,0.04207C1.27458,1.36167,1.31558,1.72989,1.2797,2.09457z"/>
	<path fill="#805200" d="M30.6217,6.46657c0.12901-0.14317,0.28001-0.27159,0.32202-0.47309
		c0.10936,0.06945,0.07391,0.19169,0.08701,0.28504c0.0396,0.28232-0.0332,0.55834-0.09785,0.83215
		c-0.00488,0.0207-0.03472,0.0356-0.05295,0.05318c-0.06623-0.14006-0.17697-0.24372-0.2881-0.34706
		C30.56591,6.69704,30.61437,6.58354,30.6217,6.46657z"/>
	<path fill="#916400" d="M1.60199,1.97036c-0.03642,0.03817-0.08477,0.02645-0.12935,0.0305
		C1.41848,2.01141,1.40752,1.96859,1.4059,1.93545C1.39779,1.7695,1.36659,1.59969,1.42755,1.43978
		C1.4564,1.3641,1.43248,1.28447,1.47241,1.21192C1.53837,1.0921,1.63155,1.00671,1.75873,0.9567
		c0.1902-0.00065,0.3804-0.00129,0.57056-0.00192C2.29784,0.99531,2.26643,1.03583,2.23501,1.07635
		C2.14546,1.08137,2.05626,1.09015,1.9665,1.09405C1.73275,1.10421,1.62368,1.21606,1.61157,1.45029
		C1.60261,1.62351,1.62097,1.79728,1.60199,1.97036z"/>
	<path fill="#855700" d="M1.2797,2.09457c-0.00897-0.0125-0.0257-0.02496-0.02577-0.0375
		C1.25192,1.68891,1.21257,1.3187,1.31147,0.95578c0.0743,0.00006,0.14859,0.0001,0.22289,0.00013
		C1.46531,1.1556,1.3935,1.3541,1.40602,1.5713c0.00599,0.10386,0.00163,0.20836,0.00074,0.31256
		C1.40632,1.93536,1.41413,1.98903,1.37591,2.03303C1.34384,2.05354,1.31177,2.07406,1.2797,2.09457z"/>
	<path fill="#8B5A00" d="M1.37591,2.03303C1.3757,1.82775,1.38175,1.62222,1.37337,1.41727
		C1.36611,1.23954,1.41154,1.08593,1.53437,0.95589C1.60915,0.95616,1.68394,0.9564,1.75873,0.95668
		C1.73933,1.05401,1.61978,1.0416,1.58007,1.1197C1.437,1.40102,1.39515,1.69351,1.47263,2.00085
		C1.44799,2.03407,1.41087,2.03038,1.37591,2.03303z"/>
	<path fill="#916400" d="M4.37499,0.95655C4.36484,0.98727,4.35469,1.018,4.34453,1.04872
		C4.30682,1.08299,4.26048,1.0913,4.21173,1.09183C3.99964,1.09414,3.78755,1.09465,3.57548,1.09146
		C3.52756,1.09074,3.47931,1.08718,3.44529,1.04572C3.45828,1.0152,3.47127,0.98467,3.48427,0.95415
		C3.78118,0.95496,4.07808,0.95575,4.37499,0.95655z"/>
	<path fill="#B47504" d="M15.77638,2.85345c0.04252,0.00114,0.08503,0.00229,0.12755,0.00343
		c0.06011,0.06709,0.04285,0.14964,0.04294,0.22714c0.00107,0.96588,0.00065,1.93176,0.00073,2.89764
		c0,0.06333-0.00407,0.12707,0.00345,0.18989c0.02527,0.21098,0.10766,0.28428,0.32005,0.28451
		c0.63279,0.00068,1.26558,0.00004,1.89838,0.0006c0.08027,0.00007,0.15843-0.00676,0.23584-0.02998
		c0.08884-0.02666,0.1421-0.0821,0.17121-0.1695c0.03609-0.10834,0.03533-0.21916,0.02767-0.32904
		c-0.07021-1.00701-0.46786-1.86075-1.22318-2.54248c-0.16894-0.15248-0.36273-0.27439-0.55461-0.39712
		c-0.04973-0.03181-0.10326-0.05886-0.092-0.1317c0.04258-0.00003,0.08516-0.00006,0.12775-0.00008
		c0.03658,0.07782,0.1161,0.10658,0.18063,0.15002c0.87347,0.58799,1.40476,1.39347,1.57827,2.42951
		c0.03385,0.20215,0.06347,0.40359,0.06167,0.60951c-0.00333,0.38134-0.01901,0.4067-0.37405,0.51333
		c0.0353,0.06159,0.12029,0.00981,0.14958,0.06742c-0.06094,0.06035-0.13931,0.04278-0.21166,0.043
		c-0.53706,0.00164-1.07415,0.00354-1.6112,0.00008c-0.49859-0.00321-0.95492,0.1368-1.36873,0.40439
		c-0.16107,0.10415-0.28899,0.10546-0.45035,0.00049c-0.41329-0.26887-0.86991-0.40787-1.36839-0.40483
		c-0.53705,0.00327-1.07413,0.00151-1.6112-0.00012c-0.07236-0.00022-0.15072,0.01734-0.21166-0.043
		c0.03304-0.05419,0.10379-0.01109,0.14173-0.0537c-0.00312-0.00955-0.00438-0.02574-0.00938-0.02698
		c-0.33115-0.08165-0.35346-0.11349-0.35644-0.46152c-0.00413-0.48201,0.09715-0.94395,0.26129-1.39442
		c0.01773-0.04865,0.03525-0.10049,0.09049-0.12346c0.04633,0.05456,0.02206,0.10998-0.00064,0.16329
		c-0.16952,0.39806-0.24424,0.8193-0.26559,1.24514c-0.01726,0.34441,0.05182,0.48124,0.43585,0.4808
		c0.61658-0.0007,1.23316,0.00031,1.84974-0.00041c0.27573-0.00032,0.35871-0.0807,0.36168-0.35983
		c0.00398-0.37455,0.00261-0.74916,0.00081-1.12374c-0.00326-0.68048,0.00986-1.36103-0.00741-2.04145
		c-0.0007-0.02756,0.0036-0.05205,0.02051-0.07396c0.05308-0.00095,0.10616-0.00191,0.15924-0.00286
		c0.02509-0.0184,0.05253-0.02394,0.08268-0.01501c0.0183,0.00868,0.03167,0.02219,0.04035,0.04035
		c0.04538,0.26719,0.02881,0.53726,0.01439,0.80429c-0.0114,0.21126-0.00565,0.41929,0.00047,0.62993
		c0.01101,0.37881,0.01131,0.75809-0.01407,1.13815c-0.02097,0.3139,0.02762,0.63078,0.02874,0.94699
		c0.00022,0.0609,0.03038,0.10994,0.07552,0.15152c0.11907,0.10968,0.26074,0.18178,0.41021,0.23804
		c0.08284,0.03118,0.16595,0.01098,0.24755-0.02276c0.38616-0.15966,0.46982-0.27788,0.47043-0.69126
		c0.00147-0.98647,0.00007-1.97295,0.00109-2.95943c0.00009-0.08344-0.01249-0.16966,0.03331-0.24759
		C15.72042,2.84215,15.7461,2.83421,15.77638,2.85345z"/>
	<path fill="#B57708" d="M11.62506,6.62654c0.60558-0.00001,1.21118,0.00356,1.81672-0.0011
		c0.52534-0.00405,1.00194,0.14861,1.43553,0.43313c0.12095,0.07937,0.20774,0.07936,0.32869,0
		c0.43359-0.28452,0.91018-0.43718,1.43553-0.43313c0.60554,0.00467,1.21115,0.0011,1.81672,0.0011
		c0.13004,0.04747,0.19871,0.15128,0.20115,0.27736c0.00618,0.3194,0.02375,0.63948-0.00957,0.95868
		c-0.02799,0.15925-0.04311,0.32105-0.09579,0.4754c-0.03754,0.02279-0.03081,0.06024-0.03193,0.09508
		c-0.04643,0.09338-0.06042,0.20107-0.12772,0.28524v0.00001c-0.02649,0.01358-0.01356,0.10714-0.08042,0.03901
		c-0.0245-0.06761,0.01442-0.12169,0.03841-0.17918c0.21993-0.527,0.26284-1.07504,0.19724-1.63601
		c-0.01388-0.11868-0.07671-0.19201-0.19756-0.21277c-0.01857-0.00316-0.03637-0.00817-0.05402-0.01439
		c-0.318-0.02749-0.63638-0.00942-0.95441-0.01091c-0.28636-0.00133-0.57297-0.01186-0.85891,0.00745
		c-0.29065,0.03164-0.57409,0.09146-0.84414,0.20824c-0.16155,0.06986-0.31363,0.15275-0.4435,0.27248
		C15.08422,7.29836,14.97,7.26358,14.85571,7.19512c-0.0578-0.03462-0.11477-0.07048-0.16389-0.11717
		c-0.28496-0.19773-0.60486-0.30413-0.94665-0.34282c-0.60378-0.06834-1.2103-0.02452-1.81556-0.03143
		c-0.2703-0.00309-0.36426,0.08285-0.39228,0.34361c-0.07052,0.65648,0.02754,1.28039,0.37962,1.85195
		c0.30744,0.45461,0.71487,0.78908,1.22401,1.00105c0.2472,0.10289,0.50624,0.15618,0.77234,0.17064
		c0.11853,0.00644,0.20127,0.04448,0.24961,0.15748c0.03542,0.08282,0.09878,0.14875,0.16366,0.21198
		c0.17429,0.16984,0.34117,0.34732,0.5206,0.51176c0.14495,0.13285,0.2523,0.14154,0.37357,0.01418
		c0.25033-0.2629,0.55643-0.47578,0.73674-0.80245c0.03644-0.06603,0.1025-0.08774,0.1758-0.08986
		c0.06356-0.00184,0.12766,0.00068,0.18909-0.02065c0.31252-0.05136,0.61829-0.1245,0.89996-0.27512
		c0.0552-0.02952,0.11555-0.05239,0.1517-0.10843c0.01528-0.01884,0.03323-0.03458,0.05409-0.04708
		c0.02197-0.01094,0.04534-0.01564,0.06983-0.01516c0.02404,0.00191,0.04578,0.00947,0.06334,0.02658
		c-0.00084,0.12398-0.1356,0.11945-0.18867,0.19338c-0.29651,0.14125-0.6004,0.26034-0.92964,0.30201
		c-0.0576,0.00729-0.11576,0.01026-0.17369,0.01497c-0.12548,0.01019-0.23637,0.02982-0.28617,0.17641
		c-0.03169,0.09328-0.11446,0.16246-0.18723,0.23288c-0.1519,0.147-0.29839,0.29953-0.45113,0.44565
		c-0.22928,0.21934-0.41298,0.21362-0.64048-0.01684c-0.15992-0.162-0.31773-0.32605-0.47652-0.48916
		c-0.01109-0.01139-0.02848-0.0206-0.03283-0.03404c-0.1099-0.33961-0.4082-0.29703-0.67642-0.35333
		c-0.75199-0.15783-1.35251-0.54117-1.73973-1.22448c-0.18698-0.32996-0.3089-0.67499-0.3453-1.05074
		c-0.03212-0.31475-0.01469-0.63005-0.00887-0.94511C11.42705,6.75369,11.50911,6.67558,11.62506,6.62654z"/>
	<path fill="#B7790C" d="M14.14769,2.85631c0.02147,0.07612,0.03312,0.15253,0.03298,0.23276
		c-0.00177,0.99666-0.0017,1.99332-0.00012,2.98998c0.00013,0.08041-0.01,0.15699-0.03703,0.23204
		c-0.04408,0.12239-0.12733,0.18914-0.2625,0.189c-0.68536-0.00074-1.37102,0.01143-2.05595-0.00556
		c-0.32475-0.00806-0.39853-0.14273-0.38425-0.52427c0.01327-0.35448,0.07705-0.7076,0.18766-1.04879
		c0.03868-0.1193,0.11471-0.2257,0.12425-0.35501c0.17596-0.37309,0.39715-0.71884,0.68909-1.01084
		c0.23353-0.23357,0.48318-0.45381,0.78272-0.60716c0.04614-0.02362,0.10107-0.0371,0.12442-0.09178
		c0.05318-0.00015,0.10636-0.00031,0.15955-0.00047c-0.02185,0.11164-0.12947,0.12913-0.20588,0.17208
		c-0.3832,0.2154-0.69565,0.50982-0.97903,0.83853c-0.02548,0.03363-0.04895,0.06856-0.06634,0.10727
		C12.24714,3.993,12.23359,4.00916,12.21761,4.0234c-0.0674,0.04805-0.10138,0.11575-0.11604,0.19506
		c-0.01285,0.04072-0.03582,0.07492-0.06577,0.10499c-0.27821,0.44298-0.42052,0.9295-0.45954,1.44593
		c-0.00971,0.12851-0.05246,0.25494-0.0091,0.39061c0.04273,0.13367,0.11738,0.20631,0.25504,0.22087
		c0.04765,0.00504,0.09526,0.008,0.14309,0.008c0.60028-0.00007,1.20056,0.00218,1.80083-0.00114
		c0.20348-0.00113,0.2913-0.06678,0.2941-0.2684c0.01408-1.01743,0.01215-2.035,0.00173-3.05252
		c-0.00064-0.06291-0.0301-0.12333-0.02131-0.18778c0.004-0.0086,0.00813-0.01716,0.01227-0.02572
		C14.08449,2.8543,14.11609,2.85531,14.14769,2.85631z"/>
	<path fill="#422D1C" d="M28.2926,6.60663c0.00224,0.23739-0.19538,0.43366-0.43454,0.43161
		c-0.23351-0.00201-0.42469-0.19162-0.42691-0.42341c-0.00228-0.23746,0.19527-0.43369,0.43456-0.43166
		C28.09918,6.18515,28.29041,6.37485,28.2926,6.60663z"/>
	<path fill="#422D1C" d="M3.54625,3.09523C3.54487,3.33311,3.3448,3.52582,3.10508,3.52018
		C2.87212,3.5147,2.68344,3.32173,2.68475,3.09032c0.00135-0.23781,0.20151-0.43063,0.44119-0.425
		C3.35863,2.67078,3.5476,2.86407,3.54625,3.09523z"/>
	<path fill="#AC7300" d="M4.34379,1.20733C4.35426,1.26011,4.36473,1.3129,4.37518,1.36568
		c-0.5537-0.00037-1.10738-0.00075-1.66107-0.00113c0.06467-0.06668,0.13358-0.12747,0.22393-0.15838
		C3.04304,1.16564,3.1523,1.15826,3.2639,1.15903c0.29528,0.00204,0.59058,0.00043,0.88587,0.00086
		C4.21822,1.15999,4.28817,1.15506,4.34379,1.20733z"/>
	<path fill="#B47504" d="M17.3726,9.82757c0.03569-0.09135,0.15591-0.0988,0.19159-0.19016
		c0.00355-0.00652,0.00709-0.01303,0.0105-0.01965c0.24241-0.18216,0.45263-0.39443,0.61799-0.64906
		c0.02854-0.04394,0.05763-0.08952,0.11665-0.09925c0.00706,0.0024,0.01414,0.00485,0.0212,0.00731
		C18.11324,9.29496,17.79392,9.61189,17.3726,9.82757z"/>
	<path fill="#B47504" d="M18.64984,7.86258c0-0.25133-0.00614-0.50286,0.00199-0.75394
		c0.00623-0.19236-0.0285-0.36105-0.19357-0.4821c0.16057,0.0021,0.21213,0.12327,0.21677,0.24162
		c0.01249,0.31844,0.00294,0.63774,0.00053,0.95669C18.67545,7.83749,18.65878,7.85001,18.64984,7.86258z"/>
	<path fill="#B47504" d="M11.62506,6.62654c-0.1762,0.11548-0.19793,0.28931-0.19308,0.47923
		c0.00617,0.24156,0.0015,0.4834,0.0015,0.72511c-0.04457-0.03575-0.0313-0.08599-0.03146-0.13157
		c-0.00095-0.26729-0.00333-0.53462,0.00072-0.80185C11.40491,6.75358,11.45992,6.64318,11.62506,6.62654z"/>
	<path fill="#B47504" d="M18.55404,8.33798c0.01925-0.16098,0.04391-0.32089,0.09579-0.4754
		C18.65106,8.02763,18.63871,8.18998,18.55404,8.33798z"/>
	<path fill="#B47504" d="M18.39439,8.7183c0.03589-0.09803,0.05543-0.20327,0.12772-0.28524
		C18.5058,8.53973,18.49422,8.64848,18.39439,8.7183z"/>
	<path fill="#B47504" d="M18.33037,8.78157c0.02134-0.02108,0.04268-0.04217,0.06402-0.06326
		c0.00195,0.06205-0.01311,0.11733-0.06386,0.15845V8.87676c-0.02625-0.02239-0.02717-0.0496-0.01536-0.07927
		C18.3202,8.79217,18.32529,8.78687,18.33037,8.78157z"/>
	<path fill="#8D5000" d="M28.29263,10.6199c0.06826-0.14374,0.17481-0.24948,0.31962-0.31725
		C28.51904,10.42163,28.41248,10.52737,28.29263,10.6199z"/>
	<path fill="#8D5000" d="M26.31315,11.95098c0.00954-0.07853,0.03128-0.08284,0.15959-0.03158
		C26.42805,11.9723,26.36691,11.94327,26.31315,11.95098z"/>
	<path fill="#AB7300" d="M2.07703,1.23778C1.98547,1.41926,1.91268,1.60656,1.87814,1.80832
		C1.86785,1.8684,1.86556,1.95286,1.76202,1.93908c-0.05964,0.00404-0.07098-0.0428-0.07417-0.08199
		c-0.01313-0.1613-0.0251-0.32453,0.00711-0.48373c0.02944-0.1455,0.19296-0.23817,0.32629-0.19889
		C2.05163,1.18342,2.08164,1.19661,2.07703,1.23778z"/>
	<path fill="#A36C00" d="M4.34379,1.20733C3.87522,1.20695,3.40664,1.20657,2.93806,1.20618
		c0.06443-0.05458,0.13634-0.09191,0.223-0.09521c0.36913-0.04961,0.74009-0.02715,1.11045-0.02762
		C4.29899,1.08333,4.32268,1.09555,4.3441,1.11205C4.344,1.14381,4.3439,1.17557,4.34379,1.20733z"/>
	<path fill="#A26C00" d="M2.07703,1.23778c-0.21029-0.07393-0.3553,0.01387-0.3476,0.22519
		C1.73521,1.62151,1.6835,1.78527,1.762,1.93905C1.72414,1.97591,1.67629,1.96547,1.63082,1.96636
		c-0.05669-0.22652-0.05857-0.45493,0.01465-0.6755C1.70626,1.10779,1.9615,1.03188,2.18192,1.11433
		C2.14696,1.15548,2.11199,1.19663,2.07703,1.23778z"/>
	<path fill="#9A6D00" d="M2.18192,1.11433c-0.03167-0.0008-0.06334-0.00255-0.095-0.00224
		C1.7642,1.11519,1.6359,1.23986,1.63107,1.55756C1.629,1.69381,1.63079,1.83011,1.63082,1.96637
		C1.62142,1.96923,1.61179,1.97055,1.60197,1.97034c-0.05619-0.25165-0.06875-0.5025,0.02327-0.74907
		c0.03253-0.08716,0.11037-0.1217,0.19465-0.14491C1.95843,1.03821,2.09667,1.0283,2.23503,1.07637
		C2.21731,1.08901,2.19962,1.10167,2.18192,1.11433z"/>
	<path fill="#9B6E00" d="M4.3441,1.11205c-0.39433-0.00035-0.78867-0.0007-1.18302-0.00106
		c0.08668-0.05638,0.1963-0.01437,0.28425-0.06524c0.29971,0.00098,0.59946,0.00198,0.89921,0.00298
		C4.34439,1.06983,4.34425,1.09094,4.3441,1.11205z"/>
	<path fill="#B6780B" d="M16.7344,2.85684c0.08146,0.10827,0.20979,0.15411,0.31653,0.22715
		c0.83597,0.57197,1.33647,1.35862,1.53263,2.34061c0.04519,0.22625,0.0748,0.4563,0.06568,0.68841
		c-0.01001,0.25456-0.12831,0.3826-0.38259,0.38467c-0.70224,0.00572-1.40456,0.00142-2.10685,0.00268
		c-0.109,0.0002-0.16166-0.06837-0.20251-0.15149c-0.0425-0.08648-0.05487-0.17886-0.0547-0.27603
		c0.00194-1.072,0.00128-2.144,0.00132-3.21598c0.01062-0.00106,0.02124-0.00214,0.03185-0.00321
		c0.02635-0.01633,0.05169-0.01904,0.07507,0.00538c0.04159,0.10387,0.00043,0.20856,0.00077,0.31278
		C16.0147,4.1218,16.01335,5.0718,16.01358,6.0218c0.00002,0.06853-0.00366,0.13796,0.022,0.20345
		c0.03948,0.1008,0.10134,0.16524,0.22344,0.16533c0.64871,0.0005,1.29743,0.00314,1.9461-0.002
		c0.22822-0.00181,0.3343-0.11029,0.33353-0.3527C18.5376,5.70843,18.48509,5.3862,18.3913,5.07132
		c-0.1885-0.63283-0.53536-1.1659-1.0253-1.6097c-0.17312-0.15681-0.35701-0.29817-0.56133-0.4134
		c-0.08614-0.04858-0.18535-0.08228-0.23687-0.17741c0.00498-0.02306,0.01789-0.02888,0.03867-0.0175
		C16.64912,2.85449,16.69176,2.85566,16.7344,2.85684z"/>
	<path fill="#865D0C" d="M15.77638,2.85345c-0.02171,0.00108-0.04341,0.00217-0.06512,0.00325
		c-0.00618-0.00658-0.01236-0.01316-0.01866-0.01967c-0.05698-0.16787-0.00627-0.34513-0.04828-0.51573
		c-0.04112-0.16695-0.10704-0.23685-0.27978-0.2425c-0.20658-0.00676-0.41354-0.00593-0.62016-0.00047
		c-0.19755,0.00522-0.27261,0.07547-0.30955,0.26646c-0.0202,0.10446-0.01603,0.20949-0.01825,0.31458
		c-0.00143,0.06782,0.00625,0.13827-0.04628,0.19431c-0.02112-0.00007-0.04224-0.00013-0.06336-0.00022
		c0.01122-0.21439-0.02622-0.43103,0.03298-0.64326c0.04588-0.16451,0.14581-0.24218,0.31983-0.24252
		c0.22278-0.00044,0.44556-0.00017,0.66834-0.00014c0.31926,0.00005,0.44219,0.12095,0.44753,0.44367
		C15.77805,2.55859,15.77625,2.70604,15.77638,2.85345z"/>
	<path fill="#BD8521" d="M12.29514,3.8691c0.13558-0.23153,0.34815-0.39162,0.54196-0.56783
		c0.20002-0.18185,0.45189-0.29018,0.67143-0.44507c0.03156-0.00087,0.06313-0.00175,0.09469-0.00263
		c0.02082-0.01577,0.04301-0.01536,0.06598-0.00553c0.01211,0.08095-0.05919,0.09378-0.10624,0.11545
		c-0.32122,0.14797-0.59813,0.35893-0.86856,0.5817c-0.11534,0.09501-0.18043,0.23604-0.30976,0.31597
		C12.35577,3.87413,12.32673,3.88649,12.29514,3.8691z"/>
	<path fill="#8B6315" d="M16.60647,2.85331c-0.01084,0.00128-0.02168,0.00256-0.03252,0.00383
		c-0.04361,0.04335-0.1025,0.03804-0.15639,0.04878c-0.06111-0.00086-0.12144-0.01252-0.18256-0.01386
		c-0.05039-0.00574-0.10026-0.0191-0.15181-0.01044c-0.0308,0.00271-0.05908-0.00305-0.08256-0.02449
		c-0.02162-0.00115-0.04325-0.0023-0.06487-0.00347C16.02642,2.7131,16.1465,2.6641,16.30968,2.7259
		C16.41069,2.76415,16.51934,2.78354,16.60647,2.85331z"/>
	<path fill="#9C752B" d="M13.66919,2.85717c-0.02198-0.00119-0.04397-0.00238-0.06596-0.00358
		c0.20135-0.12618,0.3109-0.12624,0.44965-0.00028c0.00001-0.00002-0.00162,0.0036-0.00162,0.0036
		c-0.01692,0.01687-0.03812,0.02184-0.06114,0.02207c-0.05334-0.00293-0.10515,0.01051-0.15792,0.01528
		C13.77485,2.89477,13.71581,2.90252,13.66919,2.85717z"/>
	<path fill="#855701" d="M30.6217,6.46657c0.06954,0.12342,0.00011,0.23516-0.02987,0.35022
		c-0.26718-0.17716-0.26718-0.17717,0.01564-0.34368C30.61194,6.47049,30.61694,6.46874,30.6217,6.46657z"/>
	<path fill="#BF8828" d="M15.71126,2.85671c0.00022,1.1025-0.00474,2.20504,0.00318,3.30748
		c0.00323,0.44908-0.31719,0.6444-0.69839,0.67778c-0.32369,0.02834-0.62217-0.28045-0.61064-0.59863
		c0.00958-0.26424-0.05893-0.52688-0.02875-0.7869c0.0428-0.3688,0.04-0.73816,0.01919-1.10409
		c-0.02844-0.50009,0.03626-0.99746,0.00735-1.49601c0.08311-0.17284,0.0306-0.35798,0.0508-0.5364
		c0.00682-0.0603-0.02627-0.15143,0.08749-0.15625c0.05544,0.08098,0.03847,0.17337,0.03855,0.26164
		c0.00116,1.25146,0.00069,2.50293,0.00083,3.75439c0.00003,0.26616,0.17167,0.47577,0.43571,0.49739
		c0.16033,0.01312,0.28166-0.11039,0.41533-0.18188c0.09081-0.04857,0.0696-0.14728,0.06969-0.22937
		c0.0014-1.27786,0.00052-2.55573,0.00158-3.8336c0.00007-0.0886-0.01495-0.18042,0.03442-0.26317
		c0.10919-0.02467,0.0835,0.06736,0.08901,0.1141c0.01406,0.1192,0.0037,0.24008,0.00641,0.36024
		c0.00178,0.07915,0.00535,0.15811,0.07872,0.21119L15.71126,2.85671z"/>
	<path fill="#8F691E" d="M15.71173,2.85463C15.6144,2.86817,15.58855,2.82448,15.584,2.73028
		c-0.00917-0.19,0.04352-0.38381-0.03092-0.57009c-0.03329,0.02859-0.07302,0.04284-0.11596,0.04407
		c-0.26336,0.00759-0.52676,0.00741-0.79012,0.0001c-0.04288-0.00119-0.08286-0.01477-0.11598-0.04381
		c-0.07537,0.18652-0.01813,0.3808-0.03266,0.57097c-0.00512,0.06705-0.00048,0.13004-0.09516,0.1248
		c-0.01096-0.00086-0.02192-0.00173-0.03289-0.00262c0.01243-0.18842-0.01929-0.37795,0.02916-0.56609
		c0.03885-0.15086,0.13928-0.25293,0.29443-0.25556c0.23908-0.00406,0.47829-0.00277,0.71742-0.00043
		c0.15007,0.00146,0.22946,0.09766,0.26707,0.22632C15.73544,2.45309,15.70704,2.65527,15.71173,2.85463z"/>
	<path fill="#C18D2F" d="M14.72271,7.06978c0.06824,0.03948,0.13672,0.07855,0.20466,0.11854
		c0.08652,0.05093,0.16844,0.05779,0.24248-0.02233c0.32632-0.20034,0.6643-0.373,1.05095-0.42585
		c0.14603-0.01996,0.29034-0.05192,0.43942-0.05078c0.48856,0.00375,0.97716-0.00303,1.46573,0.00348
		c0.06454,0.01742,0.13313,0.011,0.19686,0.03021c0.05014,0.01512,0.11844,0.01843,0.10011,0.1021
		c-0.07076,0.05094-0.15298,0.03714-0.2315,0.03736c-0.48403,0.00136-0.96807,0.00265-1.45209,0.00016
		c-0.5666-0.00292-1.0825,0.147-1.5306,0.49786c-0.11497,0.09002-0.21057,0.0896-0.3267-0.00018
		c-0.4589-0.35477-0.98606-0.50302-1.56357-0.49802c-0.47867,0.00415-0.95742,0.00166-1.43612,0.00008
		c-0.07824-0.00026-0.16109,0.01411-0.22935-0.04303c0.00681-0.12448,0.12221-0.12325,0.18861-0.12187
		c0.7493,0.01559,1.50475-0.08712,2.24582,0.09183C14.3134,6.84391,14.52823,6.93771,14.72271,7.06978z"/>
	<path fill="#BB811A" d="M14.72271,7.06978c-0.13577-0.05699-0.271-0.11529-0.40743-0.17069
		c-0.2911-0.11822-0.59633-0.17251-0.90889-0.17593c-0.49251-0.00539-0.98513-0.00188-1.4777-0.00109
		c-0.10043,0.00016-0.20208,0.00141-0.27201,0.09227c-0.00324,0.01699-0.00932,0.03291-0.01805,0.04784
		c-0.11721,0.21808-0.06869,0.45459-0.06113,0.68124c0.01243,0.37287,0.07083,0.74082,0.24763,1.0796
		c0.04107,0.0787,0.09411,0.1529,0.10832,0.24377c0.00342,0.02749-0.00056,0.05291-0.02113,0.07357
		c-0.21144-0.26062-0.32228-0.56857-0.37743-0.8895c-0.06382-0.37134-0.10413-0.74815-0.03824-1.12666
		c0.02227-0.12792,0.1694-0.26333,0.35265-0.26143c0.59395,0.00618,1.18779-0.02753,1.7823,0.02042
		c0.35199,0.02839,0.67278,0.12854,0.98135,0.28617C14.65814,6.99245,14.71819,7.00192,14.72271,7.06978z"/>
	<path fill="#C4923A" d="M17.43678,9.63774c-0.01067,0.01063-0.02134,0.02125-0.03201,0.03187
		c-0.10082,0.09604-0.22608,0.14772-0.35502,0.19282c-0.16238,0.04919-0.32231,0.10744-0.49163,0.13085
		c-0.06209,0.004-0.12519-0.00509-0.18614,0.01417c-0.01478,0.00469-0.02988,0.00805-0.0451,0.01083
		c-0.08928,0.01808-0.18285-0.00809-0.27048,0.02638c-0.08334,0.0248-0.12587,0.10698-0.20228,0.14174
		c-0.01726-0.00404-0.02953-0.01394-0.03729-0.02973c-0.03337-0.20555-0.00417-0.23995,0.20773-0.24554
		c0.80868-0.02132,1.46921-0.33452,1.95081-0.9882c0.29438-0.39957,0.41932-0.85796,0.43803-1.34722
		c0.00663-0.17351-0.00024-0.34746,0.00191-0.52118c0.00077-0.06212-0.00798-0.12783,0.04197-0.17928
		c0.09845,0.01975,0.09891,0.10512,0.10269,0.17308c0.03914,0.70337-0.03645,1.38114-0.46801,1.97494
		C17.90521,9.26108,17.69544,9.47511,17.43678,9.63774z"/>
	<path fill="#B97D14" d="M16.31896,10.08115c-0.24797-0.01159-0.3544,0.16115-0.48835,0.33078
		c-0.16889,0.21389-0.38232,0.39347-0.57922,0.58513c-0.12937,0.12593-0.24961,0.14835-0.3768,0.02577
		c-0.27137-0.26156-0.58732-0.48492-0.76891-0.82913c-0.03743-0.07096-0.10112-0.08098-0.1749-0.08202
		c-0.2556-0.00362-0.49964-0.07054-0.74174-0.14426c-0.02349-0.00715-0.0423-0.02946-0.06328-0.04474
		c0.07672-0.05743,0.15108-0.00262,0.22653,0.00422c0.21804,0.08519,0.45348,0.0722,0.6785,0.11766
		c0.14543,0.03556,0.18565,0.16979,0.25951,0.27254c0.16994,0.22459,0.38355,0.40794,0.58672,0.60026
		c0.08753,0.08285,0.20097,0.08852,0.30693,0.01373c0.25652-0.24749,0.54501-0.46521,0.72884-0.77955
		c0.04034-0.06899,0.10441-0.10102,0.18207-0.11086C16.17155,10.04379,16.25332,10.01892,16.31896,10.08115z"/>
	<path fill="#BA7F18" d="M18.13894,6.72164c-0.47816,0-0.95634-0.00239-1.43447,0.00069
		c-0.47528,0.00307-0.92205,0.11714-1.33105,0.36105c-0.06503,0.03878-0.13115,0.06613-0.20358,0.0826
		c0.27106-0.25458,0.61222-0.35995,0.96305-0.44304c0.10249-0.02427,0.20677-0.04348,0.31356-0.0331
		c0.06046-0.02984,0.12509-0.01428,0.18751-0.01446c0.51366-0.00147,1.02733-0.00126,1.54099-0.00017
		c0.05193,0.00011,0.10609-0.01322,0.15574,0.01462c0.01059-0.00005,0.02118-0.00004,0.03177,0.00004
		c0.01033,0.01848,0.00645,0.03329-0.01162,0.04445C18.28008,6.73215,18.20799,6.75191,18.13894,6.72164z"/>
	<path fill="#BA7F16" d="M18.36246,6.72164c0-0.01058,0-0.02117,0-0.03175c0.17785,0.0374,0.24772,0.13837,0.25456,0.38936
		c0.01508,0.55378-0.01194,1.10119-0.27001,1.61048c-0.0135,0.02664-0.01144,0.06105-0.01663,0.09184c0,0,0.00001,0,0.00001,0
		c-0.02957,0.03394-0.04815,0.10451-0.10955,0.03234c0.15057-0.32483,0.27834-0.65543,0.30665-1.01764
		c0.02054-0.26274,0.00966-0.52523,0.00801-0.78767C18.53473,6.88676,18.45503,6.79676,18.36246,6.72164z"/>
	<path fill="#BC831D" d="M13.34918,9.95455c-0.07447-0.01062-0.14894-0.02125-0.22342-0.03187
		c-0.44267-0.15353-0.78929-0.43838-1.08187-0.7921c-0.04795-0.05797-0.12841-0.09981-0.13158-0.19023
		c0.00001-0.02111,0.00002-0.04222,0.00004-0.06332c0.01204-0.00872,0.02526-0.0107,0.03955-0.00691
		c0.03895,0.02223,0.05631,0.06155,0.07853,0.09708c0.02282,0.04361,0.0565,0.07782,0.09521,0.10776
		c0.01651,0.01446,0.02953,0.03155,0.04004,0.05062c0.07115,0.12101,0.17486,0.21062,0.28632,0.29273
		c0.01276,0.0077,0.02464,0.01653,0.03623,0.02579c0.21283,0.18048,0.45329,0.31254,0.71612,0.40653
		c0.05357,0.01916,0.11631,0.02478,0.14942,0.08192C13.35227,9.93987,13.35073,9.94721,13.34918,9.95455z"/>
	<path fill="#BA7F16" d="M16.31896,10.08115c-0.08519-0.00003-0.17038-0.00005-0.25557-0.00008
		c0.00544-0.08423,0.07265-0.06053,0.1186-0.06179c0.3031-0.00829,0.59544-0.06224,0.87132-0.19141
		c0.13184-0.02062,0.22599-0.12369,0.35146-0.15826c-0.02099,0.12644-0.14305,0.12943-0.22586,0.1716
		C16.90968,9.97829,16.62236,10.06029,16.31896,10.08115z"/>
	<path fill="#BA7F16" d="M18.33069,6.68985c-0.62808,0-1.25616,0-1.88423,0c0.03112-0.03934,0.07559-0.03133,0.11704-0.03136
		c0.55005-0.00033,1.10011-0.00034,1.65017-0.00003C18.25511,6.65849,18.29957,6.65051,18.33069,6.68985z"/>
	<path fill="#BC831F" d="M17.43678,9.63774c0.10999-0.15448,0.28625-0.2401,0.4056-0.38558
		c0.06235-0.076,0.13356-0.14485,0.20077-0.21693c0.01093-0.01276,0.02307-0.01402,0.03647-0.00382
		c0.01578,0.03895-0.00222,0.07178-0.019,0.10495c-0.01195,0.01853-0.02544,0.03592-0.04069,0.05194
		c-0.11869,0.11727-0.23411,0.23789-0.35646,0.35153c-0.01079,0.00941-0.02224,0.01807-0.0339,0.02639
		c-0.04002,0.02911-0.09019,0.04011-0.12929,0.07107C17.47912,9.63744,17.45795,9.63759,17.43678,9.63774z"/>
	<path fill="#BA7F16" d="M17.50029,9.63729c0.02821-0.05071,0.0631-0.09256,0.12776-0.09492
		c0.02018,0.05913-0.03827,0.06621-0.06386,0.09504C17.54289,9.63737,17.52159,9.63733,17.50029,9.63729z"/>
	<path fill="#BE8725" d="M13.99,2.85538c0.02042,0.00049,0.04084,0.00099,0.06126,0.0015
		c0.0499,0.09569,0.0658,0.1968,0.06556,0.30478c-0.00208,0.95982-0.00104,1.91965-0.00131,2.87947
		c-0.00008,0.30127-0.0955,0.3954-0.39834,0.39537c-0.60571-0.00006-1.21146-0.00392-1.81713,0.00137
		c-0.32241,0.00281-0.41087-0.20385-0.39592-0.451c0.01861-0.30745,0.06314-0.61379,0.15077-0.91267
		c0.0761-0.25954,0.18648-0.50304,0.31188-0.74127c0.01621-0.0308,0.0377-0.04985,0.07302-0.05209
		c0.04288,0.05956,0.00768,0.11263-0.0192,0.16182c-0.26079,0.47721-0.37003,0.9946-0.41324,1.52929
		c-0.00764,0.09448-0.01194,0.19222,0.07945,0.25876c0.07011,0.03558,0.14574,0.0274,0.21968,0.0281
		c0.63309,0.00604,1.26635-0.01226,1.89926,0.01088c0.09103,0.00333,0.1264-0.032,0.12907-0.11636
		c0.00183-0.05809,0.00222-0.11616,0.00222-0.17424c0.00013-0.95594-0.00061-1.91188,0.00111-2.86782
		C13.93831,3.02392,13.91818,2.92965,13.99,2.85538z"/>
	<path fill="#C4923A" d="M11.62583,6.24611c-0.07709-0.09435-0.06778-0.20451-0.05931-0.31493
		c0.04383-0.57188,0.19086-1.1142,0.46891-1.61928c0.00472-0.00858,0.00306-0.02062,0.00438-0.03106
		c0.01095-0.03142,0.02191-0.06283,0.03286-0.09424c0.04155-0.06406,0.07789-0.13157,0.12778-0.19012
		c0.01062-0.01058,0.02123-0.02116,0.03185-0.03175c0.03835-0.04647,0.0974-0.07247,0.12753-0.12708
		c0.14805-0.1088,0.24724-0.26447,0.38913-0.38369c0.25984-0.21831,0.538-0.39921,0.84237-0.54524
		c0.02783-0.01335,0.05199-0.03424,0.07786-0.0516c0.06422-0.00005,0.12843-0.00011,0.19264-0.00018
		c-0.00575,0.07726-0.07636,0.08019-0.12545,0.10219c-1.15938,0.51975-1.82634,1.41235-2.02774,2.65104
		c-0.02595,0.15958-0.04754,0.32353-0.04342,0.48792C11.66653,6.14994,11.67017,6.20505,11.62583,6.24611z"/>
	<path fill="#BE8725" d="M12.35983,3.83767c-0.00994,0.07457-0.05217,0.1172-0.12753,0.12707
		c-0.00124-0.04625,0.02063-0.07753,0.06285-0.09564C12.3167,3.85862,12.33827,3.84814,12.35983,3.83767z"/>
	<path fill="#BD8521" d="M12.20045,3.99649c-0.02117,0.07756-0.06078,0.14291-0.12779,0.19011
		C12.08479,4.10306,12.12266,4.03656,12.20045,3.99649z"/>
	<path fill="#B57708" d="M17.56419,9.63741c0.02129-0.03168,0.04258-0.06336,0.06386-0.09504
		c0.14115-0.11346,0.26882-0.2403,0.38317-0.38036c0.01062-0.01061,0.02123-0.02121,0.03185-0.03182
		c0.06789-0.0849,0.10014-0.19195,0.17268-0.27402c0.00626-0.00377,0.01262-0.00743,0.01899-0.01109
		c0.03188-0.02117,0.06376-0.04233,0.09564-0.0635c0.00005,0.03173,0.0001,0.06345,0.00015,0.09518
		c-0.11971,0.07644-0.15955,0.21619-0.25307,0.31396C17.91998,9.35535,17.78931,9.54958,17.56419,9.63741z"/>
	<path fill="#BE8623" d="M16.41227,2.88363c0.04729-0.0485,0.10711-0.0218,0.16168-0.02651
		c0.41362,0.2313,0.79463,0.50445,1.10897,0.86116c0.32091,0.36417,0.56291,0.77183,0.71516,1.23494
		c0.11268,0.34273,0.16987,0.69235,0.18611,1.04931c0.01306,0.28724-0.13606,0.44723-0.44215,0.43891
		c-0.61661-0.01676-1.23402-0.00469-1.8511-0.00498c-0.20014-0.00009-0.32209-0.11101-0.32243-0.30484
		c-0.00179-1.02433-0.00144-2.04867,0.0006-3.073c0.00013-0.0672,0.02053-0.13436,0.03151-0.20151
		c0.03032-0.00087,0.06064-0.00176,0.09095-0.00266c0.07404,0.07301,0.0534,0.16743,0.05357,0.25445
		c0.0018,0.94891,0.00104,1.89782,0.0011,2.84673c0,0.04744-0.00096,0.09491,0.00053,0.14233
		c0.00534,0.16929,0.01242,0.17058,0.18567,0.1668c0.60537-0.01318,1.21088-0.0022,1.81631-0.00612
		c0.08414-0.00055,0.1706,0.01155,0.24937-0.03067c0.10163-0.07651,0.08682-0.18851,0.07882-0.29061
		c-0.03551-0.45298-0.11471-0.8964-0.32206-1.30796c-0.34767-0.74518-0.89791-1.29404-1.63546-1.6612
		C16.47753,2.94735,16.42674,2.9384,16.41227,2.88363z"/>
	<path fill="#FEFEFE" d="M18.45918,6.24609c-0.0182,0.09888-0.09872,0.06167-0.15304,0.06195
		c-0.59481,0.00315-1.18966,0.00177-1.78448,0.00347c-0.08994,0.00026-0.18335-0.00358-0.26897,0.0183
		c-0.13573,0.03469-0.16006-0.01603-0.15965-0.13885c0.00361-1.05956,0.00206-2.11913,0.00182-3.1787
		c-0.00001-0.0526-0.00214-0.10521-0.00329-0.15781c0.04452-0.05713,0.088,0.01661,0.13219,0.00104
		c0.4515,0.12423,0.82008,0.38587,1.16003,0.69333c0.35517,0.32123,0.61237,0.71222,0.81477,1.14159
		c0.17624,0.39155,0.24751,0.80758,0.28911,1.22978C18.4984,6.02904,18.4956,6.1398,18.45918,6.24609z"/>
	<path fill="#C5943C" d="M18.16517,4.67356c-0.18646-0.35582-0.39459-0.69612-0.67793-0.98732
		c-0.35999-0.36997-0.79008-0.63215-1.26349-0.83075c0.06558-0.00853,0.12942-0.00563,0.18854,0.02818
		c0.7666,0.32581,1.32648,0.87059,1.71445,1.59674c0.01956,0.0366,0.02986,0.07808,0.04448,0.11728
		C18.18939,4.62456,18.19198,4.65021,18.16517,4.67356z"/>
	<path fill="#FEFEFE" d="M11.62583,6.24611c0.00512-0.57379,0.08579-1.1321,0.3429-1.6545
		c0.38615-0.78456,0.98042-1.35069,1.79461-1.68656c0.03372-0.01391,0.06572-0.03197,0.0985-0.04809
		c0.04293,0.01715,0.08478-0.05299,0.12815-0.00158c-0.00053,1.09858-0.00082,2.19716-0.00183,3.29574
		c-0.00018,0.1933-0.00091,0.18341-0.19695,0.17084c-0.22267-0.01428-0.44664-0.01031-0.67006-0.01108
		c-0.447-0.00155-0.89402,0.00042-1.341-0.00295C11.72528,6.30751,11.64514,6.34417,11.62583,6.24611z"/>
	<path fill="#FEFEFE" d="M14.53102,2.16055c0.34067-0.00013,0.68134-0.00027,1.02203-0.00038
		c0.00241,1.40876,0.00416,2.81749,0.0087,4.22622c0.00027,0.08515-0.02058,0.14302-0.10727,0.16655
		c-0.01011,0.00275-0.02079,0.00675-0.02887,0.0131c-0.25477,0.20014-0.50044,0.19719-0.76866,0.00648
		C14.56058,6.504,14.52192,6.45086,14.52234,6.3393c0.00322-0.84421,0.00035-1.68844,0.00139-2.53266
		C14.52441,3.25794,14.52847,2.70925,14.53102,2.16055z"/>
	<path fill="#FEFEFE" d="M18.45897,6.88016c-0.02243,0.33632,0.00318,0.673-0.03041,1.01041
		c-0.10104,1.01483-1.02617,1.94071-2.04823,2.03064c-0.11092,0.00976-0.22173,0.02407-0.33286,0.02739
		c-0.21837,0.00651-0.21845,0.00393-0.2084,0.22756c0.02178,0.04205-0.00593,0.07161-0.03084,0.09611
		c-0.24253,0.23857-0.47042,0.49198-0.73123,0.7122c-0.02284,0.00786-0.0454,0.00751-0.0676-0.00228
		c-0.28086-0.23342-0.52805-0.50084-0.78054-0.76321c-0.00842-0.01403-0.01405-0.02897-0.01737-0.04489
		c-0.00746-0.10147-0.02612-0.17752-0.16267-0.17963c-0.57193-0.00884-1.08993-0.18069-1.54388-0.53167
		c-0.45994-0.39205-0.7768-0.86784-0.87385-1.47193c-0.05605-0.34886-0.06209-0.69957-0.03742-1.05136
		c0.0112-0.04075-0.00081-0.08951,0.04199-0.11925c0.00815,0.00206,0.01516,0.00009,0.02103-0.0059
		c0.5532,0.00081,1.10644,0.00619,1.65958,0.00119c0.6112-0.00552,1.16337,0.15856,1.64042,0.54357
		c0.06711,0.05416,0.10307,0.05581,0.17012,0.00168c0.49108-0.3965,1.05945-0.55626,1.6876-0.546
		c0.53708,0.00877,1.07445,0.00041,1.61169-0.00038C18.48266,6.81386,18.4794,6.84278,18.45897,6.88016z"/>
	<path fill="#BD8623" d="M18.45897,6.88016c-0.01096-0.02192-0.02191-0.04384-0.03287-0.06576
		c-0.0727-0.10114-0.20398-0.02358-0.28716-0.09275c0.0745,0,0.14901,0,0.22351,0c0.12774,0.04134,0.18851,0.13894,0.18902,0.26206
		c0.00184,0.44362,0.04296,0.89191-0.10033,1.32352c-0.06076,0.18301-0.14361,0.35878-0.21641,0.53785
		c-0.05587,0.0612-0.06441,0.16151-0.15957,0.19024c-0.01067-0.00003-0.02135-0.00005-0.03202-0.00008
		c0.19808-0.31285,0.36221-0.63914,0.42956-1.00777c0.05995-0.32811,0.05198-0.65859,0.04659-0.98906
		C18.5184,6.98274,18.50169,6.92438,18.45897,6.88016z"/>
	<path fill="#C08B2C" d="M11.63565,6.82024c-0.00353,0.04108-0.00706,0.08216-0.01059,0.12324
		c-0.0421,0.59104-0.04021,1.17532,0.24816,1.72013c0.03458,0.06532,0.09935,0.12547,0.07098,0.21328
		c-0.01061,0.00001-0.02122,0.00006-0.03184,0.00015c-0.35541-0.56011-0.40107-1.18477-0.3802-1.82169
		C11.53497,6.96962,11.54872,6.87566,11.63565,6.82024z"/>
	<path fill="#BD8420" d="M17.05331,9.82788c-0.23018,0.15458-0.49528,0.1904-0.76196,0.22203
		c-0.07611,0.00903-0.15902-0.02928-0.22795,0.03116c-0.06027,0.00152-0.09718,0.03916-0.12232,0.08635
		c-0.17644,0.33112-0.4818,0.54447-0.73976,0.8011c-0.01118-0.01096-0.01707-0.02423-0.01779-0.0398
		c0.02839-0.09734,0.1173-0.14513,0.18001-0.21401c0.16612-0.18247,0.36696-0.33271,0.50804-0.53856
		c0.00842-0.09746,0.09061-0.12155,0.15994-0.15843c0.10315-0.04348,0.21639,0.01337,0.31939-0.03164l-0.00007,0.00003
		C16.41034,9.94691,16.484,9.99454,16.5435,9.9552C16.7204,9.94022,16.88044,9.85873,17.05331,9.82788z"/>
	<path fill="#C39137" d="M15.87157,10.17615c-0.00803,0.08454-0.06227,0.14099-0.11846,0.19783
		c-0.18472,0.18687-0.36798,0.37515-0.5518,0.56289c-0.03915,0.01803-0.06981,0.06721-0.12318,0.03308
		c0.25364-0.2646,0.50729-0.52919,0.76094-0.79379C15.8499,10.17616,15.86073,10.17616,15.87157,10.17615z"/>
	<path fill="#C39137" d="M16.35089,9.98609c-0.10109,0.06401-0.21328,0.01752-0.31939,0.03164
		C16.13253,9.95307,16.24481,10.0004,16.35089,9.98609z"/>
	<path fill="#C39137" d="M16.5435,9.9552c-0.05694,0.055-0.12829,0.02157-0.19267,0.03092
		C16.40737,9.92865,16.47904,9.96404,16.5435,9.9552z"/>
	<path fill="#BE8624" d="M15.07813,10.96995c0.04106-0.01103,0.08212-0.02205,0.12318-0.03308c0,0.01055,0,0.0211,0,0.03165
		c-0.14877,0.09584-0.27694,0.05985-0.39445-0.05825c-0.14892-0.14967-0.29974-0.29747-0.44911-0.44671
		c-0.03671-0.03668-0.0831-0.06812-0.08279-0.12865c0.00693-0.00255,0.01387-0.0051,0.0208-0.00772
		c0.12202,0.05052,0.18922,0.16323,0.28197,0.24678c0.1445,0.13017,0.26613,0.28481,0.42876,0.39578
		C15.03037,10.96982,15.05425,10.96988,15.07813,10.96995z"/>
	<path fill="#BC831D" d="M14.05188,10.081c-0.23458-0.04022-0.48235-0.00826-0.70269-0.12644c0,0,0.00029-0.00045,0.00029-0.00045
		c0.0076-0.00738,0.01584-0.01953,0.02409-0.01923c0.22828,0.00829,0.45495,0.02875,0.67527,0.09408
		C14.06092,10.04565,14.0619,10.06301,14.05188,10.081z"/>
	<path fill="#BE8624" d="M14.05188,10.081c-0.00003-0.01055-0.00003-0.0211,0-0.03166
		c0.1453-0.04828,0.14222,0.0917,0.19961,0.15497l-0.00201-0.00293c0.00343,0.04537,0.07121,0.07828,0.02615,0.13304
		c0,0-0.00065,0.00048-0.00065,0.00049C14.17799,10.26985,14.16999,10.12777,14.05188,10.081z"/>
	<path fill="#C28E32" d="M14.25148,10.20431c-0.0744-0.04168-0.09521-0.15136-0.19961-0.15497
		c-0.23413-0.03175-0.46827-0.06349-0.7024-0.09524c-0.27908-0.12055-0.56975-0.21918-0.80797-0.41725
		c-0.03171-0.02636-0.05761-0.0596-0.08621-0.08965c0.02266-0.0203,0.0463-0.0172,0.07041-0.00292
		c0.31703,0.21374,0.64973,0.39397,1.03403,0.45553c0.14597,0.02338,0.29366,0.04188,0.44121,0.0485
		C14.24818,9.9594,14.2484,9.95464,14.25148,10.20431z"/>
	<path fill="#C79742" d="M12.52571,9.44428c-0.02347,0.00097-0.04694,0.00195-0.07041,0.00292h-0.00001
		c-0.11852-0.09365-0.22496-0.19928-0.3193-0.31693c-0.01066-0.01055-0.02131-0.0211-0.03197-0.03166
		c-0.02816-0.04505-0.06603-0.08283-0.09601-0.12651c-0.02127-0.03174-0.04254-0.06348-0.06382-0.09522
		c-0.0997-0.25957-0.24354-0.50123-0.2996-0.77885c-0.07485-0.37066-0.04909-0.74365-0.04539-1.11645
		c0.00013-0.01278,0.01686-0.0254,0.02585-0.0381c0.01945,0.34202-0.01627,0.68645,0.04304,1.02666
		c0.09372,0.53761,0.34038,0.99306,0.74673,1.36225C12.45365,9.36767,12.48883,9.40689,12.52571,9.44428z"/>
	<path fill="#C28E32" d="M12.13599,9.13028c0.11943,0.09274,0.22591,0.19834,0.3193,0.31693
		C12.31038,9.37975,12.20393,9.27413,12.13599,9.13028z"/>
	<path fill="#C08B2C" d="M12.00801,8.97211c0.05176,0.0274,0.09319,0.06252,0.09601,0.12651
		C12.05269,9.0709,12.01091,9.03604,12.00801,8.97211z"/>
	<path fill="#BA7F16" d="M18.01122,9.16201c-0.0896,0.16462-0.2174,0.29133-0.38317,0.38036
		C17.74271,9.40261,17.87049,9.27589,18.01122,9.16201z"/>
	<path fill="#BA7F16" d="M18.07517,9.03531c0.06691-0.05208,0.08114-0.14768,0.15956-0.19024
		c-0.02959,0.11775-0.09276,0.21326-0.19166,0.28511C18.05377,9.09856,18.06447,9.06694,18.07517,9.03531z"/>
	<path fill="#C49138" d="M18.16517,4.67356c0.00201-0.02528,0.00402-0.05057,0.00603-0.07586
		c0.16736,0.24942,0.22629,0.53715,0.28321,0.82284c0.03959,0.19867,0.06898,0.40068,0.06794,0.60503
		c-0.00041,0.07982-0.01113,0.15574-0.06317,0.22052C18.45892,5.7039,18.36952,5.17814,18.16517,4.67356z"/>
	<path fill="#C4933A" d="M17.40626,4.48542c-0.00011,0.26779-0.00011,0.26779-0.26588,0.26727
		c-0.27313-0.00054-0.27313-0.00054-0.27325-0.27817c-0.00011-0.25803-0.00011-0.25803,0.25924-0.25836
		c0.00531-0.00001,0.01061,0,0.01592,0C17.40637,4.21623,17.40637,4.21623,17.40626,4.48542z"/>
	<path fill="#CA9D4E" d="M17.14315,5.26136c0.26414-0.00003,0.26415-0.00003,0.26394,0.26813
		c-0.00002,0.03153-0.00465,0.06371,0.00015,0.09446c0.01949,0.12497-0.0334,0.15895-0.15729,0.15855
		c-0.38503-0.00122-0.37675,0.00364-0.38751-0.34399c-0.00461-0.149,0.04393-0.1989,0.18552-0.17764
		C17.07903,5.26555,17.11139,5.26156,17.14315,5.26136z"/>
	<path fill="#BE8623" d="M12.68005,4.48255c0.00006-0.26343,0.00006-0.26343,0.26719-0.26343c0.26688,0,0.26688,0,0.26676,0.26446
		c-0.00012,0.26543-0.00012,0.26543-0.26929,0.26552C12.67999,4.74918,12.67999,4.74918,12.68005,4.48255z"/>
	<path fill="#C39035" d="M12.94865,5.26396c0.26676-0.00065,0.26679-0.00065,0.26729,0.26579
		c0.00008,0.04211-0.0048,0.08478,0.00043,0.12621c0.01278,0.1011-0.03603,0.13241-0.12864,0.12126
		c-0.01566-0.00188-0.03178,0.00005-0.04769,0.00022c-0.36575,0.00388-0.35902,0.00378-0.36458-0.36263
		c-0.00198-0.13044,0.04266-0.16779,0.16193-0.15161C12.87384,5.26814,12.91153,5.26396,12.94865,5.26396z"/>
	<path fill="#C08A2A" d="M13.23678,7.61062c0.23155-0.00459,0.49073-0.01509,0.73895,0.09293
		c0.5776,0.25136,0.84625,0.79316,0.80894,1.37867c-0.00245,0.03846-0.00278,0.07908-0.05551,0.07665
		c-0.42104-0.01942-0.8524,0.07587-1.25904-0.10584c-0.55601-0.24846-0.82403-0.77231-0.79141-1.35829
		c0.00412-0.07408,0.037-0.08587,0.09895-0.08486C12.92114,7.61221,13.0647,7.61062,13.23678,7.61062z"/>
	<path fill="#BE8826" d="M16.88889,7.60983c0.07971,0,0.15941-0.00017,0.23912,0.00003
		c0.28563,0.00074,0.28563,0.00078,0.2753,0.28898c-0.02517,0.70182-0.60458,1.25936-1.31251,1.26203
		c-0.22849,0.00086-0.45699-0.00201-0.68546,0.00007c-0.06758,0.00062-0.10201-0.00883-0.10863-0.0917
		c-0.05588-0.69952,0.3912-1.30794,1.08411-1.44131c0.16349-0.03147,0.33836-0.00466,0.508-0.00466
		C16.88885,7.6188,16.88887,7.61431,16.88889,7.60983z"/>
	<path fill="#C39036" d="M14.27562,10.33443c-0.00873-0.04433-0.01746-0.08866-0.02617-0.13301
		c0.25236,0.25609,0.5047,0.51222,0.75705,0.76834c-0.08387-0.01147-0.14079-0.06501-0.19797-0.1208
		C14.63181,10.67652,14.45338,10.50581,14.27562,10.33443z"/>
	<path fill="#B57605" d="M17.16718,4.63224c-0.12808-0.00541-0.17583-0.05786-0.17886-0.16072
		c-0.00302-0.10263,0.06059-0.15151,0.14458-0.15065c0.10073,0.00103,0.17157,0.0711,0.16757,0.17306
		C17.29716,4.57844,17.24499,4.64184,17.16718,4.63224z"/>
	<path fill="#C18C2D" d="M17.1377,5.73927c-0.12925,0.00101-0.23513-0.10078-0.23336-0.22434
		c0.00178-0.12431,0.10661-0.21871,0.24335-0.21915c0.14186-0.00046,0.22703,0.08549,0.22454,0.22659
		C17.36976,5.66236,17.28787,5.7381,17.1377,5.73927z"/>
	<path fill="#BA7F16" d="M13.09554,4.47613c-0.00753,0.09717-0.04981,0.14982-0.13848,0.15226
		c-0.09534,0.00263-0.14964-0.04703-0.14912-0.14215c0.00052-0.09535,0.05591-0.14329,0.15101-0.14035
		C13.04924,4.34871,13.08614,4.40571,13.09554,4.47613z"/>
	<path fill="#B6780A" d="M13.09428,5.50831c0.00205,0.09372-0.03266,0.15881-0.13197,0.16552
		c-0.10021,0.00677-0.17195-0.05348-0.17874-0.14178c-0.00706-0.09175,0.06512-0.16126,0.15957-0.16496
		C13.02844,5.36376,13.09663,5.40816,13.09428,5.50831z"/>
	<path fill="#B97D13" d="M13.26175,7.70485c0.35267-0.01352,0.69843,0.04579,0.98534,0.28804
		c0.2875,0.24275,0.42927,0.55408,0.41173,0.93291c-0.00447,0.09655-0.07232,0.13456-0.14689,0.13602
		c-0.44015,0.00862-0.88762,0.03771-1.26116-0.26398c-0.30109-0.24318-0.46031-0.55457-0.44464-0.94636
		c0.00454-0.11347,0.08375-0.13871,0.17252-0.14519C13.06862,7.69974,13.15944,7.70485,13.26175,7.70485z"/>
	<path fill="#BC841F" d="M16.38275,9.03512C16.12564,9.08339,15.8657,9.06579,15.60673,9.066
		c-0.1523,0.00012-0.22647-0.0778-0.21258-0.22707c0.05965-0.64101,0.5515-1.12947,1.20105-1.13461
		c0.15923-0.00126,0.31855-0.0031,0.47771,0.00061c0.19122,0.00446,0.24767,0.08556,0.21503,0.27064
		c-0.0322,0.18262-0.07721,0.35905-0.17078,0.52088c-0.01727,0.01167-0.03164,0.00883-0.04313-0.00842
		c-0.02092-0.05557,0.00624-0.10322,0.02718-0.1511c0.03188-0.0729,0.05669-0.14788,0.07476-0.22518
		c0.06095-0.26065,0.03037-0.30009-0.23379-0.30061c-0.12759-0.00025-0.25519-0.00085-0.38278,0.00013
		c-0.53908,0.00413-1.00543,0.42812-1.05451,0.9582c-0.01382,0.1493,0.01861,0.18551,0.17576,0.18991
		c0.23339,0.00654,0.46697-0.00851,0.70044,0.00539C16.40225,8.98776,16.4,9.01128,16.38275,9.03512z"/>
	<path fill="#BD8421" d="M17.08499,8.49638c0.01072,0.00002,0.02144,0.00004,0.03217,0.00007
		c-0.16349,0.28877-0.42468,0.44632-0.73441,0.53867c0.00001-0.02085,0.00002-0.04171,0.00003-0.06256
		c0.05177-0.05691,0.12586-0.07623,0.1922-0.10538c0.15339-0.06742,0.28-0.1657,0.3872-0.29237
		C16.99379,8.53745,17.01634,8.47934,17.08499,8.49638z"/>
	<path fill="#BA7E15" d="M16.9888,5.50903c-0.001-0.10941,0.07623-0.1486,0.16563-0.14482
		c0.08568,0.00362,0.15215,0.06687,0.14884,0.15432c-0.00352,0.09297-0.07018,0.15261-0.16719,0.15529
		C17.02879,5.6768,16.98783,5.61028,16.9888,5.50903z"/>
	<path fill="#B67708" d="M12.94798,4.37716c0.05583,0.01582,0.10466,0.04294,0.10042,0.09388
		c-0.00498,0.05974-0.05474,0.11048-0.11356,0.11309c-0.05617,0.00249-0.09684-0.04696-0.08961-0.10704
		C12.85216,4.41932,12.89899,4.3915,12.94798,4.37716z"/>
	<path fill="#B47503" d="M13.21038,7.76762c0.34519,0.01125,0.69121,0.02629,0.97519,0.25778
		c0.25403,0.20708,0.38884,0.47861,0.40892,0.80503c0.00553,0.08983-0.02542,0.16925-0.12363,0.16898
		c-0.34761-0.00097-0.69773,0.01586-1.02309-0.15134c-0.34632-0.17797-0.5122-0.47492-0.57419-0.83788
		c-0.03285-0.19233,0.02342-0.24172,0.22526-0.24254C13.13602,7.7675,13.1732,7.76762,13.21038,7.76762z"/>
	<path fill="#B57505" d="M17.08499,8.49638c-0.15354,0.18236-0.31865,0.34955-0.55134,0.43365
		c-0.04964,0.01794-0.09512,0.04707-0.15087,0.04253c-0.27764,0.06543-0.55915,0.02124-0.83879,0.02662
		c-0.08737,0.00168-0.08998-0.0756-0.08683-0.14085c0.02277-0.47193,0.29103-0.89667,0.81027-1.05309
		c0.28806-0.08678,0.59066-0.02818,0.88663-0.03424c0.08672-0.00177,0.08782,0.0715,0.09156,0.13811
		C17.25763,8.12304,17.15268,8.3045,17.08499,8.49638z"/>
	<path fill="#B67709" d="M17.24079,5.51467c-0.00216,0.06905-0.03629,0.09463-0.09121,0.0952
		c-0.05574,0.00059-0.08974-0.02782-0.09363-0.08391c-0.00371-0.05341,0.01756-0.09705,0.07593-0.09823
		C17.19292,5.42651,17.21887,5.47598,17.24079,5.51467z"/>
	<path fill="#B87C11" d="M13.49755,7.95359c0.30852,0.02385,0.56529,0.14271,0.7485,0.40221
		c0.07384,0.10459,0.09068,0.2202,0.03685,0.32721c-0.05389,0.10714-0.16444,0.13219-0.28576,0.13236
		c-0.34419,0.00047-0.593-0.17117-0.793-0.42579c-0.07661-0.09753-0.07591-0.22721-0.02258-0.33094
		C13.24378,7.93762,13.37764,7.95449,13.49755,7.95359z"/>
	<path fill="#B97D13" d="M16.09418,8.81421c-0.1344,0.00948-0.24913-0.02346-0.29896-0.15905
		c-0.04821-0.13117-0.00387-0.24319,0.08818-0.34646c0.20051-0.22496,0.44339-0.35082,0.75052-0.35267
		c0.11756-0.00071,0.21662,0.03511,0.27008,0.13434c0.05684,0.10551,0.03088,0.22693-0.03819,0.31421
		C16.67105,8.65069,16.41988,8.80595,16.09418,8.81421z"/>
	<path fill="#FDFDFC" d="M13.25415,8.1466c0.0104-0.01137,0.0208-0.02275,0.0312-0.03412
		c0.39184-0.11631,0.8418,0.13535,0.92317,0.51631c-0.02032,0.00861-0.04064,0.01721-0.06096,0.02582
		C13.7916,8.77247,13.37755,8.53703,13.25415,8.1466z"/>
	<path fill="#C28E32" d="M14.20853,8.6288c-0.18026-0.39663-0.51023-0.52956-0.92317-0.51631
		c0.02088-0.04185,0.06036-0.05274,0.10155-0.06653C13.71754,7.93527,14.21763,8.28913,14.20853,8.6288z"/>
	<path fill="#C28F33" d="M13.25415,8.1466c0.18097,0.37176,0.49397,0.51478,0.89342,0.50801
		c-0.09424,0.12227-0.23077,0.07318-0.33717,0.05405c-0.20559-0.03696-0.38024-0.1436-0.50537-0.32318
		C13.25077,8.30761,13.25315,8.22982,13.25415,8.1466z"/>
	<path fill="#FDFDFC" d="M16.76601,8.11188C16.87982,8.13,16.79625,8.19571,16.78363,8.2227
		c-0.14683,0.31416-0.53161,0.48434-0.90801,0.40764C15.91787,8.24624,16.47504,7.99454,16.76601,8.11188z"/>
	<path fill="#C38F34" d="M16.76601,8.11188c-0.26428,0.00191-0.51171,0.04733-0.70838,0.24598
		c-0.07945,0.08024-0.12712,0.17791-0.18202,0.27246c-0.02193-0.14295,0.0354-0.25823,0.1371-0.35085
		c0.17823-0.16232,0.38705-0.2471,0.63365-0.22794C16.69708,8.05547,16.74013,8.06424,16.76601,8.11188z"/>
</g>
</svg>
