<?xml version="1.0" encoding="utf-8"?>
<!-- Generator: Adobe Illustrator 23.0.0, SVG Export Plug-In . SVG Version: 6.00 Build 0)  -->
<svg version="1.1" id="Слой_1" xmlns="http://www.w3.org/2000/svg" xmlns:xlink="http://www.w3.org/1999/xlink" x="0px" y="0px" width="32px" height="13px"
	 viewBox="0 0 32 13" enable-background="new 0 0 32 13" xml:space="preserve">
<g>
	<path fill="#2D2D2D" d="M0.86438,12.99689c-0.02129,0-0.04257,0-0.06386,0c-0.33183-0.05126-0.56626-0.23332-0.72469-0.52323
		c-0.04681-0.08566-0.04517-0.18058-0.07358-0.26911c0-2.20796,0-4.41593,0-6.6239c0.03484-0.02885,0.07491-0.03615,0.11867-0.0287
		c0.30471,0.10753,0.41072,0.26299,0.41096,0.61574c0.00116,1.65234,0.00038,3.30467,0.00055,4.95701
		c0.00003,0.25339-0.00339,0.50683,0.00116,0.76017c0.0063,0.35067,0.20489,0.54537,0.55886,0.55347
		c0.06912,0.00158,0.13828,0.00062,0.20742,0.00062c5.03139,0.00002,10.06278,0.00001,15.09417,0.00004
		c0.07446,0,0.14894-0.00118,0.22337,0.00091c0.30537,0.00858,0.46824,0.1301,0.56346,0.41944
		c0.00416,0.04391-0.00023,0.08515-0.03737,0.11586c-0.06345,0.01024-0.12743,0.00507-0.19116,0.00508
		c-5.29465,0.00028-10.58931,0.00018-15.88396,0.00114C1.00052,12.98146,0.93019,12.9644,0.86438,12.99689z"/>
	<path fill="#262727" d="M31.99691,6.78501c-0.06809,0.03773-0.04715,0.11021-0.0594,0.16591
		c-0.39912,1.81492-1.17801,3.443-2.43218,4.8313c-0.4517,0.50001-0.98541,0.89516-1.64168,1.10545
		c-0.12238,0.03921-0.25887,0.03076-0.36898,0.10923c-0.05322,0-0.10644,0-0.15965,0
		c-0.06033-0.03172-0.1254-0.01548-0.18795-0.0155c-3.31336-0.00108-6.62672-0.00052-9.94008-0.00103
		c-0.02224,0.00184-0.04137-0.00496-0.05738-0.02038c-0.00017-0.02995-0.00034-0.05991-0.00051-0.08987
		c0.08267-0.06982,0.18268-0.04486,0.27569-0.04491c2.59014-0.0014,5.18027-0.00111,7.77041-0.00111
		c0.64355,0,1.2872-0.00727,1.9306,0.00236c0.49167,0.00736,0.93093-0.14304,1.34224-0.3928
		c0.301-0.18277,0.55404-0.4214,0.80717-0.66499c0.73802-0.71021,1.25873-1.56714,1.6928-2.47521
		c0.38063-0.7963,0.69538-1.62145,0.83759-2.5003c0.01682-0.10392,0.00055-0.21207,0.04271-0.31225
		c0.0232-0.0356,0.0571-0.0408,0.09553-0.03289c0.04341,0.0116,0.02779,0.06034,0.05309,0.08344
		C31.99691,6.61598,31.99691,6.7005,31.99691,6.78501z"/>
	<path fill="#1A1A1A" d="M31.96232,6.46722c-0.03099,0.00035-0.06199,0.0007-0.09298,0.00106
		c-0.04772,0.02091-0.07377,0.0121-0.06416-0.04599c0.06061-0.1573,0.01527-0.31387-0.01158-0.46757
		c-0.12272-0.70242-0.36961-1.36663-0.66622-2.01134c-0.40354-0.87713-0.89063-1.70878-1.52856-2.439
		c-0.39678-0.45418-0.846-0.86123-1.39323-1.14126c-0.38106-0.195-0.78998-0.27983-1.21652-0.28014
		c-1.76632-0.00125-3.53264-0.00052-5.29897-0.00052c-5.45857,0-10.91714-0.00002-16.37572,0.00013
		c-0.11167,0-0.22393-0.00668-0.33359,0.02279C4.95084,0.11189,4.92434,0.10824,4.90674,0.07972
		c-0.0107-0.02808-0.00696-0.05389,0.01285-0.07707c7.5676,0,15.1352,0,22.7028,0c0.54719,0.15612,1.03094,0.4241,1.46038,0.79588
		c0.58689,0.50809,1.05576,1.11141,1.46036,1.76593c0.62528,1.01151,1.10949,2.08305,1.37423,3.24579
		c0.02358,0.10358,0.01354,0.21627,0.07955,0.3092c0,0.06339,0,0.12677,0,0.19016
		C31.95632,6.35586,32.00553,6.42153,31.96232,6.46722z"/>
	<path fill="#252525" d="M4.91959,0.00265C4.91953,0.02374,4.91948,0.04483,4.91942,0.06593
		c-0.08125,0.07212-0.18151,0.049-0.2746,0.04914C3.43704,0.11694,2.22925,0.11373,1.02148,0.11741
		c-0.52593,0.0016-0.86555,0.34356-0.87262,0.8654C0.14807,1.0409,0.14857,1.099,0.14857,1.15709
		C0.14854,2.54072,0.14909,3.92435,0.14745,5.30798c-0.00011,0.09241,0.02313,0.1919-0.04936,0.27263
		C0.06614,5.58063,0.03419,5.58065,0.00225,5.58067c0-1.61636,0-3.23271,0-4.84907c0.05855-0.37618,0.26539-0.62436,0.63862-0.72895
		C2.06711,0.00265,3.49335,0.00265,4.91959,0.00265z"/>
	<path fill="#697681" d="M17.1496,12.95999c0.00971,0.00373,0.01962,0.00684,0.02972,0.00935
		c0.01135,0.00546,0.01536,0.01135,0.0121,0.0177c-0.00336,0.00656-0.00681,0.00985-0.0104,0.00985
		c-5.43888,0-10.87776,0-16.31664,0c0.04292-0.06314,0.1075-0.03102,0.16094-0.03103
		c5.32693-0.00157,10.65386-0.00146,15.98079-0.00165C17.05394,12.96421,17.10177,12.96145,17.1496,12.95999z"/>
	<path fill="#535F69" d="M17.18102,12.99689c-0.00011-0.00922-0.00067-0.01842-0.00169-0.02757
		c0.05315-0.00135,0.1063-0.00391,0.15946-0.00392c3.28301-0.00031,6.56602-0.00052,9.84904,0.0004
		c0.04974,0.00001,0.10786-0.02364,0.14719,0.03109C23.95035,12.99689,20.56568,12.99689,17.18102,12.99689z"/>
	<path fill="#404C56" d="M31.96232,6.46722c0.01474-0.05184-0.02379-0.1152,0.03459-0.1576c0,0.07395,0,0.1479,0,0.22185
		C31.96879,6.51885,31.96571,6.49295,31.96232,6.46722z"/>
	<path fill="#202020" d="M0.09808,5.58061c-0.00002-1.54011-0.00012-3.08022,0-4.62033
		c0.00004-0.51903,0.37744-0.89412,0.8997-0.8942C2.305,0.06589,3.61221,0.06596,4.91942,0.06593
		c0.01064,0.01064,0.02128,0.02128,0.03193,0.03192c0.04366,0.02486,0.0649,0.06882,0.09224,0.10741
		c0.08564,0.12087,0.2045,0.18094,0.35126,0.19C5.4799,0.40051,5.56508,0.39828,5.6502,0.39828
		c7.02903,0.00009,14.05806,0.00473,21.08706-0.00879c0.55949-0.00108,1.03711,0.1602,1.51205,0.41332
		c0.69131,0.36843,1.18741,0.92961,1.63128,1.55255c0.4435,0.62242,0.72927,1.32302,1.03921,2.01193
		c0.17585,0.39088,0.33203,0.78997,0.43041,1.20823c0.07687,0.32683,0.1607,0.64821,0.45495,0.86106
		c0.01393,0.02544,0.0379,0.03087,0.06417,0.03169c0.00679,0.4485-0.11965,0.87264-0.25237,1.29329
		C31.47009,8.22714,31.28036,8.6759,31.0855,9.1251c-0.31538,0.72701-0.72503,1.39095-1.19183,2.02606
		c-0.20607,0.28037-0.46843,0.50803-0.70507,0.75982c-0.29875,0.31787-0.64621,0.55719-1.03588,0.74066
		c-0.29409,0.13847-0.60365,0.22004-0.93493,0.21982c-3.35623-0.00217-6.71246-0.00134-10.06869-0.00135
		c-0.10196-0.29204-0.31434-0.38412-0.6164-0.38384c-5.14297,0.0049-10.28595,0.00073-15.4289,0.00971
		c-0.34754,0.00061-0.63121-0.28369-0.6289-0.61815C0.48795,9.9828,0.47759,8.08761,0.48492,6.19251
		C0.48608,5.89258,0.39217,5.68193,0.09808,5.58061z"/>
	<path fill="#131313" d="M31.80517,6.43658c-0.22489-0.05813-0.3148-0.23908-0.38186-0.43071
		c-0.12856-0.36732-0.19735-0.7517-0.34122-1.11654c-0.1529-0.38775-0.32437-0.76677-0.49199-1.14767
		c-0.26204-0.59546-0.58978-1.15121-0.98067-1.67578c-0.54525-0.73173-1.2497-1.23284-2.10033-1.54995
		c-0.14279-0.05323-0.28385-0.07107-0.43435-0.07104C19.86969,0.44658,12.66463,0.44637,5.45958,0.44632
		c-0.29313,0-0.45802-0.11334-0.50822-0.34847c0.00567-0.04424,0.03182-0.06363,0.07582-0.06307
		c0.04254,0.00054,0.0851-0.00036,0.12766-0.00036c7.30342-0.00002,14.60684-0.00124,21.91025,0.00247
		c0.54106,0.00027,1.03348,0.16839,1.48521,0.47661c0.17302,0.11805,0.33561,0.24957,0.50583,0.37034
		c0.13077,0.09278,0.21323,0.25094,0.3406,0.35049c0.23318,0.18225,0.41111,0.41171,0.5741,0.64783
		c0.25722,0.37263,0.50623,0.75076,0.73421,1.14418c0.39927,0.68901,0.70756,1.41264,0.95338,2.16584
		c0.121,0.37076,0.18998,0.7521,0.24066,1.13741C31.90853,6.40144,31.88472,6.44263,31.80517,6.43658z"/>
	<path fill="#262626" d="M14.05964,12.10944c-4.26233,0-8.52466,0-12.78699-0.00001c-0.37035,0-0.40822-0.03739-0.40822-0.40322
		C0.8644,8.20974,0.86439,4.71327,0.86443,1.2168c0-0.34711,0.04285-0.39006,0.38947-0.39006
		C9.79453,0.8267,18.33515,0.82744,26.87578,0.82522c0.64303-0.00017,1.17481,0.23583,1.65309,0.65439
		c0.35618,0.31171,0.66622,0.66268,0.93208,1.04271c0.38538,0.55087,0.71809,1.13534,0.98494,1.75787
		c0.13615,0.31762,0.27678,0.63333,0.38708,0.95983c0.20379,0.6032,0.32903,1.20891,0.15047,1.85311
		c-0.13354,0.48177-0.27585,0.96244-0.47655,1.41538c-0.27952,0.6308-0.57372,1.26156-0.98416,1.82426
		c-0.23087,0.31652-0.46047,0.64242-0.74082,0.91287c-0.38222,0.36872-0.79856,0.71472-1.35141,0.81326
		c-0.18634,0.03321-0.37843,0.04841-0.56791,0.04852C22.59494,12.11005,18.32729,12.10944,14.05964,12.10944z"/>
	<path fill="#2F293B" d="M27.84544,1.11161c0.22199,0.15658,0.47245,0.26324,0.67823,0.45433
		c0.27591,0.25623,0.52406,0.53298,0.74781,0.83054c0.60913,0.81007,1.06618,1.70215,1.41321,2.6509
		c0.02162,0.0591,0.04383,0.11902,0.03462,0.18426c-0.02912,0.11721-0.05484,0.23538-0.08651,0.35181
		c-0.12045,0.44283-0.5483,0.78305-0.97841,0.78248c-0.55639-0.10545-1.01701-0.37035-1.40884-0.77956
		c-0.46634-0.48702-1.00678-0.88382-1.65733-1.0936c-0.75364-0.24303-1.52325-0.4274-2.3079-0.5503
		c-0.92015-0.14412-1.84572-0.07831-2.76922-0.08967c-0.20564-0.00253-0.38608-0.05565-0.55707-0.16083
		c-0.09682-0.05956-0.18622-0.13005-0.2341-0.23211c-0.20809-0.44362-0.59475-0.55483-1.03987-0.56045
		c-0.39863-0.00504-0.79737,0.00724-1.19584-0.00592c-0.01663-0.00197-0.03283-0.00637-0.04842-0.01241
		c-0.32414-0.26068-0.67623-0.47641-1.05975-0.64116c-0.60696-0.23231-1.22858-0.3401-1.88265-0.2697
		c-0.58123,0.06256-1.11203,0.25339-1.61184,0.54368c-0.06396,0.03715-0.1275,0.07605-0.17497,0.13489
		c-0.11982,0.09883-0.22407,0.22198-0.391,0.24811c-0.34586,0.01225-0.69183,0.01088-1.03739,0.00265
		c-0.2577-0.00613-0.48044-0.11852-0.6399-0.31341c-0.52904-0.6466-0.55213-0.53546-1.19347-0.53725
		C8.72103,2.04406,6.99722,2.04762,5.27342,2.047C4.79955,2.04683,4.501,1.83877,4.33992,1.40092
		C4.32976,1.33649,4.30361,1.27489,4.30294,1.20852C4.29842,1.17056,4.30086,1.13254,4.30115,1.0944
		C4.30513,1.0356,4.29543,0.9712,4.3652,0.93924c0.93075-0.00269,1.86142-0.00103,2.79208-0.00105
		c6.6902-0.0002,13.38039-0.00009,20.07035-0.00013c0.15706,0.02004,0.31321,0.04485,0.45942,0.11041l-0.00074-0.00056
		C27.73591,1.07758,27.79434,1.08557,27.84544,1.11161z"/>
	<path fill="#4C4158" d="M0.96347,3.20658C0.96263,3.19586,0.96179,3.18513,0.96094,3.17441
		C1.01347,2.97763,1.10456,2.7993,1.24603,2.65283c0.10503-0.10875,0.2138-0.22737,0.39468-0.1878
		C1.90595,2.5859,2.00078,2.79841,2.00028,3.0788c-0.00314,1.74653-0.00079,3.49307-0.0024,5.2396
		C1.99755,8.66414,2.11625,8.94706,2.40839,9.14696C2.56655,9.25517,2.74468,9.2996,2.9351,9.3041
		c0.08403,0.00199,0.17114-0.01214,0.24844,0.03571c0.04329,0.09962-0.05701,0.10881-0.10081,0.14705
		C2.86161,9.6799,2.86448,10.0064,3.09331,10.17344c0.19183,0.14004,0.45545,0.10797,0.60093-0.0731
		c0.14749-0.18357,0.12251-0.43645-0.05114-0.6009c-0.04659-0.04412-0.15203-0.05153-0.11902-0.1573
		C3.58525,9.2993,3.65586,9.30446,3.72444,9.30421C4.05945,9.30297,4.3945,9.30106,4.72948,9.3045
		c0.3624,0.00372,0.61619,0.20244,0.70661,0.54697c0.13337,0.50816,0.44676,0.75088,0.97834,0.75112
		c2.13773,0.00095,4.27547,0.00138,6.4132-0.00116c0.22153-0.00026,0.42309,0.03567,0.58445,0.19906
		c0.02588,0.02728,0.0469,0.0583,0.06778,0.08931c0.15576,0.17872,0.141,0.3952,0.13679,0.60939
		c0.00015,0.05121,0.00091,0.1025-0.00099,0.15371c-0.00016,0.03322,0.00068,0.0665-0.00078,0.09971
		c0.00035,0.0246,0.00002,0.04922-0.00038,0.07383c0.00001,0.04108,0.00008,0.08219-0.00653,0.12298
		c-0.0052,0.02516-0.01882,0.04563-0.03642,0.06385c-3.51934,0.00037-7.03869,0.00069-10.55803,0.00161
		C2.95425,12.0149,2.89686,12.012,2.84359,11.98343c-0.13763-0.00289-0.22046-0.09821-0.29894-0.18814
		c-0.15796-0.18101-0.24028-0.3954-0.25288-0.6358c-0.01336-0.25497-0.05331-0.29295-0.3168-0.30889
		c-0.43575-0.02636-0.92086-0.44474-0.98814-0.85111C0.97733,9.9421,0.96607,9.88562,0.98977,9.82923
		C0.981,9.7854,0.97222,9.74157,0.96344,9.69773C0.9862,9.65265,0.97616,9.60425,0.97617,9.5574
		c0.00053-2.07016,0.00053-4.14031,0-6.21047C0.97616,3.30007,0.98617,3.25167,0.96347,3.20658z"/>
	<path fill="#302A3B" d="M30.65617,7.83052c-0.01171,0.18819-0.10268,0.35256-0.17203,0.52062
		c-0.27983,0.67811-0.61034,1.33148-1.03353,1.93401c-0.35774,0.50935-0.74154,0.99486-1.26795,1.35186
		c-0.34052,0.23094-0.69528,0.39942-1.1197,0.37822c-0.11131-0.00556-0.22313-0.00107-0.33471-0.00119
		c-0.0312-0.03609-0.01765-0.07378,0.00854-0.09983c0.10827-0.1077,0.15827-0.24786,0.22655-0.37873
		c0.09463-0.18138,0.24364-0.31611,0.44083-0.36767c0.76191-0.19922,1.25074-0.72961,1.67933-1.33756
		c0.51935-0.7367,0.89847-1.54326,1.20809-2.3847c0.02639-0.07173,0.02963-0.15969,0.11787-0.19594
		C30.57957,7.33756,30.69017,7.59813,30.65617,7.83052z"/>
	<path fill="#322C3E" d="M30.40076,7.25957c-0.19952,0.5547-0.41334,1.10441-0.69351,1.62406
		c-0.3351,0.62154-0.70566,1.22133-1.22077,1.71796c-0.25006,0.24109-0.53334,0.42898-0.87037,0.53187
		c-0.23453,0.0716-0.47535,0.14585-0.59337,0.38578c-0.08538,0.17358-0.18864,0.33441-0.29449,0.49479
		c-4.38555-0.00025-8.77111-0.00049-13.15668-0.00075c0.00069-0.02073,0.00139-0.04144,0.00209-0.06215
		c0.07803-0.06464,0.1721-0.04545,0.2607-0.04551c1.63367-0.00109,3.26734-0.00078,4.90101-0.00078
		c2.40528-0.00001,4.81056-0.00169,7.21582,0.00342c0.17889,0.00038,0.34671-0.04506,0.51869-0.07026
		c0.15178-0.02224,0.24328-0.15119,0.30572-0.28073c0.08847-0.18355,0.25433-0.29518,0.38404-0.43981
		c0.07697-0.08583,0.2016-0.10395,0.30336-0.12703c0.37817-0.08577,0.65693-0.31194,0.92665-0.56879
		c0.29189-0.27796,0.55253-0.58343,0.75168-0.9274c0.26944-0.46537,0.51855-0.9429,0.74503-1.43265
		c0.13614-0.2944,0.1915-0.6236,0.39058-0.88972C30.36352,7.13795,30.39755,7.17734,30.40076,7.25957z"/>
	<path fill="#202020" d="M1.59859,2.47412C1.29971,2.55661,1.16362,2.79532,1.0412,3.0469
		C1.01907,3.09239,1.01852,3.15096,0.96094,3.17439C0.96069,2.92368,0.9608,2.67295,0.95989,2.42222
		C0.95969,2.36441,0.95793,2.30699,0.99254,2.25624c0.00141-0.02298,0.01058-0.04269,0.02531-0.06015
		C1.11624,2.10683,1.2286,2.03788,1.34559,1.97553C1.3806,1.96157,1.41642,1.94997,1.45236,1.93858
		C1.54548,1.9046,1.64757,1.90919,1.73974,1.87182c0.06082-0.03953,0.06272-0.10593,0.07814-0.16645
		C1.85826,1.54692,1.90434,1.39042,1.9833,1.24559C2.01661,1.19695,2.05034,1.14853,2.08671,1.102
		c0.05226-0.05977,0.11137-0.11141,0.18252-0.1484c0.04148-0.04851,0.09823-0.03096,0.1491-0.03113
		c0.34484-0.00116,0.68969-0.0003,1.03454-0.00009C3.46364,0.93572,3.46819,0.9509,3.46662,0.96791
		C3.43432,1.05664,3.35733,1.078,3.27617,1.08525C3.20141,1.09193,3.12908,1.10439,3.0599,1.13291
		C2.99041,1.15955,2.92185,1.18818,2.8614,1.23276C2.78993,1.28789,2.71271,1.3361,2.65408,1.40652
		C2.43077,1.5789,2.34953,1.813,2.34167,2.08518C2.33509,2.31308,2.23373,2.4155,2.00743,2.41876
		C1.86747,2.42077,1.73817,2.48162,1.59859,2.47412z"/>
	<path fill="#202020" d="M30.40076,7.25957c-0.02111-0.04237-0.05321-0.0739-0.09549-0.09539
		c-0.03624-0.00242-0.06257-0.02481-0.09063-0.04388c-0.02658-0.02087-0.0515-0.0438-0.07913-0.06346
		c-0.03304-0.02535-0.0678-0.04786-0.10588-0.06533c-0.04778-0.02457-0.09859-0.04046-0.15046-0.05418
		c-0.13679-0.0427-0.27474-0.07294-0.41909-0.08073c-0.15474-0.00835-0.24807-0.11238-0.2444-0.25324
		c0.00381-0.14596,0.12817-0.27157,0.27479-0.26963c0.05765,0.00076,0.11571,0.00432,0.1736,0.00637
		c0.53052-0.10486,0.8831-0.35901,0.96228-0.91802c0.00987-0.06973,0.01533-0.14963,0.09296-0.19045
		c0.09752,0.23461,0.20184,0.46745,0.19226,0.72986c0.03706,0.1367-0.05513,0.22615-0.12761,0.31634
		c-0.08534,0.10621-0.18832,0.19746-0.3062,0.2698c-0.0827,0.05076-0.07979,0.09762,0.0016,0.15065
		c0.12347,0.08046,0.24473,0.16484,0.32466,0.29342c0.02696,0.04337,0.06914,0.08213,0.0437,0.14145
		c0.0044,0.25093-0.09617,0.47344-0.19156,0.69736C30.61408,7.62123,30.58023,7.40832,30.40076,7.25957z"/>
	<path fill="#202020" d="M0.98977,9.82923c-0.00456,0.23894,0.13547,0.4148,0.26749,0.59193
		c0.19844,0.26624,0.45965,0.40508,0.80212,0.39128c0.17793-0.00717,0.27203,0.08587,0.27198,0.25671
		c-0.00012,0.40119,0.15999,0.70968,0.51224,0.91427c-0.24402,0.05302-0.48797,0.04884-0.73185-0.00094
		c-0.11346-0.03967-0.1462-0.14467-0.19105-0.23775c-0.03198-0.06637-0.05495-0.13919-0.06003-0.21167
		c-0.01169-0.16651-0.10231-0.23494-0.26221-0.2562c-0.17505-0.02328-0.33419-0.09802-0.48002-0.19784
		c-0.05227-0.03578-0.10624-0.07032-0.13152-0.13273c-0.0094-0.01614-0.00741-0.03075,0.00589-0.04383
		c-0.04544-0.0663-0.03585-0.14202-0.03164-0.21438C0.97782,10.40198,0.9216,10.11351,0.98977,9.82923z"/>
	<path fill="#4C4158" d="M0.996,10.93203c0.197,0.1803,0.42974,0.28733,0.69419,0.32113
		c0.12484,0.01596,0.18379,0.07708,0.19646,0.19993c0.02042,0.19812,0.0967,0.37526,0.22509,0.52938
		c-0.03089,0.04022-0.07577,0.03168-0.11724,0.03163c-0.33458-0.0004-0.66916-0.00152-1.00375-0.00242
		C0.9703,11.6517,0.96118,11.29176,0.996,10.93203z"/>
	<path fill="#535F69" d="M3.45264,0.95183C3.45157,0.942,3.45164,0.93218,3.45286,0.92237
		c7.9016-0.00017,15.8032-0.00034,23.70479-0.00041c0.03724,0,0.07447,0.00146,0.11171,0.00224
		c0.01184,0.00587,0.01594,0.01202,0.01234,0.01849c-0.00367,0.0066-0.00739,0.00991-0.01123,0.00991
		C19.70858,0.95289,12.14669,0.95316,4.5848,0.95355c-0.07981,0-0.15961,0.00158-0.23942,0.00242
		C4.30753,0.98848,4.26191,1.00001,4.2136,1.00116C4.0029,1.00621,3.79216,1.00721,3.58149,1.00049
		C3.53405,0.99898,3.48638,0.99196,3.45264,0.95183z"/>
	<path fill="#302A3B" d="M30.84772,7.13317c-0.08825-0.18785-0.23873-0.31801-0.41315-0.4199
		c-0.12254-0.07158-0.10229-0.1186,0.00239-0.18577c0.21649-0.13891,0.40456-0.30461,0.47461-0.56601
		c0.11667,0.06321,0.06317,0.18366,0.07991,0.27301c0.05534,0.29524-0.02028,0.584-0.09203,0.86981
		C30.89617,7.11738,30.86559,7.1237,30.84772,7.13317z"/>
	<path fill="#362F43" d="M1.75929,1.90478C1.65747,1.9503,1.54788,1.95686,1.43914,1.96772
		C1.39116,1.92277,1.40026,1.8626,1.39393,1.80587c-0.0228-0.20416,0.04219-0.39534,0.09346-0.5869
		c0.04202-0.157,0.17066-0.23321,0.31879-0.27974c0.13267,0.00568,0.26632-0.01792,0.39799,0.014
		C2.22585,0.95335,2.24754,0.95348,2.26923,0.9536C2.22972,1.01925,2.1757,1.07074,2.11176,1.11253
		C2.05708,1.1502,1.99314,1.15013,1.93059,1.15976c-0.15328,0.02359-0.25356,0.12121-0.25045,0.275
		C1.68306,1.57961,1.62004,1.73492,1.727,1.8694C1.74083,1.87849,1.75152,1.89034,1.75929,1.90478z"/>
	<path fill="#535F69" d="M0.96347,3.20658c0.04939,0.04835,0.02761,0.11,0.02764,0.16544
		C0.99229,5.42541,0.99228,7.47881,0.99116,9.5322C0.99112,9.58775,1.01231,9.64932,0.96342,9.69777
		c-0.00107-1.93685-0.00228-3.87368-0.00309-5.8105C0.96023,3.66037,0.96237,3.43348,0.96347,3.20658z"/>
	<path fill="#535F69" d="M2.20416,0.95323C2.0659,0.95406,1.92764,0.9549,1.78939,0.95574
		C1.6784,1.01227,1.5589,1.00317,1.4403,1.0007C1.41388,0.99949,1.3874,1.00073,1.36088,1.00118
		c-0.33313,0.00566-0.31727-0.04304-0.32097,0.3319C1.03726,1.60119,1.05843,1.86984,1.0258,2.13759
		C1.0136,2.16463,1.00211,2.19269,0.9636,2.18696c-0.00113-0.37943-0.0022-0.75887-0.00347-1.1383
		C0.95992,0.9838,0.95352,0.92041,1.05265,0.92115c0.36634,0.00274,0.73272,0.00129,1.09907,0.00336
		C2.16925,0.92461,2.18668,0.94323,2.20416,0.95323z"/>
	<path fill="#535F69" d="M0.996,10.93203c-0.00174,0.3599-0.00349,0.7198-0.00524,1.07968
		c-0.03863-0.02442-0.03021-0.06371-0.03027-0.09914c-0.00053-0.30368-0.00043-0.60737-0.00011-0.91105
		c0.00004-0.03609-0.00458-0.0745,0.03242-0.09905C0.99363,10.91234,0.9947,10.9222,0.996,10.93203z"/>
	<path fill="#3F434D" d="M27.27046,0.95261c0.00035-0.00951-0.00001-0.01899-0.00109-0.02843
		c0.14389,0.02596,0.2965,0.02304,0.41767,0.12428C27.54818,1.01651,27.40932,0.98456,27.27046,0.95261z"/>
	<path fill="#3A3C47" d="M27.84544,1.11161c-0.06262,0.00234-0.11833-0.01234-0.15913-0.06371
		C27.74883,1.0458,27.80413,1.06149,27.84544,1.11161z"/>
	<path fill="#414D57" d="M0.9636,2.18696C0.97378,2.1767,0.98395,2.16644,0.99413,2.15618
		c0.0505,0.0032,0.05295,0.02834,0.03014,0.06502c-0.01058,0.01165-0.02116,0.02331-0.03174,0.035
		C0.96405,2.2409,0.9602,2.21542,0.9636,2.18696z"/>
	<path fill="#413A53" d="M1.59859,2.47412c0.1158-0.07004,0.2441-0.09161,0.37683-0.09407
		C2.22364,2.37546,2.29965,2.30363,2.30139,2.0627c0.00209-0.28981,0.09553-0.53312,0.34934-0.69812
		c0.07058-0.04266,0.1484-0.05075,0.22907-0.05069c0.42857,0.00034,0.85715-0.00049,1.28572,0.00072
		c0.07383,0.00021,0.14949-0.00294,0.21057,0.05101c0.10763,0.41765,0.52675,0.6403,0.87897,0.6384
		C7.11028,1.994,8.96562,2.00308,10.82087,1.99552c0.29891-0.00122,0.50254,0.13097,0.67411,0.34786
		c0.14077,0.17795,0.27961,0.35651,0.50233,0.44476c0.09961,0.03947,0.19756,0.06908,0.30723,0.06834
		c0.35077-0.00237,0.70158,0.00157,1.05237,0.00307c0.00181,0.08155-0.06364,0.11598-0.11443,0.16051
		c-0.75282,0.66006-1.19274,1.48567-1.31831,2.47375c-0.11792,0.92784,0.10342,1.77943,0.6079,2.56247
		c0.06102,0.09472,0.06641,0.17322,0.01459,0.27739c-0.3133,0.6298,0.01024,1.31009,0.70763,1.44858
		c0.13844,0.02749,0.20484,0.08962,0.20259,0.23207c-0.00358,0.22678,0.00041,0.45369-0.00171,0.68052
		c-0.00049,0.05203,0.00275,0.10686-0.04256,0.14688c-0.17979-0.14834-0.38329-0.19487-0.61887-0.19412
		c-2.13686,0.0068-4.27377-0.00152-6.4106,0.00847c-0.44639,0.00209-0.93576-0.32445-0.99515-0.79591
		C5.34915,9.55193,5.06845,9.35273,4.75046,9.35228C4.39431,9.35178,4.03816,9.35126,3.68202,9.3531
		C3.6259,9.35339,3.564,9.33286,3.51518,9.38109C3.40839,9.41464,3.3016,9.41454,3.1948,9.38115
		c-0.15923-0.07367-0.33155-0.00983-0.49838-0.0545c-0.44739-0.1198-0.74609-0.48023-0.74621-0.93808
		C1.94976,6.64822,1.94415,4.90784,1.9555,3.16757C1.95752,2.85747,1.88018,2.62315,1.59859,2.47412z"/>
	<path fill="#413A53" d="M29.66407,6.34011c-0.05628,0.03963-0.12104,0.03009-0.1843,0.03313
		c-0.12479,0.00599-0.2284,0.11473-0.22825,0.23587c0.00017,0.12769,0.08249,0.20797,0.22386,0.20634
		c0.15704-0.00182,0.30344,0.03638,0.44587,0.0967c0.02563,0.0528,0.00768,0.10398-0.0086,0.15379
		c-0.33913,1.03749-0.80448,2.01137-1.49831,2.8647c-0.29789,0.36637-0.64709,0.6638-1.13224,0.77813
		c-0.33146,0.07811-0.57401,0.30033-0.72952,0.59779c-0.09294,0.17775-0.21616,0.2504-0.41647,0.25026
		c-4.11681-0.00288-8.23363-0.00212-12.35045-0.0027c-0.0738-0.00001-0.15038,0.00732-0.21263-0.04674
		c-0.00027-0.20878,0.02806-0.42357-0.12783-0.59967c0.16122-0.09878,0.33887-0.03458,0.50849-0.04817
		c0.09641-0.00772,0.19157-0.00274,0.25015-0.0986c0.10012-0.05387,0.08357-0.15118,0.08447-0.23757
		c0.00339-0.32668,0.00031-0.65342,0.002-0.98013c0.0004-0.07812-0.00975-0.15924,0.04026-0.22933
		c0.05427-0.04223,0.11908-0.0407,0.18272-0.04165c0.21082-0.00314,0.25504,0.03612,0.25752,0.24488
		c0.00408,0.34304,0.00102,0.68613,0.00132,1.0292c0.00027,0.30921,0.00034,0.31464,0.31731,0.30688
		c0.14183-0.00347,0.30234,0.05553,0.41659-0.087c0.09926-0.05097,0.09109-0.1452,0.09173-0.23299
		c0.00242-0.33022-0.0001-0.66046,0.00161-0.99069c0.0004-0.07773-0.00946-0.15839,0.03996-0.2282
		c0.0541-0.04261,0.11893-0.04108,0.18258-0.04208c0.21108-0.0033,0.25555,0.03602,0.25805,0.24444
		c0.00412,0.34311,0.00103,0.68627,0.00134,1.02941c0.00028,0.30944,0.00034,0.31487,0.31719,0.30711
		c0.14186-0.00347,0.30239,0.05554,0.41669-0.08699c0.09925-0.05095,0.09111-0.14515,0.09175-0.23293
		c0.00241-0.33015-0.00011-0.66033,0.0016-0.99049c0.0004-0.07772-0.00945-0.15835,0.03973-0.22823
		c0.0694-0.0518,0.1508-0.04382,0.22945-0.04128c0.16458,0.00531,0.20645,0.04306,0.20998,0.20937
		c0.00737,0.34707,0.00189,0.69429,0.00269,1.04144c0.00082,0.35636-0.01767,0.33427,0.34005,0.3294
		c0.13183-0.00179,0.27981,0.04871,0.38722-0.07929c0.09634-0.04804,0.09845-0.13687,0.10159-0.22681
		c0.00796-0.22822-0.01808-0.45722,0.01572-0.68469c0.0148-0.04544,0.0523-0.06491,0.09464-0.07477
		c0.28218-0.06575,0.49117-0.23779,0.67066-0.45295c0.04269-0.03357,0.08172-0.07002,0.09847-0.12416
		c0.20258-0.32455,0.20072-0.65954,0.04041-0.99595c-0.05521-0.11586-0.03807-0.20743,0.02728-0.3099
		c0.29619-0.4644,0.49838-0.96524,0.57677-1.51189c0.1633-1.13889-0.13713-2.14869-0.85877-3.04181
		c-0.11334-0.14027-0.23724-0.27011-0.36752-0.3946c-0.02851-0.02725-0.074-0.04873-0.05623-0.10242
		c0.42558,0.00025,0.8514-0.00822,1.27665,0.00363c0.31577,0.00879,0.62438,0.05879,0.85031,0.31816
		c0.03868,0.04441,0.0739,0.08898,0.09978,0.14162c0.16353,0.33263,0.43644,0.48816,0.80493,0.48815
		c0.56389-0.00002,1.12778,0.00048,1.69167-0.00015c0.52583-0.00059,1.04219,0.08188,1.55791,0.17162
		c0.60048,0.10448,1.18679,0.26742,1.76911,0.44089c0.52439,0.15622,0.97886,0.44478,1.3978,0.79346
		c0.22873,0.19037,0.42528,0.4127,0.64817,0.60782c0.29808,0.26096,0.6557,0.40135,1.03756,0.48972
		C29.61882,6.31483,29.64095,6.3296,29.66407,6.34011z"/>
	<path fill="#FEFEFE" d="M18.13965,10.77844c0.00019,0.08132-0.01328,0.13432-0.12279,0.12747
		c-0.18482-0.01157-0.3711-0.00808-0.55639-0.00113c-0.09437,0.00354-0.11411-0.03173-0.11334-0.11792
		c0.00382-0.43146-0.00437-0.86311,0.00528-1.2944c0.00309-0.13825-0.03127-0.19303-0.17362-0.17118
		c-0.07265,0.01115-0.14789,0.00563-0.22196,0.00765c-0.09124,0.06077-0.0754,0.15679-0.07623,0.24369
		c-0.0031,0.3265-0.00035,0.65304-0.00178,0.97956c-0.00034,0.07815,0.00912,0.15956-0.04862,0.22607
		c-0.00036,0.08094-0.01333,0.13455-0.12301,0.12767c-0.18481-0.0116-0.37108-0.00807-0.55636-0.00114
		c-0.09427,0.00353-0.11412-0.03151-0.11335-0.1178c0.00385-0.43144-0.00427-0.86307,0.00525-1.29434
		c0.00304-0.1376-0.03026-0.19351-0.17318-0.17137c-0.07262,0.01125-0.14788,0.00563-0.22195,0.00763
		c-0.09111,0.06086-0.07533,0.15686-0.07615,0.24378c-0.00308,0.32653-0.00035,0.6531-0.00177,0.97965
		c-0.00034,0.07818,0.00901,0.15959-0.04898,0.22597c-0.00068,0.08086-0.01386,0.13448-0.12338,0.12762
		c-0.18478-0.01157-0.37103-0.00808-0.55628-0.00113c-0.09426,0.00354-0.11404-0.03146-0.11327-0.11773
		c0.00386-0.43138-0.00414-0.86294,0.00521-1.29415c0.00297-0.13683-0.02908-0.19413-0.17271-0.17165
		c-0.07257,0.01136-0.14786,0.00564-0.22192,0.00764c-0.09101,0.06093-0.07525,0.15691-0.07607,0.24385
		c-0.00307,0.32653-0.00035,0.65311-0.00177,0.97967c-0.00034,0.07818,0.00898,0.15961-0.04935,0.22582
		c0.0071,0.09855-0.0357,0.13039-0.13689,0.12709c-0.20943-0.00682-0.41935,0.00076-0.62906,0.00242
		c-0.01087-0.022-0.02173-0.04399-0.0326-0.06599c0.00241-0.29508,0.00108-0.59027,0.00938-0.88519
		c0.00266-0.0945-0.04116-0.11172-0.12018-0.12215c-0.79105-0.10441-1.15634-0.94096-0.76946-1.55735
		c0.05526-0.08805,0.00416-0.13614-0.03486-0.19516c-0.45627-0.69025-0.67882-1.45024-0.64133-2.27269
		c0.05252-1.15207,0.52322-2.11095,1.41081-2.86263c0.03178-0.02691,0.06005-0.05791,0.08995-0.087
		c0.10377-0.07321,0.20754-0.14643,0.31132-0.21965c0.23507-0.18572,0.50814-0.30115,0.78153-0.41626
		c1.36264-0.46168,2.61197-0.22999,3.76301,0.60489c0.62657,0.49617,1.0706,1.12123,1.32286,1.87568
		c0.17364,0.5193,0.25124,1.05062,0.18708,1.60119c-0.03123,0.26805-0.08824,0.52864-0.15021,0.78953
		c-0.1117,0.30076-0.24593,0.59031-0.41773,0.8631C19.07324,8.0875,19.0363,8.21159,19.1168,8.37912
		c0.12832,0.26707,0.14283,0.55639-0.00385,0.83346c-0.01944,0.05228-0.04448,0.10105-0.08873,0.13763
		c-0.18274,0.26974-0.43933,0.42677-0.75792,0.48912c-0.08281,0.0491-0.07561,0.13327-0.07775,0.21005
		c-0.00495,0.17823-0.00057,0.35663-0.00223,0.53495C18.1857,10.65228,18.18946,10.72187,18.13965,10.77844z"/>
	<path fill="#501894" d="M18.19283,2.85892c-0.30221-0.20315-0.6046-0.40796-0.94803-0.53725
		c-0.90074-0.3391-1.81113-0.39491-2.73107-0.07431c-0.0249,0.00868-0.05128,0.01316-0.07697,0.01961
		c-0.01849-0.08231,0.05328-0.07535,0.0961-0.09172c0.60366-0.23085,1.22782-0.30883,1.86791-0.22002
		c0.34419,0.04776,0.67989,0.13973,1.00493,0.26526c0.37731,0.15347,0.7311,0.34435,1.02316,0.63347
		c-0.01221,0.0148-0.02742,0.02529-0.04556,0.03171C18.31537,2.90819,18.25418,2.88299,18.19283,2.85892z"/>
	<path fill="#552098" d="M18.39443,2.85551c0.01146-0.00051,0.02292-0.00102,0.03441-0.00154
		c0.01061-0.00032,0.02119-0.0002,0.0318,0.00034c0.7643,0.6873,1.22647,1.52784,1.34201,2.55412
		c0.10325,0.91715-0.11772,1.75232-0.6067,2.52568c-0.05926,0.09373-0.0666,0.16127-0.01432,0.27101
		c0.15727,0.33005,0.18069,0.66802-0.03408,0.9918c-0.01118,0.01686-0.01421,0.03904-0.02104,0.05874
		c-0.02822,0.00754-0.04321,0.00207-0.03059-0.0306c0.11337-0.33559,0.11342-0.66118-0.08837-0.96823
		c-0.03196-0.04863-0.01376-0.08629,0.01503-0.12883c0.21666-0.32008,0.37638-0.66831,0.5114-1.02852
		c0.13023-0.29042,0.17357-0.60234,0.19752-0.91273c0.04452-0.57688-0.01761-1.14352-0.22773-1.68979
		c-0.22159-0.57608-0.56172-1.07098-1.01254-1.493C18.44705,2.96259,18.37884,2.93567,18.39443,2.85551z"/>
	<path fill="#3E374F" d="M4.37608,1.36562C3.80098,1.36528,3.22587,1.36494,2.65074,1.36459
		c0.04358-0.07814,0.1263-0.10867,0.19418-0.15726c0.0789-0.03173,0.16075-0.04772,0.24604-0.04767
		c0.3584,0.00019,0.71679-0.00008,1.07519,0.00016c0.06374,0.00004,0.12734,0.00004,0.17828,0.04731
		C4.35499,1.25997,4.36554,1.31279,4.37608,1.36562z"/>
	<path fill="#362F43" d="M3.45264,0.95183C3.75022,0.9532,4.0478,0.95456,4.34538,0.95595
		C4.34516,1.00798,4.34493,1.06,4.3447,1.11201C4.29815,1.15467,4.24059,1.15894,4.18141,1.15899
		C3.85332,1.15931,3.52523,1.15958,3.19714,1.15874c-0.05834-0.00015-0.1175,0.0004-0.16212-0.04715
		C3.099,1.0606,3.17416,1.0481,3.25332,1.04835C3.33552,1.04862,3.40739,1.02711,3.45264,0.95183z"/>
	<path fill="#4E2087" d="M17.4057,2.22048c-0.24401-0.06463-0.48626-0.13695-0.73235-0.19246
		c-0.73552-0.16592-1.45384-0.09323-2.15576,0.17048c-0.0342,0.01285-0.07042,0.02643-0.08082,0.06844
		c-0.267,0.10233-0.51817,0.23673-0.76851,0.37293c0.14699-0.18571,0.36544-0.26755,0.56808-0.36249
		c0.57964-0.27157,1.19317-0.41205,1.83591-0.3689C16.53146,1.93932,16.98674,2.00937,17.4057,2.22048z"/>
	<path fill="#3A344A" d="M3.03502,1.11159C3.47158,1.11173,3.90814,1.11187,4.3447,1.11201
		C4.34462,1.14372,4.34453,1.17543,4.34444,1.20714C3.84459,1.2072,3.34475,1.20726,2.84492,1.20733
		C2.8975,1.15431,2.96267,1.12593,3.03502,1.11159z"/>
	<path fill="#3E374F" d="M13.57303,11.50739c4.18603-0.00002,8.37207-0.00116,12.5581,0.00351
		c0.19023,0.00021,0.29542-0.05597,0.38252-0.23007c0.16256-0.32491,0.43255-0.55194,0.79361-0.63042
		c0.45623-0.09916,0.76881-0.39567,1.05334-0.72387c0.382-0.44064,0.67491-0.94387,0.9343-1.46249
		c0.23571-0.47128,0.43834-0.95839,0.59246-1.46355c0.00918-0.03009,0.02251-0.05894,0.0339-0.08836
		c0.05069,0.00471,0.09479,0.02272,0.12811,0.0625c0.0527,0.06292,0.03101,0.13098,0.00873,0.19557
		c-0.35358,1.02492-0.81379,1.99426-1.49895,2.84783c-0.3229,0.40226-0.70617,0.70925-1.21856,0.84545
		c-0.29095,0.07734-0.5055,0.27109-0.64309,0.53362c-0.12059,0.23011-0.29868,0.31773-0.555,0.31752
		c-4.10823-0.00333-8.21645-0.00228-12.32468-0.00291c-0.08373-0.00001-0.17198,0.01558-0.24471-0.04583
		C13.57308,11.61306,13.57306,11.56022,13.57303,11.50739z"/>
	<path fill="#352E41" d="M30.24029,7.10291c0.03134,0.01032,0.05198,0.03182,0.06498,0.06129
		c-0.09809,0.23603-0.16983,0.48795-0.27982,0.7122c-0.24067,0.49068-0.45728,0.99473-0.74679,1.46286
		c-0.14649,0.23687-0.28823,0.47721-0.45989,0.69523c-0.13291,0.1688-0.31739,0.29801-0.44745,0.46849
		c-0.13149,0.17236-0.32608,0.25752-0.48825,0.38002c-0.08663,0.06544-0.23496,0.11855-0.37782,0.14301
		c-0.12859,0.02202-0.28869,0.05925-0.40085,0.20222c-0.12175,0.15519-0.25711,0.29909-0.36787,0.46622
		c-0.08178,0.12339-0.20968,0.17173-0.37411,0.20614c-0.49112,0.10279-0.98113,0.04474-1.46964,0.04583
		c-3.77303,0.00841-7.54608,0.00469-11.31912,0.00473c-0.00001-0.04226-0.00002-0.08451-0.00004-0.12677
		c0.08358-0.06818,0.18342-0.04285,0.27664-0.04288c4.05756-0.00123,8.11512-0.00106,12.17269-0.00106
		c0.05318,0,0.10728-0.00638,0.15938,0.00106c0.28432,0.0406,0.45987-0.08496,0.57978-0.33609
		c0.11046-0.23134,0.29184-0.41766,0.5439-0.48147c0.65991-0.16706,1.10464-0.60024,1.48948-1.12175
		c0.57043-0.77301,0.9779-1.62773,1.30058-2.52595C30.1259,7.23315,30.13784,7.13778,30.24029,7.10291z"/>
	<path fill="#3B344A" d="M13.57311,11.66589c4.19792-0.00004,8.39584-0.00089,12.59376,0.00212
		c0.22678,0.00016,0.37749-0.07628,0.48409-0.28288c0.14537-0.28173,0.37401-0.48633,0.68905-0.57076
		c0.37936-0.10168,0.70525-0.29154,0.96796-0.5773c0.37649-0.40951,0.69177-0.86452,0.95399-1.35382
		c0.29205-0.54497,0.54757-1.10649,0.7422-1.69386c0.02311-0.06974,0.05426-0.13817,0.0452-0.21474
		c0.04513,0.00103,0.07699,0.02224,0.0964,0.06241c0.04275,0.0575,0.00896,0.11267-0.00898,0.16557
		c-0.34139,1.00651-0.79585,1.95546-1.45535,2.79892c-0.34245,0.43796-0.74176,0.79456-1.30334,0.93928
		c-0.27996,0.07215-0.48792,0.25412-0.61519,0.51463c-0.11988,0.24539-0.30008,0.34269-0.58443,0.34217
		c-4.1243-0.00762-8.24862-0.00509-12.37294-0.00621c-0.07774-0.00002-0.16056,0.02214-0.23217-0.03041
		C13.57328,11.72931,13.57319,11.6976,13.57311,11.66589z"/>
	<path fill="#373045" d="M13.57336,11.76101c4.19696-0.00005,8.39393-0.00228,12.59088,0.00477
		c0.27745,0.00047,0.45283-0.09916,0.57082-0.33511c0.13772-0.2754,0.36308-0.45741,0.65718-0.5353
		c0.52465-0.13896,0.90743-0.4664,1.23015-0.87652c0.70394-0.89461,1.18678-1.90165,1.52336-2.98177
		c0.04905-0.00288,0.06166,0.04581,0.09454,0.06582c-0.14382,0.2821-0.22397,0.58926-0.35193,0.87779
		c-0.38427,0.86647-0.82237,1.69861-1.4887,2.39299c-0.27406,0.2856-0.59267,0.49056-0.97686,0.5926
		c-0.30113,0.07998-0.5123,0.26499-0.64628,0.54078c-0.10667,0.21956-0.26482,0.32223-0.52724,0.32182
		c-4.22522-0.00653-8.45045-0.00456-12.67567-0.00453C13.57353,11.80324,13.57345,11.78213,13.57336,11.76101z"/>
	<path fill="#202020" d="M3.1948,9.38115c0.10679-0.03676,0.21358-0.03674,0.32037-0.00003
		c0.19898,0.07345,0.30634,0.21745,0.31729,0.4257c0.0107,0.20337-0.08429,0.3569-0.26404,0.44705
		c-0.1746,0.08755-0.35096,0.06935-0.50681-0.05054C2.74083,9.95656,2.85935,9.47983,3.1948,9.38115z"/>
	<path fill="#302A3B" d="M1.02427,2.2212C1.02333,2.19537,1.01882,2.17116,0.99411,2.15619
		C0.99346,1.80571,0.99682,1.45515,0.98978,1.1048C0.98751,0.99178,1.01445,0.9393,1.13799,0.95163
		c0.0992,0.0099,0.20005,0.00352,0.30017,0.00436c0.02113,0.04097,0.01211,0.08247-0.00267,0.12157
		C1.34025,1.32947,1.34607,1.58954,1.3706,1.85104c0.00496,0.05287,0.01129,0.10438-0.02713,0.14872
		C1.23707,2.07358,1.13067,2.14739,1.02427,2.2212z"/>
	<path fill="#322C3E" d="M1.34347,1.99977C1.30887,1.74539,1.28802,1.49197,1.33992,1.236
		c0.02018-0.09952,0.06863-0.18577,0.09825-0.28004C1.55524,0.95589,1.67233,0.95579,1.7894,0.95571
		c-0.10682,0.0951-0.2495,0.15572-0.28364,0.31817c-0.04818,0.22923-0.0845,0.45874-0.06661,0.69384
		C1.41615,2.00456,1.37847,1.99824,1.34347,1.99977z"/>
	<path fill="#3D374E" d="M1.75929,1.90478C1.74846,1.90439,1.73763,1.904,1.7268,1.90361
		c-0.08379-0.1858-0.0683-0.37873-0.01094-0.56236c0.04935-0.15796,0.20555-0.19922,0.29956-0.10092
		C1.95037,1.42651,1.86929,1.60742,1.83794,1.80455C1.8314,1.84573,1.82662,1.90361,1.75929,1.90478z"/>
	<path fill="#3A334A" d="M2.01542,1.24033C1.86446,1.18683,1.73555,1.27749,1.72809,1.4511
		c-0.00647,0.15058-0.00132,0.30166-0.0013,0.45251c-0.06558,0.00491-0.098-0.02098-0.09664-0.09053
		c0.00269-0.13691-0.00624-0.27438,0.003-0.41073c0.0107-0.15786,0.14237-0.27796,0.30347-0.28948
		c0.05807-0.00415,0.1167-0.00046,0.1751-0.00035C2.08361,1.15808,2.06966,1.21417,2.01542,1.24033z"/>
	<path fill="#202020" d="M4.08929,3.24663C4.08441,3.51497,3.86527,3.71906,3.59111,3.7106
		C3.32898,3.7025,3.12679,3.48845,3.13157,3.22411c0.00485-0.2683,0.22404-0.47243,0.49818-0.46397
		C3.89188,2.76824,4.09408,2.9823,4.08929,3.24663z"/>
	<path fill="#202020" d="M27.65495,7.07015c-0.27261,0.00028-0.48267-0.21114-0.47948-0.48259
		c0.00308-0.26226,0.21305-0.46774,0.47824-0.468c0.27262-0.00027,0.48265,0.21112,0.47947,0.48257
		C28.1301,6.86445,27.92019,7.06988,27.65495,7.07015z"/>
	<path fill="#521E95" d="M14.21116,10.7782c-0.00254-0.45479-0.00323-0.9096-0.00893-1.36435
		c-0.00144-0.11454,0.06789-0.09312,0.13614-0.08498c-0.00002,0.42753-0.00069,0.85505,0.00053,1.28257
		C14.33915,10.70188,14.34021,10.78773,14.21116,10.7782z"/>
	<path fill="#521E95" d="M15.52069,10.77829c-0.00249-0.45475-0.00304-0.90953-0.00881-1.36424
		c-0.00145-0.11446,0.06732-0.09351,0.13572-0.08516c-0.00003,0.43272-0.00113,0.86544,0.00082,1.29815
		C15.64883,10.71777,15.63468,10.78712,15.52069,10.77829z"/>
	<path fill="#531E96" d="M16.8302,10.77824c-0.00246-0.454-0.00277-0.90803-0.00889-1.36199
		c-0.00154-0.11436,0.0651-0.09721,0.13554-0.08733c-0.00005,0.43263-0.00114,0.86527,0.00077,1.29789
		C16.95802,10.7173,16.94442,10.78708,16.8302,10.77824z"/>
	<path fill="#531F95" d="M18.13965,10.77844c-0.00244-0.27418-0.00085-0.54849-0.00933-0.82249
		c-0.00333-0.10749,0.04919-0.1255,0.13599-0.11662c-0.00011,0.26275-0.00185,0.52552,0.00059,0.78825
		C18.26775,10.71803,18.25292,10.78687,18.13965,10.77844z"/>
	<path fill="#573882" d="M19.09593,9.22505c0.01021,0.01021,0.02042,0.02043,0.03061,0.03062
		c-0.01988,0.04665-0.05035,0.08202-0.1023,0.09453C19.04812,9.30849,19.07203,9.26677,19.09593,9.22505z"/>
	<path fill="#413A53" d="M16.189,6.12459c0.73887-0.27031,1.47799-0.53999,2.21614-0.81225
		c0.05436-0.02005,0.08734-0.02217,0.11311,0.03619c0.27784,0.62917,0.13313,1.26315-0.34197,1.62665
		c-0.53328,0.35513-1.17209,0.23902-1.5587-0.08166c-0.20564-0.17057-0.34731-0.38287-0.43352-0.63345
		C16.16809,6.21369,16.15623,6.16866,16.189,6.12459z"/>
	<path fill="#413A53" d="M13.12985,5.31563c0.64094,0.23012,1.28188,0.46023,1.92281,0.69035
		c0.07453,0.02676,0.14908,0.05344,0.22352,0.08045c0.26126,0.09479,0.26229,0.09527,0.1527,0.3596
		c-0.09409,0.22694-0.2214,0.42931-0.43862,0.56206c-0.07682,0.02247-0.14181,0.06989-0.21554,0.09957
		c-0.81198,0.32685-1.78002-0.31437-1.78915-1.18499c-0.00188-0.17955-0.00109-0.35732,0.07565-0.52589
		C13.07731,5.36142,13.09309,5.33124,13.12985,5.31563z"/>
	<path fill="#541C9B" d="M18.39443,2.85551c0.15292,0.15103,0.31238,0.29382,0.45262,0.45935
		c0.47101,0.55593,0.77613,1.18328,0.88957,1.90258c0.08944,0.56713,0.05004,1.12576-0.10043,1.67771
		c-0.01983,0.07272-0.02075,0.15986-0.10221,0.20433c0.0792-0.33797,0.15971-0.67626,0.16382-1.02549
		c0.01468-1.24611-0.44602-2.28346-1.39139-3.10659c-0.03946-0.03436-0.0758-0.07224-0.11359-0.10848
		C18.26003,2.85778,18.32723,2.85664,18.39443,2.85551z"/>
	<path fill="#541C9A" d="M13.12985,5.31563c-0.33063,0.80233,0.12603,1.63529,0.92275,1.80315
		c0.27012,0.05691,0.53302,0.04558,0.78561-0.0745c0.04833-0.02298,0.09645-0.04412,0.152-0.03617
		c-0.67731,0.57966-1.82822,0.19207-2.05653-0.69251c-0.08516-0.32997-0.03222-0.64599,0.09693-0.95438
		C13.04936,5.31647,13.06573,5.2642,13.12985,5.31563z"/>
	<path fill="#413A54" d="M14.6552,8.19797c0.10591-0.16181,0.21677-0.32071,0.31562-0.48665
		c0.04905-0.08234,0.08879-0.07549,0.16083-0.03094c0.35326,0.21846,0.35496,0.21699,0.12442,0.55856
		c-0.06729,0.0997-0.13869,0.19666-0.2082,0.29488C14.84422,8.53606,14.63227,8.35479,14.6552,8.19797z"/>
	<path fill="#541D9A" d="M16.189,6.12459c0.16169,0.63041,0.61742,0.98701,1.22578,1.03044
		c0.2035,0.01453,0.42147-0.02463,0.61451-0.12471c0.04639-0.02405,0.09065-0.05603,0.14695-0.05511
		c-0.611,0.55253-1.64556,0.33172-2.01029-0.4299c-0.03164-0.06606-0.04843-0.13973-0.08426-0.20309
		C16.00844,6.21269,16.03665,6.14055,16.189,6.12459z"/>
	<path fill="#413A53" d="M16.25213,7.80155c0.2573-0.1961,0.25734-0.19613,0.43092,0.05973
		c0.08811,0.12989,0.17447,0.26099,0.26455,0.38953c0.06695,0.09552,0.1005,0.17873-0.04807,0.22954
		c-0.02278,0.00779-0.03949,0.03307-0.059,0.05026c-0.06347,0.03437-0.12824,0.05794-0.18177-0.01304
		c-0.14776-0.19597-0.28815-0.39699-0.40629-0.61233C16.23443,7.87237,16.22817,7.83617,16.25213,7.80155z"/>
	<path fill="#532194" d="M16.25213,7.80155c0.10085,0.2577,0.28591,0.46364,0.43199,0.69356
		c0.04175,0.06572,0.10146,0.03606,0.15637,0.03551c-0.22589,0.18725-0.22598,0.18731-0.38522-0.05156
		c-0.09084-0.13626-0.18119-0.27284-0.272-0.40912C16.07193,7.90287,16.07182,7.90294,16.25213,7.80155z"/>
	<path fill="#542196" d="M14.6552,8.19797c-0.01072,0.08757,0.0443,0.13165,0.11163,0.16908
		c0.09525,0.05295,0.17264,0.1356,0.28106,0.16674c-0.04538,0.14046-0.11681,0.18944-0.24248,0.07282
		c-0.03418-0.03172-0.07795-0.05324-0.11723-0.07957C14.48921,8.39364,14.48923,8.39363,14.6552,8.19797z"/>
	<path fill="#FDFDFE" d="M18.00679,6.40374c-0.18366,0.21723-0.39739,0.36827-0.70355,0.35062
		c-0.21998-0.01268-0.39038-0.10839-0.53758-0.25911c0.03256-0.05687,0.0996-0.04294,0.13422-0.08318
		c0.05742-0.09189,0.16401-0.09066,0.24992-0.1241c0.27128-0.10559,0.5433-0.2101,0.8219-0.29576
		c0.16998-0.05226,0.21738-0.00631,0.17362,0.16569C18.12149,6.25157,18.07236,6.33255,18.00679,6.40374z"/>
	<path fill="#542492" d="M18.00679,6.40374c0.04317-0.10127,0.09411-0.19867,0.11195-0.31029
		c0.01464-0.09155,0.00024-0.1158-0.09537-0.08028c-0.35785,0.13295-0.71782,0.26025-1.07715,0.38927
		c-0.01472,0.00528-0.0309,0.00654-0.04638,0.00965c-0.00917-0.06759,0.03304-0.08768,0.08871-0.10773
		c0.38204-0.13757,0.76298-0.27815,1.14388-0.4188c0.03572-0.01319,0.0726-0.02969,0.10596-0.00779
		c0.04048,0.02659,0.01474,0.06448,0.00706,0.09968C18.2092,6.14373,18.15968,6.30204,18.00679,6.40374z"/>
	<path fill="#FDFDFD" d="M14.79511,6.49341c-0.26928,0.25589-0.5904,0.32344-0.88579,0.20234
		c-0.28844-0.11825-0.50273-0.44133-0.47207-0.70205c0.04523,0.00941,0.08999,0.01871,0.13474,0.02802
		c0.05493-0.02408,0.10425,0.00049,0.15349,0.01891c0.29367,0.10987,0.59084,0.21025,0.884,0.3214
		C14.68141,6.3893,14.7681,6.40136,14.79511,6.49341z"/>
	<path fill="#541D99" d="M14.79511,6.49341c-0.33673-0.16552-0.70111-0.25986-1.04736-0.40086
		c-0.05849-0.02382-0.11716-0.04723-0.17575-0.07083c-0.035-0.1124-0.02844-0.1784,0.11946-0.12342
		c0.40122,0.14914,0.80413,0.29378,1.22,0.44517C14.86443,6.40407,14.82977,6.44874,14.79511,6.49341z"/>
</g>
</svg>
