<?xml version="1.0" encoding="utf-8"?>
<!-- Generator: Adobe Illustrator 23.0.0, SVG Export Plug-In . SVG Version: 6.00 Build 0)  -->
<svg version="1.1" id="Слой_1" xmlns="http://www.w3.org/2000/svg" xmlns:xlink="http://www.w3.org/1999/xlink" x="0px" y="0px" width="32px" height="13px"
	 viewBox="0 0 32 13" enable-background="new 0 0 32 13" xml:space="preserve">
<g>
	<path fill="#3A4750" d="M30.30745,2.18782c0.08513,0.12829,0.17026,0.25657,0.25538,0.38486
		c0.02158,0.05894,0.05431,0.11051,0.10203,0.15217c0.44227,0.6901,0.77304,1.43276,1.0423,2.20302
		c0.13509,0.38644,0.25176,0.77908,0.29948,1.1881c0.00147,0.01255,0.01655,0.02353,0.02528,0.03524c0,0.12683,0,0.25366,0,0.38049
		c-0.02227,0.01813-0.04639,0.03232-0.07582,0.03558c-0.0529-0.00715-0.12306,0.00942-0.11563-0.08191
		c0.07537-0.14706,0.04752-0.29887,0.01883-0.44976c-0.18546-0.97539-0.55908-1.88225-1.02853-2.75253
		c-0.34757-0.64434-0.74914-1.25399-1.23915-1.80199c-0.43526-0.48677-0.92733-0.9023-1.54248-1.15102
		c-0.26295-0.10631-0.53764-0.15678-0.82489-0.1567C19.91379,0.17543,12.60331,0.17505,5.29283,0.17465
		c-0.08512,0-0.17022,0.00592-0.25545,0.00122C5.00451,0.17522,4.97851,0.16365,4.96552,0.13134
		C4.9609,0.11086,4.96251,0.09093,4.97032,0.07139c0.01412-0.01716,0.03226-0.02487,0.05451-0.02322
		c7.46451-0.00027,14.92895-0.0001,22.3929-0.00012c0.01823-0.00024,0.03697-0.00011,0.05526,0.00032
		c0.51444,0.05284,0.95452,0.28174,1.36777,0.57352c0.02159,0.01524,0.04193,0.03186,0.06816,0.03871l-0.00302-0.00245
		c0.30876,0.25551,0.58269,0.5471,0.86845,0.82643l-0.0024-0.0029C29.94369,1.72211,30.1367,1.94665,30.30745,2.18782z"/>
	<path fill="#535F69" d="M31.96872,6.53221c0.02107-0.00017,0.04215-0.00034,0.06322-0.0005c0,0.09512,0,0.19024,0,0.28537
		c-0.07462,0.29768-0.13587,0.59941-0.22609,0.89235c-0.46092,1.49651-1.14177,2.87834-2.20297,4.05225
		c-0.48829,0.54015-1.05107,0.98175-1.7715,1.18478c-0.11067,0.03119-0.22288,0.05697-0.33437,0.08525
		c-3.42781,0-6.85562,0-10.28343,0c-0.0213-0.02747-0.01418-0.05192,0.00793-0.07486
		c0.08843-0.05233,0.1865-0.03378,0.28075-0.03381c3.16988-0.00099,6.33978-0.00582,9.50963,0.00257
		c0.83252,0.0022,1.51474-0.31776,2.11295-0.86196c0.69884-0.63576,1.22982-1.39525,1.67054-2.22248
		c0.45208-0.84855,0.81198-1.73162,1.0279-2.66954c0.0332-0.14421,0.06135-0.28929,0.06861-0.4376
		C31.89557,6.65873,31.90957,6.5869,31.96872,6.53221z"/>
	<path fill="#697681" d="M17.21406,12.96791c-0.00016,0.02127-0.00032,0.04253-0.00048,0.0638c-0.05323,0-0.10645,0-0.15968,0
		c-0.0549-0.03084-0.11474-0.01557-0.17203-0.01558c-5.19736-0.00081-10.39471-0.00081-15.59207,0
		c-0.05729,0.00001-0.11713-0.01525-0.17203,0.01558c-0.10645,0-0.21291,0-0.31936,0
		c-0.35521-0.05005-0.58607-0.25285-0.71881-0.57634c-0.00122-0.05514-0.00955-0.1096-0.02062-0.16367
		c-0.00725-0.01842-0.01218-0.03805-0.02704-0.05267c0-0.02114,0-0.04228,0-0.06341c0.032-0.0598,0.01557-0.12432,0.01561-0.18633
		c0.00144-2.10396-0.00003-4.20793,0.00148-6.31191c0.00245-0.04342,0.03123-0.0486,0.06613-0.04494
		C0.13452,5.64257,0.14856,5.65762,0.1575,5.67742c0.03213,0.09237,0.02115,0.18832,0.02119,0.28292
		c0.00073,1.97636,0.00027,3.95272,0.00075,5.92908c0.00007,0.28113,0.04493,0.54499,0.25726,0.75899
		c0.17606,0.17744,0.39123,0.24696,0.63139,0.26501c0.0903,0.00679,0.18089,0.0037,0.27136,0.0037
		c5.17881,0.00009,10.35763-0.00003,15.53644,0.00084c0.10531,0.00002,0.21334-0.0172,0.31492,0.02867
		C17.19861,12.95364,17.20633,12.96078,17.21406,12.96791z"/>
	<path fill="#3B4852" d="M27.49784,0.06287C19.99277,0.06306,12.4877,0.06325,4.98263,0.06345
		c-0.008-0.00691-0.01076-0.01391-0.00827-0.02102c0.0025-0.00715,0.00506-0.01072,0.00768-0.01072c7.50499,0,15.00998,0,22.51497,0
		c0.00778,0.00672,0.01049,0.01358,0.00816,0.02057C27.5028,0.05934,27.50036,0.06287,27.49784,0.06287z"/>
	<path fill="#697681" d="M1.11776,13.03171c0.04713-0.05191,0.10967-0.03081,0.1655-0.03082
		c5.20171-0.00095,10.40341-0.00095,15.60512,0c0.05584,0.00001,0.11837-0.02109,0.1655,0.03082
		C11.74185,13.03171,6.42981,13.03171,1.11776,13.03171z"/>
	<path fill="#545F68" d="M0.12746,5.64424C0.10788,5.64423,0.0883,5.64421,0.06872,5.6442
		C0.02951,5.59189,0.04946,5.53172,0.04941,5.47571C0.04812,4.00329,0.04859,2.53088,0.04762,1.05847
		C0.04758,1.00163,0.06293,0.94227,0.03194,0.8878c0-0.03171,0-0.06341,0-0.09512c0.02845-0.22365,0.13416-0.40582,0.29882-0.5583
		c0.1154-0.10686,0.24831-0.17611,0.40378-0.20268c0.08516,0,0.17033,0,0.25549,0C0.98177,0.11847,0.909,0.0964,0.85824,0.10546
		C0.74237,0.12614,0.63211,0.1553,0.55343,0.25163c-0.27927,0.2119-0.38752,0.48908-0.38509,0.83942
		c0.00998,1.43705,0.00462,2.8742,0.0031,4.31132C0.17135,5.48424,0.19462,5.57319,0.12746,5.64424z"/>
	<path fill="#CB2631" d="M0.03194,0.8878c0.0581,0.05119,0.03042,0.11909,0.03049,0.17861
		C0.06417,2.52905,0.06373,3.9917,0.064,5.45435C0.06401,5.51763,0.06706,5.58091,0.0687,5.6442
		C0.0671,6.0085,0.06419,6.3728,0.06409,6.73711c-0.00049,1.74798,0.00016,3.49596-0.00171,5.24394
		c-0.00007,0.06468,0.02946,0.13768-0.03044,0.19456C0.03194,8.41301,0.03194,4.65041,0.03194,0.8878z"/>
	<path fill="#535F69" d="M0.54301,0.1905c0.12237-0.12684,0.29971-0.10114,0.44701-0.1588c1.33067,0,2.66134,0,3.99202,0
		c0.00019,0.01058,0.00038,0.02116,0.00058,0.03174C4.98178,0.07378,4.98118,0.08413,4.98083,0.0945
		C4.90844,0.1577,4.81967,0.13901,4.73648,0.13909C3.52956,0.14027,2.32265,0.14023,1.11573,0.13941
		c-0.14918-0.0001-0.29758-0.00423-0.43759,0.0612C0.63366,0.2214,0.58556,0.22621,0.54301,0.1905z"/>
	<path fill="#6D6F70" d="M27.49784,0.06287c-0.0007-0.01038-0.00097-0.02076-0.00084-0.03116c0.05323,0,0.10645,0,0.15968,0
		c0.00477,0.00845,0.00703,0.01752,0.00677,0.0272c-0.05474,0.03186-0.11034,0.02636-0.16633,0.00376L27.49784,0.06287z"/>
	<path fill="#3B4850" d="M27.49712,0.06267c0.05544-0.00125,0.11088-0.0025,0.16633-0.00376
		c0.46991,0.08883,0.87957,0.30058,1.24544,0.6017c-0.0921-0.00016-0.15921-0.06235-0.22392-0.10902
		c-0.34585-0.24945-0.72119-0.4193-1.15017-0.46199C27.52147,0.08827,27.50965,0.07198,27.49712,0.06267z"/>
	<path fill="#3B4850" d="M29.77434,1.48458c-0.10355-0.03847-0.16413-0.1285-0.23327-0.2037
		c-0.20104-0.21867-0.44649-0.39215-0.63519-0.6227C29.23955,0.88787,29.5223,1.17031,29.77434,1.48458z"/>
	<path fill="#3B4850" d="M30.30745,2.18782c-0.17548-0.14119-0.2696-0.34755-0.41425-0.51398
		c-0.04776-0.05495-0.13728-0.09403-0.12128-0.19213C29.97548,1.69834,30.16715,1.92388,30.30745,2.18782z"/>
	<path fill="#3B4850" d="M30.66487,2.72486c-0.07084-0.02639-0.10719-0.07556-0.10203-0.15217
		C30.61948,2.60845,30.64405,2.66541,30.66487,2.72486z"/>
	<path fill="#424F5A" d="M31.96872,6.53221c-0.10658,1.00747-0.4636,1.93635-0.88887,2.84705
		c-0.32952,0.70566-0.72877,1.36829-1.21554,1.97425c-0.41058,0.51111-0.87855,0.97035-1.4631,1.2906
		c-0.37675,0.2064-0.78505,0.32166-1.21555,0.32211c-3.32387,0.00342-6.64774,0.00178-9.97161,0.0017
		c0,0-0.00091,0.0007-0.00091,0.0007c-0.01482-0.01518-0.03675-0.02655-0.04514-0.0443
		c-0.13184-0.27881-0.36873-0.32096-0.65072-0.32071c-5.06168,0.00454-10.12337,0.00331-15.18505,0.00323
		c-0.08515,0-0.17041,0.00278-0.25542-0.00299c-0.30973-0.02102-0.55777-0.26534-0.58151-0.57274
		c-0.00611-0.07909-0.0035-0.15847-0.0035-0.23772C0.49172,9.98085,0.48851,8.16831,0.49512,6.3558
		C0.49615,6.07344,0.4622,5.82804,0.18029,5.68635C0.16601,5.67918,0.16108,5.66146,0.15277,5.64801
		C0.13751,5.5962,0.14454,5.54303,0.14453,5.49049C0.14411,4.03775,0.14414,2.585,0.14431,1.13225
		c0.00001-0.12122,0.00276-0.2434,0.03585-0.36029c0.12911-0.45604,0.42912-0.65962,0.97372-0.66014
		c1.22911-0.00117,2.45823-0.00051,3.68734,0.00019C4.88814,0.11204,4.93725,0.10007,4.98175,0.1266
		c0.01051,0.01072,0.02103,0.02145,0.03154,0.03217C5.05723,0.1833,5.07851,0.22728,5.10584,0.26587
		c0.08562,0.12089,0.20438,0.18116,0.35116,0.19029c0.08504,0.00529,0.17023,0.00305,0.25535,0.00305
		c7.02921,0.00009,14.05843,0.00485,21.08762-0.009c0.55968-0.0011,1.03749,0.15914,1.51261,0.41186
		c0.69665,0.37057,1.19547,0.93668,1.64141,1.56498c0.43927,0.61892,0.72266,1.31501,1.0313,1.99892
		c0.20488,0.45401,0.37775,0.92035,0.48071,1.40842c0.05555,0.26338,0.19679,0.47318,0.37417,0.66595
		C31.8741,6.54642,31.92451,6.52696,31.96872,6.53221z"/>
	<path fill="#283740" d="M31.84016,6.50034c-0.26317-0.11915-0.35275-0.36274-0.4074-0.60998
		c-0.1699-0.76852-0.50341-1.47361-0.82283-2.18571c-0.25175-0.56125-0.56846-1.08026-0.93437-1.57606
		c-0.5457-0.73941-1.25773-1.24079-2.11548-1.55687c-0.13321-0.04908-0.26405-0.06553-0.40351-0.06551
		C19.94526,0.50749,12.73396,0.50735,5.52265,0.50729c-0.29312,0-0.45705-0.1125-0.50935-0.34852
		c0.04704-0.05207,0.10962-0.0312,0.16553-0.0312c7.40356-0.00088,14.80712-0.00235,22.21067,0.0033
		c0.42177,0.00032,0.80492,0.17125,1.15941,0.3945c0.6695,0.42165,1.18589,0.99158,1.63674,1.63293
		c0.35991,0.51197,0.67547,1.04703,0.94767,1.60792c0.36505,0.7522,0.64393,1.53441,0.79585,2.35763
		c0.01796,0.0973,0.00464,0.20023,0.00653,0.30054C31.93695,6.49146,31.89261,6.50057,31.84016,6.50034z"/>
	<path fill="#4A5661" d="M4.98175,0.1266c-1.25588,0.0001-2.51176,0.0003-3.76764,0.00016
		C1.0539,0.12674,0.89995,0.1606,0.74576,0.20046C0.40828,0.28767,0.25901,0.53291,0.19552,0.84531
		c-0.03027,0.14896-0.03787,0.3014-0.03755,0.45506c0.00304,1.44764,0.00191,2.8953,0.00198,4.34295
		c-0.0104,0.01179-0.02142,0.01181-0.03298,0.00172c0,0,0.00049-0.0008,0.00049-0.0008
		c0.00006-1.53879,0.0028-3.0776-0.00196-4.61638c-0.001-0.32303,0.10357-0.58354,0.36884-0.77602
		C0.51472,0.23704,0.52697,0.2112,0.54301,0.1905c0.38713-0.15711,0.79347-0.09,1.19194-0.09286
		c1.08192-0.00777,2.16394-0.00295,3.2459-0.00313C4.98114,0.1052,4.98144,0.1159,4.98175,0.1266z"/>
	<path fill="#5A6875" d="M0.12697,5.64503C0.13796,5.64447,0.14895,5.6439,0.15995,5.64332
		c0.30887,0.12706,0.38294,0.2387,0.38295,0.57742c0.00001,1.90679,0.00715,3.81363-0.00686,5.72032
		c-0.0024,0.32639,0.29434,0.62226,0.63004,0.62164c5.16578-0.00954,10.33158-0.00664,15.49738-0.00656
		c0.32155,0,0.46365,0.10688,0.5497,0.41247c-5.35651-0.00014-10.71302-0.00022-16.06953-0.00053
		c-0.4732-0.00003-0.80114-0.20776-0.95549-0.61495c-0.04828-0.12738-0.06072-0.26479-0.0607-0.4024
		C0.12774,9.84883,0.12726,7.74693,0.12697,5.64503z"/>
	<path fill="#CC5861" d="M0.09848,12.42898c-0.02401-0.0526-0.05063-0.10462-0.03692-0.16558
		C0.09597,12.31369,0.1382,12.36233,0.09848,12.42898z"/>
	<path fill="#666666" d="M3.41606,0.98208c0.04798-0.04993,0.1102-0.03009,0.16635-0.03009
		c7.90338-0.00084,15.80677-0.00151,23.71015,0.00154c0.36245,0.00014,0.68213,0.15799,0.96591,0.36634
		c0.59553,0.43724,1.05575,0.9981,1.45386,1.61439c0.31794,0.49218,0.59629,1.00594,0.82544,1.54223
		c0.11346,0.26553,0.26995,0.5161,0.34883,0.78933c0.07347,0.25449,0.14543,0.51405,0.18703,0.77922
		c0.05889,0.37542,0.0305,0.74312-0.06083,1.10927c-0.01301,0.05218-0.02296,0.10272-0.06626,0.13931
		c-0.0505-0.0562-0.02286-0.11985-0.01498-0.18016c0.019-0.14552,0.04891-0.28938,0.0685-0.43495
		c0.01268-0.0943-0.01906-0.13817-0.11827-0.13461c-0.079,0.00284-0.15836,0.00273-0.23751-0.00148
		c-0.05025-0.00188-0.09924-0.01094-0.14721-0.02533c-0.04003-0.00483-0.08023-0.00793-0.12062-0.00907
		c-0.01633,0.00012-0.03248-0.00143-0.0486-0.00373c-0.05634-0.00989-0.11177-0.02524-0.16965-0.02604
		c-0.24803-0.0337-0.49177-0.08657-0.73205-0.15592c-0.39732-0.11467-0.73621-0.32389-1.02212-0.61952
		c-0.3553-0.36738-0.74683-0.68765-1.19557-0.93959c-0.37531-0.21071-0.78625-0.31728-1.19495-0.43262
		c-0.78421-0.22132-1.58199-0.38066-2.39456-0.44021c-0.52946-0.03881-1.06272-0.00626-1.59424-0.01074
		c-0.0836-0.0007-0.1713,0.016-0.24725-0.03789c-0.05136-0.06373-0.04033-0.14008-0.04066-0.21295
		c-0.00167-0.35921,0.00392-0.71851-0.00239-1.07763c-0.00447-0.2543-0.05413-0.49213-0.27517-0.66328
		c-0.27033-0.20931-0.69787-0.15792-0.87545,0.11259c-0.01012,0.03778-0.0373,0.06243-0.06928,0.08061
		c-0.22137,0.12589-0.32626,0.32711-0.37326,0.56636c-0.02768,0.30099-0.02759,0.29713-0.3313,0.28957
		c-0.31696-0.00789-0.63414-0.00117-0.95123-0.00274C18.77972,2.9339,18.69986,2.94064,18.62313,2.915
		c-0.08449-0.04027-0.07764-0.1197-0.07688-0.192c0.00168-0.15882-0.00557-0.31649-0.04049-0.47186
		c-0.10568-0.47025-0.70221-0.6585-1.06332-0.33619c-0.02869,0.02561-0.05,0.05427-0.05577,0.09288
		c-0.00982,0.0323-0.0333,0.0542-0.06097,0.06978c-0.22512,0.12668-0.33132,0.33062-0.37934,0.57299
		c-0.00674,0.03161-0.00531,0.06352-0.00827,0.09502c-0.01439,0.15335-0.045,0.18438-0.21458,0.1875
		c-0.3139,0.00576-0.62792,0.00271-0.94187,0.00134c-0.11655-0.00051-0.23432,0.0135-0.34909-0.0182
		c-0.08615-0.03834-0.0806-0.11775-0.07992-0.1904c0.00149-0.15904-0.00539-0.31695-0.04003-0.47269
		C15.20773,1.7816,14.61032,1.592,14.24875,1.91507c-0.02874,0.02568-0.04996,0.05445-0.05577,0.0931
		c-0.00986,0.03174-0.03279,0.0536-0.06012,0.06896c-0.22754,0.1278-0.33311,0.33444-0.38131,0.57887
		c-0.0211,0.26641-0.03395,0.27889-0.30741,0.28001c-0.33527,0.00138-0.67058-0.00211-1.00583,0.00152
		c-0.16422,0.00178-0.18087,0.02123-0.18654,0.18465c-0.00275,0.0792-0.00084,0.1585-0.00084,0.23776
		c-0.00005,2.17692-0.00016,4.35383,0.00033,6.53075c0.00003,0.14858-0.00248,0.29695-0.05302,0.43836
		c-0.02765,0.07736-0.05118,0.16608-0.1619,0.1677c-0.02201-0.03442-0.01905-0.07138-0.00626-0.10677
		c0.0861-0.2384,0.08669-0.48615,0.0866-0.73474c-0.00073-2.14815-0.00049-4.29629-0.00023-6.44443
		c0.00001-0.10021-0.00406-0.20059,0.00692-0.3003c0.00167-0.01884,0.00556-0.03759,0.01052-0.05582
		c0.03831-0.1982,0.02916-0.39719,0.00643-0.59596c-0.15767-0.3573-0.36832-0.51803-0.66923-0.50596
		c-0.1767,0.00709-0.3248,0.08319-0.45871,0.19354c-0.03035,0.02501-0.03356,0.05045-0.02666,0.08355
		c-0.0256,0.02838-0.05919,0.03731-0.09539,0.04101c-0.22331,0.01496-0.44668,0.00756-0.6699,0.00764
		C8.59358,2.0791,6.96671,2.07996,5.33986,2.07819C4.83682,2.07764,4.50864,1.82792,4.3681,1.34836
		C4.35787,1.2809,4.3576,1.21295,4.35973,1.14507c-0.00539-0.103-0.08014-0.11199-0.15839-0.11315
		C4.00456,1.029,3.80774,1.03282,3.61097,1.02985C3.54311,1.02882,3.47089,1.03846,3.41606,0.98208z"/>
	<path fill="#8A8A8A" d="M3.22486,12.08309c-0.67015-0.00022-1.34035-0.00492-2.01041,0.00279
		c-0.14912,0.00171-0.19824-0.03121-0.19797-0.18862C1.02131,9.01928,1.01665,6.14128,1.0259,3.26333
		c0.00081-0.25057,0.02414-0.50374,0.03044-0.75602C1.12958,2.41296,1.23485,2.43164,1.3342,2.42934
		c0.06157-0.00036,0.12325-0.00151,0.18478,0.00374c0.0614,0.00625,0.11955,0.02458,0.17672,0.04704
		c0.06678,0.03023,0.12402,0.0738,0.17672,0.12406c0.1582,0.13808,0.18951,0.31932,0.18932,0.51693
		C2.0601,4.82105,2.06067,6.521,2.0608,8.22095C2.06085,9.0065,2.39465,9.33676,3.1882,9.33693
		c0.53174,0.00012,1.0635-0.00224,1.59523,0.00089C5.16404,9.34005,5.42344,9.52523,5.4947,9.89057
		c0.079,0.40499,0.44299,0.74795,0.95695,0.74632c0.34563-0.00109,0.69126,0.0002,1.0369-0.00006
		c1.02624-0.00077,2.05248,0.00213,3.07844-0.00186c0.07711-0.00586,0.10665,0.0543,0.14573,0.10293
		c0.26566,0.33057,0.69279,0.34995,0.99275,0.04629c0.05092-0.05155,0.09066-0.11779,0.16985-0.13514
		c0.39326-0.02185,0.78695-0.01877,1.17971-0.00474c0.34262,0.01224,0.6041,0.28562,0.62623,0.62578
		c0.00685,0.10526,0.00532,0.21101,0.00052,0.31644c0.00002,0.06362,0.00124,0.12734-0.00124,0.19105
		c0.00044,0.01823,0.00021,0.03641,0.00009,0.05465c0.00296,0.04664-0.00001,0.09314-0.00162,0.13982
		c-0.00543,0.0493-0.00439,0.10198-0.06456,0.12283c-3.4214,0.00227-6.84272,0.00036-10.26403,0.00064
		C3.30841,12.09553,3.26504,12.1036,3.22486,12.08309z"/>
	<path fill="#686868" d="M30.62675,6.50002C30.68467,6.50001,30.7426,6.5,30.80052,6.5c0.29127,0,0.29034-0.00017,0.2358,0.28852
		c-0.03175,0.16802-0.05998,0.33669-0.08979,0.50507c-0.11044,0.44887-0.24902,0.8879-0.44229,1.30967
		c-0.18844,0.4112-0.38073,0.82059-0.61341,1.20891c-0.25691,0.42876-0.5384,0.84126-0.87118,1.2173
		c-0.15389,0.17389-0.29809,0.35701-0.50097,0.48021c-0.04473,0.02879-0.08354,0.06542-0.12753,0.09519
		c-0.1062,0.07406-0.21241,0.14812-0.31861,0.22218c-0.07993,0.0531-0.16883,0.08832-0.25612,0.12676l0.00009-0.00004
		c-0.0464,0.03822-0.11077,0.03167-0.15984,0.06324l-0.01556,0.00051l-0.01556-0.00015
		c-0.22996,0.09441-0.47232,0.07789-0.71276,0.07849c-0.06835,0.00017-0.13671-0.00026-0.20475,0.00024
		c-0.09979-0.02257-0.03658-0.07805-0.00784-0.09368c0.17832-0.09699,0.2392-0.27621,0.32655-0.43795
		c0.09698-0.17957,0.23774-0.32395,0.4366-0.37206c0.75286-0.18214,1.23122-0.70885,1.65023-1.29764
		c0.62844-0.88308,1.07006-1.85894,1.39124-2.89027C30.5565,6.83852,30.55719,6.6612,30.62675,6.50002z"/>
	<path fill="#67696A" d="M26.66656,12.08011c0.32129,0.0038,0.64288,0.01196,0.95897-0.06274
		c-0.09235,0.08932-0.21725,0.0683-0.3282,0.09296c-0.0456,0.01013-0.09538,0.00182-0.14325,0.00182
		c-7.90472,0.00001-15.80943,0.00009-23.71415-0.00125c-0.07163-0.00001-0.14947,0.0262-0.21508-0.02782
		c0.07446-0.00112,0.14893-0.00324,0.22339-0.00325c3.39514-0.00044,6.79027-0.00069,10.18541-0.00096
		c0.07798-0.06206,0.17117-0.04968,0.26056-0.04982c0.7023-0.00109,1.40461-0.00058,2.10692-0.00058
		c3.453-0.00001,6.906-0.00028,10.359,0.00124C26.46354,12.02974,26.57469,12.00281,26.66656,12.08011z"/>
	<path fill="#6F6F6F" d="M1.69252,2.50621C1.63929,2.49499,1.58605,2.48377,1.53281,2.47255
		c-0.04656-0.05121-0.04705-0.11489-0.0473-0.1779C1.48446,2.03258,1.48375,1.77051,1.48587,1.50843
		c0.0006-0.07377,0.01524-0.14564,0.02831-0.21795c0.03766-0.20831,0.17486-0.29966,0.37458-0.31981
		C2.0046,0.9717,2.12116,0.95251,2.23602,0.98253c0.39336-0.00014,0.78671-0.00029,1.18006-0.00044
		c0.27896,0.00034,0.55816,0.00747,0.83679-0.00197c0.13004-0.00441,0.17187,0.0425,0.15405,0.16152
		C4.33482,1.20276,4.24692,1.19023,4.16313,1.19039C3.53635,1.1916,2.90958,1.19031,2.2828,1.19125
		c-0.45479,0.00068-0.53878,0.08479-0.5402,0.5362C1.74199,1.92257,1.7441,2.11771,1.74153,2.31281
		C1.74064,2.38034,1.74806,2.45161,1.69252,2.50621z"/>
	<path fill="#666768" d="M2.23602,0.98253C2.11877,0.98285,2.00153,0.98317,1.88428,0.98349
		C1.80356,1.01116,1.71716,1.02847,1.6353,1.02578C1.48093,1.0207,1.43272,1.10079,1.41411,1.23325
		C1.36755,1.56466,1.4019,1.89742,1.39009,2.22929c-0.00296,0.08314,0.0135,0.17067-0.04902,0.24213
		C1.24462,2.47138,1.14796,2.46975,1.05633,2.5073c-0.08524-0.45416-0.06004-0.91346-0.0693-1.37148
		C0.98402,0.98696,1.03659,0.94425,1.18063,0.9485c0.30179,0.00891,0.60404,0.00199,0.9061,0.00339
		C2.13764,0.95213,2.19417,0.93493,2.23602,0.98253z"/>
	<path fill="#67696A" d="M27.81641,11.95382c0.07462-0.06366,0.16117-0.10356,0.25611-0.12676
		C28.00749,11.90981,27.91988,11.9476,27.81641,11.95382z"/>
	<path fill="#67696A" d="M27.65667,12.01701c0.04156-0.05029,0.09724-0.06539,0.15984-0.06324
		C27.78415,12.02698,27.7184,12.01699,27.65667,12.01701z"/>
	<path fill="#67696A" d="M28.39114,11.60488c0.02815-0.05069,0.063-0.09255,0.12754-0.09519
		C28.49095,11.56095,28.45579,11.60239,28.39114,11.60488z"/>
	<path fill="#797979" d="M13.63746,11.60506c-0.01345-0.16183,0.02518-0.32614-0.03051-0.4863
		c-0.09293-0.26726-0.31632-0.43211-0.59916-0.43311c-0.3879-0.00138-0.77581-0.00079-1.16371-0.00105
		c-0.02127-0.03052-0.00975-0.05329,0.01722-0.07253c0.07309-0.01828,0.10192-0.10385,0.17885-0.11635
		c0.15071-0.13327,0.15738-0.31622,0.15759-0.49309c0.00273-2.29721,0.00167-4.59442,0.00203-6.89164
		c0.00004-0.25544-0.02177-0.22451,0.23401-0.22534c0.35637-0.00115,0.71293-0.00677,1.06904,0.00286
		c0.14497,0.00392,0.22612-0.02269,0.19834-0.18584c-0.00609-0.03577-0.00402-0.07446,0.02656-0.10336
		c0.07857,0.07818,0.05291,0.17855,0.05304,0.27043c0.00186,1.24117,0.00122,2.48235,0.00123,3.72352
		c0.00001,1.2042-0.00006,2.40841,0.00009,3.61261c0.00001,0.1003-0.00304,0.20091,0.02508,0.29895
		c0.06807,0.23732,0.21738,0.40168,0.45961,0.4602c0.23959,0.05788,0.45298-0.00439,0.62456-0.18765
		c0.0399-0.04262,0.07269-0.09108,0.11282-0.1328c0.10903-0.03478,0.20446-0.08487,0.22811-0.21156
		c0.02599-0.0899,0.07048-0.17233,0.10244-0.26002c0.02346-0.07809,0.0128-0.15786,0.01283-0.23656
		c0.00064-2.25401,0.00031-4.50802,0.00121-6.76203c0.00004-0.08882-0.01503-0.17988,0.02308-0.26586
		c0.00707-0.00776,0.01424-0.01546,0.0214-0.02315c0.42958-0.00001,0.85929-0.00611,1.28867,0.00319
		c0.15623,0.00338,0.24562-0.02501,0.21283-0.20201c-0.00575-0.03105,0.00112-0.06318,0.02661-0.08726
		c0.07857,0.07818,0.0529,0.17855,0.05304,0.27043c0.00186,1.24117,0.00122,2.48235,0.00123,3.72352
		c0.00002,1.2042-0.00006,2.40841,0.00009,3.61261c0.00002,0.1003-0.00304,0.20091,0.02508,0.29895
		c0.06807,0.23732,0.21738,0.40168,0.45961,0.4602c0.23959,0.05788,0.45298-0.00439,0.62455-0.18766
		c0.0399-0.04262,0.07269-0.09108,0.11282-0.1328c0.10903-0.03478,0.20446-0.08486,0.22811-0.21156
		c0.02599-0.0899,0.07048-0.17233,0.10244-0.26002c0.02346-0.07809,0.01281-0.15786,0.01283-0.23656
		c0.00063-2.254,0.00031-4.50801,0.00121-6.76201c0.00004-0.08882-0.01502-0.17988,0.02307-0.26586
		c0.00707-0.00776,0.01423-0.01546,0.02139-0.02316c0.39877-0.00001,0.79763,0.00451,1.19625-0.00331
		c0.09575-0.00188,0.20284,0.07144,0.27564,0.01402c0.07592-0.05987,0.00665-0.18121,0.03821-0.27113
		c0.00333-0.00948,0.01189-0.01715,0.01803-0.02566c0.07858,0.07822,0.05286,0.17862,0.05299,0.27053
		c0.00185,1.25742,0.00122,2.51484,0.00124,3.77225c0.00001,1.18874-0.00007,2.37747,0.00011,3.56621
		c0.00001,0.09504-0.0033,0.19045,0.02145,0.28364c0.06337,0.23862,0.20972,0.40613,0.45052,0.46958
		c0.24504,0.06457,0.46341,0.00249,0.63915-0.18628c0.03618-0.03887,0.06697-0.08211,0.10193-0.1213
		c0.02813-0.04213,0.07733-0.03395,0.11748-0.04787c0.01031-0.00827,0.02074-0.01621,0.03068-0.02487
		c0.04869-0.04107,0.0817-0.09111,0.09168-0.15496c0.02596-0.08797,0.06967-0.16867,0.10064-0.25474
		c0.02154-0.07294,0.01199-0.14734,0.01201-0.22079c0.00058-1.94705,0.00026-3.8941,0.0011-5.84114
		c0.00003-0.08357-0.01368-0.1693,0.02315-0.24991c0.00706-0.00773,0.01421-0.0154,0.02135-0.02307
		c0.39861-0.00001,0.79741,0.00785,1.19579-0.00166c0.82608-0.01972,1.63287,0.11055,2.43154,0.29961
		c0.52438,0.12414,1.0505,0.24496,1.54891,0.45856c0.36349,0.15578,0.68175,0.37855,0.98915,0.62215
		c0.28263,0.22397,0.50671,0.5098,0.7945,0.72724c0.31581,0.2386,0.68492,0.34889,1.0653,0.42955
		c0.12363,0.02621,0.24916,0.04365,0.37382,0.0651c0.03753,0.04948,0.01701,0.10127,0.00473,0.15186
		c-0.30085,1.23874-0.82553,2.37345-1.61728,3.37908c-0.3018,0.38333-0.6587,0.6972-1.15574,0.82826
		c-0.31252,0.08241-0.56104,0.27358-0.71846,0.56561c-0.11435,0.21213-0.28885,0.29397-0.53604,0.29367
		c-4.08617-0.00499-8.17235-0.00346-12.25852-0.00429C13.80941,11.65131,13.71547,11.66934,13.63746,11.60506z"/>
	<path fill="#797979" d="M10.60238,10.65477c-0.0533,0.0533-0.12104,0.02943-0.18197,0.02949
		c-1.32422,0.00144-2.64846-0.00396-3.97263,0.00382c-0.46782,0.00275-0.93758-0.32904-0.99741-0.79441
		C5.4099,9.57887,5.1385,9.38585,4.81468,9.38554c-0.60627-0.00059-1.21254,0.00107-1.8188-0.00059
		c-0.43915-0.00121-0.81489-0.2658-0.93041-0.65605C2.03127,8.61337,2.01077,8.49497,2.01088,8.3722
		c0.00161-1.73713-0.00136-3.47427,0.00421-5.21138c0.00069-0.21643-0.03286-0.40689-0.19466-0.56087
		C1.84315,2.28442,1.82867,1.96837,1.83411,1.6526C1.83899,1.36913,1.92234,1.28364,2.207,1.28235
		c0.66295-0.00301,1.32592-0.00146,1.98888-0.00051c0.07385,0.00011,0.1499-0.00426,0.21134,0.04986
		c0.1607,0.48508,0.45069,0.69757,0.95207,0.69757c1.78762,0.00001,3.57524-0.00005,5.36286,0.00019
		c0.0691,0.00001,0.13821,0.00277,0.20731,0.00425c-0.00725,0.07161-0.06591,0.10534-0.1123,0.14685
		c-0.14634,0.13095-0.22052,0.29391-0.22623,0.4886c-0.00155,0.05275-0.00126,0.10551-0.00126,0.15827
		c-0.00004,2.45344,0.00153,4.90688-0.00367,7.3603C10.58568,10.34434,10.6491,10.49772,10.60238,10.65477z"/>
	<path fill="#FEFEFE" d="M18.26456,10.61632c-0.26108,0.43371-0.69476,0.55287-1.05712,0.28811
		c-0.17263-0.12613-0.26457-0.29923-0.27941-0.51105c-0.00553-0.07889-0.00444-0.15832-0.00443-0.2375
		c0.00035-2.47142,0.00097-4.94284,0.00135-7.41426c0.00001-0.04744-0.00236-0.09487-0.00362-0.14231
		c0.03579-0.28898,0.20845-0.47353,0.46175-0.59655c0.02884-0.03713,0.06954-0.0457,0.11345-0.04666
		c0.13279-0.00698,0.17964,0.06587,0.17667,0.18642c-0.00091,0.03686,0.00069,0.07382,0.00069,0.11074
		c-0.0002,2.45245,0.00059,4.9049-0.00016,7.35691c-0.0523,0.36571,0.27425,0.66859,0.59751,0.69872
		c0.01628,0.00605,0.03004,0.01562,0.04164,0.02841c0.03223,0.05554,0.02817,0.11425,0.01575,0.17379
		C18.31616,10.5514,18.30348,10.59179,18.26456,10.61632z"/>
	<path fill="#FEFEFE" d="M21.45818,10.61632c-0.2611,0.43371-0.69477,0.55286-1.05712,0.28811
		c-0.17263-0.12613-0.26439-0.29924-0.27946-0.51104c-0.00524-0.07363-0.00438-0.14776-0.00438-0.22166
		c0.00036-2.46614,0.00098-4.93228,0.00135-7.39842c0.00001-0.058-0.00236-0.116-0.00361-0.174
		c0.03579-0.28897,0.20845-0.47352,0.46174-0.59656c0.02885-0.03712,0.06954-0.04569,0.11346-0.04666
		c0.13279-0.00698,0.17964,0.06588,0.17667,0.18642c-0.00091,0.03686,0.00069,0.07382,0.00069,0.11074
		c-0.0002,2.45245,0.00059,4.9049-0.00016,7.35691c-0.0523,0.36576,0.27431,0.6686,0.59751,0.69872
		c0.01628,0.00605,0.03004,0.01562,0.04164,0.0284c0.03223,0.05554,0.02817,0.11425,0.01576,0.17379
		C21.50979,10.55141,21.49698,10.59173,21.45818,10.61632z"/>
	<path fill="#FEFEFE" d="M15.07095,10.61632c-0.26108,0.43372-0.69475,0.55287-1.05712,0.28812
		c-0.17264-0.12613-0.26457-0.29923-0.27941-0.51105c-0.00553-0.07889-0.00444-0.15832-0.00443-0.2375
		c0.00035-2.47142,0.00097-4.94284,0.00135-7.41427c0.00001-0.04744-0.00236-0.09487-0.00362-0.14231
		c0.03581-0.28897,0.20844-0.47354,0.46176-0.59655c0.02884-0.03713,0.06954-0.0457,0.11346-0.04666
		c0.13279-0.00698,0.17963,0.06589,0.17666,0.18643c-0.00091,0.03686,0.00069,0.07382,0.00069,0.11074
		c-0.0002,2.45245,0.00059,4.90489-0.00016,7.3569c-0.0523,0.36577,0.27432,0.66862,0.59751,0.69872
		c0.01628,0.00605,0.03003,0.01562,0.04164,0.02841c0.03223,0.05554,0.02818,0.11425,0.01575,0.17379
		C15.12255,10.5514,15.10987,10.59179,15.07095,10.61632z"/>
	<path fill="#FEFEFE" d="M10.60238,10.65477c-0.05883-0.14471-0.06702-0.296-0.06695-0.45012
		c0.00112-2.47254,0.00397-4.94509-0.00298-7.4176c-0.00094-0.33321,0.10544-0.58481,0.39701-0.75334
		c0.02589-0.00239,0.0512-0.00597,0.06641-0.03094c0.02885-0.03713,0.06954-0.0457,0.11346-0.04666
		c0.13281-0.00698,0.17963,0.06591,0.17666,0.18645c-0.00091,0.03686,0.00069,0.07383,0.00069,0.11074
		c-0.0002,2.45256,0.00059,4.90512-0.00016,7.35725c-0.05119,0.33704,0.23511,0.65522,0.6031,0.70084
		c0.01666,0.00719,0.02994,0.0182,0.04038,0.03288c0.03866,0.10188,0.02762,0.19437-0.05237,0.2738
		c-0.01118,0.02218-0.02237,0.04436-0.03356,0.06654C11.48828,11.17696,10.94186,11.16383,10.60238,10.65477z"/>
	<path fill="#757575" d="M13.63746,11.60506c4.18609-0.00006,8.37218-0.00149,12.55826,0.00386
		c0.20889,0.00027,0.35041-0.0704,0.43982-0.24511c0.17855-0.34888,0.47692-0.54837,0.84241-0.64194
		c0.45168-0.11563,0.75619-0.42271,1.03175-0.75689c0.70191-0.85118,1.15142-1.8371,1.49642-2.87334
		c0.07117-0.21377,0.11623-0.43612,0.17332-0.6545c0.05326,0.01044,0.10653,0.02087,0.15979,0.0313
		c0.06602,0.1664-0.01029,0.32495-0.0525,0.4739c-0.14692,0.51844-0.33558,1.02321-0.5881,1.50224
		c-0.15503,0.29409-0.2842,0.60267-0.47095,0.8789c-0.20002,0.29587-0.37945,0.60828-0.62659,0.86943
		c-0.34438,0.36392-0.72431,0.67518-1.23117,0.79998c-0.2683,0.06606-0.45182,0.24971-0.55937,0.49886
		c-0.10041,0.2326-0.27795,0.33587-0.52266,0.34618c-0.04254,0.00179-0.08514,0.00103-0.12772,0.00103
		c-4.08724,0.00004-8.17448,0.00016-12.26171-0.00089c-0.08823-0.00002-0.18258,0.0225-0.26095-0.04277
		C13.6375,11.73188,13.63748,11.66847,13.63746,11.60506z"/>
	<path fill="#6B6B6B" d="M26.66656,12.08011c-4.34428-0.00041-8.68856-0.00081-13.03288-0.00123
		c0.00146-0.04167,0.00295-0.08332,0.00444-0.12498c0.07779-0.065,0.17186-0.04631,0.26051-0.04641
		c1.10704-0.0012,2.21408-0.00077,3.32113-0.00078c2.95389-0.00001,5.90777,0.00002,8.86166-0.0001
		c0.10106,0,0.20202-0.0079,0.30277-0.01072c0.23096-0.00647,0.38057-0.13647,0.47767-0.3201
		c0.15334-0.29,0.38345-0.47343,0.69487-0.56569c0.54574-0.16168,0.93915-0.52299,1.27186-0.96185
		c0.4079-0.53803,0.74727-1.11316,1.02106-1.73233c0.18653-0.42183,0.34836-0.85019,0.49811-1.28461
		c0.04329-0.12556,0.06227-0.25657,0.08937-0.38578c0.01291-0.06159,0.01578-0.12682,0.06178-0.17711
		c0.03988,0.02142,0.08133,0.03654,0.12782,0.03159c0.00275,0.4108-0.16323,0.7815-0.30096,1.15372
		c-0.29882,0.80757-0.68397,1.57516-1.18798,2.27833c-0.29846,0.41639-0.63521,0.79728-1.08016,1.07099
		c-0.16574,0.10196-0.35163,0.14581-0.53199,0.20465c-0.22494,0.07338-0.39428,0.20655-0.48556,0.42193
		C26.95977,11.81917,26.84576,11.97459,26.66656,12.08011z"/>
	<path fill="#6F6F6F" d="M30.49892,6.46843c-0.00956,0.22182-0.06048,0.43411-0.13016,0.64518
		c-0.11029,0.33407-0.21827,0.66951-0.36286,0.98992c-0.20553,0.45544-0.41704,0.90857-0.68839,1.33155
		c-0.2137,0.33311-0.4468,0.65133-0.7061,0.95011c-0.30216,0.34817-0.68994,0.56496-1.12683,0.70154
		c-0.2513,0.07856-0.43823,0.23344-0.55249,0.46824c-0.13362,0.27456-0.35201,0.40292-0.65601,0.39912
		c-0.19145-0.00239-0.38297-0.00044-0.57445-0.00043c-4.02118,0.00008-8.04236,0.00016-12.06352,0.00024
		c-0.00005-0.04231-0.00011-0.08463-0.00017-0.12694c0.06049-0.03104,0.12545-0.01463,0.18796-0.01465
		c4.1293-0.00094,8.25861-0.00255,12.38791,0.00288c0.2823,0.00037,0.47518-0.08369,0.59824-0.34552
		c0.11664-0.24817,0.31894-0.4147,0.58594-0.50086c0.25204-0.08133,0.50847-0.15837,0.71402-0.33493
		c0.24454-0.21005,0.48239-0.43017,0.67569-0.68749c0.20817-0.27711,0.40463-0.56428,0.57144-0.86893
		c0.40648-0.74238,0.76542-1.50457,0.96756-2.33074c0.02242-0.09161,0.01366-0.18811,0.04457-0.27836
		C30.41381,6.46839,30.45637,6.46841,30.49892,6.46843z"/>
	<path fill="#616364" d="M11.87764,10.61806c0.01957-0.09284,0.05919-0.18328,0.03421-0.28146
		c-0.02174-0.04518-0.01309-0.09339-0.01308-0.1404c0.0007-2.39037-0.00022-4.78075,0.00046-7.17112
		c0.00002-0.07366-0.00614-0.14785,0.01102-0.2206c0.11117-0.11586,0.17941-0.00818,0.25737,0.04915
		c0,2.26487-0.00076,4.52975,0.00094,6.79462c0.00022,0.28985-0.00083,0.57759-0.12842,0.84747
		C11.99133,10.5435,11.97388,10.63236,11.87764,10.61806z"/>
	<path fill="#717171" d="M30.37126,6.46837c0.01349,0.44075-0.182,0.82929-0.31965,1.23064
		c-0.16226,0.4731-0.39872,0.91596-0.63773,1.35286c-0.32689,0.59754-0.73511,1.14048-1.25405,1.59332
		c-0.2224,0.19407-0.50247,0.2674-0.77159,0.36174c-0.27657,0.09696-0.45148,0.29907-0.59058,0.54049
		c-0.10084,0.17501-0.22636,0.283-0.452,0.28276c-4.23591-0.00453-8.47184-0.00328-12.70774-0.00324
		c-0.00079-0.01054-0.00093-0.0211-0.00041-0.03166c4.18176-0.00007,8.36353-0.0013,12.54528,0.00224
		c0.29679,0.00025,0.50411-0.08704,0.61765-0.38253c0.08009-0.20844,0.2519-0.36145,0.46663-0.43505
		c0.29835-0.10227,0.5901-0.20985,0.85623-0.38505c0.08568-0.05641,0.1225-0.14155,0.19396-0.20319
		c0.42856-0.36968,0.72351-0.83929,1.00167-1.32277c0.38525-0.66961,0.70021-1.36899,0.92179-2.10813
		c0.04787-0.15969,0.06646-0.32803,0.09853-0.49239C30.34991,6.46841,30.36059,6.46839,30.37126,6.46837z"/>
	<path fill="#5C5D5F" d="M20.66014,1.99599c-0.02782,0.00225-0.05564,0.0045-0.08345,0.00676
		c-0.07944-0.01165-0.05123-0.04446-0.01559-0.07856c0.23754-0.22731,0.64751-0.31248,0.95348-0.05194
		c0.20599,0.1754,0.25908,0.40369,0.26354,0.64902c0.00796,0.43831,0.00229,0.87687,0.00232,1.31533
		c0,0,0.00031,0.00033,0.00031,0.00033c-0.01467,0.01186-0.03063,0.02166-0.04785,0.02961
		c-0.07665,0.01655-0.15204,0.02305-0.2201-0.02797c-0.01174-0.01601-0.01981-0.03366-0.02464-0.05285
		c-0.01751-0.33174-0.00359-0.66375-0.00795-0.99545c0-0.03514,0.0005-0.07046,0.0012-0.10555
		c-0.00172-0.06154,0.01283-0.1251-0.02179-0.18293c-0.08974-0.23794-0.24452-0.40901-0.49846-0.47828
		C20.86167,2.00413,20.76529,1.95358,20.66014,1.99599z"/>
	<path fill="#757575" d="M4.40722,1.33169c-0.74233,0-1.48466-0.00017-2.22699,0.00011
		C1.94021,1.33189,1.88455,1.38844,1.88429,1.63084C1.884,1.89932,1.88434,2.1678,1.88413,2.43629
		c-0.00005,0.06247,0.01116,0.1297-0.0637,0.16366C1.7778,2.56869,1.73516,2.53744,1.69252,2.50619
		C1.69256,2.20621,1.69145,1.9062,1.69292,1.6062c0.00167-0.33973,0.12704-0.4639,0.4716-0.46439
		c0.74746-0.00107,1.49493-0.00023,2.24239-0.00018C4.40702,1.20499,4.40712,1.26834,4.40722,1.33169z"/>
	<path fill="#5C5D5F" d="M14.27293,1.99599c-0.02782,0.00225-0.05563,0.0045-0.08345,0.00676
		c-0.07938-0.01161-0.05132-0.04439-0.01564-0.07854c0.23748-0.22726,0.64714-0.31226,0.95348-0.05222
		c0.20155,0.17108,0.24839,0.39406,0.26435,0.63319c0.00842,0.12621,0.00154,0.25343,0.00157,0.3802
		c0,0,0.00029,0.00033,0.00029,0.00033c-0.01454,0.01174-0.03031,0.02155-0.04724,0.02961
		c-0.0746,0.0177-0.14788,0.02228-0.21592-0.02242c-0.04717-0.06228-0.03246-0.13532-0.03609-0.20508
		c-0.00267-0.06189,0.01263-0.12591-0.02141-0.18431C14.98355,2.2647,14.8286,2.0932,14.5741,2.0236
		C14.47456,2.00414,14.37814,1.95357,14.27293,1.99599z"/>
	<path fill="#5C5D5F" d="M17.46654,1.996c-0.02782,0.00225-0.05563,0.0045-0.08345,0.00676
		c-0.07937-0.01161-0.05132-0.04439-0.01564-0.07854c0.23747-0.22726,0.64714-0.31226,0.95348-0.05222
		c0.20154,0.17108,0.24841,0.39404,0.26433,0.63319c0.0084,0.12622,0.00154,0.25343,0.00157,0.3802
		c0,0,0.00031,0.00033,0.00031,0.00033c-0.01454,0.01175-0.03031,0.02155-0.04724,0.02961
		c-0.07461,0.0177-0.14788,0.02228-0.21593-0.02242c-0.04716-0.06228-0.03246-0.13532-0.03609-0.20508
		c-0.00267-0.06189,0.01263-0.12591-0.02141-0.18431c-0.08933-0.2388-0.24425-0.41032-0.49876-0.47991
		C17.66817,2.00414,17.57175,1.95357,17.46654,1.996z"/>
	<path fill="#5C5D5F" d="M12.16763,2.85362c-0.08432-0.01188-0.15778-0.04948-0.228-0.09479
		c-0.02493-0.02367-0.03118-0.05455-0.0344-0.08661c-0.00563-0.05861,0.00806-0.12023-0.02775-0.17422
		c-0.09043-0.2361-0.24485-0.40596-0.49737-0.47458c-0.09944-0.01929-0.19574-0.06984-0.30079-0.02743
		c-0.02782,0.00225-0.05563,0.0045-0.08345,0.00676c-0.07895-0.01148-0.05166-0.04408-0.0158-0.07839
		c0.23711-0.22689,0.64873-0.31626,0.95139-0.05276c0.11141,0.097,0.18267,0.21511,0.23621,0.34792
		c0.02499,0.21137,0.02505,0.42275-0.00004,0.63412V2.85362z"/>
	<path fill="#616364" d="M12.16763,2.85364c0.00001-0.21137,0.00003-0.42275,0.00004-0.63412
		C12.2204,2.4309,12.22058,2.64227,12.16763,2.85364z"/>
	<path fill="#6A6A6A" d="M1.34108,2.47143c0.00008-0.29494,0.00016-0.58988,0.00024-0.88481c0.00001-0.02107,0-0.04213,0-0.0632
		c0.00001-0.54247,0.00001-0.54247,0.54297-0.53993c-0.31611,0.08189-0.3559,0.32288-0.35227,0.59385
		c0.004,0.29836,0.00084,0.59682,0.00079,0.89523C1.4689,2.47218,1.40499,2.4718,1.34108,2.47143z"/>
	<path fill="#616365" d="M15.13323,2.88566c0.07604-0.00007,0.15209-0.00015,0.22813-0.00022
		c0.02807,0.0495,0.01475,0.10348,0.01477,0.15523c0.00074,2.34847,0.00074,4.69694-0.00001,7.04541
		c-0.00002,0.05172,0.01348,0.10574-0.01503,0.15513c-0.04238,0.06961-0.07745,0.14233-0.09562,0.22221
		c-0.03129,0.0463-0.06426,0.09602-0.11404,0.11912c-0.06277,0.02912-0.06788-0.00884-0.04664-0.05791
		c0.00022-0.06268,0.00043-0.12535,0.00065-0.18803c-0.02168-0.04523-0.01308-0.09348-0.01307-0.14054
		c0.00069-2.35016-0.00043-4.70032,0.00122-7.05048C15.09365,3.05813,15.0703,2.96468,15.13323,2.88566z"/>
	<path fill="#616365" d="M18.32684,2.88566c0.07604-0.00008,0.15209-0.00015,0.22813-0.00023
		c0.02807,0.0495,0.01475,0.10348,0.01476,0.15523c0.00074,2.34847,0.00074,4.69694-0.00001,7.04541
		c-0.00002,0.05172,0.01348,0.10574-0.01503,0.15513c-0.04239,0.06961-0.07744,0.14233-0.09562,0.22221
		c-0.03129,0.0463-0.06426,0.09602-0.11404,0.11912c-0.06277,0.02913-0.06789-0.00883-0.04664-0.05791
		c0.00022-0.06268,0.00044-0.12535,0.00066-0.18803c-0.02169-0.04523-0.01309-0.09348-0.01307-0.14054
		c0.00068-2.35016-0.00043-4.70032,0.00122-7.05048C18.28726,3.05813,18.26391,2.96468,18.32684,2.88566z"/>
	<path fill="#616465" d="M21.52036,3.83693c0.07607-0.00008,0.15215-0.00017,0.22822-0.00025
		c0.02807,0.04949,0.01474,0.10346,0.01476,0.1552c0.00075,2.03141,0.00076,4.06283-0.00001,6.09424
		c-0.00002,0.05171,0.01346,0.10572-0.015,0.15511c-0.0424,0.0696-0.07743,0.14233-0.09564,0.22219
		c-0.03629,0.05784-0.09286,0.09954-0.12786,0.1584v-0.00006c-0.0784-0.00995-0.04281-0.05785-0.03284-0.09723
		c0.0002-0.06264,0.0004-0.12528,0.00061-0.18792c-0.02164-0.04524-0.01302-0.09348-0.01301-0.14053
		c0.00069-2.03307-0.00047-4.06615,0.00123-6.09922C21.4809,4.00941,21.45756,3.91598,21.52036,3.83693z"/>
	<path fill="#6A6B6C" d="M15.36109,10.24121c0.00009-2.45192,0.00018-4.90385,0.00027-7.35577
		c0.01072,0.00009,0.02145,0.00019,0.03217,0.00028c-0.00007,2.38655,0.00011,4.7731-0.00152,7.15965
		C15.39196,10.11071,15.41892,10.18357,15.36109,10.24121z"/>
	<path fill="#6A6B6C" d="M18.5547,10.24121c0.00009-2.45192,0.00018-4.90385,0.00027-7.35577
		c0.01072,0.00009,0.02144,0.00019,0.03217,0.00028c-0.00007,2.38655,0.00011,4.7731-0.00152,7.15965
		C18.58557,10.11071,18.61253,10.18356,18.5547,10.24121z"/>
	<path fill="#6A6B6C" d="M21.74834,10.24122c0.00008-2.13485,0.00016-4.2697,0.00024-6.40455
		c0.01072,0.00008,0.02144,0.00017,0.03217,0.00026c-0.00007,2.06949,0.00014,4.13898-0.00152,6.20846
		C21.77917,10.11074,21.80611,10.18357,21.74834,10.24122z"/>
	<path fill="#6A6B6C" d="M15.10479,10.52462c0.00461,0.03624,0.0145,0.06171,0.05499,0.02742
		c0.03508-0.02971,0.07045-0.0591,0.10569-0.08863c-0.01065,0.09485-0.09178,0.13737-0.15244,0.19166
		c-0.03217,0.02879-0.0345-0.01758-0.04207-0.03875C15.08223,10.58575,15.09351,10.55519,15.10479,10.52462z"/>
	<path fill="#6A6B6C" d="M18.2984,10.52463c0.00461,0.03624,0.01451,0.06171,0.05499,0.02742
		c0.03509-0.02971,0.07045-0.0591,0.10569-0.08864c-0.01065,0.09484-0.09177,0.13737-0.15244,0.19165
		c-0.03217,0.02878-0.03451-0.01757-0.04208-0.03875C18.27584,10.58575,18.28712,10.55519,18.2984,10.52463z"/>
	<path fill="#6A6B6C" d="M21.52483,10.62182c0.00809-0.08027,0.06854-0.11889,0.12786-0.1584
		C21.64486,10.54389,21.58451,10.58258,21.52483,10.62182z"/>
	<path fill="#6A6B6C" d="M21.492,10.52453c0.00384,0.03477-0.00524,0.07385,0.03284,0.09723
		c-0.01343,0.01394-0.02592,0.03828-0.04049,0.03958c-0.02657,0.00238-0.02023-0.02768-0.02616-0.04501
		C21.46945,10.58572,21.48072,10.55512,21.492,10.52453z"/>
	<path fill="#DCDEE0" d="M17.79122,1.99651c0.26629,0.05705,0.40882,0.24378,0.50704,0.47696
		c0.02872,0.04793,0.01672,0.09771,0.00681,0.14746c-0.01012,0.07361-0.00553,0.14756-0.00554,0.22131
		c-0.00028,2.41579-0.00005,4.83157-0.00094,7.24736c-0.00003,0.08308,0.0176,0.16971-0.03105,0.24733
		c-0.35263-0.00809-0.63828-0.30616-0.63858-0.66636c0.03149-0.06004,0.01539-0.12465,0.01541-0.18683
		c0.00096-2.44621,0.00093-4.89243,0.00044-7.33864C17.64479,2.0455,17.63015,1.93717,17.79122,1.99651z"/>
	<path fill="#E4E3E2" d="M18.26754,10.33693c-0.00003-2.51849-0.00023-5.03697,0.00097-7.55545
		c0.00003-0.06069-0.02314-0.12766,0.02871-0.18131c0.0241,0.01887,0.01748,0.05016,0.03019,0.07363
		c-0.00019,0.07062-0.00038,0.14124-0.00057,0.21186c-0.00229,0.06314-0.00656,0.12628-0.00657,0.18941
		c-0.00034,2.35314-0.00016,4.70627-0.00091,7.05941c-0.00002,0.06758,0.01439,0.13757-0.02032,0.20211l-0.01575,0.00049
		L18.26754,10.33693z"/>
	<path fill="#D9DBDE" d="M17.79122,1.99651c-0.10929-0.01467-0.13469,0.03992-0.13232,0.13889
		c0.00558,0.23235,0.00178,0.46492,0.00178,0.6974c0,2.21386,0.00026,4.42771-0.00127,6.64157
		c-0.00005,0.06548,0.02682,0.13825-0.03044,0.19621c-0.00035-2.50114-0.00171-5.00228,0.00188-7.50341
		c0.00018-0.12831-0.03059-0.18839-0.1643-0.17117C17.57485,1.9433,17.68306,1.95474,17.79122,1.99651z"/>
	<path fill="#DCDEE0" d="M20.98485,1.9965c0.26626,0.05708,0.40885,0.24373,0.50697,0.47698
		c0.02883,0.04791,0.01675,0.09769,0.00687,0.14744c-0.01012,0.07361-0.00554,0.14756-0.00554,0.22131
		c-0.00028,2.41579-0.00005,4.83158-0.00094,7.24737c-0.00003,0.08308,0.0176,0.16971-0.03105,0.24733
		c-0.35263-0.00809-0.63827-0.30616-0.63858-0.66636c0.03149-0.06004,0.01539-0.12465,0.01541-0.18683
		c0.00096-2.44621,0.00093-4.89243,0.00043-7.33864C20.8384,2.04546,20.82382,1.93721,20.98485,1.9965z"/>
	<path fill="#E4E3E2" d="M21.46115,10.33693c-0.00003-2.51848-0.00023-5.03695,0.00097-7.55542
		c0.00003-0.0607-0.02311-0.12765,0.02866-0.18134c0.02419,0.01884,0.01752,0.05015,0.0302,0.07364
		c0.00022,0.02518,0.00044,0.05037,0.00066,0.07555c-0.02179,0.35491-0.02177,0.70982-0.00002,1.06473
		c-0.00623,0.0073-0.00664,0.01491-0.00125,0.02284c-0.00228,0.06312-0.00653,0.12625-0.00654,0.18937
		c-0.00035,2.03608-0.00015,4.07216-0.00091,6.10824c-0.00003,0.06757,0.01434,0.13754-0.02031,0.20207
		c0,0-0.01572,0.00048-0.01572,0.00048L21.46115,10.33693z"/>
	<path fill="#D9DBDE" d="M20.98485,1.9965c-0.10925-0.01465-0.13471,0.03988-0.13233,0.13888
		c0.00559,0.23235,0.00178,0.46492,0.00178,0.6974c0,2.21386,0.00026,4.42772-0.00128,6.64158
		c-0.00004,0.06548,0.02682,0.13825-0.03044,0.19621c-0.00035-2.50114-0.00171-5.00228,0.00188-7.50342
		c0.00018-0.12833-0.03063-0.18836-0.16431-0.17117C20.76846,1.94329,20.87668,1.95472,20.98485,1.9965z"/>
	<path fill="#DCDEE0" d="M14.5976,1.99651c0.2663,0.05704,0.40883,0.24378,0.50704,0.47696
		c0.02872,0.04793,0.01672,0.09771,0.00682,0.14746c-0.01012,0.07361-0.00553,0.14756-0.00554,0.22131
		c-0.00027,2.41578-0.00005,4.83157-0.00093,7.24735c-0.00003,0.08308,0.01758,0.1697-0.03104,0.24734
		c-0.35264-0.00808-0.6383-0.30616-0.63859-0.66636c0.03149-0.06004,0.01538-0.12465,0.01541-0.18683
		c0.00096-2.44621,0.00093-4.89242,0.00044-7.33863C14.45118,2.04551,14.43653,1.93717,14.5976,1.99651z"/>
	<path fill="#E4E3E2" d="M15.07395,10.33693c-0.00003-2.51849-0.00024-5.03697,0.00096-7.55546
		c0.00003-0.06069-0.02314-0.12766,0.02871-0.18131c0.0241,0.01887,0.01747,0.05016,0.0302,0.07363
		c-0.00019,0.07062-0.00038,0.14124-0.00058,0.21185c-0.00229,0.06314-0.00656,0.12628-0.00657,0.18941
		c-0.00034,2.35314-0.00016,4.70628-0.00091,7.05941c-0.00002,0.06758,0.0144,0.13757-0.02032,0.20211
		c0,0-0.01574,0.00049-0.01574,0.00049L15.07395,10.33693z"/>
	<path fill="#D9DBDE" d="M14.5976,1.99651c-0.10929-0.01467-0.13468,0.03992-0.13231,0.13889
		c0.00558,0.23235,0.00177,0.46492,0.00177,0.6974c0,2.21385,0.00026,4.42771-0.00128,6.64156
		c-0.00004,0.06548,0.02682,0.13825-0.03044,0.19621c-0.00035-2.50114-0.00171-5.00228,0.00187-7.50341
		c0.00018-0.12831-0.03058-0.18839-0.16429-0.17117C14.38124,1.94331,14.48944,1.95474,14.5976,1.99651z"/>
	<path fill="#DCDEE0" d="M11.40399,1.99651c0.26631,0.05703,0.40882,0.2438,0.50706,0.47695
		c0.02867,0.04794,0.01671,0.09772,0.00679,0.14748c-0.01012,0.07361-0.00553,0.14756-0.00554,0.22131
		c-0.00027,2.41578-0.00005,4.83157-0.00093,7.24735c-0.00003,0.08308,0.01758,0.1697-0.03104,0.24734
		c-0.35264-0.00808-0.6383-0.30616-0.63859-0.66636c0.03149-0.06004,0.01538-0.12465,0.01541-0.18683
		c0.00096-2.44621,0.00093-4.89242,0.00044-7.33863C11.25757,2.04551,11.2429,1.93716,11.40399,1.99651z"/>
	<path fill="#E4E3E2" d="M11.88033,10.33693c-0.00003-2.51849-0.00024-5.03698,0.00096-7.55547
		c0.00003-0.06068-0.02315-0.12766,0.02873-0.1813c0.02408,0.01887,0.01744,0.05016,0.0302,0.0736
		c-0.00019,0.02835-0.00038,0.05671-0.00058,0.08506c-0.00229,0.06314-0.00655,0.12628-0.00656,0.18942
		c-0.00034,2.39541-0.00016,4.79082-0.00091,7.18624c-0.00002,0.06758,0.01441,0.13758-0.02032,0.20211
		c0,0-0.01575,0.00049-0.01575,0.00049L11.88033,10.33693z"/>
	<path fill="#D9DBDE" d="M11.40399,1.99651c-0.10929-0.01467-0.13468,0.03993-0.13231,0.13889
		c0.00558,0.23235,0.00177,0.46492,0.00177,0.6974c0,2.21385,0.00026,4.42771-0.00128,6.64156
		c-0.00004,0.06548,0.02682,0.13825-0.03044,0.19621c-0.00035-2.50114-0.00171-5.00228,0.00187-7.50341
		c0.00018-0.12831-0.03058-0.18839-0.16429-0.17117C11.18763,1.94331,11.29583,1.95474,11.40399,1.99651z"/>
	<path fill="#616465" d="M21.52162,3.81409c-0.02834-0.35487-0.02839-0.70974,0.00002-1.06466
		C21.52163,3.10427,21.52163,3.45918,21.52162,3.81409z"/>
	<path fill="#616465" d="M21.52098,2.67381c-0.01006-0.02455-0.02013-0.04909-0.03019-0.07364
		c0.00034-0.04223,0.00068-0.08447,0.00103-0.1267C21.55307,2.53286,21.51674,2.60625,21.52098,2.67381z"/>
	<path fill="#616365" d="M15.13381,2.67381c-0.01007-0.02455-0.02013-0.04909-0.0302-0.07363
		c0.00034-0.04224,0.00068-0.08447,0.00103-0.12671C15.16575,2.53287,15.12943,2.60626,15.13381,2.67381z"/>
	<path fill="#616365" d="M18.32742,2.6738c-0.01006-0.02454-0.02013-0.04909-0.03019-0.07363
		c0.00034-0.04224,0.00068-0.08447,0.00103-0.12671C18.35936,2.53287,18.32305,2.60625,18.32742,2.6738z"/>
	<path fill="#616364" d="M11.94022,2.67377c-0.01007-0.02453-0.02013-0.04907-0.0302-0.0736
		c0.00034-0.04224,0.00069-0.08447,0.00103-0.12671C11.9721,2.53286,11.9358,2.60624,11.94022,2.67377z"/>
</g>
</svg>
