<?xml version="1.0" encoding="utf-8"?>
<!-- Generator: Adobe Illustrator 23.0.0, SVG Export Plug-In . SVG Version: 6.00 Build 0)  -->
<svg version="1.1" id="Слой_1" xmlns="http://www.w3.org/2000/svg" xmlns:xlink="http://www.w3.org/1999/xlink" x="0px" y="0px" width="32px" height="13px"
	 viewBox="0 0 32 13" enable-background="new 0 0 32 13" xml:space="preserve">
<g>
	<path fill="#2D2D2D" d="M0.86438,12.99689c-0.02129,0-0.04257,0-0.06386,0c-0.33183-0.05126-0.56626-0.23332-0.72469-0.52323
		c-0.04681-0.08566-0.04517-0.18058-0.07358-0.26911c0-2.20796,0-4.41593,0-6.6239c0.03484-0.02885,0.07491-0.03615,0.11867-0.0287
		c0.30471,0.10753,0.41072,0.26299,0.41096,0.61574c0.00116,1.65234,0.00038,3.30467,0.00055,4.95701
		c0.00003,0.25339-0.00339,0.50683,0.00116,0.76017c0.0063,0.35067,0.20489,0.54537,0.55886,0.55347
		c0.06912,0.00158,0.13828,0.00062,0.20742,0.00062c5.03139,0.00002,10.06278,0.00001,15.09417,0.00004
		c0.07446,0,0.14894-0.00118,0.22337,0.00091c0.30537,0.00858,0.46824,0.1301,0.56346,0.41944
		c0.00416,0.04391-0.00023,0.08515-0.03737,0.11586c-0.06345,0.01024-0.12743,0.00507-0.19116,0.00508
		c-5.29465,0.00028-10.58931,0.00018-15.88396,0.00114C1.00052,12.98146,0.93019,12.9644,0.86438,12.99689z"/>
	<path fill="#262727" d="M31.99691,6.78501c-0.06809,0.03773-0.04715,0.11021-0.0594,0.16591
		c-0.39912,1.81492-1.17801,3.443-2.43218,4.8313c-0.4517,0.50001-0.98541,0.89516-1.64168,1.10545
		c-0.12238,0.03921-0.25887,0.03076-0.36898,0.10923c-0.05322,0-0.10644,0-0.15965,0
		c-0.06033-0.03172-0.1254-0.01548-0.18795-0.0155c-3.31336-0.00108-6.62672-0.00052-9.94008-0.00103
		c-0.02224,0.00184-0.04137-0.00496-0.05738-0.02037c-0.00017-0.02996-0.00034-0.05991-0.00051-0.08987
		c0.08267-0.06982,0.18268-0.04486,0.27569-0.04491c2.59014-0.0014,5.18027-0.00111,7.77041-0.00111
		c0.64355,0,1.2872-0.00727,1.9306,0.00236c0.49167,0.00736,0.93093-0.14304,1.34224-0.3928
		c0.301-0.18277,0.55404-0.4214,0.80717-0.66499c0.73802-0.71021,1.25873-1.56714,1.6928-2.47521
		c0.38063-0.7963,0.69538-1.62145,0.83759-2.5003c0.01682-0.10392,0.00055-0.21207,0.04271-0.31225
		c0.0232-0.0356,0.0571-0.0408,0.09553-0.03289c0.04341,0.0116,0.02779,0.06034,0.05309,0.08344
		C31.99691,6.61598,31.99691,6.7005,31.99691,6.78501z"/>
	<path fill="#1A1A1A" d="M31.96232,6.46722c-0.03099,0.00035-0.06199,0.0007-0.09298,0.00106
		c-0.04772,0.02091-0.07377,0.0121-0.06416-0.04599c0.06061-0.1573,0.01527-0.31387-0.01158-0.46757
		c-0.12272-0.70242-0.36961-1.36663-0.66622-2.01134c-0.40354-0.87713-0.89063-1.70878-1.52856-2.439
		c-0.39678-0.45418-0.846-0.86123-1.39323-1.14126c-0.38106-0.195-0.78998-0.27983-1.21652-0.28014
		c-1.76632-0.00125-3.53264-0.00052-5.29897-0.00052c-5.45857,0-10.91714-0.00002-16.37572,0.00013
		c-0.11167,0-0.22393-0.00668-0.33359,0.02279C4.95084,0.11189,4.92434,0.10824,4.90674,0.07972
		c-0.0107-0.02808-0.00696-0.05389,0.01285-0.07707c7.5676,0,15.1352,0,22.7028,0c0.54721,0.15608,1.03095,0.42403,1.46039,0.79584
		c0.58688,0.50813,1.05575,1.11143,1.46036,1.76597c0.62528,1.01152,1.10948,2.08305,1.37422,3.24579
		c0.02358,0.10358,0.01355,0.21627,0.07955,0.3092c0,0.06339,0,0.12677,0,0.19016
		C31.95632,6.35586,32.00553,6.42153,31.96232,6.46722z"/>
	<path fill="#262626" d="M4.91959,0.00265C4.91951,0.02372,4.91944,0.0448,4.91936,0.06587
		C4.83819,0.13806,4.73795,0.11499,4.64489,0.11512c-1.21268,0.00174-2.4254,0.00573-3.63803-0.00217
		C0.70704,0.11101,0.4881,0.22953,0.30566,0.4512c-0.12587,0.15293-0.15847,0.32662-0.1582,0.51742
		C0.14954,2.41513,0.14915,3.86164,0.1475,5.30815C0.1474,5.40052,0.17057,5.49998,0.09806,5.58065
		C0.06612,5.58065,0.03418,5.58066,0.00225,5.58067c0-1.61636,0-3.23271,0-4.84907c0.05855-0.37618,0.26539-0.62436,0.63862-0.72895
		C2.06711,0.00265,3.49335,0.00265,4.91959,0.00265z"/>
	<path fill="#697681" d="M17.1496,12.95999c0.00971,0.00373,0.01962,0.00684,0.02972,0.00935
		c0.01135,0.00546,0.01536,0.01135,0.0121,0.0177c-0.00336,0.00656-0.00681,0.00985-0.0104,0.00985
		c-5.43888,0-10.87776,0-16.31664,0c0.04293-0.06313,0.1075-0.03101,0.16095-0.03103
		c5.32693-0.00157,10.65386-0.00146,15.98078-0.00165C17.05394,12.96421,17.10177,12.96146,17.1496,12.95999z"/>
	<path fill="#535F69" d="M17.18102,12.99689c-0.00011-0.00922-0.00067-0.01842-0.00169-0.02757
		c0.05315-0.00135,0.1063-0.00391,0.15946-0.00392c3.28301-0.00031,6.56602-0.00052,9.84904,0.0004
		c0.04974,0.00001,0.10786-0.02364,0.14719,0.03109C23.95035,12.99689,20.56568,12.99689,17.18102,12.99689z"/>
	<path fill="#404C56" d="M31.96232,6.46722c0.01474-0.05184-0.02379-0.1152,0.03459-0.1576c0,0.07395,0,0.1479,0,0.22185
		C31.96879,6.51885,31.96571,6.49295,31.96232,6.46722z"/>
	<path fill="#202020" d="M0.09806,5.58065C0.09805,4.01743,0.10982,2.45406,0.08924,0.89111
		C0.08445,0.52774,0.56309,0.05118,0.92898,0.05727c1.3298,0.02213,2.66021,0.00865,3.99039,0.0086
		c0.01066,0.01066,0.02132,0.02132,0.03199,0.03198c0.04366,0.02486,0.0649,0.06882,0.09224,0.10741
		c0.08564,0.12087,0.2045,0.18094,0.35126,0.19C5.4799,0.40051,5.56508,0.39828,5.6502,0.39828
		c7.02903,0.00009,14.05806,0.00473,21.08706-0.00879c0.55949-0.00108,1.03711,0.16021,1.51205,0.41332
		c0.69131,0.36843,1.18741,0.92961,1.63128,1.55255c0.4435,0.62242,0.72928,1.32301,1.03921,2.01193
		c0.17585,0.39088,0.33204,0.78997,0.43041,1.20823c0.07687,0.32684,0.1607,0.64821,0.45495,0.86106
		c0.01393,0.02544,0.0379,0.03087,0.06417,0.03169c0.00679,0.4485-0.11965,0.87264-0.25237,1.29329
		C31.47009,8.22714,31.28036,8.6759,31.0855,9.1251c-0.31538,0.72701-0.72503,1.39095-1.19183,2.02606
		c-0.20607,0.28037-0.46843,0.50803-0.70507,0.75982c-0.29875,0.31787-0.64621,0.55719-1.03588,0.74066
		c-0.29409,0.13847-0.60365,0.22004-0.93493,0.21982c-3.35623-0.00217-6.71246-0.00134-10.06869-0.00135
		c-0.10196-0.29204-0.31434-0.38412-0.61641-0.38384c-5.14297,0.0049-10.28595,0.00073-15.42891,0.00972
		c-0.34751,0.00061-0.6312-0.28367-0.62889-0.61816C0.48795,9.98279,0.47759,8.0876,0.48491,6.19249
		C0.48607,5.89259,0.39223,5.68189,0.09806,5.58065z"/>
	<path fill="#131313" d="M31.80517,6.43658c-0.22489-0.05813-0.3148-0.23908-0.38186-0.43071
		c-0.12856-0.36732-0.19735-0.7517-0.34122-1.11654c-0.1529-0.38775-0.32437-0.76677-0.49199-1.14767
		c-0.26204-0.59546-0.58978-1.15121-0.98067-1.67578c-0.54525-0.73173-1.2497-1.23284-2.10033-1.54995
		c-0.14279-0.05323-0.28385-0.07107-0.43435-0.07104C19.86969,0.44658,12.66463,0.44637,5.45958,0.44632
		c-0.29313,0-0.45802-0.11334-0.50823-0.34847c0.00568-0.04424,0.03182-0.06363,0.07582-0.06307
		c0.04254,0.00054,0.0851-0.00036,0.12766-0.00036c7.30342-0.00002,14.60683-0.00124,21.91025,0.00247
		c0.54106,0.00027,1.03348,0.16839,1.48521,0.47661c0.17302,0.11805,0.33561,0.24957,0.50583,0.37034
		c0.13077,0.09278,0.21323,0.25094,0.3406,0.35049c0.23318,0.18226,0.41112,0.41171,0.5741,0.64783
		c0.25722,0.37263,0.50624,0.75076,0.73421,1.14418c0.39927,0.68901,0.70755,1.41264,0.95337,2.16585
		c0.121,0.37076,0.18998,0.7521,0.24066,1.13741C31.90852,6.40144,31.88472,6.44263,31.80517,6.43658z"/>
	<path fill="#262626" d="M14.06737,0.8267c4.25684,0,8.51369,0.00228,12.77052-0.00238
		c0.65994-0.00072,1.20758,0.22857,1.69856,0.66168c0.35506,0.3132,0.66569,0.66385,0.9306,1.04391
		c0.38428,0.55131,0.71674,1.13618,0.98294,1.7591c0.13989,0.32735,0.28701,0.65242,0.39931,0.98892
		c0.20358,0.60999,0.31109,1.22615,0.12253,1.87096c-0.13424,0.45907-0.26823,0.921-0.46294,1.35355
		c-0.23135,0.51394-0.48062,1.02274-0.77631,1.50867c-0.27236,0.44758-0.596,0.85679-0.95136,1.22975
		c-0.36475,0.38282-0.79408,0.71825-1.3474,0.81714c-0.176,0.03146-0.35704,0.04935-0.53578,0.0494
		c-8.55625,0.00235-17.1125,0.00205-25.66875,0.00203c-0.03192,0-0.06404,0.00182-0.09574-0.00088
		c-0.20167-0.01722-0.25308-0.06894-0.26827-0.27108c-0.00316-0.04203-0.00084-0.08447-0.00084-0.12672
		c-0.00002-3.49633-0.00003-6.99267,0-10.489c0-0.35682,0.03874-0.39501,0.4005-0.39502
		C5.5324,0.82669,9.79988,0.8267,14.06737,0.8267z"/>
	<path fill="#45271D" d="M27.6867,1.0504c0.68109,0.30488,1.18097,0.81481,1.61525,1.40078
		c0.31751,0.42841,0.59383,0.88252,0.83841,1.35401c0.22282,0.42956,0.40906,0.87681,0.57321,1.33227
		c0.01023,0.02839,0.00412,0.06258,0.00561,0.09408c-0.02896,0.1169-0.05979,0.23334-0.08537,0.35105
		c-0.10994,0.50584-0.59931,0.75448-0.95896,0.78506c-0.15935-0.03978-0.31707-0.08511-0.47378-0.13485
		c-0.37668-0.11953-0.66327-0.36883-0.93371-0.63848c-0.38072-0.3796-0.79788-0.70879-1.28166-0.95038
		c-0.27192-0.13579-0.56343-0.2161-0.8553-0.29509c-0.08186-0.02215-0.16512-0.03937-0.24467-0.06961
		c-0.0938-0.02848-0.19116-0.0414-0.28613-0.06505c-0.12091-0.06438-0.23283-0.14514-0.36275-0.19302
		c-0.19298-0.07112-0.38877-0.09374-0.59154-0.04469c-0.061,0.01476-0.12407,0.02836-0.18873,0.0185
		c-0.35147-0.09339-0.7112-0.13006-1.07255-0.13797c-0.66419-0.01456-1.32885,0.01398-1.99306-0.01445
		c-0.09289-0.02474-0.1903-0.03195-0.28031-0.06884c-0.16832-0.06582-0.31789-0.16326-0.39898-0.32514
		c-0.20902-0.41724-0.5757-0.5341-1.00445-0.54448c-0.06384-0.00154-0.12771-0.0006-0.19157-0.0006
		c-2.34148-0.00002-4.68297-0.00384-7.02443,0.00375c-0.39154,0.00127-0.70778-0.11265-0.94481-0.426
		c-0.02862-0.03784-0.06298-0.0716-0.09204-0.10941c-0.17303-0.22512-0.393-0.32894-0.68707-0.32777
		C8.9367,2.05135,7.10607,2.04864,5.27546,2.0472C4.80001,2.04683,4.49923,1.83613,4.33956,1.40085
		c-0.0099-0.06521-0.03719-0.12737-0.03704-0.1946C4.29757,1.14888,4.29896,1.09159,4.30455,1.03421
		C4.31117,0.99358,4.31868,0.9535,4.36634,0.93922c1.11762-0.00265,2.23516-0.001,3.35269-0.00104
		c6.50302-0.00021,13.00604-0.00009,19.50881-0.00013C27.38463,0.95944,27.54172,0.98054,27.6867,1.0504z"/>
	<path fill="#664532" d="M13.57161,12.01312c-3.51935,0.00043-7.0387,0.0008-10.55805,0.00178
		c-0.05929,0.00002-0.11664-0.00307-0.17-0.03131c-0.13752-0.00318-0.22045-0.09833-0.29894-0.18831
		c-0.15791-0.18104-0.24026-0.3954-0.25285-0.63579c-0.01335-0.25496-0.05331-0.29295-0.31679-0.30888
		c-0.43573-0.02634-0.92082-0.44469-0.98815-0.85105C0.97733,9.94215,0.9662,9.88567,0.98965,9.82924
		C0.98077,9.77502,0.97188,9.72079,0.96299,9.66656c0.0265-0.06092,0.01292-0.12505,0.01294-0.18748
		C0.97678,7.3956,0.9766,5.31211,0.97661,3.22894C0.99353,2.9265,1.15665,2.70661,1.38713,2.5284
		c0.07104-0.05493,0.15224-0.10016,0.25121-0.07103C1.89643,2.58305,2.00124,2.79061,2.00066,3.073
		C1.99721,4.76845,1.99885,6.4639,1.99895,8.15935c0,0.06338-0.00103,0.12678,0.00072,0.19014
		C2.01512,8.90698,2.40058,9.2935,2.9636,9.30154c0.56929,0.00813,1.13875,0.00092,1.70813,0.00237
		C5.10939,9.30504,5.32431,9.46695,5.4481,9.88537c0.13997,0.47311,0.45961,0.71451,0.96566,0.71658
		c0.88865,0.00364,1.77733,0.00098,2.666,0.00109c1.26648,0.00016,2.53297-0.00155,3.79945,0.00087
		c0.46954,0.0009,0.7396,0.27458,0.74227,0.7422c0.00027,0.04749,0.00222,0.09506-0.00289,0.14235
		c-0.00007,0.05549,0.00333,0.11112-0.00124,0.16658c-0.00016,0.05316,0.00171,0.10642-0.00111,0.1596
		c-0.0004,0.04363,0.00127,0.08742-0.00666,0.13073C13.60405,11.97187,13.58964,11.9935,13.57161,12.01312z"/>
	<path fill="#44281F" d="M30.6563,7.83049c-0.05936,0.30831-0.20574,0.58501-0.32849,0.8692
		c-0.30644,0.70943-0.69582,1.37322-1.1745,1.98151c-0.35759,0.4544-0.76209,0.86279-1.27929,1.14457
		c-0.33941,0.18491-0.70671,0.2073-1.08173,0.1881c0.12914-0.26291,0.18357-0.57257,0.46319-0.74173
		c0.10024-0.06064,0.2118-0.09814,0.32498-0.12827c0.3215-0.0856,0.58707-0.25981,0.82738-0.48565
		c0.65993-0.62018,1.11529-1.37597,1.49981-2.18226c0.15951-0.33446,0.2866-0.6812,0.42487-1.02382
		c0.02522-0.06248,0.04004-0.13305,0.10839-0.16908C30.63357,7.41869,30.68217,7.61017,30.6563,7.83049z"/>
	<path fill="#472920" d="M30.43259,7.29139c-0.29494,0.8361-0.65356,1.64273-1.14498,2.38523
		c-0.30384,0.45909-0.66332,0.87114-1.09546,1.21843c-0.2334,0.18758-0.51809,0.25835-0.79211,0.35264
		c-0.16476,0.05669-0.29345,0.15265-0.35896,0.31103c-0.06682,0.16154-0.15349,0.31013-0.2488,0.45516
		c-4.40688-0.00025-8.81376-0.00049-13.22066-0.00074c0.00071-0.02065,0.00143-0.04128,0.00215-0.06191
		c0.08218-0.06845,0.18159-0.04982,0.27544-0.04991c1.29704-0.00123,2.59409-0.00081,3.89114-0.0008
		c2.76419,0,5.52839,0.00119,8.29258-0.00233c0.22055-0.00028,0.4425-0.02745,0.64074-0.14072
		c0.12225-0.21509,0.25648-0.42152,0.44246-0.59048c0.11435-0.10389,0.25994-0.14762,0.40043-0.18476
		c0.32964-0.08714,0.58494-0.27569,0.82565-0.50674c0.70479-0.67651,1.15579-1.5114,1.54814-2.38612
		c0.12077-0.26924,0.21716-0.54722,0.31933-0.82324c0.01879-0.05076,0.03432-0.10108,0.09707-0.11357
		C30.38269,7.16845,30.44031,7.2008,30.43259,7.29139z"/>
	<path fill="#202020" d="M1.59786,2.4739c-0.3039,0.08565-0.44025,0.32994-0.56263,0.58684
		C1.01744,3.09807,1.00576,3.13828,0.99126,3.17715c-0.00896,0.00943-0.0185,0.00957-0.02852,0.00173
		C0.96188,2.92169,0.96156,2.6645,0.95974,2.40732c-0.00038-0.05336,0.00229-0.10488,0.0328-0.15107
		c0.00138-0.02282,0.01044-0.04242,0.02505-0.05977c0.0971-0.08853,0.20846-0.15639,0.32376-0.21862
		C1.37533,1.96441,1.41022,1.9536,1.44501,1.94235c0.04255-0.0117,0.08581-0.02061,0.12818-0.03308
		C1.62325,1.8968,1.67581,1.89511,1.72365,1.87358c0.07215-0.02765,0.0772-0.09421,0.09177-0.15517
		c0.03933-0.16458,0.08826-0.32578,0.16936-0.47573c0.05109-0.0718,0.09705-0.14791,0.16769-0.20384
		c0.03713-0.03074,0.07729-0.0576,0.11681-0.08532c0.04152-0.04845,0.09826-0.03088,0.14912-0.03105
		c0.34482-0.00117,0.68965-0.0003,1.03448-0.0001c0.01072,0.01277,0.01545,0.02745,0.01427,0.04406
		C3.45018,1.0279,3.39995,1.05234,3.34667,1.07351C3.17602,1.08869,3.01448,1.1317,2.87099,1.22899
		c-0.07495,0.05432-0.15365,0.104-0.21443,0.17553C2.4275,1.57824,2.34872,1.81693,2.34128,2.0929
		C2.33544,2.30906,2.23147,2.41414,2.01898,2.41875C1.87546,2.42185,1.74054,2.47428,1.59786,2.4739z"/>
	<path fill="#202020" d="M30.43259,7.29139c-0.03056-0.05405-0.07371-0.09574-0.12699-0.12749
		c-0.04983-0.00652-0.07951-0.04756-0.12075-0.06894c-0.04656-0.02945-0.08529-0.06983-0.13568-0.09397
		c-0.05401-0.02894-0.11141-0.04854-0.1707-0.06385c-0.13721-0.04282-0.27566-0.07276-0.42037-0.08063
		c-0.14877-0.00809-0.23929-0.10533-0.24249-0.24048c-0.00329-0.13885,0.11009-0.27416,0.24761-0.28055
		c0.06636-0.00309,0.13518-0.01561,0.20179,0.00518c0.53569-0.10831,0.88183-0.36209,0.96139-0.91869
		c0.00996-0.06965,0.01516-0.14959,0.09279-0.19041c0.09779,0.2345,0.20179,0.46739,0.19232,0.72974
		c0.03712,0.13784-0.05504,0.22842-0.1291,0.31858c-0.1106,0.13465-0.24542,0.24527-0.41871,0.33103
		c0.10142,0.08349,0.20712,0.13611,0.2901,0.2151c0.0894,0.08511,0.20003,0.16099,0.19391,0.30709
		c0.00453,0.25095-0.09631,0.47341-0.19142,0.69741C30.61893,7.63558,30.58377,7.43977,30.43259,7.29139z"/>
	<path fill="#202020" d="M0.98965,9.82924c-0.00422,0.23884,0.13547,0.41481,0.26761,0.59194
		c0.19856,0.26617,0.45964,0.40513,0.80219,0.39124c0.17811-0.00722,0.27188,0.08558,0.27188,0.25673
		c0.00001,0.40117,0.16006,0.70971,0.51223,0.91441c-0.24392,0.05262-0.48774,0.04876-0.7315-0.00106
		c-0.11867-0.04311-0.15219-0.15297-0.19689-0.25217c-0.03026-0.06716-0.0524-0.13977-0.05795-0.21235
		c-0.01174-0.15362-0.09561-0.21674-0.24297-0.23729c-0.18022-0.02514-0.34527-0.0982-0.49552-0.20144
		c-0.0522-0.03587-0.10626-0.07028-0.13168-0.1326c-0.00953-0.01609-0.00762-0.03069,0.00565-0.04383
		c-0.05035-0.0769-0.03515-0.16371-0.03112-0.24606C0.97506,10.38103,0.92426,10.10311,0.98965,9.82924z"/>
	<path fill="#664532" d="M0.99601,10.93231c0.19727,0.17986,0.42991,0.28726,0.69439,0.32091
		c0.12511,0.01592,0.18348,0.07733,0.19625,0.20004c0.02062,0.19806,0.09635,0.37545,0.22539,0.52926
		c-0.03608,0.0448-0.08713,0.03135-0.1332,0.03137C1.64956,12.014,1.32027,12.0127,0.99099,12.01185
		C0.97007,11.6519,0.96122,11.292,0.99601,10.93231z"/>
	<path fill="#535F69" d="M3.45238,0.9516c-0.00091-0.00976-0.00076-0.0195,0.00047-0.02922
		C11.35449,0.9222,19.2561,0.92203,27.15771,0.92196c0.03724,0,0.07447,0.00144,0.11171,0.00221
		c0.01182,0.00587,0.01588,0.01198,0.01224,0.01837c-0.0037,0.00649-0.00745,0.00976-0.0113,0.00976
		c-4.86389,0.00038-9.72779,0.00084-14.59168,0.00113c-2.70867,0.00016-5.41734,0-8.12601,0.00017
		c-0.06914,0-0.13829,0.00218-0.20743,0.00334c-0.04276,0.03654-0.09427,0.04328-0.14797,0.0434
		C3.99718,1.00079,3.79708,1.00155,3.597,0.99985C3.54407,0.9994,3.49094,0.9961,3.45238,0.9516z"/>
	<path fill="#44281E" d="M30.84771,7.13309c-0.09254-0.19803-0.2548-0.33032-0.43807-0.43541
		c-0.11341-0.06504-0.08328-0.10236,0.0027-0.15568c0.22762-0.14114,0.42473-0.30931,0.49916-0.58071
		c0.10967,0.05641,0.07111,0.1719,0.08372,0.25399c0.04586,0.2984-0.02491,0.59003-0.10115,0.87799
		C30.88978,7.10945,30.86366,7.11994,30.84771,7.13309z"/>
	<path fill="#535F69" d="M0.96273,3.17888C0.97215,3.17672,0.98166,3.17611,0.99127,3.1771
		c0.00027,2.11355,0.00069,4.22706,0.00002,6.34056C0.99127,9.56793,1.01052,9.62426,0.96297,9.66659
		C0.9629,7.504,0.96282,5.34144,0.96273,3.17888z"/>
	<path fill="#4D2D20" d="M1.56695,1.93633C1.53299,1.98129,1.48329,1.96349,1.43916,1.96789
		c-0.15131-0.33969,0.0276-0.8751,0.34418-1.0295c0.14011,0.00723,0.28113-0.01661,0.42028,0.01411
		C2.2255,0.95285,2.24739,0.95318,2.26927,0.95352C2.24723,0.99427,2.23619,1.04564,2.17558,1.04915
		c-0.06011,0.0388-0.12834,0.04122-0.197,0.04709C1.72024,1.11833,1.62652,1.21656,1.61417,1.47617
		C1.6097,1.57017,1.61367,1.66436,1.61216,1.75845C1.61116,1.82113,1.61357,1.88495,1.56695,1.93633z"/>
	<path fill="#535F69" d="M2.20361,0.95251c-0.1485,0.00136-0.297,0.00273-0.4455,0.00409
		C1.6486,1.02435,1.52698,0.9972,1.40933,1.00081C1.00945,1.00918,1.0453,0.94786,1.03998,1.36442
		C1.0367,1.62214,1.05839,1.88041,1.02573,2.13775c-0.0122,0.02698-0.02369,0.05498-0.06214,0.04916
		C0.96246,1.80763,0.96136,1.42834,0.96017,1.04905c-0.0002-0.06451-0.00729-0.12857,0.09202-0.12786
		C1.41839,0.9238,1.78463,0.92237,2.15085,0.92437C2.16849,0.92446,2.18603,0.94271,2.20361,0.95251z"/>
	<path fill="#535F69" d="M0.99601,10.93231c-0.00167,0.35986-0.00334,0.71972-0.00501,1.07956
		c-0.03877-0.02428-0.03045-0.06357-0.03051-0.09901c-0.00053-0.30367-0.00044-0.60734-0.0001-0.911
		c0.00004-0.03604-0.00487-0.07452,0.03232-0.09901C0.99343,10.9127,0.99453,10.92252,0.99601,10.93231z"/>
	<path fill="#444447" d="M27.27036,0.95229c0.00044-0.00941,0.00014-0.0188-0.00093-0.02815
		c0.14376,0.02684,0.29751,0.02113,0.41726,0.12624C27.54792,1.0177,27.40914,0.985,27.27036,0.95229z"/>
	<path fill="#414D57" d="M0.96359,2.18692C0.97401,2.17621,0.98444,2.1655,0.99486,2.15479
		C1.04319,2.15941,1.0471,2.18406,1.0249,2.22047c-0.01079,0.0119-0.02158,0.0238-0.03237,0.03574
		C0.96404,2.24089,0.9602,2.21539,0.96359,2.18692z"/>
	<path fill="#623529" d="M29.665,6.34065c-0.06642,0.01634-0.13179,0.03161-0.20187,0.03442
		c-0.12017,0.00483-0.2258,0.13185-0.20951,0.25005c0.017,0.12339,0.07966,0.20199,0.22215,0.19235
		c0.15656-0.0106,0.30318,0.03433,0.44549,0.09469c0.02563,0.0528,0.00768,0.10398-0.0086,0.1538
		c-0.33913,1.03748-0.80448,2.01136-1.4983,2.86469c-0.29789,0.36637-0.64709,0.6638-1.13224,0.77813
		c-0.33145,0.07811-0.57401,0.30032-0.72953,0.59778c-0.09293,0.17775-0.21615,0.25042-0.41645,0.25028
		c-4.11679-0.00288-8.23358-0.00212-12.35038-0.0027c-0.07381-0.00001-0.1504,0.00736-0.21264-0.04677
		c-0.00343-0.12108,0.0109-0.24585-0.01375-0.36251c-0.06464-0.30595-0.31385-0.49306-0.63301-0.4931
		c-2.1706-0.00028-4.34119-0.00012-6.51179-0.00016c-0.53876-0.00001-0.88373-0.2665-1.02-0.7877
		C5.30613,9.52564,5.07933,9.35228,4.72458,9.3522C4.15001,9.35208,3.57544,9.35221,3.00087,9.35216
		C2.36604,9.3521,1.95005,8.93641,1.95004,8.30207C1.95001,6.58062,1.94457,4.85914,1.95516,3.13775
		c0.00186-0.30272-0.08902-0.52142-0.35729-0.66384C1.71394,2.40438,1.84228,2.38263,1.97508,2.3801
		c0.24893-0.00474,0.32455-0.07597,0.32633-0.31707c0.00214-0.28985,0.09514-0.53341,0.34912-0.69849
		c0.07065-0.04246,0.14843-0.05072,0.22912-0.05065c0.4286,0.00035,0.8572-0.00048,1.2858,0.00072
		c0.07383,0.00021,0.1495-0.00297,0.21059,0.05098c0.14086,0.41575,0.4434,0.6337,0.88029,0.63371
		c1.85038,0.00006,3.70078,0.00418,5.55112-0.0041c0.30436-0.00136,0.51029,0.12987,0.69032,0.34932
		c0.12574,0.15328,0.2398,0.31997,0.43063,0.40996c0.13681,0.06452,0.27535,0.10164,0.42785,0.10155
		c2.45122-0.0014,4.90245-0.00303,7.35366,0.00145c0.32689,0.0006,0.64698,0.05276,0.87918,0.32255
		c0.03073,0.0357,0.06419,0.07196,0.08376,0.11378c0.09815,0.20978,0.24987,0.36246,0.46735,0.44875
		c-0.01501,0.09051-0.0917,0.06508-0.14651,0.0729c-0.21941,0.03128-0.43247,0.07648-0.60343,0.23091
		c-0.10767,0.14239-0.27397,0.22278-0.37198,0.38248c-0.23379,0.38093-0.22691,0.78798,0.05417,1.15794
		c0.0602-0.06114,0.08931-0.13975,0.13163-0.20799c0.28958-0.46693,0.67201-0.83778,1.1542-1.10594
		c0.07497-0.0417,0.1462-0.08551,0.19295-0.1597c0.11432-0.05465,0.08653-0.10133-0.00264-0.15765
		c-0.07254-0.04582-0.17208-0.05033-0.21746-0.13752c-0.00126-0.00241,0.00357-0.0088,0.00665-0.01241
		c0.00642-0.00752,0.01549-0.00714,0.02616,0.00025c0.64614,0,1.29229,0.00312,1.9384-0.00124
		c0.34945-0.00236,0.69158,0.05963,1.0362,0.09981c0.05483,0.00639,0.10634,0.0409,0.15938,0.06241
		c-0.01752,0.09702-0.1139,0.09804-0.1759,0.13978c-0.05581,0.03758-0.08585,0.06684-0.00554,0.10824
		c0.60633,0.31256,1.05937,0.77661,1.37404,1.38403c0.08002-0.04972,0.07922-0.15789,0.16389-0.19125
		c0.20732-0.22015,0.21142-0.48467,0.17415-0.7608c-0.01905-0.14114-0.11871-0.25429-0.13009-0.39669
		c0.57482,0.13219,1.13052,0.30845,1.61667,0.65782c0.30062,0.21604,0.5799,0.45431,0.84085,0.71634
		c0.24668,0.2477,0.5176,0.46488,0.86067,0.57269C29.36639,6.24402,29.51558,6.29271,29.665,6.34065z"/>
	<path fill="#FEFEFE" d="M25.86619,5.42242c-0.06127,0.07779-0.08949,0.17916-0.18251,0.24825
		c-0.32724-0.66708-0.82973-1.15916-1.51099-1.48673C24.26212,4.07,24.39278,4.0364,24.49794,3.96681
		c0.41101-0.1272,0.77965-0.04266,1.11278,0.21936C25.99108,4.40776,26.1314,5.08676,25.86619,5.42242z"/>
	<path fill="#5D3428" d="M4.37605,1.36559C3.80089,1.36524,3.22573,1.3649,2.65056,1.36455
		C2.6945,1.28672,2.77684,1.25569,2.845,1.20736c0.09417-0.0373,0.19205-0.05213,0.29327-0.05189
		c0.32688,0.00076,0.65376-0.00058,0.98063,0.00086C4.1973,1.15667,4.2787,1.14916,4.34444,1.20716
		C4.35497,1.25997,4.36551,1.31278,4.37605,1.36559z"/>
	<path fill="#563124" d="M4.34444,1.20716C3.84462,1.20723,3.3448,1.20729,2.84499,1.20736
		c0.14947-0.11674,0.31824-0.17272,0.50904-0.15939c0.33025-0.0683,0.66046-0.08239,0.9906,0.00072
		C4.34457,1.10151,4.3445,1.15434,4.34444,1.20716z"/>
	<path fill="#4F2D22" d="M21.36395,3.80584c0.06262,0.0752,0.16556,0.08058,0.23927,0.1361
		c0.04091,0.03082,0.10435,0.06134,0.09484,0.11363C21.68614,4.12105,21.615,4.1211,21.557,4.12247
		c-0.0447,0.02279-0.08335,0.00132-0.11935-0.01988c-0.2879-0.1695-0.58934-0.18817-0.90341-0.08511
		c-0.04861,0.01595-0.09814,0.04602-0.15221,0.01411c0.09063-0.15616,0.25851-0.17387,0.408-0.22546
		c0.11368-0.03923,0.24039-0.00512,0.35019-0.06357C21.2113,3.77582,21.29812,3.75426,21.36395,3.80584z"/>
	<path fill="#4E2D22" d="M25.86619,5.42242c0.13158-0.33956,0.13383-0.67217-0.06455-0.98902
		c-0.05495-0.08777-0.12682-0.1651-0.19093-0.24722c0.10083-0.00047,0.19618,0.02338,0.28776,0.06395
		c0.25642,0.37905,0.25141,0.7664,0.0369,1.16009C25.91683,5.44425,25.91541,5.4435,25.86619,5.42242z"/>
	<path fill="#4E2D20" d="M4.34464,1.04869C4.01444,1.04845,3.68425,1.04822,3.35405,1.04797
		c0.03277-0.03212,0.06554-0.06424,0.09833-0.09637C3.75,0.95336,4.04762,0.95512,4.34524,0.95691
		C4.34504,0.98752,4.34484,1.0181,4.34464,1.04869z"/>
	<path fill="#5D3428" d="M13.57311,11.50735c4.18601-0.00001,8.37202-0.00113,12.55802,0.00355
		c0.19024,0.00021,0.29542-0.05598,0.38252-0.23007c0.16257-0.32491,0.43255-0.55194,0.7936-0.63041
		c0.45624-0.09916,0.7688-0.39567,1.05333-0.72387c0.382-0.44064,0.67491-0.94387,0.9343-1.46248
		c0.23571-0.47128,0.43834-0.95839,0.59247-1.46354c0.00918-0.03009,0.02251-0.05894,0.03391-0.08836
		c0.061,0.00311,0.10741,0.04101,0.15931,0.06583c0.03245,0.04546,0.01491,0.09136-0.0005,0.1361
		c-0.35474,1.02996-0.80987,2.00756-1.49302,2.87031c-0.33457,0.42253-0.7307,0.74491-1.26447,0.88839
		c-0.28674,0.07708-0.48971,0.27672-0.62763,0.53036c-0.12036,0.22134-0.29297,0.3119-0.54287,0.31174
		c-4.11676-0.00267-8.23353-0.00183-12.35029-0.00244c-0.07874-0.00001-0.16117,0.01108-0.22862-0.04657
		C13.57314,11.61304,13.57312,11.5602,13.57311,11.50735z"/>
	<path fill="#583125" d="M13.57315,11.66589c4.19889-0.00004,8.39779-0.00095,12.59668,0.00228
		c0.22844,0.00018,0.3759-0.081,0.48253-0.28577c0.14645-0.28123,0.37555-0.48476,0.69081-0.56901
		c0.37403-0.09995,0.69613-0.28661,0.95613-0.56756c0.38529-0.41633,0.7042-0.88145,0.97246-1.37982
		c0.32588-0.60539,0.59203-1.23643,0.8088-1.88805c0.04253,0.03138,0.08508,0.06272,0.12762,0.09407
		c0.04412,0.05741,0.00884,0.11328-0.00941,0.1649c-0.35509,1.00435-0.80369,1.96153-1.46955,2.80467
		c-0.20621,0.26111-0.43419,0.50422-0.71457,0.6928c-0.16025,0.10778-0.33436,0.183-0.52002,0.2319
		c-0.30999,0.08164-0.53896,0.26257-0.68971,0.54236c-0.07603,0.14111-0.15576,0.27818-0.32632,0.32684
		c-0.1471,0.02516-0.29421,0.04118-0.44364,0.04115c-4.04612-0.00078-8.09224-0.00041-12.13836-0.00173
		c-0.10911-0.00004-0.22515,0.02628-0.32325-0.05048C13.57328,11.77159,13.57322,11.71874,13.57315,11.66589z"/>
	<path fill="#4D2D21" d="M13.57335,11.82444c3.97695-0.00008,7.95389,0.00054,11.93083-0.00147
		c0.3442-0.00017,0.68978,0.02673,1.03248-0.03046c0.06379-0.02142,0.11719-0.07379,0.19166-0.06335
		c-0.00576,0.15491-0.16371,0.15423-0.23359,0.1552c-0.13868,0.00192-0.25547,0.0707-0.39378,0.07054
		c-4.17573-0.00471-8.35147-0.00376-12.52719-0.00369C13.57363,11.90896,13.57349,11.8667,13.57335,11.82444z"/>
	<path fill="#202020" d="M3.32877,10.46117c-0.23854-0.00554-0.42821-0.20478-0.42051-0.44171
		c0.0077-0.23674,0.21031-0.42332,0.44895-0.41341c0.23154,0.00961,0.41596,0.20348,0.41264,0.43378
		C3.76643,10.27688,3.5677,10.46672,3.32877,10.46117z"/>
	<path fill="#4E2D21" d="M26.72833,11.72916c-0.05676,0.04236-0.11611,0.07699-0.19166,0.06335
		c0.11399-0.09684,0.18716-0.22104,0.25992-0.35009c0.13414-0.23789,0.33237-0.42182,0.60182-0.4843
		c0.59249-0.13738,0.98549-0.53447,1.33374-0.98464c0.67575-0.87353,1.13761-1.85732,1.47605-2.90146
		c0.045,0.01756,0.07485,0.05092,0.09739,0.0919c-0.11162,0.21629-0.17107,0.45318-0.26866,0.67474
		c-0.17353,0.39397-0.33972,0.79015-0.56357,1.16214c-0.15162,0.25195-0.28806,0.51288-0.46014,0.75272
		c-0.09426,0.13137-0.2077,0.25169-0.29701,0.38154c-0.12617,0.18343-0.29657,0.32164-0.44799,0.47032
		c-0.19747,0.1939-0.44287,0.34797-0.73092,0.41853c-0.16384,0.04014-0.32572,0.08856-0.45684,0.23189
		C26.94495,11.40394,26.83642,11.56468,26.72833,11.72916z"/>
	<path fill="#44281F" d="M1.0249,2.22047C1.01487,2.19859,1.00484,2.17671,0.99483,2.15481
		C0.99395,1.80107,0.99705,1.44727,0.98978,1.09368c-0.0023-0.11217,0.03437-0.15186,0.1453-0.14167
		c0.08973,0.00824,0.18066,0.00358,0.27105,0.00464c0.01628,0.1782-0.06526,0.34523-0.05228,0.52621
		c0.01226,0.17091,0.02069,0.34521-0.00997,0.51692C1.23756,2.07334,1.13123,2.1469,1.0249,2.22047z"/>
	<path fill="#482920" d="M1.34389,1.99978c-0.06857-0.14456-0.02113-0.29747-0.03126-0.4462
		C1.29865,1.34852,1.30673,1.14502,1.40614,0.95663c0.11732-0.00001,0.23465-0.00004,0.35198-0.00005
		C1.73377,1.06019,1.60543,1.05238,1.56178,1.14668c-0.08233,0.17783-0.12539,0.35989-0.12284,0.5543
		c0.00117,0.08895,0.00021,0.17794,0.00022,0.26691C1.41618,2.00437,1.37875,1.9983,1.34389,1.99978z"/>
	<path fill="#563124" d="M1.56695,1.93633c-0.00003-0.14649-0.00044-0.29297,0-0.43946
		C1.5679,1.18014,1.69911,1.0497,2.01741,1.0486c0.05271-0.00018,0.10541,0.00034,0.15814,0.00054
		C2.1223,1.11303,2.06902,1.17691,2.01575,1.2408C1.80108,1.29533,1.77689,1.3314,1.76889,1.5549
		C1.76469,1.67227,1.80339,1.7963,1.7269,1.9056C1.68125,1.95513,1.62086,1.92913,1.56695,1.93633z"/>
	<path fill="#5C3428" d="M1.7269,1.9056C1.72679,1.74733,1.72249,1.58892,1.72771,1.43082
		c0.00545-0.16487,0.1363-0.24809,0.28801-0.19004C1.94948,1.42661,1.86884,1.60776,1.83878,1.80509
		C1.82976,1.86428,1.80501,1.91699,1.7269,1.9056z"/>
	<path fill="#653D32" d="M21.20842,9.0654c-0.06841,0.16137-0.06778,0.34384-0.18315,0.49347
		c-0.15992,0.20742-0.36233,0.32966-0.62057,0.32995c-2.9157,0.00332-5.83141,0.00305-8.74711,0.00102
		c-0.40911-0.00029-0.76351-0.35273-0.76576-0.75843c-0.00409-0.73932-0.00404-1.4787,0.00043-2.21802
		c0.00152-0.2518,0.11287-0.4617,0.31657-0.60922c0.08307-0.06016,0.09843-0.12307,0.09807-0.21243
		c-0.00231-0.57034-0.00179-1.1407-0.00093-1.71106c0.00061-0.40409,0.33213-0.73301,0.73976-0.7331
		c2.05908-0.00047,4.11817-0.00044,6.17725-0.00004c0.43928,0.00009,0.77443,0.32919,0.77728,0.76867
		c0.00342,0.52808,0.00404,1.05624-0.00166,1.58428c-0.00127,0.11775,0.03288,0.15581,0.15311,0.15312
		c0.32971-0.00737,0.65971-0.00416,0.98957-0.00121c0.06801,0.00061,0.12533-0.0094,0.16842-0.06467
		c0.05204,0.05939,0.01557,0.11975,0.00128,0.17936c-0.2499,1.04216,0.03326,1.92465,0.80833,2.65983
		C21.16054,8.96605,21.21774,8.99447,21.20842,9.0654z"/>
	<path fill="#FEFEFE" d="M21.20842,9.0654c-0.49955-0.42379-0.84489-0.9408-0.97935-1.58707
		c-0.09801-0.47112-0.05186-0.9331,0.08062-1.39059c0.23016-0.5902,0.59703-1.07157,1.14255-1.40959
		c0.09817-0.06083,0.20039-0.11522,0.30075-0.17258c0.04658-0.0851,0.13981-0.09272,0.21666-0.11766
		c0.96564-0.31332,1.85573-0.17487,2.65664,0.45553c0.52627,0.41424,0.83637,0.9612,0.97105,1.60903
		c0.09692,0.46616,0.05028,0.92315-0.10944,1.36963c-0.0244,0.0682-0.04092,0.14333-0.10422,0.19189
		c-0.21147,0.41904-0.4829,0.78981-0.86302,1.07661c-0.93698,0.70697-2.21957,0.7329-3.18079,0.06184
		C21.2968,9.12239,21.25227,9.09437,21.20842,9.0654z"/>
	<path fill="#FEFEFE" d="M10.02192,8.35745C9.67684,8.86466,9.23286,9.25052,8.65039,9.47108
		c-1.64702,0.62365-3.50633-0.54131-3.64002-2.2823C4.92413,6.06576,5.47669,5.08136,6.48559,4.55987
		c0.0327-0.0169,0.06346-0.03751,0.09513-0.05638c0.04491-0.08714,0.13822-0.09445,0.21549-0.11877
		c1.05084-0.33064,1.99177-0.14714,2.80762,0.60245c0.46689,0.42897,0.74092,0.96131,0.83021,1.58336
		c0.07278,0.50702,0.01238,0.99911-0.21997,1.46318C10.15621,8.14513,10.12559,8.27266,10.02192,8.35745z"/>
	<path fill="#FEFEFE" d="M10.69417,5.41373c-0.06382,0.07643-0.09246,0.17695-0.1873,0.25859
		c-0.33082-0.6675-0.83291-1.16529-1.50801-1.48489c0.03995-0.08197,0.12481-0.09405,0.16985-0.15147
		c0.2648-0.20093,0.55575-0.19852,0.86104-0.11642c0.58685,0.15783,0.94597,0.89454,0.7477,1.34452
		C10.75431,5.3166,10.74256,5.37514,10.69417,5.41373z"/>
	<path fill="#FEFEFE" d="M20.38203,4.03159c0.40867-0.18644,0.80071-0.16101,1.17497,0.09088
		c0.07276,0.08497-0.01716,0.09185-0.05935,0.11334C21.1636,4.40596,20.86952,4.6281,20.6137,4.90014
		c-0.21398,0.22755-0.38481,0.48537-0.52127,0.77072c-0.4314-0.45055-0.35-1.17143,0.16215-1.5471
		C20.29685,4.09275,20.33953,4.0623,20.38203,4.03159z"/>
	<path fill="#FEFEFE" d="M6.38212,4.12536C6.45208,4.21425,6.35611,4.216,6.31722,4.23608
		C5.8308,4.48724,5.43091,4.83438,5.12919,5.28944c-0.07857,0.1185-0.14474,0.24511-0.21655,0.3679
		C4.64782,5.4373,4.56139,4.96046,4.71325,4.58565c0.12049-0.2974,0.3486-0.48286,0.62943-0.61722
		C5.43589,3.85279,5.57741,3.8739,5.69622,3.86738c0.22673-0.01244,0.44152,0.053,0.6317,0.18335
		C6.35468,4.06907,6.3769,4.09131,6.38212,4.12536z"/>
	<path fill="#4D2B20" d="M25.38368,8.014c0.08982-0.27467,0.18016-0.547,0.2036-0.83992
		c0.10379-1.29733-0.73944-2.48855-2.00787-2.81717c-0.54357-0.14082-1.08233-0.11497-1.61272,0.06965
		c-0.0717,0.02496-0.15142,0.0289-0.2137,0.079C21.71551,4.49826,21.68551,4.49,21.74142,4.45893
		c0.29024-0.16131,0.60102-0.27496,0.93057-0.29974c0.48937-0.0368,0.9697,0.00034,1.43143,0.20724
		c0.65544,0.2937,1.1151,0.7666,1.40939,1.40995c0.13991,0.30586,0.20905,0.63172,0.21938,0.96133
		c0.01397,0.44586-0.08389,0.87624-0.29381,1.27613C25.42321,8.04275,25.40196,8.10167,25.38368,8.014z"/>
	<path fill="#4D2B21" d="M10.18706,8.05005c0.10559-0.31675,0.21282-0.63087,0.23085-0.97057
		c0.07903-1.4883-1.14016-2.78542-2.64213-2.80791c-0.4163-0.00623-0.81393,0.06714-1.19506,0.23191
		C6.47491,4.46388,6.5685,4.44697,6.59196,4.43573c0.27339-0.13096,0.55893-0.25129,0.85858-0.27286
		C7.89877,4.13059,8.351,4.12752,8.78257,4.307C9.61441,4.65295,10.19036,5.23147,10.443,6.0994
		c0.19177,0.65881,0.12602,1.29921-0.18637,1.91303c-0.01646,0.03235-0.02465,0.06884-0.03669,0.10341
		C10.16411,8.11601,10.16784,8.08685,10.18706,8.05005z"/>
	<path fill="#202020" d="M27.64514,6.24642c0.23887,0.00365,0.4299,0.20111,0.42408,0.43836
		c-0.00579,0.23636-0.20721,0.42481-0.44559,0.41691c-0.23248-0.00771-0.41768-0.19924-0.41618-0.43039
		C27.209,6.43447,27.40648,6.24277,27.64514,6.24642z"/>
	<path fill="#202020" d="M3.06784,3.05087c0.0056-0.23641,0.20676-0.42507,0.44508-0.41742
		c0.23851,0.00765,0.42651,0.2088,0.41657,0.4457c-0.00964,0.22974-0.20506,0.41286-0.4371,0.40957
		C3.25349,3.48533,3.06222,3.28807,3.06784,3.05087z"/>
	<path fill="#4D2C21" d="M10.69417,5.41373c0.06197-0.22611,0.13117-0.44569,0.05717-0.68944
		C10.54781,4.05387,9.87562,3.73557,9.2283,4.01522C9.20905,4.02353,9.1886,4.02911,9.16871,4.03597
		C9.3235,3.82916,9.5599,3.78342,9.78725,3.77995c0.64972-0.00992,1.12229,0.4758,1.13342,1.10711
		c0.00332,0.1883-0.08517,0.35471-0.16722,0.5195C10.74064,5.43229,10.71825,5.44681,10.69417,5.41373z"/>
	<path fill="#4F2D22" d="M6.38212,4.12536C6.06059,3.91025,5.71559,3.84831,5.34268,3.96843
		C5.2945,3.95868,5.26771,3.94497,5.32587,3.9055C5.61575,3.70878,6.2162,3.74874,6.48373,3.98435
		c0.01881,0.01656,0.04823,0.04813,0.04305,0.06011C6.50085,4.10451,6.43919,4.11318,6.38212,4.12536z"/>
	<path fill="#59352B" d="M10.18706,8.05005c0.00326,0.02573,0.00649,0.05146,0.03289,0.06579
		c-0.04369,0.0764-0.08675,0.15317-0.13141,0.22901c-0.0161,0.02735-0.03519,0.05694-0.06662,0.0126
		C10.07697,8.25498,10.13201,8.15252,10.18706,8.05005z"/>
	<path fill="#FEFEFE" d="M17.55853,8.42293c-0.32426,0.4445-0.72228,0.79968-1.23933,1.01189
		c-1.29152,0.53007-2.75578,0.00267-3.42919-1.23575c-0.64634-1.18863-0.27643-2.67584,0.85876-3.45328
		c0.05219-0.03574,0.10335-0.07296,0.15499-0.10949c0.13922-0.14185,0.3291-0.18999,0.50287-0.26822
		c0.87077-0.266,1.69449-0.17052,2.44689,0.34782c0.70395,0.48496,1.08853,1.16222,1.17582,2.01152
		c0.03982,0.38742-0.02414,0.75411-0.15292,1.11524C17.80988,8.05727,17.71097,8.25455,17.55853,8.42293z"/>
	<path fill="#FEFEFE" d="M13.9565,4.12269c0.072,0.08537-0.01803,0.09194-0.06019,0.11349
		c-0.29543,0.151-0.56078,0.34251-0.79624,0.57487c-0.25067,0.24737-0.45306,0.52922-0.61306,0.87553
		c-0.20239-0.25674-0.31207-0.51895-0.26963-0.8259c0.05463-0.39516,0.28116-0.67303,0.6298-0.85938
		C13.13944,3.77474,13.74126,3.84059,13.9565,4.12269z"/>
	<path fill="#FEFEFE" d="M18.29679,5.35517c-0.07286,0.10045-0.10068,0.23115-0.21454,0.31496
		c-0.16239-0.32781-0.36647-0.62167-0.62643-0.87577c-0.2589-0.25307-0.55648-0.45234-0.88526-0.6126
		c0.09566-0.11125,0.22309-0.14612,0.32869-0.21457c0.08972-0.10569,0.22263-0.10113,0.33661-0.1018
		c0.8357-0.0049,1.29535,0.77373,1.14018,1.34228C18.36077,5.26359,18.35324,5.32182,18.29679,5.35517z"/>
	<path fill="#4D2D23" d="M17.84741,7.85261c0.04846-0.2352,0.12132-0.46346,0.14267-0.70649
		c0.12945-1.47345-1.08698-2.83388-2.57467-2.87372c-0.34632-0.00928-0.68316,0.03265-1.01302,0.13538
		c-0.03907,0.01147-0.08631,0.0473-0.09512-0.03143c0.02125-0.01065,0.04251-0.02129,0.06376-0.03194
		c0.05129-0.02599,0.10956-0.03451,0.15988-0.06293c0.66761-0.19894,1.32503-0.19547,1.97184,0.08796
		c0.65655,0.2877,1.11827,0.76383,1.41141,1.40948c0.13927,0.30675,0.19411,0.63277,0.22035,0.96288
		c0.01193,0.15008-0.01712,0.30337-0.02758,0.4552c-0.02536,0.13881-0.05198,0.27734-0.09601,0.41186
		c-0.04248,0.10571-0.08495,0.21141-0.12743,0.31712C17.81813,7.92736,17.83904,7.88695,17.84741,7.85261z"/>
	<path fill="#4E2E23" d="M18.29679,5.35517c0.15286-0.64135-0.07698-1.14398-0.62224-1.36686
		c-0.25661-0.10489-0.51458-0.09713-0.7753-0.02113c-0.03587-0.05324-0.0354-0.05227,0.03039-0.08338
		c0.37886-0.17913,0.75139-0.13857,1.08471,0.08803c0.48162,0.32741,0.5946,0.87756,0.3575,1.3632
		C18.361,5.35724,18.35006,5.45671,18.29679,5.35517z"/>
	<path fill="#502F25" d="M13.9565,4.12269c-0.34843-0.23266-0.71759-0.27862-1.10933-0.1214
		c-0.04246-0.03723-0.00544-0.05254,0.02068-0.06711c0.37841-0.21107,0.75648-0.21564,1.13218,0.00611
		c0.04478,0.02643,0.10646,0.06164,0.09856,0.1137C14.08824,4.12218,14.01481,4.12007,13.9565,4.12269z"/>
	<path fill="#5A382E" d="M17.84741,7.85261c0.00547,0.02763,0.00702,0.05717,0.03608,0.07336
		c-0.03628,0.20449-0.18064,0.34947-0.28924,0.51399c-0.00096,0.00145-0.02334-0.01104-0.03573-0.01703
		C17.65482,8.23282,17.75112,8.04271,17.84741,7.85261z"/>
	<path fill="#59372D" d="M14.30728,4.37634c0.02264,0.0375,0.06121,0.02752,0.09512,0.03143
		c-0.16621,0.07618-0.33242,0.15235-0.49864,0.22853c-0.00668-0.01202-0.02016-0.03393-0.01907-0.03467
		C14.01742,4.51166,14.13733,4.39736,14.30728,4.37634z"/>
	<path fill="#5A382E" d="M18.01092,7.60885c0.01118-0.14207,0.04787-0.27828,0.09601-0.41186
		C18.10936,7.34219,18.08925,7.48221,18.01092,7.60885z"/>
	<path fill="#59372D" d="M14.53092,4.28147c-0.04176,0.04985-0.09724,0.06534-0.15988,0.06293
		C14.41275,4.29444,14.46827,4.27904,14.53092,4.28147z"/>
	<path fill="#623529" d="M21.64784,6.75162c0.3003-0.49625,0.87238-0.77275,1.4327-0.69244
		c0.59043,0.08463,1.0783,0.5229,1.21256,1.08931c0.13412,0.56578-0.08568,1.15795-0.55797,1.49685
		c-0.04099,0.02941-0.07627,0.07569-0.13687,0.06918c-0.29293,0.10986-0.59145,0.14448-0.90162,0.08174
		c-0.66625-0.13477-1.16993-0.75732-1.15792-1.3972C21.54295,7.17395,21.59305,6.96428,21.64784,6.75162z"/>
	<path fill="#4D2C21" d="M21.64784,6.75162c0.0484,0.03185,0.02662,0.07024,0.01423,0.11153
		c-0.15295,0.50932-0.1079,0.9856,0.24361,1.40914c0.25907,0.31215,0.59507,0.47858,0.9988,0.50825
		c0.20176,0.01483,0.40249,0.00232,0.59319-0.07611c0.03613-0.01486,0.07037-0.02611,0.10059,0.01009
		c-0.42121,0.26702-0.86308,0.26637-1.30524,0.07332C21.50372,8.44324,21.19416,7.45047,21.64784,6.75162z"/>
	<path fill="#502F25" d="M21.96966,6.04892c-0.10577,0.01794-0.21175,0.01307-0.31777,0.00276
		c-0.0123-0.01791-0.01529-0.03785-0.01617-0.05928c-0.01323-0.32268,0.00291-0.33651,0.33587-0.28563l-0.00026-0.0003
		C21.99413,5.82074,21.99636,5.9349,21.96966,6.04892z"/>
	<path fill="#4D2B20" d="M24.14125,5.92932c0.02139,0.08703,0.00838,0.14461-0.10343,0.13011
		c-0.04682-0.00607-0.09548-0.00477-0.14264-0.00015c-0.07749,0.00759-0.12012-0.01131-0.11016-0.10071
		c0.00924-0.0829,0.00819-0.16693,0.01167-0.25046c0.04474-0.02526,0.12035-0.02895,0.12487,0.0065
		C23.93897,5.85115,24.07504,5.8525,24.14125,5.92932z"/>
	<path fill="#673D32" d="M24.14125,5.92932c-0.03329-0.01404-0.06536-0.03989-0.10386-0.0244
		c-0.08799,0.03539-0.12157-0.0088-0.11667-0.0857c0.00612-0.09602-0.04365-0.1171-0.12402-0.1111
		c0.09254-0.05878,0.19388-0.01097,0.29047-0.02292c0.04832-0.00598,0.06339,0.02837,0.06176,0.07084
		C24.14672,5.81382,24.14384,5.87156,24.14125,5.92932z"/>
	<path fill="#6C443A" d="M21.97159,5.70678c-0.31945,0.01195-0.31945,0.01195-0.31969,0.34491
		c-0.07033-0.10404-0.01863-0.21873-0.02776-0.32808c-0.00263-0.03147,0.0288-0.04441,0.05599-0.04116
		C21.77703,5.69404,21.87846,5.65283,21.97159,5.70678z"/>
	<path fill="#6C443A" d="M21.96966,6.04892c0.00055-0.11415,0.00111-0.22829,0.00167-0.34244
		C22.00434,5.82079,22.01218,5.93498,21.96966,6.04892z"/>
	<path fill="#623529" d="M6.51101,6.68741c0.32898-0.49294,0.9116-0.72576,1.51104-0.60384
		c0.54913,0.1117,1.00943,0.58466,1.10684,1.13731C9.23165,7.8038,8.97816,8.38627,8.49402,8.6797
		c-0.08584-0.02782-0.13348,0.05053-0.20024,0.0749C7.68088,8.9783,6.90615,8.70081,6.57596,8.13414
		C6.31393,7.68445,6.25869,7.22486,6.50104,6.74885C6.51094,6.7294,6.51243,6.70865,6.51101,6.68741z"/>
	<path fill="#4D2C21" d="M6.51101,6.68741c0.06223,0.04472,0.00775,0.08526-0.00799,0.12291
		c-0.35786,0.85616,0.17735,1.80036,1.0986,1.96088C7.84975,8.81443,8.10867,8.80306,8.35,8.69566
		C8.39477,8.67573,8.43988,8.62861,8.49402,8.6797C8.14598,8.91333,7.76477,8.97196,7.36129,8.87535
		c-0.81798-0.19585-1.29182-1.05368-1.0236-1.8451C6.37903,6.90829,6.41446,6.78234,6.51101,6.68741z"/>
	<path fill="#55352A" d="M8.94265,6.05155C8.93238,6.05385,8.92218,6.0578,8.91183,6.05822
		c-0.33746,0.0135-0.35628-0.00933-0.29099-0.35205C9.00574,5.6809,8.97575,5.62765,8.94265,6.05155z"/>
	<path fill="#4D2C21" d="M6.80212,5.92949c0.01955,0.08553,0.00995,0.14568-0.10336,0.13025
		C6.65198,6.05337,6.60324,6.05507,6.55599,6.05949C6.47872,6.06674,6.43534,6.04833,6.4455,5.95846
		c0.00937-0.0829,0.00835-0.16696,0.0119-0.25051c0.05646-0.0251,0.12825-0.03593,0.14267,0.03158
		C6.6252,5.85719,6.72066,5.88173,6.80212,5.92949z"/>
	<path fill="#673D31" d="M6.80212,5.92949C6.68754,5.93114,6.56476,5.95194,6.57607,5.76905
		C6.58084,5.69201,6.50403,5.71628,6.4574,5.70796c0.09258-0.05907,0.19414-0.01113,0.29084-0.02336
		c0.04947-0.00626,0.06221,0.02948,0.06077,0.0713C6.80702,5.81377,6.80444,5.87163,6.80212,5.92949z"/>
	<path fill="#683F34" d="M8.94265,6.05155C8.94264,6.04629,8.94263,6.04103,8.94261,6.03576
		c-0.00095-0.32099-0.00095-0.32099-0.32177-0.3296C8.71416,5.6527,8.8149,5.69599,8.91157,5.68491
		c0.02646-0.00303,0.05944,0.00788,0.05688,0.03956C8.95964,5.83347,9.01263,5.94755,8.94265,6.05155z"/>
	<path fill="#653D32" d="M14.14165,6.62362c0.32875-0.4465,0.78714-0.62224,1.32162-0.5601
		c0.56031,0.06515,0.95906,0.38129,1.16965,0.90481c0.24672,0.61333,0.02311,1.32041-0.52338,1.69552
		c-0.03336,0.0229-0.06196,0.05999-0.11097,0.05074c-0.22724,0.07235-0.4551,0.12122-0.69893,0.11292
		c-0.68406-0.02328-1.33024-0.6634-1.35795-1.34169C13.92902,7.17578,13.97927,6.88921,14.14165,6.62362z"/>
	<path fill="#4E2E23" d="M14.14165,6.62362c0.03286,0.0243,0.00584,0.04251-0.00451,0.06515
		c-0.26172,0.57251-0.21864,1.1177,0.18724,1.60627c0.24421,0.29396,0.57578,0.45809,0.96446,0.4854
		c0.20689,0.01454,0.41339,0.00541,0.60928-0.07596c0.03598-0.01495,0.07033-0.02651,0.10045,0.01011
		c-0.59095,0.3548-1.3472,0.23253-1.80421-0.29171C13.74459,7.90696,13.72169,7.12532,14.14165,6.62362z"/>
	<path fill="#513127" d="M14.36981,6.049c-0.1056,0.01805-0.21146,0.01217-0.31735,0.00335
		c-0.03284-0.09077-0.01481-0.18481-0.0142-0.277c0.00052-0.07925,0.08918-0.1228,0.13659-0.06465
		c0.05927,0.07268,0.12314,0.13403,0.1955,0.19282C14.40635,5.93278,14.39656,5.99989,14.36981,6.049z"/>
	<path fill="#4E2E23" d="M16.54102,5.92956c0.02115,0.08695,0.00811,0.14452-0.10358,0.12994
		c-0.04677-0.00611-0.0954-0.00477-0.14252-0.00017c-0.07751,0.00757-0.12002-0.01151-0.11015-0.10077
		c0.00917-0.08286,0.00809-0.16683,0.01152-0.25031c0.05646-0.02572,0.12817-0.03614,0.14261,0.03121
		C16.36413,5.85708,16.45957,5.88171,16.54102,5.92956z"/>
	<path fill="#6F4C42" d="M14.36981,6.049c-0.00141-0.07812,0.01288-0.16522-0.11475-0.15367
		c-0.06568,0.00594-0.07494-0.04283-0.07536-0.09444c-0.00036-0.04377-0.00388-0.08797-0.06418-0.08706
		c-0.07336,0.00111-0.06205,0.05747-0.0629,0.10266c-0.00148,0.0786-0.00025,0.15724-0.00015,0.23587
		c-0.0739-0.1037-0.01998-0.2191-0.02853-0.32868c-0.00313-0.04014,0.03895-0.04273,0.07135-0.04283
		c0.05308-0.00017,0.10695,0.0067,0.15909-0.00002c0.1147-0.0148,0.15658,0.03445,0.13817,0.14226
		C14.37976,5.89797,14.42616,5.97861,14.36981,6.049z"/>
	<path fill="#6A453A" d="M16.54102,5.92956c-0.11434,0.00135-0.23737,0.02256-0.22602-0.1604
		c0.00479-0.07716-0.07226-0.05232-0.11871-0.06091c0.09849-0.05494,0.21445-0.04301,0.30336-0.01426
		C16.60544,5.72818,16.53389,5.84745,16.54102,5.92956z"/>
	<path fill="#FEFEFE" d="M23.85082,7.98262c-0.17874,0.27543-0.40817,0.48185-0.74424,0.54804
		c-0.53892,0.10614-1.06146-0.18928-1.2395-0.7031c-0.17478-0.50444,0.05249-1.05177,0.53906-1.29854
		c0.03759-0.01906,0.07469-0.03907,0.11202-0.05864c0.07865-0.08843,0.1931-0.09425,0.2935-0.0973
		c0.38754-0.0118,0.7187,0.11902,0.95798,0.43289c0.25408,0.33329,0.29817,0.69816,0.14466,1.08687
		C23.90051,7.92773,23.877,7.95618,23.85082,7.98262z"/>
	<path fill="#4E2C21" d="M23.85082,7.98262c0.16723-0.40149,0.16803-0.79305-0.11091-1.14581
		c-0.31651-0.40028-0.73655-0.50015-1.22175-0.36643c-0.09779-0.02745-0.02905-0.05211,0.00347-0.0686
		c0.25588-0.12977,0.52068-0.15677,0.79817-0.07335c0.71367,0.21455,0.94391,0.98509,0.63598,1.5511
		C23.93262,7.92208,23.92135,7.98431,23.85082,7.98262z"/>
	<path fill="#FEFEFE" d="M8.6505,8.01973C8.47657,8.27024,8.2577,8.46024,7.94929,8.52676
		C7.41562,8.64188,6.89765,8.36628,6.70131,7.86419C6.50947,7.37359,6.708,6.82956,7.17869,6.55491
		C7.20564,6.53918,7.23066,6.52018,7.25658,6.5027c0.11756-0.12093,0.27938-0.1319,0.4264-0.1329
		c0.83369-0.00565,1.36243,0.84618,1.06019,1.50309C8.71875,7.92598,8.69137,7.97698,8.6505,8.01973z"/>
	<path fill="#4E2C21" d="M8.6505,8.01973C8.80927,7.6905,8.83904,7.35705,8.67859,7.01966
		C8.45508,6.54968,7.90212,6.30734,7.40238,6.46154C7.35398,6.47648,7.2958,6.45757,7.25658,6.5027
		C7.2229,6.47569,7.24504,6.45748,7.26848,6.44404C7.666,6.21621,8.06172,6.21469,8.43621,6.46602
		c0.48697,0.32681,0.61998,0.92402,0.33038,1.4307C8.73738,7.94782,8.71099,7.99891,8.6505,8.01973z"/>
	<path fill="#FEFEFE" d="M16.28097,7.91633c-0.16946,0.30926-0.40528,0.53741-0.76478,0.61218
		c-0.53797,0.11189-1.06048-0.17764-1.24555-0.68899c-0.18318-0.50614,0.0444-1.06223,0.53623-1.31062
		c0.03756-0.01897,0.07464-0.03889,0.11194-0.05836c0.10625-0.09872,0.24518-0.1097,0.37341-0.10277
		c0.70739,0.03824,1.20051,0.5827,1.09337,1.32331C16.37365,7.7736,16.34731,7.8557,16.28097,7.91633z"/>
	<path fill="#4F2E24" d="M16.28097,7.91633c0.02877-0.13219,0.07876-0.25764,0.07874-0.39847
		c-0.00014-0.7505-0.64242-1.24656-1.37845-1.05848c-0.02042,0.00522-0.04161,0.0075-0.06244,0.01116
		c-0.09677-0.02734-0.0301-0.05197,0.00336-0.06881c0.24544-0.12353,0.50395-0.1552,0.76869-0.08256
		c0.74961,0.20567,0.96635,1.00149,0.67093,1.54962C16.34721,7.89583,16.34655,7.96649,16.28097,7.91633z"/>
	<path fill="#623529" d="M22.89408,7.96336c-0.03023,0.02097-0.06046,0.04195-0.0907,0.06292
		c-0.03539,0.00948-0.07,0.02181-0.10315,0.03676c-0.07593,0.03424-0.15855,0.05226-0.21941-0.01065
		c-0.06507-0.06727-0.05187-0.15246-0.00213-0.22975c0.1135-0.06153,0.18564-0.15639,0.2263-0.27663
		c0.10199-0.12371,0.10456-0.17404-0.00891-0.25338c-0.19173-0.13407-0.26632-0.31695-0.25296-0.54268
		c0.2039-0.15893,0.64523-0.17699,0.8537-0.03498c0.1064,0.07248,0.15234,0.17165,0.13075,0.29864
		c-0.02773,0.1631-0.09774,0.31043-0.25001,0.38211c-0.14165,0.06669-0.11622,0.14863-0.06544,0.24952
		c0.03677,0.07304,0.09675,0.12164,0.1683,0.16138c0.04929,0.02738,0.13629,0.00425,0.14809,0.07089
		c0.01627,0.09185,0.01819,0.19043,0.0029,0.2823c-0.01321,0.07938-0.07897,0.04001-0.12675,0.02322
		c0.00949-0.02835,0.05428-0.05411,0.03078-0.08198c-0.05781-0.06857-0.15852-0.08132-0.21828-0.14777
		C23.03534,7.86228,22.96709,7.93543,22.89408,7.96336z"/>
	<path fill="#4E2D22" d="M22.44313,6.74995c0.07153,0.05552,0.01962,0.13891,0.04699,0.20468
		c0.05464,0.1313,0.11998,0.25006,0.25287,0.32563c0.10818,0.06152,0.10123,0.24334-0.0055,0.30369
		c-0.02409,0.01362-0.02779-0.01941-0.03249-0.03794c0.02089-0.08209-0.03938-0.10291-0.09492-0.1378
		c-0.18431-0.1158-0.28071-0.28176-0.26094-0.50309C22.35492,6.84045,22.38216,6.78397,22.44313,6.74995z"/>
	<path fill="#502F24" d="M22.89408,7.96336c0.06601-0.1232,0.13768-0.16342,0.24874-0.03711
		c0.04651,0.05289,0.11696,0.08844,0.19105,0.10854c0.04217,0.01144,0.07724,0.03842,0.06979,0.09161
		c-0.00849,0.0606-0.0603,0.04753-0.099,0.05663C23.13387,8.17231,23.0067,8.08124,22.89408,7.96336z"/>
	<path fill="#523026" d="M22.4787,7.82264c0.00093,0.03137,0.00597,0.06325,0.00209,0.09403
		c-0.01655,0.13135,0.05476,0.15162,0.16199,0.1307c0.05303-0.01035,0.10102-0.05982,0.16061-0.02108
		c-0.09738,0.10792-0.2283,0.14422-0.3647,0.17119C22.3698,8.2111,22.3263,8.18677,22.34489,8.11906
		C22.37356,8.01461,22.23977,7.83337,22.4787,7.82264z"/>
	<path fill="#623529" d="M7.27889,7.82898c0.13194-0.0582,0.20703-0.16429,0.25248-0.29533
		c0.01455,0.00827,0.01904,0.02192,0.02431,0.03693c0.00275,0.00785,0.00563-0.00441,0.00647-0.0065
		C7.60951,7.445,7.62841,7.34622,7.48396,7.26177c-0.18763-0.1097-0.21358-0.30997-0.22682-0.5069
		c0.20683-0.16523,0.6602-0.18278,0.86859-0.03527c0.12068,0.08543,0.14193,0.20214,0.11365,0.33597
		c-0.0284,0.13438-0.10144,0.23911-0.20786,0.32657c-0.04876,0.04007-0.15043,0.0329-0.14037,0.12704
		c0.0109,0.10198,0.05524,0.19217,0.14215,0.2552C8.05456,7.7798,8.07742,7.79964,8.10169,7.80326
		c0.15666,0.02334,0.17583,0.12076,0.142,0.2493C8.12874,8.10161,8.04151,8.03203,7.96222,7.9733
		C7.87029,7.9052,7.79,7.88871,7.69917,7.96355c-0.02202,0.0186-0.04404,0.03719-0.06606,0.05579
		C7.60669,8.02156,7.58296,8.03161,7.55874,8.04178C7.32651,8.13922,7.25806,8.08697,7.27889,7.82898z"/>
	<path fill="#4F2E24" d="M7.25714,6.75487c0.04752,0.00619,0.05901,0.03829,0.05674,0.07919
		C7.30197,7.04833,7.40579,7.19298,7.59161,7.28749c0.04625,0.02352,0.08718,0.0547,0.06487,0.10909
		c-0.02679,0.06531-0.0225,0.14834-0.09766,0.18941c-0.00915-0.01745-0.01829-0.0349-0.02744-0.05234
		c0.01232-0.07544-0.04646-0.09196-0.09604-0.12247C7.25006,7.29716,7.15349,7.13099,7.1666,6.91273
		C7.17027,6.85175,7.19492,6.78931,7.25714,6.75487z"/>
	<path fill="#502F24" d="M7.69917,7.96355c0.05661-0.11079,0.11718-0.16377,0.23421-0.05263
		c0.08298,0.07881,0.19255,0.1252,0.31031,0.14165c0.03636,0.13091-0.00761,0.16568-0.14135,0.1365
		C7.94189,8.15405,7.82023,8.06197,7.69917,7.96355z"/>
	<path fill="#553429" d="M7.27889,7.82898c0.01785,0.23211,0.14436,0.25807,0.33089,0.17285
		c0.00418-0.00191,0.01539,0.01134,0.02332,0.01751C7.53294,8.13226,7.39767,8.17196,7.25574,8.19859
		C7.18958,8.21101,7.14025,8.18836,7.16196,8.1196C7.19324,8.02057,7.05229,7.84953,7.27889,7.82898z"/>
	<path fill="#653D32" d="M14.87926,7.82243c0.11421-0.06157,0.18393-0.15866,0.22549-0.27824
		c0.10044-0.11808,0.10415-0.1676,0.00035-0.23955c-0.19664-0.13631-0.27379-0.3243-0.26258-0.55541
		c0.20552-0.15845,0.64608-0.17595,0.85408-0.03393c0.16198,0.1106,0.18261,0.31149,0.04767,0.51821
		c-0.03392,0.05196-0.08599,0.09187-0.12511,0.14094c-0.04475,0.05613-0.17312,0.03416-0.1485,0.15276
		c0.02456,0.11835,0.07773,0.2432,0.19738,0.26507c0.20497,0.03747,0.16123,0.17722,0.16943,0.30591
		c0.00721,0.11319-0.0424,0.1282-0.13316,0.08542c0.0092-0.02859,0.0543-0.05362,0.03149-0.08218
		c-0.05646-0.07067-0.16281-0.07268-0.22013-0.1447c-0.0782-0.09825-0.14849-0.01991-0.22143,0.00699
		c-0.04922,0.01734-0.06651,0.08202-0.1262,0.08384c-0.02699-0.00234-0.05333,0.00196-0.07747,0.01319
		c-0.07079,0.03294-0.14799,0.05444-0.20732-0.00621C14.81542,7.9852,14.82983,7.90086,14.87926,7.82243z"/>
	<path fill="#503025" d="M14.84253,6.74923c0.0757,0.09296,0.02584,0.22077,0.09811,0.32103
		c0.05889,0.0817,0.10842,0.16184,0.20231,0.21095c0.10807,0.05653,0.10279,0.24529-0.00628,0.30294
		c-0.02332,0.01232-0.0266-0.02171-0.03193-0.03997c0.02149-0.08337-0.04202-0.10198-0.09649-0.13653
		c-0.18356-0.11643-0.27972-0.28199-0.25963-0.50306C14.75453,6.83976,14.78261,6.78396,14.84253,6.74923z"/>
	<path fill="#513127" d="M15.29424,7.96372c0.07043-0.13341,0.15049-0.16142,0.25357-0.02834
		c0.04299,0.0555,0.11086,0.07412,0.17651,0.09479c0.0388,0.01221,0.07986,0.03009,0.08021,0.08335
		c0.00047,0.07185-0.05738,0.06007-0.10022,0.07009C15.53419,8.17175,15.40626,8.08235,15.29424,7.96372z"/>
	<path fill="#523329" d="M14.87926,7.82243c0.00085,0.02584,0.00522,0.05213,0.00198,0.07746
		c-0.02008,0.1571,0.06166,0.17772,0.18696,0.13781c0.03619-0.01153,0.06955-0.02422,0.09983,0.00987
		c-0.09617,0.0694-0.19345,0.13143-0.31697,0.14931c-0.0881,0.01275-0.12558-0.0156-0.10763-0.09639
		C14.76607,7.99865,14.65186,7.8263,14.87926,7.82243z"/>
	<path fill="#EBE6E4" d="M23.01603,6.97938c0.05788,0.12308-0.0528,0.13119-0.11616,0.14423
		c-0.06779,0.01395-0.15909-0.02395-0.15799-0.0949c0.00133-0.08607,0.10259-0.03325,0.15448-0.05752
		C22.93869,6.93881,22.97869,6.93992,23.01603,6.97938z"/>
	<path fill="#512D22" d="M23.01603,6.97938c-0.03989-0.00273-0.07978-0.00546-0.11967-0.00819
		c-0.02381-0.05197-0.06366-0.11837,0.03819-0.11905c0.07614-0.00051,0.189-0.05185,0.22109,0.04413
		C23.17672,6.95935,23.07886,6.97397,23.01603,6.97938z"/>
	<path fill="#ECE8E6" d="M7.82276,6.97641C7.867,7.00689,7.87294,7.04087,7.82852,7.07511
		C7.7731,7.11783,7.71549,7.14765,7.64249,7.10989C7.60417,7.09007,7.54923,7.06358,7.55842,7.0287
		C7.5822,6.93849,7.67309,6.99691,7.72927,6.97163C7.76185,6.94595,7.79295,6.94878,7.82276,6.97641z"/>
	<path fill="#522D22" d="M7.82276,6.97641C7.7916,6.97481,7.76043,6.97322,7.72927,6.97163
		C7.72154,6.9361,7.64738,6.90312,7.70428,6.869c0.07389-0.04431,0.16347-0.02396,0.2458-0.01135
		C7.9784,6.86199,7.98606,6.89481,7.97416,6.92161C7.9434,6.99089,7.8775,6.9695,7.82276,6.97641z"/>
	<path fill="#EDE8E7" d="M15.41602,6.97994c0.05564,0.1227-0.05381,0.13077-0.11748,0.14341
		c-0.0675,0.0134-0.15861-0.02386-0.15668-0.09536c0.0023-0.08493,0.10317-0.03246,0.15518-0.05681
		C15.33932,6.93907,15.37914,6.93988,15.41602,6.97994z"/>
	<path fill="#4F2E23" d="M15.41602,6.97994c-0.03966-0.00292-0.07932-0.00584-0.11897-0.00877
		c-0.03387-0.05504-0.0331-0.10901,0.03966-0.11625c0.0677-0.00673,0.16862-0.04713,0.19987,0.03024
		C15.57219,6.97335,15.47429,6.96817,15.41602,6.97994z"/>
</g>
</svg>
