<?xml version="1.0" encoding="utf-8"?>
<!-- Generator: Adobe Illustrator 23.0.0, SVG Export Plug-In . SVG Version: 6.00 Build 0)  -->
<svg version="1.1" id="Слой_1" xmlns="http://www.w3.org/2000/svg" xmlns:xlink="http://www.w3.org/1999/xlink" x="0px" y="0px" width="32px" height="13px"
	 viewBox="0 0 32 13" enable-background="new 0 0 32 13" xml:space="preserve">
<g>
	<path fill="#55718A" d="M0.00225,12.23625c0-2.21853,0-4.43706,0-6.65559c0.01796-0.01273,0.0375-0.01592,0.05868-0.0096
		C0.07813,5.58375,0.09056,5.6,0.09853,5.61971C0.12702,5.71267,0.1171,5.8084,0.11713,5.90305
		c0.00064,1.95427,0.00069,3.90853-0.00002,5.8628c-0.00005,0.1378,0.00338,0.27506,0.03584,0.40938
		c0.08204,0.33946,0.29457,0.55315,0.63578,0.63856c0.1457,0.03647,0.2948,0.03731,0.44415,0.0373
		c5.19367-0.00046,10.38734-0.00054,15.58101,0.00064c0.1098,0.00003,0.22447-0.02317,0.32743,0.03974
		c0.02429,0.02764,0.02707,0.05558,0.00102,0.08384c-0.0635,0.01017-0.12747,0.005-0.19119,0.005
		c-5.31554,0.00028-10.63107,0.00018-15.94661,0.00114c-0.06788,0.00001-0.13821-0.01705-0.20402,0.01545
		c-0.01064,0-0.02129,0-0.03193,0C0.33447,12.92069,0.07903,12.66714,0.00225,12.23625z"/>
	<path fill="#224053" d="M27.59046,0.00265c0.32386,0.10065,0.64818,0.20023,0.93011,0.39754
		c0.09599,0.0898,0.21695,0.14655,0.31493,0.23302c0.04213,0.03717,0.10724,0.09228-0.02023,0.10375
		c-0.14833-0.0627-0.26842-0.17015-0.40653-0.24946c-0.42814-0.24584-0.8798-0.37452-1.38161-0.37416
		c-7.23145,0.00526-14.4629,0.00359-21.69435,0.00364c-0.11701,0-0.23431-0.00442-0.34987,0.01979
		C4.93533,0.14771,4.90621,0.12901,4.89473,0.08234c-0.00418-0.03031,0.00569-0.05643,0.02486-0.0797
		C12.47655,0.00265,20.0335,0.00265,27.59046,0.00265z"/>
	<path fill="#40586D" d="M17.14992,12.96456c-0.00084-0.02076-0.00168-0.04152-0.00251-0.06228
		c0.00674-0.00644,0.01348-0.01288,0.02015-0.01943c0.09112-0.04218,0.18836-0.02633,0.28307-0.02636
		c3.13256-0.00086,6.26512-0.00517,9.39766,0.0021c0.90301,0.0021,1.65092-0.32768,2.29342-0.94147
		c0.89009-0.85031,1.50346-1.8799,1.99246-2.99132c0.3029-0.68844,0.55179-1.39432,0.67312-2.13991
		c0.01756-0.10792-0.00973-0.22394,0.05475-0.3241c0.04657-0.03163,0.09142-0.02704,0.13487,0.00628c0,0.02113,0,0.04226,0,0.06339
		c-0.01669,0.01775-0.02211,0.04057-0.02861,0.06296c-0.03206,0.40668-0.13439,0.79955-0.25625,1.1859
		c-0.37038,1.17435-0.89763,2.27343-1.62596,3.27347c-0.17399,0.2389-0.36882,0.46122-0.55348,0.69204
		c-0.34113,0.35835-0.71779,0.67521-1.15446,0.91001c-0.37153,0.19978-0.76965,0.32535-1.20051,0.32522
		c-3.32396-0.00102-6.64791-0.00026-9.97188-0.00065C17.18521,12.98183,17.1666,12.97654,17.14992,12.96456z"/>
	<path fill="#3B556C" d="M4.91959,0.00265C4.9194,0.0236,4.91921,0.04454,4.91901,0.06549
		c-0.08219,0.06849-0.1816,0.04975-0.27546,0.04985C3.43681,0.11662,2.23007,0.11683,1.02333,0.11547
		C0.80404,0.11522,0.60157,0.15544,0.42999,0.30239C0.23078,0.47301,0.14783,0.69054,0.14818,0.94762
		c0.00105,0.78092,0.00046,1.56184,0.00035,2.34276C0.14844,3.96577,0.14898,4.64117,0.14797,5.31656
		C0.14784,5.40022,0.15885,5.4861,0.11752,5.56523c-0.01286,0.01986-0.03039,0.02543-0.0525,0.0168
		C0.05477,5.58151,0.04453,5.58083,0.0343,5.58C0.00469,5.52527,0.01947,5.46608,0.01944,5.40921
		C0.01852,3.86955,0.01868,2.32989,0.01868,0.7906c0.00296-0.40397,0.23859-0.68793,0.65411-0.78795
		C2.08839,0.00265,3.50399,0.00265,4.91959,0.00265z"/>
	<path fill="#264356" d="M31.99691,6.46808c-0.04213,0.00037-0.08426,0.00074-0.12639,0.00111
		c-0.04101,0.02633-0.07783,0.03098-0.10397-0.0197c0.09461-0.13423,0.06846-0.28203,0.04318-0.42707
		c-0.11863-0.68057-0.3442-1.32775-0.62241-1.95879c-0.32323-0.73315-0.71682-1.4271-1.1876-2.07594
		c-0.29251-0.40315-0.61979-0.77837-1.00661-1.09825c-0.05239-0.04333-0.11103-0.08406-0.12534-0.15814
		c-0.02511-0.11014-0.13666-0.13155-0.20481-0.19748c-0.0468-0.04528-0.1297-0.05282-0.14238-0.13363
		c0.48603,0.27854,0.88571,0.65841,1.23725,1.08412c1.04977,1.27127,1.76888,2.70872,2.15862,4.30762
		c0.02662,0.10919,0.01726,0.22727,0.08047,0.32753C31.99691,6.23566,31.99691,6.35187,31.99691,6.46808z"/>
	<path fill="#697681" d="M17.14992,12.96456c0.01008,0.00054,0.02017,0.00099,0.03026,0.00133
		c0.01094,0.0066,0.0147,0.01339,0.01131,0.02038c-0.00342,0.00707-0.0069,0.01062-0.01048,0.01062c-5.46017,0-10.92033,0-16.3805,0
		c0.058-0.05794,0.13142-0.03039,0.19718-0.03041C6.38177,12.96487,11.76585,12.96477,17.14992,12.96456z"/>
	<path fill="#535F69" d="M17.18102,12.99689c-0.00004-0.01035-0.00031-0.02069-0.00083-0.03101
		c3.2775-0.00022,6.55501-0.00246,9.83251,0.00137c0.52312,0.00061,1.00593-0.12006,1.453-0.38788
		c0.40207-0.24085,0.76404-0.52928,1.07252-0.88202c0.01667-0.01328,0.03168-0.01163,0.04502,0.00495
		c-0.55962,0.62223-1.19935,1.11641-2.05417,1.26771c-0.01268,0.00224-0.02299,0.01763-0.03441,0.02688
		C24.05678,12.99689,20.6189,12.99689,17.18102,12.99689z"/>
	<path fill="#445B6E" d="M29.58325,11.70231c-0.01501-0.00165-0.03001-0.0033-0.04502-0.00495
		c0.58495-0.67699,1.07792-1.41443,1.46782-2.21808c0.38671-0.79708,0.705-1.61876,0.88559-2.48857
		c0.02944-0.14181,0.01912-0.2901,0.07314-0.42758c0.02254,0.01524,0.01037,0.0478,0.03214,0.06343c0,0.05282,0,0.10564,0,0.15847
		c-0.09524,0.24971-0.11495,0.51755-0.19092,0.77244c-0.4443,1.49064-1.11186,2.86475-2.13389,4.05547
		C29.64483,11.64469,29.61297,11.6726,29.58325,11.70231z"/>
	<path fill="#40596F" d="M0.00225,0.73159c0.01041,0.00062,0.02033-0.00128,0.02976-0.00569
		c0.00076,1.61803,0.00152,3.23607,0.00229,4.8541C0.02362,5.58022,0.01293,5.58044,0.00225,5.58067
		C0.00225,3.96431,0.00225,2.34795,0.00225,0.73159z"/>
	<path fill="#767F87" d="M31.99691,6.62654c-0.02835-0.01234-0.03056-0.03772-0.03214-0.06343
		c0.01071-0.01055,0.02142-0.0211,0.03214-0.03165C31.99691,6.56316,31.99691,6.59485,31.99691,6.62654z"/>
	<path fill="#44637F" d="M0.06501,5.58203c0.01108-0.00052,0.02215-0.00105,0.03323-0.00157
		C0.29903,5.57332,0.47142,5.7265,0.51806,5.95484c0.01918,0.09388,0.01422,0.18933,0.01423,0.28428
		c0.00023,1.83743,0.00013,3.67487,0.00024,5.5123c0,0.0739-0.00312,0.14799,0.0047,0.22161
		c0.02509,0.23633,0.21904,0.43165,0.45697,0.4597c0.09,0.01061,0.18068,0.00607,0.27107,0.00607
		c5.06421,0.00015,10.12843,0.0001,15.19264,0.00034c0.10625,0,0.2132-0.00696,0.31823,0.01487
		c0.24135,0.05015,0.4057,0.24731,0.37457,0.44729c0,0-0.00326,0.00097-0.00328,0.00097
		c-5.35061-0.00019-10.7012,0.00002-16.05179-0.00167c-0.29248-0.00009-0.557-0.06506-0.77498-0.29268
		c-0.19685-0.20555-0.25176-0.44722-0.25226-0.70683C0.06445,9.86338,0.06622,7.82564,0.06616,5.7879
		C0.06615,5.71928,0.06541,5.65065,0.06501,5.58203z"/>
	<path fill="#2D4961" d="M17.15071,12.90131c-0.09488-0.31028-0.23031-0.41146-0.55219-0.41146
		c-5.16477-0.00008-10.32954-0.00299-15.49428,0.00654c-0.33501,0.00062-0.63228-0.29433-0.62989-0.6214
		c0.01396-1.91106,0.00686-3.82227,0.00683-5.73343c-0.00001-0.32157-0.07916-0.43741-0.38294-0.5611
		C0.09817,4.02238,0.09779,2.4643,0.09819,0.90622c0.00012-0.47818,0.36436-0.83981,0.8459-0.84005
		c1.32498-0.00066,2.64996-0.0005,3.97493-0.00068c0.00131,0.02604,0.00665,0.05009,0.03223,0.06412
		c0.04718,0.01833,0.07453,0.0584,0.10457,0.09509c0.09342,0.11413,0.21541,0.16802,0.36191,0.17205
		C5.49755,0.39895,5.57737,0.3983,5.65719,0.3983c7.02476,0.00005,14.04953,0.00481,21.07427-0.00903
		c0.55958-0.0011,1.03779,0.15814,1.51309,0.41069c0.69686,0.37027,1.19596,0.93609,1.64209,1.56422
		c0.43946,0.61874,0.72291,1.31471,1.03162,1.99851c0.20493,0.45392,0.37786,0.92019,0.48082,1.40819
		c0.05556,0.26333,0.19676,0.47313,0.37417,0.66587c0.02349,0.03718,0.06203,0.02988,0.09726,0.03244
		c0.01048,0.39972-0.09508,0.78104-0.2064,1.15764c-0.26049,0.88128-0.62953,1.71888-1.08922,2.51546
		c-0.26581,0.46062-0.56639,0.89807-0.91938,1.30018c-0.27622,0.31465-0.56451,0.61556-0.90502,0.8604
		c-0.44419,0.3194-0.92635,0.53756-1.48893,0.57469c-0.26537,0.01752-0.52958,0.02252-0.79411,0.0227
		C23.36187,12.90233,20.25629,12.90143,17.15071,12.90131z"/>
	<path fill="#123247" d="M31.77324,6.43674c-0.26313-0.1191-0.35271-0.36259-0.40735-0.60972
		c-0.16984-0.76821-0.50239-1.47338-0.82302-2.18464c-0.25038-0.55542-0.56479-1.06906-0.92452-1.56276
		c-0.57652-0.79122-1.34566-1.29998-2.2594-1.61678c-0.06256-0.02169-0.13627-0.01587-0.2048-0.01588
		C19.9227,0.44633,12.69125,0.44611,5.4598,0.44748C5.21793,0.44753,5.03774,0.36653,4.95125,0.12961
		c0.00577-0.04409,0.03165-0.06375,0.07578-0.06324C5.07492,0.06693,5.12281,0.06602,5.1707,0.06602
		c7.31127-0.00002,14.62255,0.0016,21.93382-0.00302c0.60312-0.00038,1.11278,0.22552,1.59488,0.54996
		c0.05691,0.0383,0.11229,0.07884,0.16838,0.11834c0.65288,0.51284,1.15169,1.15698,1.58487,1.85349
		c0.47793,0.76845,0.86947,1.57963,1.14829,2.44022c0.13395,0.41345,0.26266,0.83116,0.26823,1.27268
		C31.87001,6.36564,31.88414,6.44408,31.77324,6.43674z"/>
	<path fill="#3B556B" d="M27.81405,11.9194c-0.18305,0.16484-0.41986,0.15144-0.64095,0.18915
		c-0.03618,0.00617-0.07434,0.0009-0.11159,0.0009c-8.62529,0-17.25057,0-25.87586,0c-0.29593,0-0.32124-0.02461-0.32124-0.31255
		C0.8644,8.23723,0.86439,4.67758,0.86442,1.11792c0-0.25607,0.03558-0.29121,0.29484-0.29121
		C9.80583,0.8267,18.45241,0.82635,27.09898,0.82833c0.27732,0.00006,0.54353,0.06248,0.77902,0.22012
		c-0.06152,0.04942-0.12169,0.01769-0.18011-0.00538c-0.21048-0.0831-0.42745-0.11035-0.65455-0.11028
		c-8.5801,0.00253-17.1602,0.00218-25.7403,0.00204C0.94717,0.93482,0.97347,0.91764,0.97347,1.26058
		C0.97343,2.90787,0.97332,4.55516,0.97378,6.20245c0.00003,0.08931-0.00907,0.17972,0.02154,0.26678
		c0.01132,0.05741,0.00973,0.11559,0.00975,0.17359c0.00042,1.24548,0.00043,2.49097,0,3.73645
		c-0.00002,0.058,0.00133,0.11617-0.00914,0.17369c-0.04437,0.17191-0.01786,0.34696-0.02126,0.52046
		c-0.00476,0.24284-0.0024,0.48585-0.00074,0.72877c0.00121,0.17778,0.02067,0.19551,0.20511,0.19874
		c0.05851,0.00102,0.11705,0.0003,0.17558,0.0003c8.57168,0,17.14336-0.0002,25.71505,0.00124
		c0.20387,0.00003,0.40341-0.00831,0.59402-0.08908C27.71285,11.89255,27.7656,11.87794,27.81405,11.9194z"/>
	<path fill="#3C566C" d="M27.81405,11.9194c-0.51116,0.20747-1.04791,0.12318-1.57399,0.12347
		c-8.35214,0.00459-16.70428,0.00323-25.05642,0.00322c-0.25536,0-0.25539-0.00004-0.25541-0.248
		c-0.00003-0.35906-0.00092-0.71812,0.00095-1.07717c0.00029-0.05548-0.02125-0.11749,0.03078-0.1644
		c0.06986,0.07021,0.02474,0.16882,0.06253,0.24704c0.01384,0.05268,0.02872,0.10521,0.02096,0.16064
		c-0.00596,0.27806,0.00195,0.55615-0.0037,0.83407c-0.00243,0.11969,0.04216,0.17152,0.16583,0.16863
		c0.3011-0.00703,0.60248,0.00716,0.90363-0.00898c0.2533,0.00902,0.50654,0.01857,0.75989-0.00181
		c0.14357,0.006,0.28709,0.0067,0.43065,0.00669c3.36029-0.00021,6.72059-0.00011,10.08088-0.00023
		c0.0638,0,0.12761-0.00113,0.1912,0.00545c3.13132,0.00373,6.26264,0.00103,9.39396,0.00116
		c1.2227,0.00005,2.44542,0.00467,3.66768-0.00421c0.318,0.01047,0.63562,0.03401,0.94795-0.06779
		c0.33663-0.10972,0.61814-0.30513,0.87638-0.53519c0.41399-0.36884,0.75975-0.79639,1.05968-1.2606
		c0.46117-0.71376,0.83593-1.46928,1.11023-2.273c0.08526-0.2311,0.15416-0.46689,0.20589-0.70768
		c0.06871-0.15984,0.08442-0.33144,0.11249-0.5003c0.03728-0.21861,0.01855-0.43295-0.04878-0.64364
		c-0.04468-0.26704-0.12885-0.52317-0.21931-0.77781c-0.46206-1.30531-1.10528-2.50411-2.09931-3.49273
		c-0.29574-0.29413-0.63881-0.52489-1.04399-0.65169c-0.14902-0.04664-0.3025-0.05284-0.45764-0.05283
		C19.57028,1.00242,12.06348,1.0023,4.55669,1.00225c-0.05852,0-0.11712,0.0027-0.17553-0.00279
		C4.06859,1.00552,3.75589,0.99725,3.44325,1.00675c-0.0299-0.00183-0.05772-0.0112-0.08486-0.02282
		c-0.38677-0.02807-0.7734-0.0334-1.15987,0.0048c-0.21966,0.0145-0.43959,0.01121-0.6594,0.01102
		C1.43872,1.0029,1.3382,1.00163,1.23771,1.00287C1.05489,1.00512,1.04333,1.01612,1.04199,1.2033
		C1.04018,1.45536,1.04196,1.70743,1.04124,1.9595C1.04106,2.02251,1.04074,2.08558,1.02836,2.14783
		C0.97308,2.45083,1.02462,2.75716,0.99915,3.06101c-0.00271,0.03236,0.0459,0.00796,0.04277,0.03979
		c0.00622,0.3321,0.00017,0.66403,0.00084,0.99596C1.04414,4.78229,1.04348,5.46784,1.0428,6.15338
		C1.04272,6.23743,1.05008,6.32238,1.02467,6.40489C1.01295,6.43592,0.99311,6.45884,0.95993,6.46825
		c-0.05187-0.047-0.03077-0.10901-0.03081-0.16451C0.92803,4.56615,0.92816,2.82856,0.92834,1.09097
		c0.00002-0.20031,0.00068-0.20084,0.20709-0.20084c8.69452-0.00009,17.38903,0.00009,26.08355-0.00119
		c0.18032-0.00003,0.34309,0.05984,0.50756,0.11798c0.04982,0.01761,0.0953,0.04762,0.15145,0.04153
		c0.2265,0.07508,0.40225,0.23035,0.58216,0.37474c0.61599,0.49433,1.04236,1.13885,1.44636,1.80314
		c0.38788,0.63778,0.68971,1.31316,0.92676,2.0172c0.12388,0.36792,0.24591,0.74228,0.25808,1.13266
		c0.00726,0.23299-0.04317,0.46833-0.10167,0.69765c-0.18419,0.722-0.45702,1.41256-0.78337,2.08028
		c-0.16282,0.33314-0.33559,0.66619-0.57205,0.95875c-0.03704,0.09459-0.10953,0.16715-0.15989,0.25346
		c-0.01064,0.01058-0.02129,0.02115-0.03193,0.03173c-0.04251,0.06345-0.07895,0.1309-0.12773,0.1902l0.00008-0.00003
		c-0.28934,0.38288-0.62215,0.7249-0.99305,1.02989c-0.09694,0.07971-0.20723,0.14275-0.31619,0.20614
		c-0.02121,0.0106-0.04242,0.02121-0.06363,0.03181c-0.03605,0.03424-0.08711,0.03863-0.12794,0.06338L27.81405,11.9194z"/>
	<path fill="#3B556B" d="M28.00556,11.82424c0.33332-0.23922,0.64181-0.50603,0.92367-0.804
		c0.13285-0.14045,0.22965-0.31223,0.38557-0.43203c-0.03478,0.15409-0.16523,0.24128-0.25995,0.34989
		c-0.28427,0.32599-0.59215,0.62915-0.95792,0.86737C28.07275,11.82123,28.0363,11.81842,28.00556,11.82424z"/>
	<path fill="#3B556B" d="M29.47438,10.36631c0.01201-0.11014,0.09805-0.17428,0.15988-0.25346
		C29.62518,10.22481,29.56455,10.30474,29.47438,10.36631z"/>
	<path fill="#3B556B" d="M29.31472,10.58824c0.0204-0.07807,0.06011-0.14337,0.12773-0.1902
		C29.42952,10.48106,29.39129,10.54733,29.31472,10.58824z"/>
	<path fill="#3B556B" d="M27.814,11.91943c0.03246-0.04138,0.07712-0.05849,0.12793-0.06338
		C27.91752,11.91344,27.86876,11.92239,27.814,11.91943z"/>
	<path fill="#43505B" d="M0.95993,6.46825c0.00804-0.01062,0.01608-0.02124,0.02411-0.03185
		c0.0826,0.07524,0.05833,0.17564,0.05852,0.26712c0.00201,0.94721,0.0016,1.89443,0.00079,2.84164
		C1.04322,9.69779,1.04691,9.8502,1.05484,10.00257c-0.03279,0.1936-0.00252,0.38866-0.01303,0.58277
		c-0.00419,0.07741,0.01272,0.15982-0.04947,0.22482c-0.06442-0.07781-0.01784-0.16957-0.03236-0.25364
		C0.95996,9.19376,0.95995,7.831,0.95993,6.46825z"/>
	<path fill="#805990" d="M4.37637,0.95497c0.07447-0.00085,0.14893-0.00244,0.2234-0.00244
		c7.46998-0.00011,14.93996,0.00257,22.40993-0.00578c0.52984-0.00059,0.95994,0.19298,1.35217,0.50611
		c0.63888,0.51007,1.09508,1.16911,1.50481,1.8634c0.31475,0.53334,0.57729,1.09107,0.79273,1.67084
		c0.02926,0.07875,0.07037,0.1545,0.05805,0.24294c-0.04783,0.18746-0.07825,0.37945-0.15779,0.55846
		c-0.14706,0.33096-0.70858,0.65229-1.05116,0.59911c-0.03882-0.02785-0.07783-0.05364-0.12614-0.06525
		c-0.42261-0.10155-0.76554-0.33599-1.06299-0.64057c-0.30512-0.31244-0.64035-0.58648-1.00752-0.82432
		c-0.41776-0.27061-0.89141-0.39382-1.36233-0.52724c-0.77469-0.21948-1.56357-0.36548-2.3647-0.44257
		c-0.2751-0.02647-0.55308-0.00407-0.82972-0.00776c-0.07938-0.00106-0.16002,0.00863-0.23694-0.02115
		c-0.05522-0.02606-0.08844-0.07399-0.12196-0.12162c-0.39273-0.55805-0.89845-0.98508-1.53417-1.24018
		c-0.93667-0.37586-1.87389-0.36215-2.7956,0.0614c-0.1963,0.09021-0.39856,0.17581-0.55509,0.33401
		c-0.02335,0.01788-0.04968,0.02824-0.07857,0.03328c-0.10066,0.01134-0.20149,0.01245-0.30245,0.01243
		c-1.16315-0.00022-2.3263-0.00023-3.48945,0.00003c-0.09563,0.00002-0.19117-0.00125-0.28648-0.0073
		c-0.02871,0.00007-0.05687-0.00404-0.08383-0.01375c-0.57885-0.42675-1.23937-0.62928-1.94948-0.69593
		c-0.01861-0.00408-0.036-0.01056-0.053-0.0189c-0.15198-0.10263-0.32199-0.12352-0.50133-0.12335
		C8.9392,2.0807,7.11163,2.08077,5.28407,2.07955c-0.47988-0.00032-0.77696-0.20382-0.94126-0.6365
		C4.33271,1.38972,4.31722,1.33731,4.308,1.28366C4.3038,1.24967,4.30271,1.21544,4.30343,1.18119
		c-0.00039-0.03311,0.00039-0.06626,0.0043-0.09927C4.31243,1.02998,4.33671,0.98835,4.37637,0.95497z"/>
	<path fill="#B686BA" d="M1.01689,10.02066C0.97935,9.86517,0.9911,9.70668,0.99087,9.54938
		c-0.00142-0.97457-0.0006-1.94913-0.00098-2.9237C0.98987,6.56259,0.98611,6.49949,0.98407,6.4364
		c0.00218-1.03175,0.0047-2.06349,0.00599-3.09523C0.99017,3.25154,0.99181,3.16297,1.02048,3.077
		C1.00571,3.04524,1.0183,3.01612,1.02895,2.98669C1.143,2.76791,1.26045,2.55212,1.52232,2.4725
		c0.09796-0.0086,0.17672,0.03201,0.24734,0.09418C1.95391,2.71108,2.00108,2.90605,2.0007,3.12954
		C1.99772,4.86679,2.00027,6.60405,1.99794,8.34131c-0.00047,0.3521,0.11749,0.64,0.41712,0.84169
		c0.169,0.11376,0.35937,0.15248,0.56066,0.15235C3.54496,9.335,4.1142,9.33406,4.68344,9.33564
		c0.42395,0.00118,0.66118,0.18778,0.76395,0.59638c0.1022,0.40633,0.42163,0.6717,0.84281,0.69996
		c0.04248,0.00285,0.08507,0.00263,0.12763,0.0026c2.15989-0.00154,4.31978,0.00799,6.47967,0.00431
		c0.42295-0.00072,0.71482,0.27919,0.7236,0.69628c0.00144,0.0686,0.0025,0.13729-0.00159,0.20575
		c-0.00273,0.0362,0.00066,0.07274-0.00293,0.10891c-0.00075,0.03411,0.00038,0.06839-0.00158,0.10252
		c-0.00019,0.03287,0.0001,0.06583-0.00099,0.09875c0.00013,0.03266-0.00073,0.06529-0.0065,0.09762
		c-0.00527,0.02481-0.01834,0.04513-0.03685,0.06225c-0.05843,0.00126-0.11685,0.00363-0.17528,0.00363
		c-3.4394,0.00017-6.8788,0.00014-10.3182,0.00024c-0.0794,0-0.15954,0.00691-0.23391-0.03053
		c-0.13649-0.00467-0.21977-0.09867-0.29806-0.18855c-0.16108-0.18495-0.24308-0.4037-0.25386-0.64922
		c-0.0103-0.23453-0.06067-0.29314-0.29531-0.29333c-0.4939-0.0004-0.74229-0.32483-0.95771-0.69594
		C1.01619,10.1191,1.00036,10.06979,1.01689,10.02066z"/>
	<path fill="#855E92" d="M30.65816,7.82907c-0.06841,0.29949-0.19861,0.57682-0.3233,0.85464
		c-0.35745,0.79649-0.78686,1.55381-1.36241,2.21549c-0.38533,0.443-0.80813,0.85219-1.39311,1.04319
		c-0.29057,0.09487-0.58694,0.06938-0.88305,0.06935c-0.03541-0.04434-0.0096-0.08303,0.01926-0.11221
		c0.10284-0.10398,0.16105-0.23445,0.22539-0.36127c0.09347-0.18425,0.24012-0.32323,0.43553-0.37078
		c0.8005-0.19479,1.28555-0.76974,1.72195-1.39624c0.49794-0.71485,0.86712-1.49666,1.15802-2.31552
		c0.02929-0.08244,0.03553-0.17814,0.11693-0.23606C30.55862,7.29591,30.68941,7.57589,30.65816,7.82907z"/>
	<path fill="#896098" d="M30.37131,7.22182c-0.33591,1.05643-0.81728,2.04132-1.49656,2.9226
		c-0.24418,0.31679-0.52574,0.60382-0.87405,0.81853c-0.15683,0.09668-0.32924,0.14469-0.50057,0.19615
		c-0.27038,0.08122-0.47729,0.2318-0.57387,0.49966c-0.04998,0.13862-0.18068,0.2183-0.22999,0.353
		c-0.15414,0.00096-0.30829,0.00279-0.46243,0.00279c-4.15199,0.00016-8.30398,0.00014-12.45598-0.00003
		c-0.06907,0-0.13814-0.00231-0.20721-0.00355c0.00144-0.01991,0.00288-0.03982,0.00432-0.05972
		c0.07768-0.06562,0.17182-0.04582,0.26036-0.04586c2.24537-0.00098,4.49073-0.00076,6.7361-0.00076
		c1.7931,0,3.5862-0.0007,5.3793,0.00119c0.16005,0.00017,0.31789-0.01303,0.47592-0.03389
		c0.17966-0.02371,0.27284-0.15016,0.352-0.29113c0.08863-0.15785,0.18545-0.30644,0.33879-0.41321
		c0.1109-0.07722,0.23207-0.13332,0.35974-0.16675c0.46984-0.12305,0.81569-0.41986,1.11884-0.77534
		c0.73609-0.86315,1.20872-1.86815,1.58709-2.92315c0.01778-0.04957,0.02896-0.10184,0.05948-0.14634
		C30.32635,7.09886,30.35785,7.14297,30.37131,7.22182z"/>
	<path fill="#2D4961" d="M30.37131,7.22182C30.33911,7.19055,30.3069,7.15927,30.27469,7.128
		c-0.03412,0.00048-0.05607-0.02314-0.0815-0.04001c-0.02086-0.01375-0.04283-0.02571-0.06407-0.03898
		c-0.03261-0.02264-0.06628-0.04333-0.10269-0.05973c-0.04712-0.02419-0.09734-0.03926-0.14853-0.05243
		c-0.14661-0.04894-0.29724-0.07009-0.45095-0.08437c-0.14826-0.01377-0.23682-0.15417-0.20477-0.29816
		c0.03286-0.14761,0.14245-0.2196,0.28358-0.18627c0.59598-0.07619,1.04041-0.33666,1.12156-0.9464
		c0.00922-0.06927,0.01135-0.15061,0.09017-0.19159c0.10318,0.23436,0.20031,0.47033,0.19498,0.73314
		c0.0341,0.12791-0.04917,0.21475-0.11608,0.30204c-0.06272,0.08181-0.1405,0.15237-0.221,0.21835
		c-0.02108,0.01567-0.04446,0.02802-0.06627,0.04272c-0.12617,0.08508-0.12495,0.08846-0.00335,0.18153
		c0.10835,0.08292,0.22123,0.16168,0.29564,0.28053c0.02763,0.04414,0.06644,0.08348,0.04733,0.14245
		c-0.00649,0.24811-0.09529,0.47408-0.19059,0.69828C30.61293,7.60321,30.56528,7.37847,30.37131,7.22182z"/>
	<path fill="#2D4961" d="M1.50351,2.50644C1.27501,2.60642,1.16487,2.81,1.05373,3.0127
		C0.9664,2.99642,0.99479,2.92527,0.99401,2.87547c-0.00319-0.20245-0.00392-0.405,0-0.60725
		c0.07677-0.18935,0.25912-0.24106,0.42184-0.31844c0.04292-0.01377,0.08828-0.01805,0.13132-0.03176
		c0.01366-0.0048,0.02774-0.00822,0.04188-0.01123c0.0485-0.00888,0.09917-0.00912,0.14318-0.03582
		C1.79392,1.83521,1.8024,1.77278,1.81769,1.71181c0.04422-0.17634,0.09135-0.35198,0.19383-0.5066
		c0.03573-0.04937,0.06899-0.10066,0.11239-0.14429c0.04099-0.04016,0.07998-0.08283,0.13555-0.10475
		C2.27735,0.95228,2.29478,0.94789,2.3123,0.94272c0.35845-0.0007,0.71686-0.02173,1.0747,0.01102
		C3.39754,0.9639,3.40808,0.97407,3.41863,0.98424c-0.03968,0.14649-0.1755,0.08183-0.26474,0.11929
		C3.07293,1.12029,2.99856,1.154,2.92645,1.19311C2.87358,1.21679,2.83123,1.25551,2.78631,1.29066
		c-0.03751,0.02495-0.07239,0.0529-0.10285,0.0863C2.43984,1.56521,2.34103,1.81541,2.3385,2.11798
		C2.33689,2.31055,2.22338,2.40803,2.02443,2.41989C1.95054,2.42429,1.87669,2.42592,1.80439,2.4432
		C1.70367,2.46212,1.60248,2.47906,1.50351,2.50644z"/>
	<path fill="#2D4961" d="M1.01689,10.02066c0.09051,0.23628,0.25036,0.42403,0.42586,0.60112
		c0.15419,0.15559,0.35426,0.17597,0.55676,0.18518c0.26983,0.01227,0.32588,0.06406,0.33463,0.32569
		c0.01261,0.37669,0.17942,0.66202,0.50914,0.85167c-0.24316,0.04993-0.48616,0.04891-0.72901-0.00212
		c-0.14884-0.06567-0.20818-0.20462-0.22339-0.34154c-0.0279-0.25117-0.15125-0.3673-0.40073-0.39178
		c-0.13694-0.01344-0.25941-0.09166-0.37292-0.17129c-0.04887-0.03428-0.11516-0.0636-0.09211-0.14533
		c-0.02485-0.03702-0.03723-0.07733-0.03279-0.12209C1.00725,10.54719,0.96019,10.28234,1.01689,10.02066z"/>
	<path fill="#B686BA" d="M1.02512,10.93225c0.16272,0.20503,0.39935,0.27209,0.6391,0.31588
		c0.14004,0.02558,0.21168,0.07502,0.22484,0.22189c0.01725,0.19251,0.09558,0.36505,0.22519,0.51217
		c-0.05653,0.06085-0.13005,0.03003-0.19505,0.03095c-0.27053,0.00383-0.54115,0.00142-0.81174,0.00168
		c-0.06009,0.00006-0.11796,0.00477-0.11722-0.08439c0.00262-0.31593,0.0014-0.63189,0.00382-0.94783
		C0.99418,10.96574,1.01431,10.94903,1.02512,10.93225z"/>
	<path fill="#855E93" d="M1.44171,1.96885C1.29159,2.03275,1.1636,2.13323,1.02543,2.2169
		C1.00046,2.20364,0.99429,2.18112,0.99469,2.15537C0.99347,1.79389,0.99407,1.4324,0.98973,1.07095
		C0.98869,0.98418,1.01685,0.94756,1.10757,0.95114c0.14231,0.0056,0.28495,0.00276,0.42745,0.00349
		c0.02348,0.0287,0.01958,0.06047,0.00144,0.08725C1.33827,1.33438,1.43209,1.65579,1.44171,1.96885z"/>
	<path fill="#855E92" d="M30.84873,7.13081c-0.08633-0.17336-0.22586-0.29864-0.38267-0.40509
		c-0.16145-0.10961-0.16399-0.10668,0.0059-0.21827c0.02565-0.01685,0.05503-0.02811,0.08268-0.04196
		c0.12211-0.05815,0.24549-0.01889,0.36559,0.00308c0.09392,0.01718,0.07712,0.09249,0.05591,0.16
		C30.96104,6.80282,30.96375,6.98153,30.84873,7.13081z"/>
	<path fill="#896097" d="M1.44171,1.96885C1.3651,1.95863,1.37559,1.90035,1.37546,1.84899
		C1.37503,1.6711,1.38393,1.49268,1.37272,1.31549c-0.00974-0.15395,0.11743-0.237,0.16231-0.36088
		C1.7594,0.9526,1.98378,0.95056,2.20816,0.94853c0.03448-0.01118,0.06732-0.01961,0.06167,0.03633
		C2.26124,0.98663,2.25257,0.98747,2.2438,0.98738c-0.10224,0.05337-0.2153,0.0455-0.32486,0.05455
		C1.68379,1.06136,1.54532,1.1997,1.52882,1.43489C1.52113,1.54456,1.51083,1.65391,1.51279,1.76418
		c0.00114,0.0645,0.00906,0.12452,0.05615,0.17326C1.53378,1.97685,1.48595,1.96567,1.44171,1.96885z"/>
	<path fill="#8C629B" d="M3.12893,1.07916C3.21399,1.01293,3.3462,1.0885,3.41863,0.98425
		c0.12003-0.06076,0.24864-0.0267,0.37311-0.03009c0.19473-0.00531,0.38974-0.00002,0.58464,0.00079
		C4.36581,0.99674,4.35526,1.03851,4.3447,1.08028C4.29809,1.12304,4.24044,1.12725,4.18118,1.12731
		C3.88443,1.12759,3.58768,1.12792,3.29092,1.12703C3.23251,1.12685,3.17323,1.12739,3.12893,1.07916z"/>
	<path fill="#7F5990" d="M30.97615,6.62856c0.00916-0.09044-0.02119-0.13342-0.12351-0.13162
		c-0.09908,0.00174-0.19858-0.01999-0.29795-0.03143c0.14326-0.15059,0.3082-0.28598,0.35775-0.50233
		c0.102,0.04757,0.05985,0.14872,0.07489,0.2231C31.01676,6.3318,31.03576,6.48272,30.97615,6.62856z"/>
	<path fill="#414F5A" d="M0.99469,2.15537c0.02466,0.01345,0.02947,0.03665,0.03073,0.06157
		C1.02497,2.43779,1.02386,2.65868,1.02457,2.87957C1.02471,2.9253,1.01094,2.97556,1.05374,3.0127
		C1.04266,3.03413,1.03159,3.05557,1.0205,3.07701C0.99688,3.08176,0.96135,3.10105,0.96202,3.05752
		c0.00451-0.29312-0.01833-0.58662,0.01195-0.8793C0.97482,2.16999,0.98752,2.16296,0.99469,2.15537z"/>
	<path fill="#424F5A" d="M2.26983,0.98486c-0.01161-0.02712-0.03741-0.03045-0.0617-0.03629
		c0.07212-0.05263,0.15459-0.02409,0.23169-0.02525c0.26586-0.00399,0.53182-0.00237,0.79773-0.0008
		C3.28854,0.92281,3.34543,0.90506,3.387,0.95373C3.07592,0.95364,2.76484,0.95378,2.45376,0.95324
		C2.39037,0.95313,2.32683,0.94956,2.26983,0.98486z"/>
	<path fill="#9B6DAB" d="M1.79033,2.41098c0.05804-0.03289,0.1222-0.02877,0.18549-0.03052
		c0.25532-0.00704,0.32512-0.06933,0.32586-0.3159c0.00093-0.31106,0.1135-0.55998,0.38124-0.73172
		C2.94762,1.3003,3.21335,1.32388,3.47855,1.31918c0.23373-0.00414,0.46759-0.00124,0.70139-0.00062
		C4.25577,1.31877,4.3304,1.32204,4.37587,1.397c0.14165,0.41689,0.44279,0.63395,0.88057,0.63398
		c1.86658,0.0001,3.73317,0.00104,5.59975-0.0016c0.17329-0.00025,0.32352,0.04094,0.44987,0.15981
		c-0.04508,0.04831-0.10562,0.04202-0.16296,0.04387c-0.50736,0.01639-0.99718,0.10894-1.45766,0.32888
		c-0.22294,0.08735-0.43964,0.18435-0.5892,0.38356C9.01754,3.03294,8.91702,3.09432,8.82769,3.16888
		C8.17381,3.71459,7.78188,4.40698,7.6375,5.24075c-0.0209,0.12067-0.02088,0.24156-0.02089,0.3629
		C7.61656,6.16835,7.61628,6.73307,7.61674,7.29778c0.00019,0.22926,0.00371,0.2328,0.22821,0.23304
		c0.5264,0.00055,1.05281-0.00096,1.57921,0.0007c0.23908,0.00076,0.26618,0.02792,0.26742,0.2637
		c0.0018,0.34304-0.00057,0.6861,0.00094,1.02914c0.00081,0.18289,0.01347,0.19745,0.20194,0.19468
		c0.12263-0.0018,0.26072,0.03987,0.3493-0.09303c0.08006-0.03804,0.0856-0.11137,0.08722-0.18516
		c0.00298-0.13523-0.00081-0.27053,0.00212-0.40577c0.00123-0.05705,0.00095-0.11517,0.03961-0.16368
		c0.03029-0.02411,0.06652-0.03115,0.10372-0.03576c0.2735-0.03384,0.3328,0.01729,0.33474,0.28998
		c0.00102,0.14226,0.00322,0.28462-0.00036,0.42676c-0.00308,0.12241,0.05227,0.17524,0.17255,0.1659
		c0.12782-0.00993,0.27022,0.03979,0.36906-0.08866c0.07129-0.04942,0.09732-0.11854,0.09709-0.20306
		c-0.00035-0.13093-0.00179-0.26191,0.00132-0.39282c0.00137-0.05741,0.00101-0.11602,0.04147-0.16411
		c0.04529-0.03302,0.09835-0.03506,0.15135-0.03688c0.19971-0.00686,0.24701,0.03475,0.25234,0.22983
		c0.00459,0.16787,0.00177,0.33587,0.00158,0.50379c-0.00012,0.10528,0.04666,0.1601,0.15281,0.15017
		c0.14586-0.01365,0.31154,0.0596,0.42764-0.09159c0.0947-0.04693,0.08543-0.13612,0.08615-0.21799
		c0.00269-0.30322-0.00009-0.60646,0.00174-0.90969c0.00047-0.0775-0.0094-0.15804,0.04111-0.22721
		c0.07488-0.05334,0.16183-0.04155,0.24536-0.0418c0.49182-0.00147,0.98364-0.00001,1.47546-0.00121
		c0.08376-0.0002,0.17172,0.00846,0.2334-0.06797c0.09167-0.05432,0.11882-0.13548,0.11816-0.23929
		c-0.00319-0.50038,0.01765-1.00165-0.00556-1.50102c-0.04932-1.0614-0.42848-1.97835-1.26034-2.68178
		c-0.04639-0.03922-0.11085-0.07028-0.09572-0.14966c1.38224-0.00054,2.76449-0.00107,4.14673-0.00161
		c0.00975,0.08077-0.05951,0.10564-0.10702,0.14172c-0.75097,0.57015-1.22206,1.31053-1.38772,2.23806
		c-0.01214,0.06794-0.01859,0.13594-0.01865,0.20474c-0.00053,0.61787-0.00085,1.23574,0.00022,1.85361
		c0.00033,0.19232,0.0144,0.20584,0.20984,0.20631c0.53205,0.00128,1.06411-0.00081,1.59615,0.00102
		c0.23962,0.00082,0.26717,0.02836,0.26849,0.26363c0.00192,0.34325-0.0005,0.68652,0.00096,1.02978
		c0.00076,0.17976,0.01362,0.19147,0.18666,0.19544c0.32528,0.00745,0.32512,0.00745,0.32542-0.31228
		c0.00012-0.12674-0.00451-0.25365,0.00266-0.38014c0.00333-0.05863-0.01014-0.13208,0.07607-0.15275
		c0.07051,0.08061,0.0413,0.17889,0.04623,0.27045c0.00644,0.11949-0.00623,0.23964,0.01768,0.3595
		c0.02436-0.13638,0.01307-0.27469,0.01781-0.41212c0.00266-0.07713-0.01207-0.15833,0.04418-0.22562
		C18.78005,8.1419,18.822,8.1371,18.86459,8.1338c0.22313-0.01729,0.27612,0.0291,0.2802,0.24998
		c0.00301,0.16309,0.00038,0.32624,0.00151,0.48936c0.00068,0.09771,0.0448,0.1506,0.14422,0.14321
		c0.13684-0.01017,0.29064,0.0525,0.39937-0.08637c0.07542-0.03867,0.09159-0.10621,0.09246-0.18259
		c0.00148-0.1297-0.00124-0.25942,0.00164-0.38908c0.00148-0.06676-0.0043-0.13624,0.04636-0.19184
		c0.04132-0.02826,0.08896-0.03181,0.13683-0.03491c0.24428-0.01583,0.29323,0.02791,0.29688,0.26861
		c0.0024,0.158,0.00048,0.31603,0.00127,0.47405c0.00049,0.09887,0.04657,0.13686,0.14538,0.14356
		c0.35237,0.02388,0.36012,0.01928,0.3603-0.32537c0.00015-0.30551-0.00282-0.61106,0.00204-0.91651
		c0.00117-0.07346-0.0219-0.16312,0.0759-0.20425c0.04689,0.03715,0.04996,0.09071,0.0502,0.14307
		c0.00163,0.35636,0.00307,0.71274,0.00074,1.06909c0.00193-0.33459,0.00086-0.66922,0.002-1.00383
		c0.00025-0.07271-0.00913-0.14816,0.04114-0.21188c0.07607-0.05127,0.16309-0.03978,0.24697-0.04001
		c0.4987-0.00136,0.9974,0.00003,1.4961-0.00118c0.08908-0.00022,0.18336,0.01087,0.24772-0.07348
		c0.05504-0.04006,0.07719-0.09081,0.07699-0.16155c-0.00164-0.57505,0.0195-1.15102-0.00773-1.72489
		c-0.02307-0.48613-0.1328-0.96061-0.35869-1.40129c-0.05025-0.09804-0.11588-0.19003-0.13784-0.30118
		c0.00236-0.00895,0.00483-0.0179,0.00731-0.02685c0.17022-0.00005,0.34061,0.00481,0.51063-0.001
		c0.69882-0.02388,1.38204,0.09541,2.05991,0.23732c0.59018,0.12356,1.17614,0.27103,1.74045,0.48904
		c0.39019,0.15074,0.73219,0.38181,1.0468,0.65049c0.27317,0.23329,0.52774,0.48796,0.79937,0.72313
		c0.20341,0.17611,0.45564,0.26338,0.70951,0.34464c0.04406,0.0141,0.13996-0.01957,0.12522,0.08677
		c-0.16009,0.02041-0.26468,0.11509-0.2518,0.24333c0.01193,0.11882,0.06263,0.21058,0.20847,0.2052
		c0.16062-0.00593,0.31392,0.02832,0.45934,0.0966c0.08779,0.05475,0.05052,0.1309,0.02848,0.19816
		c-0.20448,0.62403-0.46348,1.2248-0.78441,1.79899c-0.27953,0.50012-0.59025,0.97743-1.00402,1.38158
		c-0.20037,0.19571-0.42416,0.35289-0.69936,0.42451c-0.40643,0.10578-0.72201,0.32293-0.91499,0.70349
		c-0.06766,0.13343-0.18806,0.19665-0.3402,0.19656c-0.04789-0.00003-0.09578,0.00067-0.14367,0.00067
		c-4.07103,0.00003-8.14207,0.00016-12.2131-0.00084c-0.09366-0.00002-0.1933,0.02235-0.27658-0.0455
		c-0.01032-0.2024,0.03227-0.41005-0.10139-0.59621c-0.13706-0.19089-0.31159-0.29188-0.54879-0.29179
		c-2.17079,0.00078-4.34162-0.0066-6.51234,0.00606c-0.46769,0.00273-0.96163-0.31792-1.02523-0.80224
		C5.34547,9.577,5.06653,9.3842,4.74367,9.38398c-0.5959-0.00041-1.19181,0.00007-1.78771-0.00017
		c-0.5986-0.00024-1.00587-0.40769-1.0059-1.00628c-0.00009-1.7216-0.00314-3.44322,0.00343-5.16479
		C1.95443,2.96385,1.92785,2.74059,1.7256,2.57032C1.74109,2.51477,1.74782,2.45572,1.79033,2.41098z"/>
	<path fill="#FEFEFE" d="M19.70869,8.94002c0.00968,0.10154-0.03411,0.1434-0.13818,0.1316
		c-0.15078-0.0171-0.34509,0.06521-0.44258-0.03558c-0.08955-0.09257-0.0188-0.28138-0.02708-0.42751
		c-0.00178-0.0315-0.00025-0.06318-0.00027-0.09477c-0.00019-0.35231-0.00019-0.35231-0.35527-0.33291
		c-0.04182,0.03218-0.08451,0.03428-0.12812,0.0036c-0.05828,0.23269-0.02254,0.46927-0.0215,0.70344
		c0.00063,0.14191-0.03132,0.20321-0.18305,0.18506c-0.09966-0.01192-0.20233-0.00765-0.30295-0.00068
		c-0.10101,0.00699-0.12628-0.03572-0.1254-0.12934c0.00383-0.40668-0.00297-0.8135,0.00426-1.2201
		c0.00213-0.11996-0.03463-0.15154-0.15302-0.15042c-0.59597,0.00561-1.19205,0.00008-1.78804,0.00485
		c-0.10814,0.00086-0.14666-0.02379-0.14574-0.13871c0.00537-0.67078-0.02685-1.34329,0.01126-2.01198
		c0.03647-0.63985,0.29925-1.21399,0.6886-1.72659c0.24203-0.31866,0.54137-0.57828,0.86297-0.81428
		c0.0122-0.00896,0.0244-0.01792,0.03661-0.02688c0.42364-0.29788,0.89481-0.47446,1.40734-0.54924
		c0.64744-0.09447,1.27301-0.00441,1.87237,0.24119c0.64923,0.26604,1.16682,0.70149,1.5662,1.27512
		c0.34357,0.512,0.54239,1.0742,0.59355,1.68778c0.05104,0.46491-0.01678,0.92947-0.00229,1.39444
		c0.00537,0.17229,0.06221,0.3417,0.02708,0.5156c-0.00218,0.00935-0.00443,0.01868-0.00668,0.02802
		c0.01375,0.12919-0.07196,0.12406-0.16238,0.12407c-0.6158,0.00009-1.2316,0.00255-1.8474,0.00424
		c-0.03149,0.02263-0.06362,0.0252-0.09654,0.00302c-0.05314,0.04043-0.02758,0.09783-0.02786,0.14679
		c-0.00225,0.39609-0.00532,0.79227,0.00156,1.18825c0.00199,0.11448-0.0231,0.16827-0.14805,0.15356
		c-0.15123-0.0178-0.34634,0.06478-0.44435-0.03579c-0.09016-0.09251-0.0191-0.28225-0.02782-0.42885
		c-0.00156-0.02631-0.00023-0.0528-0.00019-0.07921c0.00045-0.36803,0.00045-0.36803-0.37459-0.34675
		c-0.08991,0.06548-0.0728,0.16321-0.08071,0.25498C19.73596,8.604,19.79133,8.77774,19.70869,8.94002z"/>
	<path fill="#7E6DAB" d="M13.31783,2.88732c0.15196,0.14551,0.31319,0.28273,0.45422,0.43801
		c0.50235,0.55312,0.79649,1.19438,0.89458,1.94153c0.08842,0.67345,0.02881,1.34501,0.0556,2.01675
		c0.00363,0.091-0.00013,0.1754-0.12779,0.16686c-0.05907-0.06109-0.04285-0.13863-0.04313-0.21065
		c-0.00173-0.4489,0.0177-0.89878-0.00608-1.34645c-0.02373-0.44682-0.07594-0.89385-0.24844-1.3159
		c-0.25376-0.62085-0.63887-1.14128-1.18356-1.54264c-0.05145-0.03791-0.14887-0.05965-0.10412-0.1634
		c0.08478-0.04538,0.16581-0.03148,0.24479,0.01498C13.27522,2.88672,13.29653,2.88702,13.31783,2.88732z"/>
	<path fill="#7668A4" d="M22.31448,3.84052c-0.35193-0.47252-0.76817-0.87682-1.30437-1.13624
		c-1.13445-0.54886-2.26012-0.5222-3.36893,0.08178c-0.04617,0.02515-0.09331,0.04854-0.14,0.07275
		c0.05067-0.11323,0.17009-0.14042,0.26294-0.19391c0.43138-0.2485,0.89417-0.39432,1.39451-0.44943
		c0.95841-0.10555,1.80614,0.15927,2.55686,0.73128c0.31786,0.24219,0.59023,0.54273,0.79835,0.89091
		c0,0-0.00003,0.00044-0.00003,0.00044C22.44807,3.89642,22.38144,3.88167,22.31448,3.84052z"/>
	<path fill="#7768A4" d="M13.25392,2.88643c-0.08584,0.00032-0.17169,0.00065-0.25753,0.00097
		c-0.04249,0.03369-0.08231,0.01112-0.11643-0.01158c-0.37618-0.25021-0.79898-0.37859-1.23628-0.46988
		c-0.02069-0.00432-0.03978-0.01413-0.05912-0.02263c-0.09394-0.04961-0.24513-0.02766-0.24685-0.19319
		c0.66907,0.04303,1.28718,0.23704,1.84236,0.61532C13.20949,2.82549,13.22952,2.85912,13.25392,2.88643z"/>
	<path fill="#806FAC" d="M11.33771,2.19012c0.04264,0.12017,0.16827,0.10892,0.25528,0.15882
		c-0.0463,0.04661-0.10677,0.04821-0.16381,0.03992c-0.53833-0.07828-1.05538,0.02537-1.56737,0.17586
		C9.81614,2.57813,9.77086,2.5939,9.72259,2.59688c-0.03705-0.00482-0.07974-0.00262-0.0772-0.0587
		c0.52206-0.26397,1.08082-0.35589,1.66067-0.349C11.31661,2.18935,11.32716,2.18966,11.33771,2.19012z"/>
	<path fill="#986BA8" d="M4.37587,1.397C4.3185,1.36108,4.2544,1.36523,4.1906,1.36528
		C3.75505,1.36562,3.3195,1.36539,2.88395,1.36552C2.81508,1.36555,2.74527,1.3721,2.68294,1.33286
		c0.01901-0.03642,0.04834-0.05901,0.08947-0.06577c0.06808-0.03263,0.13927-0.04513,0.21543-0.04479
		C3.37496,1.22402,3.7621,1.22291,4.14923,1.22323C4.2181,1.22329,4.28839,1.2184,4.34461,1.27043
		C4.35503,1.31262,4.36545,1.35481,4.37587,1.397z"/>
	<path fill="#9569A4" d="M4.34461,1.27043C3.82058,1.26932,3.29655,1.26822,2.77246,1.2671
		c0.03512-0.04425,0.07335-0.08413,0.13368-0.09254c0.09493-0.03532,0.19293-0.0478,0.29434-0.04721
		C3.51701,1.1292,3.83357,1.1278,4.15011,1.12817C4.21866,1.12825,4.28855,1.12363,4.3444,1.17545
		C4.34447,1.20711,4.34454,1.23877,4.34461,1.27043z"/>
	<path fill="#9166A0" d="M4.3444,1.17545C3.86499,1.17515,3.38558,1.17486,2.90615,1.17456
		c0.06423-0.0549,0.13641-0.09151,0.2228-0.09539c0.40524,0.00037,0.8105,0.00074,1.21575,0.00111
		C4.3446,1.112,4.3445,1.14373,4.3444,1.17545z"/>
	<path fill="#9569A4" d="M30.0497,6.97394c0.04323,0.00285,0.07479,0.02467,0.09831,0.05957
		c0.02275,0.17736-0.06893,0.32805-0.12597,0.48314c-0.27806,0.75612-0.63127,1.47706-1.08793,2.14331
		c-0.23586,0.3441-0.49094,0.67533-0.82692,0.93578c-0.18731,0.1452-0.39092,0.25707-0.61825,0.31862
		c-0.35427,0.09592-0.61568,0.29492-0.78001,0.62464c-0.0901,0.18079-0.24717,0.27048-0.4537,0.26795
		c-0.04787-0.00059-0.09578,0.00034-0.14367,0.00034c-4.08685,0.00002-8.17371,0.00016-12.26056-0.00086
		c-0.09362-0.00002-0.19328,0.02256-0.27657-0.04532c-0.00012-0.03173-0.00025-0.06345-0.00037-0.09518
		c0.07779-0.06521,0.17182-0.04583,0.26042-0.04587c2.36737-0.00092,4.73475-0.00069,7.10212-0.00073
		c1.7343-0.00003,3.46861-0.0027,5.20289,0.00345c0.22108,0.00078,0.35889-0.08076,0.45732-0.27038
		c0.15987-0.30797,0.42127-0.50871,0.75333-0.59269c0.44709-0.11307,0.77607-0.38582,1.05722-0.72322
		c0.64778-0.77739,1.09231-1.66763,1.43702-2.61058c0.04166-0.11396,0.08745-0.22651,0.12435-0.34214
		C29.98349,7.03748,29.99833,6.99291,30.0497,6.97394z"/>
	<path fill="#8D629B" d="M30.20827,7.07137c0.02213,0.01891,0.04426,0.03781,0.06641,0.05667
		c-0.0834,0.35512-0.22943,0.6884-0.37283,1.02148c-0.24652,0.57263-0.53904,1.1221-0.90058,1.63215
		c-0.27197,0.38368-0.56751,0.7473-0.96384,1.01682c-0.20906,0.14217-0.44766,0.21353-0.68222,0.29526
		c-0.22115,0.07705-0.39465,0.21756-0.48566,0.42702c-0.137,0.3153-0.3817,0.42882-0.70443,0.43017
		c-0.04255,0.00018-0.08511,0.00007-0.12766,0.00007c-4.15417,0.00008-8.30835,0.00016-12.4625,0.00025
		c-0.0001-0.03169-0.00023-0.06339-0.00035-0.09509c0.07767-0.06549,0.17174-0.04586,0.26026-0.0459
		c2.29225-0.00095,4.58451-0.00074,6.87676-0.00074c1.76573,0,3.53146,0,5.29718-0.00001c0.07977,0,0.15956,0.0002,0.23932-0.00152
		c0.22204-0.00479,0.37981-0.09986,0.47786-0.30504c0.13692-0.28649,0.36386-0.48398,0.67349-0.5629
		c0.54637-0.13927,0.92641-0.49508,1.25808-0.91832c0.6563-0.83748,1.11024-1.77961,1.45314-2.77887
		C30.13211,7.1805,30.1336,7.10478,30.20827,7.07137z"/>
	<path fill="#986BA8" d="M30.0497,6.97394c-0.19624,0.60752-0.42763,1.20154-0.73174,1.76407
		c-0.32665,0.60423-0.68345,1.18879-1.19914,1.66049c-0.19161,0.17527-0.4097,0.30546-0.65729,0.37195
		c-0.37846,0.10164-0.672,0.29664-0.85194,0.65111c-0.08914,0.1756-0.2386,0.2468-0.44242,0.24665
		c-4.19771-0.00319-8.39543-0.00233-12.59313-0.00228c-0.00005-0.0317-0.00011-0.06341-0.00017-0.09511
		c4.18588-0.00004,8.37175-0.00131,12.55761,0.00346c0.20979,0.00024,0.33171-0.07185,0.4256-0.25604
		c0.14166-0.2779,0.36805-0.49381,0.67319-0.56732c0.63474-0.15291,1.03998-0.57871,1.39745-1.07615
		c0.56885-0.79159,0.97255-1.66373,1.28099-2.58235c0.01916-0.05705,0.06017-0.11599,0.01305-0.17925
		C29.97202,6.91762,30.01508,6.93702,30.0497,6.97394z"/>
	<path fill="#9166A0" d="M30.20827,7.07137c-0.17775,0.5298-0.377,1.05054-0.63232,1.54961
		c-0.27402,0.53564-0.57503,1.0526-0.96735,1.514c-0.15445,0.18164-0.31888,0.34946-0.50341,0.50175
		c-0.1758,0.14509-0.37245,0.24071-0.58836,0.29997c-0.33179,0.09106-0.61331,0.25693-0.7533,0.57685
		c-0.12144,0.27753-0.34175,0.33828-0.60232,0.34106c-0.44662,0.00477-0.89334,0.00131-1.34001,0.00132
		c-3.74888,0.00008-7.49775,0.00016-11.24661,0.00024c-0.00006-0.03168-0.00014-0.06337-0.00019-0.09505
		c4.20219-0.00009,8.40437-0.00172,12.60653,0.00351c0.25624,0.00032,0.41971-0.08872,0.53143-0.31461
		c0.11852-0.23963,0.30406-0.4404,0.56486-0.50461c0.71685-0.17651,1.17315-0.66594,1.5679-1.23306
		c0.5496-0.78959,0.95567-1.65054,1.25824-2.5607c0.01326-0.03989,0.02967-0.07874,0.04463-0.11811
		C30.16809,7.04613,30.18818,7.05875,30.20827,7.07137z"/>
	<path fill="#2D4961" d="M3.08289,10.5879c-0.23879-0.00038-0.43459-0.19901-0.4299-0.43611
		c0.00456-0.23065,0.1988-0.41936,0.43127-0.41899c0.23873,0.00038,0.43458,0.19909,0.42991,0.4362
		C3.50962,10.3996,3.31538,10.58827,3.08289,10.5879z"/>
	<path fill="#9469A4" d="M1.79033,2.41098c-0.01337,0.05639,0.03829,0.1388-0.06473,0.15933
		C1.65614,2.53335,1.58692,2.49559,1.5035,2.50644C1.59265,2.45548,1.68206,2.40532,1.79033,2.41098z"/>
	<path fill="#9669A5" d="M2.0448,1.20569C1.95058,1.39177,1.87797,1.58477,1.84288,1.79141
		c-0.00985,0.05802-0.0188,0.13086-0.11217,0.11493c-0.07659,0.03241-0.0993-0.02247-0.10498-0.07527
		C1.60935,1.67891,1.5972,1.52395,1.63655,1.3748C1.6698,1.24879,1.76152,1.16614,1.89315,1.14239
		C1.95117,1.13193,2.02395,1.11543,2.0448,1.20569z"/>
	<path fill="#8D629B" d="M1.56894,1.93744C1.52749,1.93293,1.47248,1.93743,1.47475,1.87821
		c0.00887-0.23086-0.04668-0.47052,0.08461-0.68604c0.08006-0.13142,0.20294-0.18905,0.35453-0.1936
		c0.10995-0.0033,0.21987-0.00745,0.32986-0.0112C2.21227,1.01922,2.18074,1.05106,2.14921,1.0829
		C2.07328,1.12312,1.98906,1.12971,1.90626,1.14295C1.74217,1.16919,1.65809,1.25485,1.62942,1.4165
		C1.61014,1.52514,1.61321,1.63443,1.61146,1.74375C1.61038,1.81107,1.61731,1.8806,1.56749,1.93718L1.56894,1.93744z"/>
	<path fill="#9165A0" d="M1.56749,1.93718c0.00008-0.13612-0.0155-0.2744,0.00324-0.40793
		c0.05099-0.36326,0.11063-0.39538,0.46778-0.44797c0.03599-0.0053,0.07368,0.00079,0.11064,0.00161
		C2.11441,1.12383,2.07961,1.16477,2.04481,1.20569C1.8734,1.1463,1.69759,1.22611,1.67275,1.39683
		c-0.02158,0.14831-0.00724,0.3019-0.00666,0.45315c0.00015,0.03844,0.03233,0.04951,0.06458,0.05635
		C1.68261,1.94954,1.62297,1.93251,1.56749,1.93718z"/>
	<path fill="#FEFEFE" d="M9.71395,2.57184c0.60726-0.23278,1.23444-0.30017,1.87903-0.22291
		c0.50142,0.09316,0.97006,0.27051,1.4034,0.53846c0.34656,0.2557,0.66733,0.53779,0.91606,0.89213
		c0.34286,0.48843,0.54825,1.02522,0.62874,1.61892c0.08421,0.62111,0.02183,1.24216,0.0467,1.86261
		c0.00253,0.06313,0.00439,0.12628,0.00656,0.18943c0.01056,0.10856-0.04839,0.12656-0.1444,0.12631
		c-0.61183-0.00159-1.22367,0.00211-1.83551,0.00407c-0.08249,0.05767-0.07608,0.14618-0.0768,0.22956
		c-0.00261,0.301-0.00003,0.60202-0.00159,0.90303c-0.00041,0.07837,0.00925,0.15998-0.04819,0.2269
		c0.00731,0.09973-0.03457,0.14067-0.13901,0.13167c-0.15724-0.01356-0.35897,0.06222-0.46158-0.02814
		c-0.106-0.09334-0.02366-0.29738-0.03666-0.45232c-0.00219-0.02607-0.00031-0.05248-0.00027-0.07874
		c0.00048-0.35109,0.00048-0.35109-0.35338-0.33208c-0.09579,0.05354-0.11377,0.13886-0.11503,0.24109
		c-0.00214,0.17322,0.02288,0.34774-0.01709,0.51977c0.00298,0.088-0.0271,0.12873-0.12848,0.13179
		c-0.47797,0.01443-0.47782,0.01768-0.47791-0.45642c-0.00002-0.10529-0.00588-0.21091,0.0008-0.31576
		c0.0061-0.09567-0.02689-0.13546-0.1256-0.12683c-0.08425,0.00736-0.16938,0.00483-0.25412,0.00667
		c-0.07387,0.05178-0.07793,0.13008-0.07926,0.20866c-0.00219,0.12958,0.00059,0.25919-0.00156,0.38877
		c-0.00095,0.0573-0.00318,0.11458-0.04341,0.16164c0.00828,0.10055-0.03411,0.14039-0.13881,0.13237
		c-0.11102-0.00851-0.22381-0.00874-0.33477,0.00027C9.66443,9.08229,9.64015,9.03165,9.64145,8.92595
		c0.00499-0.40643-0.00112-0.81299,0.00401-1.21942c0.00132-0.10451-0.03219-0.13444-0.13644-0.13367
		C8.91336,7.57727,8.31763,7.57221,7.72198,7.57742c-0.11389,0.001-0.15625-0.02153-0.15503-0.146
		c0.00652-0.6651-0.01711-1.33108,0.00896-1.99524c0.02484-0.63275,0.2809-1.19297,0.6525-1.70395
		c0.24275-0.33381,0.55306-0.59545,0.87914-0.84216C9.28997,2.74697,9.47558,2.60988,9.71395,2.57184z"/>
	<path fill="#FEFEFE" d="M17.5053,9.54287c0.04269,0.04872,0.09976,0.02521,0.14955,0.02528
		c1.17036,0.00151,2.34074-0.0011,3.51108,0.00424c0.13594,0.00062,0.168-0.03957,0.16512-0.16929
		c-0.00878-0.39583-0.00045-0.79201-0.00533-1.18797c-0.00124-0.10074,0.02501-0.13908,0.13299-0.13601
		c0.30821,0.00876,0.61673,0.00704,0.92512,0.00944c0.05721,0.05323,0.05029,0.12436,0.05063,0.19144
		c0.00183,0.36724,0.00364,0.73451-0.00054,1.10173c-0.00194,0.17062-0.04486,0.33116-0.14728,0.47214
		c-0.20455,0.43117-0.57351,0.64489-1.01896,0.75453c-0.05558,0.01368-0.11624,0.00945-0.17455,0.00947
		c-1.12704,0.00049-2.25447,0.01849-3.38096-0.00607c-0.73525-0.01603-1.28882-0.54023-1.29539-1.26772
		c-0.00343-0.37989-0.00022-0.75983-0.00069-1.13975c-0.00008-0.06554-0.0069-0.12663,0.09324-0.12458
		c0.32929,0.00676,0.65869,0.00813,0.98804,0.01157c0.05793,0.05218,0.0528,0.12299,0.05324,0.19003
		c0.00237,0.36095,0.00199,0.72191,0.00034,1.08286C17.55066,9.42711,17.54902,9.49051,17.5053,9.54287z"/>
	<path fill="#FEFEFE" d="M13.82824,10.04996c-0.31125,0.40162-0.72784,0.5717-1.23184,0.56963
		c-1.07431-0.00441-2.14899,0.01496-3.22287-0.00693c-0.75195-0.01532-1.30579-0.55182-1.30008-1.27715
		c0.00295-0.37478,0.00422-0.74965-0.00146-1.12437c-0.0016-0.10581,0.03322-0.13402,0.13662-0.13197
		C8.51695,8.08529,8.8255,8.08111,9.13396,8.08095c0.06319,0.06457,0.04994,0.14726,0.05049,0.22479
		c0.00236,0.33768-0.00101,0.67539,0.00181,1.01306C9.1878,9.50204,9.20559,9.52197,9.38603,9.52231
		c1.11635,0.0021,2.2327,0.00191,3.34904-0.00005c0.08406-0.00015,0.17274,0.00386,0.23219-0.07545
		c0.00172-0.40421,0.0087-0.8085,0.00209-1.21258c-0.00208-0.12734,0.03819-0.15884,0.16136-0.15554
		c0.29599,0.00793,0.59239,0.001,0.88862,0.00006c0.05582,0.05406,0.04959,0.1251,0.04988,0.19242
		c0.00178,0.39948,0.0011,0.79896,0.00084,1.19844c-0.00006,0.08576-0.01911,0.16646-0.04844,0.24557
		C13.98255,9.84103,13.92062,9.95415,13.82824,10.04996z"/>
	<path fill="#806FAD" d="M12.96726,9.44682c0.02098,0.08783-0.00914,0.12287-0.10453,0.1227
		c-1.19941-0.00216-2.39883-0.00276-3.59824,0.00073C9.14689,9.57058,9.13944,9.51392,9.13953,9.4237
		c0.00044-0.44758-0.00329-0.89516-0.00556-1.34275C8.9428,8.01751,8.74614,8.06733,8.55246,8.05392
		C8.46259,8.0477,8.37195,8.05312,8.2817,8.05151C8.24886,8.05093,8.21491,8.04356,8.21855,8.00017
		C8.22125,7.9681,8.24885,7.95899,8.27657,7.95894c0.3027-0.0005,0.60542-0.00182,0.90811,0.00059
		C9.28714,7.96035,9.26118,8.0434,9.26146,8.1009c0.00188,0.37953,0.0008,0.75908,0.00106,1.13862
		C9.26267,9.4466,9.263,9.44695,9.478,9.44696C10.64109,9.44701,11.80418,9.44688,12.96726,9.44682z"/>
	<path fill="#7F6FAD" d="M17.5053,9.54287c-0.00264-0.48385-0.00527-0.96771-0.00792-1.45155
		c-0.04106-0.06344-0.1058-0.03646-0.16019-0.03717c-0.22849-0.003-0.45704-0.00066-0.68556-0.00199
		c-0.0394-0.00023-0.09963,0.01243-0.0979-0.04838c0.00167-0.0591,0.06151-0.04545,0.10109-0.04562
		c0.27636-0.00116,0.55282,0.00359,0.82903-0.00276c0.11012-0.00253,0.14803,0.031,0.14636,0.14308
		c-0.00583,0.39027,0.00286,0.78078-0.00494,1.17098c-0.00282,0.14091,0.04784,0.1805,0.18506,0.17995
		c1.08948-0.00431,2.17899-0.0024,3.26849-0.0024c0.02657,0,0.05369-0.00338,0.0796,0.00075
		c0.04715,0.00752,0.12939-0.02738,0.1283,0.04789c-0.00107,0.07357-0.08321,0.04522-0.13027,0.04529
		C19.9394,9.54277,18.72235,9.54265,17.5053,9.54287z"/>
	<path fill="#2D4961" d="M27.82616,7.00654c-0.23977-0.00204-0.43325-0.20112-0.42682-0.43918
		c0.00624-0.23102,0.20136-0.41784,0.43438-0.41589c0.23963,0.00201,0.43327,0.20128,0.42682,0.43923
		C28.25428,6.82163,28.05905,7.00852,27.82616,7.00654z"/>
	<path fill="#2D4961" d="M3.51428,3.06597c-0.0027,0.23804-0.20368,0.42945-0.4436,0.42247
		C2.8377,3.48166,2.65027,3.28778,2.65286,3.0562c0.00265-0.23792,0.20377-0.42948,0.4436-0.42253
		C3.32919,2.64041,3.5169,2.83463,3.51428,3.06597z"/>
	<path fill="#7E6DAC" d="M22.31448,3.84053c0.06644-0.0008,0.13288-0.00161,0.19933-0.00241
		c0.28907,0.46221,0.45698,0.96398,0.51162,1.50564c0.06618,0.65606,0.01283,1.31341,0.03095,1.96989
		c0.00192,0.06977,0.01021,0.14451-0.09763,0.13809c0,0-0.00137,0.00098-0.00137,0.00098
		c-0.03674-0.45754-0.03939-0.91549-0.01693-1.37375c0.00979-0.19967,0.00813-0.39856-0.041-0.59423
		C22.84183,4.88852,22.63472,4.3447,22.31448,3.84053z"/>
	<path fill="#8170AD" d="M13.98228,9.75328c0.08822-0.55651,0.03988-1.116,0.03706-1.67451
		c-0.23501-0.05788-0.47425-0.00666-0.71023-0.02826c-0.06867-0.00629-0.19351,0.05216-0.1941-0.05246
		c-0.00045-0.07902,0.12535-0.03661,0.19297-0.03825c0.2443-0.00594,0.48891,0.00135,0.73323-0.0041
		c0.10082-0.00225,0.1416,0.02574,0.14014,0.13287c-0.00525,0.38496,0.0057,0.77026-0.00539,1.15498
		c-0.00556,0.19284-0.04523,0.38476-0.15599,0.55253C13.9846,9.80159,13.96713,9.79159,13.98228,9.75328z"/>
	<path fill="#8070AD" d="M22.28664,9.85386c0.18326-0.58025,0.06091-1.17709,0.0972-1.76531
		c-0.07752-0.07197-0.17208-0.03023-0.25795-0.03351c-0.18563-0.0071-0.37173-0.00138-0.55762-0.00286
		c-0.03929-0.00031-0.09704,0.0129-0.09777-0.04891c-0.0006-0.04991,0.04985-0.0452,0.08594-0.04527
		c0.28682-0.00056,0.57364,0.00098,0.86045-0.00098c0.08007-0.00055,0.09729,0.04058,0.09706,0.10934
		c-0.00144,0.4323,0.00625,0.86477-0.00427,1.29682c-0.00453,0.18596-0.08713,0.35722-0.18526,0.51491
		C22.29349,9.92779,22.2965,9.86777,22.28664,9.85386z"/>
	<path fill="#806EAC" d="M12.48795,8.94035c-0.00211-0.41802-0.00145-0.83608-0.00822-1.25403
		c-0.00175-0.10819,0.04663-0.12482,0.13481-0.10546c0.00011,0.40622-0.00187,0.81245,0.00187,1.21864
		C12.61728,8.89417,12.60154,8.95668,12.48795,8.94035z"/>
	<path fill="#8473AF" d="M20.85243,7.58308c0.03218-0.00101,0.06436-0.00202,0.09653-0.00303
		C20.949,7.97,20.94902,8.35995,20.94904,8.7499c0,0.02635,0.00157,0.05282-0.00046,0.07901
		c-0.00304,0.03938,0.01315,0.09859-0.0463,0.10017c-0.0611,0.00163-0.04858-0.05801-0.04873-0.09713
		c-0.00117-0.29509-0.00065-0.59019-0.00074-0.88528C20.85278,7.82548,20.85257,7.70428,20.85243,7.58308z"/>
	<path fill="#8674B0" d="M11.36493,8.94161c-0.04102-0.22799-0.0113-0.45784-0.01692-0.68675
		c-0.00283-0.11529,0.0861-0.07503,0.14904-0.07412c0.00005,0.20465-0.00246,0.40935,0.00129,0.61394
		C11.5001,8.8903,11.47155,8.94811,11.36493,8.94161z"/>
	<path fill="#806EAC" d="M10.25539,8.94012c-0.00201-0.21797,0.00041-0.4361-0.00794-0.65382
		c-0.0041-0.10681,0.04367-0.12519,0.13217-0.10525c0.00004,0.21075-0.00368,0.42159,0.00183,0.63219
		C10.38392,8.90794,10.35449,8.95353,10.25539,8.94012z"/>
	<path fill="#806DAC" d="M19.70869,8.94002c-0.00246-0.22147-0.00139-0.44305-0.00888-0.66434
		c-0.00363-0.10715,0.05433-0.1087,0.13133-0.0946c0.00006,0.21035-0.00344,0.42078,0.00181,0.631
		C19.83526,8.90489,19.80939,8.95389,19.70869,8.94002z"/>
	<path fill="#8774AF" d="M18.61718,8.18445c0.04271-0.0012,0.08542-0.00241,0.12813-0.00361
		c0.00002,0.20932,0.00029,0.41863-0.00008,0.62794C18.74512,8.86174,18.74644,8.9269,18.677,8.9298
		c-0.08568,0.00357-0.05736-0.07225-0.05803-0.11743C18.61588,8.6031,18.61734,8.39376,18.61718,8.18445z"/>
	<path fill="#8D71AE" d="M9.71395,2.57184C9.51182,2.67791,9.30968,2.78398,9.10755,2.89006
		C9.10353,2.8774,9.09331,2.85541,9.09637,2.8534c0.17676-0.11571,0.33819-0.2581,0.54902-0.31522
		C9.66,2.56595,9.68703,2.56878,9.71395,2.57184z"/>
	<path fill="#8B71AE" d="M13.98228,9.75328c0.01256,0.01426,0.02512,0.02852,0.03769,0.04278
		c-0.02161,0.1161-0.09389,0.1945-0.19173,0.2539C13.87959,9.95107,13.93093,9.85217,13.98228,9.75328z"/>
	<path fill="#9B6DAB" d="M19.89339,4.85026c0.2392-0.32707,0.64741-0.47196,1.05373-0.37399
		c0.37951,0.0915,0.69595,0.44615,0.75699,0.84838c0.05473,0.36068-0.13326,0.76754-0.43764,0.94719
		c-0.19776,0.07981-0.39308,0.12775-0.61593,0.09197c-0.64634-0.10376-1.1293-0.87558-0.76444-1.48295
		C19.89137,4.87212,19.89178,4.86072,19.89339,4.85026z"/>
	<path fill="#9B6DAB" d="M17.3137,4.82189c0.26817-0.32849,0.62063-0.44001,1.02258-0.34091
		c0.41121,0.10138,0.68003,0.37478,0.75122,0.79472c0.06868,0.40517-0.05823,0.74978-0.40812,0.99502
		c-0.09411-0.0193-0.14796,0.0653-0.22919,0.08677c-0.47439,0.12535-1.05758-0.19236-1.21969-0.67196
		C17.12896,5.38513,17.14896,5.09677,17.3137,4.82189z"/>
	<path fill="#7F6EAC" d="M17.3137,4.82189c-0.02602,0.16824-0.1008,0.32316-0.10435,0.50011
		c-0.01512,0.75468,0.80049,1.20809,1.36847,0.94428c0.03533-0.01641,0.06912-0.02938,0.10156,0.00445
		c-0.57027,0.4332-1.43227,0.11177-1.57895-0.60954C17.0377,5.35266,17.09403,5.06443,17.3137,4.82189z"/>
	<path fill="#7E6EAC" d="M19.89339,4.85026c0.02141,0.10307-0.04525,0.18697-0.06688,0.28033
		c-0.17452,0.75348,0.63659,1.4169,1.32331,1.15101c0.03407-0.01319,0.07436-0.05269,0.11665-0.00975
		c-0.53718,0.43643-1.47882,0.12142-1.58475-0.71682C19.64898,5.29583,19.7185,5.05431,19.89339,4.85026z"/>
	<path fill="#9C6EAC" d="M18.97425,7.22644c-0.0285-0.40888-0.0285-0.4089,0.37552-0.40898
		c0.12762-0.00002,0.25524-0.00016,0.38286,0.00029c0.04318,0.00015,0.09647-0.00033,0.09256,0.0586
		c-0.00921,0.13902,0.03772,0.28146-0.02443,0.4172c-0.04976-0.06277-0.11601-0.08473-0.19484-0.08371
		c-0.11088,0.00144-0.22186,0.00224-0.33274-0.00055c-0.18471-0.00463-0.20102-0.02066-0.22177-0.20667
		C19.02399,7.07665,19.08457,7.18056,18.97425,7.22644z"/>
	<path fill="#816EAC" d="M18.97425,7.22644c0.0553-0.09345,0.0133-0.19573,0.02676-0.29302
		c0.00425-0.03071-0.00067-0.06976,0.04096-0.07419c0.05549-0.00591,0.05219,0.0396,0.05429,0.07556
		c0.00184,0.03152,0.00388,0.06359,0.00019,0.09476c-0.01199,0.10124,0.02668,0.14292,0.13357,0.13768
		c0.1483-0.00727,0.29748,0.00347,0.4458-0.00359c0.10146-0.00483,0.13419,0.03835,0.12495,0.12989
		c-0.24815,0.00363-0.49633,0.00626-0.74446,0.01164C18.99769,7.30646,18.96142,7.29406,18.97425,7.22644z"/>
	<path fill="#9B8FBF" d="M22.89944,5.48474c0.07603,0.01437,0.06204,0.07506,0.06199,0.12484
		c-0.00065,0.61438-0.00249,1.22875-0.00404,1.84313c-0.06239-0.1217-0.04218-0.2585-0.04559-0.38348
		c-0.00941-0.34495-0.02223-0.69076,0.01017-1.03692C22.93884,5.85204,22.90847,5.66741,22.89944,5.48474z"/>
	<path fill="#9B6DAB" d="M8.94272,4.85108c0.2649-0.3472,0.62343-0.46936,1.03823-0.37211
		c0.42624,0.09993,0.69024,0.38859,0.76284,0.81818c0.06568,0.38862-0.0728,0.7131-0.38617,0.95962
		c-0.01146,0.00902-0.0285,0.01107-0.04294,0.01636C9.96575,6.43419,9.62867,6.41705,9.30412,6.2074
		C8.89425,5.94264,8.6614,5.38223,8.92323,4.91098C8.9334,4.89266,8.93882,4.87189,8.94272,4.85108z"/>
	<path fill="#9B6DAB" d="M11.49471,4.91293c0.21875-0.33783,0.54155-0.49369,0.93299-0.45835
		c0.44717,0.04037,0.7674,0.28549,0.88824,0.72271c0.11074,0.40068,0.01829,0.76149-0.31655,1.03893
		c-0.53428,0.28599-1.08215,0.16658-1.4079-0.31784c-0.17773-0.26431-0.20809-0.55822-0.1243-0.86379
		C11.47822,4.99437,11.50209,4.95721,11.49471,4.91293z"/>
	<path fill="#7F6EAC" d="M11.49471,4.91293c0.07442,0.07461,0.00558,0.15263-0.00708,0.22048
		c-0.10255,0.54962,0.20546,1.03104,0.75404,1.17489c0.25058,0.06571,0.47989,0.01841,0.70382-0.09135
		c0.01968-0.00964,0.03546-0.02309,0.05389-0.00072c-0.3456,0.30988-0.85484,0.33288-1.24603,0.05628
		c-0.38072-0.26919-0.52964-0.77507-0.34906-1.19693C11.42842,5.01919,11.44288,4.95511,11.49471,4.91293z"/>
	<path fill="#7F6EAC" d="M8.94272,4.85108c0.0248,0.11434-0.04677,0.20922-0.06859,0.31404
		c-0.15037,0.72243,0.62805,1.35852,1.27938,1.13151c0.04952-0.01726,0.10023-0.06778,0.16116-0.02349
		C9.81837,6.678,8.999,6.41745,8.78448,5.78443C8.67008,5.44684,8.71375,5.13276,8.94272,4.85108z"/>
	<path fill="#9C6DAC" d="M10.63588,6.84748c0.16689-0.06426,0.34042-0.02388,0.51044-0.02769
		c0.33985-0.00762,0.33997-0.00226,0.31812,0.34596c-0.21437,0.09061-0.43557,0.0495-0.65405,0.02727
		c-0.07545-0.00768-0.08459-0.08486-0.09327-0.14843C10.70717,6.97176,10.70374,6.89664,10.63588,6.84748z"/>
	<path fill="#7F6DAC" d="M10.63588,6.84748c0.12845-0.01821,0.13825,0.06304,0.12599,0.15438
		c-0.01759,0.13107,0.03559,0.17368,0.1667,0.16619c0.17808-0.01016,0.35719-0.00239,0.53586-0.00231
		c0.03101,0.11299-0.01186,0.14521-0.12747,0.1393c-0.19612-0.01002-0.39319-0.00547-0.58975-0.00158
		c-0.09202,0.00182-0.13982-0.0203-0.12751-0.1251C10.63256,7.06893,10.63109,6.95784,10.63588,6.84748z"/>
	<path fill="#FEFEFE" d="M21.17136,5.67473c-0.2351,0.31497-0.54575,0.38168-0.79983,0.18042
		c-0.23911-0.18941-0.31014-0.61758,0.09895-0.87259c0.21741-0.12814,0.44953-0.09033,0.63068,0.10273
		C21.26989,5.2651,21.29645,5.48814,21.17136,5.67473z"/>
	<path fill="#816EAC" d="M21.17136,5.67473c0.16551-0.42898-0.20261-0.86325-0.70087-0.69218
		c0.12062-0.15283,0.30352-0.20927,0.49373-0.15235c0.1818,0.0544,0.35025,0.24158,0.36701,0.41155
		c0.01526,0.15481,0.00222,0.30348-0.10926,0.42693C21.20632,5.686,21.19123,5.69728,21.17136,5.67473z"/>
	<path fill="#FEFEFE" d="M18.58323,5.64072c-0.10168,0.18717-0.24234,0.31872-0.47067,0.32581
		c-0.23113,0.00718-0.43473-0.12821-0.50654-0.33726c-0.07842-0.22831-0.00077-0.46267,0.19771-0.59738
		c0.02598-0.01763,0.0513-0.03623,0.07692-0.05438c0.14793-0.11387,0.38287-0.09368,0.56389,0.04847
		C18.63223,5.17337,18.69258,5.44088,18.58323,5.64072z"/>
	<path fill="#7F6EAC" d="M18.58323,5.64072c0.0502-0.37126-0.06105-0.58985-0.34805-0.6759
		c-0.11839-0.0355-0.23783-0.03242-0.35453,0.01269c0.05857-0.11783,0.17745-0.16901,0.38043-0.15695
		c0.20294,0.01206,0.34562,0.11132,0.42753,0.29825c0.08365,0.1909,0.04897,0.36538-0.06696,0.53
		C18.61872,5.65296,18.59647,5.64371,18.58323,5.64072z"/>
	<path fill="#FEFEFE" d="M10.22033,5.67677c-0.25061,0.33795-0.60896,0.3896-0.85621,0.12341
		C9.13231,5.55061,9.19497,5.21867,9.51836,4.98317c0.21774-0.13049,0.45531-0.08998,0.63663,0.10855
		C10.31924,5.27156,10.34509,5.50296,10.22033,5.67677z"/>
	<path fill="#816EAC" d="M10.22033,5.67677c0.16265-0.48189-0.2427-0.86077-0.70197-0.69361
		c0.12314-0.15766,0.29784-0.20794,0.51-0.14676c0.19196,0.05536,0.33491,0.21523,0.34964,0.40363
		c0.01066,0.1364,0.01611,0.27556-0.07535,0.39306C10.28406,5.65697,10.2728,5.70972,10.22033,5.67677z"/>
	<path fill="#FEFEFE" d="M12.83735,5.64321c-0.11666,0.20771-0.27796,0.34193-0.53422,0.32277
		c-0.2039-0.01525-0.38918-0.15856-0.4486-0.34911c-0.06414-0.20568,0.00926-0.443,0.17622-0.56755
		c0.0335-0.02499,0.06867-0.0478,0.10306-0.07161c0.20204-0.13962,0.51875-0.07143,0.66295,0.15702
		C12.89578,5.2916,12.98236,5.46158,12.83735,5.64321z"/>
	<path fill="#806EAC" d="M12.83735,5.64321c0.05515-0.36165-0.06215-0.59041-0.34582-0.67867
		c-0.12149-0.0378-0.23943-0.01629-0.35772,0.01318c0.05739-0.11824,0.17745-0.16699,0.38178-0.15789
		c0.35887,0.01599,0.60181,0.41114,0.41217,0.76932C12.91183,5.61927,12.89643,5.67375,12.83735,5.64321z"/>
</g>
</svg>
