<?xml version="1.0" encoding="utf-8"?>
<!-- Generator: Adobe Illustrator 23.0.0, SVG Export Plug-In . SVG Version: 6.00 Build 0)  -->
<svg version="1.1" id="Слой_1" xmlns="http://www.w3.org/2000/svg" xmlns:xlink="http://www.w3.org/1999/xlink" x="0px" y="0px" width="32px" height="13px"
	 viewBox="0 0 32 13" enable-background="new 0 0 32 13" xml:space="preserve">
<g>
	<path fill="#55718A" d="M0.80052,12.99689c-0.01064,0-0.02129,0-0.03193,0c-0.43411-0.07621-0.68956-0.32975-0.76634-0.76064
		c0-2.21853,0-4.43706,0-6.65559c0.01796-0.01273,0.0375-0.01592,0.05868-0.0096C0.07813,5.58375,0.09056,5.6,0.09853,5.61971
		C0.12702,5.71267,0.1171,5.8084,0.11713,5.90305c0.00064,1.95427,0.00069,3.90853-0.00002,5.8628
		c-0.00005,0.1378,0.00338,0.27506,0.03584,0.40938c0.08204,0.33946,0.29457,0.55315,0.63578,0.63856
		c0.1457,0.03647,0.2948,0.03731,0.44415,0.0373c5.19367-0.00046,10.38734-0.00054,15.58101,0.00064
		c0.1098,0.00003,0.22447-0.02317,0.32743,0.03974c0.02429,0.02764,0.02707,0.05558,0.00102,0.08384
		c-0.0635,0.01017-0.12747,0.005-0.19119,0.005c-5.31554,0.00028-10.63107,0.00018-15.94661,0.00114
		C0.93666,12.98146,0.86633,12.9644,0.80052,12.99689z"/>
	<path fill="#224053" d="M27.59046,0.00265c0.32386,0.10065,0.64818,0.20023,0.93011,0.39754
		c0.09599,0.0898,0.21695,0.14655,0.31493,0.23302c0.04213,0.03717,0.10724,0.09228-0.02023,0.10375
		c-0.14833-0.0627-0.26842-0.17015-0.40653-0.24946c-0.42814-0.24584-0.8798-0.37452-1.38161-0.37416
		c-7.23145,0.00526-14.4629,0.00359-21.69435,0.00364c-0.11701,0-0.23431-0.00442-0.34987,0.01979
		C4.93533,0.14771,4.90621,0.12901,4.89473,0.08234c-0.00418-0.03031,0.00569-0.05643,0.02486-0.0797
		C12.47655,0.00265,20.0335,0.00265,27.59046,0.00265z"/>
	<path fill="#40586D" d="M17.14992,12.96456c-0.00084-0.02076-0.00168-0.04152-0.00251-0.06228
		c0.00674-0.00644,0.01348-0.01288,0.02015-0.01943c0.09112-0.04218,0.18836-0.02633,0.28307-0.02636
		c3.13256-0.00086,6.26512-0.00517,9.39766,0.0021c0.90301,0.0021,1.65092-0.32768,2.29342-0.94147
		c0.89009-0.85031,1.50346-1.8799,1.99246-2.99132c0.3029-0.68844,0.55179-1.39432,0.67312-2.13991
		c0.01756-0.10792-0.00973-0.22394,0.05475-0.3241c0.04657-0.03163,0.09142-0.02704,0.13487,0.00628c0,0.02113,0,0.04226,0,0.06339
		c-0.01669,0.01775-0.02211,0.04057-0.02861,0.06296c-0.03206,0.40668-0.13439,0.79955-0.25625,1.1859
		c-0.37038,1.17435-0.89763,2.27343-1.62596,3.27347c-0.17399,0.2389-0.36882,0.46122-0.55348,0.69204
		c-0.34113,0.35835-0.71779,0.67521-1.15446,0.91001c-0.37153,0.19978-0.76965,0.32535-1.20051,0.32522
		c-3.32396-0.00102-6.64791-0.00026-9.97188-0.00065C17.18521,12.98183,17.1666,12.97654,17.14992,12.96456z"/>
	<path fill="#3B556C" d="M4.91959,0.00265C4.9194,0.0236,4.91921,0.04454,4.91901,0.06549
		c-0.08219,0.06849-0.1816,0.04975-0.27546,0.04985C3.43681,0.11662,2.23007,0.11683,1.02333,0.11547
		C0.80404,0.11522,0.60157,0.15544,0.42999,0.30239C0.23078,0.47301,0.14783,0.69054,0.14818,0.94762
		c0.00105,0.78092,0.00046,1.56184,0.00035,2.34276C0.14844,3.96577,0.14898,4.64117,0.14797,5.31656
		C0.14784,5.40022,0.15885,5.4861,0.11752,5.56523c-0.01286,0.01986-0.03039,0.02543-0.0525,0.0168
		C0.05477,5.58151,0.04453,5.58083,0.0343,5.58C0.00469,5.52527,0.01947,5.46608,0.01944,5.40921
		C0.01852,3.86955,0.01868,2.32989,0.01868,0.7906c0.00296-0.40397,0.23859-0.68793,0.65411-0.78795
		C2.08839,0.00265,3.50399,0.00265,4.91959,0.00265z"/>
	<path fill="#264356" d="M31.99691,6.46808c-0.04213,0.00037-0.08426,0.00074-0.12639,0.00111
		c-0.04101,0.02633-0.07783,0.03098-0.10397-0.0197c0.09461-0.13423,0.06846-0.28203,0.04318-0.42707
		c-0.11863-0.68057-0.3442-1.32775-0.62241-1.95879c-0.32323-0.73315-0.71682-1.4271-1.1876-2.07594
		c-0.29251-0.40315-0.61979-0.77837-1.00661-1.09825c-0.05239-0.04333-0.11103-0.08406-0.12534-0.15814
		c-0.02511-0.11014-0.13666-0.13155-0.20481-0.19748c-0.0468-0.04528-0.1297-0.05282-0.14238-0.13363
		c0.48603,0.27854,0.88571,0.65841,1.23725,1.08412c1.04977,1.27127,1.76888,2.70872,2.15862,4.30762
		c0.02662,0.10919,0.01726,0.22727,0.08047,0.32753C31.99691,6.23566,31.99691,6.35187,31.99691,6.46808z"/>
	<path fill="#697681" d="M17.14992,12.96456c0.01008,0.00054,0.02017,0.00099,0.03026,0.00133
		c0.01094,0.0066,0.0147,0.01339,0.01131,0.02038c-0.00342,0.00707-0.0069,0.01062-0.01048,0.01062c-5.46017,0-10.92033,0-16.3805,0
		c0.058-0.05794,0.13142-0.03039,0.19718-0.03041C6.38177,12.96487,11.76585,12.96477,17.14992,12.96456z"/>
	<path fill="#535F69" d="M17.18102,12.99689c-0.00004-0.01035-0.00031-0.02069-0.00083-0.03101
		c3.2775-0.00022,6.55501-0.00246,9.83251,0.00137c0.52312,0.00061,1.00593-0.12006,1.453-0.38788
		c0.40207-0.24085,0.76404-0.52928,1.07252-0.88202c0.01667-0.01328,0.03168-0.01163,0.04502,0.00495
		c-0.55962,0.62223-1.19935,1.11641-2.05417,1.26771c-0.01268,0.00224-0.02299,0.01763-0.03441,0.02688
		C24.05678,12.99689,20.6189,12.99689,17.18102,12.99689z"/>
	<path fill="#445B6E" d="M29.58325,11.70231c-0.01501-0.00165-0.03001-0.0033-0.04502-0.00495
		c0.58495-0.67699,1.07792-1.41443,1.46782-2.21808c0.38671-0.79708,0.705-1.61876,0.88559-2.48857
		c0.02944-0.14181,0.01912-0.2901,0.07314-0.42758c0.02254,0.01524,0.01037,0.0478,0.03214,0.06343c0,0.05282,0,0.10564,0,0.15847
		c-0.09524,0.24971-0.11495,0.51755-0.19092,0.77244c-0.4443,1.49064-1.11186,2.86475-2.13389,4.05547
		C29.64483,11.64469,29.61297,11.6726,29.58325,11.70231z"/>
	<path fill="#40596F" d="M0.00225,0.73159c0.01041,0.00062,0.02033-0.00128,0.02976-0.00569
		c0.00076,1.61803,0.00152,3.23607,0.00229,4.8541C0.02362,5.58022,0.01293,5.58044,0.00225,5.58067
		C0.00225,3.96431,0.00225,2.34795,0.00225,0.73159z"/>
	<path fill="#767F87" d="M31.99691,6.62654c-0.02835-0.01234-0.03056-0.03772-0.03214-0.06343
		c0.01071-0.01055,0.02142-0.0211,0.03214-0.03165C31.99691,6.56316,31.99691,6.59485,31.99691,6.62654z"/>
	<path fill="#44637F" d="M0.06501,5.58203c0.01108-0.00052,0.02215-0.00105,0.03323-0.00157
		C0.29903,5.57332,0.47142,5.7265,0.51806,5.95484c0.01918,0.09388,0.01422,0.18933,0.01423,0.28428
		c0.00023,1.83743,0.00013,3.67487,0.00024,5.5123c0,0.0739-0.00312,0.14799,0.0047,0.22161
		c0.02509,0.23633,0.21904,0.43165,0.45697,0.4597c0.09,0.01061,0.18068,0.00607,0.27107,0.00607
		c5.06421,0.00015,10.12843,0.0001,15.19264,0.00034c0.10625,0,0.2132-0.00696,0.31823,0.01487
		c0.24135,0.05015,0.4057,0.24731,0.37457,0.44729c0,0-0.00326,0.00097-0.00328,0.00097
		c-5.35061-0.00019-10.7012,0.00002-16.05179-0.00167c-0.29248-0.00009-0.557-0.06506-0.77498-0.29268
		c-0.19685-0.20555-0.25176-0.44722-0.25226-0.70683C0.06445,9.86338,0.06622,7.82564,0.06616,5.7879
		C0.06615,5.71928,0.06541,5.65065,0.06501,5.58203z"/>
	<path fill="#2D4961" d="M17.15071,12.90131c-0.09488-0.31028-0.23031-0.41146-0.55219-0.41146
		c-5.16477-0.00008-10.32954-0.00299-15.49428,0.00654c-0.33501,0.00062-0.63228-0.29433-0.62989-0.6214
		c0.01396-1.91106,0.00686-3.82227,0.00683-5.73343c-0.00001-0.32157-0.07916-0.43741-0.38294-0.5611
		C0.09817,4.02238,0.09779,2.4643,0.09819,0.90622c0.00012-0.47818,0.36436-0.83981,0.8459-0.84005
		c1.32498-0.00066,2.64996-0.0005,3.97493-0.00068c0.00131,0.02604,0.00665,0.05009,0.03223,0.06412
		c0.04718,0.01833,0.07453,0.0584,0.10457,0.09509c0.09342,0.11413,0.21541,0.16802,0.36191,0.17205
		C5.49755,0.39895,5.57737,0.3983,5.65719,0.3983c7.02476,0.00005,14.04953,0.00481,21.07427-0.00903
		c0.55958-0.0011,1.03779,0.15814,1.51309,0.41069c0.69686,0.37027,1.19596,0.93609,1.64209,1.56422
		c0.43946,0.61874,0.72291,1.31471,1.03162,1.99851c0.20493,0.45392,0.37786,0.92019,0.48082,1.40819
		c0.05556,0.26333,0.19676,0.47313,0.37417,0.66587c0.02349,0.03718,0.06203,0.02988,0.09726,0.03244
		c0.01048,0.39972-0.09508,0.78104-0.2064,1.15764c-0.26049,0.88128-0.62953,1.71888-1.08922,2.51546
		c-0.26581,0.46062-0.56639,0.89807-0.91938,1.30018c-0.27622,0.31465-0.56451,0.61556-0.90502,0.8604
		c-0.44419,0.3194-0.92635,0.53756-1.48893,0.57469c-0.26537,0.01752-0.52958,0.02252-0.79411,0.0227
		C23.36187,12.90233,20.25629,12.90143,17.15071,12.90131z"/>
	<path fill="#123247" d="M31.77324,6.43674c-0.26313-0.1191-0.35271-0.36259-0.40735-0.60972
		c-0.16984-0.76821-0.50239-1.47338-0.82302-2.18464c-0.25038-0.55542-0.56479-1.06906-0.92452-1.56276
		c-0.57652-0.79122-1.34566-1.29998-2.2594-1.61678c-0.06256-0.02169-0.13627-0.01587-0.2048-0.01588
		C19.9227,0.44633,12.69125,0.44611,5.4598,0.44748C5.21793,0.44753,5.03774,0.36653,4.95125,0.12961
		c0.00577-0.04409,0.03165-0.06375,0.07578-0.06324C5.07492,0.06693,5.12281,0.06602,5.1707,0.06602
		c7.31127-0.00002,14.62255,0.0016,21.93382-0.00302c0.60312-0.00038,1.11278,0.22552,1.59488,0.54996
		c0.05691,0.0383,0.11229,0.07884,0.16838,0.11834c0.65288,0.51284,1.15169,1.15698,1.58487,1.85349
		c0.47793,0.76845,0.86947,1.57963,1.14829,2.44022c0.13395,0.41345,0.26266,0.83116,0.26823,1.27268
		C31.87001,6.36564,31.88414,6.44408,31.77324,6.43674z"/>
	<path fill="#3B556B" d="M27.81405,11.9194c-0.18305,0.16484-0.41986,0.15144-0.64095,0.18915
		c-0.03618,0.00617-0.07434,0.0009-0.11159,0.0009c-8.62529,0-17.25057,0-25.87586,0c-0.29593,0-0.32124-0.02461-0.32124-0.31255
		C0.8644,8.23723,0.86439,4.67758,0.86442,1.11792c0-0.25607,0.03558-0.29121,0.29484-0.29121
		C9.80583,0.8267,18.45241,0.82635,27.09898,0.82833c0.27732,0.00006,0.54353,0.06248,0.77902,0.22012
		c-0.06152,0.04942-0.12169,0.01769-0.18011-0.00538c-0.21048-0.0831-0.42745-0.11035-0.65455-0.11028
		c-8.5801,0.00253-17.1602,0.00218-25.7403,0.00204C0.94717,0.93482,0.97347,0.91764,0.97347,1.26058
		C0.97343,2.90787,0.97332,4.55516,0.97378,6.20245c0.00003,0.08931-0.00907,0.17972,0.02154,0.26678
		c0.01132,0.05741,0.00973,0.11559,0.00975,0.17359c0.00042,1.24548,0.00043,2.49097,0,3.73645
		c-0.00002,0.058,0.00133,0.11617-0.00914,0.17369c-0.04437,0.17191-0.01786,0.34696-0.02126,0.52046
		c-0.00476,0.24284-0.0024,0.48585-0.00074,0.72877c0.00121,0.17778,0.02067,0.19551,0.20511,0.19874
		c0.05851,0.00102,0.11705,0.0003,0.17558,0.0003c8.57168,0,17.14336-0.0002,25.71505,0.00124
		c0.20387,0.00003,0.40341-0.00831,0.59402-0.08908C27.71285,11.89255,27.7656,11.87794,27.81405,11.9194z"/>
	<path fill="#3C566C" d="M0.95993,6.46825c-0.05187-0.047-0.03077-0.10901-0.03081-0.16451
		C0.92803,4.56615,0.92816,2.82856,0.92834,1.09097c0.00002-0.20031,0.00068-0.20084,0.20709-0.20084
		c8.69452-0.00009,17.38904,0.00009,26.08356-0.00119c0.18032-0.00003,0.34309,0.05984,0.50756,0.11798
		c0.04982,0.01761,0.0953,0.04762,0.15145,0.04153c0.2265,0.07508,0.40225,0.23035,0.58216,0.37474
		c0.61599,0.49433,1.04236,1.13885,1.44636,1.80314c0.38788,0.63778,0.68971,1.31316,0.92676,2.0172
		c0.12388,0.36792,0.24591,0.74228,0.25808,1.13266c0.00726,0.23299-0.04317,0.46833-0.10167,0.69765
		c-0.18419,0.722-0.45702,1.41256-0.78337,2.08028c-0.16282,0.33314-0.33559,0.66619-0.57205,0.95875
		c-0.03704,0.09459-0.10953,0.16715-0.15989,0.25346c-0.01064,0.01058-0.02129,0.02115-0.03193,0.03173
		c-0.04251,0.06345-0.07895,0.1309-0.12773,0.1902l0.00008-0.00003c-0.28934,0.38288-0.62215,0.7249-0.99305,1.02989
		c-0.09694,0.07971-0.20723,0.14275-0.31619,0.20614c-0.02121,0.0106-0.04242,0.02121-0.06363,0.03181
		c-0.03605,0.03424-0.08711,0.03863-0.12794,0.06338c0,0,0.00005-0.00003,0.00006-0.00003
		c-0.51116,0.20747-1.04791,0.12318-1.57399,0.12347c-8.35214,0.00459-16.70428,0.00323-25.05642,0.00322
		c-0.25536,0-0.25539-0.00004-0.25541-0.248c-0.00003-0.35906-0.00092-0.71812,0.00095-1.07717
		c0.00029-0.05548-0.02125-0.11749,0.03078-0.1644c0.06986,0.07021,0.02474,0.16882,0.06253,0.24704
		c0.01384,0.05268,0.02872,0.10521,0.02096,0.16064c-0.00596,0.27806,0.00195,0.55615-0.0037,0.83407
		c-0.00243,0.11969,0.04216,0.17152,0.16583,0.16863c0.3011-0.00703,0.60248,0.00716,0.90363-0.00898
		c0.2533,0.00902,0.50654,0.01857,0.75989-0.00181c0.14357,0.006,0.28709,0.0067,0.43065,0.00669
		c3.36029-0.00021,6.72059-0.00011,10.08088-0.00023c0.0638,0,0.12761-0.00113,0.1912,0.00545
		c3.13132,0.00373,6.26264,0.00103,9.39396,0.00116c1.2227,0.00005,2.44542,0.00467,3.66768-0.00421
		c0.318,0.01047,0.63562,0.03401,0.94795-0.06779c0.33663-0.10972,0.61814-0.30513,0.87638-0.53519
		c0.41399-0.36884,0.75975-0.79639,1.05968-1.2606c0.46117-0.71376,0.83593-1.46928,1.11023-2.273
		c0.08526-0.2311,0.15416-0.46689,0.20589-0.70768c0.06871-0.15984,0.08442-0.33144,0.11249-0.5003
		c0.03728-0.21861,0.01855-0.43295-0.04878-0.64364c-0.04468-0.26704-0.12885-0.52317-0.21931-0.77781
		c-0.46206-1.30531-1.10528-2.50411-2.09931-3.49273c-0.29574-0.29413-0.63881-0.52489-1.04399-0.65169
		c-0.14902-0.04664-0.3025-0.05284-0.45764-0.05283C19.57028,1.00242,12.06348,1.0023,4.55669,1.00225
		c-0.05852,0-0.11712,0.0027-0.17553-0.00279C4.06859,1.00552,3.75589,0.99725,3.44325,1.00675
		c-0.0299-0.00183-0.05772-0.0112-0.08486-0.02282c-0.38677-0.02807-0.7734-0.0334-1.15987,0.0048
		c-0.21966,0.0145-0.43959,0.01121-0.6594,0.01102C1.43872,1.0029,1.3382,1.00163,1.23771,1.00287
		C1.05489,1.00512,1.04333,1.01612,1.04199,1.2033C1.04018,1.45536,1.04196,1.70743,1.04124,1.9595
		C1.04106,2.02251,1.04074,2.08558,1.02836,2.14783C0.97307,2.45083,1.02462,2.75716,0.99915,3.06101
		c-0.00271,0.03236,0.0459,0.00796,0.04277,0.03979c0.00622,0.3321,0.00017,0.66403,0.00084,0.99596
		C1.04414,4.78229,1.04348,5.46784,1.0428,6.15338C1.04272,6.23743,1.05008,6.32238,1.02467,6.40489
		C1.01295,6.43592,0.99311,6.45884,0.95993,6.46825z"/>
	<path fill="#3B556B" d="M28.00556,11.82424c0.33332-0.23922,0.64181-0.50603,0.92367-0.804
		c0.13285-0.14045,0.22965-0.31223,0.38557-0.43203c-0.03478,0.15409-0.16523,0.24128-0.25995,0.34989
		c-0.28427,0.32599-0.59215,0.62915-0.95792,0.86737C28.07275,11.82123,28.0363,11.81842,28.00556,11.82424z"/>
	<path fill="#3B556B" d="M29.47438,10.36631c0.01201-0.11014,0.09805-0.17428,0.15988-0.25346
		C29.62518,10.22481,29.56455,10.30474,29.47438,10.36631z"/>
	<path fill="#3B556B" d="M29.31472,10.58824c0.0204-0.07807,0.06011-0.14337,0.12773-0.1902
		C29.42952,10.48106,29.39129,10.54733,29.31472,10.58824z"/>
	<path fill="#3B556B" d="M27.814,11.91943c0.03246-0.04138,0.07712-0.05849,0.12793-0.06338
		C27.91752,11.91344,27.86876,11.92239,27.814,11.91943z"/>
	<path fill="#43505B" d="M0.99234,10.81015c-0.06442-0.07781-0.01784-0.16957-0.03236-0.25364
		C0.95996,9.19375,0.95995,7.831,0.95994,6.46824c0.00804-0.01062,0.01607-0.02123,0.02411-0.03185
		c0.0826,0.07524,0.05833,0.17564,0.05852,0.26712c0.00201,0.94721,0.0016,1.89443,0.00079,2.84164
		C1.04322,9.69779,1.04691,9.8502,1.05484,10.00257c-0.03279,0.1936-0.00252,0.38866-0.01303,0.58277
		C1.03762,10.66275,1.05453,10.74515,0.99234,10.81015z"/>
	<path fill="#805990" d="M4.37637,0.95497c0.07447-0.00085,0.14893-0.00244,0.2234-0.00244
		c7.46998-0.00011,14.93996,0.00257,22.40993-0.00578c0.52984-0.00059,0.95994,0.19298,1.35217,0.50611
		c0.63888,0.51007,1.09508,1.16911,1.50481,1.8634c0.31475,0.53334,0.57729,1.09107,0.79273,1.67084
		c0.02926,0.07875,0.07037,0.1545,0.05805,0.24294c-0.04783,0.1883-0.07847,0.38108-0.15872,0.56069
		c-0.14908,0.33365-0.72325,0.65746-1.05744,0.59413C29.42163,6.3143,29.31592,6.30771,29.22123,6.277
		c-0.35929-0.11652-0.64906-0.33611-0.90779-0.59915c-0.2949-0.29981-0.61696-0.56478-0.96809-0.7973
		c-0.43338-0.287-0.92739-0.41592-1.419-0.5544c-0.76459-0.21538-1.54278-0.35962-2.33315-0.43594
		c-0.28049-0.02708-0.56356-0.00665-0.84544-0.00791c-0.42559-0.00191-0.85125,0.00403-1.27677-0.00212
		c-0.31771-0.00459-0.60032-0.11893-0.75142-0.40104c-0.23122-0.43166-0.60593-0.54647-1.05103-0.54767
		c-0.58519-0.00159-1.17039-0.00029-1.75558-0.00051c-0.07975-0.00003-0.15963,0.00266-0.23905-0.00728
		c-0.01731-0.0029-0.03392-0.00834-0.04986-0.01555c-0.53625-0.41802-1.1296-0.71189-1.80956-0.81609
		c-0.90255-0.13832-1.74361,0.03397-2.52655,0.49589c-0.04533,0.02674-0.09171,0.05409-0.12401,0.09804
		c-0.11852,0.09936-0.2354,0.20148-0.39185,0.24044c-0.1593,0.01391-0.31909,0.01357-0.47799,0.00483
		c-0.26089-0.01436-0.48501-0.11592-0.65458-0.31617c-0.51882-0.61271-0.50526-0.53487-1.17786-0.53568
		C8.72938,2.07726,6.9971,2.07968,5.26482,2.07801C4.8022,2.07756,4.50255,1.86633,4.34214,1.43818
		c-0.00935-0.05243-0.02566-0.10359-0.0341-0.15634c-0.00416-0.03363-0.00512-0.0675-0.00452-0.10138
		C4.30307,1.14749,4.30394,1.11452,4.30779,1.08166C4.31249,1.0298,4.33681,0.98829,4.37637,0.95497z"/>
	<path fill="#B686BA" d="M1.01689,10.02066C0.97935,9.86517,0.9911,9.70668,0.99087,9.54938
		c-0.00142-0.97457-0.0006-1.94913-0.00098-2.9237C0.98987,6.56259,0.98611,6.49949,0.98407,6.4364
		c0.00218-1.03175,0.0047-2.06349,0.00599-3.09523C0.99017,3.25154,0.99181,3.16297,1.02048,3.077
		C1.00571,3.04523,1.01831,3.01611,1.02895,2.98668c0.11411-0.21882,0.23152-0.43473,0.49358-0.5142
		C1.62058,2.46399,1.69942,2.50464,1.77001,2.567C1.95428,2.71138,2.00118,2.90644,2.0008,3.12979
		C1.99787,4.86658,2.00027,6.60337,1.99817,8.34017C1.99775,8.69176,2.11497,8.9802,2.41429,9.18236
		C2.58314,9.2964,2.77326,9.33539,2.97454,9.33525c0.5744-0.0004,1.14881-0.00155,1.72321,0.00037
		C5.0987,9.33696,5.34642,9.5311,5.44376,9.9148c0.11494,0.45308,0.44863,0.71662,0.92415,0.7187
		c0.79777,0.00349,1.59557,0.00096,2.39335,0.00101c1.17539,0.00006,2.35078,0.00003,3.52587-0.00026
		c0.04385-0.00727,0.08526,0.0034,0.11887,0.03006c0.17639,0.13986,0.38685,0.20884,0.59409,0.28472
		c0.04675,0.03864,0.1018,0.04368,0.15959,0.03808c0.11765,0.00471,0.23743-0.02009,0.35179,0.02645
		c0.10859,0.08654,0.10407,0.20993,0.10754,0.32996c0.00196,0.06789,0.00257,0.13595-0.00124,0.20377
		c-0.00112,0.03524,0.00134,0.07069-0.00177,0.10589c-0.00051,0.0335,0.00031,0.06715-0.00126,0.10067
		c-0.00001,0.03257,0.0001,0.06521-0.00083,0.09783c0.00019,0.03253-0.00073,0.06502-0.00646,0.09721
		c-0.00527,0.02475-0.01832,0.04502-0.0368,0.06209c-0.05843,0.00126-0.11685,0.00363-0.17528,0.00363
		c-3.4394,0.00017-6.8788,0.00014-10.3182,0.00024c-0.0794,0-0.15955,0.00691-0.23391-0.03053
		c-0.13649-0.00467-0.21977-0.09867-0.29806-0.18855c-0.16108-0.18495-0.24308-0.4037-0.25386-0.64922
		c-0.0103-0.23454-0.06067-0.29314-0.29531-0.29333c-0.4939-0.0004-0.74229-0.32483-0.9577-0.69594
		C1.01619,10.1191,1.00036,10.06979,1.01689,10.02066z"/>
	<path fill="#855E92" d="M30.65816,7.82907c-0.06841,0.29949-0.19861,0.57682-0.3233,0.85464
		c-0.35745,0.79649-0.78686,1.55381-1.36241,2.21549c-0.38533,0.443-0.80813,0.85219-1.39311,1.04319
		c-0.29057,0.09487-0.58694,0.06938-0.88305,0.06935c-0.03541-0.04434-0.0096-0.08303,0.01926-0.11221
		c0.10284-0.10398,0.16105-0.23445,0.22539-0.36127c0.09347-0.18425,0.24012-0.32323,0.43553-0.37078
		c0.8005-0.19479,1.28555-0.76974,1.72195-1.39624c0.49794-0.71485,0.86712-1.49666,1.15802-2.31552
		c0.02929-0.08244,0.03553-0.17814,0.11693-0.23606C30.55862,7.29591,30.68941,7.57589,30.65816,7.82907z"/>
	<path fill="#896098" d="M30.37131,7.22182c-0.33591,1.05643-0.81728,2.04132-1.49656,2.9226
		c-0.24418,0.31679-0.52574,0.60382-0.87405,0.81853c-0.15683,0.09668-0.32924,0.14469-0.50057,0.19615
		c-0.27038,0.08122-0.47729,0.2318-0.57387,0.49966c-0.04998,0.13862-0.18068,0.2183-0.22999,0.353
		c-0.15414,0.00096-0.30829,0.00279-0.46243,0.00279c-4.15199,0.00016-8.30398,0.00014-12.45598-0.00003
		c-0.06907,0-0.13814-0.00231-0.20721-0.00355c0.00144-0.01991,0.00288-0.03982,0.00432-0.05972
		c0.07768-0.06562,0.17182-0.04582,0.26036-0.04586c2.24537-0.00098,4.49073-0.00076,6.7361-0.00076
		c1.7931,0,3.5862-0.0007,5.3793,0.00119c0.16005,0.00017,0.31789-0.01303,0.47592-0.03389
		c0.17966-0.02371,0.27284-0.15016,0.352-0.29113c0.08863-0.15785,0.18545-0.30644,0.33879-0.41321
		c0.1109-0.07722,0.23207-0.13332,0.35974-0.16675c0.46984-0.12305,0.81569-0.41986,1.11884-0.77534
		c0.73609-0.86315,1.20872-1.86815,1.58709-2.92315c0.01778-0.04957,0.02896-0.10184,0.05948-0.14634
		C30.32635,7.09886,30.35785,7.14297,30.37131,7.22182z"/>
	<path fill="#2D4961" d="M30.37131,7.22182C30.33911,7.19055,30.3069,7.15927,30.27469,7.128
		c-0.03412,0.00048-0.05607-0.02314-0.0815-0.04001c-0.02086-0.01375-0.04283-0.02571-0.06407-0.03898
		c-0.03261-0.02264-0.06628-0.04333-0.10269-0.05973c-0.04712-0.02419-0.09734-0.03926-0.14853-0.05243
		c-0.14661-0.04894-0.29724-0.07009-0.45095-0.08437c-0.14826-0.01377-0.23682-0.15417-0.20477-0.29816
		c0.03286-0.14761,0.14245-0.2196,0.28358-0.18627c0.59598-0.07619,1.04041-0.33666,1.12156-0.9464
		c0.00922-0.06927,0.01135-0.15061,0.09017-0.19159c0.10318,0.23436,0.20031,0.47033,0.19498,0.73314
		c0.0341,0.12791-0.04917,0.21475-0.11608,0.30204c-0.06272,0.08181-0.1405,0.15237-0.221,0.21835
		c-0.02108,0.01567-0.04446,0.02802-0.06627,0.04272c-0.12617,0.08508-0.12495,0.08846-0.00335,0.18153
		c0.10835,0.08292,0.22123,0.16168,0.29564,0.28053c0.02763,0.04414,0.06644,0.08348,0.04733,0.14245
		c-0.00649,0.24811-0.09529,0.47408-0.19059,0.69828C30.61293,7.60321,30.56528,7.37847,30.37131,7.22182z"/>
	<path fill="#2D4961" d="M1.50351,2.50644C1.27501,2.60642,1.16487,2.81,1.05373,3.0127
		C0.9664,2.99642,0.99479,2.92527,0.99401,2.87547c-0.00319-0.20245-0.00392-0.405,0-0.60725
		c0.07677-0.18935,0.25912-0.24106,0.42184-0.31844c0.04292-0.01377,0.08828-0.01805,0.13132-0.03176
		c0.01366-0.0048,0.02774-0.00822,0.04188-0.01123c0.0485-0.00888,0.09917-0.00912,0.14318-0.03582
		C1.79392,1.83521,1.8024,1.77278,1.81769,1.71181c0.04422-0.17634,0.09135-0.35198,0.19383-0.5066
		c0.03573-0.04937,0.06899-0.10066,0.11239-0.14429c0.04099-0.04016,0.07998-0.08283,0.13555-0.10475
		C2.27735,0.95228,2.29478,0.94789,2.3123,0.94272c0.35845-0.0007,0.71686-0.02173,1.0747,0.01102
		C3.39754,0.9639,3.40808,0.97407,3.41863,0.98424c-0.03968,0.14649-0.1755,0.08183-0.26474,0.11929
		C3.07293,1.12029,2.99856,1.154,2.92645,1.19311C2.87358,1.21679,2.83123,1.25551,2.78631,1.29066
		c-0.03751,0.02495-0.07239,0.0529-0.10285,0.0863C2.43984,1.56521,2.34103,1.81541,2.3385,2.11798
		C2.33689,2.31055,2.22338,2.40803,2.02443,2.41989C1.95054,2.42429,1.87669,2.42592,1.80439,2.4432
		C1.70367,2.46212,1.60248,2.47906,1.50351,2.50644z"/>
	<path fill="#2D4961" d="M1.01689,10.02066c0.09051,0.23628,0.25036,0.42403,0.42586,0.60112
		c0.15419,0.15559,0.35426,0.17597,0.55676,0.18518c0.26983,0.01228,0.32588,0.06406,0.33463,0.32569
		c0.01261,0.37669,0.17942,0.66202,0.50914,0.85167c-0.24316,0.04993-0.48616,0.04891-0.72901-0.00212
		c-0.14884-0.06567-0.20818-0.20462-0.22339-0.34154c-0.0279-0.25117-0.15125-0.3673-0.40073-0.39178
		c-0.13694-0.01344-0.25941-0.09166-0.37292-0.17129c-0.04887-0.03428-0.11516-0.0636-0.09211-0.14533
		c-0.02485-0.03702-0.03723-0.07733-0.03279-0.12209C1.00725,10.54719,0.96019,10.28234,1.01689,10.02066z"/>
	<path fill="#B686BA" d="M1.02512,10.93225c0.16272,0.20503,0.39935,0.27209,0.6391,0.31588
		c0.14004,0.02558,0.21168,0.07502,0.22484,0.22189c0.01725,0.19251,0.09558,0.36505,0.22519,0.51217
		c-0.05653,0.06085-0.13005,0.03003-0.19505,0.03095c-0.27053,0.00383-0.54115,0.00142-0.81174,0.00168
		c-0.06009,0.00006-0.11796,0.00477-0.11722-0.08439c0.00262-0.31593,0.0014-0.63189,0.00382-0.94783
		C0.99418,10.96574,1.01431,10.94903,1.02512,10.93225z"/>
	<path fill="#855E93" d="M1.44171,1.96885C1.29159,2.03275,1.1636,2.13323,1.02543,2.2169
		C1.00046,2.20364,0.99429,2.18112,0.99469,2.15537C0.99347,1.79389,0.99407,1.4324,0.98973,1.07095
		C0.98869,0.98418,1.01685,0.94756,1.10757,0.95114c0.14231,0.0056,0.28495,0.00276,0.42745,0.00349
		c0.02348,0.0287,0.01958,0.06047,0.00144,0.08725C1.33827,1.33438,1.43209,1.65579,1.44171,1.96885z"/>
	<path fill="#855E92" d="M30.84873,7.13081c-0.08633-0.17336-0.22586-0.29864-0.38267-0.40509
		c-0.16145-0.10961-0.16399-0.10668,0.0059-0.21827c0.02565-0.01685,0.05503-0.02811,0.08268-0.04196
		c0.12211-0.05815,0.24549-0.01889,0.36559,0.00308c0.09392,0.01718,0.07712,0.09249,0.05591,0.16
		C30.96104,6.80282,30.96375,6.98153,30.84873,7.13081z"/>
	<path fill="#896097" d="M1.44171,1.96885C1.3651,1.95863,1.37559,1.90035,1.37546,1.84899
		C1.37503,1.6711,1.38393,1.49268,1.37272,1.31549c-0.00974-0.15395,0.11743-0.237,0.16231-0.36088
		C1.7594,0.9526,1.98378,0.95056,2.20816,0.94853c0.03448-0.01118,0.06732-0.01961,0.06167,0.03633
		C2.26124,0.98663,2.25257,0.98747,2.2438,0.98738c-0.10224,0.05337-0.2153,0.0455-0.32486,0.05455
		C1.68379,1.06136,1.54532,1.1997,1.52882,1.43489C1.52113,1.54456,1.51083,1.65391,1.51279,1.76418
		c0.00114,0.0645,0.00906,0.12452,0.05615,0.17326C1.53378,1.97685,1.48595,1.96567,1.44171,1.96885z"/>
	<path fill="#8C629B" d="M3.12893,1.07916C3.21399,1.01293,3.3462,1.0885,3.41863,0.98425
		c0.12003-0.06076,0.24864-0.0267,0.37311-0.03009c0.19473-0.00531,0.38974-0.00002,0.58464,0.00079
		C4.36581,0.99674,4.35526,1.03851,4.3447,1.08028C4.29809,1.12304,4.24044,1.12725,4.18118,1.12731
		C3.88443,1.12759,3.58768,1.12792,3.29092,1.12703C3.23251,1.12685,3.17323,1.12739,3.12893,1.07916z"/>
	<path fill="#7F5990" d="M30.97615,6.62856c0.00916-0.09044-0.02119-0.13342-0.12351-0.13162
		c-0.09908,0.00174-0.19858-0.01999-0.29795-0.03143c0.14326-0.15059,0.3082-0.28598,0.35775-0.50233
		c0.102,0.04757,0.05985,0.14872,0.07489,0.2231C31.01676,6.3318,31.03576,6.48272,30.97615,6.62856z"/>
	<path fill="#414F5A" d="M0.99469,2.15537c0.02466,0.01345,0.02947,0.03665,0.03073,0.06157
		C1.02497,2.43779,1.02386,2.65868,1.02457,2.87957C1.02471,2.9253,1.01094,2.97556,1.05374,3.0127
		C1.04266,3.03413,1.03159,3.05557,1.0205,3.07701C0.99688,3.08176,0.96135,3.10105,0.96202,3.05752
		c0.00451-0.29312-0.01833-0.58662,0.01195-0.8793C0.97482,2.16999,0.98752,2.16296,0.99469,2.15537z"/>
	<path fill="#424F5A" d="M2.26983,0.98486c-0.01161-0.02712-0.03741-0.03045-0.0617-0.03629
		c0.07212-0.05263,0.15459-0.02409,0.23169-0.02525c0.26586-0.00399,0.53182-0.00237,0.79773-0.0008
		C3.28854,0.92281,3.34543,0.90506,3.387,0.95373C3.07592,0.95364,2.76484,0.95378,2.45376,0.95324
		C2.39037,0.95313,2.32683,0.94956,2.26983,0.98486z"/>
	<path fill="#9B6DAB" d="M1.79033,2.41098c0.05804-0.0329,0.1222-0.02877,0.18549-0.03052
		c0.25532-0.00704,0.32512-0.06933,0.32586-0.3159c0.00093-0.31106,0.1135-0.55998,0.38124-0.73172
		C2.94762,1.3003,3.21335,1.32388,3.47855,1.31918c0.23373-0.00414,0.46759-0.00124,0.70139-0.00062
		C4.25577,1.31877,4.3304,1.32204,4.37587,1.397C4.51718,1.813,4.81924,2.03095,5.2556,2.03097
		c1.86526,0.0001,3.73051,0.0018,5.59576-0.00237c0.21225-0.00047,0.38267,0.07097,0.52502,0.21688
		c0.10298,0.10556,0.20375,0.21436,0.29475,0.33006c0.16205,0.20604,0.38,0.29483,0.63249,0.30954
		c0.16951,0.00987,0.33991,0.00462,0.50992,0.00613c0.00089,0.08146-0.06533,0.11606-0.11573,0.16048
		c-0.68397,0.60285-1.13104,1.33681-1.26445,2.24516c-0.01,0.06811-0.01665,0.13614-0.01669,0.20491
		c-0.00036,0.67038-0.0007,1.34076,0.00027,2.01114c0.00028,0.19411,0.01353,0.20722,0.20806,0.20764
		c0.5584,0.0012,1.11681,0.00032,1.67521,0.00052c0.05848,0.00002,0.11702-0.00126,0.17534,0.00486
		c0.11589,0.01215,0.16511,0.07391,0.16123,0.19125c-0.01394,0.42156,0.03399,0.84258,0.01479,1.26425
		c-0.00537,0.11801,0.05266,0.16693,0.16394,0.15445c0.14099-0.01581,0.30293,0.05985,0.41463-0.08956
		c0.08294-0.04364,0.09258-0.121,0.09322-0.20177c0.00134-0.16797,0.00162-0.33594-0.00047-0.50391
		c-0.00064-0.05125-0.01575-0.10542,0.02194-0.15161c0.11554-0.05789,0.23798-0.0375,0.35793-0.02598
		c0.11024,0.01059,0.12691,0.09687,0.12954,0.18544c0.0056,0.18898,0.00083,0.37806,0.00258,0.56709
		c0.00194,0.20861,0.01225,0.22287,0.2277,0.21825c0.12002-0.00257,0.261,0.04729,0.3407-0.0989
		c0.07887-0.04152,0.10507-0.10844,0.10375-0.19442c-0.0026-0.16861,0.00051-0.33728-0.00175-0.50594
		c-0.00068-0.05078-0.01917-0.10609,0.02629-0.14959c0.02286-0.01405,0.04789-0.02186,0.07428-0.02556
		c0.35329-0.04952,0.40988-0.00095,0.41052,0.3514c0.00028,0.15729,0.00096,0.3146,0.00023,0.47188
		c-0.00048,0.10437,0.04425,0.16105,0.15141,0.151c0.15633-0.01466,0.3321,0.06097,0.45959-0.09361
		c0.10172-0.05099,0.08652-0.14769,0.08737-0.23357c0.00334-0.34001,0.00028-0.68006,0.00203-1.02009
		c0.0004-0.07752-0.00949-0.15818,0.04193-0.22704c0.0752-0.05251,0.16208-0.04089,0.24565-0.0411
		c0.53945-0.00135,1.0789,0.00006,1.61835-0.00129c0.08835-0.00022,0.18272,0.01357,0.2488-0.0686
		c0.05947-0.04273,0.08563-0.09645,0.08545-0.17341c-0.00149-0.61251,0.02298-1.22614-0.00679-1.83728
		c-0.04953-1.01709-0.43891-1.89366-1.18956-2.60154c-0.04372-0.04122-0.1125-0.06906-0.09987-0.14882
		c0.69158-0.00019,1.38325-0.00714,2.07468,0.00244c0.32189,0.00446,0.63151,0.0649,0.86303,0.32702
		c0.07874,0.08915,0.11343,0.20034,0.18778,0.29191c0.17558,0.21622,0.40011,0.32509,0.67347,0.32734
		c0.59578,0.0049,1.19163,0.00108,1.78745,0.00165c0.64921,0.00062,1.28332,0.11895,1.91366,0.25508
		c0.56399,0.1218,1.12384,0.26252,1.66354,0.47031c0.39041,0.15031,0.73231,0.38171,1.04697,0.65037
		c0.27322,0.23328,0.5278,0.48799,0.79944,0.72319c0.20343,0.17614,0.45566,0.26342,0.70955,0.34469
		c0.04407,0.01411,0.13997-0.01958,0.12523,0.08678c-0.16009,0.02041-0.26468,0.11509-0.2518,0.24333
		c0.01193,0.11882,0.06263,0.21058,0.20847,0.2052c0.16062-0.00593,0.31392,0.02832,0.45934,0.0966
		c0.08779,0.05475,0.05052,0.1309,0.02848,0.19816c-0.20448,0.62403-0.46348,1.2248-0.78441,1.79899
		c-0.27953,0.50012-0.59025,0.97743-1.00402,1.38158c-0.20037,0.19571-0.42416,0.35289-0.69936,0.42451
		c-0.40643,0.10578-0.72201,0.32293-0.91499,0.70349c-0.06766,0.13343-0.18806,0.19665-0.3402,0.19656
		c-0.04789-0.00003-0.09578,0.00067-0.14367,0.00067c-4.07103,0.00003-8.14207,0.00016-12.2131-0.00084
		c-0.09366-0.00002-0.1933,0.02235-0.27658-0.0455c-0.0106-0.17985,0.03165-0.36593-0.06403-0.53576
		c0.07453-0.07245,0.1696-0.04965,0.25704-0.04981c0.99812-0.00177,1.99628,0.00348,2.99437-0.00299
		c0.51828-0.00336,0.97001-0.16272,1.27804-0.60971c0.01797-0.02608,0.04058-0.0487,0.06483-0.0692
		c0.19923-0.19325,0.26184-0.44365,0.27079-0.70407c0.01373-0.39965,0.00046-0.80006,0.00564-1.20005
		c0.00168-0.12993-0.04765-0.1781-0.17759-0.17496c-0.24902,0.006-0.4983,0.00184-0.74747,0.00215
		c0.22163,0.00406,0.44346-0.00389,0.66487,0.00522c0.05482,0.00225,0.14498-0.02144,0.13522,0.08913
		c-0.10945,0.0586-0.22819,0.03194-0.34297,0.03468c-0.1798,0.00429-0.35997,0.00602-0.53962-0.00039
		c-0.13235-0.00472-0.17612,0.05138-0.1746,0.17741c0.00407,0.33606,0.00239,0.67223,0.00072,1.00835
		c-0.00039,0.078,0.00837,0.15866-0.04041,0.22874c-0.06382,0.05007-0.14027,0.04405-0.21399,0.04413
		c-1.17552,0.00123-2.35105,0.00158-3.52657-0.00001c-0.24396-0.00033-0.27685-0.03397-0.27844-0.27446
		c-0.00237-0.359,0.00013-0.71802-0.00099-1.07702c-0.0007-0.22392-0.01203-0.23479-0.23173-0.23536
		c-0.21801-0.00056-0.43602,0.00001-0.65403-0.00011c0.19774,0.00139,0.3955-0.0009,0.59322,0.00131
		c0.06764,0.00075,0.14089-0.01012,0.18821,0.05803c-0.04198,0.08803-0.12607,0.06393-0.19488,0.06546
		c-0.23361,0.00521-0.46747,0.00563-0.70105,0.00057c-0.12784-0.00277-0.18149,0.0424-0.17995,0.17398
		c0.00482,0.41116-0.00407,0.82251,0.00403,1.2336c0.00526,0.26673,0.1056,0.50277,0.27352,0.71118
		c0.04194,0.05206,0.10151,0.09668,0.09479,0.17544c-0.0439,0.05739-0.10731,0.03607-0.16286,0.0361
		c-1.94671,0.00103-3.89342,0.00135-5.84013,0.00048C5.8621,10.6827,5.48407,10.36812,5.39709,9.91386
		C5.33682,9.59912,5.07868,9.38449,4.75668,9.38408C4.15564,9.38333,3.55461,9.38406,2.95358,9.3838
		C2.3627,9.38354,1.95015,8.97574,1.95009,8.39151c-0.00018-1.72634-0.00316-3.45269,0.00339-5.179
		C1.95442,2.9637,1.92777,2.74053,1.7256,2.57032C1.74109,2.51477,1.74782,2.45572,1.79033,2.41098z"/>
	<path fill="#FEFEFE" d="M15.42898,9.22628c0.01031,0.11015-0.02592,0.16413-0.15114,0.15105
		c-0.11536-0.01205-0.23374-0.01102-0.3494-0.00059c-0.12542,0.0113-0.15156-0.04072-0.14774-0.15403
		c0.00779-0.23125-0.00203-0.46304,0.00357-0.69442c0.00232-0.09573-0.02729-0.13377-0.12593-0.12642
		c-0.10544,0.00786-0.2117,0.00473-0.31761,0.0064c-0.08815,0.1635-0.03362,0.34055-0.04928,0.51093
		c-0.01039,0.11305,0.02863,0.23264-0.04513,0.33734c0.00019,0.07847-0.02115,0.12777-0.11844,0.11956
		c-0.16855-0.01423-0.38119,0.06624-0.49531-0.03103c-0.11095-0.09457-0.03764-0.30861-0.03468-0.46898
		c0.00614-0.33244-0.0333-0.66459-0.00368-0.99674c0.0112-0.12559-0.07228-0.11517-0.15497-0.11507
		c-0.63305,0.00078-1.26617-0.00451-1.89911,0.00416c-0.14447,0.00198-0.17543-0.03977-0.17382-0.17643
		c0.00747-0.63354,0.00773-1.26725,0.00218-1.90082c-0.00695-0.79355,0.28471-1.47938,0.75314-2.10344
		c0.19792-0.26368,0.44519-0.48009,0.69191-0.69655c0.105-0.07221,0.21-0.14443,0.315-0.21664
		c0.47841-0.32484,1.00648-0.50295,1.58354-0.56431c0.58318-0.06201,1.14508,0.00857,1.69198,0.20609
		c0.36639,0.13233,0.7056,0.31882,1.01923,0.54996c0.48222,0.38013,0.85851,0.84394,1.12365,1.39648
		c0.18712,0.38995,0.27201,0.80465,0.34396,1.22855c0.10962,0.64578,0.03102,1.29289,0.05808,1.93861
		c0.00304,0.07244,0.01193,0.14928-0.04458,0.21075c0.01375,0.12809-0.07005,0.12497-0.16156,0.125
		c-0.65913,0.00016-1.31825,0.00297-1.97738,0.00494c-0.08703,0.06291-0.07591,0.15761-0.07655,0.24572
		c-0.00246,0.33802-0.00012,0.67606-0.00154,1.01408c-0.00033,0.07839,0.00906,0.16007-0.0496,0.22639
		c-0.00056,0.08226-0.03296,0.12348-0.12509,0.11935c-0.14322-0.00642-0.2872-0.0069-0.43037,0.00004
		c-0.10296,0.00499-0.12497-0.03994-0.12305-0.13152c0.00486-0.23203-0.00528-0.4645,0.00438-0.69623
		c0.00512-0.12277-0.03824-0.1592-0.15494-0.1472c-0.09472,0.00974-0.19094,0.00521-0.28649,0.007
		c-0.08429,0.1478-0.03486,0.30957-0.04965,0.46465C15.46128,8.99104,15.50466,9.11597,15.42898,9.22628z"/>
	<path fill="#7D6DAB" d="M18.90438,7.64068c-0.00219-0.57453,0.02069-1.15046-0.01188-1.72328
		c-0.06513-1.14551-0.45835-2.15012-1.37271-2.90641c-0.04457-0.03687-0.08465-0.07909-0.12682-0.11882
		c0.07663-0.07566,0.15581-0.04773,0.23533-0.00571c0.01087,0.00028,0.02174,0.00055,0.03262,0.00083
		c0.42999,0.36438,0.75895,0.80527,0.9943,1.31361c0.17361,0.375,0.27563,0.77026,0.31482,1.18217
		c0.06766,0.711,0.01254,1.42346,0.03151,2.13496C19.00341,7.58746,18.99962,7.64877,18.90438,7.64068z"/>
	<path fill="#7667A4" d="M17.62831,2.88646c-0.07843,0.0019-0.15686,0.0038-0.23531,0.0057
		c-0.39988-0.27256-0.81987-0.50684-1.29301-0.62814c-1.00461-0.25757-1.96359-0.14357-2.87115,0.36336
		c-0.03216,0.01796-0.06681,0.03153-0.10031,0.04716c0.10413-0.15199,0.27808-0.20946,0.43013-0.28155
		c0.41185-0.19527,0.84329-0.32144,1.30518-0.36815c0.99085-0.10021,1.86072,0.18524,2.65619,0.74777
		C17.56204,2.80231,17.59248,2.84814,17.62831,2.88646z"/>
	<path fill="#986BA8" d="M4.37587,1.397C4.3185,1.36108,4.2544,1.36523,4.1906,1.36528
		C3.75505,1.36562,3.3195,1.36539,2.88395,1.36552C2.81508,1.36555,2.74528,1.3721,2.68294,1.33286
		c0.01901-0.03642,0.04834-0.05901,0.08947-0.06577c0.06808-0.03263,0.13927-0.04513,0.21543-0.04479
		C3.37496,1.22402,3.7621,1.22291,4.14923,1.22323C4.2181,1.22329,4.28839,1.2184,4.34461,1.27043
		C4.35503,1.31262,4.36545,1.35481,4.37587,1.397z"/>
	<path fill="#9569A4" d="M4.34461,1.27043C3.82058,1.26932,3.29655,1.26822,2.77246,1.2671
		c0.03512-0.04425,0.07335-0.08413,0.13368-0.09254c0.09493-0.03532,0.19293-0.0478,0.29434-0.04721
		C3.51701,1.1292,3.83357,1.1278,4.15011,1.12817C4.21866,1.12825,4.28855,1.12363,4.3444,1.17545
		C4.34447,1.20711,4.34454,1.23877,4.34461,1.27043z"/>
	<path fill="#9166A0" d="M4.3444,1.17545C3.86499,1.17515,3.38558,1.17486,2.90615,1.17456
		c0.06423-0.0549,0.13641-0.09151,0.2228-0.09539c0.40524,0.00037,0.8105,0.00074,1.21575,0.00111
		C4.3446,1.112,4.3445,1.14373,4.3444,1.17545z"/>
	<path fill="#FEFEFE" d="M18.12588,10.33227c-0.23845,0.39776-0.61842,0.58436-1.05105,0.68949
		c-0.05545,0.01348-0.11618,0.00733-0.17446,0.00735c-1.06661,0.00036-2.13322,0.00017-3.19984,0.00052
		c-0.06356,0.00002-0.12713,0.00354-0.19069,0.00543c-0.12652-0.00245-0.25304-0.00491-0.37956-0.00736
		c-0.03705-0.03631-0.0974-0.01845-0.13366-0.05661c-0.25359-0.04431-0.4727-0.15827-0.6658-0.32476
		c-0.31457-0.30741-0.44237-0.68076-0.42584-1.11667c0.0138-0.36379,0.00616-0.72855,0.00072-1.09277
		c-0.00152-0.10203,0.02617-0.13634,0.13319-0.13464c0.32959,0.00523,0.65935-0.00075,0.98905-0.00237
		c0.1082,0.0403,0.08201,0.13656,0.08302,0.21432c0.0047,0.36412,0.00121,0.72832,0.00231,1.09248
		c0.00069,0.22572,0.00737,0.23314,0.23054,0.23325c1.17513,0.0006,2.35027,0.00089,3.5254-0.00073
		c0.09839-0.00014,0.20555,0.01805,0.2804-0.07497c0.00199-0.43814,0.00855-0.87634,0.00304-1.31438
		c-0.00153-0.12204,0.03713-0.15022,0.15451-0.14782c0.31892,0.0065,0.63813-0.00087,0.95723-0.00274
		c0.06404,0.00597,0.07576,0.05811,0.07553,0.10285c-0.00271,0.5179,0.0512,1.03755-0.0331,1.55291
		C18.28417,10.09363,18.22618,10.22545,18.12588,10.33227z"/>
	<path fill="#9569A4" d="M30.0497,6.97394c0.04323,0.00285,0.07479,0.02467,0.0983,0.05957
		c0.02275,0.17736-0.06893,0.32805-0.12597,0.48314c-0.27806,0.75612-0.63127,1.47706-1.08793,2.14331
		c-0.23586,0.3441-0.49094,0.67533-0.82692,0.93578c-0.18731,0.1452-0.39092,0.25707-0.61825,0.31862
		c-0.35427,0.09592-0.61568,0.29492-0.78001,0.62464c-0.0901,0.18079-0.24717,0.27048-0.4537,0.26795
		c-0.04787-0.00059-0.09578,0.00034-0.14367,0.00034c-4.08685,0.00002-8.17371,0.00016-12.26056-0.00086
		c-0.09362-0.00002-0.19328,0.02256-0.27657-0.04532c-0.00012-0.03173-0.00025-0.06345-0.00037-0.09518
		c0.07779-0.06521,0.17182-0.04583,0.26042-0.04587c2.36737-0.00092,4.73474-0.00069,7.10212-0.00073
		c1.7343-0.00003,3.46861-0.0027,5.20288,0.00345c0.22108,0.00078,0.3589-0.08075,0.45733-0.27037
		c0.15987-0.30797,0.42127-0.50871,0.75332-0.59269c0.44708-0.11307,0.77608-0.38581,1.05722-0.72321
		c0.64778-0.77739,1.09231-1.66763,1.43702-2.61057c0.04166-0.11397,0.08745-0.22651,0.12435-0.34214
		C29.98348,7.03749,29.99832,6.99291,30.0497,6.97394z"/>
	<path fill="#8D629B" d="M30.20827,7.07137c0.02213,0.01891,0.04426,0.03781,0.06641,0.05667
		c-0.0834,0.35512-0.22943,0.6884-0.37283,1.02148c-0.24652,0.57263-0.53904,1.1221-0.90058,1.63215
		c-0.27197,0.38368-0.56751,0.7473-0.96384,1.01682c-0.20906,0.14217-0.44766,0.21353-0.68222,0.29526
		c-0.22115,0.07705-0.39465,0.21756-0.48566,0.42702c-0.137,0.3153-0.3817,0.42882-0.70443,0.43017
		c-0.04255,0.00018-0.08511,0.00007-0.12766,0.00007c-4.15417,0.00008-8.30835,0.00016-12.4625,0.00025
		c-0.0001-0.03169-0.00023-0.06339-0.00035-0.09509c0.07767-0.06549,0.17174-0.04586,0.26026-0.0459
		c2.29225-0.00095,4.58451-0.00074,6.87676-0.00074c1.76573,0,3.53146,0,5.29718-0.00001c0.07977,0,0.15956,0.0002,0.23932-0.00152
		c0.22204-0.00479,0.37981-0.09986,0.47786-0.30504c0.13692-0.28649,0.36386-0.48398,0.67349-0.5629
		c0.54637-0.13927,0.92641-0.49508,1.25808-0.91832c0.6563-0.83748,1.11024-1.77961,1.45314-2.77887
		C30.13211,7.1805,30.1336,7.10478,30.20827,7.07137z"/>
	<path fill="#986BA8" d="M30.0497,6.97394c-0.19624,0.60752-0.42763,1.20154-0.73174,1.76407
		c-0.32665,0.60423-0.68345,1.18879-1.19914,1.66049c-0.19161,0.17527-0.4097,0.30546-0.65729,0.37195
		c-0.37846,0.10164-0.672,0.29663-0.85194,0.65111c-0.08913,0.1756-0.2386,0.2468-0.44242,0.24665
		c-4.19771-0.00319-8.39543-0.00233-12.59313-0.00228c-0.00005-0.0317-0.00012-0.06341-0.00017-0.09511
		c4.18588-0.00004,8.37175-0.00131,12.55761,0.00346c0.20979,0.00024,0.33171-0.07185,0.4256-0.25604
		c0.14166-0.27789,0.36805-0.49381,0.67319-0.56732c0.63474-0.15291,1.03998-0.57871,1.39745-1.07615
		c0.56885-0.79159,0.97255-1.66373,1.28099-2.58235c0.01916-0.05705,0.06017-0.11599,0.01305-0.17925
		C29.97202,6.91762,30.01509,6.93702,30.0497,6.97394z"/>
	<path fill="#9166A0" d="M30.20827,7.07137c-0.17775,0.5298-0.377,1.05054-0.63232,1.54961
		c-0.27402,0.53564-0.57503,1.0526-0.96735,1.514c-0.15445,0.18164-0.31888,0.34946-0.50341,0.50175
		c-0.1758,0.14509-0.37245,0.24071-0.58836,0.29997c-0.33179,0.09106-0.61331,0.25693-0.7533,0.57685
		c-0.12144,0.27753-0.34175,0.33828-0.60232,0.34106c-0.44662,0.00477-0.89334,0.00131-1.34001,0.00132
		c-3.74888,0.00008-7.49775,0.00016-11.24661,0.00024c-0.00006-0.03168-0.00014-0.06337-0.00019-0.09505
		c4.20219-0.00009,8.40437-0.00172,12.60653,0.00351c0.25624,0.00032,0.41971-0.08872,0.53143-0.31461
		c0.11852-0.23963,0.30406-0.4404,0.56486-0.50461c0.71685-0.17651,1.17315-0.66594,1.5679-1.23306
		c0.5496-0.78959,0.95567-1.65054,1.25824-2.5607c0.01326-0.03989,0.02967-0.07874,0.04463-0.11811
		C30.16809,7.04613,30.18818,7.05875,30.20827,7.07137z"/>
	<path fill="#2D4961" d="M3.07587,9.73294c0.23884-0.00417,0.4386,0.1907,0.43846,0.42773
		c-0.00013,0.2309-0.19048,0.42306-0.42306,0.42709c-0.23885,0.00414-0.4386-0.19069-0.43845-0.42763
		C2.65296,9.92922,2.84332,9.73701,3.07587,9.73294z"/>
	<path fill="#9469A4" d="M1.79033,2.41098c-0.01337,0.05639,0.03829,0.1388-0.06473,0.15933
		C1.65614,2.53335,1.58692,2.49559,1.5035,2.50644C1.59265,2.45549,1.68206,2.40532,1.79033,2.41098z"/>
	<path fill="#D2B4D4" d="M12.99663,10.97109c0.05254,0.00031,0.11393-0.01997,0.13363,0.05664
		C13.07665,11.02995,13.0139,11.05341,12.99663,10.97109z"/>
	<path fill="#9669A5" d="M2.0448,1.20569C1.95058,1.39177,1.87797,1.58477,1.84288,1.79141
		c-0.00985,0.05802-0.0188,0.13086-0.11217,0.11493c-0.07659,0.03241-0.0993-0.02247-0.10498-0.07527
		C1.60935,1.67891,1.5972,1.52395,1.63655,1.3748C1.6698,1.24879,1.76152,1.16614,1.89315,1.14239
		C1.95117,1.13193,2.02395,1.11543,2.0448,1.20569z"/>
	<path fill="#8D629B" d="M1.56894,1.93744C1.52749,1.93293,1.47248,1.93743,1.47475,1.87821
		c0.00887-0.23086-0.04668-0.47052,0.08461-0.68604c0.08006-0.13142,0.20294-0.18905,0.35453-0.1936
		c0.10995-0.0033,0.21987-0.00745,0.32986-0.0112C2.21227,1.01922,2.18074,1.05106,2.14921,1.0829
		C2.07328,1.12312,1.98906,1.12971,1.90626,1.14295C1.74217,1.16919,1.65809,1.25485,1.62942,1.4165
		C1.61014,1.52514,1.61321,1.63443,1.61146,1.74375C1.61038,1.81107,1.61731,1.8806,1.56749,1.93718L1.56894,1.93744z"/>
	<path fill="#9165A0" d="M1.56749,1.93718c0.00008-0.13612-0.0155-0.2744,0.00324-0.40793
		c0.05099-0.36326,0.11063-0.39538,0.46778-0.44797c0.03599-0.0053,0.07368,0.00079,0.11064,0.00161
		C2.11441,1.12383,2.07961,1.16477,2.04481,1.20569C1.8734,1.1463,1.69759,1.22611,1.67275,1.39683
		c-0.02158,0.14831-0.00724,0.3019-0.00666,0.45315c0.00015,0.03844,0.03233,0.04951,0.06458,0.05635
		C1.68261,1.94954,1.62297,1.93251,1.56749,1.93718z"/>
	<path fill="#7D6DAB" d="M17.14963,9.76424c0.02958,0.11137-0.02559,0.1312-0.12551,0.13102
		c-1.2791-0.00242-2.5582-0.00288-3.83729,0.00068c-0.10897,0.0003-0.13155-0.03778-0.13051-0.13654
		c0.00452-0.43193,0.00287-0.86393,0.00076-1.2959c-0.00027-0.0548,0.02364-0.11684-0.02909-0.16361
		c-0.24606-0.05595-0.49582-0.00698-0.74289-0.02665c-0.07866-0.00626-0.2257,0.03892-0.22184-0.03927
		c0.00564-0.11443,0.14651-0.04778,0.22481-0.0509c0.2495-0.00992,0.49984,0.00186,0.74949-0.00609
		c0.11838-0.00377,0.15657,0.03192,0.15459,0.15153c-0.00674,0.40626-0.0026,0.8127-0.00254,1.21908
		c0.00003,0.21648,0.00009,0.2166,0.21147,0.2166C14.65058,9.76424,15.9001,9.76423,17.14963,9.76424z"/>
	<path fill="#2D4961" d="M3.51424,3.05343c0.0042,0.23797-0.19124,0.43536-0.43092,0.43522
		C2.84993,3.4885,2.65701,3.30028,2.6529,3.06872C2.64868,2.8307,2.84408,2.63334,3.08385,2.63347
		C3.31713,2.63359,3.51015,2.82193,3.51424,3.05343z"/>
	<path fill="#2D4961" d="M27.82973,6.15142c0.23314-0.00014,0.42656,0.18817,0.43087,0.41952
		c0.00444,0.23811-0.19065,0.43555-0.43048,0.43566c-0.23972,0.00011-0.43508-0.19726-0.43085-0.43527
		C27.40339,6.33977,27.59632,6.15157,27.82973,6.15142z"/>
	<path fill="#806DAC" d="M18.12588,10.33227c0.13798-0.26972,0.1798-0.5563,0.17125-0.85683
		c-0.00959-0.3372-0.00104-0.67489-0.00338-1.01235c-0.00038-0.05491,0.02345-0.117-0.02933-0.16379
		c-0.24634-0.05513-0.49626-0.00629-0.74352-0.0261c-0.07842-0.00629-0.22518,0.04021-0.22099-0.04042
		c0.00581-0.11193,0.14755-0.04688,0.22653-0.04985c0.255-0.00958,0.51069,0.00054,0.76591-0.00554
		c0.10607-0.00253,0.1368,0.03538,0.13578,0.13745c-0.00438,0.44352,0.01401,0.88789-0.00807,1.33036
		C18.40739,9.89886,18.34676,10.15538,18.12588,10.33227z"/>
	<path fill="#7F6DAB" d="M16.63776,9.25681c-0.00228-0.46062-0.00196-0.92129-0.00874-1.38185
		c-0.00163-0.11024,0.05004-0.12237,0.13643-0.10435c0.0001,0.44036-0.00058,0.88073,0.00095,1.32109
		C16.76672,9.18296,16.76401,9.26562,16.63776,9.25681z"/>
	<path fill="#7F6DAB" d="M14.24632,9.25655c-0.00209-0.25265-0.0025-0.50533-0.00729-0.75794
		c-0.00144-0.07591,0.02342-0.10933,0.1017-0.09034c0.06423,0.2566,0.02101,0.51697,0.02462,0.77553
		C14.36624,9.24819,14.30269,9.25837,14.24632,9.25655z"/>
	<path fill="#7F6DAB" d="M15.42898,9.22628c-0.0023-0.24184-0.00314-0.4837-0.00776-0.72549
		c-0.00142-0.07401,0.02122-0.11112,0.10097-0.09255c0.06409,0.25721,0.02257,0.51814,0.02374,0.77725
		C15.54624,9.25642,15.48493,9.25888,15.42898,9.22628z"/>
	<path fill="#9B6DAB" d="M15.61382,4.84966c0.29372-0.36357,0.67708-0.5098,1.1294-0.40061
		c0.42582,0.1028,0.69656,0.38819,0.80265,0.81512c0.10789,0.43418-0.11738,0.94862-0.4935,1.13649
		C16.66876,6.5382,16.30471,6.50385,15.9606,6.2813c-0.4103-0.26535-0.58873-0.83776-0.39907-1.28437
		C15.5819,4.94895,15.61621,4.90566,15.61382,4.84966z"/>
	<path fill="#9B6DAB" d="M12.81028,4.88418c0.23697-0.34163,0.57318-0.50027,0.98015-0.46226
		c0.46946,0.04385,0.79848,0.30467,0.94271,0.75298c0.1292,0.4016,0.03789,0.76651-0.2641,1.0719
		c-0.08646,0.05652-0.17456,0.11041-0.26426,0.16203c-0.44749,0.15567-0.84696,0.07111-1.18277-0.2568
		c-0.27194-0.26554-0.44666-0.78967-0.22554-1.20842C12.8065,4.92465,12.81468,4.90606,12.81028,4.88418z"/>
	<path fill="#7E6DAC" d="M15.61382,4.84966c0.05889,0.04668,0.00372,0.08585-0.01135,0.12426
		c-0.28025,0.71438,0.23317,1.46143,1.00579,1.46304c0.11695,0.00024,0.23361,0.00428,0.34336-0.04587
		c0.03548-0.01621,0.07032-0.02636,0.10074,0.00958c-0.56689,0.41675-1.48647,0.04189-1.62955-0.6602
		C15.35611,5.41314,15.41961,5.11903,15.61382,4.84966z"/>
	<path fill="#7E6DAC" d="M12.81028,4.88418c0.0403,0.10428-0.03291,0.18959-0.05408,0.28179
		c-0.13863,0.60366,0.38037,1.26512,1.00369,1.27105C13.91421,6.43848,14.0672,6.4377,14.21153,6.373
		c0.03436-0.01948,0.06343-0.02759,0.06264,0.02865c-0.41372,0.27644-1.00657,0.20878-1.3566-0.15483
		C12.55297,5.86807,12.50805,5.29763,12.81028,4.88418z"/>
	<path fill="#9C6EAC" d="M14.65912,6.97444c0.27616-0.05512,0.55513-0.01206,0.83259-0.0227
		c0.06005-0.0023,0.06107,0.04609,0.0606,0.08938c-0.00113,0.10484-0.00294,0.20967-0.00447,0.31451
		c-0.0774,0.06616-0.17161,0.04348-0.26009,0.04639c-0.10097,0.00332-0.20216,0.00206-0.30322,0.00031
		c-0.22982-0.00398-0.26479-0.03607-0.26806-0.26814C14.71558,7.0706,14.68912,7.02375,14.65912,6.97444z"/>
	<path fill="#8271AE" d="M14.65912,6.97444c0.10411-0.00712,0.14007,0.02366,0.11092,0.13787
		c-0.05248,0.20564-0.01668,0.24258,0.19145,0.24294c0.19545,0.00033,0.39091,0.00027,0.58636,0.00038
		c0.01651,0.0804,0.00382,0.12826-0.09925,0.1256c-0.23257-0.006-0.46541-0.0018-0.69814-0.00196
		c-0.05353-0.00004-0.11737,0.00391-0.11466-0.07189C14.64097,7.26302,14.60404,7.11609,14.65912,6.97444z"/>
	<path fill="#8D72AE" d="M14.27417,6.40164c-0.01425-0.02383-0.03761-0.02805-0.06264-0.02865
		c0.08641-0.04092,0.15672-0.11419,0.25751-0.12619C14.42085,6.3192,14.35106,6.36483,14.27417,6.40164z"/>
	<path fill="#FEFEFE" d="M17.00464,5.70521c-0.1943,0.29511-0.40942,0.3982-0.66786,0.31798
		c-0.21492-0.06672-0.35858-0.20666-0.39528-0.4286c-0.03823-0.2312,0.03946-0.42415,0.24103-0.55915
		c0.02587-0.01732,0.05062-0.03629,0.07589-0.0545c0.21467-0.12987,0.46514-0.09053,0.65701,0.10321
		C17.0942,5.26465,17.12922,5.50847,17.00464,5.70521z"/>
	<path fill="#7F6DAC" d="M17.00464,5.70521c0.0742-0.38887-0.0563-0.64826-0.3713-0.74138
		c-0.12754-0.0377-0.25096-0.01017-0.37492,0.01709c-0.00287-0.01316-0.01261-0.034-0.00763-0.03839
		c0.1821-0.16065,0.53148-0.16472,0.70815-0.00979c0.22949,0.20125,0.27755,0.48806,0.12145,0.72089
		C17.06164,5.68157,17.03888,5.701,17.00464,5.70521z"/>
	<path fill="#FEFEFE" d="M14.20607,5.73824c-0.21681,0.29192-0.44902,0.37716-0.71904,0.2623
		c-0.20983-0.08926-0.3254-0.25107-0.33932-0.47402c-0.01305-0.20895,0.07155-0.37804,0.25226-0.49432
		c0.02637-0.01697,0.05195-0.03516,0.0779-0.05278c0.30801-0.1977,0.75505,0.03333,0.80408,0.41869
		C14.2972,5.51798,14.30442,5.64103,14.20607,5.73824z"/>
	<path fill="#7E6DAC" d="M14.20607,5.73824c0.15197-0.53091-0.18981-0.88708-0.72819-0.75883
		c0.06419-0.11927,0.24801-0.19289,0.44422-0.15634c0.20668,0.03851,0.35961,0.15722,0.42327,0.36272
		c0.05341,0.1724,0.04942,0.34353-0.06455,0.49622C14.26295,5.70595,14.23133,5.71976,14.20607,5.73824z"/>
</g>
</svg>
