<?xml version="1.0" encoding="utf-8"?>
<!-- Generator: Adobe Illustrator 23.0.0, SVG Export Plug-In . SVG Version: 6.00 Build 0)  -->
<svg version="1.1" id="Слой_1" xmlns="http://www.w3.org/2000/svg" xmlns:xlink="http://www.w3.org/1999/xlink" x="0px" y="0px" width="32px" height="13px"
	 viewBox="0 0 32 13" enable-background="new 0 0 32 13" xml:space="preserve">
<g>
	<path fill="#55718A" d="M0.00225,12.23626c0-2.21853,0-4.43706,0-6.65559c0.01796-0.01273,0.03751-0.01592,0.0587-0.00959
		c0.01719,0.01269,0.02963,0.02894,0.0376,0.04866c0.02848,0.09291,0.01857,0.18858,0.0186,0.28318
		c0.00063,1.96907,0.00068,3.93815-0.00001,5.90722c-0.00005,0.14318,0.00694,0.28455,0.04746,0.42321
		c0.08766,0.29992,0.29026,0.4835,0.58561,0.5732c0.14958,0.04543,0.30414,0.04441,0.45869,0.04441
		c5.20157-0.00031,10.40314-0.00042,15.60472,0.00076c0.10982,0.00002,0.22446-0.02309,0.3275,0.03955
		c0.02446,0.02752,0.02726,0.05547,0.00152,0.08389c-0.05814,0.01013-0.11681,0.00516-0.17521,0.00517
		c-5.37945,0.00025-10.75889,0.00026-16.13795,0.00026c-0.41395-0.00269-0.73975-0.27844-0.80967-0.68639
		C0.01632,12.27382,0.01794,12.25269,0.00225,12.23626z"/>
	<path fill="#224053" d="M27.59046,0.00265c0.32386,0.10065,0.64818,0.20024,0.93011,0.39753
		c0.09598,0.08981,0.21694,0.14656,0.31492,0.23302c0.04213,0.03717,0.10724,0.09228-0.02023,0.10374
		c-0.14833-0.0627-0.26842-0.17015-0.40653-0.24946c-0.42814-0.24584-0.8798-0.37452-1.38161-0.37416
		c-7.23145,0.00526-14.4629,0.00359-21.69435,0.00364c-0.11701,0-0.23431-0.00442-0.34988,0.01979
		C4.93533,0.14771,4.90621,0.12901,4.89473,0.08234c-0.00418-0.03031,0.00569-0.05643,0.02486-0.0797
		C12.47655,0.00265,20.0335,0.00265,27.59046,0.00265z"/>
	<path fill="#40586D" d="M17.14971,12.96473c-0.00078-0.02081-0.00155-0.04162-0.00233-0.06244
		c0.00674-0.00644,0.01348-0.01289,0.02015-0.01944c0.09111-0.04219,0.18836-0.02634,0.28307-0.02636
		c3.13256-0.00086,6.26513-0.00517,9.39768,0.0021c0.90301,0.0021,1.65092-0.32767,2.29342-0.94147
		c0.89009-0.85031,1.50346-1.8799,1.99246-2.99133c0.3029-0.68844,0.55177-1.39433,0.67312-2.13991
		c0.01756-0.10793-0.00974-0.22395,0.05476-0.3241c0.04656-0.03162,0.09141-0.02704,0.13486,0.00628c0,0.02113,0,0.04226,0,0.06339
		c-0.01669,0.01775-0.02211,0.04057-0.02861,0.06296c-0.03206,0.40668-0.13439,0.79955-0.25624,1.18591
		c-0.37039,1.17436-0.89765,2.27344-1.62598,3.27347c-0.17399,0.2389-0.36881,0.46122-0.55347,0.69205
		c-0.34115,0.35837-0.7181,0.67472-1.15445,0.91021c-0.37137,0.20042-0.77016,0.32469-1.20012,0.32465
		c-3.32413-0.00035-6.64826,0.00011-9.97239-0.00028C17.18511,12.98181,17.16647,12.97658,17.14971,12.96473z"/>
	<path fill="#3B556C" d="M4.91959,0.00265C4.9194,0.0236,4.91921,0.04454,4.91901,0.06549
		c-0.08219,0.06849-0.1816,0.04975-0.27546,0.04985C3.43681,0.11662,2.23007,0.11683,1.02332,0.11547
		C0.80403,0.11522,0.60156,0.15544,0.42999,0.3024C0.23077,0.47302,0.14783,0.69055,0.14818,0.94762
		c0.00105,0.78092,0.00046,1.56184,0.00036,2.34277C0.14844,3.96578,0.14898,4.64117,0.14797,5.31657
		C0.14784,5.40023,0.15886,5.48612,0.11751,5.56525C0.10465,5.58511,0.08711,5.59067,0.065,5.58204
		c-0.01024-0.00052-0.02048-0.0012-0.0307-0.00203C0.00469,5.52527,0.01947,5.46609,0.01944,5.40921
		C0.01852,3.86955,0.01868,2.32989,0.01868,0.7906c0.00296-0.40397,0.23859-0.68793,0.65411-0.78795
		C2.08839,0.00265,3.50399,0.00265,4.91959,0.00265z"/>
	<path fill="#264356" d="M31.99691,6.46808c-0.04213,0.00037-0.08426,0.00074-0.12639,0.00111
		c-0.04101,0.02632-0.07783,0.03098-0.10398-0.0197c0.0946-0.13424,0.06846-0.28203,0.04318-0.42707
		c-0.11863-0.68057-0.3442-1.32775-0.62241-1.95879c-0.32323-0.73315-0.71682-1.4271-1.1876-2.07594
		c-0.29251-0.40316-0.61979-0.77837-1.00661-1.09825c-0.05239-0.04333-0.11103-0.08405-0.12534-0.15815
		c-0.02511-0.11014-0.13667-0.13154-0.20482-0.19748c-0.0468-0.04528-0.1297-0.05282-0.14237-0.13363
		c0.48604,0.27853,0.88571,0.65841,1.23725,1.08412c1.04977,1.27127,1.76887,2.70872,2.15862,4.30761
		c0.02662,0.10919,0.01725,0.22728,0.08046,0.32753C31.99691,6.23566,31.99691,6.35187,31.99691,6.46808z"/>
	<path fill="#697682" d="M17.14971,12.96473c0.01015,0.00041,0.02031,0.0008,0.03047,0.00115
		c0.00887,0.00666,0.01194,0.01347,0.00924,0.02044c-0.00273,0.00704-0.00552,0.01056-0.0084,0.01056
		c-5.47081,0-10.94162,0-16.41243,0c-0.00746-0.0057-0.01058-0.01202-0.00936-0.01895
		c0.00127-0.00724,0.00297-0.01085,0.00509-0.01085c0.36162-0.00063,0.72324-0.00179,1.08487-0.00181
		C6.94936,12.96501,12.04954,12.96489,17.14971,12.96473z"/>
	<path fill="#535F69" d="M17.18102,12.99689c-0.00003-0.01035-0.00031-0.02069-0.00083-0.03101
		c3.2775-0.00022,6.55502-0.00246,9.83252,0.00137c0.52312,0.00061,1.00592-0.12008,1.45299-0.38788
		c0.40208-0.24085,0.76403-0.52929,1.07253-0.88202c0.01667-0.01328,0.03168-0.01163,0.04502,0.00495
		c-0.56603,0.62973-1.21441,1.12673-2.08086,1.27287c-0.01405,0.00237-0.02647,0.01427-0.03965,0.02172
		C24.0355,12.99689,20.60826,12.99689,17.18102,12.99689z"/>
	<path fill="#445B6E" d="M29.58325,11.7023c-0.01501-0.00165-0.03001-0.0033-0.04502-0.00495
		c0.58495-0.67699,1.07791-1.41443,1.46782-2.21809c0.38671-0.79707,0.705-1.61876,0.88559-2.48857
		c0.02944-0.14181,0.01912-0.2901,0.07314-0.42758c0.02255,0.01523,0.01037,0.0478,0.03214,0.06343c0,0.05282,0,0.10564,0,0.15847
		c-0.09524,0.24971-0.11541,0.51743-0.19083,0.77246c-0.42271,1.42939-1.06171,2.74858-2.00945,3.91168
		C29.73021,11.55065,29.65459,11.62476,29.58325,11.7023z"/>
	<path fill="#40596F" d="M0.00225,0.73159c0.01041,0.00062,0.02033-0.00127,0.02977-0.00567
		C0.03278,2.34396,0.03354,3.96199,0.0343,5.58002C0.02361,5.58023,0.01293,5.58045,0.00225,5.58067
		C0.00225,3.96431,0.00225,2.34795,0.00225,0.73159z"/>
	<path fill="#767F87" d="M31.99691,6.62654c-0.02834-0.01234-0.03056-0.03772-0.03214-0.06342
		c0.01071-0.01055,0.02143-0.0211,0.03214-0.03166C31.99691,6.56316,31.99691,6.59485,31.99691,6.62654z"/>
	<path fill="#44637F" d="M0.065,5.58204c0.01108-0.00053,0.02217-0.00106,0.03325-0.00158
		c0.20078-0.00713,0.37317,0.14605,0.41981,0.37439c0.01918,0.09388,0.01422,0.18933,0.01423,0.28428
		c0.00023,1.83743,0.00013,3.67487,0.00024,5.5123c0,0.0739-0.00312,0.14799,0.0047,0.22161
		c0.02509,0.23633,0.21905,0.43165,0.45697,0.4597c0.09,0.01061,0.18068,0.00607,0.27107,0.00607
		c5.06421,0.00015,10.12843,0.0001,15.19265,0.00034c0.10625,0.00001,0.2132-0.00696,0.31823,0.01487
		c0.24135,0.05016,0.40569,0.2473,0.37457,0.44729c0,0-0.00328,0.00098-0.0033,0.00098
		C11.78515,12.9021,6.42292,12.9018,1.06068,12.90197c-0.3438,0.00001-0.63502-0.11457-0.8338-0.39993
		c-0.11955-0.17161-0.16114-0.37379-0.16111-0.58389C0.06608,9.80612,0.0654,7.69408,0.065,5.58204z"/>
	<path fill="#2D4961" d="M17.15071,12.90131c-0.09489-0.31029-0.23031-0.41146-0.55219-0.41147
		c-5.16477-0.00008-10.32954-0.00299-15.49429,0.00654c-0.33505,0.00062-0.63228-0.29437-0.62989-0.62139
		c0.01396-1.91106,0.00686-3.82227,0.00683-5.73344c-0.00001-0.32156-0.07917-0.43742-0.38294-0.5611
		C0.09817,4.02238,0.09779,2.4643,0.09819,0.90622c0.00012-0.47818,0.36436-0.83981,0.8459-0.84005
		c1.32498-0.00066,2.64996-0.0005,3.97493-0.00068c0.00131,0.02604,0.00665,0.05009,0.03223,0.06412
		c0.04718,0.01833,0.07453,0.0584,0.10457,0.09509c0.09342,0.11413,0.21542,0.16802,0.36191,0.17205
		C5.49755,0.39895,5.57737,0.3983,5.65719,0.3983c7.02476,0.00005,14.04954,0.00482,21.07427-0.00904
		c0.55959-0.0011,1.03779,0.15816,1.51309,0.41069c0.69687,0.37025,1.19595,0.9361,1.64209,1.56422
		c0.43947,0.61874,0.72292,1.31471,1.03162,1.9985c0.20493,0.45392,0.37786,0.92019,0.48082,1.40819
		c0.05556,0.26332,0.19675,0.47313,0.37416,0.66587c0.02349,0.03718,0.06204,0.02988,0.09727,0.03244
		c0.01047,0.39972-0.09508,0.78104-0.2064,1.15764c-0.26049,0.88128-0.62954,1.71888-1.08922,2.51546
		c-0.26581,0.46062-0.56644,0.89803-0.91937,1.30019c-0.27618,0.3147-0.56461,0.61547-0.90505,0.86036
		c-0.44413,0.31948-0.92633,0.53758-1.48892,0.57472c-0.26537,0.01752-0.52958,0.02252-0.79411,0.0227
		C23.36187,12.90233,20.25629,12.90143,17.15071,12.90131z"/>
	<path fill="#123247" d="M31.77324,6.43674c-0.26312-0.1191-0.35271-0.36259-0.40735-0.60972
		c-0.16984-0.76821-0.50239-1.47338-0.82302-2.18464c-0.25038-0.55542-0.56479-1.06906-0.92452-1.56276
		c-0.57652-0.79122-1.34566-1.29998-2.2594-1.61679c-0.06256-0.02169-0.13627-0.01587-0.2048-0.01588
		C19.9227,0.44633,12.69125,0.44611,5.4598,0.44748C5.21793,0.44753,5.03774,0.36653,4.95125,0.12961
		c0.00577-0.04409,0.03165-0.06375,0.07578-0.06324C5.07492,0.06693,5.12281,0.06602,5.1707,0.06602
		c7.31127-0.00002,14.62255,0.0016,21.93382-0.00302c0.60312-0.00038,1.11278,0.22552,1.59488,0.54996
		c0.05691,0.0383,0.11229,0.07884,0.16838,0.11834c0.65288,0.51284,1.15169,1.15698,1.58487,1.85349
		c0.47792,0.76845,0.86948,1.57963,1.14829,2.44023c0.13395,0.41346,0.26266,0.83117,0.26823,1.27268
		C31.87001,6.36564,31.88414,6.44409,31.77324,6.43674z"/>
	<path fill="#3B556B" d="M27.81405,11.9194c-0.18305,0.16484-0.41986,0.15144-0.64095,0.18915
		c-0.03618,0.00617-0.07434,0.0009-0.11159,0.0009c-8.62529,0-17.25058,0-25.87586,0c-0.29592,0-0.32124-0.02461-0.32124-0.31256
		C0.8644,8.23723,0.86439,4.67757,0.86442,1.11792c0-0.25607,0.03558-0.2912,0.29485-0.29121
		C9.80584,0.8267,18.45241,0.82635,27.09898,0.82833c0.27732,0.00006,0.54353,0.06247,0.77901,0.22011
		c-0.06152,0.04942-0.12169,0.01768-0.1801-0.00539c-0.21048-0.08313-0.42745-0.11034-0.65455-0.11027
		C18.46322,0.93532,9.8831,0.93492,1.30298,0.93494c-0.32944,0-0.32951,0.00008-0.32953,0.32743
		C0.97338,2.92022,0.97349,4.57808,0.97353,6.23593c0,0.07327-0.01147,0.14905,0.03955,0.21325
		c0.02937,0.05882,0.03019,0.12243,0.03024,0.18574C1.0441,7.57916,1.04446,8.52339,1.04317,9.46763
		C1.0431,9.52039,1.04086,9.57314,1.0306,9.62513c-0.04977,0.19073-0.01649,0.38516-0.02527,0.5777
		c-0.00547,0.11997,0.00845,0.24061-0.01201,0.36021c-0.04116,0.2149-0.01405,0.43182-0.01879,0.64769
		c-0.00463,0.21117,0.00088,0.42257-0.00158,0.63381c-0.00126,0.1084,0.05048,0.15408,0.15357,0.15579
		c0.04789,0.00079,0.09578,0.00087,0.14368,0.00087c8.62639,0.00003,17.25277-0.00017,25.87916,0.00142
		c0.17292,0.00003,0.33847-0.0218,0.4993-0.08376C27.70306,11.89791,27.75912,11.87388,27.81405,11.9194z"/>
	<path fill="#3C566C" d="M27.81405,11.9194c-0.51116,0.20747-1.04791,0.12318-1.57399,0.12347
		c-8.35214,0.00459-16.70428,0.00323-25.05642,0.00322c-0.25535,0-0.25538-0.00004-0.2554-0.24801
		c-0.00003-0.35906-0.00092-0.71812,0.00095-1.07717c0.00029-0.05548-0.02126-0.1175,0.0308-0.1644
		c0.07168,0.08171,0.02931,0.19169,0.07125,0.28094c0.02667,0.28979,0.00809,0.58017,0.01241,0.87024
		c0.0037,0.24848,0.00696,0.25481,0.26172,0.25485c3.1373,0.00039,6.27459,0.00021,9.41189,0.00023
		c0.88801,0,1.77603,0.00007,2.66404-0.00008c0.06381-0.00001,0.12762-0.00107,0.19124,0.00536
		c2.85007,0.00362,5.70013,0.00136,8.55018,0.00104c1.51538-0.00017,3.03077,0.00546,4.54572-0.00415
		c0.29671,0.01037,0.59306,0.03027,0.88496-0.05962c0.35968-0.11076,0.65568-0.321,0.92914-0.56684
		c0.48891-0.43953,0.87762-0.9594,1.21325-1.51964c0.52179-0.87098,0.92126-1.79327,1.17194-2.77728
		c0.03786-0.14864,0.06084-0.29972,0.08267-0.45143c0.02916-0.22409-0.00821-0.44217-0.05826-0.65885
		c-0.12169-0.52683-0.30175-1.03424-0.52178-1.52791c-0.37644-0.8446-0.84032-1.63717-1.44688-2.34074
		c-0.31274-0.36276-0.66216-0.68484-1.10368-0.89605c-0.23027-0.11015-0.46678-0.16577-0.72267-0.16572
		c-7.5117,0.00156-15.02339,0.0012-22.53509,0.00136c-0.06386,0-0.1277,0.00049-0.19157-0.0024
		C4.04547,1.00094,3.72036,1.01677,3.39566,0.99046C3.21893,0.94331,3.03844,0.96761,2.85998,0.96823
		C2.64432,0.96898,2.42745,0.94498,2.21289,0.98656C2.12468,1.00301,2.03559,1.00287,1.94636,1.00032
		C1.8089,0.99158,1.67134,1.00386,1.5339,0.9994c-0.11106,0.0048-0.22238,0.00634-0.33333,0.0025
		C1.08431,0.99787,1.04031,1.04982,1.04104,1.1621c0.00176,0.2732,0.00147,0.54643,0,0.81965
		c-0.00031,0.0578-0.00158,0.11563-0.01356,0.17265c-0.03625,0.32325-0.03893,0.64627,0.0031,0.96923
		c0.01347,0.06765,0.01325,0.13613,0.01329,0.2045c0.00045,0.95225,0.00094,1.9045-0.00092,2.85675
		C1.04278,6.27146,1.06367,6.36639,0.98467,6.4365C0.96503,6.44453,0.93647,6.45428,0.93163,6.42932
		c-0.00793-0.0408-0.00334-0.08407-0.00334-0.1263c-0.00007-1.73227-0.0001-3.46454-0.00001-5.19681
		c0.00001-0.2159,0.00032-0.21613,0.2237-0.21613c8.68369-0.00004,17.36737,0.00019,26.05106-0.00151
		c0.18596-0.00004,0.3541,0.05797,0.52351,0.11833c0.04979,0.01774,0.09529,0.04764,0.15144,0.04155
		c0.2265,0.07508,0.40225,0.23035,0.58217,0.37474c0.61598,0.49434,1.04236,1.13886,1.44635,1.80314
		c0.38788,0.63778,0.68971,1.31316,0.92676,2.0172c0.12388,0.36792,0.24591,0.74228,0.25808,1.13266
		c0.00726,0.23299-0.04317,0.46833-0.10167,0.69765c-0.1842,0.722-0.45702,1.41256-0.78338,2.08028
		c-0.16282,0.33314-0.33558,0.66619-0.57204,0.95875c-0.03704,0.09459-0.10953,0.16715-0.15989,0.25346
		c-0.01064,0.01058-0.02129,0.02115-0.03193,0.03173c-0.04251,0.06345-0.07894,0.13091-0.12772,0.1902l0.00008-0.00003
		c-0.28934,0.38288-0.62215,0.7249-0.99305,1.02989c-0.09694,0.07971-0.20723,0.14275-0.31619,0.20614
		c-0.02121,0.0106-0.04242,0.02121-0.06363,0.03181c-0.03605,0.03424-0.08711,0.03863-0.12794,0.06338L27.81405,11.9194z"/>
	<path fill="#3B556B" d="M28.00556,11.82424c0.33332-0.23922,0.64182-0.50602,0.92367-0.804
		c0.13285-0.14045,0.22966-0.31223,0.38557-0.43203c-0.03478,0.15409-0.16523,0.24128-0.25995,0.34989
		c-0.28426,0.32599-0.59215,0.62915-0.95792,0.86737C28.07275,11.82123,28.0363,11.81842,28.00556,11.82424z"/>
	<path fill="#3B556B" d="M29.47438,10.36631c0.01202-0.11014,0.09805-0.17428,0.15988-0.25346
		C29.62518,10.22481,29.56455,10.30474,29.47438,10.36631z"/>
	<path fill="#3B556B" d="M29.31472,10.58824c0.0204-0.07807,0.06012-0.14336,0.12772-0.1902
		C29.42952,10.48106,29.39129,10.54733,29.31472,10.58824z"/>
	<path fill="#3B556B" d="M27.814,11.91943c0.03246-0.04138,0.07712-0.05849,0.12793-0.06338
		C27.91752,11.91344,27.86876,11.9224,27.814,11.91943z"/>
	<path fill="#8AABB6" d="M13.5708,12.01132c-0.05846,0.00115-0.11693,0.00329-0.17539,0.00329
		c-4.06326,0.00016-8.12652,0.00015-12.18978,0.00013c-0.21466,0-0.21412-0.00007-0.21489-0.20994
		c-0.00122-0.33249-0.00326-0.66498-0.00495-0.99747c-0.01589-0.38893-0.01388-0.77788-0.00097-1.16683
		C0.9848,8.57251,0.98476,7.5045,0.9847,6.4365c0.00021-1.11027,0.00045-2.22054,0.00069-3.3308
		C1.00184,2.90729,0.97797,2.7076,1.00438,2.50945c0.09234-0.11887,0.22434-0.06915,0.34219-0.07961
		C1.38113,2.43177,1.41602,2.43068,1.45053,2.4345c0.02432,0.00156,0.04825,0.00609,0.07169,0.0127
		C1.55907,2.45865,1.5957,2.47122,1.63191,2.48513c0.04351,0.0192,0.08399,0.0433,0.1209,0.07349
		C1.78587,2.58639,1.81788,2.6151,1.84784,2.64631C1.9789,2.77691,1.99919,2.94133,1.99902,3.11467
		c-0.00099,1.03973-0.00061,2.07947-0.00049,3.1192C1.99862,6.9411,1.99743,7.64834,1.99908,8.35556
		C1.99996,8.73178,2.13927,9.03332,2.48325,9.2215C2.64665,9.31088,2.8246,9.33498,3.00716,9.33534
		c0.56896,0.00113,1.13793-0.00153,1.70688,0.00113c0.39003,0.00182,0.62828,0.1886,0.72495,0.56073
		c0.12553,0.48326,0.44568,0.73374,0.95914,0.7367c0.76568,0.00442,1.5314,0.00094,2.29711,0.00144
		c0.07967,0.00005,0.15957-0.00394,0.23862,0.00796c0.0984,0.01715,0.14519,0.10076,0.20605,0.1639
		c0.14571,0.15115,0.31719,0.24282,0.531,0.24698c0.24946,0.0086,0.44368-0.09519,0.59423-0.28771
		c0.0287-0.0367,0.05256-0.07814,0.09983-0.096c0.04217-0.0087,0.0834-0.02131,0.12628-0.02767
		c0.82773-0.01665,1.6554-0.01273,2.48285-0.00283c0.35806,0.00428,0.62332,0.28263,0.64495,0.639
		c0.00606,0.0998,0.00542,0.2-0.00023,0.29986c-0.00089,0.05453,0.00181,0.10927-0.00227,0.16379
		c-0.00054,0.03448,0.00089,0.06909-0.00145,0.10357c-0.00046,0.03371-0.0006,0.06752-0.00686,0.10091
		C13.60286,11.97254,13.5894,11.99342,13.5708,12.01132z"/>
	<path fill="#424F5A" d="M0.98483,9.64051c0.00033,0.38895,0.00067,0.7779,0.00098,1.16684
		C0.93367,10.72814,0.97216,10.63976,0.96,10.55651c0.00007-0.25537-0.0007-0.51075,0.00093-0.76611
		C0.96125,9.73993,0.94487,9.68533,0.98483,9.64051z"/>
	<path fill="#5E898C" d="M4.3764,0.9549c0.07445-0.00075,0.14891-0.00216,0.22337-0.00216
		c7.46831-0.0001,14.93663,0.00248,22.40494-0.00551c0.53447-0.00057,0.96786,0.1936,1.36559,0.51165
		c0.66493,0.53173,1.13573,1.22076,1.55062,1.94621c0.46253,0.80875,0.83199,1.65924,1.03132,2.57378
		c0.0466,0.2138,0.09899,0.43015,0.02375,0.6496c-0.05407-0.06236-0.12028-0.09352-0.20523-0.0863
		c-0.08903,0.00757-0.17537-0.01582-0.26246-0.02943c-0.02415-0.00085-0.04827-0.00166-0.07241-0.00197
		c-0.03237-0.0003-0.0647-0.00108-0.09704-0.00198c-0.03245-0.00003-0.06467-0.00263-0.09662-0.00819
		c-0.04671-0.00995-0.09322-0.02127-0.14142-0.0228c-0.25831-0.03529-0.51226-0.09024-0.76211-0.16427
		c-0.38547-0.11422-0.71315-0.32049-0.99341-0.60558c-0.36124-0.36746-0.75187-0.69787-1.20736-0.94846
		c-0.36164-0.19897-0.75426-0.31088-1.1488-0.41809c-0.53816-0.14624-1.07968-0.2789-1.633-0.35623
		c-0.0967-0.01351-0.19821-0.05566-0.29366,0.01003C23.9851,4.01779,23.9779,3.9559,23.9663,3.90988
		c-0.01758-0.06975-0.04145-0.13614-0.07641-0.19885c-0.21841-0.53316-0.43505-1.06707-0.65097-1.60122
		c-0.11346-0.28069-0.30053-0.4656-0.59168-0.55252c-0.21322-0.06365-0.57887,0.08253-0.67092,0.27436
		c-0.02176,0.0458-0.06462,0.0696-0.10475,0.09402c-0.16677,0.10151-0.26206,0.25593-0.33292,0.43044
		c-0.15269,0.37599-0.30154,0.75347-0.4505,1.13092c-0.02804,0.07104-0.0425,0.15623-0.13336,0.18487
		c-0.17133-0.00672-0.22057-0.14973-0.28635-0.26448c-0.12879-0.22467-0.31444-0.36947-0.56688-0.42461
		c-0.13456-0.02939-0.27161-0.05022-0.4106-0.05025c-0.69619-0.00016-1.39238,0.00024-2.08857-0.00036
		c-0.0868-0.00007-0.17384-0.00498-0.21087,0.0982c-0.08392,0.0452-0.09322-0.02977-0.11023-0.07463
		c-0.02168-0.05718-0.02644-0.12046-0.05808-0.17476c-0.08895-0.23719-0.20058-0.46549-0.28902-0.70295
		c-0.10469-0.28108-0.31281-0.44371-0.59408-0.52645c-0.20422-0.06007-0.56644,0.09505-0.65421,0.27989
		c-0.11552,0.12833-0.28664,0.19858-0.36584,0.36713c-0.08108,0.17254-0.14367,0.35209-0.22132,0.52559
		c-0.03342,0.07466-0.04486,0.16759-0.14343,0.19682c-0.1217,0.02039-0.2443,0.01061-0.36641,0.01078
		c-0.7288,0.00099-1.45761-0.00136-2.1864,0.00132c-0.33577,0.00124-0.60971-0.11656-0.82022-0.3803
		c-0.07246-0.09078-0.14376-0.18354-0.22802-0.26466c-0.10493-0.10101-0.22178-0.18136-0.37054-0.20396
		c-0.16928-0.02572-0.19236-0.0064-0.19567,0.16209c-0.04899,0.08679-0.07803,0.02317-0.10362-0.01669
		c-0.05338-0.08315-0.05498-0.18809-0.11177-0.27029c-0.09687-0.24801-0.31347-0.34491-0.54554-0.41333
		C9.8302,1.48796,9.47498,1.6564,9.39458,1.8338C9.28641,1.93514,9.17641,2.03355,9.0266,2.07201
		C8.51635,2.08875,8.0062,2.0775,7.49612,2.07906c-0.72275,0.00221-1.4455,0.00097-2.16826,0.00042
		C4.78993,2.07907,4.51613,1.89382,4.31732,1.39829C4.30679,1.36233,4.30248,1.32544,4.3027,1.28811
		c-0.0007-0.03479-0.0019-0.06975,0.00031-0.10459c0.00042-0.03336,0.00247-0.06669,0.00886-0.09958
		C4.32162,1.03522,4.34025,0.99071,4.3764,0.9549z"/>
	<path fill="#628B8E" d="M30.49616,6.46812c0.11805,0.02584,0.23746,0.04257,0.35817,0.03079
		c0.10239-0.00999,0.1305,0.04067,0.12165,0.12955c-0.00442,0.26093-0.08261,0.50783-0.15705,0.7534
		c-0.36223,1.1949-0.89685,2.30659-1.66569,3.29812c-0.35094,0.45259-0.75397,0.85656-1.26488,1.13721
		c-0.36309,0.19945-0.75861,0.21699-1.1602,0.19503c-0.0109-0.01224-0.02288-0.03068-0.01573-0.04227
		c0.17192-0.27847,0.26195-0.6187,0.59572-0.77546c0.12086-0.05677,0.24789-0.09589,0.37479-0.13413
		c0.25075-0.07557,0.45781-0.21816,0.64788-0.39184c0.46277-0.42287,0.81473-0.92635,1.12939-1.46435
		c0.40064-0.68501,0.68463-1.4158,0.93404-2.16317C30.45636,6.85486,30.48177,6.66251,30.49616,6.46812z"/>
	<path fill="#649093" d="M30.49616,6.46812c0.08324,0.18779-0.00025,0.36535-0.05124,0.53638
		c-0.19153,0.64235-0.43252,1.26884-0.74727,1.86069c-0.36444,0.68529-0.77393,1.34429-1.37083,1.86488
		c-0.20638,0.17999-0.43233,0.32331-0.70021,0.39103c-0.35008,0.0885-0.61505,0.26847-0.73491,0.62539
		c-0.03284,0.0978-0.14131,0.15706-0.16354,0.26577c-0.71766,0.00082-1.43533,0.00234-2.15299,0.00238
		c-3.59904,0.00025-7.19808,0.00013-10.79712-0.00002c-0.06907,0-0.13815-0.00212-0.20723-0.00326
		c0.00127-0.02005,0.00255-0.04007,0.00383-0.0601c0.07776-0.06538,0.17186-0.04574,0.26041-0.04578
		c2.13881-0.00098,4.27762-0.00075,6.41642-0.00076c1.87811,0,3.75622-0.00001,5.63432,0.00003
		c0.11703,0,0.234,0.0034,0.35099,0.00603c0.23831,0.00535,0.44131-0.06269,0.55532-0.29224
		c0.1541-0.31027,0.38881-0.51573,0.73366-0.60657c0.41024-0.10806,0.71837-0.37445,0.99741-0.6802
		c0.56312-0.61704,0.97397-1.32602,1.31171-2.08383c0.17878-0.40115,0.30991-0.81859,0.46979-1.22592
		c0.07007-0.17853,0.0614-0.37459,0.12761-0.55378C30.45358,6.46818,30.47487,6.46815,30.49616,6.46812z"/>
	<path fill="#628B8F" d="M1.37497,2.47266C1.2593,2.48822,1.13757,2.44531,1.0268,2.50817
		C0.95964,2.39561,1.00532,2.27286,0.99447,2.15522C0.99341,1.79915,0.99523,1.44304,0.98946,1.08704
		C0.98782,0.98608,1.01795,0.945,1.12368,0.95093C1.26044,0.95861,1.3979,0.95395,1.53506,0.9546
		C1.5689,1.00366,1.54267,1.04738,1.51628,1.08512C1.4332,1.20393,1.421,1.33729,1.42187,1.47582
		c0.00168,0.26773,0.00095,0.53548,0.00019,0.80322C1.42186,2.34701,1.42681,2.4168,1.37497,2.47266z"/>
	<path fill="#679397" d="M4.3764,0.9549c0.00543,0.04577-0.01032,0.08628-0.03168,0.12538
		C4.27786,1.13915,4.19562,1.12685,4.117,1.12694C3.42707,1.12768,2.73713,1.1269,2.0472,1.12754
		c-0.31805,0.0003-0.43188,0.11279-0.43273,0.42597C1.6138,1.80109,1.61742,2.04873,1.61224,2.29622
		C1.61086,2.36207,1.63979,2.45077,1.53393,2.47581c-0.02099-0.00067-0.04199-0.00133-0.06298-0.002
		C1.42821,2.42714,1.42468,2.36929,1.42458,2.31084c-0.0005-0.28429-0.00161-0.56858,0.00061-0.85286
		c0.0005-0.06351,0.01159-0.12582,0.02654-0.18732c0.04409-0.18142,0.14072-0.26281,0.32702-0.28845
		c0.05683-0.00782,0.11678-0.00125,0.17078-0.02743C2.03572,0.95284,2.1219,0.95091,2.20809,0.94898
		c0.39192-0.01818,0.78385-0.01726,1.17579-0.0006C3.71472,0.95055,4.04556,0.95273,4.3764,0.9549z"/>
	<path fill="#659093" d="M1.94953,0.95477C1.8618,1.02198,1.74201,0.98846,1.65237,1.0461
		c-0.15158,0.09748-0.17796,0.25394-0.18,0.41404C1.46808,1.79799,1.471,2.13593,1.47095,2.47382
		C1.43896,2.47344,1.40697,2.47307,1.37497,2.47268c0.00009-0.30996,0.01012-0.62032-0.00309-0.92971
		C1.36257,1.32474,1.40574,1.13031,1.53506,0.95459C1.67321,0.95466,1.81137,0.95472,1.94953,0.95477z"/>
	<path fill="#424F5A" d="M0.99447,2.15522c0.06507,0.11275,0.01111,0.23623,0.03232,0.35295
		C1.00571,2.70686,1.06154,2.91079,0.98541,3.10571C0.94932,2.7885,0.93184,2.47148,0.99447,2.15522z"/>
	<path fill="#424F5A" d="M3.38389,0.94838C2.99194,0.9486,2.59999,0.94882,2.20806,0.94901
		c0.06046-0.05055,0.13238-0.02518,0.19861-0.02593c0.2753-0.00309,0.55066-0.00216,0.82598-0.00053
		C3.28367,0.92286,3.33957,0.90541,3.38389,0.94838z"/>
	<path fill="#72A2A6" d="M24.04614,3.9957c-0.00466-0.0781,0.03025-0.09894,0.10738-0.08799
		c0.61302,0.08704,1.21613,0.22107,1.81327,0.38088c0.54381,0.14554,1.07966,0.31334,1.54303,0.64909
		c0.26561,0.19246,0.53331,0.3855,0.75116,0.63054c0.43675,0.49126,0.99658,0.7337,1.6324,0.8356
		c0.07293,0.01169,0.14603,0.0223,0.21905,0.03341c0.03099,0.0627,0.00703,0.12432-0.00463,0.18577
		c-0.10325,0.54403-0.31318,1.05274-0.53972,1.55363c-0.29477,0.65174-0.64034,1.27544-1.10246,1.82916
		c-0.30419,0.36448-0.65022,0.66393-1.12795,0.78724c-0.33072,0.08536-0.57278,0.29401-0.73474,0.5916
		c-0.10116,0.18586-0.25044,0.26708-0.46673,0.26694c-4.11667-0.00269-8.23335-0.00193-12.35002-0.00252
		c-0.07373-0.00001-0.15037,0.00775-0.21261-0.04646c-0.01259-0.16694,0.02593-0.33674-0.03426-0.50119
		c-0.09342-0.25523-0.31934-0.41747-0.59462-0.41779c-0.83372-0.00096-1.66745-0.00045-2.50117-0.00051
		c-0.00586-0.01505-0.0109-0.03268-0.00174-0.04553c0.29306-0.41123,0.41743-0.89781,0.60722-1.35422
		c0.37107-0.89237,0.71656-1.79528,1.09272-2.68551c0.1217-0.28802,0.12218-0.5401,0.0002-0.83106
		c-0.46348-1.1056-0.90274-2.22117-1.35107-3.33301c-0.01917-0.04755-0.05392-0.09336-0.02768-0.14965
		c-0.00021-0.01055,0.00138-0.02149-0.00089-0.03158c-0.05368-0.23903-0.05336-0.24327,0.20033-0.22007
		c0.23442,0.02144,0.38874,0.17208,0.53286,0.33992c0.10547,0.12282,0.18826,0.26565,0.33312,0.35489
		c0.16642,0.10252,0.33994,0.16157,0.53885,0.16095c0.87177-0.00273,1.74356,0,2.61534,0.00075
		c0.03797,0.06528,0.00098,0.12327-0.02138,0.18037c-0.38109,0.97338-0.76669,1.94509-1.17425,2.90782
		c-0.12724,0.30056-0.13412,0.57931-0.00864,0.88427c0.50426,1.22557,0.99188,2.45787,1.49095,3.68556
		c0.12336,0.30347,0.34893,0.48395,0.68728,0.50646c0.26375,0.01008,0.46448-0.10512,0.62059-0.3082
		c0.02234-0.02906,0.0418-0.06021,0.07499-0.07895c0.13047-0.07555,0.20963-0.19368,0.264-0.32765
		c0.52633-1.29678,1.04534-2.59648,1.57195-3.89315c0.07638-0.18807,0.0715-0.35682-0.00652-0.5463
		c-0.36194-0.87901-0.71385-1.7621-1.06808-2.64424c-0.02668-0.06645-0.0742-0.13117-0.04102-0.21008
		c-0.04157-0.13091,0.00473-0.16306,0.14151-0.16168c0.73898,0.00743,1.47816-0.00283,2.21709,0.00647
		c0.3215,0.00405,0.63214,0.0619,0.86357,0.32399c0.0824,0.09331,0.11595,0.2126,0.19345,0.30705
		c0.05035,0.06136,0.08959,0.13408,0.18637,0.12552c0.04376,0.07815-0.0074,0.14318-0.03382,0.20867
		c-0.29661,0.73541-0.5846,1.4743-0.89386,2.20461c-0.1047,0.24726-0.10355,0.48726-0.00244,0.73671
		c0.50645,1.24937,1.00834,2.50056,1.5149,3.74988c0.12326,0.30399,0.34893,0.4849,0.68782,0.50737
		c0.26363,0.01002,0.46428-0.10513,0.62036-0.30809c0.02233-0.02904,0.04174-0.06022,0.07492-0.07895
		c0.13062-0.07553,0.20977-0.19375,0.26423-0.3278c0.52711-1.29748,1.04523-2.59854,1.57345-3.89558
		c0.07678-0.18853,0.06976-0.35845-0.009-0.5471c-0.23618-0.56566-0.46328-1.13514-0.69-1.70469
		C24.05653,4.12928,24.01402,4.06853,24.04614,3.9957z"/>
	<path fill="#72A2A6" d="M4.34451,1.36551c0.11259,0.24013,0.22785,0.47481,0.50054,0.5835
		c0.12497,0.04981,0.2486,0.08274,0.38344,0.08262c1.21488-0.00106,2.42976-0.0007,3.64464-0.0004
		c0.0689,0.00002,0.1378,0.00313,0.20671,0.0048c0.01639,0.03174,0.00591,0.06132-0.00719,0.09083
		C8.55991,3.28179,8.12999,4.46992,7.64487,5.63592C7.58193,5.78718,7.51713,5.93765,7.45484,6.08918
		C7.36194,6.31515,7.36153,6.53864,7.45352,6.7662c0.49721,1.22988,0.99318,2.46025,1.48706,3.69144
		c0.02846,0.07095,0.08081,0.14042,0.04091,0.2248c-0.87728,0.00028-1.75456-0.0002-2.63184,0.00115
		c-0.45766,0.0007-0.89661-0.33358-0.95816-0.77955C5.34713,9.58265,5.08123,9.38428,4.74892,9.384
		C4.1428,9.3835,3.53667,9.38531,2.93056,9.38337c-0.43704-0.0014-0.8148-0.26919-0.92811-0.6586
		C1.96884,8.60925,1.94867,8.49086,1.9488,8.36807C1.9506,6.616,1.9485,4.86393,1.95231,3.11187
		c0.0004-0.18276-0.034-0.34365-0.16175-0.47875C1.82553,2.31752,1.80048,2.0009,1.80587,1.68479
		c0.00505-0.29609,0.07086-0.36609,0.3656-0.36636c0.6484-0.00061,1.2968-0.00052,1.9452,0.00021
		C4.19533,1.31873,4.27784,1.30568,4.34451,1.36551z"/>
	<path fill="#FEFEFE" d="M8.98149,10.68245C8.57151,9.65947,8.16168,8.63644,7.75145,7.61356
		c-0.11189-0.279-0.22308-0.55829-0.33805-0.83604c-0.0981-0.23699-0.08966-0.46826,0.00638-0.70526
		c0.49717-1.22684,0.99141-2.45484,1.4841-3.68346c0.04931-0.12295,0.11275-0.23743,0.17592-0.35277
		C9.18464,1.9625,9.28945,1.88897,9.39426,1.81543c0.00409-0.00638,0.00818-0.01275,0.01221-0.01921
		C9.46092,1.76793,9.51663,1.74223,9.57297,1.7173c0.30651-0.02662,0.54514,0.09583,0.73344,0.32926
		c0.00519,0.02942,0.00028,0.05672-0.01613,0.08201C9.81935,2.37945,9.73032,2.81799,9.72958,3.28744
		C9.7256,5.79338,9.728,8.29934,9.72679,10.80529c-0.00005,0.09811,0.02197,0.20234-0.04995,0.28922
		C9.36056,11.09764,9.15239,10.92102,8.98149,10.68245z"/>
	<path fill="#DCDEE0" d="M9.67685,11.09451C9.677,8.46949,9.67588,5.84446,9.67906,3.21944
		c0.00037-0.30337,0.06855-0.59105,0.2386-0.85472c0.09368-0.14526,0.24348-0.19356,0.37295-0.27915
		c0.13286,0.03554,0.14063,0.1632,0.18297,0.25863c0.27661,0.62344,0.52099,1.26009,0.77499,1.89274
		c0.27761,0.69145,0.56848,1.37771,0.82836,2.07619c0.0315,0.08465,0.03428,0.15968,0.0016,0.24424
		c-0.51433,1.33107-1.06409,2.64814-1.59305,3.97342c-0.02305,0.05776-0.044,0.12037-0.10719,0.15175
		C10.21262,10.93418,9.99994,11.10695,9.67685,11.09451z"/>
	<path fill="#6E9DA1" d="M13.57357,11.60259c4.1855-0.00007,8.37101-0.00157,12.55651,0.00375
		c0.22487,0.00029,0.35357-0.0863,0.45063-0.27587c0.13218-0.25817,0.3389-0.47184,0.61801-0.53749
		c0.80256-0.18876,1.25084-0.77788,1.66111-1.40388c0.46764-0.71355,0.81908-1.48655,1.07998-2.29797
		c0.06893-0.21437,0.11571-0.43575,0.17265-0.65391c0.04671-0.00599,0.08828,0.00924,0.12835,0.03068
		c0.05743,0.06946,0.04409,0.14723,0.0289,0.22634c-0.0861,0.44849-0.25639,0.86961-0.4323,1.28787
		c-0.28337,0.67377-0.62227,1.31911-1.06524,1.90424c-0.25847,0.34143-0.53145,0.67299-0.92249,0.8813
		c-0.14626,0.07791-0.3005,0.13338-0.45815,0.18063c-0.2964,0.08883-0.5118,0.27362-0.65209,0.54388
		c-0.11079,0.21343-0.27582,0.31701-0.5233,0.31687c-4.14322-0.00231-8.28643-0.00169-12.42965-0.00207
		c-0.07376-0.00001-0.15037,0.00863-0.21263-0.04587C13.57377,11.70826,13.57367,11.65543,13.57357,11.60259z"/>
	<path fill="#5F6C6F" d="M10.37828,10.68255c0.52704-1.30897,1.04998-2.61959,1.585-3.92534
		c0.0932-0.22745,0.08699-0.42745-0.00395-0.65032c-0.46154-1.1311-0.9098-2.26755-1.3739-3.3976
		c-0.08687-0.21151-0.14822-0.43858-0.29483-0.62371c-0.0056-0.01699-0.0112-0.03398-0.01681-0.05096
		c0.09346-0.08676,0.23478-0.01548,0.32944-0.0983c0.08629,0.101,0.05755,0.2541,0.15993,0.34781
		c0.2643,0.64352,0.5303,1.28636,0.79237,1.93077c0.22831,0.56141,0.4478,1.12639,0.68049,1.68598
		c0.07704,0.18528,0.08373,0.35674,0.00839,0.54274c-0.5322,1.314-1.06033,2.62963-1.59031,3.94453
		c-0.04619,0.11461-0.13829,0.1981-0.21059,0.29497C10.42174,10.68694,10.39975,10.71386,10.37828,10.68255z"/>
	<path fill="#679397" d="M30.43228,6.46821c0.03571,0.21969-0.02224,0.43098-0.10406,0.62496
		c-0.11175,0.26492-0.19183,0.54042-0.2978,0.80718c-0.15396,0.38756-0.32859,0.76374-0.5257,1.12889
		c-0.21621,0.40054-0.46408,0.78592-0.76201,1.13093c-0.27034,0.31306-0.54607,0.63172-0.94429,0.79912
		c-0.17317,0.07279-0.35719,0.12168-0.52632,0.20205c-0.18645,0.0886-0.31492,0.2418-0.41059,0.42581
		c-0.16007,0.30786-0.25478,0.36588-0.67497,0.3648c-0.03724-0.0001-0.07449-0.0009-0.11173-0.0009
		c-4.16673,0.00003-8.33346,0.0001-12.50017,0.00018c-0.00013-0.03168-0.00029-0.06335-0.00044-0.09503
		c0.07772-0.06533,0.17175-0.04589,0.26032-0.04593c2.24981-0.00094,4.49963-0.00072,6.74945-0.00073
		c1.86155-0.00001,3.72311-0.00355,5.58463,0.00387c0.27763,0.00111,0.45916-0.08994,0.58382-0.34071
		c0.12055-0.24249,0.31266-0.43428,0.58574-0.50235c0.62635-0.15614,1.04676-0.57382,1.41796-1.06182
		c0.28914-0.38012,0.52675-0.79014,0.74374-1.21421c0.30374-0.59359,0.56318-1.20341,0.73894-1.84704
		c0.03439-0.12594,0.02642-0.26259,0.09766-0.37905C30.36838,6.46822,30.40033,6.46822,30.43228,6.46821z"/>
	<path fill="#6B989C" d="M30.33643,6.46822c-0.00793,0.29322-0.09648,0.569-0.19306,0.8415
		c-0.296,0.83518-0.67221,1.63306-1.17041,2.36887c-0.28382,0.41918-0.60207,0.8117-1.03731,1.09291
		c-0.18003,0.11632-0.38566,0.16703-0.5844,0.23359c-0.26763,0.08964-0.45837,0.26854-0.57373,0.5107
		c-0.12178,0.25563-0.30846,0.34291-0.58134,0.34268c-4.20734-0.00355-8.41468-0.00236-12.62201-0.00227
		c-0.0001-0.0317-0.00021-0.06341-0.00031-0.09511c4.20919-0.00008,8.41837-0.00144,12.62754,0.00304
		c0.24479,0.00026,0.39969-0.09196,0.50491-0.3047c0.11625-0.23505,0.29334-0.4419,0.54601-0.50376
		c0.70429-0.17242,1.17307-0.63704,1.56167-1.1951c0.61991-0.89024,1.07895-1.86026,1.37459-2.90386
		c0.0358-0.12638,0.06285-0.25552,0.05222-0.38881C30.27267,6.46801,30.30455,6.46812,30.33643,6.46822z"/>
	<path fill="#6B989C" d="M1.53393,2.47581c0.05297-0.0463,0.03156-0.10839,0.03199-0.16386
		C1.568,2.04285,1.56546,1.77371,1.56725,1.5046c0.0019-0.2871,0.14054-0.42357,0.43293-0.42399
		C2.78169,1.0795,3.56321,1.08026,4.34472,1.08028C4.34461,1.11201,4.3445,1.14374,4.3444,1.17546
		C4.27766,1.23454,4.19542,1.22195,4.1169,1.22204C3.43281,1.2228,2.74872,1.22209,2.06463,1.22263
		C1.79834,1.22284,1.71105,1.30882,1.71031,1.57018C1.70959,1.82283,1.71313,2.07553,1.70811,2.3281
		C1.7068,2.39407,1.73522,2.4825,1.62967,2.50762C1.59472,2.50604,1.5575,2.51114,1.53393,2.47581z"/>
	<path fill="#6E9DA1" d="M1.62967,2.50762C1.68263,2.46129,1.6613,2.39918,1.66171,2.34367
		C1.66375,2.06386,1.66163,1.78402,1.66297,1.5042c0.00105-0.21869,0.11268-0.32839,0.33564-0.3286
		c0.78193-0.00073,1.56386-0.0002,2.34579-0.00014c0.00004,0.03166,0.00009,0.06331,0.00013,0.09497
		C4.27775,1.32966,4.19539,1.31705,4.11676,1.31714c-0.6744,0.00079-1.34881-0.00009-2.02321,0.0007
		C1.8766,1.3181,1.80711,1.38627,1.80624,1.59827C1.80516,1.8618,1.80876,2.12538,1.80403,2.38885
		c-0.0012,0.0666,0.02605,0.15432-0.07785,0.18126C1.69401,2.54928,1.66184,2.52845,1.62967,2.50762z"/>
	<path fill="#709FA3" d="M1.72618,2.57011c0.05258-0.04665,0.03088-0.10875,0.03129-0.16424
		c0.00211-0.27992-0.00006-0.55987,0.00131-0.83981C1.75981,1.35722,1.84798,1.2709,2.06164,1.27069
		c0.76097-0.00076,1.52193-0.00028,2.28289-0.00026c-0.00001,0.0317-0.00002,0.06339-0.00003,0.09509
		C3.60147,1.3655,2.85844,1.3653,2.1154,1.36557C1.90409,1.36564,1.8546,1.41516,1.85432,1.62564
		c-0.00038,0.28973,0.00097,0.57948-0.00108,0.8692c-0.00037,0.05249,0.02612,0.12286-0.0627,0.13829
		C1.7691,2.61212,1.74764,2.59112,1.72618,2.57011z"/>
	<path fill="#FEFEFE" d="M15.96726,11.09442c-0.32595-0.00157-0.60152-0.19445-0.73047-0.51399
		c-0.25656-0.6357-0.51187-1.27189-0.76808-1.90772c-0.25029-0.62116-0.49815-1.24332-0.75303-1.86263
		c-0.10405-0.25282-0.10444-0.49505-0.00085-0.74958C14.13426,5.03,14.54657,3.99663,14.9611,2.96416
		c0.00967-0.02409,0.01455-0.05007,0.02167-0.07517c0.06968-0.1638,0.14866-0.32442,0.20689-0.49214
		c0.0902-0.25984,0.24351-0.46011,0.49496-0.58147c0.00422-0.00645,0.00845-0.0129,0.01261-0.01943
		c0.05573-0.02857,0.11198-0.05608,0.1702-0.08006c0.27512-0.03519,0.4874,0.09303,0.68217,0.26199
		c0.04652,0.04036,0.06483,0.09516,0.02682,0.15503c-0.46193,0.24286-0.55345,0.6727-0.55556,1.13062
		c-0.00721,1.55788-0.0027,3.11582-0.00276,4.67374c-0.00004,0.96644,0.00045,1.93287-0.00072,2.89931
		C16.01726,10.92481,16.03316,11.01797,15.96726,11.09442z"/>
	<path fill="#FEFEFE" d="M22.25763,11.09442c-0.3199-0.0016-0.60051-0.19137-0.72554-0.49993
		c-0.26166-0.64573-0.51938-1.29302-0.77945-1.93938c-0.24629-0.61209-0.4895-1.22545-0.74222-1.83492
		c-0.10723-0.25861-0.10963-0.50444-0.0031-0.76484c0.32767-0.80093,0.64561-1.60578,0.96733-2.40911
		c0.16874-0.41516,0.34506-0.82749,0.50342-1.24651c0.09749-0.25798,0.24401-0.46258,0.49691-0.5844
		c0.00423-0.00644,0.00846-0.01289,0.01263-0.01941c0.05574-0.02855,0.11198-0.05607,0.17019-0.08004
		c0.27511-0.03519,0.4874,0.09304,0.68217,0.26199c0.04652,0.04036,0.06482,0.09516,0.02681,0.15503
		c-0.46191,0.24287-0.55345,0.67269-0.55556,1.13062c-0.00718,1.55788-0.0027,3.11582-0.00275,4.67374
		c-0.00003,0.96644,0.00047,1.93287-0.00072,2.89931C22.30763,10.92481,22.32352,11.01797,22.25763,11.09442z"/>
	<path fill="#5F6C6F" d="M17.37264,3.0449c0.38643,0.95808,0.76815,1.91809,1.16324,2.87263
		c0.07962,0.19237,0.06532,0.35915-0.00873,0.54216c-0.52782,1.30458-1.04984,2.61147-1.5804,3.91495
		c-0.05197,0.12769-0.116,0.26701-0.27704,0.30879c-0.03228-0.0789,0.01443-0.14382,0.04115-0.21045
		c0.48177-1.20145,0.95939-2.40465,1.45668-3.59977c0.12669-0.30447,0.12836-0.56855-0.00005-0.87279
		c-0.40473-0.95889-0.78414-1.92831-1.17214-2.89413c-0.02836-0.07059-0.08267-0.13977-0.04442-0.22473
		c0.0432-0.0373,0.09757-0.04007,0.1484-0.0339c0.07613,0.00925,0.11576-0.02876,0.14585-0.08821
		C17.34499,2.82938,17.27161,2.9755,17.37264,3.0449z"/>
	<path fill="#5F6C6F" d="M24.04614,3.9957c0.26009,0.64396,0.51479,1.29015,0.78365,1.93049
		c0.07784,0.18539,0.06211,0.34956-0.00945,0.52659c-0.52841,1.30731-1.05182,2.61662-1.58357,3.92258
		c-0.05185,0.12734-0.11583,0.26655-0.2767,0.30806c-0.03226-0.07879,0.01439-0.14364,0.04107-0.21018
		c0.48107-1.19998,0.95826-2.4016,1.45486-3.59523c0.12875-0.30947,0.13145-0.57954-0.00213-0.88626
		c-0.27806-0.63846-0.52645-1.28966-0.78568-1.93616c-0.02673-0.06665-0.07324-0.13113-0.04911-0.21036
		c0.02846-0.03257,0.06755-0.02644,0.10122-0.01926c0.10397,0.02219,0.16653-0.01922,0.19838-0.11567
		C24.01744,3.78068,23.96088,3.91939,24.04614,3.9957z"/>
	<path fill="#5A6668" d="M23.91868,3.71031c0.02235,0.1796-0.04408,0.20907-0.28647,0.12713
		c-0.05303-0.01365-0.07405-0.05743-0.09157-0.10126c-0.21265-0.53204-0.42937-1.06241-0.65627-1.58865
		c-0.00825-0.01914-0.00662-0.04141-0.01255-0.06164c-0.18369-0.24478-0.4336-0.34648-0.73568-0.33549
		c-0.04836,0.03547-0.11282,0.03131-0.16199,0.0648c0,0,0.00083,0.00013,0.00083,0.00014
		c-0.05569-0.01101-0.05342-0.03183-0.01896-0.07143C22.2417,1.4155,22.87006,1.451,23.12127,1.81147
		c0.15833,0.2272,0.23607,0.49164,0.34067,0.74291C23.62115,2.93683,23.7671,3.32473,23.91868,3.71031z"/>
	<path fill="#5A6668" d="M17.24518,2.75945c0.02251,0.09484-0.00175,0.14498-0.11292,0.12874
		c-0.05658-0.00827-0.11539-0.00153-0.17319-0.00157c-0.02746-0.00608-0.05066-0.02146-0.06132-0.04587
		c-0.10918-0.25006-0.24335-0.48985-0.31633-0.75484c-0.18367-0.24474-0.43357-0.34644-0.73561-0.33551
		c-0.0484,0.03542-0.11286,0.0313-0.16204,0.06481c0,0,0.00083,0.00014,0.00083,0.00015
		c-0.05543-0.01097-0.05364-0.03162-0.01909-0.07139c0.28504-0.32809,0.92036-0.29738,1.16286,0.06787
		C17.02121,2.10229,17.12778,2.43415,17.24518,2.75945z"/>
	<path fill="#5A6769" d="M10.60323,1.93632c0.00412,0.06462-0.022,0.09725-0.09166,0.09532
		c-0.07916-0.0022-0.1585,0.00172-0.23776,0.00298c-0.20609-0.17772-0.43056-0.30965-0.71825-0.28418
		C9.50707,1.78574,9.44262,1.78169,9.39342,1.81525c0,0,0.00084,0.00016,0.00084,0.00017
		c-0.10713-0.03582-0.01525-0.0731,0.0056-0.09148C9.81821,1.35502,10.36197,1.46357,10.60323,1.93632z"/>
	<path fill="#DCDEE0" d="M22.87181,2.08588c0.15129,0.19328,0.20661,0.43171,0.30411,0.64966
		c0.16229,0.36281,0.30521,0.73415,0.45629,1.1019c0.28815,0.72333,0.5763,1.44666,0.86444,2.16999
		c0.04826,0.12115,0.10572,0.23965,0.14223,0.3642c0.03994,0.13622-0.05065,0.25319-0.0969,0.36965
		c-0.47991,1.20828-0.96824,2.41327-1.45406,3.61924c-0.04325,0.10738-0.08525,0.21525-0.12784,0.3229
		c-0.16352,0.25594-0.38023,0.42229-0.70245,0.411c0.00014-2.62505-0.001-5.25009,0.00217-7.87514
		c0.00037-0.30336,0.06846-0.59112,0.23873-0.85467C22.59229,2.21948,22.74157,2.17047,22.87181,2.08588z"/>
	<path fill="#DCDEE0" d="M16.58142,2.08591c0.14775,0.19354,0.19385,0.4346,0.30573,0.64497
		c0.02681,0.05042,0.04809,0.10374,0.07192,0.15573c0.26457,0.66456,0.52866,1.32931,0.79387,1.99362
		c0.19665,0.49259,0.39667,0.98385,0.59099,1.47734c0.05665,0.14386-0.04596,0.26422-0.09312,0.38424
		c-0.35032,0.89139-0.71225,1.77829-1.06999,2.66682c-0.17098,0.42468-0.34077,0.84984-0.5111,1.27479
		c-0.16352,0.25593-0.38023,0.4223-0.70245,0.41101c0.00014-2.62504-0.001-5.25008,0.00217-7.87511
		c0.00037-0.30336,0.06845-0.59113,0.23871-0.85467C16.30191,2.21951,16.45115,2.17045,16.58142,2.08591z"/>
	<path fill="#5E898C" d="M9.39342,1.81525c0.04167-0.05212,0.10103-0.06064,0.16214-0.06483
		C9.51474,1.80464,9.45495,1.81207,9.39342,1.81525z"/>
	<path fill="#5E898C" d="M15.68378,1.81521c0.04163-0.05212,0.10097-0.06062,0.16205-0.06482
		C15.80509,1.80474,15.74528,1.81206,15.68378,1.81521z"/>
	<path fill="#5E898C" d="M21.97414,1.81519c0.04161-0.05212,0.10094-0.06061,0.162-0.06481
		C22.09546,1.8048,22.03564,1.81206,21.97414,1.81519z"/>
</g>
</svg>
