<?xml version="1.0" encoding="utf-8"?>
<!-- Generator: Adobe Illustrator 23.0.0, SVG Export Plug-In . SVG Version: 6.00 Build 0)  -->
<svg version="1.1" id="Слой_1" xmlns="http://www.w3.org/2000/svg" xmlns:xlink="http://www.w3.org/1999/xlink" x="0px" y="0px" width="32px" height="13px"
	 viewBox="0 0 32 13" enable-background="new 0 0 32 13" xml:space="preserve">
<g>
	<path fill="#55718A" d="M0.00225,12.23626c0-2.21853,0-4.43706,0-6.65559c0.01796-0.01273,0.03751-0.01592,0.0587-0.00959
		c0.01719,0.01269,0.02963,0.02894,0.0376,0.04866c0.02848,0.09291,0.01857,0.18858,0.0186,0.28318
		c0.00063,1.96907,0.00068,3.93815-0.00001,5.90722c-0.00005,0.14318,0.00694,0.28455,0.04746,0.42321
		c0.08766,0.29992,0.29026,0.4835,0.58561,0.5732c0.14958,0.04543,0.30414,0.04441,0.45869,0.04441
		c5.20157-0.00031,10.40314-0.00042,15.60472,0.00076c0.10982,0.00002,0.22446-0.02309,0.3275,0.03955
		c0.02446,0.02752,0.02726,0.05547,0.00152,0.08389c-0.05814,0.01013-0.11681,0.00516-0.17521,0.00517
		c-5.37945,0.00025-10.75889,0.00026-16.13795,0.00026c-0.41395-0.00269-0.73975-0.27844-0.80967-0.68639
		C0.01632,12.27382,0.01794,12.25269,0.00225,12.23626z"/>
	<path fill="#224053" d="M27.59046,0.00265c0.32386,0.10065,0.64818,0.20024,0.93011,0.39753
		c0.09598,0.08981,0.21694,0.14656,0.31492,0.23302c0.04213,0.03717,0.10724,0.09228-0.02023,0.10374
		c-0.14833-0.0627-0.26842-0.17015-0.40653-0.24946c-0.42814-0.24584-0.8798-0.37452-1.38161-0.37416
		c-7.23145,0.00526-14.4629,0.00359-21.69435,0.00364c-0.11701,0-0.23431-0.00442-0.34988,0.01979
		C4.93533,0.14771,4.90621,0.12901,4.89473,0.08234c-0.00418-0.03031,0.00569-0.05643,0.02486-0.0797
		C12.47655,0.00265,20.0335,0.00265,27.59046,0.00265z"/>
	<path fill="#40586D" d="M17.14971,12.96473c-0.00078-0.02081-0.00155-0.04162-0.00233-0.06244
		c0.00674-0.00644,0.01348-0.01289,0.02015-0.01944c0.09111-0.04219,0.18836-0.02634,0.28307-0.02636
		c3.13256-0.00086,6.26513-0.00517,9.39768,0.0021c0.90301,0.0021,1.65092-0.32767,2.29342-0.94147
		c0.89009-0.85031,1.50346-1.8799,1.99246-2.99133c0.3029-0.68844,0.55177-1.39433,0.67312-2.13991
		c0.01756-0.10793-0.00974-0.22395,0.05476-0.3241c0.04656-0.03162,0.09141-0.02704,0.13486,0.00628c0,0.02113,0,0.04226,0,0.06339
		c-0.01669,0.01775-0.02211,0.04057-0.02861,0.06296c-0.03206,0.40668-0.13439,0.79955-0.25624,1.18591
		c-0.37039,1.17436-0.89765,2.27344-1.62598,3.27347c-0.17399,0.2389-0.36881,0.46122-0.55347,0.69205
		c-0.34115,0.35837-0.7181,0.67472-1.15445,0.91021c-0.37137,0.20042-0.77016,0.32469-1.20012,0.32465
		c-3.32413-0.00035-6.64826,0.00011-9.97239-0.00028C17.18511,12.98181,17.16647,12.97658,17.14971,12.96473z"/>
	<path fill="#3B556C" d="M4.91959,0.00265C4.9194,0.0236,4.91921,0.04454,4.91901,0.06549
		c-0.08219,0.06849-0.1816,0.04975-0.27546,0.04985C3.43681,0.11662,2.23007,0.11683,1.02332,0.11547
		C0.80403,0.11522,0.60156,0.15544,0.42999,0.3024C0.23077,0.47302,0.14783,0.69055,0.14818,0.94762
		c0.00105,0.78092,0.00046,1.56184,0.00036,2.34277C0.14844,3.96578,0.14898,4.64117,0.14797,5.31657
		C0.14784,5.40023,0.15886,5.48612,0.11751,5.56525C0.10465,5.58511,0.08711,5.59067,0.065,5.58204
		c-0.01024-0.00052-0.02048-0.0012-0.0307-0.00203C0.00469,5.52527,0.01947,5.46609,0.01944,5.40921
		C0.01852,3.86955,0.01868,2.32989,0.01868,0.7906c0.00296-0.40397,0.23859-0.68793,0.65411-0.78795
		C2.08839,0.00265,3.50399,0.00265,4.91959,0.00265z"/>
	<path fill="#264356" d="M31.99691,6.46808c-0.04213,0.00037-0.08426,0.00074-0.12639,0.00111
		c-0.04101,0.02632-0.07783,0.03098-0.10398-0.0197c0.0946-0.13424,0.06846-0.28203,0.04318-0.42707
		c-0.11863-0.68057-0.3442-1.32775-0.62241-1.95879c-0.32323-0.73315-0.71682-1.4271-1.1876-2.07594
		c-0.29251-0.40316-0.61979-0.77837-1.00661-1.09825c-0.05239-0.04333-0.11103-0.08405-0.12534-0.15815
		c-0.02511-0.11014-0.13667-0.13154-0.20482-0.19748c-0.0468-0.04528-0.1297-0.05282-0.14237-0.13363
		c0.48604,0.27853,0.88571,0.65841,1.23725,1.08412c1.04977,1.27127,1.76887,2.70872,2.15862,4.30761
		c0.02662,0.10919,0.01725,0.22728,0.08046,0.32753C31.99691,6.23566,31.99691,6.35187,31.99691,6.46808z"/>
	<path fill="#697682" d="M17.14971,12.96473c0.01015,0.00041,0.02031,0.0008,0.03047,0.00115
		c0.00887,0.00666,0.01194,0.01347,0.00924,0.02044c-0.00273,0.00704-0.00552,0.01056-0.0084,0.01056
		c-5.47081,0-10.94162,0-16.41243,0c-0.00746-0.0057-0.01058-0.01202-0.00936-0.01895
		c0.00127-0.00724,0.00297-0.01085,0.00509-0.01085c0.36162-0.00063,0.72324-0.00179,1.08487-0.00181
		C6.94936,12.96501,12.04954,12.96489,17.14971,12.96473z"/>
	<path fill="#535F69" d="M17.18102,12.99689c-0.00003-0.01035-0.00031-0.02069-0.00083-0.03101
		c3.2775-0.00022,6.55502-0.00246,9.83252,0.00137c0.52312,0.00061,1.00592-0.12008,1.45299-0.38788
		c0.40208-0.24085,0.76403-0.52929,1.07253-0.88202c0.01667-0.01328,0.03168-0.01163,0.04502,0.00495
		c-0.56603,0.62973-1.21441,1.12673-2.08086,1.27287c-0.01405,0.00237-0.02647,0.01427-0.03965,0.02172
		C24.0355,12.99689,20.60826,12.99689,17.18102,12.99689z"/>
	<path fill="#445B6E" d="M29.58325,11.7023c-0.01501-0.00165-0.03001-0.0033-0.04502-0.00495
		c0.58495-0.67699,1.07791-1.41443,1.46782-2.21809c0.38671-0.79707,0.705-1.61876,0.88559-2.48857
		c0.02944-0.14181,0.01912-0.2901,0.07314-0.42758c0.02255,0.01523,0.01037,0.0478,0.03214,0.06343c0,0.05282,0,0.10564,0,0.15847
		c-0.09524,0.24971-0.11541,0.51743-0.19083,0.77246c-0.42271,1.42939-1.06171,2.74858-2.00945,3.91168
		C29.73021,11.55065,29.65459,11.62476,29.58325,11.7023z"/>
	<path fill="#40596F" d="M0.00225,0.73159c0.01041,0.00062,0.02033-0.00127,0.02977-0.00567
		C0.03278,2.34396,0.03354,3.96199,0.0343,5.58002C0.02361,5.58023,0.01293,5.58045,0.00225,5.58067
		C0.00225,3.96431,0.00225,2.34795,0.00225,0.73159z"/>
	<path fill="#767F87" d="M31.99691,6.62654c-0.02834-0.01234-0.03056-0.03772-0.03214-0.06342
		c0.01071-0.01055,0.02143-0.0211,0.03214-0.03166C31.99691,6.56316,31.99691,6.59485,31.99691,6.62654z"/>
	<path fill="#44637F" d="M0.065,5.58204c0.01108-0.00053,0.02217-0.00106,0.03325-0.00158
		c0.20078-0.00713,0.37317,0.14605,0.41981,0.37439c0.01918,0.09388,0.01422,0.18933,0.01423,0.28428
		c0.00023,1.83743,0.00013,3.67487,0.00024,5.5123c0,0.0739-0.00312,0.14799,0.0047,0.22161
		c0.02509,0.23633,0.21905,0.43165,0.45697,0.4597c0.09,0.01061,0.18068,0.00607,0.27107,0.00607
		c5.06421,0.00015,10.12843,0.0001,15.19265,0.00034c0.10625,0.00001,0.2132-0.00696,0.31823,0.01487
		c0.24135,0.05016,0.40569,0.2473,0.37457,0.44729c0,0-0.00328,0.00098-0.0033,0.00098
		C11.78515,12.9021,6.42292,12.9018,1.06068,12.90197c-0.3438,0.00001-0.63502-0.11457-0.8338-0.39993
		c-0.11955-0.17161-0.16114-0.37379-0.16111-0.58389C0.06608,9.80612,0.0654,7.69408,0.065,5.58204z"/>
	<path fill="#2D4961" d="M17.15071,12.90131c-0.09489-0.31029-0.23031-0.41146-0.55219-0.41147
		c-5.16477-0.00008-10.32954-0.00299-15.49429,0.00654c-0.33505,0.00062-0.63228-0.29437-0.62989-0.62139
		c0.01396-1.91106,0.00686-3.82227,0.00683-5.73344c-0.00001-0.32156-0.07917-0.43742-0.38294-0.5611
		C0.09817,4.02238,0.09779,2.4643,0.09819,0.90622c0.00012-0.47818,0.36436-0.83981,0.8459-0.84005
		c1.32498-0.00066,2.64996-0.0005,3.97493-0.00068c0.00131,0.02604,0.00665,0.05009,0.03223,0.06412
		c0.04718,0.01833,0.07453,0.0584,0.10457,0.09509c0.09342,0.11413,0.21542,0.16802,0.36191,0.17205
		C5.49755,0.39895,5.57737,0.3983,5.65719,0.3983c7.02476,0.00005,14.04954,0.00482,21.07427-0.00904
		c0.55959-0.0011,1.03779,0.15816,1.51309,0.41069c0.69687,0.37025,1.19595,0.9361,1.64209,1.56422
		c0.43947,0.61874,0.72292,1.31471,1.03162,1.9985c0.20493,0.45392,0.37786,0.92019,0.48082,1.40819
		c0.05556,0.26332,0.19675,0.47313,0.37416,0.66587c0.02349,0.03718,0.06204,0.02988,0.09727,0.03244
		c0.01047,0.39972-0.09508,0.78104-0.2064,1.15764c-0.26049,0.88128-0.62954,1.71888-1.08922,2.51546
		c-0.26581,0.46062-0.56644,0.89803-0.91937,1.30019c-0.27618,0.3147-0.56461,0.61547-0.90505,0.86036
		c-0.44413,0.31948-0.92633,0.53758-1.48892,0.57472c-0.26537,0.01752-0.52958,0.02252-0.79411,0.0227
		C23.36187,12.90233,20.25629,12.90143,17.15071,12.90131z"/>
	<path fill="#123247" d="M31.77324,6.43674c-0.26312-0.1191-0.35271-0.36259-0.40735-0.60972
		c-0.16984-0.76821-0.50239-1.47338-0.82302-2.18464c-0.25038-0.55542-0.56479-1.06906-0.92452-1.56276
		c-0.57652-0.79122-1.34566-1.29998-2.2594-1.61679c-0.06256-0.02169-0.13627-0.01587-0.2048-0.01588
		C19.9227,0.44633,12.69125,0.44611,5.4598,0.44748C5.21793,0.44753,5.03774,0.36653,4.95125,0.12961
		c0.00577-0.04409,0.03165-0.06375,0.07578-0.06324C5.07492,0.06693,5.12281,0.06602,5.1707,0.06602
		c7.31127-0.00002,14.62255,0.0016,21.93382-0.00302c0.60312-0.00038,1.11278,0.22552,1.59488,0.54996
		c0.05691,0.0383,0.11229,0.07884,0.16838,0.11834c0.65288,0.51284,1.15169,1.15698,1.58487,1.85349
		c0.47792,0.76845,0.86948,1.57963,1.14829,2.44023c0.13395,0.41346,0.26266,0.83117,0.26823,1.27268
		C31.87001,6.36564,31.88414,6.44409,31.77324,6.43674z"/>
	<path fill="#3B556B" d="M27.81405,11.9194c-0.18305,0.16484-0.41986,0.15144-0.64095,0.18915
		c-0.03618,0.00617-0.07434,0.0009-0.11159,0.0009c-8.62529,0-17.25058,0-25.87586,0c-0.29592,0-0.32124-0.02461-0.32124-0.31256
		C0.8644,8.23723,0.86439,4.67757,0.86442,1.11792c0-0.25607,0.03558-0.2912,0.29485-0.29121
		C9.80584,0.8267,18.45241,0.82635,27.09898,0.82833c0.27732,0.00006,0.54353,0.06247,0.77901,0.22011
		c-0.06152,0.04942-0.12169,0.01768-0.1801-0.00539c-0.21048-0.08313-0.42745-0.11034-0.65455-0.11027
		C18.46322,0.93532,9.8831,0.93492,1.30298,0.93494c-0.32944,0-0.32951,0.00008-0.32953,0.32743
		C0.97338,2.92022,0.97349,4.57808,0.97353,6.23593c0,0.07327-0.01147,0.14905,0.03955,0.21325
		c0.02937,0.05882,0.03019,0.12243,0.03024,0.18574C1.0441,7.57916,1.04446,8.52339,1.04317,9.46763
		C1.0431,9.52039,1.04086,9.57314,1.0306,9.62513c-0.04977,0.19073-0.01649,0.38516-0.02527,0.5777
		c-0.00547,0.11997,0.00845,0.24061-0.01201,0.36021c-0.04116,0.2149-0.01405,0.43182-0.01879,0.64769
		c-0.00463,0.21117,0.00088,0.42257-0.00158,0.63381c-0.00126,0.1084,0.05048,0.15408,0.15357,0.15579
		c0.04789,0.00079,0.09578,0.00087,0.14368,0.00087c8.62639,0.00003,17.25277-0.00017,25.87916,0.00142
		c0.17292,0.00003,0.33847-0.0218,0.4993-0.08376C27.70306,11.89791,27.75912,11.87388,27.81405,11.9194z"/>
	<path fill="#3C566C" d="M27.81405,11.9194c-0.51116,0.20747-1.04791,0.12318-1.57399,0.12347
		c-8.35214,0.00459-16.70428,0.00323-25.05642,0.00322c-0.25535,0-0.25538-0.00004-0.2554-0.24801
		c-0.00003-0.35906-0.00092-0.71812,0.00095-1.07717c0.00029-0.05548-0.02126-0.1175,0.0308-0.1644
		c0.07168,0.08171,0.02931,0.19169,0.07125,0.28094c0.02667,0.28979,0.00809,0.58017,0.01241,0.87024
		c0.0037,0.24848,0.00696,0.25481,0.26172,0.25485c3.1373,0.00039,6.27459,0.00021,9.41189,0.00023
		c0.88801,0,1.77603,0.00007,2.66404-0.00008c0.06381-0.00001,0.12762-0.00107,0.19124,0.00536
		c2.85007,0.00362,5.70013,0.00136,8.55018,0.00104c1.51538-0.00017,3.03077,0.00546,4.54572-0.00415
		c0.29671,0.01037,0.59306,0.03027,0.88496-0.05962c0.35968-0.11076,0.65568-0.321,0.92914-0.56684
		c0.48891-0.43953,0.87762-0.9594,1.21325-1.51964c0.52179-0.87098,0.92126-1.79327,1.17194-2.77728
		c0.03786-0.14864,0.06084-0.29972,0.08267-0.45143c0.02916-0.22409-0.00821-0.44217-0.05826-0.65885
		c-0.12169-0.52683-0.30175-1.03424-0.52178-1.52791c-0.37644-0.8446-0.84032-1.63717-1.44688-2.34074
		c-0.31274-0.36276-0.66216-0.68484-1.10368-0.89605c-0.23027-0.11015-0.46678-0.16577-0.72267-0.16572
		c-7.5117,0.00156-15.02339,0.0012-22.53509,0.00136c-0.06386,0-0.1277,0.00049-0.19157-0.0024
		C4.04547,1.00094,3.72036,1.01677,3.39566,0.99046C3.21893,0.94331,3.03844,0.96761,2.85998,0.96823
		C2.64432,0.96898,2.42745,0.94498,2.21289,0.98656C2.12468,1.00301,2.03559,1.00287,1.94636,1.00032
		C1.8089,0.99158,1.67134,1.00386,1.5339,0.9994c-0.11106,0.0048-0.22238,0.00634-0.33333,0.0025
		C1.08431,0.99787,1.04031,1.04982,1.04104,1.1621c0.00176,0.2732,0.00147,0.54643,0,0.81965
		c-0.00031,0.0578-0.00158,0.11563-0.01356,0.17265c-0.03625,0.32325-0.03893,0.64627,0.0031,0.96923
		c0.01347,0.06765,0.01325,0.13613,0.01329,0.2045c0.00045,0.95225,0.00094,1.9045-0.00092,2.85675
		C1.04278,6.27146,1.06367,6.36639,0.98467,6.4365C0.96502,6.44453,0.93647,6.45428,0.93163,6.42932
		c-0.00793-0.0408-0.00334-0.08407-0.00334-0.1263c-0.00007-1.73227-0.0001-3.46454-0.00001-5.1968
		c0.00001-0.2159,0.00032-0.21613,0.2237-0.21613c8.68368-0.00004,17.36737,0.00019,26.05105-0.00151
		c0.18596-0.00004,0.3541,0.05797,0.52351,0.11833c0.04979,0.01774,0.0953,0.04764,0.15144,0.04155
		c0.2265,0.07508,0.40225,0.23035,0.58217,0.37474c0.61598,0.49434,1.04236,1.13886,1.44635,1.80314
		c0.38788,0.63778,0.68971,1.31316,0.92676,2.0172c0.12388,0.36792,0.24591,0.74228,0.25808,1.13266
		c0.00726,0.23299-0.04317,0.46833-0.10167,0.69765c-0.1842,0.722-0.45702,1.41256-0.78338,2.08028
		c-0.16282,0.33314-0.33558,0.66619-0.57204,0.95875c-0.03704,0.09459-0.10953,0.16715-0.15989,0.25346
		c-0.01064,0.01058-0.02129,0.02115-0.03193,0.03173c-0.04251,0.06345-0.07894,0.13091-0.12772,0.1902l0.00008-0.00003
		c-0.28934,0.38288-0.62215,0.7249-0.99305,1.02989c-0.09694,0.07971-0.20723,0.14275-0.31619,0.20614
		c-0.02121,0.0106-0.04242,0.02121-0.06363,0.03181c-0.03605,0.03424-0.08711,0.03863-0.12794,0.06338L27.81405,11.9194z"/>
	<path fill="#3B556B" d="M28.00556,11.82424c0.33332-0.23922,0.64182-0.50602,0.92367-0.804
		c0.13285-0.14045,0.22966-0.31223,0.38557-0.43203c-0.03478,0.15409-0.16523,0.24128-0.25995,0.34989
		c-0.28426,0.32599-0.59215,0.62915-0.95792,0.86737C28.07275,11.82123,28.0363,11.81842,28.00556,11.82424z"/>
	<path fill="#3B556B" d="M29.47438,10.36631c0.01202-0.11014,0.09805-0.17428,0.15988-0.25346
		C29.62518,10.22481,29.56455,10.30474,29.47438,10.36631z"/>
	<path fill="#3B556B" d="M29.31472,10.58824c0.0204-0.07807,0.06012-0.14336,0.12772-0.1902
		C29.42952,10.48106,29.39129,10.54733,29.31472,10.58824z"/>
	<path fill="#3B556B" d="M27.814,11.91943c0.03246-0.04138,0.07712-0.05849,0.12793-0.06338
		C27.91752,11.91344,27.86876,11.9224,27.814,11.91943z"/>
	<path fill="#8AABB6" d="M0.98467,6.4365c0.00024-1.11027,0.00048-2.22054,0.00072-3.3308
		C1.00184,2.90729,0.97797,2.7076,1.00438,2.50945c0.09234-0.11887,0.22435-0.06915,0.34219-0.07961
		C1.38113,2.43177,1.41603,2.43068,1.45054,2.4345C1.47488,2.43606,1.49882,2.44059,1.52227,2.4472
		c0.0369,0.01148,0.07359,0.02404,0.10985,0.03799c0.04368,0.01929,0.0843,0.04352,0.12137,0.07384
		c0.03345,0.02795,0.06563,0.05706,0.09584,0.08861C1.98017,2.77869,1.99968,2.9435,1.99955,3.1168
		C1.99867,4.2365,1.99896,5.35619,1.9991,6.47589C1.99917,7.1044,1.99737,7.73291,1.99987,8.36141
		c0.0015,0.37692,0.14457,0.67727,0.49025,0.86285C2.65424,9.31237,2.8328,9.33443,3.01538,9.33478
		c0.5534,0.00106,1.10681-0.00068,1.6602,0.00074c0.44143,0.00113,0.66906,0.17936,0.77354,0.60161
		c0.09918,0.40084,0.41226,0.65687,0.84852,0.69332c0.07963,0.00666,0.15955,0.00406,0.23935,0.00407
		c2.07526,0.00009,4.15051,0.00005,6.22577,0.00013c0.07448,0,0.14908-0.00232,0.22342,0.00322
		c0.34437,0.02566,0.60574,0.28273,0.63193,0.62427c0.00807,0.10525,0.00626,0.21109,0.00075,0.31652
		c-0.00093,0.05455,0.00183,0.10931-0.0023,0.16384c-0.00056,0.0345,0.00089,0.06913-0.00146,0.10362
		c-0.00047,0.03372-0.0006,0.06754-0.00686,0.10094c-0.00537,0.02545-0.01883,0.04634-0.03743,0.06425
		c-0.05846,0.00115-0.11693,0.00329-0.17539,0.00329c-4.06326,0.00016-8.12652,0.00015-12.18978,0.00013
		c-0.21466,0-0.21412-0.00007-0.21489-0.20994c-0.00122-0.33249-0.00326-0.66498-0.00495-0.99747
		c-0.01589-0.38893-0.01388-0.77788-0.00097-1.16683C0.98478,8.57251,0.98472,7.5045,0.98467,6.4365z"/>
	<path fill="#424F5A" d="M0.98483,9.64051c0.00033,0.38895,0.00067,0.7779,0.00098,1.16684
		C0.93367,10.72814,0.97216,10.63976,0.96,10.55651c0.00007-0.25537-0.0007-0.51075,0.00093-0.76612
		C0.96125,9.73993,0.94487,9.68533,0.98483,9.64051z"/>
	<path fill="#5E898C" d="M4.3764,0.9549c0.07445-0.00075,0.14891-0.00216,0.22337-0.00216
		c7.46832-0.0001,14.93664,0.00248,22.40495-0.00551c0.53447-0.00057,0.96786,0.1936,1.36559,0.51165
		c0.66493,0.53173,1.13573,1.22076,1.55062,1.94621c0.46253,0.80875,0.83199,1.65924,1.03132,2.57378
		c0.0466,0.21379,0.09899,0.43015,0.02375,0.6496c-0.05409-0.06238-0.12034-0.09353-0.20531-0.0863
		c-0.08905,0.00758-0.17541-0.01589-0.26254-0.02943C30.4839,6.5119,30.45969,6.5111,30.43545,6.51083
		c-0.03269-0.00029-0.06534-0.00096-0.09802-0.00191c-0.03325,0.00004-0.06624-0.00265-0.09901-0.0083
		c-0.04916-0.01052-0.09853-0.01961-0.14902-0.02213c-0.25347-0.03453-0.50269-0.08825-0.74776-0.16075
		c-0.3913-0.11575-0.72303-0.32622-1.00731-0.6159c-0.35391-0.36063-0.73825-0.68303-1.18317-0.93155
		c-0.38965-0.21764-0.81639-0.32855-1.24123-0.44725c-0.76998-0.21513-1.55335-0.36105-2.34967-0.43231
		c-0.31243-0.02796-0.62732-0.00655-0.94109-0.00819c-0.36703-0.00191-0.73407,0.00068-1.1011-0.00078
		c-0.38152-0.00152-0.67719-0.14957-0.86253-0.4935c-0.18678-0.34661-0.51742-0.44404-0.87535-0.4513
		c-0.76042-0.01543-1.52122-0.00606-2.28187-0.00406c-0.04816,0.00013-0.09494,0.01111-0.1408,0.0249
		c-0.08541,0.00627-0.0832-0.06739-0.10365-0.11655c-0.12352-0.29706-0.23137-0.60143-0.38317-0.88564
		c-0.23045-0.43147-0.76711-0.5285-1.14003-0.21434c-0.03724,0.03137-0.06542,0.06877-0.08568,0.11258
		c-0.31528,0.20018-0.40967,0.53719-0.53934,0.85328c-0.03468,0.08453-0.04785,0.18992-0.16304,0.21761
		c-0.05805,0.01163-0.11665,0.01015-0.17507,0.01018c-0.79209,0.00036-1.58418-0.00088-2.37627,0.00069
		c-0.32963,0.00065-0.59947-0.11823-0.80585-0.37557c-0.04633-0.05776-0.09669-0.11231-0.14251-0.17056
		c-0.16787-0.21335-0.37968-0.31425-0.66085-0.31328C8.96401,2.0825,7.14591,2.0797,5.32783,2.0793
		C4.78947,2.07918,4.51627,1.89402,4.31724,1.39771C4.30674,1.36183,4.30251,1.32503,4.30273,1.28779
		c-0.00071-0.03473-0.00187-0.06963,0.0003-0.10442C4.30344,1.15005,4.3055,1.11675,4.31189,1.08388
		C4.32164,1.03518,4.34026,0.99069,4.3764,0.9549z"/>
	<path fill="#628B8E" d="M30.49616,6.46812c0.11805,0.02584,0.23746,0.04257,0.35817,0.03079
		c0.10239-0.00999,0.1305,0.04067,0.12165,0.12955c-0.00442,0.26093-0.08261,0.50783-0.15705,0.7534
		c-0.36223,1.1949-0.89685,2.30659-1.66569,3.29812c-0.35094,0.45259-0.75397,0.85656-1.26488,1.13721
		c-0.36309,0.19945-0.75861,0.21699-1.1602,0.19503c-0.0109-0.01224-0.02288-0.03068-0.01573-0.04227
		c0.17192-0.27847,0.26195-0.6187,0.59572-0.77546c0.12086-0.05677,0.24789-0.09589,0.37479-0.13413
		c0.25075-0.07557,0.45781-0.21816,0.64788-0.39184c0.46277-0.42287,0.81473-0.92635,1.12939-1.46435
		c0.40064-0.68501,0.68463-1.4158,0.93404-2.16317C30.45636,6.85486,30.48177,6.66251,30.49616,6.46812z"/>
	<path fill="#649093" d="M30.49616,6.46812c0.08324,0.18779-0.00025,0.36535-0.05124,0.53638
		c-0.19153,0.64235-0.43252,1.26884-0.74727,1.86069c-0.36444,0.68529-0.77393,1.34429-1.37083,1.86488
		c-0.20638,0.17999-0.43233,0.32331-0.70021,0.39103c-0.35008,0.0885-0.61505,0.26847-0.73491,0.62539
		c-0.03284,0.0978-0.14131,0.15706-0.16354,0.26577c-0.71766,0.00082-1.43533,0.00234-2.15299,0.00238
		c-3.59904,0.00025-7.19808,0.00013-10.79712-0.00002c-0.06907,0-0.13815-0.00212-0.20723-0.00326
		c0.00127-0.02005,0.00255-0.04007,0.00383-0.0601c0.07776-0.06538,0.17186-0.04574,0.26041-0.04578
		c2.13881-0.00098,4.27762-0.00075,6.41642-0.00076c1.87811,0,3.75622-0.00001,5.63432,0.00003
		c0.11703,0,0.234,0.0034,0.35099,0.00603c0.23831,0.00535,0.44131-0.06269,0.55532-0.29224
		c0.1541-0.31027,0.38881-0.51573,0.73366-0.60657c0.41024-0.10806,0.71837-0.37445,0.99741-0.6802
		c0.56312-0.61704,0.97397-1.32602,1.31171-2.08383c0.17878-0.40115,0.30991-0.81859,0.46979-1.22592
		c0.07007-0.17853,0.0614-0.37459,0.12761-0.55378C30.45358,6.46818,30.47487,6.46815,30.49616,6.46812z"/>
	<path fill="#628B8F" d="M1.37497,2.47266C1.2593,2.48822,1.13757,2.44531,1.0268,2.50817
		C0.95964,2.39561,1.00532,2.27286,0.99447,2.15522C0.99341,1.79915,0.99523,1.44304,0.98946,1.08704
		C0.98782,0.98608,1.01795,0.945,1.12368,0.95093C1.26044,0.95861,1.3979,0.95395,1.53506,0.9546
		C1.5689,1.00366,1.54267,1.04738,1.51628,1.08512C1.4332,1.20393,1.421,1.33729,1.42187,1.47582
		c0.00168,0.26773,0.00095,0.53548,0.00019,0.80322C1.42186,2.34701,1.42681,2.4168,1.37497,2.47266z"/>
	<path fill="#679397" d="M4.3764,0.9549c0.00543,0.04577-0.01031,0.08628-0.03168,0.12538
		C4.27786,1.13915,4.19562,1.12685,4.117,1.12694C3.42707,1.12768,2.73713,1.1269,2.0472,1.12754
		c-0.31805,0.0003-0.43188,0.11279-0.43273,0.42597C1.6138,1.80109,1.61742,2.04873,1.61224,2.29622
		C1.61086,2.36207,1.63979,2.45077,1.53393,2.47581c-0.02099-0.00067-0.04199-0.00133-0.06298-0.002
		C1.42821,2.42714,1.42468,2.36929,1.42458,2.31084c-0.0005-0.28429-0.00161-0.56858,0.00061-0.85286
		c0.0005-0.06351,0.01159-0.12582,0.02654-0.18732c0.04409-0.18142,0.14072-0.26281,0.32702-0.28845
		c0.05683-0.00782,0.11678-0.00125,0.17078-0.02743C2.03572,0.95284,2.1219,0.95091,2.20809,0.94898
		c0.39192-0.01818,0.78385-0.01726,1.17579-0.0006C3.71472,0.95055,4.04556,0.95273,4.3764,0.9549z"/>
	<path fill="#659093" d="M1.94953,0.95477C1.8618,1.02198,1.74201,0.98846,1.65237,1.0461
		c-0.15158,0.09748-0.17796,0.25394-0.18,0.41404C1.46808,1.79799,1.471,2.13593,1.47095,2.47382
		C1.43896,2.47344,1.40697,2.47307,1.37497,2.47269c0.00009-0.30996,0.01012-0.62032-0.00309-0.92971
		C1.36257,1.32474,1.40574,1.13031,1.53506,0.95459C1.67321,0.95466,1.81137,0.95472,1.94953,0.95477z"/>
	<path fill="#424F5A" d="M0.99447,2.15522c0.06507,0.11275,0.01111,0.23623,0.03232,0.35295
		C1.00571,2.70686,1.06154,2.91079,0.98541,3.10571C0.94932,2.7885,0.93184,2.47148,0.99447,2.15522z"/>
	<path fill="#424F5A" d="M3.38389,0.94838C2.99194,0.9486,2.59999,0.94882,2.20806,0.94901
		c0.06046-0.05055,0.13238-0.02518,0.19861-0.02593c0.2753-0.00309,0.55066-0.00216,0.82598-0.00053
		C3.28367,0.92286,3.33957,0.90541,3.38389,0.94838z"/>
	<path fill="#72A2A6" d="M4.34451,1.36551c0.11266,0.24099,0.22888,0.47582,0.50235,0.5844
		C4.97223,1.9997,5.09643,2.0317,5.23153,2.03164c1.86154-0.00092,3.7231,0.00333,5.58461-0.00464
		c0.29884-0.00128,0.50254,0.12951,0.67727,0.34387c0.12924,0.15856,0.24479,0.32962,0.44294,0.41953
		c0.13266,0.0602,0.2663,0.09733,0.41311,0.09717c0.87757-0.001,1.75514,0.00055,2.63272,0.00124
		c0.04197,0.07778-0.00691,0.1431-0.03261,0.20943c-0.38128,0.98446-0.78134,1.96156-1.18045,2.93894
		c-0.11545,0.28272-0.11278,0.54807,0.00025,0.82675c0.49799,1.22785,0.99393,2.45654,1.4861,3.68671
		c0.12883,0.32202,0.3548,0.50273,0.70198,0.53387c0.25294,0.00093,0.45879-0.09199,0.60759-0.29939
		c0.0244-0.03401,0.0499-0.06718,0.08789-0.08803c0.14556-0.08471,0.22694-0.22088,0.28663-0.36888
		c0.53309-1.32176,1.07154-2.64141,1.59431-3.96727c0.04764-0.12083,0.04141-0.22998-0.0065-0.35084
		c-0.37735-0.95199-0.76664-1.89923-1.14584-2.85046c-0.0265-0.06648-0.07419-0.13112-0.04072-0.20997
		c0.01173-0.07833,0.07346-0.06246,0.12389-0.0625c0.77098-0.0006,1.54211-0.00876,2.31288,0.00382
		c0.29801,0.00486,0.59077,0.06614,0.8044,0.31095c0.04222,0.04838,0.08094,0.09667,0.10879,0.15433
		c0.15969,0.33053,0.4373,0.47526,0.79382,0.47993c0.43061,0.00564,0.86163,0.01104,1.29199-0.00067
		c0.9122-0.02481,1.80362,0.10987,2.68444,0.32776c0.47718,0.11804,0.95592,0.23139,1.41174,0.42339
		c0.38537,0.16232,0.72547,0.391,1.03714,0.66304c0.25861,0.22573,0.49991,0.47167,0.76517,0.68906
		c0.30605,0.25082,0.68284,0.35202,1.06332,0.43305c0.1237,0.02634,0.24931,0.04387,0.37404,0.06542
		c0.03099,0.0627,0.00703,0.12432-0.00463,0.18577c-0.10324,0.54403-0.31318,1.05273-0.53973,1.55362
		c-0.29477,0.65174-0.64033,1.27545-1.10246,1.82916c-0.30419,0.36448-0.65021,0.66394-1.12794,0.78724
		c-0.33072,0.08536-0.57277,0.29401-0.73474,0.59159c-0.10116,0.18585-0.25043,0.26709-0.46672,0.26695
		c-4.11666-0.00269-8.23333-0.00192-12.34999-0.00252c-0.07374-0.00001-0.1504,0.00776-0.21266-0.04646
		c-0.00198-0.13713,0.01323-0.27712-0.00939-0.41081c-0.05212-0.30801-0.31256-0.50829-0.63742-0.50834
		c-2.18057-0.00032-4.36116-0.00355-6.54171,0.00253c-0.46728,0.0013-0.93755-0.32872-0.99729-0.7944
		C5.34739,9.57686,5.07584,9.38432,4.75171,9.38402C4.14541,9.38347,3.5391,9.38518,2.9328,9.38341
		C2.49405,9.38213,2.11782,9.1166,2.00309,8.72651C1.96911,8.61098,1.94876,8.49258,1.94888,8.36982
		c0.00168-1.7526-0.00039-3.5052,0.00343-5.25779c0.0004-0.18281-0.03395-0.34376-0.16176-0.47891
		C1.82553,2.31752,1.80048,2.0009,1.80587,1.68479c0.00505-0.29609,0.07086-0.36609,0.3656-0.36636
		c0.6484-0.00061,1.2968-0.00052,1.9452,0.00021C4.19533,1.31873,4.27784,1.30568,4.34451,1.36551z"/>
	<path fill="#6E9DA1" d="M13.57357,11.60259c4.18551-0.00007,8.37101-0.00157,12.55651,0.00375
		c0.22487,0.00029,0.35357-0.08631,0.45063-0.27587c0.13218-0.25817,0.33891-0.47184,0.61801-0.53749
		c0.80256-0.18877,1.25084-0.77788,1.66111-1.40389c0.46764-0.71354,0.81908-1.48655,1.07998-2.29797
		c0.06893-0.21437,0.1157-0.43575,0.17264-0.6539c0.04671-0.00599,0.08829,0.00924,0.12835,0.03068
		c0.05743,0.06946,0.04409,0.14723,0.0289,0.22634c-0.0861,0.44849-0.25639,0.86961-0.4323,1.28787
		c-0.28337,0.67377-0.62227,1.31911-1.06524,1.90424c-0.25847,0.34143-0.53145,0.67299-0.92249,0.8813
		c-0.14626,0.07791-0.3005,0.13338-0.45815,0.18063c-0.2964,0.08883-0.5118,0.27362-0.65209,0.54388
		c-0.11079,0.21343-0.27582,0.31701-0.5233,0.31687c-4.14322-0.00231-8.28643-0.00169-12.42965-0.00207
		c-0.07376-0.00001-0.15037,0.00863-0.21263-0.04587C13.57377,11.70826,13.57367,11.65543,13.57357,11.60259z"/>
	<path fill="#679397" d="M30.43228,6.46821c0.03571,0.21969-0.02224,0.43098-0.10406,0.62496
		c-0.11175,0.26492-0.19183,0.54042-0.2978,0.80718c-0.15396,0.38756-0.32859,0.76374-0.5257,1.12889
		c-0.21621,0.40054-0.46408,0.78592-0.76201,1.13093c-0.27034,0.31306-0.54607,0.63172-0.94429,0.79912
		c-0.17317,0.07279-0.35719,0.12168-0.52632,0.20205c-0.18645,0.0886-0.31492,0.2418-0.41059,0.42581
		c-0.16007,0.30786-0.25478,0.36588-0.67497,0.3648c-0.03724-0.0001-0.07449-0.0009-0.11173-0.0009
		c-4.16673,0.00003-8.33346,0.0001-12.50017,0.00018c-0.00013-0.03168-0.00029-0.06335-0.00044-0.09503
		c0.07772-0.06533,0.17175-0.04589,0.26032-0.04593c2.24982-0.00094,4.49963-0.00072,6.74945-0.00073
		c1.86155-0.00001,3.72312-0.00355,5.58464,0.00387c0.27764,0.00111,0.45915-0.08995,0.58382-0.34072
		c0.12055-0.24249,0.31267-0.43428,0.58574-0.50235c0.62636-0.15612,1.04676-0.57384,1.41796-1.06183
		c0.28915-0.38012,0.52675-0.79014,0.74374-1.21421c0.30373-0.59359,0.56318-1.20341,0.73894-1.84704
		c0.03439-0.12593,0.02641-0.26258,0.09765-0.37903C30.36838,6.46822,30.40033,6.46822,30.43228,6.46821z"/>
	<path fill="#6B989C" d="M30.33643,6.46822c-0.00793,0.29322-0.09648,0.569-0.19306,0.8415
		c-0.296,0.83518-0.67221,1.63306-1.17041,2.36887c-0.28382,0.41918-0.60207,0.8117-1.03731,1.09291
		c-0.18003,0.11632-0.38566,0.16703-0.5844,0.23359c-0.26763,0.08964-0.45837,0.26854-0.57373,0.5107
		c-0.12178,0.25563-0.30846,0.34291-0.58134,0.34268c-4.20734-0.00355-8.41468-0.00236-12.62201-0.00227
		c-0.0001-0.0317-0.00021-0.06341-0.00031-0.09511c4.20919-0.00008,8.41837-0.00144,12.62754,0.00304
		c0.24479,0.00026,0.3997-0.09196,0.50491-0.3047c0.11625-0.23505,0.29334-0.4419,0.54601-0.50376
		c0.70429-0.17242,1.17306-0.63704,1.56166-1.1951c0.61992-0.89024,1.07895-1.86026,1.37459-2.90386
		c0.0358-0.12638,0.06285-0.25552,0.05222-0.38881C30.27267,6.46801,30.30455,6.46812,30.33643,6.46822z"/>
	<path fill="#6B989C" d="M1.53393,2.47581c0.05297-0.0463,0.03156-0.10839,0.03199-0.16386
		C1.568,2.04285,1.56546,1.77371,1.56725,1.5046c0.0019-0.2871,0.14054-0.42357,0.43293-0.42399
		C2.78169,1.0795,3.56321,1.08026,4.34472,1.08028C4.34461,1.11201,4.3445,1.14374,4.3444,1.17546
		C4.27766,1.23454,4.19542,1.22195,4.1169,1.22204C3.43281,1.2228,2.74872,1.22209,2.06463,1.22263
		C1.79834,1.22284,1.71105,1.30882,1.71031,1.57018C1.70959,1.82283,1.71313,2.07553,1.70811,2.3281
		C1.7068,2.39407,1.73522,2.4825,1.62967,2.50762C1.59472,2.50604,1.5575,2.51114,1.53393,2.47581z"/>
	<path fill="#6E9DA1" d="M1.62967,2.50762C1.68263,2.46129,1.6613,2.39918,1.66171,2.34367
		C1.66375,2.06386,1.66163,1.78402,1.66297,1.5042c0.00105-0.21869,0.11268-0.32839,0.33564-0.3286
		c0.78193-0.00073,1.56386-0.0002,2.34579-0.00014c0.00004,0.03166,0.00009,0.06331,0.00013,0.09497
		C4.27775,1.32966,4.19539,1.31705,4.11676,1.31714c-0.6744,0.00079-1.34881-0.00009-2.02321,0.0007
		C1.8766,1.3181,1.80711,1.38627,1.80624,1.59827C1.80516,1.8618,1.80876,2.12538,1.80403,2.38885
		c-0.0012,0.0666,0.02605,0.15432-0.07785,0.18126C1.69401,2.54928,1.66184,2.52845,1.62967,2.50762z"/>
	<path fill="#709FA3" d="M1.72618,2.57011c0.05258-0.04665,0.03088-0.10875,0.03129-0.16424
		c0.00211-0.27992-0.00006-0.55987,0.00131-0.83981C1.75981,1.35722,1.84798,1.2709,2.06164,1.27069
		c0.76097-0.00076,1.52193-0.00028,2.28289-0.00026c-0.00001,0.0317-0.00002,0.06339-0.00003,0.09509
		C3.60147,1.3655,2.85844,1.3653,2.1154,1.36557C1.90409,1.36564,1.8546,1.41516,1.85432,1.62564
		c-0.00038,0.28973,0.00097,0.57948-0.00108,0.8692c-0.00037,0.05249,0.02612,0.12286-0.0627,0.13829
		C1.7691,2.61212,1.74764,2.59112,1.72618,2.57011z"/>
	<path fill="#FEFEFE" d="M15.96529,11.12104c-0.35581-0.01316-0.59809-0.18884-0.72947-0.51296
		c-0.32198-0.79435-0.6405-1.59008-0.96073-2.38512c-0.18468-0.45851-0.36678-0.91808-0.55624-1.37464
		c-0.1108-0.26701-0.11121-0.52479-0.00114-0.79425c0.4119-1.00835,0.81634-2.0197,1.22286-3.03021
		c0.01753-0.04357,0.0279-0.08997,0.0416-0.13505c0.07496-0.17828,0.15429-0.35491,0.22375-0.53528
		c0.082-0.21292,0.2045-0.38907,0.41287-0.49679c0.0157-0.04761,0.0596-0.06004,0.09883-0.07859
		c0.29895-0.09673,0.56414-0.02943,0.79789,0.1696c0.06246,0.05319,0.13051,0.11374,0.09072,0.21434
		c-0.47,0.18567-0.53939,0.59774-0.58533,1.02209c-0.00794,0.07335-0.00277,0.14771-0.00278,0.22161
		c-0.00006,2.47576,0.00027,4.95152-0.00113,7.42728C16.01695,10.93072,16.04168,11.03567,15.96529,11.12104z"/>
	<path fill="#5A5F61" d="M15.71314,1.81252c-0.02348,0.0315-0.06065,0.03418-0.09435,0.0442
		c0.04723-0.15578,0.29924-0.32035,0.50955-0.33274c0.43317-0.02551,0.71327,0.17592,0.88879,0.62993
		c0.10323,0.26703,0.21548,0.53062,0.32368,0.79576c0.40555,1.01291,0.80755,2.02726,1.22065,3.03713
		c0.05913,0.14455,0.06061,0.26235,0.00327,0.40444c-0.53251,1.3196-1.05694,2.64243-1.59075,3.96151
		c-0.0594,0.14679-0.12208,0.31072-0.30801,0.3601c-0.03528-0.05447-0.00092-0.10117,0.01793-0.14884
		c0.48905-1.23741,0.99294-2.46895,1.48926-3.70349c0.04338-0.1079,0.07261-0.22074,0.12104-0.32649
		c0.03175-0.06933,0.01086-0.13101-0.01375-0.19761c-0.39898-1.07979-0.85601-2.13678-1.27624-3.2082
		c-0.02992-0.07629-0.08613-0.14878-0.05801-0.23984c0.01436-0.01618,0.03205-0.02709,0.05349-0.03181
		c0.19157-0.0422,0.19382-0.04313,0.11978-0.2185c-0.07799-0.18476-0.14911-0.3728-0.23307-0.55448
		c-0.11863-0.25669-0.30369-0.44552-0.60616-0.47761C16.05807,1.58242,15.8798,1.68309,15.71314,1.81252z"/>
	<path fill="#DCDEE0" d="M16.95725,2.88674c0.22624,0.5706,0.45114,1.14174,0.6791,1.71166
		c0.23559,0.58901,0.47506,1.1765,0.71005,1.76574c0.0233,0.05842,0.02003,0.12451-0.00452,0.18553
		c-0.55852,1.38777-1.11722,2.77547-1.6759,4.16318c-0.16113,0.25858-0.38002,0.41945-0.70069,0.4082
		c0.00078-2.61724,0.00177-5.23447,0.00204-7.8517c0.00002-0.24509,0.04494-0.48327,0.13838-0.70733
		c0.09216-0.22096,0.24889-0.38606,0.50024-0.43523c0.06377-0.01087,0.08106,0.0416,0.09947,0.08047
		c0.09364,0.19767,0.16965,0.40285,0.2546,0.60426C16.97017,2.8356,16.97151,2.86216,16.95725,2.88674z"/>
	<path fill="#595D5F" d="M16.95725,2.88674c-0.13809-0.24375-0.19855-0.52287-0.35131-0.75994
		c-0.22034-0.32099-0.5293-0.39397-0.89281-0.31428c0.15864-0.30964,0.73898-0.31518,0.96421-0.08273
		c0.14421,0.14882,0.2465,0.31154,0.31785,0.50139c0.0643,0.17111,0.13033,0.34244,0.21027,0.50664
		c0.06332,0.13008,0.01839,0.1592-0.10486,0.14953C17.0531,2.88361,17.00505,2.88674,16.95725,2.88674z"/>
</g>
</svg>
