<?xml version="1.0" encoding="UTF-8" standalone="no"?>
<!-- Generator: Adobe Illustrator 23.0.2, SVG Export Plug-In . SVG Version: 6.00 Build 0)  -->

<svg
   xmlns:dc="http://purl.org/dc/elements/1.1/"
   xmlns:cc="http://creativecommons.org/ns#"
   xmlns:rdf="http://www.w3.org/1999/02/22-rdf-syntax-ns#"
   xmlns:svg="http://www.w3.org/2000/svg"
   xmlns="http://www.w3.org/2000/svg"
   xmlns:sodipodi="http://sodipodi.sourceforge.net/DTD/sodipodi-0.dtd"
   xmlns:inkscape="http://www.inkscape.org/namespaces/inkscape"
   version="1.1"
   x="0px"
   y="0px"
   width="32px"
   height="13px"
   viewBox="0 0 32 13"
   enable-background="new 0 0 32 13"
   xml:space="preserve"
   id="svg396"
   sodipodi:docname="1619101965.svg"
   inkscape:version="0.92.4 (5da689c313, 2019-01-14)"><metadata
   id="metadata402"><rdf:RDF><cc:Work
       rdf:about=""><dc:format>image/svg+xml</dc:format><dc:type
         rdf:resource="http://purl.org/dc/dcmitype/StillImage" /><dc:title></dc:title></cc:Work></rdf:RDF></metadata><defs
   id="defs400"><linearGradient
     id="SVGID_5_-2"
     gradientUnits="userSpaceOnUse"
     x1="12.5455"
     y1="16.3978"
     x2="8.9565001"
     y2="3.5799"
     gradientTransform="translate(-7.838098,1.518378)"><stop
       offset="0.0475"
       style="stop-color:#473B1A"
       id="stop93-4" /><stop
       offset="0.5503"
       style="stop-color:#AD8C41"
       id="stop95-8" /><stop
       offset="0.6864"
       style="stop-color:#BFA258"
       id="stop97-8" /><stop
       offset="0.9819"
       style="stop-color:#F4E79E"
       id="stop99-2" /><stop
       offset="1"
       style="stop-color:#F9ECA4"
       id="stop101-7" /></linearGradient><linearGradient
     id="SVGID_5_-6"
     gradientUnits="userSpaceOnUse"
     x1="12.5455"
     y1="16.3978"
     x2="8.9565001"
     y2="3.5799"
     gradientTransform="translate(-7.838098,1.518378)"><stop
       offset="0.0475"
       style="stop-color:#473B1A"
       id="stop93-48" /><stop
       offset="0.5503"
       style="stop-color:#AD8C41"
       id="stop95-3" /><stop
       offset="0.6864"
       style="stop-color:#BFA258"
       id="stop97-7" /><stop
       offset="0.9819"
       style="stop-color:#F4E79E"
       id="stop99-1" /><stop
       offset="1"
       style="stop-color:#F9ECA4"
       id="stop101-5" /></linearGradient><linearGradient
     id="SVGID_5_-4"
     gradientUnits="userSpaceOnUse"
     x1="12.5455"
     y1="16.3978"
     x2="4.1955242"
     y2="-0.75180733"
     gradientTransform="translate(12.643314,4.829133)"><stop
       offset="0.0475"
       style="stop-color:#473B1A"
       id="stop93-44" /><stop
       offset="0.5503"
       style="stop-color:#AD8C41"
       id="stop95-89" /><stop
       offset="0.6864"
       style="stop-color:#BFA258"
       id="stop97-1" /><stop
       offset="0.9819"
       style="stop-color:#F4E79E"
       id="stop99-9" /><stop
       offset="1"
       style="stop-color:#F9ECA4"
       id="stop101-72" /></linearGradient><linearGradient
     id="SVGID_5_-5"
     gradientUnits="userSpaceOnUse"
     x1="12.5455"
     y1="16.3978"
     x2="6.1608391"
     y2="-1.2784046"
     gradientTransform="translate(16.31073,4.6876101)"><stop
       offset="0.0475"
       style="stop-color:#473B1A"
       id="stop93-1" /><stop
       offset="0.5503"
       style="stop-color:#AD8C41"
       id="stop95-7" /><stop
       offset="0.6864"
       style="stop-color:#BFA258"
       id="stop97-5" /><stop
       offset="0.9819"
       style="stop-color:#F4E79E"
       id="stop99-95" /><stop
       offset="1"
       style="stop-color:#F9ECA4"
       id="stop101-6" /></linearGradient><linearGradient
     id="SVGID_5_-3"
     gradientUnits="userSpaceOnUse"
     x1="12.5455"
     y1="16.3978"
     x2="3.9411614"
     y2="-0.1512626"
     gradientTransform="translate(7.7228777,5.0305732)"><stop
       offset="0.0475"
       style="stop-color:#473B1A"
       id="stop93-7" /><stop
       offset="0.5503"
       style="stop-color:#AD8C41"
       id="stop95-4" /><stop
       offset="0.6864"
       style="stop-color:#BFA258"
       id="stop97-78" /><stop
       offset="0.9819"
       style="stop-color:#F4E79E"
       id="stop99-3" /><stop
       offset="1"
       style="stop-color:#F9ECA4"
       id="stop101-1" /></linearGradient><linearGradient
     id="SVGID_5_-0"
     gradientUnits="userSpaceOnUse"
     x1="12.5455"
     y1="16.3978"
     x2="6.224793"
     y2="1.1603878"
     gradientTransform="translate(3.239503,4.4206938)"><stop
       offset="0.0475"
       style="stop-color:#473B1A"
       id="stop93-9" /><stop
       offset="0.5503"
       style="stop-color:#AD8C41"
       id="stop95-0" /><stop
       offset="0.6864"
       style="stop-color:#BFA258"
       id="stop97-6" /><stop
       offset="0.9819"
       style="stop-color:#F4E79E"
       id="stop99-91" /><stop
       offset="1"
       style="stop-color:#F9ECA4"
       id="stop101-77" /></linearGradient></defs><sodipodi:namedview
   pagecolor="#ffffff"
   bordercolor="#666666"
   borderopacity="1"
   objecttolerance="10"
   gridtolerance="10"
   guidetolerance="10"
   inkscape:pageopacity="0"
   inkscape:pageshadow="2"
   inkscape:window-width="1366"
   inkscape:window-height="746"
   id="namedview398"
   showgrid="false"
   inkscape:zoom="25.625"
   inkscape:cx="18.999258"
   inkscape:cy="2.3206962"
   inkscape:window-x="-8"
   inkscape:window-y="-8"
   inkscape:window-maximized="1"
   inkscape:current-layer="Layer_1" />
<g
   id="Layer_4">
</g>
<g
   id="Layer_1">
	<linearGradient
   id="SVGID_1_"
   gradientUnits="userSpaceOnUse"
   x1="14.485615"
   y1="-15.518925"
   x2="16.130608"
   y2="8.998539">
		<stop
   offset="0"
   style="stop-color:#BE1E2D"
   id="stop3" />
		<stop
   offset="0.1122"
   style="stop-color:#B8212D"
   id="stop5" />
		<stop
   offset="0.2664"
   style="stop-color:#A7252C"
   id="stop7" />
		<stop
   offset="0.4451"
   style="stop-color:#8B282B"
   id="stop9" />
		<stop
   offset="0.63167882"
   style="stop-color:#672627"
   id="stop11" />
		<stop
   offset="0.8517"
   style="stop-color:#401C1E"
   id="stop13" />
		<stop
   offset="0.9944"
   style="stop-color:#220C10"
   id="stop15" />
	</linearGradient>
	<polygon
   points="28.761,1.892 2.932,1.892 0.284,6.566 2.932,11.241 28.781,11.241 31.813,6.566  "
   id="polygon18"
   fill="url(#SVGID_1_)"
   style="fill:url(#SVGID_1_)" />
	<path
   opacity="0.29"
   d="M28.605,1.619l-25.113,0L0.923,6.566l3,4.947H28.53l2.644-4.947L28.605,1.619z M27.635,10.804H4.434   L1.944,6.566l2.489-4.238l23.256,0l2.217,3.765l0.246,0.474L27.635,10.804z"
   id="path20" />
	<linearGradient
   id="SVGID_2_"
   gradientUnits="userSpaceOnUse"
   x1="16.0721"
   y1="7.7938"
   x2="16.0721"
   y2="1.6194"
   gradientTransform="translate(5.6844487,-8.3335121)">
		<stop
   offset="0"
   style="stop-color:#000000"
   id="stop22" />
		<stop
   offset="0.29"
   style="stop-color:#1B0A09"
   id="stop24" />
		<stop
   offset="1"
   style="stop-color:#441113"
   id="stop26" />
	</linearGradient>
	
	<path
   opacity="0.41"
   d="M28.534,1.468l-25.054,0L0.51,6.566l2.97,5.098H28.48l3.107-5.098L28.534,1.468z M27.953,10.934H4.006   L1.5,6.566l2.506-4.367h24.002l2.272,3.879l0.253,0.488L27.953,10.934z"
   id="path31" />
	<g
   id="g62">
		<linearGradient
   id="SVGID_3_"
   gradientUnits="userSpaceOnUse"
   x1="16.5254"
   y1="13.6627"
   x2="15.7054"
   y2="1.465">
			<stop
   offset="0"
   style="stop-color:#130E0F"
   id="stop33" />
			<stop
   offset="0.0946"
   style="stop-color:#201B1C"
   id="stop35" />
			<stop
   offset="0.2038"
   style="stop-color:#2C2829"
   id="stop37" />
			<stop
   offset="0.3085"
   style="stop-color:#343233"
   id="stop39" />
			<stop
   offset="0.4063"
   style="stop-color:#3A393A"
   id="stop41" />
			<stop
   offset="0.4943"
   style="stop-color:#3E3E3F"
   id="stop43" />
			<stop
   offset="0.5642"
   style="stop-color:#414042"
   id="stop45" />
			<stop
   offset="0.6239"
   style="stop-color:#363436"
   id="stop47" />
			<stop
   offset="0.7163"
   style="stop-color:#2A2627"
   id="stop49" />
			<stop
   offset="0.8032"
   style="stop-color:#201B1C"
   id="stop51" />
			<stop
   offset="0.8821"
   style="stop-color:#181314"
   id="stop53" />
			<stop
   offset="0.9503"
   style="stop-color:#130E0F"
   id="stop55" />
			<stop
   offset="1"
   style="stop-color:#110C0D"
   id="stop57" />
		</linearGradient>
		<path
   fill="url(#SVGID_3_)"
   d="M28.79,1.124H3.306L0.16,6.566l3.147,5.443h25.409l3.222-5.443L28.79,1.124z M28.185,11.229H3.912    L1.221,6.566l2.691-4.663h24.273l2.691,4.663L28.185,11.229z"
   id="path60" />
	</g>
	<linearGradient
   id="SVGID_4_"
   gradientUnits="userSpaceOnUse"
   x1="64.26989"
   y1="9.4027004"
   x2="41.895302"
   y2="6.6761513">
		<stop
   offset="0"
   style="stop-color:#AB893E"
   id="stop64" />
		<stop
   offset="0.0555"
   style="stop-color:#A4833B"
   id="stop66" />
		<stop
   offset="0.1566"
   style="stop-color:#907533"
   id="stop68" />
		<stop
   offset="0.2654"
   style="stop-color:#776028"
   id="stop70" />
		<stop
   offset="0.5503"
   style="stop-color:#AD8C41"
   id="stop72" />
		<stop
   offset="0.6864"
   style="stop-color:#BFA258"
   id="stop74" />
		<stop
   offset="0.9819"
   style="stop-color:#F4E79E"
   id="stop76" />
		<stop
   offset="1"
   style="stop-color:#F9ECA4"
   id="stop78" />
	</linearGradient>
	<path
   fill="url(#SVGID_4_)"
   d="M28.787,12.134H3.234L0.015,6.566l3.219-5.567h25.629l3.219,5.568L28.787,12.134z M3.378,11.884   h25.266l3.148-5.319l-3.074-5.316H3.378L0.304,6.566L3.378,11.884z M28.257,11.354H3.839L1.076,6.566l2.763-4.788h24.418   l2.763,4.788L28.257,11.354z M3.984,11.104h24.129l2.618-4.538l-2.618-4.538H3.984L1.365,6.566L3.984,11.104z"
   id="path81"
   style="fill:url(#SVGID_4_)" />
	
	<g
   id="g145"
   transform="translate(7.9103148,7.7972308)">
		<linearGradient
   id="SVGID_5_"
   gradientUnits="userSpaceOnUse"
   x1="11.765012"
   y1="13.392922"
   x2="6.9662561"
   y2="2.4091682"
   gradientTransform="translate(-10.982576,-3.4768958)">
			<stop
   offset="0.0475"
   style="stop-color:#473B1A"
   id="stop93" />
			<stop
   offset="0.5503"
   style="stop-color:#AD8C41"
   id="stop95" />
			<stop
   offset="0.6864"
   style="stop-color:#BFA258"
   id="stop97" />
			<stop
   offset="0.9819"
   style="stop-color:#F4E79E"
   id="stop99" />
			<stop
   offset="1"
   style="stop-color:#F9ECA4"
   id="stop101" />
		</linearGradient>
		<path
   d="m -2.1364749,0.23892225 c -0.4093669,0.0745033 -0.8187338,0.13274559 -1.2281007,0.002645 l 0.020683,-3.18165855 1.4439025,-0.013976 0.94169367,1.5671694 1.14860374,-1.5384809 1.24445659,0.020053 0.105309,3.16358407 C 0.87781654,0.35219217 0.49729635,0.32741407 0.30330941,0.21322817 l -0.0737519,-1.72177857 -0.73676785,1.16878231 c -0.25007315,0.0849168 -0.45232671,0.23678105 -0.95081766,-0.0260871 l -0.6760505,-1.11471321 -0.0088,0.3482488 z"
   id="path104"
   style="fill:url(#SVGID_5_)"
   inkscape:connector-curvature="0"
   sodipodi:nodetypes="ccccccccccccccc" />
		<linearGradient
   id="SVGID_6_"
   gradientUnits="userSpaceOnUse"
   x1="10.3896"
   y1="16.3978"
   x2="6.8006001"
   y2="3.5799"
   gradientTransform="translate(2.9801964,3.7528399)">
			<stop
   offset="0.0475"
   style="stop-color:#473B1A"
   id="stop106" />
			<stop
   offset="0.5503"
   style="stop-color:#AD8C41"
   id="stop108" />
			<stop
   offset="0.6864"
   style="stop-color:#BFA258"
   id="stop110" />
			<stop
   offset="0.9819"
   style="stop-color:#F4E79E"
   id="stop112" />
			<stop
   offset="1"
   style="stop-color:#F9ECA4"
   id="stop114" />
		</linearGradient>
		
		<linearGradient
   id="SVGID_7_"
   gradientUnits="userSpaceOnUse"
   x1="24.686899"
   y1="15.1774"
   x2="21.0979"
   y2="2.3594999">
			<stop
   offset="0.0475"
   style="stop-color:#473B1A"
   id="stop119" />
			<stop
   offset="0.5503"
   style="stop-color:#AD8C41"
   id="stop121" />
			<stop
   offset="0.6864"
   style="stop-color:#BFA258"
   id="stop123" />
			<stop
   offset="0.9819"
   style="stop-color:#F4E79E"
   id="stop125" />
			<stop
   offset="1"
   style="stop-color:#F9ECA4"
   id="stop127" />
		</linearGradient>
		
		<linearGradient
   id="SVGID_8_"
   gradientUnits="userSpaceOnUse"
   x1="26.889999"
   y1="15.1774"
   x2="23.301001"
   y2="2.3594999">
			<stop
   offset="0.0475"
   style="stop-color:#473B1A"
   id="stop132" />
			<stop
   offset="0.5503"
   style="stop-color:#AD8C41"
   id="stop134" />
			<stop
   offset="0.6864"
   style="stop-color:#BFA258"
   id="stop136" />
			<stop
   offset="0.9819"
   style="stop-color:#F4E79E"
   id="stop138" />
			<stop
   offset="1"
   style="stop-color:#F9ECA4"
   id="stop140" />
		</linearGradient>
		
	</g>
	
	<g
   opacity="0.42"
   id="g313">
		
		
		
		
	</g>
	<g
   id="g391">
		<linearGradient
   id="SVGID_17_"
   gradientUnits="userSpaceOnUse"
   x1="5.0436"
   y1="4.7014"
   x2="4.1564612"
   y2="1.1375829">
			<stop
   offset="0"
   style="stop-color:#AB893E"
   id="stop315" />
			<stop
   offset="0.0555"
   style="stop-color:#A4833B"
   id="stop317" />
			<stop
   offset="0.1566"
   style="stop-color:#907533"
   id="stop319" />
			<stop
   offset="0.2654"
   style="stop-color:#776028"
   id="stop321" />
			<stop
   offset="0.5503"
   style="stop-color:#AD8C41"
   id="stop323" />
			<stop
   offset="0.6864"
   style="stop-color:#BFA258"
   id="stop325" />
			<stop
   offset="0.9819"
   style="stop-color:#F4E79E"
   id="stop327" />
			<stop
   offset="1"
   style="stop-color:#F9ECA4"
   id="stop329" />
		</linearGradient>
		
		
			<linearGradient
   id="SVGID_18_"
   gradientUnits="userSpaceOnUse"
   x1="668.0353"
   y1="-138.2151"
   x2="667.69446"
   y2="-140.95941"
   gradientTransform="matrix(-1 9.593306e-06 -1.338530e-05 -1 694.9589 -129.9639)">
			<stop
   offset="0"
   style="stop-color:#AB893E"
   id="stop334" />
			<stop
   offset="0.0555"
   style="stop-color:#A4833B"
   id="stop336" />
			<stop
   offset="0.1566"
   style="stop-color:#907533"
   id="stop338" />
			<stop
   offset="0.2654"
   style="stop-color:#776028"
   id="stop340" />
			<stop
   offset="0.5503"
   style="stop-color:#AD8C41"
   id="stop342" />
			<stop
   offset="0.6864"
   style="stop-color:#BFA258"
   id="stop344" />
			<stop
   offset="0.9819"
   style="stop-color:#F4E79E"
   id="stop346" />
			<stop
   offset="1"
   style="stop-color:#F9ECA4"
   id="stop348" />
		</linearGradient>
		
		
			<linearGradient
   id="SVGID_19_"
   gradientUnits="userSpaceOnUse"
   x1="347.8471"
   y1="4.7307"
   x2="347.21121"
   y2="2.3280001"
   gradientTransform="matrix(-1 0 0 1 374.9002 0)">
			<stop
   offset="0"
   style="stop-color:#AB893E"
   id="stop353" />
			<stop
   offset="0.0555"
   style="stop-color:#A4833B"
   id="stop355" />
			<stop
   offset="0.1566"
   style="stop-color:#907533"
   id="stop357" />
			<stop
   offset="0.2654"
   style="stop-color:#776028"
   id="stop359" />
			<stop
   offset="0.5503"
   style="stop-color:#AD8C41"
   id="stop361" />
			<stop
   offset="0.6864"
   style="stop-color:#BFA258"
   id="stop363" />
			<stop
   offset="0.9819"
   style="stop-color:#F4E79E"
   id="stop365" />
			<stop
   offset="1"
   style="stop-color:#F9ECA4"
   id="stop367" />
		</linearGradient>
		
		
			<linearGradient
   id="SVGID_20_"
   gradientUnits="userSpaceOnUse"
   x1="325.1087"
   y1="-138.2184"
   x2="324.5976"
   y2="-140.89479"
   gradientTransform="matrix(1 9.593351e-06 1.338534e-05 -1 -320.0587 -129.9639)">
			<stop
   offset="0"
   style="stop-color:#AB893E"
   id="stop372" />
			<stop
   offset="0.0555"
   style="stop-color:#A4833B"
   id="stop374" />
			<stop
   offset="0.1566"
   style="stop-color:#907533"
   id="stop376" />
			<stop
   offset="0.2654"
   style="stop-color:#776028"
   id="stop378" />
			<stop
   offset="0.5503"
   style="stop-color:#AD8C41"
   id="stop380" />
			<stop
   offset="0.6864"
   style="stop-color:#BFA258"
   id="stop382" />
			<stop
   offset="0.9819"
   style="stop-color:#F4E79E"
   id="stop384" />
			<stop
   offset="1"
   style="stop-color:#F9ECA4"
   id="stop386" />
		</linearGradient>
		
	</g>
<path
   d="m 21.528439,8.0278778 -1.384198,0.012401 0.02068,-3.1816585 c 0.463903,-0.086775 0.838865,-0.080069 1.278048,-0.043244 0.478055,-0.069257 1.149974,0.016685 1.809088,0.076756 0.06588,0.1952438 0.103433,0.3904875 0.01471,0.5857313 l -1.728746,-4.712e-4 -0.0084,0.5587817 1.275623,0.017507 c 0.174756,0.2646002 0.08746,0.4767905 0.0092,0.6907867 l -1.283535,-0.016569 9.56e-4,0.4360537 -3.8e-5,0.1676642 1.722246,0.020829 c 0.0754,0.2429684 0.08254,0.47456 0.0019,0.6915215 z"
   id="path104-8"
   style="fill:url(#SVGID_5_-4)"
   inkscape:connector-curvature="0"
   sodipodi:nodetypes="cccccccccccccccc" /><path
   d="m 25.172996,8.0251886 c -0.41568,0.084948 -0.833965,0.1386251 -1.267818,0.0055 l 0.0072,-3.1742697 1.218819,-0.018507 0.256937,-0.00619 0.209665,0.00717 0.234725,0.020741 0.253357,0.028453 0.231351,0.055661 0.226545,0.08029 0.198669,0.085826 0.241152,0.1159137 0.147959,0.089041 0.135576,0.1916619 0.0596,0.2384694 -0.02955,0.2376899 -0.03341,0.2167725 -0.128544,0.1435552 -0.110744,0.1486014 -0.160057,0.1319877 -0.160163,0.060197 1.059432,1.3516614 c -0.48479,0.089992 -0.939848,0.090788 -1.369457,0.015236 l -1.007812,-1.4471263 0.224868,-0.094525 0.24498,-0.1724895 0.109677,-0.1745509 0.0627,-0.191507 0.0057,-0.1805338 -0.118698,-0.1362537 -0.121745,-0.062494 -0.195331,-0.057002 -0.200318,-0.00608 -0.22172,0.024402 -0.01726,1.1314398 -0.0088,0.3482488 z"
   id="path104-56"
   style="fill:url(#SVGID_5_-5)"
   inkscape:connector-curvature="0"
   sodipodi:nodetypes="ccccccccccccccccccccccccccccccccccccc" /><path
   d="m 16.598247,8.122001 -1.257369,-0.026623 -0.0281,-3.2401951 1.268292,-0.033488 -0.0097,0.7320351 0.02047,1.8116634 0.303014,0.016273 0.367447,0.00999 0.254858,-0.066255 0.213971,-0.082292 0.193702,-0.1405335 0.149093,-0.1527974 0.100443,-0.3345718 -0.01301,-0.3712023 -0.08125,-0.2429339 -0.180294,-0.1956643 -0.258588,-0.171438 -0.222342,-0.057442 -0.273181,-0.041283 -0.574327,0.018489 0.0097,-0.7320373 0.61413,0.049437 0.321147,0.010375 0.309734,0.024135 0.307132,0.065072 0.302187,0.1154514 0.26042,0.1178197 0.299082,0.2138534 0.205097,0.2163778 c 0.04455,0.074608 0.142514,0.1297041 0.162474,0.2043122 l 0.0978,0.244401 0.03613,0.2372041 -0.01083,0.3639754 -0.05442,0.2799487 -0.128408,0.2739746 -0.141701,0.1850876 -0.159587,0.161549 -0.243685,0.1331941 -0.203843,0.090251 -0.258685,0.1097646 -0.288315,0.06015 -0.391717,0.082777 -0.374951,0.041002 -0.32303,0.010142 z"
   id="path104-1"
   style="fill:url(#SVGID_5_-3)"
   inkscape:connector-curvature="0"
   sodipodi:nodetypes="ccccccccccccccccccccccccccccccccccccccccccccc" /><path
   d="m 11.632664,5.9370411 -0.06056,0.1227787 -0.931037,-0.7045699 0.197825,-0.1840734 0.290206,-0.133876 0.260496,-0.1005269 0.274445,-0.057463 0.242165,-0.030657 0.241241,-0.030383 0.307018,-0.011066 0.273057,0.010025 0.256908,0.033879 0.214794,0.041332 0.207166,0.044877 c 0.06445,0.021095 0.208967,0.053324 0.193359,0.058407 l 0.204822,0.096893 0.187468,0.1017201 0.187706,0.1443609 0.178363,0.1930074 0.128659,0.2038423 0.08883,0.1863836 0.05444,0.2014473 0.01793,0.2353692 0.0144,0.2952728 -0.01096,0.2102641 -0.09045,0.2365393 -0.112286,0.2066115 -0.180743,0.2249535 -0.210416,0.1795485 -0.237381,0.1430514 -0.239553,0.1064748 -0.219515,0.05473 -0.244615,0.057428 -0.261859,0.042236 -0.253719,-0.00371 -0.201347,0.014925 -0.215565,-0.00674 -0.196203,-0.011963 -0.25417,-0.030923 -0.230695,-0.052485 -0.192779,-0.049416 -0.183298,-0.073103 -0.166299,-0.074958 -0.128797,-0.1091982 -0.142372,-0.09938 -0.1488,-0.1401135 -0.09526,-0.1067502 -0.07073,-0.1398841 -0.08055,-0.1224049 -0.03962,-0.1514788 -0.05123,-0.152689 -0.0092,-0.170665 -0.0031,-0.1724981 -4.86e-4,-0.1557109 0.0099,-0.1823452 0.02234,-0.1649406 0.08471,-0.2080471 0.094,-0.1642612 0.123945,-0.129483 0.115856,-0.1023774 0.931037,0.7045699 -0.0192,0.2021797 -0.01119,0.162611 -0.0156,0.2130324 0.02493,0.2452943 0.128666,0.2804091 0.16001,0.1349604 0.214205,0.092863 0.203824,0.029477 0.247125,0.00103 0.286759,-0.047974 0.242749,-0.116506 0.150691,-0.1724946 0.06905,-0.1993536 0.01717,-0.2638157 1.81e-4,-0.278965 -0.02857,-0.2619656 -0.0838,-0.2290488 -0.162255,-0.162839 -0.152766,-0.074543 -0.23219,-0.050833 -0.271838,-0.034162 -0.248753,0.022645 -0.185891,0.093925 -0.171136,0.1537175 z"
   id="path104-9"
   style="fill:url(#SVGID_5_-0)"
   inkscape:connector-curvature="0"
   sodipodi:nodetypes="cccccccccccccccccccccccccccccccccccccccccccccccccccccccccccccccccccccccccccccccccccccc" /></g>
<g
   id="Layer_3"
   display="none">
</g>
<g
   id="guides"
   display="none">
</g>
</svg>