<?xml version="1.0" encoding="utf-8"?>
<!-- Generator: Adobe Illustrator 23.0.0, SVG Export Plug-In . SVG Version: 6.00 Build 0)  -->
<svg version="1.1" id="Слой_1" xmlns="http://www.w3.org/2000/svg" xmlns:xlink="http://www.w3.org/1999/xlink" x="0px" y="0px" width="32px" height="13px"
	 viewBox="0 0 32 13" enable-background="new 0 0 32 13" xml:space="preserve">
<g>
	<path fill="#2D2D2D" d="M0.86438,12.99689c-0.02129,0-0.04257,0-0.06386,0c-0.33183-0.05126-0.56626-0.23332-0.72469-0.52323
		c-0.04681-0.08566-0.04517-0.18058-0.07358-0.26911c0-2.20796,0-4.41593,0-6.6239c0.03484-0.02885,0.07491-0.03615,0.11867-0.0287
		c0.30471,0.10753,0.41072,0.26299,0.41096,0.61574c0.00116,1.65234,0.00038,3.30467,0.00055,4.95701
		c0.00003,0.25339-0.00339,0.50683,0.00116,0.76017c0.0063,0.35067,0.20489,0.54537,0.55886,0.55347
		c0.06912,0.00158,0.13828,0.00062,0.20742,0.00062c5.03139,0.00002,10.06278,0.00001,15.09417,0.00004
		c0.07446,0,0.14894-0.00118,0.22337,0.00091c0.30537,0.00858,0.46824,0.1301,0.56346,0.41944
		c0.00416,0.04391-0.00023,0.08515-0.03737,0.11586c-0.06345,0.01024-0.12743,0.00507-0.19116,0.00508
		c-5.29465,0.00028-10.58931,0.00018-15.88396,0.00114C1.00052,12.98146,0.93019,12.9644,0.86438,12.99689z"/>
	<path fill="#262727" d="M31.99691,6.78501c-0.06809,0.03773-0.04715,0.11021-0.0594,0.16591
		c-0.39912,1.81492-1.17801,3.443-2.43218,4.8313c-0.4517,0.50001-0.98541,0.89516-1.64168,1.10545
		c-0.12238,0.03921-0.25887,0.03076-0.36898,0.10923c-0.05322,0-0.10644,0-0.15965,0
		c-0.06033-0.03172-0.1254-0.01548-0.18795-0.0155c-3.31336-0.00108-6.62672-0.00052-9.94008-0.00103
		c-0.02224,0.00184-0.04137-0.00496-0.05738-0.02038c-0.00017-0.02995-0.00034-0.05991-0.00051-0.08987
		c0.08267-0.06982,0.18268-0.04486,0.27569-0.04491c2.59014-0.0014,5.18027-0.00111,7.77041-0.00111
		c0.64355,0,1.2872-0.00727,1.9306,0.00236c0.49167,0.00736,0.93093-0.14304,1.34224-0.3928
		c0.301-0.18277,0.55404-0.4214,0.80717-0.66499c0.73802-0.71021,1.25873-1.56714,1.6928-2.47521
		c0.38063-0.7963,0.69538-1.62145,0.83759-2.5003c0.01682-0.10392,0.00055-0.21207,0.04271-0.31225
		c0.0232-0.0356,0.0571-0.0408,0.09553-0.03289c0.04341,0.0116,0.02779,0.06034,0.05309,0.08344
		C31.99691,6.61598,31.99691,6.7005,31.99691,6.78501z"/>
	<path fill="#1A1A1A" d="M31.96232,6.46722c-0.03099,0.00035-0.06199,0.0007-0.09298,0.00106
		c-0.04772,0.02091-0.07377,0.0121-0.06416-0.04599c0.06061-0.1573,0.01527-0.31387-0.01158-0.46757
		c-0.12272-0.70242-0.36961-1.36663-0.66622-2.01134c-0.40354-0.87713-0.89063-1.70878-1.52856-2.439
		c-0.39678-0.45418-0.846-0.86123-1.39323-1.14126c-0.38106-0.195-0.78998-0.27983-1.21652-0.28014
		c-1.76632-0.00125-3.53264-0.00052-5.29897-0.00052c-5.45857,0-10.91714-0.00002-16.37572,0.00013
		c-0.11167,0-0.22393-0.00668-0.33359,0.02279C4.95084,0.11189,4.92434,0.10824,4.90674,0.07972
		c-0.0107-0.02808-0.00696-0.05389,0.01285-0.07707c7.5676,0,15.1352,0,22.7028,0c0.54719,0.15612,1.03094,0.4241,1.46038,0.79588
		c0.58689,0.50809,1.05576,1.11141,1.46036,1.76593c0.62528,1.01151,1.10949,2.08305,1.37423,3.24579
		c0.02358,0.10358,0.01354,0.21627,0.07955,0.3092c0,0.06339,0,0.12677,0,0.19016
		C31.95632,6.35586,32.00553,6.42153,31.96232,6.46722z"/>
	<path fill="#252525" d="M4.91959,0.00265C4.91953,0.02374,4.91948,0.04483,4.91942,0.06593
		c-0.08125,0.07212-0.18151,0.049-0.2746,0.04914C3.43704,0.11694,2.22925,0.11373,1.02148,0.11741
		c-0.52593,0.0016-0.86555,0.34356-0.87262,0.8654C0.14807,1.0409,0.14857,1.099,0.14857,1.15709
		C0.14854,2.54072,0.14909,3.92435,0.14745,5.30798c-0.00011,0.09241,0.02313,0.1919-0.04936,0.27263
		C0.06614,5.58063,0.03419,5.58065,0.00225,5.58067c0-1.61636,0-3.23271,0-4.84907c0.05855-0.37618,0.26539-0.62436,0.63862-0.72895
		C2.06711,0.00265,3.49335,0.00265,4.91959,0.00265z"/>
	<path fill="#697681" d="M17.1496,12.95999c0.00971,0.00373,0.01962,0.00684,0.02972,0.00935
		c0.01135,0.00546,0.01536,0.01135,0.0121,0.0177c-0.00336,0.00656-0.00681,0.00985-0.0104,0.00985
		c-5.43888,0-10.87776,0-16.31664,0c0.04292-0.06314,0.1075-0.03102,0.16094-0.03103
		c5.32693-0.00157,10.65386-0.00146,15.98079-0.00165C17.05394,12.96421,17.10177,12.96145,17.1496,12.95999z"/>
	<path fill="#535F69" d="M17.18102,12.99689c-0.00011-0.00922-0.00067-0.01842-0.00169-0.02757
		c0.05315-0.00135,0.1063-0.00391,0.15946-0.00392c3.28301-0.00031,6.56602-0.00052,9.84904,0.0004
		c0.04974,0.00001,0.10786-0.02364,0.14719,0.03109C23.95035,12.99689,20.56568,12.99689,17.18102,12.99689z"/>
	<path fill="#404C56" d="M31.96232,6.46722c0.01474-0.05184-0.02379-0.1152,0.03459-0.1576c0,0.07395,0,0.1479,0,0.22185
		C31.96879,6.51885,31.96571,6.49295,31.96232,6.46722z"/>
	<path fill="#202020" d="M0.09808,5.58061c-0.00002-1.54011-0.00012-3.08022,0-4.62033
		c0.00004-0.51903,0.37744-0.89412,0.8997-0.8942C2.305,0.06589,3.61221,0.06596,4.91942,0.06593
		c0.01064,0.01064,0.02128,0.02128,0.03193,0.03192c0.04366,0.02486,0.0649,0.06882,0.09224,0.10741
		c0.08564,0.12087,0.2045,0.18094,0.35126,0.19C5.4799,0.40051,5.56508,0.39828,5.6502,0.39828
		c7.02903,0.00009,14.05806,0.00473,21.08706-0.00879c0.55949-0.00108,1.03711,0.1602,1.51205,0.41332
		c0.69131,0.36843,1.18741,0.92961,1.63128,1.55255c0.4435,0.62242,0.72927,1.32302,1.03921,2.01193
		c0.17585,0.39088,0.33203,0.78997,0.43041,1.20823c0.07687,0.32683,0.1607,0.64821,0.45495,0.86106
		c0.01393,0.02544,0.0379,0.03087,0.06417,0.03169c0.00679,0.4485-0.11965,0.87264-0.25237,1.29329
		C31.47009,8.22714,31.28036,8.6759,31.0855,9.1251c-0.31538,0.72701-0.72503,1.39095-1.19183,2.02606
		c-0.20607,0.28037-0.46843,0.50803-0.70507,0.75982c-0.29875,0.31787-0.64621,0.55719-1.03588,0.74066
		c-0.29409,0.13847-0.60365,0.22004-0.93493,0.21982c-3.35623-0.00217-6.71246-0.00134-10.06869-0.00135
		c-0.10196-0.29204-0.31434-0.38412-0.6164-0.38384c-5.14297,0.0049-10.28595,0.00073-15.4289,0.00971
		c-0.34754,0.00061-0.63121-0.28369-0.6289-0.61815C0.48795,9.9828,0.47759,8.08761,0.48492,6.19251
		C0.48608,5.89258,0.39217,5.68193,0.09808,5.58061z"/>
	<path fill="#131313" d="M31.80517,6.43658c-0.22489-0.05813-0.3148-0.23908-0.38186-0.43071
		c-0.12856-0.36732-0.19735-0.7517-0.34122-1.11654c-0.1529-0.38775-0.32437-0.76677-0.49199-1.14767
		c-0.26204-0.59546-0.58978-1.15121-0.98067-1.67578c-0.54525-0.73173-1.2497-1.23284-2.10033-1.54995
		c-0.14279-0.05323-0.28385-0.07107-0.43435-0.07104C19.86969,0.44658,12.66463,0.44637,5.45958,0.44632
		c-0.29313,0-0.45802-0.11334-0.50822-0.34847c0.00567-0.04424,0.03182-0.06363,0.07582-0.06307
		c0.04254,0.00054,0.0851-0.00036,0.12766-0.00036c7.30342-0.00002,14.60684-0.00124,21.91025,0.00247
		c0.54106,0.00027,1.03348,0.16839,1.48521,0.47661c0.17302,0.11805,0.33561,0.24957,0.50583,0.37034
		c0.13077,0.09278,0.21323,0.25094,0.3406,0.35049c0.23318,0.18225,0.41111,0.41171,0.5741,0.64783
		c0.25722,0.37263,0.50623,0.75076,0.73421,1.14418c0.39927,0.68901,0.70756,1.41264,0.95338,2.16584
		c0.121,0.37076,0.18998,0.7521,0.24066,1.13741C31.90853,6.40144,31.88472,6.44263,31.80517,6.43658z"/>
	<path fill="#262626" d="M14.95549,12.10944c-5.15435,0-9.422,0.00001-13.68965-0.00001c-0.36234,0-0.40141-0.03833-0.40141-0.39412
		C0.8644,8.21355,0.86439,4.71179,0.86445,1.21004C0.86445,0.87193,0.9092,0.82675,1.24481,0.82675
		c8.54595-0.00006,17.0919,0.00057,25.63785-0.00129c0.64306-0.00014,1.1767,0.2358,1.652,0.65803
		c0.18985,0.16866,0.37297,0.34762,0.53349,0.53511c0.17817,0.20812,0.34651,0.43267,0.50142,0.6646
		c0.29668,0.4442,0.55421,0.9084,0.7869,1.3867c0.31754,0.65272,0.57745,1.3282,0.70186,2.0445
		c0.05216,0.30034,0.01904,0.60867-0.06058,0.90786c-0.15653,0.58822-0.34366,1.163-0.60916,1.71576
		c-0.12942,0.26945-0.24689,0.54952-0.38819,0.81145c-0.19776,0.3666-0.41919,0.72209-0.67868,1.05535
		c-0.32757,0.4207-0.67806,0.81656-1.11543,1.12055c-0.28087,0.19522-0.59633,0.34579-0.95557,0.3522
		C22.85691,12.15603,18.46272,12.07866,14.95549,12.10944z"/>
	<path fill="#2F293B" d="M27.84544,1.11161c0.22199,0.15658,0.47245,0.26324,0.67823,0.45433
		c0.27591,0.25623,0.52407,0.53298,0.74782,0.83054c0.60913,0.81007,1.06618,1.70215,1.41321,2.6509
		c0.02162,0.0591,0.04383,0.11902,0.03462,0.18426c-0.02939,0.11741-0.06034,0.23444-0.08583,0.35278
		c-0.11164,0.51818-0.63287,0.7655-0.96696,0.78292C29.09265,6.26061,28.6245,5.98,28.22118,5.56
		c-0.45516-0.47399-0.98467-0.85936-1.6193-1.06429c-0.75827-0.24486-1.53097-0.43868-2.32182-0.55419
		c-0.21498-0.0314-0.43331-0.03966-0.64531-0.09124c-0.01491-0.00608-0.02883-0.01416-0.04188-0.02352
		c-0.17787-0.2142-0.34675-0.4349-0.54702-0.63201C22.77991,2.933,22.48626,2.71473,22.1548,2.5444
		c-0.04708-0.02419-0.0931-0.05003-0.13321-0.08522c-0.31426-0.17709-0.66382-0.24072-1.01065-0.31509
		c-0.80006-0.17156-1.54195,0.02467-2.26466,0.34662c-0.03855,0.01717-0.07465,0.04-0.10578,0.06957
		c-0.04495,0.03304-0.09199,0.06248-0.14212,0.08721c-0.0139,0.00807-0.03045,0.01312-0.04151,0.02363
		c-0.24408,0.232-0.54339,0.24006-0.85934,0.23757c-1.21746-0.0096-2.43505-0.00395-3.65259-0.00377
		c-0.09042,0.00001-0.18075-0.00056-0.2706-0.00832c-0.01854-0.00129-0.0369-0.00507-0.05463-0.01059
		c-0.17912-0.10063-0.34697-0.21998-0.52824-0.31838c-0.59003-0.3203-1.23071-0.43344-1.89237-0.46509
		c-0.02839-0.00236-0.05594-0.0079-0.08273-0.01766c-0.08038-0.03161-0.16344-0.03932-0.24958-0.03904
		C8.99765,2.05177,7.1285,2.04799,5.25935,2.04827C4.80041,2.04834,4.5012,1.83674,4.3408,1.40653
		c-0.01066-0.06563-0.03703-0.1285-0.03788-0.19615C4.29863,1.17206,4.3006,1.13368,4.3011,1.09518
		c0.00385-0.05901-0.00585-0.12355,0.06387-0.15591C4.97663,0.93649,5.58821,0.9382,6.1998,0.93818
		c7.00936-0.00017,14.01871-0.00009,21.02782-0.00014c0.15706,0.02004,0.31321,0.04485,0.45942,0.11041l-0.00074-0.00056
		C27.73591,1.07758,27.79434,1.08557,27.84544,1.11161z"/>
	<path fill="#4C4158" d="M13.57156,12.01328c-3.51934,0.00037-7.03869,0.00069-10.55803,0.00161
		C2.95425,12.0149,2.89686,12.012,2.84359,11.98343c-0.13763-0.00289-0.22046-0.09821-0.29894-0.18814
		c-0.15796-0.18101-0.24028-0.3954-0.25288-0.6358c-0.01336-0.25497-0.05331-0.29295-0.3168-0.30889
		c-0.43575-0.02636-0.92086-0.44474-0.98814-0.85111C0.97733,9.9421,0.96607,9.88562,0.98977,9.82923
		C0.981,9.7854,0.97222,9.74157,0.96344,9.69773C0.9862,9.65265,0.97616,9.60425,0.97617,9.5574
		c0.00053-2.07016,0.00053-4.14031,0-6.21047c-0.00001-0.04685,0.01-0.09525-0.01269-0.14035
		C0.96263,3.19586,0.96179,3.18513,0.96094,3.17441C1.01347,2.97763,1.10456,2.7993,1.24603,2.65283
		c0.10503-0.10875,0.2138-0.22737,0.39468-0.1878c0.26522,0.12086,0.36007,0.33336,0.35957,0.61375
		C1.99713,4.82524,1.99949,6.57172,1.99787,8.3182C1.99755,8.66391,2.1161,8.94685,2.40819,9.14682
		C2.56632,9.25507,2.74443,9.29956,2.93484,9.3041c0.08404,0.002,0.17112-0.01207,0.24849,0.03553
		c0.04409,0.09945-0.05622,0.1087-0.09986,0.14659c-0.23613,0.205-0.21518,0.55558,0.0465,0.71116
		c0.19788,0.11765,0.4486,0.06682,0.57953-0.11749c0.13269-0.18679,0.10085-0.42815-0.07255-0.58439
		C3.59053,9.45367,3.5053,9.44,3.51675,9.34983C3.57429,9.29832,3.64589,9.3064,3.71403,9.30609
		c0.34043-0.00152,0.6809-0.00344,1.02131,0.00022C5.08792,9.3101,5.34118,9.50833,5.43264,9.8451
		c0.14185,0.52234,0.4473,0.75829,0.98874,0.75927c0.73939,0.00134,1.47878,0.00079,2.21817,0.00006
		c0.21413-0.00021,0.22266-0.00993,0.22403-0.22461c0.00071-0.11087-0.00637-0.22223,0.00173-0.33251
		c0.01059-0.1443-0.03694-0.22768-0.19122-0.254C8.60484,9.78151,8.49384,9.78482,8.50541,9.65804
		C8.64872,9.6208,8.776,9.68145,8.90267,9.72918C8.98411,9.75986,8.98833,9.84336,8.9902,9.91799
		c0.00527,0.21047-0.00063,0.42105,0.00297,0.63154c0.00279,0.16319,0.01776,0.17991,0.18597,0.17876
		c0.51161-0.00352,0.44289,0.06094,0.44828-0.42762c0.00331-0.29996-0.00585-0.60009,0.00407-0.89991
		C9.63657,9.24683,9.66699,9.2269,9.81084,9.24928c0.05365,0.06849,0.04275,0.14989,0.04325,0.2278
		c0.00203,0.31595-0.00111,0.63193,0.0022,0.94787c0.00063,0.06024-0.01187,0.13064,0.06441,0.1637
		c0.10093,0.04374,0.18109-0.01127,0.18355-0.13668c0.00611-0.31062-0.00114-0.6214,0.00415-0.93202
		c0.00126-0.07363-0.02201-0.16294,0.07463-0.2053c0.06887,0.06209,0.05225,0.1458,0.05286,0.22276
		c0.00266,0.33265-0.00076,0.66534,0.0019,0.99799c0.00139,0.17394,0.01962,0.19057,0.19195,0.19393
		c0.10636,0.00207,0.21279,0.00037,0.31918,0.00007c0.07273-0.00021,0.1365-0.01815,0.18322-0.07761
		c0.04636-0.0405,0.10183-0.05469,0.16189-0.05576c0.03712-0.00024,0.07433,0.00213,0.11119,0.00588
		c0.13006,0.01322,0.18175-0.04419,0.18048-0.17291c-0.00311-0.31616-0.00238-0.63241-0.0001-0.94861
		c0.00056-0.0776-0.01282-0.1597,0.04579-0.22657c0.10319,0.03362,0.08058,0.12384,0.08158,0.19576
		c0.00487,0.35166,0.00099,0.70341,0.00252,1.05511c0.00093,0.21283,0.0114,0.22514,0.223,0.22315
		c0.13682-0.00129,0.2751,0.01864,0.40987-0.01977c0.1078-0.0664,0.13147-0.16871,0.13101-0.28536
		c-0.00124-0.31547-0.0014-0.63096,0.00023-0.94643c0.00038-0.07281-0.00845-0.14826,0.03744-0.21373
		c0.01707-0.01413,0.03448-0.01447,0.0522-0.00118c0.04727,0.06477,0.03851,0.1403,0.0389,0.21307
		c0.00162,0.29966-0.00011,0.59934,0.00093,0.899c0.00072,0.20722,0.00159,0.20731,0.20171,0.23314
		c0.03169,0.00409,0.06277,0.00975,0.09123,0.02491c0.06435,0.07734,0.14593,0.10435,0.24759,0.10246
		c0.12962-0.00241,0.261-0.01745,0.3894,0.01773c0.18353,0.12238,0.26704,0.2987,0.27704,0.51302
		c0.00362,0.07772,0.00303,0.1557,0.0006,0.23348c0.00008,0.05153,0.0009,0.10315-0.00104,0.15469
		c-0.00016,0.03326,0.00066,0.06659-0.00078,0.09984c0.00036,0.02459,0.00004,0.04921-0.00037,0.07382
		c0.00001,0.04107,0.00008,0.08216-0.00652,0.12293C13.60276,11.97461,13.58916,11.99507,13.57156,12.01328z"/>
	<path fill="#302A3B" d="M30.65617,7.83052c-0.01171,0.18819-0.10268,0.35256-0.17203,0.52062
		c-0.27983,0.67811-0.61034,1.33148-1.03353,1.93401c-0.35774,0.50935-0.74154,0.99486-1.26795,1.35186
		c-0.34052,0.23094-0.69528,0.39942-1.1197,0.37822c-0.11131-0.00556-0.22313-0.00107-0.33471-0.00119
		c-0.0312-0.03609-0.01765-0.07378,0.00854-0.09983c0.10827-0.1077,0.15827-0.24786,0.22655-0.37873
		c0.09463-0.18138,0.24364-0.31611,0.44083-0.36767c0.76191-0.19922,1.25074-0.72961,1.67933-1.33756
		c0.51935-0.7367,0.89847-1.54326,1.20809-2.3847c0.02639-0.07173,0.02963-0.15969,0.11787-0.19594
		C30.57957,7.33756,30.69017,7.59813,30.65617,7.83052z"/>
	<path fill="#322C3E" d="M30.40076,7.25957c-0.19952,0.5547-0.41334,1.10441-0.69351,1.62406
		c-0.3351,0.62154-0.70566,1.22133-1.22077,1.71796c-0.25006,0.24109-0.53334,0.42898-0.87037,0.53187
		c-0.23453,0.0716-0.47535,0.14585-0.59337,0.38578c-0.08538,0.17358-0.18864,0.33441-0.29449,0.49479
		c-4.38555-0.00025-8.77111-0.00049-13.15668-0.00075c0.00069-0.02073,0.00139-0.04144,0.00209-0.06215
		c0.07803-0.06464,0.1721-0.04545,0.2607-0.04551c1.63367-0.00109,3.26734-0.00078,4.90101-0.00078
		c2.40528-0.00001,4.81056-0.00169,7.21582,0.00342c0.17889,0.00038,0.34671-0.04506,0.51869-0.07026
		c0.15178-0.02224,0.24328-0.15119,0.30572-0.28073c0.08847-0.18355,0.25433-0.29518,0.38404-0.43981
		c0.07697-0.08583,0.2016-0.10395,0.30336-0.12703c0.37817-0.08577,0.65693-0.31194,0.92665-0.56879
		c0.29189-0.27796,0.55253-0.58343,0.75168-0.9274c0.26944-0.46537,0.51855-0.9429,0.74503-1.43265
		c0.13614-0.2944,0.1915-0.6236,0.39058-0.88972C30.36352,7.13795,30.39755,7.17734,30.40076,7.25957z"/>
	<path fill="#202020" d="M1.59859,2.47412C1.29971,2.55661,1.16362,2.79532,1.0412,3.0469
		C1.01907,3.09239,1.01852,3.15097,0.96094,3.17439C0.96069,2.92368,0.9608,2.67295,0.95989,2.42222
		C0.95969,2.36441,0.95793,2.30699,0.99254,2.25624c0.00141-0.02298,0.01058-0.04269,0.02531-0.06015
		C1.11624,2.10683,1.2286,2.03788,1.34559,1.97553C1.3806,1.96157,1.41642,1.94997,1.45236,1.93858
		C1.54548,1.9046,1.64757,1.90919,1.73974,1.87182c0.06082-0.03953,0.06272-0.10593,0.07814-0.16645
		C1.85826,1.54692,1.90434,1.39042,1.9833,1.24559C2.01661,1.19695,2.05034,1.14853,2.08671,1.102
		c0.05226-0.05977,0.11137-0.11141,0.18252-0.1484c0.04148-0.04851,0.09823-0.03096,0.1491-0.03113
		c0.34484-0.00116,0.68969-0.0003,1.03454-0.00009C3.46364,0.93572,3.46819,0.9509,3.46662,0.96791
		C3.43432,1.05664,3.35733,1.078,3.27617,1.08525C3.20141,1.09193,3.12908,1.10439,3.0599,1.13291
		C2.99041,1.15955,2.92185,1.18818,2.8614,1.23276C2.78993,1.28789,2.71271,1.3361,2.65408,1.40652
		C2.43077,1.5789,2.34953,1.813,2.34167,2.08518C2.33509,2.31308,2.23373,2.4155,2.00743,2.41876
		C1.86747,2.42077,1.73817,2.48162,1.59859,2.47412z"/>
	<path fill="#202020" d="M30.40076,7.25957c-0.02111-0.04237-0.05321-0.0739-0.09549-0.09539
		c-0.03624-0.00242-0.06257-0.02481-0.09063-0.04388c-0.02658-0.02087-0.0515-0.0438-0.07913-0.06346
		c-0.03304-0.02535-0.0678-0.04786-0.10588-0.06533c-0.04778-0.02457-0.09859-0.04047-0.15046-0.05418
		c-0.13679-0.0427-0.27474-0.07294-0.41909-0.08073c-0.15474-0.00835-0.24807-0.11238-0.24439-0.25324
		c0.00381-0.14596,0.12817-0.27157,0.27479-0.26963c0.05765,0.00076,0.11571,0.00432,0.1736,0.00637
		c0.53052-0.10486,0.88311-0.35902,0.96228-0.91802c0.00987-0.06973,0.01533-0.14963,0.09296-0.19045
		c0.09752,0.23461,0.20184,0.46745,0.19226,0.72986c0.03706,0.1367-0.05513,0.22615-0.12761,0.31634
		c-0.08534,0.10621-0.18832,0.19746-0.3062,0.2698c-0.0827,0.05076-0.07979,0.09762,0.0016,0.15065
		c0.12347,0.08046,0.24473,0.16484,0.32466,0.29342c0.02696,0.04337,0.06914,0.08213,0.0437,0.14145
		c0.0044,0.25093-0.09617,0.47344-0.19156,0.69736C30.61408,7.62123,30.58023,7.40832,30.40076,7.25957z"/>
	<path fill="#202020" d="M0.98977,9.82923c-0.00456,0.23894,0.13547,0.4148,0.26749,0.59193
		c0.19844,0.26624,0.45965,0.40508,0.80212,0.39128c0.17793-0.00717,0.27203,0.08587,0.27198,0.25671
		c-0.00012,0.40119,0.15999,0.70968,0.51224,0.91427c-0.24402,0.05302-0.48797,0.04884-0.73185-0.00094
		c-0.11346-0.03967-0.1462-0.14467-0.19105-0.23775c-0.03198-0.06637-0.05495-0.13919-0.06003-0.21167
		c-0.01169-0.16651-0.10231-0.23494-0.26221-0.2562c-0.17505-0.02328-0.33419-0.09802-0.48002-0.19784
		c-0.05227-0.03578-0.10624-0.07032-0.13152-0.13273c-0.0094-0.01614-0.00741-0.03075,0.00589-0.04383
		c-0.04544-0.0663-0.03585-0.14202-0.03164-0.21438C0.97782,10.40198,0.9216,10.11351,0.98977,9.82923z"/>
	<path fill="#4C4158" d="M0.996,10.93203c0.197,0.1803,0.42974,0.28733,0.69419,0.32113
		c0.12484,0.01596,0.18379,0.07708,0.19646,0.19993c0.02042,0.19812,0.0967,0.37526,0.22509,0.52938
		c-0.03089,0.04022-0.07577,0.03168-0.11724,0.03163c-0.33458-0.0004-0.66916-0.00152-1.00375-0.00242
		C0.9703,11.6517,0.96118,11.29176,0.996,10.93203z"/>
	<path fill="#535F69" d="M3.45264,0.95183C3.45157,0.942,3.45164,0.93218,3.45286,0.92237
		c7.9016-0.00017,15.8032-0.00034,23.70479-0.00041c0.03724,0,0.07447,0.00146,0.11171,0.00224
		c0.01184,0.00587,0.01594,0.01202,0.01234,0.01849c-0.00367,0.0066-0.00739,0.00991-0.01123,0.00991
		C19.70858,0.95289,12.14669,0.95316,4.5848,0.95355c-0.07981,0-0.15961,0.00158-0.23942,0.00242
		C4.30753,0.98848,4.26191,1.00001,4.2136,1.00116C4.0029,1.00621,3.79216,1.00721,3.58149,1.00049
		C3.53405,0.99898,3.48638,0.99196,3.45264,0.95183z"/>
	<path fill="#302A3B" d="M30.84772,7.13317c-0.08825-0.18785-0.23873-0.31801-0.41315-0.4199
		c-0.12254-0.07158-0.10229-0.1186,0.00239-0.18577c0.21649-0.13891,0.40456-0.30461,0.47461-0.56601
		c0.11667,0.06321,0.06317,0.18366,0.07991,0.27301c0.05534,0.29524-0.02028,0.584-0.09203,0.86981
		C30.89617,7.11738,30.86559,7.1237,30.84772,7.13317z"/>
	<path fill="#362F43" d="M2.26923,0.9536C2.22972,1.01925,2.1757,1.07074,2.11176,1.11253
		C2.05708,1.1502,1.99314,1.15013,1.93059,1.15976c-0.15328,0.02359-0.25356,0.12121-0.25045,0.275
		C1.68306,1.57961,1.62004,1.73492,1.727,1.8694c0.01383,0.00909,0.02452,0.02093,0.03228,0.03538
		C1.65747,1.9503,1.54788,1.95686,1.43914,1.96772C1.39116,1.92277,1.40026,1.8626,1.39393,1.80587
		c-0.0228-0.20416,0.04219-0.39534,0.09346-0.5869c0.04202-0.157,0.17066-0.23321,0.31879-0.27974
		c0.13267,0.00568,0.26632-0.01792,0.39799,0.014C2.22585,0.95335,2.24754,0.95348,2.26923,0.9536z"/>
	<path fill="#535F69" d="M0.96347,3.20658c0.04939,0.04835,0.02761,0.11,0.02764,0.16544
		C0.99229,5.42541,0.99228,7.47881,0.99116,9.5322C0.99112,9.58775,1.01231,9.64932,0.96342,9.69777
		c-0.00107-1.93685-0.00228-3.87368-0.00309-5.8105C0.96023,3.66037,0.96237,3.43348,0.96347,3.20658z"/>
	<path fill="#535F69" d="M2.20416,0.95323C2.0659,0.95406,1.92764,0.9549,1.78939,0.95574
		C1.6784,1.01227,1.5589,1.00317,1.4403,1.0007C1.41388,0.99949,1.3874,1.00073,1.36088,1.00118
		c-0.33313,0.00566-0.31727-0.04304-0.32097,0.3319C1.03726,1.60119,1.05843,1.86984,1.0258,2.13759
		C1.0136,2.16463,1.00211,2.19269,0.9636,2.18696c-0.00113-0.37943-0.0022-0.75887-0.00347-1.1383
		C0.95992,0.9838,0.95352,0.92041,1.05265,0.92115c0.36634,0.00274,0.73272,0.00129,1.09907,0.00336
		C2.16925,0.92461,2.18668,0.94323,2.20416,0.95323z"/>
	<path fill="#535F69" d="M0.996,10.93203c-0.00174,0.3599-0.00349,0.7198-0.00524,1.07968
		c-0.03863-0.02442-0.03021-0.06371-0.03027-0.09914c-0.00053-0.30368-0.00043-0.60737-0.00011-0.91105
		c0.00004-0.03609-0.00458-0.0745,0.03242-0.09905C0.99363,10.91234,0.9947,10.9222,0.996,10.93203z"/>
	<path fill="#3F434D" d="M27.27046,0.95261c0.00035-0.00951-0.00001-0.01899-0.00109-0.02843
		c0.14389,0.02596,0.2965,0.02304,0.41767,0.12428C27.54818,1.01651,27.40932,0.98456,27.27046,0.95261z"/>
	<path fill="#3A3C47" d="M27.84544,1.11161c-0.06262,0.00234-0.11833-0.01234-0.15913-0.06371
		C27.74883,1.0458,27.80413,1.06149,27.84544,1.11161z"/>
	<path fill="#414D57" d="M0.9636,2.18696C0.97378,2.1767,0.98395,2.16644,0.99413,2.15618
		c0.0505,0.0032,0.05295,0.02834,0.03014,0.06502c-0.01058,0.01165-0.02116,0.02331-0.03174,0.035
		C0.96405,2.2409,0.9602,2.21542,0.9636,2.18696z"/>
	<path fill="#413A53" d="M29.66407,6.34011c-0.05628,0.03963-0.12104,0.03009-0.1843,0.03313
		c-0.12479,0.00599-0.2284,0.11474-0.22824,0.23588c0.00016,0.12767,0.08251,0.20797,0.22386,0.20634
		c0.15704-0.00182,0.30344,0.03638,0.44587,0.0967c0.02563,0.0528,0.00768,0.10398-0.0086,0.15379
		c-0.33913,1.03749-0.80448,2.01137-1.49831,2.8647c-0.29789,0.36637-0.64709,0.6638-1.13225,0.77813
		c-0.33145,0.07811-0.57401,0.30033-0.72952,0.59778c-0.09294,0.17775-0.21616,0.25041-0.41646,0.25027
		c-4.11681-0.00288-8.23363-0.00212-12.35045-0.0027c-0.0738-0.00001-0.15038,0.00732-0.21263-0.04673
		c0.02528-0.27215-0.01619-0.52405-0.22354-0.72559c0.06559-0.06218,0.08611-0.13787,0.08459-0.22748
		c-0.00367-0.2154-0.00126-0.43093-0.00089-0.64641c0.00018-0.10825,0.0391-0.18683,0.1533-0.2052
		c0.3166-0.05092,0.55271-0.22577,0.74591-0.46876c0.26231-0.25392,0.31578-0.66143,0.1345-1.03641
		c-0.03647-0.07544-0.08973-0.14725-0.03481-0.2355c0.03653-0.04885,0.07526-0.09643,0.099-0.15356
		c0.06617-0.15276,0.18785-0.27867,0.21898-0.4484c0.13208-0.28866,0.22868-0.58627,0.28819-0.89992
		c0.13897-0.73246,0.01189-1.42628-0.27592-2.1002c-0.18257-0.42751-0.45307-0.79829-0.76855-1.13852
		c-0.08336-0.0899-0.19394-0.14871-0.27412-0.24137c-0.03268-0.03776-0.0937-0.058-0.08291-0.12455
		c1.40769-0.00016,2.81538-0.00267,4.22305,0.00257c0.17283,0.00064,0.31996-0.02443,0.45033-0.14562
		c0.05523-0.05134,0.12258-0.10247,0.20666-0.11168c0.01392,0.0131,0.01975,0.02911,0.01758,0.048
		c-0.03305,0.0799-0.10907,0.11343-0.17569,0.15453c-0.96483,0.59522-1.53832,1.45871-1.74454,2.55755
		c-0.17424,0.92841,0.02746,1.79529,0.51939,2.59595c0.08799,0.14321,0.09553,0.25767,0.02344,0.40958
		c-0.24714,0.52075,0.05074,1.14611,0.60888,1.30352c0.03586,0.01011,0.07263,0.01637,0.1089,0.02475
		c0.19435,0.04489,0.21113,0.06492,0.21292,0.26904c0.00176,0.20068,0.00488,0.40151-0.00116,0.60201
		c-0.00368,0.12235,0.04244,0.17538,0.16698,0.16893c0.1008-0.00522,0.20242-0.00574,0.30316,0.00015
		c0.13026,0.00762,0.17975-0.04541,0.17778-0.17578c-0.00534-0.35376-0.00242-0.70766-0.00162-1.06151
		c0.0006-0.26899,0.01704-0.28447,0.29117-0.28498c0.01064-0.00002,0.02128-0.00004,0.03193,0.00002
		c0.25693,0.0015,0.27658,0.02083,0.27728,0.28387c0.00092,0.34856-0.00083,0.69713,0.0007,1.04569
		c0.00078,0.17733,0.01357,0.1889,0.19024,0.19133c0.10108,0.00139,0.20243-0.00399,0.30322,0.00146
		c0.09877,0.00534,0.17741-0.02106,0.23024-0.10769c0.08931-0.05437,0.07321-0.14544,0.07421-0.22604
		c0.00383-0.30895,0.00036-0.61796,0.00224-0.92694c0.00047-0.07753-0.00992-0.15843,0.04312-0.22678
		c0.04018-0.03013,0.08765-0.03443,0.13549-0.03805c0.24882-0.01885,0.30104,0.02742,0.3027,0.27778
		c0.00229,0.34723-0.00129,0.69449,0.00149,1.04172c0.00144,0.18006,0.01963,0.19895,0.20248,0.19818
		c0.14249-0.0006,0.28627,0.0181,0.42698-0.01823c0.12466-0.07792,0.16976-0.18941,0.16685-0.33464
		c-0.00602-0.30063-0.00261-0.60147-0.00126-0.90221c0.00033-0.0732-0.00782-0.14862,0.03493-0.21545
		c0.05692-0.05069,0.12768-0.04576,0.19604-0.04492c0.16732,0.00205,0.20949,0.03844,0.21325,0.20366
		c0.00694,0.30523,0.00165,0.61063,0.00246,0.91595c0.00015,0.05791-0.00036,0.11582,0.00012,0.17372
		c0.0018,0.21369,0.01217,0.22767,0.2226,0.22542c0.5198-0.00555,0.44056,0.07019,0.44835-0.44073
		c0.002-0.13158-0.00083-0.26318,0.00212-0.39479c0.0023-0.10279,0.04666-0.17475,0.15088-0.19298
		c0.30897-0.05404,0.54617-0.21912,0.73714-0.45834c0.27191-0.26037,0.32778-0.58911,0.1905-0.90992
		c-0.10385-0.24269-0.08847-0.42413,0.06496-0.61635c0.26991-0.43354,0.41483-0.91015,0.48618-1.41029
		c0.10707-0.75056-0.05567-1.45336-0.38585-2.12764c-0.05796-0.11837-0.16835-0.21973-0.14789-0.37007
		c0.27589,0.04056,0.55166,0.08197,0.8277,0.12151c0.64988,0.09308,1.2789,0.2726,1.9103,0.44477
		c0.71422,0.19476,1.31543,0.5794,1.82428,1.09618c0.41169,0.4181,0.86234,0.74158,1.45087,0.84809
		C29.64951,6.32139,29.65636,6.33312,29.66407,6.34011z"/>
	<path fill="#413A53" d="M1.59859,2.47412c0.1158-0.07004,0.2441-0.09161,0.37683-0.09407
		C2.22364,2.37546,2.29965,2.30363,2.30139,2.0627c0.00209-0.28981,0.09553-0.53312,0.34934-0.69812
		c0.07058-0.04266,0.1484-0.05075,0.22907-0.05069c0.42857,0.00034,0.85715-0.00049,1.28572,0.00072
		c0.07383,0.00021,0.14949-0.00294,0.21057,0.05101c0.10758,0.41732,0.52628,0.64033,0.87998,0.63843
		c1.87278-0.01007,3.74565-0.0046,5.61848-0.00509c0.09608-0.00003,0.19098-0.00018,0.27222,0.06178
		c-0.08646,0.1007-0.21509,0.05846-0.32114,0.09297c-0.05468,0.0178-0.11428,0.01018-0.16909,0.02857
		c-0.01575,0.00495-0.03199,0.00822-0.04828,0.0107C10.0677,2.30756,9.56109,2.49679,9.13163,2.85539
		c-0.18295,0.18493-0.4113,0.31633-0.59242,0.50476C7.9345,3.98927,7.58162,4.73253,7.47981,5.59674
		c-0.10262,0.87105,0.118,1.66429,0.57449,2.40111c0.06956,0.11227,0.07638,0.20511,0.01858,0.32332
		C7.85652,8.7637,7.96177,9.19788,8.34709,9.51225c0.05456,0.04451,0.13871,0.0643,0.1505,0.15188
		c0.07225,0.08339,0.17436,0.08875,0.27314,0.10381c0.09487,0.01446,0.1474,0.05432,0.14165,0.16598
		c-0.01003,0.19465-0.0057,0.39024-0.00151,0.58531c0.00191,0.08871-0.01684,0.13453-0.12152,0.13413
		c-0.83961-0.00326-1.6793,0.00401-2.51884-0.00431c-0.4235-0.0042-0.79719-0.34185-0.87283-0.75883
		C5.33894,9.56642,5.08231,9.35277,4.7501,9.35228C4.39406,9.35177,4.03801,9.35127,3.68197,9.3531
		c-0.05611,0.00029-0.11799-0.02023-0.1668,0.02799C3.40839,9.41464,3.3016,9.41454,3.1948,9.38115
		c-0.15923-0.07367-0.33155-0.00983-0.49838-0.0545c-0.44739-0.1198-0.74609-0.48023-0.74621-0.93808
		C1.94976,6.64822,1.94415,4.90784,1.9555,3.16757C1.95752,2.85747,1.88018,2.62315,1.59859,2.47412z"/>
	<path fill="#501895" d="M18.52116,2.64848c-0.00142-0.0159-0.00283-0.0318-0.0043-0.0477
		c0.03357-0.02133,0.06719-0.04265,0.10081-0.06397c0.56064-0.30785,1.16961-0.479,1.80161-0.47743
		c0.5677,0.00141,1.12693,0.13348,1.64655,0.38519c0.46179,0.23755,0.86837,0.54604,1.2134,0.93297
		c0.11946,0.13396,0.23385,0.27201,0.31903,0.43115c0.01356,0.01572,0.01123,0.0286-0.00697,0.03874
		c-0.06731,0.01073-0.13269-0.0004-0.19768-0.01707c-0.16752-0.13165-0.283-0.31135-0.43253-0.46088
		c-0.61444-0.61442-1.34713-0.96135-2.21289-1.08933c-0.72834-0.10766-1.38941,0.06383-2.04632,0.32705
		C18.64412,2.63034,18.59026,2.67312,18.52116,2.64848z"/>
	<path fill="#501994" d="M10.6033,2.15786c0.01017-0.00126,0.02035-0.00145,0.03056-0.00058
		c0.19084-0.03059,0.38463-0.04237,0.57304-0.08844c0.86723,0.00792,1.66208,0.24191,2.36943,0.74826
		c0.01205,0.00863,0.0182,0.02538,0.02711,0.03834c-0.01197,0.01394-0.02669,0.02385-0.04407,0.02997
		c-0.07063,0.01831-0.14212,0.01322-0.21368,0.00752c-0.19412-0.06203-0.35502-0.188-0.53604-0.27629
		c-0.35786-0.17454-0.73623-0.26489-1.12726-0.32588c-0.25847-0.04031-0.51562-0.06699-0.77688-0.05666
		c-0.06234-0.00136-0.12485,0.00282-0.18667-0.00364C10.66997,2.22535,10.61049,2.23084,10.6033,2.15786z"/>
	<path fill="#3E374F" d="M4.37608,1.36562C3.80098,1.36528,3.22587,1.36494,2.65074,1.36459
		c0.04358-0.07814,0.1263-0.10867,0.19418-0.15726c0.0789-0.03173,0.16075-0.04772,0.24604-0.04767
		c0.3584,0.00019,0.71679-0.00008,1.07519,0.00016c0.06374,0.00004,0.12734,0.00004,0.17828,0.04731
		C4.35499,1.25997,4.36554,1.31279,4.37608,1.36562z"/>
	<path fill="#542194" d="M13.57265,2.85565c0.01027-0.00023,0.02054-0.0003,0.0308-0.00022
		c0.01109,0.00003,0.0222,0.00005,0.0333,0.00008c0.75398,0.5988,1.22597,1.36945,1.42892,2.30511
		c0.13636,0.62866,0.06631,1.24374-0.11757,1.85198c-0.03959,0.13095-0.14575,0.2336-0.16226,0.37448
		c-0.03165,0.00697-0.04544-0.01261-0.05607-0.03699c0.00821-0.18238,0.06947-0.34847,0.15865-0.50584
		c0.00992-0.01325,0.03532,0.01681,0.0415-0.02118c0.04911-0.30158,0.11318-0.6035,0.12031-0.90766
		c0.00713-0.30455-0.04186-0.6094-0.11223-0.9081c-0.15784-0.66999-0.4967-1.24149-0.96769-1.73949
		c-0.09812-0.10374-0.21875-0.18444-0.31951-0.28618C13.61526,2.94574,13.55843,2.92221,13.57265,2.85565z"/>
	<path fill="#542194" d="M23.59852,3.83772c0.00021-0.0097,0.00014-0.01939-0.00025-0.02905
		c0.00982-0.00067,0.01964-0.0005,0.02941,0.00057c0.22739,0.41741,0.42683,0.8431,0.52789,1.31346
		c0.19509,0.90796,0.02118,1.75237-0.40429,2.5604c-0.01154,0.02191-0.03629,0.03697-0.05488,0.05523
		c-0.01307-0.01102-0.02143-0.02484-0.02524-0.04141c0.08743-0.29196,0.19108-0.57802,0.32139-0.85406
		c0.07877-0.13256,0.07899-0.28523,0.10229-0.42989c0.13762-0.85411-0.03547-1.65179-0.45701-2.4025
		C23.60888,3.9589,23.55473,3.90779,23.59852,3.83772z"/>
	<path fill="#362F43" d="M3.45264,0.95183C3.75022,0.9532,4.0478,0.95456,4.34538,0.95595
		C4.34516,1.00798,4.34493,1.06,4.3447,1.11201C4.29815,1.15467,4.24059,1.15894,4.18141,1.15899
		C3.85332,1.15931,3.52523,1.15958,3.19714,1.15874c-0.05834-0.00015-0.1175,0.0004-0.16212-0.04715
		C3.099,1.0606,3.17416,1.0481,3.25332,1.04835C3.33552,1.04862,3.40739,1.02711,3.45264,0.95183z"/>
	<path fill="#382455" d="M22.06583,2.44457c-0.21523-0.05553-0.41792-0.14696-0.63163-0.20949
		c-0.91317-0.2672-1.78795-0.15459-2.64086,0.23144c-0.05735,0.02595-0.1081,0.06924-0.17568,0.0703
		c0.15604-0.15618,0.36993-0.2039,0.56563-0.27076c0.41521-0.14185,0.84509-0.25703,1.28769-0.22959
		c0.50709,0.03143,1.00634,0.12618,1.47642,0.33272C21.99005,2.38792,22.03852,2.40076,22.06583,2.44457z"/>
	<path fill="#3A344A" d="M3.03502,1.11159C3.47158,1.11173,3.90814,1.11187,4.3447,1.11201
		C4.34462,1.14372,4.34453,1.17543,4.34444,1.20714C3.84459,1.2072,3.34475,1.20726,2.84492,1.20733
		C2.8975,1.15431,2.96267,1.12593,3.03502,1.11159z"/>
	<path fill="#562396" d="M11.20691,2.06883c-0.1832,0.07931-0.37693,0.09135-0.57303,0.08845
		c0.16422-0.06742,0.34408-0.05297,0.51288-0.09652C11.16681,2.06343,11.18686,2.06613,11.20691,2.06883z"/>
	<path fill="#FEFEFE" d="M14.90987,6.83984c-0.05327,0.16912-0.10654,0.33823-0.15981,0.50735
		c-0.02244,0.17103-0.12671,0.30583-0.20344,0.45287c-0.02792,0.0466-0.04515,0.09928-0.08166,0.14101
		c-0.09316,0.12396-0.10708,0.24612-0.03732,0.39424c0.14832,0.31494,0.15172,0.62832-0.06907,0.92044
		c-0.18838,0.2761-0.44457,0.44852-0.78027,0.49228c-0.08398,0.01095-0.09961,0.05047-0.09863,0.12523
		c0.00341,0.25842-0.00444,0.51707,0.00265,0.77534c0.00285,0.10394-0.0338,0.14244-0.13283,0.1332
		c-0.16408-0.002-0.32844-0.0105-0.49214-0.00359c-0.09978,0.00421-0.14909-0.02389-0.14265-0.12634
		c-0.06253-0.0635-0.05273-0.14486-0.05316-0.22235c-0.00166-0.29822-0.00046-0.59645-0.00074-0.89467
		C12.66065,9.36212,12.66035,9.291,12.45994,9.3002c-0.03727,0.00171-0.07141-0.01646-0.10046-0.04093l-0.01404-0.00506
		l-0.01436,0.00407c-0.08436,0.05513-0.07951,0.143-0.08052,0.22618c-0.00287,0.23639-0.00333,0.47285-0.00031,0.70922
		c0.00248,0.19423-0.00087,0.38748-0.04183,0.57836c-0.20199,0.00124-0.40426-0.00327-0.60588,0.00604
		c-0.1092,0.00504-0.14527-0.0226-0.14312-0.13774c0.0077-0.41151,0.00432-0.82325,0.00168-1.23489
		c-0.0003-0.04737,0.03035-0.10525-0.02783-0.1432c-0.10762,0.07023-0.22895,0.0338-0.34416,0.04393
		c-0.1081,0.02121-0.08179,0.1111-0.08293,0.1768c-0.00544,0.31423-0.00129,0.62857-0.00297,0.94286
		c-0.00042,0.07768,0.00974,0.15863-0.04591,0.22573c0.00953,0.10334-0.04001,0.13122-0.13953,0.12637
		c-0.16409-0.00799-0.32917-0.00827-0.49322,0.00004c-0.10421,0.00528-0.13385-0.02627-0.13296-0.13094
		c0.00377-0.44209-0.00212-0.88426-0.00448-1.3264c-0.12324-0.04638-0.26459,0.02008-0.38235-0.06047
		C9.69792,9.23021,9.68102,9.28356,9.68176,9.37599c0.00336,0.42159-0.00288,0.84328,0.00347,1.26479
		c0.00171,0.11377-0.0352,0.14337-0.14443,0.13735c-0.16409-0.00905-0.32924-0.00675-0.4936-0.00062
		c-0.08945,0.00334-0.11957-0.02372-0.11747-0.11493c0.00592-0.25811-0.00232-0.51657,0.00518-0.7746
		C8.93784,9.78667,8.90341,9.75152,8.80469,9.7393c-0.1039-0.01287-0.20486-0.04913-0.3071-0.07517
		C8.01617,9.35619,7.83293,8.96214,7.9558,8.4986c0.00674-0.02544,0.00849-0.05564,0.02376-0.07485
		c0.1616-0.20321,0.06193-0.36442-0.05011-0.5571c-0.98496-1.69391-0.52072-3.80798,1.0753-4.95061
		c0.03423-0.0245,0.06606-0.05231,0.099-0.07857c0.52162-0.37829,1.09724-0.6093,1.74931-0.63155
		c0.0265-0.0009,0.05322,0.00084,0.07721-0.01354c0.86866-0.01228,1.67586,0.19418,2.40833,0.66663
		c0.12498,0.03924,0.22488,0.11926,0.32116,0.20207c0.84653,0.72805,1.30627,1.65287,1.38537,2.75664
		C15.06975,6.16119,15.02397,6.50812,14.90987,6.83984z"/>
	<path fill="#3E374F" d="M13.57303,11.50739c4.18604-0.00002,8.37207-0.00116,12.5581,0.00351
		c0.19024,0.00021,0.29542-0.05598,0.38252-0.23007c0.16256-0.32491,0.43255-0.55194,0.79361-0.63041
		c0.45623-0.09917,0.76881-0.39567,1.05333-0.72387c0.382-0.44064,0.67492-0.94387,0.9343-1.46249
		c0.23571-0.47128,0.43834-0.95839,0.59247-1.46355c0.00918-0.03009,0.0225-0.05894,0.0339-0.08836
		c0.05069,0.00471,0.09479,0.02272,0.12811,0.0625c0.0527,0.06292,0.03101,0.13098,0.00873,0.19557
		c-0.35358,1.02492-0.81379,1.99426-1.49895,2.84783c-0.3229,0.40226-0.70617,0.70925-1.21856,0.84545
		c-0.29095,0.07734-0.5055,0.27109-0.64309,0.53362c-0.12059,0.23011-0.29868,0.31773-0.555,0.31752
		c-4.10823-0.00333-8.21645-0.00228-12.32468-0.00291c-0.08373-0.00001-0.17198,0.01558-0.24471-0.04583
		C13.57308,11.61306,13.57306,11.56022,13.57303,11.50739z"/>
	<path fill="#352E41" d="M30.24029,7.10291c0.03134,0.01032,0.05198,0.03182,0.06498,0.06129
		c-0.09809,0.23603-0.16983,0.48795-0.27982,0.7122c-0.24067,0.49068-0.45728,0.99473-0.74679,1.46286
		c-0.14649,0.23687-0.28823,0.47721-0.45989,0.69523c-0.13291,0.1688-0.31739,0.29801-0.44745,0.46849
		c-0.13149,0.17236-0.32608,0.25752-0.48825,0.38002c-0.08663,0.06544-0.23496,0.11855-0.37782,0.14301
		c-0.12859,0.02202-0.28869,0.05925-0.40085,0.20222c-0.12175,0.15519-0.25711,0.29909-0.36787,0.46622
		c-0.08178,0.12339-0.20968,0.17173-0.37411,0.20614c-0.49112,0.10279-0.98113,0.04474-1.46964,0.04583
		c-3.77303,0.00841-7.54608,0.00469-11.31912,0.00473c-0.00001-0.04226-0.00002-0.08451-0.00004-0.12677
		c0.08358-0.06818,0.18342-0.04285,0.27664-0.04288c4.05756-0.00123,8.11512-0.00106,12.17269-0.00106
		c0.05318,0,0.10728-0.00638,0.15938,0.00106c0.28432,0.0406,0.45987-0.08496,0.57978-0.33609
		c0.11046-0.23134,0.29184-0.41766,0.5439-0.48147c0.65991-0.16706,1.10464-0.60024,1.48948-1.12175
		c0.57043-0.77301,0.9779-1.62773,1.30058-2.52595C30.1259,7.23315,30.13784,7.13778,30.24029,7.10291z"/>
	<path fill="#3B344A" d="M13.57311,11.66589c4.19792-0.00004,8.39584-0.00089,12.59376,0.00212
		c0.22678,0.00016,0.37749-0.07628,0.48409-0.28288c0.14537-0.28173,0.37401-0.48633,0.68905-0.57076
		c0.37936-0.10168,0.70525-0.29154,0.96796-0.5773c0.37649-0.40951,0.69177-0.86452,0.95399-1.35382
		c0.29205-0.54497,0.54757-1.10649,0.7422-1.69386c0.02311-0.06974,0.05426-0.13817,0.0452-0.21474
		c0.04513,0.00103,0.07699,0.02224,0.0964,0.06241c0.04275,0.0575,0.00896,0.11267-0.00898,0.16557
		c-0.34139,1.00651-0.79585,1.95546-1.45535,2.79892c-0.34245,0.43796-0.74176,0.79456-1.30334,0.93928
		c-0.27996,0.07215-0.48792,0.25412-0.61519,0.51463c-0.11988,0.24539-0.30008,0.34269-0.58443,0.34217
		c-4.1243-0.00762-8.24862-0.00509-12.37294-0.00621c-0.07774-0.00002-0.16056,0.02214-0.23217-0.03041
		C13.57328,11.72931,13.57319,11.6976,13.57311,11.66589z"/>
	<path fill="#373045" d="M13.57336,11.76101c4.19696-0.00005,8.39393-0.00228,12.59088,0.00477
		c0.27745,0.00047,0.45283-0.09916,0.57082-0.33511c0.13772-0.2754,0.36308-0.45741,0.65718-0.5353
		c0.52465-0.13896,0.90743-0.4664,1.23015-0.87652c0.70394-0.89461,1.18678-1.90165,1.52336-2.98177
		c0.04905-0.00288,0.06166,0.04581,0.09454,0.06582c-0.14382,0.2821-0.22397,0.58926-0.35193,0.87779
		c-0.38427,0.86647-0.82237,1.69861-1.4887,2.39299c-0.27406,0.2856-0.59267,0.49056-0.97686,0.5926
		c-0.30113,0.07998-0.5123,0.26499-0.64628,0.54078c-0.10667,0.21956-0.26482,0.32223-0.52724,0.32182
		c-4.22522-0.00653-8.45045-0.00456-12.67567-0.00453C13.57353,11.80324,13.57345,11.78213,13.57336,11.76101z"/>
	<path fill="#202020" d="M3.1948,9.38115c0.10679-0.03676,0.21358-0.03674,0.32037-0.00003
		c0.19898,0.07345,0.30634,0.21745,0.31729,0.4257c0.0107,0.20337-0.08429,0.3569-0.26404,0.44705
		c-0.1746,0.08755-0.35096,0.06935-0.50681-0.05054C2.74083,9.95656,2.85934,9.47984,3.1948,9.38115z"/>
	<path fill="#413954" d="M9.80477,9.26018c0.10406-0.0026,0.20812-0.00527,0.31219-0.00779
		c0.04683-0.00113,0.08541,0.00638,0.07016,0.06825c-0.05073,0.04739-0.02953,0.10907-0.02984,0.16455
		c-0.0019,0.34248-0.00829,0.6852,0.00237,1.02736c0.00474,0.15226-0.08127,0.13882-0.1808,0.14037
		c-0.10394,0.00161-0.18064,0.00344-0.17719-0.14405C9.81139,10.09284,9.80488,9.67643,9.80477,9.26018z"/>
	<path fill="#413A53" d="M12.35947,9.25927c0.3645-0.02567,0.3657-0.02567,0.36416,0.33313
		c-0.00152,0.35316-0.00584,0.70631-0.00893,1.05946c-0.35524-0.00096-0.35524-0.00096-0.35524-0.35454
		C12.35947,9.95131,12.35947,9.60529,12.35947,9.25927z"/>
	<path fill="#423B54" d="M11.08191,9.25876c0.11722-0.00864,0.23441-0.01517,0.35136,0.00349
		c-0.00014,0.39364-0.00026,0.78728-0.00044,1.18093c-0.0001,0.21233-0.00015,0.21279-0.21708,0.20804
		c-0.04605-0.00101-0.09659,0.01307-0.1334-0.0301c-0.05229-0.04872-0.04983-0.11407-0.05034-0.17633
		c-0.00274-0.33618-0.00239-0.67239-0.00031-1.00858C11.0321,9.37312,11.03413,9.30923,11.08191,9.25876z"/>
	<path fill="#592898" d="M12.20842,10.77204c0.00091-0.46573,0.00325-0.93147,0.00149-1.39718
		c-0.00034-0.08855,0.01214-0.1476,0.12113-0.11658c-0.00061,0.35822-0.01126,0.71682,0.00253,1.0745
		C12.34,10.49977,12.30307,10.64041,12.20842,10.77204z"/>
	<path fill="#542097" d="M11.08191,9.25876c0.00014,0.45411,0.00029,0.90823,0.00044,1.36235
		c-0.03921,0.02019-0.07968,0.03528-0.12506,0.03046c-0.00247-0.43514-0.00268-0.87032-0.00896-1.3054
		C10.9467,9.23365,11.0107,9.2474,11.08191,9.25876z"/>
	<path fill="#302A3B" d="M1.02427,2.2212C1.02333,2.19537,1.01882,2.17116,0.99411,2.15619
		C0.99346,1.80571,0.99682,1.45515,0.98978,1.1048C0.98751,0.99178,1.01445,0.9393,1.13799,0.95163
		c0.0992,0.0099,0.20005,0.00352,0.30017,0.00436c0.02113,0.04097,0.01211,0.08247-0.00267,0.12157
		C1.34025,1.32947,1.34607,1.58954,1.3706,1.85104c0.00496,0.05287,0.01129,0.10438-0.02713,0.14872
		C1.23707,2.07358,1.13067,2.14739,1.02427,2.2212z"/>
	<path fill="#322C3E" d="M1.34347,1.99977C1.30887,1.74539,1.28802,1.49197,1.33992,1.236
		c0.02018-0.09952,0.06863-0.18577,0.09825-0.28004C1.55524,0.95589,1.67233,0.95579,1.7894,0.95571
		c-0.10682,0.0951-0.2495,0.15572-0.28364,0.31817c-0.04818,0.22923-0.0845,0.45874-0.06661,0.69384
		C1.41615,2.00456,1.37847,1.99824,1.34347,1.99977z"/>
	<path fill="#3D374E" d="M1.75929,1.90478C1.74846,1.90439,1.73763,1.904,1.7268,1.90361
		c-0.08379-0.1858-0.0683-0.37873-0.01094-0.56236c0.04935-0.15796,0.20555-0.19922,0.29956-0.10092
		C1.95037,1.42651,1.86929,1.60742,1.83794,1.80455C1.8314,1.84573,1.82662,1.90361,1.75929,1.90478z"/>
	<path fill="#3A334A" d="M2.01542,1.24033C1.86446,1.18683,1.73555,1.27749,1.72809,1.4511
		c-0.00647,0.15058-0.00132,0.30166-0.0013,0.45251c-0.06558,0.00491-0.098-0.02098-0.09664-0.09053
		c0.00269-0.13691-0.00624-0.27438,0.003-0.41073c0.0107-0.15786,0.14237-0.27796,0.30347-0.28948
		c0.05807-0.00415,0.1167-0.00046,0.1751-0.00035C2.08361,1.15808,2.06966,1.21417,2.01542,1.24033z"/>
	<path fill="#FEFEFE" d="M24.01015,6.83982c-0.08983,0.29072-0.19355,0.57632-0.3194,0.85378
		c-0.01937,0.09533-0.07886,0.171-0.13045,0.24895c-0.08478,0.1281-0.10199,0.24729-0.03173,0.39538
		c0.1488,0.31365,0.14971,0.62653-0.06936,0.9178c-0.18851,0.27504-0.44355,0.44866-0.77905,0.49179
		c-0.08371,0.01076-0.101,0.04869-0.10013,0.12384c0.00305,0.26333-0.00268,0.52678,0.00137,0.79009
		c0.00133,0.08687-0.02249,0.12018-0.11518,0.11633c-0.16953-0.00705-0.3401-0.01013-0.50922,0.00074
		c-0.12159,0.00782-0.13607-0.04384-0.13471-0.1461c0.00525-0.39501-0.00545-0.79034,0.00592-1.18509
		c0.00445-0.15447-0.02937-0.22658-0.19596-0.19643c-0.05671,0.01026-0.11622,0.00528-0.17446,0.00726
		c-0.08861,0.05897-0.11046,0.14436-0.10917,0.24538c0.00307,0.24107-0.00128,0.48224,0.0017,0.72332
		c0.00226,0.18336-0.00119,0.36568-0.04249,0.54541c-0.20203,0.00117-0.40434-0.00373-0.60596,0.00593
		c-0.1105,0.0053-0.14463-0.02514-0.1427-0.13835c0.007-0.41158-0.00274-0.82347,0.00601-1.23499
		c0.00273-0.12818-0.03701-0.1696-0.16028-0.15395c-0.07336,0.00931-0.14838,0.0057-0.22265,0.0079
		c-0.08531,0.06224-0.07633,0.15539-0.07699,0.2429c-0.00234,0.30827,0.00003,0.61657-0.00147,0.92485
		c-0.00038,0.07751,0.0094,0.15822-0.04604,0.22514c0.00044,0.08233-0.01485,0.13455-0.12397,0.12722
		c-0.17464-0.01172-0.35084-0.00791-0.52602-0.00119c-0.09194,0.00353-0.11658-0.02698-0.11568-0.1161
		c0.00427-0.42209-0.00333-0.84435,0.00517-1.26632c0.00247-0.12293-0.03628-0.14749-0.15175-0.1459
		c-0.36061,0.00497-0.36052,0.00012-0.36073,0.35116c-0.0002,0.34826-0.00399,0.69656,0.00084,1.04474
		c0.0014,0.10105-0.02565,0.13884-0.13291,0.13287c-0.16429-0.00914-0.32992-0.00975-0.49412,0.00015
		c-0.11199,0.00675-0.13119-0.03858-0.12901-0.13601c0.00568-0.25316-0.00249-0.50663,0.00418-0.75974
		c0.00248-0.09406-0.02844-0.12376-0.1207-0.1398c-0.75906-0.132-1.10687-0.83299-0.7425-1.50053
		c0.04921-0.09015,0.00337-0.1372-0.03536-0.19598c-0.43784-0.66434-0.65808-1.39563-0.61641-2.18615
		c0.07312-1.38713,0.72464-2.44131,1.92241-3.16155c0.02701-0.01624,0.05341-0.03348,0.08003-0.05017
		c0.56492-0.27645,1.16019-0.47197,1.79116-0.44915c1.22892,0.04444,2.25019,0.53082,3.01061,1.51178
		c0.02567,0.03311,0.05414,0.06408,0.0813,0.09604c0.06678,0.02976,0.10375,0.0871,0.14141,0.14555
		c0.36967,0.57366,0.56004,1.20796,0.60126,1.88061C24.16768,6.1713,24.12343,6.51334,24.01015,6.83982z"/>
	<path fill="#202020" d="M28.13318,6.60733c-0.0054,0.26826-0.22505,0.47179-0.4994,0.46274
		c-0.26209-0.00865-0.46364-0.22312-0.45831-0.48769c0.0054-0.26824,0.22508-0.4718,0.4994-0.46274
		C27.93697,6.1283,28.13851,6.34276,28.13318,6.60733z"/>
	<path fill="#5A2898" d="M21.30783,10.77226c0.00133-0.46346,0.00622-0.92696,0.00153-1.39036
		c-0.0012-0.11844,0.0404-0.15158,0.14846-0.12374c0.00008,0.37985,0.00159,0.7597-0.00064,1.13953
		c-0.00061,0.1039,0.04116,0.2266-0.11021,0.27794C21.32536,10.68295,21.32046,10.73884,21.30783,10.77226z"/>
	<path fill="#542097" d="M20.05775,10.65169c-0.00252-0.43518-0.00279-0.87039-0.00909-1.30551
		c-0.00162-0.11245,0.06231-0.09887,0.1336-0.08737c-0.00004,0.41366-0.00109,0.82732,0.00071,1.24097
		C20.18336,10.58869,20.17162,10.65946,20.05775,10.65169z"/>
	<path fill="#57219B" d="M23.45921,9.25573c0.16874-0.34974,0.18198-0.69522-0.03029-1.03371
		c-0.02573-0.04103-0.02246-0.07425,0.004-0.11514c0.08821-0.13632,0.17221-0.27531,0.25783-0.41329
		c0.00187,0.01489,0.00375,0.02978,0.00564,0.0447c-0.09307,0.24842-0.08917,0.36052-0.02265,0.62385
		C23.75742,8.69341,23.72917,9.00489,23.45921,9.25573z"/>
	<path fill="#57229B" d="M14.35858,9.25574c0.16843-0.3483,0.17458-0.68845-0.02407-1.03287
		c-0.07579-0.1314,0.07694-0.20627,0.12916-0.30535c0.0166,0.01231,0.01825,0.02635,0.00494,0.04212
		c-0.05165,0.06803-0.01668,0.12542,0.01702,0.1883c0.19332,0.36077,0.17826,0.71241-0.05403,1.05253
		C14.41313,9.22751,14.39334,9.25086,14.35858,9.25574z"/>
	<path fill="#542A8B" d="M14.53024,7.79986c0.07328-0.15089,0.14656-0.30178,0.21984-0.45267
		c0.01193,0.0133,0.02386,0.0266,0.03578,0.03989c-0.03618,0.16704-0.15738,0.29172-0.22427,0.44346
		C14.53333,7.83822,14.51886,7.83205,14.53024,7.79986z"/>
	<path fill="#553581" d="M14.53024,7.79986c0.01046,0.01023,0.02091,0.02046,0.03135,0.03069
		c-0.02367,0.04823-0.03891,0.10244-0.093,0.12909c-0.00163-0.01402-0.00328-0.02806-0.00492-0.0421
		C14.47354,7.87143,14.49475,7.83167,14.53024,7.79986z"/>
	<path fill="#202020" d="M3.61058,3.71066c-0.27222,0.00007-0.4824-0.2119-0.47901-0.48307
		c0.00328-0.26246,0.21316-0.46744,0.47868-0.46752C3.88251,2.76,4.09266,2.9719,4.08929,3.24311
		C4.08602,3.50543,3.87596,3.7106,3.61058,3.71066z"/>
	<path fill="#562396" d="M10.93028,2.19237c-0.02464,0.00899-0.04867,0.02331-0.07402,0.02618
		c-0.6325,0.07168-1.21528,0.28146-1.75246,0.61887c0.13819-0.17444,0.34104-0.25817,0.53042-0.35356
		c0.30582-0.15404,0.6257-0.27709,0.96909-0.32601C10.7062,2.22626,10.8226,2.16858,10.93028,2.19237z"/>
	<path fill="#541C9B" d="M24.01015,6.83982c-0.0182-0.09671,0.02112-0.18723,0.03711-0.27883
		c0.17307-0.99116-0.08182-1.8833-0.62445-2.71113c-0.0084-0.01282-0.01244-0.02847-0.01851-0.0428
		c0.06674-0.00227,0.13405-0.00805,0.19423,0.03065c0.10386,0.2302,0.23682,0.4459,0.33155,0.68124
		c0.14897,0.37008,0.20712,0.75563,0.24766,1.14911c0.03945,0.38297-0.05011,0.74857-0.10627,1.11964
		c-0.00464,0.03067-0.012,0.07018-0.03309,0.08667C24.01503,6.89263,24.017,6.85492,24.01015,6.83982z"/>
	<path fill="#541C9B" d="M14.90987,6.83984c-0.0182-0.10207,0.02443-0.19732,0.03784-0.29533
		c0.2065-1.50971-0.35314-2.697-1.53739-3.62443c-0.02471-0.01935-0.04784-0.04068-0.0717-0.06109
		c0.07801-0.00112,0.15602-0.00224,0.23404-0.00336c0.36139,0.30828,0.70158,0.63527,0.94697,1.04708
		c0.27202,0.45651,0.44884,0.94133,0.52954,1.47076c0.07272,0.4771,0.00813,0.93601-0.0747,1.39906
		c-0.0064,0.03578-0.0136,0.07871-0.03695,0.10196C14.91817,6.89375,14.91669,6.85498,14.90987,6.83984z"/>
	<path fill="#413A53" d="M11.62048,6.15588c0.71035-0.26089,1.42088-0.52132,2.13069-0.78365
		c0.04924-0.0182,0.07862-0.01441,0.10117,0.03521c0.27081,0.59604,0.13435,1.22008-0.32669,1.57062
		c-0.43349,0.26218-0.87763,0.28414-1.32424,0.04168c-0.28504-0.15475-0.47784-0.39397-0.58521-0.69945
		C11.59672,6.26489,11.57805,6.20964,11.62048,6.15588z"/>
	<path fill="#413A53" d="M8.65773,5.38438C9.2401,5.59219,9.82256,5.79974,10.40476,6.008
		c0.15908,0.0569,0.31712,0.11668,0.47624,0.1735c0.04847,0.01731,0.08905,0.03029,0.06294,0.0982
		c-0.08885,0.23112-0.17219,0.46464-0.37173,0.63125c-0.07569,0.05687-0.15466,0.10863-0.23962,0.15129
		c-0.58462,0.2976-1.41562,0.03976-1.71048-0.63533c-0.10194-0.2463-0.12412-0.50292-0.10095-0.76534
		C8.52955,5.61167,8.52973,5.5598,8.55455,5.51351C8.58986,5.47128,8.59432,5.40461,8.65773,5.38438z"/>
	<path fill="#541C9B" d="M8.65652,6.43593c0.20467,0.34272,0.4753,0.60369,0.88589,0.67789
		c0.27433,0.04957,0.54618,0.03705,0.80629-0.07739c0.02887-0.0114,0.0351,0.00241,0.03114,0.02756
		c-0.41688,0.28268-0.9837,0.28205-1.40752-0.00156C8.54979,6.77968,8.3325,6.24755,8.44486,5.7624
		c0.02706-0.11685,0.05144-0.2358,0.11666-0.34029c0.07092,0.01237,0.04536,0.05494,0.02996,0.09433
		C8.54634,5.55058,8.56501,5.6003,8.55984,5.64421C8.51763,5.91707,8.53664,6.18257,8.65652,6.43593z"/>
	<path fill="#423A55" d="M10.12195,8.16328c0.10587-0.16221,0.21375-0.32317,0.31656-0.48726
		c0.03779-0.06031,0.07504-0.06539,0.1264-0.02224c0.00802,0.00673,0.01731,0.01203,0.02628,0.01757
		c0.33056,0.20414,0.33099,0.20442,0.11461,0.5255c-0.06745,0.10008-0.13791,0.19817-0.20699,0.29717
		C10.29237,8.46768,10.1146,8.31167,10.12195,8.16328z"/>
	<path fill="#551E9A" d="M11.62048,6.15588c0.06332,0.49316,0.59895,0.96199,1.09314,0.98307
		c0.28849,0.0123,0.55177-0.05542,0.81199-0.16084c-0.53943,0.5126-1.51374,0.34783-1.89595-0.32278
		c-0.04947-0.08681-0.07893-0.1847-0.12625-0.27291C11.43036,6.24621,11.45588,6.16752,11.62048,6.15588z"/>
	<path fill="#423B54" d="M11.65212,7.79027c0.25892-0.20268,0.25896-0.20271,0.442,0.06649
		c0.07713,0.11344,0.14828,0.23145,0.2326,0.33934c0.08749,0.11194,0.09039,0.19277-0.05398,0.25133
		c-0.02293,0.0093-0.03948,0.03409-0.05897,0.05171c-0.05864,0.02665-0.11813,0.02987-0.15651-0.02742
		c-0.14044-0.20964-0.28825-0.41474-0.4103-0.63605C11.63939,7.82195,11.64573,7.80494,11.65212,7.79027z"/>
	<path fill="#542295" d="M11.65212,7.79027c0.13304,0.20291,0.26849,0.40433,0.39769,0.60962
		c0.04043,0.06424,0.08453,0.10612,0.16391,0.09928c-0.0068,0.0078-0.01248,0.01723-0.0207,0.0232
		c-0.18423,0.13379-0.18409,0.1336-0.31192-0.05817c-0.09874-0.14811-0.18881-0.30314-0.29979-0.44163
		C11.47972,7.8958,11.52035,7.83519,11.65212,7.79027z"/>
	<path fill="#572399" d="M10.12195,8.16328c0.04818,0.19718,0.2477,0.22446,0.37686,0.33072
		c-0.04713,0.15074-0.12841,0.15955-0.24002,0.05944c-0.03112-0.02791-0.06966-0.04764-0.10473-0.07123
		C9.95906,8.35109,9.95907,8.35108,10.12195,8.16328z"/>
	<path fill="#5C4182" d="M10.37984,7.06398c-0.01039-0.00917-0.02079-0.01834-0.03116-0.02753
		c0.06997-0.04982,0.13799-0.103,0.22352-0.12549C10.52589,6.98401,10.45501,7.02665,10.37984,7.06398z"/>
	<path fill="#552A8C" d="M8.59148,5.51643c-0.00124-0.03417,0.00568-0.0709-0.02996-0.09432
		c0.00845-0.07191,0.0396-0.08678,0.09621-0.03774C8.63565,5.42839,8.61357,5.47241,8.59148,5.51643z"/>
	<path fill="#413A53" d="M20.72077,6.15588c0.71039-0.26089,1.42095-0.52133,2.13079-0.78367
		c0.04927-0.01821,0.07863-0.01436,0.10118,0.03524c0.27089,0.59603,0.13425,1.22048-0.32681,1.57062
		c-0.43349,0.26218-0.87763,0.28413-1.32424,0.04167C21.01665,6.865,20.82385,6.62577,20.71647,6.3203
		C20.697,6.26488,20.67834,6.20964,20.72077,6.15588z"/>
	<path fill="#413A53" d="M17.75801,5.38438c0.5824,0.20783,1.16488,0.4154,1.74712,0.62366
		c0.15909,0.05691,0.31717,0.11664,0.47627,0.17351c0.04835,0.01728,0.08904,0.03007,0.06288,0.09816
		c-0.0888,0.23116-0.17217,0.46465-0.37168,0.6313c-0.07583,0.05668-0.15471,0.1086-0.2397,0.15122
		c-0.5846,0.29763-1.41564,0.0398-1.71052-0.6353c-0.10194-0.2463-0.12411-0.50293-0.10094-0.76534
		C17.62983,5.61167,17.63,5.5598,17.65482,5.51351C17.69014,5.47128,17.6946,5.40461,17.75801,5.38438z"/>
	<path fill="#541C9B" d="M17.69176,5.51643c-0.04515,0.03415-0.02648,0.08387-0.03165,0.12777
		c-0.04221,0.27286-0.0232,0.53836,0.09668,0.79172c0.20466,0.34273,0.47532,0.60367,0.88589,0.67788
		c0.27432,0.04958,0.54618,0.03707,0.80628-0.07738c0.02888-0.01142,0.0351,0.00241,0.03117,0.02755
		c-0.41686,0.2827-0.98366,0.28205-1.40751-0.0016c-0.42261-0.28282-0.63984-0.8148-0.52749-1.29998
		c0.02706-0.11685,0.05144-0.23579,0.11666-0.34029C17.73272,5.43448,17.70716,5.47705,17.69176,5.51643z"/>
	<path fill="#423A55" d="M19.22222,8.16329c0.1059-0.16222,0.21373-0.32324,0.31667-0.48728
		c0.03768-0.06005,0.07498-0.06572,0.12642-0.02224c0.00799,0.00675,0.01735,0.01197,0.02632,0.01751
		c0.33054,0.20418,0.33098,0.20447,0.11458,0.52564c-0.06744,0.10009-0.13797,0.19814-0.20709,0.29712
		C19.39268,8.4677,19.21489,8.31169,19.22222,8.16329z"/>
	<path fill="#551E9A" d="M20.72077,6.15588c0.06328,0.49313,0.59894,0.96199,1.09314,0.98306
		c0.28848,0.0123,0.55177-0.05541,0.81199-0.16084c-0.53945,0.5126-1.51374,0.34783-1.89595-0.32278
		c-0.04947-0.08681-0.07892-0.1847-0.12625-0.27292C20.53062,6.24619,20.55618,6.16752,20.72077,6.15588z"/>
	<path fill="#423B54" d="M20.7524,7.79027c0.25891-0.20268,0.25898-0.20273,0.44211,0.06643
		c0.07717,0.11342,0.14823,0.2315,0.23252,0.33941c0.08743,0.11192,0.09042,0.19273-0.05396,0.25129
		c-0.02292,0.00929-0.03943,0.03413-0.0589,0.05179c-0.05862,0.02646-0.11815,0.02995-0.15658-0.0274
		c-0.14048-0.20965-0.28828-0.41478-0.41035-0.63611C20.73967,7.82196,20.74601,7.80495,20.7524,7.79027z"/>
	<path fill="#542295" d="M20.7524,7.79027c0.13305,0.20294,0.26854,0.40437,0.39773,0.6097
		c0.04045,0.0643,0.08467,0.10599,0.16398,0.09925c-0.00682,0.00779-0.01251,0.0172-0.02074,0.02317
		c-0.18429,0.13381-0.18415,0.13361-0.31198-0.05815c-0.09874-0.14812-0.18882-0.30315-0.2998-0.44166
		C20.58002,7.89582,20.62059,7.83519,20.7524,7.79027z"/>
	<path fill="#572399" d="M19.22222,8.16329c0.0482,0.19719,0.24773,0.22446,0.37691,0.33073
		c-0.04716,0.15073-0.12846,0.15951-0.24006,0.05942c-0.03112-0.02791-0.06966-0.04764-0.10473-0.07122
		C19.05934,8.35109,19.05935,8.35108,19.22222,8.16329z"/>
	<path fill="#5C4182" d="M19.48013,7.06398c-0.0104-0.00917-0.0208-0.01834-0.03119-0.02753
		c0.07002-0.04979,0.138-0.10313,0.22366-0.12543C19.62618,6.98398,19.55529,7.02663,19.48013,7.06398z"/>
	<path fill="#552A8C" d="M17.69176,5.51643c-0.00125-0.03417,0.00568-0.07091-0.02996-0.09432
		c0.00844-0.07191,0.03959-0.08679,0.0962-0.03774C17.73593,5.42839,17.71384,5.47241,17.69176,5.51643z"/>
	<path fill="#FDFDFD" d="M13.37565,6.40446C13.1865,6.64665,12.95731,6.80135,12.6287,6.7629
		c-0.19035-0.02227-0.33697-0.1137-0.46595-0.24155c0.02859-0.06205,0.09994-0.04447,0.13413-0.08682
		c0.15529-0.11655,0.34692-0.14799,0.5216-0.21908c0.17608-0.07165,0.3558-0.13409,0.53618-0.19359
		c0.1224-0.04038,0.169,0.00593,0.14673,0.13222C13.4846,6.24927,13.4397,6.33195,13.37565,6.40446z"/>
	<path fill="#542592" d="M13.37565,6.40446c0.04175-0.11638,0.10591-0.22721,0.09222-0.37813
		c-0.39574,0.13796-0.78338,0.27309-1.171,0.40821c-0.01227-0.06902,0.03286-0.0875,0.08714-0.10711
		c0.37197-0.1344,0.7435-0.27003,1.11393-0.40854c0.07947-0.02972,0.12076-0.0067,0.10338,0.07174
		C13.5664,6.14824,13.53114,6.30987,13.37565,6.40446z"/>
	<path fill="#FDFDFD" d="M10.254,6.52688C9.87589,6.83544,9.49317,6.85013,9.17781,6.56735
		C9.06008,6.46179,8.98979,6.32936,8.94958,6.17756C8.91835,6.05962,8.93903,6.00549,9.07176,6.05695
		c0.06106-0.02633,0.11342,0.008,0.16601,0.02709c0.29662,0.10762,0.59451,0.21188,0.88865,0.32609
		C10.18286,6.43204,10.25403,6.44233,10.254,6.52688z"/>
	<path fill="#541E99" d="M10.254,6.52688c-0.02913-0.06193-0.0952-0.06226-0.14699-0.082
		C9.76268,6.31361,9.41699,6.18585,9.07175,6.05694c0.00067-0.07909-0.03384-0.18421,0.12082-0.12571
		c0.33587,0.12705,0.67496,0.24571,1.01102,0.37229C10.38135,6.37048,10.37972,6.37473,10.254,6.52688z"/>
	<path fill="#552A8C" d="M8.65652,6.43593C8.50032,6.18694,8.497,5.91955,8.55984,5.64421
		C8.53898,5.9145,8.57419,6.17805,8.65652,6.43593z"/>
	<path fill="#FBFAFC" d="M22.4764,6.40462c-0.18951,0.24192-0.41861,0.39715-0.74751,0.35855
		c-0.1905-0.02236-0.33708-0.11395-0.46609-0.24174c0.02846-0.0624,0.10008-0.04455,0.13411-0.08716
		c0.1556-0.11594,0.34663-0.14879,0.52187-0.21851c0.17655-0.07024,0.35284-0.14206,0.5357-0.1947
		c0.12443-0.03582,0.16935,0.0066,0.14725,0.13287C22.58507,6.2492,22.53955,6.33157,22.4764,6.40462z"/>
	<path fill="#52238F" d="M22.4764,6.40462c0.0419-0.11648,0.10602-0.22745,0.09229-0.37917
		c-0.39607,0.13818-0.78395,0.2735-1.1718,0.40882c-0.01204-0.06901,0.03316-0.08739,0.0874-0.10699
		c0.37196-0.1344,0.74347-0.27006,1.1139-0.40857c0.07935-0.02967,0.12087-0.00679,0.10354,0.07167
		C22.6669,6.14807,22.6315,6.30965,22.4764,6.40462z"/>
	<path fill="#FDFDFD" d="M19.35429,6.52686c-0.37812,0.30862-0.76038,0.32331-1.07614,0.04045
		c-0.11778-0.10551-0.18792-0.23802-0.22817-0.38983c-0.03132-0.11814-0.01069-0.17206,0.12207-0.12053
		c0.06106-0.02631,0.11341,0.00801,0.16601,0.02709c0.2966,0.10762,0.59449,0.21187,0.88862,0.32608
		C19.28312,6.43203,19.35428,6.44233,19.35429,6.52686z"/>
	<path fill="#541D99" d="M19.35429,6.52686c-0.02915-0.06189-0.09521-0.06224-0.147-0.08198
		c-0.34433-0.13126-0.69001-0.25902-1.03525-0.38792c0.00066-0.0791-0.03385-0.1842,0.1208-0.1257
		c0.33586,0.12704,0.67494,0.2457,1.01099,0.37227C19.48161,6.37047,19.47999,6.37472,19.35429,6.52686z"/>
	<path fill="#552A8C" d="M17.75679,6.43593c-0.15619-0.249-0.15954-0.51638-0.09668-0.79173
		C17.63926,5.9145,17.67447,6.17805,17.75679,6.43593z"/>
</g>
</svg>
